<?xml version="1.0" encoding="utf-8" standalone="no"?>
<!DOCTYPE svg PUBLIC "-//W3C//DTD SVG 1.1//EN"
  "http://www.w3.org/Graphics/SVG/1.1/DTD/svg11.dtd">
<svg xmlns:xlink="http://www.w3.org/1999/xlink" width="288pt" height="648pt" viewBox="0 0 288 648" xmlns="http://www.w3.org/2000/svg" version="1.1">
 <metadata>
  <rdf:RDF xmlns:dc="http://purl.org/dc/elements/1.1/" xmlns:cc="http://creativecommons.org/ns#" xmlns:rdf="http://www.w3.org/1999/02/22-rdf-syntax-ns#">
   <cc:Work>
    <dc:type rdf:resource="http://purl.org/dc/dcmitype/StillImage"/>
    <dc:date>2023-11-18T15:18:10.439216</dc:date>
    <dc:format>image/svg+xml</dc:format>
    <dc:creator>
     <cc:Agent>
      <dc:title>Matplotlib v3.8.0, https://matplotlib.org/</dc:title>
     </cc:Agent>
    </dc:creator>
   </cc:Work>
  </rdf:RDF>
 </metadata>
 <defs>
  <style type="text/css">*{stroke-linejoin: round; stroke-linecap: butt}</style>
 </defs>
 <g id="figure_1">
  <g id="patch_1">
   <path d="M 0 648 
L 288 648 
L 288 0 
L 0 0 
z
" style="fill: #ffffff"/>
  </g>
  <g id="axes_1">
   <g id="patch_2">
    <path d="M 57.17 190.626667 
L 272.721328 190.626667 
L 272.721328 10.8 
L 57.17 10.8 
z
" style="fill: #ffffff"/>
   </g>
   <g id="PolyCollection_1">
    <defs>
     <path id="m76d47eed4b" d="M 57.17 -457.373333 
L 57.17 -457.373333 
L 58.011997 -457.373333 
L 58.853995 -457.373333 
L 59.695992 -457.373333 
L 60.53799 -457.373333 
L 61.379987 -457.373333 
L 62.221984 -457.373333 
L 63.063982 -457.373333 
L 63.905979 -457.373333 
L 64.747976 -457.373333 
L 65.589974 -457.373333 
L 66.431971 -457.373333 
L 67.273969 -457.373333 
L 68.115966 -457.373333 
L 68.957963 -457.373333 
L 69.799961 -457.373333 
L 70.641958 -457.373333 
L 71.483955 -457.373333 
L 72.325953 -457.373333 
L 73.16795 -457.373333 
L 74.009948 -457.373333 
L 74.851945 -457.373333 
L 75.693942 -457.373333 
L 76.53594 -457.373333 
L 77.377937 -457.373333 
L 78.219934 -457.373333 
L 79.061932 -457.373333 
L 79.903929 -457.373333 
L 80.745927 -457.373333 
L 81.587924 -457.373333 
L 82.429921 -457.373333 
L 83.271919 -457.373333 
L 84.113916 -457.373333 
L 84.955913 -457.373333 
L 85.797911 -457.373333 
L 86.639908 -457.373333 
L 87.481906 -457.373333 
L 88.323903 -457.373333 
L 89.1659 -457.373333 
L 90.007898 -457.373333 
L 90.849895 -457.373333 
L 91.691892 -457.373333 
L 92.53389 -457.373333 
L 93.375887 -457.373333 
L 94.217885 -457.373333 
L 95.059882 -457.373333 
L 95.901879 -457.562227 
L 96.743877 -458.254837 
L 97.585874 -458.947446 
L 98.427871 -464.677218 
L 99.269869 -474.688576 
L 100.111866 -480.796134 
L 100.953864 -486.651835 
L 101.795861 -494.144613 
L 102.637858 -506.737516 
L 103.479856 -528.586204 
L 104.321853 -539.66796 
L 105.16385 -556.857274 
L 106.005848 -563.090761 
L 106.847845 -546.594057 
L 107.689843 -554.338693 
L 108.53184 -553.331261 
L 109.373837 -535.638231 
L 110.215835 -526.445411 
L 111.057832 -525.312049 
L 111.899829 -521.093427 
L 112.741827 -515.048833 
L 113.583824 -516.559981 
L 114.425822 -517.882236 
L 115.267819 -514.545117 
L 116.109816 -507.744949 
L 116.951814 -505.981942 
L 117.793811 -506.359729 
L 118.635808 -501.511461 
L 119.477806 -498.489164 
L 120.319803 -499.181774 
L 121.161801 -495.466867 
L 122.003798 -492.507535 
L 122.845795 -495.78169 
L 123.687793 -493.514967 
L 124.52979 -492.255677 
L 125.371787 -492.696429 
L 126.213785 -493.263109 
L 127.055782 -491.374174 
L 127.89778 -491.059351 
L 128.739777 -491.059351 
L 129.581774 -490.114883 
L 130.423772 -488.855593 
L 131.265769 -486.58887 
L 132.107766 -486.211083 
L 132.949764 -486.399977 
L 133.791761 -483.188786 
L 134.633759 -482.181354 
L 135.475756 -480.985028 
L 136.317753 -479.410915 
L 137.159751 -479.977596 
L 138.001748 -479.159057 
L 138.843745 -479.159057 
L 139.685743 -478.08866 
L 140.52774 -477.710873 
L 141.369738 -474.814505 
L 142.211735 -473.681144 
L 143.053732 -475.192292 
L 143.89573 -472.295924 
L 144.737727 -473.240392 
L 145.579724 -473.681144 
L 146.421722 -472.736676 
L 147.263719 -471.099599 
L 148.105717 -469.399556 
L 148.947714 -470.721811 
L 149.789711 -470.469953 
L 150.631709 -467.825444 
L 151.473706 -470.28106 
L 152.315703 -467.825444 
L 153.157701 -467.63655 
L 153.999698 -469.58845 
L 154.841696 -469.58845 
L 155.683693 -467.762479 
L 156.52569 -467.510621 
L 157.367688 -467.258763 
L 158.209685 -467.762479 
L 159.051682 -468.958805 
L 159.89368 -467.63655 
L 160.735677 -466.251331 
L 161.577675 -469.58845 
L 162.419672 -466.440224 
L 163.261669 -469.336592 
L 164.103667 -466.692082 
L 164.945664 -465.495756 
L 165.787661 -466.440224 
L 166.629659 -466.629118 
L 167.471656 -466.188366 
L 168.313654 -464.614253 
L 169.155651 -466.94394 
L 169.997648 -466.188366 
L 170.839646 -464.236466 
L 171.681643 -465.306863 
L 172.52364 -463.921643 
L 173.365638 -464.362395 
L 174.207635 -465.117969 
L 175.049633 -465.621685 
L 175.89163 -463.669785 
L 176.733627 -464.425359 
L 177.575625 -464.740182 
L 178.417622 -464.29943 
L 179.259619 -464.551289 
L 180.101617 -463.417927 
L 180.943614 -463.103105 
L 181.785612 -463.229034 
L 182.627609 -465.117969 
L 183.469606 -463.606821 
L 184.311604 -463.480892 
L 185.153601 -463.921643 
L 185.995598 -463.480892 
L 186.837596 -463.04014 
L 187.679593 -463.229034 
L 188.521591 -462.599388 
L 189.363588 -462.725317 
L 190.205585 -463.229034 
L 191.047583 -463.795714 
L 191.88958 -462.977176 
L 192.731577 -462.599388 
L 193.573575 -462.788282 
L 194.415572 -462.914211 
L 195.25757 -461.277134 
L 196.099567 -461.654921 
L 196.941564 -462.662353 
L 197.783562 -462.095672 
L 198.625559 -461.08824 
L 199.467556 -462.599388 
L 200.309554 -461.403063 
L 201.151551 -461.969743 
L 201.993549 -462.410495 
L 202.835546 -461.025275 
L 203.677543 -462.410495 
L 204.519541 -461.528992 
L 205.361538 -462.662353 
L 206.203535 -461.591956 
L 207.045533 -461.466027 
L 207.88753 -461.466027 
L 208.729528 -461.654921 
L 209.571525 -461.025275 
L 210.413522 -462.095672 
L 211.25552 -460.458595 
L 212.097517 -461.08824 
L 212.939514 -460.017843 
L 213.781512 -460.332666 
L 214.623509 -460.836382 
L 215.465507 -461.466027 
L 216.307504 -460.962311 
L 217.149501 -461.08824 
L 217.991499 -460.710453 
L 218.833496 -461.277134 
L 219.675493 -460.962311 
L 220.517491 -460.521559 
L 221.359488 -460.269701 
L 222.201486 -460.710453 
L 223.043483 -460.962311 
L 223.88548 -460.332666 
L 224.727478 -460.017843 
L 225.569475 -459.325233 
L 226.411472 -459.577092 
L 227.25347 -459.765985 
L 228.095467 -459.891914 
L 228.937465 -460.332666 
L 229.779462 -460.017843 
L 230.621459 -459.514127 
L 231.463457 -460.269701 
L 232.305454 -460.269701 
L 233.147451 -459.765985 
L 233.989449 -460.017843 
L 234.831446 -459.577092 
L 235.673444 -460.647488 
L 236.515441 -459.891914 
L 237.357438 -459.703021 
L 238.199436 -459.82895 
L 239.041433 -459.010411 
L 239.88343 -458.884482 
L 240.725428 -459.451162 
L 241.567425 -459.388198 
L 242.409423 -459.451162 
L 243.25142 -459.514127 
L 244.093417 -459.262269 
L 244.935415 -459.325233 
L 245.777412 -459.388198 
L 246.619409 -459.13634 
L 247.461407 -459.262269 
L 248.303404 -459.262269 
L 249.145402 -459.451162 
L 249.987399 -459.010411 
L 250.829396 -459.577092 
L 251.671394 -459.13634 
L 252.513391 -458.947446 
L 253.355388 -459.514127 
L 254.197386 -459.13634 
L 255.039383 -458.380766 
L 255.881381 -458.947446 
L 256.723378 -459.262269 
L 257.565375 -458.632624 
L 258.407373 -458.821517 
L 259.24937 -458.44373 
L 260.091367 -458.947446 
L 260.933365 -458.632624 
L 261.775362 -458.695588 
L 262.61736 -458.758553 
L 263.459357 -458.947446 
L 264.301354 -458.821517 
L 265.143352 -458.947446 
L 265.985349 -459.010411 
L 266.827346 -458.632624 
L 267.669344 -458.884482 
L 268.511341 -459.703021 
L 269.353339 -459.514127 
L 270.195336 -460.143772 
L 271.037333 -460.521559 
L 271.879331 -465.432792 
L 271.879331 -457.373333 
L 271.879331 -457.373333 
L 271.037333 -457.373333 
L 270.195336 -457.373333 
L 269.353339 -457.373333 
L 268.511341 -457.373333 
L 267.669344 -457.373333 
L 266.827346 -457.373333 
L 265.985349 -457.373333 
L 265.143352 -457.373333 
L 264.301354 -457.373333 
L 263.459357 -457.373333 
L 262.61736 -457.373333 
L 261.775362 -457.373333 
L 260.933365 -457.373333 
L 260.091367 -457.373333 
L 259.24937 -457.373333 
L 258.407373 -457.373333 
L 257.565375 -457.373333 
L 256.723378 -457.373333 
L 255.881381 -457.373333 
L 255.039383 -457.373333 
L 254.197386 -457.373333 
L 253.355388 -457.373333 
L 252.513391 -457.373333 
L 251.671394 -457.373333 
L 250.829396 -457.373333 
L 249.987399 -457.373333 
L 249.145402 -457.373333 
L 248.303404 -457.373333 
L 247.461407 -457.373333 
L 246.619409 -457.373333 
L 245.777412 -457.373333 
L 244.935415 -457.373333 
L 244.093417 -457.373333 
L 243.25142 -457.373333 
L 242.409423 -457.373333 
L 241.567425 -457.373333 
L 240.725428 -457.373333 
L 239.88343 -457.373333 
L 239.041433 -457.373333 
L 238.199436 -457.373333 
L 237.357438 -457.373333 
L 236.515441 -457.373333 
L 235.673444 -457.373333 
L 234.831446 -457.373333 
L 233.989449 -457.373333 
L 233.147451 -457.373333 
L 232.305454 -457.373333 
L 231.463457 -457.373333 
L 230.621459 -457.373333 
L 229.779462 -457.373333 
L 228.937465 -457.373333 
L 228.095467 -457.373333 
L 227.25347 -457.373333 
L 226.411472 -457.373333 
L 225.569475 -457.373333 
L 224.727478 -457.373333 
L 223.88548 -457.373333 
L 223.043483 -457.373333 
L 222.201486 -457.373333 
L 221.359488 -457.373333 
L 220.517491 -457.373333 
L 219.675493 -457.373333 
L 218.833496 -457.373333 
L 217.991499 -457.373333 
L 217.149501 -457.373333 
L 216.307504 -457.373333 
L 215.465507 -457.373333 
L 214.623509 -457.373333 
L 213.781512 -457.373333 
L 212.939514 -457.373333 
L 212.097517 -457.373333 
L 211.25552 -457.373333 
L 210.413522 -457.373333 
L 209.571525 -457.373333 
L 208.729528 -457.373333 
L 207.88753 -457.373333 
L 207.045533 -457.373333 
L 206.203535 -457.373333 
L 205.361538 -457.373333 
L 204.519541 -457.373333 
L 203.677543 -457.373333 
L 202.835546 -457.373333 
L 201.993549 -457.373333 
L 201.151551 -457.373333 
L 200.309554 -457.373333 
L 199.467556 -457.373333 
L 198.625559 -457.373333 
L 197.783562 -457.373333 
L 196.941564 -457.373333 
L 196.099567 -457.373333 
L 195.25757 -457.373333 
L 194.415572 -457.373333 
L 193.573575 -457.373333 
L 192.731577 -457.373333 
L 191.88958 -457.373333 
L 191.047583 -457.373333 
L 190.205585 -457.373333 
L 189.363588 -457.373333 
L 188.521591 -457.373333 
L 187.679593 -457.373333 
L 186.837596 -457.373333 
L 185.995598 -457.373333 
L 185.153601 -457.373333 
L 184.311604 -457.373333 
L 183.469606 -457.373333 
L 182.627609 -457.373333 
L 181.785612 -457.373333 
L 180.943614 -457.373333 
L 180.101617 -457.373333 
L 179.259619 -457.373333 
L 178.417622 -457.373333 
L 177.575625 -457.373333 
L 176.733627 -457.373333 
L 175.89163 -457.373333 
L 175.049633 -457.373333 
L 174.207635 -457.373333 
L 173.365638 -457.373333 
L 172.52364 -457.373333 
L 171.681643 -457.373333 
L 170.839646 -457.373333 
L 169.997648 -457.373333 
L 169.155651 -457.373333 
L 168.313654 -457.373333 
L 167.471656 -457.373333 
L 166.629659 -457.373333 
L 165.787661 -457.373333 
L 164.945664 -457.373333 
L 164.103667 -457.373333 
L 163.261669 -457.373333 
L 162.419672 -457.373333 
L 161.577675 -457.373333 
L 160.735677 -457.373333 
L 159.89368 -457.373333 
L 159.051682 -457.373333 
L 158.209685 -457.373333 
L 157.367688 -457.373333 
L 156.52569 -457.373333 
L 155.683693 -457.373333 
L 154.841696 -457.373333 
L 153.999698 -457.373333 
L 153.157701 -457.373333 
L 152.315703 -457.373333 
L 151.473706 -457.373333 
L 150.631709 -457.373333 
L 149.789711 -457.373333 
L 148.947714 -457.373333 
L 148.105717 -457.373333 
L 147.263719 -457.373333 
L 146.421722 -457.373333 
L 145.579724 -457.373333 
L 144.737727 -457.373333 
L 143.89573 -457.373333 
L 143.053732 -457.373333 
L 142.211735 -457.373333 
L 141.369738 -457.373333 
L 140.52774 -457.373333 
L 139.685743 -457.373333 
L 138.843745 -457.373333 
L 138.001748 -457.373333 
L 137.159751 -457.373333 
L 136.317753 -457.373333 
L 135.475756 -457.373333 
L 134.633759 -457.373333 
L 133.791761 -457.373333 
L 132.949764 -457.373333 
L 132.107766 -457.373333 
L 131.265769 -457.373333 
L 130.423772 -457.373333 
L 129.581774 -457.373333 
L 128.739777 -457.373333 
L 127.89778 -457.373333 
L 127.055782 -457.373333 
L 126.213785 -457.373333 
L 125.371787 -457.373333 
L 124.52979 -457.373333 
L 123.687793 -457.373333 
L 122.845795 -457.373333 
L 122.003798 -457.373333 
L 121.161801 -457.373333 
L 120.319803 -457.373333 
L 119.477806 -457.373333 
L 118.635808 -457.373333 
L 117.793811 -457.373333 
L 116.951814 -457.373333 
L 116.109816 -457.373333 
L 115.267819 -457.373333 
L 114.425822 -457.373333 
L 113.583824 -457.373333 
L 112.741827 -457.373333 
L 111.899829 -457.373333 
L 111.057832 -457.373333 
L 110.215835 -457.373333 
L 109.373837 -457.373333 
L 108.53184 -457.373333 
L 107.689843 -457.373333 
L 106.847845 -457.373333 
L 106.005848 -457.373333 
L 105.16385 -457.373333 
L 104.321853 -457.373333 
L 103.479856 -457.373333 
L 102.637858 -457.373333 
L 101.795861 -457.373333 
L 100.953864 -457.373333 
L 100.111866 -457.373333 
L 99.269869 -457.373333 
L 98.427871 -457.373333 
L 97.585874 -457.373333 
L 96.743877 -457.373333 
L 95.901879 -457.373333 
L 95.059882 -457.373333 
L 94.217885 -457.373333 
L 93.375887 -457.373333 
L 92.53389 -457.373333 
L 91.691892 -457.373333 
L 90.849895 -457.373333 
L 90.007898 -457.373333 
L 89.1659 -457.373333 
L 88.323903 -457.373333 
L 87.481906 -457.373333 
L 86.639908 -457.373333 
L 85.797911 -457.373333 
L 84.955913 -457.373333 
L 84.113916 -457.373333 
L 83.271919 -457.373333 
L 82.429921 -457.373333 
L 81.587924 -457.373333 
L 80.745927 -457.373333 
L 79.903929 -457.373333 
L 79.061932 -457.373333 
L 78.219934 -457.373333 
L 77.377937 -457.373333 
L 76.53594 -457.373333 
L 75.693942 -457.373333 
L 74.851945 -457.373333 
L 74.009948 -457.373333 
L 73.16795 -457.373333 
L 72.325953 -457.373333 
L 71.483955 -457.373333 
L 70.641958 -457.373333 
L 69.799961 -457.373333 
L 68.957963 -457.373333 
L 68.115966 -457.373333 
L 67.273969 -457.373333 
L 66.431971 -457.373333 
L 65.589974 -457.373333 
L 64.747976 -457.373333 
L 63.905979 -457.373333 
L 63.063982 -457.373333 
L 62.221984 -457.373333 
L 61.379987 -457.373333 
L 60.53799 -457.373333 
L 59.695992 -457.373333 
L 58.853995 -457.373333 
L 58.011997 -457.373333 
L 57.17 -457.373333 
z
" style="stroke: #ff0000; stroke-opacity: 0.4"/>
    </defs>
    <g clip-path="url(#pe038cea970)">
     <use xlink:href="#m76d47eed4b" x="0" y="648" style="fill: #ff0000; fill-opacity: 0.4; stroke: #ff0000; stroke-opacity: 0.4"/>
    </g>
   </g>
   <g id="matplotlib.axis_1">
    <g id="xtick_1">
     <g id="line2d_1">
      <defs>
       <path id="m962dd15d77" d="M 0 0 
L 0 3.5 
" style="stroke: #000000; stroke-width: 0.8"/>
      </defs>
      <g>
       <use xlink:href="#m962dd15d77" x="57.17" y="190.626667" style="stroke: #000000; stroke-width: 0.8"/>
      </g>
     </g>
     <g id="text_1">
      <!-- 0 -->
      <g transform="translate(53.98875 205.225104) scale(0.1 -0.1)">
       <defs>
        <path id="DejaVuSans-30" d="M 2034 4250 
Q 1547 4250 1301 3770 
Q 1056 3291 1056 2328 
Q 1056 1369 1301 889 
Q 1547 409 2034 409 
Q 2525 409 2770 889 
Q 3016 1369 3016 2328 
Q 3016 3291 2770 3770 
Q 2525 4250 2034 4250 
z
M 2034 4750 
Q 2819 4750 3233 4129 
Q 3647 3509 3647 2328 
Q 3647 1150 3233 529 
Q 2819 -91 2034 -91 
Q 1250 -91 836 529 
Q 422 1150 422 2328 
Q 422 3509 836 4129 
Q 1250 4750 2034 4750 
z
" transform="scale(0.015625)"/>
       </defs>
       <use xlink:href="#DejaVuSans-30"/>
      </g>
     </g>
    </g>
    <g id="xtick_2">
     <g id="line2d_2">
      <g>
       <use xlink:href="#m962dd15d77" x="99.269869" y="190.626667" style="stroke: #000000; stroke-width: 0.8"/>
      </g>
     </g>
     <g id="text_2">
      <!-- 50 -->
      <g transform="translate(92.907369 205.225104) scale(0.1 -0.1)">
       <defs>
        <path id="DejaVuSans-35" d="M 691 4666 
L 3169 4666 
L 3169 4134 
L 1269 4134 
L 1269 2991 
Q 1406 3038 1543 3061 
Q 1681 3084 1819 3084 
Q 2600 3084 3056 2656 
Q 3513 2228 3513 1497 
Q 3513 744 3044 326 
Q 2575 -91 1722 -91 
Q 1428 -91 1123 -41 
Q 819 9 494 109 
L 494 744 
Q 775 591 1075 516 
Q 1375 441 1709 441 
Q 2250 441 2565 725 
Q 2881 1009 2881 1497 
Q 2881 1984 2565 2268 
Q 2250 2553 1709 2553 
Q 1456 2553 1204 2497 
Q 953 2441 691 2322 
L 691 4666 
z
" transform="scale(0.015625)"/>
       </defs>
       <use xlink:href="#DejaVuSans-35"/>
       <use xlink:href="#DejaVuSans-30" x="63.623047"/>
      </g>
     </g>
    </g>
    <g id="xtick_3">
     <g id="line2d_3">
      <g>
       <use xlink:href="#m962dd15d77" x="141.369738" y="190.626667" style="stroke: #000000; stroke-width: 0.8"/>
      </g>
     </g>
     <g id="text_3">
      <!-- 100 -->
      <g transform="translate(131.825988 205.225104) scale(0.1 -0.1)">
       <defs>
        <path id="DejaVuSans-31" d="M 794 531 
L 1825 531 
L 1825 4091 
L 703 3866 
L 703 4441 
L 1819 4666 
L 2450 4666 
L 2450 531 
L 3481 531 
L 3481 0 
L 794 0 
L 794 531 
z
" transform="scale(0.015625)"/>
       </defs>
       <use xlink:href="#DejaVuSans-31"/>
       <use xlink:href="#DejaVuSans-30" x="63.623047"/>
       <use xlink:href="#DejaVuSans-30" x="127.246094"/>
      </g>
     </g>
    </g>
    <g id="xtick_4">
     <g id="line2d_4">
      <g>
       <use xlink:href="#m962dd15d77" x="183.469606" y="190.626667" style="stroke: #000000; stroke-width: 0.8"/>
      </g>
     </g>
     <g id="text_4">
      <!-- 150 -->
      <g transform="translate(173.925856 205.225104) scale(0.1 -0.1)">
       <use xlink:href="#DejaVuSans-31"/>
       <use xlink:href="#DejaVuSans-35" x="63.623047"/>
       <use xlink:href="#DejaVuSans-30" x="127.246094"/>
      </g>
     </g>
    </g>
    <g id="xtick_5">
     <g id="line2d_5">
      <g>
       <use xlink:href="#m962dd15d77" x="225.569475" y="190.626667" style="stroke: #000000; stroke-width: 0.8"/>
      </g>
     </g>
     <g id="text_5">
      <!-- 200 -->
      <g transform="translate(216.025725 205.225104) scale(0.1 -0.1)">
       <defs>
        <path id="DejaVuSans-32" d="M 1228 531 
L 3431 531 
L 3431 0 
L 469 0 
L 469 531 
Q 828 903 1448 1529 
Q 2069 2156 2228 2338 
Q 2531 2678 2651 2914 
Q 2772 3150 2772 3378 
Q 2772 3750 2511 3984 
Q 2250 4219 1831 4219 
Q 1534 4219 1204 4116 
Q 875 4013 500 3803 
L 500 4441 
Q 881 4594 1212 4672 
Q 1544 4750 1819 4750 
Q 2544 4750 2975 4387 
Q 3406 4025 3406 3419 
Q 3406 3131 3298 2873 
Q 3191 2616 2906 2266 
Q 2828 2175 2409 1742 
Q 1991 1309 1228 531 
z
" transform="scale(0.015625)"/>
       </defs>
       <use xlink:href="#DejaVuSans-32"/>
       <use xlink:href="#DejaVuSans-30" x="63.623047"/>
       <use xlink:href="#DejaVuSans-30" x="127.246094"/>
      </g>
     </g>
    </g>
    <g id="xtick_6">
     <g id="line2d_6">
      <g>
       <use xlink:href="#m962dd15d77" x="267.669344" y="190.626667" style="stroke: #000000; stroke-width: 0.8"/>
      </g>
     </g>
     <g id="text_6">
      <!-- 250 -->
      <g transform="translate(258.125594 205.225104) scale(0.1 -0.1)">
       <use xlink:href="#DejaVuSans-32"/>
       <use xlink:href="#DejaVuSans-35" x="63.623047"/>
       <use xlink:href="#DejaVuSans-30" x="127.246094"/>
      </g>
     </g>
    </g>
   </g>
   <g id="matplotlib.axis_2">
    <g id="ytick_1">
     <g id="line2d_7">
      <defs>
       <path id="m2ffd3f503c" d="M 0 0 
L -3.5 0 
" style="stroke: #000000; stroke-width: 0.8"/>
      </defs>
      <g>
       <use xlink:href="#m2ffd3f503c" x="57.17" y="190.626667" style="stroke: #000000; stroke-width: 0.8"/>
      </g>
     </g>
     <g id="text_7">
      <!-- 0 -->
      <g transform="translate(43.8075 194.425885) scale(0.1 -0.1)">
       <use xlink:href="#DejaVuSans-30"/>
      </g>
     </g>
    </g>
    <g id="ytick_2">
     <g id="line2d_8">
      <g>
       <use xlink:href="#m2ffd3f503c" x="57.17" y="159.144407" style="stroke: #000000; stroke-width: 0.8"/>
      </g>
     </g>
     <g id="text_8">
      <!-- 500 -->
      <g transform="translate(31.0825 162.943626) scale(0.1 -0.1)">
       <use xlink:href="#DejaVuSans-35"/>
       <use xlink:href="#DejaVuSans-30" x="63.623047"/>
       <use xlink:href="#DejaVuSans-30" x="127.246094"/>
      </g>
     </g>
    </g>
    <g id="ytick_3">
     <g id="line2d_9">
      <g>
       <use xlink:href="#m2ffd3f503c" x="57.17" y="127.662148" style="stroke: #000000; stroke-width: 0.8"/>
      </g>
     </g>
     <g id="text_9">
      <!-- 1000 -->
      <g transform="translate(24.72 131.461366) scale(0.1 -0.1)">
       <use xlink:href="#DejaVuSans-31"/>
       <use xlink:href="#DejaVuSans-30" x="63.623047"/>
       <use xlink:href="#DejaVuSans-30" x="127.246094"/>
       <use xlink:href="#DejaVuSans-30" x="190.869141"/>
      </g>
     </g>
    </g>
    <g id="ytick_4">
     <g id="line2d_10">
      <g>
       <use xlink:href="#m2ffd3f503c" x="57.17" y="96.179888" style="stroke: #000000; stroke-width: 0.8"/>
      </g>
     </g>
     <g id="text_10">
      <!-- 1500 -->
      <g transform="translate(24.72 99.979107) scale(0.1 -0.1)">
       <use xlink:href="#DejaVuSans-31"/>
       <use xlink:href="#DejaVuSans-35" x="63.623047"/>
       <use xlink:href="#DejaVuSans-30" x="127.246094"/>
       <use xlink:href="#DejaVuSans-30" x="190.869141"/>
      </g>
     </g>
    </g>
    <g id="ytick_5">
     <g id="line2d_11">
      <g>
       <use xlink:href="#m2ffd3f503c" x="57.17" y="64.697628" style="stroke: #000000; stroke-width: 0.8"/>
      </g>
     </g>
     <g id="text_11">
      <!-- 2000 -->
      <g transform="translate(24.72 68.496847) scale(0.1 -0.1)">
       <use xlink:href="#DejaVuSans-32"/>
       <use xlink:href="#DejaVuSans-30" x="63.623047"/>
       <use xlink:href="#DejaVuSans-30" x="127.246094"/>
       <use xlink:href="#DejaVuSans-30" x="190.869141"/>
      </g>
     </g>
    </g>
    <g id="ytick_6">
     <g id="line2d_12">
      <g>
       <use xlink:href="#m2ffd3f503c" x="57.17" y="33.215369" style="stroke: #000000; stroke-width: 0.8"/>
      </g>
     </g>
     <g id="text_12">
      <!-- 2500 -->
      <g transform="translate(24.72 37.014588) scale(0.1 -0.1)">
       <use xlink:href="#DejaVuSans-32"/>
       <use xlink:href="#DejaVuSans-35" x="63.623047"/>
       <use xlink:href="#DejaVuSans-30" x="127.246094"/>
       <use xlink:href="#DejaVuSans-30" x="190.869141"/>
      </g>
     </g>
    </g>
    <g id="text_13">
     <!-- Pixel Frequency -->
     <g transform="translate(18.640313 139.69224) rotate(-90) scale(0.1 -0.1)">
      <defs>
       <path id="DejaVuSans-50" d="M 1259 4147 
L 1259 2394 
L 2053 2394 
Q 2494 2394 2734 2622 
Q 2975 2850 2975 3272 
Q 2975 3691 2734 3919 
Q 2494 4147 2053 4147 
L 1259 4147 
z
M 628 4666 
L 2053 4666 
Q 2838 4666 3239 4311 
Q 3641 3956 3641 3272 
Q 3641 2581 3239 2228 
Q 2838 1875 2053 1875 
L 1259 1875 
L 1259 0 
L 628 0 
L 628 4666 
z
" transform="scale(0.015625)"/>
       <path id="DejaVuSans-69" d="M 603 3500 
L 1178 3500 
L 1178 0 
L 603 0 
L 603 3500 
z
M 603 4863 
L 1178 4863 
L 1178 4134 
L 603 4134 
L 603 4863 
z
" transform="scale(0.015625)"/>
       <path id="DejaVuSans-78" d="M 3513 3500 
L 2247 1797 
L 3578 0 
L 2900 0 
L 1881 1375 
L 863 0 
L 184 0 
L 1544 1831 
L 300 3500 
L 978 3500 
L 1906 2253 
L 2834 3500 
L 3513 3500 
z
" transform="scale(0.015625)"/>
       <path id="DejaVuSans-65" d="M 3597 1894 
L 3597 1613 
L 953 1613 
Q 991 1019 1311 708 
Q 1631 397 2203 397 
Q 2534 397 2845 478 
Q 3156 559 3463 722 
L 3463 178 
Q 3153 47 2828 -22 
Q 2503 -91 2169 -91 
Q 1331 -91 842 396 
Q 353 884 353 1716 
Q 353 2575 817 3079 
Q 1281 3584 2069 3584 
Q 2775 3584 3186 3129 
Q 3597 2675 3597 1894 
z
M 3022 2063 
Q 3016 2534 2758 2815 
Q 2500 3097 2075 3097 
Q 1594 3097 1305 2825 
Q 1016 2553 972 2059 
L 3022 2063 
z
" transform="scale(0.015625)"/>
       <path id="DejaVuSans-6c" d="M 603 4863 
L 1178 4863 
L 1178 0 
L 603 0 
L 603 4863 
z
" transform="scale(0.015625)"/>
       <path id="DejaVuSans-20" transform="scale(0.015625)"/>
       <path id="DejaVuSans-46" d="M 628 4666 
L 3309 4666 
L 3309 4134 
L 1259 4134 
L 1259 2759 
L 3109 2759 
L 3109 2228 
L 1259 2228 
L 1259 0 
L 628 0 
L 628 4666 
z
" transform="scale(0.015625)"/>
       <path id="DejaVuSans-72" d="M 2631 2963 
Q 2534 3019 2420 3045 
Q 2306 3072 2169 3072 
Q 1681 3072 1420 2755 
Q 1159 2438 1159 1844 
L 1159 0 
L 581 0 
L 581 3500 
L 1159 3500 
L 1159 2956 
Q 1341 3275 1631 3429 
Q 1922 3584 2338 3584 
Q 2397 3584 2469 3576 
Q 2541 3569 2628 3553 
L 2631 2963 
z
" transform="scale(0.015625)"/>
       <path id="DejaVuSans-71" d="M 947 1747 
Q 947 1113 1208 752 
Q 1469 391 1925 391 
Q 2381 391 2643 752 
Q 2906 1113 2906 1747 
Q 2906 2381 2643 2742 
Q 2381 3103 1925 3103 
Q 1469 3103 1208 2742 
Q 947 2381 947 1747 
z
M 2906 525 
Q 2725 213 2448 61 
Q 2172 -91 1784 -91 
Q 1150 -91 751 415 
Q 353 922 353 1747 
Q 353 2572 751 3078 
Q 1150 3584 1784 3584 
Q 2172 3584 2448 3432 
Q 2725 3281 2906 2969 
L 2906 3500 
L 3481 3500 
L 3481 -1331 
L 2906 -1331 
L 2906 525 
z
" transform="scale(0.015625)"/>
       <path id="DejaVuSans-75" d="M 544 1381 
L 544 3500 
L 1119 3500 
L 1119 1403 
Q 1119 906 1312 657 
Q 1506 409 1894 409 
Q 2359 409 2629 706 
Q 2900 1003 2900 1516 
L 2900 3500 
L 3475 3500 
L 3475 0 
L 2900 0 
L 2900 538 
Q 2691 219 2414 64 
Q 2138 -91 1772 -91 
Q 1169 -91 856 284 
Q 544 659 544 1381 
z
M 1991 3584 
L 1991 3584 
z
" transform="scale(0.015625)"/>
       <path id="DejaVuSans-6e" d="M 3513 2113 
L 3513 0 
L 2938 0 
L 2938 2094 
Q 2938 2591 2744 2837 
Q 2550 3084 2163 3084 
Q 1697 3084 1428 2787 
Q 1159 2491 1159 1978 
L 1159 0 
L 581 0 
L 581 3500 
L 1159 3500 
L 1159 2956 
Q 1366 3272 1645 3428 
Q 1925 3584 2291 3584 
Q 2894 3584 3203 3211 
Q 3513 2838 3513 2113 
z
" transform="scale(0.015625)"/>
       <path id="DejaVuSans-63" d="M 3122 3366 
L 3122 2828 
Q 2878 2963 2633 3030 
Q 2388 3097 2138 3097 
Q 1578 3097 1268 2742 
Q 959 2388 959 1747 
Q 959 1106 1268 751 
Q 1578 397 2138 397 
Q 2388 397 2633 464 
Q 2878 531 3122 666 
L 3122 134 
Q 2881 22 2623 -34 
Q 2366 -91 2075 -91 
Q 1284 -91 818 406 
Q 353 903 353 1747 
Q 353 2603 823 3093 
Q 1294 3584 2113 3584 
Q 2378 3584 2631 3529 
Q 2884 3475 3122 3366 
z
" transform="scale(0.015625)"/>
       <path id="DejaVuSans-79" d="M 2059 -325 
Q 1816 -950 1584 -1140 
Q 1353 -1331 966 -1331 
L 506 -1331 
L 506 -850 
L 844 -850 
Q 1081 -850 1212 -737 
Q 1344 -625 1503 -206 
L 1606 56 
L 191 3500 
L 800 3500 
L 1894 763 
L 2988 3500 
L 3597 3500 
L 2059 -325 
z
" transform="scale(0.015625)"/>
      </defs>
      <use xlink:href="#DejaVuSans-50"/>
      <use xlink:href="#DejaVuSans-69" x="58.052734"/>
      <use xlink:href="#DejaVuSans-78" x="85.835938"/>
      <use xlink:href="#DejaVuSans-65" x="141.890625"/>
      <use xlink:href="#DejaVuSans-6c" x="203.414062"/>
      <use xlink:href="#DejaVuSans-20" x="231.197266"/>
      <use xlink:href="#DejaVuSans-46" x="262.984375"/>
      <use xlink:href="#DejaVuSans-72" x="313.253906"/>
      <use xlink:href="#DejaVuSans-65" x="352.117188"/>
      <use xlink:href="#DejaVuSans-71" x="413.640625"/>
      <use xlink:href="#DejaVuSans-75" x="477.117188"/>
      <use xlink:href="#DejaVuSans-65" x="540.496094"/>
      <use xlink:href="#DejaVuSans-6e" x="602.019531"/>
      <use xlink:href="#DejaVuSans-63" x="665.398438"/>
      <use xlink:href="#DejaVuSans-79" x="720.378906"/>
     </g>
    </g>
   </g>
   <g id="line2d_13">
    <path d="M 57.17 190.626667 
L 95.059882 190.626667 
L 95.901879 190.437773 
L 97.585874 189.052554 
L 98.427871 183.322782 
L 99.269869 173.311424 
L 100.953864 161.348165 
L 101.795861 153.855387 
L 102.637858 141.262484 
L 103.479856 119.413796 
L 104.321853 108.33204 
L 105.16385 91.142726 
L 106.005848 84.909239 
L 106.847845 101.405943 
L 107.689843 93.661307 
L 108.53184 94.668739 
L 109.373837 112.361769 
L 110.215835 121.554589 
L 111.057832 122.687951 
L 111.899829 126.906573 
L 112.741827 132.951167 
L 114.425822 130.117764 
L 115.267819 133.454883 
L 116.109816 140.255051 
L 116.951814 142.018058 
L 117.793811 141.640271 
L 118.635808 146.488539 
L 119.477806 149.510836 
L 120.319803 148.818226 
L 121.161801 152.533133 
L 122.003798 155.492465 
L 122.845795 152.21831 
L 123.687793 154.485033 
L 124.52979 155.744323 
L 125.371787 155.303571 
L 126.213785 154.736891 
L 127.055782 156.625826 
L 127.89778 156.940649 
L 128.739777 156.940649 
L 129.581774 157.885117 
L 130.423772 159.144407 
L 131.265769 161.41113 
L 132.107766 161.788917 
L 132.949764 161.600023 
L 133.791761 164.811214 
L 134.633759 165.818646 
L 135.475756 167.014972 
L 136.317753 168.589085 
L 137.159751 168.022404 
L 138.001748 168.840943 
L 138.843745 168.840943 
L 139.685743 169.91134 
L 140.52774 170.289127 
L 141.369738 173.185495 
L 142.211735 174.318856 
L 143.053732 172.807708 
L 143.89573 175.704076 
L 144.737727 174.759608 
L 145.579724 174.318856 
L 146.421722 175.263324 
L 148.105717 178.600444 
L 148.947714 177.278189 
L 149.789711 177.530047 
L 150.631709 180.174556 
L 151.473706 177.71894 
L 152.315703 180.174556 
L 153.157701 180.36345 
L 153.999698 178.41155 
L 154.841696 178.41155 
L 155.683693 180.237521 
L 157.367688 180.741237 
L 158.209685 180.237521 
L 159.051682 179.041195 
L 160.735677 181.748669 
L 161.577675 178.41155 
L 162.419672 181.559776 
L 163.261669 178.663408 
L 164.103667 181.307918 
L 164.945664 182.504244 
L 165.787661 181.559776 
L 166.629659 181.370882 
L 167.471656 181.811634 
L 168.313654 183.385747 
L 169.155651 181.05606 
L 169.997648 181.811634 
L 170.839646 183.763534 
L 171.681643 182.693137 
L 172.52364 184.078357 
L 173.365638 183.637605 
L 174.207635 182.882031 
L 175.049633 182.378315 
L 175.89163 184.330215 
L 176.733627 183.574641 
L 177.575625 183.259818 
L 178.417622 183.70057 
L 179.259619 183.448711 
L 180.101617 184.582073 
L 180.943614 184.896895 
L 181.785612 184.770966 
L 182.627609 182.882031 
L 183.469606 184.393179 
L 184.311604 184.519108 
L 185.153601 184.078357 
L 186.837596 184.95986 
L 187.679593 184.770966 
L 188.521591 185.400612 
L 189.363588 185.274683 
L 191.047583 184.204286 
L 191.88958 185.022824 
L 192.731577 185.400612 
L 194.415572 185.085789 
L 195.25757 186.722866 
L 196.099567 186.345079 
L 196.941564 185.337647 
L 197.783562 185.904328 
L 198.625559 186.91176 
L 199.467556 185.400612 
L 200.309554 186.596937 
L 201.993549 185.589505 
L 202.835546 186.974725 
L 203.677543 185.589505 
L 204.519541 186.471008 
L 205.361538 185.337647 
L 206.203535 186.408044 
L 207.045533 186.533973 
L 207.88753 186.533973 
L 208.729528 186.345079 
L 209.571525 186.974725 
L 210.413522 185.904328 
L 211.25552 187.541405 
L 212.097517 186.91176 
L 212.939514 187.982157 
L 213.781512 187.667334 
L 215.465507 186.533973 
L 216.307504 187.037689 
L 217.149501 186.91176 
L 217.991499 187.289547 
L 218.833496 186.722866 
L 219.675493 187.037689 
L 220.517491 187.478441 
L 221.359488 187.730299 
L 222.201486 187.289547 
L 223.043483 187.037689 
L 223.88548 187.667334 
L 224.727478 187.982157 
L 225.569475 188.674767 
L 227.25347 188.234015 
L 228.095467 188.108086 
L 228.937465 187.667334 
L 229.779462 187.982157 
L 230.621459 188.485873 
L 231.463457 187.730299 
L 232.305454 187.730299 
L 233.147451 188.234015 
L 233.989449 187.982157 
L 234.831446 188.422908 
L 235.673444 187.352512 
L 236.515441 188.108086 
L 237.357438 188.296979 
L 238.199436 188.17105 
L 239.041433 188.989589 
L 239.88343 189.115518 
L 240.725428 188.548838 
L 241.567425 188.611802 
L 243.25142 188.485873 
L 244.093417 188.737731 
L 245.777412 188.611802 
L 246.619409 188.86366 
L 247.461407 188.737731 
L 248.303404 188.737731 
L 249.145402 188.548838 
L 249.987399 188.989589 
L 250.829396 188.422908 
L 251.671394 188.86366 
L 252.513391 189.052554 
L 253.355388 188.485873 
L 254.197386 188.86366 
L 255.039383 189.619234 
L 255.881381 189.052554 
L 256.723378 188.737731 
L 257.565375 189.367376 
L 258.407373 189.178483 
L 259.24937 189.55627 
L 260.091367 189.052554 
L 260.933365 189.367376 
L 262.61736 189.241447 
L 263.459357 189.052554 
L 264.301354 189.178483 
L 265.985349 188.989589 
L 266.827346 189.367376 
L 267.669344 189.115518 
L 268.511341 188.296979 
L 269.353339 188.485873 
L 270.195336 187.856228 
L 271.037333 187.478441 
L 271.879331 182.567208 
L 271.879331 182.567208 
" clip-path="url(#pe038cea970)" style="fill: none; stroke: #ff0000; stroke-width: 1.5; stroke-linecap: square"/>
   </g>
   <g id="patch_3">
    <path d="M 57.17 190.626667 
L 57.17 10.8 
" style="fill: none; stroke: #000000; stroke-width: 0.8; stroke-linejoin: miter; stroke-linecap: square"/>
   </g>
   <g id="patch_4">
    <path d="M 272.721328 190.626667 
L 272.721328 10.8 
" style="fill: none; stroke: #000000; stroke-width: 0.8; stroke-linejoin: miter; stroke-linecap: square"/>
   </g>
   <g id="patch_5">
    <path d="M 57.17 190.626667 
L 272.721328 190.626667 
" style="fill: none; stroke: #000000; stroke-width: 0.8; stroke-linejoin: miter; stroke-linecap: square"/>
   </g>
   <g id="patch_6">
    <path d="M 57.17 10.8 
L 272.721328 10.8 
" style="fill: none; stroke: #000000; stroke-width: 0.8; stroke-linejoin: miter; stroke-linecap: square"/>
   </g>
   <g id="text_14">
    <!-- Red Channel  -->
    <g transform="translate(193.028203 24.8) scale(0.12 -0.12)">
     <defs>
      <path id="DejaVuSans-52" d="M 2841 2188 
Q 3044 2119 3236 1894 
Q 3428 1669 3622 1275 
L 4263 0 
L 3584 0 
L 2988 1197 
Q 2756 1666 2539 1819 
Q 2322 1972 1947 1972 
L 1259 1972 
L 1259 0 
L 628 0 
L 628 4666 
L 2053 4666 
Q 2853 4666 3247 4331 
Q 3641 3997 3641 3322 
Q 3641 2881 3436 2590 
Q 3231 2300 2841 2188 
z
M 1259 4147 
L 1259 2491 
L 2053 2491 
Q 2509 2491 2742 2702 
Q 2975 2913 2975 3322 
Q 2975 3731 2742 3939 
Q 2509 4147 2053 4147 
L 1259 4147 
z
" transform="scale(0.015625)"/>
      <path id="DejaVuSans-64" d="M 2906 2969 
L 2906 4863 
L 3481 4863 
L 3481 0 
L 2906 0 
L 2906 525 
Q 2725 213 2448 61 
Q 2172 -91 1784 -91 
Q 1150 -91 751 415 
Q 353 922 353 1747 
Q 353 2572 751 3078 
Q 1150 3584 1784 3584 
Q 2172 3584 2448 3432 
Q 2725 3281 2906 2969 
z
M 947 1747 
Q 947 1113 1208 752 
Q 1469 391 1925 391 
Q 2381 391 2643 752 
Q 2906 1113 2906 1747 
Q 2906 2381 2643 2742 
Q 2381 3103 1925 3103 
Q 1469 3103 1208 2742 
Q 947 2381 947 1747 
z
" transform="scale(0.015625)"/>
      <path id="DejaVuSans-43" d="M 4122 4306 
L 4122 3641 
Q 3803 3938 3442 4084 
Q 3081 4231 2675 4231 
Q 1875 4231 1450 3742 
Q 1025 3253 1025 2328 
Q 1025 1406 1450 917 
Q 1875 428 2675 428 
Q 3081 428 3442 575 
Q 3803 722 4122 1019 
L 4122 359 
Q 3791 134 3420 21 
Q 3050 -91 2638 -91 
Q 1578 -91 968 557 
Q 359 1206 359 2328 
Q 359 3453 968 4101 
Q 1578 4750 2638 4750 
Q 3056 4750 3426 4639 
Q 3797 4528 4122 4306 
z
" transform="scale(0.015625)"/>
      <path id="DejaVuSans-68" d="M 3513 2113 
L 3513 0 
L 2938 0 
L 2938 2094 
Q 2938 2591 2744 2837 
Q 2550 3084 2163 3084 
Q 1697 3084 1428 2787 
Q 1159 2491 1159 1978 
L 1159 0 
L 581 0 
L 581 4863 
L 1159 4863 
L 1159 2956 
Q 1366 3272 1645 3428 
Q 1925 3584 2291 3584 
Q 2894 3584 3203 3211 
Q 3513 2838 3513 2113 
z
" transform="scale(0.015625)"/>
      <path id="DejaVuSans-61" d="M 2194 1759 
Q 1497 1759 1228 1600 
Q 959 1441 959 1056 
Q 959 750 1161 570 
Q 1363 391 1709 391 
Q 2188 391 2477 730 
Q 2766 1069 2766 1631 
L 2766 1759 
L 2194 1759 
z
M 3341 1997 
L 3341 0 
L 2766 0 
L 2766 531 
Q 2569 213 2275 61 
Q 1981 -91 1556 -91 
Q 1019 -91 701 211 
Q 384 513 384 1019 
Q 384 1609 779 1909 
Q 1175 2209 1959 2209 
L 2766 2209 
L 2766 2266 
Q 2766 2663 2505 2880 
Q 2244 3097 1772 3097 
Q 1472 3097 1187 3025 
Q 903 2953 641 2809 
L 641 3341 
Q 956 3463 1253 3523 
Q 1550 3584 1831 3584 
Q 2591 3584 2966 3190 
Q 3341 2797 3341 1997 
z
" transform="scale(0.015625)"/>
     </defs>
     <use xlink:href="#DejaVuSans-52"/>
     <use xlink:href="#DejaVuSans-65" x="64.982422"/>
     <use xlink:href="#DejaVuSans-64" x="126.505859"/>
     <use xlink:href="#DejaVuSans-20" x="189.982422"/>
     <use xlink:href="#DejaVuSans-43" x="221.769531"/>
     <use xlink:href="#DejaVuSans-68" x="291.59375"/>
     <use xlink:href="#DejaVuSans-61" x="354.972656"/>
     <use xlink:href="#DejaVuSans-6e" x="416.251953"/>
     <use xlink:href="#DejaVuSans-6e" x="479.630859"/>
     <use xlink:href="#DejaVuSans-65" x="543.009766"/>
     <use xlink:href="#DejaVuSans-6c" x="604.533203"/>
     <use xlink:href="#DejaVuSans-20" x="632.316406"/>
    </g>
   </g>
  </g>
  <g id="axes_2">
   <g id="patch_7">
    <path d="M 57.17 398.333333 
L 272.721328 398.333333 
L 272.721328 218.506667 
L 57.17 218.506667 
z
" style="fill: #ffffff"/>
   </g>
   <g id="PolyCollection_2">
    <defs>
     <path id="ma4496d9c3a" d="M 57.17 -249.666667 
L 57.17 -249.666667 
L 58.011997 -249.666667 
L 58.853995 -249.666667 
L 59.695992 -249.666667 
L 60.53799 -249.666667 
L 61.379987 -249.666667 
L 62.221984 -249.666667 
L 63.063982 -249.666667 
L 63.905979 -249.666667 
L 64.747976 -249.666667 
L 65.589974 -249.666667 
L 66.431971 -249.666667 
L 67.273969 -249.666667 
L 68.115966 -249.666667 
L 68.957963 -249.666667 
L 69.799961 -249.666667 
L 70.641958 -249.666667 
L 71.483955 -249.666667 
L 72.325953 -249.666667 
L 73.16795 -249.666667 
L 74.009948 -249.666667 
L 74.851945 -249.666667 
L 75.693942 -249.666667 
L 76.53594 -249.666667 
L 77.377937 -249.666667 
L 78.219934 -249.666667 
L 79.061932 -249.666667 
L 79.903929 -249.666667 
L 80.745927 -249.666667 
L 81.587924 -249.666667 
L 82.429921 -249.666667 
L 83.271919 -249.666667 
L 84.113916 -249.666667 
L 84.955913 -249.666667 
L 85.797911 -249.666667 
L 86.639908 -249.666667 
L 87.481906 -249.666667 
L 88.323903 -249.666667 
L 89.1659 -249.666667 
L 90.007898 -250.233347 
L 90.849895 -250.54817 
L 91.691892 -252.248212 
L 92.53389 -257.977983 
L 93.375887 -268.870845 
L 94.217885 -276.426587 
L 95.059882 -288.326881 
L 95.901879 -304.571727 
L 96.743877 -319.116531 
L 97.585874 -355.698917 
L 98.427871 -367.851069 
L 99.269869 -360.547185 
L 100.111866 -338.572568 
L 100.953864 -318.612815 
L 101.795861 -307.719953 
L 102.637858 -309.231102 
L 103.479856 -311.308931 
L 104.321853 -308.286634 
L 105.16385 -308.475528 
L 106.005848 -307.53106 
L 106.847845 -302.430934 
L 107.689843 -300.416069 
L 108.53184 -297.582666 
L 109.373837 -296.638198 
L 110.215835 -292.545504 
L 111.057832 -293.552937 
L 111.899829 -289.019491 
L 112.741827 -288.956527 
L 113.583824 -289.963959 
L 114.425822 -287.319449 
L 115.267819 -285.93423 
L 116.109816 -283.163791 
L 116.951814 -285.871265 
L 117.793811 -287.256485 
L 118.635808 -283.730472 
L 119.477806 -279.38592 
L 120.319803 -282.156359 
L 121.161801 -281.33782 
L 122.003798 -279.9526 
L 122.845795 -279.38592 
L 123.687793 -280.519281 
L 124.52979 -278.063665 
L 125.371787 -278.567381 
L 126.213785 -277.371055 
L 127.055782 -277.748842 
L 127.89778 -276.363623 
L 128.739777 -273.970971 
L 129.581774 -273.215397 
L 130.423772 -274.285794 
L 131.265769 -271.45239 
L 132.107766 -270.256064 
L 132.949764 -270.696816 
L 133.791761 -270.444958 
L 134.633759 -265.974477 
L 135.475756 -267.485626 
L 136.317753 -269.563455 
L 137.159751 -269.689384 
L 138.001748 -266.918945 
L 138.843745 -267.107838 
L 139.685743 -266.478193 
L 140.52774 -263.770719 
L 141.369738 -265.848548 
L 142.211735 -264.274435 
L 143.053732 -263.833683 
L 143.89573 -264.085542 
L 144.737727 -263.833683 
L 145.579724 -261.818819 
L 146.421722 -262.826251 
L 147.263719 -261.252138 
L 148.105717 -261.00028 
L 148.947714 -261.944748 
L 149.789711 -260.748422 
L 150.631709 -260.874351 
L 151.473706 -259.615061 
L 152.315703 -259.866919 
L 153.157701 -260.433599 
L 153.999698 -258.229841 
L 154.841696 -258.859486 
L 155.683693 -258.859486 
L 156.52569 -259.552096 
L 157.367688 -260.118777 
L 158.209685 -258.481699 
L 159.051682 -258.103912 
L 159.89368 -257.852054 
L 160.735677 -259.552096 
L 161.577675 -256.655728 
L 162.419672 -258.292806 
L 163.261669 -257.600196 
L 164.103667 -258.607628 
L 164.945664 -258.607628 
L 165.787661 -258.922451 
L 166.629659 -257.726125 
L 167.471656 -258.544664 
L 168.313654 -258.733557 
L 169.155651 -257.09648 
L 169.997648 -257.033515 
L 170.839646 -256.40387 
L 171.681643 -256.970551 
L 172.52364 -256.026083 
L 173.365638 -257.285373 
L 174.207635 -256.970551 
L 175.049633 -257.033515 
L 175.89163 -256.907586 
L 176.733627 -255.585331 
L 177.575625 -257.411303 
L 178.417622 -256.214977 
L 179.259619 -255.585331 
L 180.101617 -255.522367 
L 180.943614 -255.459402 
L 181.785612 -255.963119 
L 182.627609 -256.340906 
L 183.469606 -255.963119 
L 184.311604 -254.263077 
L 185.153601 -254.766793 
L 185.995598 -256.026083 
L 186.837596 -255.081615 
L 187.679593 -255.711261 
L 188.521591 -255.522367 
L 189.363588 -255.522367 
L 190.205585 -255.018651 
L 191.047583 -253.75936 
L 191.88958 -254.766793 
L 192.731577 -254.892722 
L 193.573575 -256.214977 
L 194.415572 -255.396438 
L 195.25757 -254.829757 
L 196.099567 -254.45197 
L 196.941564 -255.14458 
L 197.783562 -254.137148 
L 198.625559 -254.263077 
L 199.467556 -254.263077 
L 200.309554 -254.389006 
L 201.151551 -254.326041 
L 201.993549 -255.207544 
L 202.835546 -253.381573 
L 203.677543 -253.885289 
L 204.519541 -253.885289 
L 205.361538 -254.200112 
L 206.203535 -254.074183 
L 207.045533 -254.137148 
L 207.88753 -254.263077 
L 208.729528 -253.19268 
L 209.571525 -253.570467 
L 210.413522 -253.948254 
L 211.25552 -254.011218 
L 212.097517 -253.318609 
L 212.939514 -253.444538 
L 213.781512 -253.066751 
L 214.623509 -253.507502 
L 215.465507 -252.751928 
L 216.307504 -253.19268 
L 217.149501 -253.885289 
L 217.991499 -253.822325 
L 218.833496 -253.570467 
L 219.675493 -252.751928 
L 220.517491 -253.066751 
L 221.359488 -252.688964 
L 222.201486 -251.870425 
L 223.043483 -253.444538 
L 223.88548 -252.814893 
L 224.727478 -251.744496 
L 225.569475 -253.129715 
L 226.411472 -252.248212 
L 227.25347 -252.563035 
L 228.095467 -252.940822 
L 228.937465 -253.129715 
L 229.779462 -252.751928 
L 230.621459 -253.19268 
L 231.463457 -253.129715 
L 232.305454 -252.688964 
L 233.147451 -252.50007 
L 233.989449 -252.311176 
L 234.831446 -251.80746 
L 235.673444 -252.688964 
L 236.515441 -252.059318 
L 237.357438 -252.877857 
L 238.199436 -252.185247 
L 239.041433 -252.437106 
L 239.88343 -251.870425 
L 240.725428 -252.059318 
L 241.567425 -252.751928 
L 242.409423 -252.122283 
L 243.25142 -251.555602 
L 244.093417 -252.50007 
L 244.935415 -252.877857 
L 245.777412 -251.744496 
L 246.619409 -251.933389 
L 247.461407 -252.059318 
L 248.303404 -251.366709 
L 249.145402 -251.870425 
L 249.987399 -252.688964 
L 250.829396 -251.996354 
L 251.671394 -251.114851 
L 252.513391 -251.744496 
L 253.355388 -251.681531 
L 254.197386 -251.618567 
L 255.039383 -251.744496 
L 255.881381 -251.80746 
L 256.723378 -252.059318 
L 257.565375 -252.059318 
L 258.407373 -251.681531 
L 259.24937 -252.311176 
L 260.091367 -252.311176 
L 260.933365 -252.122283 
L 261.775362 -251.933389 
L 262.61736 -251.744496 
L 263.459357 -251.555602 
L 264.301354 -252.374141 
L 265.143352 -251.24078 
L 265.985349 -251.933389 
L 266.827346 -252.248212 
L 267.669344 -252.814893 
L 268.511341 -252.059318 
L 269.353339 -253.318609 
L 270.195336 -255.14458 
L 271.037333 -257.726125 
L 271.879331 -267.107838 
L 271.879331 -249.666667 
L 271.879331 -249.666667 
L 271.037333 -249.666667 
L 270.195336 -249.666667 
L 269.353339 -249.666667 
L 268.511341 -249.666667 
L 267.669344 -249.666667 
L 266.827346 -249.666667 
L 265.985349 -249.666667 
L 265.143352 -249.666667 
L 264.301354 -249.666667 
L 263.459357 -249.666667 
L 262.61736 -249.666667 
L 261.775362 -249.666667 
L 260.933365 -249.666667 
L 260.091367 -249.666667 
L 259.24937 -249.666667 
L 258.407373 -249.666667 
L 257.565375 -249.666667 
L 256.723378 -249.666667 
L 255.881381 -249.666667 
L 255.039383 -249.666667 
L 254.197386 -249.666667 
L 253.355388 -249.666667 
L 252.513391 -249.666667 
L 251.671394 -249.666667 
L 250.829396 -249.666667 
L 249.987399 -249.666667 
L 249.145402 -249.666667 
L 248.303404 -249.666667 
L 247.461407 -249.666667 
L 246.619409 -249.666667 
L 245.777412 -249.666667 
L 244.935415 -249.666667 
L 244.093417 -249.666667 
L 243.25142 -249.666667 
L 242.409423 -249.666667 
L 241.567425 -249.666667 
L 240.725428 -249.666667 
L 239.88343 -249.666667 
L 239.041433 -249.666667 
L 238.199436 -249.666667 
L 237.357438 -249.666667 
L 236.515441 -249.666667 
L 235.673444 -249.666667 
L 234.831446 -249.666667 
L 233.989449 -249.666667 
L 233.147451 -249.666667 
L 232.305454 -249.666667 
L 231.463457 -249.666667 
L 230.621459 -249.666667 
L 229.779462 -249.666667 
L 228.937465 -249.666667 
L 228.095467 -249.666667 
L 227.25347 -249.666667 
L 226.411472 -249.666667 
L 225.569475 -249.666667 
L 224.727478 -249.666667 
L 223.88548 -249.666667 
L 223.043483 -249.666667 
L 222.201486 -249.666667 
L 221.359488 -249.666667 
L 220.517491 -249.666667 
L 219.675493 -249.666667 
L 218.833496 -249.666667 
L 217.991499 -249.666667 
L 217.149501 -249.666667 
L 216.307504 -249.666667 
L 215.465507 -249.666667 
L 214.623509 -249.666667 
L 213.781512 -249.666667 
L 212.939514 -249.666667 
L 212.097517 -249.666667 
L 211.25552 -249.666667 
L 210.413522 -249.666667 
L 209.571525 -249.666667 
L 208.729528 -249.666667 
L 207.88753 -249.666667 
L 207.045533 -249.666667 
L 206.203535 -249.666667 
L 205.361538 -249.666667 
L 204.519541 -249.666667 
L 203.677543 -249.666667 
L 202.835546 -249.666667 
L 201.993549 -249.666667 
L 201.151551 -249.666667 
L 200.309554 -249.666667 
L 199.467556 -249.666667 
L 198.625559 -249.666667 
L 197.783562 -249.666667 
L 196.941564 -249.666667 
L 196.099567 -249.666667 
L 195.25757 -249.666667 
L 194.415572 -249.666667 
L 193.573575 -249.666667 
L 192.731577 -249.666667 
L 191.88958 -249.666667 
L 191.047583 -249.666667 
L 190.205585 -249.666667 
L 189.363588 -249.666667 
L 188.521591 -249.666667 
L 187.679593 -249.666667 
L 186.837596 -249.666667 
L 185.995598 -249.666667 
L 185.153601 -249.666667 
L 184.311604 -249.666667 
L 183.469606 -249.666667 
L 182.627609 -249.666667 
L 181.785612 -249.666667 
L 180.943614 -249.666667 
L 180.101617 -249.666667 
L 179.259619 -249.666667 
L 178.417622 -249.666667 
L 177.575625 -249.666667 
L 176.733627 -249.666667 
L 175.89163 -249.666667 
L 175.049633 -249.666667 
L 174.207635 -249.666667 
L 173.365638 -249.666667 
L 172.52364 -249.666667 
L 171.681643 -249.666667 
L 170.839646 -249.666667 
L 169.997648 -249.666667 
L 169.155651 -249.666667 
L 168.313654 -249.666667 
L 167.471656 -249.666667 
L 166.629659 -249.666667 
L 165.787661 -249.666667 
L 164.945664 -249.666667 
L 164.103667 -249.666667 
L 163.261669 -249.666667 
L 162.419672 -249.666667 
L 161.577675 -249.666667 
L 160.735677 -249.666667 
L 159.89368 -249.666667 
L 159.051682 -249.666667 
L 158.209685 -249.666667 
L 157.367688 -249.666667 
L 156.52569 -249.666667 
L 155.683693 -249.666667 
L 154.841696 -249.666667 
L 153.999698 -249.666667 
L 153.157701 -249.666667 
L 152.315703 -249.666667 
L 151.473706 -249.666667 
L 150.631709 -249.666667 
L 149.789711 -249.666667 
L 148.947714 -249.666667 
L 148.105717 -249.666667 
L 147.263719 -249.666667 
L 146.421722 -249.666667 
L 145.579724 -249.666667 
L 144.737727 -249.666667 
L 143.89573 -249.666667 
L 143.053732 -249.666667 
L 142.211735 -249.666667 
L 141.369738 -249.666667 
L 140.52774 -249.666667 
L 139.685743 -249.666667 
L 138.843745 -249.666667 
L 138.001748 -249.666667 
L 137.159751 -249.666667 
L 136.317753 -249.666667 
L 135.475756 -249.666667 
L 134.633759 -249.666667 
L 133.791761 -249.666667 
L 132.949764 -249.666667 
L 132.107766 -249.666667 
L 131.265769 -249.666667 
L 130.423772 -249.666667 
L 129.581774 -249.666667 
L 128.739777 -249.666667 
L 127.89778 -249.666667 
L 127.055782 -249.666667 
L 126.213785 -249.666667 
L 125.371787 -249.666667 
L 124.52979 -249.666667 
L 123.687793 -249.666667 
L 122.845795 -249.666667 
L 122.003798 -249.666667 
L 121.161801 -249.666667 
L 120.319803 -249.666667 
L 119.477806 -249.666667 
L 118.635808 -249.666667 
L 117.793811 -249.666667 
L 116.951814 -249.666667 
L 116.109816 -249.666667 
L 115.267819 -249.666667 
L 114.425822 -249.666667 
L 113.583824 -249.666667 
L 112.741827 -249.666667 
L 111.899829 -249.666667 
L 111.057832 -249.666667 
L 110.215835 -249.666667 
L 109.373837 -249.666667 
L 108.53184 -249.666667 
L 107.689843 -249.666667 
L 106.847845 -249.666667 
L 106.005848 -249.666667 
L 105.16385 -249.666667 
L 104.321853 -249.666667 
L 103.479856 -249.666667 
L 102.637858 -249.666667 
L 101.795861 -249.666667 
L 100.953864 -249.666667 
L 100.111866 -249.666667 
L 99.269869 -249.666667 
L 98.427871 -249.666667 
L 97.585874 -249.666667 
L 96.743877 -249.666667 
L 95.901879 -249.666667 
L 95.059882 -249.666667 
L 94.217885 -249.666667 
L 93.375887 -249.666667 
L 92.53389 -249.666667 
L 91.691892 -249.666667 
L 90.849895 -249.666667 
L 90.007898 -249.666667 
L 89.1659 -249.666667 
L 88.323903 -249.666667 
L 87.481906 -249.666667 
L 86.639908 -249.666667 
L 85.797911 -249.666667 
L 84.955913 -249.666667 
L 84.113916 -249.666667 
L 83.271919 -249.666667 
L 82.429921 -249.666667 
L 81.587924 -249.666667 
L 80.745927 -249.666667 
L 79.903929 -249.666667 
L 79.061932 -249.666667 
L 78.219934 -249.666667 
L 77.377937 -249.666667 
L 76.53594 -249.666667 
L 75.693942 -249.666667 
L 74.851945 -249.666667 
L 74.009948 -249.666667 
L 73.16795 -249.666667 
L 72.325953 -249.666667 
L 71.483955 -249.666667 
L 70.641958 -249.666667 
L 69.799961 -249.666667 
L 68.957963 -249.666667 
L 68.115966 -249.666667 
L 67.273969 -249.666667 
L 66.431971 -249.666667 
L 65.589974 -249.666667 
L 64.747976 -249.666667 
L 63.905979 -249.666667 
L 63.063982 -249.666667 
L 62.221984 -249.666667 
L 61.379987 -249.666667 
L 60.53799 -249.666667 
L 59.695992 -249.666667 
L 58.853995 -249.666667 
L 58.011997 -249.666667 
L 57.17 -249.666667 
z
" style="stroke: #008000; stroke-opacity: 0.4"/>
    </defs>
    <g clip-path="url(#p7edf82fc8f)">
     <use xlink:href="#ma4496d9c3a" x="0" y="648" style="fill: #008000; fill-opacity: 0.4; stroke: #008000; stroke-opacity: 0.4"/>
    </g>
   </g>
   <g id="matplotlib.axis_3">
    <g id="xtick_7">
     <g id="line2d_14">
      <g>
       <use xlink:href="#m962dd15d77" x="57.17" y="398.333333" style="stroke: #000000; stroke-width: 0.8"/>
      </g>
     </g>
     <g id="text_15">
      <!-- 0 -->
      <g transform="translate(53.98875 412.931771) scale(0.1 -0.1)">
       <use xlink:href="#DejaVuSans-30"/>
      </g>
     </g>
    </g>
    <g id="xtick_8">
     <g id="line2d_15">
      <g>
       <use xlink:href="#m962dd15d77" x="99.269869" y="398.333333" style="stroke: #000000; stroke-width: 0.8"/>
      </g>
     </g>
     <g id="text_16">
      <!-- 50 -->
      <g transform="translate(92.907369 412.931771) scale(0.1 -0.1)">
       <use xlink:href="#DejaVuSans-35"/>
       <use xlink:href="#DejaVuSans-30" x="63.623047"/>
      </g>
     </g>
    </g>
    <g id="xtick_9">
     <g id="line2d_16">
      <g>
       <use xlink:href="#m962dd15d77" x="141.369738" y="398.333333" style="stroke: #000000; stroke-width: 0.8"/>
      </g>
     </g>
     <g id="text_17">
      <!-- 100 -->
      <g transform="translate(131.825988 412.931771) scale(0.1 -0.1)">
       <use xlink:href="#DejaVuSans-31"/>
       <use xlink:href="#DejaVuSans-30" x="63.623047"/>
       <use xlink:href="#DejaVuSans-30" x="127.246094"/>
      </g>
     </g>
    </g>
    <g id="xtick_10">
     <g id="line2d_17">
      <g>
       <use xlink:href="#m962dd15d77" x="183.469606" y="398.333333" style="stroke: #000000; stroke-width: 0.8"/>
      </g>
     </g>
     <g id="text_18">
      <!-- 150 -->
      <g transform="translate(173.925856 412.931771) scale(0.1 -0.1)">
       <use xlink:href="#DejaVuSans-31"/>
       <use xlink:href="#DejaVuSans-35" x="63.623047"/>
       <use xlink:href="#DejaVuSans-30" x="127.246094"/>
      </g>
     </g>
    </g>
    <g id="xtick_11">
     <g id="line2d_18">
      <g>
       <use xlink:href="#m962dd15d77" x="225.569475" y="398.333333" style="stroke: #000000; stroke-width: 0.8"/>
      </g>
     </g>
     <g id="text_19">
      <!-- 200 -->
      <g transform="translate(216.025725 412.931771) scale(0.1 -0.1)">
       <use xlink:href="#DejaVuSans-32"/>
       <use xlink:href="#DejaVuSans-30" x="63.623047"/>
       <use xlink:href="#DejaVuSans-30" x="127.246094"/>
      </g>
     </g>
    </g>
    <g id="xtick_12">
     <g id="line2d_19">
      <g>
       <use xlink:href="#m962dd15d77" x="267.669344" y="398.333333" style="stroke: #000000; stroke-width: 0.8"/>
      </g>
     </g>
     <g id="text_20">
      <!-- 250 -->
      <g transform="translate(258.125594 412.931771) scale(0.1 -0.1)">
       <use xlink:href="#DejaVuSans-32"/>
       <use xlink:href="#DejaVuSans-35" x="63.623047"/>
       <use xlink:href="#DejaVuSans-30" x="127.246094"/>
      </g>
     </g>
    </g>
   </g>
   <g id="matplotlib.axis_4">
    <g id="ytick_7">
     <g id="line2d_20">
      <g>
       <use xlink:href="#m2ffd3f503c" x="57.17" y="398.333333" style="stroke: #000000; stroke-width: 0.8"/>
      </g>
     </g>
     <g id="text_21">
      <!-- 0 -->
      <g transform="translate(43.8075 402.132552) scale(0.1 -0.1)">
       <use xlink:href="#DejaVuSans-30"/>
      </g>
     </g>
    </g>
    <g id="ytick_8">
     <g id="line2d_21">
      <g>
       <use xlink:href="#m2ffd3f503c" x="57.17" y="366.851074" style="stroke: #000000; stroke-width: 0.8"/>
      </g>
     </g>
     <g id="text_22">
      <!-- 500 -->
      <g transform="translate(31.0825 370.650293) scale(0.1 -0.1)">
       <use xlink:href="#DejaVuSans-35"/>
       <use xlink:href="#DejaVuSans-30" x="63.623047"/>
       <use xlink:href="#DejaVuSans-30" x="127.246094"/>
      </g>
     </g>
    </g>
    <g id="ytick_9">
     <g id="line2d_22">
      <g>
       <use xlink:href="#m2ffd3f503c" x="57.17" y="335.368814" style="stroke: #000000; stroke-width: 0.8"/>
      </g>
     </g>
     <g id="text_23">
      <!-- 1000 -->
      <g transform="translate(24.72 339.168033) scale(0.1 -0.1)">
       <use xlink:href="#DejaVuSans-31"/>
       <use xlink:href="#DejaVuSans-30" x="63.623047"/>
       <use xlink:href="#DejaVuSans-30" x="127.246094"/>
       <use xlink:href="#DejaVuSans-30" x="190.869141"/>
      </g>
     </g>
    </g>
    <g id="ytick_10">
     <g id="line2d_23">
      <g>
       <use xlink:href="#m2ffd3f503c" x="57.17" y="303.886555" style="stroke: #000000; stroke-width: 0.8"/>
      </g>
     </g>
     <g id="text_24">
      <!-- 1500 -->
      <g transform="translate(24.72 307.685773) scale(0.1 -0.1)">
       <use xlink:href="#DejaVuSans-31"/>
       <use xlink:href="#DejaVuSans-35" x="63.623047"/>
       <use xlink:href="#DejaVuSans-30" x="127.246094"/>
       <use xlink:href="#DejaVuSans-30" x="190.869141"/>
      </g>
     </g>
    </g>
    <g id="ytick_11">
     <g id="line2d_24">
      <g>
       <use xlink:href="#m2ffd3f503c" x="57.17" y="272.404295" style="stroke: #000000; stroke-width: 0.8"/>
      </g>
     </g>
     <g id="text_25">
      <!-- 2000 -->
      <g transform="translate(24.72 276.203514) scale(0.1 -0.1)">
       <use xlink:href="#DejaVuSans-32"/>
       <use xlink:href="#DejaVuSans-30" x="63.623047"/>
       <use xlink:href="#DejaVuSans-30" x="127.246094"/>
       <use xlink:href="#DejaVuSans-30" x="190.869141"/>
      </g>
     </g>
    </g>
    <g id="ytick_12">
     <g id="line2d_25">
      <g>
       <use xlink:href="#m2ffd3f503c" x="57.17" y="240.922035" style="stroke: #000000; stroke-width: 0.8"/>
      </g>
     </g>
     <g id="text_26">
      <!-- 2500 -->
      <g transform="translate(24.72 244.721254) scale(0.1 -0.1)">
       <use xlink:href="#DejaVuSans-32"/>
       <use xlink:href="#DejaVuSans-35" x="63.623047"/>
       <use xlink:href="#DejaVuSans-30" x="127.246094"/>
       <use xlink:href="#DejaVuSans-30" x="190.869141"/>
      </g>
     </g>
    </g>
    <g id="text_27">
     <!-- Pixel Frequency -->
     <g transform="translate(18.640313 347.398906) rotate(-90) scale(0.1 -0.1)">
      <use xlink:href="#DejaVuSans-50"/>
      <use xlink:href="#DejaVuSans-69" x="58.052734"/>
      <use xlink:href="#DejaVuSans-78" x="85.835938"/>
      <use xlink:href="#DejaVuSans-65" x="141.890625"/>
      <use xlink:href="#DejaVuSans-6c" x="203.414062"/>
      <use xlink:href="#DejaVuSans-20" x="231.197266"/>
      <use xlink:href="#DejaVuSans-46" x="262.984375"/>
      <use xlink:href="#DejaVuSans-72" x="313.253906"/>
      <use xlink:href="#DejaVuSans-65" x="352.117188"/>
      <use xlink:href="#DejaVuSans-71" x="413.640625"/>
      <use xlink:href="#DejaVuSans-75" x="477.117188"/>
      <use xlink:href="#DejaVuSans-65" x="540.496094"/>
      <use xlink:href="#DejaVuSans-6e" x="602.019531"/>
      <use xlink:href="#DejaVuSans-63" x="665.398438"/>
      <use xlink:href="#DejaVuSans-79" x="720.378906"/>
     </g>
    </g>
   </g>
   <g id="line2d_26">
    <path d="M 57.17 398.333333 
L 89.1659 398.333333 
L 90.007898 397.766653 
L 90.849895 397.45183 
L 91.691892 395.751788 
L 92.53389 390.022017 
L 93.375887 379.129155 
L 94.217885 371.573413 
L 95.059882 359.673119 
L 96.743877 328.883469 
L 97.585874 292.301083 
L 98.427871 280.148931 
L 99.269869 287.452815 
L 100.953864 329.387185 
L 101.795861 340.280047 
L 102.637858 338.768898 
L 103.479856 336.691069 
L 104.321853 339.713366 
L 105.16385 339.524472 
L 106.005848 340.46894 
L 106.847845 345.569066 
L 107.689843 347.583931 
L 108.53184 350.417334 
L 109.373837 351.361802 
L 110.215835 355.454496 
L 111.057832 354.447063 
L 111.899829 358.980509 
L 112.741827 359.043473 
L 113.583824 358.036041 
L 114.425822 360.680551 
L 115.267819 362.06577 
L 116.109816 364.836209 
L 116.951814 362.128735 
L 117.793811 360.743515 
L 118.635808 364.269528 
L 119.477806 368.61408 
L 120.319803 365.843641 
L 121.161801 366.66218 
L 122.003798 368.0474 
L 122.845795 368.61408 
L 123.687793 367.480719 
L 124.52979 369.936335 
L 125.371787 369.432619 
L 126.213785 370.628945 
L 127.055782 370.251158 
L 127.89778 371.636377 
L 128.739777 374.029029 
L 129.581774 374.784603 
L 130.423772 373.714206 
L 131.265769 376.54761 
L 132.107766 377.743936 
L 132.949764 377.303184 
L 133.791761 377.555042 
L 134.633759 382.025523 
L 135.475756 380.514374 
L 136.317753 378.436545 
L 137.159751 378.310616 
L 138.001748 381.081055 
L 138.843745 380.892162 
L 139.685743 381.521807 
L 140.52774 384.229281 
L 141.369738 382.151452 
L 142.211735 383.725565 
L 143.053732 384.166317 
L 143.89573 383.914458 
L 144.737727 384.166317 
L 145.579724 386.181181 
L 146.421722 385.173749 
L 147.263719 386.747862 
L 148.105717 386.99972 
L 148.947714 386.055252 
L 149.789711 387.251578 
L 150.631709 387.125649 
L 151.473706 388.384939 
L 152.315703 388.133081 
L 153.157701 387.566401 
L 153.999698 389.770159 
L 154.841696 389.140514 
L 155.683693 389.140514 
L 157.367688 387.881223 
L 158.209685 389.518301 
L 159.051682 389.896088 
L 159.89368 390.147946 
L 160.735677 388.447904 
L 161.577675 391.344272 
L 162.419672 389.707194 
L 163.261669 390.399804 
L 164.103667 389.392372 
L 164.945664 389.392372 
L 165.787661 389.077549 
L 166.629659 390.273875 
L 167.471656 389.455336 
L 168.313654 389.266443 
L 169.155651 390.90352 
L 169.997648 390.966485 
L 170.839646 391.59613 
L 171.681643 391.029449 
L 172.52364 391.973917 
L 173.365638 390.714627 
L 174.207635 391.029449 
L 175.049633 390.966485 
L 175.89163 391.092414 
L 176.733627 392.414669 
L 177.575625 390.588697 
L 178.417622 391.785023 
L 179.259619 392.414669 
L 180.943614 392.540598 
L 182.627609 391.659094 
L 183.469606 392.036881 
L 184.311604 393.736923 
L 185.153601 393.233207 
L 185.995598 391.973917 
L 186.837596 392.918385 
L 187.679593 392.288739 
L 188.521591 392.477633 
L 189.363588 392.477633 
L 190.205585 392.981349 
L 191.047583 394.24064 
L 191.88958 393.233207 
L 192.731577 393.107278 
L 193.573575 391.785023 
L 194.415572 392.603562 
L 195.25757 393.170243 
L 196.099567 393.54803 
L 196.941564 392.85542 
L 197.783562 393.862852 
L 198.625559 393.736923 
L 199.467556 393.736923 
L 200.309554 393.610994 
L 201.151551 393.673959 
L 201.993549 392.792456 
L 202.835546 394.618427 
L 203.677543 394.114711 
L 204.519541 394.114711 
L 205.361538 393.799888 
L 206.203535 393.925817 
L 207.88753 393.736923 
L 208.729528 394.80732 
L 210.413522 394.051746 
L 211.25552 393.988782 
L 212.097517 394.681391 
L 212.939514 394.555462 
L 213.781512 394.933249 
L 214.623509 394.492498 
L 215.465507 395.248072 
L 216.307504 394.80732 
L 217.149501 394.114711 
L 217.991499 394.177675 
L 218.833496 394.429533 
L 219.675493 395.248072 
L 220.517491 394.933249 
L 221.359488 395.311036 
L 222.201486 396.129575 
L 223.043483 394.555462 
L 223.88548 395.185107 
L 224.727478 396.255504 
L 225.569475 394.870285 
L 226.411472 395.751788 
L 228.937465 394.870285 
L 229.779462 395.248072 
L 230.621459 394.80732 
L 231.463457 394.870285 
L 232.305454 395.311036 
L 233.989449 395.688824 
L 234.831446 396.19254 
L 235.673444 395.311036 
L 236.515441 395.940682 
L 237.357438 395.122143 
L 238.199436 395.814753 
L 239.041433 395.562894 
L 239.88343 396.129575 
L 240.725428 395.940682 
L 241.567425 395.248072 
L 243.25142 396.444398 
L 244.093417 395.49993 
L 244.935415 395.122143 
L 245.777412 396.255504 
L 247.461407 395.940682 
L 248.303404 396.633291 
L 249.145402 396.129575 
L 249.987399 395.311036 
L 250.829396 396.003646 
L 251.671394 396.885149 
L 252.513391 396.255504 
L 254.197386 396.381433 
L 257.565375 395.940682 
L 258.407373 396.318469 
L 259.24937 395.688824 
L 260.091367 395.688824 
L 263.459357 396.444398 
L 264.301354 395.625859 
L 265.143352 396.75922 
L 265.985349 396.066611 
L 266.827346 395.751788 
L 267.669344 395.185107 
L 268.511341 395.940682 
L 269.353339 394.681391 
L 270.195336 392.85542 
L 271.037333 390.273875 
L 271.879331 380.892162 
L 271.879331 380.892162 
" clip-path="url(#p7edf82fc8f)" style="fill: none; stroke: #008000; stroke-width: 1.5; stroke-linecap: square"/>
   </g>
   <g id="patch_8">
    <path d="M 57.17 398.333333 
L 57.17 218.506667 
" style="fill: none; stroke: #000000; stroke-width: 0.8; stroke-linejoin: miter; stroke-linecap: square"/>
   </g>
   <g id="patch_9">
    <path d="M 272.721328 398.333333 
L 272.721328 218.506667 
" style="fill: none; stroke: #000000; stroke-width: 0.8; stroke-linejoin: miter; stroke-linecap: square"/>
   </g>
   <g id="patch_10">
    <path d="M 57.17 398.333333 
L 272.721328 398.333333 
" style="fill: none; stroke: #000000; stroke-width: 0.8; stroke-linejoin: miter; stroke-linecap: square"/>
   </g>
   <g id="patch_11">
    <path d="M 57.17 218.506667 
L 272.721328 218.506667 
" style="fill: none; stroke: #000000; stroke-width: 0.8; stroke-linejoin: miter; stroke-linecap: square"/>
   </g>
   <g id="text_28">
    <!-- Green Channel  -->
    <g transform="translate(179.494453 232.506667) scale(0.12 -0.12)">
     <defs>
      <path id="DejaVuSans-47" d="M 3809 666 
L 3809 1919 
L 2778 1919 
L 2778 2438 
L 4434 2438 
L 4434 434 
Q 4069 175 3628 42 
Q 3188 -91 2688 -91 
Q 1594 -91 976 548 
Q 359 1188 359 2328 
Q 359 3472 976 4111 
Q 1594 4750 2688 4750 
Q 3144 4750 3555 4637 
Q 3966 4525 4313 4306 
L 4313 3634 
Q 3963 3931 3569 4081 
Q 3175 4231 2741 4231 
Q 1884 4231 1454 3753 
Q 1025 3275 1025 2328 
Q 1025 1384 1454 906 
Q 1884 428 2741 428 
Q 3075 428 3337 486 
Q 3600 544 3809 666 
z
" transform="scale(0.015625)"/>
     </defs>
     <use xlink:href="#DejaVuSans-47"/>
     <use xlink:href="#DejaVuSans-72" x="77.490234"/>
     <use xlink:href="#DejaVuSans-65" x="116.353516"/>
     <use xlink:href="#DejaVuSans-65" x="177.876953"/>
     <use xlink:href="#DejaVuSans-6e" x="239.400391"/>
     <use xlink:href="#DejaVuSans-20" x="302.779297"/>
     <use xlink:href="#DejaVuSans-43" x="334.566406"/>
     <use xlink:href="#DejaVuSans-68" x="404.390625"/>
     <use xlink:href="#DejaVuSans-61" x="467.769531"/>
     <use xlink:href="#DejaVuSans-6e" x="529.048828"/>
     <use xlink:href="#DejaVuSans-6e" x="592.427734"/>
     <use xlink:href="#DejaVuSans-65" x="655.806641"/>
     <use xlink:href="#DejaVuSans-6c" x="717.330078"/>
     <use xlink:href="#DejaVuSans-20" x="745.113281"/>
    </g>
   </g>
  </g>
  <g id="axes_3">
   <g id="patch_12">
    <path d="M 57.17 606.04 
L 272.721328 606.04 
L 272.721328 426.213333 
L 57.17 426.213333 
z
" style="fill: #ffffff"/>
   </g>
   <g id="PolyCollection_3">
    <defs>
     <path id="mfb03b53551" d="M 57.17 -41.96 
L 57.17 -41.96 
L 58.011997 -41.96 
L 58.853995 -41.96 
L 59.695992 -41.96 
L 60.53799 -41.96 
L 61.379987 -41.96 
L 62.221984 -41.96 
L 63.063982 -41.96 
L 63.905979 -41.96 
L 64.747976 -41.96 
L 65.589974 -41.96 
L 66.431971 -41.96 
L 67.273969 -41.96 
L 68.115966 -41.96 
L 68.957963 -41.96 
L 69.799961 -41.96 
L 70.641958 -41.96 
L 71.483955 -41.96 
L 72.325953 -41.96 
L 73.16795 -41.96 
L 74.009948 -41.96 
L 74.851945 -41.96 
L 75.693942 -42.022965 
L 76.53594 -42.337787 
L 77.377937 -46.808268 
L 78.219934 -59.464136 
L 79.061932 -100.454038 
L 79.903929 -182.811629 
L 80.745927 -221.786667 
L 81.587924 -204.723282 
L 82.429921 -170.092796 
L 83.271919 -158.885112 
L 84.113916 -148.495966 
L 84.955913 -147.173711 
L 85.797911 -138.79943 
L 86.639908 -126.39542 
L 87.481906 -120.476755 
L 88.323903 -116.887778 
L 89.1659 -110.402432 
L 90.007898 -109.332035 
L 90.849895 -106.624561 
L 91.691892 -102.720761 
L 92.53389 -102.657796 
L 93.375887 -102.720761 
L 94.217885 -94.787232 
L 95.059882 -93.464977 
L 95.901879 -91.890864 
L 96.743877 -91.70197 
L 97.585874 -90.631573 
L 98.427871 -87.79817 
L 99.269869 -83.642512 
L 100.111866 -81.060966 
L 100.953864 -76.905308 
L 101.795861 -75.457124 
L 102.637858 -73.379295 
L 103.479856 -70.168105 
L 104.321853 -71.868147 
L 105.16385 -71.175537 
L 106.005848 -68.090275 
L 106.847845 -67.334701 
L 107.689843 -65.382801 
L 108.53184 -63.934617 
L 109.373837 -61.60493 
L 110.215835 -62.29754 
L 111.057832 -60.597498 
L 111.899829 -60.975285 
L 112.741827 -58.393739 
L 113.583824 -58.897456 
L 114.425822 -59.023385 
L 115.267819 -56.756662 
L 116.109816 -59.590065 
L 116.951814 -56.567768 
L 117.793811 -56.693697 
L 118.635808 -55.74923 
L 119.477806 -56.693697 
L 120.319803 -57.260378 
L 121.161801 -55.434407 
L 122.003798 -54.049188 
L 122.845795 -54.867726 
L 123.687793 -54.426975 
L 124.52979 -53.734365 
L 125.371787 -54.993655 
L 126.213785 -54.741797 
L 127.055782 -52.601004 
L 127.89778 -53.671401 
L 128.739777 -52.915826 
L 129.581774 -50.963926 
L 130.423772 -52.034323 
L 131.265769 -52.349146 
L 132.107766 -51.467642 
L 132.949764 -51.593571 
L 133.791761 -51.467642 
L 134.633759 -51.7195 
L 135.475756 -50.775033 
L 136.317753 -49.893529 
L 137.159751 -51.026891 
L 138.001748 -49.893529 
L 138.843745 -50.271317 
L 139.685743 -50.775033 
L 140.52774 -50.019458 
L 141.369738 -50.397246 
L 142.211735 -48.886097 
L 143.053732 -49.326849 
L 143.89573 -49.074991 
L 144.737727 -48.823133 
L 145.579724 -49.074991 
L 146.421722 -48.697204 
L 147.263719 -48.571275 
L 148.105717 -48.319416 
L 148.947714 -47.8157 
L 149.789711 -47.752736 
L 150.631709 -46.808268 
L 151.473706 -47.752736 
L 152.315703 -48.004594 
L 153.157701 -47.689771 
L 153.999698 -47.311984 
L 154.841696 -46.619374 
L 155.683693 -47.123091 
L 156.52569 -47.060126 
L 157.367688 -46.997162 
L 158.209685 -47.311984 
L 159.051682 -46.55641 
L 159.89368 -47.563842 
L 160.735677 -47.186055 
L 161.577675 -45.926765 
L 162.419672 -46.178623 
L 163.261669 -46.052694 
L 164.103667 -45.29712 
L 164.945664 -45.108226 
L 165.787661 -45.926765 
L 166.629659 -45.989729 
L 167.471656 -44.982297 
L 168.313654 -45.234155 
L 169.155651 -44.793403 
L 169.997648 -45.17119 
L 170.839646 -44.919332 
L 171.681643 -45.486013 
L 172.52364 -45.800836 
L 173.365638 -44.541545 
L 174.207635 -44.730439 
L 175.049633 -44.919332 
L 175.89163 -44.60451 
L 176.733627 -45.108226 
L 177.575625 -44.541545 
L 178.417622 -44.541545 
L 179.259619 -44.730439 
L 180.101617 -44.037829 
L 180.943614 -43.848936 
L 181.785612 -43.848936 
L 182.627609 -44.919332 
L 183.469606 -43.9119 
L 184.311604 -43.534113 
L 185.153601 -43.785971 
L 185.995598 -44.289687 
L 186.837596 -43.597077 
L 187.679593 -43.471148 
L 188.521591 -43.282255 
L 189.363588 -43.156326 
L 190.205585 -43.345219 
L 191.047583 -43.9119 
L 191.88958 -43.21929 
L 192.731577 -43.282255 
L 193.573575 -42.904468 
L 194.415572 -43.723007 
L 195.25757 -42.463716 
L 196.099567 -42.967432 
L 196.941564 -42.841503 
L 197.783562 -43.030397 
L 198.625559 -43.030397 
L 199.467556 -42.904468 
L 200.309554 -43.030397 
L 201.151551 -42.778539 
L 201.993549 -42.526681 
L 202.835546 -42.778539 
L 203.677543 -42.589645 
L 204.519541 -42.715574 
L 205.361538 -42.65261 
L 206.203535 -42.148894 
L 207.045533 -42.778539 
L 207.88753 -42.463716 
L 208.729528 -42.589645 
L 209.571525 -42.589645 
L 210.413522 -42.778539 
L 211.25552 -42.463716 
L 212.097517 -42.65261 
L 212.939514 -42.211858 
L 213.781512 -42.463716 
L 214.623509 -42.463716 
L 215.465507 -42.337787 
L 216.307504 -42.211858 
L 217.149501 -42.400752 
L 217.991499 -42.400752 
L 218.833496 -42.211858 
L 219.675493 -42.274823 
L 220.517491 -42.337787 
L 221.359488 -42.211858 
L 222.201486 -42.274823 
L 223.043483 -42.085929 
L 223.88548 -42.400752 
L 224.727478 -42.211858 
L 225.569475 -42.085929 
L 226.411472 -42.148894 
L 227.25347 -42.211858 
L 228.095467 -42.400752 
L 228.937465 -42.085929 
L 229.779462 -42.211858 
L 230.621459 -42.337787 
L 231.463457 -42.022965 
L 232.305454 -42.274823 
L 233.147451 -42.148894 
L 233.989449 -42.211858 
L 234.831446 -42.274823 
L 235.673444 -42.148894 
L 236.515441 -42.085929 
L 237.357438 -42.211858 
L 238.199436 -42.148894 
L 239.041433 -42.148894 
L 239.88343 -42.211858 
L 240.725428 -42.148894 
L 241.567425 -42.211858 
L 242.409423 -42.022965 
L 243.25142 -42.022965 
L 244.093417 -42.211858 
L 244.935415 -42.022965 
L 245.777412 -41.96 
L 246.619409 -42.085929 
L 247.461407 -42.022965 
L 248.303404 -41.96 
L 249.145402 -42.085929 
L 249.987399 -42.148894 
L 250.829396 -42.085929 
L 251.671394 -42.022965 
L 252.513391 -41.96 
L 253.355388 -41.96 
L 254.197386 -42.022965 
L 255.039383 -42.148894 
L 255.881381 -42.022965 
L 256.723378 -41.96 
L 257.565375 -41.96 
L 258.407373 -42.022965 
L 259.24937 -42.022965 
L 260.091367 -42.085929 
L 260.933365 -41.96 
L 261.775362 -42.022965 
L 262.61736 -41.96 
L 263.459357 -42.085929 
L 264.301354 -42.085929 
L 265.143352 -42.022965 
L 265.985349 -41.96 
L 266.827346 -42.085929 
L 267.669344 -42.211858 
L 268.511341 -42.148894 
L 269.353339 -42.022965 
L 270.195336 -42.085929 
L 271.037333 -42.211858 
L 271.879331 -42.337787 
L 271.879331 -41.96 
L 271.879331 -41.96 
L 271.037333 -41.96 
L 270.195336 -41.96 
L 269.353339 -41.96 
L 268.511341 -41.96 
L 267.669344 -41.96 
L 266.827346 -41.96 
L 265.985349 -41.96 
L 265.143352 -41.96 
L 264.301354 -41.96 
L 263.459357 -41.96 
L 262.61736 -41.96 
L 261.775362 -41.96 
L 260.933365 -41.96 
L 260.091367 -41.96 
L 259.24937 -41.96 
L 258.407373 -41.96 
L 257.565375 -41.96 
L 256.723378 -41.96 
L 255.881381 -41.96 
L 255.039383 -41.96 
L 254.197386 -41.96 
L 253.355388 -41.96 
L 252.513391 -41.96 
L 251.671394 -41.96 
L 250.829396 -41.96 
L 249.987399 -41.96 
L 249.145402 -41.96 
L 248.303404 -41.96 
L 247.461407 -41.96 
L 246.619409 -41.96 
L 245.777412 -41.96 
L 244.935415 -41.96 
L 244.093417 -41.96 
L 243.25142 -41.96 
L 242.409423 -41.96 
L 241.567425 -41.96 
L 240.725428 -41.96 
L 239.88343 -41.96 
L 239.041433 -41.96 
L 238.199436 -41.96 
L 237.357438 -41.96 
L 236.515441 -41.96 
L 235.673444 -41.96 
L 234.831446 -41.96 
L 233.989449 -41.96 
L 233.147451 -41.96 
L 232.305454 -41.96 
L 231.463457 -41.96 
L 230.621459 -41.96 
L 229.779462 -41.96 
L 228.937465 -41.96 
L 228.095467 -41.96 
L 227.25347 -41.96 
L 226.411472 -41.96 
L 225.569475 -41.96 
L 224.727478 -41.96 
L 223.88548 -41.96 
L 223.043483 -41.96 
L 222.201486 -41.96 
L 221.359488 -41.96 
L 220.517491 -41.96 
L 219.675493 -41.96 
L 218.833496 -41.96 
L 217.991499 -41.96 
L 217.149501 -41.96 
L 216.307504 -41.96 
L 215.465507 -41.96 
L 214.623509 -41.96 
L 213.781512 -41.96 
L 212.939514 -41.96 
L 212.097517 -41.96 
L 211.25552 -41.96 
L 210.413522 -41.96 
L 209.571525 -41.96 
L 208.729528 -41.96 
L 207.88753 -41.96 
L 207.045533 -41.96 
L 206.203535 -41.96 
L 205.361538 -41.96 
L 204.519541 -41.96 
L 203.677543 -41.96 
L 202.835546 -41.96 
L 201.993549 -41.96 
L 201.151551 -41.96 
L 200.309554 -41.96 
L 199.467556 -41.96 
L 198.625559 -41.96 
L 197.783562 -41.96 
L 196.941564 -41.96 
L 196.099567 -41.96 
L 195.25757 -41.96 
L 194.415572 -41.96 
L 193.573575 -41.96 
L 192.731577 -41.96 
L 191.88958 -41.96 
L 191.047583 -41.96 
L 190.205585 -41.96 
L 189.363588 -41.96 
L 188.521591 -41.96 
L 187.679593 -41.96 
L 186.837596 -41.96 
L 185.995598 -41.96 
L 185.153601 -41.96 
L 184.311604 -41.96 
L 183.469606 -41.96 
L 182.627609 -41.96 
L 181.785612 -41.96 
L 180.943614 -41.96 
L 180.101617 -41.96 
L 179.259619 -41.96 
L 178.417622 -41.96 
L 177.575625 -41.96 
L 176.733627 -41.96 
L 175.89163 -41.96 
L 175.049633 -41.96 
L 174.207635 -41.96 
L 173.365638 -41.96 
L 172.52364 -41.96 
L 171.681643 -41.96 
L 170.839646 -41.96 
L 169.997648 -41.96 
L 169.155651 -41.96 
L 168.313654 -41.96 
L 167.471656 -41.96 
L 166.629659 -41.96 
L 165.787661 -41.96 
L 164.945664 -41.96 
L 164.103667 -41.96 
L 163.261669 -41.96 
L 162.419672 -41.96 
L 161.577675 -41.96 
L 160.735677 -41.96 
L 159.89368 -41.96 
L 159.051682 -41.96 
L 158.209685 -41.96 
L 157.367688 -41.96 
L 156.52569 -41.96 
L 155.683693 -41.96 
L 154.841696 -41.96 
L 153.999698 -41.96 
L 153.157701 -41.96 
L 152.315703 -41.96 
L 151.473706 -41.96 
L 150.631709 -41.96 
L 149.789711 -41.96 
L 148.947714 -41.96 
L 148.105717 -41.96 
L 147.263719 -41.96 
L 146.421722 -41.96 
L 145.579724 -41.96 
L 144.737727 -41.96 
L 143.89573 -41.96 
L 143.053732 -41.96 
L 142.211735 -41.96 
L 141.369738 -41.96 
L 140.52774 -41.96 
L 139.685743 -41.96 
L 138.843745 -41.96 
L 138.001748 -41.96 
L 137.159751 -41.96 
L 136.317753 -41.96 
L 135.475756 -41.96 
L 134.633759 -41.96 
L 133.791761 -41.96 
L 132.949764 -41.96 
L 132.107766 -41.96 
L 131.265769 -41.96 
L 130.423772 -41.96 
L 129.581774 -41.96 
L 128.739777 -41.96 
L 127.89778 -41.96 
L 127.055782 -41.96 
L 126.213785 -41.96 
L 125.371787 -41.96 
L 124.52979 -41.96 
L 123.687793 -41.96 
L 122.845795 -41.96 
L 122.003798 -41.96 
L 121.161801 -41.96 
L 120.319803 -41.96 
L 119.477806 -41.96 
L 118.635808 -41.96 
L 117.793811 -41.96 
L 116.951814 -41.96 
L 116.109816 -41.96 
L 115.267819 -41.96 
L 114.425822 -41.96 
L 113.583824 -41.96 
L 112.741827 -41.96 
L 111.899829 -41.96 
L 111.057832 -41.96 
L 110.215835 -41.96 
L 109.373837 -41.96 
L 108.53184 -41.96 
L 107.689843 -41.96 
L 106.847845 -41.96 
L 106.005848 -41.96 
L 105.16385 -41.96 
L 104.321853 -41.96 
L 103.479856 -41.96 
L 102.637858 -41.96 
L 101.795861 -41.96 
L 100.953864 -41.96 
L 100.111866 -41.96 
L 99.269869 -41.96 
L 98.427871 -41.96 
L 97.585874 -41.96 
L 96.743877 -41.96 
L 95.901879 -41.96 
L 95.059882 -41.96 
L 94.217885 -41.96 
L 93.375887 -41.96 
L 92.53389 -41.96 
L 91.691892 -41.96 
L 90.849895 -41.96 
L 90.007898 -41.96 
L 89.1659 -41.96 
L 88.323903 -41.96 
L 87.481906 -41.96 
L 86.639908 -41.96 
L 85.797911 -41.96 
L 84.955913 -41.96 
L 84.113916 -41.96 
L 83.271919 -41.96 
L 82.429921 -41.96 
L 81.587924 -41.96 
L 80.745927 -41.96 
L 79.903929 -41.96 
L 79.061932 -41.96 
L 78.219934 -41.96 
L 77.377937 -41.96 
L 76.53594 -41.96 
L 75.693942 -41.96 
L 74.851945 -41.96 
L 74.009948 -41.96 
L 73.16795 -41.96 
L 72.325953 -41.96 
L 71.483955 -41.96 
L 70.641958 -41.96 
L 69.799961 -41.96 
L 68.957963 -41.96 
L 68.115966 -41.96 
L 67.273969 -41.96 
L 66.431971 -41.96 
L 65.589974 -41.96 
L 64.747976 -41.96 
L 63.905979 -41.96 
L 63.063982 -41.96 
L 62.221984 -41.96 
L 61.379987 -41.96 
L 60.53799 -41.96 
L 59.695992 -41.96 
L 58.853995 -41.96 
L 58.011997 -41.96 
L 57.17 -41.96 
z
" style="stroke: #0000ff; stroke-opacity: 0.4"/>
    </defs>
    <g clip-path="url(#p53d4245329)">
     <use xlink:href="#mfb03b53551" x="0" y="648" style="fill: #0000ff; fill-opacity: 0.4; stroke: #0000ff; stroke-opacity: 0.4"/>
    </g>
   </g>
   <g id="matplotlib.axis_5">
    <g id="xtick_13">
     <g id="line2d_27">
      <g>
       <use xlink:href="#m962dd15d77" x="57.17" y="606.04" style="stroke: #000000; stroke-width: 0.8"/>
      </g>
     </g>
     <g id="text_29">
      <!-- 0 -->
      <g transform="translate(53.98875 620.638438) scale(0.1 -0.1)">
       <use xlink:href="#DejaVuSans-30"/>
      </g>
     </g>
    </g>
    <g id="xtick_14">
     <g id="line2d_28">
      <g>
       <use xlink:href="#m962dd15d77" x="99.269869" y="606.04" style="stroke: #000000; stroke-width: 0.8"/>
      </g>
     </g>
     <g id="text_30">
      <!-- 50 -->
      <g transform="translate(92.907369 620.638438) scale(0.1 -0.1)">
       <use xlink:href="#DejaVuSans-35"/>
       <use xlink:href="#DejaVuSans-30" x="63.623047"/>
      </g>
     </g>
    </g>
    <g id="xtick_15">
     <g id="line2d_29">
      <g>
       <use xlink:href="#m962dd15d77" x="141.369738" y="606.04" style="stroke: #000000; stroke-width: 0.8"/>
      </g>
     </g>
     <g id="text_31">
      <!-- 100 -->
      <g transform="translate(131.825988 620.638438) scale(0.1 -0.1)">
       <use xlink:href="#DejaVuSans-31"/>
       <use xlink:href="#DejaVuSans-30" x="63.623047"/>
       <use xlink:href="#DejaVuSans-30" x="127.246094"/>
      </g>
     </g>
    </g>
    <g id="xtick_16">
     <g id="line2d_30">
      <g>
       <use xlink:href="#m962dd15d77" x="183.469606" y="606.04" style="stroke: #000000; stroke-width: 0.8"/>
      </g>
     </g>
     <g id="text_32">
      <!-- 150 -->
      <g transform="translate(173.925856 620.638438) scale(0.1 -0.1)">
       <use xlink:href="#DejaVuSans-31"/>
       <use xlink:href="#DejaVuSans-35" x="63.623047"/>
       <use xlink:href="#DejaVuSans-30" x="127.246094"/>
      </g>
     </g>
    </g>
    <g id="xtick_17">
     <g id="line2d_31">
      <g>
       <use xlink:href="#m962dd15d77" x="225.569475" y="606.04" style="stroke: #000000; stroke-width: 0.8"/>
      </g>
     </g>
     <g id="text_33">
      <!-- 200 -->
      <g transform="translate(216.025725 620.638438) scale(0.1 -0.1)">
       <use xlink:href="#DejaVuSans-32"/>
       <use xlink:href="#DejaVuSans-30" x="63.623047"/>
       <use xlink:href="#DejaVuSans-30" x="127.246094"/>
      </g>
     </g>
    </g>
    <g id="xtick_18">
     <g id="line2d_32">
      <g>
       <use xlink:href="#m962dd15d77" x="267.669344" y="606.04" style="stroke: #000000; stroke-width: 0.8"/>
      </g>
     </g>
     <g id="text_34">
      <!-- 250 -->
      <g transform="translate(258.125594 620.638438) scale(0.1 -0.1)">
       <use xlink:href="#DejaVuSans-32"/>
       <use xlink:href="#DejaVuSans-35" x="63.623047"/>
       <use xlink:href="#DejaVuSans-30" x="127.246094"/>
      </g>
     </g>
    </g>
    <g id="text_35">
     <!-- Pixel Intensity -->
     <g transform="translate(130.033945 634.316563) scale(0.1 -0.1)">
      <defs>
       <path id="DejaVuSans-49" d="M 628 4666 
L 1259 4666 
L 1259 0 
L 628 0 
L 628 4666 
z
" transform="scale(0.015625)"/>
       <path id="DejaVuSans-74" d="M 1172 4494 
L 1172 3500 
L 2356 3500 
L 2356 3053 
L 1172 3053 
L 1172 1153 
Q 1172 725 1289 603 
Q 1406 481 1766 481 
L 2356 481 
L 2356 0 
L 1766 0 
Q 1100 0 847 248 
Q 594 497 594 1153 
L 594 3053 
L 172 3053 
L 172 3500 
L 594 3500 
L 594 4494 
L 1172 4494 
z
" transform="scale(0.015625)"/>
       <path id="DejaVuSans-73" d="M 2834 3397 
L 2834 2853 
Q 2591 2978 2328 3040 
Q 2066 3103 1784 3103 
Q 1356 3103 1142 2972 
Q 928 2841 928 2578 
Q 928 2378 1081 2264 
Q 1234 2150 1697 2047 
L 1894 2003 
Q 2506 1872 2764 1633 
Q 3022 1394 3022 966 
Q 3022 478 2636 193 
Q 2250 -91 1575 -91 
Q 1294 -91 989 -36 
Q 684 19 347 128 
L 347 722 
Q 666 556 975 473 
Q 1284 391 1588 391 
Q 1994 391 2212 530 
Q 2431 669 2431 922 
Q 2431 1156 2273 1281 
Q 2116 1406 1581 1522 
L 1381 1569 
Q 847 1681 609 1914 
Q 372 2147 372 2553 
Q 372 3047 722 3315 
Q 1072 3584 1716 3584 
Q 2034 3584 2315 3537 
Q 2597 3491 2834 3397 
z
" transform="scale(0.015625)"/>
      </defs>
      <use xlink:href="#DejaVuSans-50"/>
      <use xlink:href="#DejaVuSans-69" x="58.052734"/>
      <use xlink:href="#DejaVuSans-78" x="85.835938"/>
      <use xlink:href="#DejaVuSans-65" x="141.890625"/>
      <use xlink:href="#DejaVuSans-6c" x="203.414062"/>
      <use xlink:href="#DejaVuSans-20" x="231.197266"/>
      <use xlink:href="#DejaVuSans-49" x="262.984375"/>
      <use xlink:href="#DejaVuSans-6e" x="292.476562"/>
      <use xlink:href="#DejaVuSans-74" x="355.855469"/>
      <use xlink:href="#DejaVuSans-65" x="395.064453"/>
      <use xlink:href="#DejaVuSans-6e" x="456.587891"/>
      <use xlink:href="#DejaVuSans-73" x="519.966797"/>
      <use xlink:href="#DejaVuSans-69" x="572.066406"/>
      <use xlink:href="#DejaVuSans-74" x="599.849609"/>
      <use xlink:href="#DejaVuSans-79" x="639.058594"/>
     </g>
    </g>
   </g>
   <g id="matplotlib.axis_6">
    <g id="ytick_13">
     <g id="line2d_33">
      <g>
       <use xlink:href="#m2ffd3f503c" x="57.17" y="606.04" style="stroke: #000000; stroke-width: 0.8"/>
      </g>
     </g>
     <g id="text_36">
      <!-- 0 -->
      <g transform="translate(43.8075 609.839219) scale(0.1 -0.1)">
       <use xlink:href="#DejaVuSans-30"/>
      </g>
     </g>
    </g>
    <g id="ytick_14">
     <g id="line2d_34">
      <g>
       <use xlink:href="#m2ffd3f503c" x="57.17" y="574.55774" style="stroke: #000000; stroke-width: 0.8"/>
      </g>
     </g>
     <g id="text_37">
      <!-- 500 -->
      <g transform="translate(31.0825 578.356959) scale(0.1 -0.1)">
       <use xlink:href="#DejaVuSans-35"/>
       <use xlink:href="#DejaVuSans-30" x="63.623047"/>
       <use xlink:href="#DejaVuSans-30" x="127.246094"/>
      </g>
     </g>
    </g>
    <g id="ytick_15">
     <g id="line2d_35">
      <g>
       <use xlink:href="#m2ffd3f503c" x="57.17" y="543.075481" style="stroke: #000000; stroke-width: 0.8"/>
      </g>
     </g>
     <g id="text_38">
      <!-- 1000 -->
      <g transform="translate(24.72 546.8747) scale(0.1 -0.1)">
       <use xlink:href="#DejaVuSans-31"/>
       <use xlink:href="#DejaVuSans-30" x="63.623047"/>
       <use xlink:href="#DejaVuSans-30" x="127.246094"/>
       <use xlink:href="#DejaVuSans-30" x="190.869141"/>
      </g>
     </g>
    </g>
    <g id="ytick_16">
     <g id="line2d_36">
      <g>
       <use xlink:href="#m2ffd3f503c" x="57.17" y="511.593221" style="stroke: #000000; stroke-width: 0.8"/>
      </g>
     </g>
     <g id="text_39">
      <!-- 1500 -->
      <g transform="translate(24.72 515.39244) scale(0.1 -0.1)">
       <use xlink:href="#DejaVuSans-31"/>
       <use xlink:href="#DejaVuSans-35" x="63.623047"/>
       <use xlink:href="#DejaVuSans-30" x="127.246094"/>
       <use xlink:href="#DejaVuSans-30" x="190.869141"/>
      </g>
     </g>
    </g>
    <g id="ytick_17">
     <g id="line2d_37">
      <g>
       <use xlink:href="#m2ffd3f503c" x="57.17" y="480.110962" style="stroke: #000000; stroke-width: 0.8"/>
      </g>
     </g>
     <g id="text_40">
      <!-- 2000 -->
      <g transform="translate(24.72 483.91018) scale(0.1 -0.1)">
       <use xlink:href="#DejaVuSans-32"/>
       <use xlink:href="#DejaVuSans-30" x="63.623047"/>
       <use xlink:href="#DejaVuSans-30" x="127.246094"/>
       <use xlink:href="#DejaVuSans-30" x="190.869141"/>
      </g>
     </g>
    </g>
    <g id="ytick_18">
     <g id="line2d_38">
      <g>
       <use xlink:href="#m2ffd3f503c" x="57.17" y="448.628702" style="stroke: #000000; stroke-width: 0.8"/>
      </g>
     </g>
     <g id="text_41">
      <!-- 2500 -->
      <g transform="translate(24.72 452.427921) scale(0.1 -0.1)">
       <use xlink:href="#DejaVuSans-32"/>
       <use xlink:href="#DejaVuSans-35" x="63.623047"/>
       <use xlink:href="#DejaVuSans-30" x="127.246094"/>
       <use xlink:href="#DejaVuSans-30" x="190.869141"/>
      </g>
     </g>
    </g>
    <g id="text_42">
     <!-- Pixel Frequency -->
     <g transform="translate(18.640313 555.105573) rotate(-90) scale(0.1 -0.1)">
      <use xlink:href="#DejaVuSans-50"/>
      <use xlink:href="#DejaVuSans-69" x="58.052734"/>
      <use xlink:href="#DejaVuSans-78" x="85.835938"/>
      <use xlink:href="#DejaVuSans-65" x="141.890625"/>
      <use xlink:href="#DejaVuSans-6c" x="203.414062"/>
      <use xlink:href="#DejaVuSans-20" x="231.197266"/>
      <use xlink:href="#DejaVuSans-46" x="262.984375"/>
      <use xlink:href="#DejaVuSans-72" x="313.253906"/>
      <use xlink:href="#DejaVuSans-65" x="352.117188"/>
      <use xlink:href="#DejaVuSans-71" x="413.640625"/>
      <use xlink:href="#DejaVuSans-75" x="477.117188"/>
      <use xlink:href="#DejaVuSans-65" x="540.496094"/>
      <use xlink:href="#DejaVuSans-6e" x="602.019531"/>
      <use xlink:href="#DejaVuSans-63" x="665.398438"/>
      <use xlink:href="#DejaVuSans-79" x="720.378906"/>
     </g>
    </g>
   </g>
   <g id="line2d_39">
    <path d="M 57.17 606.04 
L 75.693942 605.977035 
L 76.53594 605.662213 
L 77.377937 601.191732 
L 78.219934 588.535864 
L 79.061932 547.545962 
L 79.903929 465.188371 
L 80.745927 426.213333 
L 81.587924 443.276718 
L 82.429921 477.907204 
L 84.113916 499.504034 
L 84.955913 500.826289 
L 85.797911 509.20057 
L 86.639908 521.60458 
L 87.481906 527.523245 
L 88.323903 531.112222 
L 89.1659 537.597568 
L 90.007898 538.667965 
L 90.849895 541.375439 
L 91.691892 545.279239 
L 92.53389 545.342204 
L 93.375887 545.279239 
L 94.217885 553.212768 
L 95.059882 554.535023 
L 95.901879 556.109136 
L 96.743877 556.29803 
L 97.585874 557.368427 
L 98.427871 560.20183 
L 99.269869 564.357488 
L 100.111866 566.939034 
L 100.953864 571.094692 
L 101.795861 572.542876 
L 102.637858 574.620705 
L 103.479856 577.831895 
L 104.321853 576.131853 
L 105.16385 576.824463 
L 106.005848 579.909725 
L 106.847845 580.665299 
L 107.689843 582.617199 
L 108.53184 584.065383 
L 109.373837 586.39507 
L 110.215835 585.70246 
L 111.057832 587.402502 
L 111.899829 587.024715 
L 112.741827 589.606261 
L 113.583824 589.102544 
L 114.425822 588.976615 
L 115.267819 591.243338 
L 116.109816 588.409935 
L 116.951814 591.432232 
L 117.793811 591.306303 
L 118.635808 592.25077 
L 119.477806 591.306303 
L 120.319803 590.739622 
L 121.161801 592.565593 
L 122.003798 593.950812 
L 122.845795 593.132274 
L 123.687793 593.573025 
L 124.52979 594.265635 
L 125.371787 593.006345 
L 126.213785 593.258203 
L 127.055782 595.398996 
L 127.89778 594.328599 
L 128.739777 595.084174 
L 129.581774 597.036074 
L 130.423772 595.965677 
L 131.265769 595.650854 
L 132.107766 596.532358 
L 132.949764 596.406429 
L 133.791761 596.532358 
L 134.633759 596.2805 
L 136.317753 598.106471 
L 137.159751 596.973109 
L 138.001748 598.106471 
L 138.843745 597.728683 
L 139.685743 597.224967 
L 140.52774 597.980542 
L 141.369738 597.602754 
L 142.211735 599.113903 
L 143.053732 598.673151 
L 144.737727 599.176867 
L 145.579724 598.925009 
L 146.421722 599.302796 
L 147.263719 599.428725 
L 148.105717 599.680584 
L 148.947714 600.1843 
L 149.789711 600.247264 
L 150.631709 601.191732 
L 151.473706 600.247264 
L 152.315703 599.995406 
L 153.999698 600.688016 
L 154.841696 601.380626 
L 155.683693 600.876909 
L 157.367688 601.002838 
L 158.209685 600.688016 
L 159.051682 601.44359 
L 159.89368 600.436158 
L 160.735677 600.813945 
L 161.577675 602.073235 
L 162.419672 601.821377 
L 163.261669 601.947306 
L 164.103667 602.70288 
L 164.945664 602.891774 
L 165.787661 602.073235 
L 166.629659 602.010271 
L 167.471656 603.017703 
L 168.313654 602.765845 
L 169.155651 603.206597 
L 169.997648 602.82881 
L 170.839646 603.080668 
L 171.681643 602.513987 
L 172.52364 602.199164 
L 173.365638 603.458455 
L 175.049633 603.080668 
L 175.89163 603.39549 
L 176.733627 602.891774 
L 177.575625 603.458455 
L 178.417622 603.458455 
L 179.259619 603.269561 
L 180.101617 603.962171 
L 180.943614 604.151064 
L 181.785612 604.151064 
L 182.627609 603.080668 
L 183.469606 604.0881 
L 184.311604 604.465887 
L 185.153601 604.214029 
L 185.995598 603.710313 
L 186.837596 604.402923 
L 189.363588 604.843674 
L 190.205585 604.654781 
L 191.047583 604.0881 
L 191.88958 604.78071 
L 192.731577 604.717745 
L 193.573575 605.095532 
L 194.415572 604.276993 
L 195.25757 605.536284 
L 196.099567 605.032568 
L 196.941564 605.158497 
L 197.783562 604.969603 
L 198.625559 604.969603 
L 199.467556 605.095532 
L 200.309554 604.969603 
L 201.993549 605.473319 
L 202.835546 605.221461 
L 203.677543 605.410355 
L 204.519541 605.284426 
L 205.361538 605.34739 
L 206.203535 605.851106 
L 207.045533 605.221461 
L 207.88753 605.536284 
L 208.729528 605.410355 
L 209.571525 605.410355 
L 210.413522 605.221461 
L 211.25552 605.536284 
L 212.097517 605.34739 
L 212.939514 605.788142 
L 213.781512 605.536284 
L 214.623509 605.536284 
L 216.307504 605.788142 
L 217.149501 605.599248 
L 217.991499 605.599248 
L 218.833496 605.788142 
L 220.517491 605.662213 
L 221.359488 605.788142 
L 222.201486 605.725177 
L 223.043483 605.914071 
L 223.88548 605.599248 
L 225.569475 605.914071 
L 227.25347 605.788142 
L 228.095467 605.599248 
L 228.937465 605.914071 
L 230.621459 605.662213 
L 231.463457 605.977035 
L 232.305454 605.725177 
L 233.147451 605.851106 
L 234.831446 605.725177 
L 236.515441 605.914071 
L 237.357438 605.788142 
L 239.041433 605.851106 
L 239.88343 605.788142 
L 240.725428 605.851106 
L 241.567425 605.788142 
L 242.409423 605.977035 
L 243.25142 605.977035 
L 244.093417 605.788142 
L 244.935415 605.977035 
L 245.777412 606.04 
L 246.619409 605.914071 
L 248.303404 606.04 
L 249.987399 605.851106 
L 253.355388 606.04 
L 255.039383 605.851106 
L 256.723378 606.04 
L 259.24937 605.977035 
L 260.091367 605.914071 
L 260.933365 606.04 
L 261.775362 605.977035 
L 262.61736 606.04 
L 263.459357 605.914071 
L 265.143352 605.977035 
L 265.985349 606.04 
L 267.669344 605.788142 
L 270.195336 605.914071 
L 271.879331 605.662213 
L 271.879331 605.662213 
" clip-path="url(#p53d4245329)" style="fill: none; stroke: #0000ff; stroke-width: 1.5; stroke-linecap: square"/>
   </g>
   <g id="patch_13">
    <path d="M 57.17 606.04 
L 57.17 426.213333 
" style="fill: none; stroke: #000000; stroke-width: 0.8; stroke-linejoin: miter; stroke-linecap: square"/>
   </g>
   <g id="patch_14">
    <path d="M 272.721328 606.04 
L 272.721328 426.213333 
" style="fill: none; stroke: #000000; stroke-width: 0.8; stroke-linejoin: miter; stroke-linecap: square"/>
   </g>
   <g id="patch_15">
    <path d="M 57.17 606.04 
L 272.721328 606.04 
" style="fill: none; stroke: #000000; stroke-width: 0.8; stroke-linejoin: miter; stroke-linecap: square"/>
   </g>
   <g id="patch_16">
    <path d="M 57.17 426.213333 
L 272.721328 426.213333 
" style="fill: none; stroke: #000000; stroke-width: 0.8; stroke-linejoin: miter; stroke-linecap: square"/>
   </g>
   <g id="text_43">
    <!-- Blue Channel  -->
    <g transform="translate(189.272578 440.213333) scale(0.12 -0.12)">
     <defs>
      <path id="DejaVuSans-42" d="M 1259 2228 
L 1259 519 
L 2272 519 
Q 2781 519 3026 730 
Q 3272 941 3272 1375 
Q 3272 1813 3026 2020 
Q 2781 2228 2272 2228 
L 1259 2228 
z
M 1259 4147 
L 1259 2741 
L 2194 2741 
Q 2656 2741 2882 2914 
Q 3109 3088 3109 3444 
Q 3109 3797 2882 3972 
Q 2656 4147 2194 4147 
L 1259 4147 
z
M 628 4666 
L 2241 4666 
Q 2963 4666 3353 4366 
Q 3744 4066 3744 3513 
Q 3744 3084 3544 2831 
Q 3344 2578 2956 2516 
Q 3422 2416 3680 2098 
Q 3938 1781 3938 1306 
Q 3938 681 3513 340 
Q 3088 0 2303 0 
L 628 0 
L 628 4666 
z
" transform="scale(0.015625)"/>
     </defs>
     <use xlink:href="#DejaVuSans-42"/>
     <use xlink:href="#DejaVuSans-6c" x="68.603516"/>
     <use xlink:href="#DejaVuSans-75" x="96.386719"/>
     <use xlink:href="#DejaVuSans-65" x="159.765625"/>
     <use xlink:href="#DejaVuSans-20" x="221.289062"/>
     <use xlink:href="#DejaVuSans-43" x="253.076172"/>
     <use xlink:href="#DejaVuSans-68" x="322.900391"/>
     <use xlink:href="#DejaVuSans-61" x="386.279297"/>
     <use xlink:href="#DejaVuSans-6e" x="447.558594"/>
     <use xlink:href="#DejaVuSans-6e" x="510.9375"/>
     <use xlink:href="#DejaVuSans-65" x="574.316406"/>
     <use xlink:href="#DejaVuSans-6c" x="635.839844"/>
     <use xlink:href="#DejaVuSans-20" x="663.623047"/>
    </g>
   </g>
  </g>
 </g>
 <defs>
  <clipPath id="pe038cea970">
   <rect x="57.17" y="10.8" width="215.551328" height="179.826667"/>
  </clipPath>
  <clipPath id="p7edf82fc8f">
   <rect x="57.17" y="218.506667" width="215.551328" height="179.826667"/>
  </clipPath>
  <clipPath id="p53d4245329">
   <rect x="57.17" y="426.213333" width="215.551328" height="179.826667"/>
  </clipPath>
 </defs>
</svg>
