<?xml version="1.0" encoding="utf-8" standalone="no"?>
<!DOCTYPE svg PUBLIC "-//W3C//DTD SVG 1.1//EN"
  "http://www.w3.org/Graphics/SVG/1.1/DTD/svg11.dtd">
<svg xmlns:xlink="http://www.w3.org/1999/xlink" width="288pt" height="648pt" viewBox="0 0 288 648" xmlns="http://www.w3.org/2000/svg" version="1.1">
 <metadata>
  <rdf:RDF xmlns:dc="http://purl.org/dc/elements/1.1/" xmlns:cc="http://creativecommons.org/ns#" xmlns:rdf="http://www.w3.org/1999/02/22-rdf-syntax-ns#">
   <cc:Work>
    <dc:type rdf:resource="http://purl.org/dc/dcmitype/StillImage"/>
    <dc:date>2023-11-18T15:18:10.975526</dc:date>
    <dc:format>image/svg+xml</dc:format>
    <dc:creator>
     <cc:Agent>
      <dc:title>Matplotlib v3.8.0, https://matplotlib.org/</dc:title>
     </cc:Agent>
    </dc:creator>
   </cc:Work>
  </rdf:RDF>
 </metadata>
 <defs>
  <style type="text/css">*{stroke-linejoin: round; stroke-linecap: butt}</style>
 </defs>
 <g id="figure_1">
  <g id="patch_1">
   <path d="M 0 648 
L 288 648 
L 288 0 
L 0 0 
z
" style="fill: #ffffff"/>
  </g>
  <g id="axes_1">
   <g id="patch_2">
    <path d="M 57.17 190.626667 
L 272.721328 190.626667 
L 272.721328 10.8 
L 57.17 10.8 
z
" style="fill: #ffffff"/>
   </g>
   <g id="PolyCollection_1">
    <defs>
     <path id="m59056256e2" d="M 57.17 -457.373333 
L 57.17 -460.332666 
L 58.011997 -459.262269 
L 58.853995 -459.765985 
L 59.695992 -460.332666 
L 60.53799 -459.891914 
L 61.379987 -459.82895 
L 62.221984 -460.143772 
L 63.063982 -459.891914 
L 63.905979 -459.82895 
L 64.747976 -459.388198 
L 65.589974 -459.765985 
L 66.431971 -460.39563 
L 67.273969 -459.891914 
L 68.115966 -459.577092 
L 68.957963 -458.758553 
L 69.799961 -459.388198 
L 70.641958 -458.884482 
L 71.483955 -459.199304 
L 72.325953 -459.010411 
L 73.16795 -458.947446 
L 74.009948 -458.317801 
L 74.851945 -458.506695 
L 75.693942 -458.632624 
L 76.53594 -458.065943 
L 77.377937 -458.317801 
L 78.219934 -458.44373 
L 79.061932 -457.877049 
L 79.903929 -457.940014 
L 80.745927 -458.065943 
L 81.587924 -457.75112 
L 82.429921 -457.688156 
L 83.271919 -457.373333 
L 84.113916 -457.75112 
L 84.955913 -457.562227 
L 85.797911 -457.436298 
L 86.639908 -457.436298 
L 87.481906 -457.499262 
L 88.323903 -457.562227 
L 89.1659 -457.436298 
L 90.007898 -457.499262 
L 90.849895 -457.877049 
L 91.691892 -457.75112 
L 92.53389 -457.877049 
L 93.375887 -458.191872 
L 94.217885 -458.884482 
L 95.059882 -460.143772 
L 95.901879 -462.221601 
L 96.743877 -464.740182 
L 97.585874 -468.266195 
L 98.427871 -472.547782 
L 99.269869 -477.962731 
L 100.111866 -485.581438 
L 100.953864 -494.396471 
L 101.795861 -504.155971 
L 102.637858 -511.396891 
L 103.479856 -519.267456 
L 104.321853 -523.297185 
L 105.16385 -530.47514 
L 106.005848 -532.930756 
L 106.847845 -537.590131 
L 107.689843 -536.771592 
L 108.53184 -531.923324 
L 109.373837 -530.47514 
L 110.215835 -526.508375 
L 111.057832 -522.982362 
L 111.899829 -517.315556 
L 112.741827 -519.645243 
L 113.583824 -516.811839 
L 114.425822 -516.371088 
L 115.267819 -512.467288 
L 116.109816 -506.989374 
L 116.951814 -503.463361 
L 117.793811 -502.896681 
L 118.635808 -504.030042 
L 119.477806 -496.852087 
L 120.319803 -496.348371 
L 121.161801 -492.318641 
L 122.003798 -492.129748 
L 122.845795 -492.003819 
L 123.687793 -489.988954 
L 124.52979 -489.737096 
L 125.371787 -486.399977 
L 126.213785 -485.581438 
L 127.055782 -486.58887 
L 127.89778 -486.085154 
L 128.739777 -486.966657 
L 129.581774 -487.344444 
L 130.423772 -486.525906 
L 131.265769 -484.762899 
L 132.107766 -484.259183 
L 132.949764 -484.007325 
L 133.791761 -483.251751 
L 134.633759 -484.762899 
L 135.475756 -483.94436 
L 136.317753 -480.607241 
L 137.159751 -479.410915 
L 138.001748 -479.977596 
L 138.843745 -480.292418 
L 139.685743 -480.985028 
L 140.52774 -478.718305 
L 141.369738 -477.710873 
L 142.211735 -476.955299 
L 143.053732 -476.577512 
L 143.89573 -477.459015 
L 144.737727 -475.633044 
L 145.579724 -475.821937 
L 146.421722 -473.177428 
L 147.263719 -472.673711 
L 148.105717 -472.107031 
L 148.947714 -471.54035 
L 149.789711 -471.792208 
L 150.631709 -470.784776 
L 151.473706 -471.036634 
L 152.315703 -470.218095 
L 153.157701 -470.155131 
L 153.999698 -469.525486 
L 154.841696 -468.581018 
L 155.683693 -468.643982 
L 156.52569 -468.518053 
L 157.367688 -465.873543 
L 158.209685 -468.140266 
L 159.051682 -467.762479 
L 159.89368 -467.447656 
L 160.735677 -466.314295 
L 161.577675 -466.188366 
L 162.419672 -465.747614 
L 163.261669 -465.747614 
L 164.103667 -465.747614 
L 164.945664 -466.251331 
L 165.787661 -467.006905 
L 166.629659 -465.558721 
L 167.471656 -466.251331 
L 168.313654 -466.880976 
L 169.155651 -465.936508 
L 169.997648 -465.621685 
L 170.839646 -465.117969 
L 171.681643 -465.495756 
L 172.52364 -466.314295 
L 173.365638 -465.306863 
L 174.207635 -465.68465 
L 175.049633 -464.866111 
L 175.89163 -464.425359 
L 176.733627 -464.929076 
L 177.575625 -464.614253 
L 178.417622 -464.614253 
L 179.259619 -464.110537 
L 180.101617 -465.243898 
L 180.943614 -463.354963 
L 181.785612 -463.984608 
L 182.627609 -463.417927 
L 183.469606 -463.04014 
L 184.311604 -463.291998 
L 185.153601 -463.669785 
L 185.995598 -464.740182 
L 186.837596 -463.606821 
L 187.679593 -462.662353 
L 188.521591 -463.103105 
L 189.363588 -463.480892 
L 190.205585 -463.480892 
L 191.047583 -462.599388 
L 191.88958 -462.536424 
L 192.731577 -461.843814 
L 193.573575 -462.914211 
L 194.415572 -463.103105 
L 195.25757 -461.906779 
L 196.099567 -461.591956 
L 196.941564 -462.788282 
L 197.783562 -461.969743 
L 198.625559 -462.536424 
L 199.467556 -462.473459 
L 200.309554 -462.34753 
L 201.151551 -461.08824 
L 201.993549 -462.284566 
L 202.835546 -461.528992 
L 203.677543 -461.717885 
L 204.519541 -461.403063 
L 205.361538 -462.032708 
L 206.203535 -461.277134 
L 207.045533 -460.773417 
L 207.88753 -462.284566 
L 208.729528 -460.899346 
L 209.571525 -461.08824 
L 210.413522 -461.591956 
L 211.25552 -461.025275 
L 212.097517 -460.899346 
L 212.939514 -460.458595 
L 213.781512 -461.151204 
L 214.623509 -460.458595 
L 215.465507 -461.717885 
L 216.307504 -462.536424 
L 217.149501 -460.521559 
L 217.991499 -461.654921 
L 218.833496 -461.214169 
L 219.675493 -461.340098 
L 220.517491 -460.710453 
L 221.359488 -460.521559 
L 222.201486 -460.584524 
L 223.043483 -460.710453 
L 223.88548 -461.025275 
L 224.727478 -460.521559 
L 225.569475 -459.954879 
L 226.411472 -460.647488 
L 227.25347 -460.521559 
L 228.095467 -461.277134 
L 228.937465 -460.899346 
L 229.779462 -460.143772 
L 230.621459 -460.458595 
L 231.463457 -460.710453 
L 232.305454 -460.962311 
L 233.147451 -460.017843 
L 233.989449 -459.765985 
L 234.831446 -460.773417 
L 235.673444 -460.080808 
L 236.515441 -460.269701 
L 237.357438 -460.647488 
L 238.199436 -460.39563 
L 239.041433 -459.388198 
L 239.88343 -460.962311 
L 240.725428 -460.206737 
L 241.567425 -459.765985 
L 242.409423 -460.080808 
L 243.25142 -461.466027 
L 244.093417 -459.703021 
L 244.935415 -460.332666 
L 245.777412 -459.765985 
L 246.619409 -459.514127 
L 247.461407 -460.332666 
L 248.303404 -460.521559 
L 249.145402 -459.954879 
L 249.987399 -460.647488 
L 250.829396 -459.325233 
L 251.671394 -459.514127 
L 252.513391 -459.703021 
L 253.355388 -459.199304 
L 254.197386 -460.017843 
L 255.039383 -460.080808 
L 255.881381 -459.640056 
L 256.723378 -460.206737 
L 257.565375 -460.017843 
L 258.407373 -460.080808 
L 259.24937 -459.388198 
L 260.091367 -459.388198 
L 260.933365 -459.262269 
L 261.775362 -459.13634 
L 262.61736 -460.017843 
L 263.459357 -460.017843 
L 264.301354 -460.458595 
L 265.143352 -459.954879 
L 265.985349 -459.765985 
L 266.827346 -459.82895 
L 267.669344 -460.269701 
L 268.511341 -459.82895 
L 269.353339 -460.017843 
L 270.195336 -460.206737 
L 271.037333 -460.017843 
L 271.879331 -460.080808 
L 271.879331 -457.373333 
L 271.879331 -457.373333 
L 271.037333 -457.373333 
L 270.195336 -457.373333 
L 269.353339 -457.373333 
L 268.511341 -457.373333 
L 267.669344 -457.373333 
L 266.827346 -457.373333 
L 265.985349 -457.373333 
L 265.143352 -457.373333 
L 264.301354 -457.373333 
L 263.459357 -457.373333 
L 262.61736 -457.373333 
L 261.775362 -457.373333 
L 260.933365 -457.373333 
L 260.091367 -457.373333 
L 259.24937 -457.373333 
L 258.407373 -457.373333 
L 257.565375 -457.373333 
L 256.723378 -457.373333 
L 255.881381 -457.373333 
L 255.039383 -457.373333 
L 254.197386 -457.373333 
L 253.355388 -457.373333 
L 252.513391 -457.373333 
L 251.671394 -457.373333 
L 250.829396 -457.373333 
L 249.987399 -457.373333 
L 249.145402 -457.373333 
L 248.303404 -457.373333 
L 247.461407 -457.373333 
L 246.619409 -457.373333 
L 245.777412 -457.373333 
L 244.935415 -457.373333 
L 244.093417 -457.373333 
L 243.25142 -457.373333 
L 242.409423 -457.373333 
L 241.567425 -457.373333 
L 240.725428 -457.373333 
L 239.88343 -457.373333 
L 239.041433 -457.373333 
L 238.199436 -457.373333 
L 237.357438 -457.373333 
L 236.515441 -457.373333 
L 235.673444 -457.373333 
L 234.831446 -457.373333 
L 233.989449 -457.373333 
L 233.147451 -457.373333 
L 232.305454 -457.373333 
L 231.463457 -457.373333 
L 230.621459 -457.373333 
L 229.779462 -457.373333 
L 228.937465 -457.373333 
L 228.095467 -457.373333 
L 227.25347 -457.373333 
L 226.411472 -457.373333 
L 225.569475 -457.373333 
L 224.727478 -457.373333 
L 223.88548 -457.373333 
L 223.043483 -457.373333 
L 222.201486 -457.373333 
L 221.359488 -457.373333 
L 220.517491 -457.373333 
L 219.675493 -457.373333 
L 218.833496 -457.373333 
L 217.991499 -457.373333 
L 217.149501 -457.373333 
L 216.307504 -457.373333 
L 215.465507 -457.373333 
L 214.623509 -457.373333 
L 213.781512 -457.373333 
L 212.939514 -457.373333 
L 212.097517 -457.373333 
L 211.25552 -457.373333 
L 210.413522 -457.373333 
L 209.571525 -457.373333 
L 208.729528 -457.373333 
L 207.88753 -457.373333 
L 207.045533 -457.373333 
L 206.203535 -457.373333 
L 205.361538 -457.373333 
L 204.519541 -457.373333 
L 203.677543 -457.373333 
L 202.835546 -457.373333 
L 201.993549 -457.373333 
L 201.151551 -457.373333 
L 200.309554 -457.373333 
L 199.467556 -457.373333 
L 198.625559 -457.373333 
L 197.783562 -457.373333 
L 196.941564 -457.373333 
L 196.099567 -457.373333 
L 195.25757 -457.373333 
L 194.415572 -457.373333 
L 193.573575 -457.373333 
L 192.731577 -457.373333 
L 191.88958 -457.373333 
L 191.047583 -457.373333 
L 190.205585 -457.373333 
L 189.363588 -457.373333 
L 188.521591 -457.373333 
L 187.679593 -457.373333 
L 186.837596 -457.373333 
L 185.995598 -457.373333 
L 185.153601 -457.373333 
L 184.311604 -457.373333 
L 183.469606 -457.373333 
L 182.627609 -457.373333 
L 181.785612 -457.373333 
L 180.943614 -457.373333 
L 180.101617 -457.373333 
L 179.259619 -457.373333 
L 178.417622 -457.373333 
L 177.575625 -457.373333 
L 176.733627 -457.373333 
L 175.89163 -457.373333 
L 175.049633 -457.373333 
L 174.207635 -457.373333 
L 173.365638 -457.373333 
L 172.52364 -457.373333 
L 171.681643 -457.373333 
L 170.839646 -457.373333 
L 169.997648 -457.373333 
L 169.155651 -457.373333 
L 168.313654 -457.373333 
L 167.471656 -457.373333 
L 166.629659 -457.373333 
L 165.787661 -457.373333 
L 164.945664 -457.373333 
L 164.103667 -457.373333 
L 163.261669 -457.373333 
L 162.419672 -457.373333 
L 161.577675 -457.373333 
L 160.735677 -457.373333 
L 159.89368 -457.373333 
L 159.051682 -457.373333 
L 158.209685 -457.373333 
L 157.367688 -457.373333 
L 156.52569 -457.373333 
L 155.683693 -457.373333 
L 154.841696 -457.373333 
L 153.999698 -457.373333 
L 153.157701 -457.373333 
L 152.315703 -457.373333 
L 151.473706 -457.373333 
L 150.631709 -457.373333 
L 149.789711 -457.373333 
L 148.947714 -457.373333 
L 148.105717 -457.373333 
L 147.263719 -457.373333 
L 146.421722 -457.373333 
L 145.579724 -457.373333 
L 144.737727 -457.373333 
L 143.89573 -457.373333 
L 143.053732 -457.373333 
L 142.211735 -457.373333 
L 141.369738 -457.373333 
L 140.52774 -457.373333 
L 139.685743 -457.373333 
L 138.843745 -457.373333 
L 138.001748 -457.373333 
L 137.159751 -457.373333 
L 136.317753 -457.373333 
L 135.475756 -457.373333 
L 134.633759 -457.373333 
L 133.791761 -457.373333 
L 132.949764 -457.373333 
L 132.107766 -457.373333 
L 131.265769 -457.373333 
L 130.423772 -457.373333 
L 129.581774 -457.373333 
L 128.739777 -457.373333 
L 127.89778 -457.373333 
L 127.055782 -457.373333 
L 126.213785 -457.373333 
L 125.371787 -457.373333 
L 124.52979 -457.373333 
L 123.687793 -457.373333 
L 122.845795 -457.373333 
L 122.003798 -457.373333 
L 121.161801 -457.373333 
L 120.319803 -457.373333 
L 119.477806 -457.373333 
L 118.635808 -457.373333 
L 117.793811 -457.373333 
L 116.951814 -457.373333 
L 116.109816 -457.373333 
L 115.267819 -457.373333 
L 114.425822 -457.373333 
L 113.583824 -457.373333 
L 112.741827 -457.373333 
L 111.899829 -457.373333 
L 111.057832 -457.373333 
L 110.215835 -457.373333 
L 109.373837 -457.373333 
L 108.53184 -457.373333 
L 107.689843 -457.373333 
L 106.847845 -457.373333 
L 106.005848 -457.373333 
L 105.16385 -457.373333 
L 104.321853 -457.373333 
L 103.479856 -457.373333 
L 102.637858 -457.373333 
L 101.795861 -457.373333 
L 100.953864 -457.373333 
L 100.111866 -457.373333 
L 99.269869 -457.373333 
L 98.427871 -457.373333 
L 97.585874 -457.373333 
L 96.743877 -457.373333 
L 95.901879 -457.373333 
L 95.059882 -457.373333 
L 94.217885 -457.373333 
L 93.375887 -457.373333 
L 92.53389 -457.373333 
L 91.691892 -457.373333 
L 90.849895 -457.373333 
L 90.007898 -457.373333 
L 89.1659 -457.373333 
L 88.323903 -457.373333 
L 87.481906 -457.373333 
L 86.639908 -457.373333 
L 85.797911 -457.373333 
L 84.955913 -457.373333 
L 84.113916 -457.373333 
L 83.271919 -457.373333 
L 82.429921 -457.373333 
L 81.587924 -457.373333 
L 80.745927 -457.373333 
L 79.903929 -457.373333 
L 79.061932 -457.373333 
L 78.219934 -457.373333 
L 77.377937 -457.373333 
L 76.53594 -457.373333 
L 75.693942 -457.373333 
L 74.851945 -457.373333 
L 74.009948 -457.373333 
L 73.16795 -457.373333 
L 72.325953 -457.373333 
L 71.483955 -457.373333 
L 70.641958 -457.373333 
L 69.799961 -457.373333 
L 68.957963 -457.373333 
L 68.115966 -457.373333 
L 67.273969 -457.373333 
L 66.431971 -457.373333 
L 65.589974 -457.373333 
L 64.747976 -457.373333 
L 63.905979 -457.373333 
L 63.063982 -457.373333 
L 62.221984 -457.373333 
L 61.379987 -457.373333 
L 60.53799 -457.373333 
L 59.695992 -457.373333 
L 58.853995 -457.373333 
L 58.011997 -457.373333 
L 57.17 -457.373333 
z
" style="stroke: #ff0000; stroke-opacity: 0.4"/>
    </defs>
    <g clip-path="url(#pb019c0d146)">
     <use xlink:href="#m59056256e2" x="0" y="648" style="fill: #ff0000; fill-opacity: 0.4; stroke: #ff0000; stroke-opacity: 0.4"/>
    </g>
   </g>
   <g id="matplotlib.axis_1">
    <g id="xtick_1">
     <g id="line2d_1">
      <defs>
       <path id="m55948dc613" d="M 0 0 
L 0 3.5 
" style="stroke: #000000; stroke-width: 0.8"/>
      </defs>
      <g>
       <use xlink:href="#m55948dc613" x="57.17" y="190.626667" style="stroke: #000000; stroke-width: 0.8"/>
      </g>
     </g>
     <g id="text_1">
      <!-- 0 -->
      <g transform="translate(53.98875 205.225104) scale(0.1 -0.1)">
       <defs>
        <path id="DejaVuSans-30" d="M 2034 4250 
Q 1547 4250 1301 3770 
Q 1056 3291 1056 2328 
Q 1056 1369 1301 889 
Q 1547 409 2034 409 
Q 2525 409 2770 889 
Q 3016 1369 3016 2328 
Q 3016 3291 2770 3770 
Q 2525 4250 2034 4250 
z
M 2034 4750 
Q 2819 4750 3233 4129 
Q 3647 3509 3647 2328 
Q 3647 1150 3233 529 
Q 2819 -91 2034 -91 
Q 1250 -91 836 529 
Q 422 1150 422 2328 
Q 422 3509 836 4129 
Q 1250 4750 2034 4750 
z
" transform="scale(0.015625)"/>
       </defs>
       <use xlink:href="#DejaVuSans-30"/>
      </g>
     </g>
    </g>
    <g id="xtick_2">
     <g id="line2d_2">
      <g>
       <use xlink:href="#m55948dc613" x="99.269869" y="190.626667" style="stroke: #000000; stroke-width: 0.8"/>
      </g>
     </g>
     <g id="text_2">
      <!-- 50 -->
      <g transform="translate(92.907369 205.225104) scale(0.1 -0.1)">
       <defs>
        <path id="DejaVuSans-35" d="M 691 4666 
L 3169 4666 
L 3169 4134 
L 1269 4134 
L 1269 2991 
Q 1406 3038 1543 3061 
Q 1681 3084 1819 3084 
Q 2600 3084 3056 2656 
Q 3513 2228 3513 1497 
Q 3513 744 3044 326 
Q 2575 -91 1722 -91 
Q 1428 -91 1123 -41 
Q 819 9 494 109 
L 494 744 
Q 775 591 1075 516 
Q 1375 441 1709 441 
Q 2250 441 2565 725 
Q 2881 1009 2881 1497 
Q 2881 1984 2565 2268 
Q 2250 2553 1709 2553 
Q 1456 2553 1204 2497 
Q 953 2441 691 2322 
L 691 4666 
z
" transform="scale(0.015625)"/>
       </defs>
       <use xlink:href="#DejaVuSans-35"/>
       <use xlink:href="#DejaVuSans-30" x="63.623047"/>
      </g>
     </g>
    </g>
    <g id="xtick_3">
     <g id="line2d_3">
      <g>
       <use xlink:href="#m55948dc613" x="141.369738" y="190.626667" style="stroke: #000000; stroke-width: 0.8"/>
      </g>
     </g>
     <g id="text_3">
      <!-- 100 -->
      <g transform="translate(131.825988 205.225104) scale(0.1 -0.1)">
       <defs>
        <path id="DejaVuSans-31" d="M 794 531 
L 1825 531 
L 1825 4091 
L 703 3866 
L 703 4441 
L 1819 4666 
L 2450 4666 
L 2450 531 
L 3481 531 
L 3481 0 
L 794 0 
L 794 531 
z
" transform="scale(0.015625)"/>
       </defs>
       <use xlink:href="#DejaVuSans-31"/>
       <use xlink:href="#DejaVuSans-30" x="63.623047"/>
       <use xlink:href="#DejaVuSans-30" x="127.246094"/>
      </g>
     </g>
    </g>
    <g id="xtick_4">
     <g id="line2d_4">
      <g>
       <use xlink:href="#m55948dc613" x="183.469606" y="190.626667" style="stroke: #000000; stroke-width: 0.8"/>
      </g>
     </g>
     <g id="text_4">
      <!-- 150 -->
      <g transform="translate(173.925856 205.225104) scale(0.1 -0.1)">
       <use xlink:href="#DejaVuSans-31"/>
       <use xlink:href="#DejaVuSans-35" x="63.623047"/>
       <use xlink:href="#DejaVuSans-30" x="127.246094"/>
      </g>
     </g>
    </g>
    <g id="xtick_5">
     <g id="line2d_5">
      <g>
       <use xlink:href="#m55948dc613" x="225.569475" y="190.626667" style="stroke: #000000; stroke-width: 0.8"/>
      </g>
     </g>
     <g id="text_5">
      <!-- 200 -->
      <g transform="translate(216.025725 205.225104) scale(0.1 -0.1)">
       <defs>
        <path id="DejaVuSans-32" d="M 1228 531 
L 3431 531 
L 3431 0 
L 469 0 
L 469 531 
Q 828 903 1448 1529 
Q 2069 2156 2228 2338 
Q 2531 2678 2651 2914 
Q 2772 3150 2772 3378 
Q 2772 3750 2511 3984 
Q 2250 4219 1831 4219 
Q 1534 4219 1204 4116 
Q 875 4013 500 3803 
L 500 4441 
Q 881 4594 1212 4672 
Q 1544 4750 1819 4750 
Q 2544 4750 2975 4387 
Q 3406 4025 3406 3419 
Q 3406 3131 3298 2873 
Q 3191 2616 2906 2266 
Q 2828 2175 2409 1742 
Q 1991 1309 1228 531 
z
" transform="scale(0.015625)"/>
       </defs>
       <use xlink:href="#DejaVuSans-32"/>
       <use xlink:href="#DejaVuSans-30" x="63.623047"/>
       <use xlink:href="#DejaVuSans-30" x="127.246094"/>
      </g>
     </g>
    </g>
    <g id="xtick_6">
     <g id="line2d_6">
      <g>
       <use xlink:href="#m55948dc613" x="267.669344" y="190.626667" style="stroke: #000000; stroke-width: 0.8"/>
      </g>
     </g>
     <g id="text_6">
      <!-- 250 -->
      <g transform="translate(258.125594 205.225104) scale(0.1 -0.1)">
       <use xlink:href="#DejaVuSans-32"/>
       <use xlink:href="#DejaVuSans-35" x="63.623047"/>
       <use xlink:href="#DejaVuSans-30" x="127.246094"/>
      </g>
     </g>
    </g>
   </g>
   <g id="matplotlib.axis_2">
    <g id="ytick_1">
     <g id="line2d_7">
      <defs>
       <path id="mc54d52e68d" d="M 0 0 
L -3.5 0 
" style="stroke: #000000; stroke-width: 0.8"/>
      </defs>
      <g>
       <use xlink:href="#mc54d52e68d" x="57.17" y="190.626667" style="stroke: #000000; stroke-width: 0.8"/>
      </g>
     </g>
     <g id="text_7">
      <!-- 0 -->
      <g transform="translate(43.8075 194.425885) scale(0.1 -0.1)">
       <use xlink:href="#DejaVuSans-30"/>
      </g>
     </g>
    </g>
    <g id="ytick_2">
     <g id="line2d_8">
      <g>
       <use xlink:href="#mc54d52e68d" x="57.17" y="159.144407" style="stroke: #000000; stroke-width: 0.8"/>
      </g>
     </g>
     <g id="text_8">
      <!-- 500 -->
      <g transform="translate(31.0825 162.943626) scale(0.1 -0.1)">
       <use xlink:href="#DejaVuSans-35"/>
       <use xlink:href="#DejaVuSans-30" x="63.623047"/>
       <use xlink:href="#DejaVuSans-30" x="127.246094"/>
      </g>
     </g>
    </g>
    <g id="ytick_3">
     <g id="line2d_9">
      <g>
       <use xlink:href="#mc54d52e68d" x="57.17" y="127.662148" style="stroke: #000000; stroke-width: 0.8"/>
      </g>
     </g>
     <g id="text_9">
      <!-- 1000 -->
      <g transform="translate(24.72 131.461366) scale(0.1 -0.1)">
       <use xlink:href="#DejaVuSans-31"/>
       <use xlink:href="#DejaVuSans-30" x="63.623047"/>
       <use xlink:href="#DejaVuSans-30" x="127.246094"/>
       <use xlink:href="#DejaVuSans-30" x="190.869141"/>
      </g>
     </g>
    </g>
    <g id="ytick_4">
     <g id="line2d_10">
      <g>
       <use xlink:href="#mc54d52e68d" x="57.17" y="96.179888" style="stroke: #000000; stroke-width: 0.8"/>
      </g>
     </g>
     <g id="text_10">
      <!-- 1500 -->
      <g transform="translate(24.72 99.979107) scale(0.1 -0.1)">
       <use xlink:href="#DejaVuSans-31"/>
       <use xlink:href="#DejaVuSans-35" x="63.623047"/>
       <use xlink:href="#DejaVuSans-30" x="127.246094"/>
       <use xlink:href="#DejaVuSans-30" x="190.869141"/>
      </g>
     </g>
    </g>
    <g id="ytick_5">
     <g id="line2d_11">
      <g>
       <use xlink:href="#mc54d52e68d" x="57.17" y="64.697628" style="stroke: #000000; stroke-width: 0.8"/>
      </g>
     </g>
     <g id="text_11">
      <!-- 2000 -->
      <g transform="translate(24.72 68.496847) scale(0.1 -0.1)">
       <use xlink:href="#DejaVuSans-32"/>
       <use xlink:href="#DejaVuSans-30" x="63.623047"/>
       <use xlink:href="#DejaVuSans-30" x="127.246094"/>
       <use xlink:href="#DejaVuSans-30" x="190.869141"/>
      </g>
     </g>
    </g>
    <g id="ytick_6">
     <g id="line2d_12">
      <g>
       <use xlink:href="#mc54d52e68d" x="57.17" y="33.215369" style="stroke: #000000; stroke-width: 0.8"/>
      </g>
     </g>
     <g id="text_12">
      <!-- 2500 -->
      <g transform="translate(24.72 37.014588) scale(0.1 -0.1)">
       <use xlink:href="#DejaVuSans-32"/>
       <use xlink:href="#DejaVuSans-35" x="63.623047"/>
       <use xlink:href="#DejaVuSans-30" x="127.246094"/>
       <use xlink:href="#DejaVuSans-30" x="190.869141"/>
      </g>
     </g>
    </g>
    <g id="text_13">
     <!-- Pixel Frequency -->
     <g transform="translate(18.640313 139.69224) rotate(-90) scale(0.1 -0.1)">
      <defs>
       <path id="DejaVuSans-50" d="M 1259 4147 
L 1259 2394 
L 2053 2394 
Q 2494 2394 2734 2622 
Q 2975 2850 2975 3272 
Q 2975 3691 2734 3919 
Q 2494 4147 2053 4147 
L 1259 4147 
z
M 628 4666 
L 2053 4666 
Q 2838 4666 3239 4311 
Q 3641 3956 3641 3272 
Q 3641 2581 3239 2228 
Q 2838 1875 2053 1875 
L 1259 1875 
L 1259 0 
L 628 0 
L 628 4666 
z
" transform="scale(0.015625)"/>
       <path id="DejaVuSans-69" d="M 603 3500 
L 1178 3500 
L 1178 0 
L 603 0 
L 603 3500 
z
M 603 4863 
L 1178 4863 
L 1178 4134 
L 603 4134 
L 603 4863 
z
" transform="scale(0.015625)"/>
       <path id="DejaVuSans-78" d="M 3513 3500 
L 2247 1797 
L 3578 0 
L 2900 0 
L 1881 1375 
L 863 0 
L 184 0 
L 1544 1831 
L 300 3500 
L 978 3500 
L 1906 2253 
L 2834 3500 
L 3513 3500 
z
" transform="scale(0.015625)"/>
       <path id="DejaVuSans-65" d="M 3597 1894 
L 3597 1613 
L 953 1613 
Q 991 1019 1311 708 
Q 1631 397 2203 397 
Q 2534 397 2845 478 
Q 3156 559 3463 722 
L 3463 178 
Q 3153 47 2828 -22 
Q 2503 -91 2169 -91 
Q 1331 -91 842 396 
Q 353 884 353 1716 
Q 353 2575 817 3079 
Q 1281 3584 2069 3584 
Q 2775 3584 3186 3129 
Q 3597 2675 3597 1894 
z
M 3022 2063 
Q 3016 2534 2758 2815 
Q 2500 3097 2075 3097 
Q 1594 3097 1305 2825 
Q 1016 2553 972 2059 
L 3022 2063 
z
" transform="scale(0.015625)"/>
       <path id="DejaVuSans-6c" d="M 603 4863 
L 1178 4863 
L 1178 0 
L 603 0 
L 603 4863 
z
" transform="scale(0.015625)"/>
       <path id="DejaVuSans-20" transform="scale(0.015625)"/>
       <path id="DejaVuSans-46" d="M 628 4666 
L 3309 4666 
L 3309 4134 
L 1259 4134 
L 1259 2759 
L 3109 2759 
L 3109 2228 
L 1259 2228 
L 1259 0 
L 628 0 
L 628 4666 
z
" transform="scale(0.015625)"/>
       <path id="DejaVuSans-72" d="M 2631 2963 
Q 2534 3019 2420 3045 
Q 2306 3072 2169 3072 
Q 1681 3072 1420 2755 
Q 1159 2438 1159 1844 
L 1159 0 
L 581 0 
L 581 3500 
L 1159 3500 
L 1159 2956 
Q 1341 3275 1631 3429 
Q 1922 3584 2338 3584 
Q 2397 3584 2469 3576 
Q 2541 3569 2628 3553 
L 2631 2963 
z
" transform="scale(0.015625)"/>
       <path id="DejaVuSans-71" d="M 947 1747 
Q 947 1113 1208 752 
Q 1469 391 1925 391 
Q 2381 391 2643 752 
Q 2906 1113 2906 1747 
Q 2906 2381 2643 2742 
Q 2381 3103 1925 3103 
Q 1469 3103 1208 2742 
Q 947 2381 947 1747 
z
M 2906 525 
Q 2725 213 2448 61 
Q 2172 -91 1784 -91 
Q 1150 -91 751 415 
Q 353 922 353 1747 
Q 353 2572 751 3078 
Q 1150 3584 1784 3584 
Q 2172 3584 2448 3432 
Q 2725 3281 2906 2969 
L 2906 3500 
L 3481 3500 
L 3481 -1331 
L 2906 -1331 
L 2906 525 
z
" transform="scale(0.015625)"/>
       <path id="DejaVuSans-75" d="M 544 1381 
L 544 3500 
L 1119 3500 
L 1119 1403 
Q 1119 906 1312 657 
Q 1506 409 1894 409 
Q 2359 409 2629 706 
Q 2900 1003 2900 1516 
L 2900 3500 
L 3475 3500 
L 3475 0 
L 2900 0 
L 2900 538 
Q 2691 219 2414 64 
Q 2138 -91 1772 -91 
Q 1169 -91 856 284 
Q 544 659 544 1381 
z
M 1991 3584 
L 1991 3584 
z
" transform="scale(0.015625)"/>
       <path id="DejaVuSans-6e" d="M 3513 2113 
L 3513 0 
L 2938 0 
L 2938 2094 
Q 2938 2591 2744 2837 
Q 2550 3084 2163 3084 
Q 1697 3084 1428 2787 
Q 1159 2491 1159 1978 
L 1159 0 
L 581 0 
L 581 3500 
L 1159 3500 
L 1159 2956 
Q 1366 3272 1645 3428 
Q 1925 3584 2291 3584 
Q 2894 3584 3203 3211 
Q 3513 2838 3513 2113 
z
" transform="scale(0.015625)"/>
       <path id="DejaVuSans-63" d="M 3122 3366 
L 3122 2828 
Q 2878 2963 2633 3030 
Q 2388 3097 2138 3097 
Q 1578 3097 1268 2742 
Q 959 2388 959 1747 
Q 959 1106 1268 751 
Q 1578 397 2138 397 
Q 2388 397 2633 464 
Q 2878 531 3122 666 
L 3122 134 
Q 2881 22 2623 -34 
Q 2366 -91 2075 -91 
Q 1284 -91 818 406 
Q 353 903 353 1747 
Q 353 2603 823 3093 
Q 1294 3584 2113 3584 
Q 2378 3584 2631 3529 
Q 2884 3475 3122 3366 
z
" transform="scale(0.015625)"/>
       <path id="DejaVuSans-79" d="M 2059 -325 
Q 1816 -950 1584 -1140 
Q 1353 -1331 966 -1331 
L 506 -1331 
L 506 -850 
L 844 -850 
Q 1081 -850 1212 -737 
Q 1344 -625 1503 -206 
L 1606 56 
L 191 3500 
L 800 3500 
L 1894 763 
L 2988 3500 
L 3597 3500 
L 2059 -325 
z
" transform="scale(0.015625)"/>
      </defs>
      <use xlink:href="#DejaVuSans-50"/>
      <use xlink:href="#DejaVuSans-69" x="58.052734"/>
      <use xlink:href="#DejaVuSans-78" x="85.835938"/>
      <use xlink:href="#DejaVuSans-65" x="141.890625"/>
      <use xlink:href="#DejaVuSans-6c" x="203.414062"/>
      <use xlink:href="#DejaVuSans-20" x="231.197266"/>
      <use xlink:href="#DejaVuSans-46" x="262.984375"/>
      <use xlink:href="#DejaVuSans-72" x="313.253906"/>
      <use xlink:href="#DejaVuSans-65" x="352.117188"/>
      <use xlink:href="#DejaVuSans-71" x="413.640625"/>
      <use xlink:href="#DejaVuSans-75" x="477.117188"/>
      <use xlink:href="#DejaVuSans-65" x="540.496094"/>
      <use xlink:href="#DejaVuSans-6e" x="602.019531"/>
      <use xlink:href="#DejaVuSans-63" x="665.398438"/>
      <use xlink:href="#DejaVuSans-79" x="720.378906"/>
     </g>
    </g>
   </g>
   <g id="line2d_13">
    <path d="M 57.17 187.667334 
L 58.011997 188.737731 
L 59.695992 187.667334 
L 60.53799 188.108086 
L 61.379987 188.17105 
L 62.221984 187.856228 
L 63.063982 188.108086 
L 63.905979 188.17105 
L 64.747976 188.611802 
L 65.589974 188.234015 
L 66.431971 187.60437 
L 67.273969 188.108086 
L 68.115966 188.422908 
L 68.957963 189.241447 
L 69.799961 188.611802 
L 70.641958 189.115518 
L 71.483955 188.800696 
L 72.325953 188.989589 
L 73.16795 189.052554 
L 74.009948 189.682199 
L 75.693942 189.367376 
L 76.53594 189.934057 
L 77.377937 189.682199 
L 78.219934 189.55627 
L 79.061932 190.122951 
L 80.745927 189.934057 
L 81.587924 190.24888 
L 82.429921 190.311844 
L 83.271919 190.626667 
L 84.113916 190.24888 
L 85.797911 190.563702 
L 87.481906 190.500738 
L 88.323903 190.437773 
L 89.1659 190.563702 
L 90.007898 190.500738 
L 90.849895 190.122951 
L 91.691892 190.24888 
L 92.53389 190.122951 
L 93.375887 189.808128 
L 94.217885 189.115518 
L 95.059882 187.856228 
L 95.901879 185.778399 
L 96.743877 183.259818 
L 97.585874 179.733805 
L 98.427871 175.452218 
L 99.269869 170.037269 
L 100.111866 162.418562 
L 102.637858 136.603109 
L 103.479856 128.732544 
L 104.321853 124.702815 
L 105.16385 117.52486 
L 106.005848 115.069244 
L 106.847845 110.409869 
L 107.689843 111.228408 
L 108.53184 116.076676 
L 109.373837 117.52486 
L 111.057832 125.017638 
L 111.899829 130.684444 
L 112.741827 128.354757 
L 113.583824 131.188161 
L 114.425822 131.628912 
L 115.267819 135.532712 
L 116.109816 141.010626 
L 116.951814 144.536639 
L 117.793811 145.103319 
L 118.635808 143.969958 
L 119.477806 151.147913 
L 120.319803 151.651629 
L 121.161801 155.681359 
L 122.845795 155.996181 
L 123.687793 158.011046 
L 124.52979 158.262904 
L 125.371787 161.600023 
L 126.213785 162.418562 
L 127.055782 161.41113 
L 127.89778 161.914846 
L 128.739777 161.033343 
L 129.581774 160.655556 
L 130.423772 161.474094 
L 131.265769 163.237101 
L 132.107766 163.740817 
L 132.949764 163.992675 
L 133.791761 164.748249 
L 134.633759 163.237101 
L 135.475756 164.05564 
L 136.317753 167.392759 
L 137.159751 168.589085 
L 138.001748 168.022404 
L 138.843745 167.707582 
L 139.685743 167.014972 
L 140.52774 169.281695 
L 141.369738 170.289127 
L 142.211735 171.044701 
L 143.053732 171.422488 
L 143.89573 170.540985 
L 144.737727 172.366956 
L 145.579724 172.178063 
L 146.421722 174.822572 
L 148.947714 176.45965 
L 149.789711 176.207792 
L 150.631709 177.215224 
L 151.473706 176.963366 
L 152.315703 177.781905 
L 153.157701 177.844869 
L 153.999698 178.474514 
L 154.841696 179.418982 
L 155.683693 179.356018 
L 156.52569 179.481947 
L 157.367688 182.126457 
L 158.209685 179.859734 
L 159.89368 180.552344 
L 160.735677 181.685705 
L 161.577675 181.811634 
L 162.419672 182.252386 
L 164.103667 182.252386 
L 164.945664 181.748669 
L 165.787661 180.993095 
L 166.629659 182.441279 
L 168.313654 181.119024 
L 169.155651 182.063492 
L 169.997648 182.378315 
L 170.839646 182.882031 
L 171.681643 182.504244 
L 172.52364 181.685705 
L 173.365638 182.693137 
L 174.207635 182.31535 
L 175.049633 183.133889 
L 175.89163 183.574641 
L 176.733627 183.070924 
L 177.575625 183.385747 
L 178.417622 183.385747 
L 179.259619 183.889463 
L 180.101617 182.756102 
L 180.943614 184.645037 
L 181.785612 184.015392 
L 182.627609 184.582073 
L 183.469606 184.95986 
L 184.311604 184.708002 
L 185.153601 184.330215 
L 185.995598 183.259818 
L 186.837596 184.393179 
L 187.679593 185.337647 
L 189.363588 184.519108 
L 190.205585 184.519108 
L 191.047583 185.400612 
L 191.88958 185.463576 
L 192.731577 186.156186 
L 193.573575 185.085789 
L 194.415572 184.896895 
L 195.25757 186.093221 
L 196.099567 186.408044 
L 196.941564 185.211718 
L 197.783562 186.030257 
L 198.625559 185.463576 
L 200.309554 185.65247 
L 201.151551 186.91176 
L 201.993549 185.715434 
L 202.835546 186.471008 
L 203.677543 186.282115 
L 204.519541 186.596937 
L 205.361538 185.967292 
L 206.203535 186.722866 
L 207.045533 187.226583 
L 207.88753 185.715434 
L 208.729528 187.100654 
L 209.571525 186.91176 
L 210.413522 186.408044 
L 211.25552 186.974725 
L 212.097517 187.100654 
L 212.939514 187.541405 
L 213.781512 186.848796 
L 214.623509 187.541405 
L 215.465507 186.282115 
L 216.307504 185.463576 
L 217.149501 187.478441 
L 217.991499 186.345079 
L 218.833496 186.785831 
L 219.675493 186.659902 
L 220.517491 187.289547 
L 221.359488 187.478441 
L 223.043483 187.289547 
L 223.88548 186.974725 
L 225.569475 188.045121 
L 226.411472 187.352512 
L 227.25347 187.478441 
L 228.095467 186.722866 
L 228.937465 187.100654 
L 229.779462 187.856228 
L 231.463457 187.289547 
L 232.305454 187.037689 
L 233.147451 187.982157 
L 233.989449 188.234015 
L 234.831446 187.226583 
L 235.673444 187.919192 
L 236.515441 187.730299 
L 237.357438 187.352512 
L 238.199436 187.60437 
L 239.041433 188.611802 
L 239.88343 187.037689 
L 240.725428 187.793263 
L 241.567425 188.234015 
L 242.409423 187.919192 
L 243.25142 186.533973 
L 244.093417 188.296979 
L 244.935415 187.667334 
L 245.777412 188.234015 
L 246.619409 188.485873 
L 247.461407 187.667334 
L 248.303404 187.478441 
L 249.145402 188.045121 
L 249.987399 187.352512 
L 250.829396 188.674767 
L 252.513391 188.296979 
L 253.355388 188.800696 
L 254.197386 187.982157 
L 255.039383 187.919192 
L 255.881381 188.359944 
L 256.723378 187.793263 
L 257.565375 187.982157 
L 258.407373 187.919192 
L 259.24937 188.611802 
L 260.091367 188.611802 
L 261.775362 188.86366 
L 262.61736 187.982157 
L 263.459357 187.982157 
L 264.301354 187.541405 
L 265.143352 188.045121 
L 265.985349 188.234015 
L 266.827346 188.17105 
L 267.669344 187.730299 
L 268.511341 188.17105 
L 270.195336 187.793263 
L 271.037333 187.982157 
L 271.879331 187.919192 
L 271.879331 187.919192 
" clip-path="url(#pb019c0d146)" style="fill: none; stroke: #ff0000; stroke-width: 1.5; stroke-linecap: square"/>
   </g>
   <g id="patch_3">
    <path d="M 57.17 190.626667 
L 57.17 10.8 
" style="fill: none; stroke: #000000; stroke-width: 0.8; stroke-linejoin: miter; stroke-linecap: square"/>
   </g>
   <g id="patch_4">
    <path d="M 272.721328 190.626667 
L 272.721328 10.8 
" style="fill: none; stroke: #000000; stroke-width: 0.8; stroke-linejoin: miter; stroke-linecap: square"/>
   </g>
   <g id="patch_5">
    <path d="M 57.17 190.626667 
L 272.721328 190.626667 
" style="fill: none; stroke: #000000; stroke-width: 0.8; stroke-linejoin: miter; stroke-linecap: square"/>
   </g>
   <g id="patch_6">
    <path d="M 57.17 10.8 
L 272.721328 10.8 
" style="fill: none; stroke: #000000; stroke-width: 0.8; stroke-linejoin: miter; stroke-linecap: square"/>
   </g>
   <g id="text_14">
    <!-- Red Channel  -->
    <g transform="translate(193.028203 24.8) scale(0.12 -0.12)">
     <defs>
      <path id="DejaVuSans-52" d="M 2841 2188 
Q 3044 2119 3236 1894 
Q 3428 1669 3622 1275 
L 4263 0 
L 3584 0 
L 2988 1197 
Q 2756 1666 2539 1819 
Q 2322 1972 1947 1972 
L 1259 1972 
L 1259 0 
L 628 0 
L 628 4666 
L 2053 4666 
Q 2853 4666 3247 4331 
Q 3641 3997 3641 3322 
Q 3641 2881 3436 2590 
Q 3231 2300 2841 2188 
z
M 1259 4147 
L 1259 2491 
L 2053 2491 
Q 2509 2491 2742 2702 
Q 2975 2913 2975 3322 
Q 2975 3731 2742 3939 
Q 2509 4147 2053 4147 
L 1259 4147 
z
" transform="scale(0.015625)"/>
      <path id="DejaVuSans-64" d="M 2906 2969 
L 2906 4863 
L 3481 4863 
L 3481 0 
L 2906 0 
L 2906 525 
Q 2725 213 2448 61 
Q 2172 -91 1784 -91 
Q 1150 -91 751 415 
Q 353 922 353 1747 
Q 353 2572 751 3078 
Q 1150 3584 1784 3584 
Q 2172 3584 2448 3432 
Q 2725 3281 2906 2969 
z
M 947 1747 
Q 947 1113 1208 752 
Q 1469 391 1925 391 
Q 2381 391 2643 752 
Q 2906 1113 2906 1747 
Q 2906 2381 2643 2742 
Q 2381 3103 1925 3103 
Q 1469 3103 1208 2742 
Q 947 2381 947 1747 
z
" transform="scale(0.015625)"/>
      <path id="DejaVuSans-43" d="M 4122 4306 
L 4122 3641 
Q 3803 3938 3442 4084 
Q 3081 4231 2675 4231 
Q 1875 4231 1450 3742 
Q 1025 3253 1025 2328 
Q 1025 1406 1450 917 
Q 1875 428 2675 428 
Q 3081 428 3442 575 
Q 3803 722 4122 1019 
L 4122 359 
Q 3791 134 3420 21 
Q 3050 -91 2638 -91 
Q 1578 -91 968 557 
Q 359 1206 359 2328 
Q 359 3453 968 4101 
Q 1578 4750 2638 4750 
Q 3056 4750 3426 4639 
Q 3797 4528 4122 4306 
z
" transform="scale(0.015625)"/>
      <path id="DejaVuSans-68" d="M 3513 2113 
L 3513 0 
L 2938 0 
L 2938 2094 
Q 2938 2591 2744 2837 
Q 2550 3084 2163 3084 
Q 1697 3084 1428 2787 
Q 1159 2491 1159 1978 
L 1159 0 
L 581 0 
L 581 4863 
L 1159 4863 
L 1159 2956 
Q 1366 3272 1645 3428 
Q 1925 3584 2291 3584 
Q 2894 3584 3203 3211 
Q 3513 2838 3513 2113 
z
" transform="scale(0.015625)"/>
      <path id="DejaVuSans-61" d="M 2194 1759 
Q 1497 1759 1228 1600 
Q 959 1441 959 1056 
Q 959 750 1161 570 
Q 1363 391 1709 391 
Q 2188 391 2477 730 
Q 2766 1069 2766 1631 
L 2766 1759 
L 2194 1759 
z
M 3341 1997 
L 3341 0 
L 2766 0 
L 2766 531 
Q 2569 213 2275 61 
Q 1981 -91 1556 -91 
Q 1019 -91 701 211 
Q 384 513 384 1019 
Q 384 1609 779 1909 
Q 1175 2209 1959 2209 
L 2766 2209 
L 2766 2266 
Q 2766 2663 2505 2880 
Q 2244 3097 1772 3097 
Q 1472 3097 1187 3025 
Q 903 2953 641 2809 
L 641 3341 
Q 956 3463 1253 3523 
Q 1550 3584 1831 3584 
Q 2591 3584 2966 3190 
Q 3341 2797 3341 1997 
z
" transform="scale(0.015625)"/>
     </defs>
     <use xlink:href="#DejaVuSans-52"/>
     <use xlink:href="#DejaVuSans-65" x="64.982422"/>
     <use xlink:href="#DejaVuSans-64" x="126.505859"/>
     <use xlink:href="#DejaVuSans-20" x="189.982422"/>
     <use xlink:href="#DejaVuSans-43" x="221.769531"/>
     <use xlink:href="#DejaVuSans-68" x="291.59375"/>
     <use xlink:href="#DejaVuSans-61" x="354.972656"/>
     <use xlink:href="#DejaVuSans-6e" x="416.251953"/>
     <use xlink:href="#DejaVuSans-6e" x="479.630859"/>
     <use xlink:href="#DejaVuSans-65" x="543.009766"/>
     <use xlink:href="#DejaVuSans-6c" x="604.533203"/>
     <use xlink:href="#DejaVuSans-20" x="632.316406"/>
    </g>
   </g>
  </g>
  <g id="axes_2">
   <g id="patch_7">
    <path d="M 57.17 398.333333 
L 272.721328 398.333333 
L 272.721328 218.506667 
L 57.17 218.506667 
z
" style="fill: #ffffff"/>
   </g>
   <g id="PolyCollection_2">
    <defs>
     <path id="mb7c451c569" d="M 57.17 -249.666667 
L 57.17 -253.318609 
L 58.011997 -253.318609 
L 58.853995 -253.318609 
L 59.695992 -252.563035 
L 60.53799 -253.003786 
L 61.379987 -251.744496 
L 62.221984 -252.122283 
L 63.063982 -251.618567 
L 63.905979 -250.925957 
L 64.747976 -250.800028 
L 65.589974 -250.422241 
L 66.431971 -250.674099 
L 67.273969 -250.044454 
L 68.115966 -250.044454 
L 68.957963 -249.792596 
L 69.799961 -249.666667 
L 70.641958 -249.729631 
L 71.483955 -249.666667 
L 72.325953 -249.729631 
L 73.16795 -249.666667 
L 74.009948 -249.666667 
L 74.851945 -249.666667 
L 75.693942 -249.666667 
L 76.53594 -249.666667 
L 77.377937 -249.666667 
L 78.219934 -249.666667 
L 79.061932 -249.666667 
L 79.903929 -249.666667 
L 80.745927 -249.729631 
L 81.587924 -249.666667 
L 82.429921 -249.729631 
L 83.271919 -249.729631 
L 84.113916 -249.792596 
L 84.955913 -250.170383 
L 85.797911 -250.359276 
L 86.639908 -252.311176 
L 87.481906 -252.877857 
L 88.323903 -257.285373 
L 89.1659 -261.818819 
L 90.007898 -268.80788 
L 90.849895 -279.38592 
L 91.691892 -290.845462 
L 92.53389 -301.738324 
L 93.375887 -318.990602 
L 94.217885 -329.12789 
L 95.059882 -339.894823 
L 95.901879 -336.746597 
L 96.743877 -334.479874 
L 97.585874 -330.702003 
L 98.427871 -328.309351 
L 99.269869 -322.894402 
L 100.111866 -317.227596 
L 100.953864 -310.553357 
L 101.795861 -307.845882 
L 102.637858 -304.823585 
L 103.479856 -304.508763 
L 104.321853 -302.871685 
L 105.16385 -296.449304 
L 106.005848 -294.686298 
L 106.847845 -293.678866 
L 107.689843 -290.845462 
L 108.53184 -291.09732 
L 109.373837 -292.104753 
L 110.215835 -290.152852 
L 111.057832 -289.14542 
L 111.899829 -286.437946 
L 112.741827 -288.767633 
L 113.583824 -284.800868 
L 114.425822 -284.800868 
L 115.267819 -286.878697 
L 116.109816 -285.115691 
L 116.951814 -281.463749 
L 117.793811 -282.03043 
L 118.635808 -280.519281 
L 119.477806 -277.685878 
L 120.319803 -279.197026 
L 121.161801 -278.882204 
L 122.003798 -277.371055 
L 122.845795 -276.363623 
L 123.687793 -276.678445 
L 124.52979 -275.041368 
L 125.371787 -273.593184 
L 126.213785 -272.83761 
L 127.055782 -271.200532 
L 127.89778 -272.396858 
L 128.739777 -270.88571 
L 129.581774 -269.248632 
L 130.423772 -272.019071 
L 131.265769 -269.248632 
L 132.107766 -269.248632 
L 132.949764 -267.107838 
L 133.791761 -267.296732 
L 134.633759 -267.54859 
L 135.475756 -264.526293 
L 136.317753 -264.463329 
L 137.159751 -264.400364 
L 138.001748 -265.155938 
L 138.843745 -262.763287 
L 139.685743 -262.826251 
L 140.52774 -263.64479 
L 141.369738 -261.629925 
L 142.211735 -261.063245 
L 143.053732 -259.929883 
L 143.89573 -261.629925 
L 144.737727 -260.181741 
L 145.579724 -259.489132 
L 146.421722 -260.30767 
L 147.263719 -259.111345 
L 148.105717 -258.544664 
L 148.947714 -259.237274 
L 149.789711 -259.174309 
L 150.631709 -258.922451 
L 151.473706 -257.600196 
L 152.315703 -259.615061 
L 153.157701 -259.363203 
L 153.999698 -258.292806 
L 154.841696 -257.09648 
L 155.683693 -258.229841 
L 156.52569 -257.411303 
L 157.367688 -257.222409 
L 158.209685 -256.466835 
L 159.051682 -256.466835 
L 159.89368 -257.78909 
L 160.735677 -257.663161 
L 161.577675 -258.292806 
L 162.419672 -256.592764 
L 163.261669 -257.285373 
L 164.103667 -257.537232 
L 164.945664 -257.474267 
L 165.787661 -256.781657 
L 166.629659 -255.83719 
L 167.471656 -257.159444 
L 168.313654 -257.348338 
L 169.155651 -256.781657 
L 169.997648 -256.40387 
L 170.839646 -257.537232 
L 171.681643 -256.781657 
L 172.52364 -255.081615 
L 173.365638 -255.774225 
L 174.207635 -257.09648 
L 175.049633 -256.655728 
L 175.89163 -255.83719 
L 176.733627 -256.277941 
L 177.575625 -255.774225 
L 178.417622 -256.340906 
L 179.259619 -254.514935 
L 180.101617 -256.214977 
L 180.943614 -254.577899 
L 181.785612 -255.14458 
L 182.627609 -255.83719 
L 183.469606 -255.081615 
L 184.311604 -255.333473 
L 185.153601 -255.018651 
L 185.995598 -254.45197 
L 186.837596 -255.14458 
L 187.679593 -254.200112 
L 188.521591 -254.514935 
L 189.363588 -254.640864 
L 190.205585 -254.955686 
L 191.047583 -254.766793 
L 191.88958 -254.514935 
L 192.731577 -253.75936 
L 193.573575 -253.948254 
L 194.415572 -254.45197 
L 195.25757 -253.822325 
L 196.099567 -254.766793 
L 196.941564 -254.263077 
L 197.783562 -253.444538 
L 198.625559 -255.14458 
L 199.467556 -253.507502 
L 200.309554 -254.137148 
L 201.151551 -254.011218 
L 201.993549 -254.640864 
L 202.835546 -253.381573 
L 203.677543 -254.200112 
L 204.519541 -253.444538 
L 205.361538 -253.570467 
L 206.203535 -252.625999 
L 207.045533 -253.19268 
L 207.88753 -253.507502 
L 208.729528 -253.318609 
L 209.571525 -253.19268 
L 210.413522 -253.129715 
L 211.25552 -253.696396 
L 212.097517 -254.011218 
L 212.939514 -253.318609 
L 213.781512 -254.514935 
L 214.623509 -252.50007 
L 215.465507 -253.003786 
L 216.307504 -252.688964 
L 217.149501 -252.940822 
L 217.991499 -252.940822 
L 218.833496 -252.248212 
L 219.675493 -252.563035 
L 220.517491 -253.75936 
L 221.359488 -251.933389 
L 222.201486 -253.19268 
L 223.043483 -253.633431 
L 223.88548 -253.255644 
L 224.727478 -252.248212 
L 225.569475 -253.507502 
L 226.411472 -253.066751 
L 227.25347 -253.003786 
L 228.095467 -252.563035 
L 228.937465 -252.437106 
L 229.779462 -252.50007 
L 230.621459 -252.122283 
L 231.463457 -253.570467 
L 232.305454 -252.50007 
L 233.147451 -252.311176 
L 233.989449 -252.688964 
L 234.831446 -252.688964 
L 235.673444 -252.688964 
L 236.515441 -252.374141 
L 237.357438 -252.50007 
L 238.199436 -253.066751 
L 239.041433 -251.681531 
L 239.88343 -252.877857 
L 240.725428 -252.625999 
L 241.567425 -252.374141 
L 242.409423 -252.311176 
L 243.25142 -251.555602 
L 244.093417 -252.940822 
L 244.935415 -252.311176 
L 245.777412 -252.248212 
L 246.619409 -251.744496 
L 247.461407 -252.688964 
L 248.303404 -252.625999 
L 249.145402 -251.870425 
L 249.987399 -252.311176 
L 250.829396 -253.003786 
L 251.671394 -251.681531 
L 252.513391 -252.50007 
L 253.355388 -252.248212 
L 254.197386 -251.870425 
L 255.039383 -251.933389 
L 255.881381 -251.933389 
L 256.723378 -252.437106 
L 257.565375 -252.311176 
L 258.407373 -252.248212 
L 259.24937 -252.688964 
L 260.091367 -252.563035 
L 260.933365 -253.318609 
L 261.775362 -253.066751 
L 262.61736 -252.625999 
L 263.459357 -253.318609 
L 264.301354 -254.011218 
L 265.143352 -253.507502 
L 265.985349 -254.389006 
L 266.827346 -253.822325 
L 267.669344 -253.75936 
L 268.511341 -253.507502 
L 269.353339 -253.19268 
L 270.195336 -254.074183 
L 271.037333 -253.822325 
L 271.879331 -253.129715 
L 271.879331 -249.666667 
L 271.879331 -249.666667 
L 271.037333 -249.666667 
L 270.195336 -249.666667 
L 269.353339 -249.666667 
L 268.511341 -249.666667 
L 267.669344 -249.666667 
L 266.827346 -249.666667 
L 265.985349 -249.666667 
L 265.143352 -249.666667 
L 264.301354 -249.666667 
L 263.459357 -249.666667 
L 262.61736 -249.666667 
L 261.775362 -249.666667 
L 260.933365 -249.666667 
L 260.091367 -249.666667 
L 259.24937 -249.666667 
L 258.407373 -249.666667 
L 257.565375 -249.666667 
L 256.723378 -249.666667 
L 255.881381 -249.666667 
L 255.039383 -249.666667 
L 254.197386 -249.666667 
L 253.355388 -249.666667 
L 252.513391 -249.666667 
L 251.671394 -249.666667 
L 250.829396 -249.666667 
L 249.987399 -249.666667 
L 249.145402 -249.666667 
L 248.303404 -249.666667 
L 247.461407 -249.666667 
L 246.619409 -249.666667 
L 245.777412 -249.666667 
L 244.935415 -249.666667 
L 244.093417 -249.666667 
L 243.25142 -249.666667 
L 242.409423 -249.666667 
L 241.567425 -249.666667 
L 240.725428 -249.666667 
L 239.88343 -249.666667 
L 239.041433 -249.666667 
L 238.199436 -249.666667 
L 237.357438 -249.666667 
L 236.515441 -249.666667 
L 235.673444 -249.666667 
L 234.831446 -249.666667 
L 233.989449 -249.666667 
L 233.147451 -249.666667 
L 232.305454 -249.666667 
L 231.463457 -249.666667 
L 230.621459 -249.666667 
L 229.779462 -249.666667 
L 228.937465 -249.666667 
L 228.095467 -249.666667 
L 227.25347 -249.666667 
L 226.411472 -249.666667 
L 225.569475 -249.666667 
L 224.727478 -249.666667 
L 223.88548 -249.666667 
L 223.043483 -249.666667 
L 222.201486 -249.666667 
L 221.359488 -249.666667 
L 220.517491 -249.666667 
L 219.675493 -249.666667 
L 218.833496 -249.666667 
L 217.991499 -249.666667 
L 217.149501 -249.666667 
L 216.307504 -249.666667 
L 215.465507 -249.666667 
L 214.623509 -249.666667 
L 213.781512 -249.666667 
L 212.939514 -249.666667 
L 212.097517 -249.666667 
L 211.25552 -249.666667 
L 210.413522 -249.666667 
L 209.571525 -249.666667 
L 208.729528 -249.666667 
L 207.88753 -249.666667 
L 207.045533 -249.666667 
L 206.203535 -249.666667 
L 205.361538 -249.666667 
L 204.519541 -249.666667 
L 203.677543 -249.666667 
L 202.835546 -249.666667 
L 201.993549 -249.666667 
L 201.151551 -249.666667 
L 200.309554 -249.666667 
L 199.467556 -249.666667 
L 198.625559 -249.666667 
L 197.783562 -249.666667 
L 196.941564 -249.666667 
L 196.099567 -249.666667 
L 195.25757 -249.666667 
L 194.415572 -249.666667 
L 193.573575 -249.666667 
L 192.731577 -249.666667 
L 191.88958 -249.666667 
L 191.047583 -249.666667 
L 190.205585 -249.666667 
L 189.363588 -249.666667 
L 188.521591 -249.666667 
L 187.679593 -249.666667 
L 186.837596 -249.666667 
L 185.995598 -249.666667 
L 185.153601 -249.666667 
L 184.311604 -249.666667 
L 183.469606 -249.666667 
L 182.627609 -249.666667 
L 181.785612 -249.666667 
L 180.943614 -249.666667 
L 180.101617 -249.666667 
L 179.259619 -249.666667 
L 178.417622 -249.666667 
L 177.575625 -249.666667 
L 176.733627 -249.666667 
L 175.89163 -249.666667 
L 175.049633 -249.666667 
L 174.207635 -249.666667 
L 173.365638 -249.666667 
L 172.52364 -249.666667 
L 171.681643 -249.666667 
L 170.839646 -249.666667 
L 169.997648 -249.666667 
L 169.155651 -249.666667 
L 168.313654 -249.666667 
L 167.471656 -249.666667 
L 166.629659 -249.666667 
L 165.787661 -249.666667 
L 164.945664 -249.666667 
L 164.103667 -249.666667 
L 163.261669 -249.666667 
L 162.419672 -249.666667 
L 161.577675 -249.666667 
L 160.735677 -249.666667 
L 159.89368 -249.666667 
L 159.051682 -249.666667 
L 158.209685 -249.666667 
L 157.367688 -249.666667 
L 156.52569 -249.666667 
L 155.683693 -249.666667 
L 154.841696 -249.666667 
L 153.999698 -249.666667 
L 153.157701 -249.666667 
L 152.315703 -249.666667 
L 151.473706 -249.666667 
L 150.631709 -249.666667 
L 149.789711 -249.666667 
L 148.947714 -249.666667 
L 148.105717 -249.666667 
L 147.263719 -249.666667 
L 146.421722 -249.666667 
L 145.579724 -249.666667 
L 144.737727 -249.666667 
L 143.89573 -249.666667 
L 143.053732 -249.666667 
L 142.211735 -249.666667 
L 141.369738 -249.666667 
L 140.52774 -249.666667 
L 139.685743 -249.666667 
L 138.843745 -249.666667 
L 138.001748 -249.666667 
L 137.159751 -249.666667 
L 136.317753 -249.666667 
L 135.475756 -249.666667 
L 134.633759 -249.666667 
L 133.791761 -249.666667 
L 132.949764 -249.666667 
L 132.107766 -249.666667 
L 131.265769 -249.666667 
L 130.423772 -249.666667 
L 129.581774 -249.666667 
L 128.739777 -249.666667 
L 127.89778 -249.666667 
L 127.055782 -249.666667 
L 126.213785 -249.666667 
L 125.371787 -249.666667 
L 124.52979 -249.666667 
L 123.687793 -249.666667 
L 122.845795 -249.666667 
L 122.003798 -249.666667 
L 121.161801 -249.666667 
L 120.319803 -249.666667 
L 119.477806 -249.666667 
L 118.635808 -249.666667 
L 117.793811 -249.666667 
L 116.951814 -249.666667 
L 116.109816 -249.666667 
L 115.267819 -249.666667 
L 114.425822 -249.666667 
L 113.583824 -249.666667 
L 112.741827 -249.666667 
L 111.899829 -249.666667 
L 111.057832 -249.666667 
L 110.215835 -249.666667 
L 109.373837 -249.666667 
L 108.53184 -249.666667 
L 107.689843 -249.666667 
L 106.847845 -249.666667 
L 106.005848 -249.666667 
L 105.16385 -249.666667 
L 104.321853 -249.666667 
L 103.479856 -249.666667 
L 102.637858 -249.666667 
L 101.795861 -249.666667 
L 100.953864 -249.666667 
L 100.111866 -249.666667 
L 99.269869 -249.666667 
L 98.427871 -249.666667 
L 97.585874 -249.666667 
L 96.743877 -249.666667 
L 95.901879 -249.666667 
L 95.059882 -249.666667 
L 94.217885 -249.666667 
L 93.375887 -249.666667 
L 92.53389 -249.666667 
L 91.691892 -249.666667 
L 90.849895 -249.666667 
L 90.007898 -249.666667 
L 89.1659 -249.666667 
L 88.323903 -249.666667 
L 87.481906 -249.666667 
L 86.639908 -249.666667 
L 85.797911 -249.666667 
L 84.955913 -249.666667 
L 84.113916 -249.666667 
L 83.271919 -249.666667 
L 82.429921 -249.666667 
L 81.587924 -249.666667 
L 80.745927 -249.666667 
L 79.903929 -249.666667 
L 79.061932 -249.666667 
L 78.219934 -249.666667 
L 77.377937 -249.666667 
L 76.53594 -249.666667 
L 75.693942 -249.666667 
L 74.851945 -249.666667 
L 74.009948 -249.666667 
L 73.16795 -249.666667 
L 72.325953 -249.666667 
L 71.483955 -249.666667 
L 70.641958 -249.666667 
L 69.799961 -249.666667 
L 68.957963 -249.666667 
L 68.115966 -249.666667 
L 67.273969 -249.666667 
L 66.431971 -249.666667 
L 65.589974 -249.666667 
L 64.747976 -249.666667 
L 63.905979 -249.666667 
L 63.063982 -249.666667 
L 62.221984 -249.666667 
L 61.379987 -249.666667 
L 60.53799 -249.666667 
L 59.695992 -249.666667 
L 58.853995 -249.666667 
L 58.011997 -249.666667 
L 57.17 -249.666667 
z
" style="stroke: #008000; stroke-opacity: 0.4"/>
    </defs>
    <g clip-path="url(#pafdcfcc2c5)">
     <use xlink:href="#mb7c451c569" x="0" y="648" style="fill: #008000; fill-opacity: 0.4; stroke: #008000; stroke-opacity: 0.4"/>
    </g>
   </g>
   <g id="matplotlib.axis_3">
    <g id="xtick_7">
     <g id="line2d_14">
      <g>
       <use xlink:href="#m55948dc613" x="57.17" y="398.333333" style="stroke: #000000; stroke-width: 0.8"/>
      </g>
     </g>
     <g id="text_15">
      <!-- 0 -->
      <g transform="translate(53.98875 412.931771) scale(0.1 -0.1)">
       <use xlink:href="#DejaVuSans-30"/>
      </g>
     </g>
    </g>
    <g id="xtick_8">
     <g id="line2d_15">
      <g>
       <use xlink:href="#m55948dc613" x="99.269869" y="398.333333" style="stroke: #000000; stroke-width: 0.8"/>
      </g>
     </g>
     <g id="text_16">
      <!-- 50 -->
      <g transform="translate(92.907369 412.931771) scale(0.1 -0.1)">
       <use xlink:href="#DejaVuSans-35"/>
       <use xlink:href="#DejaVuSans-30" x="63.623047"/>
      </g>
     </g>
    </g>
    <g id="xtick_9">
     <g id="line2d_16">
      <g>
       <use xlink:href="#m55948dc613" x="141.369738" y="398.333333" style="stroke: #000000; stroke-width: 0.8"/>
      </g>
     </g>
     <g id="text_17">
      <!-- 100 -->
      <g transform="translate(131.825988 412.931771) scale(0.1 -0.1)">
       <use xlink:href="#DejaVuSans-31"/>
       <use xlink:href="#DejaVuSans-30" x="63.623047"/>
       <use xlink:href="#DejaVuSans-30" x="127.246094"/>
      </g>
     </g>
    </g>
    <g id="xtick_10">
     <g id="line2d_17">
      <g>
       <use xlink:href="#m55948dc613" x="183.469606" y="398.333333" style="stroke: #000000; stroke-width: 0.8"/>
      </g>
     </g>
     <g id="text_18">
      <!-- 150 -->
      <g transform="translate(173.925856 412.931771) scale(0.1 -0.1)">
       <use xlink:href="#DejaVuSans-31"/>
       <use xlink:href="#DejaVuSans-35" x="63.623047"/>
       <use xlink:href="#DejaVuSans-30" x="127.246094"/>
      </g>
     </g>
    </g>
    <g id="xtick_11">
     <g id="line2d_18">
      <g>
       <use xlink:href="#m55948dc613" x="225.569475" y="398.333333" style="stroke: #000000; stroke-width: 0.8"/>
      </g>
     </g>
     <g id="text_19">
      <!-- 200 -->
      <g transform="translate(216.025725 412.931771) scale(0.1 -0.1)">
       <use xlink:href="#DejaVuSans-32"/>
       <use xlink:href="#DejaVuSans-30" x="63.623047"/>
       <use xlink:href="#DejaVuSans-30" x="127.246094"/>
      </g>
     </g>
    </g>
    <g id="xtick_12">
     <g id="line2d_19">
      <g>
       <use xlink:href="#m55948dc613" x="267.669344" y="398.333333" style="stroke: #000000; stroke-width: 0.8"/>
      </g>
     </g>
     <g id="text_20">
      <!-- 250 -->
      <g transform="translate(258.125594 412.931771) scale(0.1 -0.1)">
       <use xlink:href="#DejaVuSans-32"/>
       <use xlink:href="#DejaVuSans-35" x="63.623047"/>
       <use xlink:href="#DejaVuSans-30" x="127.246094"/>
      </g>
     </g>
    </g>
   </g>
   <g id="matplotlib.axis_4">
    <g id="ytick_7">
     <g id="line2d_20">
      <g>
       <use xlink:href="#mc54d52e68d" x="57.17" y="398.333333" style="stroke: #000000; stroke-width: 0.8"/>
      </g>
     </g>
     <g id="text_21">
      <!-- 0 -->
      <g transform="translate(43.8075 402.132552) scale(0.1 -0.1)">
       <use xlink:href="#DejaVuSans-30"/>
      </g>
     </g>
    </g>
    <g id="ytick_8">
     <g id="line2d_21">
      <g>
       <use xlink:href="#mc54d52e68d" x="57.17" y="366.851074" style="stroke: #000000; stroke-width: 0.8"/>
      </g>
     </g>
     <g id="text_22">
      <!-- 500 -->
      <g transform="translate(31.0825 370.650293) scale(0.1 -0.1)">
       <use xlink:href="#DejaVuSans-35"/>
       <use xlink:href="#DejaVuSans-30" x="63.623047"/>
       <use xlink:href="#DejaVuSans-30" x="127.246094"/>
      </g>
     </g>
    </g>
    <g id="ytick_9">
     <g id="line2d_22">
      <g>
       <use xlink:href="#mc54d52e68d" x="57.17" y="335.368814" style="stroke: #000000; stroke-width: 0.8"/>
      </g>
     </g>
     <g id="text_23">
      <!-- 1000 -->
      <g transform="translate(24.72 339.168033) scale(0.1 -0.1)">
       <use xlink:href="#DejaVuSans-31"/>
       <use xlink:href="#DejaVuSans-30" x="63.623047"/>
       <use xlink:href="#DejaVuSans-30" x="127.246094"/>
       <use xlink:href="#DejaVuSans-30" x="190.869141"/>
      </g>
     </g>
    </g>
    <g id="ytick_10">
     <g id="line2d_23">
      <g>
       <use xlink:href="#mc54d52e68d" x="57.17" y="303.886555" style="stroke: #000000; stroke-width: 0.8"/>
      </g>
     </g>
     <g id="text_24">
      <!-- 1500 -->
      <g transform="translate(24.72 307.685773) scale(0.1 -0.1)">
       <use xlink:href="#DejaVuSans-31"/>
       <use xlink:href="#DejaVuSans-35" x="63.623047"/>
       <use xlink:href="#DejaVuSans-30" x="127.246094"/>
       <use xlink:href="#DejaVuSans-30" x="190.869141"/>
      </g>
     </g>
    </g>
    <g id="ytick_11">
     <g id="line2d_24">
      <g>
       <use xlink:href="#mc54d52e68d" x="57.17" y="272.404295" style="stroke: #000000; stroke-width: 0.8"/>
      </g>
     </g>
     <g id="text_25">
      <!-- 2000 -->
      <g transform="translate(24.72 276.203514) scale(0.1 -0.1)">
       <use xlink:href="#DejaVuSans-32"/>
       <use xlink:href="#DejaVuSans-30" x="63.623047"/>
       <use xlink:href="#DejaVuSans-30" x="127.246094"/>
       <use xlink:href="#DejaVuSans-30" x="190.869141"/>
      </g>
     </g>
    </g>
    <g id="ytick_12">
     <g id="line2d_25">
      <g>
       <use xlink:href="#mc54d52e68d" x="57.17" y="240.922035" style="stroke: #000000; stroke-width: 0.8"/>
      </g>
     </g>
     <g id="text_26">
      <!-- 2500 -->
      <g transform="translate(24.72 244.721254) scale(0.1 -0.1)">
       <use xlink:href="#DejaVuSans-32"/>
       <use xlink:href="#DejaVuSans-35" x="63.623047"/>
       <use xlink:href="#DejaVuSans-30" x="127.246094"/>
       <use xlink:href="#DejaVuSans-30" x="190.869141"/>
      </g>
     </g>
    </g>
    <g id="text_27">
     <!-- Pixel Frequency -->
     <g transform="translate(18.640313 347.398906) rotate(-90) scale(0.1 -0.1)">
      <use xlink:href="#DejaVuSans-50"/>
      <use xlink:href="#DejaVuSans-69" x="58.052734"/>
      <use xlink:href="#DejaVuSans-78" x="85.835938"/>
      <use xlink:href="#DejaVuSans-65" x="141.890625"/>
      <use xlink:href="#DejaVuSans-6c" x="203.414062"/>
      <use xlink:href="#DejaVuSans-20" x="231.197266"/>
      <use xlink:href="#DejaVuSans-46" x="262.984375"/>
      <use xlink:href="#DejaVuSans-72" x="313.253906"/>
      <use xlink:href="#DejaVuSans-65" x="352.117188"/>
      <use xlink:href="#DejaVuSans-71" x="413.640625"/>
      <use xlink:href="#DejaVuSans-75" x="477.117188"/>
      <use xlink:href="#DejaVuSans-65" x="540.496094"/>
      <use xlink:href="#DejaVuSans-6e" x="602.019531"/>
      <use xlink:href="#DejaVuSans-63" x="665.398438"/>
      <use xlink:href="#DejaVuSans-79" x="720.378906"/>
     </g>
    </g>
   </g>
   <g id="line2d_26">
    <path d="M 57.17 394.681391 
L 58.853995 394.681391 
L 59.695992 395.436965 
L 60.53799 394.996214 
L 61.379987 396.255504 
L 62.221984 395.877717 
L 63.063982 396.381433 
L 63.905979 397.074043 
L 64.747976 397.199972 
L 65.589974 397.577759 
L 66.431971 397.325901 
L 67.273969 397.955546 
L 68.115966 397.955546 
L 68.957963 398.207404 
L 69.799961 398.333333 
L 70.641958 398.270369 
L 71.483955 398.333333 
L 72.325953 398.270369 
L 74.009948 398.333333 
L 83.271919 398.270369 
L 84.113916 398.207404 
L 84.955913 397.829617 
L 85.797911 397.640724 
L 86.639908 395.688824 
L 87.481906 395.122143 
L 89.1659 386.181181 
L 90.007898 379.19212 
L 92.53389 346.261676 
L 93.375887 329.009398 
L 95.059882 308.105177 
L 95.901879 311.253403 
L 96.743877 313.520126 
L 97.585874 317.297997 
L 98.427871 319.690649 
L 100.111866 330.772404 
L 100.953864 337.446643 
L 102.637858 343.176415 
L 103.479856 343.491237 
L 104.321853 345.128315 
L 105.16385 351.550696 
L 106.005848 353.313702 
L 106.847845 354.321134 
L 107.689843 357.154538 
L 108.53184 356.90268 
L 109.373837 355.895247 
L 110.215835 357.847148 
L 111.057832 358.85458 
L 111.899829 361.562054 
L 112.741827 359.232367 
L 113.583824 363.199132 
L 114.425822 363.199132 
L 115.267819 361.121303 
L 116.109816 362.884309 
L 116.951814 366.536251 
L 117.793811 365.96957 
L 118.635808 367.480719 
L 119.477806 370.314122 
L 120.319803 368.802974 
L 121.161801 369.117796 
L 122.003798 370.628945 
L 122.845795 371.636377 
L 123.687793 371.321555 
L 125.371787 374.406816 
L 126.213785 375.16239 
L 127.055782 376.799468 
L 127.89778 375.603142 
L 129.581774 378.751368 
L 130.423772 375.980929 
L 131.265769 378.751368 
L 132.107766 378.751368 
L 132.949764 380.892162 
L 134.633759 380.45141 
L 135.475756 383.473707 
L 137.159751 383.599636 
L 138.001748 382.844062 
L 138.843745 385.236713 
L 139.685743 385.173749 
L 140.52774 384.35521 
L 141.369738 386.370075 
L 142.211735 386.936755 
L 143.053732 388.070117 
L 143.89573 386.370075 
L 144.737727 387.818259 
L 145.579724 388.510868 
L 146.421722 387.69233 
L 147.263719 388.888655 
L 148.105717 389.455336 
L 148.947714 388.762726 
L 149.789711 388.825691 
L 150.631709 389.077549 
L 151.473706 390.399804 
L 152.315703 388.384939 
L 153.157701 388.636797 
L 154.841696 390.90352 
L 155.683693 389.770159 
L 156.52569 390.588697 
L 157.367688 390.777591 
L 158.209685 391.533165 
L 159.051682 391.533165 
L 159.89368 390.21091 
L 160.735677 390.336839 
L 161.577675 389.707194 
L 162.419672 391.407236 
L 163.261669 390.714627 
L 164.103667 390.462768 
L 164.945664 390.525733 
L 165.787661 391.218343 
L 166.629659 392.16281 
L 167.471656 390.840556 
L 168.313654 390.651662 
L 169.155651 391.218343 
L 169.997648 391.59613 
L 170.839646 390.462768 
L 171.681643 391.218343 
L 172.52364 392.918385 
L 173.365638 392.225775 
L 174.207635 390.90352 
L 175.049633 391.344272 
L 175.89163 392.16281 
L 176.733627 391.722059 
L 177.575625 392.225775 
L 178.417622 391.659094 
L 179.259619 393.485065 
L 180.101617 391.785023 
L 180.943614 393.422101 
L 182.627609 392.16281 
L 183.469606 392.918385 
L 184.311604 392.666527 
L 185.153601 392.981349 
L 185.995598 393.54803 
L 186.837596 392.85542 
L 187.679593 393.799888 
L 188.521591 393.485065 
L 189.363588 393.359136 
L 190.205585 393.044314 
L 191.88958 393.485065 
L 192.731577 394.24064 
L 193.573575 394.051746 
L 194.415572 393.54803 
L 195.25757 394.177675 
L 196.099567 393.233207 
L 196.941564 393.736923 
L 197.783562 394.555462 
L 198.625559 392.85542 
L 199.467556 394.492498 
L 200.309554 393.862852 
L 201.151551 393.988782 
L 201.993549 393.359136 
L 202.835546 394.618427 
L 203.677543 393.799888 
L 204.519541 394.555462 
L 205.361538 394.429533 
L 206.203535 395.374001 
L 207.045533 394.80732 
L 207.88753 394.492498 
L 209.571525 394.80732 
L 210.413522 394.870285 
L 211.25552 394.303604 
L 212.097517 393.988782 
L 212.939514 394.681391 
L 213.781512 393.485065 
L 214.623509 395.49993 
L 215.465507 394.996214 
L 216.307504 395.311036 
L 217.149501 395.059178 
L 217.991499 395.059178 
L 218.833496 395.751788 
L 219.675493 395.436965 
L 220.517491 394.24064 
L 221.359488 396.066611 
L 222.201486 394.80732 
L 223.043483 394.366569 
L 223.88548 394.744356 
L 224.727478 395.751788 
L 225.569475 394.492498 
L 226.411472 394.933249 
L 227.25347 394.996214 
L 228.095467 395.436965 
L 228.937465 395.562894 
L 229.779462 395.49993 
L 230.621459 395.877717 
L 231.463457 394.429533 
L 232.305454 395.49993 
L 233.147451 395.688824 
L 233.989449 395.311036 
L 235.673444 395.311036 
L 236.515441 395.625859 
L 237.357438 395.49993 
L 238.199436 394.933249 
L 239.041433 396.318469 
L 239.88343 395.122143 
L 241.567425 395.625859 
L 242.409423 395.688824 
L 243.25142 396.444398 
L 244.093417 395.059178 
L 244.935415 395.688824 
L 245.777412 395.751788 
L 246.619409 396.255504 
L 247.461407 395.311036 
L 248.303404 395.374001 
L 249.145402 396.129575 
L 249.987399 395.688824 
L 250.829396 394.996214 
L 251.671394 396.318469 
L 252.513391 395.49993 
L 253.355388 395.751788 
L 254.197386 396.129575 
L 255.881381 396.066611 
L 256.723378 395.562894 
L 258.407373 395.751788 
L 259.24937 395.311036 
L 260.091367 395.436965 
L 260.933365 394.681391 
L 261.775362 394.933249 
L 262.61736 395.374001 
L 264.301354 393.988782 
L 265.143352 394.492498 
L 265.985349 393.610994 
L 266.827346 394.177675 
L 267.669344 394.24064 
L 269.353339 394.80732 
L 270.195336 393.925817 
L 271.037333 394.177675 
L 271.879331 394.870285 
L 271.879331 394.870285 
" clip-path="url(#pafdcfcc2c5)" style="fill: none; stroke: #008000; stroke-width: 1.5; stroke-linecap: square"/>
   </g>
   <g id="patch_8">
    <path d="M 57.17 398.333333 
L 57.17 218.506667 
" style="fill: none; stroke: #000000; stroke-width: 0.8; stroke-linejoin: miter; stroke-linecap: square"/>
   </g>
   <g id="patch_9">
    <path d="M 272.721328 398.333333 
L 272.721328 218.506667 
" style="fill: none; stroke: #000000; stroke-width: 0.8; stroke-linejoin: miter; stroke-linecap: square"/>
   </g>
   <g id="patch_10">
    <path d="M 57.17 398.333333 
L 272.721328 398.333333 
" style="fill: none; stroke: #000000; stroke-width: 0.8; stroke-linejoin: miter; stroke-linecap: square"/>
   </g>
   <g id="patch_11">
    <path d="M 57.17 218.506667 
L 272.721328 218.506667 
" style="fill: none; stroke: #000000; stroke-width: 0.8; stroke-linejoin: miter; stroke-linecap: square"/>
   </g>
   <g id="text_28">
    <!-- Green Channel  -->
    <g transform="translate(179.494453 232.506667) scale(0.12 -0.12)">
     <defs>
      <path id="DejaVuSans-47" d="M 3809 666 
L 3809 1919 
L 2778 1919 
L 2778 2438 
L 4434 2438 
L 4434 434 
Q 4069 175 3628 42 
Q 3188 -91 2688 -91 
Q 1594 -91 976 548 
Q 359 1188 359 2328 
Q 359 3472 976 4111 
Q 1594 4750 2688 4750 
Q 3144 4750 3555 4637 
Q 3966 4525 4313 4306 
L 4313 3634 
Q 3963 3931 3569 4081 
Q 3175 4231 2741 4231 
Q 1884 4231 1454 3753 
Q 1025 3275 1025 2328 
Q 1025 1384 1454 906 
Q 1884 428 2741 428 
Q 3075 428 3337 486 
Q 3600 544 3809 666 
z
" transform="scale(0.015625)"/>
     </defs>
     <use xlink:href="#DejaVuSans-47"/>
     <use xlink:href="#DejaVuSans-72" x="77.490234"/>
     <use xlink:href="#DejaVuSans-65" x="116.353516"/>
     <use xlink:href="#DejaVuSans-65" x="177.876953"/>
     <use xlink:href="#DejaVuSans-6e" x="239.400391"/>
     <use xlink:href="#DejaVuSans-20" x="302.779297"/>
     <use xlink:href="#DejaVuSans-43" x="334.566406"/>
     <use xlink:href="#DejaVuSans-68" x="404.390625"/>
     <use xlink:href="#DejaVuSans-61" x="467.769531"/>
     <use xlink:href="#DejaVuSans-6e" x="529.048828"/>
     <use xlink:href="#DejaVuSans-6e" x="592.427734"/>
     <use xlink:href="#DejaVuSans-65" x="655.806641"/>
     <use xlink:href="#DejaVuSans-6c" x="717.330078"/>
     <use xlink:href="#DejaVuSans-20" x="745.113281"/>
    </g>
   </g>
  </g>
  <g id="axes_3">
   <g id="patch_12">
    <path d="M 57.17 606.04 
L 272.721328 606.04 
L 272.721328 426.213333 
L 57.17 426.213333 
z
" style="fill: #ffffff"/>
   </g>
   <g id="PolyCollection_3">
    <defs>
     <path id="mcd8e20d054" d="M 57.17 -41.96 
L 57.17 -41.96 
L 58.011997 -41.96 
L 58.853995 -41.96 
L 59.695992 -41.96 
L 60.53799 -41.96 
L 61.379987 -41.96 
L 62.221984 -41.96 
L 63.063982 -41.96 
L 63.905979 -41.96 
L 64.747976 -41.96 
L 65.589974 -41.96 
L 66.431971 -41.96 
L 67.273969 -41.96 
L 68.115966 -41.96 
L 68.957963 -41.96 
L 69.799961 -41.96 
L 70.641958 -41.96 
L 71.483955 -42.085929 
L 72.325953 -42.085929 
L 73.16795 -41.96 
L 74.009948 -42.022965 
L 74.851945 -42.65261 
L 75.693942 -43.156326 
L 76.53594 -43.597077 
L 77.377937 -45.8638 
L 78.219934 -46.871232 
L 79.061932 -49.704636 
L 79.903929 -54.175117 
L 80.745927 -61.101214 
L 81.587924 -75.205266 
L 82.429921 -91.827899 
L 83.271919 -109.017213 
L 84.113916 -128.788072 
L 84.955913 -140.940224 
L 85.797911 -157.18507 
L 86.639908 -164.866741 
L 87.481906 -166.188996 
L 88.323903 -156.49246 
L 89.1659 -149.503399 
L 90.007898 -140.688366 
L 90.849895 -134.643772 
L 91.691892 -122.617549 
L 92.53389 -121.924939 
L 93.375887 -112.102474 
L 94.217885 -110.528361 
L 95.059882 -107.317171 
L 95.901879 -106.18381 
L 96.743877 -102.531867 
L 97.585874 -98.187316 
L 98.427871 -95.668735 
L 99.269869 -93.779799 
L 100.111866 -94.031657 
L 100.953864 -92.646438 
L 101.795861 -91.00936 
L 102.637858 -82.698044 
L 103.479856 -82.823973 
L 104.321853 -83.138796 
L 105.16385 -79.109066 
L 106.005848 -75.583053 
L 106.847845 -75.39416 
L 107.689843 -73.631153 
L 108.53184 -73.001508 
L 109.373837 -70.10514 
L 110.215835 -68.782885 
L 111.057832 -66.830985 
L 111.899829 -65.193908 
L 112.741827 -66.327269 
L 113.583824 -63.367937 
L 114.425822 -63.871653 
L 115.267819 -62.86422 
L 116.109816 -62.86422 
L 116.951814 -59.778959 
L 117.793811 -59.275243 
L 118.635808 -57.952988 
L 119.477806 -58.393739 
L 120.319803 -59.212278 
L 121.161801 -57.323343 
L 122.003798 -58.519669 
L 122.845795 -57.512236 
L 123.687793 -56.189981 
L 124.52979 -54.238081 
L 125.371787 -55.371443 
L 126.213785 -54.489939 
L 127.055782 -53.545472 
L 127.89778 -54.615868 
L 128.739777 -55.05662 
L 129.581774 -55.05662 
L 130.423772 -54.867726 
L 131.265769 -53.167684 
L 132.107766 -53.860294 
L 132.949764 -53.293613 
L 133.791761 -53.356578 
L 134.633759 -52.41211 
L 135.475756 -52.223217 
L 136.317753 -53.356578 
L 137.159751 -52.601004 
L 138.001748 -51.84543 
L 138.843745 -50.963926 
L 139.685743 -51.215784 
L 140.52774 -49.830565 
L 141.369738 -50.271317 
L 142.211735 -50.208352 
L 143.053732 -49.326849 
L 143.89573 -49.20092 
L 144.737727 -48.319416 
L 145.579724 -48.760168 
L 146.421722 -48.949062 
L 147.263719 -48.067558 
L 148.105717 -48.823133 
L 148.947714 -49.263884 
L 149.789711 -48.634239 
L 150.631709 -48.571275 
L 151.473706 -48.760168 
L 152.315703 -48.319416 
L 153.157701 -47.941629 
L 153.999698 -47.437913 
L 154.841696 -47.878665 
L 155.683693 -48.256452 
L 156.52569 -46.997162 
L 157.367688 -47.186055 
L 158.209685 -47.186055 
L 159.051682 -47.752736 
L 159.89368 -46.619374 
L 160.735677 -46.682339 
L 161.577675 -47.374949 
L 162.419672 -46.682339 
L 163.261669 -46.871232 
L 164.103667 -47.437913 
L 164.945664 -47.8157 
L 165.787661 -46.997162 
L 166.629659 -46.493445 
L 167.471656 -45.926765 
L 168.313654 -46.808268 
L 169.155651 -46.619374 
L 169.997648 -46.430481 
L 170.839646 -46.367516 
L 171.681643 -46.241587 
L 172.52364 -46.178623 
L 173.365638 -46.052694 
L 174.207635 -45.611942 
L 175.049633 -45.548978 
L 175.89163 -45.360084 
L 176.733627 -44.982297 
L 177.575625 -44.919332 
L 178.417622 -46.241587 
L 179.259619 -45.108226 
L 180.101617 -44.667474 
L 180.943614 -44.793403 
L 181.785612 -44.541545 
L 182.627609 -44.919332 
L 183.469606 -44.793403 
L 184.311604 -44.478581 
L 185.153601 -44.541545 
L 185.995598 -43.9119 
L 186.837596 -44.541545 
L 187.679593 -44.352652 
L 188.521591 -43.534113 
L 189.363588 -43.660042 
L 190.205585 -43.974865 
L 191.047583 -43.471148 
L 191.88958 -43.408184 
L 192.731577 -43.156326 
L 193.573575 -43.597077 
L 194.415572 -44.163758 
L 195.25757 -42.904468 
L 196.099567 -43.093361 
L 196.941564 -43.345219 
L 197.783562 -43.156326 
L 198.625559 -43.534113 
L 199.467556 -42.967432 
L 200.309554 -42.967432 
L 201.151551 -42.967432 
L 201.993549 -42.778539 
L 202.835546 -42.904468 
L 203.677543 -42.715574 
L 204.519541 -42.589645 
L 205.361538 -42.967432 
L 206.203535 -42.526681 
L 207.045533 -43.030397 
L 207.88753 -42.400752 
L 208.729528 -42.589645 
L 209.571525 -42.715574 
L 210.413522 -42.841503 
L 211.25552 -42.148894 
L 212.097517 -42.715574 
L 212.939514 -42.65261 
L 213.781512 -42.526681 
L 214.623509 -42.274823 
L 215.465507 -42.463716 
L 216.307504 -42.022965 
L 217.149501 -42.526681 
L 217.991499 -42.463716 
L 218.833496 -42.400752 
L 219.675493 -42.148894 
L 220.517491 -42.400752 
L 221.359488 -42.526681 
L 222.201486 -42.526681 
L 223.043483 -42.211858 
L 223.88548 -42.337787 
L 224.727478 -42.274823 
L 225.569475 -42.022965 
L 226.411472 -42.211858 
L 227.25347 -42.274823 
L 228.095467 -42.274823 
L 228.937465 -42.211858 
L 229.779462 -42.211858 
L 230.621459 -42.337787 
L 231.463457 -42.211858 
L 232.305454 -42.022965 
L 233.147451 -42.274823 
L 233.989449 -42.085929 
L 234.831446 -42.085929 
L 235.673444 -42.337787 
L 236.515441 -42.148894 
L 237.357438 -42.211858 
L 238.199436 -42.337787 
L 239.041433 -42.148894 
L 239.88343 -42.148894 
L 240.725428 -42.085929 
L 241.567425 -42.211858 
L 242.409423 -42.148894 
L 243.25142 -42.085929 
L 244.093417 -42.274823 
L 244.935415 -42.274823 
L 245.777412 -42.337787 
L 246.619409 -41.96 
L 247.461407 -41.96 
L 248.303404 -42.022965 
L 249.145402 -41.96 
L 249.987399 -42.022965 
L 250.829396 -41.96 
L 251.671394 -41.96 
L 252.513391 -41.96 
L 253.355388 -41.96 
L 254.197386 -41.96 
L 255.039383 -41.96 
L 255.881381 -41.96 
L 256.723378 -41.96 
L 257.565375 -41.96 
L 258.407373 -41.96 
L 259.24937 -41.96 
L 260.091367 -41.96 
L 260.933365 -41.96 
L 261.775362 -41.96 
L 262.61736 -41.96 
L 263.459357 -41.96 
L 264.301354 -41.96 
L 265.143352 -41.96 
L 265.985349 -41.96 
L 266.827346 -41.96 
L 267.669344 -41.96 
L 268.511341 -41.96 
L 269.353339 -41.96 
L 270.195336 -41.96 
L 271.037333 -41.96 
L 271.879331 -41.96 
L 271.879331 -41.96 
L 271.879331 -41.96 
L 271.037333 -41.96 
L 270.195336 -41.96 
L 269.353339 -41.96 
L 268.511341 -41.96 
L 267.669344 -41.96 
L 266.827346 -41.96 
L 265.985349 -41.96 
L 265.143352 -41.96 
L 264.301354 -41.96 
L 263.459357 -41.96 
L 262.61736 -41.96 
L 261.775362 -41.96 
L 260.933365 -41.96 
L 260.091367 -41.96 
L 259.24937 -41.96 
L 258.407373 -41.96 
L 257.565375 -41.96 
L 256.723378 -41.96 
L 255.881381 -41.96 
L 255.039383 -41.96 
L 254.197386 -41.96 
L 253.355388 -41.96 
L 252.513391 -41.96 
L 251.671394 -41.96 
L 250.829396 -41.96 
L 249.987399 -41.96 
L 249.145402 -41.96 
L 248.303404 -41.96 
L 247.461407 -41.96 
L 246.619409 -41.96 
L 245.777412 -41.96 
L 244.935415 -41.96 
L 244.093417 -41.96 
L 243.25142 -41.96 
L 242.409423 -41.96 
L 241.567425 -41.96 
L 240.725428 -41.96 
L 239.88343 -41.96 
L 239.041433 -41.96 
L 238.199436 -41.96 
L 237.357438 -41.96 
L 236.515441 -41.96 
L 235.673444 -41.96 
L 234.831446 -41.96 
L 233.989449 -41.96 
L 233.147451 -41.96 
L 232.305454 -41.96 
L 231.463457 -41.96 
L 230.621459 -41.96 
L 229.779462 -41.96 
L 228.937465 -41.96 
L 228.095467 -41.96 
L 227.25347 -41.96 
L 226.411472 -41.96 
L 225.569475 -41.96 
L 224.727478 -41.96 
L 223.88548 -41.96 
L 223.043483 -41.96 
L 222.201486 -41.96 
L 221.359488 -41.96 
L 220.517491 -41.96 
L 219.675493 -41.96 
L 218.833496 -41.96 
L 217.991499 -41.96 
L 217.149501 -41.96 
L 216.307504 -41.96 
L 215.465507 -41.96 
L 214.623509 -41.96 
L 213.781512 -41.96 
L 212.939514 -41.96 
L 212.097517 -41.96 
L 211.25552 -41.96 
L 210.413522 -41.96 
L 209.571525 -41.96 
L 208.729528 -41.96 
L 207.88753 -41.96 
L 207.045533 -41.96 
L 206.203535 -41.96 
L 205.361538 -41.96 
L 204.519541 -41.96 
L 203.677543 -41.96 
L 202.835546 -41.96 
L 201.993549 -41.96 
L 201.151551 -41.96 
L 200.309554 -41.96 
L 199.467556 -41.96 
L 198.625559 -41.96 
L 197.783562 -41.96 
L 196.941564 -41.96 
L 196.099567 -41.96 
L 195.25757 -41.96 
L 194.415572 -41.96 
L 193.573575 -41.96 
L 192.731577 -41.96 
L 191.88958 -41.96 
L 191.047583 -41.96 
L 190.205585 -41.96 
L 189.363588 -41.96 
L 188.521591 -41.96 
L 187.679593 -41.96 
L 186.837596 -41.96 
L 185.995598 -41.96 
L 185.153601 -41.96 
L 184.311604 -41.96 
L 183.469606 -41.96 
L 182.627609 -41.96 
L 181.785612 -41.96 
L 180.943614 -41.96 
L 180.101617 -41.96 
L 179.259619 -41.96 
L 178.417622 -41.96 
L 177.575625 -41.96 
L 176.733627 -41.96 
L 175.89163 -41.96 
L 175.049633 -41.96 
L 174.207635 -41.96 
L 173.365638 -41.96 
L 172.52364 -41.96 
L 171.681643 -41.96 
L 170.839646 -41.96 
L 169.997648 -41.96 
L 169.155651 -41.96 
L 168.313654 -41.96 
L 167.471656 -41.96 
L 166.629659 -41.96 
L 165.787661 -41.96 
L 164.945664 -41.96 
L 164.103667 -41.96 
L 163.261669 -41.96 
L 162.419672 -41.96 
L 161.577675 -41.96 
L 160.735677 -41.96 
L 159.89368 -41.96 
L 159.051682 -41.96 
L 158.209685 -41.96 
L 157.367688 -41.96 
L 156.52569 -41.96 
L 155.683693 -41.96 
L 154.841696 -41.96 
L 153.999698 -41.96 
L 153.157701 -41.96 
L 152.315703 -41.96 
L 151.473706 -41.96 
L 150.631709 -41.96 
L 149.789711 -41.96 
L 148.947714 -41.96 
L 148.105717 -41.96 
L 147.263719 -41.96 
L 146.421722 -41.96 
L 145.579724 -41.96 
L 144.737727 -41.96 
L 143.89573 -41.96 
L 143.053732 -41.96 
L 142.211735 -41.96 
L 141.369738 -41.96 
L 140.52774 -41.96 
L 139.685743 -41.96 
L 138.843745 -41.96 
L 138.001748 -41.96 
L 137.159751 -41.96 
L 136.317753 -41.96 
L 135.475756 -41.96 
L 134.633759 -41.96 
L 133.791761 -41.96 
L 132.949764 -41.96 
L 132.107766 -41.96 
L 131.265769 -41.96 
L 130.423772 -41.96 
L 129.581774 -41.96 
L 128.739777 -41.96 
L 127.89778 -41.96 
L 127.055782 -41.96 
L 126.213785 -41.96 
L 125.371787 -41.96 
L 124.52979 -41.96 
L 123.687793 -41.96 
L 122.845795 -41.96 
L 122.003798 -41.96 
L 121.161801 -41.96 
L 120.319803 -41.96 
L 119.477806 -41.96 
L 118.635808 -41.96 
L 117.793811 -41.96 
L 116.951814 -41.96 
L 116.109816 -41.96 
L 115.267819 -41.96 
L 114.425822 -41.96 
L 113.583824 -41.96 
L 112.741827 -41.96 
L 111.899829 -41.96 
L 111.057832 -41.96 
L 110.215835 -41.96 
L 109.373837 -41.96 
L 108.53184 -41.96 
L 107.689843 -41.96 
L 106.847845 -41.96 
L 106.005848 -41.96 
L 105.16385 -41.96 
L 104.321853 -41.96 
L 103.479856 -41.96 
L 102.637858 -41.96 
L 101.795861 -41.96 
L 100.953864 -41.96 
L 100.111866 -41.96 
L 99.269869 -41.96 
L 98.427871 -41.96 
L 97.585874 -41.96 
L 96.743877 -41.96 
L 95.901879 -41.96 
L 95.059882 -41.96 
L 94.217885 -41.96 
L 93.375887 -41.96 
L 92.53389 -41.96 
L 91.691892 -41.96 
L 90.849895 -41.96 
L 90.007898 -41.96 
L 89.1659 -41.96 
L 88.323903 -41.96 
L 87.481906 -41.96 
L 86.639908 -41.96 
L 85.797911 -41.96 
L 84.955913 -41.96 
L 84.113916 -41.96 
L 83.271919 -41.96 
L 82.429921 -41.96 
L 81.587924 -41.96 
L 80.745927 -41.96 
L 79.903929 -41.96 
L 79.061932 -41.96 
L 78.219934 -41.96 
L 77.377937 -41.96 
L 76.53594 -41.96 
L 75.693942 -41.96 
L 74.851945 -41.96 
L 74.009948 -41.96 
L 73.16795 -41.96 
L 72.325953 -41.96 
L 71.483955 -41.96 
L 70.641958 -41.96 
L 69.799961 -41.96 
L 68.957963 -41.96 
L 68.115966 -41.96 
L 67.273969 -41.96 
L 66.431971 -41.96 
L 65.589974 -41.96 
L 64.747976 -41.96 
L 63.905979 -41.96 
L 63.063982 -41.96 
L 62.221984 -41.96 
L 61.379987 -41.96 
L 60.53799 -41.96 
L 59.695992 -41.96 
L 58.853995 -41.96 
L 58.011997 -41.96 
L 57.17 -41.96 
z
" style="stroke: #0000ff; stroke-opacity: 0.4"/>
    </defs>
    <g clip-path="url(#p99e2a33403)">
     <use xlink:href="#mcd8e20d054" x="0" y="648" style="fill: #0000ff; fill-opacity: 0.4; stroke: #0000ff; stroke-opacity: 0.4"/>
    </g>
   </g>
   <g id="matplotlib.axis_5">
    <g id="xtick_13">
     <g id="line2d_27">
      <g>
       <use xlink:href="#m55948dc613" x="57.17" y="606.04" style="stroke: #000000; stroke-width: 0.8"/>
      </g>
     </g>
     <g id="text_29">
      <!-- 0 -->
      <g transform="translate(53.98875 620.638438) scale(0.1 -0.1)">
       <use xlink:href="#DejaVuSans-30"/>
      </g>
     </g>
    </g>
    <g id="xtick_14">
     <g id="line2d_28">
      <g>
       <use xlink:href="#m55948dc613" x="99.269869" y="606.04" style="stroke: #000000; stroke-width: 0.8"/>
      </g>
     </g>
     <g id="text_30">
      <!-- 50 -->
      <g transform="translate(92.907369 620.638438) scale(0.1 -0.1)">
       <use xlink:href="#DejaVuSans-35"/>
       <use xlink:href="#DejaVuSans-30" x="63.623047"/>
      </g>
     </g>
    </g>
    <g id="xtick_15">
     <g id="line2d_29">
      <g>
       <use xlink:href="#m55948dc613" x="141.369738" y="606.04" style="stroke: #000000; stroke-width: 0.8"/>
      </g>
     </g>
     <g id="text_31">
      <!-- 100 -->
      <g transform="translate(131.825988 620.638438) scale(0.1 -0.1)">
       <use xlink:href="#DejaVuSans-31"/>
       <use xlink:href="#DejaVuSans-30" x="63.623047"/>
       <use xlink:href="#DejaVuSans-30" x="127.246094"/>
      </g>
     </g>
    </g>
    <g id="xtick_16">
     <g id="line2d_30">
      <g>
       <use xlink:href="#m55948dc613" x="183.469606" y="606.04" style="stroke: #000000; stroke-width: 0.8"/>
      </g>
     </g>
     <g id="text_32">
      <!-- 150 -->
      <g transform="translate(173.925856 620.638438) scale(0.1 -0.1)">
       <use xlink:href="#DejaVuSans-31"/>
       <use xlink:href="#DejaVuSans-35" x="63.623047"/>
       <use xlink:href="#DejaVuSans-30" x="127.246094"/>
      </g>
     </g>
    </g>
    <g id="xtick_17">
     <g id="line2d_31">
      <g>
       <use xlink:href="#m55948dc613" x="225.569475" y="606.04" style="stroke: #000000; stroke-width: 0.8"/>
      </g>
     </g>
     <g id="text_33">
      <!-- 200 -->
      <g transform="translate(216.025725 620.638438) scale(0.1 -0.1)">
       <use xlink:href="#DejaVuSans-32"/>
       <use xlink:href="#DejaVuSans-30" x="63.623047"/>
       <use xlink:href="#DejaVuSans-30" x="127.246094"/>
      </g>
     </g>
    </g>
    <g id="xtick_18">
     <g id="line2d_32">
      <g>
       <use xlink:href="#m55948dc613" x="267.669344" y="606.04" style="stroke: #000000; stroke-width: 0.8"/>
      </g>
     </g>
     <g id="text_34">
      <!-- 250 -->
      <g transform="translate(258.125594 620.638438) scale(0.1 -0.1)">
       <use xlink:href="#DejaVuSans-32"/>
       <use xlink:href="#DejaVuSans-35" x="63.623047"/>
       <use xlink:href="#DejaVuSans-30" x="127.246094"/>
      </g>
     </g>
    </g>
    <g id="text_35">
     <!-- Pixel Intensity -->
     <g transform="translate(130.033945 634.316563) scale(0.1 -0.1)">
      <defs>
       <path id="DejaVuSans-49" d="M 628 4666 
L 1259 4666 
L 1259 0 
L 628 0 
L 628 4666 
z
" transform="scale(0.015625)"/>
       <path id="DejaVuSans-74" d="M 1172 4494 
L 1172 3500 
L 2356 3500 
L 2356 3053 
L 1172 3053 
L 1172 1153 
Q 1172 725 1289 603 
Q 1406 481 1766 481 
L 2356 481 
L 2356 0 
L 1766 0 
Q 1100 0 847 248 
Q 594 497 594 1153 
L 594 3053 
L 172 3053 
L 172 3500 
L 594 3500 
L 594 4494 
L 1172 4494 
z
" transform="scale(0.015625)"/>
       <path id="DejaVuSans-73" d="M 2834 3397 
L 2834 2853 
Q 2591 2978 2328 3040 
Q 2066 3103 1784 3103 
Q 1356 3103 1142 2972 
Q 928 2841 928 2578 
Q 928 2378 1081 2264 
Q 1234 2150 1697 2047 
L 1894 2003 
Q 2506 1872 2764 1633 
Q 3022 1394 3022 966 
Q 3022 478 2636 193 
Q 2250 -91 1575 -91 
Q 1294 -91 989 -36 
Q 684 19 347 128 
L 347 722 
Q 666 556 975 473 
Q 1284 391 1588 391 
Q 1994 391 2212 530 
Q 2431 669 2431 922 
Q 2431 1156 2273 1281 
Q 2116 1406 1581 1522 
L 1381 1569 
Q 847 1681 609 1914 
Q 372 2147 372 2553 
Q 372 3047 722 3315 
Q 1072 3584 1716 3584 
Q 2034 3584 2315 3537 
Q 2597 3491 2834 3397 
z
" transform="scale(0.015625)"/>
      </defs>
      <use xlink:href="#DejaVuSans-50"/>
      <use xlink:href="#DejaVuSans-69" x="58.052734"/>
      <use xlink:href="#DejaVuSans-78" x="85.835938"/>
      <use xlink:href="#DejaVuSans-65" x="141.890625"/>
      <use xlink:href="#DejaVuSans-6c" x="203.414062"/>
      <use xlink:href="#DejaVuSans-20" x="231.197266"/>
      <use xlink:href="#DejaVuSans-49" x="262.984375"/>
      <use xlink:href="#DejaVuSans-6e" x="292.476562"/>
      <use xlink:href="#DejaVuSans-74" x="355.855469"/>
      <use xlink:href="#DejaVuSans-65" x="395.064453"/>
      <use xlink:href="#DejaVuSans-6e" x="456.587891"/>
      <use xlink:href="#DejaVuSans-73" x="519.966797"/>
      <use xlink:href="#DejaVuSans-69" x="572.066406"/>
      <use xlink:href="#DejaVuSans-74" x="599.849609"/>
      <use xlink:href="#DejaVuSans-79" x="639.058594"/>
     </g>
    </g>
   </g>
   <g id="matplotlib.axis_6">
    <g id="ytick_13">
     <g id="line2d_33">
      <g>
       <use xlink:href="#mc54d52e68d" x="57.17" y="606.04" style="stroke: #000000; stroke-width: 0.8"/>
      </g>
     </g>
     <g id="text_36">
      <!-- 0 -->
      <g transform="translate(43.8075 609.839219) scale(0.1 -0.1)">
       <use xlink:href="#DejaVuSans-30"/>
      </g>
     </g>
    </g>
    <g id="ytick_14">
     <g id="line2d_34">
      <g>
       <use xlink:href="#mc54d52e68d" x="57.17" y="574.55774" style="stroke: #000000; stroke-width: 0.8"/>
      </g>
     </g>
     <g id="text_37">
      <!-- 500 -->
      <g transform="translate(31.0825 578.356959) scale(0.1 -0.1)">
       <use xlink:href="#DejaVuSans-35"/>
       <use xlink:href="#DejaVuSans-30" x="63.623047"/>
       <use xlink:href="#DejaVuSans-30" x="127.246094"/>
      </g>
     </g>
    </g>
    <g id="ytick_15">
     <g id="line2d_35">
      <g>
       <use xlink:href="#mc54d52e68d" x="57.17" y="543.075481" style="stroke: #000000; stroke-width: 0.8"/>
      </g>
     </g>
     <g id="text_38">
      <!-- 1000 -->
      <g transform="translate(24.72 546.8747) scale(0.1 -0.1)">
       <use xlink:href="#DejaVuSans-31"/>
       <use xlink:href="#DejaVuSans-30" x="63.623047"/>
       <use xlink:href="#DejaVuSans-30" x="127.246094"/>
       <use xlink:href="#DejaVuSans-30" x="190.869141"/>
      </g>
     </g>
    </g>
    <g id="ytick_16">
     <g id="line2d_36">
      <g>
       <use xlink:href="#mc54d52e68d" x="57.17" y="511.593221" style="stroke: #000000; stroke-width: 0.8"/>
      </g>
     </g>
     <g id="text_39">
      <!-- 1500 -->
      <g transform="translate(24.72 515.39244) scale(0.1 -0.1)">
       <use xlink:href="#DejaVuSans-31"/>
       <use xlink:href="#DejaVuSans-35" x="63.623047"/>
       <use xlink:href="#DejaVuSans-30" x="127.246094"/>
       <use xlink:href="#DejaVuSans-30" x="190.869141"/>
      </g>
     </g>
    </g>
    <g id="ytick_17">
     <g id="line2d_37">
      <g>
       <use xlink:href="#mc54d52e68d" x="57.17" y="480.110962" style="stroke: #000000; stroke-width: 0.8"/>
      </g>
     </g>
     <g id="text_40">
      <!-- 2000 -->
      <g transform="translate(24.72 483.91018) scale(0.1 -0.1)">
       <use xlink:href="#DejaVuSans-32"/>
       <use xlink:href="#DejaVuSans-30" x="63.623047"/>
       <use xlink:href="#DejaVuSans-30" x="127.246094"/>
       <use xlink:href="#DejaVuSans-30" x="190.869141"/>
      </g>
     </g>
    </g>
    <g id="ytick_18">
     <g id="line2d_38">
      <g>
       <use xlink:href="#mc54d52e68d" x="57.17" y="448.628702" style="stroke: #000000; stroke-width: 0.8"/>
      </g>
     </g>
     <g id="text_41">
      <!-- 2500 -->
      <g transform="translate(24.72 452.427921) scale(0.1 -0.1)">
       <use xlink:href="#DejaVuSans-32"/>
       <use xlink:href="#DejaVuSans-35" x="63.623047"/>
       <use xlink:href="#DejaVuSans-30" x="127.246094"/>
       <use xlink:href="#DejaVuSans-30" x="190.869141"/>
      </g>
     </g>
    </g>
    <g id="text_42">
     <!-- Pixel Frequency -->
     <g transform="translate(18.640313 555.105573) rotate(-90) scale(0.1 -0.1)">
      <use xlink:href="#DejaVuSans-50"/>
      <use xlink:href="#DejaVuSans-69" x="58.052734"/>
      <use xlink:href="#DejaVuSans-78" x="85.835938"/>
      <use xlink:href="#DejaVuSans-65" x="141.890625"/>
      <use xlink:href="#DejaVuSans-6c" x="203.414062"/>
      <use xlink:href="#DejaVuSans-20" x="231.197266"/>
      <use xlink:href="#DejaVuSans-46" x="262.984375"/>
      <use xlink:href="#DejaVuSans-72" x="313.253906"/>
      <use xlink:href="#DejaVuSans-65" x="352.117188"/>
      <use xlink:href="#DejaVuSans-71" x="413.640625"/>
      <use xlink:href="#DejaVuSans-75" x="477.117188"/>
      <use xlink:href="#DejaVuSans-65" x="540.496094"/>
      <use xlink:href="#DejaVuSans-6e" x="602.019531"/>
      <use xlink:href="#DejaVuSans-63" x="665.398438"/>
      <use xlink:href="#DejaVuSans-79" x="720.378906"/>
     </g>
    </g>
   </g>
   <g id="line2d_39">
    <path d="M 57.17 606.04 
L 70.641958 606.04 
L 71.483955 605.914071 
L 72.325953 605.914071 
L 73.16795 606.04 
L 74.009948 605.977035 
L 75.693942 604.843674 
L 76.53594 604.402923 
L 77.377937 602.1362 
L 78.219934 601.128768 
L 79.061932 598.295364 
L 79.903929 593.824883 
L 80.745927 586.898786 
L 81.587924 572.794734 
L 83.271919 538.982787 
L 84.113916 519.211928 
L 84.955913 507.059776 
L 85.797911 490.81493 
L 86.639908 483.133259 
L 87.481906 481.811004 
L 88.323903 491.50754 
L 89.1659 498.496601 
L 90.007898 507.311634 
L 90.849895 513.356228 
L 91.691892 525.382451 
L 92.53389 526.075061 
L 93.375887 535.897526 
L 94.217885 537.471639 
L 95.059882 540.682829 
L 95.901879 541.81619 
L 96.743877 545.468133 
L 97.585874 549.812684 
L 98.427871 552.331265 
L 99.269869 554.220201 
L 100.111866 553.968343 
L 100.953864 555.353562 
L 101.795861 556.99064 
L 102.637858 565.301956 
L 103.479856 565.176027 
L 104.321853 564.861204 
L 106.005848 572.416947 
L 106.847845 572.60584 
L 107.689843 574.368847 
L 108.53184 574.998492 
L 109.373837 577.89486 
L 110.215835 579.217115 
L 111.057832 581.169015 
L 111.899829 582.806092 
L 112.741827 581.672731 
L 113.583824 584.632063 
L 114.425822 584.128347 
L 115.267819 585.13578 
L 116.109816 585.13578 
L 116.951814 588.221041 
L 117.793811 588.724757 
L 118.635808 590.047012 
L 119.477806 589.606261 
L 120.319803 588.787722 
L 121.161801 590.676657 
L 122.003798 589.480331 
L 122.845795 590.487764 
L 123.687793 591.810019 
L 124.52979 593.761919 
L 125.371787 592.628557 
L 127.055782 594.454528 
L 127.89778 593.384132 
L 128.739777 592.94338 
L 129.581774 592.94338 
L 130.423772 593.132274 
L 131.265769 594.832316 
L 132.107766 594.139706 
L 132.949764 594.706387 
L 133.791761 594.643422 
L 134.633759 595.58789 
L 135.475756 595.776783 
L 136.317753 594.643422 
L 138.843745 597.036074 
L 139.685743 596.784216 
L 140.52774 598.169435 
L 141.369738 597.728683 
L 142.211735 597.791648 
L 143.053732 598.673151 
L 143.89573 598.79908 
L 144.737727 599.680584 
L 145.579724 599.239832 
L 146.421722 599.050938 
L 147.263719 599.932442 
L 148.105717 599.176867 
L 148.947714 598.736116 
L 149.789711 599.365761 
L 150.631709 599.428725 
L 151.473706 599.239832 
L 153.999698 600.562087 
L 155.683693 599.743548 
L 156.52569 601.002838 
L 157.367688 600.813945 
L 158.209685 600.813945 
L 159.051682 600.247264 
L 159.89368 601.380626 
L 160.735677 601.317661 
L 161.577675 600.625051 
L 162.419672 601.317661 
L 163.261669 601.128768 
L 164.103667 600.562087 
L 164.945664 600.1843 
L 165.787661 601.002838 
L 167.471656 602.073235 
L 168.313654 601.191732 
L 169.997648 601.569519 
L 172.52364 601.821377 
L 173.365638 601.947306 
L 174.207635 602.388058 
L 175.049633 602.451022 
L 175.89163 602.639916 
L 176.733627 603.017703 
L 177.575625 603.080668 
L 178.417622 601.758413 
L 179.259619 602.891774 
L 180.101617 603.332526 
L 180.943614 603.206597 
L 181.785612 603.458455 
L 182.627609 603.080668 
L 183.469606 603.206597 
L 184.311604 603.521419 
L 185.153601 603.458455 
L 185.995598 604.0881 
L 186.837596 603.458455 
L 187.679593 603.647348 
L 188.521591 604.465887 
L 189.363588 604.339958 
L 190.205585 604.025135 
L 191.047583 604.528852 
L 191.88958 604.591816 
L 192.731577 604.843674 
L 193.573575 604.402923 
L 194.415572 603.836242 
L 195.25757 605.095532 
L 196.941564 604.654781 
L 197.783562 604.843674 
L 198.625559 604.465887 
L 199.467556 605.032568 
L 201.151551 605.032568 
L 201.993549 605.221461 
L 202.835546 605.095532 
L 204.519541 605.410355 
L 205.361538 605.032568 
L 206.203535 605.473319 
L 207.045533 604.969603 
L 207.88753 605.599248 
L 209.571525 605.284426 
L 210.413522 605.158497 
L 211.25552 605.851106 
L 212.097517 605.284426 
L 213.781512 605.473319 
L 214.623509 605.725177 
L 215.465507 605.536284 
L 216.307504 605.977035 
L 217.149501 605.473319 
L 218.833496 605.599248 
L 219.675493 605.851106 
L 220.517491 605.599248 
L 221.359488 605.473319 
L 222.201486 605.473319 
L 223.043483 605.788142 
L 223.88548 605.662213 
L 224.727478 605.725177 
L 225.569475 605.977035 
L 226.411472 605.788142 
L 228.095467 605.725177 
L 229.779462 605.788142 
L 230.621459 605.662213 
L 232.305454 605.977035 
L 233.147451 605.725177 
L 233.989449 605.914071 
L 234.831446 605.914071 
L 235.673444 605.662213 
L 236.515441 605.851106 
L 238.199436 605.662213 
L 239.041433 605.851106 
L 243.25142 605.914071 
L 244.093417 605.725177 
L 245.777412 605.662213 
L 246.619409 606.04 
L 271.879331 606.04 
L 271.879331 606.04 
" clip-path="url(#p99e2a33403)" style="fill: none; stroke: #0000ff; stroke-width: 1.5; stroke-linecap: square"/>
   </g>
   <g id="patch_13">
    <path d="M 57.17 606.04 
L 57.17 426.213333 
" style="fill: none; stroke: #000000; stroke-width: 0.8; stroke-linejoin: miter; stroke-linecap: square"/>
   </g>
   <g id="patch_14">
    <path d="M 272.721328 606.04 
L 272.721328 426.213333 
" style="fill: none; stroke: #000000; stroke-width: 0.8; stroke-linejoin: miter; stroke-linecap: square"/>
   </g>
   <g id="patch_15">
    <path d="M 57.17 606.04 
L 272.721328 606.04 
" style="fill: none; stroke: #000000; stroke-width: 0.8; stroke-linejoin: miter; stroke-linecap: square"/>
   </g>
   <g id="patch_16">
    <path d="M 57.17 426.213333 
L 272.721328 426.213333 
" style="fill: none; stroke: #000000; stroke-width: 0.8; stroke-linejoin: miter; stroke-linecap: square"/>
   </g>
   <g id="text_43">
    <!-- Blue Channel  -->
    <g transform="translate(189.272578 440.213333) scale(0.12 -0.12)">
     <defs>
      <path id="DejaVuSans-42" d="M 1259 2228 
L 1259 519 
L 2272 519 
Q 2781 519 3026 730 
Q 3272 941 3272 1375 
Q 3272 1813 3026 2020 
Q 2781 2228 2272 2228 
L 1259 2228 
z
M 1259 4147 
L 1259 2741 
L 2194 2741 
Q 2656 2741 2882 2914 
Q 3109 3088 3109 3444 
Q 3109 3797 2882 3972 
Q 2656 4147 2194 4147 
L 1259 4147 
z
M 628 4666 
L 2241 4666 
Q 2963 4666 3353 4366 
Q 3744 4066 3744 3513 
Q 3744 3084 3544 2831 
Q 3344 2578 2956 2516 
Q 3422 2416 3680 2098 
Q 3938 1781 3938 1306 
Q 3938 681 3513 340 
Q 3088 0 2303 0 
L 628 0 
L 628 4666 
z
" transform="scale(0.015625)"/>
     </defs>
     <use xlink:href="#DejaVuSans-42"/>
     <use xlink:href="#DejaVuSans-6c" x="68.603516"/>
     <use xlink:href="#DejaVuSans-75" x="96.386719"/>
     <use xlink:href="#DejaVuSans-65" x="159.765625"/>
     <use xlink:href="#DejaVuSans-20" x="221.289062"/>
     <use xlink:href="#DejaVuSans-43" x="253.076172"/>
     <use xlink:href="#DejaVuSans-68" x="322.900391"/>
     <use xlink:href="#DejaVuSans-61" x="386.279297"/>
     <use xlink:href="#DejaVuSans-6e" x="447.558594"/>
     <use xlink:href="#DejaVuSans-6e" x="510.9375"/>
     <use xlink:href="#DejaVuSans-65" x="574.316406"/>
     <use xlink:href="#DejaVuSans-6c" x="635.839844"/>
     <use xlink:href="#DejaVuSans-20" x="663.623047"/>
    </g>
   </g>
  </g>
 </g>
 <defs>
  <clipPath id="pb019c0d146">
   <rect x="57.17" y="10.8" width="215.551328" height="179.826667"/>
  </clipPath>
  <clipPath id="pafdcfcc2c5">
   <rect x="57.17" y="218.506667" width="215.551328" height="179.826667"/>
  </clipPath>
  <clipPath id="p99e2a33403">
   <rect x="57.17" y="426.213333" width="215.551328" height="179.826667"/>
  </clipPath>
 </defs>
</svg>
