<?xml version="1.0" encoding="utf-8" standalone="no"?>
<!DOCTYPE svg PUBLIC "-//W3C//DTD SVG 1.1//EN"
  "http://www.w3.org/Graphics/SVG/1.1/DTD/svg11.dtd">
<svg xmlns:xlink="http://www.w3.org/1999/xlink" width="288pt" height="648pt" viewBox="0 0 288 648" xmlns="http://www.w3.org/2000/svg" version="1.1">
 <metadata>
  <rdf:RDF xmlns:dc="http://purl.org/dc/elements/1.1/" xmlns:cc="http://creativecommons.org/ns#" xmlns:rdf="http://www.w3.org/1999/02/22-rdf-syntax-ns#">
   <cc:Work>
    <dc:type rdf:resource="http://purl.org/dc/dcmitype/StillImage"/>
    <dc:date>2023-11-18T15:18:15.994312</dc:date>
    <dc:format>image/svg+xml</dc:format>
    <dc:creator>
     <cc:Agent>
      <dc:title>Matplotlib v3.8.0, https://matplotlib.org/</dc:title>
     </cc:Agent>
    </dc:creator>
   </cc:Work>
  </rdf:RDF>
 </metadata>
 <defs>
  <style type="text/css">*{stroke-linejoin: round; stroke-linecap: butt}</style>
 </defs>
 <g id="figure_1">
  <g id="patch_1">
   <path d="M 0 648 
L 288 648 
L 288 0 
L 0 0 
z
" style="fill: #ffffff"/>
  </g>
  <g id="axes_1">
   <g id="patch_2">
    <path d="M 57.26 190.626667 
L 272.719219 190.626667 
L 272.719219 11.636612 
L 57.26 11.636612 
z
" style="fill: #ffffff"/>
   </g>
   <g id="PolyCollection_1">
    <defs>
     <path id="mf5ef9d59a0" d="M 57.26 -457.373333 
L 57.26 -458.252891 
L 58.101638 -458.472781 
L 58.943275 -457.593223 
L 59.784913 -457.813112 
L 60.62655 -457.703168 
L 61.468188 -457.483278 
L 62.309825 -457.483278 
L 63.151463 -457.813112 
L 63.993101 -457.483278 
L 64.834738 -457.373333 
L 65.676376 -457.483278 
L 66.518013 -457.373333 
L 67.359651 -457.483278 
L 68.201288 -457.373333 
L 69.042926 -457.373333 
L 69.884564 -457.373333 
L 70.726201 -457.373333 
L 71.567839 -457.373333 
L 72.409476 -457.373333 
L 73.251114 -457.373333 
L 74.092751 -457.373333 
L 74.934389 -457.373333 
L 75.776027 -457.373333 
L 76.617664 -457.373333 
L 77.459302 -457.373333 
L 78.300939 -457.373333 
L 79.142577 -457.373333 
L 79.984214 -457.373333 
L 80.825852 -457.373333 
L 81.66749 -457.373333 
L 82.509127 -457.373333 
L 83.350765 -457.373333 
L 84.192402 -457.373333 
L 85.03404 -457.373333 
L 85.875677 -457.373333 
L 86.717315 -457.483278 
L 87.558953 -457.373333 
L 88.40059 -457.483278 
L 89.242228 -457.373333 
L 90.083865 -457.483278 
L 90.925503 -457.813112 
L 91.767141 -457.483278 
L 92.608778 -457.813112 
L 93.450416 -458.362836 
L 94.292053 -458.69267 
L 95.133691 -459.352339 
L 95.975328 -459.022505 
L 96.816966 -460.231897 
L 97.658604 -460.341842 
L 98.500241 -461.00151 
L 99.341879 -465.069466 
L 100.183516 -467.158416 
L 101.025154 -469.027477 
L 101.866791 -474.744604 
L 102.708429 -474.524715 
L 103.550067 -473.974991 
L 104.391704 -477.383278 
L 105.233342 -482.880516 
L 106.074979 -482.440737 
L 106.916617 -485.958969 
L 107.758254 -485.629134 
L 108.599892 -489.477201 
L 109.44153 -497.283278 
L 110.283167 -494.09488 
L 111.124805 -497.063389 
L 111.966442 -495.963941 
L 112.80808 -502.230792 
L 113.649717 -503.11035 
L 114.491355 -504.209797 
L 115.332993 -504.759521 
L 116.17463 -511.68604 
L 117.016268 -513.005377 
L 117.857905 -518.39267 
L 118.699543 -527.18825 
L 119.54118 -527.518085 
L 120.382818 -529.49709 
L 121.224456 -534.224714 
L 122.066093 -540.491565 
L 122.907731 -543.130239 
L 123.749368 -546.538527 
L 124.591006 -549.946814 
L 125.432643 -551.046261 
L 126.274281 -556.653444 
L 127.115919 -557.313112 
L 127.957556 -561.491013 
L 128.799194 -556.653444 
L 129.640831 -560.831344 
L 130.482469 -556.983278 
L 131.324106 -554.894328 
L 132.165744 -550.936317 
L 133.007382 -552.255654 
L 133.849019 -552.475543 
L 134.690657 -544.229687 
L 135.532294 -551.376096 
L 136.373932 -548.407587 
L 137.215569 -549.39709 
L 138.057207 -539.282173 
L 138.898845 -540.271676 
L 139.740482 -537.962836 
L 140.58212 -533.235212 
L 141.423757 -534.884383 
L 142.265395 -530.926372 
L 143.107032 -528.177753 
L 143.94867 -531.80593 
L 144.790308 -524.219742 
L 145.631945 -528.727477 
L 146.473583 -526.858416 
L 147.31522 -523.999853 
L 148.156858 -525.209245 
L 148.998495 -518.942394 
L 149.840133 -523.450129 
L 150.681771 -523.120295 
L 151.523408 -519.712007 
L 152.365046 -520.591565 
L 153.206683 -517.842946 
L 154.048321 -515.204272 
L 154.889958 -513.665046 
L 155.731596 -513.115322 
L 156.573234 -508.717532 
L 157.414871 -506.298748 
L 158.256509 -502.670571 
L 159.098146 -506.188803 
L 159.939784 -497.723057 
L 160.781422 -500.251786 
L 161.623059 -498.602615 
L 162.464697 -490.686593 
L 163.306334 -492.00593 
L 164.147972 -490.576648 
L 164.989609 -488.047919 
L 165.831247 -486.068913 
L 166.672885 -484.089908 
L 167.514522 -483.979963 
L 168.35616 -486.948471 
L 169.197797 -482.110902 
L 170.039435 -478.372781 
L 170.881072 -481.451234 
L 171.72271 -478.372781 
L 172.564348 -480.791565 
L 173.405985 -475.734107 
L 174.247623 -480.021952 
L 175.08926 -475.514217 
L 175.930898 -475.953996 
L 176.772535 -474.084936 
L 177.614173 -474.524715 
L 178.455811 -474.41477 
L 179.297448 -474.524715 
L 180.139086 -473.205378 
L 180.980723 -473.755101 
L 181.822361 -473.315322 
L 182.663998 -471.336317 
L 183.505636 -471.556206 
L 184.347274 -471.556206 
L 185.188911 -469.247366 
L 186.030549 -468.587698 
L 186.872186 -468.147919 
L 187.713824 -468.367808 
L 188.555461 -467.378306 
L 189.397099 -467.598195 
L 190.238737 -464.519742 
L 191.080374 -464.959521 
L 191.922012 -463.750129 
L 192.763649 -464.299853 
L 193.605287 -464.299853 
L 194.446924 -465.3993 
L 195.288562 -464.079963 
L 196.1302 -463.750129 
L 196.971837 -463.31035 
L 197.813475 -461.881068 
L 198.655112 -462.760626 
L 199.49675 -461.881068 
L 200.338387 -462.320847 
L 201.180025 -462.650681 
L 202.021663 -460.561731 
L 202.8633 -460.451786 
L 203.704938 -459.682173 
L 204.546575 -459.902063 
L 205.388213 -460.121952 
L 206.22985 -459.572228 
L 207.071488 -459.242394 
L 207.913126 -459.572228 
L 208.754763 -459.242394 
L 209.596401 -458.69267 
L 210.438038 -459.242394 
L 211.279676 -458.582726 
L 212.121313 -458.69267 
L 212.962951 -458.91256 
L 213.804589 -459.022505 
L 214.646226 -458.472781 
L 215.487864 -458.472781 
L 216.329501 -458.582726 
L 217.171139 -458.362836 
L 218.012776 -458.582726 
L 218.854414 -459.022505 
L 219.696052 -458.472781 
L 220.537689 -458.362836 
L 221.379327 -458.142947 
L 222.220964 -458.472781 
L 223.062602 -458.69267 
L 223.90424 -458.252891 
L 224.745877 -458.582726 
L 225.587515 -458.582726 
L 226.429152 -458.252891 
L 227.27079 -458.362836 
L 228.112427 -458.362836 
L 228.954065 -458.362836 
L 229.795703 -457.703168 
L 230.63734 -458.142947 
L 231.478978 -458.142947 
L 232.320615 -457.813112 
L 233.162253 -458.362836 
L 234.00389 -458.252891 
L 234.845528 -458.033002 
L 235.687166 -457.813112 
L 236.528803 -457.593223 
L 237.370441 -457.593223 
L 238.212078 -458.252891 
L 239.053716 -457.703168 
L 239.895353 -458.142947 
L 240.736991 -458.252891 
L 241.578629 -457.923057 
L 242.420266 -458.362836 
L 243.261904 -457.813112 
L 244.103541 -458.252891 
L 244.945179 -458.142947 
L 245.786816 -457.813112 
L 246.628454 -458.033002 
L 247.470092 -457.703168 
L 248.311729 -457.703168 
L 249.153367 -458.472781 
L 249.995004 -458.252891 
L 250.836642 -458.033002 
L 251.678279 -457.813112 
L 252.519917 -457.813112 
L 253.361555 -457.813112 
L 254.203192 -458.582726 
L 255.04483 -458.252891 
L 255.886467 -458.033002 
L 256.728105 -458.362836 
L 257.569742 -458.472781 
L 258.41138 -457.703168 
L 259.253018 -458.033002 
L 260.094655 -458.69267 
L 260.936293 -458.252891 
L 261.77793 -457.923057 
L 262.619568 -457.813112 
L 263.461205 -458.362836 
L 264.302843 -458.252891 
L 265.144481 -458.033002 
L 265.986118 -458.142947 
L 266.827756 -458.802615 
L 267.669393 -458.033002 
L 268.511031 -458.252891 
L 269.352668 -458.582726 
L 270.194306 -458.142947 
L 271.035944 -458.362836 
L 271.877581 -458.69267 
L 271.877581 -457.373333 
L 271.877581 -457.373333 
L 271.035944 -457.373333 
L 270.194306 -457.373333 
L 269.352668 -457.373333 
L 268.511031 -457.373333 
L 267.669393 -457.373333 
L 266.827756 -457.373333 
L 265.986118 -457.373333 
L 265.144481 -457.373333 
L 264.302843 -457.373333 
L 263.461205 -457.373333 
L 262.619568 -457.373333 
L 261.77793 -457.373333 
L 260.936293 -457.373333 
L 260.094655 -457.373333 
L 259.253018 -457.373333 
L 258.41138 -457.373333 
L 257.569742 -457.373333 
L 256.728105 -457.373333 
L 255.886467 -457.373333 
L 255.04483 -457.373333 
L 254.203192 -457.373333 
L 253.361555 -457.373333 
L 252.519917 -457.373333 
L 251.678279 -457.373333 
L 250.836642 -457.373333 
L 249.995004 -457.373333 
L 249.153367 -457.373333 
L 248.311729 -457.373333 
L 247.470092 -457.373333 
L 246.628454 -457.373333 
L 245.786816 -457.373333 
L 244.945179 -457.373333 
L 244.103541 -457.373333 
L 243.261904 -457.373333 
L 242.420266 -457.373333 
L 241.578629 -457.373333 
L 240.736991 -457.373333 
L 239.895353 -457.373333 
L 239.053716 -457.373333 
L 238.212078 -457.373333 
L 237.370441 -457.373333 
L 236.528803 -457.373333 
L 235.687166 -457.373333 
L 234.845528 -457.373333 
L 234.00389 -457.373333 
L 233.162253 -457.373333 
L 232.320615 -457.373333 
L 231.478978 -457.373333 
L 230.63734 -457.373333 
L 229.795703 -457.373333 
L 228.954065 -457.373333 
L 228.112427 -457.373333 
L 227.27079 -457.373333 
L 226.429152 -457.373333 
L 225.587515 -457.373333 
L 224.745877 -457.373333 
L 223.90424 -457.373333 
L 223.062602 -457.373333 
L 222.220964 -457.373333 
L 221.379327 -457.373333 
L 220.537689 -457.373333 
L 219.696052 -457.373333 
L 218.854414 -457.373333 
L 218.012776 -457.373333 
L 217.171139 -457.373333 
L 216.329501 -457.373333 
L 215.487864 -457.373333 
L 214.646226 -457.373333 
L 213.804589 -457.373333 
L 212.962951 -457.373333 
L 212.121313 -457.373333 
L 211.279676 -457.373333 
L 210.438038 -457.373333 
L 209.596401 -457.373333 
L 208.754763 -457.373333 
L 207.913126 -457.373333 
L 207.071488 -457.373333 
L 206.22985 -457.373333 
L 205.388213 -457.373333 
L 204.546575 -457.373333 
L 203.704938 -457.373333 
L 202.8633 -457.373333 
L 202.021663 -457.373333 
L 201.180025 -457.373333 
L 200.338387 -457.373333 
L 199.49675 -457.373333 
L 198.655112 -457.373333 
L 197.813475 -457.373333 
L 196.971837 -457.373333 
L 196.1302 -457.373333 
L 195.288562 -457.373333 
L 194.446924 -457.373333 
L 193.605287 -457.373333 
L 192.763649 -457.373333 
L 191.922012 -457.373333 
L 191.080374 -457.373333 
L 190.238737 -457.373333 
L 189.397099 -457.373333 
L 188.555461 -457.373333 
L 187.713824 -457.373333 
L 186.872186 -457.373333 
L 186.030549 -457.373333 
L 185.188911 -457.373333 
L 184.347274 -457.373333 
L 183.505636 -457.373333 
L 182.663998 -457.373333 
L 181.822361 -457.373333 
L 180.980723 -457.373333 
L 180.139086 -457.373333 
L 179.297448 -457.373333 
L 178.455811 -457.373333 
L 177.614173 -457.373333 
L 176.772535 -457.373333 
L 175.930898 -457.373333 
L 175.08926 -457.373333 
L 174.247623 -457.373333 
L 173.405985 -457.373333 
L 172.564348 -457.373333 
L 171.72271 -457.373333 
L 170.881072 -457.373333 
L 170.039435 -457.373333 
L 169.197797 -457.373333 
L 168.35616 -457.373333 
L 167.514522 -457.373333 
L 166.672885 -457.373333 
L 165.831247 -457.373333 
L 164.989609 -457.373333 
L 164.147972 -457.373333 
L 163.306334 -457.373333 
L 162.464697 -457.373333 
L 161.623059 -457.373333 
L 160.781422 -457.373333 
L 159.939784 -457.373333 
L 159.098146 -457.373333 
L 158.256509 -457.373333 
L 157.414871 -457.373333 
L 156.573234 -457.373333 
L 155.731596 -457.373333 
L 154.889958 -457.373333 
L 154.048321 -457.373333 
L 153.206683 -457.373333 
L 152.365046 -457.373333 
L 151.523408 -457.373333 
L 150.681771 -457.373333 
L 149.840133 -457.373333 
L 148.998495 -457.373333 
L 148.156858 -457.373333 
L 147.31522 -457.373333 
L 146.473583 -457.373333 
L 145.631945 -457.373333 
L 144.790308 -457.373333 
L 143.94867 -457.373333 
L 143.107032 -457.373333 
L 142.265395 -457.373333 
L 141.423757 -457.373333 
L 140.58212 -457.373333 
L 139.740482 -457.373333 
L 138.898845 -457.373333 
L 138.057207 -457.373333 
L 137.215569 -457.373333 
L 136.373932 -457.373333 
L 135.532294 -457.373333 
L 134.690657 -457.373333 
L 133.849019 -457.373333 
L 133.007382 -457.373333 
L 132.165744 -457.373333 
L 131.324106 -457.373333 
L 130.482469 -457.373333 
L 129.640831 -457.373333 
L 128.799194 -457.373333 
L 127.957556 -457.373333 
L 127.115919 -457.373333 
L 126.274281 -457.373333 
L 125.432643 -457.373333 
L 124.591006 -457.373333 
L 123.749368 -457.373333 
L 122.907731 -457.373333 
L 122.066093 -457.373333 
L 121.224456 -457.373333 
L 120.382818 -457.373333 
L 119.54118 -457.373333 
L 118.699543 -457.373333 
L 117.857905 -457.373333 
L 117.016268 -457.373333 
L 116.17463 -457.373333 
L 115.332993 -457.373333 
L 114.491355 -457.373333 
L 113.649717 -457.373333 
L 112.80808 -457.373333 
L 111.966442 -457.373333 
L 111.124805 -457.373333 
L 110.283167 -457.373333 
L 109.44153 -457.373333 
L 108.599892 -457.373333 
L 107.758254 -457.373333 
L 106.916617 -457.373333 
L 106.074979 -457.373333 
L 105.233342 -457.373333 
L 104.391704 -457.373333 
L 103.550067 -457.373333 
L 102.708429 -457.373333 
L 101.866791 -457.373333 
L 101.025154 -457.373333 
L 100.183516 -457.373333 
L 99.341879 -457.373333 
L 98.500241 -457.373333 
L 97.658604 -457.373333 
L 96.816966 -457.373333 
L 95.975328 -457.373333 
L 95.133691 -457.373333 
L 94.292053 -457.373333 
L 93.450416 -457.373333 
L 92.608778 -457.373333 
L 91.767141 -457.373333 
L 90.925503 -457.373333 
L 90.083865 -457.373333 
L 89.242228 -457.373333 
L 88.40059 -457.373333 
L 87.558953 -457.373333 
L 86.717315 -457.373333 
L 85.875677 -457.373333 
L 85.03404 -457.373333 
L 84.192402 -457.373333 
L 83.350765 -457.373333 
L 82.509127 -457.373333 
L 81.66749 -457.373333 
L 80.825852 -457.373333 
L 79.984214 -457.373333 
L 79.142577 -457.373333 
L 78.300939 -457.373333 
L 77.459302 -457.373333 
L 76.617664 -457.373333 
L 75.776027 -457.373333 
L 74.934389 -457.373333 
L 74.092751 -457.373333 
L 73.251114 -457.373333 
L 72.409476 -457.373333 
L 71.567839 -457.373333 
L 70.726201 -457.373333 
L 69.884564 -457.373333 
L 69.042926 -457.373333 
L 68.201288 -457.373333 
L 67.359651 -457.373333 
L 66.518013 -457.373333 
L 65.676376 -457.373333 
L 64.834738 -457.373333 
L 63.993101 -457.373333 
L 63.151463 -457.373333 
L 62.309825 -457.373333 
L 61.468188 -457.373333 
L 60.62655 -457.373333 
L 59.784913 -457.373333 
L 58.943275 -457.373333 
L 58.101638 -457.373333 
L 57.26 -457.373333 
z
" style="stroke: #ff0000; stroke-opacity: 0.4"/>
    </defs>
    <g clip-path="url(#p2cfff97e2b)">
     <use xlink:href="#mf5ef9d59a0" x="0" y="648" style="fill: #ff0000; fill-opacity: 0.4; stroke: #ff0000; stroke-opacity: 0.4"/>
    </g>
   </g>
   <g id="matplotlib.axis_1">
    <g id="xtick_1">
     <g id="line2d_1">
      <defs>
       <path id="m6eb3b96b93" d="M 0 0 
L 0 3.5 
" style="stroke: #000000; stroke-width: 0.8"/>
      </defs>
      <g>
       <use xlink:href="#m6eb3b96b93" x="57.26" y="190.626667" style="stroke: #000000; stroke-width: 0.8"/>
      </g>
     </g>
     <g id="text_1">
      <!-- 0 -->
      <g transform="translate(54.07875 205.225104) scale(0.1 -0.1)">
       <defs>
        <path id="DejaVuSans-30" d="M 2034 4250 
Q 1547 4250 1301 3770 
Q 1056 3291 1056 2328 
Q 1056 1369 1301 889 
Q 1547 409 2034 409 
Q 2525 409 2770 889 
Q 3016 1369 3016 2328 
Q 3016 3291 2770 3770 
Q 2525 4250 2034 4250 
z
M 2034 4750 
Q 2819 4750 3233 4129 
Q 3647 3509 3647 2328 
Q 3647 1150 3233 529 
Q 2819 -91 2034 -91 
Q 1250 -91 836 529 
Q 422 1150 422 2328 
Q 422 3509 836 4129 
Q 1250 4750 2034 4750 
z
" transform="scale(0.015625)"/>
       </defs>
       <use xlink:href="#DejaVuSans-30"/>
      </g>
     </g>
    </g>
    <g id="xtick_2">
     <g id="line2d_2">
      <g>
       <use xlink:href="#m6eb3b96b93" x="99.341879" y="190.626667" style="stroke: #000000; stroke-width: 0.8"/>
      </g>
     </g>
     <g id="text_2">
      <!-- 50 -->
      <g transform="translate(92.979379 205.225104) scale(0.1 -0.1)">
       <defs>
        <path id="DejaVuSans-35" d="M 691 4666 
L 3169 4666 
L 3169 4134 
L 1269 4134 
L 1269 2991 
Q 1406 3038 1543 3061 
Q 1681 3084 1819 3084 
Q 2600 3084 3056 2656 
Q 3513 2228 3513 1497 
Q 3513 744 3044 326 
Q 2575 -91 1722 -91 
Q 1428 -91 1123 -41 
Q 819 9 494 109 
L 494 744 
Q 775 591 1075 516 
Q 1375 441 1709 441 
Q 2250 441 2565 725 
Q 2881 1009 2881 1497 
Q 2881 1984 2565 2268 
Q 2250 2553 1709 2553 
Q 1456 2553 1204 2497 
Q 953 2441 691 2322 
L 691 4666 
z
" transform="scale(0.015625)"/>
       </defs>
       <use xlink:href="#DejaVuSans-35"/>
       <use xlink:href="#DejaVuSans-30" x="63.623047"/>
      </g>
     </g>
    </g>
    <g id="xtick_3">
     <g id="line2d_3">
      <g>
       <use xlink:href="#m6eb3b96b93" x="141.423757" y="190.626667" style="stroke: #000000; stroke-width: 0.8"/>
      </g>
     </g>
     <g id="text_3">
      <!-- 100 -->
      <g transform="translate(131.880007 205.225104) scale(0.1 -0.1)">
       <defs>
        <path id="DejaVuSans-31" d="M 794 531 
L 1825 531 
L 1825 4091 
L 703 3866 
L 703 4441 
L 1819 4666 
L 2450 4666 
L 2450 531 
L 3481 531 
L 3481 0 
L 794 0 
L 794 531 
z
" transform="scale(0.015625)"/>
       </defs>
       <use xlink:href="#DejaVuSans-31"/>
       <use xlink:href="#DejaVuSans-30" x="63.623047"/>
       <use xlink:href="#DejaVuSans-30" x="127.246094"/>
      </g>
     </g>
    </g>
    <g id="xtick_4">
     <g id="line2d_4">
      <g>
       <use xlink:href="#m6eb3b96b93" x="183.505636" y="190.626667" style="stroke: #000000; stroke-width: 0.8"/>
      </g>
     </g>
     <g id="text_4">
      <!-- 150 -->
      <g transform="translate(173.961886 205.225104) scale(0.1 -0.1)">
       <use xlink:href="#DejaVuSans-31"/>
       <use xlink:href="#DejaVuSans-35" x="63.623047"/>
       <use xlink:href="#DejaVuSans-30" x="127.246094"/>
      </g>
     </g>
    </g>
    <g id="xtick_5">
     <g id="line2d_5">
      <g>
       <use xlink:href="#m6eb3b96b93" x="225.587515" y="190.626667" style="stroke: #000000; stroke-width: 0.8"/>
      </g>
     </g>
     <g id="text_5">
      <!-- 200 -->
      <g transform="translate(216.043765 205.225104) scale(0.1 -0.1)">
       <defs>
        <path id="DejaVuSans-32" d="M 1228 531 
L 3431 531 
L 3431 0 
L 469 0 
L 469 531 
Q 828 903 1448 1529 
Q 2069 2156 2228 2338 
Q 2531 2678 2651 2914 
Q 2772 3150 2772 3378 
Q 2772 3750 2511 3984 
Q 2250 4219 1831 4219 
Q 1534 4219 1204 4116 
Q 875 4013 500 3803 
L 500 4441 
Q 881 4594 1212 4672 
Q 1544 4750 1819 4750 
Q 2544 4750 2975 4387 
Q 3406 4025 3406 3419 
Q 3406 3131 3298 2873 
Q 3191 2616 2906 2266 
Q 2828 2175 2409 1742 
Q 1991 1309 1228 531 
z
" transform="scale(0.015625)"/>
       </defs>
       <use xlink:href="#DejaVuSans-32"/>
       <use xlink:href="#DejaVuSans-30" x="63.623047"/>
       <use xlink:href="#DejaVuSans-30" x="127.246094"/>
      </g>
     </g>
    </g>
    <g id="xtick_6">
     <g id="line2d_6">
      <g>
       <use xlink:href="#m6eb3b96b93" x="267.669393" y="190.626667" style="stroke: #000000; stroke-width: 0.8"/>
      </g>
     </g>
     <g id="text_6">
      <!-- 250 -->
      <g transform="translate(258.125643 205.225104) scale(0.1 -0.1)">
       <use xlink:href="#DejaVuSans-32"/>
       <use xlink:href="#DejaVuSans-35" x="63.623047"/>
       <use xlink:href="#DejaVuSans-30" x="127.246094"/>
      </g>
     </g>
    </g>
   </g>
   <g id="matplotlib.axis_2">
    <g id="ytick_1">
     <g id="line2d_7">
      <defs>
       <path id="mb909779cf9" d="M 0 0 
L -3.5 0 
" style="stroke: #000000; stroke-width: 0.8"/>
      </defs>
      <g>
       <use xlink:href="#mb909779cf9" x="57.26" y="190.626667" style="stroke: #000000; stroke-width: 0.8"/>
      </g>
     </g>
     <g id="text_7">
      <!-- 0 -->
      <g transform="translate(43.8975 194.425885) scale(0.1 -0.1)">
       <use xlink:href="#DejaVuSans-30"/>
      </g>
     </g>
    </g>
    <g id="ytick_2">
     <g id="line2d_8">
      <g>
       <use xlink:href="#mb909779cf9" x="57.26" y="163.140479" style="stroke: #000000; stroke-width: 0.8"/>
      </g>
     </g>
     <g id="text_8">
      <!-- 250 -->
      <g transform="translate(31.1725 166.939698) scale(0.1 -0.1)">
       <use xlink:href="#DejaVuSans-32"/>
       <use xlink:href="#DejaVuSans-35" x="63.623047"/>
       <use xlink:href="#DejaVuSans-30" x="127.246094"/>
      </g>
     </g>
    </g>
    <g id="ytick_3">
     <g id="line2d_9">
      <g>
       <use xlink:href="#mb909779cf9" x="57.26" y="135.654291" style="stroke: #000000; stroke-width: 0.8"/>
      </g>
     </g>
     <g id="text_9">
      <!-- 500 -->
      <g transform="translate(31.1725 139.45351) scale(0.1 -0.1)">
       <use xlink:href="#DejaVuSans-35"/>
       <use xlink:href="#DejaVuSans-30" x="63.623047"/>
       <use xlink:href="#DejaVuSans-30" x="127.246094"/>
      </g>
     </g>
    </g>
    <g id="ytick_4">
     <g id="line2d_10">
      <g>
       <use xlink:href="#mb909779cf9" x="57.26" y="108.168103" style="stroke: #000000; stroke-width: 0.8"/>
      </g>
     </g>
     <g id="text_10">
      <!-- 750 -->
      <g transform="translate(31.1725 111.967322) scale(0.1 -0.1)">
       <defs>
        <path id="DejaVuSans-37" d="M 525 4666 
L 3525 4666 
L 3525 4397 
L 1831 0 
L 1172 0 
L 2766 4134 
L 525 4134 
L 525 4666 
z
" transform="scale(0.015625)"/>
       </defs>
       <use xlink:href="#DejaVuSans-37"/>
       <use xlink:href="#DejaVuSans-35" x="63.623047"/>
       <use xlink:href="#DejaVuSans-30" x="127.246094"/>
      </g>
     </g>
    </g>
    <g id="ytick_5">
     <g id="line2d_11">
      <g>
       <use xlink:href="#mb909779cf9" x="57.26" y="80.681915" style="stroke: #000000; stroke-width: 0.8"/>
      </g>
     </g>
     <g id="text_11">
      <!-- 1000 -->
      <g transform="translate(24.81 84.481134) scale(0.1 -0.1)">
       <use xlink:href="#DejaVuSans-31"/>
       <use xlink:href="#DejaVuSans-30" x="63.623047"/>
       <use xlink:href="#DejaVuSans-30" x="127.246094"/>
       <use xlink:href="#DejaVuSans-30" x="190.869141"/>
      </g>
     </g>
    </g>
    <g id="ytick_6">
     <g id="line2d_12">
      <g>
       <use xlink:href="#mb909779cf9" x="57.26" y="53.195728" style="stroke: #000000; stroke-width: 0.8"/>
      </g>
     </g>
     <g id="text_12">
      <!-- 1250 -->
      <g transform="translate(24.81 56.994946) scale(0.1 -0.1)">
       <use xlink:href="#DejaVuSans-31"/>
       <use xlink:href="#DejaVuSans-32" x="63.623047"/>
       <use xlink:href="#DejaVuSans-35" x="127.246094"/>
       <use xlink:href="#DejaVuSans-30" x="190.869141"/>
      </g>
     </g>
    </g>
    <g id="ytick_7">
     <g id="line2d_13">
      <g>
       <use xlink:href="#mb909779cf9" x="57.26" y="25.70954" style="stroke: #000000; stroke-width: 0.8"/>
      </g>
     </g>
     <g id="text_13">
      <!-- 1500 -->
      <g transform="translate(24.81 29.508759) scale(0.1 -0.1)">
       <use xlink:href="#DejaVuSans-31"/>
       <use xlink:href="#DejaVuSans-35" x="63.623047"/>
       <use xlink:href="#DejaVuSans-30" x="127.246094"/>
       <use xlink:href="#DejaVuSans-30" x="190.869141"/>
      </g>
     </g>
    </g>
    <g id="text_14">
     <!-- Pixel Frequency -->
     <g transform="translate(18.730313 140.110545) rotate(-90) scale(0.1 -0.1)">
      <defs>
       <path id="DejaVuSans-50" d="M 1259 4147 
L 1259 2394 
L 2053 2394 
Q 2494 2394 2734 2622 
Q 2975 2850 2975 3272 
Q 2975 3691 2734 3919 
Q 2494 4147 2053 4147 
L 1259 4147 
z
M 628 4666 
L 2053 4666 
Q 2838 4666 3239 4311 
Q 3641 3956 3641 3272 
Q 3641 2581 3239 2228 
Q 2838 1875 2053 1875 
L 1259 1875 
L 1259 0 
L 628 0 
L 628 4666 
z
" transform="scale(0.015625)"/>
       <path id="DejaVuSans-69" d="M 603 3500 
L 1178 3500 
L 1178 0 
L 603 0 
L 603 3500 
z
M 603 4863 
L 1178 4863 
L 1178 4134 
L 603 4134 
L 603 4863 
z
" transform="scale(0.015625)"/>
       <path id="DejaVuSans-78" d="M 3513 3500 
L 2247 1797 
L 3578 0 
L 2900 0 
L 1881 1375 
L 863 0 
L 184 0 
L 1544 1831 
L 300 3500 
L 978 3500 
L 1906 2253 
L 2834 3500 
L 3513 3500 
z
" transform="scale(0.015625)"/>
       <path id="DejaVuSans-65" d="M 3597 1894 
L 3597 1613 
L 953 1613 
Q 991 1019 1311 708 
Q 1631 397 2203 397 
Q 2534 397 2845 478 
Q 3156 559 3463 722 
L 3463 178 
Q 3153 47 2828 -22 
Q 2503 -91 2169 -91 
Q 1331 -91 842 396 
Q 353 884 353 1716 
Q 353 2575 817 3079 
Q 1281 3584 2069 3584 
Q 2775 3584 3186 3129 
Q 3597 2675 3597 1894 
z
M 3022 2063 
Q 3016 2534 2758 2815 
Q 2500 3097 2075 3097 
Q 1594 3097 1305 2825 
Q 1016 2553 972 2059 
L 3022 2063 
z
" transform="scale(0.015625)"/>
       <path id="DejaVuSans-6c" d="M 603 4863 
L 1178 4863 
L 1178 0 
L 603 0 
L 603 4863 
z
" transform="scale(0.015625)"/>
       <path id="DejaVuSans-20" transform="scale(0.015625)"/>
       <path id="DejaVuSans-46" d="M 628 4666 
L 3309 4666 
L 3309 4134 
L 1259 4134 
L 1259 2759 
L 3109 2759 
L 3109 2228 
L 1259 2228 
L 1259 0 
L 628 0 
L 628 4666 
z
" transform="scale(0.015625)"/>
       <path id="DejaVuSans-72" d="M 2631 2963 
Q 2534 3019 2420 3045 
Q 2306 3072 2169 3072 
Q 1681 3072 1420 2755 
Q 1159 2438 1159 1844 
L 1159 0 
L 581 0 
L 581 3500 
L 1159 3500 
L 1159 2956 
Q 1341 3275 1631 3429 
Q 1922 3584 2338 3584 
Q 2397 3584 2469 3576 
Q 2541 3569 2628 3553 
L 2631 2963 
z
" transform="scale(0.015625)"/>
       <path id="DejaVuSans-71" d="M 947 1747 
Q 947 1113 1208 752 
Q 1469 391 1925 391 
Q 2381 391 2643 752 
Q 2906 1113 2906 1747 
Q 2906 2381 2643 2742 
Q 2381 3103 1925 3103 
Q 1469 3103 1208 2742 
Q 947 2381 947 1747 
z
M 2906 525 
Q 2725 213 2448 61 
Q 2172 -91 1784 -91 
Q 1150 -91 751 415 
Q 353 922 353 1747 
Q 353 2572 751 3078 
Q 1150 3584 1784 3584 
Q 2172 3584 2448 3432 
Q 2725 3281 2906 2969 
L 2906 3500 
L 3481 3500 
L 3481 -1331 
L 2906 -1331 
L 2906 525 
z
" transform="scale(0.015625)"/>
       <path id="DejaVuSans-75" d="M 544 1381 
L 544 3500 
L 1119 3500 
L 1119 1403 
Q 1119 906 1312 657 
Q 1506 409 1894 409 
Q 2359 409 2629 706 
Q 2900 1003 2900 1516 
L 2900 3500 
L 3475 3500 
L 3475 0 
L 2900 0 
L 2900 538 
Q 2691 219 2414 64 
Q 2138 -91 1772 -91 
Q 1169 -91 856 284 
Q 544 659 544 1381 
z
M 1991 3584 
L 1991 3584 
z
" transform="scale(0.015625)"/>
       <path id="DejaVuSans-6e" d="M 3513 2113 
L 3513 0 
L 2938 0 
L 2938 2094 
Q 2938 2591 2744 2837 
Q 2550 3084 2163 3084 
Q 1697 3084 1428 2787 
Q 1159 2491 1159 1978 
L 1159 0 
L 581 0 
L 581 3500 
L 1159 3500 
L 1159 2956 
Q 1366 3272 1645 3428 
Q 1925 3584 2291 3584 
Q 2894 3584 3203 3211 
Q 3513 2838 3513 2113 
z
" transform="scale(0.015625)"/>
       <path id="DejaVuSans-63" d="M 3122 3366 
L 3122 2828 
Q 2878 2963 2633 3030 
Q 2388 3097 2138 3097 
Q 1578 3097 1268 2742 
Q 959 2388 959 1747 
Q 959 1106 1268 751 
Q 1578 397 2138 397 
Q 2388 397 2633 464 
Q 2878 531 3122 666 
L 3122 134 
Q 2881 22 2623 -34 
Q 2366 -91 2075 -91 
Q 1284 -91 818 406 
Q 353 903 353 1747 
Q 353 2603 823 3093 
Q 1294 3584 2113 3584 
Q 2378 3584 2631 3529 
Q 2884 3475 3122 3366 
z
" transform="scale(0.015625)"/>
       <path id="DejaVuSans-79" d="M 2059 -325 
Q 1816 -950 1584 -1140 
Q 1353 -1331 966 -1331 
L 506 -1331 
L 506 -850 
L 844 -850 
Q 1081 -850 1212 -737 
Q 1344 -625 1503 -206 
L 1606 56 
L 191 3500 
L 800 3500 
L 1894 763 
L 2988 3500 
L 3597 3500 
L 2059 -325 
z
" transform="scale(0.015625)"/>
      </defs>
      <use xlink:href="#DejaVuSans-50"/>
      <use xlink:href="#DejaVuSans-69" x="58.052734"/>
      <use xlink:href="#DejaVuSans-78" x="85.835938"/>
      <use xlink:href="#DejaVuSans-65" x="141.890625"/>
      <use xlink:href="#DejaVuSans-6c" x="203.414062"/>
      <use xlink:href="#DejaVuSans-20" x="231.197266"/>
      <use xlink:href="#DejaVuSans-46" x="262.984375"/>
      <use xlink:href="#DejaVuSans-72" x="313.253906"/>
      <use xlink:href="#DejaVuSans-65" x="352.117188"/>
      <use xlink:href="#DejaVuSans-71" x="413.640625"/>
      <use xlink:href="#DejaVuSans-75" x="477.117188"/>
      <use xlink:href="#DejaVuSans-65" x="540.496094"/>
      <use xlink:href="#DejaVuSans-6e" x="602.019531"/>
      <use xlink:href="#DejaVuSans-63" x="665.398438"/>
      <use xlink:href="#DejaVuSans-79" x="720.378906"/>
     </g>
    </g>
   </g>
   <g id="line2d_14">
    <path d="M 57.26 189.747109 
L 58.101638 189.527219 
L 58.943275 190.406777 
L 59.784913 190.186888 
L 62.309825 190.516722 
L 63.151463 190.186888 
L 63.993101 190.516722 
L 64.834738 190.626667 
L 65.676376 190.516722 
L 66.518013 190.626667 
L 67.359651 190.516722 
L 69.042926 190.626667 
L 90.083865 190.516722 
L 90.925503 190.186888 
L 91.767141 190.516722 
L 92.608778 190.186888 
L 93.450416 189.637164 
L 94.292053 189.30733 
L 95.133691 188.647661 
L 95.975328 188.977495 
L 96.816966 187.768103 
L 97.658604 187.658158 
L 98.500241 186.99849 
L 99.341879 182.930534 
L 101.025154 178.972523 
L 101.866791 173.255396 
L 102.708429 173.475285 
L 103.550067 174.025009 
L 104.391704 170.616722 
L 105.233342 165.119484 
L 106.074979 165.559263 
L 106.916617 162.041031 
L 107.758254 162.370866 
L 108.599892 158.522799 
L 109.44153 150.716722 
L 110.283167 153.90512 
L 111.124805 150.936611 
L 111.966442 152.036059 
L 112.80808 145.769208 
L 113.649717 144.88965 
L 114.491355 143.790203 
L 115.332993 143.240479 
L 116.17463 136.31396 
L 117.016268 134.994623 
L 117.857905 129.60733 
L 118.699543 120.81175 
L 119.54118 120.481915 
L 120.382818 118.50291 
L 121.224456 113.775286 
L 122.066093 107.508435 
L 122.907731 104.869761 
L 124.591006 98.053186 
L 125.432643 96.953739 
L 126.274281 91.346556 
L 127.115919 90.686888 
L 127.957556 86.508987 
L 128.799194 91.346556 
L 129.640831 87.168656 
L 130.482469 91.016722 
L 131.324106 93.105672 
L 132.165744 97.063683 
L 133.007382 95.744346 
L 133.849019 95.524457 
L 134.690657 103.770313 
L 135.532294 96.623904 
L 136.373932 99.592413 
L 137.215569 98.60291 
L 138.057207 108.717827 
L 138.898845 107.728324 
L 139.740482 110.037164 
L 140.58212 114.764788 
L 141.423757 113.115617 
L 142.265395 117.073628 
L 143.107032 119.822247 
L 143.94867 116.19407 
L 144.790308 123.780258 
L 145.631945 119.272523 
L 146.473583 121.141584 
L 147.31522 124.000147 
L 148.156858 122.790755 
L 148.998495 129.057606 
L 149.840133 124.549871 
L 150.681771 124.879705 
L 151.523408 128.287993 
L 152.365046 127.408435 
L 154.048321 132.795728 
L 154.889958 134.334954 
L 155.731596 134.884678 
L 156.573234 139.282468 
L 157.414871 141.701252 
L 158.256509 145.329429 
L 159.098146 141.811197 
L 159.939784 150.276943 
L 160.781422 147.748214 
L 161.623059 149.397385 
L 162.464697 157.313407 
L 163.306334 155.99407 
L 164.147972 157.423352 
L 164.989609 159.952081 
L 166.672885 163.910092 
L 167.514522 164.020037 
L 168.35616 161.051529 
L 169.197797 165.889098 
L 170.039435 169.627219 
L 170.881072 166.548766 
L 171.72271 169.627219 
L 172.564348 167.208435 
L 173.405985 172.265893 
L 174.247623 167.978048 
L 175.08926 172.485783 
L 175.930898 172.046004 
L 176.772535 173.915064 
L 177.614173 173.475285 
L 178.455811 173.58523 
L 179.297448 173.475285 
L 180.139086 174.794622 
L 180.980723 174.244899 
L 181.822361 174.684678 
L 182.663998 176.663683 
L 183.505636 176.443794 
L 184.347274 176.443794 
L 185.188911 178.752634 
L 186.030549 179.412302 
L 186.872186 179.852081 
L 187.713824 179.632192 
L 188.555461 180.621694 
L 189.397099 180.401805 
L 190.238737 183.480258 
L 191.080374 183.040479 
L 191.922012 184.249871 
L 192.763649 183.700147 
L 193.605287 183.700147 
L 194.446924 182.6007 
L 195.288562 183.920037 
L 196.971837 184.68965 
L 197.813475 186.118932 
L 198.655112 185.239374 
L 199.49675 186.118932 
L 201.180025 185.349319 
L 202.021663 187.438269 
L 202.8633 187.548214 
L 203.704938 188.317827 
L 205.388213 187.878048 
L 206.22985 188.427772 
L 207.071488 188.757606 
L 207.913126 188.427772 
L 208.754763 188.757606 
L 209.596401 189.30733 
L 210.438038 188.757606 
L 211.279676 189.417274 
L 213.804589 188.977495 
L 214.646226 189.527219 
L 218.012776 189.417274 
L 218.854414 188.977495 
L 219.696052 189.527219 
L 221.379327 189.857053 
L 223.062602 189.30733 
L 223.90424 189.747109 
L 224.745877 189.417274 
L 225.587515 189.417274 
L 226.429152 189.747109 
L 228.112427 189.637164 
L 228.954065 189.637164 
L 229.795703 190.296832 
L 230.63734 189.857053 
L 231.478978 189.857053 
L 232.320615 190.186888 
L 233.162253 189.637164 
L 234.845528 189.966998 
L 236.528803 190.406777 
L 237.370441 190.406777 
L 238.212078 189.747109 
L 239.053716 190.296832 
L 239.895353 189.857053 
L 240.736991 189.747109 
L 241.578629 190.076943 
L 242.420266 189.637164 
L 243.261904 190.186888 
L 244.103541 189.747109 
L 244.945179 189.857053 
L 245.786816 190.186888 
L 246.628454 189.966998 
L 247.470092 190.296832 
L 248.311729 190.296832 
L 249.153367 189.527219 
L 251.678279 190.186888 
L 253.361555 190.186888 
L 254.203192 189.417274 
L 255.886467 189.966998 
L 256.728105 189.637164 
L 257.569742 189.527219 
L 258.41138 190.296832 
L 259.253018 189.966998 
L 260.094655 189.30733 
L 261.77793 190.076943 
L 262.619568 190.186888 
L 263.461205 189.637164 
L 265.986118 189.857053 
L 266.827756 189.197385 
L 267.669393 189.966998 
L 269.352668 189.417274 
L 270.194306 189.857053 
L 271.877581 189.30733 
L 271.877581 189.30733 
" clip-path="url(#p2cfff97e2b)" style="fill: none; stroke: #ff0000; stroke-width: 1.5; stroke-linecap: square"/>
   </g>
   <g id="patch_3">
    <path d="M 57.26 190.626667 
L 57.26 11.636612 
" style="fill: none; stroke: #000000; stroke-width: 0.8; stroke-linejoin: miter; stroke-linecap: square"/>
   </g>
   <g id="patch_4">
    <path d="M 272.719219 190.626667 
L 272.719219 11.636612 
" style="fill: none; stroke: #000000; stroke-width: 0.8; stroke-linejoin: miter; stroke-linecap: square"/>
   </g>
   <g id="patch_5">
    <path d="M 57.26 190.626667 
L 272.719219 190.626667 
" style="fill: none; stroke: #000000; stroke-width: 0.8; stroke-linejoin: miter; stroke-linecap: square"/>
   </g>
   <g id="patch_6">
    <path d="M 57.26 11.636612 
L 272.719219 11.636612 
" style="fill: none; stroke: #000000; stroke-width: 0.8; stroke-linejoin: miter; stroke-linecap: square"/>
   </g>
   <g id="text_15">
    <!-- Red Channel  -->
    <g transform="translate(193.026094 25.636612) scale(0.12 -0.12)">
     <defs>
      <path id="DejaVuSans-52" d="M 2841 2188 
Q 3044 2119 3236 1894 
Q 3428 1669 3622 1275 
L 4263 0 
L 3584 0 
L 2988 1197 
Q 2756 1666 2539 1819 
Q 2322 1972 1947 1972 
L 1259 1972 
L 1259 0 
L 628 0 
L 628 4666 
L 2053 4666 
Q 2853 4666 3247 4331 
Q 3641 3997 3641 3322 
Q 3641 2881 3436 2590 
Q 3231 2300 2841 2188 
z
M 1259 4147 
L 1259 2491 
L 2053 2491 
Q 2509 2491 2742 2702 
Q 2975 2913 2975 3322 
Q 2975 3731 2742 3939 
Q 2509 4147 2053 4147 
L 1259 4147 
z
" transform="scale(0.015625)"/>
      <path id="DejaVuSans-64" d="M 2906 2969 
L 2906 4863 
L 3481 4863 
L 3481 0 
L 2906 0 
L 2906 525 
Q 2725 213 2448 61 
Q 2172 -91 1784 -91 
Q 1150 -91 751 415 
Q 353 922 353 1747 
Q 353 2572 751 3078 
Q 1150 3584 1784 3584 
Q 2172 3584 2448 3432 
Q 2725 3281 2906 2969 
z
M 947 1747 
Q 947 1113 1208 752 
Q 1469 391 1925 391 
Q 2381 391 2643 752 
Q 2906 1113 2906 1747 
Q 2906 2381 2643 2742 
Q 2381 3103 1925 3103 
Q 1469 3103 1208 2742 
Q 947 2381 947 1747 
z
" transform="scale(0.015625)"/>
      <path id="DejaVuSans-43" d="M 4122 4306 
L 4122 3641 
Q 3803 3938 3442 4084 
Q 3081 4231 2675 4231 
Q 1875 4231 1450 3742 
Q 1025 3253 1025 2328 
Q 1025 1406 1450 917 
Q 1875 428 2675 428 
Q 3081 428 3442 575 
Q 3803 722 4122 1019 
L 4122 359 
Q 3791 134 3420 21 
Q 3050 -91 2638 -91 
Q 1578 -91 968 557 
Q 359 1206 359 2328 
Q 359 3453 968 4101 
Q 1578 4750 2638 4750 
Q 3056 4750 3426 4639 
Q 3797 4528 4122 4306 
z
" transform="scale(0.015625)"/>
      <path id="DejaVuSans-68" d="M 3513 2113 
L 3513 0 
L 2938 0 
L 2938 2094 
Q 2938 2591 2744 2837 
Q 2550 3084 2163 3084 
Q 1697 3084 1428 2787 
Q 1159 2491 1159 1978 
L 1159 0 
L 581 0 
L 581 4863 
L 1159 4863 
L 1159 2956 
Q 1366 3272 1645 3428 
Q 1925 3584 2291 3584 
Q 2894 3584 3203 3211 
Q 3513 2838 3513 2113 
z
" transform="scale(0.015625)"/>
      <path id="DejaVuSans-61" d="M 2194 1759 
Q 1497 1759 1228 1600 
Q 959 1441 959 1056 
Q 959 750 1161 570 
Q 1363 391 1709 391 
Q 2188 391 2477 730 
Q 2766 1069 2766 1631 
L 2766 1759 
L 2194 1759 
z
M 3341 1997 
L 3341 0 
L 2766 0 
L 2766 531 
Q 2569 213 2275 61 
Q 1981 -91 1556 -91 
Q 1019 -91 701 211 
Q 384 513 384 1019 
Q 384 1609 779 1909 
Q 1175 2209 1959 2209 
L 2766 2209 
L 2766 2266 
Q 2766 2663 2505 2880 
Q 2244 3097 1772 3097 
Q 1472 3097 1187 3025 
Q 903 2953 641 2809 
L 641 3341 
Q 956 3463 1253 3523 
Q 1550 3584 1831 3584 
Q 2591 3584 2966 3190 
Q 3341 2797 3341 1997 
z
" transform="scale(0.015625)"/>
     </defs>
     <use xlink:href="#DejaVuSans-52"/>
     <use xlink:href="#DejaVuSans-65" x="64.982422"/>
     <use xlink:href="#DejaVuSans-64" x="126.505859"/>
     <use xlink:href="#DejaVuSans-20" x="189.982422"/>
     <use xlink:href="#DejaVuSans-43" x="221.769531"/>
     <use xlink:href="#DejaVuSans-68" x="291.59375"/>
     <use xlink:href="#DejaVuSans-61" x="354.972656"/>
     <use xlink:href="#DejaVuSans-6e" x="416.251953"/>
     <use xlink:href="#DejaVuSans-6e" x="479.630859"/>
     <use xlink:href="#DejaVuSans-65" x="543.009766"/>
     <use xlink:href="#DejaVuSans-6c" x="604.533203"/>
     <use xlink:href="#DejaVuSans-20" x="632.316406"/>
    </g>
   </g>
  </g>
  <g id="axes_2">
   <g id="patch_7">
    <path d="M 57.26 398.333333 
L 272.719219 398.333333 
L 272.719219 219.343278 
L 57.26 219.343278 
z
" style="fill: #ffffff"/>
   </g>
   <g id="PolyCollection_2">
    <defs>
     <path id="m8ccde1c988" d="M 57.26 -249.666667 
L 57.26 -251.095948 
L 58.101638 -251.315838 
L 58.943275 -251.095948 
L 59.784913 -250.656169 
L 60.62655 -250.656169 
L 61.468188 -250.546225 
L 62.309825 -250.656169 
L 63.151463 -250.106446 
L 63.993101 -249.996501 
L 64.834738 -249.886556 
L 65.676376 -249.666667 
L 66.518013 -249.886556 
L 67.359651 -249.776611 
L 68.201288 -249.666667 
L 69.042926 -249.666667 
L 69.884564 -249.776611 
L 70.726201 -249.666667 
L 71.567839 -249.666667 
L 72.409476 -249.776611 
L 73.251114 -249.666667 
L 74.092751 -249.776611 
L 74.934389 -249.666667 
L 75.776027 -249.666667 
L 76.617664 -249.666667 
L 77.459302 -249.666667 
L 78.300939 -249.666667 
L 79.142577 -249.666667 
L 79.984214 -249.666667 
L 80.825852 -249.666667 
L 81.66749 -249.666667 
L 82.509127 -249.776611 
L 83.350765 -249.666667 
L 84.192402 -249.776611 
L 85.03404 -249.666667 
L 85.875677 -249.776611 
L 86.717315 -250.21639 
L 87.558953 -250.21639 
L 88.40059 -250.656169 
L 89.242228 -251.535727 
L 90.083865 -252.855064 
L 90.925503 -253.514733 
L 91.767141 -257.362799 
L 92.608778 -260.221363 
L 93.450416 -263.189871 
L 94.292053 -267.257827 
L 95.133691 -268.906998 
L 95.975328 -277.04291 
L 96.816966 -273.414733 
L 97.658604 -277.812523 
L 98.500241 -280.890976 
L 99.341879 -283.639595 
L 100.183516 -286.168324 
L 101.025154 -290.01639 
L 101.866791 -293.424678 
L 102.708429 -288.806998 
L 103.550067 -296.393186 
L 104.391704 -296.063352 
L 105.233342 -297.712523 
L 106.074979 -298.042357 
L 106.916617 -300.790976 
L 107.758254 -304.199263 
L 108.599892 -303.759484 
L 109.44153 -310.356169 
L 110.283167 -317.832412 
L 111.124805 -320.690976 
L 111.966442 -330.476059 
L 112.80808 -331.795396 
L 113.649717 -335.753407 
L 114.491355 -343.119705 
L 115.332993 -339.821363 
L 116.17463 -348.397053 
L 117.016268 -346.527992 
L 117.857905 -347.737385 
L 118.699543 -350.705893 
L 119.54118 -347.847329 
L 120.382818 -349.056722 
L 121.224456 -349.93628 
L 122.066093 -345.868324 
L 122.907731 -345.978269 
L 123.749368 -348.177164 
L 124.591006 -345.758379 
L 125.432643 -344.329097 
L 126.274281 -336.193186 
L 127.115919 -342.460037 
L 127.957556 -338.062247 
L 128.799194 -336.74291 
L 129.640831 -332.235175 
L 130.482469 -332.455064 
L 131.324106 -322.669981 
L 132.165744 -328.057274 
L 133.007382 -325.308655 
L 133.849019 -318.492081 
L 134.690657 -318.382136 
L 135.532294 -317.722468 
L 136.373932 -318.93186 
L 137.215569 -317.612523 
L 138.057207 -321.900368 
L 138.898845 -318.052302 
L 139.740482 -312.884899 
L 140.58212 -317.062799 
L 141.423757 -310.466114 
L 142.265395 -313.104788 
L 143.107032 -309.476611 
L 143.94867 -305.958379 
L 144.790308 -308.926888 
L 145.631945 -299.911418 
L 146.473583 -301.780479 
L 147.31522 -295.293738 
L 148.156858 -303.209761 
L 148.998495 -299.03186 
L 149.840133 -291.555617 
L 150.681771 -293.094843 
L 151.523408 -282.650092 
L 152.365046 -289.466667 
L 153.206683 -284.409208 
L 154.048321 -279.13186 
L 154.889958 -280.341252 
L 155.731596 -280.231308 
L 156.573234 -275.393738 
L 157.414871 -279.13186 
L 158.256509 -274.184346 
L 159.098146 -271.325783 
L 159.939784 -274.074401 
L 160.781422 -272.315285 
L 161.623059 -268.687109 
L 162.464697 -271.985451 
L 163.306334 -271.765562 
L 164.147972 -270.446225 
L 164.989609 -270.11639 
L 165.831247 -267.807551 
L 166.672885 -267.807551 
L 167.514522 -268.357274 
L 168.35616 -265.058932 
L 169.197797 -264.729098 
L 170.039435 -265.7186 
L 170.881072 -264.839042 
L 171.72271 -264.289319 
L 172.564348 -263.84954 
L 173.405985 -263.299816 
L 174.247623 -264.729098 
L 175.08926 -263.299816 
L 175.930898 -262.420258 
L 176.772535 -262.310313 
L 177.614173 -262.420258 
L 178.455811 -262.090424 
L 179.297448 -261.100921 
L 180.139086 -260.990976 
L 180.980723 -259.23186 
L 181.822361 -259.891529 
L 182.663998 -260.001473 
L 183.505636 -261.650645 
L 184.347274 -257.14291 
L 185.188911 -259.121915 
L 186.030549 -258.792081 
L 186.872186 -257.802578 
L 187.713824 -256.593186 
L 188.555461 -255.933517 
L 189.397099 -256.813075 
L 190.238737 -257.582689 
L 191.080374 -255.933517 
L 191.922012 -255.713628 
L 192.763649 -254.944015 
L 193.605287 -254.83407 
L 194.446924 -253.624678 
L 195.288562 -254.61418 
L 196.1302 -254.83407 
L 196.971837 -255.383794 
L 197.813475 -253.184899 
L 198.655112 -254.284346 
L 199.49675 -254.174401 
L 200.338387 -254.174401 
L 201.180025 -253.624678 
L 202.021663 -252.635175 
L 202.8633 -253.294843 
L 203.704938 -252.965009 
L 204.546575 -251.425783 
L 205.388213 -251.425783 
L 206.22985 -251.645672 
L 207.071488 -251.315838 
L 207.913126 -252.305341 
L 208.754763 -252.52523 
L 209.596401 -250.766114 
L 210.438038 -251.535727 
L 211.279676 -250.986004 
L 212.121313 -251.425783 
L 212.962951 -251.095948 
L 213.804589 -250.326335 
L 214.646226 -250.876059 
L 215.487864 -250.986004 
L 216.329501 -251.535727 
L 217.171139 -251.095948 
L 218.012776 -250.986004 
L 218.854414 -250.986004 
L 219.696052 -250.876059 
L 220.537689 -249.996501 
L 221.379327 -250.986004 
L 222.220964 -250.876059 
L 223.062602 -250.656169 
L 223.90424 -250.656169 
L 224.745877 -250.876059 
L 225.587515 -250.21639 
L 226.429152 -250.766114 
L 227.27079 -251.425783 
L 228.112427 -250.326335 
L 228.954065 -251.095948 
L 229.795703 -250.43628 
L 230.63734 -250.656169 
L 231.478978 -250.326335 
L 232.320615 -250.106446 
L 233.162253 -250.43628 
L 234.00389 -250.106446 
L 234.845528 -249.776611 
L 235.687166 -250.106446 
L 236.528803 -250.326335 
L 237.370441 -250.986004 
L 238.212078 -249.996501 
L 239.053716 -250.546225 
L 239.895353 -250.43628 
L 240.736991 -250.326335 
L 241.578629 -250.106446 
L 242.420266 -249.886556 
L 243.261904 -250.21639 
L 244.103541 -250.326335 
L 244.945179 -250.106446 
L 245.786816 -250.106446 
L 246.628454 -250.106446 
L 247.470092 -249.886556 
L 248.311729 -250.326335 
L 249.153367 -249.886556 
L 249.995004 -249.776611 
L 250.836642 -250.876059 
L 251.678279 -250.106446 
L 252.519917 -250.43628 
L 253.361555 -250.326335 
L 254.203192 -250.106446 
L 255.04483 -250.876059 
L 255.886467 -250.106446 
L 256.728105 -250.766114 
L 257.569742 -250.43628 
L 258.41138 -250.326335 
L 259.253018 -250.106446 
L 260.094655 -250.43628 
L 260.936293 -249.886556 
L 261.77793 -250.766114 
L 262.619568 -250.106446 
L 263.461205 -249.996501 
L 264.302843 -250.21639 
L 265.144481 -250.43628 
L 265.986118 -250.546225 
L 266.827756 -251.205893 
L 267.669393 -250.546225 
L 268.511031 -250.326335 
L 269.352668 -251.205893 
L 270.194306 -250.986004 
L 271.035944 -251.645672 
L 271.877581 -251.645672 
L 271.877581 -249.666667 
L 271.877581 -249.666667 
L 271.035944 -249.666667 
L 270.194306 -249.666667 
L 269.352668 -249.666667 
L 268.511031 -249.666667 
L 267.669393 -249.666667 
L 266.827756 -249.666667 
L 265.986118 -249.666667 
L 265.144481 -249.666667 
L 264.302843 -249.666667 
L 263.461205 -249.666667 
L 262.619568 -249.666667 
L 261.77793 -249.666667 
L 260.936293 -249.666667 
L 260.094655 -249.666667 
L 259.253018 -249.666667 
L 258.41138 -249.666667 
L 257.569742 -249.666667 
L 256.728105 -249.666667 
L 255.886467 -249.666667 
L 255.04483 -249.666667 
L 254.203192 -249.666667 
L 253.361555 -249.666667 
L 252.519917 -249.666667 
L 251.678279 -249.666667 
L 250.836642 -249.666667 
L 249.995004 -249.666667 
L 249.153367 -249.666667 
L 248.311729 -249.666667 
L 247.470092 -249.666667 
L 246.628454 -249.666667 
L 245.786816 -249.666667 
L 244.945179 -249.666667 
L 244.103541 -249.666667 
L 243.261904 -249.666667 
L 242.420266 -249.666667 
L 241.578629 -249.666667 
L 240.736991 -249.666667 
L 239.895353 -249.666667 
L 239.053716 -249.666667 
L 238.212078 -249.666667 
L 237.370441 -249.666667 
L 236.528803 -249.666667 
L 235.687166 -249.666667 
L 234.845528 -249.666667 
L 234.00389 -249.666667 
L 233.162253 -249.666667 
L 232.320615 -249.666667 
L 231.478978 -249.666667 
L 230.63734 -249.666667 
L 229.795703 -249.666667 
L 228.954065 -249.666667 
L 228.112427 -249.666667 
L 227.27079 -249.666667 
L 226.429152 -249.666667 
L 225.587515 -249.666667 
L 224.745877 -249.666667 
L 223.90424 -249.666667 
L 223.062602 -249.666667 
L 222.220964 -249.666667 
L 221.379327 -249.666667 
L 220.537689 -249.666667 
L 219.696052 -249.666667 
L 218.854414 -249.666667 
L 218.012776 -249.666667 
L 217.171139 -249.666667 
L 216.329501 -249.666667 
L 215.487864 -249.666667 
L 214.646226 -249.666667 
L 213.804589 -249.666667 
L 212.962951 -249.666667 
L 212.121313 -249.666667 
L 211.279676 -249.666667 
L 210.438038 -249.666667 
L 209.596401 -249.666667 
L 208.754763 -249.666667 
L 207.913126 -249.666667 
L 207.071488 -249.666667 
L 206.22985 -249.666667 
L 205.388213 -249.666667 
L 204.546575 -249.666667 
L 203.704938 -249.666667 
L 202.8633 -249.666667 
L 202.021663 -249.666667 
L 201.180025 -249.666667 
L 200.338387 -249.666667 
L 199.49675 -249.666667 
L 198.655112 -249.666667 
L 197.813475 -249.666667 
L 196.971837 -249.666667 
L 196.1302 -249.666667 
L 195.288562 -249.666667 
L 194.446924 -249.666667 
L 193.605287 -249.666667 
L 192.763649 -249.666667 
L 191.922012 -249.666667 
L 191.080374 -249.666667 
L 190.238737 -249.666667 
L 189.397099 -249.666667 
L 188.555461 -249.666667 
L 187.713824 -249.666667 
L 186.872186 -249.666667 
L 186.030549 -249.666667 
L 185.188911 -249.666667 
L 184.347274 -249.666667 
L 183.505636 -249.666667 
L 182.663998 -249.666667 
L 181.822361 -249.666667 
L 180.980723 -249.666667 
L 180.139086 -249.666667 
L 179.297448 -249.666667 
L 178.455811 -249.666667 
L 177.614173 -249.666667 
L 176.772535 -249.666667 
L 175.930898 -249.666667 
L 175.08926 -249.666667 
L 174.247623 -249.666667 
L 173.405985 -249.666667 
L 172.564348 -249.666667 
L 171.72271 -249.666667 
L 170.881072 -249.666667 
L 170.039435 -249.666667 
L 169.197797 -249.666667 
L 168.35616 -249.666667 
L 167.514522 -249.666667 
L 166.672885 -249.666667 
L 165.831247 -249.666667 
L 164.989609 -249.666667 
L 164.147972 -249.666667 
L 163.306334 -249.666667 
L 162.464697 -249.666667 
L 161.623059 -249.666667 
L 160.781422 -249.666667 
L 159.939784 -249.666667 
L 159.098146 -249.666667 
L 158.256509 -249.666667 
L 157.414871 -249.666667 
L 156.573234 -249.666667 
L 155.731596 -249.666667 
L 154.889958 -249.666667 
L 154.048321 -249.666667 
L 153.206683 -249.666667 
L 152.365046 -249.666667 
L 151.523408 -249.666667 
L 150.681771 -249.666667 
L 149.840133 -249.666667 
L 148.998495 -249.666667 
L 148.156858 -249.666667 
L 147.31522 -249.666667 
L 146.473583 -249.666667 
L 145.631945 -249.666667 
L 144.790308 -249.666667 
L 143.94867 -249.666667 
L 143.107032 -249.666667 
L 142.265395 -249.666667 
L 141.423757 -249.666667 
L 140.58212 -249.666667 
L 139.740482 -249.666667 
L 138.898845 -249.666667 
L 138.057207 -249.666667 
L 137.215569 -249.666667 
L 136.373932 -249.666667 
L 135.532294 -249.666667 
L 134.690657 -249.666667 
L 133.849019 -249.666667 
L 133.007382 -249.666667 
L 132.165744 -249.666667 
L 131.324106 -249.666667 
L 130.482469 -249.666667 
L 129.640831 -249.666667 
L 128.799194 -249.666667 
L 127.957556 -249.666667 
L 127.115919 -249.666667 
L 126.274281 -249.666667 
L 125.432643 -249.666667 
L 124.591006 -249.666667 
L 123.749368 -249.666667 
L 122.907731 -249.666667 
L 122.066093 -249.666667 
L 121.224456 -249.666667 
L 120.382818 -249.666667 
L 119.54118 -249.666667 
L 118.699543 -249.666667 
L 117.857905 -249.666667 
L 117.016268 -249.666667 
L 116.17463 -249.666667 
L 115.332993 -249.666667 
L 114.491355 -249.666667 
L 113.649717 -249.666667 
L 112.80808 -249.666667 
L 111.966442 -249.666667 
L 111.124805 -249.666667 
L 110.283167 -249.666667 
L 109.44153 -249.666667 
L 108.599892 -249.666667 
L 107.758254 -249.666667 
L 106.916617 -249.666667 
L 106.074979 -249.666667 
L 105.233342 -249.666667 
L 104.391704 -249.666667 
L 103.550067 -249.666667 
L 102.708429 -249.666667 
L 101.866791 -249.666667 
L 101.025154 -249.666667 
L 100.183516 -249.666667 
L 99.341879 -249.666667 
L 98.500241 -249.666667 
L 97.658604 -249.666667 
L 96.816966 -249.666667 
L 95.975328 -249.666667 
L 95.133691 -249.666667 
L 94.292053 -249.666667 
L 93.450416 -249.666667 
L 92.608778 -249.666667 
L 91.767141 -249.666667 
L 90.925503 -249.666667 
L 90.083865 -249.666667 
L 89.242228 -249.666667 
L 88.40059 -249.666667 
L 87.558953 -249.666667 
L 86.717315 -249.666667 
L 85.875677 -249.666667 
L 85.03404 -249.666667 
L 84.192402 -249.666667 
L 83.350765 -249.666667 
L 82.509127 -249.666667 
L 81.66749 -249.666667 
L 80.825852 -249.666667 
L 79.984214 -249.666667 
L 79.142577 -249.666667 
L 78.300939 -249.666667 
L 77.459302 -249.666667 
L 76.617664 -249.666667 
L 75.776027 -249.666667 
L 74.934389 -249.666667 
L 74.092751 -249.666667 
L 73.251114 -249.666667 
L 72.409476 -249.666667 
L 71.567839 -249.666667 
L 70.726201 -249.666667 
L 69.884564 -249.666667 
L 69.042926 -249.666667 
L 68.201288 -249.666667 
L 67.359651 -249.666667 
L 66.518013 -249.666667 
L 65.676376 -249.666667 
L 64.834738 -249.666667 
L 63.993101 -249.666667 
L 63.151463 -249.666667 
L 62.309825 -249.666667 
L 61.468188 -249.666667 
L 60.62655 -249.666667 
L 59.784913 -249.666667 
L 58.943275 -249.666667 
L 58.101638 -249.666667 
L 57.26 -249.666667 
z
" style="stroke: #008000; stroke-opacity: 0.4"/>
    </defs>
    <g clip-path="url(#pc074f770fd)">
     <use xlink:href="#m8ccde1c988" x="0" y="648" style="fill: #008000; fill-opacity: 0.4; stroke: #008000; stroke-opacity: 0.4"/>
    </g>
   </g>
   <g id="matplotlib.axis_3">
    <g id="xtick_7">
     <g id="line2d_15">
      <g>
       <use xlink:href="#m6eb3b96b93" x="57.26" y="398.333333" style="stroke: #000000; stroke-width: 0.8"/>
      </g>
     </g>
     <g id="text_16">
      <!-- 0 -->
      <g transform="translate(54.07875 412.931771) scale(0.1 -0.1)">
       <use xlink:href="#DejaVuSans-30"/>
      </g>
     </g>
    </g>
    <g id="xtick_8">
     <g id="line2d_16">
      <g>
       <use xlink:href="#m6eb3b96b93" x="99.341879" y="398.333333" style="stroke: #000000; stroke-width: 0.8"/>
      </g>
     </g>
     <g id="text_17">
      <!-- 50 -->
      <g transform="translate(92.979379 412.931771) scale(0.1 -0.1)">
       <use xlink:href="#DejaVuSans-35"/>
       <use xlink:href="#DejaVuSans-30" x="63.623047"/>
      </g>
     </g>
    </g>
    <g id="xtick_9">
     <g id="line2d_17">
      <g>
       <use xlink:href="#m6eb3b96b93" x="141.423757" y="398.333333" style="stroke: #000000; stroke-width: 0.8"/>
      </g>
     </g>
     <g id="text_18">
      <!-- 100 -->
      <g transform="translate(131.880007 412.931771) scale(0.1 -0.1)">
       <use xlink:href="#DejaVuSans-31"/>
       <use xlink:href="#DejaVuSans-30" x="63.623047"/>
       <use xlink:href="#DejaVuSans-30" x="127.246094"/>
      </g>
     </g>
    </g>
    <g id="xtick_10">
     <g id="line2d_18">
      <g>
       <use xlink:href="#m6eb3b96b93" x="183.505636" y="398.333333" style="stroke: #000000; stroke-width: 0.8"/>
      </g>
     </g>
     <g id="text_19">
      <!-- 150 -->
      <g transform="translate(173.961886 412.931771) scale(0.1 -0.1)">
       <use xlink:href="#DejaVuSans-31"/>
       <use xlink:href="#DejaVuSans-35" x="63.623047"/>
       <use xlink:href="#DejaVuSans-30" x="127.246094"/>
      </g>
     </g>
    </g>
    <g id="xtick_11">
     <g id="line2d_19">
      <g>
       <use xlink:href="#m6eb3b96b93" x="225.587515" y="398.333333" style="stroke: #000000; stroke-width: 0.8"/>
      </g>
     </g>
     <g id="text_20">
      <!-- 200 -->
      <g transform="translate(216.043765 412.931771) scale(0.1 -0.1)">
       <use xlink:href="#DejaVuSans-32"/>
       <use xlink:href="#DejaVuSans-30" x="63.623047"/>
       <use xlink:href="#DejaVuSans-30" x="127.246094"/>
      </g>
     </g>
    </g>
    <g id="xtick_12">
     <g id="line2d_20">
      <g>
       <use xlink:href="#m6eb3b96b93" x="267.669393" y="398.333333" style="stroke: #000000; stroke-width: 0.8"/>
      </g>
     </g>
     <g id="text_21">
      <!-- 250 -->
      <g transform="translate(258.125643 412.931771) scale(0.1 -0.1)">
       <use xlink:href="#DejaVuSans-32"/>
       <use xlink:href="#DejaVuSans-35" x="63.623047"/>
       <use xlink:href="#DejaVuSans-30" x="127.246094"/>
      </g>
     </g>
    </g>
   </g>
   <g id="matplotlib.axis_4">
    <g id="ytick_8">
     <g id="line2d_21">
      <g>
       <use xlink:href="#mb909779cf9" x="57.26" y="398.333333" style="stroke: #000000; stroke-width: 0.8"/>
      </g>
     </g>
     <g id="text_22">
      <!-- 0 -->
      <g transform="translate(43.8975 402.132552) scale(0.1 -0.1)">
       <use xlink:href="#DejaVuSans-30"/>
      </g>
     </g>
    </g>
    <g id="ytick_9">
     <g id="line2d_22">
      <g>
       <use xlink:href="#mb909779cf9" x="57.26" y="370.847146" style="stroke: #000000; stroke-width: 0.8"/>
      </g>
     </g>
     <g id="text_23">
      <!-- 250 -->
      <g transform="translate(31.1725 374.646364) scale(0.1 -0.1)">
       <use xlink:href="#DejaVuSans-32"/>
       <use xlink:href="#DejaVuSans-35" x="63.623047"/>
       <use xlink:href="#DejaVuSans-30" x="127.246094"/>
      </g>
     </g>
    </g>
    <g id="ytick_10">
     <g id="line2d_23">
      <g>
       <use xlink:href="#mb909779cf9" x="57.26" y="343.360958" style="stroke: #000000; stroke-width: 0.8"/>
      </g>
     </g>
     <g id="text_24">
      <!-- 500 -->
      <g transform="translate(31.1725 347.160176) scale(0.1 -0.1)">
       <use xlink:href="#DejaVuSans-35"/>
       <use xlink:href="#DejaVuSans-30" x="63.623047"/>
       <use xlink:href="#DejaVuSans-30" x="127.246094"/>
      </g>
     </g>
    </g>
    <g id="ytick_11">
     <g id="line2d_24">
      <g>
       <use xlink:href="#mb909779cf9" x="57.26" y="315.87477" style="stroke: #000000; stroke-width: 0.8"/>
      </g>
     </g>
     <g id="text_25">
      <!-- 750 -->
      <g transform="translate(31.1725 319.673989) scale(0.1 -0.1)">
       <use xlink:href="#DejaVuSans-37"/>
       <use xlink:href="#DejaVuSans-35" x="63.623047"/>
       <use xlink:href="#DejaVuSans-30" x="127.246094"/>
      </g>
     </g>
    </g>
    <g id="ytick_12">
     <g id="line2d_25">
      <g>
       <use xlink:href="#mb909779cf9" x="57.26" y="288.388582" style="stroke: #000000; stroke-width: 0.8"/>
      </g>
     </g>
     <g id="text_26">
      <!-- 1000 -->
      <g transform="translate(24.81 292.187801) scale(0.1 -0.1)">
       <use xlink:href="#DejaVuSans-31"/>
       <use xlink:href="#DejaVuSans-30" x="63.623047"/>
       <use xlink:href="#DejaVuSans-30" x="127.246094"/>
       <use xlink:href="#DejaVuSans-30" x="190.869141"/>
      </g>
     </g>
    </g>
    <g id="ytick_13">
     <g id="line2d_26">
      <g>
       <use xlink:href="#mb909779cf9" x="57.26" y="260.902394" style="stroke: #000000; stroke-width: 0.8"/>
      </g>
     </g>
     <g id="text_27">
      <!-- 1250 -->
      <g transform="translate(24.81 264.701613) scale(0.1 -0.1)">
       <use xlink:href="#DejaVuSans-31"/>
       <use xlink:href="#DejaVuSans-32" x="63.623047"/>
       <use xlink:href="#DejaVuSans-35" x="127.246094"/>
       <use xlink:href="#DejaVuSans-30" x="190.869141"/>
      </g>
     </g>
    </g>
    <g id="ytick_14">
     <g id="line2d_27">
      <g>
       <use xlink:href="#mb909779cf9" x="57.26" y="233.416207" style="stroke: #000000; stroke-width: 0.8"/>
      </g>
     </g>
     <g id="text_28">
      <!-- 1500 -->
      <g transform="translate(24.81 237.215425) scale(0.1 -0.1)">
       <use xlink:href="#DejaVuSans-31"/>
       <use xlink:href="#DejaVuSans-35" x="63.623047"/>
       <use xlink:href="#DejaVuSans-30" x="127.246094"/>
       <use xlink:href="#DejaVuSans-30" x="190.869141"/>
      </g>
     </g>
    </g>
    <g id="text_29">
     <!-- Pixel Frequency -->
     <g transform="translate(18.730313 347.817212) rotate(-90) scale(0.1 -0.1)">
      <use xlink:href="#DejaVuSans-50"/>
      <use xlink:href="#DejaVuSans-69" x="58.052734"/>
      <use xlink:href="#DejaVuSans-78" x="85.835938"/>
      <use xlink:href="#DejaVuSans-65" x="141.890625"/>
      <use xlink:href="#DejaVuSans-6c" x="203.414062"/>
      <use xlink:href="#DejaVuSans-20" x="231.197266"/>
      <use xlink:href="#DejaVuSans-46" x="262.984375"/>
      <use xlink:href="#DejaVuSans-72" x="313.253906"/>
      <use xlink:href="#DejaVuSans-65" x="352.117188"/>
      <use xlink:href="#DejaVuSans-71" x="413.640625"/>
      <use xlink:href="#DejaVuSans-75" x="477.117188"/>
      <use xlink:href="#DejaVuSans-65" x="540.496094"/>
      <use xlink:href="#DejaVuSans-6e" x="602.019531"/>
      <use xlink:href="#DejaVuSans-63" x="665.398438"/>
      <use xlink:href="#DejaVuSans-79" x="720.378906"/>
     </g>
    </g>
   </g>
   <g id="line2d_28">
    <path d="M 57.26 396.904052 
L 58.101638 396.684162 
L 58.943275 396.904052 
L 59.784913 397.343831 
L 62.309825 397.343831 
L 63.151463 397.893554 
L 65.676376 398.333333 
L 66.518013 398.113444 
L 69.042926 398.333333 
L 69.884564 398.223389 
L 71.567839 398.333333 
L 72.409476 398.223389 
L 73.251114 398.333333 
L 74.092751 398.223389 
L 75.776027 398.333333 
L 85.875677 398.223389 
L 86.717315 397.78361 
L 87.558953 397.78361 
L 88.40059 397.343831 
L 89.242228 396.464273 
L 90.083865 395.144936 
L 90.925503 394.485267 
L 91.767141 390.637201 
L 93.450416 384.810129 
L 94.292053 380.742173 
L 95.133691 379.093002 
L 95.975328 370.95709 
L 96.816966 374.585267 
L 97.658604 370.187477 
L 99.341879 364.360405 
L 100.183516 361.831676 
L 101.866791 354.575322 
L 102.708429 359.193002 
L 103.550067 351.606814 
L 104.391704 351.936648 
L 105.233342 350.287477 
L 106.074979 349.957643 
L 106.916617 347.209024 
L 107.758254 343.800737 
L 108.599892 344.240516 
L 109.44153 337.643831 
L 110.283167 330.167588 
L 111.124805 327.309024 
L 111.966442 317.523941 
L 112.80808 316.204604 
L 113.649717 312.246593 
L 114.491355 304.880295 
L 115.332993 308.178637 
L 116.17463 299.602947 
L 117.016268 301.472008 
L 117.857905 300.262615 
L 118.699543 297.294107 
L 119.54118 300.152671 
L 120.382818 298.943278 
L 121.224456 298.06372 
L 122.066093 302.131676 
L 122.907731 302.021731 
L 123.749368 299.822836 
L 124.591006 302.241621 
L 125.432643 303.670903 
L 126.274281 311.806814 
L 127.115919 305.539963 
L 127.957556 309.937753 
L 128.799194 311.25709 
L 129.640831 315.764825 
L 130.482469 315.544936 
L 131.324106 325.330019 
L 132.165744 319.942726 
L 133.007382 322.691345 
L 133.849019 329.507919 
L 134.690657 329.617864 
L 135.532294 330.277532 
L 136.373932 329.06814 
L 137.215569 330.387477 
L 138.057207 326.099632 
L 138.898845 329.947698 
L 139.740482 335.115101 
L 140.58212 330.937201 
L 141.423757 337.533886 
L 142.265395 334.895212 
L 143.94867 342.041621 
L 144.790308 339.073112 
L 145.631945 348.088582 
L 146.473583 346.219521 
L 147.31522 352.706262 
L 148.156858 344.790239 
L 148.998495 348.96814 
L 149.840133 356.444383 
L 150.681771 354.905157 
L 151.523408 365.349908 
L 152.365046 358.533333 
L 154.048321 368.86814 
L 154.889958 367.658748 
L 155.731596 367.768692 
L 156.573234 372.606262 
L 157.414871 368.86814 
L 158.256509 373.815654 
L 159.098146 376.674217 
L 159.939784 373.925599 
L 160.781422 375.684715 
L 161.623059 379.312891 
L 162.464697 376.014549 
L 163.306334 376.234438 
L 164.147972 377.553775 
L 164.989609 377.88361 
L 165.831247 380.192449 
L 166.672885 380.192449 
L 167.514522 379.642726 
L 168.35616 382.941068 
L 169.197797 383.270902 
L 170.039435 382.2814 
L 170.881072 383.160958 
L 173.405985 384.700184 
L 174.247623 383.270902 
L 175.08926 384.700184 
L 175.930898 385.579742 
L 176.772535 385.689687 
L 177.614173 385.579742 
L 178.455811 385.909576 
L 179.297448 386.899079 
L 180.139086 387.009024 
L 180.980723 388.76814 
L 181.822361 388.108471 
L 182.663998 387.998527 
L 183.505636 386.349355 
L 184.347274 390.85709 
L 185.188911 388.878085 
L 186.030549 389.207919 
L 186.872186 390.197422 
L 187.713824 391.406814 
L 188.555461 392.066483 
L 190.238737 390.417311 
L 191.080374 392.066483 
L 191.922012 392.286372 
L 192.763649 393.055985 
L 193.605287 393.16593 
L 194.446924 394.375322 
L 195.288562 393.38582 
L 196.1302 393.16593 
L 196.971837 392.616206 
L 197.813475 394.815101 
L 198.655112 393.715654 
L 200.338387 393.825599 
L 201.180025 394.375322 
L 202.021663 395.364825 
L 202.8633 394.705157 
L 203.704938 395.034991 
L 204.546575 396.574217 
L 205.388213 396.574217 
L 206.22985 396.354328 
L 207.071488 396.684162 
L 207.913126 395.694659 
L 208.754763 395.47477 
L 209.596401 397.233886 
L 210.438038 396.464273 
L 211.279676 397.013996 
L 212.121313 396.574217 
L 212.962951 396.904052 
L 213.804589 397.673665 
L 214.646226 397.123941 
L 215.487864 397.013996 
L 216.329501 396.464273 
L 217.171139 396.904052 
L 219.696052 397.123941 
L 220.537689 398.003499 
L 221.379327 397.013996 
L 223.90424 397.343831 
L 224.745877 397.123941 
L 225.587515 397.78361 
L 227.27079 396.574217 
L 228.112427 397.673665 
L 228.954065 396.904052 
L 229.795703 397.56372 
L 230.63734 397.343831 
L 232.320615 397.893554 
L 233.162253 397.56372 
L 234.845528 398.223389 
L 236.528803 397.673665 
L 237.370441 397.013996 
L 238.212078 398.003499 
L 239.053716 397.453775 
L 241.578629 397.893554 
L 242.420266 398.113444 
L 243.261904 397.78361 
L 244.103541 397.673665 
L 244.945179 397.893554 
L 246.628454 397.893554 
L 247.470092 398.113444 
L 248.311729 397.673665 
L 249.153367 398.113444 
L 249.995004 398.223389 
L 250.836642 397.123941 
L 251.678279 397.893554 
L 252.519917 397.56372 
L 254.203192 397.893554 
L 255.04483 397.123941 
L 255.886467 397.893554 
L 256.728105 397.233886 
L 257.569742 397.56372 
L 259.253018 397.893554 
L 260.094655 397.56372 
L 260.936293 398.113444 
L 261.77793 397.233886 
L 262.619568 397.893554 
L 263.461205 398.003499 
L 265.986118 397.453775 
L 266.827756 396.794107 
L 267.669393 397.453775 
L 268.511031 397.673665 
L 269.352668 396.794107 
L 270.194306 397.013996 
L 271.035944 396.354328 
L 271.877581 396.354328 
L 271.877581 396.354328 
" clip-path="url(#pc074f770fd)" style="fill: none; stroke: #008000; stroke-width: 1.5; stroke-linecap: square"/>
   </g>
   <g id="patch_8">
    <path d="M 57.26 398.333333 
L 57.26 219.343278 
" style="fill: none; stroke: #000000; stroke-width: 0.8; stroke-linejoin: miter; stroke-linecap: square"/>
   </g>
   <g id="patch_9">
    <path d="M 272.719219 398.333333 
L 272.719219 219.343278 
" style="fill: none; stroke: #000000; stroke-width: 0.8; stroke-linejoin: miter; stroke-linecap: square"/>
   </g>
   <g id="patch_10">
    <path d="M 57.26 398.333333 
L 272.719219 398.333333 
" style="fill: none; stroke: #000000; stroke-width: 0.8; stroke-linejoin: miter; stroke-linecap: square"/>
   </g>
   <g id="patch_11">
    <path d="M 57.26 219.343278 
L 272.719219 219.343278 
" style="fill: none; stroke: #000000; stroke-width: 0.8; stroke-linejoin: miter; stroke-linecap: square"/>
   </g>
   <g id="text_30">
    <!-- Green Channel  -->
    <g transform="translate(179.492344 233.343278) scale(0.12 -0.12)">
     <defs>
      <path id="DejaVuSans-47" d="M 3809 666 
L 3809 1919 
L 2778 1919 
L 2778 2438 
L 4434 2438 
L 4434 434 
Q 4069 175 3628 42 
Q 3188 -91 2688 -91 
Q 1594 -91 976 548 
Q 359 1188 359 2328 
Q 359 3472 976 4111 
Q 1594 4750 2688 4750 
Q 3144 4750 3555 4637 
Q 3966 4525 4313 4306 
L 4313 3634 
Q 3963 3931 3569 4081 
Q 3175 4231 2741 4231 
Q 1884 4231 1454 3753 
Q 1025 3275 1025 2328 
Q 1025 1384 1454 906 
Q 1884 428 2741 428 
Q 3075 428 3337 486 
Q 3600 544 3809 666 
z
" transform="scale(0.015625)"/>
     </defs>
     <use xlink:href="#DejaVuSans-47"/>
     <use xlink:href="#DejaVuSans-72" x="77.490234"/>
     <use xlink:href="#DejaVuSans-65" x="116.353516"/>
     <use xlink:href="#DejaVuSans-65" x="177.876953"/>
     <use xlink:href="#DejaVuSans-6e" x="239.400391"/>
     <use xlink:href="#DejaVuSans-20" x="302.779297"/>
     <use xlink:href="#DejaVuSans-43" x="334.566406"/>
     <use xlink:href="#DejaVuSans-68" x="404.390625"/>
     <use xlink:href="#DejaVuSans-61" x="467.769531"/>
     <use xlink:href="#DejaVuSans-6e" x="529.048828"/>
     <use xlink:href="#DejaVuSans-6e" x="592.427734"/>
     <use xlink:href="#DejaVuSans-65" x="655.806641"/>
     <use xlink:href="#DejaVuSans-6c" x="717.330078"/>
     <use xlink:href="#DejaVuSans-20" x="745.113281"/>
    </g>
   </g>
  </g>
  <g id="axes_3">
   <g id="patch_12">
    <path d="M 57.26 606.04 
L 272.719219 606.04 
L 272.719219 427.049945 
L 57.26 427.049945 
z
" style="fill: #ffffff"/>
   </g>
   <g id="PolyCollection_3">
    <defs>
     <path id="m853deca416" d="M 57.26 -41.96 
L 57.26 -41.96 
L 58.101638 -41.96 
L 58.943275 -41.96 
L 59.784913 -41.96 
L 60.62655 -41.96 
L 61.468188 -41.96 
L 62.309825 -41.96 
L 63.151463 -41.96 
L 63.993101 -41.96 
L 64.834738 -41.96 
L 65.676376 -41.96 
L 66.518013 -41.96 
L 67.359651 -41.96 
L 68.201288 -41.96 
L 69.042926 -41.96 
L 69.884564 -41.96 
L 70.726201 -41.96 
L 71.567839 -41.96 
L 72.409476 -42.069945 
L 73.251114 -41.96 
L 74.092751 -41.96 
L 74.934389 -41.96 
L 75.776027 -42.069945 
L 76.617664 -42.17989 
L 77.459302 -42.839558 
L 78.300939 -42.949503 
L 79.142577 -44.378785 
L 79.984214 -45.588177 
L 80.825852 -47.127403 
L 81.66749 -50.645635 
L 82.509127 -54.053923 
L 83.350765 -59.331271 
L 84.192402 -66.037901 
L 85.03404 -73.514144 
L 85.875677 -82.859447 
L 86.717315 -91.105304 
L 87.558953 -94.513591 
L 88.40059 -99.790939 
L 89.242228 -109.795911 
L 90.083865 -119.910829 
L 90.925503 -124.528508 
L 91.767141 -126.287624 
L 92.608778 -133.324088 
L 93.450416 -148.936243 
L 94.292053 -154.213591 
L 95.133691 -166.857237 
L 95.975328 -181.919668 
L 96.816966 -191.594806 
L 97.658604 -202.259447 
L 98.500241 -197.531823 
L 99.341879 -211.384862 
L 100.183516 -205.118011 
L 101.025154 -205.667735 
L 101.866791 -199.180994 
L 102.708429 -197.861657 
L 103.550067 -193.573812 
L 104.391704 -194.783204 
L 105.233342 -189.83569 
L 106.074979 -191.045083 
L 106.916617 -170.595359 
L 107.758254 -171.584862 
L 108.599892 -166.197569 
L 109.44153 -163.339005 
L 110.283167 -159.161105 
L 111.124805 -157.182099 
L 111.966442 -146.297569 
L 112.80808 -142.449503 
L 113.649717 -140.030718 
L 114.491355 -130.35558 
L 115.332993 -125.95779 
L 116.17463 -118.371602 
L 117.016268 -112.324641 
L 117.857905 -110.565525 
L 118.699543 -109.466077 
L 119.54118 -105.8379 
L 120.382818 -96.932376 
L 121.224456 -95.393149 
L 122.066093 -85.718011 
L 122.907731 -86.15779 
L 123.749368 -88.24674 
L 124.591006 -80.660552 
L 125.432643 -82.859447 
L 126.274281 -78.461657 
L 127.115919 -73.184309 
L 127.957556 -71.755028 
L 128.799194 -70.87547 
L 129.640831 -69.995912 
L 130.482469 -67.797017 
L 131.324106 -67.467182 
L 132.165744 -65.708066 
L 133.007382 -62.959447 
L 133.849019 -62.519668 
L 134.690657 -61.310276 
L 135.532294 -61.969945 
L 136.373932 -60.320773 
L 137.215569 -58.451713 
L 138.057207 -57.132376 
L 138.898845 -54.823536 
L 139.740482 -54.603646 
L 140.58212 -54.163867 
L 141.423757 -53.06442 
L 142.265395 -50.75558 
L 143.107032 -51.085414 
L 143.94867 -52.074917 
L 144.790308 -50.315801 
L 145.631945 -48.44674 
L 146.473583 -46.57768 
L 147.31522 -47.677127 
L 148.156858 -47.237348 
L 148.998495 -46.907514 
L 149.840133 -48.776575 
L 150.681771 -46.35779 
L 151.523408 -46.687624 
L 152.365046 -46.57768 
L 153.206683 -45.588177 
L 154.048321 -43.939006 
L 154.889958 -45.258343 
L 155.731596 -43.829061 
L 156.573234 -43.939006 
L 157.414871 -43.609171 
L 158.256509 -44.488729 
L 159.098146 -43.499227 
L 159.939784 -43.609171 
L 160.781422 -43.609171 
L 161.623059 -43.939006 
L 162.464697 -43.169392 
L 163.306334 -43.829061 
L 164.147972 -43.389282 
L 164.989609 -43.169392 
L 165.831247 -42.949503 
L 166.672885 -42.509724 
L 167.514522 -43.279337 
L 168.35616 -43.719116 
L 169.197797 -42.729613 
L 170.039435 -43.059448 
L 170.881072 -43.279337 
L 171.72271 -43.499227 
L 172.564348 -43.499227 
L 173.405985 -42.839558 
L 174.247623 -43.279337 
L 175.08926 -42.729613 
L 175.930898 -43.059448 
L 176.772535 -42.839558 
L 177.614173 -43.499227 
L 178.455811 -43.169392 
L 179.297448 -43.059448 
L 180.139086 -42.949503 
L 180.980723 -42.949503 
L 181.822361 -43.169392 
L 182.663998 -42.729613 
L 183.505636 -43.059448 
L 184.347274 -42.619669 
L 185.188911 -43.059448 
L 186.030549 -43.389282 
L 186.872186 -43.609171 
L 187.713824 -42.729613 
L 188.555461 -43.059448 
L 189.397099 -42.399779 
L 190.238737 -42.619669 
L 191.080374 -42.619669 
L 191.922012 -42.839558 
L 192.763649 -42.839558 
L 193.605287 -42.289834 
L 194.446924 -42.289834 
L 195.288562 -42.509724 
L 196.1302 -42.729613 
L 196.971837 -42.17989 
L 197.813475 -42.289834 
L 198.655112 -42.399779 
L 199.49675 -42.289834 
L 200.338387 -42.289834 
L 201.180025 -42.289834 
L 202.021663 -42.17989 
L 202.8633 -42.069945 
L 203.704938 -42.17989 
L 204.546575 -42.17989 
L 205.388213 -42.289834 
L 206.22985 -42.069945 
L 207.071488 -41.96 
L 207.913126 -42.17989 
L 208.754763 -41.96 
L 209.596401 -42.069945 
L 210.438038 -41.96 
L 211.279676 -41.96 
L 212.121313 -41.96 
L 212.962951 -42.069945 
L 213.804589 -41.96 
L 214.646226 -41.96 
L 215.487864 -41.96 
L 216.329501 -41.96 
L 217.171139 -42.069945 
L 218.012776 -41.96 
L 218.854414 -41.96 
L 219.696052 -42.17989 
L 220.537689 -41.96 
L 221.379327 -41.96 
L 222.220964 -41.96 
L 223.062602 -41.96 
L 223.90424 -41.96 
L 224.745877 -41.96 
L 225.587515 -41.96 
L 226.429152 -42.069945 
L 227.27079 -41.96 
L 228.112427 -41.96 
L 228.954065 -41.96 
L 229.795703 -41.96 
L 230.63734 -41.96 
L 231.478978 -41.96 
L 232.320615 -41.96 
L 233.162253 -41.96 
L 234.00389 -41.96 
L 234.845528 -41.96 
L 235.687166 -41.96 
L 236.528803 -41.96 
L 237.370441 -41.96 
L 238.212078 -41.96 
L 239.053716 -41.96 
L 239.895353 -41.96 
L 240.736991 -41.96 
L 241.578629 -41.96 
L 242.420266 -41.96 
L 243.261904 -41.96 
L 244.103541 -41.96 
L 244.945179 -41.96 
L 245.786816 -41.96 
L 246.628454 -41.96 
L 247.470092 -41.96 
L 248.311729 -41.96 
L 249.153367 -41.96 
L 249.995004 -41.96 
L 250.836642 -41.96 
L 251.678279 -41.96 
L 252.519917 -41.96 
L 253.361555 -41.96 
L 254.203192 -41.96 
L 255.04483 -41.96 
L 255.886467 -41.96 
L 256.728105 -41.96 
L 257.569742 -41.96 
L 258.41138 -41.96 
L 259.253018 -41.96 
L 260.094655 -41.96 
L 260.936293 -41.96 
L 261.77793 -41.96 
L 262.619568 -41.96 
L 263.461205 -41.96 
L 264.302843 -41.96 
L 265.144481 -41.96 
L 265.986118 -41.96 
L 266.827756 -41.96 
L 267.669393 -41.96 
L 268.511031 -41.96 
L 269.352668 -41.96 
L 270.194306 -41.96 
L 271.035944 -41.96 
L 271.877581 -41.96 
L 271.877581 -41.96 
L 271.877581 -41.96 
L 271.035944 -41.96 
L 270.194306 -41.96 
L 269.352668 -41.96 
L 268.511031 -41.96 
L 267.669393 -41.96 
L 266.827756 -41.96 
L 265.986118 -41.96 
L 265.144481 -41.96 
L 264.302843 -41.96 
L 263.461205 -41.96 
L 262.619568 -41.96 
L 261.77793 -41.96 
L 260.936293 -41.96 
L 260.094655 -41.96 
L 259.253018 -41.96 
L 258.41138 -41.96 
L 257.569742 -41.96 
L 256.728105 -41.96 
L 255.886467 -41.96 
L 255.04483 -41.96 
L 254.203192 -41.96 
L 253.361555 -41.96 
L 252.519917 -41.96 
L 251.678279 -41.96 
L 250.836642 -41.96 
L 249.995004 -41.96 
L 249.153367 -41.96 
L 248.311729 -41.96 
L 247.470092 -41.96 
L 246.628454 -41.96 
L 245.786816 -41.96 
L 244.945179 -41.96 
L 244.103541 -41.96 
L 243.261904 -41.96 
L 242.420266 -41.96 
L 241.578629 -41.96 
L 240.736991 -41.96 
L 239.895353 -41.96 
L 239.053716 -41.96 
L 238.212078 -41.96 
L 237.370441 -41.96 
L 236.528803 -41.96 
L 235.687166 -41.96 
L 234.845528 -41.96 
L 234.00389 -41.96 
L 233.162253 -41.96 
L 232.320615 -41.96 
L 231.478978 -41.96 
L 230.63734 -41.96 
L 229.795703 -41.96 
L 228.954065 -41.96 
L 228.112427 -41.96 
L 227.27079 -41.96 
L 226.429152 -41.96 
L 225.587515 -41.96 
L 224.745877 -41.96 
L 223.90424 -41.96 
L 223.062602 -41.96 
L 222.220964 -41.96 
L 221.379327 -41.96 
L 220.537689 -41.96 
L 219.696052 -41.96 
L 218.854414 -41.96 
L 218.012776 -41.96 
L 217.171139 -41.96 
L 216.329501 -41.96 
L 215.487864 -41.96 
L 214.646226 -41.96 
L 213.804589 -41.96 
L 212.962951 -41.96 
L 212.121313 -41.96 
L 211.279676 -41.96 
L 210.438038 -41.96 
L 209.596401 -41.96 
L 208.754763 -41.96 
L 207.913126 -41.96 
L 207.071488 -41.96 
L 206.22985 -41.96 
L 205.388213 -41.96 
L 204.546575 -41.96 
L 203.704938 -41.96 
L 202.8633 -41.96 
L 202.021663 -41.96 
L 201.180025 -41.96 
L 200.338387 -41.96 
L 199.49675 -41.96 
L 198.655112 -41.96 
L 197.813475 -41.96 
L 196.971837 -41.96 
L 196.1302 -41.96 
L 195.288562 -41.96 
L 194.446924 -41.96 
L 193.605287 -41.96 
L 192.763649 -41.96 
L 191.922012 -41.96 
L 191.080374 -41.96 
L 190.238737 -41.96 
L 189.397099 -41.96 
L 188.555461 -41.96 
L 187.713824 -41.96 
L 186.872186 -41.96 
L 186.030549 -41.96 
L 185.188911 -41.96 
L 184.347274 -41.96 
L 183.505636 -41.96 
L 182.663998 -41.96 
L 181.822361 -41.96 
L 180.980723 -41.96 
L 180.139086 -41.96 
L 179.297448 -41.96 
L 178.455811 -41.96 
L 177.614173 -41.96 
L 176.772535 -41.96 
L 175.930898 -41.96 
L 175.08926 -41.96 
L 174.247623 -41.96 
L 173.405985 -41.96 
L 172.564348 -41.96 
L 171.72271 -41.96 
L 170.881072 -41.96 
L 170.039435 -41.96 
L 169.197797 -41.96 
L 168.35616 -41.96 
L 167.514522 -41.96 
L 166.672885 -41.96 
L 165.831247 -41.96 
L 164.989609 -41.96 
L 164.147972 -41.96 
L 163.306334 -41.96 
L 162.464697 -41.96 
L 161.623059 -41.96 
L 160.781422 -41.96 
L 159.939784 -41.96 
L 159.098146 -41.96 
L 158.256509 -41.96 
L 157.414871 -41.96 
L 156.573234 -41.96 
L 155.731596 -41.96 
L 154.889958 -41.96 
L 154.048321 -41.96 
L 153.206683 -41.96 
L 152.365046 -41.96 
L 151.523408 -41.96 
L 150.681771 -41.96 
L 149.840133 -41.96 
L 148.998495 -41.96 
L 148.156858 -41.96 
L 147.31522 -41.96 
L 146.473583 -41.96 
L 145.631945 -41.96 
L 144.790308 -41.96 
L 143.94867 -41.96 
L 143.107032 -41.96 
L 142.265395 -41.96 
L 141.423757 -41.96 
L 140.58212 -41.96 
L 139.740482 -41.96 
L 138.898845 -41.96 
L 138.057207 -41.96 
L 137.215569 -41.96 
L 136.373932 -41.96 
L 135.532294 -41.96 
L 134.690657 -41.96 
L 133.849019 -41.96 
L 133.007382 -41.96 
L 132.165744 -41.96 
L 131.324106 -41.96 
L 130.482469 -41.96 
L 129.640831 -41.96 
L 128.799194 -41.96 
L 127.957556 -41.96 
L 127.115919 -41.96 
L 126.274281 -41.96 
L 125.432643 -41.96 
L 124.591006 -41.96 
L 123.749368 -41.96 
L 122.907731 -41.96 
L 122.066093 -41.96 
L 121.224456 -41.96 
L 120.382818 -41.96 
L 119.54118 -41.96 
L 118.699543 -41.96 
L 117.857905 -41.96 
L 117.016268 -41.96 
L 116.17463 -41.96 
L 115.332993 -41.96 
L 114.491355 -41.96 
L 113.649717 -41.96 
L 112.80808 -41.96 
L 111.966442 -41.96 
L 111.124805 -41.96 
L 110.283167 -41.96 
L 109.44153 -41.96 
L 108.599892 -41.96 
L 107.758254 -41.96 
L 106.916617 -41.96 
L 106.074979 -41.96 
L 105.233342 -41.96 
L 104.391704 -41.96 
L 103.550067 -41.96 
L 102.708429 -41.96 
L 101.866791 -41.96 
L 101.025154 -41.96 
L 100.183516 -41.96 
L 99.341879 -41.96 
L 98.500241 -41.96 
L 97.658604 -41.96 
L 96.816966 -41.96 
L 95.975328 -41.96 
L 95.133691 -41.96 
L 94.292053 -41.96 
L 93.450416 -41.96 
L 92.608778 -41.96 
L 91.767141 -41.96 
L 90.925503 -41.96 
L 90.083865 -41.96 
L 89.242228 -41.96 
L 88.40059 -41.96 
L 87.558953 -41.96 
L 86.717315 -41.96 
L 85.875677 -41.96 
L 85.03404 -41.96 
L 84.192402 -41.96 
L 83.350765 -41.96 
L 82.509127 -41.96 
L 81.66749 -41.96 
L 80.825852 -41.96 
L 79.984214 -41.96 
L 79.142577 -41.96 
L 78.300939 -41.96 
L 77.459302 -41.96 
L 76.617664 -41.96 
L 75.776027 -41.96 
L 74.934389 -41.96 
L 74.092751 -41.96 
L 73.251114 -41.96 
L 72.409476 -41.96 
L 71.567839 -41.96 
L 70.726201 -41.96 
L 69.884564 -41.96 
L 69.042926 -41.96 
L 68.201288 -41.96 
L 67.359651 -41.96 
L 66.518013 -41.96 
L 65.676376 -41.96 
L 64.834738 -41.96 
L 63.993101 -41.96 
L 63.151463 -41.96 
L 62.309825 -41.96 
L 61.468188 -41.96 
L 60.62655 -41.96 
L 59.784913 -41.96 
L 58.943275 -41.96 
L 58.101638 -41.96 
L 57.26 -41.96 
z
" style="stroke: #0000ff; stroke-opacity: 0.4"/>
    </defs>
    <g clip-path="url(#p1f12f3aae4)">
     <use xlink:href="#m853deca416" x="0" y="648" style="fill: #0000ff; fill-opacity: 0.4; stroke: #0000ff; stroke-opacity: 0.4"/>
    </g>
   </g>
   <g id="matplotlib.axis_5">
    <g id="xtick_13">
     <g id="line2d_29">
      <g>
       <use xlink:href="#m6eb3b96b93" x="57.26" y="606.04" style="stroke: #000000; stroke-width: 0.8"/>
      </g>
     </g>
     <g id="text_31">
      <!-- 0 -->
      <g transform="translate(54.07875 620.638437) scale(0.1 -0.1)">
       <use xlink:href="#DejaVuSans-30"/>
      </g>
     </g>
    </g>
    <g id="xtick_14">
     <g id="line2d_30">
      <g>
       <use xlink:href="#m6eb3b96b93" x="99.341879" y="606.04" style="stroke: #000000; stroke-width: 0.8"/>
      </g>
     </g>
     <g id="text_32">
      <!-- 50 -->
      <g transform="translate(92.979379 620.638437) scale(0.1 -0.1)">
       <use xlink:href="#DejaVuSans-35"/>
       <use xlink:href="#DejaVuSans-30" x="63.623047"/>
      </g>
     </g>
    </g>
    <g id="xtick_15">
     <g id="line2d_31">
      <g>
       <use xlink:href="#m6eb3b96b93" x="141.423757" y="606.04" style="stroke: #000000; stroke-width: 0.8"/>
      </g>
     </g>
     <g id="text_33">
      <!-- 100 -->
      <g transform="translate(131.880007 620.638437) scale(0.1 -0.1)">
       <use xlink:href="#DejaVuSans-31"/>
       <use xlink:href="#DejaVuSans-30" x="63.623047"/>
       <use xlink:href="#DejaVuSans-30" x="127.246094"/>
      </g>
     </g>
    </g>
    <g id="xtick_16">
     <g id="line2d_32">
      <g>
       <use xlink:href="#m6eb3b96b93" x="183.505636" y="606.04" style="stroke: #000000; stroke-width: 0.8"/>
      </g>
     </g>
     <g id="text_34">
      <!-- 150 -->
      <g transform="translate(173.961886 620.638437) scale(0.1 -0.1)">
       <use xlink:href="#DejaVuSans-31"/>
       <use xlink:href="#DejaVuSans-35" x="63.623047"/>
       <use xlink:href="#DejaVuSans-30" x="127.246094"/>
      </g>
     </g>
    </g>
    <g id="xtick_17">
     <g id="line2d_33">
      <g>
       <use xlink:href="#m6eb3b96b93" x="225.587515" y="606.04" style="stroke: #000000; stroke-width: 0.8"/>
      </g>
     </g>
     <g id="text_35">
      <!-- 200 -->
      <g transform="translate(216.043765 620.638437) scale(0.1 -0.1)">
       <use xlink:href="#DejaVuSans-32"/>
       <use xlink:href="#DejaVuSans-30" x="63.623047"/>
       <use xlink:href="#DejaVuSans-30" x="127.246094"/>
      </g>
     </g>
    </g>
    <g id="xtick_18">
     <g id="line2d_34">
      <g>
       <use xlink:href="#m6eb3b96b93" x="267.669393" y="606.04" style="stroke: #000000; stroke-width: 0.8"/>
      </g>
     </g>
     <g id="text_36">
      <!-- 250 -->
      <g transform="translate(258.125643 620.638437) scale(0.1 -0.1)">
       <use xlink:href="#DejaVuSans-32"/>
       <use xlink:href="#DejaVuSans-35" x="63.623047"/>
       <use xlink:href="#DejaVuSans-30" x="127.246094"/>
      </g>
     </g>
    </g>
    <g id="text_37">
     <!-- Pixel Intensity -->
     <g transform="translate(130.077891 634.316562) scale(0.1 -0.1)">
      <defs>
       <path id="DejaVuSans-49" d="M 628 4666 
L 1259 4666 
L 1259 0 
L 628 0 
L 628 4666 
z
" transform="scale(0.015625)"/>
       <path id="DejaVuSans-74" d="M 1172 4494 
L 1172 3500 
L 2356 3500 
L 2356 3053 
L 1172 3053 
L 1172 1153 
Q 1172 725 1289 603 
Q 1406 481 1766 481 
L 2356 481 
L 2356 0 
L 1766 0 
Q 1100 0 847 248 
Q 594 497 594 1153 
L 594 3053 
L 172 3053 
L 172 3500 
L 594 3500 
L 594 4494 
L 1172 4494 
z
" transform="scale(0.015625)"/>
       <path id="DejaVuSans-73" d="M 2834 3397 
L 2834 2853 
Q 2591 2978 2328 3040 
Q 2066 3103 1784 3103 
Q 1356 3103 1142 2972 
Q 928 2841 928 2578 
Q 928 2378 1081 2264 
Q 1234 2150 1697 2047 
L 1894 2003 
Q 2506 1872 2764 1633 
Q 3022 1394 3022 966 
Q 3022 478 2636 193 
Q 2250 -91 1575 -91 
Q 1294 -91 989 -36 
Q 684 19 347 128 
L 347 722 
Q 666 556 975 473 
Q 1284 391 1588 391 
Q 1994 391 2212 530 
Q 2431 669 2431 922 
Q 2431 1156 2273 1281 
Q 2116 1406 1581 1522 
L 1381 1569 
Q 847 1681 609 1914 
Q 372 2147 372 2553 
Q 372 3047 722 3315 
Q 1072 3584 1716 3584 
Q 2034 3584 2315 3537 
Q 2597 3491 2834 3397 
z
" transform="scale(0.015625)"/>
      </defs>
      <use xlink:href="#DejaVuSans-50"/>
      <use xlink:href="#DejaVuSans-69" x="58.052734"/>
      <use xlink:href="#DejaVuSans-78" x="85.835938"/>
      <use xlink:href="#DejaVuSans-65" x="141.890625"/>
      <use xlink:href="#DejaVuSans-6c" x="203.414062"/>
      <use xlink:href="#DejaVuSans-20" x="231.197266"/>
      <use xlink:href="#DejaVuSans-49" x="262.984375"/>
      <use xlink:href="#DejaVuSans-6e" x="292.476562"/>
      <use xlink:href="#DejaVuSans-74" x="355.855469"/>
      <use xlink:href="#DejaVuSans-65" x="395.064453"/>
      <use xlink:href="#DejaVuSans-6e" x="456.587891"/>
      <use xlink:href="#DejaVuSans-73" x="519.966797"/>
      <use xlink:href="#DejaVuSans-69" x="572.066406"/>
      <use xlink:href="#DejaVuSans-74" x="599.849609"/>
      <use xlink:href="#DejaVuSans-79" x="639.058594"/>
     </g>
    </g>
   </g>
   <g id="matplotlib.axis_6">
    <g id="ytick_15">
     <g id="line2d_35">
      <g>
       <use xlink:href="#mb909779cf9" x="57.26" y="606.04" style="stroke: #000000; stroke-width: 0.8"/>
      </g>
     </g>
     <g id="text_38">
      <!-- 0 -->
      <g transform="translate(43.8975 609.839219) scale(0.1 -0.1)">
       <use xlink:href="#DejaVuSans-30"/>
      </g>
     </g>
    </g>
    <g id="ytick_16">
     <g id="line2d_36">
      <g>
       <use xlink:href="#mb909779cf9" x="57.26" y="578.553812" style="stroke: #000000; stroke-width: 0.8"/>
      </g>
     </g>
     <g id="text_39">
      <!-- 250 -->
      <g transform="translate(31.1725 582.353031) scale(0.1 -0.1)">
       <use xlink:href="#DejaVuSans-32"/>
       <use xlink:href="#DejaVuSans-35" x="63.623047"/>
       <use xlink:href="#DejaVuSans-30" x="127.246094"/>
      </g>
     </g>
    </g>
    <g id="ytick_17">
     <g id="line2d_37">
      <g>
       <use xlink:href="#mb909779cf9" x="57.26" y="551.067624" style="stroke: #000000; stroke-width: 0.8"/>
      </g>
     </g>
     <g id="text_40">
      <!-- 500 -->
      <g transform="translate(31.1725 554.866843) scale(0.1 -0.1)">
       <use xlink:href="#DejaVuSans-35"/>
       <use xlink:href="#DejaVuSans-30" x="63.623047"/>
       <use xlink:href="#DejaVuSans-30" x="127.246094"/>
      </g>
     </g>
    </g>
    <g id="ytick_18">
     <g id="line2d_38">
      <g>
       <use xlink:href="#mb909779cf9" x="57.26" y="523.581437" style="stroke: #000000; stroke-width: 0.8"/>
      </g>
     </g>
     <g id="text_41">
      <!-- 750 -->
      <g transform="translate(31.1725 527.380655) scale(0.1 -0.1)">
       <use xlink:href="#DejaVuSans-37"/>
       <use xlink:href="#DejaVuSans-35" x="63.623047"/>
       <use xlink:href="#DejaVuSans-30" x="127.246094"/>
      </g>
     </g>
    </g>
    <g id="ytick_19">
     <g id="line2d_39">
      <g>
       <use xlink:href="#mb909779cf9" x="57.26" y="496.095249" style="stroke: #000000; stroke-width: 0.8"/>
      </g>
     </g>
     <g id="text_42">
      <!-- 1000 -->
      <g transform="translate(24.81 499.894468) scale(0.1 -0.1)">
       <use xlink:href="#DejaVuSans-31"/>
       <use xlink:href="#DejaVuSans-30" x="63.623047"/>
       <use xlink:href="#DejaVuSans-30" x="127.246094"/>
       <use xlink:href="#DejaVuSans-30" x="190.869141"/>
      </g>
     </g>
    </g>
    <g id="ytick_20">
     <g id="line2d_40">
      <g>
       <use xlink:href="#mb909779cf9" x="57.26" y="468.609061" style="stroke: #000000; stroke-width: 0.8"/>
      </g>
     </g>
     <g id="text_43">
      <!-- 1250 -->
      <g transform="translate(24.81 472.40828) scale(0.1 -0.1)">
       <use xlink:href="#DejaVuSans-31"/>
       <use xlink:href="#DejaVuSans-32" x="63.623047"/>
       <use xlink:href="#DejaVuSans-35" x="127.246094"/>
       <use xlink:href="#DejaVuSans-30" x="190.869141"/>
      </g>
     </g>
    </g>
    <g id="ytick_21">
     <g id="line2d_41">
      <g>
       <use xlink:href="#mb909779cf9" x="57.26" y="441.122873" style="stroke: #000000; stroke-width: 0.8"/>
      </g>
     </g>
     <g id="text_44">
      <!-- 1500 -->
      <g transform="translate(24.81 444.922092) scale(0.1 -0.1)">
       <use xlink:href="#DejaVuSans-31"/>
       <use xlink:href="#DejaVuSans-35" x="63.623047"/>
       <use xlink:href="#DejaVuSans-30" x="127.246094"/>
       <use xlink:href="#DejaVuSans-30" x="190.869141"/>
      </g>
     </g>
    </g>
    <g id="text_45">
     <!-- Pixel Frequency -->
     <g transform="translate(18.730313 555.523879) rotate(-90) scale(0.1 -0.1)">
      <use xlink:href="#DejaVuSans-50"/>
      <use xlink:href="#DejaVuSans-69" x="58.052734"/>
      <use xlink:href="#DejaVuSans-78" x="85.835938"/>
      <use xlink:href="#DejaVuSans-65" x="141.890625"/>
      <use xlink:href="#DejaVuSans-6c" x="203.414062"/>
      <use xlink:href="#DejaVuSans-20" x="231.197266"/>
      <use xlink:href="#DejaVuSans-46" x="262.984375"/>
      <use xlink:href="#DejaVuSans-72" x="313.253906"/>
      <use xlink:href="#DejaVuSans-65" x="352.117188"/>
      <use xlink:href="#DejaVuSans-71" x="413.640625"/>
      <use xlink:href="#DejaVuSans-75" x="477.117188"/>
      <use xlink:href="#DejaVuSans-65" x="540.496094"/>
      <use xlink:href="#DejaVuSans-6e" x="602.019531"/>
      <use xlink:href="#DejaVuSans-63" x="665.398438"/>
      <use xlink:href="#DejaVuSans-79" x="720.378906"/>
     </g>
    </g>
   </g>
   <g id="line2d_42">
    <path d="M 57.26 606.04 
L 75.776027 605.930055 
L 76.617664 605.82011 
L 77.459302 605.160442 
L 78.300939 605.050497 
L 79.142577 603.621215 
L 79.984214 602.411823 
L 80.825852 600.872597 
L 82.509127 593.946077 
L 83.350765 588.668729 
L 85.03404 574.485856 
L 86.717315 556.894696 
L 87.558953 553.486409 
L 88.40059 548.209061 
L 90.083865 528.089171 
L 90.925503 523.471492 
L 91.767141 521.712376 
L 92.608778 514.675912 
L 93.450416 499.063757 
L 94.292053 493.786409 
L 95.133691 481.142763 
L 95.975328 466.080332 
L 97.658604 445.740553 
L 98.500241 450.468177 
L 99.341879 436.615138 
L 100.183516 442.881989 
L 101.025154 442.332265 
L 101.866791 448.819006 
L 102.708429 450.138343 
L 103.550067 454.426188 
L 104.391704 453.216796 
L 105.233342 458.16431 
L 106.074979 456.954917 
L 106.916617 477.404641 
L 107.758254 476.415138 
L 108.599892 481.802431 
L 109.44153 484.660995 
L 110.283167 488.838895 
L 111.124805 490.817901 
L 111.966442 501.702431 
L 112.80808 505.550497 
L 113.649717 507.969282 
L 114.491355 517.64442 
L 115.332993 522.04221 
L 116.17463 529.628398 
L 117.016268 535.675359 
L 117.857905 537.434475 
L 118.699543 538.533923 
L 119.54118 542.1621 
L 120.382818 551.067624 
L 121.224456 552.606851 
L 122.066093 562.281989 
L 122.907731 561.84221 
L 123.749368 559.75326 
L 124.591006 567.339448 
L 125.432643 565.140553 
L 126.274281 569.538343 
L 127.115919 574.815691 
L 127.957556 576.244972 
L 129.640831 578.004088 
L 130.482469 580.202983 
L 131.324106 580.532818 
L 132.165744 582.291934 
L 133.007382 585.040553 
L 133.849019 585.480332 
L 134.690657 586.689724 
L 135.532294 586.030055 
L 138.057207 590.867624 
L 138.898845 593.176464 
L 139.740482 593.396354 
L 140.58212 593.836133 
L 141.423757 594.93558 
L 142.265395 597.24442 
L 143.107032 596.914586 
L 143.94867 595.925083 
L 146.473583 601.42232 
L 147.31522 600.322873 
L 148.998495 601.092486 
L 149.840133 599.223425 
L 150.681771 601.64221 
L 151.523408 601.312376 
L 152.365046 601.42232 
L 153.206683 602.411823 
L 154.048321 604.060994 
L 154.889958 602.741657 
L 155.731596 604.170939 
L 156.573234 604.060994 
L 157.414871 604.390829 
L 158.256509 603.511271 
L 159.098146 604.500773 
L 161.623059 604.060994 
L 162.464697 604.830608 
L 163.306334 604.170939 
L 164.147972 604.610718 
L 165.831247 605.050497 
L 166.672885 605.490276 
L 167.514522 604.720663 
L 168.35616 604.280884 
L 169.197797 605.270387 
L 170.881072 604.720663 
L 171.72271 604.500773 
L 172.564348 604.500773 
L 173.405985 605.160442 
L 174.247623 604.720663 
L 175.08926 605.270387 
L 175.930898 604.940552 
L 176.772535 605.160442 
L 177.614173 604.500773 
L 178.455811 604.830608 
L 180.980723 605.050497 
L 181.822361 604.830608 
L 182.663998 605.270387 
L 183.505636 604.940552 
L 184.347274 605.380331 
L 186.030549 604.610718 
L 186.872186 604.390829 
L 187.713824 605.270387 
L 188.555461 604.940552 
L 189.397099 605.600221 
L 190.238737 605.380331 
L 191.080374 605.380331 
L 191.922012 605.160442 
L 192.763649 605.160442 
L 193.605287 605.710166 
L 194.446924 605.710166 
L 196.1302 605.270387 
L 196.971837 605.82011 
L 198.655112 605.600221 
L 200.338387 605.710166 
L 202.021663 605.82011 
L 202.8633 605.930055 
L 205.388213 605.710166 
L 207.071488 606.04 
L 207.913126 605.82011 
L 208.754763 606.04 
L 209.596401 605.930055 
L 211.279676 606.04 
L 218.854414 606.04 
L 219.696052 605.82011 
L 220.537689 606.04 
L 271.877581 606.04 
L 271.877581 606.04 
" clip-path="url(#p1f12f3aae4)" style="fill: none; stroke: #0000ff; stroke-width: 1.5; stroke-linecap: square"/>
   </g>
   <g id="patch_13">
    <path d="M 57.26 606.04 
L 57.26 427.049945 
" style="fill: none; stroke: #000000; stroke-width: 0.8; stroke-linejoin: miter; stroke-linecap: square"/>
   </g>
   <g id="patch_14">
    <path d="M 272.719219 606.04 
L 272.719219 427.049945 
" style="fill: none; stroke: #000000; stroke-width: 0.8; stroke-linejoin: miter; stroke-linecap: square"/>
   </g>
   <g id="patch_15">
    <path d="M 57.26 606.04 
L 272.719219 606.04 
" style="fill: none; stroke: #000000; stroke-width: 0.8; stroke-linejoin: miter; stroke-linecap: square"/>
   </g>
   <g id="patch_16">
    <path d="M 57.26 427.049945 
L 272.719219 427.049945 
" style="fill: none; stroke: #000000; stroke-width: 0.8; stroke-linejoin: miter; stroke-linecap: square"/>
   </g>
   <g id="text_46">
    <!-- Blue Channel  -->
    <g transform="translate(189.270469 441.049945) scale(0.12 -0.12)">
     <defs>
      <path id="DejaVuSans-42" d="M 1259 2228 
L 1259 519 
L 2272 519 
Q 2781 519 3026 730 
Q 3272 941 3272 1375 
Q 3272 1813 3026 2020 
Q 2781 2228 2272 2228 
L 1259 2228 
z
M 1259 4147 
L 1259 2741 
L 2194 2741 
Q 2656 2741 2882 2914 
Q 3109 3088 3109 3444 
Q 3109 3797 2882 3972 
Q 2656 4147 2194 4147 
L 1259 4147 
z
M 628 4666 
L 2241 4666 
Q 2963 4666 3353 4366 
Q 3744 4066 3744 3513 
Q 3744 3084 3544 2831 
Q 3344 2578 2956 2516 
Q 3422 2416 3680 2098 
Q 3938 1781 3938 1306 
Q 3938 681 3513 340 
Q 3088 0 2303 0 
L 628 0 
L 628 4666 
z
" transform="scale(0.015625)"/>
     </defs>
     <use xlink:href="#DejaVuSans-42"/>
     <use xlink:href="#DejaVuSans-6c" x="68.603516"/>
     <use xlink:href="#DejaVuSans-75" x="96.386719"/>
     <use xlink:href="#DejaVuSans-65" x="159.765625"/>
     <use xlink:href="#DejaVuSans-20" x="221.289062"/>
     <use xlink:href="#DejaVuSans-43" x="253.076172"/>
     <use xlink:href="#DejaVuSans-68" x="322.900391"/>
     <use xlink:href="#DejaVuSans-61" x="386.279297"/>
     <use xlink:href="#DejaVuSans-6e" x="447.558594"/>
     <use xlink:href="#DejaVuSans-6e" x="510.9375"/>
     <use xlink:href="#DejaVuSans-65" x="574.316406"/>
     <use xlink:href="#DejaVuSans-6c" x="635.839844"/>
     <use xlink:href="#DejaVuSans-20" x="663.623047"/>
    </g>
   </g>
  </g>
 </g>
 <defs>
  <clipPath id="p2cfff97e2b">
   <rect x="57.26" y="11.636612" width="215.459219" height="178.990055"/>
  </clipPath>
  <clipPath id="pc074f770fd">
   <rect x="57.26" y="219.343278" width="215.459219" height="178.990055"/>
  </clipPath>
  <clipPath id="p1f12f3aae4">
   <rect x="57.26" y="427.049945" width="215.459219" height="178.990055"/>
  </clipPath>
 </defs>
</svg>
