<?xml version="1.0" encoding="utf-8" standalone="no"?>
<!DOCTYPE svg PUBLIC "-//W3C//DTD SVG 1.1//EN"
  "http://www.w3.org/Graphics/SVG/1.1/DTD/svg11.dtd">
<svg xmlns:xlink="http://www.w3.org/1999/xlink" width="288pt" height="648pt" viewBox="0 0 288 648" xmlns="http://www.w3.org/2000/svg" version="1.1">
 <metadata>
  <rdf:RDF xmlns:dc="http://purl.org/dc/elements/1.1/" xmlns:cc="http://creativecommons.org/ns#" xmlns:rdf="http://www.w3.org/1999/02/22-rdf-syntax-ns#">
   <cc:Work>
    <dc:type rdf:resource="http://purl.org/dc/dcmitype/StillImage"/>
    <dc:date>2023-11-18T15:18:15.407085</dc:date>
    <dc:format>image/svg+xml</dc:format>
    <dc:creator>
     <cc:Agent>
      <dc:title>Matplotlib v3.8.0, https://matplotlib.org/</dc:title>
     </cc:Agent>
    </dc:creator>
   </cc:Work>
  </rdf:RDF>
 </metadata>
 <defs>
  <style type="text/css">*{stroke-linejoin: round; stroke-linecap: butt}</style>
 </defs>
 <g id="figure_1">
  <g id="patch_1">
   <path d="M 0 648 
L 288 648 
L 288 0 
L 0 0 
z
" style="fill: #ffffff"/>
  </g>
  <g id="axes_1">
   <g id="patch_2">
    <path d="M 57.26 190.626667 
L 272.719219 190.626667 
L 272.719219 11.636612 
L 57.26 11.636612 
z
" style="fill: #ffffff"/>
   </g>
   <g id="PolyCollection_1">
    <defs>
     <path id="m400878a45f" d="M 57.26 -457.373333 
L 57.26 -457.373333 
L 58.101638 -457.373333 
L 58.943275 -457.373333 
L 59.784913 -457.373333 
L 60.62655 -457.373333 
L 61.468188 -457.373333 
L 62.309825 -457.373333 
L 63.151463 -457.373333 
L 63.993101 -457.373333 
L 64.834738 -457.373333 
L 65.676376 -457.373333 
L 66.518013 -457.373333 
L 67.359651 -457.373333 
L 68.201288 -457.373333 
L 69.042926 -457.373333 
L 69.884564 -457.373333 
L 70.726201 -457.373333 
L 71.567839 -457.373333 
L 72.409476 -457.373333 
L 73.251114 -457.373333 
L 74.092751 -457.373333 
L 74.934389 -457.373333 
L 75.776027 -457.373333 
L 76.617664 -457.373333 
L 77.459302 -457.373333 
L 78.300939 -457.373333 
L 79.142577 -457.373333 
L 79.984214 -457.373333 
L 80.825852 -457.373333 
L 81.66749 -457.373333 
L 82.509127 -457.373333 
L 83.350765 -457.373333 
L 84.192402 -457.373333 
L 85.03404 -457.373333 
L 85.875677 -457.373333 
L 86.717315 -457.373333 
L 87.558953 -457.373333 
L 88.40059 -457.373333 
L 89.242228 -457.373333 
L 90.083865 -457.373333 
L 90.925503 -457.373333 
L 91.767141 -457.373333 
L 92.608778 -457.373333 
L 93.450416 -457.373333 
L 94.292053 -457.373333 
L 95.133691 -457.373333 
L 95.975328 -458.033002 
L 96.816966 -459.132449 
L 97.658604 -459.242394 
L 98.500241 -462.870571 
L 99.341879 -466.388803 
L 100.183516 -470.346814 
L 101.025154 -471.88604 
L 101.866791 -472.325819 
L 102.708429 -471.776096 
L 103.550067 -472.985488 
L 104.391704 -478.042947 
L 105.233342 -481.451234 
L 106.074979 -489.587145 
L 106.916617 -505.41919 
L 107.758254 -505.529134 
L 108.599892 -503.989908 
L 109.44153 -506.628582 
L 110.283167 -506.408692 
L 111.124805 -503.989908 
L 111.966442 -501.351234 
L 112.80808 -509.157311 
L 113.649717 -515.204272 
L 114.491355 -525.978858 
L 115.332993 -539.062283 
L 116.17463 -547.30814 
L 117.016268 -549.726924 
L 117.857905 -548.957311 
L 118.699543 -554.124714 
L 119.54118 -562.700405 
L 120.382818 -576.443499 
L 121.224456 -575.563941 
L 122.066093 -581.171123 
L 122.907731 -576.773333 
L 123.749368 -578.532449 
L 124.591006 -578.642394 
L 125.432643 -573.69488 
L 126.274281 -576.113665 
L 127.115919 -575.014217 
L 127.957556 -571.495985 
L 128.799194 -570.946261 
L 129.640831 -570.726372 
L 130.482469 -567.428029 
L 131.324106 -564.019742 
L 132.165744 -563.799852 
L 133.007382 -555.224162 
L 133.849019 -551.70593 
L 134.690657 -550.276648 
L 135.532294 -543.130239 
L 136.373932 -542.140737 
L 137.215569 -543.020295 
L 138.057207 -537.083278 
L 138.898845 -538.182725 
L 139.740482 -538.952339 
L 140.58212 -541.041289 
L 141.423757 -541.810902 
L 142.265395 -541.261178 
L 143.107032 -539.392118 
L 143.94867 -529.936869 
L 144.790308 -533.015322 
L 145.631945 -518.282725 
L 146.473583 -519.602063 
L 147.31522 -521.910902 
L 148.156858 -513.774991 
L 148.998495 -512.235764 
L 149.840133 -509.59709 
L 150.681771 -502.670571 
L 151.523408 -503.220295 
L 152.365046 -504.539632 
L 153.206683 -498.822505 
L 154.048321 -493.765046 
L 154.889958 -492.665598 
L 155.731596 -490.576648 
L 156.573234 -490.796538 
L 157.414871 -487.058416 
L 158.256509 -485.51919 
L 159.098146 -484.419742 
L 159.939784 -481.341289 
L 160.781422 -481.451234 
L 161.623059 -484.859521 
L 162.464697 -481.781068 
L 163.306334 -477.823057 
L 164.147972 -479.692118 
L 164.989609 -477.713112 
L 165.831247 -475.404273 
L 166.672885 -476.173886 
L 167.514522 -475.184383 
L 168.35616 -474.964494 
L 169.197797 -475.074438 
L 170.039435 -470.346814 
L 170.881072 -471.006482 
L 171.72271 -472.545709 
L 172.564348 -470.346814 
L 173.405985 -468.917532 
L 174.247623 -469.467256 
L 175.08926 -468.917532 
L 175.930898 -465.179411 
L 176.772535 -465.289355 
L 177.614173 -466.828582 
L 178.455811 -465.289355 
L 179.297448 -463.31035 
L 180.139086 -465.3993 
L 180.980723 -465.729134 
L 181.822361 -463.31035 
L 182.663998 -462.760626 
L 183.505636 -463.970018 
L 184.347274 -462.210902 
L 185.188911 -462.540737 
L 186.030549 -461.331344 
L 186.872186 -462.320847 
L 187.713824 -461.2214 
L 188.555461 -460.671676 
L 189.397099 -461.111455 
L 190.238737 -460.231897 
L 191.080374 -459.902063 
L 191.922012 -460.341842 
L 192.763649 -460.561731 
L 193.605287 -459.242394 
L 194.446924 -458.582726 
L 195.288562 -458.362836 
L 196.1302 -459.242394 
L 196.971837 -458.69267 
L 197.813475 -459.132449 
L 198.655112 -458.802615 
L 199.49675 -459.132449 
L 200.338387 -458.69267 
L 201.180025 -459.462284 
L 202.021663 -458.362836 
L 202.8633 -458.252891 
L 203.704938 -458.91256 
L 204.546575 -458.252891 
L 205.388213 -458.362836 
L 206.22985 -458.472781 
L 207.071488 -458.142947 
L 207.913126 -458.142947 
L 208.754763 -457.923057 
L 209.596401 -457.703168 
L 210.438038 -458.142947 
L 211.279676 -457.813112 
L 212.121313 -458.252891 
L 212.962951 -458.033002 
L 213.804589 -458.142947 
L 214.646226 -458.142947 
L 215.487864 -458.472781 
L 216.329501 -458.582726 
L 217.171139 -458.142947 
L 218.012776 -457.703168 
L 218.854414 -457.813112 
L 219.696052 -457.593223 
L 220.537689 -458.142947 
L 221.379327 -458.252891 
L 222.220964 -458.033002 
L 223.062602 -457.923057 
L 223.90424 -458.362836 
L 224.745877 -458.252891 
L 225.587515 -458.033002 
L 226.429152 -458.582726 
L 227.27079 -457.703168 
L 228.112427 -458.142947 
L 228.954065 -458.033002 
L 229.795703 -458.252891 
L 230.63734 -457.593223 
L 231.478978 -457.483278 
L 232.320615 -457.813112 
L 233.162253 -457.483278 
L 234.00389 -457.703168 
L 234.845528 -458.142947 
L 235.687166 -458.033002 
L 236.528803 -457.593223 
L 237.370441 -457.593223 
L 238.212078 -457.703168 
L 239.053716 -458.033002 
L 239.895353 -458.362836 
L 240.736991 -457.923057 
L 241.578629 -458.362836 
L 242.420266 -458.142947 
L 243.261904 -457.593223 
L 244.103541 -458.033002 
L 244.945179 -458.142947 
L 245.786816 -457.593223 
L 246.628454 -458.142947 
L 247.470092 -457.923057 
L 248.311729 -458.142947 
L 249.153367 -457.703168 
L 249.995004 -458.033002 
L 250.836642 -458.033002 
L 251.678279 -458.362836 
L 252.519917 -457.703168 
L 253.361555 -458.582726 
L 254.203192 -458.033002 
L 255.04483 -458.362836 
L 255.886467 -457.923057 
L 256.728105 -458.033002 
L 257.569742 -457.703168 
L 258.41138 -457.923057 
L 259.253018 -458.033002 
L 260.094655 -457.483278 
L 260.936293 -457.593223 
L 261.77793 -457.593223 
L 262.619568 -457.483278 
L 263.461205 -457.813112 
L 264.302843 -457.593223 
L 265.144481 -457.373333 
L 265.986118 -457.373333 
L 266.827756 -457.483278 
L 267.669393 -457.483278 
L 268.511031 -457.373333 
L 269.352668 -457.373333 
L 270.194306 -457.483278 
L 271.035944 -457.483278 
L 271.877581 -457.483278 
L 271.877581 -457.373333 
L 271.877581 -457.373333 
L 271.035944 -457.373333 
L 270.194306 -457.373333 
L 269.352668 -457.373333 
L 268.511031 -457.373333 
L 267.669393 -457.373333 
L 266.827756 -457.373333 
L 265.986118 -457.373333 
L 265.144481 -457.373333 
L 264.302843 -457.373333 
L 263.461205 -457.373333 
L 262.619568 -457.373333 
L 261.77793 -457.373333 
L 260.936293 -457.373333 
L 260.094655 -457.373333 
L 259.253018 -457.373333 
L 258.41138 -457.373333 
L 257.569742 -457.373333 
L 256.728105 -457.373333 
L 255.886467 -457.373333 
L 255.04483 -457.373333 
L 254.203192 -457.373333 
L 253.361555 -457.373333 
L 252.519917 -457.373333 
L 251.678279 -457.373333 
L 250.836642 -457.373333 
L 249.995004 -457.373333 
L 249.153367 -457.373333 
L 248.311729 -457.373333 
L 247.470092 -457.373333 
L 246.628454 -457.373333 
L 245.786816 -457.373333 
L 244.945179 -457.373333 
L 244.103541 -457.373333 
L 243.261904 -457.373333 
L 242.420266 -457.373333 
L 241.578629 -457.373333 
L 240.736991 -457.373333 
L 239.895353 -457.373333 
L 239.053716 -457.373333 
L 238.212078 -457.373333 
L 237.370441 -457.373333 
L 236.528803 -457.373333 
L 235.687166 -457.373333 
L 234.845528 -457.373333 
L 234.00389 -457.373333 
L 233.162253 -457.373333 
L 232.320615 -457.373333 
L 231.478978 -457.373333 
L 230.63734 -457.373333 
L 229.795703 -457.373333 
L 228.954065 -457.373333 
L 228.112427 -457.373333 
L 227.27079 -457.373333 
L 226.429152 -457.373333 
L 225.587515 -457.373333 
L 224.745877 -457.373333 
L 223.90424 -457.373333 
L 223.062602 -457.373333 
L 222.220964 -457.373333 
L 221.379327 -457.373333 
L 220.537689 -457.373333 
L 219.696052 -457.373333 
L 218.854414 -457.373333 
L 218.012776 -457.373333 
L 217.171139 -457.373333 
L 216.329501 -457.373333 
L 215.487864 -457.373333 
L 214.646226 -457.373333 
L 213.804589 -457.373333 
L 212.962951 -457.373333 
L 212.121313 -457.373333 
L 211.279676 -457.373333 
L 210.438038 -457.373333 
L 209.596401 -457.373333 
L 208.754763 -457.373333 
L 207.913126 -457.373333 
L 207.071488 -457.373333 
L 206.22985 -457.373333 
L 205.388213 -457.373333 
L 204.546575 -457.373333 
L 203.704938 -457.373333 
L 202.8633 -457.373333 
L 202.021663 -457.373333 
L 201.180025 -457.373333 
L 200.338387 -457.373333 
L 199.49675 -457.373333 
L 198.655112 -457.373333 
L 197.813475 -457.373333 
L 196.971837 -457.373333 
L 196.1302 -457.373333 
L 195.288562 -457.373333 
L 194.446924 -457.373333 
L 193.605287 -457.373333 
L 192.763649 -457.373333 
L 191.922012 -457.373333 
L 191.080374 -457.373333 
L 190.238737 -457.373333 
L 189.397099 -457.373333 
L 188.555461 -457.373333 
L 187.713824 -457.373333 
L 186.872186 -457.373333 
L 186.030549 -457.373333 
L 185.188911 -457.373333 
L 184.347274 -457.373333 
L 183.505636 -457.373333 
L 182.663998 -457.373333 
L 181.822361 -457.373333 
L 180.980723 -457.373333 
L 180.139086 -457.373333 
L 179.297448 -457.373333 
L 178.455811 -457.373333 
L 177.614173 -457.373333 
L 176.772535 -457.373333 
L 175.930898 -457.373333 
L 175.08926 -457.373333 
L 174.247623 -457.373333 
L 173.405985 -457.373333 
L 172.564348 -457.373333 
L 171.72271 -457.373333 
L 170.881072 -457.373333 
L 170.039435 -457.373333 
L 169.197797 -457.373333 
L 168.35616 -457.373333 
L 167.514522 -457.373333 
L 166.672885 -457.373333 
L 165.831247 -457.373333 
L 164.989609 -457.373333 
L 164.147972 -457.373333 
L 163.306334 -457.373333 
L 162.464697 -457.373333 
L 161.623059 -457.373333 
L 160.781422 -457.373333 
L 159.939784 -457.373333 
L 159.098146 -457.373333 
L 158.256509 -457.373333 
L 157.414871 -457.373333 
L 156.573234 -457.373333 
L 155.731596 -457.373333 
L 154.889958 -457.373333 
L 154.048321 -457.373333 
L 153.206683 -457.373333 
L 152.365046 -457.373333 
L 151.523408 -457.373333 
L 150.681771 -457.373333 
L 149.840133 -457.373333 
L 148.998495 -457.373333 
L 148.156858 -457.373333 
L 147.31522 -457.373333 
L 146.473583 -457.373333 
L 145.631945 -457.373333 
L 144.790308 -457.373333 
L 143.94867 -457.373333 
L 143.107032 -457.373333 
L 142.265395 -457.373333 
L 141.423757 -457.373333 
L 140.58212 -457.373333 
L 139.740482 -457.373333 
L 138.898845 -457.373333 
L 138.057207 -457.373333 
L 137.215569 -457.373333 
L 136.373932 -457.373333 
L 135.532294 -457.373333 
L 134.690657 -457.373333 
L 133.849019 -457.373333 
L 133.007382 -457.373333 
L 132.165744 -457.373333 
L 131.324106 -457.373333 
L 130.482469 -457.373333 
L 129.640831 -457.373333 
L 128.799194 -457.373333 
L 127.957556 -457.373333 
L 127.115919 -457.373333 
L 126.274281 -457.373333 
L 125.432643 -457.373333 
L 124.591006 -457.373333 
L 123.749368 -457.373333 
L 122.907731 -457.373333 
L 122.066093 -457.373333 
L 121.224456 -457.373333 
L 120.382818 -457.373333 
L 119.54118 -457.373333 
L 118.699543 -457.373333 
L 117.857905 -457.373333 
L 117.016268 -457.373333 
L 116.17463 -457.373333 
L 115.332993 -457.373333 
L 114.491355 -457.373333 
L 113.649717 -457.373333 
L 112.80808 -457.373333 
L 111.966442 -457.373333 
L 111.124805 -457.373333 
L 110.283167 -457.373333 
L 109.44153 -457.373333 
L 108.599892 -457.373333 
L 107.758254 -457.373333 
L 106.916617 -457.373333 
L 106.074979 -457.373333 
L 105.233342 -457.373333 
L 104.391704 -457.373333 
L 103.550067 -457.373333 
L 102.708429 -457.373333 
L 101.866791 -457.373333 
L 101.025154 -457.373333 
L 100.183516 -457.373333 
L 99.341879 -457.373333 
L 98.500241 -457.373333 
L 97.658604 -457.373333 
L 96.816966 -457.373333 
L 95.975328 -457.373333 
L 95.133691 -457.373333 
L 94.292053 -457.373333 
L 93.450416 -457.373333 
L 92.608778 -457.373333 
L 91.767141 -457.373333 
L 90.925503 -457.373333 
L 90.083865 -457.373333 
L 89.242228 -457.373333 
L 88.40059 -457.373333 
L 87.558953 -457.373333 
L 86.717315 -457.373333 
L 85.875677 -457.373333 
L 85.03404 -457.373333 
L 84.192402 -457.373333 
L 83.350765 -457.373333 
L 82.509127 -457.373333 
L 81.66749 -457.373333 
L 80.825852 -457.373333 
L 79.984214 -457.373333 
L 79.142577 -457.373333 
L 78.300939 -457.373333 
L 77.459302 -457.373333 
L 76.617664 -457.373333 
L 75.776027 -457.373333 
L 74.934389 -457.373333 
L 74.092751 -457.373333 
L 73.251114 -457.373333 
L 72.409476 -457.373333 
L 71.567839 -457.373333 
L 70.726201 -457.373333 
L 69.884564 -457.373333 
L 69.042926 -457.373333 
L 68.201288 -457.373333 
L 67.359651 -457.373333 
L 66.518013 -457.373333 
L 65.676376 -457.373333 
L 64.834738 -457.373333 
L 63.993101 -457.373333 
L 63.151463 -457.373333 
L 62.309825 -457.373333 
L 61.468188 -457.373333 
L 60.62655 -457.373333 
L 59.784913 -457.373333 
L 58.943275 -457.373333 
L 58.101638 -457.373333 
L 57.26 -457.373333 
z
" style="stroke: #ff0000; stroke-opacity: 0.4"/>
    </defs>
    <g clip-path="url(#p8541619d73)">
     <use xlink:href="#m400878a45f" x="0" y="648" style="fill: #ff0000; fill-opacity: 0.4; stroke: #ff0000; stroke-opacity: 0.4"/>
    </g>
   </g>
   <g id="matplotlib.axis_1">
    <g id="xtick_1">
     <g id="line2d_1">
      <defs>
       <path id="mf0b4c80073" d="M 0 0 
L 0 3.5 
" style="stroke: #000000; stroke-width: 0.8"/>
      </defs>
      <g>
       <use xlink:href="#mf0b4c80073" x="57.26" y="190.626667" style="stroke: #000000; stroke-width: 0.8"/>
      </g>
     </g>
     <g id="text_1">
      <!-- 0 -->
      <g transform="translate(54.07875 205.225104) scale(0.1 -0.1)">
       <defs>
        <path id="DejaVuSans-30" d="M 2034 4250 
Q 1547 4250 1301 3770 
Q 1056 3291 1056 2328 
Q 1056 1369 1301 889 
Q 1547 409 2034 409 
Q 2525 409 2770 889 
Q 3016 1369 3016 2328 
Q 3016 3291 2770 3770 
Q 2525 4250 2034 4250 
z
M 2034 4750 
Q 2819 4750 3233 4129 
Q 3647 3509 3647 2328 
Q 3647 1150 3233 529 
Q 2819 -91 2034 -91 
Q 1250 -91 836 529 
Q 422 1150 422 2328 
Q 422 3509 836 4129 
Q 1250 4750 2034 4750 
z
" transform="scale(0.015625)"/>
       </defs>
       <use xlink:href="#DejaVuSans-30"/>
      </g>
     </g>
    </g>
    <g id="xtick_2">
     <g id="line2d_2">
      <g>
       <use xlink:href="#mf0b4c80073" x="99.341879" y="190.626667" style="stroke: #000000; stroke-width: 0.8"/>
      </g>
     </g>
     <g id="text_2">
      <!-- 50 -->
      <g transform="translate(92.979379 205.225104) scale(0.1 -0.1)">
       <defs>
        <path id="DejaVuSans-35" d="M 691 4666 
L 3169 4666 
L 3169 4134 
L 1269 4134 
L 1269 2991 
Q 1406 3038 1543 3061 
Q 1681 3084 1819 3084 
Q 2600 3084 3056 2656 
Q 3513 2228 3513 1497 
Q 3513 744 3044 326 
Q 2575 -91 1722 -91 
Q 1428 -91 1123 -41 
Q 819 9 494 109 
L 494 744 
Q 775 591 1075 516 
Q 1375 441 1709 441 
Q 2250 441 2565 725 
Q 2881 1009 2881 1497 
Q 2881 1984 2565 2268 
Q 2250 2553 1709 2553 
Q 1456 2553 1204 2497 
Q 953 2441 691 2322 
L 691 4666 
z
" transform="scale(0.015625)"/>
       </defs>
       <use xlink:href="#DejaVuSans-35"/>
       <use xlink:href="#DejaVuSans-30" x="63.623047"/>
      </g>
     </g>
    </g>
    <g id="xtick_3">
     <g id="line2d_3">
      <g>
       <use xlink:href="#mf0b4c80073" x="141.423757" y="190.626667" style="stroke: #000000; stroke-width: 0.8"/>
      </g>
     </g>
     <g id="text_3">
      <!-- 100 -->
      <g transform="translate(131.880007 205.225104) scale(0.1 -0.1)">
       <defs>
        <path id="DejaVuSans-31" d="M 794 531 
L 1825 531 
L 1825 4091 
L 703 3866 
L 703 4441 
L 1819 4666 
L 2450 4666 
L 2450 531 
L 3481 531 
L 3481 0 
L 794 0 
L 794 531 
z
" transform="scale(0.015625)"/>
       </defs>
       <use xlink:href="#DejaVuSans-31"/>
       <use xlink:href="#DejaVuSans-30" x="63.623047"/>
       <use xlink:href="#DejaVuSans-30" x="127.246094"/>
      </g>
     </g>
    </g>
    <g id="xtick_4">
     <g id="line2d_4">
      <g>
       <use xlink:href="#mf0b4c80073" x="183.505636" y="190.626667" style="stroke: #000000; stroke-width: 0.8"/>
      </g>
     </g>
     <g id="text_4">
      <!-- 150 -->
      <g transform="translate(173.961886 205.225104) scale(0.1 -0.1)">
       <use xlink:href="#DejaVuSans-31"/>
       <use xlink:href="#DejaVuSans-35" x="63.623047"/>
       <use xlink:href="#DejaVuSans-30" x="127.246094"/>
      </g>
     </g>
    </g>
    <g id="xtick_5">
     <g id="line2d_5">
      <g>
       <use xlink:href="#mf0b4c80073" x="225.587515" y="190.626667" style="stroke: #000000; stroke-width: 0.8"/>
      </g>
     </g>
     <g id="text_5">
      <!-- 200 -->
      <g transform="translate(216.043765 205.225104) scale(0.1 -0.1)">
       <defs>
        <path id="DejaVuSans-32" d="M 1228 531 
L 3431 531 
L 3431 0 
L 469 0 
L 469 531 
Q 828 903 1448 1529 
Q 2069 2156 2228 2338 
Q 2531 2678 2651 2914 
Q 2772 3150 2772 3378 
Q 2772 3750 2511 3984 
Q 2250 4219 1831 4219 
Q 1534 4219 1204 4116 
Q 875 4013 500 3803 
L 500 4441 
Q 881 4594 1212 4672 
Q 1544 4750 1819 4750 
Q 2544 4750 2975 4387 
Q 3406 4025 3406 3419 
Q 3406 3131 3298 2873 
Q 3191 2616 2906 2266 
Q 2828 2175 2409 1742 
Q 1991 1309 1228 531 
z
" transform="scale(0.015625)"/>
       </defs>
       <use xlink:href="#DejaVuSans-32"/>
       <use xlink:href="#DejaVuSans-30" x="63.623047"/>
       <use xlink:href="#DejaVuSans-30" x="127.246094"/>
      </g>
     </g>
    </g>
    <g id="xtick_6">
     <g id="line2d_6">
      <g>
       <use xlink:href="#mf0b4c80073" x="267.669393" y="190.626667" style="stroke: #000000; stroke-width: 0.8"/>
      </g>
     </g>
     <g id="text_6">
      <!-- 250 -->
      <g transform="translate(258.125643 205.225104) scale(0.1 -0.1)">
       <use xlink:href="#DejaVuSans-32"/>
       <use xlink:href="#DejaVuSans-35" x="63.623047"/>
       <use xlink:href="#DejaVuSans-30" x="127.246094"/>
      </g>
     </g>
    </g>
   </g>
   <g id="matplotlib.axis_2">
    <g id="ytick_1">
     <g id="line2d_7">
      <defs>
       <path id="m6cef0d2481" d="M 0 0 
L -3.5 0 
" style="stroke: #000000; stroke-width: 0.8"/>
      </defs>
      <g>
       <use xlink:href="#m6cef0d2481" x="57.26" y="190.626667" style="stroke: #000000; stroke-width: 0.8"/>
      </g>
     </g>
     <g id="text_7">
      <!-- 0 -->
      <g transform="translate(43.8975 194.425885) scale(0.1 -0.1)">
       <use xlink:href="#DejaVuSans-30"/>
      </g>
     </g>
    </g>
    <g id="ytick_2">
     <g id="line2d_8">
      <g>
       <use xlink:href="#m6cef0d2481" x="57.26" y="163.140479" style="stroke: #000000; stroke-width: 0.8"/>
      </g>
     </g>
     <g id="text_8">
      <!-- 250 -->
      <g transform="translate(31.1725 166.939698) scale(0.1 -0.1)">
       <use xlink:href="#DejaVuSans-32"/>
       <use xlink:href="#DejaVuSans-35" x="63.623047"/>
       <use xlink:href="#DejaVuSans-30" x="127.246094"/>
      </g>
     </g>
    </g>
    <g id="ytick_3">
     <g id="line2d_9">
      <g>
       <use xlink:href="#m6cef0d2481" x="57.26" y="135.654291" style="stroke: #000000; stroke-width: 0.8"/>
      </g>
     </g>
     <g id="text_9">
      <!-- 500 -->
      <g transform="translate(31.1725 139.45351) scale(0.1 -0.1)">
       <use xlink:href="#DejaVuSans-35"/>
       <use xlink:href="#DejaVuSans-30" x="63.623047"/>
       <use xlink:href="#DejaVuSans-30" x="127.246094"/>
      </g>
     </g>
    </g>
    <g id="ytick_4">
     <g id="line2d_10">
      <g>
       <use xlink:href="#m6cef0d2481" x="57.26" y="108.168103" style="stroke: #000000; stroke-width: 0.8"/>
      </g>
     </g>
     <g id="text_10">
      <!-- 750 -->
      <g transform="translate(31.1725 111.967322) scale(0.1 -0.1)">
       <defs>
        <path id="DejaVuSans-37" d="M 525 4666 
L 3525 4666 
L 3525 4397 
L 1831 0 
L 1172 0 
L 2766 4134 
L 525 4134 
L 525 4666 
z
" transform="scale(0.015625)"/>
       </defs>
       <use xlink:href="#DejaVuSans-37"/>
       <use xlink:href="#DejaVuSans-35" x="63.623047"/>
       <use xlink:href="#DejaVuSans-30" x="127.246094"/>
      </g>
     </g>
    </g>
    <g id="ytick_5">
     <g id="line2d_11">
      <g>
       <use xlink:href="#m6cef0d2481" x="57.26" y="80.681915" style="stroke: #000000; stroke-width: 0.8"/>
      </g>
     </g>
     <g id="text_11">
      <!-- 1000 -->
      <g transform="translate(24.81 84.481134) scale(0.1 -0.1)">
       <use xlink:href="#DejaVuSans-31"/>
       <use xlink:href="#DejaVuSans-30" x="63.623047"/>
       <use xlink:href="#DejaVuSans-30" x="127.246094"/>
       <use xlink:href="#DejaVuSans-30" x="190.869141"/>
      </g>
     </g>
    </g>
    <g id="ytick_6">
     <g id="line2d_12">
      <g>
       <use xlink:href="#m6cef0d2481" x="57.26" y="53.195728" style="stroke: #000000; stroke-width: 0.8"/>
      </g>
     </g>
     <g id="text_12">
      <!-- 1250 -->
      <g transform="translate(24.81 56.994946) scale(0.1 -0.1)">
       <use xlink:href="#DejaVuSans-31"/>
       <use xlink:href="#DejaVuSans-32" x="63.623047"/>
       <use xlink:href="#DejaVuSans-35" x="127.246094"/>
       <use xlink:href="#DejaVuSans-30" x="190.869141"/>
      </g>
     </g>
    </g>
    <g id="ytick_7">
     <g id="line2d_13">
      <g>
       <use xlink:href="#m6cef0d2481" x="57.26" y="25.70954" style="stroke: #000000; stroke-width: 0.8"/>
      </g>
     </g>
     <g id="text_13">
      <!-- 1500 -->
      <g transform="translate(24.81 29.508759) scale(0.1 -0.1)">
       <use xlink:href="#DejaVuSans-31"/>
       <use xlink:href="#DejaVuSans-35" x="63.623047"/>
       <use xlink:href="#DejaVuSans-30" x="127.246094"/>
       <use xlink:href="#DejaVuSans-30" x="190.869141"/>
      </g>
     </g>
    </g>
    <g id="text_14">
     <!-- Pixel Frequency -->
     <g transform="translate(18.730313 140.110545) rotate(-90) scale(0.1 -0.1)">
      <defs>
       <path id="DejaVuSans-50" d="M 1259 4147 
L 1259 2394 
L 2053 2394 
Q 2494 2394 2734 2622 
Q 2975 2850 2975 3272 
Q 2975 3691 2734 3919 
Q 2494 4147 2053 4147 
L 1259 4147 
z
M 628 4666 
L 2053 4666 
Q 2838 4666 3239 4311 
Q 3641 3956 3641 3272 
Q 3641 2581 3239 2228 
Q 2838 1875 2053 1875 
L 1259 1875 
L 1259 0 
L 628 0 
L 628 4666 
z
" transform="scale(0.015625)"/>
       <path id="DejaVuSans-69" d="M 603 3500 
L 1178 3500 
L 1178 0 
L 603 0 
L 603 3500 
z
M 603 4863 
L 1178 4863 
L 1178 4134 
L 603 4134 
L 603 4863 
z
" transform="scale(0.015625)"/>
       <path id="DejaVuSans-78" d="M 3513 3500 
L 2247 1797 
L 3578 0 
L 2900 0 
L 1881 1375 
L 863 0 
L 184 0 
L 1544 1831 
L 300 3500 
L 978 3500 
L 1906 2253 
L 2834 3500 
L 3513 3500 
z
" transform="scale(0.015625)"/>
       <path id="DejaVuSans-65" d="M 3597 1894 
L 3597 1613 
L 953 1613 
Q 991 1019 1311 708 
Q 1631 397 2203 397 
Q 2534 397 2845 478 
Q 3156 559 3463 722 
L 3463 178 
Q 3153 47 2828 -22 
Q 2503 -91 2169 -91 
Q 1331 -91 842 396 
Q 353 884 353 1716 
Q 353 2575 817 3079 
Q 1281 3584 2069 3584 
Q 2775 3584 3186 3129 
Q 3597 2675 3597 1894 
z
M 3022 2063 
Q 3016 2534 2758 2815 
Q 2500 3097 2075 3097 
Q 1594 3097 1305 2825 
Q 1016 2553 972 2059 
L 3022 2063 
z
" transform="scale(0.015625)"/>
       <path id="DejaVuSans-6c" d="M 603 4863 
L 1178 4863 
L 1178 0 
L 603 0 
L 603 4863 
z
" transform="scale(0.015625)"/>
       <path id="DejaVuSans-20" transform="scale(0.015625)"/>
       <path id="DejaVuSans-46" d="M 628 4666 
L 3309 4666 
L 3309 4134 
L 1259 4134 
L 1259 2759 
L 3109 2759 
L 3109 2228 
L 1259 2228 
L 1259 0 
L 628 0 
L 628 4666 
z
" transform="scale(0.015625)"/>
       <path id="DejaVuSans-72" d="M 2631 2963 
Q 2534 3019 2420 3045 
Q 2306 3072 2169 3072 
Q 1681 3072 1420 2755 
Q 1159 2438 1159 1844 
L 1159 0 
L 581 0 
L 581 3500 
L 1159 3500 
L 1159 2956 
Q 1341 3275 1631 3429 
Q 1922 3584 2338 3584 
Q 2397 3584 2469 3576 
Q 2541 3569 2628 3553 
L 2631 2963 
z
" transform="scale(0.015625)"/>
       <path id="DejaVuSans-71" d="M 947 1747 
Q 947 1113 1208 752 
Q 1469 391 1925 391 
Q 2381 391 2643 752 
Q 2906 1113 2906 1747 
Q 2906 2381 2643 2742 
Q 2381 3103 1925 3103 
Q 1469 3103 1208 2742 
Q 947 2381 947 1747 
z
M 2906 525 
Q 2725 213 2448 61 
Q 2172 -91 1784 -91 
Q 1150 -91 751 415 
Q 353 922 353 1747 
Q 353 2572 751 3078 
Q 1150 3584 1784 3584 
Q 2172 3584 2448 3432 
Q 2725 3281 2906 2969 
L 2906 3500 
L 3481 3500 
L 3481 -1331 
L 2906 -1331 
L 2906 525 
z
" transform="scale(0.015625)"/>
       <path id="DejaVuSans-75" d="M 544 1381 
L 544 3500 
L 1119 3500 
L 1119 1403 
Q 1119 906 1312 657 
Q 1506 409 1894 409 
Q 2359 409 2629 706 
Q 2900 1003 2900 1516 
L 2900 3500 
L 3475 3500 
L 3475 0 
L 2900 0 
L 2900 538 
Q 2691 219 2414 64 
Q 2138 -91 1772 -91 
Q 1169 -91 856 284 
Q 544 659 544 1381 
z
M 1991 3584 
L 1991 3584 
z
" transform="scale(0.015625)"/>
       <path id="DejaVuSans-6e" d="M 3513 2113 
L 3513 0 
L 2938 0 
L 2938 2094 
Q 2938 2591 2744 2837 
Q 2550 3084 2163 3084 
Q 1697 3084 1428 2787 
Q 1159 2491 1159 1978 
L 1159 0 
L 581 0 
L 581 3500 
L 1159 3500 
L 1159 2956 
Q 1366 3272 1645 3428 
Q 1925 3584 2291 3584 
Q 2894 3584 3203 3211 
Q 3513 2838 3513 2113 
z
" transform="scale(0.015625)"/>
       <path id="DejaVuSans-63" d="M 3122 3366 
L 3122 2828 
Q 2878 2963 2633 3030 
Q 2388 3097 2138 3097 
Q 1578 3097 1268 2742 
Q 959 2388 959 1747 
Q 959 1106 1268 751 
Q 1578 397 2138 397 
Q 2388 397 2633 464 
Q 2878 531 3122 666 
L 3122 134 
Q 2881 22 2623 -34 
Q 2366 -91 2075 -91 
Q 1284 -91 818 406 
Q 353 903 353 1747 
Q 353 2603 823 3093 
Q 1294 3584 2113 3584 
Q 2378 3584 2631 3529 
Q 2884 3475 3122 3366 
z
" transform="scale(0.015625)"/>
       <path id="DejaVuSans-79" d="M 2059 -325 
Q 1816 -950 1584 -1140 
Q 1353 -1331 966 -1331 
L 506 -1331 
L 506 -850 
L 844 -850 
Q 1081 -850 1212 -737 
Q 1344 -625 1503 -206 
L 1606 56 
L 191 3500 
L 800 3500 
L 1894 763 
L 2988 3500 
L 3597 3500 
L 2059 -325 
z
" transform="scale(0.015625)"/>
      </defs>
      <use xlink:href="#DejaVuSans-50"/>
      <use xlink:href="#DejaVuSans-69" x="58.052734"/>
      <use xlink:href="#DejaVuSans-78" x="85.835938"/>
      <use xlink:href="#DejaVuSans-65" x="141.890625"/>
      <use xlink:href="#DejaVuSans-6c" x="203.414062"/>
      <use xlink:href="#DejaVuSans-20" x="231.197266"/>
      <use xlink:href="#DejaVuSans-46" x="262.984375"/>
      <use xlink:href="#DejaVuSans-72" x="313.253906"/>
      <use xlink:href="#DejaVuSans-65" x="352.117188"/>
      <use xlink:href="#DejaVuSans-71" x="413.640625"/>
      <use xlink:href="#DejaVuSans-75" x="477.117188"/>
      <use xlink:href="#DejaVuSans-65" x="540.496094"/>
      <use xlink:href="#DejaVuSans-6e" x="602.019531"/>
      <use xlink:href="#DejaVuSans-63" x="665.398438"/>
      <use xlink:href="#DejaVuSans-79" x="720.378906"/>
     </g>
    </g>
   </g>
   <g id="line2d_14">
    <path d="M 57.26 190.626667 
L 95.133691 190.626667 
L 95.975328 189.966998 
L 96.816966 188.867551 
L 97.658604 188.757606 
L 100.183516 177.653186 
L 101.025154 176.11396 
L 101.866791 175.674181 
L 102.708429 176.223904 
L 103.550067 175.014512 
L 104.391704 169.957053 
L 105.233342 166.548766 
L 106.074979 158.412855 
L 106.916617 142.58081 
L 107.758254 142.470866 
L 108.599892 144.010092 
L 109.44153 141.371418 
L 110.283167 141.591308 
L 111.966442 146.648766 
L 112.80808 138.842689 
L 113.649717 132.795728 
L 114.491355 122.021142 
L 115.332993 108.937717 
L 116.17463 100.69186 
L 117.016268 98.273076 
L 117.857905 99.042689 
L 118.699543 93.875286 
L 119.54118 85.299595 
L 120.382818 71.556501 
L 121.224456 72.436059 
L 122.066093 66.828877 
L 122.907731 71.226667 
L 123.749368 69.467551 
L 124.591006 69.357606 
L 125.432643 74.30512 
L 126.274281 71.886335 
L 127.115919 72.985783 
L 127.957556 76.504015 
L 128.799194 77.053739 
L 129.640831 77.273628 
L 131.324106 83.980258 
L 132.165744 84.200148 
L 133.007382 92.775838 
L 133.849019 96.29407 
L 134.690657 97.723352 
L 135.532294 104.869761 
L 136.373932 105.859263 
L 137.215569 104.979705 
L 138.057207 110.916722 
L 138.898845 109.817275 
L 139.740482 109.047661 
L 140.58212 106.958711 
L 141.423757 106.189098 
L 142.265395 106.738822 
L 143.107032 108.607882 
L 143.94867 118.063131 
L 144.790308 114.984678 
L 145.631945 129.717275 
L 146.473583 128.397937 
L 147.31522 126.089098 
L 148.156858 134.225009 
L 148.998495 135.764236 
L 149.840133 138.40291 
L 150.681771 145.329429 
L 151.523408 144.779705 
L 152.365046 143.460368 
L 154.048321 154.234954 
L 154.889958 155.334402 
L 155.731596 157.423352 
L 156.573234 157.203462 
L 157.414871 160.941584 
L 158.256509 162.48081 
L 159.098146 163.580258 
L 159.939784 166.658711 
L 160.781422 166.548766 
L 161.623059 163.140479 
L 162.464697 166.218932 
L 163.306334 170.176943 
L 164.147972 168.307882 
L 164.989609 170.286888 
L 165.831247 172.595727 
L 166.672885 171.826114 
L 167.514522 172.815617 
L 168.35616 173.035506 
L 169.197797 172.925562 
L 170.039435 177.653186 
L 170.881072 176.993518 
L 171.72271 175.454291 
L 172.564348 177.653186 
L 173.405985 179.082468 
L 174.247623 178.532744 
L 175.08926 179.082468 
L 175.930898 182.820589 
L 176.772535 182.710645 
L 177.614173 181.171418 
L 178.455811 182.710645 
L 179.297448 184.68965 
L 180.139086 182.6007 
L 180.980723 182.270866 
L 181.822361 184.68965 
L 182.663998 185.239374 
L 183.505636 184.029982 
L 184.347274 185.789098 
L 185.188911 185.459263 
L 186.030549 186.668656 
L 186.872186 185.679153 
L 187.713824 186.7786 
L 188.555461 187.328324 
L 189.397099 186.888545 
L 190.238737 187.768103 
L 191.080374 188.097937 
L 191.922012 187.658158 
L 192.763649 187.438269 
L 193.605287 188.757606 
L 194.446924 189.417274 
L 195.288562 189.637164 
L 196.1302 188.757606 
L 196.971837 189.30733 
L 197.813475 188.867551 
L 198.655112 189.197385 
L 199.49675 188.867551 
L 200.338387 189.30733 
L 201.180025 188.537716 
L 202.021663 189.637164 
L 202.8633 189.747109 
L 203.704938 189.08744 
L 204.546575 189.747109 
L 206.22985 189.527219 
L 207.071488 189.857053 
L 207.913126 189.857053 
L 209.596401 190.296832 
L 210.438038 189.857053 
L 211.279676 190.186888 
L 212.121313 189.747109 
L 212.962951 189.966998 
L 216.329501 189.417274 
L 218.012776 190.296832 
L 218.854414 190.186888 
L 219.696052 190.406777 
L 220.537689 189.857053 
L 221.379327 189.747109 
L 223.062602 190.076943 
L 223.90424 189.637164 
L 225.587515 189.966998 
L 226.429152 189.417274 
L 227.27079 190.296832 
L 228.112427 189.857053 
L 228.954065 189.966998 
L 229.795703 189.747109 
L 230.63734 190.406777 
L 231.478978 190.516722 
L 232.320615 190.186888 
L 233.162253 190.516722 
L 234.00389 190.296832 
L 234.845528 189.857053 
L 235.687166 189.966998 
L 236.528803 190.406777 
L 238.212078 190.296832 
L 239.895353 189.637164 
L 240.736991 190.076943 
L 241.578629 189.637164 
L 242.420266 189.857053 
L 243.261904 190.406777 
L 244.103541 189.966998 
L 244.945179 189.857053 
L 245.786816 190.406777 
L 246.628454 189.857053 
L 247.470092 190.076943 
L 248.311729 189.857053 
L 249.153367 190.296832 
L 249.995004 189.966998 
L 250.836642 189.966998 
L 251.678279 189.637164 
L 252.519917 190.296832 
L 253.361555 189.417274 
L 254.203192 189.966998 
L 255.04483 189.637164 
L 255.886467 190.076943 
L 256.728105 189.966998 
L 257.569742 190.296832 
L 259.253018 189.966998 
L 260.094655 190.516722 
L 261.77793 190.406777 
L 262.619568 190.516722 
L 263.461205 190.186888 
L 265.144481 190.626667 
L 271.877581 190.516722 
L 271.877581 190.516722 
" clip-path="url(#p8541619d73)" style="fill: none; stroke: #ff0000; stroke-width: 1.5; stroke-linecap: square"/>
   </g>
   <g id="patch_3">
    <path d="M 57.26 190.626667 
L 57.26 11.636612 
" style="fill: none; stroke: #000000; stroke-width: 0.8; stroke-linejoin: miter; stroke-linecap: square"/>
   </g>
   <g id="patch_4">
    <path d="M 272.719219 190.626667 
L 272.719219 11.636612 
" style="fill: none; stroke: #000000; stroke-width: 0.8; stroke-linejoin: miter; stroke-linecap: square"/>
   </g>
   <g id="patch_5">
    <path d="M 57.26 190.626667 
L 272.719219 190.626667 
" style="fill: none; stroke: #000000; stroke-width: 0.8; stroke-linejoin: miter; stroke-linecap: square"/>
   </g>
   <g id="patch_6">
    <path d="M 57.26 11.636612 
L 272.719219 11.636612 
" style="fill: none; stroke: #000000; stroke-width: 0.8; stroke-linejoin: miter; stroke-linecap: square"/>
   </g>
   <g id="text_15">
    <!-- Red Channel  -->
    <g transform="translate(193.026094 25.636612) scale(0.12 -0.12)">
     <defs>
      <path id="DejaVuSans-52" d="M 2841 2188 
Q 3044 2119 3236 1894 
Q 3428 1669 3622 1275 
L 4263 0 
L 3584 0 
L 2988 1197 
Q 2756 1666 2539 1819 
Q 2322 1972 1947 1972 
L 1259 1972 
L 1259 0 
L 628 0 
L 628 4666 
L 2053 4666 
Q 2853 4666 3247 4331 
Q 3641 3997 3641 3322 
Q 3641 2881 3436 2590 
Q 3231 2300 2841 2188 
z
M 1259 4147 
L 1259 2491 
L 2053 2491 
Q 2509 2491 2742 2702 
Q 2975 2913 2975 3322 
Q 2975 3731 2742 3939 
Q 2509 4147 2053 4147 
L 1259 4147 
z
" transform="scale(0.015625)"/>
      <path id="DejaVuSans-64" d="M 2906 2969 
L 2906 4863 
L 3481 4863 
L 3481 0 
L 2906 0 
L 2906 525 
Q 2725 213 2448 61 
Q 2172 -91 1784 -91 
Q 1150 -91 751 415 
Q 353 922 353 1747 
Q 353 2572 751 3078 
Q 1150 3584 1784 3584 
Q 2172 3584 2448 3432 
Q 2725 3281 2906 2969 
z
M 947 1747 
Q 947 1113 1208 752 
Q 1469 391 1925 391 
Q 2381 391 2643 752 
Q 2906 1113 2906 1747 
Q 2906 2381 2643 2742 
Q 2381 3103 1925 3103 
Q 1469 3103 1208 2742 
Q 947 2381 947 1747 
z
" transform="scale(0.015625)"/>
      <path id="DejaVuSans-43" d="M 4122 4306 
L 4122 3641 
Q 3803 3938 3442 4084 
Q 3081 4231 2675 4231 
Q 1875 4231 1450 3742 
Q 1025 3253 1025 2328 
Q 1025 1406 1450 917 
Q 1875 428 2675 428 
Q 3081 428 3442 575 
Q 3803 722 4122 1019 
L 4122 359 
Q 3791 134 3420 21 
Q 3050 -91 2638 -91 
Q 1578 -91 968 557 
Q 359 1206 359 2328 
Q 359 3453 968 4101 
Q 1578 4750 2638 4750 
Q 3056 4750 3426 4639 
Q 3797 4528 4122 4306 
z
" transform="scale(0.015625)"/>
      <path id="DejaVuSans-68" d="M 3513 2113 
L 3513 0 
L 2938 0 
L 2938 2094 
Q 2938 2591 2744 2837 
Q 2550 3084 2163 3084 
Q 1697 3084 1428 2787 
Q 1159 2491 1159 1978 
L 1159 0 
L 581 0 
L 581 4863 
L 1159 4863 
L 1159 2956 
Q 1366 3272 1645 3428 
Q 1925 3584 2291 3584 
Q 2894 3584 3203 3211 
Q 3513 2838 3513 2113 
z
" transform="scale(0.015625)"/>
      <path id="DejaVuSans-61" d="M 2194 1759 
Q 1497 1759 1228 1600 
Q 959 1441 959 1056 
Q 959 750 1161 570 
Q 1363 391 1709 391 
Q 2188 391 2477 730 
Q 2766 1069 2766 1631 
L 2766 1759 
L 2194 1759 
z
M 3341 1997 
L 3341 0 
L 2766 0 
L 2766 531 
Q 2569 213 2275 61 
Q 1981 -91 1556 -91 
Q 1019 -91 701 211 
Q 384 513 384 1019 
Q 384 1609 779 1909 
Q 1175 2209 1959 2209 
L 2766 2209 
L 2766 2266 
Q 2766 2663 2505 2880 
Q 2244 3097 1772 3097 
Q 1472 3097 1187 3025 
Q 903 2953 641 2809 
L 641 3341 
Q 956 3463 1253 3523 
Q 1550 3584 1831 3584 
Q 2591 3584 2966 3190 
Q 3341 2797 3341 1997 
z
" transform="scale(0.015625)"/>
     </defs>
     <use xlink:href="#DejaVuSans-52"/>
     <use xlink:href="#DejaVuSans-65" x="64.982422"/>
     <use xlink:href="#DejaVuSans-64" x="126.505859"/>
     <use xlink:href="#DejaVuSans-20" x="189.982422"/>
     <use xlink:href="#DejaVuSans-43" x="221.769531"/>
     <use xlink:href="#DejaVuSans-68" x="291.59375"/>
     <use xlink:href="#DejaVuSans-61" x="354.972656"/>
     <use xlink:href="#DejaVuSans-6e" x="416.251953"/>
     <use xlink:href="#DejaVuSans-6e" x="479.630859"/>
     <use xlink:href="#DejaVuSans-65" x="543.009766"/>
     <use xlink:href="#DejaVuSans-6c" x="604.533203"/>
     <use xlink:href="#DejaVuSans-20" x="632.316406"/>
    </g>
   </g>
  </g>
  <g id="axes_2">
   <g id="patch_7">
    <path d="M 57.26 398.333333 
L 272.719219 398.333333 
L 272.719219 219.343278 
L 57.26 219.343278 
z
" style="fill: #ffffff"/>
   </g>
   <g id="PolyCollection_2">
    <defs>
     <path id="m08188f3751" d="M 57.26 -249.666667 
L 57.26 -249.666667 
L 58.101638 -249.666667 
L 58.943275 -249.666667 
L 59.784913 -249.666667 
L 60.62655 -249.666667 
L 61.468188 -249.666667 
L 62.309825 -249.666667 
L 63.151463 -249.666667 
L 63.993101 -249.666667 
L 64.834738 -249.666667 
L 65.676376 -249.666667 
L 66.518013 -249.666667 
L 67.359651 -249.666667 
L 68.201288 -249.666667 
L 69.042926 -249.666667 
L 69.884564 -249.666667 
L 70.726201 -249.666667 
L 71.567839 -249.666667 
L 72.409476 -249.666667 
L 73.251114 -249.666667 
L 74.092751 -249.666667 
L 74.934389 -249.666667 
L 75.776027 -249.666667 
L 76.617664 -249.666667 
L 77.459302 -249.666667 
L 78.300939 -249.666667 
L 79.142577 -249.666667 
L 79.984214 -249.666667 
L 80.825852 -249.666667 
L 81.66749 -249.666667 
L 82.509127 -249.666667 
L 83.350765 -249.666667 
L 84.192402 -249.666667 
L 85.03404 -249.666667 
L 85.875677 -249.666667 
L 86.717315 -249.666667 
L 87.558953 -249.666667 
L 88.40059 -249.666667 
L 89.242228 -249.666667 
L 90.083865 -250.43628 
L 90.925503 -250.656169 
L 91.767141 -251.425783 
L 92.608778 -252.855064 
L 93.450416 -255.273849 
L 94.292053 -259.23186 
L 95.133691 -260.001473 
L 95.975328 -261.650645 
L 96.816966 -264.729098 
L 97.658604 -264.729098 
L 98.500241 -265.388766 
L 99.341879 -267.037937 
L 100.183516 -270.226335 
L 101.025154 -275.283794 
L 101.866791 -279.901473 
L 102.708429 -283.419705 
L 103.550067 -291.665562 
L 104.391704 -292.105341 
L 105.233342 -293.094843 
L 106.074979 -296.503131 
L 106.916617 -294.524125 
L 107.758254 -294.963904 
L 108.599892 -290.566114 
L 109.44153 -295.513628 
L 110.283167 -293.424678 
L 111.124805 -301.670534 
L 111.966442 -307.82744 
L 112.80808 -318.382136 
L 113.649717 -329.156722 
L 114.491355 -319.591528 
L 115.332993 -318.93186 
L 116.17463 -321.790423 
L 117.016268 -336.52302 
L 117.857905 -338.392081 
L 118.699543 -342.899816 
L 119.54118 -344.658932 
L 120.382818 -346.747882 
L 121.224456 -349.276611 
L 122.066093 -350.815838 
L 122.907731 -354.993738 
L 123.749368 -351.695396 
L 124.591006 -347.40755 
L 125.432643 -348.726887 
L 126.274281 -346.418048 
L 127.115919 -341.250644 
L 127.957556 -343.999263 
L 128.799194 -345.868324 
L 129.640831 -336.962799 
L 130.482469 -339.161694 
L 131.324106 -337.292633 
L 132.165744 -334.21418 
L 133.007382 -338.062247 
L 133.849019 -321.350644 
L 134.690657 -328.606998 
L 135.532294 -325.63849 
L 136.373932 -322.779926 
L 137.215569 -321.2407 
L 138.057207 -325.4186 
L 138.898845 -317.282689 
L 139.740482 -316.073296 
L 140.58212 -318.272191 
L 141.423757 -313.434622 
L 142.265395 -317.392633 
L 143.107032 -317.392633 
L 143.94867 -314.973849 
L 144.790308 -312.994843 
L 145.631945 -312.44512 
L 146.473583 -310.905893 
L 147.31522 -314.644015 
L 148.156858 -309.586556 
L 148.998495 -305.298711 
L 149.840133 -303.209761 
L 150.681771 -300.021363 
L 151.523408 -301.230755 
L 152.365046 -294.524125 
L 153.206683 -294.963904 
L 154.048321 -292.105341 
L 154.889958 -289.026888 
L 155.731596 -288.037385 
L 156.573234 -289.246777 
L 157.414871 -284.409208 
L 158.256509 -281.330755 
L 159.098146 -285.508656 
L 159.939784 -279.901473 
L 160.781422 -280.451197 
L 161.623059 -275.283794 
L 162.464697 -274.404236 
L 163.306334 -270.886004 
L 164.147972 -275.063904 
L 164.989609 -273.744567 
L 165.831247 -272.42523 
L 166.672885 -267.367772 
L 167.514522 -268.797053 
L 168.35616 -268.577164 
L 169.197797 -269.896501 
L 170.039435 -269.786556 
L 170.881072 -268.24733 
L 171.72271 -269.566667 
L 172.564348 -266.378269 
L 173.405985 -267.037937 
L 174.247623 -266.378269 
L 175.08926 -265.7186 
L 175.930898 -264.948987 
L 176.772535 -264.619153 
L 177.614173 -262.969982 
L 178.455811 -264.179374 
L 179.297448 -262.860037 
L 180.139086 -260.881031 
L 180.980723 -261.650645 
L 181.822361 -260.111418 
L 182.663998 -260.881031 
L 183.505636 -260.990976 
L 184.347274 -260.331308 
L 185.188911 -260.331308 
L 186.030549 -258.902026 
L 186.872186 -257.362799 
L 187.713824 -259.45175 
L 188.555461 -257.032965 
L 189.397099 -255.933517 
L 190.238737 -256.043462 
L 191.080374 -255.493738 
L 191.922012 -256.703131 
L 192.763649 -255.053959 
L 193.605287 -255.713628 
L 194.446924 -256.043462 
L 195.288562 -254.61418 
L 196.1302 -256.153407 
L 196.971837 -253.734622 
L 197.813475 -254.284346 
L 198.655112 -254.174401 
L 199.49675 -252.965009 
L 200.338387 -254.504236 
L 201.180025 -254.064457 
L 202.021663 -252.965009 
L 202.8633 -252.855064 
L 203.704938 -253.184899 
L 204.546575 -252.965009 
L 205.388213 -252.855064 
L 206.22985 -251.755617 
L 207.071488 -252.305341 
L 207.913126 -252.305341 
L 208.754763 -251.095948 
L 209.596401 -250.986004 
L 210.438038 -252.52523 
L 211.279676 -251.315838 
L 212.121313 -251.095948 
L 212.962951 -251.205893 
L 213.804589 -250.546225 
L 214.646226 -250.876059 
L 215.487864 -250.656169 
L 216.329501 -250.876059 
L 217.171139 -250.876059 
L 218.012776 -251.755617 
L 218.854414 -250.876059 
L 219.696052 -250.656169 
L 220.537689 -250.43628 
L 221.379327 -250.546225 
L 222.220964 -251.535727 
L 223.062602 -250.546225 
L 223.90424 -250.656169 
L 224.745877 -250.106446 
L 225.587515 -250.43628 
L 226.429152 -250.43628 
L 227.27079 -250.21639 
L 228.112427 -250.326335 
L 228.954065 -250.326335 
L 229.795703 -250.106446 
L 230.63734 -249.776611 
L 231.478978 -250.43628 
L 232.320615 -250.21639 
L 233.162253 -250.656169 
L 234.00389 -249.996501 
L 234.845528 -250.106446 
L 235.687166 -250.546225 
L 236.528803 -250.656169 
L 237.370441 -250.21639 
L 238.212078 -250.326335 
L 239.053716 -250.21639 
L 239.895353 -250.326335 
L 240.736991 -250.21639 
L 241.578629 -250.106446 
L 242.420266 -250.326335 
L 243.261904 -249.996501 
L 244.103541 -250.106446 
L 244.945179 -251.095948 
L 245.786816 -250.21639 
L 246.628454 -250.106446 
L 247.470092 -250.106446 
L 248.311729 -249.886556 
L 249.153367 -250.986004 
L 249.995004 -249.996501 
L 250.836642 -250.21639 
L 251.678279 -250.546225 
L 252.519917 -249.996501 
L 253.361555 -250.546225 
L 254.203192 -250.43628 
L 255.04483 -249.886556 
L 255.886467 -250.546225 
L 256.728105 -249.776611 
L 257.569742 -249.776611 
L 258.41138 -250.21639 
L 259.253018 -250.106446 
L 260.094655 -250.106446 
L 260.936293 -250.43628 
L 261.77793 -250.766114 
L 262.619568 -250.766114 
L 263.461205 -250.43628 
L 264.302843 -250.876059 
L 265.144481 -250.21639 
L 265.986118 -250.326335 
L 266.827756 -250.106446 
L 267.669393 -250.986004 
L 268.511031 -250.876059 
L 269.352668 -251.425783 
L 270.194306 -251.205893 
L 271.035944 -251.425783 
L 271.877581 -253.844567 
L 271.877581 -249.666667 
L 271.877581 -249.666667 
L 271.035944 -249.666667 
L 270.194306 -249.666667 
L 269.352668 -249.666667 
L 268.511031 -249.666667 
L 267.669393 -249.666667 
L 266.827756 -249.666667 
L 265.986118 -249.666667 
L 265.144481 -249.666667 
L 264.302843 -249.666667 
L 263.461205 -249.666667 
L 262.619568 -249.666667 
L 261.77793 -249.666667 
L 260.936293 -249.666667 
L 260.094655 -249.666667 
L 259.253018 -249.666667 
L 258.41138 -249.666667 
L 257.569742 -249.666667 
L 256.728105 -249.666667 
L 255.886467 -249.666667 
L 255.04483 -249.666667 
L 254.203192 -249.666667 
L 253.361555 -249.666667 
L 252.519917 -249.666667 
L 251.678279 -249.666667 
L 250.836642 -249.666667 
L 249.995004 -249.666667 
L 249.153367 -249.666667 
L 248.311729 -249.666667 
L 247.470092 -249.666667 
L 246.628454 -249.666667 
L 245.786816 -249.666667 
L 244.945179 -249.666667 
L 244.103541 -249.666667 
L 243.261904 -249.666667 
L 242.420266 -249.666667 
L 241.578629 -249.666667 
L 240.736991 -249.666667 
L 239.895353 -249.666667 
L 239.053716 -249.666667 
L 238.212078 -249.666667 
L 237.370441 -249.666667 
L 236.528803 -249.666667 
L 235.687166 -249.666667 
L 234.845528 -249.666667 
L 234.00389 -249.666667 
L 233.162253 -249.666667 
L 232.320615 -249.666667 
L 231.478978 -249.666667 
L 230.63734 -249.666667 
L 229.795703 -249.666667 
L 228.954065 -249.666667 
L 228.112427 -249.666667 
L 227.27079 -249.666667 
L 226.429152 -249.666667 
L 225.587515 -249.666667 
L 224.745877 -249.666667 
L 223.90424 -249.666667 
L 223.062602 -249.666667 
L 222.220964 -249.666667 
L 221.379327 -249.666667 
L 220.537689 -249.666667 
L 219.696052 -249.666667 
L 218.854414 -249.666667 
L 218.012776 -249.666667 
L 217.171139 -249.666667 
L 216.329501 -249.666667 
L 215.487864 -249.666667 
L 214.646226 -249.666667 
L 213.804589 -249.666667 
L 212.962951 -249.666667 
L 212.121313 -249.666667 
L 211.279676 -249.666667 
L 210.438038 -249.666667 
L 209.596401 -249.666667 
L 208.754763 -249.666667 
L 207.913126 -249.666667 
L 207.071488 -249.666667 
L 206.22985 -249.666667 
L 205.388213 -249.666667 
L 204.546575 -249.666667 
L 203.704938 -249.666667 
L 202.8633 -249.666667 
L 202.021663 -249.666667 
L 201.180025 -249.666667 
L 200.338387 -249.666667 
L 199.49675 -249.666667 
L 198.655112 -249.666667 
L 197.813475 -249.666667 
L 196.971837 -249.666667 
L 196.1302 -249.666667 
L 195.288562 -249.666667 
L 194.446924 -249.666667 
L 193.605287 -249.666667 
L 192.763649 -249.666667 
L 191.922012 -249.666667 
L 191.080374 -249.666667 
L 190.238737 -249.666667 
L 189.397099 -249.666667 
L 188.555461 -249.666667 
L 187.713824 -249.666667 
L 186.872186 -249.666667 
L 186.030549 -249.666667 
L 185.188911 -249.666667 
L 184.347274 -249.666667 
L 183.505636 -249.666667 
L 182.663998 -249.666667 
L 181.822361 -249.666667 
L 180.980723 -249.666667 
L 180.139086 -249.666667 
L 179.297448 -249.666667 
L 178.455811 -249.666667 
L 177.614173 -249.666667 
L 176.772535 -249.666667 
L 175.930898 -249.666667 
L 175.08926 -249.666667 
L 174.247623 -249.666667 
L 173.405985 -249.666667 
L 172.564348 -249.666667 
L 171.72271 -249.666667 
L 170.881072 -249.666667 
L 170.039435 -249.666667 
L 169.197797 -249.666667 
L 168.35616 -249.666667 
L 167.514522 -249.666667 
L 166.672885 -249.666667 
L 165.831247 -249.666667 
L 164.989609 -249.666667 
L 164.147972 -249.666667 
L 163.306334 -249.666667 
L 162.464697 -249.666667 
L 161.623059 -249.666667 
L 160.781422 -249.666667 
L 159.939784 -249.666667 
L 159.098146 -249.666667 
L 158.256509 -249.666667 
L 157.414871 -249.666667 
L 156.573234 -249.666667 
L 155.731596 -249.666667 
L 154.889958 -249.666667 
L 154.048321 -249.666667 
L 153.206683 -249.666667 
L 152.365046 -249.666667 
L 151.523408 -249.666667 
L 150.681771 -249.666667 
L 149.840133 -249.666667 
L 148.998495 -249.666667 
L 148.156858 -249.666667 
L 147.31522 -249.666667 
L 146.473583 -249.666667 
L 145.631945 -249.666667 
L 144.790308 -249.666667 
L 143.94867 -249.666667 
L 143.107032 -249.666667 
L 142.265395 -249.666667 
L 141.423757 -249.666667 
L 140.58212 -249.666667 
L 139.740482 -249.666667 
L 138.898845 -249.666667 
L 138.057207 -249.666667 
L 137.215569 -249.666667 
L 136.373932 -249.666667 
L 135.532294 -249.666667 
L 134.690657 -249.666667 
L 133.849019 -249.666667 
L 133.007382 -249.666667 
L 132.165744 -249.666667 
L 131.324106 -249.666667 
L 130.482469 -249.666667 
L 129.640831 -249.666667 
L 128.799194 -249.666667 
L 127.957556 -249.666667 
L 127.115919 -249.666667 
L 126.274281 -249.666667 
L 125.432643 -249.666667 
L 124.591006 -249.666667 
L 123.749368 -249.666667 
L 122.907731 -249.666667 
L 122.066093 -249.666667 
L 121.224456 -249.666667 
L 120.382818 -249.666667 
L 119.54118 -249.666667 
L 118.699543 -249.666667 
L 117.857905 -249.666667 
L 117.016268 -249.666667 
L 116.17463 -249.666667 
L 115.332993 -249.666667 
L 114.491355 -249.666667 
L 113.649717 -249.666667 
L 112.80808 -249.666667 
L 111.966442 -249.666667 
L 111.124805 -249.666667 
L 110.283167 -249.666667 
L 109.44153 -249.666667 
L 108.599892 -249.666667 
L 107.758254 -249.666667 
L 106.916617 -249.666667 
L 106.074979 -249.666667 
L 105.233342 -249.666667 
L 104.391704 -249.666667 
L 103.550067 -249.666667 
L 102.708429 -249.666667 
L 101.866791 -249.666667 
L 101.025154 -249.666667 
L 100.183516 -249.666667 
L 99.341879 -249.666667 
L 98.500241 -249.666667 
L 97.658604 -249.666667 
L 96.816966 -249.666667 
L 95.975328 -249.666667 
L 95.133691 -249.666667 
L 94.292053 -249.666667 
L 93.450416 -249.666667 
L 92.608778 -249.666667 
L 91.767141 -249.666667 
L 90.925503 -249.666667 
L 90.083865 -249.666667 
L 89.242228 -249.666667 
L 88.40059 -249.666667 
L 87.558953 -249.666667 
L 86.717315 -249.666667 
L 85.875677 -249.666667 
L 85.03404 -249.666667 
L 84.192402 -249.666667 
L 83.350765 -249.666667 
L 82.509127 -249.666667 
L 81.66749 -249.666667 
L 80.825852 -249.666667 
L 79.984214 -249.666667 
L 79.142577 -249.666667 
L 78.300939 -249.666667 
L 77.459302 -249.666667 
L 76.617664 -249.666667 
L 75.776027 -249.666667 
L 74.934389 -249.666667 
L 74.092751 -249.666667 
L 73.251114 -249.666667 
L 72.409476 -249.666667 
L 71.567839 -249.666667 
L 70.726201 -249.666667 
L 69.884564 -249.666667 
L 69.042926 -249.666667 
L 68.201288 -249.666667 
L 67.359651 -249.666667 
L 66.518013 -249.666667 
L 65.676376 -249.666667 
L 64.834738 -249.666667 
L 63.993101 -249.666667 
L 63.151463 -249.666667 
L 62.309825 -249.666667 
L 61.468188 -249.666667 
L 60.62655 -249.666667 
L 59.784913 -249.666667 
L 58.943275 -249.666667 
L 58.101638 -249.666667 
L 57.26 -249.666667 
z
" style="stroke: #008000; stroke-opacity: 0.4"/>
    </defs>
    <g clip-path="url(#p40561150da)">
     <use xlink:href="#m08188f3751" x="0" y="648" style="fill: #008000; fill-opacity: 0.4; stroke: #008000; stroke-opacity: 0.4"/>
    </g>
   </g>
   <g id="matplotlib.axis_3">
    <g id="xtick_7">
     <g id="line2d_15">
      <g>
       <use xlink:href="#mf0b4c80073" x="57.26" y="398.333333" style="stroke: #000000; stroke-width: 0.8"/>
      </g>
     </g>
     <g id="text_16">
      <!-- 0 -->
      <g transform="translate(54.07875 412.931771) scale(0.1 -0.1)">
       <use xlink:href="#DejaVuSans-30"/>
      </g>
     </g>
    </g>
    <g id="xtick_8">
     <g id="line2d_16">
      <g>
       <use xlink:href="#mf0b4c80073" x="99.341879" y="398.333333" style="stroke: #000000; stroke-width: 0.8"/>
      </g>
     </g>
     <g id="text_17">
      <!-- 50 -->
      <g transform="translate(92.979379 412.931771) scale(0.1 -0.1)">
       <use xlink:href="#DejaVuSans-35"/>
       <use xlink:href="#DejaVuSans-30" x="63.623047"/>
      </g>
     </g>
    </g>
    <g id="xtick_9">
     <g id="line2d_17">
      <g>
       <use xlink:href="#mf0b4c80073" x="141.423757" y="398.333333" style="stroke: #000000; stroke-width: 0.8"/>
      </g>
     </g>
     <g id="text_18">
      <!-- 100 -->
      <g transform="translate(131.880007 412.931771) scale(0.1 -0.1)">
       <use xlink:href="#DejaVuSans-31"/>
       <use xlink:href="#DejaVuSans-30" x="63.623047"/>
       <use xlink:href="#DejaVuSans-30" x="127.246094"/>
      </g>
     </g>
    </g>
    <g id="xtick_10">
     <g id="line2d_18">
      <g>
       <use xlink:href="#mf0b4c80073" x="183.505636" y="398.333333" style="stroke: #000000; stroke-width: 0.8"/>
      </g>
     </g>
     <g id="text_19">
      <!-- 150 -->
      <g transform="translate(173.961886 412.931771) scale(0.1 -0.1)">
       <use xlink:href="#DejaVuSans-31"/>
       <use xlink:href="#DejaVuSans-35" x="63.623047"/>
       <use xlink:href="#DejaVuSans-30" x="127.246094"/>
      </g>
     </g>
    </g>
    <g id="xtick_11">
     <g id="line2d_19">
      <g>
       <use xlink:href="#mf0b4c80073" x="225.587515" y="398.333333" style="stroke: #000000; stroke-width: 0.8"/>
      </g>
     </g>
     <g id="text_20">
      <!-- 200 -->
      <g transform="translate(216.043765 412.931771) scale(0.1 -0.1)">
       <use xlink:href="#DejaVuSans-32"/>
       <use xlink:href="#DejaVuSans-30" x="63.623047"/>
       <use xlink:href="#DejaVuSans-30" x="127.246094"/>
      </g>
     </g>
    </g>
    <g id="xtick_12">
     <g id="line2d_20">
      <g>
       <use xlink:href="#mf0b4c80073" x="267.669393" y="398.333333" style="stroke: #000000; stroke-width: 0.8"/>
      </g>
     </g>
     <g id="text_21">
      <!-- 250 -->
      <g transform="translate(258.125643 412.931771) scale(0.1 -0.1)">
       <use xlink:href="#DejaVuSans-32"/>
       <use xlink:href="#DejaVuSans-35" x="63.623047"/>
       <use xlink:href="#DejaVuSans-30" x="127.246094"/>
      </g>
     </g>
    </g>
   </g>
   <g id="matplotlib.axis_4">
    <g id="ytick_8">
     <g id="line2d_21">
      <g>
       <use xlink:href="#m6cef0d2481" x="57.26" y="398.333333" style="stroke: #000000; stroke-width: 0.8"/>
      </g>
     </g>
     <g id="text_22">
      <!-- 0 -->
      <g transform="translate(43.8975 402.132552) scale(0.1 -0.1)">
       <use xlink:href="#DejaVuSans-30"/>
      </g>
     </g>
    </g>
    <g id="ytick_9">
     <g id="line2d_22">
      <g>
       <use xlink:href="#m6cef0d2481" x="57.26" y="370.847146" style="stroke: #000000; stroke-width: 0.8"/>
      </g>
     </g>
     <g id="text_23">
      <!-- 250 -->
      <g transform="translate(31.1725 374.646364) scale(0.1 -0.1)">
       <use xlink:href="#DejaVuSans-32"/>
       <use xlink:href="#DejaVuSans-35" x="63.623047"/>
       <use xlink:href="#DejaVuSans-30" x="127.246094"/>
      </g>
     </g>
    </g>
    <g id="ytick_10">
     <g id="line2d_23">
      <g>
       <use xlink:href="#m6cef0d2481" x="57.26" y="343.360958" style="stroke: #000000; stroke-width: 0.8"/>
      </g>
     </g>
     <g id="text_24">
      <!-- 500 -->
      <g transform="translate(31.1725 347.160176) scale(0.1 -0.1)">
       <use xlink:href="#DejaVuSans-35"/>
       <use xlink:href="#DejaVuSans-30" x="63.623047"/>
       <use xlink:href="#DejaVuSans-30" x="127.246094"/>
      </g>
     </g>
    </g>
    <g id="ytick_11">
     <g id="line2d_24">
      <g>
       <use xlink:href="#m6cef0d2481" x="57.26" y="315.87477" style="stroke: #000000; stroke-width: 0.8"/>
      </g>
     </g>
     <g id="text_25">
      <!-- 750 -->
      <g transform="translate(31.1725 319.673989) scale(0.1 -0.1)">
       <use xlink:href="#DejaVuSans-37"/>
       <use xlink:href="#DejaVuSans-35" x="63.623047"/>
       <use xlink:href="#DejaVuSans-30" x="127.246094"/>
      </g>
     </g>
    </g>
    <g id="ytick_12">
     <g id="line2d_25">
      <g>
       <use xlink:href="#m6cef0d2481" x="57.26" y="288.388582" style="stroke: #000000; stroke-width: 0.8"/>
      </g>
     </g>
     <g id="text_26">
      <!-- 1000 -->
      <g transform="translate(24.81 292.187801) scale(0.1 -0.1)">
       <use xlink:href="#DejaVuSans-31"/>
       <use xlink:href="#DejaVuSans-30" x="63.623047"/>
       <use xlink:href="#DejaVuSans-30" x="127.246094"/>
       <use xlink:href="#DejaVuSans-30" x="190.869141"/>
      </g>
     </g>
    </g>
    <g id="ytick_13">
     <g id="line2d_26">
      <g>
       <use xlink:href="#m6cef0d2481" x="57.26" y="260.902394" style="stroke: #000000; stroke-width: 0.8"/>
      </g>
     </g>
     <g id="text_27">
      <!-- 1250 -->
      <g transform="translate(24.81 264.701613) scale(0.1 -0.1)">
       <use xlink:href="#DejaVuSans-31"/>
       <use xlink:href="#DejaVuSans-32" x="63.623047"/>
       <use xlink:href="#DejaVuSans-35" x="127.246094"/>
       <use xlink:href="#DejaVuSans-30" x="190.869141"/>
      </g>
     </g>
    </g>
    <g id="ytick_14">
     <g id="line2d_27">
      <g>
       <use xlink:href="#m6cef0d2481" x="57.26" y="233.416207" style="stroke: #000000; stroke-width: 0.8"/>
      </g>
     </g>
     <g id="text_28">
      <!-- 1500 -->
      <g transform="translate(24.81 237.215425) scale(0.1 -0.1)">
       <use xlink:href="#DejaVuSans-31"/>
       <use xlink:href="#DejaVuSans-35" x="63.623047"/>
       <use xlink:href="#DejaVuSans-30" x="127.246094"/>
       <use xlink:href="#DejaVuSans-30" x="190.869141"/>
      </g>
     </g>
    </g>
    <g id="text_29">
     <!-- Pixel Frequency -->
     <g transform="translate(18.730313 347.817212) rotate(-90) scale(0.1 -0.1)">
      <use xlink:href="#DejaVuSans-50"/>
      <use xlink:href="#DejaVuSans-69" x="58.052734"/>
      <use xlink:href="#DejaVuSans-78" x="85.835938"/>
      <use xlink:href="#DejaVuSans-65" x="141.890625"/>
      <use xlink:href="#DejaVuSans-6c" x="203.414062"/>
      <use xlink:href="#DejaVuSans-20" x="231.197266"/>
      <use xlink:href="#DejaVuSans-46" x="262.984375"/>
      <use xlink:href="#DejaVuSans-72" x="313.253906"/>
      <use xlink:href="#DejaVuSans-65" x="352.117188"/>
      <use xlink:href="#DejaVuSans-71" x="413.640625"/>
      <use xlink:href="#DejaVuSans-75" x="477.117188"/>
      <use xlink:href="#DejaVuSans-65" x="540.496094"/>
      <use xlink:href="#DejaVuSans-6e" x="602.019531"/>
      <use xlink:href="#DejaVuSans-63" x="665.398438"/>
      <use xlink:href="#DejaVuSans-79" x="720.378906"/>
     </g>
    </g>
   </g>
   <g id="line2d_28">
    <path d="M 57.26 398.333333 
L 89.242228 398.333333 
L 90.083865 397.56372 
L 90.925503 397.343831 
L 91.767141 396.574217 
L 92.608778 395.144936 
L 93.450416 392.726151 
L 94.292053 388.76814 
L 95.133691 387.998527 
L 95.975328 386.349355 
L 96.816966 383.270902 
L 97.658604 383.270902 
L 98.500241 382.611234 
L 99.341879 380.962063 
L 100.183516 377.773665 
L 101.866791 368.098527 
L 102.708429 364.580295 
L 103.550067 356.334438 
L 104.391704 355.894659 
L 105.233342 354.905157 
L 106.074979 351.496869 
L 106.916617 353.475875 
L 107.758254 353.036096 
L 108.599892 357.433886 
L 109.44153 352.486372 
L 110.283167 354.575322 
L 111.124805 346.329466 
L 111.966442 340.17256 
L 113.649717 318.843278 
L 114.491355 328.408472 
L 115.332993 329.06814 
L 116.17463 326.209577 
L 117.016268 311.47698 
L 117.857905 309.607919 
L 118.699543 305.100184 
L 119.54118 303.341068 
L 120.382818 301.252118 
L 121.224456 298.723389 
L 122.066093 297.184162 
L 122.907731 293.006262 
L 123.749368 296.304604 
L 124.591006 300.59245 
L 125.432643 299.273113 
L 126.274281 301.581952 
L 127.115919 306.749356 
L 127.957556 304.000737 
L 128.799194 302.131676 
L 129.640831 311.037201 
L 130.482469 308.838306 
L 131.324106 310.707367 
L 132.165744 313.78582 
L 133.007382 309.937753 
L 133.849019 326.649356 
L 134.690657 319.393002 
L 136.373932 325.220074 
L 137.215569 326.7593 
L 138.057207 322.5814 
L 138.898845 330.717311 
L 139.740482 331.926704 
L 140.58212 329.727809 
L 141.423757 334.565378 
L 142.265395 330.607367 
L 143.107032 330.607367 
L 143.94867 333.026151 
L 144.790308 335.005157 
L 145.631945 335.55488 
L 146.473583 337.094107 
L 147.31522 333.355985 
L 148.156858 338.413444 
L 148.998495 342.701289 
L 149.840133 344.790239 
L 150.681771 347.978637 
L 151.523408 346.769245 
L 152.365046 353.475875 
L 153.206683 353.036096 
L 154.889958 358.973112 
L 155.731596 359.962615 
L 156.573234 358.753223 
L 157.414871 363.590792 
L 158.256509 366.669245 
L 159.098146 362.491344 
L 159.939784 368.098527 
L 160.781422 367.548803 
L 161.623059 372.716206 
L 162.464697 373.595764 
L 163.306334 377.113996 
L 164.147972 372.936096 
L 165.831247 375.57477 
L 166.672885 380.632228 
L 167.514522 379.202947 
L 168.35616 379.422836 
L 169.197797 378.103499 
L 170.039435 378.213444 
L 170.881072 379.75267 
L 171.72271 378.433333 
L 172.564348 381.621731 
L 173.405985 380.962063 
L 175.930898 383.051013 
L 176.772535 383.380847 
L 177.614173 385.030018 
L 178.455811 383.820626 
L 179.297448 385.139963 
L 180.139086 387.118969 
L 180.980723 386.349355 
L 181.822361 387.888582 
L 182.663998 387.118969 
L 183.505636 387.009024 
L 184.347274 387.668692 
L 185.188911 387.668692 
L 186.872186 390.637201 
L 187.713824 388.54825 
L 188.555461 390.967035 
L 189.397099 392.066483 
L 190.238737 391.956538 
L 191.080374 392.506262 
L 191.922012 391.296869 
L 192.763649 392.946041 
L 193.605287 392.286372 
L 194.446924 391.956538 
L 195.288562 393.38582 
L 196.1302 391.846593 
L 196.971837 394.265378 
L 197.813475 393.715654 
L 198.655112 393.825599 
L 199.49675 395.034991 
L 200.338387 393.495764 
L 201.180025 393.935543 
L 202.021663 395.034991 
L 202.8633 395.144936 
L 203.704938 394.815101 
L 205.388213 395.144936 
L 206.22985 396.244383 
L 207.071488 395.694659 
L 207.913126 395.694659 
L 208.754763 396.904052 
L 209.596401 397.013996 
L 210.438038 395.47477 
L 211.279676 396.684162 
L 212.121313 396.904052 
L 212.962951 396.794107 
L 213.804589 397.453775 
L 214.646226 397.123941 
L 215.487864 397.343831 
L 216.329501 397.123941 
L 217.171139 397.123941 
L 218.012776 396.244383 
L 218.854414 397.123941 
L 220.537689 397.56372 
L 221.379327 397.453775 
L 222.220964 396.464273 
L 223.062602 397.453775 
L 223.90424 397.343831 
L 224.745877 397.893554 
L 225.587515 397.56372 
L 226.429152 397.56372 
L 227.27079 397.78361 
L 228.954065 397.673665 
L 230.63734 398.223389 
L 231.478978 397.56372 
L 232.320615 397.78361 
L 233.162253 397.343831 
L 234.00389 398.003499 
L 234.845528 397.893554 
L 235.687166 397.453775 
L 236.528803 397.343831 
L 237.370441 397.78361 
L 238.212078 397.673665 
L 239.053716 397.78361 
L 239.895353 397.673665 
L 241.578629 397.893554 
L 242.420266 397.673665 
L 243.261904 398.003499 
L 244.103541 397.893554 
L 244.945179 396.904052 
L 245.786816 397.78361 
L 248.311729 398.113444 
L 249.153367 397.013996 
L 249.995004 398.003499 
L 251.678279 397.453775 
L 252.519917 398.003499 
L 253.361555 397.453775 
L 254.203192 397.56372 
L 255.04483 398.113444 
L 255.886467 397.453775 
L 256.728105 398.223389 
L 257.569742 398.223389 
L 258.41138 397.78361 
L 260.094655 397.893554 
L 261.77793 397.233886 
L 262.619568 397.233886 
L 263.461205 397.56372 
L 264.302843 397.123941 
L 265.144481 397.78361 
L 265.986118 397.673665 
L 266.827756 397.893554 
L 267.669393 397.013996 
L 268.511031 397.123941 
L 269.352668 396.574217 
L 270.194306 396.794107 
L 271.035944 396.574217 
L 271.877581 394.155433 
L 271.877581 394.155433 
" clip-path="url(#p40561150da)" style="fill: none; stroke: #008000; stroke-width: 1.5; stroke-linecap: square"/>
   </g>
   <g id="patch_8">
    <path d="M 57.26 398.333333 
L 57.26 219.343278 
" style="fill: none; stroke: #000000; stroke-width: 0.8; stroke-linejoin: miter; stroke-linecap: square"/>
   </g>
   <g id="patch_9">
    <path d="M 272.719219 398.333333 
L 272.719219 219.343278 
" style="fill: none; stroke: #000000; stroke-width: 0.8; stroke-linejoin: miter; stroke-linecap: square"/>
   </g>
   <g id="patch_10">
    <path d="M 57.26 398.333333 
L 272.719219 398.333333 
" style="fill: none; stroke: #000000; stroke-width: 0.8; stroke-linejoin: miter; stroke-linecap: square"/>
   </g>
   <g id="patch_11">
    <path d="M 57.26 219.343278 
L 272.719219 219.343278 
" style="fill: none; stroke: #000000; stroke-width: 0.8; stroke-linejoin: miter; stroke-linecap: square"/>
   </g>
   <g id="text_30">
    <!-- Green Channel  -->
    <g transform="translate(179.492344 233.343278) scale(0.12 -0.12)">
     <defs>
      <path id="DejaVuSans-47" d="M 3809 666 
L 3809 1919 
L 2778 1919 
L 2778 2438 
L 4434 2438 
L 4434 434 
Q 4069 175 3628 42 
Q 3188 -91 2688 -91 
Q 1594 -91 976 548 
Q 359 1188 359 2328 
Q 359 3472 976 4111 
Q 1594 4750 2688 4750 
Q 3144 4750 3555 4637 
Q 3966 4525 4313 4306 
L 4313 3634 
Q 3963 3931 3569 4081 
Q 3175 4231 2741 4231 
Q 1884 4231 1454 3753 
Q 1025 3275 1025 2328 
Q 1025 1384 1454 906 
Q 1884 428 2741 428 
Q 3075 428 3337 486 
Q 3600 544 3809 666 
z
" transform="scale(0.015625)"/>
     </defs>
     <use xlink:href="#DejaVuSans-47"/>
     <use xlink:href="#DejaVuSans-72" x="77.490234"/>
     <use xlink:href="#DejaVuSans-65" x="116.353516"/>
     <use xlink:href="#DejaVuSans-65" x="177.876953"/>
     <use xlink:href="#DejaVuSans-6e" x="239.400391"/>
     <use xlink:href="#DejaVuSans-20" x="302.779297"/>
     <use xlink:href="#DejaVuSans-43" x="334.566406"/>
     <use xlink:href="#DejaVuSans-68" x="404.390625"/>
     <use xlink:href="#DejaVuSans-61" x="467.769531"/>
     <use xlink:href="#DejaVuSans-6e" x="529.048828"/>
     <use xlink:href="#DejaVuSans-6e" x="592.427734"/>
     <use xlink:href="#DejaVuSans-65" x="655.806641"/>
     <use xlink:href="#DejaVuSans-6c" x="717.330078"/>
     <use xlink:href="#DejaVuSans-20" x="745.113281"/>
    </g>
   </g>
  </g>
  <g id="axes_3">
   <g id="patch_12">
    <path d="M 57.26 606.04 
L 272.719219 606.04 
L 272.719219 427.049945 
L 57.26 427.049945 
z
" style="fill: #ffffff"/>
   </g>
   <g id="PolyCollection_3">
    <defs>
     <path id="m301eb6d5db" d="M 57.26 -41.96 
L 57.26 -41.96 
L 58.101638 -41.96 
L 58.943275 -41.96 
L 59.784913 -41.96 
L 60.62655 -41.96 
L 61.468188 -41.96 
L 62.309825 -41.96 
L 63.151463 -41.96 
L 63.993101 -41.96 
L 64.834738 -41.96 
L 65.676376 -41.96 
L 66.518013 -41.96 
L 67.359651 -41.96 
L 68.201288 -41.96 
L 69.042926 -41.96 
L 69.884564 -41.96 
L 70.726201 -41.96 
L 71.567839 -41.96 
L 72.409476 -41.96 
L 73.251114 -41.96 
L 74.092751 -41.96 
L 74.934389 -41.96 
L 75.776027 -42.619669 
L 76.617664 -42.949503 
L 77.459302 -45.478232 
L 78.300939 -51.195359 
L 79.142577 -56.362762 
L 79.984214 -62.299779 
L 80.825852 -69.885967 
L 81.66749 -78.681547 
L 82.509127 -91.874917 
L 83.350765 -106.497569 
L 84.192402 -105.178232 
L 85.03404 -115.07326 
L 85.875677 -117.052265 
L 86.717315 -122.769392 
L 87.558953 -125.518011 
L 88.40059 -134.203646 
L 89.242228 -150.475469 
L 90.083865 -156.852265 
L 90.925503 -164.108619 
L 91.767141 -168.396464 
L 92.608778 -179.940663 
L 93.450416 -192.804199 
L 94.292053 -208.086519 
L 95.133691 -218.75116 
L 95.975328 -219.630718 
L 96.816966 -220.950055 
L 97.658604 -212.154475 
L 98.500241 -205.008066 
L 99.341879 -205.887624 
L 100.183516 -199.071049 
L 101.025154 -186.757237 
L 101.866791 -179.280994 
L 102.708429 -174.55337 
L 103.550067 -169.715801 
L 104.391704 -159.161105 
L 105.233342 -153.004199 
L 106.074979 -147.177127 
L 106.916617 -151.355027 
L 107.758254 -149.046188 
L 108.599892 -150.695359 
L 109.44153 -145.418011 
L 110.283167 -141.020221 
L 111.124805 -135.852818 
L 111.966442 -129.036243 
L 112.80808 -116.502541 
L 113.649717 -114.523536 
L 114.491355 -105.8379 
L 115.332993 -102.979337 
L 116.17463 -99.35116 
L 117.016268 -96.052818 
L 117.857905 -91.215249 
L 118.699543 -86.15779 
L 119.54118 -82.089834 
L 120.382818 -77.472155 
L 121.224456 -77.911934 
L 122.066093 -75.27326 
L 122.907731 -72.084862 
L 123.749368 -74.063867 
L 124.591006 -68.126851 
L 125.432643 -68.56663 
L 126.274281 -69.995912 
L 127.115919 -69.556133 
L 127.957556 -65.048398 
L 128.799194 -62.629613 
L 129.640831 -62.739558 
L 130.482469 -60.760552 
L 131.324106 -59.77105 
L 132.165744 -58.121878 
L 133.007382 -56.142873 
L 133.849019 -55.813039 
L 134.690657 -55.37326 
L 135.532294 -52.84453 
L 136.373932 -54.493702 
L 137.215569 -53.06442 
L 138.057207 -52.404751 
L 138.898845 -51.085414 
L 139.740482 -48.556685 
L 140.58212 -48.996464 
L 141.423757 -47.897017 
L 142.265395 -50.205856 
L 143.107032 -46.687624 
L 143.94867 -47.457238 
L 144.790308 -45.368287 
L 145.631945 -45.588177 
L 146.473583 -45.038453 
L 147.31522 -45.258343 
L 148.156858 -44.818564 
L 148.998495 -44.488729 
L 149.840133 -45.038453 
L 150.681771 -44.488729 
L 151.523408 -43.499227 
L 152.365046 -43.829061 
L 153.206683 -44.26884 
L 154.048321 -43.389282 
L 154.889958 -43.719116 
L 155.731596 -43.609171 
L 156.573234 -43.059448 
L 157.414871 -43.169392 
L 158.256509 -42.729613 
L 159.098146 -43.169392 
L 159.939784 -42.619669 
L 160.781422 -43.169392 
L 161.623059 -42.949503 
L 162.464697 -42.729613 
L 163.306334 -42.729613 
L 164.147972 -43.169392 
L 164.989609 -42.949503 
L 165.831247 -42.399779 
L 166.672885 -42.839558 
L 167.514522 -42.729613 
L 168.35616 -42.949503 
L 169.197797 -43.279337 
L 170.039435 -43.169392 
L 170.881072 -43.059448 
L 171.72271 -42.839558 
L 172.564348 -42.839558 
L 173.405985 -42.399779 
L 174.247623 -42.399779 
L 175.08926 -42.729613 
L 175.930898 -42.17989 
L 176.772535 -42.729613 
L 177.614173 -42.399779 
L 178.455811 -42.509724 
L 179.297448 -42.289834 
L 180.139086 -42.289834 
L 180.980723 -42.729613 
L 181.822361 -43.059448 
L 182.663998 -42.619669 
L 183.505636 -42.509724 
L 184.347274 -43.059448 
L 185.188911 -42.729613 
L 186.030549 -42.17989 
L 186.872186 -42.729613 
L 187.713824 -42.289834 
L 188.555461 -42.839558 
L 189.397099 -42.839558 
L 190.238737 -42.509724 
L 191.080374 -42.619669 
L 191.922012 -42.509724 
L 192.763649 -42.949503 
L 193.605287 -43.169392 
L 194.446924 -42.949503 
L 195.288562 -42.839558 
L 196.1302 -42.509724 
L 196.971837 -43.389282 
L 197.813475 -42.17989 
L 198.655112 -42.399779 
L 199.49675 -42.289834 
L 200.338387 -42.399779 
L 201.180025 -42.17989 
L 202.021663 -42.17989 
L 202.8633 -42.17989 
L 203.704938 -42.069945 
L 204.546575 -41.96 
L 205.388213 -41.96 
L 206.22985 -41.96 
L 207.071488 -41.96 
L 207.913126 -42.069945 
L 208.754763 -42.069945 
L 209.596401 -41.96 
L 210.438038 -42.069945 
L 211.279676 -41.96 
L 212.121313 -41.96 
L 212.962951 -41.96 
L 213.804589 -41.96 
L 214.646226 -42.069945 
L 215.487864 -41.96 
L 216.329501 -42.069945 
L 217.171139 -41.96 
L 218.012776 -42.069945 
L 218.854414 -41.96 
L 219.696052 -41.96 
L 220.537689 -41.96 
L 221.379327 -41.96 
L 222.220964 -41.96 
L 223.062602 -42.069945 
L 223.90424 -41.96 
L 224.745877 -41.96 
L 225.587515 -41.96 
L 226.429152 -41.96 
L 227.27079 -41.96 
L 228.112427 -41.96 
L 228.954065 -41.96 
L 229.795703 -42.069945 
L 230.63734 -41.96 
L 231.478978 -42.069945 
L 232.320615 -41.96 
L 233.162253 -41.96 
L 234.00389 -41.96 
L 234.845528 -41.96 
L 235.687166 -41.96 
L 236.528803 -41.96 
L 237.370441 -41.96 
L 238.212078 -41.96 
L 239.053716 -41.96 
L 239.895353 -41.96 
L 240.736991 -41.96 
L 241.578629 -41.96 
L 242.420266 -41.96 
L 243.261904 -41.96 
L 244.103541 -41.96 
L 244.945179 -41.96 
L 245.786816 -41.96 
L 246.628454 -41.96 
L 247.470092 -41.96 
L 248.311729 -41.96 
L 249.153367 -41.96 
L 249.995004 -41.96 
L 250.836642 -41.96 
L 251.678279 -41.96 
L 252.519917 -41.96 
L 253.361555 -41.96 
L 254.203192 -41.96 
L 255.04483 -41.96 
L 255.886467 -41.96 
L 256.728105 -41.96 
L 257.569742 -41.96 
L 258.41138 -41.96 
L 259.253018 -41.96 
L 260.094655 -41.96 
L 260.936293 -41.96 
L 261.77793 -41.96 
L 262.619568 -41.96 
L 263.461205 -41.96 
L 264.302843 -41.96 
L 265.144481 -41.96 
L 265.986118 -41.96 
L 266.827756 -41.96 
L 267.669393 -41.96 
L 268.511031 -41.96 
L 269.352668 -41.96 
L 270.194306 -41.96 
L 271.035944 -41.96 
L 271.877581 -41.96 
L 271.877581 -41.96 
L 271.877581 -41.96 
L 271.035944 -41.96 
L 270.194306 -41.96 
L 269.352668 -41.96 
L 268.511031 -41.96 
L 267.669393 -41.96 
L 266.827756 -41.96 
L 265.986118 -41.96 
L 265.144481 -41.96 
L 264.302843 -41.96 
L 263.461205 -41.96 
L 262.619568 -41.96 
L 261.77793 -41.96 
L 260.936293 -41.96 
L 260.094655 -41.96 
L 259.253018 -41.96 
L 258.41138 -41.96 
L 257.569742 -41.96 
L 256.728105 -41.96 
L 255.886467 -41.96 
L 255.04483 -41.96 
L 254.203192 -41.96 
L 253.361555 -41.96 
L 252.519917 -41.96 
L 251.678279 -41.96 
L 250.836642 -41.96 
L 249.995004 -41.96 
L 249.153367 -41.96 
L 248.311729 -41.96 
L 247.470092 -41.96 
L 246.628454 -41.96 
L 245.786816 -41.96 
L 244.945179 -41.96 
L 244.103541 -41.96 
L 243.261904 -41.96 
L 242.420266 -41.96 
L 241.578629 -41.96 
L 240.736991 -41.96 
L 239.895353 -41.96 
L 239.053716 -41.96 
L 238.212078 -41.96 
L 237.370441 -41.96 
L 236.528803 -41.96 
L 235.687166 -41.96 
L 234.845528 -41.96 
L 234.00389 -41.96 
L 233.162253 -41.96 
L 232.320615 -41.96 
L 231.478978 -41.96 
L 230.63734 -41.96 
L 229.795703 -41.96 
L 228.954065 -41.96 
L 228.112427 -41.96 
L 227.27079 -41.96 
L 226.429152 -41.96 
L 225.587515 -41.96 
L 224.745877 -41.96 
L 223.90424 -41.96 
L 223.062602 -41.96 
L 222.220964 -41.96 
L 221.379327 -41.96 
L 220.537689 -41.96 
L 219.696052 -41.96 
L 218.854414 -41.96 
L 218.012776 -41.96 
L 217.171139 -41.96 
L 216.329501 -41.96 
L 215.487864 -41.96 
L 214.646226 -41.96 
L 213.804589 -41.96 
L 212.962951 -41.96 
L 212.121313 -41.96 
L 211.279676 -41.96 
L 210.438038 -41.96 
L 209.596401 -41.96 
L 208.754763 -41.96 
L 207.913126 -41.96 
L 207.071488 -41.96 
L 206.22985 -41.96 
L 205.388213 -41.96 
L 204.546575 -41.96 
L 203.704938 -41.96 
L 202.8633 -41.96 
L 202.021663 -41.96 
L 201.180025 -41.96 
L 200.338387 -41.96 
L 199.49675 -41.96 
L 198.655112 -41.96 
L 197.813475 -41.96 
L 196.971837 -41.96 
L 196.1302 -41.96 
L 195.288562 -41.96 
L 194.446924 -41.96 
L 193.605287 -41.96 
L 192.763649 -41.96 
L 191.922012 -41.96 
L 191.080374 -41.96 
L 190.238737 -41.96 
L 189.397099 -41.96 
L 188.555461 -41.96 
L 187.713824 -41.96 
L 186.872186 -41.96 
L 186.030549 -41.96 
L 185.188911 -41.96 
L 184.347274 -41.96 
L 183.505636 -41.96 
L 182.663998 -41.96 
L 181.822361 -41.96 
L 180.980723 -41.96 
L 180.139086 -41.96 
L 179.297448 -41.96 
L 178.455811 -41.96 
L 177.614173 -41.96 
L 176.772535 -41.96 
L 175.930898 -41.96 
L 175.08926 -41.96 
L 174.247623 -41.96 
L 173.405985 -41.96 
L 172.564348 -41.96 
L 171.72271 -41.96 
L 170.881072 -41.96 
L 170.039435 -41.96 
L 169.197797 -41.96 
L 168.35616 -41.96 
L 167.514522 -41.96 
L 166.672885 -41.96 
L 165.831247 -41.96 
L 164.989609 -41.96 
L 164.147972 -41.96 
L 163.306334 -41.96 
L 162.464697 -41.96 
L 161.623059 -41.96 
L 160.781422 -41.96 
L 159.939784 -41.96 
L 159.098146 -41.96 
L 158.256509 -41.96 
L 157.414871 -41.96 
L 156.573234 -41.96 
L 155.731596 -41.96 
L 154.889958 -41.96 
L 154.048321 -41.96 
L 153.206683 -41.96 
L 152.365046 -41.96 
L 151.523408 -41.96 
L 150.681771 -41.96 
L 149.840133 -41.96 
L 148.998495 -41.96 
L 148.156858 -41.96 
L 147.31522 -41.96 
L 146.473583 -41.96 
L 145.631945 -41.96 
L 144.790308 -41.96 
L 143.94867 -41.96 
L 143.107032 -41.96 
L 142.265395 -41.96 
L 141.423757 -41.96 
L 140.58212 -41.96 
L 139.740482 -41.96 
L 138.898845 -41.96 
L 138.057207 -41.96 
L 137.215569 -41.96 
L 136.373932 -41.96 
L 135.532294 -41.96 
L 134.690657 -41.96 
L 133.849019 -41.96 
L 133.007382 -41.96 
L 132.165744 -41.96 
L 131.324106 -41.96 
L 130.482469 -41.96 
L 129.640831 -41.96 
L 128.799194 -41.96 
L 127.957556 -41.96 
L 127.115919 -41.96 
L 126.274281 -41.96 
L 125.432643 -41.96 
L 124.591006 -41.96 
L 123.749368 -41.96 
L 122.907731 -41.96 
L 122.066093 -41.96 
L 121.224456 -41.96 
L 120.382818 -41.96 
L 119.54118 -41.96 
L 118.699543 -41.96 
L 117.857905 -41.96 
L 117.016268 -41.96 
L 116.17463 -41.96 
L 115.332993 -41.96 
L 114.491355 -41.96 
L 113.649717 -41.96 
L 112.80808 -41.96 
L 111.966442 -41.96 
L 111.124805 -41.96 
L 110.283167 -41.96 
L 109.44153 -41.96 
L 108.599892 -41.96 
L 107.758254 -41.96 
L 106.916617 -41.96 
L 106.074979 -41.96 
L 105.233342 -41.96 
L 104.391704 -41.96 
L 103.550067 -41.96 
L 102.708429 -41.96 
L 101.866791 -41.96 
L 101.025154 -41.96 
L 100.183516 -41.96 
L 99.341879 -41.96 
L 98.500241 -41.96 
L 97.658604 -41.96 
L 96.816966 -41.96 
L 95.975328 -41.96 
L 95.133691 -41.96 
L 94.292053 -41.96 
L 93.450416 -41.96 
L 92.608778 -41.96 
L 91.767141 -41.96 
L 90.925503 -41.96 
L 90.083865 -41.96 
L 89.242228 -41.96 
L 88.40059 -41.96 
L 87.558953 -41.96 
L 86.717315 -41.96 
L 85.875677 -41.96 
L 85.03404 -41.96 
L 84.192402 -41.96 
L 83.350765 -41.96 
L 82.509127 -41.96 
L 81.66749 -41.96 
L 80.825852 -41.96 
L 79.984214 -41.96 
L 79.142577 -41.96 
L 78.300939 -41.96 
L 77.459302 -41.96 
L 76.617664 -41.96 
L 75.776027 -41.96 
L 74.934389 -41.96 
L 74.092751 -41.96 
L 73.251114 -41.96 
L 72.409476 -41.96 
L 71.567839 -41.96 
L 70.726201 -41.96 
L 69.884564 -41.96 
L 69.042926 -41.96 
L 68.201288 -41.96 
L 67.359651 -41.96 
L 66.518013 -41.96 
L 65.676376 -41.96 
L 64.834738 -41.96 
L 63.993101 -41.96 
L 63.151463 -41.96 
L 62.309825 -41.96 
L 61.468188 -41.96 
L 60.62655 -41.96 
L 59.784913 -41.96 
L 58.943275 -41.96 
L 58.101638 -41.96 
L 57.26 -41.96 
z
" style="stroke: #0000ff; stroke-opacity: 0.4"/>
    </defs>
    <g clip-path="url(#pd9fc1904ec)">
     <use xlink:href="#m301eb6d5db" x="0" y="648" style="fill: #0000ff; fill-opacity: 0.4; stroke: #0000ff; stroke-opacity: 0.4"/>
    </g>
   </g>
   <g id="matplotlib.axis_5">
    <g id="xtick_13">
     <g id="line2d_29">
      <g>
       <use xlink:href="#mf0b4c80073" x="57.26" y="606.04" style="stroke: #000000; stroke-width: 0.8"/>
      </g>
     </g>
     <g id="text_31">
      <!-- 0 -->
      <g transform="translate(54.07875 620.638437) scale(0.1 -0.1)">
       <use xlink:href="#DejaVuSans-30"/>
      </g>
     </g>
    </g>
    <g id="xtick_14">
     <g id="line2d_30">
      <g>
       <use xlink:href="#mf0b4c80073" x="99.341879" y="606.04" style="stroke: #000000; stroke-width: 0.8"/>
      </g>
     </g>
     <g id="text_32">
      <!-- 50 -->
      <g transform="translate(92.979379 620.638437) scale(0.1 -0.1)">
       <use xlink:href="#DejaVuSans-35"/>
       <use xlink:href="#DejaVuSans-30" x="63.623047"/>
      </g>
     </g>
    </g>
    <g id="xtick_15">
     <g id="line2d_31">
      <g>
       <use xlink:href="#mf0b4c80073" x="141.423757" y="606.04" style="stroke: #000000; stroke-width: 0.8"/>
      </g>
     </g>
     <g id="text_33">
      <!-- 100 -->
      <g transform="translate(131.880007 620.638437) scale(0.1 -0.1)">
       <use xlink:href="#DejaVuSans-31"/>
       <use xlink:href="#DejaVuSans-30" x="63.623047"/>
       <use xlink:href="#DejaVuSans-30" x="127.246094"/>
      </g>
     </g>
    </g>
    <g id="xtick_16">
     <g id="line2d_32">
      <g>
       <use xlink:href="#mf0b4c80073" x="183.505636" y="606.04" style="stroke: #000000; stroke-width: 0.8"/>
      </g>
     </g>
     <g id="text_34">
      <!-- 150 -->
      <g transform="translate(173.961886 620.638437) scale(0.1 -0.1)">
       <use xlink:href="#DejaVuSans-31"/>
       <use xlink:href="#DejaVuSans-35" x="63.623047"/>
       <use xlink:href="#DejaVuSans-30" x="127.246094"/>
      </g>
     </g>
    </g>
    <g id="xtick_17">
     <g id="line2d_33">
      <g>
       <use xlink:href="#mf0b4c80073" x="225.587515" y="606.04" style="stroke: #000000; stroke-width: 0.8"/>
      </g>
     </g>
     <g id="text_35">
      <!-- 200 -->
      <g transform="translate(216.043765 620.638437) scale(0.1 -0.1)">
       <use xlink:href="#DejaVuSans-32"/>
       <use xlink:href="#DejaVuSans-30" x="63.623047"/>
       <use xlink:href="#DejaVuSans-30" x="127.246094"/>
      </g>
     </g>
    </g>
    <g id="xtick_18">
     <g id="line2d_34">
      <g>
       <use xlink:href="#mf0b4c80073" x="267.669393" y="606.04" style="stroke: #000000; stroke-width: 0.8"/>
      </g>
     </g>
     <g id="text_36">
      <!-- 250 -->
      <g transform="translate(258.125643 620.638437) scale(0.1 -0.1)">
       <use xlink:href="#DejaVuSans-32"/>
       <use xlink:href="#DejaVuSans-35" x="63.623047"/>
       <use xlink:href="#DejaVuSans-30" x="127.246094"/>
      </g>
     </g>
    </g>
    <g id="text_37">
     <!-- Pixel Intensity -->
     <g transform="translate(130.077891 634.316562) scale(0.1 -0.1)">
      <defs>
       <path id="DejaVuSans-49" d="M 628 4666 
L 1259 4666 
L 1259 0 
L 628 0 
L 628 4666 
z
" transform="scale(0.015625)"/>
       <path id="DejaVuSans-74" d="M 1172 4494 
L 1172 3500 
L 2356 3500 
L 2356 3053 
L 1172 3053 
L 1172 1153 
Q 1172 725 1289 603 
Q 1406 481 1766 481 
L 2356 481 
L 2356 0 
L 1766 0 
Q 1100 0 847 248 
Q 594 497 594 1153 
L 594 3053 
L 172 3053 
L 172 3500 
L 594 3500 
L 594 4494 
L 1172 4494 
z
" transform="scale(0.015625)"/>
       <path id="DejaVuSans-73" d="M 2834 3397 
L 2834 2853 
Q 2591 2978 2328 3040 
Q 2066 3103 1784 3103 
Q 1356 3103 1142 2972 
Q 928 2841 928 2578 
Q 928 2378 1081 2264 
Q 1234 2150 1697 2047 
L 1894 2003 
Q 2506 1872 2764 1633 
Q 3022 1394 3022 966 
Q 3022 478 2636 193 
Q 2250 -91 1575 -91 
Q 1294 -91 989 -36 
Q 684 19 347 128 
L 347 722 
Q 666 556 975 473 
Q 1284 391 1588 391 
Q 1994 391 2212 530 
Q 2431 669 2431 922 
Q 2431 1156 2273 1281 
Q 2116 1406 1581 1522 
L 1381 1569 
Q 847 1681 609 1914 
Q 372 2147 372 2553 
Q 372 3047 722 3315 
Q 1072 3584 1716 3584 
Q 2034 3584 2315 3537 
Q 2597 3491 2834 3397 
z
" transform="scale(0.015625)"/>
      </defs>
      <use xlink:href="#DejaVuSans-50"/>
      <use xlink:href="#DejaVuSans-69" x="58.052734"/>
      <use xlink:href="#DejaVuSans-78" x="85.835938"/>
      <use xlink:href="#DejaVuSans-65" x="141.890625"/>
      <use xlink:href="#DejaVuSans-6c" x="203.414062"/>
      <use xlink:href="#DejaVuSans-20" x="231.197266"/>
      <use xlink:href="#DejaVuSans-49" x="262.984375"/>
      <use xlink:href="#DejaVuSans-6e" x="292.476562"/>
      <use xlink:href="#DejaVuSans-74" x="355.855469"/>
      <use xlink:href="#DejaVuSans-65" x="395.064453"/>
      <use xlink:href="#DejaVuSans-6e" x="456.587891"/>
      <use xlink:href="#DejaVuSans-73" x="519.966797"/>
      <use xlink:href="#DejaVuSans-69" x="572.066406"/>
      <use xlink:href="#DejaVuSans-74" x="599.849609"/>
      <use xlink:href="#DejaVuSans-79" x="639.058594"/>
     </g>
    </g>
   </g>
   <g id="matplotlib.axis_6">
    <g id="ytick_15">
     <g id="line2d_35">
      <g>
       <use xlink:href="#m6cef0d2481" x="57.26" y="606.04" style="stroke: #000000; stroke-width: 0.8"/>
      </g>
     </g>
     <g id="text_38">
      <!-- 0 -->
      <g transform="translate(43.8975 609.839219) scale(0.1 -0.1)">
       <use xlink:href="#DejaVuSans-30"/>
      </g>
     </g>
    </g>
    <g id="ytick_16">
     <g id="line2d_36">
      <g>
       <use xlink:href="#m6cef0d2481" x="57.26" y="578.553812" style="stroke: #000000; stroke-width: 0.8"/>
      </g>
     </g>
     <g id="text_39">
      <!-- 250 -->
      <g transform="translate(31.1725 582.353031) scale(0.1 -0.1)">
       <use xlink:href="#DejaVuSans-32"/>
       <use xlink:href="#DejaVuSans-35" x="63.623047"/>
       <use xlink:href="#DejaVuSans-30" x="127.246094"/>
      </g>
     </g>
    </g>
    <g id="ytick_17">
     <g id="line2d_37">
      <g>
       <use xlink:href="#m6cef0d2481" x="57.26" y="551.067624" style="stroke: #000000; stroke-width: 0.8"/>
      </g>
     </g>
     <g id="text_40">
      <!-- 500 -->
      <g transform="translate(31.1725 554.866843) scale(0.1 -0.1)">
       <use xlink:href="#DejaVuSans-35"/>
       <use xlink:href="#DejaVuSans-30" x="63.623047"/>
       <use xlink:href="#DejaVuSans-30" x="127.246094"/>
      </g>
     </g>
    </g>
    <g id="ytick_18">
     <g id="line2d_38">
      <g>
       <use xlink:href="#m6cef0d2481" x="57.26" y="523.581437" style="stroke: #000000; stroke-width: 0.8"/>
      </g>
     </g>
     <g id="text_41">
      <!-- 750 -->
      <g transform="translate(31.1725 527.380655) scale(0.1 -0.1)">
       <use xlink:href="#DejaVuSans-37"/>
       <use xlink:href="#DejaVuSans-35" x="63.623047"/>
       <use xlink:href="#DejaVuSans-30" x="127.246094"/>
      </g>
     </g>
    </g>
    <g id="ytick_19">
     <g id="line2d_39">
      <g>
       <use xlink:href="#m6cef0d2481" x="57.26" y="496.095249" style="stroke: #000000; stroke-width: 0.8"/>
      </g>
     </g>
     <g id="text_42">
      <!-- 1000 -->
      <g transform="translate(24.81 499.894468) scale(0.1 -0.1)">
       <use xlink:href="#DejaVuSans-31"/>
       <use xlink:href="#DejaVuSans-30" x="63.623047"/>
       <use xlink:href="#DejaVuSans-30" x="127.246094"/>
       <use xlink:href="#DejaVuSans-30" x="190.869141"/>
      </g>
     </g>
    </g>
    <g id="ytick_20">
     <g id="line2d_40">
      <g>
       <use xlink:href="#m6cef0d2481" x="57.26" y="468.609061" style="stroke: #000000; stroke-width: 0.8"/>
      </g>
     </g>
     <g id="text_43">
      <!-- 1250 -->
      <g transform="translate(24.81 472.40828) scale(0.1 -0.1)">
       <use xlink:href="#DejaVuSans-31"/>
       <use xlink:href="#DejaVuSans-32" x="63.623047"/>
       <use xlink:href="#DejaVuSans-35" x="127.246094"/>
       <use xlink:href="#DejaVuSans-30" x="190.869141"/>
      </g>
     </g>
    </g>
    <g id="ytick_21">
     <g id="line2d_41">
      <g>
       <use xlink:href="#m6cef0d2481" x="57.26" y="441.122873" style="stroke: #000000; stroke-width: 0.8"/>
      </g>
     </g>
     <g id="text_44">
      <!-- 1500 -->
      <g transform="translate(24.81 444.922092) scale(0.1 -0.1)">
       <use xlink:href="#DejaVuSans-31"/>
       <use xlink:href="#DejaVuSans-35" x="63.623047"/>
       <use xlink:href="#DejaVuSans-30" x="127.246094"/>
       <use xlink:href="#DejaVuSans-30" x="190.869141"/>
      </g>
     </g>
    </g>
    <g id="text_45">
     <!-- Pixel Frequency -->
     <g transform="translate(18.730313 555.523879) rotate(-90) scale(0.1 -0.1)">
      <use xlink:href="#DejaVuSans-50"/>
      <use xlink:href="#DejaVuSans-69" x="58.052734"/>
      <use xlink:href="#DejaVuSans-78" x="85.835938"/>
      <use xlink:href="#DejaVuSans-65" x="141.890625"/>
      <use xlink:href="#DejaVuSans-6c" x="203.414062"/>
      <use xlink:href="#DejaVuSans-20" x="231.197266"/>
      <use xlink:href="#DejaVuSans-46" x="262.984375"/>
      <use xlink:href="#DejaVuSans-72" x="313.253906"/>
      <use xlink:href="#DejaVuSans-65" x="352.117188"/>
      <use xlink:href="#DejaVuSans-71" x="413.640625"/>
      <use xlink:href="#DejaVuSans-75" x="477.117188"/>
      <use xlink:href="#DejaVuSans-65" x="540.496094"/>
      <use xlink:href="#DejaVuSans-6e" x="602.019531"/>
      <use xlink:href="#DejaVuSans-63" x="665.398438"/>
      <use xlink:href="#DejaVuSans-79" x="720.378906"/>
     </g>
    </g>
   </g>
   <g id="line2d_42">
    <path d="M 57.26 606.04 
L 74.934389 606.04 
L 75.776027 605.380331 
L 76.617664 605.050497 
L 77.459302 602.521768 
L 79.984214 585.700221 
L 80.825852 578.114033 
L 81.66749 569.318453 
L 83.350765 541.502431 
L 84.192402 542.821768 
L 85.03404 532.92674 
L 85.875677 530.947735 
L 86.717315 525.230608 
L 87.558953 522.481989 
L 88.40059 513.796354 
L 89.242228 497.524531 
L 90.083865 491.147735 
L 90.925503 483.891381 
L 91.767141 479.603536 
L 93.450416 455.195801 
L 94.292053 439.913481 
L 95.133691 429.24884 
L 95.975328 428.369282 
L 96.816966 427.049945 
L 97.658604 435.845525 
L 98.500241 442.991934 
L 99.341879 442.112376 
L 100.183516 448.928951 
L 101.025154 461.242763 
L 101.866791 468.719006 
L 103.550067 478.284199 
L 104.391704 488.838895 
L 106.074979 500.822873 
L 106.916617 496.644973 
L 107.758254 498.953812 
L 108.599892 497.304641 
L 109.44153 502.581989 
L 110.283167 506.979779 
L 111.124805 512.147182 
L 111.966442 518.963757 
L 112.80808 531.497459 
L 113.649717 533.476464 
L 114.491355 542.1621 
L 115.332993 545.020663 
L 117.016268 551.947182 
L 119.54118 565.910166 
L 120.382818 570.527845 
L 121.224456 570.088066 
L 122.066093 572.72674 
L 122.907731 575.915138 
L 123.749368 573.936133 
L 124.591006 579.873149 
L 125.432643 579.43337 
L 126.274281 578.004088 
L 127.115919 578.443867 
L 127.957556 582.951602 
L 128.799194 585.370387 
L 129.640831 585.260442 
L 130.482469 587.239448 
L 131.324106 588.22895 
L 132.165744 589.878122 
L 133.007382 591.857127 
L 134.690657 592.62674 
L 135.532294 595.15547 
L 136.373932 593.506298 
L 137.215569 594.93558 
L 138.057207 595.595249 
L 138.898845 596.914586 
L 139.740482 599.443315 
L 140.58212 599.003536 
L 141.423757 600.102983 
L 142.265395 597.794144 
L 143.107032 601.312376 
L 143.94867 600.542762 
L 144.790308 602.631713 
L 145.631945 602.411823 
L 146.473583 602.961547 
L 147.31522 602.741657 
L 148.998495 603.511271 
L 149.840133 602.961547 
L 150.681771 603.511271 
L 151.523408 604.500773 
L 153.206683 603.73116 
L 154.048321 604.610718 
L 154.889958 604.280884 
L 155.731596 604.390829 
L 156.573234 604.940552 
L 157.414871 604.830608 
L 158.256509 605.270387 
L 159.098146 604.830608 
L 159.939784 605.380331 
L 160.781422 604.830608 
L 162.464697 605.270387 
L 163.306334 605.270387 
L 164.147972 604.830608 
L 164.989609 605.050497 
L 165.831247 605.600221 
L 166.672885 605.160442 
L 167.514522 605.270387 
L 169.197797 604.720663 
L 172.564348 605.160442 
L 173.405985 605.600221 
L 174.247623 605.600221 
L 175.08926 605.270387 
L 175.930898 605.82011 
L 176.772535 605.270387 
L 177.614173 605.600221 
L 178.455811 605.490276 
L 179.297448 605.710166 
L 180.139086 605.710166 
L 181.822361 604.940552 
L 182.663998 605.380331 
L 183.505636 605.490276 
L 184.347274 604.940552 
L 185.188911 605.270387 
L 186.030549 605.82011 
L 186.872186 605.270387 
L 187.713824 605.710166 
L 188.555461 605.160442 
L 189.397099 605.160442 
L 190.238737 605.490276 
L 191.080374 605.380331 
L 191.922012 605.490276 
L 192.763649 605.050497 
L 193.605287 604.830608 
L 196.1302 605.490276 
L 196.971837 604.610718 
L 197.813475 605.82011 
L 198.655112 605.600221 
L 199.49675 605.710166 
L 200.338387 605.600221 
L 201.180025 605.82011 
L 203.704938 605.930055 
L 205.388213 606.04 
L 271.877581 606.04 
L 271.877581 606.04 
" clip-path="url(#pd9fc1904ec)" style="fill: none; stroke: #0000ff; stroke-width: 1.5; stroke-linecap: square"/>
   </g>
   <g id="patch_13">
    <path d="M 57.26 606.04 
L 57.26 427.049945 
" style="fill: none; stroke: #000000; stroke-width: 0.8; stroke-linejoin: miter; stroke-linecap: square"/>
   </g>
   <g id="patch_14">
    <path d="M 272.719219 606.04 
L 272.719219 427.049945 
" style="fill: none; stroke: #000000; stroke-width: 0.8; stroke-linejoin: miter; stroke-linecap: square"/>
   </g>
   <g id="patch_15">
    <path d="M 57.26 606.04 
L 272.719219 606.04 
" style="fill: none; stroke: #000000; stroke-width: 0.8; stroke-linejoin: miter; stroke-linecap: square"/>
   </g>
   <g id="patch_16">
    <path d="M 57.26 427.049945 
L 272.719219 427.049945 
" style="fill: none; stroke: #000000; stroke-width: 0.8; stroke-linejoin: miter; stroke-linecap: square"/>
   </g>
   <g id="text_46">
    <!-- Blue Channel  -->
    <g transform="translate(189.270469 441.049945) scale(0.12 -0.12)">
     <defs>
      <path id="DejaVuSans-42" d="M 1259 2228 
L 1259 519 
L 2272 519 
Q 2781 519 3026 730 
Q 3272 941 3272 1375 
Q 3272 1813 3026 2020 
Q 2781 2228 2272 2228 
L 1259 2228 
z
M 1259 4147 
L 1259 2741 
L 2194 2741 
Q 2656 2741 2882 2914 
Q 3109 3088 3109 3444 
Q 3109 3797 2882 3972 
Q 2656 4147 2194 4147 
L 1259 4147 
z
M 628 4666 
L 2241 4666 
Q 2963 4666 3353 4366 
Q 3744 4066 3744 3513 
Q 3744 3084 3544 2831 
Q 3344 2578 2956 2516 
Q 3422 2416 3680 2098 
Q 3938 1781 3938 1306 
Q 3938 681 3513 340 
Q 3088 0 2303 0 
L 628 0 
L 628 4666 
z
" transform="scale(0.015625)"/>
     </defs>
     <use xlink:href="#DejaVuSans-42"/>
     <use xlink:href="#DejaVuSans-6c" x="68.603516"/>
     <use xlink:href="#DejaVuSans-75" x="96.386719"/>
     <use xlink:href="#DejaVuSans-65" x="159.765625"/>
     <use xlink:href="#DejaVuSans-20" x="221.289062"/>
     <use xlink:href="#DejaVuSans-43" x="253.076172"/>
     <use xlink:href="#DejaVuSans-68" x="322.900391"/>
     <use xlink:href="#DejaVuSans-61" x="386.279297"/>
     <use xlink:href="#DejaVuSans-6e" x="447.558594"/>
     <use xlink:href="#DejaVuSans-6e" x="510.9375"/>
     <use xlink:href="#DejaVuSans-65" x="574.316406"/>
     <use xlink:href="#DejaVuSans-6c" x="635.839844"/>
     <use xlink:href="#DejaVuSans-20" x="663.623047"/>
    </g>
   </g>
  </g>
 </g>
 <defs>
  <clipPath id="p8541619d73">
   <rect x="57.26" y="11.636612" width="215.459219" height="178.990055"/>
  </clipPath>
  <clipPath id="p40561150da">
   <rect x="57.26" y="219.343278" width="215.459219" height="178.990055"/>
  </clipPath>
  <clipPath id="pd9fc1904ec">
   <rect x="57.26" y="427.049945" width="215.459219" height="178.990055"/>
  </clipPath>
 </defs>
</svg>
