<?xml version="1.0" encoding="utf-8" standalone="no"?>
<!DOCTYPE svg PUBLIC "-//W3C//DTD SVG 1.1//EN"
  "http://www.w3.org/Graphics/SVG/1.1/DTD/svg11.dtd">
<svg xmlns:xlink="http://www.w3.org/1999/xlink" width="288pt" height="648pt" viewBox="0 0 288 648" xmlns="http://www.w3.org/2000/svg" version="1.1">
 <metadata>
  <rdf:RDF xmlns:dc="http://purl.org/dc/elements/1.1/" xmlns:cc="http://creativecommons.org/ns#" xmlns:rdf="http://www.w3.org/1999/02/22-rdf-syntax-ns#">
   <cc:Work>
    <dc:type rdf:resource="http://purl.org/dc/dcmitype/StillImage"/>
    <dc:date>2023-11-18T15:18:09.754822</dc:date>
    <dc:format>image/svg+xml</dc:format>
    <dc:creator>
     <cc:Agent>
      <dc:title>Matplotlib v3.8.0, https://matplotlib.org/</dc:title>
     </cc:Agent>
    </dc:creator>
   </cc:Work>
  </rdf:RDF>
 </metadata>
 <defs>
  <style type="text/css">*{stroke-linejoin: round; stroke-linecap: butt}</style>
 </defs>
 <g id="figure_1">
  <g id="patch_1">
   <path d="M 0 648 
L 288 648 
L 288 0 
L 0 0 
z
" style="fill: #ffffff"/>
  </g>
  <g id="axes_1">
   <g id="patch_2">
    <path d="M 57.17 190.626667 
L 272.721328 190.626667 
L 272.721328 10.8 
L 57.17 10.8 
z
" style="fill: #ffffff"/>
   </g>
   <g id="PolyCollection_1">
    <defs>
     <path id="m9e8951dbb2" d="M 57.17 -457.373333 
L 57.17 -458.99583 
L 58.011997 -458.364859 
L 58.853995 -458.184581 
L 59.695992 -458.364859 
L 60.53799 -458.635275 
L 61.379987 -458.094443 
L 62.221984 -457.824027 
L 63.063982 -458.184581 
L 63.905979 -457.733888 
L 64.747976 -457.914165 
L 65.589974 -457.824027 
L 66.431971 -457.643749 
L 67.273969 -457.643749 
L 68.115966 -457.643749 
L 68.957963 -457.553611 
L 69.799961 -457.373333 
L 70.641958 -457.463472 
L 71.483955 -457.373333 
L 72.325953 -457.373333 
L 73.16795 -457.463472 
L 74.009948 -457.373333 
L 74.851945 -457.553611 
L 75.693942 -457.463472 
L 76.53594 -457.373333 
L 77.377937 -457.373333 
L 78.219934 -457.373333 
L 79.061932 -457.373333 
L 79.903929 -457.373333 
L 80.745927 -457.373333 
L 81.587924 -457.373333 
L 82.429921 -457.373333 
L 83.271919 -457.373333 
L 84.113916 -457.373333 
L 84.955913 -457.373333 
L 85.797911 -457.373333 
L 86.639908 -457.373333 
L 87.481906 -457.373333 
L 88.323903 -457.373333 
L 89.1659 -457.373333 
L 90.007898 -457.373333 
L 90.849895 -457.373333 
L 91.691892 -457.373333 
L 92.53389 -457.373333 
L 93.375887 -457.373333 
L 94.217885 -457.373333 
L 95.059882 -457.373333 
L 95.901879 -457.373333 
L 96.743877 -457.373333 
L 97.585874 -457.373333 
L 98.427871 -457.373333 
L 99.269869 -457.373333 
L 100.111866 -457.373333 
L 100.953864 -457.373333 
L 101.795861 -457.373333 
L 102.637858 -457.373333 
L 103.479856 -457.373333 
L 104.321853 -457.373333 
L 105.16385 -457.373333 
L 106.005848 -457.373333 
L 106.847845 -457.373333 
L 107.689843 -457.373333 
L 108.53184 -457.373333 
L 109.373837 -457.373333 
L 110.215835 -457.373333 
L 111.057832 -457.373333 
L 111.899829 -457.373333 
L 112.741827 -457.463472 
L 113.583824 -457.373333 
L 114.425822 -457.463472 
L 115.267819 -457.373333 
L 116.109816 -457.733888 
L 116.951814 -457.373333 
L 117.793811 -457.463472 
L 118.635808 -457.463472 
L 119.477806 -457.553611 
L 120.319803 -457.373333 
L 121.161801 -457.643749 
L 122.003798 -457.824027 
L 122.845795 -457.733888 
L 123.687793 -458.184581 
L 124.52979 -458.27472 
L 125.371787 -458.184581 
L 126.213785 -458.815552 
L 127.055782 -458.094443 
L 127.89778 -458.545136 
L 128.739777 -458.27472 
L 129.581774 -458.725414 
L 130.423772 -459.085968 
L 131.265769 -459.6268 
L 132.107766 -459.085968 
L 132.949764 -460.257771 
L 133.791761 -459.807078 
L 134.633759 -460.167632 
L 135.475756 -460.708464 
L 136.317753 -460.528187 
L 137.159751 -461.519713 
L 138.001748 -462.421099 
L 138.843745 -463.142209 
L 139.685743 -463.953457 
L 140.52774 -464.223873 
L 141.369738 -465.395676 
L 142.211735 -466.567479 
L 143.053732 -465.305537 
L 143.89573 -472.246216 
L 144.737727 -470.443442 
L 145.579724 -474.499683 
L 146.421722 -475.941901 
L 147.263719 -478.10523 
L 148.105717 -485.226185 
L 148.947714 -483.603689 
L 149.789711 -487.299375 
L 150.631709 -490.093674 
L 151.473706 -492.887973 
L 152.315703 -493.068251 
L 153.157701 -498.116017 
L 153.999698 -494.871024 
L 154.841696 -500.910316 
L 155.683693 -501.901841 
L 156.52569 -503.253921 
L 157.367688 -499.828652 
L 158.209685 -506.138359 
L 159.051682 -504.425724 
L 159.89368 -508.391826 
L 160.735677 -505.056695 
L 161.577675 -507.490439 
L 162.419672 -508.391826 
L 163.261669 -512.808622 
L 164.103667 -517.315556 
L 164.945664 -516.233891 
L 165.787661 -519.208468 
L 166.629659 -519.208468 
L 167.471656 -524.52665 
L 168.313654 -530.926496 
L 169.155651 -532.098299 
L 169.997648 -532.368715 
L 170.839646 -529.304 
L 171.681643 -529.754693 
L 172.52364 -533.630657 
L 173.365638 -534.622182 
L 174.207635 -534.892598 
L 175.049633 -532.999686 
L 175.89163 -532.819409 
L 176.733627 -529.574416 
L 177.575625 -530.836358 
L 178.417622 -530.746219 
L 179.259619 -529.934971 
L 180.101617 -525.157621 
L 180.943614 -525.788591 
L 181.785612 -522.273183 
L 182.627609 -521.912628 
L 183.469606 -519.478884 
L 184.311604 -516.504307 
L 185.153601 -515.422643 
L 185.995598 -514.070563 
L 186.837596 -508.932658 
L 187.679593 -508.481965 
L 188.521591 -503.704615 
L 189.363588 -501.090593 
L 190.205585 -497.21463 
L 191.047583 -498.56671 
L 191.88958 -497.394907 
L 192.731577 -497.304769 
L 193.573575 -494.330192 
L 194.415572 -496.313243 
L 195.25757 -490.003536 
L 196.099567 -490.454229 
L 196.941564 -489.01201 
L 197.783562 -489.552842 
L 198.625559 -487.028959 
L 199.467556 -488.471178 
L 200.309554 -483.333273 
L 201.151551 -485.857156 
L 201.993549 -487.389514 
L 202.835546 -484.144521 
L 203.677543 -485.676879 
L 204.519541 -480.80939 
L 205.361538 -483.513551 
L 206.203535 -481.350222 
L 207.045533 -480.178419 
L 207.88753 -481.800916 
L 208.729528 -479.908003 
L 209.571525 -478.916478 
L 210.413522 -479.006617 
L 211.25552 -481.169945 
L 212.097517 -477.564398 
L 212.939514 -477.654536 
L 213.781512 -478.195368 
L 214.623509 -477.924952 
L 215.465507 -477.38412 
L 216.307504 -476.572872 
L 217.149501 -478.015091 
L 217.991499 -478.375646 
L 218.833496 -476.75315 
L 219.675493 -474.950376 
L 220.517491 -477.293982 
L 221.359488 -475.491208 
L 222.201486 -475.130653 
L 223.043483 -477.474259 
L 223.88548 -473.508157 
L 224.727478 -475.401069 
L 225.569475 -473.147602 
L 226.411472 -472.967325 
L 227.25347 -474.860237 
L 228.095467 -473.598296 
L 228.937465 -474.499683 
L 229.779462 -474.139128 
L 230.621459 -473.508157 
L 231.463457 -469.722332 
L 232.305454 -472.246216 
L 233.147451 -471.164551 
L 233.989449 -469.812471 
L 234.831446 -471.795522 
L 235.673444 -470.623719 
L 236.515441 -468.730807 
L 237.357438 -467.288588 
L 238.199436 -468.640668 
L 239.041433 -467.198449 
L 239.88343 -467.739282 
L 240.725428 -466.116785 
L 241.567425 -466.026647 
L 242.409423 -465.305537 
L 243.25142 -466.297063 
L 244.093417 -466.026647 
L 244.935415 -463.863318 
L 245.777412 -466.206924 
L 246.619409 -464.584428 
L 247.461407 -463.683041 
L 248.303404 -463.05207 
L 249.145402 -463.683041 
L 249.987399 -462.601377 
L 250.829396 -464.584428 
L 251.671394 -462.240822 
L 252.513391 -462.060545 
L 253.355388 -462.691515 
L 254.197386 -461.339435 
L 255.039383 -461.69999 
L 255.881381 -460.528187 
L 256.723378 -461.880267 
L 257.565375 -461.429574 
L 258.407373 -460.708464 
L 259.24937 -460.34791 
L 260.091367 -459.897216 
L 260.933365 -460.618326 
L 261.775362 -460.618326 
L 262.61736 -459.716939 
L 263.459357 -460.798603 
L 264.301354 -459.356384 
L 265.143352 -459.807078 
L 265.985349 -458.905691 
L 266.827346 -459.716939 
L 267.669344 -459.356384 
L 268.511341 -459.356384 
L 269.353339 -458.725414 
L 270.195336 -458.905691 
L 271.037333 -458.545136 
L 271.879331 -458.364859 
L 271.879331 -457.373333 
L 271.879331 -457.373333 
L 271.037333 -457.373333 
L 270.195336 -457.373333 
L 269.353339 -457.373333 
L 268.511341 -457.373333 
L 267.669344 -457.373333 
L 266.827346 -457.373333 
L 265.985349 -457.373333 
L 265.143352 -457.373333 
L 264.301354 -457.373333 
L 263.459357 -457.373333 
L 262.61736 -457.373333 
L 261.775362 -457.373333 
L 260.933365 -457.373333 
L 260.091367 -457.373333 
L 259.24937 -457.373333 
L 258.407373 -457.373333 
L 257.565375 -457.373333 
L 256.723378 -457.373333 
L 255.881381 -457.373333 
L 255.039383 -457.373333 
L 254.197386 -457.373333 
L 253.355388 -457.373333 
L 252.513391 -457.373333 
L 251.671394 -457.373333 
L 250.829396 -457.373333 
L 249.987399 -457.373333 
L 249.145402 -457.373333 
L 248.303404 -457.373333 
L 247.461407 -457.373333 
L 246.619409 -457.373333 
L 245.777412 -457.373333 
L 244.935415 -457.373333 
L 244.093417 -457.373333 
L 243.25142 -457.373333 
L 242.409423 -457.373333 
L 241.567425 -457.373333 
L 240.725428 -457.373333 
L 239.88343 -457.373333 
L 239.041433 -457.373333 
L 238.199436 -457.373333 
L 237.357438 -457.373333 
L 236.515441 -457.373333 
L 235.673444 -457.373333 
L 234.831446 -457.373333 
L 233.989449 -457.373333 
L 233.147451 -457.373333 
L 232.305454 -457.373333 
L 231.463457 -457.373333 
L 230.621459 -457.373333 
L 229.779462 -457.373333 
L 228.937465 -457.373333 
L 228.095467 -457.373333 
L 227.25347 -457.373333 
L 226.411472 -457.373333 
L 225.569475 -457.373333 
L 224.727478 -457.373333 
L 223.88548 -457.373333 
L 223.043483 -457.373333 
L 222.201486 -457.373333 
L 221.359488 -457.373333 
L 220.517491 -457.373333 
L 219.675493 -457.373333 
L 218.833496 -457.373333 
L 217.991499 -457.373333 
L 217.149501 -457.373333 
L 216.307504 -457.373333 
L 215.465507 -457.373333 
L 214.623509 -457.373333 
L 213.781512 -457.373333 
L 212.939514 -457.373333 
L 212.097517 -457.373333 
L 211.25552 -457.373333 
L 210.413522 -457.373333 
L 209.571525 -457.373333 
L 208.729528 -457.373333 
L 207.88753 -457.373333 
L 207.045533 -457.373333 
L 206.203535 -457.373333 
L 205.361538 -457.373333 
L 204.519541 -457.373333 
L 203.677543 -457.373333 
L 202.835546 -457.373333 
L 201.993549 -457.373333 
L 201.151551 -457.373333 
L 200.309554 -457.373333 
L 199.467556 -457.373333 
L 198.625559 -457.373333 
L 197.783562 -457.373333 
L 196.941564 -457.373333 
L 196.099567 -457.373333 
L 195.25757 -457.373333 
L 194.415572 -457.373333 
L 193.573575 -457.373333 
L 192.731577 -457.373333 
L 191.88958 -457.373333 
L 191.047583 -457.373333 
L 190.205585 -457.373333 
L 189.363588 -457.373333 
L 188.521591 -457.373333 
L 187.679593 -457.373333 
L 186.837596 -457.373333 
L 185.995598 -457.373333 
L 185.153601 -457.373333 
L 184.311604 -457.373333 
L 183.469606 -457.373333 
L 182.627609 -457.373333 
L 181.785612 -457.373333 
L 180.943614 -457.373333 
L 180.101617 -457.373333 
L 179.259619 -457.373333 
L 178.417622 -457.373333 
L 177.575625 -457.373333 
L 176.733627 -457.373333 
L 175.89163 -457.373333 
L 175.049633 -457.373333 
L 174.207635 -457.373333 
L 173.365638 -457.373333 
L 172.52364 -457.373333 
L 171.681643 -457.373333 
L 170.839646 -457.373333 
L 169.997648 -457.373333 
L 169.155651 -457.373333 
L 168.313654 -457.373333 
L 167.471656 -457.373333 
L 166.629659 -457.373333 
L 165.787661 -457.373333 
L 164.945664 -457.373333 
L 164.103667 -457.373333 
L 163.261669 -457.373333 
L 162.419672 -457.373333 
L 161.577675 -457.373333 
L 160.735677 -457.373333 
L 159.89368 -457.373333 
L 159.051682 -457.373333 
L 158.209685 -457.373333 
L 157.367688 -457.373333 
L 156.52569 -457.373333 
L 155.683693 -457.373333 
L 154.841696 -457.373333 
L 153.999698 -457.373333 
L 153.157701 -457.373333 
L 152.315703 -457.373333 
L 151.473706 -457.373333 
L 150.631709 -457.373333 
L 149.789711 -457.373333 
L 148.947714 -457.373333 
L 148.105717 -457.373333 
L 147.263719 -457.373333 
L 146.421722 -457.373333 
L 145.579724 -457.373333 
L 144.737727 -457.373333 
L 143.89573 -457.373333 
L 143.053732 -457.373333 
L 142.211735 -457.373333 
L 141.369738 -457.373333 
L 140.52774 -457.373333 
L 139.685743 -457.373333 
L 138.843745 -457.373333 
L 138.001748 -457.373333 
L 137.159751 -457.373333 
L 136.317753 -457.373333 
L 135.475756 -457.373333 
L 134.633759 -457.373333 
L 133.791761 -457.373333 
L 132.949764 -457.373333 
L 132.107766 -457.373333 
L 131.265769 -457.373333 
L 130.423772 -457.373333 
L 129.581774 -457.373333 
L 128.739777 -457.373333 
L 127.89778 -457.373333 
L 127.055782 -457.373333 
L 126.213785 -457.373333 
L 125.371787 -457.373333 
L 124.52979 -457.373333 
L 123.687793 -457.373333 
L 122.845795 -457.373333 
L 122.003798 -457.373333 
L 121.161801 -457.373333 
L 120.319803 -457.373333 
L 119.477806 -457.373333 
L 118.635808 -457.373333 
L 117.793811 -457.373333 
L 116.951814 -457.373333 
L 116.109816 -457.373333 
L 115.267819 -457.373333 
L 114.425822 -457.373333 
L 113.583824 -457.373333 
L 112.741827 -457.373333 
L 111.899829 -457.373333 
L 111.057832 -457.373333 
L 110.215835 -457.373333 
L 109.373837 -457.373333 
L 108.53184 -457.373333 
L 107.689843 -457.373333 
L 106.847845 -457.373333 
L 106.005848 -457.373333 
L 105.16385 -457.373333 
L 104.321853 -457.373333 
L 103.479856 -457.373333 
L 102.637858 -457.373333 
L 101.795861 -457.373333 
L 100.953864 -457.373333 
L 100.111866 -457.373333 
L 99.269869 -457.373333 
L 98.427871 -457.373333 
L 97.585874 -457.373333 
L 96.743877 -457.373333 
L 95.901879 -457.373333 
L 95.059882 -457.373333 
L 94.217885 -457.373333 
L 93.375887 -457.373333 
L 92.53389 -457.373333 
L 91.691892 -457.373333 
L 90.849895 -457.373333 
L 90.007898 -457.373333 
L 89.1659 -457.373333 
L 88.323903 -457.373333 
L 87.481906 -457.373333 
L 86.639908 -457.373333 
L 85.797911 -457.373333 
L 84.955913 -457.373333 
L 84.113916 -457.373333 
L 83.271919 -457.373333 
L 82.429921 -457.373333 
L 81.587924 -457.373333 
L 80.745927 -457.373333 
L 79.903929 -457.373333 
L 79.061932 -457.373333 
L 78.219934 -457.373333 
L 77.377937 -457.373333 
L 76.53594 -457.373333 
L 75.693942 -457.373333 
L 74.851945 -457.373333 
L 74.009948 -457.373333 
L 73.16795 -457.373333 
L 72.325953 -457.373333 
L 71.483955 -457.373333 
L 70.641958 -457.373333 
L 69.799961 -457.373333 
L 68.957963 -457.373333 
L 68.115966 -457.373333 
L 67.273969 -457.373333 
L 66.431971 -457.373333 
L 65.589974 -457.373333 
L 64.747976 -457.373333 
L 63.905979 -457.373333 
L 63.063982 -457.373333 
L 62.221984 -457.373333 
L 61.379987 -457.373333 
L 60.53799 -457.373333 
L 59.695992 -457.373333 
L 58.853995 -457.373333 
L 58.011997 -457.373333 
L 57.17 -457.373333 
z
" style="stroke: #ff0000; stroke-opacity: 0.4"/>
    </defs>
    <g clip-path="url(#p47679e2cdf)">
     <use xlink:href="#m9e8951dbb2" x="0" y="648" style="fill: #ff0000; fill-opacity: 0.4; stroke: #ff0000; stroke-opacity: 0.4"/>
    </g>
   </g>
   <g id="matplotlib.axis_1">
    <g id="xtick_1">
     <g id="line2d_1">
      <defs>
       <path id="m9070731720" d="M 0 0 
L 0 3.5 
" style="stroke: #000000; stroke-width: 0.8"/>
      </defs>
      <g>
       <use xlink:href="#m9070731720" x="57.17" y="190.626667" style="stroke: #000000; stroke-width: 0.8"/>
      </g>
     </g>
     <g id="text_1">
      <!-- 0 -->
      <g transform="translate(53.98875 205.225104) scale(0.1 -0.1)">
       <defs>
        <path id="DejaVuSans-30" d="M 2034 4250 
Q 1547 4250 1301 3770 
Q 1056 3291 1056 2328 
Q 1056 1369 1301 889 
Q 1547 409 2034 409 
Q 2525 409 2770 889 
Q 3016 1369 3016 2328 
Q 3016 3291 2770 3770 
Q 2525 4250 2034 4250 
z
M 2034 4750 
Q 2819 4750 3233 4129 
Q 3647 3509 3647 2328 
Q 3647 1150 3233 529 
Q 2819 -91 2034 -91 
Q 1250 -91 836 529 
Q 422 1150 422 2328 
Q 422 3509 836 4129 
Q 1250 4750 2034 4750 
z
" transform="scale(0.015625)"/>
       </defs>
       <use xlink:href="#DejaVuSans-30"/>
      </g>
     </g>
    </g>
    <g id="xtick_2">
     <g id="line2d_2">
      <g>
       <use xlink:href="#m9070731720" x="99.269869" y="190.626667" style="stroke: #000000; stroke-width: 0.8"/>
      </g>
     </g>
     <g id="text_2">
      <!-- 50 -->
      <g transform="translate(92.907369 205.225104) scale(0.1 -0.1)">
       <defs>
        <path id="DejaVuSans-35" d="M 691 4666 
L 3169 4666 
L 3169 4134 
L 1269 4134 
L 1269 2991 
Q 1406 3038 1543 3061 
Q 1681 3084 1819 3084 
Q 2600 3084 3056 2656 
Q 3513 2228 3513 1497 
Q 3513 744 3044 326 
Q 2575 -91 1722 -91 
Q 1428 -91 1123 -41 
Q 819 9 494 109 
L 494 744 
Q 775 591 1075 516 
Q 1375 441 1709 441 
Q 2250 441 2565 725 
Q 2881 1009 2881 1497 
Q 2881 1984 2565 2268 
Q 2250 2553 1709 2553 
Q 1456 2553 1204 2497 
Q 953 2441 691 2322 
L 691 4666 
z
" transform="scale(0.015625)"/>
       </defs>
       <use xlink:href="#DejaVuSans-35"/>
       <use xlink:href="#DejaVuSans-30" x="63.623047"/>
      </g>
     </g>
    </g>
    <g id="xtick_3">
     <g id="line2d_3">
      <g>
       <use xlink:href="#m9070731720" x="141.369738" y="190.626667" style="stroke: #000000; stroke-width: 0.8"/>
      </g>
     </g>
     <g id="text_3">
      <!-- 100 -->
      <g transform="translate(131.825988 205.225104) scale(0.1 -0.1)">
       <defs>
        <path id="DejaVuSans-31" d="M 794 531 
L 1825 531 
L 1825 4091 
L 703 3866 
L 703 4441 
L 1819 4666 
L 2450 4666 
L 2450 531 
L 3481 531 
L 3481 0 
L 794 0 
L 794 531 
z
" transform="scale(0.015625)"/>
       </defs>
       <use xlink:href="#DejaVuSans-31"/>
       <use xlink:href="#DejaVuSans-30" x="63.623047"/>
       <use xlink:href="#DejaVuSans-30" x="127.246094"/>
      </g>
     </g>
    </g>
    <g id="xtick_4">
     <g id="line2d_4">
      <g>
       <use xlink:href="#m9070731720" x="183.469606" y="190.626667" style="stroke: #000000; stroke-width: 0.8"/>
      </g>
     </g>
     <g id="text_4">
      <!-- 150 -->
      <g transform="translate(173.925856 205.225104) scale(0.1 -0.1)">
       <use xlink:href="#DejaVuSans-31"/>
       <use xlink:href="#DejaVuSans-35" x="63.623047"/>
       <use xlink:href="#DejaVuSans-30" x="127.246094"/>
      </g>
     </g>
    </g>
    <g id="xtick_5">
     <g id="line2d_5">
      <g>
       <use xlink:href="#m9070731720" x="225.569475" y="190.626667" style="stroke: #000000; stroke-width: 0.8"/>
      </g>
     </g>
     <g id="text_5">
      <!-- 200 -->
      <g transform="translate(216.025725 205.225104) scale(0.1 -0.1)">
       <defs>
        <path id="DejaVuSans-32" d="M 1228 531 
L 3431 531 
L 3431 0 
L 469 0 
L 469 531 
Q 828 903 1448 1529 
Q 2069 2156 2228 2338 
Q 2531 2678 2651 2914 
Q 2772 3150 2772 3378 
Q 2772 3750 2511 3984 
Q 2250 4219 1831 4219 
Q 1534 4219 1204 4116 
Q 875 4013 500 3803 
L 500 4441 
Q 881 4594 1212 4672 
Q 1544 4750 1819 4750 
Q 2544 4750 2975 4387 
Q 3406 4025 3406 3419 
Q 3406 3131 3298 2873 
Q 3191 2616 2906 2266 
Q 2828 2175 2409 1742 
Q 1991 1309 1228 531 
z
" transform="scale(0.015625)"/>
       </defs>
       <use xlink:href="#DejaVuSans-32"/>
       <use xlink:href="#DejaVuSans-30" x="63.623047"/>
       <use xlink:href="#DejaVuSans-30" x="127.246094"/>
      </g>
     </g>
    </g>
    <g id="xtick_6">
     <g id="line2d_6">
      <g>
       <use xlink:href="#m9070731720" x="267.669344" y="190.626667" style="stroke: #000000; stroke-width: 0.8"/>
      </g>
     </g>
     <g id="text_6">
      <!-- 250 -->
      <g transform="translate(258.125594 205.225104) scale(0.1 -0.1)">
       <use xlink:href="#DejaVuSans-32"/>
       <use xlink:href="#DejaVuSans-35" x="63.623047"/>
       <use xlink:href="#DejaVuSans-30" x="127.246094"/>
      </g>
     </g>
    </g>
   </g>
   <g id="matplotlib.axis_2">
    <g id="ytick_1">
     <g id="line2d_7">
      <defs>
       <path id="me9141e3334" d="M 0 0 
L -3.5 0 
" style="stroke: #000000; stroke-width: 0.8"/>
      </defs>
      <g>
       <use xlink:href="#me9141e3334" x="57.17" y="190.626667" style="stroke: #000000; stroke-width: 0.8"/>
      </g>
     </g>
     <g id="text_7">
      <!-- 0 -->
      <g transform="translate(43.8075 194.425885) scale(0.1 -0.1)">
       <use xlink:href="#DejaVuSans-30"/>
      </g>
     </g>
    </g>
    <g id="ytick_2">
     <g id="line2d_8">
      <g>
       <use xlink:href="#me9141e3334" x="57.17" y="168.091997" style="stroke: #000000; stroke-width: 0.8"/>
      </g>
     </g>
     <g id="text_8">
      <!-- 250 -->
      <g transform="translate(31.0825 171.891215) scale(0.1 -0.1)">
       <use xlink:href="#DejaVuSans-32"/>
       <use xlink:href="#DejaVuSans-35" x="63.623047"/>
       <use xlink:href="#DejaVuSans-30" x="127.246094"/>
      </g>
     </g>
    </g>
    <g id="ytick_3">
     <g id="line2d_9">
      <g>
       <use xlink:href="#me9141e3334" x="57.17" y="145.557327" style="stroke: #000000; stroke-width: 0.8"/>
      </g>
     </g>
     <g id="text_9">
      <!-- 500 -->
      <g transform="translate(31.0825 149.356545) scale(0.1 -0.1)">
       <use xlink:href="#DejaVuSans-35"/>
       <use xlink:href="#DejaVuSans-30" x="63.623047"/>
       <use xlink:href="#DejaVuSans-30" x="127.246094"/>
      </g>
     </g>
    </g>
    <g id="ytick_4">
     <g id="line2d_10">
      <g>
       <use xlink:href="#me9141e3334" x="57.17" y="123.022657" style="stroke: #000000; stroke-width: 0.8"/>
      </g>
     </g>
     <g id="text_10">
      <!-- 750 -->
      <g transform="translate(31.0825 126.821875) scale(0.1 -0.1)">
       <defs>
        <path id="DejaVuSans-37" d="M 525 4666 
L 3525 4666 
L 3525 4397 
L 1831 0 
L 1172 0 
L 2766 4134 
L 525 4134 
L 525 4666 
z
" transform="scale(0.015625)"/>
       </defs>
       <use xlink:href="#DejaVuSans-37"/>
       <use xlink:href="#DejaVuSans-35" x="63.623047"/>
       <use xlink:href="#DejaVuSans-30" x="127.246094"/>
      </g>
     </g>
    </g>
    <g id="ytick_5">
     <g id="line2d_11">
      <g>
       <use xlink:href="#me9141e3334" x="57.17" y="100.487987" style="stroke: #000000; stroke-width: 0.8"/>
      </g>
     </g>
     <g id="text_11">
      <!-- 1000 -->
      <g transform="translate(24.72 104.287205) scale(0.1 -0.1)">
       <use xlink:href="#DejaVuSans-31"/>
       <use xlink:href="#DejaVuSans-30" x="63.623047"/>
       <use xlink:href="#DejaVuSans-30" x="127.246094"/>
       <use xlink:href="#DejaVuSans-30" x="190.869141"/>
      </g>
     </g>
    </g>
    <g id="ytick_6">
     <g id="line2d_12">
      <g>
       <use xlink:href="#me9141e3334" x="57.17" y="77.953317" style="stroke: #000000; stroke-width: 0.8"/>
      </g>
     </g>
     <g id="text_12">
      <!-- 1250 -->
      <g transform="translate(24.72 81.752535) scale(0.1 -0.1)">
       <use xlink:href="#DejaVuSans-31"/>
       <use xlink:href="#DejaVuSans-32" x="63.623047"/>
       <use xlink:href="#DejaVuSans-35" x="127.246094"/>
       <use xlink:href="#DejaVuSans-30" x="190.869141"/>
      </g>
     </g>
    </g>
    <g id="ytick_7">
     <g id="line2d_13">
      <g>
       <use xlink:href="#me9141e3334" x="57.17" y="55.418647" style="stroke: #000000; stroke-width: 0.8"/>
      </g>
     </g>
     <g id="text_13">
      <!-- 1500 -->
      <g transform="translate(24.72 59.217865) scale(0.1 -0.1)">
       <use xlink:href="#DejaVuSans-31"/>
       <use xlink:href="#DejaVuSans-35" x="63.623047"/>
       <use xlink:href="#DejaVuSans-30" x="127.246094"/>
       <use xlink:href="#DejaVuSans-30" x="190.869141"/>
      </g>
     </g>
    </g>
    <g id="ytick_8">
     <g id="line2d_14">
      <g>
       <use xlink:href="#me9141e3334" x="57.17" y="32.883977" style="stroke: #000000; stroke-width: 0.8"/>
      </g>
     </g>
     <g id="text_14">
      <!-- 1750 -->
      <g transform="translate(24.72 36.683195) scale(0.1 -0.1)">
       <use xlink:href="#DejaVuSans-31"/>
       <use xlink:href="#DejaVuSans-37" x="63.623047"/>
       <use xlink:href="#DejaVuSans-35" x="127.246094"/>
       <use xlink:href="#DejaVuSans-30" x="190.869141"/>
      </g>
     </g>
    </g>
    <g id="text_15">
     <!-- Pixel Frequency -->
     <g transform="translate(18.640313 139.69224) rotate(-90) scale(0.1 -0.1)">
      <defs>
       <path id="DejaVuSans-50" d="M 1259 4147 
L 1259 2394 
L 2053 2394 
Q 2494 2394 2734 2622 
Q 2975 2850 2975 3272 
Q 2975 3691 2734 3919 
Q 2494 4147 2053 4147 
L 1259 4147 
z
M 628 4666 
L 2053 4666 
Q 2838 4666 3239 4311 
Q 3641 3956 3641 3272 
Q 3641 2581 3239 2228 
Q 2838 1875 2053 1875 
L 1259 1875 
L 1259 0 
L 628 0 
L 628 4666 
z
" transform="scale(0.015625)"/>
       <path id="DejaVuSans-69" d="M 603 3500 
L 1178 3500 
L 1178 0 
L 603 0 
L 603 3500 
z
M 603 4863 
L 1178 4863 
L 1178 4134 
L 603 4134 
L 603 4863 
z
" transform="scale(0.015625)"/>
       <path id="DejaVuSans-78" d="M 3513 3500 
L 2247 1797 
L 3578 0 
L 2900 0 
L 1881 1375 
L 863 0 
L 184 0 
L 1544 1831 
L 300 3500 
L 978 3500 
L 1906 2253 
L 2834 3500 
L 3513 3500 
z
" transform="scale(0.015625)"/>
       <path id="DejaVuSans-65" d="M 3597 1894 
L 3597 1613 
L 953 1613 
Q 991 1019 1311 708 
Q 1631 397 2203 397 
Q 2534 397 2845 478 
Q 3156 559 3463 722 
L 3463 178 
Q 3153 47 2828 -22 
Q 2503 -91 2169 -91 
Q 1331 -91 842 396 
Q 353 884 353 1716 
Q 353 2575 817 3079 
Q 1281 3584 2069 3584 
Q 2775 3584 3186 3129 
Q 3597 2675 3597 1894 
z
M 3022 2063 
Q 3016 2534 2758 2815 
Q 2500 3097 2075 3097 
Q 1594 3097 1305 2825 
Q 1016 2553 972 2059 
L 3022 2063 
z
" transform="scale(0.015625)"/>
       <path id="DejaVuSans-6c" d="M 603 4863 
L 1178 4863 
L 1178 0 
L 603 0 
L 603 4863 
z
" transform="scale(0.015625)"/>
       <path id="DejaVuSans-20" transform="scale(0.015625)"/>
       <path id="DejaVuSans-46" d="M 628 4666 
L 3309 4666 
L 3309 4134 
L 1259 4134 
L 1259 2759 
L 3109 2759 
L 3109 2228 
L 1259 2228 
L 1259 0 
L 628 0 
L 628 4666 
z
" transform="scale(0.015625)"/>
       <path id="DejaVuSans-72" d="M 2631 2963 
Q 2534 3019 2420 3045 
Q 2306 3072 2169 3072 
Q 1681 3072 1420 2755 
Q 1159 2438 1159 1844 
L 1159 0 
L 581 0 
L 581 3500 
L 1159 3500 
L 1159 2956 
Q 1341 3275 1631 3429 
Q 1922 3584 2338 3584 
Q 2397 3584 2469 3576 
Q 2541 3569 2628 3553 
L 2631 2963 
z
" transform="scale(0.015625)"/>
       <path id="DejaVuSans-71" d="M 947 1747 
Q 947 1113 1208 752 
Q 1469 391 1925 391 
Q 2381 391 2643 752 
Q 2906 1113 2906 1747 
Q 2906 2381 2643 2742 
Q 2381 3103 1925 3103 
Q 1469 3103 1208 2742 
Q 947 2381 947 1747 
z
M 2906 525 
Q 2725 213 2448 61 
Q 2172 -91 1784 -91 
Q 1150 -91 751 415 
Q 353 922 353 1747 
Q 353 2572 751 3078 
Q 1150 3584 1784 3584 
Q 2172 3584 2448 3432 
Q 2725 3281 2906 2969 
L 2906 3500 
L 3481 3500 
L 3481 -1331 
L 2906 -1331 
L 2906 525 
z
" transform="scale(0.015625)"/>
       <path id="DejaVuSans-75" d="M 544 1381 
L 544 3500 
L 1119 3500 
L 1119 1403 
Q 1119 906 1312 657 
Q 1506 409 1894 409 
Q 2359 409 2629 706 
Q 2900 1003 2900 1516 
L 2900 3500 
L 3475 3500 
L 3475 0 
L 2900 0 
L 2900 538 
Q 2691 219 2414 64 
Q 2138 -91 1772 -91 
Q 1169 -91 856 284 
Q 544 659 544 1381 
z
M 1991 3584 
L 1991 3584 
z
" transform="scale(0.015625)"/>
       <path id="DejaVuSans-6e" d="M 3513 2113 
L 3513 0 
L 2938 0 
L 2938 2094 
Q 2938 2591 2744 2837 
Q 2550 3084 2163 3084 
Q 1697 3084 1428 2787 
Q 1159 2491 1159 1978 
L 1159 0 
L 581 0 
L 581 3500 
L 1159 3500 
L 1159 2956 
Q 1366 3272 1645 3428 
Q 1925 3584 2291 3584 
Q 2894 3584 3203 3211 
Q 3513 2838 3513 2113 
z
" transform="scale(0.015625)"/>
       <path id="DejaVuSans-63" d="M 3122 3366 
L 3122 2828 
Q 2878 2963 2633 3030 
Q 2388 3097 2138 3097 
Q 1578 3097 1268 2742 
Q 959 2388 959 1747 
Q 959 1106 1268 751 
Q 1578 397 2138 397 
Q 2388 397 2633 464 
Q 2878 531 3122 666 
L 3122 134 
Q 2881 22 2623 -34 
Q 2366 -91 2075 -91 
Q 1284 -91 818 406 
Q 353 903 353 1747 
Q 353 2603 823 3093 
Q 1294 3584 2113 3584 
Q 2378 3584 2631 3529 
Q 2884 3475 3122 3366 
z
" transform="scale(0.015625)"/>
       <path id="DejaVuSans-79" d="M 2059 -325 
Q 1816 -950 1584 -1140 
Q 1353 -1331 966 -1331 
L 506 -1331 
L 506 -850 
L 844 -850 
Q 1081 -850 1212 -737 
Q 1344 -625 1503 -206 
L 1606 56 
L 191 3500 
L 800 3500 
L 1894 763 
L 2988 3500 
L 3597 3500 
L 2059 -325 
z
" transform="scale(0.015625)"/>
      </defs>
      <use xlink:href="#DejaVuSans-50"/>
      <use xlink:href="#DejaVuSans-69" x="58.052734"/>
      <use xlink:href="#DejaVuSans-78" x="85.835938"/>
      <use xlink:href="#DejaVuSans-65" x="141.890625"/>
      <use xlink:href="#DejaVuSans-6c" x="203.414062"/>
      <use xlink:href="#DejaVuSans-20" x="231.197266"/>
      <use xlink:href="#DejaVuSans-46" x="262.984375"/>
      <use xlink:href="#DejaVuSans-72" x="313.253906"/>
      <use xlink:href="#DejaVuSans-65" x="352.117188"/>
      <use xlink:href="#DejaVuSans-71" x="413.640625"/>
      <use xlink:href="#DejaVuSans-75" x="477.117188"/>
      <use xlink:href="#DejaVuSans-65" x="540.496094"/>
      <use xlink:href="#DejaVuSans-6e" x="602.019531"/>
      <use xlink:href="#DejaVuSans-63" x="665.398438"/>
      <use xlink:href="#DejaVuSans-79" x="720.378906"/>
     </g>
    </g>
   </g>
   <g id="line2d_15">
    <path d="M 57.17 189.00417 
L 58.011997 189.635141 
L 58.853995 189.815419 
L 60.53799 189.364725 
L 61.379987 189.905557 
L 62.221984 190.175973 
L 63.063982 189.815419 
L 63.905979 190.266112 
L 64.747976 190.085835 
L 69.799961 190.626667 
L 70.641958 190.536528 
L 72.325953 190.626667 
L 73.16795 190.536528 
L 74.009948 190.626667 
L 74.851945 190.446389 
L 77.377937 190.626667 
L 115.267819 190.626667 
L 116.109816 190.266112 
L 116.951814 190.626667 
L 119.477806 190.446389 
L 120.319803 190.626667 
L 122.003798 190.175973 
L 122.845795 190.266112 
L 123.687793 189.815419 
L 124.52979 189.72528 
L 125.371787 189.815419 
L 126.213785 189.184448 
L 127.055782 189.905557 
L 127.89778 189.454864 
L 128.739777 189.72528 
L 131.265769 188.3732 
L 132.107766 188.914032 
L 132.949764 187.742229 
L 133.791761 188.192922 
L 134.633759 187.832368 
L 135.475756 187.291536 
L 136.317753 187.471813 
L 138.001748 185.578901 
L 139.685743 184.046543 
L 140.52774 183.776127 
L 142.211735 181.432521 
L 143.053732 182.694463 
L 143.89573 175.753784 
L 144.737727 177.556558 
L 145.579724 173.500317 
L 146.421722 172.058099 
L 147.263719 169.89477 
L 148.105717 162.773815 
L 148.947714 164.396311 
L 149.789711 160.700625 
L 151.473706 155.112027 
L 152.315703 154.931749 
L 153.157701 149.883983 
L 153.999698 153.128976 
L 154.841696 147.089684 
L 155.683693 146.098159 
L 156.52569 144.746079 
L 157.367688 148.171348 
L 158.209685 141.861641 
L 159.051682 143.574276 
L 159.89368 139.608174 
L 160.735677 142.943305 
L 161.577675 140.509561 
L 162.419672 139.608174 
L 164.103667 130.684444 
L 164.945664 131.766109 
L 165.787661 128.791532 
L 166.629659 128.791532 
L 167.471656 123.47335 
L 168.313654 117.073504 
L 169.155651 115.901701 
L 169.997648 115.631285 
L 170.839646 118.696 
L 171.681643 118.245307 
L 172.52364 114.369343 
L 173.365638 113.377818 
L 174.207635 113.107402 
L 175.049633 115.000314 
L 175.89163 115.180591 
L 176.733627 118.425584 
L 177.575625 117.163642 
L 178.417622 117.253781 
L 179.259619 118.065029 
L 180.101617 122.842379 
L 180.943614 122.211409 
L 181.785612 125.726817 
L 182.627609 126.087372 
L 183.469606 128.521116 
L 184.311604 131.495693 
L 185.153601 132.577357 
L 185.995598 133.929437 
L 186.837596 139.067342 
L 187.679593 139.518035 
L 188.521591 144.295385 
L 189.363588 146.909407 
L 190.205585 150.78537 
L 191.047583 149.43329 
L 191.88958 150.605093 
L 192.731577 150.695231 
L 193.573575 153.669808 
L 194.415572 151.686757 
L 195.25757 157.996464 
L 196.099567 157.545771 
L 196.941564 158.98799 
L 197.783562 158.447158 
L 198.625559 160.971041 
L 199.467556 159.528822 
L 200.309554 164.666727 
L 201.151551 162.142844 
L 201.993549 160.610486 
L 202.835546 163.855479 
L 203.677543 162.323121 
L 204.519541 167.19061 
L 205.361538 164.486449 
L 206.203535 166.649778 
L 207.045533 167.821581 
L 207.88753 166.199084 
L 208.729528 168.091997 
L 209.571525 169.083522 
L 210.413522 168.993383 
L 211.25552 166.830055 
L 212.097517 170.435602 
L 212.939514 170.345464 
L 213.781512 169.804632 
L 214.623509 170.075048 
L 215.465507 170.61588 
L 216.307504 171.427128 
L 217.149501 169.984909 
L 217.991499 169.624354 
L 219.675493 173.049624 
L 220.517491 170.706018 
L 221.359488 172.508792 
L 222.201486 172.869347 
L 223.043483 170.525741 
L 223.88548 174.491843 
L 224.727478 172.598931 
L 225.569475 174.852398 
L 226.411472 175.032675 
L 227.25347 173.139763 
L 228.095467 174.401704 
L 228.937465 173.500317 
L 229.779462 173.860872 
L 230.621459 174.491843 
L 231.463457 178.277668 
L 232.305454 175.753784 
L 233.147451 176.835449 
L 233.989449 178.187529 
L 234.831446 176.204478 
L 235.673444 177.376281 
L 236.515441 179.269193 
L 237.357438 180.711412 
L 238.199436 179.359332 
L 239.041433 180.801551 
L 239.88343 180.260718 
L 240.725428 181.883215 
L 241.567425 181.973353 
L 242.409423 182.694463 
L 243.25142 181.702937 
L 244.093417 181.973353 
L 244.935415 184.136682 
L 245.777412 181.793076 
L 246.619409 183.415572 
L 247.461407 184.316959 
L 248.303404 184.94793 
L 249.145402 184.316959 
L 249.987399 185.398623 
L 250.829396 183.415572 
L 251.671394 185.759178 
L 252.513391 185.939455 
L 253.355388 185.308485 
L 254.197386 186.660565 
L 255.039383 186.30001 
L 255.881381 187.471813 
L 256.723378 186.119733 
L 257.565375 186.570426 
L 258.407373 187.291536 
L 260.091367 188.102784 
L 260.933365 187.381674 
L 261.775362 187.381674 
L 262.61736 188.283061 
L 263.459357 187.201397 
L 264.301354 188.643616 
L 265.143352 188.192922 
L 265.985349 189.094309 
L 266.827346 188.283061 
L 267.669344 188.643616 
L 268.511341 188.643616 
L 269.353339 189.274586 
L 270.195336 189.094309 
L 271.037333 189.454864 
L 271.879331 189.635141 
L 271.879331 189.635141 
" clip-path="url(#p47679e2cdf)" style="fill: none; stroke: #ff0000; stroke-width: 1.5; stroke-linecap: square"/>
   </g>
   <g id="patch_3">
    <path d="M 57.17 190.626667 
L 57.17 10.8 
" style="fill: none; stroke: #000000; stroke-width: 0.8; stroke-linejoin: miter; stroke-linecap: square"/>
   </g>
   <g id="patch_4">
    <path d="M 272.721328 190.626667 
L 272.721328 10.8 
" style="fill: none; stroke: #000000; stroke-width: 0.8; stroke-linejoin: miter; stroke-linecap: square"/>
   </g>
   <g id="patch_5">
    <path d="M 57.17 190.626667 
L 272.721328 190.626667 
" style="fill: none; stroke: #000000; stroke-width: 0.8; stroke-linejoin: miter; stroke-linecap: square"/>
   </g>
   <g id="patch_6">
    <path d="M 57.17 10.8 
L 272.721328 10.8 
" style="fill: none; stroke: #000000; stroke-width: 0.8; stroke-linejoin: miter; stroke-linecap: square"/>
   </g>
   <g id="text_16">
    <!-- Red Channel  -->
    <g transform="translate(193.028203 24.8) scale(0.12 -0.12)">
     <defs>
      <path id="DejaVuSans-52" d="M 2841 2188 
Q 3044 2119 3236 1894 
Q 3428 1669 3622 1275 
L 4263 0 
L 3584 0 
L 2988 1197 
Q 2756 1666 2539 1819 
Q 2322 1972 1947 1972 
L 1259 1972 
L 1259 0 
L 628 0 
L 628 4666 
L 2053 4666 
Q 2853 4666 3247 4331 
Q 3641 3997 3641 3322 
Q 3641 2881 3436 2590 
Q 3231 2300 2841 2188 
z
M 1259 4147 
L 1259 2491 
L 2053 2491 
Q 2509 2491 2742 2702 
Q 2975 2913 2975 3322 
Q 2975 3731 2742 3939 
Q 2509 4147 2053 4147 
L 1259 4147 
z
" transform="scale(0.015625)"/>
      <path id="DejaVuSans-64" d="M 2906 2969 
L 2906 4863 
L 3481 4863 
L 3481 0 
L 2906 0 
L 2906 525 
Q 2725 213 2448 61 
Q 2172 -91 1784 -91 
Q 1150 -91 751 415 
Q 353 922 353 1747 
Q 353 2572 751 3078 
Q 1150 3584 1784 3584 
Q 2172 3584 2448 3432 
Q 2725 3281 2906 2969 
z
M 947 1747 
Q 947 1113 1208 752 
Q 1469 391 1925 391 
Q 2381 391 2643 752 
Q 2906 1113 2906 1747 
Q 2906 2381 2643 2742 
Q 2381 3103 1925 3103 
Q 1469 3103 1208 2742 
Q 947 2381 947 1747 
z
" transform="scale(0.015625)"/>
      <path id="DejaVuSans-43" d="M 4122 4306 
L 4122 3641 
Q 3803 3938 3442 4084 
Q 3081 4231 2675 4231 
Q 1875 4231 1450 3742 
Q 1025 3253 1025 2328 
Q 1025 1406 1450 917 
Q 1875 428 2675 428 
Q 3081 428 3442 575 
Q 3803 722 4122 1019 
L 4122 359 
Q 3791 134 3420 21 
Q 3050 -91 2638 -91 
Q 1578 -91 968 557 
Q 359 1206 359 2328 
Q 359 3453 968 4101 
Q 1578 4750 2638 4750 
Q 3056 4750 3426 4639 
Q 3797 4528 4122 4306 
z
" transform="scale(0.015625)"/>
      <path id="DejaVuSans-68" d="M 3513 2113 
L 3513 0 
L 2938 0 
L 2938 2094 
Q 2938 2591 2744 2837 
Q 2550 3084 2163 3084 
Q 1697 3084 1428 2787 
Q 1159 2491 1159 1978 
L 1159 0 
L 581 0 
L 581 4863 
L 1159 4863 
L 1159 2956 
Q 1366 3272 1645 3428 
Q 1925 3584 2291 3584 
Q 2894 3584 3203 3211 
Q 3513 2838 3513 2113 
z
" transform="scale(0.015625)"/>
      <path id="DejaVuSans-61" d="M 2194 1759 
Q 1497 1759 1228 1600 
Q 959 1441 959 1056 
Q 959 750 1161 570 
Q 1363 391 1709 391 
Q 2188 391 2477 730 
Q 2766 1069 2766 1631 
L 2766 1759 
L 2194 1759 
z
M 3341 1997 
L 3341 0 
L 2766 0 
L 2766 531 
Q 2569 213 2275 61 
Q 1981 -91 1556 -91 
Q 1019 -91 701 211 
Q 384 513 384 1019 
Q 384 1609 779 1909 
Q 1175 2209 1959 2209 
L 2766 2209 
L 2766 2266 
Q 2766 2663 2505 2880 
Q 2244 3097 1772 3097 
Q 1472 3097 1187 3025 
Q 903 2953 641 2809 
L 641 3341 
Q 956 3463 1253 3523 
Q 1550 3584 1831 3584 
Q 2591 3584 2966 3190 
Q 3341 2797 3341 1997 
z
" transform="scale(0.015625)"/>
     </defs>
     <use xlink:href="#DejaVuSans-52"/>
     <use xlink:href="#DejaVuSans-65" x="64.982422"/>
     <use xlink:href="#DejaVuSans-64" x="126.505859"/>
     <use xlink:href="#DejaVuSans-20" x="189.982422"/>
     <use xlink:href="#DejaVuSans-43" x="221.769531"/>
     <use xlink:href="#DejaVuSans-68" x="291.59375"/>
     <use xlink:href="#DejaVuSans-61" x="354.972656"/>
     <use xlink:href="#DejaVuSans-6e" x="416.251953"/>
     <use xlink:href="#DejaVuSans-6e" x="479.630859"/>
     <use xlink:href="#DejaVuSans-65" x="543.009766"/>
     <use xlink:href="#DejaVuSans-6c" x="604.533203"/>
     <use xlink:href="#DejaVuSans-20" x="632.316406"/>
    </g>
   </g>
  </g>
  <g id="axes_2">
   <g id="patch_7">
    <path d="M 57.17 398.333333 
L 272.721328 398.333333 
L 272.721328 218.506667 
L 57.17 218.506667 
z
" style="fill: #ffffff"/>
   </g>
   <g id="PolyCollection_2">
    <defs>
     <path id="m9a0274d1b4" d="M 57.17 -249.666667 
L 57.17 -251.289163 
L 58.011997 -250.748331 
L 58.853995 -250.568053 
L 59.695992 -250.027221 
L 60.53799 -250.297637 
L 61.379987 -249.937083 
L 62.221984 -250.027221 
L 63.063982 -250.027221 
L 63.905979 -249.846944 
L 64.747976 -249.756805 
L 65.589974 -249.846944 
L 66.431971 -249.756805 
L 67.273969 -249.666667 
L 68.115966 -249.666667 
L 68.957963 -249.666667 
L 69.799961 -249.666667 
L 70.641958 -249.666667 
L 71.483955 -249.666667 
L 72.325953 -249.666667 
L 73.16795 -249.666667 
L 74.009948 -249.666667 
L 74.851945 -249.666667 
L 75.693942 -249.666667 
L 76.53594 -249.666667 
L 77.377937 -249.666667 
L 78.219934 -249.666667 
L 79.061932 -249.666667 
L 79.903929 -249.666667 
L 80.745927 -249.666667 
L 81.587924 -249.666667 
L 82.429921 -249.666667 
L 83.271919 -249.666667 
L 84.113916 -249.666667 
L 84.955913 -249.666667 
L 85.797911 -249.666667 
L 86.639908 -249.666667 
L 87.481906 -249.666667 
L 88.323903 -249.666667 
L 89.1659 -249.666667 
L 90.007898 -249.666667 
L 90.849895 -249.666667 
L 91.691892 -249.666667 
L 92.53389 -249.666667 
L 93.375887 -249.666667 
L 94.217885 -249.666667 
L 95.059882 -249.666667 
L 95.901879 -249.666667 
L 96.743877 -249.666667 
L 97.585874 -249.666667 
L 98.427871 -249.666667 
L 99.269869 -249.666667 
L 100.111866 -249.666667 
L 100.953864 -249.666667 
L 101.795861 -249.666667 
L 102.637858 -249.666667 
L 103.479856 -249.666667 
L 104.321853 -249.666667 
L 105.16385 -249.666667 
L 106.005848 -249.756805 
L 106.847845 -249.666667 
L 107.689843 -249.756805 
L 108.53184 -249.756805 
L 109.373837 -249.666667 
L 110.215835 -249.666667 
L 111.057832 -249.666667 
L 111.899829 -250.11736 
L 112.741827 -250.027221 
L 113.583824 -250.477915 
L 114.425822 -250.11736 
L 115.267819 -250.027221 
L 116.109816 -250.477915 
L 116.951814 -250.83847 
L 117.793811 -250.658192 
L 118.635808 -250.658192 
L 119.477806 -251.559579 
L 120.319803 -253.272214 
L 121.161801 -252.280688 
L 122.003798 -253.001798 
L 122.845795 -255.345404 
L 123.687793 -256.336929 
L 124.52979 -259.401644 
L 125.371787 -262.736775 
L 126.213785 -262.736775 
L 127.055782 -265.17052 
L 127.89778 -269.587315 
L 128.739777 -272.381614 
L 129.581774 -275.35619 
L 130.423772 -276.618132 
L 131.265769 -281.215205 
L 132.107766 -282.20673 
L 132.949764 -285.451723 
L 133.791761 -288.426299 
L 134.633759 -286.533387 
L 135.475756 -285.992555 
L 136.317753 -288.606576 
L 137.159751 -287.074219 
L 138.001748 -289.958657 
L 138.843745 -289.958657 
L 139.685743 -292.48254 
L 140.52774 -292.48254 
L 141.369738 -294.555729 
L 142.211735 -298.61197 
L 143.053732 -299.513357 
L 143.89573 -302.307656 
L 144.737727 -302.758349 
L 145.579724 -306.003342 
L 146.421722 -309.158195 
L 147.263719 -312.583465 
L 148.105717 -318.622757 
L 148.947714 -318.172063 
L 149.789711 -319.704421 
L 150.631709 -316.639706 
L 151.473706 -320.335392 
L 152.315703 -318.893173 
L 153.157701 -318.081925 
L 153.999698 -325.202881 
L 154.841696 -321.056501 
L 155.683693 -321.777611 
L 156.52569 -319.343866 
L 157.367688 -313.755268 
L 158.209685 -317.000261 
L 159.051682 -314.025684 
L 159.89368 -316.279151 
L 160.735677 -309.428612 
L 161.577675 -313.034159 
L 162.419672 -304.380845 
L 163.261669 -305.282232 
L 164.103667 -303.118904 
L 164.945664 -300.324605 
L 165.787661 -296.899335 
L 166.629659 -298.792247 
L 167.471656 -296.989474 
L 168.313654 -294.826145 
L 169.155651 -292.572678 
L 169.997648 -292.572678 
L 170.839646 -289.778379 
L 171.681643 -289.598102 
L 172.52364 -285.722139 
L 173.365638 -288.606576 
L 174.207635 -287.524912 
L 175.049633 -279.772986 
L 175.89163 -287.524912 
L 176.733627 -282.567285 
L 177.575625 -282.477146 
L 178.417622 -281.846175 
L 179.259619 -281.305343 
L 180.101617 -279.142015 
L 180.943614 -280.494095 
L 181.785612 -278.691322 
L 182.627609 -282.477146 
L 183.469606 -278.330767 
L 184.311604 -279.142015 
L 185.153601 -278.511044 
L 185.995598 -278.060351 
L 186.837596 -276.708271 
L 187.679593 -275.266052 
L 188.521591 -275.626607 
L 189.363588 -274.094249 
L 190.205585 -275.806884 
L 191.047583 -272.832307 
L 191.88958 -271.29995 
L 192.731577 -271.390089 
L 193.573575 -272.021059 
L 194.415572 -269.407038 
L 195.25757 -271.480227 
L 196.099567 -269.767592 
L 196.941564 -271.119673 
L 197.783562 -271.29995 
L 198.625559 -271.390089 
L 199.467556 -272.381614 
L 200.309554 -266.702877 
L 201.151551 -268.685928 
L 201.993549 -268.505651 
L 202.835546 -267.694403 
L 203.677543 -267.423987 
L 204.519541 -265.711352 
L 205.361538 -266.432461 
L 206.203535 -265.440936 
L 207.045533 -267.694403 
L 207.88753 -263.728301 
L 208.729528 -266.071906 
L 209.571525 -265.17052 
L 210.413522 -265.350797 
L 211.25552 -265.711352 
L 212.097517 -264.088855 
L 212.939514 -264.629688 
L 213.781512 -265.440936 
L 214.623509 -264.269133 
L 215.465507 -264.900104 
L 216.307504 -262.195943 
L 217.149501 -264.178994 
L 217.991499 -265.080381 
L 218.833496 -262.195943 
L 219.675493 -265.080381 
L 220.517491 -264.088855 
L 221.359488 -261.474834 
L 222.201486 -264.809965 
L 223.043483 -263.187469 
L 223.88548 -262.556498 
L 224.727478 -264.900104 
L 225.569475 -262.736775 
L 226.411472 -263.187469 
L 227.25347 -261.384695 
L 228.095467 -262.917053 
L 228.937465 -260.934002 
L 229.779462 -261.655111 
L 230.621459 -259.491783 
L 231.463457 -259.581921 
L 232.305454 -262.286082 
L 233.147451 -258.680535 
L 233.989449 -259.491783 
L 234.831446 -261.384695 
L 235.673444 -258.770673 
L 236.515441 -259.041089 
L 237.357438 -259.221367 
L 238.199436 -257.238316 
L 239.041433 -258.31998 
L 239.88343 -256.697484 
L 240.725428 -257.689009 
L 241.567425 -255.435542 
L 242.409423 -257.779148 
L 243.25142 -255.796097 
L 244.093417 -257.598871 
L 244.935415 -255.074987 
L 245.777412 -254.714433 
L 246.619409 -255.255265 
L 247.461407 -255.074987 
L 248.303404 -256.607345 
L 249.145402 -255.525681 
L 249.987399 -255.165126 
L 250.829396 -255.705958 
L 251.671394 -254.083462 
L 252.513391 -254.083462 
L 253.355388 -254.263739 
L 254.197386 -253.993323 
L 255.039383 -254.444017 
L 255.881381 -253.813046 
L 256.723378 -254.534155 
L 257.565375 -252.82152 
L 258.407373 -253.54263 
L 259.24937 -253.452491 
L 260.091367 -253.001798 
L 260.933365 -253.362353 
L 261.775362 -253.001798 
L 262.61736 -252.911659 
L 263.459357 -251.829995 
L 264.301354 -253.182075 
L 265.143352 -252.19055 
L 265.985349 -253.001798 
L 266.827346 -252.911659 
L 267.669344 -251.289163 
L 268.511341 -251.46944 
L 269.353339 -252.19055 
L 270.195336 -251.289163 
L 271.037333 -251.199024 
L 271.879331 -251.379302 
L 271.879331 -249.666667 
L 271.879331 -249.666667 
L 271.037333 -249.666667 
L 270.195336 -249.666667 
L 269.353339 -249.666667 
L 268.511341 -249.666667 
L 267.669344 -249.666667 
L 266.827346 -249.666667 
L 265.985349 -249.666667 
L 265.143352 -249.666667 
L 264.301354 -249.666667 
L 263.459357 -249.666667 
L 262.61736 -249.666667 
L 261.775362 -249.666667 
L 260.933365 -249.666667 
L 260.091367 -249.666667 
L 259.24937 -249.666667 
L 258.407373 -249.666667 
L 257.565375 -249.666667 
L 256.723378 -249.666667 
L 255.881381 -249.666667 
L 255.039383 -249.666667 
L 254.197386 -249.666667 
L 253.355388 -249.666667 
L 252.513391 -249.666667 
L 251.671394 -249.666667 
L 250.829396 -249.666667 
L 249.987399 -249.666667 
L 249.145402 -249.666667 
L 248.303404 -249.666667 
L 247.461407 -249.666667 
L 246.619409 -249.666667 
L 245.777412 -249.666667 
L 244.935415 -249.666667 
L 244.093417 -249.666667 
L 243.25142 -249.666667 
L 242.409423 -249.666667 
L 241.567425 -249.666667 
L 240.725428 -249.666667 
L 239.88343 -249.666667 
L 239.041433 -249.666667 
L 238.199436 -249.666667 
L 237.357438 -249.666667 
L 236.515441 -249.666667 
L 235.673444 -249.666667 
L 234.831446 -249.666667 
L 233.989449 -249.666667 
L 233.147451 -249.666667 
L 232.305454 -249.666667 
L 231.463457 -249.666667 
L 230.621459 -249.666667 
L 229.779462 -249.666667 
L 228.937465 -249.666667 
L 228.095467 -249.666667 
L 227.25347 -249.666667 
L 226.411472 -249.666667 
L 225.569475 -249.666667 
L 224.727478 -249.666667 
L 223.88548 -249.666667 
L 223.043483 -249.666667 
L 222.201486 -249.666667 
L 221.359488 -249.666667 
L 220.517491 -249.666667 
L 219.675493 -249.666667 
L 218.833496 -249.666667 
L 217.991499 -249.666667 
L 217.149501 -249.666667 
L 216.307504 -249.666667 
L 215.465507 -249.666667 
L 214.623509 -249.666667 
L 213.781512 -249.666667 
L 212.939514 -249.666667 
L 212.097517 -249.666667 
L 211.25552 -249.666667 
L 210.413522 -249.666667 
L 209.571525 -249.666667 
L 208.729528 -249.666667 
L 207.88753 -249.666667 
L 207.045533 -249.666667 
L 206.203535 -249.666667 
L 205.361538 -249.666667 
L 204.519541 -249.666667 
L 203.677543 -249.666667 
L 202.835546 -249.666667 
L 201.993549 -249.666667 
L 201.151551 -249.666667 
L 200.309554 -249.666667 
L 199.467556 -249.666667 
L 198.625559 -249.666667 
L 197.783562 -249.666667 
L 196.941564 -249.666667 
L 196.099567 -249.666667 
L 195.25757 -249.666667 
L 194.415572 -249.666667 
L 193.573575 -249.666667 
L 192.731577 -249.666667 
L 191.88958 -249.666667 
L 191.047583 -249.666667 
L 190.205585 -249.666667 
L 189.363588 -249.666667 
L 188.521591 -249.666667 
L 187.679593 -249.666667 
L 186.837596 -249.666667 
L 185.995598 -249.666667 
L 185.153601 -249.666667 
L 184.311604 -249.666667 
L 183.469606 -249.666667 
L 182.627609 -249.666667 
L 181.785612 -249.666667 
L 180.943614 -249.666667 
L 180.101617 -249.666667 
L 179.259619 -249.666667 
L 178.417622 -249.666667 
L 177.575625 -249.666667 
L 176.733627 -249.666667 
L 175.89163 -249.666667 
L 175.049633 -249.666667 
L 174.207635 -249.666667 
L 173.365638 -249.666667 
L 172.52364 -249.666667 
L 171.681643 -249.666667 
L 170.839646 -249.666667 
L 169.997648 -249.666667 
L 169.155651 -249.666667 
L 168.313654 -249.666667 
L 167.471656 -249.666667 
L 166.629659 -249.666667 
L 165.787661 -249.666667 
L 164.945664 -249.666667 
L 164.103667 -249.666667 
L 163.261669 -249.666667 
L 162.419672 -249.666667 
L 161.577675 -249.666667 
L 160.735677 -249.666667 
L 159.89368 -249.666667 
L 159.051682 -249.666667 
L 158.209685 -249.666667 
L 157.367688 -249.666667 
L 156.52569 -249.666667 
L 155.683693 -249.666667 
L 154.841696 -249.666667 
L 153.999698 -249.666667 
L 153.157701 -249.666667 
L 152.315703 -249.666667 
L 151.473706 -249.666667 
L 150.631709 -249.666667 
L 149.789711 -249.666667 
L 148.947714 -249.666667 
L 148.105717 -249.666667 
L 147.263719 -249.666667 
L 146.421722 -249.666667 
L 145.579724 -249.666667 
L 144.737727 -249.666667 
L 143.89573 -249.666667 
L 143.053732 -249.666667 
L 142.211735 -249.666667 
L 141.369738 -249.666667 
L 140.52774 -249.666667 
L 139.685743 -249.666667 
L 138.843745 -249.666667 
L 138.001748 -249.666667 
L 137.159751 -249.666667 
L 136.317753 -249.666667 
L 135.475756 -249.666667 
L 134.633759 -249.666667 
L 133.791761 -249.666667 
L 132.949764 -249.666667 
L 132.107766 -249.666667 
L 131.265769 -249.666667 
L 130.423772 -249.666667 
L 129.581774 -249.666667 
L 128.739777 -249.666667 
L 127.89778 -249.666667 
L 127.055782 -249.666667 
L 126.213785 -249.666667 
L 125.371787 -249.666667 
L 124.52979 -249.666667 
L 123.687793 -249.666667 
L 122.845795 -249.666667 
L 122.003798 -249.666667 
L 121.161801 -249.666667 
L 120.319803 -249.666667 
L 119.477806 -249.666667 
L 118.635808 -249.666667 
L 117.793811 -249.666667 
L 116.951814 -249.666667 
L 116.109816 -249.666667 
L 115.267819 -249.666667 
L 114.425822 -249.666667 
L 113.583824 -249.666667 
L 112.741827 -249.666667 
L 111.899829 -249.666667 
L 111.057832 -249.666667 
L 110.215835 -249.666667 
L 109.373837 -249.666667 
L 108.53184 -249.666667 
L 107.689843 -249.666667 
L 106.847845 -249.666667 
L 106.005848 -249.666667 
L 105.16385 -249.666667 
L 104.321853 -249.666667 
L 103.479856 -249.666667 
L 102.637858 -249.666667 
L 101.795861 -249.666667 
L 100.953864 -249.666667 
L 100.111866 -249.666667 
L 99.269869 -249.666667 
L 98.427871 -249.666667 
L 97.585874 -249.666667 
L 96.743877 -249.666667 
L 95.901879 -249.666667 
L 95.059882 -249.666667 
L 94.217885 -249.666667 
L 93.375887 -249.666667 
L 92.53389 -249.666667 
L 91.691892 -249.666667 
L 90.849895 -249.666667 
L 90.007898 -249.666667 
L 89.1659 -249.666667 
L 88.323903 -249.666667 
L 87.481906 -249.666667 
L 86.639908 -249.666667 
L 85.797911 -249.666667 
L 84.955913 -249.666667 
L 84.113916 -249.666667 
L 83.271919 -249.666667 
L 82.429921 -249.666667 
L 81.587924 -249.666667 
L 80.745927 -249.666667 
L 79.903929 -249.666667 
L 79.061932 -249.666667 
L 78.219934 -249.666667 
L 77.377937 -249.666667 
L 76.53594 -249.666667 
L 75.693942 -249.666667 
L 74.851945 -249.666667 
L 74.009948 -249.666667 
L 73.16795 -249.666667 
L 72.325953 -249.666667 
L 71.483955 -249.666667 
L 70.641958 -249.666667 
L 69.799961 -249.666667 
L 68.957963 -249.666667 
L 68.115966 -249.666667 
L 67.273969 -249.666667 
L 66.431971 -249.666667 
L 65.589974 -249.666667 
L 64.747976 -249.666667 
L 63.905979 -249.666667 
L 63.063982 -249.666667 
L 62.221984 -249.666667 
L 61.379987 -249.666667 
L 60.53799 -249.666667 
L 59.695992 -249.666667 
L 58.853995 -249.666667 
L 58.011997 -249.666667 
L 57.17 -249.666667 
z
" style="stroke: #008000; stroke-opacity: 0.4"/>
    </defs>
    <g clip-path="url(#p3df3dd766f)">
     <use xlink:href="#m9a0274d1b4" x="0" y="648" style="fill: #008000; fill-opacity: 0.4; stroke: #008000; stroke-opacity: 0.4"/>
    </g>
   </g>
   <g id="matplotlib.axis_3">
    <g id="xtick_7">
     <g id="line2d_16">
      <g>
       <use xlink:href="#m9070731720" x="57.17" y="398.333333" style="stroke: #000000; stroke-width: 0.8"/>
      </g>
     </g>
     <g id="text_17">
      <!-- 0 -->
      <g transform="translate(53.98875 412.931771) scale(0.1 -0.1)">
       <use xlink:href="#DejaVuSans-30"/>
      </g>
     </g>
    </g>
    <g id="xtick_8">
     <g id="line2d_17">
      <g>
       <use xlink:href="#m9070731720" x="99.269869" y="398.333333" style="stroke: #000000; stroke-width: 0.8"/>
      </g>
     </g>
     <g id="text_18">
      <!-- 50 -->
      <g transform="translate(92.907369 412.931771) scale(0.1 -0.1)">
       <use xlink:href="#DejaVuSans-35"/>
       <use xlink:href="#DejaVuSans-30" x="63.623047"/>
      </g>
     </g>
    </g>
    <g id="xtick_9">
     <g id="line2d_18">
      <g>
       <use xlink:href="#m9070731720" x="141.369738" y="398.333333" style="stroke: #000000; stroke-width: 0.8"/>
      </g>
     </g>
     <g id="text_19">
      <!-- 100 -->
      <g transform="translate(131.825988 412.931771) scale(0.1 -0.1)">
       <use xlink:href="#DejaVuSans-31"/>
       <use xlink:href="#DejaVuSans-30" x="63.623047"/>
       <use xlink:href="#DejaVuSans-30" x="127.246094"/>
      </g>
     </g>
    </g>
    <g id="xtick_10">
     <g id="line2d_19">
      <g>
       <use xlink:href="#m9070731720" x="183.469606" y="398.333333" style="stroke: #000000; stroke-width: 0.8"/>
      </g>
     </g>
     <g id="text_20">
      <!-- 150 -->
      <g transform="translate(173.925856 412.931771) scale(0.1 -0.1)">
       <use xlink:href="#DejaVuSans-31"/>
       <use xlink:href="#DejaVuSans-35" x="63.623047"/>
       <use xlink:href="#DejaVuSans-30" x="127.246094"/>
      </g>
     </g>
    </g>
    <g id="xtick_11">
     <g id="line2d_20">
      <g>
       <use xlink:href="#m9070731720" x="225.569475" y="398.333333" style="stroke: #000000; stroke-width: 0.8"/>
      </g>
     </g>
     <g id="text_21">
      <!-- 200 -->
      <g transform="translate(216.025725 412.931771) scale(0.1 -0.1)">
       <use xlink:href="#DejaVuSans-32"/>
       <use xlink:href="#DejaVuSans-30" x="63.623047"/>
       <use xlink:href="#DejaVuSans-30" x="127.246094"/>
      </g>
     </g>
    </g>
    <g id="xtick_12">
     <g id="line2d_21">
      <g>
       <use xlink:href="#m9070731720" x="267.669344" y="398.333333" style="stroke: #000000; stroke-width: 0.8"/>
      </g>
     </g>
     <g id="text_22">
      <!-- 250 -->
      <g transform="translate(258.125594 412.931771) scale(0.1 -0.1)">
       <use xlink:href="#DejaVuSans-32"/>
       <use xlink:href="#DejaVuSans-35" x="63.623047"/>
       <use xlink:href="#DejaVuSans-30" x="127.246094"/>
      </g>
     </g>
    </g>
   </g>
   <g id="matplotlib.axis_4">
    <g id="ytick_9">
     <g id="line2d_22">
      <g>
       <use xlink:href="#me9141e3334" x="57.17" y="398.333333" style="stroke: #000000; stroke-width: 0.8"/>
      </g>
     </g>
     <g id="text_23">
      <!-- 0 -->
      <g transform="translate(43.8075 402.132552) scale(0.1 -0.1)">
       <use xlink:href="#DejaVuSans-30"/>
      </g>
     </g>
    </g>
    <g id="ytick_10">
     <g id="line2d_23">
      <g>
       <use xlink:href="#me9141e3334" x="57.17" y="375.798663" style="stroke: #000000; stroke-width: 0.8"/>
      </g>
     </g>
     <g id="text_24">
      <!-- 250 -->
      <g transform="translate(31.0825 379.597882) scale(0.1 -0.1)">
       <use xlink:href="#DejaVuSans-32"/>
       <use xlink:href="#DejaVuSans-35" x="63.623047"/>
       <use xlink:href="#DejaVuSans-30" x="127.246094"/>
      </g>
     </g>
    </g>
    <g id="ytick_11">
     <g id="line2d_24">
      <g>
       <use xlink:href="#me9141e3334" x="57.17" y="353.263993" style="stroke: #000000; stroke-width: 0.8"/>
      </g>
     </g>
     <g id="text_25">
      <!-- 500 -->
      <g transform="translate(31.0825 357.063212) scale(0.1 -0.1)">
       <use xlink:href="#DejaVuSans-35"/>
       <use xlink:href="#DejaVuSans-30" x="63.623047"/>
       <use xlink:href="#DejaVuSans-30" x="127.246094"/>
      </g>
     </g>
    </g>
    <g id="ytick_12">
     <g id="line2d_25">
      <g>
       <use xlink:href="#me9141e3334" x="57.17" y="330.729323" style="stroke: #000000; stroke-width: 0.8"/>
      </g>
     </g>
     <g id="text_26">
      <!-- 750 -->
      <g transform="translate(31.0825 334.528542) scale(0.1 -0.1)">
       <use xlink:href="#DejaVuSans-37"/>
       <use xlink:href="#DejaVuSans-35" x="63.623047"/>
       <use xlink:href="#DejaVuSans-30" x="127.246094"/>
      </g>
     </g>
    </g>
    <g id="ytick_13">
     <g id="line2d_26">
      <g>
       <use xlink:href="#me9141e3334" x="57.17" y="308.194653" style="stroke: #000000; stroke-width: 0.8"/>
      </g>
     </g>
     <g id="text_27">
      <!-- 1000 -->
      <g transform="translate(24.72 311.993872) scale(0.1 -0.1)">
       <use xlink:href="#DejaVuSans-31"/>
       <use xlink:href="#DejaVuSans-30" x="63.623047"/>
       <use xlink:href="#DejaVuSans-30" x="127.246094"/>
       <use xlink:href="#DejaVuSans-30" x="190.869141"/>
      </g>
     </g>
    </g>
    <g id="ytick_14">
     <g id="line2d_27">
      <g>
       <use xlink:href="#me9141e3334" x="57.17" y="285.659983" style="stroke: #000000; stroke-width: 0.8"/>
      </g>
     </g>
     <g id="text_28">
      <!-- 1250 -->
      <g transform="translate(24.72 289.459202) scale(0.1 -0.1)">
       <use xlink:href="#DejaVuSans-31"/>
       <use xlink:href="#DejaVuSans-32" x="63.623047"/>
       <use xlink:href="#DejaVuSans-35" x="127.246094"/>
       <use xlink:href="#DejaVuSans-30" x="190.869141"/>
      </g>
     </g>
    </g>
    <g id="ytick_15">
     <g id="line2d_28">
      <g>
       <use xlink:href="#me9141e3334" x="57.17" y="263.125313" style="stroke: #000000; stroke-width: 0.8"/>
      </g>
     </g>
     <g id="text_29">
      <!-- 1500 -->
      <g transform="translate(24.72 266.924532) scale(0.1 -0.1)">
       <use xlink:href="#DejaVuSans-31"/>
       <use xlink:href="#DejaVuSans-35" x="63.623047"/>
       <use xlink:href="#DejaVuSans-30" x="127.246094"/>
       <use xlink:href="#DejaVuSans-30" x="190.869141"/>
      </g>
     </g>
    </g>
    <g id="ytick_16">
     <g id="line2d_29">
      <g>
       <use xlink:href="#me9141e3334" x="57.17" y="240.590643" style="stroke: #000000; stroke-width: 0.8"/>
      </g>
     </g>
     <g id="text_30">
      <!-- 1750 -->
      <g transform="translate(24.72 244.389862) scale(0.1 -0.1)">
       <use xlink:href="#DejaVuSans-31"/>
       <use xlink:href="#DejaVuSans-37" x="63.623047"/>
       <use xlink:href="#DejaVuSans-35" x="127.246094"/>
       <use xlink:href="#DejaVuSans-30" x="190.869141"/>
      </g>
     </g>
    </g>
    <g id="text_31">
     <!-- Pixel Frequency -->
     <g transform="translate(18.640313 347.398906) rotate(-90) scale(0.1 -0.1)">
      <use xlink:href="#DejaVuSans-50"/>
      <use xlink:href="#DejaVuSans-69" x="58.052734"/>
      <use xlink:href="#DejaVuSans-78" x="85.835938"/>
      <use xlink:href="#DejaVuSans-65" x="141.890625"/>
      <use xlink:href="#DejaVuSans-6c" x="203.414062"/>
      <use xlink:href="#DejaVuSans-20" x="231.197266"/>
      <use xlink:href="#DejaVuSans-46" x="262.984375"/>
      <use xlink:href="#DejaVuSans-72" x="313.253906"/>
      <use xlink:href="#DejaVuSans-65" x="352.117188"/>
      <use xlink:href="#DejaVuSans-71" x="413.640625"/>
      <use xlink:href="#DejaVuSans-75" x="477.117188"/>
      <use xlink:href="#DejaVuSans-65" x="540.496094"/>
      <use xlink:href="#DejaVuSans-6e" x="602.019531"/>
      <use xlink:href="#DejaVuSans-63" x="665.398438"/>
      <use xlink:href="#DejaVuSans-79" x="720.378906"/>
     </g>
    </g>
   </g>
   <g id="line2d_30">
    <path d="M 57.17 396.710837 
L 58.011997 397.251669 
L 58.853995 397.431947 
L 59.695992 397.972779 
L 60.53799 397.702363 
L 61.379987 398.062917 
L 63.063982 397.972779 
L 64.747976 398.243195 
L 65.589974 398.153056 
L 68.115966 398.333333 
L 111.057832 398.333333 
L 111.899829 397.88264 
L 112.741827 397.972779 
L 113.583824 397.522085 
L 114.425822 397.88264 
L 115.267819 397.972779 
L 116.951814 397.16153 
L 117.793811 397.341808 
L 118.635808 397.341808 
L 119.477806 396.440421 
L 120.319803 394.727786 
L 121.161801 395.719312 
L 122.003798 394.998202 
L 122.845795 392.654596 
L 123.687793 391.663071 
L 125.371787 385.263225 
L 126.213785 385.263225 
L 127.055782 382.82948 
L 127.89778 378.412685 
L 129.581774 372.64381 
L 130.423772 371.381868 
L 131.265769 366.784795 
L 132.107766 365.79327 
L 133.791761 359.573701 
L 134.633759 361.466613 
L 135.475756 362.007445 
L 136.317753 359.393424 
L 137.159751 360.925781 
L 138.001748 358.041343 
L 138.843745 358.041343 
L 139.685743 355.51746 
L 140.52774 355.51746 
L 141.369738 353.444271 
L 142.211735 349.38803 
L 143.053732 348.486643 
L 143.89573 345.692344 
L 144.737727 345.241651 
L 147.263719 335.416535 
L 148.105717 329.377243 
L 148.947714 329.827937 
L 149.789711 328.295579 
L 150.631709 331.360294 
L 151.473706 327.664608 
L 152.315703 329.106827 
L 153.157701 329.918075 
L 153.999698 322.797119 
L 154.841696 326.943499 
L 155.683693 326.222389 
L 156.52569 328.656134 
L 157.367688 334.244732 
L 158.209685 330.999739 
L 159.051682 333.974316 
L 159.89368 331.720849 
L 160.735677 338.571388 
L 161.577675 334.965841 
L 162.419672 343.619155 
L 163.261669 342.717768 
L 164.103667 344.881096 
L 164.945664 347.675395 
L 165.787661 351.100665 
L 166.629659 349.207753 
L 167.471656 351.010526 
L 169.155651 355.427322 
L 169.997648 355.427322 
L 170.839646 358.221621 
L 171.681643 358.401898 
L 172.52364 362.277861 
L 173.365638 359.393424 
L 174.207635 360.475088 
L 175.049633 368.227014 
L 175.89163 360.475088 
L 176.733627 365.432715 
L 177.575625 365.522854 
L 179.259619 366.694657 
L 180.101617 368.857985 
L 180.943614 367.505905 
L 181.785612 369.308678 
L 182.627609 365.522854 
L 183.469606 369.669233 
L 184.311604 368.857985 
L 185.153601 369.488956 
L 185.995598 369.939649 
L 187.679593 372.733948 
L 188.521591 372.373393 
L 189.363588 373.905751 
L 190.205585 372.193116 
L 191.047583 375.167693 
L 191.88958 376.70005 
L 192.731577 376.609911 
L 193.573575 375.978941 
L 194.415572 378.592962 
L 195.25757 376.519773 
L 196.099567 378.232408 
L 196.941564 376.880327 
L 198.625559 376.609911 
L 199.467556 375.618386 
L 200.309554 381.297123 
L 201.151551 379.314072 
L 201.993549 379.494349 
L 202.835546 380.305597 
L 203.677543 380.576013 
L 204.519541 382.288648 
L 205.361538 381.567539 
L 206.203535 382.559064 
L 207.045533 380.305597 
L 207.88753 384.271699 
L 208.729528 381.928094 
L 209.571525 382.82948 
L 210.413522 382.649203 
L 211.25552 382.288648 
L 212.097517 383.911145 
L 212.939514 383.370312 
L 213.781512 382.559064 
L 214.623509 383.730867 
L 215.465507 383.099896 
L 216.307504 385.804057 
L 217.149501 383.821006 
L 217.991499 382.919619 
L 218.833496 385.804057 
L 219.675493 382.919619 
L 220.517491 383.911145 
L 221.359488 386.525166 
L 222.201486 383.190035 
L 223.043483 384.812531 
L 223.88548 385.443502 
L 224.727478 383.099896 
L 225.569475 385.263225 
L 226.411472 384.812531 
L 227.25347 386.615305 
L 228.095467 385.082947 
L 228.937465 387.065998 
L 229.779462 386.344889 
L 230.621459 388.508217 
L 231.463457 388.418079 
L 232.305454 385.713918 
L 233.147451 389.319465 
L 233.989449 388.508217 
L 234.831446 386.615305 
L 235.673444 389.229327 
L 237.357438 388.778633 
L 238.199436 390.761684 
L 239.041433 389.68002 
L 239.88343 391.302516 
L 240.725428 390.310991 
L 241.567425 392.564458 
L 242.409423 390.220852 
L 243.25142 392.203903 
L 244.093417 390.401129 
L 244.935415 392.925013 
L 245.777412 393.285567 
L 246.619409 392.744735 
L 247.461407 392.925013 
L 248.303404 391.392655 
L 249.145402 392.474319 
L 249.987399 392.834874 
L 250.829396 392.294042 
L 251.671394 393.916538 
L 252.513391 393.916538 
L 253.355388 393.736261 
L 254.197386 394.006677 
L 255.039383 393.555983 
L 255.881381 394.186954 
L 256.723378 393.465845 
L 257.565375 395.17848 
L 258.407373 394.45737 
L 259.24937 394.547509 
L 260.091367 394.998202 
L 260.933365 394.637647 
L 261.775362 394.998202 
L 262.61736 395.088341 
L 263.459357 396.170005 
L 264.301354 394.817925 
L 265.143352 395.80945 
L 265.985349 394.998202 
L 266.827346 395.088341 
L 267.669344 396.710837 
L 268.511341 396.53056 
L 269.353339 395.80945 
L 270.195336 396.710837 
L 271.037333 396.800976 
L 271.879331 396.620698 
L 271.879331 396.620698 
" clip-path="url(#p3df3dd766f)" style="fill: none; stroke: #008000; stroke-width: 1.5; stroke-linecap: square"/>
   </g>
   <g id="patch_8">
    <path d="M 57.17 398.333333 
L 57.17 218.506667 
" style="fill: none; stroke: #000000; stroke-width: 0.8; stroke-linejoin: miter; stroke-linecap: square"/>
   </g>
   <g id="patch_9">
    <path d="M 272.721328 398.333333 
L 272.721328 218.506667 
" style="fill: none; stroke: #000000; stroke-width: 0.8; stroke-linejoin: miter; stroke-linecap: square"/>
   </g>
   <g id="patch_10">
    <path d="M 57.17 398.333333 
L 272.721328 398.333333 
" style="fill: none; stroke: #000000; stroke-width: 0.8; stroke-linejoin: miter; stroke-linecap: square"/>
   </g>
   <g id="patch_11">
    <path d="M 57.17 218.506667 
L 272.721328 218.506667 
" style="fill: none; stroke: #000000; stroke-width: 0.8; stroke-linejoin: miter; stroke-linecap: square"/>
   </g>
   <g id="text_32">
    <!-- Green Channel  -->
    <g transform="translate(179.494453 232.506667) scale(0.12 -0.12)">
     <defs>
      <path id="DejaVuSans-47" d="M 3809 666 
L 3809 1919 
L 2778 1919 
L 2778 2438 
L 4434 2438 
L 4434 434 
Q 4069 175 3628 42 
Q 3188 -91 2688 -91 
Q 1594 -91 976 548 
Q 359 1188 359 2328 
Q 359 3472 976 4111 
Q 1594 4750 2688 4750 
Q 3144 4750 3555 4637 
Q 3966 4525 4313 4306 
L 4313 3634 
Q 3963 3931 3569 4081 
Q 3175 4231 2741 4231 
Q 1884 4231 1454 3753 
Q 1025 3275 1025 2328 
Q 1025 1384 1454 906 
Q 1884 428 2741 428 
Q 3075 428 3337 486 
Q 3600 544 3809 666 
z
" transform="scale(0.015625)"/>
     </defs>
     <use xlink:href="#DejaVuSans-47"/>
     <use xlink:href="#DejaVuSans-72" x="77.490234"/>
     <use xlink:href="#DejaVuSans-65" x="116.353516"/>
     <use xlink:href="#DejaVuSans-65" x="177.876953"/>
     <use xlink:href="#DejaVuSans-6e" x="239.400391"/>
     <use xlink:href="#DejaVuSans-20" x="302.779297"/>
     <use xlink:href="#DejaVuSans-43" x="334.566406"/>
     <use xlink:href="#DejaVuSans-68" x="404.390625"/>
     <use xlink:href="#DejaVuSans-61" x="467.769531"/>
     <use xlink:href="#DejaVuSans-6e" x="529.048828"/>
     <use xlink:href="#DejaVuSans-6e" x="592.427734"/>
     <use xlink:href="#DejaVuSans-65" x="655.806641"/>
     <use xlink:href="#DejaVuSans-6c" x="717.330078"/>
     <use xlink:href="#DejaVuSans-20" x="745.113281"/>
    </g>
   </g>
  </g>
  <g id="axes_3">
   <g id="patch_12">
    <path d="M 57.17 606.04 
L 272.721328 606.04 
L 272.721328 426.213333 
L 57.17 426.213333 
z
" style="fill: #ffffff"/>
   </g>
   <g id="PolyCollection_3">
    <defs>
     <path id="m15fe9a7fa2" d="M 57.17 -41.96 
L 57.17 -41.96 
L 58.011997 -41.96 
L 58.853995 -41.96 
L 59.695992 -41.96 
L 60.53799 -41.96 
L 61.379987 -41.96 
L 62.221984 -41.96 
L 63.063982 -41.96 
L 63.905979 -41.96 
L 64.747976 -41.96 
L 65.589974 -41.96 
L 66.431971 -41.96 
L 67.273969 -41.96 
L 68.115966 -41.96 
L 68.957963 -41.96 
L 69.799961 -41.96 
L 70.641958 -41.96 
L 71.483955 -41.96 
L 72.325953 -41.96 
L 73.16795 -41.96 
L 74.009948 -41.96 
L 74.851945 -41.96 
L 75.693942 -41.96 
L 76.53594 -41.96 
L 77.377937 -41.96 
L 78.219934 -41.96 
L 79.061932 -41.96 
L 79.903929 -41.96 
L 80.745927 -41.96 
L 81.587924 -41.96 
L 82.429921 -41.96 
L 83.271919 -41.96 
L 84.113916 -41.96 
L 84.955913 -42.050139 
L 85.797911 -41.96 
L 86.639908 -42.140277 
L 87.481906 -42.050139 
L 88.323903 -42.140277 
L 89.1659 -42.320555 
L 90.007898 -42.590971 
L 90.849895 -42.500832 
L 91.691892 -43.492358 
L 92.53389 -44.213467 
L 93.375887 -44.393744 
L 94.217885 -46.016241 
L 95.059882 -47.278182 
L 95.901879 -49.080956 
L 96.743877 -51.5147 
L 97.585874 -54.038583 
L 98.427871 -55.841357 
L 99.269869 -62.691896 
L 100.111866 -65.486195 
L 100.953864 -69.27202 
L 101.795861 -77.745056 
L 102.637858 -81.891435 
L 103.479856 -88.38142 
L 104.321853 -99.288201 
L 105.16385 -104.426105 
L 106.005848 -108.21193 
L 106.847845 -116.865243 
L 107.689843 -121.822871 
L 108.53184 -126.510082 
L 109.373837 -134.532424 
L 110.215835 -132.819789 
L 111.057832 -140.211161 
L 111.899829 -146.520869 
L 112.741827 -142.915322 
L 113.583824 -146.611008 
L 114.425822 -143.275876 
L 115.267819 -154.723489 
L 116.109816 -154.453073 
L 116.951814 -152.109467 
L 117.793811 -149.585584 
L 118.635808 -146.701146 
L 119.477806 -154.092518 
L 120.319803 -141.022409 
L 121.161801 -145.349066 
L 122.003798 -139.850607 
L 122.845795 -133.721176 
L 123.687793 -128.763549 
L 124.52979 -125.698834 
L 125.371787 -115.332886 
L 126.213785 -115.783579 
L 127.055782 -119.569404 
L 127.89778 -116.865243 
L 128.739777 -111.6372 
L 129.581774 -110.645674 
L 130.423772 -105.327492 
L 131.265769 -101.451529 
L 132.107766 -98.026259 
L 132.949764 -98.837507 
L 133.791761 -96.133347 
L 134.633759 -92.527799 
L 135.475756 -92.527799 
L 136.317753 -88.201143 
L 137.159751 -87.299756 
L 138.001748 -85.496982 
L 138.843745 -86.488508 
L 139.685743 -81.891435 
L 140.52774 -79.187275 
L 141.369738 -79.637968 
L 142.211735 -77.294363 
L 143.053732 -77.835195 
L 143.89573 -77.204224 
L 144.737727 -73.959231 
L 145.579724 -76.392976 
L 146.421722 -72.877567 
L 147.263719 -69.452297 
L 148.105717 -70.804378 
L 148.947714 -67.469246 
L 149.789711 -72.607151 
L 150.631709 -71.705764 
L 151.473706 -68.641049 
L 152.315703 -65.756612 
L 153.157701 -65.666473 
L 153.999698 -64.584809 
L 154.841696 -62.42148 
L 155.683693 -63.773561 
L 156.52569 -63.052451 
L 157.367688 -61.429955 
L 158.209685 -60.258152 
L 159.051682 -59.807459 
L 159.89368 -58.725794 
L 160.735677 -56.742744 
L 161.577675 -56.832882 
L 162.419672 -55.030109 
L 163.261669 -54.399138 
L 164.103667 -53.678028 
L 164.945664 -53.047058 
L 165.787661 -52.776642 
L 166.629659 -52.416087 
L 167.471656 -53.137196 
L 168.313654 -50.703452 
L 169.155651 -50.973868 
L 169.997648 -49.621788 
L 170.839646 -48.81054 
L 171.681643 -47.728876 
L 172.52364 -48.359846 
L 173.365638 -48.179569 
L 174.207635 -47.638737 
L 175.049633 -46.016241 
L 175.89163 -45.655686 
L 176.733627 -46.016241 
L 177.575625 -46.376795 
L 178.417622 -45.926102 
L 179.259619 -45.565547 
L 180.101617 -43.762774 
L 180.943614 -44.393744 
L 181.785612 -45.114854 
L 182.627609 -44.123328 
L 183.469606 -43.852912 
L 184.311604 -42.951525 
L 185.153601 -43.31208 
L 185.995598 -43.762774 
L 186.837596 -43.402219 
L 187.679593 -43.672635 
L 188.521591 -43.131803 
L 189.363588 -43.131803 
L 190.205585 -43.041664 
L 191.047583 -42.771248 
L 191.88958 -42.500832 
L 192.731577 -42.410693 
L 193.573575 -42.861387 
L 194.415572 -43.131803 
L 195.25757 -42.771248 
L 196.099567 -42.590971 
L 196.941564 -42.590971 
L 197.783562 -42.590971 
L 198.625559 -42.320555 
L 199.467556 -42.140277 
L 200.309554 -42.500832 
L 201.151551 -42.590971 
L 201.993549 -42.500832 
L 202.835546 -42.230416 
L 203.677543 -42.500832 
L 204.519541 -42.050139 
L 205.361538 -42.410693 
L 206.203535 -42.140277 
L 207.045533 -42.320555 
L 207.88753 -42.140277 
L 208.729528 -42.320555 
L 209.571525 -41.96 
L 210.413522 -42.050139 
L 211.25552 -42.050139 
L 212.097517 -41.96 
L 212.939514 -42.050139 
L 213.781512 -42.140277 
L 214.623509 -42.230416 
L 215.465507 -41.96 
L 216.307504 -42.230416 
L 217.149501 -42.050139 
L 217.991499 -42.050139 
L 218.833496 -42.050139 
L 219.675493 -42.050139 
L 220.517491 -42.050139 
L 221.359488 -41.96 
L 222.201486 -41.96 
L 223.043483 -41.96 
L 223.88548 -41.96 
L 224.727478 -41.96 
L 225.569475 -41.96 
L 226.411472 -41.96 
L 227.25347 -41.96 
L 228.095467 -41.96 
L 228.937465 -41.96 
L 229.779462 -41.96 
L 230.621459 -41.96 
L 231.463457 -41.96 
L 232.305454 -41.96 
L 233.147451 -41.96 
L 233.989449 -41.96 
L 234.831446 -41.96 
L 235.673444 -41.96 
L 236.515441 -41.96 
L 237.357438 -41.96 
L 238.199436 -41.96 
L 239.041433 -41.96 
L 239.88343 -41.96 
L 240.725428 -41.96 
L 241.567425 -41.96 
L 242.409423 -41.96 
L 243.25142 -41.96 
L 244.093417 -41.96 
L 244.935415 -41.96 
L 245.777412 -41.96 
L 246.619409 -41.96 
L 247.461407 -41.96 
L 248.303404 -41.96 
L 249.145402 -41.96 
L 249.987399 -41.96 
L 250.829396 -41.96 
L 251.671394 -41.96 
L 252.513391 -41.96 
L 253.355388 -41.96 
L 254.197386 -41.96 
L 255.039383 -41.96 
L 255.881381 -41.96 
L 256.723378 -41.96 
L 257.565375 -41.96 
L 258.407373 -41.96 
L 259.24937 -41.96 
L 260.091367 -41.96 
L 260.933365 -41.96 
L 261.775362 -41.96 
L 262.61736 -41.96 
L 263.459357 -41.96 
L 264.301354 -41.96 
L 265.143352 -41.96 
L 265.985349 -41.96 
L 266.827346 -41.96 
L 267.669344 -41.96 
L 268.511341 -41.96 
L 269.353339 -41.96 
L 270.195336 -41.96 
L 271.037333 -41.96 
L 271.879331 -41.96 
L 271.879331 -41.96 
L 271.879331 -41.96 
L 271.037333 -41.96 
L 270.195336 -41.96 
L 269.353339 -41.96 
L 268.511341 -41.96 
L 267.669344 -41.96 
L 266.827346 -41.96 
L 265.985349 -41.96 
L 265.143352 -41.96 
L 264.301354 -41.96 
L 263.459357 -41.96 
L 262.61736 -41.96 
L 261.775362 -41.96 
L 260.933365 -41.96 
L 260.091367 -41.96 
L 259.24937 -41.96 
L 258.407373 -41.96 
L 257.565375 -41.96 
L 256.723378 -41.96 
L 255.881381 -41.96 
L 255.039383 -41.96 
L 254.197386 -41.96 
L 253.355388 -41.96 
L 252.513391 -41.96 
L 251.671394 -41.96 
L 250.829396 -41.96 
L 249.987399 -41.96 
L 249.145402 -41.96 
L 248.303404 -41.96 
L 247.461407 -41.96 
L 246.619409 -41.96 
L 245.777412 -41.96 
L 244.935415 -41.96 
L 244.093417 -41.96 
L 243.25142 -41.96 
L 242.409423 -41.96 
L 241.567425 -41.96 
L 240.725428 -41.96 
L 239.88343 -41.96 
L 239.041433 -41.96 
L 238.199436 -41.96 
L 237.357438 -41.96 
L 236.515441 -41.96 
L 235.673444 -41.96 
L 234.831446 -41.96 
L 233.989449 -41.96 
L 233.147451 -41.96 
L 232.305454 -41.96 
L 231.463457 -41.96 
L 230.621459 -41.96 
L 229.779462 -41.96 
L 228.937465 -41.96 
L 228.095467 -41.96 
L 227.25347 -41.96 
L 226.411472 -41.96 
L 225.569475 -41.96 
L 224.727478 -41.96 
L 223.88548 -41.96 
L 223.043483 -41.96 
L 222.201486 -41.96 
L 221.359488 -41.96 
L 220.517491 -41.96 
L 219.675493 -41.96 
L 218.833496 -41.96 
L 217.991499 -41.96 
L 217.149501 -41.96 
L 216.307504 -41.96 
L 215.465507 -41.96 
L 214.623509 -41.96 
L 213.781512 -41.96 
L 212.939514 -41.96 
L 212.097517 -41.96 
L 211.25552 -41.96 
L 210.413522 -41.96 
L 209.571525 -41.96 
L 208.729528 -41.96 
L 207.88753 -41.96 
L 207.045533 -41.96 
L 206.203535 -41.96 
L 205.361538 -41.96 
L 204.519541 -41.96 
L 203.677543 -41.96 
L 202.835546 -41.96 
L 201.993549 -41.96 
L 201.151551 -41.96 
L 200.309554 -41.96 
L 199.467556 -41.96 
L 198.625559 -41.96 
L 197.783562 -41.96 
L 196.941564 -41.96 
L 196.099567 -41.96 
L 195.25757 -41.96 
L 194.415572 -41.96 
L 193.573575 -41.96 
L 192.731577 -41.96 
L 191.88958 -41.96 
L 191.047583 -41.96 
L 190.205585 -41.96 
L 189.363588 -41.96 
L 188.521591 -41.96 
L 187.679593 -41.96 
L 186.837596 -41.96 
L 185.995598 -41.96 
L 185.153601 -41.96 
L 184.311604 -41.96 
L 183.469606 -41.96 
L 182.627609 -41.96 
L 181.785612 -41.96 
L 180.943614 -41.96 
L 180.101617 -41.96 
L 179.259619 -41.96 
L 178.417622 -41.96 
L 177.575625 -41.96 
L 176.733627 -41.96 
L 175.89163 -41.96 
L 175.049633 -41.96 
L 174.207635 -41.96 
L 173.365638 -41.96 
L 172.52364 -41.96 
L 171.681643 -41.96 
L 170.839646 -41.96 
L 169.997648 -41.96 
L 169.155651 -41.96 
L 168.313654 -41.96 
L 167.471656 -41.96 
L 166.629659 -41.96 
L 165.787661 -41.96 
L 164.945664 -41.96 
L 164.103667 -41.96 
L 163.261669 -41.96 
L 162.419672 -41.96 
L 161.577675 -41.96 
L 160.735677 -41.96 
L 159.89368 -41.96 
L 159.051682 -41.96 
L 158.209685 -41.96 
L 157.367688 -41.96 
L 156.52569 -41.96 
L 155.683693 -41.96 
L 154.841696 -41.96 
L 153.999698 -41.96 
L 153.157701 -41.96 
L 152.315703 -41.96 
L 151.473706 -41.96 
L 150.631709 -41.96 
L 149.789711 -41.96 
L 148.947714 -41.96 
L 148.105717 -41.96 
L 147.263719 -41.96 
L 146.421722 -41.96 
L 145.579724 -41.96 
L 144.737727 -41.96 
L 143.89573 -41.96 
L 143.053732 -41.96 
L 142.211735 -41.96 
L 141.369738 -41.96 
L 140.52774 -41.96 
L 139.685743 -41.96 
L 138.843745 -41.96 
L 138.001748 -41.96 
L 137.159751 -41.96 
L 136.317753 -41.96 
L 135.475756 -41.96 
L 134.633759 -41.96 
L 133.791761 -41.96 
L 132.949764 -41.96 
L 132.107766 -41.96 
L 131.265769 -41.96 
L 130.423772 -41.96 
L 129.581774 -41.96 
L 128.739777 -41.96 
L 127.89778 -41.96 
L 127.055782 -41.96 
L 126.213785 -41.96 
L 125.371787 -41.96 
L 124.52979 -41.96 
L 123.687793 -41.96 
L 122.845795 -41.96 
L 122.003798 -41.96 
L 121.161801 -41.96 
L 120.319803 -41.96 
L 119.477806 -41.96 
L 118.635808 -41.96 
L 117.793811 -41.96 
L 116.951814 -41.96 
L 116.109816 -41.96 
L 115.267819 -41.96 
L 114.425822 -41.96 
L 113.583824 -41.96 
L 112.741827 -41.96 
L 111.899829 -41.96 
L 111.057832 -41.96 
L 110.215835 -41.96 
L 109.373837 -41.96 
L 108.53184 -41.96 
L 107.689843 -41.96 
L 106.847845 -41.96 
L 106.005848 -41.96 
L 105.16385 -41.96 
L 104.321853 -41.96 
L 103.479856 -41.96 
L 102.637858 -41.96 
L 101.795861 -41.96 
L 100.953864 -41.96 
L 100.111866 -41.96 
L 99.269869 -41.96 
L 98.427871 -41.96 
L 97.585874 -41.96 
L 96.743877 -41.96 
L 95.901879 -41.96 
L 95.059882 -41.96 
L 94.217885 -41.96 
L 93.375887 -41.96 
L 92.53389 -41.96 
L 91.691892 -41.96 
L 90.849895 -41.96 
L 90.007898 -41.96 
L 89.1659 -41.96 
L 88.323903 -41.96 
L 87.481906 -41.96 
L 86.639908 -41.96 
L 85.797911 -41.96 
L 84.955913 -41.96 
L 84.113916 -41.96 
L 83.271919 -41.96 
L 82.429921 -41.96 
L 81.587924 -41.96 
L 80.745927 -41.96 
L 79.903929 -41.96 
L 79.061932 -41.96 
L 78.219934 -41.96 
L 77.377937 -41.96 
L 76.53594 -41.96 
L 75.693942 -41.96 
L 74.851945 -41.96 
L 74.009948 -41.96 
L 73.16795 -41.96 
L 72.325953 -41.96 
L 71.483955 -41.96 
L 70.641958 -41.96 
L 69.799961 -41.96 
L 68.957963 -41.96 
L 68.115966 -41.96 
L 67.273969 -41.96 
L 66.431971 -41.96 
L 65.589974 -41.96 
L 64.747976 -41.96 
L 63.905979 -41.96 
L 63.063982 -41.96 
L 62.221984 -41.96 
L 61.379987 -41.96 
L 60.53799 -41.96 
L 59.695992 -41.96 
L 58.853995 -41.96 
L 58.011997 -41.96 
L 57.17 -41.96 
z
" style="stroke: #0000ff; stroke-opacity: 0.4"/>
    </defs>
    <g clip-path="url(#p078919b2cd)">
     <use xlink:href="#m15fe9a7fa2" x="0" y="648" style="fill: #0000ff; fill-opacity: 0.4; stroke: #0000ff; stroke-opacity: 0.4"/>
    </g>
   </g>
   <g id="matplotlib.axis_5">
    <g id="xtick_13">
     <g id="line2d_31">
      <g>
       <use xlink:href="#m9070731720" x="57.17" y="606.04" style="stroke: #000000; stroke-width: 0.8"/>
      </g>
     </g>
     <g id="text_33">
      <!-- 0 -->
      <g transform="translate(53.98875 620.638438) scale(0.1 -0.1)">
       <use xlink:href="#DejaVuSans-30"/>
      </g>
     </g>
    </g>
    <g id="xtick_14">
     <g id="line2d_32">
      <g>
       <use xlink:href="#m9070731720" x="99.269869" y="606.04" style="stroke: #000000; stroke-width: 0.8"/>
      </g>
     </g>
     <g id="text_34">
      <!-- 50 -->
      <g transform="translate(92.907369 620.638438) scale(0.1 -0.1)">
       <use xlink:href="#DejaVuSans-35"/>
       <use xlink:href="#DejaVuSans-30" x="63.623047"/>
      </g>
     </g>
    </g>
    <g id="xtick_15">
     <g id="line2d_33">
      <g>
       <use xlink:href="#m9070731720" x="141.369738" y="606.04" style="stroke: #000000; stroke-width: 0.8"/>
      </g>
     </g>
     <g id="text_35">
      <!-- 100 -->
      <g transform="translate(131.825988 620.638438) scale(0.1 -0.1)">
       <use xlink:href="#DejaVuSans-31"/>
       <use xlink:href="#DejaVuSans-30" x="63.623047"/>
       <use xlink:href="#DejaVuSans-30" x="127.246094"/>
      </g>
     </g>
    </g>
    <g id="xtick_16">
     <g id="line2d_34">
      <g>
       <use xlink:href="#m9070731720" x="183.469606" y="606.04" style="stroke: #000000; stroke-width: 0.8"/>
      </g>
     </g>
     <g id="text_36">
      <!-- 150 -->
      <g transform="translate(173.925856 620.638438) scale(0.1 -0.1)">
       <use xlink:href="#DejaVuSans-31"/>
       <use xlink:href="#DejaVuSans-35" x="63.623047"/>
       <use xlink:href="#DejaVuSans-30" x="127.246094"/>
      </g>
     </g>
    </g>
    <g id="xtick_17">
     <g id="line2d_35">
      <g>
       <use xlink:href="#m9070731720" x="225.569475" y="606.04" style="stroke: #000000; stroke-width: 0.8"/>
      </g>
     </g>
     <g id="text_37">
      <!-- 200 -->
      <g transform="translate(216.025725 620.638438) scale(0.1 -0.1)">
       <use xlink:href="#DejaVuSans-32"/>
       <use xlink:href="#DejaVuSans-30" x="63.623047"/>
       <use xlink:href="#DejaVuSans-30" x="127.246094"/>
      </g>
     </g>
    </g>
    <g id="xtick_18">
     <g id="line2d_36">
      <g>
       <use xlink:href="#m9070731720" x="267.669344" y="606.04" style="stroke: #000000; stroke-width: 0.8"/>
      </g>
     </g>
     <g id="text_38">
      <!-- 250 -->
      <g transform="translate(258.125594 620.638438) scale(0.1 -0.1)">
       <use xlink:href="#DejaVuSans-32"/>
       <use xlink:href="#DejaVuSans-35" x="63.623047"/>
       <use xlink:href="#DejaVuSans-30" x="127.246094"/>
      </g>
     </g>
    </g>
    <g id="text_39">
     <!-- Pixel Intensity -->
     <g transform="translate(130.033945 634.316563) scale(0.1 -0.1)">
      <defs>
       <path id="DejaVuSans-49" d="M 628 4666 
L 1259 4666 
L 1259 0 
L 628 0 
L 628 4666 
z
" transform="scale(0.015625)"/>
       <path id="DejaVuSans-74" d="M 1172 4494 
L 1172 3500 
L 2356 3500 
L 2356 3053 
L 1172 3053 
L 1172 1153 
Q 1172 725 1289 603 
Q 1406 481 1766 481 
L 2356 481 
L 2356 0 
L 1766 0 
Q 1100 0 847 248 
Q 594 497 594 1153 
L 594 3053 
L 172 3053 
L 172 3500 
L 594 3500 
L 594 4494 
L 1172 4494 
z
" transform="scale(0.015625)"/>
       <path id="DejaVuSans-73" d="M 2834 3397 
L 2834 2853 
Q 2591 2978 2328 3040 
Q 2066 3103 1784 3103 
Q 1356 3103 1142 2972 
Q 928 2841 928 2578 
Q 928 2378 1081 2264 
Q 1234 2150 1697 2047 
L 1894 2003 
Q 2506 1872 2764 1633 
Q 3022 1394 3022 966 
Q 3022 478 2636 193 
Q 2250 -91 1575 -91 
Q 1294 -91 989 -36 
Q 684 19 347 128 
L 347 722 
Q 666 556 975 473 
Q 1284 391 1588 391 
Q 1994 391 2212 530 
Q 2431 669 2431 922 
Q 2431 1156 2273 1281 
Q 2116 1406 1581 1522 
L 1381 1569 
Q 847 1681 609 1914 
Q 372 2147 372 2553 
Q 372 3047 722 3315 
Q 1072 3584 1716 3584 
Q 2034 3584 2315 3537 
Q 2597 3491 2834 3397 
z
" transform="scale(0.015625)"/>
      </defs>
      <use xlink:href="#DejaVuSans-50"/>
      <use xlink:href="#DejaVuSans-69" x="58.052734"/>
      <use xlink:href="#DejaVuSans-78" x="85.835938"/>
      <use xlink:href="#DejaVuSans-65" x="141.890625"/>
      <use xlink:href="#DejaVuSans-6c" x="203.414062"/>
      <use xlink:href="#DejaVuSans-20" x="231.197266"/>
      <use xlink:href="#DejaVuSans-49" x="262.984375"/>
      <use xlink:href="#DejaVuSans-6e" x="292.476562"/>
      <use xlink:href="#DejaVuSans-74" x="355.855469"/>
      <use xlink:href="#DejaVuSans-65" x="395.064453"/>
      <use xlink:href="#DejaVuSans-6e" x="456.587891"/>
      <use xlink:href="#DejaVuSans-73" x="519.966797"/>
      <use xlink:href="#DejaVuSans-69" x="572.066406"/>
      <use xlink:href="#DejaVuSans-74" x="599.849609"/>
      <use xlink:href="#DejaVuSans-79" x="639.058594"/>
     </g>
    </g>
   </g>
   <g id="matplotlib.axis_6">
    <g id="ytick_17">
     <g id="line2d_37">
      <g>
       <use xlink:href="#me9141e3334" x="57.17" y="606.04" style="stroke: #000000; stroke-width: 0.8"/>
      </g>
     </g>
     <g id="text_40">
      <!-- 0 -->
      <g transform="translate(43.8075 609.839219) scale(0.1 -0.1)">
       <use xlink:href="#DejaVuSans-30"/>
      </g>
     </g>
    </g>
    <g id="ytick_18">
     <g id="line2d_38">
      <g>
       <use xlink:href="#me9141e3334" x="57.17" y="583.50533" style="stroke: #000000; stroke-width: 0.8"/>
      </g>
     </g>
     <g id="text_41">
      <!-- 250 -->
      <g transform="translate(31.0825 587.304549) scale(0.1 -0.1)">
       <use xlink:href="#DejaVuSans-32"/>
       <use xlink:href="#DejaVuSans-35" x="63.623047"/>
       <use xlink:href="#DejaVuSans-30" x="127.246094"/>
      </g>
     </g>
    </g>
    <g id="ytick_19">
     <g id="line2d_39">
      <g>
       <use xlink:href="#me9141e3334" x="57.17" y="560.97066" style="stroke: #000000; stroke-width: 0.8"/>
      </g>
     </g>
     <g id="text_42">
      <!-- 500 -->
      <g transform="translate(31.0825 564.769879) scale(0.1 -0.1)">
       <use xlink:href="#DejaVuSans-35"/>
       <use xlink:href="#DejaVuSans-30" x="63.623047"/>
       <use xlink:href="#DejaVuSans-30" x="127.246094"/>
      </g>
     </g>
    </g>
    <g id="ytick_20">
     <g id="line2d_40">
      <g>
       <use xlink:href="#me9141e3334" x="57.17" y="538.43599" style="stroke: #000000; stroke-width: 0.8"/>
      </g>
     </g>
     <g id="text_43">
      <!-- 750 -->
      <g transform="translate(31.0825 542.235209) scale(0.1 -0.1)">
       <use xlink:href="#DejaVuSans-37"/>
       <use xlink:href="#DejaVuSans-35" x="63.623047"/>
       <use xlink:href="#DejaVuSans-30" x="127.246094"/>
      </g>
     </g>
    </g>
    <g id="ytick_21">
     <g id="line2d_41">
      <g>
       <use xlink:href="#me9141e3334" x="57.17" y="515.90132" style="stroke: #000000; stroke-width: 0.8"/>
      </g>
     </g>
     <g id="text_44">
      <!-- 1000 -->
      <g transform="translate(24.72 519.700539) scale(0.1 -0.1)">
       <use xlink:href="#DejaVuSans-31"/>
       <use xlink:href="#DejaVuSans-30" x="63.623047"/>
       <use xlink:href="#DejaVuSans-30" x="127.246094"/>
       <use xlink:href="#DejaVuSans-30" x="190.869141"/>
      </g>
     </g>
    </g>
    <g id="ytick_22">
     <g id="line2d_42">
      <g>
       <use xlink:href="#me9141e3334" x="57.17" y="493.36665" style="stroke: #000000; stroke-width: 0.8"/>
      </g>
     </g>
     <g id="text_45">
      <!-- 1250 -->
      <g transform="translate(24.72 497.165869) scale(0.1 -0.1)">
       <use xlink:href="#DejaVuSans-31"/>
       <use xlink:href="#DejaVuSans-32" x="63.623047"/>
       <use xlink:href="#DejaVuSans-35" x="127.246094"/>
       <use xlink:href="#DejaVuSans-30" x="190.869141"/>
      </g>
     </g>
    </g>
    <g id="ytick_23">
     <g id="line2d_43">
      <g>
       <use xlink:href="#me9141e3334" x="57.17" y="470.83198" style="stroke: #000000; stroke-width: 0.8"/>
      </g>
     </g>
     <g id="text_46">
      <!-- 1500 -->
      <g transform="translate(24.72 474.631199) scale(0.1 -0.1)">
       <use xlink:href="#DejaVuSans-31"/>
       <use xlink:href="#DejaVuSans-35" x="63.623047"/>
       <use xlink:href="#DejaVuSans-30" x="127.246094"/>
       <use xlink:href="#DejaVuSans-30" x="190.869141"/>
      </g>
     </g>
    </g>
    <g id="ytick_24">
     <g id="line2d_44">
      <g>
       <use xlink:href="#me9141e3334" x="57.17" y="448.29731" style="stroke: #000000; stroke-width: 0.8"/>
      </g>
     </g>
     <g id="text_47">
      <!-- 1750 -->
      <g transform="translate(24.72 452.096529) scale(0.1 -0.1)">
       <use xlink:href="#DejaVuSans-31"/>
       <use xlink:href="#DejaVuSans-37" x="63.623047"/>
       <use xlink:href="#DejaVuSans-35" x="127.246094"/>
       <use xlink:href="#DejaVuSans-30" x="190.869141"/>
      </g>
     </g>
    </g>
    <g id="text_48">
     <!-- Pixel Frequency -->
     <g transform="translate(18.640313 555.105573) rotate(-90) scale(0.1 -0.1)">
      <use xlink:href="#DejaVuSans-50"/>
      <use xlink:href="#DejaVuSans-69" x="58.052734"/>
      <use xlink:href="#DejaVuSans-78" x="85.835938"/>
      <use xlink:href="#DejaVuSans-65" x="141.890625"/>
      <use xlink:href="#DejaVuSans-6c" x="203.414062"/>
      <use xlink:href="#DejaVuSans-20" x="231.197266"/>
      <use xlink:href="#DejaVuSans-46" x="262.984375"/>
      <use xlink:href="#DejaVuSans-72" x="313.253906"/>
      <use xlink:href="#DejaVuSans-65" x="352.117188"/>
      <use xlink:href="#DejaVuSans-71" x="413.640625"/>
      <use xlink:href="#DejaVuSans-75" x="477.117188"/>
      <use xlink:href="#DejaVuSans-65" x="540.496094"/>
      <use xlink:href="#DejaVuSans-6e" x="602.019531"/>
      <use xlink:href="#DejaVuSans-63" x="665.398438"/>
      <use xlink:href="#DejaVuSans-79" x="720.378906"/>
     </g>
    </g>
   </g>
   <g id="line2d_45">
    <path d="M 57.17 606.04 
L 85.797911 606.04 
L 86.639908 605.859723 
L 87.481906 605.949861 
L 89.1659 605.679445 
L 90.007898 605.409029 
L 90.849895 605.499168 
L 91.691892 604.507642 
L 92.53389 603.786533 
L 93.375887 603.606256 
L 94.217885 601.983759 
L 95.059882 600.721818 
L 95.901879 598.919044 
L 97.585874 593.961417 
L 98.427871 592.158643 
L 99.269869 585.308104 
L 100.111866 582.513805 
L 100.953864 578.72798 
L 101.795861 570.254944 
L 102.637858 566.108565 
L 103.479856 559.61858 
L 104.321853 548.711799 
L 105.16385 543.573895 
L 106.005848 539.78807 
L 106.847845 531.134757 
L 108.53184 521.489918 
L 109.373837 513.467576 
L 110.215835 515.180211 
L 111.057832 507.788839 
L 111.899829 501.479131 
L 112.741827 505.084678 
L 113.583824 501.388992 
L 114.425822 504.724124 
L 115.267819 493.276511 
L 116.109816 493.546927 
L 117.793811 498.414416 
L 118.635808 501.298854 
L 119.477806 493.907482 
L 120.319803 506.977591 
L 121.161801 502.650934 
L 123.687793 519.236451 
L 124.52979 522.301166 
L 125.371787 532.667114 
L 126.213785 532.216421 
L 127.055782 528.430596 
L 127.89778 531.134757 
L 128.739777 536.3628 
L 129.581774 537.354326 
L 130.423772 542.672508 
L 132.107766 549.973741 
L 132.949764 549.162493 
L 133.791761 551.866653 
L 134.633759 555.472201 
L 135.475756 555.472201 
L 136.317753 559.798857 
L 137.159751 560.700244 
L 138.001748 562.503018 
L 138.843745 561.511492 
L 139.685743 566.108565 
L 140.52774 568.812725 
L 141.369738 568.362032 
L 142.211735 570.705637 
L 143.053732 570.164805 
L 143.89573 570.795776 
L 144.737727 574.040769 
L 145.579724 571.607024 
L 147.263719 578.547703 
L 148.105717 577.195622 
L 148.947714 580.530754 
L 149.789711 575.392849 
L 150.631709 576.294236 
L 152.315703 582.243388 
L 153.157701 582.333527 
L 153.999698 583.415191 
L 154.841696 585.57852 
L 155.683693 584.226439 
L 156.52569 584.947549 
L 157.367688 586.570045 
L 158.209685 587.741848 
L 159.051682 588.192541 
L 159.89368 589.274206 
L 160.735677 591.257256 
L 161.577675 591.167118 
L 162.419672 592.969891 
L 164.945664 594.952942 
L 166.629659 595.583913 
L 167.471656 594.862804 
L 168.313654 597.296548 
L 169.155651 597.026132 
L 169.997648 598.378212 
L 170.839646 599.18946 
L 171.681643 600.271124 
L 172.52364 599.640154 
L 173.365638 599.820431 
L 174.207635 600.361263 
L 175.049633 601.983759 
L 175.89163 602.344314 
L 177.575625 601.623205 
L 179.259619 602.434453 
L 180.101617 604.237226 
L 181.785612 602.885146 
L 182.627609 603.876672 
L 183.469606 604.147088 
L 184.311604 605.048475 
L 185.995598 604.237226 
L 186.837596 604.597781 
L 187.679593 604.327365 
L 188.521591 604.868197 
L 190.205585 604.958336 
L 191.88958 605.499168 
L 192.731577 605.589307 
L 193.573575 605.138613 
L 194.415572 604.868197 
L 195.25757 605.228752 
L 196.099567 605.409029 
L 197.783562 605.409029 
L 199.467556 605.859723 
L 200.309554 605.499168 
L 201.151551 605.409029 
L 201.993549 605.499168 
L 202.835546 605.769584 
L 203.677543 605.499168 
L 204.519541 605.949861 
L 205.361538 605.589307 
L 206.203535 605.859723 
L 207.045533 605.679445 
L 207.88753 605.859723 
L 208.729528 605.679445 
L 209.571525 606.04 
L 211.25552 605.949861 
L 212.097517 606.04 
L 214.623509 605.769584 
L 215.465507 606.04 
L 216.307504 605.769584 
L 217.149501 605.949861 
L 271.879331 606.04 
L 271.879331 606.04 
" clip-path="url(#p078919b2cd)" style="fill: none; stroke: #0000ff; stroke-width: 1.5; stroke-linecap: square"/>
   </g>
   <g id="patch_13">
    <path d="M 57.17 606.04 
L 57.17 426.213333 
" style="fill: none; stroke: #000000; stroke-width: 0.8; stroke-linejoin: miter; stroke-linecap: square"/>
   </g>
   <g id="patch_14">
    <path d="M 272.721328 606.04 
L 272.721328 426.213333 
" style="fill: none; stroke: #000000; stroke-width: 0.8; stroke-linejoin: miter; stroke-linecap: square"/>
   </g>
   <g id="patch_15">
    <path d="M 57.17 606.04 
L 272.721328 606.04 
" style="fill: none; stroke: #000000; stroke-width: 0.8; stroke-linejoin: miter; stroke-linecap: square"/>
   </g>
   <g id="patch_16">
    <path d="M 57.17 426.213333 
L 272.721328 426.213333 
" style="fill: none; stroke: #000000; stroke-width: 0.8; stroke-linejoin: miter; stroke-linecap: square"/>
   </g>
   <g id="text_49">
    <!-- Blue Channel  -->
    <g transform="translate(189.272578 440.213333) scale(0.12 -0.12)">
     <defs>
      <path id="DejaVuSans-42" d="M 1259 2228 
L 1259 519 
L 2272 519 
Q 2781 519 3026 730 
Q 3272 941 3272 1375 
Q 3272 1813 3026 2020 
Q 2781 2228 2272 2228 
L 1259 2228 
z
M 1259 4147 
L 1259 2741 
L 2194 2741 
Q 2656 2741 2882 2914 
Q 3109 3088 3109 3444 
Q 3109 3797 2882 3972 
Q 2656 4147 2194 4147 
L 1259 4147 
z
M 628 4666 
L 2241 4666 
Q 2963 4666 3353 4366 
Q 3744 4066 3744 3513 
Q 3744 3084 3544 2831 
Q 3344 2578 2956 2516 
Q 3422 2416 3680 2098 
Q 3938 1781 3938 1306 
Q 3938 681 3513 340 
Q 3088 0 2303 0 
L 628 0 
L 628 4666 
z
" transform="scale(0.015625)"/>
     </defs>
     <use xlink:href="#DejaVuSans-42"/>
     <use xlink:href="#DejaVuSans-6c" x="68.603516"/>
     <use xlink:href="#DejaVuSans-75" x="96.386719"/>
     <use xlink:href="#DejaVuSans-65" x="159.765625"/>
     <use xlink:href="#DejaVuSans-20" x="221.289062"/>
     <use xlink:href="#DejaVuSans-43" x="253.076172"/>
     <use xlink:href="#DejaVuSans-68" x="322.900391"/>
     <use xlink:href="#DejaVuSans-61" x="386.279297"/>
     <use xlink:href="#DejaVuSans-6e" x="447.558594"/>
     <use xlink:href="#DejaVuSans-6e" x="510.9375"/>
     <use xlink:href="#DejaVuSans-65" x="574.316406"/>
     <use xlink:href="#DejaVuSans-6c" x="635.839844"/>
     <use xlink:href="#DejaVuSans-20" x="663.623047"/>
    </g>
   </g>
  </g>
 </g>
 <defs>
  <clipPath id="p47679e2cdf">
   <rect x="57.17" y="10.8" width="215.551328" height="179.826667"/>
  </clipPath>
  <clipPath id="p3df3dd766f">
   <rect x="57.17" y="218.506667" width="215.551328" height="179.826667"/>
  </clipPath>
  <clipPath id="p078919b2cd">
   <rect x="57.17" y="426.213333" width="215.551328" height="179.826667"/>
  </clipPath>
 </defs>
</svg>
