<?xml version="1.0" encoding="utf-8" standalone="no"?>
<!DOCTYPE svg PUBLIC "-//W3C//DTD SVG 1.1//EN"
  "http://www.w3.org/Graphics/SVG/1.1/DTD/svg11.dtd">
<svg xmlns:xlink="http://www.w3.org/1999/xlink" width="288pt" height="648pt" viewBox="0 0 288 648" xmlns="http://www.w3.org/2000/svg" version="1.1">
 <metadata>
  <rdf:RDF xmlns:dc="http://purl.org/dc/elements/1.1/" xmlns:cc="http://creativecommons.org/ns#" xmlns:rdf="http://www.w3.org/1999/02/22-rdf-syntax-ns#">
   <cc:Work>
    <dc:type rdf:resource="http://purl.org/dc/dcmitype/StillImage"/>
    <dc:date>2023-11-18T15:18:17.252210</dc:date>
    <dc:format>image/svg+xml</dc:format>
    <dc:creator>
     <cc:Agent>
      <dc:title>Matplotlib v3.8.0, https://matplotlib.org/</dc:title>
     </cc:Agent>
    </dc:creator>
   </cc:Work>
  </rdf:RDF>
 </metadata>
 <defs>
  <style type="text/css">*{stroke-linejoin: round; stroke-linecap: butt}</style>
 </defs>
 <g id="figure_1">
  <g id="patch_1">
   <path d="M 0 648 
L 288 648 
L 288 0 
L 0 0 
z
" style="fill: #ffffff"/>
  </g>
  <g id="axes_1">
   <g id="patch_2">
    <path d="M 57.17 190.626667 
L 272.721328 190.626667 
L 272.721328 10.8 
L 57.17 10.8 
z
" style="fill: #ffffff"/>
   </g>
   <g id="PolyCollection_1">
    <defs>
     <path id="m0a0df3aadd" d="M 57.17 -457.373333 
L 57.17 -491.41737 
L 58.011997 -492.428579 
L 58.853995 -493.608322 
L 59.695992 -496.894752 
L 60.53799 -497.400356 
L 61.379987 -497.905961 
L 62.221984 -502.203599 
L 63.063982 -506.754039 
L 63.905979 -506.585505 
L 64.747976 -504.478819 
L 65.589974 -503.46761 
L 66.431971 -499.928379 
L 67.273969 -491.164567 
L 68.115966 -487.625336 
L 68.957963 -485.687185 
L 69.799961 -479.872734 
L 70.641958 -473.552677 
L 71.483955 -470.85612 
L 72.325953 -467.485423 
L 73.16795 -466.474214 
L 74.009948 -462.850715 
L 74.851945 -461.333902 
L 75.693942 -460.40696 
L 76.53594 -459.142949 
L 77.377937 -458.890147 
L 78.219934 -458.13174 
L 79.061932 -457.878938 
L 79.903929 -458.13174 
L 80.745927 -457.878938 
L 81.587924 -457.457601 
L 82.429921 -457.963205 
L 83.271919 -457.457601 
L 84.113916 -457.457601 
L 84.955913 -457.457601 
L 85.797911 -457.457601 
L 86.639908 -457.373333 
L 87.481906 -457.373333 
L 88.323903 -457.373333 
L 89.1659 -457.373333 
L 90.007898 -457.373333 
L 90.849895 -457.373333 
L 91.691892 -457.373333 
L 92.53389 -457.373333 
L 93.375887 -457.373333 
L 94.217885 -457.373333 
L 95.059882 -457.373333 
L 95.901879 -457.457601 
L 96.743877 -457.626136 
L 97.585874 -457.373333 
L 98.427871 -457.541868 
L 99.269869 -457.541868 
L 100.111866 -457.457601 
L 100.953864 -457.79467 
L 101.795861 -457.710403 
L 102.637858 -457.963205 
L 103.479856 -458.300275 
L 104.321853 -458.216007 
L 105.16385 -459.142949 
L 106.005848 -459.901356 
L 106.847845 -460.491228 
L 107.689843 -460.575495 
L 108.53184 -462.766448 
L 109.373837 -462.766448 
L 110.215835 -463.777657 
L 111.057832 -465.547273 
L 111.899829 -469.002237 
L 112.741827 -468.665167 
L 113.583824 -474.142549 
L 114.425822 -476.586304 
L 115.267819 -481.558082 
L 116.109816 -487.203999 
L 116.951814 -490.827498 
L 117.793811 -494.450997 
L 118.635808 -498.158763 
L 119.477806 -510.546073 
L 120.319803 -504.647354 
L 121.161801 -512.147154 
L 122.003798 -511.473015 
L 122.845795 -512.399956 
L 123.687793 -510.040469 
L 124.52979 -510.798875 
L 125.371787 -509.366329 
L 126.213785 -506.922574 
L 127.055782 -504.731621 
L 127.89778 -500.012646 
L 128.739777 -497.905961 
L 129.581774 -496.894752 
L 130.423772 -490.911765 
L 131.265769 -493.271253 
L 132.107766 -493.271253 
L 132.949764 -490.406161 
L 133.791761 -487.793871 
L 134.633759 -485.097313 
L 135.475756 -485.939988 
L 136.317753 -480.96821 
L 137.159751 -485.602918 
L 138.001748 -484.001837 
L 138.843745 -483.074895 
L 139.685743 -481.558082 
L 140.52774 -479.704199 
L 141.369738 -480.041268 
L 142.211735 -477.007641 
L 143.053732 -477.428978 
L 143.89573 -477.513246 
L 144.737727 -476.923374 
L 145.579724 -476.754839 
L 146.421722 -475.827898 
L 147.263719 -475.912165 
L 148.105717 -473.46841 
L 148.947714 -474.563886 
L 149.789711 -473.974014 
L 150.631709 -474.648154 
L 151.473706 -471.867329 
L 152.315703 -471.783062 
L 153.157701 -473.46841 
L 153.999698 -471.108922 
L 154.841696 -473.80548 
L 155.683693 -472.878538 
L 156.52569 -470.687585 
L 157.367688 -472.120131 
L 158.209685 -470.097713 
L 159.051682 -471.614527 
L 159.89368 -470.603318 
L 160.735677 -469.170772 
L 161.577675 -471.361724 
L 162.419672 -472.120131 
L 163.261669 -471.698794 
L 164.103667 -472.120131 
L 164.945664 -471.445992 
L 165.787661 -472.035864 
L 166.629659 -469.423574 
L 167.471656 -470.85612 
L 168.313654 -470.097713 
L 169.155651 -469.929178 
L 169.997648 -470.603318 
L 170.839646 -472.035864 
L 171.681643 -470.434783 
L 172.52364 -469.423574 
L 173.365638 -471.445992 
L 174.207635 -470.434783 
L 175.049633 -468.665167 
L 175.89163 -470.687585 
L 176.733627 -469.760644 
L 177.575625 -469.170772 
L 178.417622 -470.85612 
L 179.259619 -471.108922 
L 180.101617 -469.676376 
L 180.943614 -469.592109 
L 181.785612 -468.5809 
L 182.627609 -469.676376 
L 183.469606 -470.350515 
L 184.311604 -468.833702 
L 185.153601 -471.024655 
L 185.995598 -471.19319 
L 186.837596 -471.277457 
L 187.679593 -472.120131 
L 188.521591 -471.361724 
L 189.363588 -470.350515 
L 190.205585 -471.783062 
L 191.047583 -469.339306 
L 191.88958 -470.097713 
L 192.731577 -471.530259 
L 193.573575 -470.687585 
L 194.415572 -471.361724 
L 195.25757 -470.013446 
L 196.099567 -469.760644 
L 196.941564 -470.51905 
L 197.783562 -469.423574 
L 198.625559 -470.51905 
L 199.467556 -469.676376 
L 200.309554 -470.097713 
L 201.151551 -470.097713 
L 201.993549 -469.339306 
L 202.835546 -469.929178 
L 203.677543 -470.85612 
L 204.519541 -470.603318 
L 205.361538 -470.51905 
L 206.203535 -469.423574 
L 207.045533 -470.687585 
L 207.88753 -471.277457 
L 208.729528 -471.530259 
L 209.571525 -470.350515 
L 210.413522 -472.541468 
L 211.25552 -469.423574 
L 212.097517 -470.266248 
L 212.939514 -469.002237 
L 213.781512 -469.844911 
L 214.623509 -470.181981 
L 215.465507 -468.665167 
L 216.307504 -469.592109 
L 217.149501 -471.19319 
L 217.991499 -468.917969 
L 218.833496 -471.108922 
L 219.675493 -470.013446 
L 220.517491 -471.277457 
L 221.359488 -472.372933 
L 222.201486 -469.844911 
L 223.043483 -470.771853 
L 223.88548 -468.665167 
L 224.727478 -471.698794 
L 225.569475 -470.097713 
L 226.411472 -469.844911 
L 227.25347 -471.530259 
L 228.095467 -471.783062 
L 228.937465 -472.035864 
L 229.779462 -469.844911 
L 230.621459 -470.85612 
L 231.463457 -470.181981 
L 232.305454 -469.423574 
L 233.147451 -469.002237 
L 233.989449 -469.423574 
L 234.831446 -470.687585 
L 235.673444 -469.086504 
L 236.515441 -469.929178 
L 237.357438 -468.412365 
L 238.199436 -470.940387 
L 239.041433 -467.991028 
L 239.88343 -467.822493 
L 240.725428 -469.760644 
L 241.567425 -470.603318 
L 242.409423 -471.024655 
L 243.25142 -470.181981 
L 244.093417 -471.277457 
L 244.935415 -472.625736 
L 245.777412 -470.687585 
L 246.619409 -470.350515 
L 247.461407 -470.85612 
L 248.303404 -472.457201 
L 249.145402 -469.255039 
L 249.987399 -470.771853 
L 250.829396 -469.170772 
L 251.671394 -470.687585 
L 252.513391 -471.445992 
L 253.355388 -472.372933 
L 254.197386 -471.277457 
L 255.039383 -472.625736 
L 255.881381 -470.687585 
L 256.723378 -473.299875 
L 257.565375 -473.80548 
L 258.407373 -473.13134 
L 259.24937 -473.636945 
L 260.091367 -475.238026 
L 260.933365 -474.395351 
L 261.775362 -475.659363 
L 262.61736 -473.889747 
L 263.459357 -475.40656 
L 264.301354 -477.934583 
L 265.143352 -475.490828 
L 265.985349 -478.01885 
L 266.827346 -475.912165 
L 267.669344 -477.007641 
L 268.511341 -478.861525 
L 269.353339 -483.159163 
L 270.195336 -485.350116 
L 271.037333 -486.108522 
L 271.879331 -487.793871 
L 271.879331 -457.373333 
L 271.879331 -457.373333 
L 271.037333 -457.373333 
L 270.195336 -457.373333 
L 269.353339 -457.373333 
L 268.511341 -457.373333 
L 267.669344 -457.373333 
L 266.827346 -457.373333 
L 265.985349 -457.373333 
L 265.143352 -457.373333 
L 264.301354 -457.373333 
L 263.459357 -457.373333 
L 262.61736 -457.373333 
L 261.775362 -457.373333 
L 260.933365 -457.373333 
L 260.091367 -457.373333 
L 259.24937 -457.373333 
L 258.407373 -457.373333 
L 257.565375 -457.373333 
L 256.723378 -457.373333 
L 255.881381 -457.373333 
L 255.039383 -457.373333 
L 254.197386 -457.373333 
L 253.355388 -457.373333 
L 252.513391 -457.373333 
L 251.671394 -457.373333 
L 250.829396 -457.373333 
L 249.987399 -457.373333 
L 249.145402 -457.373333 
L 248.303404 -457.373333 
L 247.461407 -457.373333 
L 246.619409 -457.373333 
L 245.777412 -457.373333 
L 244.935415 -457.373333 
L 244.093417 -457.373333 
L 243.25142 -457.373333 
L 242.409423 -457.373333 
L 241.567425 -457.373333 
L 240.725428 -457.373333 
L 239.88343 -457.373333 
L 239.041433 -457.373333 
L 238.199436 -457.373333 
L 237.357438 -457.373333 
L 236.515441 -457.373333 
L 235.673444 -457.373333 
L 234.831446 -457.373333 
L 233.989449 -457.373333 
L 233.147451 -457.373333 
L 232.305454 -457.373333 
L 231.463457 -457.373333 
L 230.621459 -457.373333 
L 229.779462 -457.373333 
L 228.937465 -457.373333 
L 228.095467 -457.373333 
L 227.25347 -457.373333 
L 226.411472 -457.373333 
L 225.569475 -457.373333 
L 224.727478 -457.373333 
L 223.88548 -457.373333 
L 223.043483 -457.373333 
L 222.201486 -457.373333 
L 221.359488 -457.373333 
L 220.517491 -457.373333 
L 219.675493 -457.373333 
L 218.833496 -457.373333 
L 217.991499 -457.373333 
L 217.149501 -457.373333 
L 216.307504 -457.373333 
L 215.465507 -457.373333 
L 214.623509 -457.373333 
L 213.781512 -457.373333 
L 212.939514 -457.373333 
L 212.097517 -457.373333 
L 211.25552 -457.373333 
L 210.413522 -457.373333 
L 209.571525 -457.373333 
L 208.729528 -457.373333 
L 207.88753 -457.373333 
L 207.045533 -457.373333 
L 206.203535 -457.373333 
L 205.361538 -457.373333 
L 204.519541 -457.373333 
L 203.677543 -457.373333 
L 202.835546 -457.373333 
L 201.993549 -457.373333 
L 201.151551 -457.373333 
L 200.309554 -457.373333 
L 199.467556 -457.373333 
L 198.625559 -457.373333 
L 197.783562 -457.373333 
L 196.941564 -457.373333 
L 196.099567 -457.373333 
L 195.25757 -457.373333 
L 194.415572 -457.373333 
L 193.573575 -457.373333 
L 192.731577 -457.373333 
L 191.88958 -457.373333 
L 191.047583 -457.373333 
L 190.205585 -457.373333 
L 189.363588 -457.373333 
L 188.521591 -457.373333 
L 187.679593 -457.373333 
L 186.837596 -457.373333 
L 185.995598 -457.373333 
L 185.153601 -457.373333 
L 184.311604 -457.373333 
L 183.469606 -457.373333 
L 182.627609 -457.373333 
L 181.785612 -457.373333 
L 180.943614 -457.373333 
L 180.101617 -457.373333 
L 179.259619 -457.373333 
L 178.417622 -457.373333 
L 177.575625 -457.373333 
L 176.733627 -457.373333 
L 175.89163 -457.373333 
L 175.049633 -457.373333 
L 174.207635 -457.373333 
L 173.365638 -457.373333 
L 172.52364 -457.373333 
L 171.681643 -457.373333 
L 170.839646 -457.373333 
L 169.997648 -457.373333 
L 169.155651 -457.373333 
L 168.313654 -457.373333 
L 167.471656 -457.373333 
L 166.629659 -457.373333 
L 165.787661 -457.373333 
L 164.945664 -457.373333 
L 164.103667 -457.373333 
L 163.261669 -457.373333 
L 162.419672 -457.373333 
L 161.577675 -457.373333 
L 160.735677 -457.373333 
L 159.89368 -457.373333 
L 159.051682 -457.373333 
L 158.209685 -457.373333 
L 157.367688 -457.373333 
L 156.52569 -457.373333 
L 155.683693 -457.373333 
L 154.841696 -457.373333 
L 153.999698 -457.373333 
L 153.157701 -457.373333 
L 152.315703 -457.373333 
L 151.473706 -457.373333 
L 150.631709 -457.373333 
L 149.789711 -457.373333 
L 148.947714 -457.373333 
L 148.105717 -457.373333 
L 147.263719 -457.373333 
L 146.421722 -457.373333 
L 145.579724 -457.373333 
L 144.737727 -457.373333 
L 143.89573 -457.373333 
L 143.053732 -457.373333 
L 142.211735 -457.373333 
L 141.369738 -457.373333 
L 140.52774 -457.373333 
L 139.685743 -457.373333 
L 138.843745 -457.373333 
L 138.001748 -457.373333 
L 137.159751 -457.373333 
L 136.317753 -457.373333 
L 135.475756 -457.373333 
L 134.633759 -457.373333 
L 133.791761 -457.373333 
L 132.949764 -457.373333 
L 132.107766 -457.373333 
L 131.265769 -457.373333 
L 130.423772 -457.373333 
L 129.581774 -457.373333 
L 128.739777 -457.373333 
L 127.89778 -457.373333 
L 127.055782 -457.373333 
L 126.213785 -457.373333 
L 125.371787 -457.373333 
L 124.52979 -457.373333 
L 123.687793 -457.373333 
L 122.845795 -457.373333 
L 122.003798 -457.373333 
L 121.161801 -457.373333 
L 120.319803 -457.373333 
L 119.477806 -457.373333 
L 118.635808 -457.373333 
L 117.793811 -457.373333 
L 116.951814 -457.373333 
L 116.109816 -457.373333 
L 115.267819 -457.373333 
L 114.425822 -457.373333 
L 113.583824 -457.373333 
L 112.741827 -457.373333 
L 111.899829 -457.373333 
L 111.057832 -457.373333 
L 110.215835 -457.373333 
L 109.373837 -457.373333 
L 108.53184 -457.373333 
L 107.689843 -457.373333 
L 106.847845 -457.373333 
L 106.005848 -457.373333 
L 105.16385 -457.373333 
L 104.321853 -457.373333 
L 103.479856 -457.373333 
L 102.637858 -457.373333 
L 101.795861 -457.373333 
L 100.953864 -457.373333 
L 100.111866 -457.373333 
L 99.269869 -457.373333 
L 98.427871 -457.373333 
L 97.585874 -457.373333 
L 96.743877 -457.373333 
L 95.901879 -457.373333 
L 95.059882 -457.373333 
L 94.217885 -457.373333 
L 93.375887 -457.373333 
L 92.53389 -457.373333 
L 91.691892 -457.373333 
L 90.849895 -457.373333 
L 90.007898 -457.373333 
L 89.1659 -457.373333 
L 88.323903 -457.373333 
L 87.481906 -457.373333 
L 86.639908 -457.373333 
L 85.797911 -457.373333 
L 84.955913 -457.373333 
L 84.113916 -457.373333 
L 83.271919 -457.373333 
L 82.429921 -457.373333 
L 81.587924 -457.373333 
L 80.745927 -457.373333 
L 79.903929 -457.373333 
L 79.061932 -457.373333 
L 78.219934 -457.373333 
L 77.377937 -457.373333 
L 76.53594 -457.373333 
L 75.693942 -457.373333 
L 74.851945 -457.373333 
L 74.009948 -457.373333 
L 73.16795 -457.373333 
L 72.325953 -457.373333 
L 71.483955 -457.373333 
L 70.641958 -457.373333 
L 69.799961 -457.373333 
L 68.957963 -457.373333 
L 68.115966 -457.373333 
L 67.273969 -457.373333 
L 66.431971 -457.373333 
L 65.589974 -457.373333 
L 64.747976 -457.373333 
L 63.905979 -457.373333 
L 63.063982 -457.373333 
L 62.221984 -457.373333 
L 61.379987 -457.373333 
L 60.53799 -457.373333 
L 59.695992 -457.373333 
L 58.853995 -457.373333 
L 58.011997 -457.373333 
L 57.17 -457.373333 
z
" style="stroke: #ff0000; stroke-opacity: 0.4"/>
    </defs>
    <g clip-path="url(#p15cfa28c1e)">
     <use xlink:href="#m0a0df3aadd" x="0" y="648" style="fill: #ff0000; fill-opacity: 0.4; stroke: #ff0000; stroke-opacity: 0.4"/>
    </g>
   </g>
   <g id="matplotlib.axis_1">
    <g id="xtick_1">
     <g id="line2d_1">
      <defs>
       <path id="m041132fe90" d="M 0 0 
L 0 3.5 
" style="stroke: #000000; stroke-width: 0.8"/>
      </defs>
      <g>
       <use xlink:href="#m041132fe90" x="57.17" y="190.626667" style="stroke: #000000; stroke-width: 0.8"/>
      </g>
     </g>
     <g id="text_1">
      <!-- 0 -->
      <g transform="translate(53.98875 205.225104) scale(0.1 -0.1)">
       <defs>
        <path id="DejaVuSans-30" d="M 2034 4250 
Q 1547 4250 1301 3770 
Q 1056 3291 1056 2328 
Q 1056 1369 1301 889 
Q 1547 409 2034 409 
Q 2525 409 2770 889 
Q 3016 1369 3016 2328 
Q 3016 3291 2770 3770 
Q 2525 4250 2034 4250 
z
M 2034 4750 
Q 2819 4750 3233 4129 
Q 3647 3509 3647 2328 
Q 3647 1150 3233 529 
Q 2819 -91 2034 -91 
Q 1250 -91 836 529 
Q 422 1150 422 2328 
Q 422 3509 836 4129 
Q 1250 4750 2034 4750 
z
" transform="scale(0.015625)"/>
       </defs>
       <use xlink:href="#DejaVuSans-30"/>
      </g>
     </g>
    </g>
    <g id="xtick_2">
     <g id="line2d_2">
      <g>
       <use xlink:href="#m041132fe90" x="99.269869" y="190.626667" style="stroke: #000000; stroke-width: 0.8"/>
      </g>
     </g>
     <g id="text_2">
      <!-- 50 -->
      <g transform="translate(92.907369 205.225104) scale(0.1 -0.1)">
       <defs>
        <path id="DejaVuSans-35" d="M 691 4666 
L 3169 4666 
L 3169 4134 
L 1269 4134 
L 1269 2991 
Q 1406 3038 1543 3061 
Q 1681 3084 1819 3084 
Q 2600 3084 3056 2656 
Q 3513 2228 3513 1497 
Q 3513 744 3044 326 
Q 2575 -91 1722 -91 
Q 1428 -91 1123 -41 
Q 819 9 494 109 
L 494 744 
Q 775 591 1075 516 
Q 1375 441 1709 441 
Q 2250 441 2565 725 
Q 2881 1009 2881 1497 
Q 2881 1984 2565 2268 
Q 2250 2553 1709 2553 
Q 1456 2553 1204 2497 
Q 953 2441 691 2322 
L 691 4666 
z
" transform="scale(0.015625)"/>
       </defs>
       <use xlink:href="#DejaVuSans-35"/>
       <use xlink:href="#DejaVuSans-30" x="63.623047"/>
      </g>
     </g>
    </g>
    <g id="xtick_3">
     <g id="line2d_3">
      <g>
       <use xlink:href="#m041132fe90" x="141.369738" y="190.626667" style="stroke: #000000; stroke-width: 0.8"/>
      </g>
     </g>
     <g id="text_3">
      <!-- 100 -->
      <g transform="translate(131.825988 205.225104) scale(0.1 -0.1)">
       <defs>
        <path id="DejaVuSans-31" d="M 794 531 
L 1825 531 
L 1825 4091 
L 703 3866 
L 703 4441 
L 1819 4666 
L 2450 4666 
L 2450 531 
L 3481 531 
L 3481 0 
L 794 0 
L 794 531 
z
" transform="scale(0.015625)"/>
       </defs>
       <use xlink:href="#DejaVuSans-31"/>
       <use xlink:href="#DejaVuSans-30" x="63.623047"/>
       <use xlink:href="#DejaVuSans-30" x="127.246094"/>
      </g>
     </g>
    </g>
    <g id="xtick_4">
     <g id="line2d_4">
      <g>
       <use xlink:href="#m041132fe90" x="183.469606" y="190.626667" style="stroke: #000000; stroke-width: 0.8"/>
      </g>
     </g>
     <g id="text_4">
      <!-- 150 -->
      <g transform="translate(173.925856 205.225104) scale(0.1 -0.1)">
       <use xlink:href="#DejaVuSans-31"/>
       <use xlink:href="#DejaVuSans-35" x="63.623047"/>
       <use xlink:href="#DejaVuSans-30" x="127.246094"/>
      </g>
     </g>
    </g>
    <g id="xtick_5">
     <g id="line2d_5">
      <g>
       <use xlink:href="#m041132fe90" x="225.569475" y="190.626667" style="stroke: #000000; stroke-width: 0.8"/>
      </g>
     </g>
     <g id="text_5">
      <!-- 200 -->
      <g transform="translate(216.025725 205.225104) scale(0.1 -0.1)">
       <defs>
        <path id="DejaVuSans-32" d="M 1228 531 
L 3431 531 
L 3431 0 
L 469 0 
L 469 531 
Q 828 903 1448 1529 
Q 2069 2156 2228 2338 
Q 2531 2678 2651 2914 
Q 2772 3150 2772 3378 
Q 2772 3750 2511 3984 
Q 2250 4219 1831 4219 
Q 1534 4219 1204 4116 
Q 875 4013 500 3803 
L 500 4441 
Q 881 4594 1212 4672 
Q 1544 4750 1819 4750 
Q 2544 4750 2975 4387 
Q 3406 4025 3406 3419 
Q 3406 3131 3298 2873 
Q 3191 2616 2906 2266 
Q 2828 2175 2409 1742 
Q 1991 1309 1228 531 
z
" transform="scale(0.015625)"/>
       </defs>
       <use xlink:href="#DejaVuSans-32"/>
       <use xlink:href="#DejaVuSans-30" x="63.623047"/>
       <use xlink:href="#DejaVuSans-30" x="127.246094"/>
      </g>
     </g>
    </g>
    <g id="xtick_6">
     <g id="line2d_6">
      <g>
       <use xlink:href="#m041132fe90" x="267.669344" y="190.626667" style="stroke: #000000; stroke-width: 0.8"/>
      </g>
     </g>
     <g id="text_6">
      <!-- 250 -->
      <g transform="translate(258.125594 205.225104) scale(0.1 -0.1)">
       <use xlink:href="#DejaVuSans-32"/>
       <use xlink:href="#DejaVuSans-35" x="63.623047"/>
       <use xlink:href="#DejaVuSans-30" x="127.246094"/>
      </g>
     </g>
    </g>
   </g>
   <g id="matplotlib.axis_2">
    <g id="ytick_1">
     <g id="line2d_7">
      <defs>
       <path id="mbb72011c6f" d="M 0 0 
L -3.5 0 
" style="stroke: #000000; stroke-width: 0.8"/>
      </defs>
      <g>
       <use xlink:href="#mbb72011c6f" x="57.17" y="190.626667" style="stroke: #000000; stroke-width: 0.8"/>
      </g>
     </g>
     <g id="text_7">
      <!-- 0 -->
      <g transform="translate(43.8075 194.425885) scale(0.1 -0.1)">
       <use xlink:href="#DejaVuSans-30"/>
      </g>
     </g>
    </g>
    <g id="ytick_2">
     <g id="line2d_8">
      <g>
       <use xlink:href="#mbb72011c6f" x="57.17" y="148.492958" style="stroke: #000000; stroke-width: 0.8"/>
      </g>
     </g>
     <g id="text_8">
      <!-- 500 -->
      <g transform="translate(31.0825 152.292177) scale(0.1 -0.1)">
       <use xlink:href="#DejaVuSans-35"/>
       <use xlink:href="#DejaVuSans-30" x="63.623047"/>
       <use xlink:href="#DejaVuSans-30" x="127.246094"/>
      </g>
     </g>
    </g>
    <g id="ytick_3">
     <g id="line2d_9">
      <g>
       <use xlink:href="#mbb72011c6f" x="57.17" y="106.35925" style="stroke: #000000; stroke-width: 0.8"/>
      </g>
     </g>
     <g id="text_9">
      <!-- 1000 -->
      <g transform="translate(24.72 110.158469) scale(0.1 -0.1)">
       <use xlink:href="#DejaVuSans-31"/>
       <use xlink:href="#DejaVuSans-30" x="63.623047"/>
       <use xlink:href="#DejaVuSans-30" x="127.246094"/>
       <use xlink:href="#DejaVuSans-30" x="190.869141"/>
      </g>
     </g>
    </g>
    <g id="ytick_4">
     <g id="line2d_10">
      <g>
       <use xlink:href="#mbb72011c6f" x="57.17" y="64.225542" style="stroke: #000000; stroke-width: 0.8"/>
      </g>
     </g>
     <g id="text_10">
      <!-- 1500 -->
      <g transform="translate(24.72 68.024761) scale(0.1 -0.1)">
       <use xlink:href="#DejaVuSans-31"/>
       <use xlink:href="#DejaVuSans-35" x="63.623047"/>
       <use xlink:href="#DejaVuSans-30" x="127.246094"/>
       <use xlink:href="#DejaVuSans-30" x="190.869141"/>
      </g>
     </g>
    </g>
    <g id="ytick_5">
     <g id="line2d_11">
      <g>
       <use xlink:href="#mbb72011c6f" x="57.17" y="22.091834" style="stroke: #000000; stroke-width: 0.8"/>
      </g>
     </g>
     <g id="text_11">
      <!-- 2000 -->
      <g transform="translate(24.72 25.891053) scale(0.1 -0.1)">
       <use xlink:href="#DejaVuSans-32"/>
       <use xlink:href="#DejaVuSans-30" x="63.623047"/>
       <use xlink:href="#DejaVuSans-30" x="127.246094"/>
       <use xlink:href="#DejaVuSans-30" x="190.869141"/>
      </g>
     </g>
    </g>
    <g id="text_12">
     <!-- Pixel Frequency -->
     <g transform="translate(18.640313 139.69224) rotate(-90) scale(0.1 -0.1)">
      <defs>
       <path id="DejaVuSans-50" d="M 1259 4147 
L 1259 2394 
L 2053 2394 
Q 2494 2394 2734 2622 
Q 2975 2850 2975 3272 
Q 2975 3691 2734 3919 
Q 2494 4147 2053 4147 
L 1259 4147 
z
M 628 4666 
L 2053 4666 
Q 2838 4666 3239 4311 
Q 3641 3956 3641 3272 
Q 3641 2581 3239 2228 
Q 2838 1875 2053 1875 
L 1259 1875 
L 1259 0 
L 628 0 
L 628 4666 
z
" transform="scale(0.015625)"/>
       <path id="DejaVuSans-69" d="M 603 3500 
L 1178 3500 
L 1178 0 
L 603 0 
L 603 3500 
z
M 603 4863 
L 1178 4863 
L 1178 4134 
L 603 4134 
L 603 4863 
z
" transform="scale(0.015625)"/>
       <path id="DejaVuSans-78" d="M 3513 3500 
L 2247 1797 
L 3578 0 
L 2900 0 
L 1881 1375 
L 863 0 
L 184 0 
L 1544 1831 
L 300 3500 
L 978 3500 
L 1906 2253 
L 2834 3500 
L 3513 3500 
z
" transform="scale(0.015625)"/>
       <path id="DejaVuSans-65" d="M 3597 1894 
L 3597 1613 
L 953 1613 
Q 991 1019 1311 708 
Q 1631 397 2203 397 
Q 2534 397 2845 478 
Q 3156 559 3463 722 
L 3463 178 
Q 3153 47 2828 -22 
Q 2503 -91 2169 -91 
Q 1331 -91 842 396 
Q 353 884 353 1716 
Q 353 2575 817 3079 
Q 1281 3584 2069 3584 
Q 2775 3584 3186 3129 
Q 3597 2675 3597 1894 
z
M 3022 2063 
Q 3016 2534 2758 2815 
Q 2500 3097 2075 3097 
Q 1594 3097 1305 2825 
Q 1016 2553 972 2059 
L 3022 2063 
z
" transform="scale(0.015625)"/>
       <path id="DejaVuSans-6c" d="M 603 4863 
L 1178 4863 
L 1178 0 
L 603 0 
L 603 4863 
z
" transform="scale(0.015625)"/>
       <path id="DejaVuSans-20" transform="scale(0.015625)"/>
       <path id="DejaVuSans-46" d="M 628 4666 
L 3309 4666 
L 3309 4134 
L 1259 4134 
L 1259 2759 
L 3109 2759 
L 3109 2228 
L 1259 2228 
L 1259 0 
L 628 0 
L 628 4666 
z
" transform="scale(0.015625)"/>
       <path id="DejaVuSans-72" d="M 2631 2963 
Q 2534 3019 2420 3045 
Q 2306 3072 2169 3072 
Q 1681 3072 1420 2755 
Q 1159 2438 1159 1844 
L 1159 0 
L 581 0 
L 581 3500 
L 1159 3500 
L 1159 2956 
Q 1341 3275 1631 3429 
Q 1922 3584 2338 3584 
Q 2397 3584 2469 3576 
Q 2541 3569 2628 3553 
L 2631 2963 
z
" transform="scale(0.015625)"/>
       <path id="DejaVuSans-71" d="M 947 1747 
Q 947 1113 1208 752 
Q 1469 391 1925 391 
Q 2381 391 2643 752 
Q 2906 1113 2906 1747 
Q 2906 2381 2643 2742 
Q 2381 3103 1925 3103 
Q 1469 3103 1208 2742 
Q 947 2381 947 1747 
z
M 2906 525 
Q 2725 213 2448 61 
Q 2172 -91 1784 -91 
Q 1150 -91 751 415 
Q 353 922 353 1747 
Q 353 2572 751 3078 
Q 1150 3584 1784 3584 
Q 2172 3584 2448 3432 
Q 2725 3281 2906 2969 
L 2906 3500 
L 3481 3500 
L 3481 -1331 
L 2906 -1331 
L 2906 525 
z
" transform="scale(0.015625)"/>
       <path id="DejaVuSans-75" d="M 544 1381 
L 544 3500 
L 1119 3500 
L 1119 1403 
Q 1119 906 1312 657 
Q 1506 409 1894 409 
Q 2359 409 2629 706 
Q 2900 1003 2900 1516 
L 2900 3500 
L 3475 3500 
L 3475 0 
L 2900 0 
L 2900 538 
Q 2691 219 2414 64 
Q 2138 -91 1772 -91 
Q 1169 -91 856 284 
Q 544 659 544 1381 
z
M 1991 3584 
L 1991 3584 
z
" transform="scale(0.015625)"/>
       <path id="DejaVuSans-6e" d="M 3513 2113 
L 3513 0 
L 2938 0 
L 2938 2094 
Q 2938 2591 2744 2837 
Q 2550 3084 2163 3084 
Q 1697 3084 1428 2787 
Q 1159 2491 1159 1978 
L 1159 0 
L 581 0 
L 581 3500 
L 1159 3500 
L 1159 2956 
Q 1366 3272 1645 3428 
Q 1925 3584 2291 3584 
Q 2894 3584 3203 3211 
Q 3513 2838 3513 2113 
z
" transform="scale(0.015625)"/>
       <path id="DejaVuSans-63" d="M 3122 3366 
L 3122 2828 
Q 2878 2963 2633 3030 
Q 2388 3097 2138 3097 
Q 1578 3097 1268 2742 
Q 959 2388 959 1747 
Q 959 1106 1268 751 
Q 1578 397 2138 397 
Q 2388 397 2633 464 
Q 2878 531 3122 666 
L 3122 134 
Q 2881 22 2623 -34 
Q 2366 -91 2075 -91 
Q 1284 -91 818 406 
Q 353 903 353 1747 
Q 353 2603 823 3093 
Q 1294 3584 2113 3584 
Q 2378 3584 2631 3529 
Q 2884 3475 3122 3366 
z
" transform="scale(0.015625)"/>
       <path id="DejaVuSans-79" d="M 2059 -325 
Q 1816 -950 1584 -1140 
Q 1353 -1331 966 -1331 
L 506 -1331 
L 506 -850 
L 844 -850 
Q 1081 -850 1212 -737 
Q 1344 -625 1503 -206 
L 1606 56 
L 191 3500 
L 800 3500 
L 1894 763 
L 2988 3500 
L 3597 3500 
L 2059 -325 
z
" transform="scale(0.015625)"/>
      </defs>
      <use xlink:href="#DejaVuSans-50"/>
      <use xlink:href="#DejaVuSans-69" x="58.052734"/>
      <use xlink:href="#DejaVuSans-78" x="85.835938"/>
      <use xlink:href="#DejaVuSans-65" x="141.890625"/>
      <use xlink:href="#DejaVuSans-6c" x="203.414062"/>
      <use xlink:href="#DejaVuSans-20" x="231.197266"/>
      <use xlink:href="#DejaVuSans-46" x="262.984375"/>
      <use xlink:href="#DejaVuSans-72" x="313.253906"/>
      <use xlink:href="#DejaVuSans-65" x="352.117188"/>
      <use xlink:href="#DejaVuSans-71" x="413.640625"/>
      <use xlink:href="#DejaVuSans-75" x="477.117188"/>
      <use xlink:href="#DejaVuSans-65" x="540.496094"/>
      <use xlink:href="#DejaVuSans-6e" x="602.019531"/>
      <use xlink:href="#DejaVuSans-63" x="665.398438"/>
      <use xlink:href="#DejaVuSans-79" x="720.378906"/>
     </g>
    </g>
   </g>
   <g id="line2d_12">
    <path d="M 57.17 156.58263 
L 58.853995 154.391678 
L 59.695992 151.105248 
L 61.379987 150.094039 
L 63.063982 141.245961 
L 63.905979 141.414495 
L 64.747976 143.521181 
L 65.589974 144.53239 
L 66.431971 148.071621 
L 67.273969 156.835433 
L 68.115966 160.374664 
L 68.957963 162.312815 
L 70.641958 174.447323 
L 71.483955 177.14388 
L 72.325953 180.514577 
L 73.16795 181.525786 
L 74.009948 185.149285 
L 74.851945 186.666098 
L 75.693942 187.59304 
L 76.53594 188.857051 
L 77.377937 189.109853 
L 78.219934 189.86826 
L 79.061932 190.121062 
L 79.903929 189.86826 
L 80.745927 190.121062 
L 81.587924 190.542399 
L 82.429921 190.036795 
L 83.271919 190.542399 
L 95.901879 190.542399 
L 96.743877 190.373864 
L 97.585874 190.626667 
L 98.427871 190.458132 
L 100.111866 190.542399 
L 100.953864 190.20533 
L 101.795861 190.289597 
L 103.479856 189.699725 
L 104.321853 189.783993 
L 105.16385 188.857051 
L 106.005848 188.098644 
L 106.847845 187.508772 
L 107.689843 187.424505 
L 108.53184 185.233552 
L 109.373837 185.233552 
L 110.215835 184.222343 
L 111.057832 182.452727 
L 111.899829 178.997763 
L 112.741827 179.334833 
L 113.583824 173.857451 
L 114.425822 171.413696 
L 115.267819 166.441918 
L 116.109816 160.796001 
L 118.635808 149.841237 
L 119.477806 137.453927 
L 120.319803 143.352646 
L 121.161801 135.852846 
L 122.003798 136.526985 
L 122.845795 135.600044 
L 123.687793 137.959531 
L 124.52979 137.201125 
L 125.371787 138.633671 
L 127.055782 143.268379 
L 127.89778 147.987354 
L 128.739777 150.094039 
L 129.581774 151.105248 
L 130.423772 157.088235 
L 131.265769 154.728747 
L 132.107766 154.728747 
L 133.791761 160.206129 
L 134.633759 162.902687 
L 135.475756 162.060012 
L 136.317753 167.03179 
L 137.159751 162.397082 
L 138.001748 163.998163 
L 138.843745 164.925105 
L 139.685743 166.441918 
L 140.52774 168.295801 
L 141.369738 167.958732 
L 142.211735 170.992359 
L 143.053732 170.571022 
L 143.89573 170.486754 
L 144.737727 171.076626 
L 145.579724 171.245161 
L 146.421722 172.172102 
L 147.263719 172.087835 
L 148.105717 174.53159 
L 148.947714 173.436114 
L 149.789711 174.025986 
L 150.631709 173.351846 
L 151.473706 176.132671 
L 152.315703 176.216938 
L 153.157701 174.53159 
L 153.999698 176.891078 
L 154.841696 174.19452 
L 155.683693 175.121462 
L 156.52569 177.312415 
L 157.367688 175.879869 
L 158.209685 177.902287 
L 159.051682 176.385473 
L 159.89368 177.396682 
L 160.735677 178.829228 
L 161.577675 176.638276 
L 162.419672 175.879869 
L 163.261669 176.301206 
L 164.103667 175.879869 
L 164.945664 176.554008 
L 165.787661 175.964136 
L 166.629659 178.576426 
L 167.471656 177.14388 
L 168.313654 177.902287 
L 169.155651 178.070822 
L 169.997648 177.396682 
L 170.839646 175.964136 
L 171.681643 177.565217 
L 172.52364 178.576426 
L 173.365638 176.554008 
L 174.207635 177.565217 
L 175.049633 179.334833 
L 175.89163 177.312415 
L 176.733627 178.239356 
L 177.575625 178.829228 
L 178.417622 177.14388 
L 179.259619 176.891078 
L 180.101617 178.323624 
L 180.943614 178.407891 
L 181.785612 179.4191 
L 182.627609 178.323624 
L 183.469606 177.649485 
L 184.311604 179.166298 
L 185.153601 176.975345 
L 186.837596 176.722543 
L 187.679593 175.879869 
L 188.521591 176.638276 
L 189.363588 177.649485 
L 190.205585 176.216938 
L 191.047583 178.660694 
L 191.88958 177.902287 
L 192.731577 176.469741 
L 193.573575 177.312415 
L 194.415572 176.638276 
L 195.25757 177.986554 
L 196.099567 178.239356 
L 196.941564 177.48095 
L 197.783562 178.576426 
L 198.625559 177.48095 
L 199.467556 178.323624 
L 200.309554 177.902287 
L 201.151551 177.902287 
L 201.993549 178.660694 
L 202.835546 178.070822 
L 203.677543 177.14388 
L 204.519541 177.396682 
L 205.361538 177.48095 
L 206.203535 178.576426 
L 207.045533 177.312415 
L 207.88753 176.722543 
L 208.729528 176.469741 
L 209.571525 177.649485 
L 210.413522 175.458532 
L 211.25552 178.576426 
L 212.097517 177.733752 
L 212.939514 178.997763 
L 213.781512 178.155089 
L 214.623509 177.818019 
L 215.465507 179.334833 
L 216.307504 178.407891 
L 217.149501 176.80681 
L 217.991499 179.082031 
L 218.833496 176.891078 
L 219.675493 177.986554 
L 221.359488 175.627067 
L 222.201486 178.155089 
L 223.043483 177.228147 
L 223.88548 179.334833 
L 224.727478 176.301206 
L 225.569475 177.902287 
L 226.411472 178.155089 
L 227.25347 176.469741 
L 228.937465 175.964136 
L 229.779462 178.155089 
L 230.621459 177.14388 
L 232.305454 178.576426 
L 233.147451 178.997763 
L 233.989449 178.576426 
L 234.831446 177.312415 
L 235.673444 178.913496 
L 236.515441 178.070822 
L 237.357438 179.587635 
L 238.199436 177.059613 
L 239.041433 180.008972 
L 239.88343 180.177507 
L 240.725428 178.239356 
L 241.567425 177.396682 
L 242.409423 176.975345 
L 243.25142 177.818019 
L 244.093417 176.722543 
L 244.935415 175.374264 
L 245.777412 177.312415 
L 246.619409 177.649485 
L 247.461407 177.14388 
L 248.303404 175.542799 
L 249.145402 178.744961 
L 249.987399 177.228147 
L 250.829396 178.829228 
L 251.671394 177.312415 
L 252.513391 176.554008 
L 253.355388 175.627067 
L 254.197386 176.722543 
L 255.039383 175.374264 
L 255.881381 177.312415 
L 256.723378 174.700125 
L 257.565375 174.19452 
L 258.407373 174.86866 
L 259.24937 174.363055 
L 260.091367 172.761974 
L 260.933365 173.604649 
L 261.775362 172.340637 
L 262.61736 174.110253 
L 263.459357 172.59344 
L 264.301354 170.065417 
L 265.143352 172.509172 
L 265.985349 169.98115 
L 266.827346 172.087835 
L 267.669344 170.992359 
L 268.511341 169.138475 
L 269.353339 164.840837 
L 270.195336 162.649884 
L 271.037333 161.891478 
L 271.879331 160.206129 
L 271.879331 160.206129 
" clip-path="url(#p15cfa28c1e)" style="fill: none; stroke: #ff0000; stroke-width: 1.5; stroke-linecap: square"/>
   </g>
   <g id="patch_3">
    <path d="M 57.17 190.626667 
L 57.17 10.8 
" style="fill: none; stroke: #000000; stroke-width: 0.8; stroke-linejoin: miter; stroke-linecap: square"/>
   </g>
   <g id="patch_4">
    <path d="M 272.721328 190.626667 
L 272.721328 10.8 
" style="fill: none; stroke: #000000; stroke-width: 0.8; stroke-linejoin: miter; stroke-linecap: square"/>
   </g>
   <g id="patch_5">
    <path d="M 57.17 190.626667 
L 272.721328 190.626667 
" style="fill: none; stroke: #000000; stroke-width: 0.8; stroke-linejoin: miter; stroke-linecap: square"/>
   </g>
   <g id="patch_6">
    <path d="M 57.17 10.8 
L 272.721328 10.8 
" style="fill: none; stroke: #000000; stroke-width: 0.8; stroke-linejoin: miter; stroke-linecap: square"/>
   </g>
   <g id="text_13">
    <!-- Red Channel  -->
    <g transform="translate(193.028203 24.8) scale(0.12 -0.12)">
     <defs>
      <path id="DejaVuSans-52" d="M 2841 2188 
Q 3044 2119 3236 1894 
Q 3428 1669 3622 1275 
L 4263 0 
L 3584 0 
L 2988 1197 
Q 2756 1666 2539 1819 
Q 2322 1972 1947 1972 
L 1259 1972 
L 1259 0 
L 628 0 
L 628 4666 
L 2053 4666 
Q 2853 4666 3247 4331 
Q 3641 3997 3641 3322 
Q 3641 2881 3436 2590 
Q 3231 2300 2841 2188 
z
M 1259 4147 
L 1259 2491 
L 2053 2491 
Q 2509 2491 2742 2702 
Q 2975 2913 2975 3322 
Q 2975 3731 2742 3939 
Q 2509 4147 2053 4147 
L 1259 4147 
z
" transform="scale(0.015625)"/>
      <path id="DejaVuSans-64" d="M 2906 2969 
L 2906 4863 
L 3481 4863 
L 3481 0 
L 2906 0 
L 2906 525 
Q 2725 213 2448 61 
Q 2172 -91 1784 -91 
Q 1150 -91 751 415 
Q 353 922 353 1747 
Q 353 2572 751 3078 
Q 1150 3584 1784 3584 
Q 2172 3584 2448 3432 
Q 2725 3281 2906 2969 
z
M 947 1747 
Q 947 1113 1208 752 
Q 1469 391 1925 391 
Q 2381 391 2643 752 
Q 2906 1113 2906 1747 
Q 2906 2381 2643 2742 
Q 2381 3103 1925 3103 
Q 1469 3103 1208 2742 
Q 947 2381 947 1747 
z
" transform="scale(0.015625)"/>
      <path id="DejaVuSans-43" d="M 4122 4306 
L 4122 3641 
Q 3803 3938 3442 4084 
Q 3081 4231 2675 4231 
Q 1875 4231 1450 3742 
Q 1025 3253 1025 2328 
Q 1025 1406 1450 917 
Q 1875 428 2675 428 
Q 3081 428 3442 575 
Q 3803 722 4122 1019 
L 4122 359 
Q 3791 134 3420 21 
Q 3050 -91 2638 -91 
Q 1578 -91 968 557 
Q 359 1206 359 2328 
Q 359 3453 968 4101 
Q 1578 4750 2638 4750 
Q 3056 4750 3426 4639 
Q 3797 4528 4122 4306 
z
" transform="scale(0.015625)"/>
      <path id="DejaVuSans-68" d="M 3513 2113 
L 3513 0 
L 2938 0 
L 2938 2094 
Q 2938 2591 2744 2837 
Q 2550 3084 2163 3084 
Q 1697 3084 1428 2787 
Q 1159 2491 1159 1978 
L 1159 0 
L 581 0 
L 581 4863 
L 1159 4863 
L 1159 2956 
Q 1366 3272 1645 3428 
Q 1925 3584 2291 3584 
Q 2894 3584 3203 3211 
Q 3513 2838 3513 2113 
z
" transform="scale(0.015625)"/>
      <path id="DejaVuSans-61" d="M 2194 1759 
Q 1497 1759 1228 1600 
Q 959 1441 959 1056 
Q 959 750 1161 570 
Q 1363 391 1709 391 
Q 2188 391 2477 730 
Q 2766 1069 2766 1631 
L 2766 1759 
L 2194 1759 
z
M 3341 1997 
L 3341 0 
L 2766 0 
L 2766 531 
Q 2569 213 2275 61 
Q 1981 -91 1556 -91 
Q 1019 -91 701 211 
Q 384 513 384 1019 
Q 384 1609 779 1909 
Q 1175 2209 1959 2209 
L 2766 2209 
L 2766 2266 
Q 2766 2663 2505 2880 
Q 2244 3097 1772 3097 
Q 1472 3097 1187 3025 
Q 903 2953 641 2809 
L 641 3341 
Q 956 3463 1253 3523 
Q 1550 3584 1831 3584 
Q 2591 3584 2966 3190 
Q 3341 2797 3341 1997 
z
" transform="scale(0.015625)"/>
     </defs>
     <use xlink:href="#DejaVuSans-52"/>
     <use xlink:href="#DejaVuSans-65" x="64.982422"/>
     <use xlink:href="#DejaVuSans-64" x="126.505859"/>
     <use xlink:href="#DejaVuSans-20" x="189.982422"/>
     <use xlink:href="#DejaVuSans-43" x="221.769531"/>
     <use xlink:href="#DejaVuSans-68" x="291.59375"/>
     <use xlink:href="#DejaVuSans-61" x="354.972656"/>
     <use xlink:href="#DejaVuSans-6e" x="416.251953"/>
     <use xlink:href="#DejaVuSans-6e" x="479.630859"/>
     <use xlink:href="#DejaVuSans-65" x="543.009766"/>
     <use xlink:href="#DejaVuSans-6c" x="604.533203"/>
     <use xlink:href="#DejaVuSans-20" x="632.316406"/>
    </g>
   </g>
  </g>
  <g id="axes_2">
   <g id="patch_7">
    <path d="M 57.17 398.333333 
L 272.721328 398.333333 
L 272.721328 218.506667 
L 57.17 218.506667 
z
" style="fill: #ffffff"/>
   </g>
   <g id="PolyCollection_2">
    <defs>
     <path id="m25ece6ad6f" d="M 57.17 -249.666667 
L 57.17 -295.002537 
L 58.011997 -289.946492 
L 58.853995 -287.334202 
L 59.695992 -281.941087 
L 60.53799 -276.463705 
L 61.379987 -269.806579 
L 62.221984 -266.85722 
L 63.063982 -262.812384 
L 63.905979 -260.537163 
L 64.747976 -255.312584 
L 65.589974 -255.059781 
L 66.431971 -254.048572 
L 67.273969 -252.278957 
L 68.115966 -251.436282 
L 68.957963 -250.930678 
L 69.799961 -250.930678 
L 70.641958 -250.088004 
L 71.483955 -250.172271 
L 72.325953 -249.835201 
L 73.16795 -249.666667 
L 74.009948 -249.919469 
L 74.851945 -249.666667 
L 75.693942 -249.666667 
L 76.53594 -249.666667 
L 77.377937 -249.835201 
L 78.219934 -249.835201 
L 79.061932 -249.666667 
L 79.903929 -249.666667 
L 80.745927 -249.750934 
L 81.587924 -249.666667 
L 82.429921 -249.666667 
L 83.271919 -249.666667 
L 84.113916 -249.666667 
L 84.955913 -249.666667 
L 85.797911 -249.666667 
L 86.639908 -249.666667 
L 87.481906 -249.666667 
L 88.323903 -249.666667 
L 89.1659 -249.666667 
L 90.007898 -249.666667 
L 90.849895 -249.666667 
L 91.691892 -249.666667 
L 92.53389 -249.666667 
L 93.375887 -249.666667 
L 94.217885 -249.750934 
L 95.059882 -250.088004 
L 95.901879 -250.509341 
L 96.743877 -250.930678 
L 97.585874 -251.773352 
L 98.427871 -253.037363 
L 99.269869 -254.048572 
L 100.111866 -258.177676 
L 100.953864 -261.885442 
L 101.795861 -269.385242 
L 102.637858 -273.093008 
L 103.479856 -283.120831 
L 104.321853 -287.755539 
L 105.16385 -295.171072 
L 106.005848 -298.373233 
L 106.847845 -303.850615 
L 107.689843 -303.934883 
L 108.53184 -308.485323 
L 109.373837 -303.934883 
L 110.215835 -305.957301 
L 111.057832 -296.603618 
L 111.899829 -295.255339 
L 112.741827 -294.159863 
L 113.583824 -287.418469 
L 114.425822 -289.01955 
L 115.267819 -281.604017 
L 116.109816 -283.879238 
L 116.951814 -282.109622 
L 117.793811 -282.952296 
L 118.635808 -284.216307 
L 119.477806 -280.171471 
L 120.319803 -280.340006 
L 121.161801 -276.379438 
L 122.003798 -276.379438 
L 122.845795 -276.379438 
L 123.687793 -275.958101 
L 124.52979 -275.031159 
L 125.371787 -273.935683 
L 126.213785 -273.514346 
L 127.055782 -272.671671 
L 127.89778 -271.576195 
L 128.739777 -268.963905 
L 129.581774 -272.334602 
L 130.423772 -266.85722 
L 131.265769 -267.447092 
L 132.107766 -266.85722 
L 132.949764 -267.362824 
L 133.791761 -269.722312 
L 134.633759 -266.435883 
L 135.475756 -264.666267 
L 136.317753 -264.413465 
L 137.159751 -264.919069 
L 138.001748 -262.980918 
L 138.843745 -261.969709 
L 139.685743 -264.834802 
L 140.52774 -262.643849 
L 141.369738 -265.171871 
L 142.211735 -263.992127 
L 143.053732 -264.497732 
L 143.89573 -264.160662 
L 144.737727 -263.90786 
L 145.579724 -263.57079 
L 146.421722 -264.076395 
L 147.263719 -262.728116 
L 148.105717 -262.306779 
L 148.947714 -263.317988 
L 149.789711 -262.306779 
L 150.631709 -262.306779 
L 151.473706 -261.716907 
L 152.315703 -260.705698 
L 153.157701 -261.464105 
L 153.999698 -262.306779 
L 154.841696 -262.138244 
L 155.683693 -262.475314 
L 156.52569 -261.63264 
L 157.367688 -262.222512 
L 158.209685 -262.391047 
L 159.051682 -263.065186 
L 159.89368 -264.160662 
L 160.735677 -262.559581 
L 161.577675 -261.801175 
L 162.419672 -262.391047 
L 163.261669 -261.29557 
L 164.103667 -261.969709 
L 164.945664 -260.874233 
L 165.787661 -260.874233 
L 166.629659 -262.138244 
L 167.471656 -262.391047 
L 168.313654 -262.896651 
L 169.155651 -260.9585 
L 169.997648 -262.559581 
L 170.839646 -260.452896 
L 171.681643 -263.486523 
L 172.52364 -262.728116 
L 173.365638 -261.127035 
L 174.207635 -261.885442 
L 175.049633 -260.9585 
L 175.89163 -261.29557 
L 176.733627 -261.801175 
L 177.575625 -263.57079 
L 178.417622 -261.127035 
L 179.259619 -262.643849 
L 180.101617 -262.896651 
L 180.943614 -262.053977 
L 181.785612 -260.9585 
L 182.627609 -260.9585 
L 183.469606 -261.885442 
L 184.311604 -262.391047 
L 185.153601 -262.138244 
L 185.995598 -260.031559 
L 186.837596 -262.728116 
L 187.679593 -260.9585 
L 188.521591 -261.801175 
L 189.363588 -260.621431 
L 190.205585 -262.643849 
L 191.047583 -261.885442 
L 191.88958 -261.211303 
L 192.731577 -263.065186 
L 193.573575 -263.823593 
L 194.415572 -263.739325 
L 195.25757 -261.548372 
L 196.099567 -263.233721 
L 196.941564 -262.306779 
L 197.783562 -261.969709 
L 198.625559 -262.896651 
L 199.467556 -262.475314 
L 200.309554 -263.233721 
L 201.151551 -262.896651 
L 201.993549 -261.969709 
L 202.835546 -262.728116 
L 203.677543 -262.896651 
L 204.519541 -262.980918 
L 205.361538 -260.874233 
L 206.203535 -262.643849 
L 207.045533 -263.233721 
L 207.88753 -262.728116 
L 208.729528 -261.716907 
L 209.571525 -262.812384 
L 210.413522 -261.127035 
L 211.25552 -263.486523 
L 212.097517 -263.739325 
L 212.939514 -261.464105 
L 213.781512 -262.559581 
L 214.623509 -261.716907 
L 215.465507 -262.053977 
L 216.307504 -261.716907 
L 217.149501 -261.379838 
L 217.991499 -260.874233 
L 218.833496 -262.980918 
L 219.675493 -262.391047 
L 220.517491 -262.138244 
L 221.359488 -263.57079 
L 222.201486 -261.969709 
L 223.043483 -263.065186 
L 223.88548 -261.464105 
L 224.727478 -261.464105 
L 225.569475 -262.138244 
L 226.411472 -262.896651 
L 227.25347 -261.801175 
L 228.095467 -263.486523 
L 228.937465 -262.222512 
L 229.779462 -262.559581 
L 230.621459 -262.559581 
L 231.463457 -262.643849 
L 232.305454 -261.716907 
L 233.147451 -263.233721 
L 233.989449 -261.969709 
L 234.831446 -261.969709 
L 235.673444 -261.885442 
L 236.515441 -262.306779 
L 237.357438 -264.076395 
L 238.199436 -264.329197 
L 239.041433 -263.90786 
L 239.88343 -262.980918 
L 240.725428 -263.57079 
L 241.567425 -264.24493 
L 242.409423 -262.391047 
L 243.25142 -262.812384 
L 244.093417 -261.29557 
L 244.935415 -264.834802 
L 245.777412 -264.834802 
L 246.619409 -262.391047 
L 247.461407 -264.413465 
L 248.303404 -264.24493 
L 249.145402 -265.508941 
L 249.987399 -264.750534 
L 250.829396 -266.351615 
L 251.671394 -265.593208 
L 252.513391 -265.340406 
L 253.355388 -267.278557 
L 254.197386 -266.52015 
L 255.039383 -269.048172 
L 255.881381 -270.986323 
L 256.723378 -272.587404 
L 257.565375 -270.480719 
L 258.407373 -273.851415 
L 259.24937 -276.463705 
L 260.091367 -277.222112 
L 260.933365 -278.317588 
L 261.775362 -283.457901 
L 262.61736 -286.828597 
L 263.459357 -287.587004 
L 264.301354 -288.851015 
L 265.143352 -294.665467 
L 265.985349 -295.339606 
L 266.827346 -297.614827 
L 267.669344 -301.996732 
L 268.511341 -302.923674 
L 269.353339 -300.058582 
L 270.195336 -299.300175 
L 271.037333 -296.687885 
L 271.879331 -294.665467 
L 271.879331 -249.666667 
L 271.879331 -249.666667 
L 271.037333 -249.666667 
L 270.195336 -249.666667 
L 269.353339 -249.666667 
L 268.511341 -249.666667 
L 267.669344 -249.666667 
L 266.827346 -249.666667 
L 265.985349 -249.666667 
L 265.143352 -249.666667 
L 264.301354 -249.666667 
L 263.459357 -249.666667 
L 262.61736 -249.666667 
L 261.775362 -249.666667 
L 260.933365 -249.666667 
L 260.091367 -249.666667 
L 259.24937 -249.666667 
L 258.407373 -249.666667 
L 257.565375 -249.666667 
L 256.723378 -249.666667 
L 255.881381 -249.666667 
L 255.039383 -249.666667 
L 254.197386 -249.666667 
L 253.355388 -249.666667 
L 252.513391 -249.666667 
L 251.671394 -249.666667 
L 250.829396 -249.666667 
L 249.987399 -249.666667 
L 249.145402 -249.666667 
L 248.303404 -249.666667 
L 247.461407 -249.666667 
L 246.619409 -249.666667 
L 245.777412 -249.666667 
L 244.935415 -249.666667 
L 244.093417 -249.666667 
L 243.25142 -249.666667 
L 242.409423 -249.666667 
L 241.567425 -249.666667 
L 240.725428 -249.666667 
L 239.88343 -249.666667 
L 239.041433 -249.666667 
L 238.199436 -249.666667 
L 237.357438 -249.666667 
L 236.515441 -249.666667 
L 235.673444 -249.666667 
L 234.831446 -249.666667 
L 233.989449 -249.666667 
L 233.147451 -249.666667 
L 232.305454 -249.666667 
L 231.463457 -249.666667 
L 230.621459 -249.666667 
L 229.779462 -249.666667 
L 228.937465 -249.666667 
L 228.095467 -249.666667 
L 227.25347 -249.666667 
L 226.411472 -249.666667 
L 225.569475 -249.666667 
L 224.727478 -249.666667 
L 223.88548 -249.666667 
L 223.043483 -249.666667 
L 222.201486 -249.666667 
L 221.359488 -249.666667 
L 220.517491 -249.666667 
L 219.675493 -249.666667 
L 218.833496 -249.666667 
L 217.991499 -249.666667 
L 217.149501 -249.666667 
L 216.307504 -249.666667 
L 215.465507 -249.666667 
L 214.623509 -249.666667 
L 213.781512 -249.666667 
L 212.939514 -249.666667 
L 212.097517 -249.666667 
L 211.25552 -249.666667 
L 210.413522 -249.666667 
L 209.571525 -249.666667 
L 208.729528 -249.666667 
L 207.88753 -249.666667 
L 207.045533 -249.666667 
L 206.203535 -249.666667 
L 205.361538 -249.666667 
L 204.519541 -249.666667 
L 203.677543 -249.666667 
L 202.835546 -249.666667 
L 201.993549 -249.666667 
L 201.151551 -249.666667 
L 200.309554 -249.666667 
L 199.467556 -249.666667 
L 198.625559 -249.666667 
L 197.783562 -249.666667 
L 196.941564 -249.666667 
L 196.099567 -249.666667 
L 195.25757 -249.666667 
L 194.415572 -249.666667 
L 193.573575 -249.666667 
L 192.731577 -249.666667 
L 191.88958 -249.666667 
L 191.047583 -249.666667 
L 190.205585 -249.666667 
L 189.363588 -249.666667 
L 188.521591 -249.666667 
L 187.679593 -249.666667 
L 186.837596 -249.666667 
L 185.995598 -249.666667 
L 185.153601 -249.666667 
L 184.311604 -249.666667 
L 183.469606 -249.666667 
L 182.627609 -249.666667 
L 181.785612 -249.666667 
L 180.943614 -249.666667 
L 180.101617 -249.666667 
L 179.259619 -249.666667 
L 178.417622 -249.666667 
L 177.575625 -249.666667 
L 176.733627 -249.666667 
L 175.89163 -249.666667 
L 175.049633 -249.666667 
L 174.207635 -249.666667 
L 173.365638 -249.666667 
L 172.52364 -249.666667 
L 171.681643 -249.666667 
L 170.839646 -249.666667 
L 169.997648 -249.666667 
L 169.155651 -249.666667 
L 168.313654 -249.666667 
L 167.471656 -249.666667 
L 166.629659 -249.666667 
L 165.787661 -249.666667 
L 164.945664 -249.666667 
L 164.103667 -249.666667 
L 163.261669 -249.666667 
L 162.419672 -249.666667 
L 161.577675 -249.666667 
L 160.735677 -249.666667 
L 159.89368 -249.666667 
L 159.051682 -249.666667 
L 158.209685 -249.666667 
L 157.367688 -249.666667 
L 156.52569 -249.666667 
L 155.683693 -249.666667 
L 154.841696 -249.666667 
L 153.999698 -249.666667 
L 153.157701 -249.666667 
L 152.315703 -249.666667 
L 151.473706 -249.666667 
L 150.631709 -249.666667 
L 149.789711 -249.666667 
L 148.947714 -249.666667 
L 148.105717 -249.666667 
L 147.263719 -249.666667 
L 146.421722 -249.666667 
L 145.579724 -249.666667 
L 144.737727 -249.666667 
L 143.89573 -249.666667 
L 143.053732 -249.666667 
L 142.211735 -249.666667 
L 141.369738 -249.666667 
L 140.52774 -249.666667 
L 139.685743 -249.666667 
L 138.843745 -249.666667 
L 138.001748 -249.666667 
L 137.159751 -249.666667 
L 136.317753 -249.666667 
L 135.475756 -249.666667 
L 134.633759 -249.666667 
L 133.791761 -249.666667 
L 132.949764 -249.666667 
L 132.107766 -249.666667 
L 131.265769 -249.666667 
L 130.423772 -249.666667 
L 129.581774 -249.666667 
L 128.739777 -249.666667 
L 127.89778 -249.666667 
L 127.055782 -249.666667 
L 126.213785 -249.666667 
L 125.371787 -249.666667 
L 124.52979 -249.666667 
L 123.687793 -249.666667 
L 122.845795 -249.666667 
L 122.003798 -249.666667 
L 121.161801 -249.666667 
L 120.319803 -249.666667 
L 119.477806 -249.666667 
L 118.635808 -249.666667 
L 117.793811 -249.666667 
L 116.951814 -249.666667 
L 116.109816 -249.666667 
L 115.267819 -249.666667 
L 114.425822 -249.666667 
L 113.583824 -249.666667 
L 112.741827 -249.666667 
L 111.899829 -249.666667 
L 111.057832 -249.666667 
L 110.215835 -249.666667 
L 109.373837 -249.666667 
L 108.53184 -249.666667 
L 107.689843 -249.666667 
L 106.847845 -249.666667 
L 106.005848 -249.666667 
L 105.16385 -249.666667 
L 104.321853 -249.666667 
L 103.479856 -249.666667 
L 102.637858 -249.666667 
L 101.795861 -249.666667 
L 100.953864 -249.666667 
L 100.111866 -249.666667 
L 99.269869 -249.666667 
L 98.427871 -249.666667 
L 97.585874 -249.666667 
L 96.743877 -249.666667 
L 95.901879 -249.666667 
L 95.059882 -249.666667 
L 94.217885 -249.666667 
L 93.375887 -249.666667 
L 92.53389 -249.666667 
L 91.691892 -249.666667 
L 90.849895 -249.666667 
L 90.007898 -249.666667 
L 89.1659 -249.666667 
L 88.323903 -249.666667 
L 87.481906 -249.666667 
L 86.639908 -249.666667 
L 85.797911 -249.666667 
L 84.955913 -249.666667 
L 84.113916 -249.666667 
L 83.271919 -249.666667 
L 82.429921 -249.666667 
L 81.587924 -249.666667 
L 80.745927 -249.666667 
L 79.903929 -249.666667 
L 79.061932 -249.666667 
L 78.219934 -249.666667 
L 77.377937 -249.666667 
L 76.53594 -249.666667 
L 75.693942 -249.666667 
L 74.851945 -249.666667 
L 74.009948 -249.666667 
L 73.16795 -249.666667 
L 72.325953 -249.666667 
L 71.483955 -249.666667 
L 70.641958 -249.666667 
L 69.799961 -249.666667 
L 68.957963 -249.666667 
L 68.115966 -249.666667 
L 67.273969 -249.666667 
L 66.431971 -249.666667 
L 65.589974 -249.666667 
L 64.747976 -249.666667 
L 63.905979 -249.666667 
L 63.063982 -249.666667 
L 62.221984 -249.666667 
L 61.379987 -249.666667 
L 60.53799 -249.666667 
L 59.695992 -249.666667 
L 58.853995 -249.666667 
L 58.011997 -249.666667 
L 57.17 -249.666667 
z
" style="stroke: #008000; stroke-opacity: 0.4"/>
    </defs>
    <g clip-path="url(#p4ef7fcbd2e)">
     <use xlink:href="#m25ece6ad6f" x="0" y="648" style="fill: #008000; fill-opacity: 0.4; stroke: #008000; stroke-opacity: 0.4"/>
    </g>
   </g>
   <g id="matplotlib.axis_3">
    <g id="xtick_7">
     <g id="line2d_13">
      <g>
       <use xlink:href="#m041132fe90" x="57.17" y="398.333333" style="stroke: #000000; stroke-width: 0.8"/>
      </g>
     </g>
     <g id="text_14">
      <!-- 0 -->
      <g transform="translate(53.98875 412.931771) scale(0.1 -0.1)">
       <use xlink:href="#DejaVuSans-30"/>
      </g>
     </g>
    </g>
    <g id="xtick_8">
     <g id="line2d_14">
      <g>
       <use xlink:href="#m041132fe90" x="99.269869" y="398.333333" style="stroke: #000000; stroke-width: 0.8"/>
      </g>
     </g>
     <g id="text_15">
      <!-- 50 -->
      <g transform="translate(92.907369 412.931771) scale(0.1 -0.1)">
       <use xlink:href="#DejaVuSans-35"/>
       <use xlink:href="#DejaVuSans-30" x="63.623047"/>
      </g>
     </g>
    </g>
    <g id="xtick_9">
     <g id="line2d_15">
      <g>
       <use xlink:href="#m041132fe90" x="141.369738" y="398.333333" style="stroke: #000000; stroke-width: 0.8"/>
      </g>
     </g>
     <g id="text_16">
      <!-- 100 -->
      <g transform="translate(131.825988 412.931771) scale(0.1 -0.1)">
       <use xlink:href="#DejaVuSans-31"/>
       <use xlink:href="#DejaVuSans-30" x="63.623047"/>
       <use xlink:href="#DejaVuSans-30" x="127.246094"/>
      </g>
     </g>
    </g>
    <g id="xtick_10">
     <g id="line2d_16">
      <g>
       <use xlink:href="#m041132fe90" x="183.469606" y="398.333333" style="stroke: #000000; stroke-width: 0.8"/>
      </g>
     </g>
     <g id="text_17">
      <!-- 150 -->
      <g transform="translate(173.925856 412.931771) scale(0.1 -0.1)">
       <use xlink:href="#DejaVuSans-31"/>
       <use xlink:href="#DejaVuSans-35" x="63.623047"/>
       <use xlink:href="#DejaVuSans-30" x="127.246094"/>
      </g>
     </g>
    </g>
    <g id="xtick_11">
     <g id="line2d_17">
      <g>
       <use xlink:href="#m041132fe90" x="225.569475" y="398.333333" style="stroke: #000000; stroke-width: 0.8"/>
      </g>
     </g>
     <g id="text_18">
      <!-- 200 -->
      <g transform="translate(216.025725 412.931771) scale(0.1 -0.1)">
       <use xlink:href="#DejaVuSans-32"/>
       <use xlink:href="#DejaVuSans-30" x="63.623047"/>
       <use xlink:href="#DejaVuSans-30" x="127.246094"/>
      </g>
     </g>
    </g>
    <g id="xtick_12">
     <g id="line2d_18">
      <g>
       <use xlink:href="#m041132fe90" x="267.669344" y="398.333333" style="stroke: #000000; stroke-width: 0.8"/>
      </g>
     </g>
     <g id="text_19">
      <!-- 250 -->
      <g transform="translate(258.125594 412.931771) scale(0.1 -0.1)">
       <use xlink:href="#DejaVuSans-32"/>
       <use xlink:href="#DejaVuSans-35" x="63.623047"/>
       <use xlink:href="#DejaVuSans-30" x="127.246094"/>
      </g>
     </g>
    </g>
   </g>
   <g id="matplotlib.axis_4">
    <g id="ytick_6">
     <g id="line2d_19">
      <g>
       <use xlink:href="#mbb72011c6f" x="57.17" y="398.333333" style="stroke: #000000; stroke-width: 0.8"/>
      </g>
     </g>
     <g id="text_20">
      <!-- 0 -->
      <g transform="translate(43.8075 402.132552) scale(0.1 -0.1)">
       <use xlink:href="#DejaVuSans-30"/>
      </g>
     </g>
    </g>
    <g id="ytick_7">
     <g id="line2d_20">
      <g>
       <use xlink:href="#mbb72011c6f" x="57.17" y="356.199625" style="stroke: #000000; stroke-width: 0.8"/>
      </g>
     </g>
     <g id="text_21">
      <!-- 500 -->
      <g transform="translate(31.0825 359.998844) scale(0.1 -0.1)">
       <use xlink:href="#DejaVuSans-35"/>
       <use xlink:href="#DejaVuSans-30" x="63.623047"/>
       <use xlink:href="#DejaVuSans-30" x="127.246094"/>
      </g>
     </g>
    </g>
    <g id="ytick_8">
     <g id="line2d_21">
      <g>
       <use xlink:href="#mbb72011c6f" x="57.17" y="314.065917" style="stroke: #000000; stroke-width: 0.8"/>
      </g>
     </g>
     <g id="text_22">
      <!-- 1000 -->
      <g transform="translate(24.72 317.865136) scale(0.1 -0.1)">
       <use xlink:href="#DejaVuSans-31"/>
       <use xlink:href="#DejaVuSans-30" x="63.623047"/>
       <use xlink:href="#DejaVuSans-30" x="127.246094"/>
       <use xlink:href="#DejaVuSans-30" x="190.869141"/>
      </g>
     </g>
    </g>
    <g id="ytick_9">
     <g id="line2d_22">
      <g>
       <use xlink:href="#mbb72011c6f" x="57.17" y="271.932209" style="stroke: #000000; stroke-width: 0.8"/>
      </g>
     </g>
     <g id="text_23">
      <!-- 1500 -->
      <g transform="translate(24.72 275.731427) scale(0.1 -0.1)">
       <use xlink:href="#DejaVuSans-31"/>
       <use xlink:href="#DejaVuSans-35" x="63.623047"/>
       <use xlink:href="#DejaVuSans-30" x="127.246094"/>
       <use xlink:href="#DejaVuSans-30" x="190.869141"/>
      </g>
     </g>
    </g>
    <g id="ytick_10">
     <g id="line2d_23">
      <g>
       <use xlink:href="#mbb72011c6f" x="57.17" y="229.7985" style="stroke: #000000; stroke-width: 0.8"/>
      </g>
     </g>
     <g id="text_24">
      <!-- 2000 -->
      <g transform="translate(24.72 233.597719) scale(0.1 -0.1)">
       <use xlink:href="#DejaVuSans-32"/>
       <use xlink:href="#DejaVuSans-30" x="63.623047"/>
       <use xlink:href="#DejaVuSans-30" x="127.246094"/>
       <use xlink:href="#DejaVuSans-30" x="190.869141"/>
      </g>
     </g>
    </g>
    <g id="text_25">
     <!-- Pixel Frequency -->
     <g transform="translate(18.640313 347.398906) rotate(-90) scale(0.1 -0.1)">
      <use xlink:href="#DejaVuSans-50"/>
      <use xlink:href="#DejaVuSans-69" x="58.052734"/>
      <use xlink:href="#DejaVuSans-78" x="85.835938"/>
      <use xlink:href="#DejaVuSans-65" x="141.890625"/>
      <use xlink:href="#DejaVuSans-6c" x="203.414062"/>
      <use xlink:href="#DejaVuSans-20" x="231.197266"/>
      <use xlink:href="#DejaVuSans-46" x="262.984375"/>
      <use xlink:href="#DejaVuSans-72" x="313.253906"/>
      <use xlink:href="#DejaVuSans-65" x="352.117188"/>
      <use xlink:href="#DejaVuSans-71" x="413.640625"/>
      <use xlink:href="#DejaVuSans-75" x="477.117188"/>
      <use xlink:href="#DejaVuSans-65" x="540.496094"/>
      <use xlink:href="#DejaVuSans-6e" x="602.019531"/>
      <use xlink:href="#DejaVuSans-63" x="665.398438"/>
      <use xlink:href="#DejaVuSans-79" x="720.378906"/>
     </g>
    </g>
   </g>
   <g id="line2d_24">
    <path d="M 57.17 352.997463 
L 58.011997 358.053508 
L 58.853995 360.665798 
L 60.53799 371.536295 
L 61.379987 378.193421 
L 62.221984 381.14278 
L 63.063982 385.187616 
L 63.905979 387.462837 
L 64.747976 392.687416 
L 65.589974 392.940219 
L 66.431971 393.951428 
L 67.273969 395.721043 
L 68.115966 396.563718 
L 68.957963 397.069322 
L 69.799961 397.069322 
L 70.641958 397.911996 
L 71.483955 397.827729 
L 72.325953 398.164799 
L 73.16795 398.333333 
L 74.009948 398.080531 
L 74.851945 398.333333 
L 76.53594 398.333333 
L 77.377937 398.164799 
L 78.219934 398.164799 
L 79.061932 398.333333 
L 94.217885 398.249066 
L 95.901879 397.490659 
L 96.743877 397.069322 
L 97.585874 396.226648 
L 98.427871 394.962637 
L 99.269869 393.951428 
L 100.953864 386.114558 
L 101.795861 378.614758 
L 102.637858 374.906992 
L 103.479856 364.879169 
L 104.321853 360.244461 
L 105.16385 352.828928 
L 106.005848 349.626767 
L 106.847845 344.149385 
L 107.689843 344.065117 
L 108.53184 339.514677 
L 109.373837 344.065117 
L 110.215835 342.042699 
L 111.057832 351.396382 
L 111.899829 352.744661 
L 112.741827 353.840137 
L 113.583824 360.581531 
L 114.425822 358.98045 
L 115.267819 366.395983 
L 116.109816 364.120762 
L 116.951814 365.890378 
L 117.793811 365.047704 
L 118.635808 363.783693 
L 119.477806 367.828529 
L 120.319803 367.659994 
L 121.161801 371.620562 
L 122.845795 371.620562 
L 123.687793 372.041899 
L 124.52979 372.968841 
L 125.371787 374.064317 
L 126.213785 374.485654 
L 127.055782 375.328329 
L 127.89778 376.423805 
L 128.739777 379.036095 
L 129.581774 375.665398 
L 130.423772 381.14278 
L 131.265769 380.552908 
L 132.107766 381.14278 
L 132.949764 380.637176 
L 133.791761 378.277688 
L 134.633759 381.564117 
L 135.475756 383.333733 
L 136.317753 383.586535 
L 137.159751 383.080931 
L 138.001748 385.019082 
L 138.843745 386.030291 
L 139.685743 383.165198 
L 140.52774 385.356151 
L 141.369738 382.828129 
L 142.211735 384.007873 
L 143.053732 383.502268 
L 145.579724 384.42921 
L 146.421722 383.923605 
L 147.263719 385.271884 
L 148.105717 385.693221 
L 148.947714 384.682012 
L 149.789711 385.693221 
L 150.631709 385.693221 
L 151.473706 386.283093 
L 152.315703 387.294302 
L 153.999698 385.693221 
L 154.841696 385.861756 
L 155.683693 385.524686 
L 156.52569 386.36736 
L 157.367688 385.777488 
L 158.209685 385.608953 
L 159.051682 384.934814 
L 159.89368 383.839338 
L 160.735677 385.440419 
L 161.577675 386.198825 
L 162.419672 385.608953 
L 163.261669 386.70443 
L 164.103667 386.030291 
L 164.945664 387.125767 
L 165.787661 387.125767 
L 166.629659 385.861756 
L 167.471656 385.608953 
L 168.313654 385.103349 
L 169.155651 387.0415 
L 169.997648 385.440419 
L 170.839646 387.547104 
L 171.681643 384.513477 
L 172.52364 385.271884 
L 173.365638 386.872965 
L 174.207635 386.114558 
L 175.049633 387.0415 
L 175.89163 386.70443 
L 176.733627 386.198825 
L 177.575625 384.42921 
L 178.417622 386.872965 
L 179.259619 385.356151 
L 180.101617 385.103349 
L 180.943614 385.946023 
L 181.785612 387.0415 
L 182.627609 387.0415 
L 183.469606 386.114558 
L 184.311604 385.608953 
L 185.153601 385.861756 
L 185.995598 387.968441 
L 186.837596 385.271884 
L 187.679593 387.0415 
L 188.521591 386.198825 
L 189.363588 387.378569 
L 190.205585 385.356151 
L 191.88958 386.788697 
L 192.731577 384.934814 
L 193.573575 384.176407 
L 194.415572 384.260675 
L 195.25757 386.451628 
L 196.099567 384.766279 
L 196.941564 385.693221 
L 197.783562 386.030291 
L 198.625559 385.103349 
L 199.467556 385.524686 
L 200.309554 384.766279 
L 201.151551 385.103349 
L 201.993549 386.030291 
L 202.835546 385.271884 
L 204.519541 385.019082 
L 205.361538 387.125767 
L 206.203535 385.356151 
L 207.045533 384.766279 
L 207.88753 385.271884 
L 208.729528 386.283093 
L 209.571525 385.187616 
L 210.413522 386.872965 
L 211.25552 384.513477 
L 212.097517 384.260675 
L 212.939514 386.535895 
L 213.781512 385.440419 
L 214.623509 386.283093 
L 215.465507 385.946023 
L 217.149501 386.620162 
L 217.991499 387.125767 
L 218.833496 385.019082 
L 219.675493 385.608953 
L 220.517491 385.861756 
L 221.359488 384.42921 
L 222.201486 386.030291 
L 223.043483 384.934814 
L 223.88548 386.535895 
L 224.727478 386.535895 
L 226.411472 385.103349 
L 227.25347 386.198825 
L 228.095467 384.513477 
L 228.937465 385.777488 
L 229.779462 385.440419 
L 231.463457 385.356151 
L 232.305454 386.283093 
L 233.147451 384.766279 
L 233.989449 386.030291 
L 235.673444 386.114558 
L 236.515441 385.693221 
L 237.357438 383.923605 
L 238.199436 383.670803 
L 239.041433 384.09214 
L 239.88343 385.019082 
L 241.567425 383.75507 
L 242.409423 385.608953 
L 243.25142 385.187616 
L 244.093417 386.70443 
L 244.935415 383.165198 
L 245.777412 383.165198 
L 246.619409 385.608953 
L 247.461407 383.586535 
L 248.303404 383.75507 
L 249.145402 382.491059 
L 249.987399 383.249466 
L 250.829396 381.648385 
L 251.671394 382.406792 
L 252.513391 382.659594 
L 253.355388 380.721443 
L 254.197386 381.47985 
L 255.039383 378.951828 
L 255.881381 377.013677 
L 256.723378 375.412596 
L 257.565375 377.519281 
L 258.407373 374.148585 
L 259.24937 371.536295 
L 260.091367 370.777888 
L 260.933365 369.682412 
L 261.775362 364.542099 
L 262.61736 361.171403 
L 263.459357 360.412996 
L 264.301354 359.148985 
L 265.143352 353.334533 
L 265.985349 352.660394 
L 266.827346 350.385173 
L 267.669344 346.003268 
L 268.511341 345.076326 
L 269.353339 347.941418 
L 270.195336 348.699825 
L 271.037333 351.312115 
L 271.879331 353.334533 
L 271.879331 353.334533 
" clip-path="url(#p4ef7fcbd2e)" style="fill: none; stroke: #008000; stroke-width: 1.5; stroke-linecap: square"/>
   </g>
   <g id="patch_8">
    <path d="M 57.17 398.333333 
L 57.17 218.506667 
" style="fill: none; stroke: #000000; stroke-width: 0.8; stroke-linejoin: miter; stroke-linecap: square"/>
   </g>
   <g id="patch_9">
    <path d="M 272.721328 398.333333 
L 272.721328 218.506667 
" style="fill: none; stroke: #000000; stroke-width: 0.8; stroke-linejoin: miter; stroke-linecap: square"/>
   </g>
   <g id="patch_10">
    <path d="M 57.17 398.333333 
L 272.721328 398.333333 
" style="fill: none; stroke: #000000; stroke-width: 0.8; stroke-linejoin: miter; stroke-linecap: square"/>
   </g>
   <g id="patch_11">
    <path d="M 57.17 218.506667 
L 272.721328 218.506667 
" style="fill: none; stroke: #000000; stroke-width: 0.8; stroke-linejoin: miter; stroke-linecap: square"/>
   </g>
   <g id="text_26">
    <!-- Green Channel  -->
    <g transform="translate(179.494453 232.506667) scale(0.12 -0.12)">
     <defs>
      <path id="DejaVuSans-47" d="M 3809 666 
L 3809 1919 
L 2778 1919 
L 2778 2438 
L 4434 2438 
L 4434 434 
Q 4069 175 3628 42 
Q 3188 -91 2688 -91 
Q 1594 -91 976 548 
Q 359 1188 359 2328 
Q 359 3472 976 4111 
Q 1594 4750 2688 4750 
Q 3144 4750 3555 4637 
Q 3966 4525 4313 4306 
L 4313 3634 
Q 3963 3931 3569 4081 
Q 3175 4231 2741 4231 
Q 1884 4231 1454 3753 
Q 1025 3275 1025 2328 
Q 1025 1384 1454 906 
Q 1884 428 2741 428 
Q 3075 428 3337 486 
Q 3600 544 3809 666 
z
" transform="scale(0.015625)"/>
     </defs>
     <use xlink:href="#DejaVuSans-47"/>
     <use xlink:href="#DejaVuSans-72" x="77.490234"/>
     <use xlink:href="#DejaVuSans-65" x="116.353516"/>
     <use xlink:href="#DejaVuSans-65" x="177.876953"/>
     <use xlink:href="#DejaVuSans-6e" x="239.400391"/>
     <use xlink:href="#DejaVuSans-20" x="302.779297"/>
     <use xlink:href="#DejaVuSans-43" x="334.566406"/>
     <use xlink:href="#DejaVuSans-68" x="404.390625"/>
     <use xlink:href="#DejaVuSans-61" x="467.769531"/>
     <use xlink:href="#DejaVuSans-6e" x="529.048828"/>
     <use xlink:href="#DejaVuSans-6e" x="592.427734"/>
     <use xlink:href="#DejaVuSans-65" x="655.806641"/>
     <use xlink:href="#DejaVuSans-6c" x="717.330078"/>
     <use xlink:href="#DejaVuSans-20" x="745.113281"/>
    </g>
   </g>
  </g>
  <g id="axes_3">
   <g id="patch_12">
    <path d="M 57.17 606.04 
L 272.721328 606.04 
L 272.721328 426.213333 
L 57.17 426.213333 
z
" style="fill: #ffffff"/>
   </g>
   <g id="PolyCollection_3">
    <defs>
     <path id="m7e3d685edf" d="M 57.17 -41.96 
L 57.17 -41.96 
L 58.011997 -41.96 
L 58.853995 -41.96 
L 59.695992 -41.96 
L 60.53799 -41.96 
L 61.379987 -41.96 
L 62.221984 -41.96 
L 63.063982 -41.96 
L 63.905979 -41.96 
L 64.747976 -41.96 
L 65.589974 -41.96 
L 66.431971 -41.96 
L 67.273969 -41.96 
L 68.115966 -41.96 
L 68.957963 -41.96 
L 69.799961 -41.96 
L 70.641958 -41.96 
L 71.483955 -41.96 
L 72.325953 -41.96 
L 73.16795 -41.96 
L 74.009948 -41.96 
L 74.851945 -41.96 
L 75.693942 -42.212802 
L 76.53594 -42.212802 
L 77.377937 -42.212802 
L 78.219934 -42.549872 
L 79.061932 -42.802674 
L 79.903929 -42.971209 
L 80.745927 -43.476813 
L 81.587924 -44.066685 
L 82.429921 -45.162162 
L 83.271919 -46.678975 
L 84.113916 -50.218207 
L 84.955913 -53.167566 
L 85.797911 -54.431578 
L 86.639908 -61.004436 
L 87.481906 -64.880737 
L 88.323903 -71.790665 
L 89.1659 -82.239825 
L 90.007898 -91.087904 
L 90.849895 -98.166367 
L 91.691892 -111.396351 
L 92.53389 -120.834302 
L 93.375887 -118.222012 
L 94.217885 -118.643349 
L 95.059882 -123.867929 
L 95.901879 -118.053477 
L 96.743877 -111.901956 
L 97.585874 -110.300875 
L 98.427871 -101.452796 
L 99.269869 -98.756239 
L 100.111866 -99.430378 
L 100.953864 -93.363124 
L 101.795861 -89.234021 
L 102.637858 -90.666567 
L 103.479856 -81.565686 
L 104.321853 -82.74543 
L 105.16385 -79.543268 
L 106.005848 -76.678176 
L 106.847845 -76.509641 
L 107.689843 -76.004036 
L 108.53184 -66.987423 
L 109.373837 -72.043468 
L 110.215835 -71.369328 
L 111.057832 -69.34691 
L 111.899829 -67.155958 
L 112.741827 -71.622131 
L 113.583824 -67.914364 
L 114.425822 -67.914364 
L 115.267819 -67.661562 
L 116.109816 -66.73462 
L 116.951814 -66.397551 
L 117.793811 -66.229016 
L 118.635808 -64.543668 
L 119.477806 -64.375133 
L 120.319803 -63.785261 
L 121.161801 -62.858319 
L 122.003798 -63.700993 
L 122.845795 -64.290865 
L 123.687793 -63.532459 
L 124.52979 -63.785261 
L 125.371787 -64.880737 
L 126.213785 -64.543668 
L 127.055782 -62.52125 
L 127.89778 -62.774052 
L 128.739777 -63.785261 
L 129.581774 -62.858319 
L 130.423772 -64.79647 
L 131.265769 -62.52125 
L 132.107766 -62.774052 
L 132.949764 -62.099913 
L 133.791761 -63.785261 
L 134.633759 -65.723411 
L 135.475756 -60.583099 
L 136.317753 -61.762843 
L 137.159751 -63.195389 
L 138.001748 -63.363924 
L 138.843745 -62.099913 
L 139.685743 -62.858319 
L 140.52774 -64.79647 
L 141.369738 -64.206598 
L 142.211735 -63.700993 
L 143.053732 -63.616726 
L 143.89573 -64.627935 
L 144.737727 -63.953796 
L 145.579724 -63.953796 
L 146.421722 -64.206598 
L 147.263719 -62.689784 
L 148.105717 -61.088704 
L 148.947714 -63.869528 
L 149.789711 -61.425773 
L 150.631709 -59.993227 
L 151.473706 -60.246029 
L 152.315703 -62.436982 
L 153.157701 -59.740425 
L 153.999698 -61.341506 
L 154.841696 -63.363924 
L 155.683693 -62.774052 
L 156.52569 -61.762843 
L 157.367688 -59.656157 
L 158.209685 -61.678575 
L 159.051682 -60.667366 
L 159.89368 -61.84711 
L 160.735677 -61.425773 
L 161.577675 -61.004436 
L 162.419672 -61.762843 
L 163.261669 -58.897751 
L 164.103667 -59.740425 
L 164.945664 -61.594308 
L 165.787661 -58.560681 
L 166.629659 -62.18418 
L 167.471656 -60.667366 
L 168.313654 -61.762843 
L 169.155651 -58.139344 
L 169.997648 -61.172971 
L 170.839646 -61.425773 
L 171.681643 -61.172971 
L 172.52364 -60.414564 
L 173.365638 -59.150553 
L 174.207635 -59.403355 
L 175.049633 -61.004436 
L 175.89163 -62.268447 
L 176.733627 -60.498832 
L 177.575625 -59.319088 
L 178.417622 -59.740425 
L 179.259619 -59.150553 
L 180.101617 -60.414564 
L 180.943614 -57.212402 
L 181.785612 -59.57189 
L 182.627609 -59.319088 
L 183.469606 -60.246029 
L 184.311604 -58.223611 
L 185.153601 -60.330297 
L 185.995598 -58.055077 
L 186.837596 -59.57189 
L 187.679593 -58.223611 
L 188.521591 -61.088704 
L 189.363588 -58.307879 
L 190.205585 -57.043868 
L 191.047583 -57.043868 
L 191.88958 -58.476414 
L 192.731577 -56.9596 
L 193.573575 -58.476414 
L 194.415572 -58.476414 
L 195.25757 -58.055077 
L 196.099567 -56.791065 
L 196.941564 -57.718007 
L 197.783562 -57.970809 
L 198.625559 -57.970809 
L 199.467556 -56.116926 
L 200.309554 -56.201193 
L 201.151551 -56.9596 
L 201.993549 -54.937182 
L 202.835546 -56.116926 
L 203.677543 -57.633739 
L 204.519541 -54.263043 
L 205.361538 -56.875333 
L 206.203535 -56.538263 
L 207.045533 -54.937182 
L 207.88753 -56.201193 
L 208.729528 -55.02145 
L 209.571525 -57.465205 
L 210.413522 -54.68438 
L 211.25552 -52.746229 
L 212.097517 -53.167566 
L 212.939514 -54.010241 
L 213.781512 -55.864124 
L 214.623509 -55.442787 
L 215.465507 -54.094508 
L 216.307504 -54.094508 
L 217.149501 -53.083299 
L 217.991499 -53.757438 
L 218.833496 -53.925973 
L 219.675493 -53.083299 
L 220.517491 -54.178775 
L 221.359488 -52.240625 
L 222.201486 -52.40916 
L 223.043483 -52.156357 
L 223.88548 -51.903555 
L 224.727478 -49.965405 
L 225.569475 -51.650753 
L 226.411472 -50.976614 
L 227.25347 -50.049672 
L 228.095467 -50.976614 
L 228.937465 -51.145148 
L 229.779462 -50.639544 
L 230.621459 -48.954196 
L 231.463457 -51.145148 
L 232.305454 -50.892346 
L 233.147451 -49.206998 
L 233.989449 -49.712602 
L 234.831446 -50.218207 
L 235.673444 -48.111521 
L 236.515441 -48.869928 
L 237.357438 -49.544067 
L 238.199436 -49.544067 
L 239.041433 -49.375533 
L 239.88343 -49.4598 
L 240.725428 -48.954196 
L 241.567425 -49.4598 
L 242.409423 -51.987823 
L 243.25142 -48.195789 
L 244.093417 -49.79687 
L 244.935415 -49.206998 
L 245.777412 -49.291265 
L 246.619409 -47.690184 
L 247.461407 -48.617126 
L 248.303404 -48.027254 
L 249.145402 -48.280056 
L 249.987399 -46.51044 
L 250.829396 -48.364324 
L 251.671394 -46.51044 
L 252.513391 -46.089103 
L 253.355388 -44.90936 
L 254.197386 -45.499231 
L 255.039383 -45.667766 
L 255.881381 -44.825092 
L 256.723378 -43.898151 
L 257.565375 -44.150953 
L 258.407373 -43.308279 
L 259.24937 -43.139744 
L 260.091367 -42.718407 
L 260.933365 -42.29707 
L 261.775362 -42.044267 
L 262.61736 -41.96 
L 263.459357 -41.96 
L 264.301354 -41.96 
L 265.143352 -41.96 
L 265.985349 -41.96 
L 266.827346 -41.96 
L 267.669344 -41.96 
L 268.511341 -41.96 
L 269.353339 -41.96 
L 270.195336 -41.96 
L 271.037333 -41.96 
L 271.879331 -41.96 
L 271.879331 -41.96 
L 271.879331 -41.96 
L 271.037333 -41.96 
L 270.195336 -41.96 
L 269.353339 -41.96 
L 268.511341 -41.96 
L 267.669344 -41.96 
L 266.827346 -41.96 
L 265.985349 -41.96 
L 265.143352 -41.96 
L 264.301354 -41.96 
L 263.459357 -41.96 
L 262.61736 -41.96 
L 261.775362 -41.96 
L 260.933365 -41.96 
L 260.091367 -41.96 
L 259.24937 -41.96 
L 258.407373 -41.96 
L 257.565375 -41.96 
L 256.723378 -41.96 
L 255.881381 -41.96 
L 255.039383 -41.96 
L 254.197386 -41.96 
L 253.355388 -41.96 
L 252.513391 -41.96 
L 251.671394 -41.96 
L 250.829396 -41.96 
L 249.987399 -41.96 
L 249.145402 -41.96 
L 248.303404 -41.96 
L 247.461407 -41.96 
L 246.619409 -41.96 
L 245.777412 -41.96 
L 244.935415 -41.96 
L 244.093417 -41.96 
L 243.25142 -41.96 
L 242.409423 -41.96 
L 241.567425 -41.96 
L 240.725428 -41.96 
L 239.88343 -41.96 
L 239.041433 -41.96 
L 238.199436 -41.96 
L 237.357438 -41.96 
L 236.515441 -41.96 
L 235.673444 -41.96 
L 234.831446 -41.96 
L 233.989449 -41.96 
L 233.147451 -41.96 
L 232.305454 -41.96 
L 231.463457 -41.96 
L 230.621459 -41.96 
L 229.779462 -41.96 
L 228.937465 -41.96 
L 228.095467 -41.96 
L 227.25347 -41.96 
L 226.411472 -41.96 
L 225.569475 -41.96 
L 224.727478 -41.96 
L 223.88548 -41.96 
L 223.043483 -41.96 
L 222.201486 -41.96 
L 221.359488 -41.96 
L 220.517491 -41.96 
L 219.675493 -41.96 
L 218.833496 -41.96 
L 217.991499 -41.96 
L 217.149501 -41.96 
L 216.307504 -41.96 
L 215.465507 -41.96 
L 214.623509 -41.96 
L 213.781512 -41.96 
L 212.939514 -41.96 
L 212.097517 -41.96 
L 211.25552 -41.96 
L 210.413522 -41.96 
L 209.571525 -41.96 
L 208.729528 -41.96 
L 207.88753 -41.96 
L 207.045533 -41.96 
L 206.203535 -41.96 
L 205.361538 -41.96 
L 204.519541 -41.96 
L 203.677543 -41.96 
L 202.835546 -41.96 
L 201.993549 -41.96 
L 201.151551 -41.96 
L 200.309554 -41.96 
L 199.467556 -41.96 
L 198.625559 -41.96 
L 197.783562 -41.96 
L 196.941564 -41.96 
L 196.099567 -41.96 
L 195.25757 -41.96 
L 194.415572 -41.96 
L 193.573575 -41.96 
L 192.731577 -41.96 
L 191.88958 -41.96 
L 191.047583 -41.96 
L 190.205585 -41.96 
L 189.363588 -41.96 
L 188.521591 -41.96 
L 187.679593 -41.96 
L 186.837596 -41.96 
L 185.995598 -41.96 
L 185.153601 -41.96 
L 184.311604 -41.96 
L 183.469606 -41.96 
L 182.627609 -41.96 
L 181.785612 -41.96 
L 180.943614 -41.96 
L 180.101617 -41.96 
L 179.259619 -41.96 
L 178.417622 -41.96 
L 177.575625 -41.96 
L 176.733627 -41.96 
L 175.89163 -41.96 
L 175.049633 -41.96 
L 174.207635 -41.96 
L 173.365638 -41.96 
L 172.52364 -41.96 
L 171.681643 -41.96 
L 170.839646 -41.96 
L 169.997648 -41.96 
L 169.155651 -41.96 
L 168.313654 -41.96 
L 167.471656 -41.96 
L 166.629659 -41.96 
L 165.787661 -41.96 
L 164.945664 -41.96 
L 164.103667 -41.96 
L 163.261669 -41.96 
L 162.419672 -41.96 
L 161.577675 -41.96 
L 160.735677 -41.96 
L 159.89368 -41.96 
L 159.051682 -41.96 
L 158.209685 -41.96 
L 157.367688 -41.96 
L 156.52569 -41.96 
L 155.683693 -41.96 
L 154.841696 -41.96 
L 153.999698 -41.96 
L 153.157701 -41.96 
L 152.315703 -41.96 
L 151.473706 -41.96 
L 150.631709 -41.96 
L 149.789711 -41.96 
L 148.947714 -41.96 
L 148.105717 -41.96 
L 147.263719 -41.96 
L 146.421722 -41.96 
L 145.579724 -41.96 
L 144.737727 -41.96 
L 143.89573 -41.96 
L 143.053732 -41.96 
L 142.211735 -41.96 
L 141.369738 -41.96 
L 140.52774 -41.96 
L 139.685743 -41.96 
L 138.843745 -41.96 
L 138.001748 -41.96 
L 137.159751 -41.96 
L 136.317753 -41.96 
L 135.475756 -41.96 
L 134.633759 -41.96 
L 133.791761 -41.96 
L 132.949764 -41.96 
L 132.107766 -41.96 
L 131.265769 -41.96 
L 130.423772 -41.96 
L 129.581774 -41.96 
L 128.739777 -41.96 
L 127.89778 -41.96 
L 127.055782 -41.96 
L 126.213785 -41.96 
L 125.371787 -41.96 
L 124.52979 -41.96 
L 123.687793 -41.96 
L 122.845795 -41.96 
L 122.003798 -41.96 
L 121.161801 -41.96 
L 120.319803 -41.96 
L 119.477806 -41.96 
L 118.635808 -41.96 
L 117.793811 -41.96 
L 116.951814 -41.96 
L 116.109816 -41.96 
L 115.267819 -41.96 
L 114.425822 -41.96 
L 113.583824 -41.96 
L 112.741827 -41.96 
L 111.899829 -41.96 
L 111.057832 -41.96 
L 110.215835 -41.96 
L 109.373837 -41.96 
L 108.53184 -41.96 
L 107.689843 -41.96 
L 106.847845 -41.96 
L 106.005848 -41.96 
L 105.16385 -41.96 
L 104.321853 -41.96 
L 103.479856 -41.96 
L 102.637858 -41.96 
L 101.795861 -41.96 
L 100.953864 -41.96 
L 100.111866 -41.96 
L 99.269869 -41.96 
L 98.427871 -41.96 
L 97.585874 -41.96 
L 96.743877 -41.96 
L 95.901879 -41.96 
L 95.059882 -41.96 
L 94.217885 -41.96 
L 93.375887 -41.96 
L 92.53389 -41.96 
L 91.691892 -41.96 
L 90.849895 -41.96 
L 90.007898 -41.96 
L 89.1659 -41.96 
L 88.323903 -41.96 
L 87.481906 -41.96 
L 86.639908 -41.96 
L 85.797911 -41.96 
L 84.955913 -41.96 
L 84.113916 -41.96 
L 83.271919 -41.96 
L 82.429921 -41.96 
L 81.587924 -41.96 
L 80.745927 -41.96 
L 79.903929 -41.96 
L 79.061932 -41.96 
L 78.219934 -41.96 
L 77.377937 -41.96 
L 76.53594 -41.96 
L 75.693942 -41.96 
L 74.851945 -41.96 
L 74.009948 -41.96 
L 73.16795 -41.96 
L 72.325953 -41.96 
L 71.483955 -41.96 
L 70.641958 -41.96 
L 69.799961 -41.96 
L 68.957963 -41.96 
L 68.115966 -41.96 
L 67.273969 -41.96 
L 66.431971 -41.96 
L 65.589974 -41.96 
L 64.747976 -41.96 
L 63.905979 -41.96 
L 63.063982 -41.96 
L 62.221984 -41.96 
L 61.379987 -41.96 
L 60.53799 -41.96 
L 59.695992 -41.96 
L 58.853995 -41.96 
L 58.011997 -41.96 
L 57.17 -41.96 
z
" style="stroke: #0000ff; stroke-opacity: 0.4"/>
    </defs>
    <g clip-path="url(#p651b66b862)">
     <use xlink:href="#m7e3d685edf" x="0" y="648" style="fill: #0000ff; fill-opacity: 0.4; stroke: #0000ff; stroke-opacity: 0.4"/>
    </g>
   </g>
   <g id="matplotlib.axis_5">
    <g id="xtick_13">
     <g id="line2d_25">
      <g>
       <use xlink:href="#m041132fe90" x="57.17" y="606.04" style="stroke: #000000; stroke-width: 0.8"/>
      </g>
     </g>
     <g id="text_27">
      <!-- 0 -->
      <g transform="translate(53.98875 620.638438) scale(0.1 -0.1)">
       <use xlink:href="#DejaVuSans-30"/>
      </g>
     </g>
    </g>
    <g id="xtick_14">
     <g id="line2d_26">
      <g>
       <use xlink:href="#m041132fe90" x="99.269869" y="606.04" style="stroke: #000000; stroke-width: 0.8"/>
      </g>
     </g>
     <g id="text_28">
      <!-- 50 -->
      <g transform="translate(92.907369 620.638438) scale(0.1 -0.1)">
       <use xlink:href="#DejaVuSans-35"/>
       <use xlink:href="#DejaVuSans-30" x="63.623047"/>
      </g>
     </g>
    </g>
    <g id="xtick_15">
     <g id="line2d_27">
      <g>
       <use xlink:href="#m041132fe90" x="141.369738" y="606.04" style="stroke: #000000; stroke-width: 0.8"/>
      </g>
     </g>
     <g id="text_29">
      <!-- 100 -->
      <g transform="translate(131.825988 620.638438) scale(0.1 -0.1)">
       <use xlink:href="#DejaVuSans-31"/>
       <use xlink:href="#DejaVuSans-30" x="63.623047"/>
       <use xlink:href="#DejaVuSans-30" x="127.246094"/>
      </g>
     </g>
    </g>
    <g id="xtick_16">
     <g id="line2d_28">
      <g>
       <use xlink:href="#m041132fe90" x="183.469606" y="606.04" style="stroke: #000000; stroke-width: 0.8"/>
      </g>
     </g>
     <g id="text_30">
      <!-- 150 -->
      <g transform="translate(173.925856 620.638438) scale(0.1 -0.1)">
       <use xlink:href="#DejaVuSans-31"/>
       <use xlink:href="#DejaVuSans-35" x="63.623047"/>
       <use xlink:href="#DejaVuSans-30" x="127.246094"/>
      </g>
     </g>
    </g>
    <g id="xtick_17">
     <g id="line2d_29">
      <g>
       <use xlink:href="#m041132fe90" x="225.569475" y="606.04" style="stroke: #000000; stroke-width: 0.8"/>
      </g>
     </g>
     <g id="text_31">
      <!-- 200 -->
      <g transform="translate(216.025725 620.638438) scale(0.1 -0.1)">
       <use xlink:href="#DejaVuSans-32"/>
       <use xlink:href="#DejaVuSans-30" x="63.623047"/>
       <use xlink:href="#DejaVuSans-30" x="127.246094"/>
      </g>
     </g>
    </g>
    <g id="xtick_18">
     <g id="line2d_30">
      <g>
       <use xlink:href="#m041132fe90" x="267.669344" y="606.04" style="stroke: #000000; stroke-width: 0.8"/>
      </g>
     </g>
     <g id="text_32">
      <!-- 250 -->
      <g transform="translate(258.125594 620.638438) scale(0.1 -0.1)">
       <use xlink:href="#DejaVuSans-32"/>
       <use xlink:href="#DejaVuSans-35" x="63.623047"/>
       <use xlink:href="#DejaVuSans-30" x="127.246094"/>
      </g>
     </g>
    </g>
    <g id="text_33">
     <!-- Pixel Intensity -->
     <g transform="translate(130.033945 634.316563) scale(0.1 -0.1)">
      <defs>
       <path id="DejaVuSans-49" d="M 628 4666 
L 1259 4666 
L 1259 0 
L 628 0 
L 628 4666 
z
" transform="scale(0.015625)"/>
       <path id="DejaVuSans-74" d="M 1172 4494 
L 1172 3500 
L 2356 3500 
L 2356 3053 
L 1172 3053 
L 1172 1153 
Q 1172 725 1289 603 
Q 1406 481 1766 481 
L 2356 481 
L 2356 0 
L 1766 0 
Q 1100 0 847 248 
Q 594 497 594 1153 
L 594 3053 
L 172 3053 
L 172 3500 
L 594 3500 
L 594 4494 
L 1172 4494 
z
" transform="scale(0.015625)"/>
       <path id="DejaVuSans-73" d="M 2834 3397 
L 2834 2853 
Q 2591 2978 2328 3040 
Q 2066 3103 1784 3103 
Q 1356 3103 1142 2972 
Q 928 2841 928 2578 
Q 928 2378 1081 2264 
Q 1234 2150 1697 2047 
L 1894 2003 
Q 2506 1872 2764 1633 
Q 3022 1394 3022 966 
Q 3022 478 2636 193 
Q 2250 -91 1575 -91 
Q 1294 -91 989 -36 
Q 684 19 347 128 
L 347 722 
Q 666 556 975 473 
Q 1284 391 1588 391 
Q 1994 391 2212 530 
Q 2431 669 2431 922 
Q 2431 1156 2273 1281 
Q 2116 1406 1581 1522 
L 1381 1569 
Q 847 1681 609 1914 
Q 372 2147 372 2553 
Q 372 3047 722 3315 
Q 1072 3584 1716 3584 
Q 2034 3584 2315 3537 
Q 2597 3491 2834 3397 
z
" transform="scale(0.015625)"/>
      </defs>
      <use xlink:href="#DejaVuSans-50"/>
      <use xlink:href="#DejaVuSans-69" x="58.052734"/>
      <use xlink:href="#DejaVuSans-78" x="85.835938"/>
      <use xlink:href="#DejaVuSans-65" x="141.890625"/>
      <use xlink:href="#DejaVuSans-6c" x="203.414062"/>
      <use xlink:href="#DejaVuSans-20" x="231.197266"/>
      <use xlink:href="#DejaVuSans-49" x="262.984375"/>
      <use xlink:href="#DejaVuSans-6e" x="292.476562"/>
      <use xlink:href="#DejaVuSans-74" x="355.855469"/>
      <use xlink:href="#DejaVuSans-65" x="395.064453"/>
      <use xlink:href="#DejaVuSans-6e" x="456.587891"/>
      <use xlink:href="#DejaVuSans-73" x="519.966797"/>
      <use xlink:href="#DejaVuSans-69" x="572.066406"/>
      <use xlink:href="#DejaVuSans-74" x="599.849609"/>
      <use xlink:href="#DejaVuSans-79" x="639.058594"/>
     </g>
    </g>
   </g>
   <g id="matplotlib.axis_6">
    <g id="ytick_11">
     <g id="line2d_31">
      <g>
       <use xlink:href="#mbb72011c6f" x="57.17" y="606.04" style="stroke: #000000; stroke-width: 0.8"/>
      </g>
     </g>
     <g id="text_34">
      <!-- 0 -->
      <g transform="translate(43.8075 609.839219) scale(0.1 -0.1)">
       <use xlink:href="#DejaVuSans-30"/>
      </g>
     </g>
    </g>
    <g id="ytick_12">
     <g id="line2d_32">
      <g>
       <use xlink:href="#mbb72011c6f" x="57.17" y="563.906292" style="stroke: #000000; stroke-width: 0.8"/>
      </g>
     </g>
     <g id="text_35">
      <!-- 500 -->
      <g transform="translate(31.0825 567.705511) scale(0.1 -0.1)">
       <use xlink:href="#DejaVuSans-35"/>
       <use xlink:href="#DejaVuSans-30" x="63.623047"/>
       <use xlink:href="#DejaVuSans-30" x="127.246094"/>
      </g>
     </g>
    </g>
    <g id="ytick_13">
     <g id="line2d_33">
      <g>
       <use xlink:href="#mbb72011c6f" x="57.17" y="521.772584" style="stroke: #000000; stroke-width: 0.8"/>
      </g>
     </g>
     <g id="text_36">
      <!-- 1000 -->
      <g transform="translate(24.72 525.571802) scale(0.1 -0.1)">
       <use xlink:href="#DejaVuSans-31"/>
       <use xlink:href="#DejaVuSans-30" x="63.623047"/>
       <use xlink:href="#DejaVuSans-30" x="127.246094"/>
       <use xlink:href="#DejaVuSans-30" x="190.869141"/>
      </g>
     </g>
    </g>
    <g id="ytick_14">
     <g id="line2d_34">
      <g>
       <use xlink:href="#mbb72011c6f" x="57.17" y="479.638875" style="stroke: #000000; stroke-width: 0.8"/>
      </g>
     </g>
     <g id="text_37">
      <!-- 1500 -->
      <g transform="translate(24.72 483.438094) scale(0.1 -0.1)">
       <use xlink:href="#DejaVuSans-31"/>
       <use xlink:href="#DejaVuSans-35" x="63.623047"/>
       <use xlink:href="#DejaVuSans-30" x="127.246094"/>
       <use xlink:href="#DejaVuSans-30" x="190.869141"/>
      </g>
     </g>
    </g>
    <g id="ytick_15">
     <g id="line2d_35">
      <g>
       <use xlink:href="#mbb72011c6f" x="57.17" y="437.505167" style="stroke: #000000; stroke-width: 0.8"/>
      </g>
     </g>
     <g id="text_38">
      <!-- 2000 -->
      <g transform="translate(24.72 441.304386) scale(0.1 -0.1)">
       <use xlink:href="#DejaVuSans-32"/>
       <use xlink:href="#DejaVuSans-30" x="63.623047"/>
       <use xlink:href="#DejaVuSans-30" x="127.246094"/>
       <use xlink:href="#DejaVuSans-30" x="190.869141"/>
      </g>
     </g>
    </g>
    <g id="text_39">
     <!-- Pixel Frequency -->
     <g transform="translate(18.640313 555.105573) rotate(-90) scale(0.1 -0.1)">
      <use xlink:href="#DejaVuSans-50"/>
      <use xlink:href="#DejaVuSans-69" x="58.052734"/>
      <use xlink:href="#DejaVuSans-78" x="85.835938"/>
      <use xlink:href="#DejaVuSans-65" x="141.890625"/>
      <use xlink:href="#DejaVuSans-6c" x="203.414062"/>
      <use xlink:href="#DejaVuSans-20" x="231.197266"/>
      <use xlink:href="#DejaVuSans-46" x="262.984375"/>
      <use xlink:href="#DejaVuSans-72" x="313.253906"/>
      <use xlink:href="#DejaVuSans-65" x="352.117188"/>
      <use xlink:href="#DejaVuSans-71" x="413.640625"/>
      <use xlink:href="#DejaVuSans-75" x="477.117188"/>
      <use xlink:href="#DejaVuSans-65" x="540.496094"/>
      <use xlink:href="#DejaVuSans-6e" x="602.019531"/>
      <use xlink:href="#DejaVuSans-63" x="665.398438"/>
      <use xlink:href="#DejaVuSans-79" x="720.378906"/>
     </g>
    </g>
   </g>
   <g id="line2d_36">
    <path d="M 57.17 606.04 
L 74.851945 606.04 
L 75.693942 605.787198 
L 77.377937 605.787198 
L 79.061932 605.197326 
L 79.903929 605.028791 
L 81.587924 603.933315 
L 82.429921 602.837838 
L 83.271919 601.321025 
L 84.113916 597.781793 
L 84.955913 594.832434 
L 85.797911 593.568422 
L 86.639908 586.995564 
L 87.481906 583.119263 
L 88.323903 576.209335 
L 89.1659 565.760175 
L 90.007898 556.912096 
L 90.849895 549.833633 
L 91.691892 536.603649 
L 92.53389 527.165698 
L 93.375887 529.777988 
L 94.217885 529.356651 
L 95.059882 524.132071 
L 96.743877 536.098044 
L 97.585874 537.699125 
L 98.427871 546.547204 
L 99.269869 549.243761 
L 100.111866 548.569622 
L 100.953864 554.636876 
L 101.795861 558.765979 
L 102.637858 557.333433 
L 103.479856 566.434314 
L 104.321853 565.25457 
L 106.005848 571.321824 
L 106.847845 571.490359 
L 107.689843 571.995964 
L 108.53184 581.012577 
L 109.373837 575.956532 
L 110.215835 576.630672 
L 111.899829 580.844042 
L 112.741827 576.377869 
L 113.583824 580.085636 
L 114.425822 580.085636 
L 115.267819 580.338438 
L 116.109816 581.26538 
L 116.951814 581.602449 
L 117.793811 581.770984 
L 118.635808 583.456332 
L 119.477806 583.624867 
L 120.319803 584.214739 
L 121.161801 585.141681 
L 122.003798 584.299007 
L 122.845795 583.709135 
L 123.687793 584.467541 
L 124.52979 584.214739 
L 125.371787 583.119263 
L 126.213785 583.456332 
L 127.055782 585.47875 
L 127.89778 585.225948 
L 128.739777 584.214739 
L 129.581774 585.141681 
L 130.423772 583.20353 
L 131.265769 585.47875 
L 132.107766 585.225948 
L 132.949764 585.900087 
L 133.791761 584.214739 
L 134.633759 582.276589 
L 135.475756 587.416901 
L 136.317753 586.237157 
L 137.159751 584.804611 
L 138.001748 584.636076 
L 138.843745 585.900087 
L 139.685743 585.141681 
L 140.52774 583.20353 
L 142.211735 584.299007 
L 143.053732 584.383274 
L 143.89573 583.372065 
L 144.737727 584.046204 
L 145.579724 584.046204 
L 146.421722 583.793402 
L 148.105717 586.911296 
L 148.947714 584.130472 
L 149.789711 586.574227 
L 150.631709 588.006773 
L 151.473706 587.753971 
L 152.315703 585.563018 
L 153.157701 588.259575 
L 153.999698 586.658494 
L 154.841696 584.636076 
L 155.683693 585.225948 
L 156.52569 586.237157 
L 157.367688 588.343843 
L 158.209685 586.321425 
L 159.051682 587.332634 
L 159.89368 586.15289 
L 161.577675 586.995564 
L 162.419672 586.237157 
L 163.261669 589.102249 
L 164.103667 588.259575 
L 164.945664 586.405692 
L 165.787661 589.439319 
L 166.629659 585.81582 
L 167.471656 587.332634 
L 168.313654 586.237157 
L 169.155651 589.860656 
L 169.997648 586.827029 
L 170.839646 586.574227 
L 171.681643 586.827029 
L 172.52364 587.585436 
L 173.365638 588.849447 
L 174.207635 588.596645 
L 175.049633 586.995564 
L 175.89163 585.731553 
L 176.733627 587.501168 
L 177.575625 588.680912 
L 178.417622 588.259575 
L 179.259619 588.849447 
L 180.101617 587.585436 
L 180.943614 590.787598 
L 181.785612 588.42811 
L 182.627609 588.680912 
L 183.469606 587.753971 
L 184.311604 589.776389 
L 185.153601 587.669703 
L 185.995598 589.944923 
L 186.837596 588.42811 
L 187.679593 589.776389 
L 188.521591 586.911296 
L 189.363588 589.692121 
L 190.205585 590.956132 
L 191.047583 590.956132 
L 191.88958 589.523586 
L 192.731577 591.0404 
L 193.573575 589.523586 
L 194.415572 589.523586 
L 195.25757 589.944923 
L 196.099567 591.208935 
L 196.941564 590.281993 
L 197.783562 590.029191 
L 198.625559 590.029191 
L 199.467556 591.883074 
L 200.309554 591.798807 
L 201.151551 591.0404 
L 201.993549 593.062818 
L 202.835546 591.883074 
L 203.677543 590.366261 
L 204.519541 593.736957 
L 205.361538 591.124667 
L 206.203535 591.461737 
L 207.045533 593.062818 
L 207.88753 591.798807 
L 208.729528 592.97855 
L 209.571525 590.534795 
L 210.413522 593.31562 
L 211.25552 595.253771 
L 212.097517 594.832434 
L 212.939514 593.989759 
L 213.781512 592.135876 
L 214.623509 592.557213 
L 215.465507 593.905492 
L 216.307504 593.905492 
L 217.149501 594.916701 
L 217.991499 594.242562 
L 218.833496 594.074027 
L 219.675493 594.916701 
L 220.517491 593.821225 
L 221.359488 595.759375 
L 222.201486 595.59084 
L 223.88548 596.096445 
L 224.727478 598.034595 
L 225.569475 596.349247 
L 226.411472 597.023386 
L 227.25347 597.950328 
L 228.095467 597.023386 
L 228.937465 596.854852 
L 229.779462 597.360456 
L 230.621459 599.045804 
L 231.463457 596.854852 
L 232.305454 597.107654 
L 233.147451 598.793002 
L 234.831446 597.781793 
L 235.673444 599.888479 
L 237.357438 598.455933 
L 238.199436 598.455933 
L 239.041433 598.624467 
L 239.88343 598.5402 
L 240.725428 599.045804 
L 241.567425 598.5402 
L 242.409423 596.012177 
L 243.25142 599.804211 
L 244.093417 598.20313 
L 244.935415 598.793002 
L 245.777412 598.708735 
L 246.619409 600.309816 
L 247.461407 599.382874 
L 248.303404 599.972746 
L 249.145402 599.719944 
L 249.987399 601.48956 
L 250.829396 599.635676 
L 251.671394 601.48956 
L 252.513391 601.910897 
L 253.355388 603.09064 
L 254.197386 602.500769 
L 255.039383 602.332234 
L 256.723378 604.101849 
L 257.565375 603.849047 
L 258.407373 604.691721 
L 259.24937 604.860256 
L 260.933365 605.70293 
L 261.775362 605.955733 
L 263.459357 606.04 
L 271.879331 606.04 
L 271.879331 606.04 
" clip-path="url(#p651b66b862)" style="fill: none; stroke: #0000ff; stroke-width: 1.5; stroke-linecap: square"/>
   </g>
   <g id="patch_13">
    <path d="M 57.17 606.04 
L 57.17 426.213333 
" style="fill: none; stroke: #000000; stroke-width: 0.8; stroke-linejoin: miter; stroke-linecap: square"/>
   </g>
   <g id="patch_14">
    <path d="M 272.721328 606.04 
L 272.721328 426.213333 
" style="fill: none; stroke: #000000; stroke-width: 0.8; stroke-linejoin: miter; stroke-linecap: square"/>
   </g>
   <g id="patch_15">
    <path d="M 57.17 606.04 
L 272.721328 606.04 
" style="fill: none; stroke: #000000; stroke-width: 0.8; stroke-linejoin: miter; stroke-linecap: square"/>
   </g>
   <g id="patch_16">
    <path d="M 57.17 426.213333 
L 272.721328 426.213333 
" style="fill: none; stroke: #000000; stroke-width: 0.8; stroke-linejoin: miter; stroke-linecap: square"/>
   </g>
   <g id="text_40">
    <!-- Blue Channel  -->
    <g transform="translate(189.272578 440.213333) scale(0.12 -0.12)">
     <defs>
      <path id="DejaVuSans-42" d="M 1259 2228 
L 1259 519 
L 2272 519 
Q 2781 519 3026 730 
Q 3272 941 3272 1375 
Q 3272 1813 3026 2020 
Q 2781 2228 2272 2228 
L 1259 2228 
z
M 1259 4147 
L 1259 2741 
L 2194 2741 
Q 2656 2741 2882 2914 
Q 3109 3088 3109 3444 
Q 3109 3797 2882 3972 
Q 2656 4147 2194 4147 
L 1259 4147 
z
M 628 4666 
L 2241 4666 
Q 2963 4666 3353 4366 
Q 3744 4066 3744 3513 
Q 3744 3084 3544 2831 
Q 3344 2578 2956 2516 
Q 3422 2416 3680 2098 
Q 3938 1781 3938 1306 
Q 3938 681 3513 340 
Q 3088 0 2303 0 
L 628 0 
L 628 4666 
z
" transform="scale(0.015625)"/>
     </defs>
     <use xlink:href="#DejaVuSans-42"/>
     <use xlink:href="#DejaVuSans-6c" x="68.603516"/>
     <use xlink:href="#DejaVuSans-75" x="96.386719"/>
     <use xlink:href="#DejaVuSans-65" x="159.765625"/>
     <use xlink:href="#DejaVuSans-20" x="221.289062"/>
     <use xlink:href="#DejaVuSans-43" x="253.076172"/>
     <use xlink:href="#DejaVuSans-68" x="322.900391"/>
     <use xlink:href="#DejaVuSans-61" x="386.279297"/>
     <use xlink:href="#DejaVuSans-6e" x="447.558594"/>
     <use xlink:href="#DejaVuSans-6e" x="510.9375"/>
     <use xlink:href="#DejaVuSans-65" x="574.316406"/>
     <use xlink:href="#DejaVuSans-6c" x="635.839844"/>
     <use xlink:href="#DejaVuSans-20" x="663.623047"/>
    </g>
   </g>
  </g>
 </g>
 <defs>
  <clipPath id="p15cfa28c1e">
   <rect x="57.17" y="10.8" width="215.551328" height="179.826667"/>
  </clipPath>
  <clipPath id="p4ef7fcbd2e">
   <rect x="57.17" y="218.506667" width="215.551328" height="179.826667"/>
  </clipPath>
  <clipPath id="p651b66b862">
   <rect x="57.17" y="426.213333" width="215.551328" height="179.826667"/>
  </clipPath>
 </defs>
</svg>
