<?xml version="1.0" encoding="utf-8" standalone="no"?>
<!DOCTYPE svg PUBLIC "-//W3C//DTD SVG 1.1//EN"
  "http://www.w3.org/Graphics/SVG/1.1/DTD/svg11.dtd">
<svg xmlns:xlink="http://www.w3.org/1999/xlink" width="288pt" height="648pt" viewBox="0 0 288 648" xmlns="http://www.w3.org/2000/svg" version="1.1">
 <metadata>
  <rdf:RDF xmlns:dc="http://purl.org/dc/elements/1.1/" xmlns:cc="http://creativecommons.org/ns#" xmlns:rdf="http://www.w3.org/1999/02/22-rdf-syntax-ns#">
   <cc:Work>
    <dc:type rdf:resource="http://purl.org/dc/dcmitype/StillImage"/>
    <dc:date>2023-11-18T15:18:07.929425</dc:date>
    <dc:format>image/svg+xml</dc:format>
    <dc:creator>
     <cc:Agent>
      <dc:title>Matplotlib v3.8.0, https://matplotlib.org/</dc:title>
     </cc:Agent>
    </dc:creator>
   </cc:Work>
  </rdf:RDF>
 </metadata>
 <defs>
  <style type="text/css">*{stroke-linejoin: round; stroke-linecap: butt}</style>
 </defs>
 <g id="figure_1">
  <g id="patch_1">
   <path d="M 0 648 
L 288 648 
L 288 0 
L 0 0 
z
" style="fill: #ffffff"/>
  </g>
  <g id="axes_1">
   <g id="patch_2">
    <path d="M 63.47 190.626667 
L 272.573672 190.626667 
L 272.573672 10.8 
L 63.47 10.8 
z
" style="fill: #ffffff"/>
   </g>
   <g id="PolyCollection_1">
    <defs>
     <path id="ma9bba78b3c" d="M 63.47 -457.373333 
L 63.47 -457.373333 
L 64.286811 -457.373333 
L 65.103622 -457.373333 
L 65.920434 -457.373333 
L 66.737245 -457.373333 
L 67.554056 -457.373333 
L 68.370867 -457.373333 
L 69.187679 -457.373333 
L 70.00449 -457.373333 
L 70.821301 -457.373333 
L 71.638112 -457.373333 
L 72.454923 -457.373333 
L 73.271735 -457.373333 
L 74.088546 -457.373333 
L 74.905357 -457.373333 
L 75.722168 -457.373333 
L 76.538979 -457.373333 
L 77.355791 -457.373333 
L 78.172602 -457.373333 
L 78.989413 -457.373333 
L 79.806224 -457.373333 
L 80.623036 -457.373333 
L 81.439847 -457.373333 
L 82.256658 -457.373333 
L 83.073469 -457.373333 
L 83.89028 -457.373333 
L 84.707092 -457.373333 
L 85.523903 -457.373333 
L 86.340714 -457.373333 
L 87.157525 -457.373333 
L 87.974337 -457.373333 
L 88.791148 -457.373333 
L 89.607959 -457.373333 
L 90.42477 -457.373333 
L 91.241581 -457.373333 
L 92.058393 -457.373333 
L 92.875204 -457.373333 
L 93.692015 -457.373333 
L 94.508826 -457.373333 
L 95.325638 -457.373333 
L 96.142449 -457.373333 
L 96.95926 -457.373333 
L 97.776071 -457.373333 
L 98.592882 -457.373333 
L 99.409694 -457.373333 
L 100.226505 -457.373333 
L 101.043316 -457.373333 
L 101.860127 -457.373333 
L 102.676938 -457.373333 
L 103.49375 -457.373333 
L 104.310561 -457.373333 
L 105.127372 -457.373333 
L 105.944183 -457.373333 
L 106.760995 -457.373333 
L 107.577806 -457.373333 
L 108.394617 -457.373333 
L 109.211428 -457.373333 
L 110.028239 -457.373333 
L 110.845051 -457.373333 
L 111.661862 -457.373333 
L 112.478673 -457.373333 
L 113.295484 -457.373333 
L 114.112296 -457.373333 
L 114.929107 -457.373333 
L 115.745918 -457.373333 
L 116.562729 -457.373333 
L 117.37954 -457.373333 
L 118.196352 -457.373333 
L 119.013163 -457.373333 
L 119.829974 -457.373333 
L 120.646785 -457.373333 
L 121.463596 -457.373333 
L 122.280408 -457.373333 
L 123.097219 -457.373333 
L 123.91403 -457.373333 
L 124.730841 -457.373333 
L 125.547653 -457.373333 
L 126.364464 -457.373333 
L 127.181275 -457.373333 
L 127.998086 -457.373333 
L 128.814897 -457.373333 
L 129.631709 -457.373333 
L 130.44852 -457.373333 
L 131.265331 -457.373333 
L 132.082142 -457.373333 
L 132.898954 -457.373333 
L 133.715765 -457.373333 
L 134.532576 -457.373333 
L 135.349387 -457.373333 
L 136.166198 -457.373333 
L 136.98301 -457.373333 
L 137.799821 -457.373333 
L 138.616632 -457.373333 
L 139.433443 -457.373333 
L 140.250255 -457.373333 
L 141.067066 -457.373333 
L 141.883877 -457.373333 
L 142.700688 -457.373333 
L 143.517499 -457.373333 
L 144.334311 -457.373333 
L 145.151122 -457.373333 
L 145.967933 -457.373333 
L 146.784744 -457.373333 
L 147.601555 -457.373333 
L 148.418367 -457.373333 
L 149.235178 -457.373333 
L 150.051989 -457.373333 
L 150.8688 -457.373333 
L 151.685612 -457.373333 
L 152.502423 -457.373333 
L 153.319234 -457.373333 
L 154.136045 -457.373333 
L 154.952856 -457.373333 
L 155.769668 -457.373333 
L 156.586479 -457.373333 
L 157.40329 -457.373333 
L 158.220101 -457.373333 
L 159.036913 -457.373333 
L 159.853724 -457.373333 
L 160.670535 -457.373333 
L 161.487346 -457.373333 
L 162.304157 -457.373333 
L 163.120969 -457.373333 
L 163.93778 -457.373333 
L 164.754591 -457.373333 
L 165.571402 -457.373333 
L 166.388214 -457.373333 
L 167.205025 -457.373333 
L 168.021836 -457.373333 
L 168.838647 -457.373333 
L 169.655458 -457.373333 
L 170.47227 -457.373333 
L 171.289081 -457.373333 
L 172.105892 -457.373333 
L 172.922703 -457.373333 
L 173.739514 -457.373333 
L 174.556326 -457.373333 
L 175.373137 -457.373333 
L 176.189948 -457.373333 
L 177.006759 -457.373333 
L 177.823571 -457.373333 
L 178.640382 -457.373333 
L 179.457193 -457.373333 
L 180.274004 -457.373333 
L 181.090815 -457.373333 
L 181.907627 -457.380738 
L 182.724438 -457.395549 
L 183.541249 -457.388144 
L 184.35806 -457.402954 
L 185.174872 -457.380738 
L 185.991683 -457.388144 
L 186.808494 -457.395549 
L 187.625305 -457.402954 
L 188.442116 -457.388144 
L 189.258928 -457.425169 
L 190.075739 -457.43998 
L 190.89255 -457.43998 
L 191.709361 -457.410359 
L 192.526172 -457.432575 
L 193.342984 -457.4696 
L 194.159795 -457.447385 
L 194.976606 -457.491816 
L 195.793417 -457.499221 
L 196.610229 -457.4696 
L 197.42704 -457.45479 
L 198.243851 -457.43998 
L 199.060662 -457.43998 
L 199.877473 -457.432575 
L 200.694285 -457.417764 
L 201.511096 -457.395549 
L 202.327907 -457.410359 
L 203.144718 -457.388144 
L 203.96153 -457.395549 
L 204.778341 -457.43998 
L 205.595152 -457.388144 
L 206.411963 -457.395549 
L 207.228774 -457.432575 
L 208.045586 -457.395549 
L 208.862397 -457.417764 
L 209.679208 -457.388144 
L 210.496019 -457.395549 
L 211.312831 -457.380738 
L 212.129642 -457.388144 
L 212.946453 -457.373333 
L 213.763264 -457.373333 
L 214.580075 -457.373333 
L 215.396887 -457.373333 
L 216.213698 -457.373333 
L 217.030509 -457.373333 
L 217.84732 -457.373333 
L 218.664131 -457.373333 
L 219.480943 -457.373333 
L 220.297754 -457.373333 
L 221.114565 -457.380738 
L 221.931376 -457.380738 
L 222.748188 -457.373333 
L 223.564999 -457.373333 
L 224.38181 -457.373333 
L 225.198621 -457.373333 
L 226.015432 -457.380738 
L 226.832244 -457.373333 
L 227.649055 -457.380738 
L 228.465866 -457.380738 
L 229.282677 -457.395549 
L 230.099489 -457.380738 
L 230.9163 -457.447385 
L 231.733111 -457.447385 
L 232.549922 -457.417764 
L 233.366733 -457.477005 
L 234.183545 -457.432575 
L 235.000356 -457.477005 
L 235.817167 -457.477005 
L 236.633978 -457.521436 
L 237.450789 -457.573272 
L 238.267601 -457.573272 
L 239.084412 -457.639919 
L 239.901223 -457.68435 
L 240.718034 -457.728781 
L 241.534846 -457.736186 
L 242.351657 -457.780617 
L 243.168468 -457.773211 
L 243.985279 -457.817642 
L 244.80209 -457.788022 
L 245.618902 -457.765806 
L 246.435713 -457.765806 
L 247.252524 -457.817642 
L 248.069335 -457.862073 
L 248.886147 -457.995366 
L 249.702958 -458.113848 
L 250.519769 -457.906504 
L 251.33658 -458.165684 
L 252.153391 -458.247141 
L 252.970203 -458.336003 
L 253.787014 -458.521132 
L 254.603825 -458.795122 
L 255.420636 -458.802527 
L 256.237448 -459.054302 
L 257.054259 -458.965441 
L 257.87107 -460.076213 
L 258.687881 -459.580068 
L 259.504692 -459.232026 
L 260.321504 -459.291267 
L 261.138315 -459.417155 
L 261.955126 -459.742981 
L 262.771937 -460.994452 
L 263.588748 -460.150265 
L 264.40556 -459.846653 
L 265.222371 -460.224316 
L 266.039182 -461.127744 
L 266.855993 -462.179276 
L 267.672805 -464.171261 
L 268.489616 -467.540605 
L 269.306427 -476.115768 
L 270.123238 -495.435805 
L 270.940049 -539.881516 
L 271.756861 -619.96081 
L 271.756861 -457.373333 
L 271.756861 -457.373333 
L 270.940049 -457.373333 
L 270.123238 -457.373333 
L 269.306427 -457.373333 
L 268.489616 -457.373333 
L 267.672805 -457.373333 
L 266.855993 -457.373333 
L 266.039182 -457.373333 
L 265.222371 -457.373333 
L 264.40556 -457.373333 
L 263.588748 -457.373333 
L 262.771937 -457.373333 
L 261.955126 -457.373333 
L 261.138315 -457.373333 
L 260.321504 -457.373333 
L 259.504692 -457.373333 
L 258.687881 -457.373333 
L 257.87107 -457.373333 
L 257.054259 -457.373333 
L 256.237448 -457.373333 
L 255.420636 -457.373333 
L 254.603825 -457.373333 
L 253.787014 -457.373333 
L 252.970203 -457.373333 
L 252.153391 -457.373333 
L 251.33658 -457.373333 
L 250.519769 -457.373333 
L 249.702958 -457.373333 
L 248.886147 -457.373333 
L 248.069335 -457.373333 
L 247.252524 -457.373333 
L 246.435713 -457.373333 
L 245.618902 -457.373333 
L 244.80209 -457.373333 
L 243.985279 -457.373333 
L 243.168468 -457.373333 
L 242.351657 -457.373333 
L 241.534846 -457.373333 
L 240.718034 -457.373333 
L 239.901223 -457.373333 
L 239.084412 -457.373333 
L 238.267601 -457.373333 
L 237.450789 -457.373333 
L 236.633978 -457.373333 
L 235.817167 -457.373333 
L 235.000356 -457.373333 
L 234.183545 -457.373333 
L 233.366733 -457.373333 
L 232.549922 -457.373333 
L 231.733111 -457.373333 
L 230.9163 -457.373333 
L 230.099489 -457.373333 
L 229.282677 -457.373333 
L 228.465866 -457.373333 
L 227.649055 -457.373333 
L 226.832244 -457.373333 
L 226.015432 -457.373333 
L 225.198621 -457.373333 
L 224.38181 -457.373333 
L 223.564999 -457.373333 
L 222.748188 -457.373333 
L 221.931376 -457.373333 
L 221.114565 -457.373333 
L 220.297754 -457.373333 
L 219.480943 -457.373333 
L 218.664131 -457.373333 
L 217.84732 -457.373333 
L 217.030509 -457.373333 
L 216.213698 -457.373333 
L 215.396887 -457.373333 
L 214.580075 -457.373333 
L 213.763264 -457.373333 
L 212.946453 -457.373333 
L 212.129642 -457.373333 
L 211.312831 -457.373333 
L 210.496019 -457.373333 
L 209.679208 -457.373333 
L 208.862397 -457.373333 
L 208.045586 -457.373333 
L 207.228774 -457.373333 
L 206.411963 -457.373333 
L 205.595152 -457.373333 
L 204.778341 -457.373333 
L 203.96153 -457.373333 
L 203.144718 -457.373333 
L 202.327907 -457.373333 
L 201.511096 -457.373333 
L 200.694285 -457.373333 
L 199.877473 -457.373333 
L 199.060662 -457.373333 
L 198.243851 -457.373333 
L 197.42704 -457.373333 
L 196.610229 -457.373333 
L 195.793417 -457.373333 
L 194.976606 -457.373333 
L 194.159795 -457.373333 
L 193.342984 -457.373333 
L 192.526172 -457.373333 
L 191.709361 -457.373333 
L 190.89255 -457.373333 
L 190.075739 -457.373333 
L 189.258928 -457.373333 
L 188.442116 -457.373333 
L 187.625305 -457.373333 
L 186.808494 -457.373333 
L 185.991683 -457.373333 
L 185.174872 -457.373333 
L 184.35806 -457.373333 
L 183.541249 -457.373333 
L 182.724438 -457.373333 
L 181.907627 -457.373333 
L 181.090815 -457.373333 
L 180.274004 -457.373333 
L 179.457193 -457.373333 
L 178.640382 -457.373333 
L 177.823571 -457.373333 
L 177.006759 -457.373333 
L 176.189948 -457.373333 
L 175.373137 -457.373333 
L 174.556326 -457.373333 
L 173.739514 -457.373333 
L 172.922703 -457.373333 
L 172.105892 -457.373333 
L 171.289081 -457.373333 
L 170.47227 -457.373333 
L 169.655458 -457.373333 
L 168.838647 -457.373333 
L 168.021836 -457.373333 
L 167.205025 -457.373333 
L 166.388214 -457.373333 
L 165.571402 -457.373333 
L 164.754591 -457.373333 
L 163.93778 -457.373333 
L 163.120969 -457.373333 
L 162.304157 -457.373333 
L 161.487346 -457.373333 
L 160.670535 -457.373333 
L 159.853724 -457.373333 
L 159.036913 -457.373333 
L 158.220101 -457.373333 
L 157.40329 -457.373333 
L 156.586479 -457.373333 
L 155.769668 -457.373333 
L 154.952856 -457.373333 
L 154.136045 -457.373333 
L 153.319234 -457.373333 
L 152.502423 -457.373333 
L 151.685612 -457.373333 
L 150.8688 -457.373333 
L 150.051989 -457.373333 
L 149.235178 -457.373333 
L 148.418367 -457.373333 
L 147.601555 -457.373333 
L 146.784744 -457.373333 
L 145.967933 -457.373333 
L 145.151122 -457.373333 
L 144.334311 -457.373333 
L 143.517499 -457.373333 
L 142.700688 -457.373333 
L 141.883877 -457.373333 
L 141.067066 -457.373333 
L 140.250255 -457.373333 
L 139.433443 -457.373333 
L 138.616632 -457.373333 
L 137.799821 -457.373333 
L 136.98301 -457.373333 
L 136.166198 -457.373333 
L 135.349387 -457.373333 
L 134.532576 -457.373333 
L 133.715765 -457.373333 
L 132.898954 -457.373333 
L 132.082142 -457.373333 
L 131.265331 -457.373333 
L 130.44852 -457.373333 
L 129.631709 -457.373333 
L 128.814897 -457.373333 
L 127.998086 -457.373333 
L 127.181275 -457.373333 
L 126.364464 -457.373333 
L 125.547653 -457.373333 
L 124.730841 -457.373333 
L 123.91403 -457.373333 
L 123.097219 -457.373333 
L 122.280408 -457.373333 
L 121.463596 -457.373333 
L 120.646785 -457.373333 
L 119.829974 -457.373333 
L 119.013163 -457.373333 
L 118.196352 -457.373333 
L 117.37954 -457.373333 
L 116.562729 -457.373333 
L 115.745918 -457.373333 
L 114.929107 -457.373333 
L 114.112296 -457.373333 
L 113.295484 -457.373333 
L 112.478673 -457.373333 
L 111.661862 -457.373333 
L 110.845051 -457.373333 
L 110.028239 -457.373333 
L 109.211428 -457.373333 
L 108.394617 -457.373333 
L 107.577806 -457.373333 
L 106.760995 -457.373333 
L 105.944183 -457.373333 
L 105.127372 -457.373333 
L 104.310561 -457.373333 
L 103.49375 -457.373333 
L 102.676938 -457.373333 
L 101.860127 -457.373333 
L 101.043316 -457.373333 
L 100.226505 -457.373333 
L 99.409694 -457.373333 
L 98.592882 -457.373333 
L 97.776071 -457.373333 
L 96.95926 -457.373333 
L 96.142449 -457.373333 
L 95.325638 -457.373333 
L 94.508826 -457.373333 
L 93.692015 -457.373333 
L 92.875204 -457.373333 
L 92.058393 -457.373333 
L 91.241581 -457.373333 
L 90.42477 -457.373333 
L 89.607959 -457.373333 
L 88.791148 -457.373333 
L 87.974337 -457.373333 
L 87.157525 -457.373333 
L 86.340714 -457.373333 
L 85.523903 -457.373333 
L 84.707092 -457.373333 
L 83.89028 -457.373333 
L 83.073469 -457.373333 
L 82.256658 -457.373333 
L 81.439847 -457.373333 
L 80.623036 -457.373333 
L 79.806224 -457.373333 
L 78.989413 -457.373333 
L 78.172602 -457.373333 
L 77.355791 -457.373333 
L 76.538979 -457.373333 
L 75.722168 -457.373333 
L 74.905357 -457.373333 
L 74.088546 -457.373333 
L 73.271735 -457.373333 
L 72.454923 -457.373333 
L 71.638112 -457.373333 
L 70.821301 -457.373333 
L 70.00449 -457.373333 
L 69.187679 -457.373333 
L 68.370867 -457.373333 
L 67.554056 -457.373333 
L 66.737245 -457.373333 
L 65.920434 -457.373333 
L 65.103622 -457.373333 
L 64.286811 -457.373333 
L 63.47 -457.373333 
z
" style="stroke: #ff0000; stroke-opacity: 0.4"/>
    </defs>
    <g clip-path="url(#p6a741434fb)">
     <use xlink:href="#ma9bba78b3c" x="0" y="648" style="fill: #ff0000; fill-opacity: 0.4; stroke: #ff0000; stroke-opacity: 0.4"/>
    </g>
   </g>
   <g id="matplotlib.axis_1">
    <g id="xtick_1">
     <g id="line2d_1">
      <defs>
       <path id="mb2d1aa0108" d="M 0 0 
L 0 3.5 
" style="stroke: #000000; stroke-width: 0.8"/>
      </defs>
      <g>
       <use xlink:href="#mb2d1aa0108" x="63.47" y="190.626667" style="stroke: #000000; stroke-width: 0.8"/>
      </g>
     </g>
     <g id="text_1">
      <!-- 0 -->
      <g transform="translate(60.28875 205.225104) scale(0.1 -0.1)">
       <defs>
        <path id="DejaVuSans-30" d="M 2034 4250 
Q 1547 4250 1301 3770 
Q 1056 3291 1056 2328 
Q 1056 1369 1301 889 
Q 1547 409 2034 409 
Q 2525 409 2770 889 
Q 3016 1369 3016 2328 
Q 3016 3291 2770 3770 
Q 2525 4250 2034 4250 
z
M 2034 4750 
Q 2819 4750 3233 4129 
Q 3647 3509 3647 2328 
Q 3647 1150 3233 529 
Q 2819 -91 2034 -91 
Q 1250 -91 836 529 
Q 422 1150 422 2328 
Q 422 3509 836 4129 
Q 1250 4750 2034 4750 
z
" transform="scale(0.015625)"/>
       </defs>
       <use xlink:href="#DejaVuSans-30"/>
      </g>
     </g>
    </g>
    <g id="xtick_2">
     <g id="line2d_2">
      <g>
       <use xlink:href="#mb2d1aa0108" x="104.310561" y="190.626667" style="stroke: #000000; stroke-width: 0.8"/>
      </g>
     </g>
     <g id="text_2">
      <!-- 50 -->
      <g transform="translate(97.948061 205.225104) scale(0.1 -0.1)">
       <defs>
        <path id="DejaVuSans-35" d="M 691 4666 
L 3169 4666 
L 3169 4134 
L 1269 4134 
L 1269 2991 
Q 1406 3038 1543 3061 
Q 1681 3084 1819 3084 
Q 2600 3084 3056 2656 
Q 3513 2228 3513 1497 
Q 3513 744 3044 326 
Q 2575 -91 1722 -91 
Q 1428 -91 1123 -41 
Q 819 9 494 109 
L 494 744 
Q 775 591 1075 516 
Q 1375 441 1709 441 
Q 2250 441 2565 725 
Q 2881 1009 2881 1497 
Q 2881 1984 2565 2268 
Q 2250 2553 1709 2553 
Q 1456 2553 1204 2497 
Q 953 2441 691 2322 
L 691 4666 
z
" transform="scale(0.015625)"/>
       </defs>
       <use xlink:href="#DejaVuSans-35"/>
       <use xlink:href="#DejaVuSans-30" x="63.623047"/>
      </g>
     </g>
    </g>
    <g id="xtick_3">
     <g id="line2d_3">
      <g>
       <use xlink:href="#mb2d1aa0108" x="145.151122" y="190.626667" style="stroke: #000000; stroke-width: 0.8"/>
      </g>
     </g>
     <g id="text_3">
      <!-- 100 -->
      <g transform="translate(135.607372 205.225104) scale(0.1 -0.1)">
       <defs>
        <path id="DejaVuSans-31" d="M 794 531 
L 1825 531 
L 1825 4091 
L 703 3866 
L 703 4441 
L 1819 4666 
L 2450 4666 
L 2450 531 
L 3481 531 
L 3481 0 
L 794 0 
L 794 531 
z
" transform="scale(0.015625)"/>
       </defs>
       <use xlink:href="#DejaVuSans-31"/>
       <use xlink:href="#DejaVuSans-30" x="63.623047"/>
       <use xlink:href="#DejaVuSans-30" x="127.246094"/>
      </g>
     </g>
    </g>
    <g id="xtick_4">
     <g id="line2d_4">
      <g>
       <use xlink:href="#mb2d1aa0108" x="185.991683" y="190.626667" style="stroke: #000000; stroke-width: 0.8"/>
      </g>
     </g>
     <g id="text_4">
      <!-- 150 -->
      <g transform="translate(176.447933 205.225104) scale(0.1 -0.1)">
       <use xlink:href="#DejaVuSans-31"/>
       <use xlink:href="#DejaVuSans-35" x="63.623047"/>
       <use xlink:href="#DejaVuSans-30" x="127.246094"/>
      </g>
     </g>
    </g>
    <g id="xtick_5">
     <g id="line2d_5">
      <g>
       <use xlink:href="#mb2d1aa0108" x="226.832244" y="190.626667" style="stroke: #000000; stroke-width: 0.8"/>
      </g>
     </g>
     <g id="text_5">
      <!-- 200 -->
      <g transform="translate(217.288494 205.225104) scale(0.1 -0.1)">
       <defs>
        <path id="DejaVuSans-32" d="M 1228 531 
L 3431 531 
L 3431 0 
L 469 0 
L 469 531 
Q 828 903 1448 1529 
Q 2069 2156 2228 2338 
Q 2531 2678 2651 2914 
Q 2772 3150 2772 3378 
Q 2772 3750 2511 3984 
Q 2250 4219 1831 4219 
Q 1534 4219 1204 4116 
Q 875 4013 500 3803 
L 500 4441 
Q 881 4594 1212 4672 
Q 1544 4750 1819 4750 
Q 2544 4750 2975 4387 
Q 3406 4025 3406 3419 
Q 3406 3131 3298 2873 
Q 3191 2616 2906 2266 
Q 2828 2175 2409 1742 
Q 1991 1309 1228 531 
z
" transform="scale(0.015625)"/>
       </defs>
       <use xlink:href="#DejaVuSans-32"/>
       <use xlink:href="#DejaVuSans-30" x="63.623047"/>
       <use xlink:href="#DejaVuSans-30" x="127.246094"/>
      </g>
     </g>
    </g>
    <g id="xtick_6">
     <g id="line2d_6">
      <g>
       <use xlink:href="#mb2d1aa0108" x="267.672805" y="190.626667" style="stroke: #000000; stroke-width: 0.8"/>
      </g>
     </g>
     <g id="text_6">
      <!-- 250 -->
      <g transform="translate(258.129055 205.225104) scale(0.1 -0.1)">
       <use xlink:href="#DejaVuSans-32"/>
       <use xlink:href="#DejaVuSans-35" x="63.623047"/>
       <use xlink:href="#DejaVuSans-30" x="127.246094"/>
      </g>
     </g>
    </g>
   </g>
   <g id="matplotlib.axis_2">
    <g id="ytick_1">
     <g id="line2d_7">
      <defs>
       <path id="mb4ca404763" d="M 0 0 
L -3.5 0 
" style="stroke: #000000; stroke-width: 0.8"/>
      </defs>
      <g>
       <use xlink:href="#mb4ca404763" x="63.47" y="190.626667" style="stroke: #000000; stroke-width: 0.8"/>
      </g>
     </g>
     <g id="text_7">
      <!-- 0 -->
      <g transform="translate(50.1075 194.425885) scale(0.1 -0.1)">
       <use xlink:href="#DejaVuSans-30"/>
      </g>
     </g>
    </g>
    <g id="ytick_2">
     <g id="line2d_8">
      <g>
       <use xlink:href="#mb4ca404763" x="63.47" y="153.600916" style="stroke: #000000; stroke-width: 0.8"/>
      </g>
     </g>
     <g id="text_8">
      <!-- 5000 -->
      <g transform="translate(31.02 157.400135) scale(0.1 -0.1)">
       <use xlink:href="#DejaVuSans-35"/>
       <use xlink:href="#DejaVuSans-30" x="63.623047"/>
       <use xlink:href="#DejaVuSans-30" x="127.246094"/>
       <use xlink:href="#DejaVuSans-30" x="190.869141"/>
      </g>
     </g>
    </g>
    <g id="ytick_3">
     <g id="line2d_9">
      <g>
       <use xlink:href="#mb4ca404763" x="63.47" y="116.575165" style="stroke: #000000; stroke-width: 0.8"/>
      </g>
     </g>
     <g id="text_9">
      <!-- 10000 -->
      <g transform="translate(24.6575 120.374384) scale(0.1 -0.1)">
       <use xlink:href="#DejaVuSans-31"/>
       <use xlink:href="#DejaVuSans-30" x="63.623047"/>
       <use xlink:href="#DejaVuSans-30" x="127.246094"/>
       <use xlink:href="#DejaVuSans-30" x="190.869141"/>
       <use xlink:href="#DejaVuSans-30" x="254.492188"/>
      </g>
     </g>
    </g>
    <g id="ytick_4">
     <g id="line2d_10">
      <g>
       <use xlink:href="#mb4ca404763" x="63.47" y="79.549414" style="stroke: #000000; stroke-width: 0.8"/>
      </g>
     </g>
     <g id="text_10">
      <!-- 15000 -->
      <g transform="translate(24.6575 83.348633) scale(0.1 -0.1)">
       <use xlink:href="#DejaVuSans-31"/>
       <use xlink:href="#DejaVuSans-35" x="63.623047"/>
       <use xlink:href="#DejaVuSans-30" x="127.246094"/>
       <use xlink:href="#DejaVuSans-30" x="190.869141"/>
       <use xlink:href="#DejaVuSans-30" x="254.492188"/>
      </g>
     </g>
    </g>
    <g id="ytick_5">
     <g id="line2d_11">
      <g>
       <use xlink:href="#mb4ca404763" x="63.47" y="42.523663" style="stroke: #000000; stroke-width: 0.8"/>
      </g>
     </g>
     <g id="text_11">
      <!-- 20000 -->
      <g transform="translate(24.6575 46.322882) scale(0.1 -0.1)">
       <use xlink:href="#DejaVuSans-32"/>
       <use xlink:href="#DejaVuSans-30" x="63.623047"/>
       <use xlink:href="#DejaVuSans-30" x="127.246094"/>
       <use xlink:href="#DejaVuSans-30" x="190.869141"/>
       <use xlink:href="#DejaVuSans-30" x="254.492188"/>
      </g>
     </g>
    </g>
    <g id="text_12">
     <!-- Pixel Frequency -->
     <g transform="translate(18.577812 139.69224) rotate(-90) scale(0.1 -0.1)">
      <defs>
       <path id="DejaVuSans-50" d="M 1259 4147 
L 1259 2394 
L 2053 2394 
Q 2494 2394 2734 2622 
Q 2975 2850 2975 3272 
Q 2975 3691 2734 3919 
Q 2494 4147 2053 4147 
L 1259 4147 
z
M 628 4666 
L 2053 4666 
Q 2838 4666 3239 4311 
Q 3641 3956 3641 3272 
Q 3641 2581 3239 2228 
Q 2838 1875 2053 1875 
L 1259 1875 
L 1259 0 
L 628 0 
L 628 4666 
z
" transform="scale(0.015625)"/>
       <path id="DejaVuSans-69" d="M 603 3500 
L 1178 3500 
L 1178 0 
L 603 0 
L 603 3500 
z
M 603 4863 
L 1178 4863 
L 1178 4134 
L 603 4134 
L 603 4863 
z
" transform="scale(0.015625)"/>
       <path id="DejaVuSans-78" d="M 3513 3500 
L 2247 1797 
L 3578 0 
L 2900 0 
L 1881 1375 
L 863 0 
L 184 0 
L 1544 1831 
L 300 3500 
L 978 3500 
L 1906 2253 
L 2834 3500 
L 3513 3500 
z
" transform="scale(0.015625)"/>
       <path id="DejaVuSans-65" d="M 3597 1894 
L 3597 1613 
L 953 1613 
Q 991 1019 1311 708 
Q 1631 397 2203 397 
Q 2534 397 2845 478 
Q 3156 559 3463 722 
L 3463 178 
Q 3153 47 2828 -22 
Q 2503 -91 2169 -91 
Q 1331 -91 842 396 
Q 353 884 353 1716 
Q 353 2575 817 3079 
Q 1281 3584 2069 3584 
Q 2775 3584 3186 3129 
Q 3597 2675 3597 1894 
z
M 3022 2063 
Q 3016 2534 2758 2815 
Q 2500 3097 2075 3097 
Q 1594 3097 1305 2825 
Q 1016 2553 972 2059 
L 3022 2063 
z
" transform="scale(0.015625)"/>
       <path id="DejaVuSans-6c" d="M 603 4863 
L 1178 4863 
L 1178 0 
L 603 0 
L 603 4863 
z
" transform="scale(0.015625)"/>
       <path id="DejaVuSans-20" transform="scale(0.015625)"/>
       <path id="DejaVuSans-46" d="M 628 4666 
L 3309 4666 
L 3309 4134 
L 1259 4134 
L 1259 2759 
L 3109 2759 
L 3109 2228 
L 1259 2228 
L 1259 0 
L 628 0 
L 628 4666 
z
" transform="scale(0.015625)"/>
       <path id="DejaVuSans-72" d="M 2631 2963 
Q 2534 3019 2420 3045 
Q 2306 3072 2169 3072 
Q 1681 3072 1420 2755 
Q 1159 2438 1159 1844 
L 1159 0 
L 581 0 
L 581 3500 
L 1159 3500 
L 1159 2956 
Q 1341 3275 1631 3429 
Q 1922 3584 2338 3584 
Q 2397 3584 2469 3576 
Q 2541 3569 2628 3553 
L 2631 2963 
z
" transform="scale(0.015625)"/>
       <path id="DejaVuSans-71" d="M 947 1747 
Q 947 1113 1208 752 
Q 1469 391 1925 391 
Q 2381 391 2643 752 
Q 2906 1113 2906 1747 
Q 2906 2381 2643 2742 
Q 2381 3103 1925 3103 
Q 1469 3103 1208 2742 
Q 947 2381 947 1747 
z
M 2906 525 
Q 2725 213 2448 61 
Q 2172 -91 1784 -91 
Q 1150 -91 751 415 
Q 353 922 353 1747 
Q 353 2572 751 3078 
Q 1150 3584 1784 3584 
Q 2172 3584 2448 3432 
Q 2725 3281 2906 2969 
L 2906 3500 
L 3481 3500 
L 3481 -1331 
L 2906 -1331 
L 2906 525 
z
" transform="scale(0.015625)"/>
       <path id="DejaVuSans-75" d="M 544 1381 
L 544 3500 
L 1119 3500 
L 1119 1403 
Q 1119 906 1312 657 
Q 1506 409 1894 409 
Q 2359 409 2629 706 
Q 2900 1003 2900 1516 
L 2900 3500 
L 3475 3500 
L 3475 0 
L 2900 0 
L 2900 538 
Q 2691 219 2414 64 
Q 2138 -91 1772 -91 
Q 1169 -91 856 284 
Q 544 659 544 1381 
z
M 1991 3584 
L 1991 3584 
z
" transform="scale(0.015625)"/>
       <path id="DejaVuSans-6e" d="M 3513 2113 
L 3513 0 
L 2938 0 
L 2938 2094 
Q 2938 2591 2744 2837 
Q 2550 3084 2163 3084 
Q 1697 3084 1428 2787 
Q 1159 2491 1159 1978 
L 1159 0 
L 581 0 
L 581 3500 
L 1159 3500 
L 1159 2956 
Q 1366 3272 1645 3428 
Q 1925 3584 2291 3584 
Q 2894 3584 3203 3211 
Q 3513 2838 3513 2113 
z
" transform="scale(0.015625)"/>
       <path id="DejaVuSans-63" d="M 3122 3366 
L 3122 2828 
Q 2878 2963 2633 3030 
Q 2388 3097 2138 3097 
Q 1578 3097 1268 2742 
Q 959 2388 959 1747 
Q 959 1106 1268 751 
Q 1578 397 2138 397 
Q 2388 397 2633 464 
Q 2878 531 3122 666 
L 3122 134 
Q 2881 22 2623 -34 
Q 2366 -91 2075 -91 
Q 1284 -91 818 406 
Q 353 903 353 1747 
Q 353 2603 823 3093 
Q 1294 3584 2113 3584 
Q 2378 3584 2631 3529 
Q 2884 3475 3122 3366 
z
" transform="scale(0.015625)"/>
       <path id="DejaVuSans-79" d="M 2059 -325 
Q 1816 -950 1584 -1140 
Q 1353 -1331 966 -1331 
L 506 -1331 
L 506 -850 
L 844 -850 
Q 1081 -850 1212 -737 
Q 1344 -625 1503 -206 
L 1606 56 
L 191 3500 
L 800 3500 
L 1894 763 
L 2988 3500 
L 3597 3500 
L 2059 -325 
z
" transform="scale(0.015625)"/>
      </defs>
      <use xlink:href="#DejaVuSans-50"/>
      <use xlink:href="#DejaVuSans-69" x="58.052734"/>
      <use xlink:href="#DejaVuSans-78" x="85.835938"/>
      <use xlink:href="#DejaVuSans-65" x="141.890625"/>
      <use xlink:href="#DejaVuSans-6c" x="203.414062"/>
      <use xlink:href="#DejaVuSans-20" x="231.197266"/>
      <use xlink:href="#DejaVuSans-46" x="262.984375"/>
      <use xlink:href="#DejaVuSans-72" x="313.253906"/>
      <use xlink:href="#DejaVuSans-65" x="352.117188"/>
      <use xlink:href="#DejaVuSans-71" x="413.640625"/>
      <use xlink:href="#DejaVuSans-75" x="477.117188"/>
      <use xlink:href="#DejaVuSans-65" x="540.496094"/>
      <use xlink:href="#DejaVuSans-6e" x="602.019531"/>
      <use xlink:href="#DejaVuSans-63" x="665.398438"/>
      <use xlink:href="#DejaVuSans-79" x="720.378906"/>
     </g>
    </g>
   </g>
   <g id="line2d_12">
    <path d="M 63.47 190.626667 
L 194.159795 190.552615 
L 196.610229 190.5304 
L 203.96153 190.604451 
L 205.595152 190.611856 
L 216.213698 190.626667 
L 235.817167 190.522995 
L 243.985279 190.182358 
L 246.435713 190.234194 
L 248.886147 190.004634 
L 249.702958 189.886152 
L 250.519769 190.093496 
L 251.33658 189.834316 
L 253.787014 189.478868 
L 254.603825 189.204878 
L 255.420636 189.197473 
L 256.237448 188.945698 
L 257.054259 189.034559 
L 257.87107 187.923787 
L 258.687881 188.419932 
L 259.504692 188.767974 
L 261.138315 188.582845 
L 261.955126 188.257019 
L 262.771937 187.005548 
L 263.588748 187.849735 
L 264.40556 188.153347 
L 265.222371 187.775684 
L 266.855993 185.820724 
L 267.672805 183.828739 
L 268.489616 180.459395 
L 269.306427 171.884232 
L 270.123238 152.564195 
L 270.940049 108.118484 
L 271.756861 28.03919 
L 271.756861 28.03919 
" clip-path="url(#p6a741434fb)" style="fill: none; stroke: #ff0000; stroke-width: 1.5; stroke-linecap: square"/>
   </g>
   <g id="patch_3">
    <path d="M 63.47 190.626667 
L 63.47 10.8 
" style="fill: none; stroke: #000000; stroke-width: 0.8; stroke-linejoin: miter; stroke-linecap: square"/>
   </g>
   <g id="patch_4">
    <path d="M 272.573672 190.626667 
L 272.573672 10.8 
" style="fill: none; stroke: #000000; stroke-width: 0.8; stroke-linejoin: miter; stroke-linecap: square"/>
   </g>
   <g id="patch_5">
    <path d="M 63.47 190.626667 
L 272.573672 190.626667 
" style="fill: none; stroke: #000000; stroke-width: 0.8; stroke-linejoin: miter; stroke-linecap: square"/>
   </g>
   <g id="patch_6">
    <path d="M 63.47 10.8 
L 272.573672 10.8 
" style="fill: none; stroke: #000000; stroke-width: 0.8; stroke-linejoin: miter; stroke-linecap: square"/>
   </g>
   <g id="text_13">
    <!-- Red Channel  -->
    <g transform="translate(192.880547 24.8) scale(0.12 -0.12)">
     <defs>
      <path id="DejaVuSans-52" d="M 2841 2188 
Q 3044 2119 3236 1894 
Q 3428 1669 3622 1275 
L 4263 0 
L 3584 0 
L 2988 1197 
Q 2756 1666 2539 1819 
Q 2322 1972 1947 1972 
L 1259 1972 
L 1259 0 
L 628 0 
L 628 4666 
L 2053 4666 
Q 2853 4666 3247 4331 
Q 3641 3997 3641 3322 
Q 3641 2881 3436 2590 
Q 3231 2300 2841 2188 
z
M 1259 4147 
L 1259 2491 
L 2053 2491 
Q 2509 2491 2742 2702 
Q 2975 2913 2975 3322 
Q 2975 3731 2742 3939 
Q 2509 4147 2053 4147 
L 1259 4147 
z
" transform="scale(0.015625)"/>
      <path id="DejaVuSans-64" d="M 2906 2969 
L 2906 4863 
L 3481 4863 
L 3481 0 
L 2906 0 
L 2906 525 
Q 2725 213 2448 61 
Q 2172 -91 1784 -91 
Q 1150 -91 751 415 
Q 353 922 353 1747 
Q 353 2572 751 3078 
Q 1150 3584 1784 3584 
Q 2172 3584 2448 3432 
Q 2725 3281 2906 2969 
z
M 947 1747 
Q 947 1113 1208 752 
Q 1469 391 1925 391 
Q 2381 391 2643 752 
Q 2906 1113 2906 1747 
Q 2906 2381 2643 2742 
Q 2381 3103 1925 3103 
Q 1469 3103 1208 2742 
Q 947 2381 947 1747 
z
" transform="scale(0.015625)"/>
      <path id="DejaVuSans-43" d="M 4122 4306 
L 4122 3641 
Q 3803 3938 3442 4084 
Q 3081 4231 2675 4231 
Q 1875 4231 1450 3742 
Q 1025 3253 1025 2328 
Q 1025 1406 1450 917 
Q 1875 428 2675 428 
Q 3081 428 3442 575 
Q 3803 722 4122 1019 
L 4122 359 
Q 3791 134 3420 21 
Q 3050 -91 2638 -91 
Q 1578 -91 968 557 
Q 359 1206 359 2328 
Q 359 3453 968 4101 
Q 1578 4750 2638 4750 
Q 3056 4750 3426 4639 
Q 3797 4528 4122 4306 
z
" transform="scale(0.015625)"/>
      <path id="DejaVuSans-68" d="M 3513 2113 
L 3513 0 
L 2938 0 
L 2938 2094 
Q 2938 2591 2744 2837 
Q 2550 3084 2163 3084 
Q 1697 3084 1428 2787 
Q 1159 2491 1159 1978 
L 1159 0 
L 581 0 
L 581 4863 
L 1159 4863 
L 1159 2956 
Q 1366 3272 1645 3428 
Q 1925 3584 2291 3584 
Q 2894 3584 3203 3211 
Q 3513 2838 3513 2113 
z
" transform="scale(0.015625)"/>
      <path id="DejaVuSans-61" d="M 2194 1759 
Q 1497 1759 1228 1600 
Q 959 1441 959 1056 
Q 959 750 1161 570 
Q 1363 391 1709 391 
Q 2188 391 2477 730 
Q 2766 1069 2766 1631 
L 2766 1759 
L 2194 1759 
z
M 3341 1997 
L 3341 0 
L 2766 0 
L 2766 531 
Q 2569 213 2275 61 
Q 1981 -91 1556 -91 
Q 1019 -91 701 211 
Q 384 513 384 1019 
Q 384 1609 779 1909 
Q 1175 2209 1959 2209 
L 2766 2209 
L 2766 2266 
Q 2766 2663 2505 2880 
Q 2244 3097 1772 3097 
Q 1472 3097 1187 3025 
Q 903 2953 641 2809 
L 641 3341 
Q 956 3463 1253 3523 
Q 1550 3584 1831 3584 
Q 2591 3584 2966 3190 
Q 3341 2797 3341 1997 
z
" transform="scale(0.015625)"/>
     </defs>
     <use xlink:href="#DejaVuSans-52"/>
     <use xlink:href="#DejaVuSans-65" x="64.982422"/>
     <use xlink:href="#DejaVuSans-64" x="126.505859"/>
     <use xlink:href="#DejaVuSans-20" x="189.982422"/>
     <use xlink:href="#DejaVuSans-43" x="221.769531"/>
     <use xlink:href="#DejaVuSans-68" x="291.59375"/>
     <use xlink:href="#DejaVuSans-61" x="354.972656"/>
     <use xlink:href="#DejaVuSans-6e" x="416.251953"/>
     <use xlink:href="#DejaVuSans-6e" x="479.630859"/>
     <use xlink:href="#DejaVuSans-65" x="543.009766"/>
     <use xlink:href="#DejaVuSans-6c" x="604.533203"/>
     <use xlink:href="#DejaVuSans-20" x="632.316406"/>
    </g>
   </g>
  </g>
  <g id="axes_2">
   <g id="patch_7">
    <path d="M 63.47 398.333333 
L 272.573672 398.333333 
L 272.573672 218.506667 
L 63.47 218.506667 
z
" style="fill: #ffffff"/>
   </g>
   <g id="PolyCollection_2">
    <defs>
     <path id="md2e498c216" d="M 63.47 -249.666667 
L 63.47 -249.666667 
L 64.286811 -249.666667 
L 65.103622 -249.666667 
L 65.920434 -249.666667 
L 66.737245 -249.666667 
L 67.554056 -249.666667 
L 68.370867 -249.666667 
L 69.187679 -249.666667 
L 70.00449 -249.666667 
L 70.821301 -249.666667 
L 71.638112 -249.666667 
L 72.454923 -249.666667 
L 73.271735 -249.666667 
L 74.088546 -249.666667 
L 74.905357 -249.666667 
L 75.722168 -249.666667 
L 76.538979 -249.666667 
L 77.355791 -249.666667 
L 78.172602 -249.666667 
L 78.989413 -249.666667 
L 79.806224 -249.666667 
L 80.623036 -249.666667 
L 81.439847 -249.666667 
L 82.256658 -249.666667 
L 83.073469 -249.666667 
L 83.89028 -249.666667 
L 84.707092 -249.666667 
L 85.523903 -249.666667 
L 86.340714 -249.666667 
L 87.157525 -249.666667 
L 87.974337 -249.666667 
L 88.791148 -249.666667 
L 89.607959 -249.666667 
L 90.42477 -249.666667 
L 91.241581 -249.666667 
L 92.058393 -249.666667 
L 92.875204 -249.666667 
L 93.692015 -249.666667 
L 94.508826 -249.666667 
L 95.325638 -249.666667 
L 96.142449 -249.666667 
L 96.95926 -249.666667 
L 97.776071 -249.666667 
L 98.592882 -249.666667 
L 99.409694 -249.666667 
L 100.226505 -249.666667 
L 101.043316 -249.666667 
L 101.860127 -249.666667 
L 102.676938 -249.666667 
L 103.49375 -249.666667 
L 104.310561 -249.666667 
L 105.127372 -249.666667 
L 105.944183 -249.666667 
L 106.760995 -249.666667 
L 107.577806 -249.666667 
L 108.394617 -249.666667 
L 109.211428 -249.666667 
L 110.028239 -249.666667 
L 110.845051 -249.666667 
L 111.661862 -249.666667 
L 112.478673 -249.666667 
L 113.295484 -249.666667 
L 114.112296 -249.666667 
L 114.929107 -249.666667 
L 115.745918 -249.666667 
L 116.562729 -249.666667 
L 117.37954 -249.666667 
L 118.196352 -249.666667 
L 119.013163 -249.666667 
L 119.829974 -249.666667 
L 120.646785 -249.666667 
L 121.463596 -249.666667 
L 122.280408 -249.666667 
L 123.097219 -249.666667 
L 123.91403 -249.666667 
L 124.730841 -249.666667 
L 125.547653 -249.666667 
L 126.364464 -249.666667 
L 127.181275 -249.666667 
L 127.998086 -249.666667 
L 128.814897 -249.666667 
L 129.631709 -249.666667 
L 130.44852 -249.666667 
L 131.265331 -249.666667 
L 132.082142 -249.666667 
L 132.898954 -249.666667 
L 133.715765 -249.666667 
L 134.532576 -249.666667 
L 135.349387 -249.666667 
L 136.166198 -249.666667 
L 136.98301 -249.666667 
L 137.799821 -249.666667 
L 138.616632 -249.666667 
L 139.433443 -249.666667 
L 140.250255 -249.666667 
L 141.067066 -249.666667 
L 141.883877 -249.666667 
L 142.700688 -249.666667 
L 143.517499 -249.666667 
L 144.334311 -249.666667 
L 145.151122 -249.666667 
L 145.967933 -249.666667 
L 146.784744 -249.666667 
L 147.601555 -249.666667 
L 148.418367 -249.666667 
L 149.235178 -249.666667 
L 150.051989 -249.666667 
L 150.8688 -249.666667 
L 151.685612 -249.666667 
L 152.502423 -249.666667 
L 153.319234 -249.666667 
L 154.136045 -249.666667 
L 154.952856 -249.666667 
L 155.769668 -249.666667 
L 156.586479 -249.666667 
L 157.40329 -249.666667 
L 158.220101 -249.666667 
L 159.036913 -249.666667 
L 159.853724 -249.666667 
L 160.670535 -249.666667 
L 161.487346 -249.666667 
L 162.304157 -249.666667 
L 163.120969 -249.666667 
L 163.93778 -249.666667 
L 164.754591 -249.666667 
L 165.571402 -249.666667 
L 166.388214 -249.666667 
L 167.205025 -249.666667 
L 168.021836 -249.666667 
L 168.838647 -249.666667 
L 169.655458 -249.666667 
L 170.47227 -249.666667 
L 171.289081 -249.666667 
L 172.105892 -249.666667 
L 172.922703 -249.666667 
L 173.739514 -249.666667 
L 174.556326 -249.666667 
L 175.373137 -249.666667 
L 176.189948 -249.666667 
L 177.006759 -249.666667 
L 177.823571 -249.666667 
L 178.640382 -249.666667 
L 179.457193 -249.666667 
L 180.274004 -249.666667 
L 181.090815 -249.674072 
L 181.907627 -249.674072 
L 182.724438 -249.674072 
L 183.541249 -249.674072 
L 184.35806 -249.711098 
L 185.174872 -249.718503 
L 185.991683 -249.718503 
L 186.808494 -249.688882 
L 187.625305 -249.696287 
L 188.442116 -249.674072 
L 189.258928 -249.703692 
L 190.075739 -249.711098 
L 190.89255 -249.688882 
L 191.709361 -249.733313 
L 192.526172 -249.696287 
L 193.342984 -249.785149 
L 194.159795 -249.799959 
L 194.976606 -249.777744 
L 195.793417 -249.777744 
L 196.610229 -249.777744 
L 197.42704 -249.740718 
L 198.243851 -249.770339 
L 199.060662 -249.703692 
L 199.877473 -249.703692 
L 200.694285 -249.681477 
L 201.511096 -249.696287 
L 202.327907 -249.674072 
L 203.144718 -249.703692 
L 203.96153 -249.711098 
L 204.778341 -249.688882 
L 205.595152 -249.711098 
L 206.411963 -249.688882 
L 207.228774 -249.718503 
L 208.045586 -249.725908 
L 208.862397 -249.688882 
L 209.679208 -249.681477 
L 210.496019 -249.666667 
L 211.312831 -249.681477 
L 212.129642 -249.666667 
L 212.946453 -249.666667 
L 213.763264 -249.666667 
L 214.580075 -249.666667 
L 215.396887 -249.666667 
L 216.213698 -249.666667 
L 217.030509 -249.666667 
L 217.84732 -249.674072 
L 218.664131 -249.674072 
L 219.480943 -249.666667 
L 220.297754 -249.666667 
L 221.114565 -249.674072 
L 221.931376 -249.666667 
L 222.748188 -249.666667 
L 223.564999 -249.681477 
L 224.38181 -249.681477 
L 225.198621 -249.688882 
L 226.015432 -249.674072 
L 226.832244 -249.681477 
L 227.649055 -249.696287 
L 228.465866 -249.688882 
L 229.282677 -249.740718 
L 230.099489 -249.740718 
L 230.9163 -249.696287 
L 231.733111 -249.733313 
L 232.549922 -249.748123 
L 233.366733 -249.762934 
L 234.183545 -249.799959 
L 235.000356 -249.777744 
L 235.817167 -249.866606 
L 236.633978 -249.851795 
L 237.450789 -249.881416 
L 238.267601 -249.874011 
L 239.084412 -249.940657 
L 239.901223 -250.014709 
L 240.718034 -249.962873 
L 241.534846 -249.933252 
L 242.351657 -249.911037 
L 243.168468 -250.036924 
L 243.985279 -249.940657 
L 244.80209 -249.992493 
L 245.618902 -249.955468 
L 246.435713 -249.955468 
L 247.252524 -249.918442 
L 248.069335 -249.985088 
L 248.886147 -249.962873 
L 249.702958 -249.977683 
L 250.519769 -250.036924 
L 251.33658 -250.125786 
L 252.153391 -250.036924 
L 252.970203 -250.118381 
L 253.787014 -250.259079 
L 254.603825 -250.273889 
L 255.420636 -250.229458 
L 256.237448 -250.399777 
L 257.054259 -250.59231 
L 257.87107 -251.369851 
L 258.687881 -250.762629 
L 259.504692 -250.673767 
L 260.321504 -250.918137 
L 261.138315 -251.214343 
L 261.955126 -251.547575 
L 262.771937 -252.621322 
L 263.588748 -251.399472 
L 264.40556 -251.406877 
L 265.222371 -251.488334 
L 266.039182 -252.139987 
L 266.855993 -252.858286 
L 267.672805 -254.0283 
L 268.489616 -257.094032 
L 269.306427 -264.484372 
L 270.123238 -283.434151 
L 270.940049 -346.118748 
L 271.756861 -429.493333 
L 271.756861 -249.666667 
L 271.756861 -249.666667 
L 270.940049 -249.666667 
L 270.123238 -249.666667 
L 269.306427 -249.666667 
L 268.489616 -249.666667 
L 267.672805 -249.666667 
L 266.855993 -249.666667 
L 266.039182 -249.666667 
L 265.222371 -249.666667 
L 264.40556 -249.666667 
L 263.588748 -249.666667 
L 262.771937 -249.666667 
L 261.955126 -249.666667 
L 261.138315 -249.666667 
L 260.321504 -249.666667 
L 259.504692 -249.666667 
L 258.687881 -249.666667 
L 257.87107 -249.666667 
L 257.054259 -249.666667 
L 256.237448 -249.666667 
L 255.420636 -249.666667 
L 254.603825 -249.666667 
L 253.787014 -249.666667 
L 252.970203 -249.666667 
L 252.153391 -249.666667 
L 251.33658 -249.666667 
L 250.519769 -249.666667 
L 249.702958 -249.666667 
L 248.886147 -249.666667 
L 248.069335 -249.666667 
L 247.252524 -249.666667 
L 246.435713 -249.666667 
L 245.618902 -249.666667 
L 244.80209 -249.666667 
L 243.985279 -249.666667 
L 243.168468 -249.666667 
L 242.351657 -249.666667 
L 241.534846 -249.666667 
L 240.718034 -249.666667 
L 239.901223 -249.666667 
L 239.084412 -249.666667 
L 238.267601 -249.666667 
L 237.450789 -249.666667 
L 236.633978 -249.666667 
L 235.817167 -249.666667 
L 235.000356 -249.666667 
L 234.183545 -249.666667 
L 233.366733 -249.666667 
L 232.549922 -249.666667 
L 231.733111 -249.666667 
L 230.9163 -249.666667 
L 230.099489 -249.666667 
L 229.282677 -249.666667 
L 228.465866 -249.666667 
L 227.649055 -249.666667 
L 226.832244 -249.666667 
L 226.015432 -249.666667 
L 225.198621 -249.666667 
L 224.38181 -249.666667 
L 223.564999 -249.666667 
L 222.748188 -249.666667 
L 221.931376 -249.666667 
L 221.114565 -249.666667 
L 220.297754 -249.666667 
L 219.480943 -249.666667 
L 218.664131 -249.666667 
L 217.84732 -249.666667 
L 217.030509 -249.666667 
L 216.213698 -249.666667 
L 215.396887 -249.666667 
L 214.580075 -249.666667 
L 213.763264 -249.666667 
L 212.946453 -249.666667 
L 212.129642 -249.666667 
L 211.312831 -249.666667 
L 210.496019 -249.666667 
L 209.679208 -249.666667 
L 208.862397 -249.666667 
L 208.045586 -249.666667 
L 207.228774 -249.666667 
L 206.411963 -249.666667 
L 205.595152 -249.666667 
L 204.778341 -249.666667 
L 203.96153 -249.666667 
L 203.144718 -249.666667 
L 202.327907 -249.666667 
L 201.511096 -249.666667 
L 200.694285 -249.666667 
L 199.877473 -249.666667 
L 199.060662 -249.666667 
L 198.243851 -249.666667 
L 197.42704 -249.666667 
L 196.610229 -249.666667 
L 195.793417 -249.666667 
L 194.976606 -249.666667 
L 194.159795 -249.666667 
L 193.342984 -249.666667 
L 192.526172 -249.666667 
L 191.709361 -249.666667 
L 190.89255 -249.666667 
L 190.075739 -249.666667 
L 189.258928 -249.666667 
L 188.442116 -249.666667 
L 187.625305 -249.666667 
L 186.808494 -249.666667 
L 185.991683 -249.666667 
L 185.174872 -249.666667 
L 184.35806 -249.666667 
L 183.541249 -249.666667 
L 182.724438 -249.666667 
L 181.907627 -249.666667 
L 181.090815 -249.666667 
L 180.274004 -249.666667 
L 179.457193 -249.666667 
L 178.640382 -249.666667 
L 177.823571 -249.666667 
L 177.006759 -249.666667 
L 176.189948 -249.666667 
L 175.373137 -249.666667 
L 174.556326 -249.666667 
L 173.739514 -249.666667 
L 172.922703 -249.666667 
L 172.105892 -249.666667 
L 171.289081 -249.666667 
L 170.47227 -249.666667 
L 169.655458 -249.666667 
L 168.838647 -249.666667 
L 168.021836 -249.666667 
L 167.205025 -249.666667 
L 166.388214 -249.666667 
L 165.571402 -249.666667 
L 164.754591 -249.666667 
L 163.93778 -249.666667 
L 163.120969 -249.666667 
L 162.304157 -249.666667 
L 161.487346 -249.666667 
L 160.670535 -249.666667 
L 159.853724 -249.666667 
L 159.036913 -249.666667 
L 158.220101 -249.666667 
L 157.40329 -249.666667 
L 156.586479 -249.666667 
L 155.769668 -249.666667 
L 154.952856 -249.666667 
L 154.136045 -249.666667 
L 153.319234 -249.666667 
L 152.502423 -249.666667 
L 151.685612 -249.666667 
L 150.8688 -249.666667 
L 150.051989 -249.666667 
L 149.235178 -249.666667 
L 148.418367 -249.666667 
L 147.601555 -249.666667 
L 146.784744 -249.666667 
L 145.967933 -249.666667 
L 145.151122 -249.666667 
L 144.334311 -249.666667 
L 143.517499 -249.666667 
L 142.700688 -249.666667 
L 141.883877 -249.666667 
L 141.067066 -249.666667 
L 140.250255 -249.666667 
L 139.433443 -249.666667 
L 138.616632 -249.666667 
L 137.799821 -249.666667 
L 136.98301 -249.666667 
L 136.166198 -249.666667 
L 135.349387 -249.666667 
L 134.532576 -249.666667 
L 133.715765 -249.666667 
L 132.898954 -249.666667 
L 132.082142 -249.666667 
L 131.265331 -249.666667 
L 130.44852 -249.666667 
L 129.631709 -249.666667 
L 128.814897 -249.666667 
L 127.998086 -249.666667 
L 127.181275 -249.666667 
L 126.364464 -249.666667 
L 125.547653 -249.666667 
L 124.730841 -249.666667 
L 123.91403 -249.666667 
L 123.097219 -249.666667 
L 122.280408 -249.666667 
L 121.463596 -249.666667 
L 120.646785 -249.666667 
L 119.829974 -249.666667 
L 119.013163 -249.666667 
L 118.196352 -249.666667 
L 117.37954 -249.666667 
L 116.562729 -249.666667 
L 115.745918 -249.666667 
L 114.929107 -249.666667 
L 114.112296 -249.666667 
L 113.295484 -249.666667 
L 112.478673 -249.666667 
L 111.661862 -249.666667 
L 110.845051 -249.666667 
L 110.028239 -249.666667 
L 109.211428 -249.666667 
L 108.394617 -249.666667 
L 107.577806 -249.666667 
L 106.760995 -249.666667 
L 105.944183 -249.666667 
L 105.127372 -249.666667 
L 104.310561 -249.666667 
L 103.49375 -249.666667 
L 102.676938 -249.666667 
L 101.860127 -249.666667 
L 101.043316 -249.666667 
L 100.226505 -249.666667 
L 99.409694 -249.666667 
L 98.592882 -249.666667 
L 97.776071 -249.666667 
L 96.95926 -249.666667 
L 96.142449 -249.666667 
L 95.325638 -249.666667 
L 94.508826 -249.666667 
L 93.692015 -249.666667 
L 92.875204 -249.666667 
L 92.058393 -249.666667 
L 91.241581 -249.666667 
L 90.42477 -249.666667 
L 89.607959 -249.666667 
L 88.791148 -249.666667 
L 87.974337 -249.666667 
L 87.157525 -249.666667 
L 86.340714 -249.666667 
L 85.523903 -249.666667 
L 84.707092 -249.666667 
L 83.89028 -249.666667 
L 83.073469 -249.666667 
L 82.256658 -249.666667 
L 81.439847 -249.666667 
L 80.623036 -249.666667 
L 79.806224 -249.666667 
L 78.989413 -249.666667 
L 78.172602 -249.666667 
L 77.355791 -249.666667 
L 76.538979 -249.666667 
L 75.722168 -249.666667 
L 74.905357 -249.666667 
L 74.088546 -249.666667 
L 73.271735 -249.666667 
L 72.454923 -249.666667 
L 71.638112 -249.666667 
L 70.821301 -249.666667 
L 70.00449 -249.666667 
L 69.187679 -249.666667 
L 68.370867 -249.666667 
L 67.554056 -249.666667 
L 66.737245 -249.666667 
L 65.920434 -249.666667 
L 65.103622 -249.666667 
L 64.286811 -249.666667 
L 63.47 -249.666667 
z
" style="stroke: #008000; stroke-opacity: 0.4"/>
    </defs>
    <g clip-path="url(#pe301534099)">
     <use xlink:href="#md2e498c216" x="0" y="648" style="fill: #008000; fill-opacity: 0.4; stroke: #008000; stroke-opacity: 0.4"/>
    </g>
   </g>
   <g id="matplotlib.axis_3">
    <g id="xtick_7">
     <g id="line2d_13">
      <g>
       <use xlink:href="#mb2d1aa0108" x="63.47" y="398.333333" style="stroke: #000000; stroke-width: 0.8"/>
      </g>
     </g>
     <g id="text_14">
      <!-- 0 -->
      <g transform="translate(60.28875 412.931771) scale(0.1 -0.1)">
       <use xlink:href="#DejaVuSans-30"/>
      </g>
     </g>
    </g>
    <g id="xtick_8">
     <g id="line2d_14">
      <g>
       <use xlink:href="#mb2d1aa0108" x="104.310561" y="398.333333" style="stroke: #000000; stroke-width: 0.8"/>
      </g>
     </g>
     <g id="text_15">
      <!-- 50 -->
      <g transform="translate(97.948061 412.931771) scale(0.1 -0.1)">
       <use xlink:href="#DejaVuSans-35"/>
       <use xlink:href="#DejaVuSans-30" x="63.623047"/>
      </g>
     </g>
    </g>
    <g id="xtick_9">
     <g id="line2d_15">
      <g>
       <use xlink:href="#mb2d1aa0108" x="145.151122" y="398.333333" style="stroke: #000000; stroke-width: 0.8"/>
      </g>
     </g>
     <g id="text_16">
      <!-- 100 -->
      <g transform="translate(135.607372 412.931771) scale(0.1 -0.1)">
       <use xlink:href="#DejaVuSans-31"/>
       <use xlink:href="#DejaVuSans-30" x="63.623047"/>
       <use xlink:href="#DejaVuSans-30" x="127.246094"/>
      </g>
     </g>
    </g>
    <g id="xtick_10">
     <g id="line2d_16">
      <g>
       <use xlink:href="#mb2d1aa0108" x="185.991683" y="398.333333" style="stroke: #000000; stroke-width: 0.8"/>
      </g>
     </g>
     <g id="text_17">
      <!-- 150 -->
      <g transform="translate(176.447933 412.931771) scale(0.1 -0.1)">
       <use xlink:href="#DejaVuSans-31"/>
       <use xlink:href="#DejaVuSans-35" x="63.623047"/>
       <use xlink:href="#DejaVuSans-30" x="127.246094"/>
      </g>
     </g>
    </g>
    <g id="xtick_11">
     <g id="line2d_17">
      <g>
       <use xlink:href="#mb2d1aa0108" x="226.832244" y="398.333333" style="stroke: #000000; stroke-width: 0.8"/>
      </g>
     </g>
     <g id="text_18">
      <!-- 200 -->
      <g transform="translate(217.288494 412.931771) scale(0.1 -0.1)">
       <use xlink:href="#DejaVuSans-32"/>
       <use xlink:href="#DejaVuSans-30" x="63.623047"/>
       <use xlink:href="#DejaVuSans-30" x="127.246094"/>
      </g>
     </g>
    </g>
    <g id="xtick_12">
     <g id="line2d_18">
      <g>
       <use xlink:href="#mb2d1aa0108" x="267.672805" y="398.333333" style="stroke: #000000; stroke-width: 0.8"/>
      </g>
     </g>
     <g id="text_19">
      <!-- 250 -->
      <g transform="translate(258.129055 412.931771) scale(0.1 -0.1)">
       <use xlink:href="#DejaVuSans-32"/>
       <use xlink:href="#DejaVuSans-35" x="63.623047"/>
       <use xlink:href="#DejaVuSans-30" x="127.246094"/>
      </g>
     </g>
    </g>
   </g>
   <g id="matplotlib.axis_4">
    <g id="ytick_6">
     <g id="line2d_19">
      <g>
       <use xlink:href="#mb4ca404763" x="63.47" y="398.333333" style="stroke: #000000; stroke-width: 0.8"/>
      </g>
     </g>
     <g id="text_20">
      <!-- 0 -->
      <g transform="translate(50.1075 402.132552) scale(0.1 -0.1)">
       <use xlink:href="#DejaVuSans-30"/>
      </g>
     </g>
    </g>
    <g id="ytick_7">
     <g id="line2d_20">
      <g>
       <use xlink:href="#mb4ca404763" x="63.47" y="361.307582" style="stroke: #000000; stroke-width: 0.8"/>
      </g>
     </g>
     <g id="text_21">
      <!-- 5000 -->
      <g transform="translate(31.02 365.106801) scale(0.1 -0.1)">
       <use xlink:href="#DejaVuSans-35"/>
       <use xlink:href="#DejaVuSans-30" x="63.623047"/>
       <use xlink:href="#DejaVuSans-30" x="127.246094"/>
       <use xlink:href="#DejaVuSans-30" x="190.869141"/>
      </g>
     </g>
    </g>
    <g id="ytick_8">
     <g id="line2d_21">
      <g>
       <use xlink:href="#mb4ca404763" x="63.47" y="324.281832" style="stroke: #000000; stroke-width: 0.8"/>
      </g>
     </g>
     <g id="text_22">
      <!-- 10000 -->
      <g transform="translate(24.6575 328.08105) scale(0.1 -0.1)">
       <use xlink:href="#DejaVuSans-31"/>
       <use xlink:href="#DejaVuSans-30" x="63.623047"/>
       <use xlink:href="#DejaVuSans-30" x="127.246094"/>
       <use xlink:href="#DejaVuSans-30" x="190.869141"/>
       <use xlink:href="#DejaVuSans-30" x="254.492188"/>
      </g>
     </g>
    </g>
    <g id="ytick_9">
     <g id="line2d_22">
      <g>
       <use xlink:href="#mb4ca404763" x="63.47" y="287.256081" style="stroke: #000000; stroke-width: 0.8"/>
      </g>
     </g>
     <g id="text_23">
      <!-- 15000 -->
      <g transform="translate(24.6575 291.0553) scale(0.1 -0.1)">
       <use xlink:href="#DejaVuSans-31"/>
       <use xlink:href="#DejaVuSans-35" x="63.623047"/>
       <use xlink:href="#DejaVuSans-30" x="127.246094"/>
       <use xlink:href="#DejaVuSans-30" x="190.869141"/>
       <use xlink:href="#DejaVuSans-30" x="254.492188"/>
      </g>
     </g>
    </g>
    <g id="ytick_10">
     <g id="line2d_23">
      <g>
       <use xlink:href="#mb4ca404763" x="63.47" y="250.23033" style="stroke: #000000; stroke-width: 0.8"/>
      </g>
     </g>
     <g id="text_24">
      <!-- 20000 -->
      <g transform="translate(24.6575 254.029549) scale(0.1 -0.1)">
       <use xlink:href="#DejaVuSans-32"/>
       <use xlink:href="#DejaVuSans-30" x="63.623047"/>
       <use xlink:href="#DejaVuSans-30" x="127.246094"/>
       <use xlink:href="#DejaVuSans-30" x="190.869141"/>
       <use xlink:href="#DejaVuSans-30" x="254.492188"/>
      </g>
     </g>
    </g>
    <g id="text_25">
     <!-- Pixel Frequency -->
     <g transform="translate(18.577812 347.398906) rotate(-90) scale(0.1 -0.1)">
      <use xlink:href="#DejaVuSans-50"/>
      <use xlink:href="#DejaVuSans-69" x="58.052734"/>
      <use xlink:href="#DejaVuSans-78" x="85.835938"/>
      <use xlink:href="#DejaVuSans-65" x="141.890625"/>
      <use xlink:href="#DejaVuSans-6c" x="203.414062"/>
      <use xlink:href="#DejaVuSans-20" x="231.197266"/>
      <use xlink:href="#DejaVuSans-46" x="262.984375"/>
      <use xlink:href="#DejaVuSans-72" x="313.253906"/>
      <use xlink:href="#DejaVuSans-65" x="352.117188"/>
      <use xlink:href="#DejaVuSans-71" x="413.640625"/>
      <use xlink:href="#DejaVuSans-75" x="477.117188"/>
      <use xlink:href="#DejaVuSans-65" x="540.496094"/>
      <use xlink:href="#DejaVuSans-6e" x="602.019531"/>
      <use xlink:href="#DejaVuSans-63" x="665.398438"/>
      <use xlink:href="#DejaVuSans-79" x="720.378906"/>
     </g>
    </g>
   </g>
   <g id="line2d_24">
    <path d="M 63.47 398.333333 
L 192.526172 398.303713 
L 194.159795 398.200041 
L 202.327907 398.325928 
L 205.595152 398.288902 
L 210.496019 398.333333 
L 216.213698 398.333333 
L 233.366733 398.237066 
L 239.901223 397.985291 
L 242.351657 398.088963 
L 243.168468 397.963076 
L 243.985279 398.059343 
L 245.618902 398.044532 
L 250.519769 397.963076 
L 251.33658 397.874214 
L 252.153391 397.963076 
L 254.603825 397.726111 
L 255.420636 397.770542 
L 257.054259 397.40769 
L 257.87107 396.630149 
L 258.687881 397.237371 
L 259.504692 397.326233 
L 261.138315 396.785657 
L 261.955126 396.452425 
L 262.771937 395.378678 
L 263.588748 396.600528 
L 265.222371 396.511666 
L 266.855993 395.141714 
L 267.672805 393.9717 
L 268.489616 390.905968 
L 269.306427 383.515628 
L 270.123238 364.565849 
L 270.940049 301.881252 
L 271.756861 218.506667 
L 271.756861 218.506667 
" clip-path="url(#pe301534099)" style="fill: none; stroke: #008000; stroke-width: 1.5; stroke-linecap: square"/>
   </g>
   <g id="patch_8">
    <path d="M 63.47 398.333333 
L 63.47 218.506667 
" style="fill: none; stroke: #000000; stroke-width: 0.8; stroke-linejoin: miter; stroke-linecap: square"/>
   </g>
   <g id="patch_9">
    <path d="M 272.573672 398.333333 
L 272.573672 218.506667 
" style="fill: none; stroke: #000000; stroke-width: 0.8; stroke-linejoin: miter; stroke-linecap: square"/>
   </g>
   <g id="patch_10">
    <path d="M 63.47 398.333333 
L 272.573672 398.333333 
" style="fill: none; stroke: #000000; stroke-width: 0.8; stroke-linejoin: miter; stroke-linecap: square"/>
   </g>
   <g id="patch_11">
    <path d="M 63.47 218.506667 
L 272.573672 218.506667 
" style="fill: none; stroke: #000000; stroke-width: 0.8; stroke-linejoin: miter; stroke-linecap: square"/>
   </g>
   <g id="text_26">
    <!-- Green Channel  -->
    <g transform="translate(179.346797 232.506667) scale(0.12 -0.12)">
     <defs>
      <path id="DejaVuSans-47" d="M 3809 666 
L 3809 1919 
L 2778 1919 
L 2778 2438 
L 4434 2438 
L 4434 434 
Q 4069 175 3628 42 
Q 3188 -91 2688 -91 
Q 1594 -91 976 548 
Q 359 1188 359 2328 
Q 359 3472 976 4111 
Q 1594 4750 2688 4750 
Q 3144 4750 3555 4637 
Q 3966 4525 4313 4306 
L 4313 3634 
Q 3963 3931 3569 4081 
Q 3175 4231 2741 4231 
Q 1884 4231 1454 3753 
Q 1025 3275 1025 2328 
Q 1025 1384 1454 906 
Q 1884 428 2741 428 
Q 3075 428 3337 486 
Q 3600 544 3809 666 
z
" transform="scale(0.015625)"/>
     </defs>
     <use xlink:href="#DejaVuSans-47"/>
     <use xlink:href="#DejaVuSans-72" x="77.490234"/>
     <use xlink:href="#DejaVuSans-65" x="116.353516"/>
     <use xlink:href="#DejaVuSans-65" x="177.876953"/>
     <use xlink:href="#DejaVuSans-6e" x="239.400391"/>
     <use xlink:href="#DejaVuSans-20" x="302.779297"/>
     <use xlink:href="#DejaVuSans-43" x="334.566406"/>
     <use xlink:href="#DejaVuSans-68" x="404.390625"/>
     <use xlink:href="#DejaVuSans-61" x="467.769531"/>
     <use xlink:href="#DejaVuSans-6e" x="529.048828"/>
     <use xlink:href="#DejaVuSans-6e" x="592.427734"/>
     <use xlink:href="#DejaVuSans-65" x="655.806641"/>
     <use xlink:href="#DejaVuSans-6c" x="717.330078"/>
     <use xlink:href="#DejaVuSans-20" x="745.113281"/>
    </g>
   </g>
  </g>
  <g id="axes_3">
   <g id="patch_12">
    <path d="M 63.47 606.04 
L 272.573672 606.04 
L 272.573672 426.213333 
L 63.47 426.213333 
z
" style="fill: #ffffff"/>
   </g>
   <g id="PolyCollection_3">
    <defs>
     <path id="m28664448c9" d="M 63.47 -41.96 
L 63.47 -41.96 
L 64.286811 -41.96 
L 65.103622 -41.96 
L 65.920434 -41.96 
L 66.737245 -41.96 
L 67.554056 -41.96 
L 68.370867 -41.96 
L 69.187679 -41.96 
L 70.00449 -41.96 
L 70.821301 -41.96 
L 71.638112 -41.96 
L 72.454923 -41.96 
L 73.271735 -41.96 
L 74.088546 -41.96 
L 74.905357 -41.96 
L 75.722168 -41.96 
L 76.538979 -41.96 
L 77.355791 -41.96 
L 78.172602 -41.96 
L 78.989413 -41.96 
L 79.806224 -41.96 
L 80.623036 -41.96 
L 81.439847 -41.96 
L 82.256658 -41.96 
L 83.073469 -41.96 
L 83.89028 -41.96 
L 84.707092 -41.96 
L 85.523903 -41.96 
L 86.340714 -41.96 
L 87.157525 -41.96 
L 87.974337 -41.96 
L 88.791148 -41.96 
L 89.607959 -41.96 
L 90.42477 -41.96 
L 91.241581 -41.96 
L 92.058393 -41.96 
L 92.875204 -41.96 
L 93.692015 -41.96 
L 94.508826 -41.96 
L 95.325638 -41.96 
L 96.142449 -41.96 
L 96.95926 -41.96 
L 97.776071 -41.96 
L 98.592882 -41.96 
L 99.409694 -41.96 
L 100.226505 -41.96 
L 101.043316 -41.96 
L 101.860127 -41.96 
L 102.676938 -41.96 
L 103.49375 -41.96 
L 104.310561 -41.96 
L 105.127372 -41.96 
L 105.944183 -41.96 
L 106.760995 -41.96 
L 107.577806 -41.96 
L 108.394617 -41.96 
L 109.211428 -41.96 
L 110.028239 -41.96 
L 110.845051 -41.96 
L 111.661862 -41.96 
L 112.478673 -41.96 
L 113.295484 -41.96 
L 114.112296 -41.96 
L 114.929107 -41.96 
L 115.745918 -41.96 
L 116.562729 -41.96 
L 117.37954 -41.96 
L 118.196352 -41.96 
L 119.013163 -41.96 
L 119.829974 -41.96 
L 120.646785 -41.96 
L 121.463596 -41.96 
L 122.280408 -41.96 
L 123.097219 -41.96 
L 123.91403 -41.96 
L 124.730841 -41.96 
L 125.547653 -41.96 
L 126.364464 -41.96 
L 127.181275 -41.96 
L 127.998086 -41.96 
L 128.814897 -41.96 
L 129.631709 -41.96 
L 130.44852 -41.96 
L 131.265331 -41.96 
L 132.082142 -41.96 
L 132.898954 -41.96 
L 133.715765 -41.96 
L 134.532576 -41.96 
L 135.349387 -41.96 
L 136.166198 -41.96 
L 136.98301 -41.96 
L 137.799821 -41.96 
L 138.616632 -41.96 
L 139.433443 -41.96 
L 140.250255 -41.96 
L 141.067066 -41.96 
L 141.883877 -41.96 
L 142.700688 -41.96 
L 143.517499 -41.96 
L 144.334311 -41.96 
L 145.151122 -41.96 
L 145.967933 -41.96 
L 146.784744 -41.96 
L 147.601555 -41.97481 
L 148.418367 -41.97481 
L 149.235178 -41.97481 
L 150.051989 -41.967405 
L 150.8688 -41.97481 
L 151.685612 -41.96 
L 152.502423 -42.011836 
L 153.319234 -42.034052 
L 154.136045 -42.063672 
L 154.952856 -42.034052 
L 155.769668 -42.063672 
L 156.586479 -42.063672 
L 157.40329 -42.108103 
L 158.220101 -42.174749 
L 159.036913 -42.211775 
L 159.853724 -42.359878 
L 160.670535 -42.500576 
L 161.487346 -42.441335 
L 162.304157 -42.345068 
L 163.120969 -42.404309 
L 163.93778 -42.404309 
L 164.754591 -42.389499 
L 165.571402 -42.419119 
L 166.388214 -42.404309 
L 167.205025 -42.322852 
L 168.021836 -42.382094 
L 168.838647 -42.515386 
L 169.655458 -42.46355 
L 170.47227 -42.700515 
L 171.289081 -42.700515 
L 172.105892 -42.863428 
L 172.922703 -42.92267 
L 173.739514 -42.856023 
L 174.556326 -43.144824 
L 175.373137 -43.300332 
L 176.189948 -43.315142 
L 177.006759 -43.640969 
L 177.823571 -43.596538 
L 178.640382 -43.833503 
L 179.457193 -43.811288 
L 180.274004 -43.863124 
L 181.090815 -44.070468 
L 181.907627 -44.092683 
L 182.724438 -44.411105 
L 183.541249 -44.307433 
L 184.35806 -44.499967 
L 185.174872 -44.374079 
L 185.991683 -44.93687 
L 186.808494 -44.596233 
L 187.625305 -44.848009 
L 188.442116 -44.788767 
L 189.258928 -45.218266 
L 190.075739 -44.67769 
L 190.89255 -44.485156 
L 191.709361 -44.225976 
L 192.526172 -44.499967 
L 193.342984 -44.640664 
L 194.159795 -44.796173 
L 194.976606 -44.485156 
L 195.793417 -44.43332 
L 196.610229 -44.803578 
L 197.42704 -45.15162 
L 198.243851 -45.077568 
L 199.060662 -44.914655 
L 199.877473 -44.6925 
L 200.694285 -44.211166 
L 201.511096 -44.840603 
L 202.327907 -44.810983 
L 203.144718 -44.603639 
L 203.96153 -44.425915 
L 204.778341 -44.951681 
L 205.595152 -45.203456 
L 206.411963 -45.447826 
L 207.228774 -45.121999 
L 208.045586 -44.66288 
L 208.862397 -44.440725 
L 209.679208 -45.810678 
L 210.496019 -45.351559 
L 211.312831 -45.4108 
L 212.129642 -44.596233 
L 212.946453 -45.470041 
L 213.763264 -45.877324 
L 214.580075 -45.995807 
L 215.396887 -45.625549 
L 216.213698 -45.544093 
L 217.030509 -44.596233 
L 217.84732 -46.225366 
L 218.664131 -45.958781 
L 219.480943 -45.566308 
L 220.297754 -44.351864 
L 221.114565 -45.773652 
L 221.931376 -45.65517 
L 222.748188 -46.106884 
L 223.564999 -45.277507 
L 224.38181 -45.055353 
L 225.198621 -44.41851 
L 226.015432 -44.966491 
L 226.832244 -44.929465 
L 227.649055 -44.077873 
L 228.465866 -43.922365 
L 229.282677 -44.366674 
L 230.099489 -44.611044 
L 230.9163 -44.699906 
L 231.733111 -44.625854 
L 232.549922 -44.366674 
L 233.366733 -44.077873 
L 234.183545 -44.536992 
L 235.000356 -44.43332 
L 235.817167 -44.114899 
L 236.633978 -43.596538 
L 237.450789 -44.166735 
L 238.267601 -44.233381 
L 239.084412 -43.981606 
L 239.901223 -44.003821 
L 240.718034 -43.589133 
L 241.534846 -43.492866 
L 242.351657 -43.818693 
L 243.168468 -43.640969 
L 243.985279 -43.574323 
L 244.80209 -43.500271 
L 245.618902 -43.937175 
L 246.435713 -43.974201 
L 247.252524 -43.937175 
L 248.069335 -43.707615 
L 248.886147 -43.774262 
L 249.702958 -43.485461 
L 250.519769 -43.759451 
L 251.33658 -43.722426 
L 252.153391 -43.655779 
L 252.970203 -43.463245 
L 253.787014 -43.92977 
L 254.603825 -44.211166 
L 255.420636 -44.018632 
L 256.237448 -43.981606 
L 257.054259 -43.951985 
L 257.87107 -44.344458 
L 258.687881 -44.114899 
L 259.504692 -44.440725 
L 260.321504 -44.018632 
L 261.138315 -44.107494 
L 261.955126 -44.707311 
L 262.771937 -45.203456 
L 263.588748 -44.796173 
L 264.40556 -44.818388 
L 265.222371 -44.574018 
L 266.039182 -44.529587 
L 266.855993 -45.062758 
L 267.672805 -46.062453 
L 268.489616 -46.899235 
L 269.306427 -45.744032 
L 270.123238 -50.253768 
L 270.940049 -56.866567 
L 271.756861 -77.149274 
L 271.756861 -41.96 
L 271.756861 -41.96 
L 270.940049 -41.96 
L 270.123238 -41.96 
L 269.306427 -41.96 
L 268.489616 -41.96 
L 267.672805 -41.96 
L 266.855993 -41.96 
L 266.039182 -41.96 
L 265.222371 -41.96 
L 264.40556 -41.96 
L 263.588748 -41.96 
L 262.771937 -41.96 
L 261.955126 -41.96 
L 261.138315 -41.96 
L 260.321504 -41.96 
L 259.504692 -41.96 
L 258.687881 -41.96 
L 257.87107 -41.96 
L 257.054259 -41.96 
L 256.237448 -41.96 
L 255.420636 -41.96 
L 254.603825 -41.96 
L 253.787014 -41.96 
L 252.970203 -41.96 
L 252.153391 -41.96 
L 251.33658 -41.96 
L 250.519769 -41.96 
L 249.702958 -41.96 
L 248.886147 -41.96 
L 248.069335 -41.96 
L 247.252524 -41.96 
L 246.435713 -41.96 
L 245.618902 -41.96 
L 244.80209 -41.96 
L 243.985279 -41.96 
L 243.168468 -41.96 
L 242.351657 -41.96 
L 241.534846 -41.96 
L 240.718034 -41.96 
L 239.901223 -41.96 
L 239.084412 -41.96 
L 238.267601 -41.96 
L 237.450789 -41.96 
L 236.633978 -41.96 
L 235.817167 -41.96 
L 235.000356 -41.96 
L 234.183545 -41.96 
L 233.366733 -41.96 
L 232.549922 -41.96 
L 231.733111 -41.96 
L 230.9163 -41.96 
L 230.099489 -41.96 
L 229.282677 -41.96 
L 228.465866 -41.96 
L 227.649055 -41.96 
L 226.832244 -41.96 
L 226.015432 -41.96 
L 225.198621 -41.96 
L 224.38181 -41.96 
L 223.564999 -41.96 
L 222.748188 -41.96 
L 221.931376 -41.96 
L 221.114565 -41.96 
L 220.297754 -41.96 
L 219.480943 -41.96 
L 218.664131 -41.96 
L 217.84732 -41.96 
L 217.030509 -41.96 
L 216.213698 -41.96 
L 215.396887 -41.96 
L 214.580075 -41.96 
L 213.763264 -41.96 
L 212.946453 -41.96 
L 212.129642 -41.96 
L 211.312831 -41.96 
L 210.496019 -41.96 
L 209.679208 -41.96 
L 208.862397 -41.96 
L 208.045586 -41.96 
L 207.228774 -41.96 
L 206.411963 -41.96 
L 205.595152 -41.96 
L 204.778341 -41.96 
L 203.96153 -41.96 
L 203.144718 -41.96 
L 202.327907 -41.96 
L 201.511096 -41.96 
L 200.694285 -41.96 
L 199.877473 -41.96 
L 199.060662 -41.96 
L 198.243851 -41.96 
L 197.42704 -41.96 
L 196.610229 -41.96 
L 195.793417 -41.96 
L 194.976606 -41.96 
L 194.159795 -41.96 
L 193.342984 -41.96 
L 192.526172 -41.96 
L 191.709361 -41.96 
L 190.89255 -41.96 
L 190.075739 -41.96 
L 189.258928 -41.96 
L 188.442116 -41.96 
L 187.625305 -41.96 
L 186.808494 -41.96 
L 185.991683 -41.96 
L 185.174872 -41.96 
L 184.35806 -41.96 
L 183.541249 -41.96 
L 182.724438 -41.96 
L 181.907627 -41.96 
L 181.090815 -41.96 
L 180.274004 -41.96 
L 179.457193 -41.96 
L 178.640382 -41.96 
L 177.823571 -41.96 
L 177.006759 -41.96 
L 176.189948 -41.96 
L 175.373137 -41.96 
L 174.556326 -41.96 
L 173.739514 -41.96 
L 172.922703 -41.96 
L 172.105892 -41.96 
L 171.289081 -41.96 
L 170.47227 -41.96 
L 169.655458 -41.96 
L 168.838647 -41.96 
L 168.021836 -41.96 
L 167.205025 -41.96 
L 166.388214 -41.96 
L 165.571402 -41.96 
L 164.754591 -41.96 
L 163.93778 -41.96 
L 163.120969 -41.96 
L 162.304157 -41.96 
L 161.487346 -41.96 
L 160.670535 -41.96 
L 159.853724 -41.96 
L 159.036913 -41.96 
L 158.220101 -41.96 
L 157.40329 -41.96 
L 156.586479 -41.96 
L 155.769668 -41.96 
L 154.952856 -41.96 
L 154.136045 -41.96 
L 153.319234 -41.96 
L 152.502423 -41.96 
L 151.685612 -41.96 
L 150.8688 -41.96 
L 150.051989 -41.96 
L 149.235178 -41.96 
L 148.418367 -41.96 
L 147.601555 -41.96 
L 146.784744 -41.96 
L 145.967933 -41.96 
L 145.151122 -41.96 
L 144.334311 -41.96 
L 143.517499 -41.96 
L 142.700688 -41.96 
L 141.883877 -41.96 
L 141.067066 -41.96 
L 140.250255 -41.96 
L 139.433443 -41.96 
L 138.616632 -41.96 
L 137.799821 -41.96 
L 136.98301 -41.96 
L 136.166198 -41.96 
L 135.349387 -41.96 
L 134.532576 -41.96 
L 133.715765 -41.96 
L 132.898954 -41.96 
L 132.082142 -41.96 
L 131.265331 -41.96 
L 130.44852 -41.96 
L 129.631709 -41.96 
L 128.814897 -41.96 
L 127.998086 -41.96 
L 127.181275 -41.96 
L 126.364464 -41.96 
L 125.547653 -41.96 
L 124.730841 -41.96 
L 123.91403 -41.96 
L 123.097219 -41.96 
L 122.280408 -41.96 
L 121.463596 -41.96 
L 120.646785 -41.96 
L 119.829974 -41.96 
L 119.013163 -41.96 
L 118.196352 -41.96 
L 117.37954 -41.96 
L 116.562729 -41.96 
L 115.745918 -41.96 
L 114.929107 -41.96 
L 114.112296 -41.96 
L 113.295484 -41.96 
L 112.478673 -41.96 
L 111.661862 -41.96 
L 110.845051 -41.96 
L 110.028239 -41.96 
L 109.211428 -41.96 
L 108.394617 -41.96 
L 107.577806 -41.96 
L 106.760995 -41.96 
L 105.944183 -41.96 
L 105.127372 -41.96 
L 104.310561 -41.96 
L 103.49375 -41.96 
L 102.676938 -41.96 
L 101.860127 -41.96 
L 101.043316 -41.96 
L 100.226505 -41.96 
L 99.409694 -41.96 
L 98.592882 -41.96 
L 97.776071 -41.96 
L 96.95926 -41.96 
L 96.142449 -41.96 
L 95.325638 -41.96 
L 94.508826 -41.96 
L 93.692015 -41.96 
L 92.875204 -41.96 
L 92.058393 -41.96 
L 91.241581 -41.96 
L 90.42477 -41.96 
L 89.607959 -41.96 
L 88.791148 -41.96 
L 87.974337 -41.96 
L 87.157525 -41.96 
L 86.340714 -41.96 
L 85.523903 -41.96 
L 84.707092 -41.96 
L 83.89028 -41.96 
L 83.073469 -41.96 
L 82.256658 -41.96 
L 81.439847 -41.96 
L 80.623036 -41.96 
L 79.806224 -41.96 
L 78.989413 -41.96 
L 78.172602 -41.96 
L 77.355791 -41.96 
L 76.538979 -41.96 
L 75.722168 -41.96 
L 74.905357 -41.96 
L 74.088546 -41.96 
L 73.271735 -41.96 
L 72.454923 -41.96 
L 71.638112 -41.96 
L 70.821301 -41.96 
L 70.00449 -41.96 
L 69.187679 -41.96 
L 68.370867 -41.96 
L 67.554056 -41.96 
L 66.737245 -41.96 
L 65.920434 -41.96 
L 65.103622 -41.96 
L 64.286811 -41.96 
L 63.47 -41.96 
z
" style="stroke: #0000ff; stroke-opacity: 0.4"/>
    </defs>
    <g clip-path="url(#p067fe3162c)">
     <use xlink:href="#m28664448c9" x="0" y="648" style="fill: #0000ff; fill-opacity: 0.4; stroke: #0000ff; stroke-opacity: 0.4"/>
    </g>
   </g>
   <g id="matplotlib.axis_5">
    <g id="xtick_13">
     <g id="line2d_25">
      <g>
       <use xlink:href="#mb2d1aa0108" x="63.47" y="606.04" style="stroke: #000000; stroke-width: 0.8"/>
      </g>
     </g>
     <g id="text_27">
      <!-- 0 -->
      <g transform="translate(60.28875 620.638438) scale(0.1 -0.1)">
       <use xlink:href="#DejaVuSans-30"/>
      </g>
     </g>
    </g>
    <g id="xtick_14">
     <g id="line2d_26">
      <g>
       <use xlink:href="#mb2d1aa0108" x="104.310561" y="606.04" style="stroke: #000000; stroke-width: 0.8"/>
      </g>
     </g>
     <g id="text_28">
      <!-- 50 -->
      <g transform="translate(97.948061 620.638438) scale(0.1 -0.1)">
       <use xlink:href="#DejaVuSans-35"/>
       <use xlink:href="#DejaVuSans-30" x="63.623047"/>
      </g>
     </g>
    </g>
    <g id="xtick_15">
     <g id="line2d_27">
      <g>
       <use xlink:href="#mb2d1aa0108" x="145.151122" y="606.04" style="stroke: #000000; stroke-width: 0.8"/>
      </g>
     </g>
     <g id="text_29">
      <!-- 100 -->
      <g transform="translate(135.607372 620.638438) scale(0.1 -0.1)">
       <use xlink:href="#DejaVuSans-31"/>
       <use xlink:href="#DejaVuSans-30" x="63.623047"/>
       <use xlink:href="#DejaVuSans-30" x="127.246094"/>
      </g>
     </g>
    </g>
    <g id="xtick_16">
     <g id="line2d_28">
      <g>
       <use xlink:href="#mb2d1aa0108" x="185.991683" y="606.04" style="stroke: #000000; stroke-width: 0.8"/>
      </g>
     </g>
     <g id="text_30">
      <!-- 150 -->
      <g transform="translate(176.447933 620.638438) scale(0.1 -0.1)">
       <use xlink:href="#DejaVuSans-31"/>
       <use xlink:href="#DejaVuSans-35" x="63.623047"/>
       <use xlink:href="#DejaVuSans-30" x="127.246094"/>
      </g>
     </g>
    </g>
    <g id="xtick_17">
     <g id="line2d_29">
      <g>
       <use xlink:href="#mb2d1aa0108" x="226.832244" y="606.04" style="stroke: #000000; stroke-width: 0.8"/>
      </g>
     </g>
     <g id="text_31">
      <!-- 200 -->
      <g transform="translate(217.288494 620.638438) scale(0.1 -0.1)">
       <use xlink:href="#DejaVuSans-32"/>
       <use xlink:href="#DejaVuSans-30" x="63.623047"/>
       <use xlink:href="#DejaVuSans-30" x="127.246094"/>
      </g>
     </g>
    </g>
    <g id="xtick_18">
     <g id="line2d_30">
      <g>
       <use xlink:href="#mb2d1aa0108" x="267.672805" y="606.04" style="stroke: #000000; stroke-width: 0.8"/>
      </g>
     </g>
     <g id="text_32">
      <!-- 250 -->
      <g transform="translate(258.129055 620.638438) scale(0.1 -0.1)">
       <use xlink:href="#DejaVuSans-32"/>
       <use xlink:href="#DejaVuSans-35" x="63.623047"/>
       <use xlink:href="#DejaVuSans-30" x="127.246094"/>
      </g>
     </g>
    </g>
    <g id="text_33">
     <!-- Pixel Intensity -->
     <g transform="translate(133.110117 634.316563) scale(0.1 -0.1)">
      <defs>
       <path id="DejaVuSans-49" d="M 628 4666 
L 1259 4666 
L 1259 0 
L 628 0 
L 628 4666 
z
" transform="scale(0.015625)"/>
       <path id="DejaVuSans-74" d="M 1172 4494 
L 1172 3500 
L 2356 3500 
L 2356 3053 
L 1172 3053 
L 1172 1153 
Q 1172 725 1289 603 
Q 1406 481 1766 481 
L 2356 481 
L 2356 0 
L 1766 0 
Q 1100 0 847 248 
Q 594 497 594 1153 
L 594 3053 
L 172 3053 
L 172 3500 
L 594 3500 
L 594 4494 
L 1172 4494 
z
" transform="scale(0.015625)"/>
       <path id="DejaVuSans-73" d="M 2834 3397 
L 2834 2853 
Q 2591 2978 2328 3040 
Q 2066 3103 1784 3103 
Q 1356 3103 1142 2972 
Q 928 2841 928 2578 
Q 928 2378 1081 2264 
Q 1234 2150 1697 2047 
L 1894 2003 
Q 2506 1872 2764 1633 
Q 3022 1394 3022 966 
Q 3022 478 2636 193 
Q 2250 -91 1575 -91 
Q 1294 -91 989 -36 
Q 684 19 347 128 
L 347 722 
Q 666 556 975 473 
Q 1284 391 1588 391 
Q 1994 391 2212 530 
Q 2431 669 2431 922 
Q 2431 1156 2273 1281 
Q 2116 1406 1581 1522 
L 1381 1569 
Q 847 1681 609 1914 
Q 372 2147 372 2553 
Q 372 3047 722 3315 
Q 1072 3584 1716 3584 
Q 2034 3584 2315 3537 
Q 2597 3491 2834 3397 
z
" transform="scale(0.015625)"/>
      </defs>
      <use xlink:href="#DejaVuSans-50"/>
      <use xlink:href="#DejaVuSans-69" x="58.052734"/>
      <use xlink:href="#DejaVuSans-78" x="85.835938"/>
      <use xlink:href="#DejaVuSans-65" x="141.890625"/>
      <use xlink:href="#DejaVuSans-6c" x="203.414062"/>
      <use xlink:href="#DejaVuSans-20" x="231.197266"/>
      <use xlink:href="#DejaVuSans-49" x="262.984375"/>
      <use xlink:href="#DejaVuSans-6e" x="292.476562"/>
      <use xlink:href="#DejaVuSans-74" x="355.855469"/>
      <use xlink:href="#DejaVuSans-65" x="395.064453"/>
      <use xlink:href="#DejaVuSans-6e" x="456.587891"/>
      <use xlink:href="#DejaVuSans-73" x="519.966797"/>
      <use xlink:href="#DejaVuSans-69" x="572.066406"/>
      <use xlink:href="#DejaVuSans-74" x="599.849609"/>
      <use xlink:href="#DejaVuSans-79" x="639.058594"/>
     </g>
    </g>
   </g>
   <g id="matplotlib.axis_6">
    <g id="ytick_11">
     <g id="line2d_31">
      <g>
       <use xlink:href="#mb4ca404763" x="63.47" y="606.04" style="stroke: #000000; stroke-width: 0.8"/>
      </g>
     </g>
     <g id="text_34">
      <!-- 0 -->
      <g transform="translate(50.1075 609.839219) scale(0.1 -0.1)">
       <use xlink:href="#DejaVuSans-30"/>
      </g>
     </g>
    </g>
    <g id="ytick_12">
     <g id="line2d_32">
      <g>
       <use xlink:href="#mb4ca404763" x="63.47" y="569.014249" style="stroke: #000000; stroke-width: 0.8"/>
      </g>
     </g>
     <g id="text_35">
      <!-- 5000 -->
      <g transform="translate(31.02 572.813468) scale(0.1 -0.1)">
       <use xlink:href="#DejaVuSans-35"/>
       <use xlink:href="#DejaVuSans-30" x="63.623047"/>
       <use xlink:href="#DejaVuSans-30" x="127.246094"/>
       <use xlink:href="#DejaVuSans-30" x="190.869141"/>
      </g>
     </g>
    </g>
    <g id="ytick_13">
     <g id="line2d_33">
      <g>
       <use xlink:href="#mb4ca404763" x="63.47" y="531.988498" style="stroke: #000000; stroke-width: 0.8"/>
      </g>
     </g>
     <g id="text_36">
      <!-- 10000 -->
      <g transform="translate(24.6575 535.787717) scale(0.1 -0.1)">
       <use xlink:href="#DejaVuSans-31"/>
       <use xlink:href="#DejaVuSans-30" x="63.623047"/>
       <use xlink:href="#DejaVuSans-30" x="127.246094"/>
       <use xlink:href="#DejaVuSans-30" x="190.869141"/>
       <use xlink:href="#DejaVuSans-30" x="254.492188"/>
      </g>
     </g>
    </g>
    <g id="ytick_14">
     <g id="line2d_34">
      <g>
       <use xlink:href="#mb4ca404763" x="63.47" y="494.962747" style="stroke: #000000; stroke-width: 0.8"/>
      </g>
     </g>
     <g id="text_37">
      <!-- 15000 -->
      <g transform="translate(24.6575 498.761966) scale(0.1 -0.1)">
       <use xlink:href="#DejaVuSans-31"/>
       <use xlink:href="#DejaVuSans-35" x="63.623047"/>
       <use xlink:href="#DejaVuSans-30" x="127.246094"/>
       <use xlink:href="#DejaVuSans-30" x="190.869141"/>
       <use xlink:href="#DejaVuSans-30" x="254.492188"/>
      </g>
     </g>
    </g>
    <g id="ytick_15">
     <g id="line2d_35">
      <g>
       <use xlink:href="#mb4ca404763" x="63.47" y="457.936997" style="stroke: #000000; stroke-width: 0.8"/>
      </g>
     </g>
     <g id="text_38">
      <!-- 20000 -->
      <g transform="translate(24.6575 461.736215) scale(0.1 -0.1)">
       <use xlink:href="#DejaVuSans-32"/>
       <use xlink:href="#DejaVuSans-30" x="63.623047"/>
       <use xlink:href="#DejaVuSans-30" x="127.246094"/>
       <use xlink:href="#DejaVuSans-30" x="190.869141"/>
       <use xlink:href="#DejaVuSans-30" x="254.492188"/>
      </g>
     </g>
    </g>
    <g id="text_39">
     <!-- Pixel Frequency -->
     <g transform="translate(18.577812 555.105573) rotate(-90) scale(0.1 -0.1)">
      <use xlink:href="#DejaVuSans-50"/>
      <use xlink:href="#DejaVuSans-69" x="58.052734"/>
      <use xlink:href="#DejaVuSans-78" x="85.835938"/>
      <use xlink:href="#DejaVuSans-65" x="141.890625"/>
      <use xlink:href="#DejaVuSans-6c" x="203.414062"/>
      <use xlink:href="#DejaVuSans-20" x="231.197266"/>
      <use xlink:href="#DejaVuSans-46" x="262.984375"/>
      <use xlink:href="#DejaVuSans-72" x="313.253906"/>
      <use xlink:href="#DejaVuSans-65" x="352.117188"/>
      <use xlink:href="#DejaVuSans-71" x="413.640625"/>
      <use xlink:href="#DejaVuSans-75" x="477.117188"/>
      <use xlink:href="#DejaVuSans-65" x="540.496094"/>
      <use xlink:href="#DejaVuSans-6e" x="602.019531"/>
      <use xlink:href="#DejaVuSans-63" x="665.398438"/>
      <use xlink:href="#DejaVuSans-79" x="720.378906"/>
     </g>
    </g>
   </g>
   <g id="line2d_36">
    <path d="M 63.47 606.04 
L 156.586479 605.936328 
L 159.036913 605.788225 
L 160.670535 605.499424 
L 163.120969 605.595691 
L 169.655458 605.53645 
L 170.47227 605.299485 
L 171.289081 605.299485 
L 172.922703 605.07733 
L 173.739514 605.143977 
L 174.556326 604.855176 
L 175.373137 604.699668 
L 176.189948 604.684858 
L 177.006759 604.359031 
L 177.823571 604.403462 
L 178.640382 604.166497 
L 180.274004 604.136876 
L 181.090815 603.929532 
L 181.907627 603.907317 
L 182.724438 603.588895 
L 183.541249 603.692567 
L 184.35806 603.500033 
L 185.174872 603.625921 
L 185.991683 603.06313 
L 186.808494 603.403767 
L 187.625305 603.151991 
L 188.442116 603.211233 
L 189.258928 602.781734 
L 190.075739 603.32231 
L 191.709361 603.774024 
L 192.526172 603.500033 
L 194.159795 603.203827 
L 194.976606 603.514844 
L 195.793417 603.56668 
L 197.42704 602.84838 
L 199.060662 603.085345 
L 199.877473 603.3075 
L 200.694285 603.788834 
L 201.511096 603.159397 
L 202.327907 603.189017 
L 203.96153 603.574085 
L 204.778341 603.048319 
L 206.411963 602.552174 
L 207.228774 602.878001 
L 208.045586 603.33712 
L 208.862397 603.559275 
L 209.679208 602.189322 
L 210.496019 602.648441 
L 211.312831 602.5892 
L 212.129642 603.403767 
L 212.946453 602.529959 
L 213.763264 602.122676 
L 214.580075 602.004193 
L 215.396887 602.374451 
L 216.213698 602.455907 
L 217.030509 603.403767 
L 217.84732 601.774634 
L 218.664131 602.041219 
L 219.480943 602.433692 
L 220.297754 603.648136 
L 221.114565 602.226348 
L 221.931376 602.34483 
L 222.748188 601.893116 
L 223.564999 602.722493 
L 224.38181 602.944647 
L 225.198621 603.58149 
L 226.015432 603.033509 
L 226.832244 603.070535 
L 227.649055 603.922127 
L 228.465866 604.077635 
L 229.282677 603.633326 
L 230.099489 603.388956 
L 230.9163 603.300094 
L 231.733111 603.374146 
L 233.366733 603.922127 
L 234.183545 603.463008 
L 235.000356 603.56668 
L 235.817167 603.885101 
L 236.633978 604.403462 
L 237.450789 603.833265 
L 238.267601 603.766619 
L 239.084412 604.018394 
L 239.901223 603.996179 
L 240.718034 604.410867 
L 241.534846 604.507134 
L 242.351657 604.181307 
L 243.985279 604.425677 
L 244.80209 604.499729 
L 245.618902 604.062825 
L 247.252524 604.062825 
L 248.069335 604.292385 
L 248.886147 604.225738 
L 249.702958 604.514539 
L 250.519769 604.240549 
L 252.153391 604.344221 
L 252.970203 604.536755 
L 253.787014 604.07023 
L 254.603825 603.788834 
L 255.420636 603.981368 
L 257.054259 604.048015 
L 257.87107 603.655542 
L 258.687881 603.885101 
L 259.504692 603.559275 
L 260.321504 603.981368 
L 261.138315 603.892506 
L 262.771937 602.796544 
L 263.588748 603.203827 
L 264.40556 603.181612 
L 265.222371 603.425982 
L 266.039182 603.470413 
L 266.855993 602.937242 
L 268.489616 601.100765 
L 269.306427 602.255968 
L 270.123238 597.746232 
L 270.940049 591.133433 
L 271.756861 570.850726 
L 271.756861 570.850726 
" clip-path="url(#p067fe3162c)" style="fill: none; stroke: #0000ff; stroke-width: 1.5; stroke-linecap: square"/>
   </g>
   <g id="patch_13">
    <path d="M 63.47 606.04 
L 63.47 426.213333 
" style="fill: none; stroke: #000000; stroke-width: 0.8; stroke-linejoin: miter; stroke-linecap: square"/>
   </g>
   <g id="patch_14">
    <path d="M 272.573672 606.04 
L 272.573672 426.213333 
" style="fill: none; stroke: #000000; stroke-width: 0.8; stroke-linejoin: miter; stroke-linecap: square"/>
   </g>
   <g id="patch_15">
    <path d="M 63.47 606.04 
L 272.573672 606.04 
" style="fill: none; stroke: #000000; stroke-width: 0.8; stroke-linejoin: miter; stroke-linecap: square"/>
   </g>
   <g id="patch_16">
    <path d="M 63.47 426.213333 
L 272.573672 426.213333 
" style="fill: none; stroke: #000000; stroke-width: 0.8; stroke-linejoin: miter; stroke-linecap: square"/>
   </g>
   <g id="text_40">
    <!-- Blue Channel  -->
    <g transform="translate(189.124922 440.213333) scale(0.12 -0.12)">
     <defs>
      <path id="DejaVuSans-42" d="M 1259 2228 
L 1259 519 
L 2272 519 
Q 2781 519 3026 730 
Q 3272 941 3272 1375 
Q 3272 1813 3026 2020 
Q 2781 2228 2272 2228 
L 1259 2228 
z
M 1259 4147 
L 1259 2741 
L 2194 2741 
Q 2656 2741 2882 2914 
Q 3109 3088 3109 3444 
Q 3109 3797 2882 3972 
Q 2656 4147 2194 4147 
L 1259 4147 
z
M 628 4666 
L 2241 4666 
Q 2963 4666 3353 4366 
Q 3744 4066 3744 3513 
Q 3744 3084 3544 2831 
Q 3344 2578 2956 2516 
Q 3422 2416 3680 2098 
Q 3938 1781 3938 1306 
Q 3938 681 3513 340 
Q 3088 0 2303 0 
L 628 0 
L 628 4666 
z
" transform="scale(0.015625)"/>
     </defs>
     <use xlink:href="#DejaVuSans-42"/>
     <use xlink:href="#DejaVuSans-6c" x="68.603516"/>
     <use xlink:href="#DejaVuSans-75" x="96.386719"/>
     <use xlink:href="#DejaVuSans-65" x="159.765625"/>
     <use xlink:href="#DejaVuSans-20" x="221.289062"/>
     <use xlink:href="#DejaVuSans-43" x="253.076172"/>
     <use xlink:href="#DejaVuSans-68" x="322.900391"/>
     <use xlink:href="#DejaVuSans-61" x="386.279297"/>
     <use xlink:href="#DejaVuSans-6e" x="447.558594"/>
     <use xlink:href="#DejaVuSans-6e" x="510.9375"/>
     <use xlink:href="#DejaVuSans-65" x="574.316406"/>
     <use xlink:href="#DejaVuSans-6c" x="635.839844"/>
     <use xlink:href="#DejaVuSans-20" x="663.623047"/>
    </g>
   </g>
  </g>
 </g>
 <defs>
  <clipPath id="p6a741434fb">
   <rect x="63.47" y="10.8" width="209.103672" height="179.826667"/>
  </clipPath>
  <clipPath id="pe301534099">
   <rect x="63.47" y="218.506667" width="209.103672" height="179.826667"/>
  </clipPath>
  <clipPath id="p067fe3162c">
   <rect x="63.47" y="426.213333" width="209.103672" height="179.826667"/>
  </clipPath>
 </defs>
</svg>
