<?xml version="1.0" encoding="utf-8" standalone="no"?>
<!DOCTYPE svg PUBLIC "-//W3C//DTD SVG 1.1//EN"
  "http://www.w3.org/Graphics/SVG/1.1/DTD/svg11.dtd">
<svg xmlns:xlink="http://www.w3.org/1999/xlink" width="288pt" height="648pt" viewBox="0 0 288 648" xmlns="http://www.w3.org/2000/svg" version="1.1">
 <metadata>
  <rdf:RDF xmlns:dc="http://purl.org/dc/elements/1.1/" xmlns:cc="http://creativecommons.org/ns#" xmlns:rdf="http://www.w3.org/1999/02/22-rdf-syntax-ns#">
   <cc:Work>
    <dc:type rdf:resource="http://purl.org/dc/dcmitype/StillImage"/>
    <dc:date>2023-11-18T15:18:14.707422</dc:date>
    <dc:format>image/svg+xml</dc:format>
    <dc:creator>
     <cc:Agent>
      <dc:title>Matplotlib v3.8.0, https://matplotlib.org/</dc:title>
     </cc:Agent>
    </dc:creator>
   </cc:Work>
  </rdf:RDF>
 </metadata>
 <defs>
  <style type="text/css">*{stroke-linejoin: round; stroke-linecap: butt}</style>
 </defs>
 <g id="figure_1">
  <g id="patch_1">
   <path d="M 0 648 
L 288 648 
L 288 0 
L 0 0 
z
" style="fill: #ffffff"/>
  </g>
  <g id="axes_1">
   <g id="patch_2">
    <path d="M 57.17 190.626667 
L 272.721328 190.626667 
L 272.721328 10.8 
L 57.17 10.8 
z
" style="fill: #ffffff"/>
   </g>
   <g id="PolyCollection_1">
    <defs>
     <path id="m457c7f3af3" d="M 57.17 -457.373333 
L 57.17 -463.188486 
L 58.011997 -463.022339 
L 58.853995 -463.631545 
L 59.695992 -464.573046 
L 60.53799 -466.179136 
L 61.379987 -466.843724 
L 62.221984 -466.843724 
L 63.063982 -465.791459 
L 63.905979 -466.400665 
L 64.747976 -465.3484 
L 65.589974 -464.849958 
L 66.431971 -464.462281 
L 67.273969 -462.468515 
L 68.115966 -461.693161 
L 68.957963 -460.53013 
L 69.799961 -460.197836 
L 70.641958 -459.976306 
L 71.483955 -459.311717 
L 72.325953 -458.868658 
L 73.16795 -458.757893 
L 74.009948 -458.924041 
L 74.851945 -458.093305 
L 75.693942 -458.702511 
L 76.53594 -457.816393 
L 77.377937 -457.98254 
L 78.219934 -457.705628 
L 79.061932 -457.76101 
L 79.903929 -457.76101 
L 80.745927 -457.428716 
L 81.587924 -457.428716 
L 82.429921 -457.428716 
L 83.271919 -457.428716 
L 84.113916 -457.539481 
L 84.955913 -457.484098 
L 85.797911 -457.373333 
L 86.639908 -457.428716 
L 87.481906 -457.373333 
L 88.323903 -457.373333 
L 89.1659 -457.373333 
L 90.007898 -457.373333 
L 90.849895 -457.373333 
L 91.691892 -457.373333 
L 92.53389 -457.373333 
L 93.375887 -457.373333 
L 94.217885 -457.373333 
L 95.059882 -457.373333 
L 95.901879 -457.373333 
L 96.743877 -457.373333 
L 97.585874 -457.373333 
L 98.427871 -457.373333 
L 99.269869 -457.373333 
L 100.111866 -457.373333 
L 100.953864 -457.373333 
L 101.795861 -457.373333 
L 102.637858 -457.373333 
L 103.479856 -457.373333 
L 104.321853 -457.373333 
L 105.16385 -457.373333 
L 106.005848 -457.373333 
L 106.847845 -457.373333 
L 107.689843 -457.373333 
L 108.53184 -457.373333 
L 109.373837 -457.373333 
L 110.215835 -457.428716 
L 111.057832 -457.373333 
L 111.899829 -457.484098 
L 112.741827 -457.428716 
L 113.583824 -457.484098 
L 114.425822 -457.428716 
L 115.267819 -457.594863 
L 116.109816 -457.484098 
L 116.951814 -457.76101 
L 117.793811 -458.093305 
L 118.635808 -457.871775 
L 119.477806 -457.98254 
L 120.319803 -458.148687 
L 121.161801 -458.480981 
L 122.003798 -458.314834 
L 122.845795 -459.14557 
L 123.687793 -459.865542 
L 124.52979 -458.979423 
L 125.371787 -460.308601 
L 126.213785 -459.533247 
L 127.055782 -460.585513 
L 127.89778 -461.527014 
L 128.739777 -460.97319 
L 129.581774 -462.856191 
L 130.423772 -463.465398 
L 131.265769 -465.12687 
L 132.107766 -464.628428 
L 132.949764 -465.293017 
L 133.791761 -467.065254 
L 134.633759 -467.619078 
L 135.475756 -469.557462 
L 136.317753 -471.052787 
L 137.159751 -475.206468 
L 138.001748 -475.981821 
L 138.843745 -480.246266 
L 139.685743 -485.1753 
L 140.52774 -486.393713 
L 141.369738 -492.098101 
L 142.211735 -496.69484 
L 143.053732 -500.350079 
L 143.89573 -501.29158 
L 144.737727 -506.552908 
L 145.579724 -508.934352 
L 146.421722 -512.866502 
L 147.263719 -514.749504 
L 148.105717 -511.592707 
L 148.947714 -515.58024 
L 149.789711 -520.17698 
L 150.631709 -519.124714 
L 151.473706 -521.34001 
L 152.315703 -520.343127 
L 153.157701 -524.441425 
L 153.999698 -524.10913 
L 154.841696 -530.09043 
L 155.683693 -528.152046 
L 156.52569 -530.478107 
L 157.367688 -529.979665 
L 158.209685 -535.019464 
L 159.051682 -534.354875 
L 159.89368 -528.207428 
L 160.735677 -525.825985 
L 161.577675 -522.9461 
L 162.419672 -517.740154 
L 163.261669 -515.857152 
L 164.103667 -508.768204 
L 164.945664 -503.285346 
L 165.787661 -500.903903 
L 166.629659 -497.913253 
L 167.471656 -495.144133 
L 168.313654 -490.159717 
L 169.155651 -484.455329 
L 169.997648 -480.246266 
L 170.839646 -478.03097 
L 171.681643 -473.821907 
L 172.52364 -472.04967 
L 173.365638 -470.554346 
L 174.207635 -468.172902 
L 175.049633 -469.28055 
L 175.89163 -466.345283 
L 176.733627 -465.736076 
L 177.575625 -466.843724 
L 178.417622 -466.123753 
L 179.259619 -465.293017 
L 180.101617 -464.351516 
L 180.943614 -463.853075 
L 181.785612 -463.853075 
L 182.627609 -463.631545 
L 183.469606 -462.911574 
L 184.311604 -463.631545 
L 185.153601 -462.35775 
L 185.995598 -462.911574 
L 186.837596 -462.800809 
L 187.679593 -462.690044 
L 188.521591 -462.800809 
L 189.363588 -461.803926 
L 190.205585 -461.471631 
L 191.047583 -461.748543 
L 191.88958 -461.416249 
L 192.731577 -461.693161 
L 193.573575 -461.693161 
L 194.415572 -461.194719 
L 195.25757 -460.696278 
L 196.099567 -460.917807 
L 196.941564 -460.807042 
L 197.783562 -461.250102 
L 198.625559 -460.142454 
L 199.467556 -461.139337 
L 200.309554 -460.53013 
L 201.151551 -460.253218 
L 201.993549 -460.696278 
L 202.835546 -461.083954 
L 203.677543 -460.585513 
L 204.519541 -461.083954 
L 205.361538 -460.363983 
L 206.203535 -460.363983 
L 207.045533 -461.028572 
L 207.88753 -461.139337 
L 208.729528 -460.474748 
L 209.571525 -460.53013 
L 210.413522 -460.696278 
L 211.25552 -460.585513 
L 212.097517 -460.585513 
L 212.939514 -460.696278 
L 213.781512 -459.477865 
L 214.623509 -460.087071 
L 215.465507 -460.197836 
L 216.307504 -459.810159 
L 217.149501 -460.308601 
L 217.991499 -460.640895 
L 218.833496 -460.696278 
L 219.675493 -459.699394 
L 220.517491 -459.865542 
L 221.359488 -459.920924 
L 222.201486 -460.75166 
L 223.043483 -460.308601 
L 223.88548 -460.253218 
L 224.727478 -460.474748 
L 225.569475 -460.917807 
L 226.411472 -459.865542 
L 227.25347 -459.311717 
L 228.095467 -460.53013 
L 228.937465 -460.253218 
L 229.779462 -460.308601 
L 230.621459 -459.920924 
L 231.463457 -459.58863 
L 232.305454 -459.976306 
L 233.147451 -459.422482 
L 233.989449 -459.422482 
L 234.831446 -460.197836 
L 235.673444 -460.53013 
L 236.515441 -460.419366 
L 237.357438 -459.976306 
L 238.199436 -459.533247 
L 239.041433 -460.087071 
L 239.88343 -459.533247 
L 240.725428 -459.644012 
L 241.567425 -459.976306 
L 242.409423 -460.363983 
L 243.25142 -460.253218 
L 244.093417 -460.640895 
L 244.935415 -459.644012 
L 245.777412 -459.311717 
L 246.619409 -459.754777 
L 247.461407 -459.311717 
L 248.303404 -459.976306 
L 249.145402 -459.533247 
L 249.987399 -460.142454 
L 250.829396 -460.253218 
L 251.671394 -460.087071 
L 252.513391 -459.865542 
L 253.355388 -459.699394 
L 254.197386 -459.976306 
L 255.039383 -459.58863 
L 255.881381 -460.142454 
L 256.723378 -459.3671 
L 257.565375 -459.311717 
L 258.407373 -460.197836 
L 259.24937 -459.865542 
L 260.091367 -460.53013 
L 260.933365 -459.699394 
L 261.775362 -460.031689 
L 262.61736 -459.976306 
L 263.459357 -460.253218 
L 264.301354 -460.585513 
L 265.143352 -460.363983 
L 265.985349 -460.474748 
L 266.827346 -460.917807 
L 267.669344 -460.585513 
L 268.511341 -461.305484 
L 269.353339 -461.360866 
L 270.195336 -460.585513 
L 271.037333 -460.97319 
L 271.879331 -461.859308 
L 271.879331 -457.373333 
L 271.879331 -457.373333 
L 271.037333 -457.373333 
L 270.195336 -457.373333 
L 269.353339 -457.373333 
L 268.511341 -457.373333 
L 267.669344 -457.373333 
L 266.827346 -457.373333 
L 265.985349 -457.373333 
L 265.143352 -457.373333 
L 264.301354 -457.373333 
L 263.459357 -457.373333 
L 262.61736 -457.373333 
L 261.775362 -457.373333 
L 260.933365 -457.373333 
L 260.091367 -457.373333 
L 259.24937 -457.373333 
L 258.407373 -457.373333 
L 257.565375 -457.373333 
L 256.723378 -457.373333 
L 255.881381 -457.373333 
L 255.039383 -457.373333 
L 254.197386 -457.373333 
L 253.355388 -457.373333 
L 252.513391 -457.373333 
L 251.671394 -457.373333 
L 250.829396 -457.373333 
L 249.987399 -457.373333 
L 249.145402 -457.373333 
L 248.303404 -457.373333 
L 247.461407 -457.373333 
L 246.619409 -457.373333 
L 245.777412 -457.373333 
L 244.935415 -457.373333 
L 244.093417 -457.373333 
L 243.25142 -457.373333 
L 242.409423 -457.373333 
L 241.567425 -457.373333 
L 240.725428 -457.373333 
L 239.88343 -457.373333 
L 239.041433 -457.373333 
L 238.199436 -457.373333 
L 237.357438 -457.373333 
L 236.515441 -457.373333 
L 235.673444 -457.373333 
L 234.831446 -457.373333 
L 233.989449 -457.373333 
L 233.147451 -457.373333 
L 232.305454 -457.373333 
L 231.463457 -457.373333 
L 230.621459 -457.373333 
L 229.779462 -457.373333 
L 228.937465 -457.373333 
L 228.095467 -457.373333 
L 227.25347 -457.373333 
L 226.411472 -457.373333 
L 225.569475 -457.373333 
L 224.727478 -457.373333 
L 223.88548 -457.373333 
L 223.043483 -457.373333 
L 222.201486 -457.373333 
L 221.359488 -457.373333 
L 220.517491 -457.373333 
L 219.675493 -457.373333 
L 218.833496 -457.373333 
L 217.991499 -457.373333 
L 217.149501 -457.373333 
L 216.307504 -457.373333 
L 215.465507 -457.373333 
L 214.623509 -457.373333 
L 213.781512 -457.373333 
L 212.939514 -457.373333 
L 212.097517 -457.373333 
L 211.25552 -457.373333 
L 210.413522 -457.373333 
L 209.571525 -457.373333 
L 208.729528 -457.373333 
L 207.88753 -457.373333 
L 207.045533 -457.373333 
L 206.203535 -457.373333 
L 205.361538 -457.373333 
L 204.519541 -457.373333 
L 203.677543 -457.373333 
L 202.835546 -457.373333 
L 201.993549 -457.373333 
L 201.151551 -457.373333 
L 200.309554 -457.373333 
L 199.467556 -457.373333 
L 198.625559 -457.373333 
L 197.783562 -457.373333 
L 196.941564 -457.373333 
L 196.099567 -457.373333 
L 195.25757 -457.373333 
L 194.415572 -457.373333 
L 193.573575 -457.373333 
L 192.731577 -457.373333 
L 191.88958 -457.373333 
L 191.047583 -457.373333 
L 190.205585 -457.373333 
L 189.363588 -457.373333 
L 188.521591 -457.373333 
L 187.679593 -457.373333 
L 186.837596 -457.373333 
L 185.995598 -457.373333 
L 185.153601 -457.373333 
L 184.311604 -457.373333 
L 183.469606 -457.373333 
L 182.627609 -457.373333 
L 181.785612 -457.373333 
L 180.943614 -457.373333 
L 180.101617 -457.373333 
L 179.259619 -457.373333 
L 178.417622 -457.373333 
L 177.575625 -457.373333 
L 176.733627 -457.373333 
L 175.89163 -457.373333 
L 175.049633 -457.373333 
L 174.207635 -457.373333 
L 173.365638 -457.373333 
L 172.52364 -457.373333 
L 171.681643 -457.373333 
L 170.839646 -457.373333 
L 169.997648 -457.373333 
L 169.155651 -457.373333 
L 168.313654 -457.373333 
L 167.471656 -457.373333 
L 166.629659 -457.373333 
L 165.787661 -457.373333 
L 164.945664 -457.373333 
L 164.103667 -457.373333 
L 163.261669 -457.373333 
L 162.419672 -457.373333 
L 161.577675 -457.373333 
L 160.735677 -457.373333 
L 159.89368 -457.373333 
L 159.051682 -457.373333 
L 158.209685 -457.373333 
L 157.367688 -457.373333 
L 156.52569 -457.373333 
L 155.683693 -457.373333 
L 154.841696 -457.373333 
L 153.999698 -457.373333 
L 153.157701 -457.373333 
L 152.315703 -457.373333 
L 151.473706 -457.373333 
L 150.631709 -457.373333 
L 149.789711 -457.373333 
L 148.947714 -457.373333 
L 148.105717 -457.373333 
L 147.263719 -457.373333 
L 146.421722 -457.373333 
L 145.579724 -457.373333 
L 144.737727 -457.373333 
L 143.89573 -457.373333 
L 143.053732 -457.373333 
L 142.211735 -457.373333 
L 141.369738 -457.373333 
L 140.52774 -457.373333 
L 139.685743 -457.373333 
L 138.843745 -457.373333 
L 138.001748 -457.373333 
L 137.159751 -457.373333 
L 136.317753 -457.373333 
L 135.475756 -457.373333 
L 134.633759 -457.373333 
L 133.791761 -457.373333 
L 132.949764 -457.373333 
L 132.107766 -457.373333 
L 131.265769 -457.373333 
L 130.423772 -457.373333 
L 129.581774 -457.373333 
L 128.739777 -457.373333 
L 127.89778 -457.373333 
L 127.055782 -457.373333 
L 126.213785 -457.373333 
L 125.371787 -457.373333 
L 124.52979 -457.373333 
L 123.687793 -457.373333 
L 122.845795 -457.373333 
L 122.003798 -457.373333 
L 121.161801 -457.373333 
L 120.319803 -457.373333 
L 119.477806 -457.373333 
L 118.635808 -457.373333 
L 117.793811 -457.373333 
L 116.951814 -457.373333 
L 116.109816 -457.373333 
L 115.267819 -457.373333 
L 114.425822 -457.373333 
L 113.583824 -457.373333 
L 112.741827 -457.373333 
L 111.899829 -457.373333 
L 111.057832 -457.373333 
L 110.215835 -457.373333 
L 109.373837 -457.373333 
L 108.53184 -457.373333 
L 107.689843 -457.373333 
L 106.847845 -457.373333 
L 106.005848 -457.373333 
L 105.16385 -457.373333 
L 104.321853 -457.373333 
L 103.479856 -457.373333 
L 102.637858 -457.373333 
L 101.795861 -457.373333 
L 100.953864 -457.373333 
L 100.111866 -457.373333 
L 99.269869 -457.373333 
L 98.427871 -457.373333 
L 97.585874 -457.373333 
L 96.743877 -457.373333 
L 95.901879 -457.373333 
L 95.059882 -457.373333 
L 94.217885 -457.373333 
L 93.375887 -457.373333 
L 92.53389 -457.373333 
L 91.691892 -457.373333 
L 90.849895 -457.373333 
L 90.007898 -457.373333 
L 89.1659 -457.373333 
L 88.323903 -457.373333 
L 87.481906 -457.373333 
L 86.639908 -457.373333 
L 85.797911 -457.373333 
L 84.955913 -457.373333 
L 84.113916 -457.373333 
L 83.271919 -457.373333 
L 82.429921 -457.373333 
L 81.587924 -457.373333 
L 80.745927 -457.373333 
L 79.903929 -457.373333 
L 79.061932 -457.373333 
L 78.219934 -457.373333 
L 77.377937 -457.373333 
L 76.53594 -457.373333 
L 75.693942 -457.373333 
L 74.851945 -457.373333 
L 74.009948 -457.373333 
L 73.16795 -457.373333 
L 72.325953 -457.373333 
L 71.483955 -457.373333 
L 70.641958 -457.373333 
L 69.799961 -457.373333 
L 68.957963 -457.373333 
L 68.115966 -457.373333 
L 67.273969 -457.373333 
L 66.431971 -457.373333 
L 65.589974 -457.373333 
L 64.747976 -457.373333 
L 63.905979 -457.373333 
L 63.063982 -457.373333 
L 62.221984 -457.373333 
L 61.379987 -457.373333 
L 60.53799 -457.373333 
L 59.695992 -457.373333 
L 58.853995 -457.373333 
L 58.011997 -457.373333 
L 57.17 -457.373333 
z
" style="stroke: #ff0000; stroke-opacity: 0.4"/>
    </defs>
    <g clip-path="url(#pdac51d138b)">
     <use xlink:href="#m457c7f3af3" x="0" y="648" style="fill: #ff0000; fill-opacity: 0.4; stroke: #ff0000; stroke-opacity: 0.4"/>
    </g>
   </g>
   <g id="matplotlib.axis_1">
    <g id="xtick_1">
     <g id="line2d_1">
      <defs>
       <path id="m555478ca66" d="M 0 0 
L 0 3.5 
" style="stroke: #000000; stroke-width: 0.8"/>
      </defs>
      <g>
       <use xlink:href="#m555478ca66" x="57.17" y="190.626667" style="stroke: #000000; stroke-width: 0.8"/>
      </g>
     </g>
     <g id="text_1">
      <!-- 0 -->
      <g transform="translate(53.98875 205.225104) scale(0.1 -0.1)">
       <defs>
        <path id="DejaVuSans-30" d="M 2034 4250 
Q 1547 4250 1301 3770 
Q 1056 3291 1056 2328 
Q 1056 1369 1301 889 
Q 1547 409 2034 409 
Q 2525 409 2770 889 
Q 3016 1369 3016 2328 
Q 3016 3291 2770 3770 
Q 2525 4250 2034 4250 
z
M 2034 4750 
Q 2819 4750 3233 4129 
Q 3647 3509 3647 2328 
Q 3647 1150 3233 529 
Q 2819 -91 2034 -91 
Q 1250 -91 836 529 
Q 422 1150 422 2328 
Q 422 3509 836 4129 
Q 1250 4750 2034 4750 
z
" transform="scale(0.015625)"/>
       </defs>
       <use xlink:href="#DejaVuSans-30"/>
      </g>
     </g>
    </g>
    <g id="xtick_2">
     <g id="line2d_2">
      <g>
       <use xlink:href="#m555478ca66" x="99.269869" y="190.626667" style="stroke: #000000; stroke-width: 0.8"/>
      </g>
     </g>
     <g id="text_2">
      <!-- 50 -->
      <g transform="translate(92.907369 205.225104) scale(0.1 -0.1)">
       <defs>
        <path id="DejaVuSans-35" d="M 691 4666 
L 3169 4666 
L 3169 4134 
L 1269 4134 
L 1269 2991 
Q 1406 3038 1543 3061 
Q 1681 3084 1819 3084 
Q 2600 3084 3056 2656 
Q 3513 2228 3513 1497 
Q 3513 744 3044 326 
Q 2575 -91 1722 -91 
Q 1428 -91 1123 -41 
Q 819 9 494 109 
L 494 744 
Q 775 591 1075 516 
Q 1375 441 1709 441 
Q 2250 441 2565 725 
Q 2881 1009 2881 1497 
Q 2881 1984 2565 2268 
Q 2250 2553 1709 2553 
Q 1456 2553 1204 2497 
Q 953 2441 691 2322 
L 691 4666 
z
" transform="scale(0.015625)"/>
       </defs>
       <use xlink:href="#DejaVuSans-35"/>
       <use xlink:href="#DejaVuSans-30" x="63.623047"/>
      </g>
     </g>
    </g>
    <g id="xtick_3">
     <g id="line2d_3">
      <g>
       <use xlink:href="#m555478ca66" x="141.369738" y="190.626667" style="stroke: #000000; stroke-width: 0.8"/>
      </g>
     </g>
     <g id="text_3">
      <!-- 100 -->
      <g transform="translate(131.825988 205.225104) scale(0.1 -0.1)">
       <defs>
        <path id="DejaVuSans-31" d="M 794 531 
L 1825 531 
L 1825 4091 
L 703 3866 
L 703 4441 
L 1819 4666 
L 2450 4666 
L 2450 531 
L 3481 531 
L 3481 0 
L 794 0 
L 794 531 
z
" transform="scale(0.015625)"/>
       </defs>
       <use xlink:href="#DejaVuSans-31"/>
       <use xlink:href="#DejaVuSans-30" x="63.623047"/>
       <use xlink:href="#DejaVuSans-30" x="127.246094"/>
      </g>
     </g>
    </g>
    <g id="xtick_4">
     <g id="line2d_4">
      <g>
       <use xlink:href="#m555478ca66" x="183.469606" y="190.626667" style="stroke: #000000; stroke-width: 0.8"/>
      </g>
     </g>
     <g id="text_4">
      <!-- 150 -->
      <g transform="translate(173.925856 205.225104) scale(0.1 -0.1)">
       <use xlink:href="#DejaVuSans-31"/>
       <use xlink:href="#DejaVuSans-35" x="63.623047"/>
       <use xlink:href="#DejaVuSans-30" x="127.246094"/>
      </g>
     </g>
    </g>
    <g id="xtick_5">
     <g id="line2d_5">
      <g>
       <use xlink:href="#m555478ca66" x="225.569475" y="190.626667" style="stroke: #000000; stroke-width: 0.8"/>
      </g>
     </g>
     <g id="text_5">
      <!-- 200 -->
      <g transform="translate(216.025725 205.225104) scale(0.1 -0.1)">
       <defs>
        <path id="DejaVuSans-32" d="M 1228 531 
L 3431 531 
L 3431 0 
L 469 0 
L 469 531 
Q 828 903 1448 1529 
Q 2069 2156 2228 2338 
Q 2531 2678 2651 2914 
Q 2772 3150 2772 3378 
Q 2772 3750 2511 3984 
Q 2250 4219 1831 4219 
Q 1534 4219 1204 4116 
Q 875 4013 500 3803 
L 500 4441 
Q 881 4594 1212 4672 
Q 1544 4750 1819 4750 
Q 2544 4750 2975 4387 
Q 3406 4025 3406 3419 
Q 3406 3131 3298 2873 
Q 3191 2616 2906 2266 
Q 2828 2175 2409 1742 
Q 1991 1309 1228 531 
z
" transform="scale(0.015625)"/>
       </defs>
       <use xlink:href="#DejaVuSans-32"/>
       <use xlink:href="#DejaVuSans-30" x="63.623047"/>
       <use xlink:href="#DejaVuSans-30" x="127.246094"/>
      </g>
     </g>
    </g>
    <g id="xtick_6">
     <g id="line2d_6">
      <g>
       <use xlink:href="#m555478ca66" x="267.669344" y="190.626667" style="stroke: #000000; stroke-width: 0.8"/>
      </g>
     </g>
     <g id="text_6">
      <!-- 250 -->
      <g transform="translate(258.125594 205.225104) scale(0.1 -0.1)">
       <use xlink:href="#DejaVuSans-32"/>
       <use xlink:href="#DejaVuSans-35" x="63.623047"/>
       <use xlink:href="#DejaVuSans-30" x="127.246094"/>
      </g>
     </g>
    </g>
   </g>
   <g id="matplotlib.axis_2">
    <g id="ytick_1">
     <g id="line2d_7">
      <defs>
       <path id="m9c16f291c2" d="M 0 0 
L -3.5 0 
" style="stroke: #000000; stroke-width: 0.8"/>
      </defs>
      <g>
       <use xlink:href="#m9c16f291c2" x="57.17" y="190.626667" style="stroke: #000000; stroke-width: 0.8"/>
      </g>
     </g>
     <g id="text_7">
      <!-- 0 -->
      <g transform="translate(43.8075 194.425885) scale(0.1 -0.1)">
       <use xlink:href="#DejaVuSans-30"/>
      </g>
     </g>
    </g>
    <g id="ytick_2">
     <g id="line2d_8">
      <g>
       <use xlink:href="#m9c16f291c2" x="57.17" y="162.935465" style="stroke: #000000; stroke-width: 0.8"/>
      </g>
     </g>
     <g id="text_8">
      <!-- 500 -->
      <g transform="translate(31.0825 166.734683) scale(0.1 -0.1)">
       <use xlink:href="#DejaVuSans-35"/>
       <use xlink:href="#DejaVuSans-30" x="63.623047"/>
       <use xlink:href="#DejaVuSans-30" x="127.246094"/>
      </g>
     </g>
    </g>
    <g id="ytick_3">
     <g id="line2d_9">
      <g>
       <use xlink:href="#m9c16f291c2" x="57.17" y="135.244262" style="stroke: #000000; stroke-width: 0.8"/>
      </g>
     </g>
     <g id="text_9">
      <!-- 1000 -->
      <g transform="translate(24.72 139.043481) scale(0.1 -0.1)">
       <use xlink:href="#DejaVuSans-31"/>
       <use xlink:href="#DejaVuSans-30" x="63.623047"/>
       <use xlink:href="#DejaVuSans-30" x="127.246094"/>
       <use xlink:href="#DejaVuSans-30" x="190.869141"/>
      </g>
     </g>
    </g>
    <g id="ytick_4">
     <g id="line2d_10">
      <g>
       <use xlink:href="#m9c16f291c2" x="57.17" y="107.55306" style="stroke: #000000; stroke-width: 0.8"/>
      </g>
     </g>
     <g id="text_10">
      <!-- 1500 -->
      <g transform="translate(24.72 111.352279) scale(0.1 -0.1)">
       <use xlink:href="#DejaVuSans-31"/>
       <use xlink:href="#DejaVuSans-35" x="63.623047"/>
       <use xlink:href="#DejaVuSans-30" x="127.246094"/>
       <use xlink:href="#DejaVuSans-30" x="190.869141"/>
      </g>
     </g>
    </g>
    <g id="ytick_5">
     <g id="line2d_11">
      <g>
       <use xlink:href="#m9c16f291c2" x="57.17" y="79.861858" style="stroke: #000000; stroke-width: 0.8"/>
      </g>
     </g>
     <g id="text_11">
      <!-- 2000 -->
      <g transform="translate(24.72 83.661077) scale(0.1 -0.1)">
       <use xlink:href="#DejaVuSans-32"/>
       <use xlink:href="#DejaVuSans-30" x="63.623047"/>
       <use xlink:href="#DejaVuSans-30" x="127.246094"/>
       <use xlink:href="#DejaVuSans-30" x="190.869141"/>
      </g>
     </g>
    </g>
    <g id="ytick_6">
     <g id="line2d_12">
      <g>
       <use xlink:href="#m9c16f291c2" x="57.17" y="52.170656" style="stroke: #000000; stroke-width: 0.8"/>
      </g>
     </g>
     <g id="text_12">
      <!-- 2500 -->
      <g transform="translate(24.72 55.969875) scale(0.1 -0.1)">
       <use xlink:href="#DejaVuSans-32"/>
       <use xlink:href="#DejaVuSans-35" x="63.623047"/>
       <use xlink:href="#DejaVuSans-30" x="127.246094"/>
       <use xlink:href="#DejaVuSans-30" x="190.869141"/>
      </g>
     </g>
    </g>
    <g id="ytick_7">
     <g id="line2d_13">
      <g>
       <use xlink:href="#m9c16f291c2" x="57.17" y="24.479454" style="stroke: #000000; stroke-width: 0.8"/>
      </g>
     </g>
     <g id="text_13">
      <!-- 3000 -->
      <g transform="translate(24.72 28.278673) scale(0.1 -0.1)">
       <defs>
        <path id="DejaVuSans-33" d="M 2597 2516 
Q 3050 2419 3304 2112 
Q 3559 1806 3559 1356 
Q 3559 666 3084 287 
Q 2609 -91 1734 -91 
Q 1441 -91 1130 -33 
Q 819 25 488 141 
L 488 750 
Q 750 597 1062 519 
Q 1375 441 1716 441 
Q 2309 441 2620 675 
Q 2931 909 2931 1356 
Q 2931 1769 2642 2001 
Q 2353 2234 1838 2234 
L 1294 2234 
L 1294 2753 
L 1863 2753 
Q 2328 2753 2575 2939 
Q 2822 3125 2822 3475 
Q 2822 3834 2567 4026 
Q 2313 4219 1838 4219 
Q 1578 4219 1281 4162 
Q 984 4106 628 3988 
L 628 4550 
Q 988 4650 1302 4700 
Q 1616 4750 1894 4750 
Q 2613 4750 3031 4423 
Q 3450 4097 3450 3541 
Q 3450 3153 3228 2886 
Q 3006 2619 2597 2516 
z
" transform="scale(0.015625)"/>
       </defs>
       <use xlink:href="#DejaVuSans-33"/>
       <use xlink:href="#DejaVuSans-30" x="63.623047"/>
       <use xlink:href="#DejaVuSans-30" x="127.246094"/>
       <use xlink:href="#DejaVuSans-30" x="190.869141"/>
      </g>
     </g>
    </g>
    <g id="text_14">
     <!-- Pixel Frequency -->
     <g transform="translate(18.640313 139.69224) rotate(-90) scale(0.1 -0.1)">
      <defs>
       <path id="DejaVuSans-50" d="M 1259 4147 
L 1259 2394 
L 2053 2394 
Q 2494 2394 2734 2622 
Q 2975 2850 2975 3272 
Q 2975 3691 2734 3919 
Q 2494 4147 2053 4147 
L 1259 4147 
z
M 628 4666 
L 2053 4666 
Q 2838 4666 3239 4311 
Q 3641 3956 3641 3272 
Q 3641 2581 3239 2228 
Q 2838 1875 2053 1875 
L 1259 1875 
L 1259 0 
L 628 0 
L 628 4666 
z
" transform="scale(0.015625)"/>
       <path id="DejaVuSans-69" d="M 603 3500 
L 1178 3500 
L 1178 0 
L 603 0 
L 603 3500 
z
M 603 4863 
L 1178 4863 
L 1178 4134 
L 603 4134 
L 603 4863 
z
" transform="scale(0.015625)"/>
       <path id="DejaVuSans-78" d="M 3513 3500 
L 2247 1797 
L 3578 0 
L 2900 0 
L 1881 1375 
L 863 0 
L 184 0 
L 1544 1831 
L 300 3500 
L 978 3500 
L 1906 2253 
L 2834 3500 
L 3513 3500 
z
" transform="scale(0.015625)"/>
       <path id="DejaVuSans-65" d="M 3597 1894 
L 3597 1613 
L 953 1613 
Q 991 1019 1311 708 
Q 1631 397 2203 397 
Q 2534 397 2845 478 
Q 3156 559 3463 722 
L 3463 178 
Q 3153 47 2828 -22 
Q 2503 -91 2169 -91 
Q 1331 -91 842 396 
Q 353 884 353 1716 
Q 353 2575 817 3079 
Q 1281 3584 2069 3584 
Q 2775 3584 3186 3129 
Q 3597 2675 3597 1894 
z
M 3022 2063 
Q 3016 2534 2758 2815 
Q 2500 3097 2075 3097 
Q 1594 3097 1305 2825 
Q 1016 2553 972 2059 
L 3022 2063 
z
" transform="scale(0.015625)"/>
       <path id="DejaVuSans-6c" d="M 603 4863 
L 1178 4863 
L 1178 0 
L 603 0 
L 603 4863 
z
" transform="scale(0.015625)"/>
       <path id="DejaVuSans-20" transform="scale(0.015625)"/>
       <path id="DejaVuSans-46" d="M 628 4666 
L 3309 4666 
L 3309 4134 
L 1259 4134 
L 1259 2759 
L 3109 2759 
L 3109 2228 
L 1259 2228 
L 1259 0 
L 628 0 
L 628 4666 
z
" transform="scale(0.015625)"/>
       <path id="DejaVuSans-72" d="M 2631 2963 
Q 2534 3019 2420 3045 
Q 2306 3072 2169 3072 
Q 1681 3072 1420 2755 
Q 1159 2438 1159 1844 
L 1159 0 
L 581 0 
L 581 3500 
L 1159 3500 
L 1159 2956 
Q 1341 3275 1631 3429 
Q 1922 3584 2338 3584 
Q 2397 3584 2469 3576 
Q 2541 3569 2628 3553 
L 2631 2963 
z
" transform="scale(0.015625)"/>
       <path id="DejaVuSans-71" d="M 947 1747 
Q 947 1113 1208 752 
Q 1469 391 1925 391 
Q 2381 391 2643 752 
Q 2906 1113 2906 1747 
Q 2906 2381 2643 2742 
Q 2381 3103 1925 3103 
Q 1469 3103 1208 2742 
Q 947 2381 947 1747 
z
M 2906 525 
Q 2725 213 2448 61 
Q 2172 -91 1784 -91 
Q 1150 -91 751 415 
Q 353 922 353 1747 
Q 353 2572 751 3078 
Q 1150 3584 1784 3584 
Q 2172 3584 2448 3432 
Q 2725 3281 2906 2969 
L 2906 3500 
L 3481 3500 
L 3481 -1331 
L 2906 -1331 
L 2906 525 
z
" transform="scale(0.015625)"/>
       <path id="DejaVuSans-75" d="M 544 1381 
L 544 3500 
L 1119 3500 
L 1119 1403 
Q 1119 906 1312 657 
Q 1506 409 1894 409 
Q 2359 409 2629 706 
Q 2900 1003 2900 1516 
L 2900 3500 
L 3475 3500 
L 3475 0 
L 2900 0 
L 2900 538 
Q 2691 219 2414 64 
Q 2138 -91 1772 -91 
Q 1169 -91 856 284 
Q 544 659 544 1381 
z
M 1991 3584 
L 1991 3584 
z
" transform="scale(0.015625)"/>
       <path id="DejaVuSans-6e" d="M 3513 2113 
L 3513 0 
L 2938 0 
L 2938 2094 
Q 2938 2591 2744 2837 
Q 2550 3084 2163 3084 
Q 1697 3084 1428 2787 
Q 1159 2491 1159 1978 
L 1159 0 
L 581 0 
L 581 3500 
L 1159 3500 
L 1159 2956 
Q 1366 3272 1645 3428 
Q 1925 3584 2291 3584 
Q 2894 3584 3203 3211 
Q 3513 2838 3513 2113 
z
" transform="scale(0.015625)"/>
       <path id="DejaVuSans-63" d="M 3122 3366 
L 3122 2828 
Q 2878 2963 2633 3030 
Q 2388 3097 2138 3097 
Q 1578 3097 1268 2742 
Q 959 2388 959 1747 
Q 959 1106 1268 751 
Q 1578 397 2138 397 
Q 2388 397 2633 464 
Q 2878 531 3122 666 
L 3122 134 
Q 2881 22 2623 -34 
Q 2366 -91 2075 -91 
Q 1284 -91 818 406 
Q 353 903 353 1747 
Q 353 2603 823 3093 
Q 1294 3584 2113 3584 
Q 2378 3584 2631 3529 
Q 2884 3475 3122 3366 
z
" transform="scale(0.015625)"/>
       <path id="DejaVuSans-79" d="M 2059 -325 
Q 1816 -950 1584 -1140 
Q 1353 -1331 966 -1331 
L 506 -1331 
L 506 -850 
L 844 -850 
Q 1081 -850 1212 -737 
Q 1344 -625 1503 -206 
L 1606 56 
L 191 3500 
L 800 3500 
L 1894 763 
L 2988 3500 
L 3597 3500 
L 2059 -325 
z
" transform="scale(0.015625)"/>
      </defs>
      <use xlink:href="#DejaVuSans-50"/>
      <use xlink:href="#DejaVuSans-69" x="58.052734"/>
      <use xlink:href="#DejaVuSans-78" x="85.835938"/>
      <use xlink:href="#DejaVuSans-65" x="141.890625"/>
      <use xlink:href="#DejaVuSans-6c" x="203.414062"/>
      <use xlink:href="#DejaVuSans-20" x="231.197266"/>
      <use xlink:href="#DejaVuSans-46" x="262.984375"/>
      <use xlink:href="#DejaVuSans-72" x="313.253906"/>
      <use xlink:href="#DejaVuSans-65" x="352.117188"/>
      <use xlink:href="#DejaVuSans-71" x="413.640625"/>
      <use xlink:href="#DejaVuSans-75" x="477.117188"/>
      <use xlink:href="#DejaVuSans-65" x="540.496094"/>
      <use xlink:href="#DejaVuSans-6e" x="602.019531"/>
      <use xlink:href="#DejaVuSans-63" x="665.398438"/>
      <use xlink:href="#DejaVuSans-79" x="720.378906"/>
     </g>
    </g>
   </g>
   <g id="line2d_14">
    <path d="M 57.17 184.811514 
L 58.011997 184.977661 
L 58.853995 184.368455 
L 59.695992 183.426954 
L 60.53799 181.820864 
L 61.379987 181.156276 
L 62.221984 181.156276 
L 63.063982 182.208541 
L 63.905979 181.599335 
L 64.747976 182.6516 
L 66.431971 183.537719 
L 67.273969 185.531485 
L 68.115966 186.306839 
L 68.957963 187.46987 
L 70.641958 188.023694 
L 71.483955 188.688283 
L 72.325953 189.131342 
L 73.16795 189.242107 
L 74.009948 189.075959 
L 74.851945 189.906695 
L 75.693942 189.297489 
L 76.53594 190.183607 
L 77.377937 190.01746 
L 78.219934 190.294372 
L 79.903929 190.23899 
L 80.745927 190.571284 
L 114.425822 190.571284 
L 115.267819 190.405137 
L 116.109816 190.515902 
L 117.793811 189.906695 
L 118.635808 190.128225 
L 120.319803 189.851313 
L 121.161801 189.519019 
L 122.003798 189.685166 
L 123.687793 188.134458 
L 124.52979 189.020577 
L 125.371787 187.691399 
L 126.213785 188.466753 
L 127.89778 186.472986 
L 128.739777 187.02681 
L 129.581774 185.143809 
L 130.423772 184.534602 
L 131.265769 182.87313 
L 132.107766 183.371572 
L 132.949764 182.706983 
L 133.791761 180.934746 
L 134.633759 180.380922 
L 135.475756 178.442538 
L 136.317753 176.947213 
L 137.159751 172.793532 
L 138.001748 172.018179 
L 138.843745 167.753734 
L 139.685743 162.8247 
L 140.52774 161.606287 
L 141.369738 155.901899 
L 142.211735 151.30516 
L 143.053732 147.649921 
L 143.89573 146.70842 
L 144.737727 141.447092 
L 145.579724 139.065648 
L 146.421722 135.133498 
L 147.263719 133.250496 
L 148.105717 136.407293 
L 148.947714 132.41976 
L 149.789711 127.82302 
L 150.631709 128.875286 
L 151.473706 126.65999 
L 152.315703 127.656873 
L 153.157701 123.558575 
L 153.999698 123.89087 
L 154.841696 117.90957 
L 155.683693 119.847954 
L 156.52569 117.521893 
L 157.367688 118.020335 
L 158.209685 112.980536 
L 159.051682 113.645125 
L 159.89368 119.792572 
L 160.735677 122.174015 
L 161.577675 125.0539 
L 162.419672 130.259846 
L 163.261669 132.142848 
L 164.103667 139.231796 
L 164.945664 144.714654 
L 165.787661 147.096097 
L 167.471656 152.855867 
L 168.313654 157.840283 
L 169.155651 163.544671 
L 169.997648 167.753734 
L 170.839646 169.96903 
L 171.681643 174.178093 
L 172.52364 175.95033 
L 173.365638 177.445654 
L 174.207635 179.827098 
L 175.049633 178.71945 
L 175.89163 181.654717 
L 176.733627 182.263924 
L 177.575625 181.156276 
L 179.259619 182.706983 
L 180.101617 183.648484 
L 180.943614 184.146925 
L 181.785612 184.146925 
L 182.627609 184.368455 
L 183.469606 185.088426 
L 184.311604 184.368455 
L 185.153601 185.64225 
L 185.995598 185.088426 
L 187.679593 185.309956 
L 188.521591 185.199191 
L 189.363588 186.196074 
L 190.205585 186.528369 
L 191.047583 186.251457 
L 191.88958 186.583751 
L 192.731577 186.306839 
L 193.573575 186.306839 
L 195.25757 187.303722 
L 196.099567 187.082193 
L 196.941564 187.192958 
L 197.783562 186.749898 
L 198.625559 187.857546 
L 199.467556 186.860663 
L 200.309554 187.46987 
L 201.151551 187.746782 
L 202.835546 186.916046 
L 203.677543 187.414487 
L 204.519541 186.916046 
L 205.361538 187.636017 
L 206.203535 187.636017 
L 207.045533 186.971428 
L 207.88753 186.860663 
L 208.729528 187.525252 
L 212.939514 187.303722 
L 213.781512 188.522135 
L 214.623509 187.912929 
L 215.465507 187.802164 
L 216.307504 188.189841 
L 217.149501 187.691399 
L 217.991499 187.359105 
L 218.833496 187.303722 
L 219.675493 188.300606 
L 221.359488 188.079076 
L 222.201486 187.24834 
L 223.043483 187.691399 
L 223.88548 187.746782 
L 224.727478 187.525252 
L 225.569475 187.082193 
L 226.411472 188.134458 
L 227.25347 188.688283 
L 228.095467 187.46987 
L 228.937465 187.746782 
L 229.779462 187.691399 
L 231.463457 188.41137 
L 232.305454 188.023694 
L 233.147451 188.577518 
L 233.989449 188.577518 
L 234.831446 187.802164 
L 235.673444 187.46987 
L 236.515441 187.580634 
L 238.199436 188.466753 
L 239.041433 187.912929 
L 239.88343 188.466753 
L 240.725428 188.355988 
L 242.409423 187.636017 
L 243.25142 187.746782 
L 244.093417 187.359105 
L 244.935415 188.355988 
L 245.777412 188.688283 
L 246.619409 188.245223 
L 247.461407 188.688283 
L 248.303404 188.023694 
L 249.145402 188.466753 
L 249.987399 187.857546 
L 250.829396 187.746782 
L 253.355388 188.300606 
L 254.197386 188.023694 
L 255.039383 188.41137 
L 255.881381 187.857546 
L 256.723378 188.6329 
L 257.565375 188.688283 
L 258.407373 187.802164 
L 259.24937 188.134458 
L 260.091367 187.46987 
L 260.933365 188.300606 
L 261.775362 187.968311 
L 262.61736 188.023694 
L 264.301354 187.414487 
L 265.143352 187.636017 
L 265.985349 187.525252 
L 266.827346 187.082193 
L 267.669344 187.414487 
L 268.511341 186.694516 
L 269.353339 186.639134 
L 270.195336 187.414487 
L 271.037333 187.02681 
L 271.879331 186.140692 
L 271.879331 186.140692 
" clip-path="url(#pdac51d138b)" style="fill: none; stroke: #ff0000; stroke-width: 1.5; stroke-linecap: square"/>
   </g>
   <g id="patch_3">
    <path d="M 57.17 190.626667 
L 57.17 10.8 
" style="fill: none; stroke: #000000; stroke-width: 0.8; stroke-linejoin: miter; stroke-linecap: square"/>
   </g>
   <g id="patch_4">
    <path d="M 272.721328 190.626667 
L 272.721328 10.8 
" style="fill: none; stroke: #000000; stroke-width: 0.8; stroke-linejoin: miter; stroke-linecap: square"/>
   </g>
   <g id="patch_5">
    <path d="M 57.17 190.626667 
L 272.721328 190.626667 
" style="fill: none; stroke: #000000; stroke-width: 0.8; stroke-linejoin: miter; stroke-linecap: square"/>
   </g>
   <g id="patch_6">
    <path d="M 57.17 10.8 
L 272.721328 10.8 
" style="fill: none; stroke: #000000; stroke-width: 0.8; stroke-linejoin: miter; stroke-linecap: square"/>
   </g>
   <g id="text_15">
    <!-- Red Channel  -->
    <g transform="translate(193.028203 24.8) scale(0.12 -0.12)">
     <defs>
      <path id="DejaVuSans-52" d="M 2841 2188 
Q 3044 2119 3236 1894 
Q 3428 1669 3622 1275 
L 4263 0 
L 3584 0 
L 2988 1197 
Q 2756 1666 2539 1819 
Q 2322 1972 1947 1972 
L 1259 1972 
L 1259 0 
L 628 0 
L 628 4666 
L 2053 4666 
Q 2853 4666 3247 4331 
Q 3641 3997 3641 3322 
Q 3641 2881 3436 2590 
Q 3231 2300 2841 2188 
z
M 1259 4147 
L 1259 2491 
L 2053 2491 
Q 2509 2491 2742 2702 
Q 2975 2913 2975 3322 
Q 2975 3731 2742 3939 
Q 2509 4147 2053 4147 
L 1259 4147 
z
" transform="scale(0.015625)"/>
      <path id="DejaVuSans-64" d="M 2906 2969 
L 2906 4863 
L 3481 4863 
L 3481 0 
L 2906 0 
L 2906 525 
Q 2725 213 2448 61 
Q 2172 -91 1784 -91 
Q 1150 -91 751 415 
Q 353 922 353 1747 
Q 353 2572 751 3078 
Q 1150 3584 1784 3584 
Q 2172 3584 2448 3432 
Q 2725 3281 2906 2969 
z
M 947 1747 
Q 947 1113 1208 752 
Q 1469 391 1925 391 
Q 2381 391 2643 752 
Q 2906 1113 2906 1747 
Q 2906 2381 2643 2742 
Q 2381 3103 1925 3103 
Q 1469 3103 1208 2742 
Q 947 2381 947 1747 
z
" transform="scale(0.015625)"/>
      <path id="DejaVuSans-43" d="M 4122 4306 
L 4122 3641 
Q 3803 3938 3442 4084 
Q 3081 4231 2675 4231 
Q 1875 4231 1450 3742 
Q 1025 3253 1025 2328 
Q 1025 1406 1450 917 
Q 1875 428 2675 428 
Q 3081 428 3442 575 
Q 3803 722 4122 1019 
L 4122 359 
Q 3791 134 3420 21 
Q 3050 -91 2638 -91 
Q 1578 -91 968 557 
Q 359 1206 359 2328 
Q 359 3453 968 4101 
Q 1578 4750 2638 4750 
Q 3056 4750 3426 4639 
Q 3797 4528 4122 4306 
z
" transform="scale(0.015625)"/>
      <path id="DejaVuSans-68" d="M 3513 2113 
L 3513 0 
L 2938 0 
L 2938 2094 
Q 2938 2591 2744 2837 
Q 2550 3084 2163 3084 
Q 1697 3084 1428 2787 
Q 1159 2491 1159 1978 
L 1159 0 
L 581 0 
L 581 4863 
L 1159 4863 
L 1159 2956 
Q 1366 3272 1645 3428 
Q 1925 3584 2291 3584 
Q 2894 3584 3203 3211 
Q 3513 2838 3513 2113 
z
" transform="scale(0.015625)"/>
      <path id="DejaVuSans-61" d="M 2194 1759 
Q 1497 1759 1228 1600 
Q 959 1441 959 1056 
Q 959 750 1161 570 
Q 1363 391 1709 391 
Q 2188 391 2477 730 
Q 2766 1069 2766 1631 
L 2766 1759 
L 2194 1759 
z
M 3341 1997 
L 3341 0 
L 2766 0 
L 2766 531 
Q 2569 213 2275 61 
Q 1981 -91 1556 -91 
Q 1019 -91 701 211 
Q 384 513 384 1019 
Q 384 1609 779 1909 
Q 1175 2209 1959 2209 
L 2766 2209 
L 2766 2266 
Q 2766 2663 2505 2880 
Q 2244 3097 1772 3097 
Q 1472 3097 1187 3025 
Q 903 2953 641 2809 
L 641 3341 
Q 956 3463 1253 3523 
Q 1550 3584 1831 3584 
Q 2591 3584 2966 3190 
Q 3341 2797 3341 1997 
z
" transform="scale(0.015625)"/>
     </defs>
     <use xlink:href="#DejaVuSans-52"/>
     <use xlink:href="#DejaVuSans-65" x="64.982422"/>
     <use xlink:href="#DejaVuSans-64" x="126.505859"/>
     <use xlink:href="#DejaVuSans-20" x="189.982422"/>
     <use xlink:href="#DejaVuSans-43" x="221.769531"/>
     <use xlink:href="#DejaVuSans-68" x="291.59375"/>
     <use xlink:href="#DejaVuSans-61" x="354.972656"/>
     <use xlink:href="#DejaVuSans-6e" x="416.251953"/>
     <use xlink:href="#DejaVuSans-6e" x="479.630859"/>
     <use xlink:href="#DejaVuSans-65" x="543.009766"/>
     <use xlink:href="#DejaVuSans-6c" x="604.533203"/>
     <use xlink:href="#DejaVuSans-20" x="632.316406"/>
    </g>
   </g>
  </g>
  <g id="axes_2">
   <g id="patch_7">
    <path d="M 57.17 398.333333 
L 272.721328 398.333333 
L 272.721328 218.506667 
L 57.17 218.506667 
z
" style="fill: #ffffff"/>
   </g>
   <g id="PolyCollection_2">
    <defs>
     <path id="m0eabb497f0" d="M 57.17 -249.666667 
L 57.17 -260.023176 
L 58.011997 -258.084792 
L 58.853995 -257.198674 
L 59.695992 -255.260289 
L 60.53799 -254.983377 
L 61.379987 -253.931112 
L 62.221984 -252.491169 
L 63.063982 -251.106609 
L 63.905979 -251.383521 
L 64.747976 -250.995844 
L 65.589974 -250.718932 
L 66.431971 -250.165108 
L 67.273969 -249.888196 
L 68.115966 -249.888196 
L 68.957963 -249.888196 
L 69.799961 -249.777431 
L 70.641958 -249.832814 
L 71.483955 -249.722049 
L 72.325953 -249.722049 
L 73.16795 -249.666667 
L 74.009948 -249.666667 
L 74.851945 -249.666667 
L 75.693942 -249.777431 
L 76.53594 -249.666667 
L 77.377937 -249.666667 
L 78.219934 -249.666667 
L 79.061932 -249.666667 
L 79.903929 -249.666667 
L 80.745927 -249.666667 
L 81.587924 -249.666667 
L 82.429921 -249.666667 
L 83.271919 -249.666667 
L 84.113916 -249.666667 
L 84.955913 -249.666667 
L 85.797911 -249.666667 
L 86.639908 -249.666667 
L 87.481906 -249.666667 
L 88.323903 -249.666667 
L 89.1659 -249.666667 
L 90.007898 -249.666667 
L 90.849895 -249.666667 
L 91.691892 -249.666667 
L 92.53389 -249.666667 
L 93.375887 -249.666667 
L 94.217885 -249.666667 
L 95.059882 -249.666667 
L 95.901879 -249.666667 
L 96.743877 -249.666667 
L 97.585874 -249.666667 
L 98.427871 -249.666667 
L 99.269869 -249.777431 
L 100.111866 -249.998961 
L 100.953864 -249.722049 
L 101.795861 -249.777431 
L 102.637858 -249.888196 
L 103.479856 -249.998961 
L 104.321853 -250.44202 
L 105.16385 -250.386638 
L 106.005848 -251.051227 
L 106.847845 -251.328139 
L 107.689843 -252.214257 
L 108.53184 -252.26964 
L 109.373837 -253.986494 
L 110.215835 -256.091026 
L 111.057832 -257.364821 
L 111.899829 -259.026293 
L 112.741827 -265.284505 
L 113.583824 -267.610566 
L 114.425822 -271.708864 
L 115.267819 -278.797811 
L 116.109816 -285.332935 
L 116.951814 -287.658996 
L 117.793811 -295.910974 
L 118.635808 -297.074005 
L 119.477806 -303.609128 
L 120.319803 -305.990572 
L 121.161801 -303.166069 
L 122.003798 -298.292418 
L 122.845795 -299.787743 
L 123.687793 -295.744827 
L 124.52979 -291.591147 
L 125.371787 -286.994407 
L 126.213785 -285.4437 
L 127.055782 -284.169905 
L 127.89778 -282.563815 
L 128.739777 -281.899226 
L 129.581774 -284.225287 
L 130.423772 -288.323585 
L 131.265769 -290.095822 
L 132.107766 -295.910974 
L 132.949764 -301.449215 
L 133.791761 -306.101337 
L 134.633759 -311.47343 
L 135.475756 -315.405581 
L 136.317753 -319.836173 
L 137.159751 -319.060819 
L 138.001748 -322.272999 
L 138.843745 -319.614643 
L 139.685743 -318.562378 
L 140.52774 -319.670026 
L 141.369738 -311.639577 
L 142.211735 -306.710543 
L 143.053732 -304.495247 
L 143.89573 -300.175419 
L 144.737727 -295.57868 
L 145.579724 -290.040439 
L 146.421722 -283.892993 
L 147.263719 -282.563815 
L 148.105717 -276.527133 
L 148.947714 -274.311837 
L 149.789711 -270.656598 
L 150.631709 -267.389036 
L 151.473706 -266.059858 
L 152.315703 -266.5583 
L 153.157701 -262.736914 
L 153.999698 -260.853912 
L 154.841696 -259.746264 
L 155.683693 -261.02006 
L 156.52569 -259.358587 
L 157.367688 -259.469352 
L 158.209685 -256.312555 
L 159.051682 -258.084792 
L 159.89368 -256.977144 
L 160.735677 -257.143291 
L 161.577675 -256.810997 
L 162.419672 -256.589467 
L 163.261669 -256.035643 
L 164.103667 -256.478702 
L 164.945664 -255.758731 
L 165.787661 -255.814114 
L 166.629659 -255.980261 
L 167.471656 -255.03876 
L 168.313654 -254.651083 
L 169.155651 -255.647966 
L 169.997648 -254.761848 
L 170.839646 -254.041877 
L 171.681643 -253.875729 
L 172.52364 -255.371054 
L 173.365638 -254.208024 
L 174.207635 -254.208024 
L 175.049633 -253.543435 
L 175.89163 -253.820347 
L 176.733627 -253.931112 
L 177.575625 -253.044993 
L 178.417622 -253.266523 
L 179.259619 -253.820347 
L 180.101617 -254.152641 
L 180.943614 -254.041877 
L 181.785612 -253.986494 
L 182.627609 -253.377288 
L 183.469606 -253.543435 
L 184.311604 -252.934229 
L 185.153601 -252.989611 
L 185.995598 -254.429553 
L 186.837596 -253.100376 
L 187.679593 -253.155758 
L 188.521591 -252.546552 
L 189.363588 -253.211141 
L 190.205585 -253.488053 
L 191.047583 -253.044993 
L 191.88958 -252.934229 
L 192.731577 -252.989611 
L 193.573575 -252.435787 
L 194.415572 -252.934229 
L 195.25757 -253.321905 
L 196.099567 -253.100376 
L 196.941564 -252.491169 
L 197.783562 -252.546552 
L 198.625559 -253.211141 
L 199.467556 -252.768081 
L 200.309554 -253.100376 
L 201.151551 -253.044993 
L 201.993549 -252.380404 
L 202.835546 -253.266523 
L 203.677543 -252.158875 
L 204.519541 -252.546552 
L 205.361538 -252.989611 
L 206.203535 -253.266523 
L 207.045533 -253.044993 
L 207.88753 -252.04811 
L 208.729528 -252.435787 
L 209.571525 -252.04811 
L 210.413522 -252.380404 
L 211.25552 -252.103492 
L 212.097517 -253.321905 
L 212.939514 -251.992728 
L 213.781512 -252.158875 
L 214.623509 -252.26964 
L 215.465507 -252.657316 
L 216.307504 -252.491169 
L 217.149501 -252.158875 
L 217.991499 -251.82658 
L 218.833496 -252.491169 
L 219.675493 -252.214257 
L 220.517491 -252.989611 
L 221.359488 -251.438904 
L 222.201486 -251.937345 
L 223.043483 -252.712699 
L 223.88548 -252.435787 
L 224.727478 -252.546552 
L 225.569475 -252.546552 
L 226.411472 -251.82658 
L 227.25347 -252.380404 
L 228.095467 -252.158875 
L 228.937465 -251.715816 
L 229.779462 -252.546552 
L 230.621459 -251.771198 
L 231.463457 -252.214257 
L 232.305454 -252.103492 
L 233.147451 -252.04811 
L 233.989449 -252.158875 
L 234.831446 -251.383521 
L 235.673444 -252.380404 
L 236.515441 -251.937345 
L 237.357438 -252.491169 
L 238.199436 -252.491169 
L 239.041433 -252.325022 
L 239.88343 -251.771198 
L 240.725428 -252.491169 
L 241.567425 -251.992728 
L 242.409423 -252.26964 
L 243.25142 -252.04811 
L 244.093417 -252.325022 
L 244.935415 -252.712699 
L 245.777412 -252.325022 
L 246.619409 -252.325022 
L 247.461407 -252.435787 
L 248.303404 -252.546552 
L 249.145402 -252.214257 
L 249.987399 -252.823464 
L 250.829396 -252.491169 
L 251.671394 -252.435787 
L 252.513391 -252.26964 
L 253.355388 -252.934229 
L 254.197386 -252.491169 
L 255.039383 -252.103492 
L 255.881381 -251.771198 
L 256.723378 -252.823464 
L 257.565375 -252.934229 
L 258.407373 -252.934229 
L 259.24937 -253.764965 
L 260.091367 -253.488053 
L 260.933365 -253.6542 
L 261.775362 -254.374171 
L 262.61736 -255.260289 
L 263.459357 -254.761848 
L 264.301354 -255.758731 
L 265.143352 -256.921762 
L 265.985349 -257.087909 
L 266.827346 -257.143291 
L 267.669344 -258.472469 
L 268.511341 -258.195557 
L 269.353339 -259.967794 
L 270.195336 -258.915528 
L 271.037333 -259.690882 
L 271.879331 -259.137058 
L 271.879331 -249.666667 
L 271.879331 -249.666667 
L 271.037333 -249.666667 
L 270.195336 -249.666667 
L 269.353339 -249.666667 
L 268.511341 -249.666667 
L 267.669344 -249.666667 
L 266.827346 -249.666667 
L 265.985349 -249.666667 
L 265.143352 -249.666667 
L 264.301354 -249.666667 
L 263.459357 -249.666667 
L 262.61736 -249.666667 
L 261.775362 -249.666667 
L 260.933365 -249.666667 
L 260.091367 -249.666667 
L 259.24937 -249.666667 
L 258.407373 -249.666667 
L 257.565375 -249.666667 
L 256.723378 -249.666667 
L 255.881381 -249.666667 
L 255.039383 -249.666667 
L 254.197386 -249.666667 
L 253.355388 -249.666667 
L 252.513391 -249.666667 
L 251.671394 -249.666667 
L 250.829396 -249.666667 
L 249.987399 -249.666667 
L 249.145402 -249.666667 
L 248.303404 -249.666667 
L 247.461407 -249.666667 
L 246.619409 -249.666667 
L 245.777412 -249.666667 
L 244.935415 -249.666667 
L 244.093417 -249.666667 
L 243.25142 -249.666667 
L 242.409423 -249.666667 
L 241.567425 -249.666667 
L 240.725428 -249.666667 
L 239.88343 -249.666667 
L 239.041433 -249.666667 
L 238.199436 -249.666667 
L 237.357438 -249.666667 
L 236.515441 -249.666667 
L 235.673444 -249.666667 
L 234.831446 -249.666667 
L 233.989449 -249.666667 
L 233.147451 -249.666667 
L 232.305454 -249.666667 
L 231.463457 -249.666667 
L 230.621459 -249.666667 
L 229.779462 -249.666667 
L 228.937465 -249.666667 
L 228.095467 -249.666667 
L 227.25347 -249.666667 
L 226.411472 -249.666667 
L 225.569475 -249.666667 
L 224.727478 -249.666667 
L 223.88548 -249.666667 
L 223.043483 -249.666667 
L 222.201486 -249.666667 
L 221.359488 -249.666667 
L 220.517491 -249.666667 
L 219.675493 -249.666667 
L 218.833496 -249.666667 
L 217.991499 -249.666667 
L 217.149501 -249.666667 
L 216.307504 -249.666667 
L 215.465507 -249.666667 
L 214.623509 -249.666667 
L 213.781512 -249.666667 
L 212.939514 -249.666667 
L 212.097517 -249.666667 
L 211.25552 -249.666667 
L 210.413522 -249.666667 
L 209.571525 -249.666667 
L 208.729528 -249.666667 
L 207.88753 -249.666667 
L 207.045533 -249.666667 
L 206.203535 -249.666667 
L 205.361538 -249.666667 
L 204.519541 -249.666667 
L 203.677543 -249.666667 
L 202.835546 -249.666667 
L 201.993549 -249.666667 
L 201.151551 -249.666667 
L 200.309554 -249.666667 
L 199.467556 -249.666667 
L 198.625559 -249.666667 
L 197.783562 -249.666667 
L 196.941564 -249.666667 
L 196.099567 -249.666667 
L 195.25757 -249.666667 
L 194.415572 -249.666667 
L 193.573575 -249.666667 
L 192.731577 -249.666667 
L 191.88958 -249.666667 
L 191.047583 -249.666667 
L 190.205585 -249.666667 
L 189.363588 -249.666667 
L 188.521591 -249.666667 
L 187.679593 -249.666667 
L 186.837596 -249.666667 
L 185.995598 -249.666667 
L 185.153601 -249.666667 
L 184.311604 -249.666667 
L 183.469606 -249.666667 
L 182.627609 -249.666667 
L 181.785612 -249.666667 
L 180.943614 -249.666667 
L 180.101617 -249.666667 
L 179.259619 -249.666667 
L 178.417622 -249.666667 
L 177.575625 -249.666667 
L 176.733627 -249.666667 
L 175.89163 -249.666667 
L 175.049633 -249.666667 
L 174.207635 -249.666667 
L 173.365638 -249.666667 
L 172.52364 -249.666667 
L 171.681643 -249.666667 
L 170.839646 -249.666667 
L 169.997648 -249.666667 
L 169.155651 -249.666667 
L 168.313654 -249.666667 
L 167.471656 -249.666667 
L 166.629659 -249.666667 
L 165.787661 -249.666667 
L 164.945664 -249.666667 
L 164.103667 -249.666667 
L 163.261669 -249.666667 
L 162.419672 -249.666667 
L 161.577675 -249.666667 
L 160.735677 -249.666667 
L 159.89368 -249.666667 
L 159.051682 -249.666667 
L 158.209685 -249.666667 
L 157.367688 -249.666667 
L 156.52569 -249.666667 
L 155.683693 -249.666667 
L 154.841696 -249.666667 
L 153.999698 -249.666667 
L 153.157701 -249.666667 
L 152.315703 -249.666667 
L 151.473706 -249.666667 
L 150.631709 -249.666667 
L 149.789711 -249.666667 
L 148.947714 -249.666667 
L 148.105717 -249.666667 
L 147.263719 -249.666667 
L 146.421722 -249.666667 
L 145.579724 -249.666667 
L 144.737727 -249.666667 
L 143.89573 -249.666667 
L 143.053732 -249.666667 
L 142.211735 -249.666667 
L 141.369738 -249.666667 
L 140.52774 -249.666667 
L 139.685743 -249.666667 
L 138.843745 -249.666667 
L 138.001748 -249.666667 
L 137.159751 -249.666667 
L 136.317753 -249.666667 
L 135.475756 -249.666667 
L 134.633759 -249.666667 
L 133.791761 -249.666667 
L 132.949764 -249.666667 
L 132.107766 -249.666667 
L 131.265769 -249.666667 
L 130.423772 -249.666667 
L 129.581774 -249.666667 
L 128.739777 -249.666667 
L 127.89778 -249.666667 
L 127.055782 -249.666667 
L 126.213785 -249.666667 
L 125.371787 -249.666667 
L 124.52979 -249.666667 
L 123.687793 -249.666667 
L 122.845795 -249.666667 
L 122.003798 -249.666667 
L 121.161801 -249.666667 
L 120.319803 -249.666667 
L 119.477806 -249.666667 
L 118.635808 -249.666667 
L 117.793811 -249.666667 
L 116.951814 -249.666667 
L 116.109816 -249.666667 
L 115.267819 -249.666667 
L 114.425822 -249.666667 
L 113.583824 -249.666667 
L 112.741827 -249.666667 
L 111.899829 -249.666667 
L 111.057832 -249.666667 
L 110.215835 -249.666667 
L 109.373837 -249.666667 
L 108.53184 -249.666667 
L 107.689843 -249.666667 
L 106.847845 -249.666667 
L 106.005848 -249.666667 
L 105.16385 -249.666667 
L 104.321853 -249.666667 
L 103.479856 -249.666667 
L 102.637858 -249.666667 
L 101.795861 -249.666667 
L 100.953864 -249.666667 
L 100.111866 -249.666667 
L 99.269869 -249.666667 
L 98.427871 -249.666667 
L 97.585874 -249.666667 
L 96.743877 -249.666667 
L 95.901879 -249.666667 
L 95.059882 -249.666667 
L 94.217885 -249.666667 
L 93.375887 -249.666667 
L 92.53389 -249.666667 
L 91.691892 -249.666667 
L 90.849895 -249.666667 
L 90.007898 -249.666667 
L 89.1659 -249.666667 
L 88.323903 -249.666667 
L 87.481906 -249.666667 
L 86.639908 -249.666667 
L 85.797911 -249.666667 
L 84.955913 -249.666667 
L 84.113916 -249.666667 
L 83.271919 -249.666667 
L 82.429921 -249.666667 
L 81.587924 -249.666667 
L 80.745927 -249.666667 
L 79.903929 -249.666667 
L 79.061932 -249.666667 
L 78.219934 -249.666667 
L 77.377937 -249.666667 
L 76.53594 -249.666667 
L 75.693942 -249.666667 
L 74.851945 -249.666667 
L 74.009948 -249.666667 
L 73.16795 -249.666667 
L 72.325953 -249.666667 
L 71.483955 -249.666667 
L 70.641958 -249.666667 
L 69.799961 -249.666667 
L 68.957963 -249.666667 
L 68.115966 -249.666667 
L 67.273969 -249.666667 
L 66.431971 -249.666667 
L 65.589974 -249.666667 
L 64.747976 -249.666667 
L 63.905979 -249.666667 
L 63.063982 -249.666667 
L 62.221984 -249.666667 
L 61.379987 -249.666667 
L 60.53799 -249.666667 
L 59.695992 -249.666667 
L 58.853995 -249.666667 
L 58.011997 -249.666667 
L 57.17 -249.666667 
z
" style="stroke: #008000; stroke-opacity: 0.4"/>
    </defs>
    <g clip-path="url(#pc156c32c70)">
     <use xlink:href="#m0eabb497f0" x="0" y="648" style="fill: #008000; fill-opacity: 0.4; stroke: #008000; stroke-opacity: 0.4"/>
    </g>
   </g>
   <g id="matplotlib.axis_3">
    <g id="xtick_7">
     <g id="line2d_15">
      <g>
       <use xlink:href="#m555478ca66" x="57.17" y="398.333333" style="stroke: #000000; stroke-width: 0.8"/>
      </g>
     </g>
     <g id="text_16">
      <!-- 0 -->
      <g transform="translate(53.98875 412.931771) scale(0.1 -0.1)">
       <use xlink:href="#DejaVuSans-30"/>
      </g>
     </g>
    </g>
    <g id="xtick_8">
     <g id="line2d_16">
      <g>
       <use xlink:href="#m555478ca66" x="99.269869" y="398.333333" style="stroke: #000000; stroke-width: 0.8"/>
      </g>
     </g>
     <g id="text_17">
      <!-- 50 -->
      <g transform="translate(92.907369 412.931771) scale(0.1 -0.1)">
       <use xlink:href="#DejaVuSans-35"/>
       <use xlink:href="#DejaVuSans-30" x="63.623047"/>
      </g>
     </g>
    </g>
    <g id="xtick_9">
     <g id="line2d_17">
      <g>
       <use xlink:href="#m555478ca66" x="141.369738" y="398.333333" style="stroke: #000000; stroke-width: 0.8"/>
      </g>
     </g>
     <g id="text_18">
      <!-- 100 -->
      <g transform="translate(131.825988 412.931771) scale(0.1 -0.1)">
       <use xlink:href="#DejaVuSans-31"/>
       <use xlink:href="#DejaVuSans-30" x="63.623047"/>
       <use xlink:href="#DejaVuSans-30" x="127.246094"/>
      </g>
     </g>
    </g>
    <g id="xtick_10">
     <g id="line2d_18">
      <g>
       <use xlink:href="#m555478ca66" x="183.469606" y="398.333333" style="stroke: #000000; stroke-width: 0.8"/>
      </g>
     </g>
     <g id="text_19">
      <!-- 150 -->
      <g transform="translate(173.925856 412.931771) scale(0.1 -0.1)">
       <use xlink:href="#DejaVuSans-31"/>
       <use xlink:href="#DejaVuSans-35" x="63.623047"/>
       <use xlink:href="#DejaVuSans-30" x="127.246094"/>
      </g>
     </g>
    </g>
    <g id="xtick_11">
     <g id="line2d_19">
      <g>
       <use xlink:href="#m555478ca66" x="225.569475" y="398.333333" style="stroke: #000000; stroke-width: 0.8"/>
      </g>
     </g>
     <g id="text_20">
      <!-- 200 -->
      <g transform="translate(216.025725 412.931771) scale(0.1 -0.1)">
       <use xlink:href="#DejaVuSans-32"/>
       <use xlink:href="#DejaVuSans-30" x="63.623047"/>
       <use xlink:href="#DejaVuSans-30" x="127.246094"/>
      </g>
     </g>
    </g>
    <g id="xtick_12">
     <g id="line2d_20">
      <g>
       <use xlink:href="#m555478ca66" x="267.669344" y="398.333333" style="stroke: #000000; stroke-width: 0.8"/>
      </g>
     </g>
     <g id="text_21">
      <!-- 250 -->
      <g transform="translate(258.125594 412.931771) scale(0.1 -0.1)">
       <use xlink:href="#DejaVuSans-32"/>
       <use xlink:href="#DejaVuSans-35" x="63.623047"/>
       <use xlink:href="#DejaVuSans-30" x="127.246094"/>
      </g>
     </g>
    </g>
   </g>
   <g id="matplotlib.axis_4">
    <g id="ytick_8">
     <g id="line2d_21">
      <g>
       <use xlink:href="#m9c16f291c2" x="57.17" y="398.333333" style="stroke: #000000; stroke-width: 0.8"/>
      </g>
     </g>
     <g id="text_22">
      <!-- 0 -->
      <g transform="translate(43.8075 402.132552) scale(0.1 -0.1)">
       <use xlink:href="#DejaVuSans-30"/>
      </g>
     </g>
    </g>
    <g id="ytick_9">
     <g id="line2d_22">
      <g>
       <use xlink:href="#m9c16f291c2" x="57.17" y="370.642131" style="stroke: #000000; stroke-width: 0.8"/>
      </g>
     </g>
     <g id="text_23">
      <!-- 500 -->
      <g transform="translate(31.0825 374.44135) scale(0.1 -0.1)">
       <use xlink:href="#DejaVuSans-35"/>
       <use xlink:href="#DejaVuSans-30" x="63.623047"/>
       <use xlink:href="#DejaVuSans-30" x="127.246094"/>
      </g>
     </g>
    </g>
    <g id="ytick_10">
     <g id="line2d_23">
      <g>
       <use xlink:href="#m9c16f291c2" x="57.17" y="342.950929" style="stroke: #000000; stroke-width: 0.8"/>
      </g>
     </g>
     <g id="text_24">
      <!-- 1000 -->
      <g transform="translate(24.72 346.750148) scale(0.1 -0.1)">
       <use xlink:href="#DejaVuSans-31"/>
       <use xlink:href="#DejaVuSans-30" x="63.623047"/>
       <use xlink:href="#DejaVuSans-30" x="127.246094"/>
       <use xlink:href="#DejaVuSans-30" x="190.869141"/>
      </g>
     </g>
    </g>
    <g id="ytick_11">
     <g id="line2d_24">
      <g>
       <use xlink:href="#m9c16f291c2" x="57.17" y="315.259727" style="stroke: #000000; stroke-width: 0.8"/>
      </g>
     </g>
     <g id="text_25">
      <!-- 1500 -->
      <g transform="translate(24.72 319.058946) scale(0.1 -0.1)">
       <use xlink:href="#DejaVuSans-31"/>
       <use xlink:href="#DejaVuSans-35" x="63.623047"/>
       <use xlink:href="#DejaVuSans-30" x="127.246094"/>
       <use xlink:href="#DejaVuSans-30" x="190.869141"/>
      </g>
     </g>
    </g>
    <g id="ytick_12">
     <g id="line2d_25">
      <g>
       <use xlink:href="#m9c16f291c2" x="57.17" y="287.568525" style="stroke: #000000; stroke-width: 0.8"/>
      </g>
     </g>
     <g id="text_26">
      <!-- 2000 -->
      <g transform="translate(24.72 291.367744) scale(0.1 -0.1)">
       <use xlink:href="#DejaVuSans-32"/>
       <use xlink:href="#DejaVuSans-30" x="63.623047"/>
       <use xlink:href="#DejaVuSans-30" x="127.246094"/>
       <use xlink:href="#DejaVuSans-30" x="190.869141"/>
      </g>
     </g>
    </g>
    <g id="ytick_13">
     <g id="line2d_26">
      <g>
       <use xlink:href="#m9c16f291c2" x="57.17" y="259.877323" style="stroke: #000000; stroke-width: 0.8"/>
      </g>
     </g>
     <g id="text_27">
      <!-- 2500 -->
      <g transform="translate(24.72 263.676541) scale(0.1 -0.1)">
       <use xlink:href="#DejaVuSans-32"/>
       <use xlink:href="#DejaVuSans-35" x="63.623047"/>
       <use xlink:href="#DejaVuSans-30" x="127.246094"/>
       <use xlink:href="#DejaVuSans-30" x="190.869141"/>
      </g>
     </g>
    </g>
    <g id="ytick_14">
     <g id="line2d_27">
      <g>
       <use xlink:href="#m9c16f291c2" x="57.17" y="232.186121" style="stroke: #000000; stroke-width: 0.8"/>
      </g>
     </g>
     <g id="text_28">
      <!-- 3000 -->
      <g transform="translate(24.72 235.985339) scale(0.1 -0.1)">
       <use xlink:href="#DejaVuSans-33"/>
       <use xlink:href="#DejaVuSans-30" x="63.623047"/>
       <use xlink:href="#DejaVuSans-30" x="127.246094"/>
       <use xlink:href="#DejaVuSans-30" x="190.869141"/>
      </g>
     </g>
    </g>
    <g id="text_29">
     <!-- Pixel Frequency -->
     <g transform="translate(18.640313 347.398906) rotate(-90) scale(0.1 -0.1)">
      <use xlink:href="#DejaVuSans-50"/>
      <use xlink:href="#DejaVuSans-69" x="58.052734"/>
      <use xlink:href="#DejaVuSans-78" x="85.835938"/>
      <use xlink:href="#DejaVuSans-65" x="141.890625"/>
      <use xlink:href="#DejaVuSans-6c" x="203.414062"/>
      <use xlink:href="#DejaVuSans-20" x="231.197266"/>
      <use xlink:href="#DejaVuSans-46" x="262.984375"/>
      <use xlink:href="#DejaVuSans-72" x="313.253906"/>
      <use xlink:href="#DejaVuSans-65" x="352.117188"/>
      <use xlink:href="#DejaVuSans-71" x="413.640625"/>
      <use xlink:href="#DejaVuSans-75" x="477.117188"/>
      <use xlink:href="#DejaVuSans-65" x="540.496094"/>
      <use xlink:href="#DejaVuSans-6e" x="602.019531"/>
      <use xlink:href="#DejaVuSans-63" x="665.398438"/>
      <use xlink:href="#DejaVuSans-79" x="720.378906"/>
     </g>
    </g>
   </g>
   <g id="line2d_28">
    <path d="M 57.17 387.976824 
L 58.011997 389.915208 
L 58.853995 390.801326 
L 59.695992 392.739711 
L 60.53799 393.016623 
L 61.379987 394.068888 
L 63.063982 396.893391 
L 63.905979 396.616479 
L 67.273969 398.111804 
L 70.641958 398.167186 
L 72.325953 398.277951 
L 74.851945 398.333333 
L 75.693942 398.222569 
L 77.377937 398.333333 
L 99.269869 398.222569 
L 100.111866 398.001039 
L 100.953864 398.277951 
L 103.479856 398.001039 
L 104.321853 397.55798 
L 105.16385 397.613362 
L 106.005848 396.948773 
L 106.847845 396.671861 
L 107.689843 395.785743 
L 108.53184 395.73036 
L 109.373837 394.013506 
L 110.215835 391.908974 
L 111.057832 390.635179 
L 111.899829 388.973707 
L 112.741827 382.715495 
L 113.583824 380.389434 
L 114.425822 376.291136 
L 116.109816 362.667065 
L 116.951814 360.341004 
L 117.793811 352.089026 
L 118.635808 350.925995 
L 119.477806 344.390872 
L 120.319803 342.009428 
L 121.161801 344.833931 
L 122.003798 349.707582 
L 122.845795 348.212257 
L 124.52979 356.408853 
L 125.371787 361.005593 
L 126.213785 362.5563 
L 127.055782 363.830095 
L 127.89778 365.436185 
L 128.739777 366.100774 
L 129.581774 363.774713 
L 130.423772 359.676415 
L 131.265769 357.904178 
L 132.949764 346.550785 
L 133.791761 341.898663 
L 134.633759 336.52657 
L 136.317753 328.163827 
L 137.159751 328.939181 
L 138.001748 325.727001 
L 138.843745 328.385357 
L 139.685743 329.437622 
L 140.52774 328.329974 
L 141.369738 336.360423 
L 142.211735 341.289457 
L 143.053732 343.504753 
L 144.737727 352.42132 
L 146.421722 364.107007 
L 147.263719 365.436185 
L 148.105717 371.472867 
L 148.947714 373.688163 
L 150.631709 380.610964 
L 151.473706 381.940142 
L 152.315703 381.4417 
L 153.157701 385.263086 
L 153.999698 387.146088 
L 154.841696 388.253736 
L 155.683693 386.97994 
L 156.52569 388.641413 
L 157.367688 388.530648 
L 158.209685 391.687445 
L 159.051682 389.915208 
L 159.89368 391.022856 
L 160.735677 390.856709 
L 163.261669 391.964357 
L 164.103667 391.521298 
L 164.945664 392.241269 
L 166.629659 392.019739 
L 167.471656 392.96124 
L 168.313654 393.348917 
L 169.155651 392.352034 
L 169.997648 393.238152 
L 170.839646 393.958123 
L 171.681643 394.124271 
L 172.52364 392.628946 
L 173.365638 393.791976 
L 174.207635 393.791976 
L 175.049633 394.456565 
L 175.89163 394.179653 
L 176.733627 394.068888 
L 177.575625 394.955007 
L 178.417622 394.733477 
L 179.259619 394.179653 
L 180.101617 393.847359 
L 181.785612 394.013506 
L 182.627609 394.622712 
L 183.469606 394.456565 
L 184.311604 395.065771 
L 185.153601 395.010389 
L 185.995598 393.570447 
L 186.837596 394.899624 
L 187.679593 394.844242 
L 188.521591 395.453448 
L 189.363588 394.788859 
L 190.205585 394.511947 
L 191.047583 394.955007 
L 191.88958 395.065771 
L 192.731577 395.010389 
L 193.573575 395.564213 
L 195.25757 394.678095 
L 196.099567 394.899624 
L 196.941564 395.508831 
L 197.783562 395.453448 
L 198.625559 394.788859 
L 199.467556 395.231919 
L 200.309554 394.899624 
L 201.151551 394.955007 
L 201.993549 395.619596 
L 202.835546 394.733477 
L 203.677543 395.841125 
L 206.203535 394.733477 
L 207.045533 394.955007 
L 207.88753 395.95189 
L 208.729528 395.564213 
L 209.571525 395.95189 
L 210.413522 395.619596 
L 211.25552 395.896508 
L 212.097517 394.678095 
L 212.939514 396.007272 
L 214.623509 395.73036 
L 215.465507 395.342684 
L 216.307504 395.508831 
L 217.991499 396.17342 
L 218.833496 395.508831 
L 219.675493 395.785743 
L 220.517491 395.010389 
L 221.359488 396.561096 
L 222.201486 396.062655 
L 223.043483 395.287301 
L 223.88548 395.564213 
L 225.569475 395.453448 
L 226.411472 396.17342 
L 227.25347 395.619596 
L 228.095467 395.841125 
L 228.937465 396.284184 
L 229.779462 395.453448 
L 230.621459 396.228802 
L 231.463457 395.785743 
L 233.147451 395.95189 
L 233.989449 395.841125 
L 234.831446 396.616479 
L 235.673444 395.619596 
L 236.515441 396.062655 
L 237.357438 395.508831 
L 238.199436 395.508831 
L 239.041433 395.674978 
L 239.88343 396.228802 
L 240.725428 395.508831 
L 241.567425 396.007272 
L 242.409423 395.73036 
L 243.25142 395.95189 
L 244.935415 395.287301 
L 245.777412 395.674978 
L 247.461407 395.564213 
L 248.303404 395.453448 
L 249.145402 395.785743 
L 249.987399 395.176536 
L 250.829396 395.508831 
L 252.513391 395.73036 
L 253.355388 395.065771 
L 255.039383 395.896508 
L 255.881381 396.228802 
L 256.723378 395.176536 
L 258.407373 395.065771 
L 259.24937 394.235035 
L 260.091367 394.511947 
L 260.933365 394.3458 
L 261.775362 393.625829 
L 262.61736 392.739711 
L 263.459357 393.238152 
L 265.143352 391.078238 
L 266.827346 390.856709 
L 267.669344 389.527531 
L 268.511341 389.804443 
L 269.353339 388.032206 
L 270.195336 389.084472 
L 271.037333 388.309118 
L 271.879331 388.862942 
L 271.879331 388.862942 
" clip-path="url(#pc156c32c70)" style="fill: none; stroke: #008000; stroke-width: 1.5; stroke-linecap: square"/>
   </g>
   <g id="patch_8">
    <path d="M 57.17 398.333333 
L 57.17 218.506667 
" style="fill: none; stroke: #000000; stroke-width: 0.8; stroke-linejoin: miter; stroke-linecap: square"/>
   </g>
   <g id="patch_9">
    <path d="M 272.721328 398.333333 
L 272.721328 218.506667 
" style="fill: none; stroke: #000000; stroke-width: 0.8; stroke-linejoin: miter; stroke-linecap: square"/>
   </g>
   <g id="patch_10">
    <path d="M 57.17 398.333333 
L 272.721328 398.333333 
" style="fill: none; stroke: #000000; stroke-width: 0.8; stroke-linejoin: miter; stroke-linecap: square"/>
   </g>
   <g id="patch_11">
    <path d="M 57.17 218.506667 
L 272.721328 218.506667 
" style="fill: none; stroke: #000000; stroke-width: 0.8; stroke-linejoin: miter; stroke-linecap: square"/>
   </g>
   <g id="text_30">
    <!-- Green Channel  -->
    <g transform="translate(179.494453 232.506667) scale(0.12 -0.12)">
     <defs>
      <path id="DejaVuSans-47" d="M 3809 666 
L 3809 1919 
L 2778 1919 
L 2778 2438 
L 4434 2438 
L 4434 434 
Q 4069 175 3628 42 
Q 3188 -91 2688 -91 
Q 1594 -91 976 548 
Q 359 1188 359 2328 
Q 359 3472 976 4111 
Q 1594 4750 2688 4750 
Q 3144 4750 3555 4637 
Q 3966 4525 4313 4306 
L 4313 3634 
Q 3963 3931 3569 4081 
Q 3175 4231 2741 4231 
Q 1884 4231 1454 3753 
Q 1025 3275 1025 2328 
Q 1025 1384 1454 906 
Q 1884 428 2741 428 
Q 3075 428 3337 486 
Q 3600 544 3809 666 
z
" transform="scale(0.015625)"/>
     </defs>
     <use xlink:href="#DejaVuSans-47"/>
     <use xlink:href="#DejaVuSans-72" x="77.490234"/>
     <use xlink:href="#DejaVuSans-65" x="116.353516"/>
     <use xlink:href="#DejaVuSans-65" x="177.876953"/>
     <use xlink:href="#DejaVuSans-6e" x="239.400391"/>
     <use xlink:href="#DejaVuSans-20" x="302.779297"/>
     <use xlink:href="#DejaVuSans-43" x="334.566406"/>
     <use xlink:href="#DejaVuSans-68" x="404.390625"/>
     <use xlink:href="#DejaVuSans-61" x="467.769531"/>
     <use xlink:href="#DejaVuSans-6e" x="529.048828"/>
     <use xlink:href="#DejaVuSans-6e" x="592.427734"/>
     <use xlink:href="#DejaVuSans-65" x="655.806641"/>
     <use xlink:href="#DejaVuSans-6c" x="717.330078"/>
     <use xlink:href="#DejaVuSans-20" x="745.113281"/>
    </g>
   </g>
  </g>
  <g id="axes_3">
   <g id="patch_12">
    <path d="M 57.17 606.04 
L 272.721328 606.04 
L 272.721328 426.213333 
L 57.17 426.213333 
z
" style="fill: #ffffff"/>
   </g>
   <g id="PolyCollection_3">
    <defs>
     <path id="m3199577b19" d="M 57.17 -41.96 
L 57.17 -41.96 
L 58.011997 -41.96 
L 58.853995 -41.96 
L 59.695992 -41.96 
L 60.53799 -41.96 
L 61.379987 -41.96 
L 62.221984 -41.96 
L 63.063982 -41.96 
L 63.905979 -41.96 
L 64.747976 -41.96 
L 65.589974 -41.96 
L 66.431971 -41.96 
L 67.273969 -41.96 
L 68.115966 -41.96 
L 68.957963 -41.96 
L 69.799961 -41.96 
L 70.641958 -41.96 
L 71.483955 -41.96 
L 72.325953 -41.96 
L 73.16795 -41.96 
L 74.009948 -41.96 
L 74.851945 -41.96 
L 75.693942 -41.96 
L 76.53594 -42.015382 
L 77.377937 -42.015382 
L 78.219934 -42.070765 
L 79.061932 -42.126147 
L 79.903929 -42.18153 
L 80.745927 -42.292294 
L 81.587924 -42.569206 
L 82.429921 -42.403059 
L 83.271919 -43.289178 
L 84.113916 -44.507591 
L 84.955913 -44.175296 
L 85.797911 -46.002916 
L 86.639908 -46.55674 
L 87.481906 -48.827418 
L 88.323903 -51.264244 
L 89.1659 -52.31651 
L 90.007898 -56.857867 
L 90.849895 -59.128545 
L 91.691892 -63.725285 
L 92.53389 -66.106728 
L 93.375887 -74.580236 
L 94.217885 -76.020179 
L 95.059882 -85.656717 
L 95.901879 -86.930512 
L 96.743877 -91.748781 
L 97.585874 -98.726964 
L 98.427871 -102.659115 
L 99.269869 -107.14509 
L 100.111866 -108.086591 
L 100.953864 -113.569449 
L 101.795861 -115.840127 
L 102.637858 -111.29877 
L 103.479856 -114.621714 
L 104.321853 -113.347919 
L 105.16385 -113.237154 
L 106.005848 -115.729362 
L 106.847845 -114.455567 
L 107.689843 -115.064774 
L 108.53184 -121.322985 
L 109.373837 -124.147488 
L 110.215835 -125.864342 
L 111.057832 -125.698195 
L 111.899829 -123.538281 
L 112.741827 -122.762928 
L 113.583824 -114.344802 
L 114.425822 -107.366619 
L 115.267819 -105.151323 
L 116.109816 -99.336171 
L 116.951814 -88.370455 
L 117.793811 -87.705866 
L 118.635808 -77.515504 
L 119.477806 -72.863382 
L 120.319803 -71.201909 
L 121.161801 -64.943698 
L 122.003798 -64.832933 
L 122.845795 -63.060696 
L 123.687793 -58.297809 
L 124.52979 -58.519339 
L 125.371787 -55.639454 
L 126.213785 -55.307159 
L 127.055782 -53.368775 
L 127.89778 -53.202628 
L 128.739777 -51.762686 
L 129.581774 -50.655037 
L 130.423772 -51.541156 
L 131.265769 -50.544273 
L 132.107766 -50.267361 
L 132.949764 -49.381242 
L 133.791761 -49.547389 
L 134.633759 -48.716653 
L 135.475756 -47.332093 
L 136.317753 -48.882801 
L 137.159751 -47.996682 
L 138.001748 -48.439741 
L 138.843745 -47.553623 
L 139.685743 -47.387476 
L 140.52774 -47.71977 
L 141.369738 -47.165946 
L 142.211735 -47.775152 
L 143.053732 -47.165946 
L 143.89573 -46.390592 
L 144.737727 -47.165946 
L 145.579724 -46.722887 
L 146.421722 -45.947533 
L 147.263719 -46.224445 
L 148.105717 -47.221328 
L 148.947714 -45.947533 
L 149.789711 -47.276711 
L 150.631709 -46.501357 
L 151.473706 -46.612122 
L 152.315703 -46.667504 
L 153.157701 -45.726003 
L 153.999698 -46.11368 
L 154.841696 -46.058298 
L 155.683693 -46.11368 
L 156.52569 -46.058298 
L 157.367688 -46.169063 
L 158.209685 -46.55674 
L 159.051682 -46.279828 
L 159.89368 -46.11368 
L 160.735677 -46.11368 
L 161.577675 -46.058298 
L 162.419672 -44.839885 
L 163.261669 -45.615239 
L 164.103667 -45.006032 
L 164.945664 -46.11368 
L 165.787661 -45.006032 
L 166.629659 -46.058298 
L 167.471656 -45.061415 
L 168.313654 -44.895267 
L 169.155651 -45.006032 
L 169.997648 -45.227562 
L 170.839646 -44.673738 
L 171.681643 -45.781386 
L 172.52364 -45.116797 
L 173.365638 -44.119914 
L 174.207635 -45.172179 
L 175.049633 -45.116797 
L 175.89163 -45.393709 
L 176.733627 -45.338327 
L 177.575625 -45.615239 
L 178.417622 -44.895267 
L 179.259619 -45.670621 
L 180.101617 -45.061415 
L 180.943614 -45.061415 
L 181.785612 -45.449091 
L 182.627609 -45.006032 
L 183.469606 -44.673738 
L 184.311604 -44.72912 
L 185.153601 -45.504474 
L 185.995598 -44.673738 
L 186.837596 -44.230679 
L 187.679593 -44.895267 
L 188.521591 -45.227562 
L 189.363588 -44.286061 
L 190.205585 -43.953767 
L 191.047583 -44.673738 
L 191.88958 -44.95065 
L 192.731577 -45.227562 
L 193.573575 -44.507591 
L 194.415572 -44.507591 
L 195.25757 -45.172179 
L 196.099567 -44.507591 
L 196.941564 -44.396826 
L 197.783562 -44.562973 
L 198.625559 -43.953767 
L 199.467556 -44.673738 
L 200.309554 -44.507591 
L 201.151551 -44.009149 
L 201.993549 -44.064531 
L 202.835546 -43.34456 
L 203.677543 -43.787619 
L 204.519541 -44.064531 
L 205.361538 -44.286061 
L 206.203535 -43.843002 
L 207.045533 -43.843002 
L 207.88753 -43.898384 
L 208.729528 -44.286061 
L 209.571525 -44.286061 
L 210.413522 -44.452208 
L 211.25552 -44.119914 
L 212.097517 -44.009149 
L 212.939514 -44.618355 
L 213.781512 -43.953767 
L 214.623509 -43.898384 
L 215.465507 -43.787619 
L 216.307504 -44.286061 
L 217.149501 -43.953767 
L 217.991499 -43.455325 
L 218.833496 -43.399943 
L 219.675493 -44.175296 
L 220.517491 -44.064531 
L 221.359488 -43.676855 
L 222.201486 -44.230679 
L 223.043483 -43.289178 
L 223.88548 -43.676855 
L 224.727478 -43.676855 
L 225.569475 -43.843002 
L 226.411472 -43.953767 
L 227.25347 -43.289178 
L 228.095467 -43.787619 
L 228.937465 -43.178413 
L 229.779462 -43.56609 
L 230.621459 -43.12303 
L 231.463457 -43.56609 
L 232.305454 -43.012266 
L 233.147451 -43.399943 
L 233.989449 -43.953767 
L 234.831446 -43.676855 
L 235.673444 -43.289178 
L 236.515441 -43.56609 
L 237.357438 -43.34456 
L 238.199436 -43.399943 
L 239.041433 -43.178413 
L 239.88343 -43.34456 
L 240.725428 -43.012266 
L 241.567425 -43.510707 
L 242.409423 -43.233795 
L 243.25142 -43.34456 
L 244.093417 -43.56609 
L 244.935415 -43.067648 
L 245.777412 -43.399943 
L 246.619409 -43.34456 
L 247.461407 -42.735354 
L 248.303404 -42.901501 
L 249.145402 -43.233795 
L 249.987399 -43.12303 
L 250.829396 -42.790736 
L 251.671394 -42.846118 
L 252.513391 -42.679971 
L 253.355388 -42.901501 
L 254.197386 -42.956883 
L 255.039383 -42.679971 
L 255.881381 -42.624589 
L 256.723378 -42.679971 
L 257.565375 -42.18153 
L 258.407373 -42.624589 
L 259.24937 -41.96 
L 260.091367 -42.292294 
L 260.933365 -41.96 
L 261.775362 -41.96 
L 262.61736 -41.96 
L 263.459357 -41.96 
L 264.301354 -41.96 
L 265.143352 -41.96 
L 265.985349 -41.96 
L 266.827346 -41.96 
L 267.669344 -41.96 
L 268.511341 -41.96 
L 269.353339 -41.96 
L 270.195336 -41.96 
L 271.037333 -41.96 
L 271.879331 -41.96 
L 271.879331 -41.96 
L 271.879331 -41.96 
L 271.037333 -41.96 
L 270.195336 -41.96 
L 269.353339 -41.96 
L 268.511341 -41.96 
L 267.669344 -41.96 
L 266.827346 -41.96 
L 265.985349 -41.96 
L 265.143352 -41.96 
L 264.301354 -41.96 
L 263.459357 -41.96 
L 262.61736 -41.96 
L 261.775362 -41.96 
L 260.933365 -41.96 
L 260.091367 -41.96 
L 259.24937 -41.96 
L 258.407373 -41.96 
L 257.565375 -41.96 
L 256.723378 -41.96 
L 255.881381 -41.96 
L 255.039383 -41.96 
L 254.197386 -41.96 
L 253.355388 -41.96 
L 252.513391 -41.96 
L 251.671394 -41.96 
L 250.829396 -41.96 
L 249.987399 -41.96 
L 249.145402 -41.96 
L 248.303404 -41.96 
L 247.461407 -41.96 
L 246.619409 -41.96 
L 245.777412 -41.96 
L 244.935415 -41.96 
L 244.093417 -41.96 
L 243.25142 -41.96 
L 242.409423 -41.96 
L 241.567425 -41.96 
L 240.725428 -41.96 
L 239.88343 -41.96 
L 239.041433 -41.96 
L 238.199436 -41.96 
L 237.357438 -41.96 
L 236.515441 -41.96 
L 235.673444 -41.96 
L 234.831446 -41.96 
L 233.989449 -41.96 
L 233.147451 -41.96 
L 232.305454 -41.96 
L 231.463457 -41.96 
L 230.621459 -41.96 
L 229.779462 -41.96 
L 228.937465 -41.96 
L 228.095467 -41.96 
L 227.25347 -41.96 
L 226.411472 -41.96 
L 225.569475 -41.96 
L 224.727478 -41.96 
L 223.88548 -41.96 
L 223.043483 -41.96 
L 222.201486 -41.96 
L 221.359488 -41.96 
L 220.517491 -41.96 
L 219.675493 -41.96 
L 218.833496 -41.96 
L 217.991499 -41.96 
L 217.149501 -41.96 
L 216.307504 -41.96 
L 215.465507 -41.96 
L 214.623509 -41.96 
L 213.781512 -41.96 
L 212.939514 -41.96 
L 212.097517 -41.96 
L 211.25552 -41.96 
L 210.413522 -41.96 
L 209.571525 -41.96 
L 208.729528 -41.96 
L 207.88753 -41.96 
L 207.045533 -41.96 
L 206.203535 -41.96 
L 205.361538 -41.96 
L 204.519541 -41.96 
L 203.677543 -41.96 
L 202.835546 -41.96 
L 201.993549 -41.96 
L 201.151551 -41.96 
L 200.309554 -41.96 
L 199.467556 -41.96 
L 198.625559 -41.96 
L 197.783562 -41.96 
L 196.941564 -41.96 
L 196.099567 -41.96 
L 195.25757 -41.96 
L 194.415572 -41.96 
L 193.573575 -41.96 
L 192.731577 -41.96 
L 191.88958 -41.96 
L 191.047583 -41.96 
L 190.205585 -41.96 
L 189.363588 -41.96 
L 188.521591 -41.96 
L 187.679593 -41.96 
L 186.837596 -41.96 
L 185.995598 -41.96 
L 185.153601 -41.96 
L 184.311604 -41.96 
L 183.469606 -41.96 
L 182.627609 -41.96 
L 181.785612 -41.96 
L 180.943614 -41.96 
L 180.101617 -41.96 
L 179.259619 -41.96 
L 178.417622 -41.96 
L 177.575625 -41.96 
L 176.733627 -41.96 
L 175.89163 -41.96 
L 175.049633 -41.96 
L 174.207635 -41.96 
L 173.365638 -41.96 
L 172.52364 -41.96 
L 171.681643 -41.96 
L 170.839646 -41.96 
L 169.997648 -41.96 
L 169.155651 -41.96 
L 168.313654 -41.96 
L 167.471656 -41.96 
L 166.629659 -41.96 
L 165.787661 -41.96 
L 164.945664 -41.96 
L 164.103667 -41.96 
L 163.261669 -41.96 
L 162.419672 -41.96 
L 161.577675 -41.96 
L 160.735677 -41.96 
L 159.89368 -41.96 
L 159.051682 -41.96 
L 158.209685 -41.96 
L 157.367688 -41.96 
L 156.52569 -41.96 
L 155.683693 -41.96 
L 154.841696 -41.96 
L 153.999698 -41.96 
L 153.157701 -41.96 
L 152.315703 -41.96 
L 151.473706 -41.96 
L 150.631709 -41.96 
L 149.789711 -41.96 
L 148.947714 -41.96 
L 148.105717 -41.96 
L 147.263719 -41.96 
L 146.421722 -41.96 
L 145.579724 -41.96 
L 144.737727 -41.96 
L 143.89573 -41.96 
L 143.053732 -41.96 
L 142.211735 -41.96 
L 141.369738 -41.96 
L 140.52774 -41.96 
L 139.685743 -41.96 
L 138.843745 -41.96 
L 138.001748 -41.96 
L 137.159751 -41.96 
L 136.317753 -41.96 
L 135.475756 -41.96 
L 134.633759 -41.96 
L 133.791761 -41.96 
L 132.949764 -41.96 
L 132.107766 -41.96 
L 131.265769 -41.96 
L 130.423772 -41.96 
L 129.581774 -41.96 
L 128.739777 -41.96 
L 127.89778 -41.96 
L 127.055782 -41.96 
L 126.213785 -41.96 
L 125.371787 -41.96 
L 124.52979 -41.96 
L 123.687793 -41.96 
L 122.845795 -41.96 
L 122.003798 -41.96 
L 121.161801 -41.96 
L 120.319803 -41.96 
L 119.477806 -41.96 
L 118.635808 -41.96 
L 117.793811 -41.96 
L 116.951814 -41.96 
L 116.109816 -41.96 
L 115.267819 -41.96 
L 114.425822 -41.96 
L 113.583824 -41.96 
L 112.741827 -41.96 
L 111.899829 -41.96 
L 111.057832 -41.96 
L 110.215835 -41.96 
L 109.373837 -41.96 
L 108.53184 -41.96 
L 107.689843 -41.96 
L 106.847845 -41.96 
L 106.005848 -41.96 
L 105.16385 -41.96 
L 104.321853 -41.96 
L 103.479856 -41.96 
L 102.637858 -41.96 
L 101.795861 -41.96 
L 100.953864 -41.96 
L 100.111866 -41.96 
L 99.269869 -41.96 
L 98.427871 -41.96 
L 97.585874 -41.96 
L 96.743877 -41.96 
L 95.901879 -41.96 
L 95.059882 -41.96 
L 94.217885 -41.96 
L 93.375887 -41.96 
L 92.53389 -41.96 
L 91.691892 -41.96 
L 90.849895 -41.96 
L 90.007898 -41.96 
L 89.1659 -41.96 
L 88.323903 -41.96 
L 87.481906 -41.96 
L 86.639908 -41.96 
L 85.797911 -41.96 
L 84.955913 -41.96 
L 84.113916 -41.96 
L 83.271919 -41.96 
L 82.429921 -41.96 
L 81.587924 -41.96 
L 80.745927 -41.96 
L 79.903929 -41.96 
L 79.061932 -41.96 
L 78.219934 -41.96 
L 77.377937 -41.96 
L 76.53594 -41.96 
L 75.693942 -41.96 
L 74.851945 -41.96 
L 74.009948 -41.96 
L 73.16795 -41.96 
L 72.325953 -41.96 
L 71.483955 -41.96 
L 70.641958 -41.96 
L 69.799961 -41.96 
L 68.957963 -41.96 
L 68.115966 -41.96 
L 67.273969 -41.96 
L 66.431971 -41.96 
L 65.589974 -41.96 
L 64.747976 -41.96 
L 63.905979 -41.96 
L 63.063982 -41.96 
L 62.221984 -41.96 
L 61.379987 -41.96 
L 60.53799 -41.96 
L 59.695992 -41.96 
L 58.853995 -41.96 
L 58.011997 -41.96 
L 57.17 -41.96 
z
" style="stroke: #0000ff; stroke-opacity: 0.4"/>
    </defs>
    <g clip-path="url(#p693d4694d4)">
     <use xlink:href="#m3199577b19" x="0" y="648" style="fill: #0000ff; fill-opacity: 0.4; stroke: #0000ff; stroke-opacity: 0.4"/>
    </g>
   </g>
   <g id="matplotlib.axis_5">
    <g id="xtick_13">
     <g id="line2d_29">
      <g>
       <use xlink:href="#m555478ca66" x="57.17" y="606.04" style="stroke: #000000; stroke-width: 0.8"/>
      </g>
     </g>
     <g id="text_31">
      <!-- 0 -->
      <g transform="translate(53.98875 620.638438) scale(0.1 -0.1)">
       <use xlink:href="#DejaVuSans-30"/>
      </g>
     </g>
    </g>
    <g id="xtick_14">
     <g id="line2d_30">
      <g>
       <use xlink:href="#m555478ca66" x="99.269869" y="606.04" style="stroke: #000000; stroke-width: 0.8"/>
      </g>
     </g>
     <g id="text_32">
      <!-- 50 -->
      <g transform="translate(92.907369 620.638438) scale(0.1 -0.1)">
       <use xlink:href="#DejaVuSans-35"/>
       <use xlink:href="#DejaVuSans-30" x="63.623047"/>
      </g>
     </g>
    </g>
    <g id="xtick_15">
     <g id="line2d_31">
      <g>
       <use xlink:href="#m555478ca66" x="141.369738" y="606.04" style="stroke: #000000; stroke-width: 0.8"/>
      </g>
     </g>
     <g id="text_33">
      <!-- 100 -->
      <g transform="translate(131.825988 620.638438) scale(0.1 -0.1)">
       <use xlink:href="#DejaVuSans-31"/>
       <use xlink:href="#DejaVuSans-30" x="63.623047"/>
       <use xlink:href="#DejaVuSans-30" x="127.246094"/>
      </g>
     </g>
    </g>
    <g id="xtick_16">
     <g id="line2d_32">
      <g>
       <use xlink:href="#m555478ca66" x="183.469606" y="606.04" style="stroke: #000000; stroke-width: 0.8"/>
      </g>
     </g>
     <g id="text_34">
      <!-- 150 -->
      <g transform="translate(173.925856 620.638438) scale(0.1 -0.1)">
       <use xlink:href="#DejaVuSans-31"/>
       <use xlink:href="#DejaVuSans-35" x="63.623047"/>
       <use xlink:href="#DejaVuSans-30" x="127.246094"/>
      </g>
     </g>
    </g>
    <g id="xtick_17">
     <g id="line2d_33">
      <g>
       <use xlink:href="#m555478ca66" x="225.569475" y="606.04" style="stroke: #000000; stroke-width: 0.8"/>
      </g>
     </g>
     <g id="text_35">
      <!-- 200 -->
      <g transform="translate(216.025725 620.638438) scale(0.1 -0.1)">
       <use xlink:href="#DejaVuSans-32"/>
       <use xlink:href="#DejaVuSans-30" x="63.623047"/>
       <use xlink:href="#DejaVuSans-30" x="127.246094"/>
      </g>
     </g>
    </g>
    <g id="xtick_18">
     <g id="line2d_34">
      <g>
       <use xlink:href="#m555478ca66" x="267.669344" y="606.04" style="stroke: #000000; stroke-width: 0.8"/>
      </g>
     </g>
     <g id="text_36">
      <!-- 250 -->
      <g transform="translate(258.125594 620.638438) scale(0.1 -0.1)">
       <use xlink:href="#DejaVuSans-32"/>
       <use xlink:href="#DejaVuSans-35" x="63.623047"/>
       <use xlink:href="#DejaVuSans-30" x="127.246094"/>
      </g>
     </g>
    </g>
    <g id="text_37">
     <!-- Pixel Intensity -->
     <g transform="translate(130.033945 634.316563) scale(0.1 -0.1)">
      <defs>
       <path id="DejaVuSans-49" d="M 628 4666 
L 1259 4666 
L 1259 0 
L 628 0 
L 628 4666 
z
" transform="scale(0.015625)"/>
       <path id="DejaVuSans-74" d="M 1172 4494 
L 1172 3500 
L 2356 3500 
L 2356 3053 
L 1172 3053 
L 1172 1153 
Q 1172 725 1289 603 
Q 1406 481 1766 481 
L 2356 481 
L 2356 0 
L 1766 0 
Q 1100 0 847 248 
Q 594 497 594 1153 
L 594 3053 
L 172 3053 
L 172 3500 
L 594 3500 
L 594 4494 
L 1172 4494 
z
" transform="scale(0.015625)"/>
       <path id="DejaVuSans-73" d="M 2834 3397 
L 2834 2853 
Q 2591 2978 2328 3040 
Q 2066 3103 1784 3103 
Q 1356 3103 1142 2972 
Q 928 2841 928 2578 
Q 928 2378 1081 2264 
Q 1234 2150 1697 2047 
L 1894 2003 
Q 2506 1872 2764 1633 
Q 3022 1394 3022 966 
Q 3022 478 2636 193 
Q 2250 -91 1575 -91 
Q 1294 -91 989 -36 
Q 684 19 347 128 
L 347 722 
Q 666 556 975 473 
Q 1284 391 1588 391 
Q 1994 391 2212 530 
Q 2431 669 2431 922 
Q 2431 1156 2273 1281 
Q 2116 1406 1581 1522 
L 1381 1569 
Q 847 1681 609 1914 
Q 372 2147 372 2553 
Q 372 3047 722 3315 
Q 1072 3584 1716 3584 
Q 2034 3584 2315 3537 
Q 2597 3491 2834 3397 
z
" transform="scale(0.015625)"/>
      </defs>
      <use xlink:href="#DejaVuSans-50"/>
      <use xlink:href="#DejaVuSans-69" x="58.052734"/>
      <use xlink:href="#DejaVuSans-78" x="85.835938"/>
      <use xlink:href="#DejaVuSans-65" x="141.890625"/>
      <use xlink:href="#DejaVuSans-6c" x="203.414062"/>
      <use xlink:href="#DejaVuSans-20" x="231.197266"/>
      <use xlink:href="#DejaVuSans-49" x="262.984375"/>
      <use xlink:href="#DejaVuSans-6e" x="292.476562"/>
      <use xlink:href="#DejaVuSans-74" x="355.855469"/>
      <use xlink:href="#DejaVuSans-65" x="395.064453"/>
      <use xlink:href="#DejaVuSans-6e" x="456.587891"/>
      <use xlink:href="#DejaVuSans-73" x="519.966797"/>
      <use xlink:href="#DejaVuSans-69" x="572.066406"/>
      <use xlink:href="#DejaVuSans-74" x="599.849609"/>
      <use xlink:href="#DejaVuSans-79" x="639.058594"/>
     </g>
    </g>
   </g>
   <g id="matplotlib.axis_6">
    <g id="ytick_15">
     <g id="line2d_35">
      <g>
       <use xlink:href="#m9c16f291c2" x="57.17" y="606.04" style="stroke: #000000; stroke-width: 0.8"/>
      </g>
     </g>
     <g id="text_38">
      <!-- 0 -->
      <g transform="translate(43.8075 609.839219) scale(0.1 -0.1)">
       <use xlink:href="#DejaVuSans-30"/>
      </g>
     </g>
    </g>
    <g id="ytick_16">
     <g id="line2d_36">
      <g>
       <use xlink:href="#m9c16f291c2" x="57.17" y="578.348798" style="stroke: #000000; stroke-width: 0.8"/>
      </g>
     </g>
     <g id="text_39">
      <!-- 500 -->
      <g transform="translate(31.0825 582.148017) scale(0.1 -0.1)">
       <use xlink:href="#DejaVuSans-35"/>
       <use xlink:href="#DejaVuSans-30" x="63.623047"/>
       <use xlink:href="#DejaVuSans-30" x="127.246094"/>
      </g>
     </g>
    </g>
    <g id="ytick_17">
     <g id="line2d_37">
      <g>
       <use xlink:href="#m9c16f291c2" x="57.17" y="550.657596" style="stroke: #000000; stroke-width: 0.8"/>
      </g>
     </g>
     <g id="text_40">
      <!-- 1000 -->
      <g transform="translate(24.72 554.456814) scale(0.1 -0.1)">
       <use xlink:href="#DejaVuSans-31"/>
       <use xlink:href="#DejaVuSans-30" x="63.623047"/>
       <use xlink:href="#DejaVuSans-30" x="127.246094"/>
       <use xlink:href="#DejaVuSans-30" x="190.869141"/>
      </g>
     </g>
    </g>
    <g id="ytick_18">
     <g id="line2d_38">
      <g>
       <use xlink:href="#m9c16f291c2" x="57.17" y="522.966394" style="stroke: #000000; stroke-width: 0.8"/>
      </g>
     </g>
     <g id="text_41">
      <!-- 1500 -->
      <g transform="translate(24.72 526.765612) scale(0.1 -0.1)">
       <use xlink:href="#DejaVuSans-31"/>
       <use xlink:href="#DejaVuSans-35" x="63.623047"/>
       <use xlink:href="#DejaVuSans-30" x="127.246094"/>
       <use xlink:href="#DejaVuSans-30" x="190.869141"/>
      </g>
     </g>
    </g>
    <g id="ytick_19">
     <g id="line2d_39">
      <g>
       <use xlink:href="#m9c16f291c2" x="57.17" y="495.275191" style="stroke: #000000; stroke-width: 0.8"/>
      </g>
     </g>
     <g id="text_42">
      <!-- 2000 -->
      <g transform="translate(24.72 499.07441) scale(0.1 -0.1)">
       <use xlink:href="#DejaVuSans-32"/>
       <use xlink:href="#DejaVuSans-30" x="63.623047"/>
       <use xlink:href="#DejaVuSans-30" x="127.246094"/>
       <use xlink:href="#DejaVuSans-30" x="190.869141"/>
      </g>
     </g>
    </g>
    <g id="ytick_20">
     <g id="line2d_40">
      <g>
       <use xlink:href="#m9c16f291c2" x="57.17" y="467.583989" style="stroke: #000000; stroke-width: 0.8"/>
      </g>
     </g>
     <g id="text_43">
      <!-- 2500 -->
      <g transform="translate(24.72 471.383208) scale(0.1 -0.1)">
       <use xlink:href="#DejaVuSans-32"/>
       <use xlink:href="#DejaVuSans-35" x="63.623047"/>
       <use xlink:href="#DejaVuSans-30" x="127.246094"/>
       <use xlink:href="#DejaVuSans-30" x="190.869141"/>
      </g>
     </g>
    </g>
    <g id="ytick_21">
     <g id="line2d_41">
      <g>
       <use xlink:href="#m9c16f291c2" x="57.17" y="439.892787" style="stroke: #000000; stroke-width: 0.8"/>
      </g>
     </g>
     <g id="text_44">
      <!-- 3000 -->
      <g transform="translate(24.72 443.692006) scale(0.1 -0.1)">
       <use xlink:href="#DejaVuSans-33"/>
       <use xlink:href="#DejaVuSans-30" x="63.623047"/>
       <use xlink:href="#DejaVuSans-30" x="127.246094"/>
       <use xlink:href="#DejaVuSans-30" x="190.869141"/>
      </g>
     </g>
    </g>
    <g id="text_45">
     <!-- Pixel Frequency -->
     <g transform="translate(18.640313 555.105573) rotate(-90) scale(0.1 -0.1)">
      <use xlink:href="#DejaVuSans-50"/>
      <use xlink:href="#DejaVuSans-69" x="58.052734"/>
      <use xlink:href="#DejaVuSans-78" x="85.835938"/>
      <use xlink:href="#DejaVuSans-65" x="141.890625"/>
      <use xlink:href="#DejaVuSans-6c" x="203.414062"/>
      <use xlink:href="#DejaVuSans-20" x="231.197266"/>
      <use xlink:href="#DejaVuSans-46" x="262.984375"/>
      <use xlink:href="#DejaVuSans-72" x="313.253906"/>
      <use xlink:href="#DejaVuSans-65" x="352.117188"/>
      <use xlink:href="#DejaVuSans-71" x="413.640625"/>
      <use xlink:href="#DejaVuSans-75" x="477.117188"/>
      <use xlink:href="#DejaVuSans-65" x="540.496094"/>
      <use xlink:href="#DejaVuSans-6e" x="602.019531"/>
      <use xlink:href="#DejaVuSans-63" x="665.398438"/>
      <use xlink:href="#DejaVuSans-79" x="720.378906"/>
     </g>
    </g>
   </g>
   <g id="line2d_42">
    <path d="M 57.17 606.04 
L 78.219934 605.929235 
L 80.745927 605.707706 
L 81.587924 605.430794 
L 82.429921 605.596941 
L 83.271919 604.710822 
L 84.113916 603.492409 
L 84.955913 603.824704 
L 85.797911 601.997084 
L 86.639908 601.44326 
L 88.323903 596.735756 
L 89.1659 595.68349 
L 90.007898 591.142133 
L 90.849895 588.871455 
L 91.691892 584.274715 
L 92.53389 581.893272 
L 93.375887 573.419764 
L 94.217885 571.979821 
L 95.059882 562.343283 
L 95.901879 561.069488 
L 96.743877 556.251219 
L 97.585874 549.273036 
L 98.427871 545.340885 
L 99.269869 540.85491 
L 100.111866 539.913409 
L 100.953864 534.430551 
L 101.795861 532.159873 
L 102.637858 536.70123 
L 103.479856 533.378286 
L 104.321853 534.652081 
L 105.16385 534.762846 
L 106.005848 532.270638 
L 106.847845 533.544433 
L 107.689843 532.935226 
L 108.53184 526.677015 
L 109.373837 523.852512 
L 110.215835 522.135658 
L 111.057832 522.301805 
L 111.899829 524.461719 
L 112.741827 525.237072 
L 113.583824 533.655198 
L 114.425822 540.633381 
L 115.267819 542.848677 
L 116.109816 548.663829 
L 116.951814 559.629545 
L 117.793811 560.294134 
L 118.635808 570.484496 
L 119.477806 575.136618 
L 120.319803 576.798091 
L 121.161801 583.056302 
L 122.003798 583.167067 
L 122.845795 584.939304 
L 123.687793 589.702191 
L 124.52979 589.480661 
L 125.371787 592.360546 
L 126.213785 592.692841 
L 127.055782 594.631225 
L 127.89778 594.797372 
L 128.739777 596.237314 
L 129.581774 597.344963 
L 130.423772 596.458844 
L 131.265769 597.455727 
L 132.107766 597.732639 
L 132.949764 598.618758 
L 133.791761 598.452611 
L 134.633759 599.283347 
L 135.475756 600.667907 
L 136.317753 599.117199 
L 137.159751 600.003318 
L 138.001748 599.560259 
L 138.843745 600.446377 
L 139.685743 600.612524 
L 140.52774 600.28023 
L 141.369738 600.834054 
L 142.211735 600.224848 
L 143.053732 600.834054 
L 143.89573 601.609408 
L 144.737727 600.834054 
L 145.579724 601.277113 
L 146.421722 602.052467 
L 147.263719 601.775555 
L 148.105717 600.778672 
L 148.947714 602.052467 
L 149.789711 600.723289 
L 150.631709 601.498643 
L 152.315703 601.332496 
L 153.157701 602.273997 
L 153.999698 601.88632 
L 156.52569 601.941702 
L 157.367688 601.830937 
L 158.209685 601.44326 
L 159.89368 601.88632 
L 161.577675 601.941702 
L 162.419672 603.160115 
L 163.261669 602.384761 
L 164.103667 602.993968 
L 164.945664 601.88632 
L 165.787661 602.993968 
L 166.629659 601.941702 
L 167.471656 602.938585 
L 168.313654 603.104733 
L 169.997648 602.772438 
L 170.839646 603.326262 
L 171.681643 602.218614 
L 172.52364 602.883203 
L 173.365638 603.880086 
L 174.207635 602.827821 
L 175.049633 602.883203 
L 175.89163 602.606291 
L 176.733627 602.661673 
L 177.575625 602.384761 
L 178.417622 603.104733 
L 179.259619 602.329379 
L 180.101617 602.938585 
L 180.943614 602.938585 
L 181.785612 602.550909 
L 183.469606 603.326262 
L 184.311604 603.27088 
L 185.153601 602.495526 
L 185.995598 603.326262 
L 186.837596 603.769321 
L 187.679593 603.104733 
L 188.521591 602.772438 
L 189.363588 603.713939 
L 190.205585 604.046233 
L 191.047583 603.326262 
L 192.731577 602.772438 
L 193.573575 603.492409 
L 194.415572 603.492409 
L 195.25757 602.827821 
L 196.099567 603.492409 
L 196.941564 603.603174 
L 197.783562 603.437027 
L 198.625559 604.046233 
L 199.467556 603.326262 
L 200.309554 603.492409 
L 201.151551 603.990851 
L 201.993549 603.935469 
L 202.835546 604.65544 
L 203.677543 604.212381 
L 205.361538 603.713939 
L 206.203535 604.156998 
L 207.88753 604.101616 
L 208.729528 603.713939 
L 209.571525 603.713939 
L 210.413522 603.547792 
L 211.25552 603.880086 
L 212.097517 603.990851 
L 212.939514 603.381645 
L 213.781512 604.046233 
L 215.465507 604.212381 
L 216.307504 603.713939 
L 217.149501 604.046233 
L 217.991499 604.544675 
L 218.833496 604.600057 
L 219.675493 603.824704 
L 220.517491 603.935469 
L 221.359488 604.323145 
L 222.201486 603.769321 
L 223.043483 604.710822 
L 223.88548 604.323145 
L 224.727478 604.323145 
L 226.411472 604.046233 
L 227.25347 604.710822 
L 228.095467 604.212381 
L 228.937465 604.821587 
L 229.779462 604.43391 
L 230.621459 604.87697 
L 231.463457 604.43391 
L 232.305454 604.987734 
L 233.147451 604.600057 
L 233.989449 604.046233 
L 235.673444 604.710822 
L 236.515441 604.43391 
L 237.357438 604.65544 
L 238.199436 604.600057 
L 239.041433 604.821587 
L 239.88343 604.65544 
L 240.725428 604.987734 
L 241.567425 604.489293 
L 242.409423 604.766205 
L 244.093417 604.43391 
L 244.935415 604.932352 
L 245.777412 604.600057 
L 246.619409 604.65544 
L 247.461407 605.264646 
L 248.303404 605.098499 
L 249.145402 604.766205 
L 249.987399 604.87697 
L 250.829396 605.209264 
L 251.671394 605.153882 
L 252.513391 605.320029 
L 253.355388 605.098499 
L 254.197386 605.043117 
L 255.039383 605.320029 
L 256.723378 605.320029 
L 257.565375 605.81847 
L 258.407373 605.375411 
L 259.24937 606.04 
L 260.091367 605.707706 
L 260.933365 606.04 
L 271.879331 606.04 
L 271.879331 606.04 
" clip-path="url(#p693d4694d4)" style="fill: none; stroke: #0000ff; stroke-width: 1.5; stroke-linecap: square"/>
   </g>
   <g id="patch_13">
    <path d="M 57.17 606.04 
L 57.17 426.213333 
" style="fill: none; stroke: #000000; stroke-width: 0.8; stroke-linejoin: miter; stroke-linecap: square"/>
   </g>
   <g id="patch_14">
    <path d="M 272.721328 606.04 
L 272.721328 426.213333 
" style="fill: none; stroke: #000000; stroke-width: 0.8; stroke-linejoin: miter; stroke-linecap: square"/>
   </g>
   <g id="patch_15">
    <path d="M 57.17 606.04 
L 272.721328 606.04 
" style="fill: none; stroke: #000000; stroke-width: 0.8; stroke-linejoin: miter; stroke-linecap: square"/>
   </g>
   <g id="patch_16">
    <path d="M 57.17 426.213333 
L 272.721328 426.213333 
" style="fill: none; stroke: #000000; stroke-width: 0.8; stroke-linejoin: miter; stroke-linecap: square"/>
   </g>
   <g id="text_46">
    <!-- Blue Channel  -->
    <g transform="translate(189.272578 440.213333) scale(0.12 -0.12)">
     <defs>
      <path id="DejaVuSans-42" d="M 1259 2228 
L 1259 519 
L 2272 519 
Q 2781 519 3026 730 
Q 3272 941 3272 1375 
Q 3272 1813 3026 2020 
Q 2781 2228 2272 2228 
L 1259 2228 
z
M 1259 4147 
L 1259 2741 
L 2194 2741 
Q 2656 2741 2882 2914 
Q 3109 3088 3109 3444 
Q 3109 3797 2882 3972 
Q 2656 4147 2194 4147 
L 1259 4147 
z
M 628 4666 
L 2241 4666 
Q 2963 4666 3353 4366 
Q 3744 4066 3744 3513 
Q 3744 3084 3544 2831 
Q 3344 2578 2956 2516 
Q 3422 2416 3680 2098 
Q 3938 1781 3938 1306 
Q 3938 681 3513 340 
Q 3088 0 2303 0 
L 628 0 
L 628 4666 
z
" transform="scale(0.015625)"/>
     </defs>
     <use xlink:href="#DejaVuSans-42"/>
     <use xlink:href="#DejaVuSans-6c" x="68.603516"/>
     <use xlink:href="#DejaVuSans-75" x="96.386719"/>
     <use xlink:href="#DejaVuSans-65" x="159.765625"/>
     <use xlink:href="#DejaVuSans-20" x="221.289062"/>
     <use xlink:href="#DejaVuSans-43" x="253.076172"/>
     <use xlink:href="#DejaVuSans-68" x="322.900391"/>
     <use xlink:href="#DejaVuSans-61" x="386.279297"/>
     <use xlink:href="#DejaVuSans-6e" x="447.558594"/>
     <use xlink:href="#DejaVuSans-6e" x="510.9375"/>
     <use xlink:href="#DejaVuSans-65" x="574.316406"/>
     <use xlink:href="#DejaVuSans-6c" x="635.839844"/>
     <use xlink:href="#DejaVuSans-20" x="663.623047"/>
    </g>
   </g>
  </g>
 </g>
 <defs>
  <clipPath id="pdac51d138b">
   <rect x="57.17" y="10.8" width="215.551328" height="179.826667"/>
  </clipPath>
  <clipPath id="pc156c32c70">
   <rect x="57.17" y="218.506667" width="215.551328" height="179.826667"/>
  </clipPath>
  <clipPath id="p693d4694d4">
   <rect x="57.17" y="426.213333" width="215.551328" height="179.826667"/>
  </clipPath>
 </defs>
</svg>
