<?xml version="1.0" encoding="utf-8" standalone="no"?>
<!DOCTYPE svg PUBLIC "-//W3C//DTD SVG 1.1//EN"
  "http://www.w3.org/Graphics/SVG/1.1/DTD/svg11.dtd">
<svg xmlns:xlink="http://www.w3.org/1999/xlink" width="288pt" height="648pt" viewBox="0 0 288 648" xmlns="http://www.w3.org/2000/svg" version="1.1">
 <metadata>
  <rdf:RDF xmlns:dc="http://purl.org/dc/elements/1.1/" xmlns:cc="http://creativecommons.org/ns#" xmlns:rdf="http://www.w3.org/1999/02/22-rdf-syntax-ns#">
   <cc:Work>
    <dc:type rdf:resource="http://purl.org/dc/dcmitype/StillImage"/>
    <dc:date>2023-11-18T15:18:12.237065</dc:date>
    <dc:format>image/svg+xml</dc:format>
    <dc:creator>
     <cc:Agent>
      <dc:title>Matplotlib v3.8.0, https://matplotlib.org/</dc:title>
     </cc:Agent>
    </dc:creator>
   </cc:Work>
  </rdf:RDF>
 </metadata>
 <defs>
  <style type="text/css">*{stroke-linejoin: round; stroke-linecap: butt}</style>
 </defs>
 <g id="figure_1">
  <g id="patch_1">
   <path d="M 0 648 
L 288 648 
L 288 0 
L 0 0 
z
" style="fill: #ffffff"/>
  </g>
  <g id="axes_1">
   <g id="patch_2">
    <path d="M 63.47 190.626667 
L 272.573672 190.626667 
L 272.573672 10.8 
L 63.47 10.8 
z
" style="fill: #ffffff"/>
   </g>
   <g id="PolyCollection_1">
    <defs>
     <path id="m34ecc1c732" d="M 63.47 -457.373333 
L 63.47 -479.125032 
L 64.286811 -478.105193 
L 65.103622 -478.906495 
L 65.920434 -477.682689 
L 66.737245 -479.139601 
L 67.554056 -479.139601 
L 68.370867 -479.430983 
L 69.187679 -479.212446 
L 70.00449 -478.178039 
L 70.821301 -476.99794 
L 71.638112 -474.84171 
L 72.454923 -469.742517 
L 73.271735 -466.449896 
L 74.088546 -463.23012 
L 74.905357 -460.811646 
L 75.722168 -459.048782 
L 76.538979 -458.291188 
L 77.355791 -457.722992 
L 78.172602 -457.635578 
L 78.989413 -457.475317 
L 79.806224 -457.417041 
L 80.623036 -457.373333 
L 81.439847 -457.387902 
L 82.256658 -457.402472 
L 83.073469 -457.402472 
L 83.89028 -457.373333 
L 84.707092 -457.373333 
L 85.523903 -457.373333 
L 86.340714 -457.373333 
L 87.157525 -457.373333 
L 87.974337 -457.373333 
L 88.791148 -457.373333 
L 89.607959 -457.373333 
L 90.42477 -457.373333 
L 91.241581 -457.373333 
L 92.058393 -457.373333 
L 92.875204 -457.373333 
L 93.692015 -457.373333 
L 94.508826 -457.373333 
L 95.325638 -457.373333 
L 96.142449 -457.373333 
L 96.95926 -457.373333 
L 97.776071 -457.373333 
L 98.592882 -457.373333 
L 99.409694 -457.373333 
L 100.226505 -457.373333 
L 101.043316 -457.373333 
L 101.860127 -457.373333 
L 102.676938 -457.373333 
L 103.49375 -457.373333 
L 104.310561 -457.373333 
L 105.127372 -457.373333 
L 105.944183 -457.373333 
L 106.760995 -457.373333 
L 107.577806 -457.373333 
L 108.394617 -457.373333 
L 109.211428 -457.373333 
L 110.028239 -457.373333 
L 110.845051 -457.373333 
L 111.661862 -457.373333 
L 112.478673 -457.373333 
L 113.295484 -457.373333 
L 114.112296 -457.373333 
L 114.929107 -457.373333 
L 115.745918 -457.373333 
L 116.562729 -457.373333 
L 117.37954 -457.373333 
L 118.196352 -457.373333 
L 119.013163 -457.373333 
L 119.829974 -457.373333 
L 120.646785 -457.373333 
L 121.463596 -457.373333 
L 122.280408 -457.373333 
L 123.097219 -457.373333 
L 123.91403 -457.373333 
L 124.730841 -457.373333 
L 125.547653 -457.373333 
L 126.364464 -457.373333 
L 127.181275 -457.373333 
L 127.998086 -457.373333 
L 128.814897 -457.373333 
L 129.631709 -457.373333 
L 130.44852 -457.373333 
L 131.265331 -457.373333 
L 132.082142 -457.373333 
L 132.898954 -457.373333 
L 133.715765 -457.373333 
L 134.532576 -457.373333 
L 135.349387 -457.387902 
L 136.166198 -457.373333 
L 136.98301 -457.387902 
L 137.799821 -457.373333 
L 138.616632 -457.373333 
L 139.433443 -457.387902 
L 140.250255 -457.402472 
L 141.067066 -457.373333 
L 141.883877 -457.402472 
L 142.700688 -457.387902 
L 143.517499 -457.373333 
L 144.334311 -457.373333 
L 145.151122 -457.402472 
L 145.967933 -457.387902 
L 146.784744 -457.387902 
L 147.601555 -457.402472 
L 148.418367 -457.446179 
L 149.235178 -457.417041 
L 150.051989 -457.387902 
L 150.8688 -457.387902 
L 151.685612 -457.417041 
L 152.502423 -457.460748 
L 153.319234 -457.446179 
L 154.136045 -457.519025 
L 154.952856 -457.43161 
L 155.769668 -457.504455 
L 156.586479 -457.59187 
L 157.40329 -457.533594 
L 158.220101 -457.621008 
L 159.036913 -457.548163 
L 159.853724 -457.606439 
L 160.670535 -457.650147 
L 161.487346 -457.650147 
L 162.304157 -457.59187 
L 163.120969 -457.664716 
L 163.93778 -457.75213 
L 164.754591 -457.577301 
L 165.571402 -457.59187 
L 166.388214 -457.722992 
L 167.205025 -457.708423 
L 168.021836 -457.737561 
L 168.838647 -457.722992 
L 169.655458 -457.912391 
L 170.47227 -457.781269 
L 171.289081 -457.868683 
L 172.105892 -457.635578 
L 172.922703 -457.75213 
L 173.739514 -457.7667 
L 174.556326 -457.883253 
L 175.373137 -457.897822 
L 176.189948 -457.897822 
L 177.006759 -457.839545 
L 177.823571 -457.883253 
L 178.640382 -457.956098 
L 179.457193 -458.043513 
L 180.274004 -458.072651 
L 181.090815 -458.174635 
L 181.907627 -458.232912 
L 182.724438 -458.349464 
L 183.541249 -458.466017 
L 184.35806 -458.232912 
L 185.174872 -458.349464 
L 185.991683 -458.232912 
L 186.808494 -458.568001 
L 187.625305 -458.393172 
L 188.442116 -458.334895 
L 189.258928 -458.742831 
L 190.075739 -458.669985 
L 190.89255 -458.873953 
L 191.709361 -458.830245 
L 192.526172 -458.699123 
L 193.342984 -458.903091 
L 194.159795 -459.41301 
L 194.976606 -459.442149 
L 195.793417 -459.660685 
L 196.610229 -459.689824 
L 197.42704 -459.893791 
L 198.243851 -459.602409 
L 199.060662 -459.952068 
L 199.877473 -460.287158 
L 200.694285 -460.126897 
L 201.511096 -460.228881 
L 202.327907 -460.447418 
L 203.144718 -460.797077 
L 203.96153 -460.884492 
L 204.778341 -460.57854 
L 205.595152 -460.942768 
L 206.411963 -460.622247 
L 207.228774 -461.103028 
L 208.045586 -461.132167 
L 208.862397 -460.869922 
L 209.679208 -460.826215 
L 210.496019 -461.510964 
L 211.312831 -460.75337 
L 212.129642 -460.971906 
L 212.946453 -461.059321 
L 213.763264 -460.840784 
L 214.580075 -460.826215 
L 215.396887 -460.971906 
L 216.213698 -460.593109 
L 217.030509 -461.059321 
L 217.84732 -460.811646 
L 218.664131 -460.957337 
L 219.480943 -460.272589 
L 220.297754 -460.622247 
L 221.114565 -460.57854 
L 221.931376 -460.709662 
L 222.748188 -460.91363 
L 223.564999 -460.593109 
L 224.38181 -460.680524 
L 225.198621 -460.665955 
L 226.015432 -460.767939 
L 226.832244 -459.952068 
L 227.649055 -460.360003 
L 228.465866 -460.330865 
L 229.282677 -460.214312 
L 230.099489 -460.228881 
L 230.9163 -460.068621 
L 231.733111 -460.374572 
L 232.549922 -459.952068 
L 233.366733 -459.733531 
L 234.183545 -460.374572 
L 235.000356 -460.156036 
L 235.817167 -460.651386 
L 236.633978 -460.068621 
L 237.450789 -459.981206 
L 238.267601 -460.010344 
L 239.084412 -459.864653 
L 239.901223 -460.024913 
L 240.718034 -459.966637 
L 241.534846 -459.660685 
L 242.351657 -460.141466 
L 243.168468 -459.981206 
L 243.985279 -459.952068 
L 244.80209 -460.010344 
L 245.618902 -459.850084 
L 246.435713 -460.228881 
L 247.252524 -460.24345 
L 248.069335 -459.995775 
L 248.886147 -460.08319 
L 249.702958 -460.126897 
L 250.519769 -460.403711 
L 251.33658 -460.097759 
L 252.153391 -459.762669 
L 252.970203 -460.41828 
L 253.787014 -460.389141 
L 254.603825 -460.636817 
L 255.420636 -460.491125 
L 256.237448 -460.549402 
L 257.054259 -460.665955 
L 257.87107 -460.622247 
L 258.687881 -460.534833 
L 259.504692 -460.403711 
L 260.321504 -460.75337 
L 261.138315 -460.607678 
L 261.955126 -460.826215 
L 262.771937 -460.593109 
L 263.588748 -460.767939 
L 264.40556 -460.680524 
L 265.222371 -460.884492 
L 266.039182 -461.525533 
L 266.855993 -462.39968 
L 267.672805 -464.453926 
L 268.489616 -471.884178 
L 269.306427 -484.559314 
L 270.123238 -491.902151 
L 270.940049 -508.787763 
L 271.756861 -483.96198 
L 271.756861 -457.373333 
L 271.756861 -457.373333 
L 270.940049 -457.373333 
L 270.123238 -457.373333 
L 269.306427 -457.373333 
L 268.489616 -457.373333 
L 267.672805 -457.373333 
L 266.855993 -457.373333 
L 266.039182 -457.373333 
L 265.222371 -457.373333 
L 264.40556 -457.373333 
L 263.588748 -457.373333 
L 262.771937 -457.373333 
L 261.955126 -457.373333 
L 261.138315 -457.373333 
L 260.321504 -457.373333 
L 259.504692 -457.373333 
L 258.687881 -457.373333 
L 257.87107 -457.373333 
L 257.054259 -457.373333 
L 256.237448 -457.373333 
L 255.420636 -457.373333 
L 254.603825 -457.373333 
L 253.787014 -457.373333 
L 252.970203 -457.373333 
L 252.153391 -457.373333 
L 251.33658 -457.373333 
L 250.519769 -457.373333 
L 249.702958 -457.373333 
L 248.886147 -457.373333 
L 248.069335 -457.373333 
L 247.252524 -457.373333 
L 246.435713 -457.373333 
L 245.618902 -457.373333 
L 244.80209 -457.373333 
L 243.985279 -457.373333 
L 243.168468 -457.373333 
L 242.351657 -457.373333 
L 241.534846 -457.373333 
L 240.718034 -457.373333 
L 239.901223 -457.373333 
L 239.084412 -457.373333 
L 238.267601 -457.373333 
L 237.450789 -457.373333 
L 236.633978 -457.373333 
L 235.817167 -457.373333 
L 235.000356 -457.373333 
L 234.183545 -457.373333 
L 233.366733 -457.373333 
L 232.549922 -457.373333 
L 231.733111 -457.373333 
L 230.9163 -457.373333 
L 230.099489 -457.373333 
L 229.282677 -457.373333 
L 228.465866 -457.373333 
L 227.649055 -457.373333 
L 226.832244 -457.373333 
L 226.015432 -457.373333 
L 225.198621 -457.373333 
L 224.38181 -457.373333 
L 223.564999 -457.373333 
L 222.748188 -457.373333 
L 221.931376 -457.373333 
L 221.114565 -457.373333 
L 220.297754 -457.373333 
L 219.480943 -457.373333 
L 218.664131 -457.373333 
L 217.84732 -457.373333 
L 217.030509 -457.373333 
L 216.213698 -457.373333 
L 215.396887 -457.373333 
L 214.580075 -457.373333 
L 213.763264 -457.373333 
L 212.946453 -457.373333 
L 212.129642 -457.373333 
L 211.312831 -457.373333 
L 210.496019 -457.373333 
L 209.679208 -457.373333 
L 208.862397 -457.373333 
L 208.045586 -457.373333 
L 207.228774 -457.373333 
L 206.411963 -457.373333 
L 205.595152 -457.373333 
L 204.778341 -457.373333 
L 203.96153 -457.373333 
L 203.144718 -457.373333 
L 202.327907 -457.373333 
L 201.511096 -457.373333 
L 200.694285 -457.373333 
L 199.877473 -457.373333 
L 199.060662 -457.373333 
L 198.243851 -457.373333 
L 197.42704 -457.373333 
L 196.610229 -457.373333 
L 195.793417 -457.373333 
L 194.976606 -457.373333 
L 194.159795 -457.373333 
L 193.342984 -457.373333 
L 192.526172 -457.373333 
L 191.709361 -457.373333 
L 190.89255 -457.373333 
L 190.075739 -457.373333 
L 189.258928 -457.373333 
L 188.442116 -457.373333 
L 187.625305 -457.373333 
L 186.808494 -457.373333 
L 185.991683 -457.373333 
L 185.174872 -457.373333 
L 184.35806 -457.373333 
L 183.541249 -457.373333 
L 182.724438 -457.373333 
L 181.907627 -457.373333 
L 181.090815 -457.373333 
L 180.274004 -457.373333 
L 179.457193 -457.373333 
L 178.640382 -457.373333 
L 177.823571 -457.373333 
L 177.006759 -457.373333 
L 176.189948 -457.373333 
L 175.373137 -457.373333 
L 174.556326 -457.373333 
L 173.739514 -457.373333 
L 172.922703 -457.373333 
L 172.105892 -457.373333 
L 171.289081 -457.373333 
L 170.47227 -457.373333 
L 169.655458 -457.373333 
L 168.838647 -457.373333 
L 168.021836 -457.373333 
L 167.205025 -457.373333 
L 166.388214 -457.373333 
L 165.571402 -457.373333 
L 164.754591 -457.373333 
L 163.93778 -457.373333 
L 163.120969 -457.373333 
L 162.304157 -457.373333 
L 161.487346 -457.373333 
L 160.670535 -457.373333 
L 159.853724 -457.373333 
L 159.036913 -457.373333 
L 158.220101 -457.373333 
L 157.40329 -457.373333 
L 156.586479 -457.373333 
L 155.769668 -457.373333 
L 154.952856 -457.373333 
L 154.136045 -457.373333 
L 153.319234 -457.373333 
L 152.502423 -457.373333 
L 151.685612 -457.373333 
L 150.8688 -457.373333 
L 150.051989 -457.373333 
L 149.235178 -457.373333 
L 148.418367 -457.373333 
L 147.601555 -457.373333 
L 146.784744 -457.373333 
L 145.967933 -457.373333 
L 145.151122 -457.373333 
L 144.334311 -457.373333 
L 143.517499 -457.373333 
L 142.700688 -457.373333 
L 141.883877 -457.373333 
L 141.067066 -457.373333 
L 140.250255 -457.373333 
L 139.433443 -457.373333 
L 138.616632 -457.373333 
L 137.799821 -457.373333 
L 136.98301 -457.373333 
L 136.166198 -457.373333 
L 135.349387 -457.373333 
L 134.532576 -457.373333 
L 133.715765 -457.373333 
L 132.898954 -457.373333 
L 132.082142 -457.373333 
L 131.265331 -457.373333 
L 130.44852 -457.373333 
L 129.631709 -457.373333 
L 128.814897 -457.373333 
L 127.998086 -457.373333 
L 127.181275 -457.373333 
L 126.364464 -457.373333 
L 125.547653 -457.373333 
L 124.730841 -457.373333 
L 123.91403 -457.373333 
L 123.097219 -457.373333 
L 122.280408 -457.373333 
L 121.463596 -457.373333 
L 120.646785 -457.373333 
L 119.829974 -457.373333 
L 119.013163 -457.373333 
L 118.196352 -457.373333 
L 117.37954 -457.373333 
L 116.562729 -457.373333 
L 115.745918 -457.373333 
L 114.929107 -457.373333 
L 114.112296 -457.373333 
L 113.295484 -457.373333 
L 112.478673 -457.373333 
L 111.661862 -457.373333 
L 110.845051 -457.373333 
L 110.028239 -457.373333 
L 109.211428 -457.373333 
L 108.394617 -457.373333 
L 107.577806 -457.373333 
L 106.760995 -457.373333 
L 105.944183 -457.373333 
L 105.127372 -457.373333 
L 104.310561 -457.373333 
L 103.49375 -457.373333 
L 102.676938 -457.373333 
L 101.860127 -457.373333 
L 101.043316 -457.373333 
L 100.226505 -457.373333 
L 99.409694 -457.373333 
L 98.592882 -457.373333 
L 97.776071 -457.373333 
L 96.95926 -457.373333 
L 96.142449 -457.373333 
L 95.325638 -457.373333 
L 94.508826 -457.373333 
L 93.692015 -457.373333 
L 92.875204 -457.373333 
L 92.058393 -457.373333 
L 91.241581 -457.373333 
L 90.42477 -457.373333 
L 89.607959 -457.373333 
L 88.791148 -457.373333 
L 87.974337 -457.373333 
L 87.157525 -457.373333 
L 86.340714 -457.373333 
L 85.523903 -457.373333 
L 84.707092 -457.373333 
L 83.89028 -457.373333 
L 83.073469 -457.373333 
L 82.256658 -457.373333 
L 81.439847 -457.373333 
L 80.623036 -457.373333 
L 79.806224 -457.373333 
L 78.989413 -457.373333 
L 78.172602 -457.373333 
L 77.355791 -457.373333 
L 76.538979 -457.373333 
L 75.722168 -457.373333 
L 74.905357 -457.373333 
L 74.088546 -457.373333 
L 73.271735 -457.373333 
L 72.454923 -457.373333 
L 71.638112 -457.373333 
L 70.821301 -457.373333 
L 70.00449 -457.373333 
L 69.187679 -457.373333 
L 68.370867 -457.373333 
L 67.554056 -457.373333 
L 66.737245 -457.373333 
L 65.920434 -457.373333 
L 65.103622 -457.373333 
L 64.286811 -457.373333 
L 63.47 -457.373333 
z
" style="stroke: #ff0000; stroke-opacity: 0.4"/>
    </defs>
    <g clip-path="url(#p6e72be720a)">
     <use xlink:href="#m34ecc1c732" x="0" y="648" style="fill: #ff0000; fill-opacity: 0.4; stroke: #ff0000; stroke-opacity: 0.4"/>
    </g>
   </g>
   <g id="matplotlib.axis_1">
    <g id="xtick_1">
     <g id="line2d_1">
      <defs>
       <path id="m2755e2a883" d="M 0 0 
L 0 3.5 
" style="stroke: #000000; stroke-width: 0.8"/>
      </defs>
      <g>
       <use xlink:href="#m2755e2a883" x="63.47" y="190.626667" style="stroke: #000000; stroke-width: 0.8"/>
      </g>
     </g>
     <g id="text_1">
      <!-- 0 -->
      <g transform="translate(60.28875 205.225104) scale(0.1 -0.1)">
       <defs>
        <path id="DejaVuSans-30" d="M 2034 4250 
Q 1547 4250 1301 3770 
Q 1056 3291 1056 2328 
Q 1056 1369 1301 889 
Q 1547 409 2034 409 
Q 2525 409 2770 889 
Q 3016 1369 3016 2328 
Q 3016 3291 2770 3770 
Q 2525 4250 2034 4250 
z
M 2034 4750 
Q 2819 4750 3233 4129 
Q 3647 3509 3647 2328 
Q 3647 1150 3233 529 
Q 2819 -91 2034 -91 
Q 1250 -91 836 529 
Q 422 1150 422 2328 
Q 422 3509 836 4129 
Q 1250 4750 2034 4750 
z
" transform="scale(0.015625)"/>
       </defs>
       <use xlink:href="#DejaVuSans-30"/>
      </g>
     </g>
    </g>
    <g id="xtick_2">
     <g id="line2d_2">
      <g>
       <use xlink:href="#m2755e2a883" x="104.310561" y="190.626667" style="stroke: #000000; stroke-width: 0.8"/>
      </g>
     </g>
     <g id="text_2">
      <!-- 50 -->
      <g transform="translate(97.948061 205.225104) scale(0.1 -0.1)">
       <defs>
        <path id="DejaVuSans-35" d="M 691 4666 
L 3169 4666 
L 3169 4134 
L 1269 4134 
L 1269 2991 
Q 1406 3038 1543 3061 
Q 1681 3084 1819 3084 
Q 2600 3084 3056 2656 
Q 3513 2228 3513 1497 
Q 3513 744 3044 326 
Q 2575 -91 1722 -91 
Q 1428 -91 1123 -41 
Q 819 9 494 109 
L 494 744 
Q 775 591 1075 516 
Q 1375 441 1709 441 
Q 2250 441 2565 725 
Q 2881 1009 2881 1497 
Q 2881 1984 2565 2268 
Q 2250 2553 1709 2553 
Q 1456 2553 1204 2497 
Q 953 2441 691 2322 
L 691 4666 
z
" transform="scale(0.015625)"/>
       </defs>
       <use xlink:href="#DejaVuSans-35"/>
       <use xlink:href="#DejaVuSans-30" x="63.623047"/>
      </g>
     </g>
    </g>
    <g id="xtick_3">
     <g id="line2d_3">
      <g>
       <use xlink:href="#m2755e2a883" x="145.151122" y="190.626667" style="stroke: #000000; stroke-width: 0.8"/>
      </g>
     </g>
     <g id="text_3">
      <!-- 100 -->
      <g transform="translate(135.607372 205.225104) scale(0.1 -0.1)">
       <defs>
        <path id="DejaVuSans-31" d="M 794 531 
L 1825 531 
L 1825 4091 
L 703 3866 
L 703 4441 
L 1819 4666 
L 2450 4666 
L 2450 531 
L 3481 531 
L 3481 0 
L 794 0 
L 794 531 
z
" transform="scale(0.015625)"/>
       </defs>
       <use xlink:href="#DejaVuSans-31"/>
       <use xlink:href="#DejaVuSans-30" x="63.623047"/>
       <use xlink:href="#DejaVuSans-30" x="127.246094"/>
      </g>
     </g>
    </g>
    <g id="xtick_4">
     <g id="line2d_4">
      <g>
       <use xlink:href="#m2755e2a883" x="185.991683" y="190.626667" style="stroke: #000000; stroke-width: 0.8"/>
      </g>
     </g>
     <g id="text_4">
      <!-- 150 -->
      <g transform="translate(176.447933 205.225104) scale(0.1 -0.1)">
       <use xlink:href="#DejaVuSans-31"/>
       <use xlink:href="#DejaVuSans-35" x="63.623047"/>
       <use xlink:href="#DejaVuSans-30" x="127.246094"/>
      </g>
     </g>
    </g>
    <g id="xtick_5">
     <g id="line2d_5">
      <g>
       <use xlink:href="#m2755e2a883" x="226.832244" y="190.626667" style="stroke: #000000; stroke-width: 0.8"/>
      </g>
     </g>
     <g id="text_5">
      <!-- 200 -->
      <g transform="translate(217.288494 205.225104) scale(0.1 -0.1)">
       <defs>
        <path id="DejaVuSans-32" d="M 1228 531 
L 3431 531 
L 3431 0 
L 469 0 
L 469 531 
Q 828 903 1448 1529 
Q 2069 2156 2228 2338 
Q 2531 2678 2651 2914 
Q 2772 3150 2772 3378 
Q 2772 3750 2511 3984 
Q 2250 4219 1831 4219 
Q 1534 4219 1204 4116 
Q 875 4013 500 3803 
L 500 4441 
Q 881 4594 1212 4672 
Q 1544 4750 1819 4750 
Q 2544 4750 2975 4387 
Q 3406 4025 3406 3419 
Q 3406 3131 3298 2873 
Q 3191 2616 2906 2266 
Q 2828 2175 2409 1742 
Q 1991 1309 1228 531 
z
" transform="scale(0.015625)"/>
       </defs>
       <use xlink:href="#DejaVuSans-32"/>
       <use xlink:href="#DejaVuSans-30" x="63.623047"/>
       <use xlink:href="#DejaVuSans-30" x="127.246094"/>
      </g>
     </g>
    </g>
    <g id="xtick_6">
     <g id="line2d_6">
      <g>
       <use xlink:href="#m2755e2a883" x="267.672805" y="190.626667" style="stroke: #000000; stroke-width: 0.8"/>
      </g>
     </g>
     <g id="text_6">
      <!-- 250 -->
      <g transform="translate(258.129055 205.225104) scale(0.1 -0.1)">
       <use xlink:href="#DejaVuSans-32"/>
       <use xlink:href="#DejaVuSans-35" x="63.623047"/>
       <use xlink:href="#DejaVuSans-30" x="127.246094"/>
      </g>
     </g>
    </g>
   </g>
   <g id="matplotlib.axis_2">
    <g id="ytick_1">
     <g id="line2d_7">
      <defs>
       <path id="m2d46df88c4" d="M 0 0 
L -3.5 0 
" style="stroke: #000000; stroke-width: 0.8"/>
      </defs>
      <g>
       <use xlink:href="#m2d46df88c4" x="63.47" y="190.626667" style="stroke: #000000; stroke-width: 0.8"/>
      </g>
     </g>
     <g id="text_7">
      <!-- 0 -->
      <g transform="translate(50.1075 194.425885) scale(0.1 -0.1)">
       <use xlink:href="#DejaVuSans-30"/>
      </g>
     </g>
    </g>
    <g id="ytick_2">
     <g id="line2d_8">
      <g>
       <use xlink:href="#m2d46df88c4" x="63.47" y="161.488424" style="stroke: #000000; stroke-width: 0.8"/>
      </g>
     </g>
     <g id="text_8">
      <!-- 2000 -->
      <g transform="translate(31.02 165.287642) scale(0.1 -0.1)">
       <use xlink:href="#DejaVuSans-32"/>
       <use xlink:href="#DejaVuSans-30" x="63.623047"/>
       <use xlink:href="#DejaVuSans-30" x="127.246094"/>
       <use xlink:href="#DejaVuSans-30" x="190.869141"/>
      </g>
     </g>
    </g>
    <g id="ytick_3">
     <g id="line2d_9">
      <g>
       <use xlink:href="#m2d46df88c4" x="63.47" y="132.350181" style="stroke: #000000; stroke-width: 0.8"/>
      </g>
     </g>
     <g id="text_9">
      <!-- 4000 -->
      <g transform="translate(31.02 136.149399) scale(0.1 -0.1)">
       <defs>
        <path id="DejaVuSans-34" d="M 2419 4116 
L 825 1625 
L 2419 1625 
L 2419 4116 
z
M 2253 4666 
L 3047 4666 
L 3047 1625 
L 3713 1625 
L 3713 1100 
L 3047 1100 
L 3047 0 
L 2419 0 
L 2419 1100 
L 313 1100 
L 313 1709 
L 2253 4666 
z
" transform="scale(0.015625)"/>
       </defs>
       <use xlink:href="#DejaVuSans-34"/>
       <use xlink:href="#DejaVuSans-30" x="63.623047"/>
       <use xlink:href="#DejaVuSans-30" x="127.246094"/>
       <use xlink:href="#DejaVuSans-30" x="190.869141"/>
      </g>
     </g>
    </g>
    <g id="ytick_4">
     <g id="line2d_10">
      <g>
       <use xlink:href="#m2d46df88c4" x="63.47" y="103.211938" style="stroke: #000000; stroke-width: 0.8"/>
      </g>
     </g>
     <g id="text_10">
      <!-- 6000 -->
      <g transform="translate(31.02 107.011156) scale(0.1 -0.1)">
       <defs>
        <path id="DejaVuSans-36" d="M 2113 2584 
Q 1688 2584 1439 2293 
Q 1191 2003 1191 1497 
Q 1191 994 1439 701 
Q 1688 409 2113 409 
Q 2538 409 2786 701 
Q 3034 994 3034 1497 
Q 3034 2003 2786 2293 
Q 2538 2584 2113 2584 
z
M 3366 4563 
L 3366 3988 
Q 3128 4100 2886 4159 
Q 2644 4219 2406 4219 
Q 1781 4219 1451 3797 
Q 1122 3375 1075 2522 
Q 1259 2794 1537 2939 
Q 1816 3084 2150 3084 
Q 2853 3084 3261 2657 
Q 3669 2231 3669 1497 
Q 3669 778 3244 343 
Q 2819 -91 2113 -91 
Q 1303 -91 875 529 
Q 447 1150 447 2328 
Q 447 3434 972 4092 
Q 1497 4750 2381 4750 
Q 2619 4750 2861 4703 
Q 3103 4656 3366 4563 
z
" transform="scale(0.015625)"/>
       </defs>
       <use xlink:href="#DejaVuSans-36"/>
       <use xlink:href="#DejaVuSans-30" x="63.623047"/>
       <use xlink:href="#DejaVuSans-30" x="127.246094"/>
       <use xlink:href="#DejaVuSans-30" x="190.869141"/>
      </g>
     </g>
    </g>
    <g id="ytick_5">
     <g id="line2d_11">
      <g>
       <use xlink:href="#m2d46df88c4" x="63.47" y="74.073695" style="stroke: #000000; stroke-width: 0.8"/>
      </g>
     </g>
     <g id="text_11">
      <!-- 8000 -->
      <g transform="translate(31.02 77.872913) scale(0.1 -0.1)">
       <defs>
        <path id="DejaVuSans-38" d="M 2034 2216 
Q 1584 2216 1326 1975 
Q 1069 1734 1069 1313 
Q 1069 891 1326 650 
Q 1584 409 2034 409 
Q 2484 409 2743 651 
Q 3003 894 3003 1313 
Q 3003 1734 2745 1975 
Q 2488 2216 2034 2216 
z
M 1403 2484 
Q 997 2584 770 2862 
Q 544 3141 544 3541 
Q 544 4100 942 4425 
Q 1341 4750 2034 4750 
Q 2731 4750 3128 4425 
Q 3525 4100 3525 3541 
Q 3525 3141 3298 2862 
Q 3072 2584 2669 2484 
Q 3125 2378 3379 2068 
Q 3634 1759 3634 1313 
Q 3634 634 3220 271 
Q 2806 -91 2034 -91 
Q 1263 -91 848 271 
Q 434 634 434 1313 
Q 434 1759 690 2068 
Q 947 2378 1403 2484 
z
M 1172 3481 
Q 1172 3119 1398 2916 
Q 1625 2713 2034 2713 
Q 2441 2713 2670 2916 
Q 2900 3119 2900 3481 
Q 2900 3844 2670 4047 
Q 2441 4250 2034 4250 
Q 1625 4250 1398 4047 
Q 1172 3844 1172 3481 
z
" transform="scale(0.015625)"/>
       </defs>
       <use xlink:href="#DejaVuSans-38"/>
       <use xlink:href="#DejaVuSans-30" x="63.623047"/>
       <use xlink:href="#DejaVuSans-30" x="127.246094"/>
       <use xlink:href="#DejaVuSans-30" x="190.869141"/>
      </g>
     </g>
    </g>
    <g id="ytick_6">
     <g id="line2d_12">
      <g>
       <use xlink:href="#m2d46df88c4" x="63.47" y="44.935452" style="stroke: #000000; stroke-width: 0.8"/>
      </g>
     </g>
     <g id="text_12">
      <!-- 10000 -->
      <g transform="translate(24.6575 48.73467) scale(0.1 -0.1)">
       <use xlink:href="#DejaVuSans-31"/>
       <use xlink:href="#DejaVuSans-30" x="63.623047"/>
       <use xlink:href="#DejaVuSans-30" x="127.246094"/>
       <use xlink:href="#DejaVuSans-30" x="190.869141"/>
       <use xlink:href="#DejaVuSans-30" x="254.492188"/>
      </g>
     </g>
    </g>
    <g id="ytick_7">
     <g id="line2d_13">
      <g>
       <use xlink:href="#m2d46df88c4" x="63.47" y="15.797209" style="stroke: #000000; stroke-width: 0.8"/>
      </g>
     </g>
     <g id="text_13">
      <!-- 12000 -->
      <g transform="translate(24.6575 19.596427) scale(0.1 -0.1)">
       <use xlink:href="#DejaVuSans-31"/>
       <use xlink:href="#DejaVuSans-32" x="63.623047"/>
       <use xlink:href="#DejaVuSans-30" x="127.246094"/>
       <use xlink:href="#DejaVuSans-30" x="190.869141"/>
       <use xlink:href="#DejaVuSans-30" x="254.492188"/>
      </g>
     </g>
    </g>
    <g id="text_14">
     <!-- Pixel Frequency -->
     <g transform="translate(18.577812 139.69224) rotate(-90) scale(0.1 -0.1)">
      <defs>
       <path id="DejaVuSans-50" d="M 1259 4147 
L 1259 2394 
L 2053 2394 
Q 2494 2394 2734 2622 
Q 2975 2850 2975 3272 
Q 2975 3691 2734 3919 
Q 2494 4147 2053 4147 
L 1259 4147 
z
M 628 4666 
L 2053 4666 
Q 2838 4666 3239 4311 
Q 3641 3956 3641 3272 
Q 3641 2581 3239 2228 
Q 2838 1875 2053 1875 
L 1259 1875 
L 1259 0 
L 628 0 
L 628 4666 
z
" transform="scale(0.015625)"/>
       <path id="DejaVuSans-69" d="M 603 3500 
L 1178 3500 
L 1178 0 
L 603 0 
L 603 3500 
z
M 603 4863 
L 1178 4863 
L 1178 4134 
L 603 4134 
L 603 4863 
z
" transform="scale(0.015625)"/>
       <path id="DejaVuSans-78" d="M 3513 3500 
L 2247 1797 
L 3578 0 
L 2900 0 
L 1881 1375 
L 863 0 
L 184 0 
L 1544 1831 
L 300 3500 
L 978 3500 
L 1906 2253 
L 2834 3500 
L 3513 3500 
z
" transform="scale(0.015625)"/>
       <path id="DejaVuSans-65" d="M 3597 1894 
L 3597 1613 
L 953 1613 
Q 991 1019 1311 708 
Q 1631 397 2203 397 
Q 2534 397 2845 478 
Q 3156 559 3463 722 
L 3463 178 
Q 3153 47 2828 -22 
Q 2503 -91 2169 -91 
Q 1331 -91 842 396 
Q 353 884 353 1716 
Q 353 2575 817 3079 
Q 1281 3584 2069 3584 
Q 2775 3584 3186 3129 
Q 3597 2675 3597 1894 
z
M 3022 2063 
Q 3016 2534 2758 2815 
Q 2500 3097 2075 3097 
Q 1594 3097 1305 2825 
Q 1016 2553 972 2059 
L 3022 2063 
z
" transform="scale(0.015625)"/>
       <path id="DejaVuSans-6c" d="M 603 4863 
L 1178 4863 
L 1178 0 
L 603 0 
L 603 4863 
z
" transform="scale(0.015625)"/>
       <path id="DejaVuSans-20" transform="scale(0.015625)"/>
       <path id="DejaVuSans-46" d="M 628 4666 
L 3309 4666 
L 3309 4134 
L 1259 4134 
L 1259 2759 
L 3109 2759 
L 3109 2228 
L 1259 2228 
L 1259 0 
L 628 0 
L 628 4666 
z
" transform="scale(0.015625)"/>
       <path id="DejaVuSans-72" d="M 2631 2963 
Q 2534 3019 2420 3045 
Q 2306 3072 2169 3072 
Q 1681 3072 1420 2755 
Q 1159 2438 1159 1844 
L 1159 0 
L 581 0 
L 581 3500 
L 1159 3500 
L 1159 2956 
Q 1341 3275 1631 3429 
Q 1922 3584 2338 3584 
Q 2397 3584 2469 3576 
Q 2541 3569 2628 3553 
L 2631 2963 
z
" transform="scale(0.015625)"/>
       <path id="DejaVuSans-71" d="M 947 1747 
Q 947 1113 1208 752 
Q 1469 391 1925 391 
Q 2381 391 2643 752 
Q 2906 1113 2906 1747 
Q 2906 2381 2643 2742 
Q 2381 3103 1925 3103 
Q 1469 3103 1208 2742 
Q 947 2381 947 1747 
z
M 2906 525 
Q 2725 213 2448 61 
Q 2172 -91 1784 -91 
Q 1150 -91 751 415 
Q 353 922 353 1747 
Q 353 2572 751 3078 
Q 1150 3584 1784 3584 
Q 2172 3584 2448 3432 
Q 2725 3281 2906 2969 
L 2906 3500 
L 3481 3500 
L 3481 -1331 
L 2906 -1331 
L 2906 525 
z
" transform="scale(0.015625)"/>
       <path id="DejaVuSans-75" d="M 544 1381 
L 544 3500 
L 1119 3500 
L 1119 1403 
Q 1119 906 1312 657 
Q 1506 409 1894 409 
Q 2359 409 2629 706 
Q 2900 1003 2900 1516 
L 2900 3500 
L 3475 3500 
L 3475 0 
L 2900 0 
L 2900 538 
Q 2691 219 2414 64 
Q 2138 -91 1772 -91 
Q 1169 -91 856 284 
Q 544 659 544 1381 
z
M 1991 3584 
L 1991 3584 
z
" transform="scale(0.015625)"/>
       <path id="DejaVuSans-6e" d="M 3513 2113 
L 3513 0 
L 2938 0 
L 2938 2094 
Q 2938 2591 2744 2837 
Q 2550 3084 2163 3084 
Q 1697 3084 1428 2787 
Q 1159 2491 1159 1978 
L 1159 0 
L 581 0 
L 581 3500 
L 1159 3500 
L 1159 2956 
Q 1366 3272 1645 3428 
Q 1925 3584 2291 3584 
Q 2894 3584 3203 3211 
Q 3513 2838 3513 2113 
z
" transform="scale(0.015625)"/>
       <path id="DejaVuSans-63" d="M 3122 3366 
L 3122 2828 
Q 2878 2963 2633 3030 
Q 2388 3097 2138 3097 
Q 1578 3097 1268 2742 
Q 959 2388 959 1747 
Q 959 1106 1268 751 
Q 1578 397 2138 397 
Q 2388 397 2633 464 
Q 2878 531 3122 666 
L 3122 134 
Q 2881 22 2623 -34 
Q 2366 -91 2075 -91 
Q 1284 -91 818 406 
Q 353 903 353 1747 
Q 353 2603 823 3093 
Q 1294 3584 2113 3584 
Q 2378 3584 2631 3529 
Q 2884 3475 3122 3366 
z
" transform="scale(0.015625)"/>
       <path id="DejaVuSans-79" d="M 2059 -325 
Q 1816 -950 1584 -1140 
Q 1353 -1331 966 -1331 
L 506 -1331 
L 506 -850 
L 844 -850 
Q 1081 -850 1212 -737 
Q 1344 -625 1503 -206 
L 1606 56 
L 191 3500 
L 800 3500 
L 1894 763 
L 2988 3500 
L 3597 3500 
L 2059 -325 
z
" transform="scale(0.015625)"/>
      </defs>
      <use xlink:href="#DejaVuSans-50"/>
      <use xlink:href="#DejaVuSans-69" x="58.052734"/>
      <use xlink:href="#DejaVuSans-78" x="85.835938"/>
      <use xlink:href="#DejaVuSans-65" x="141.890625"/>
      <use xlink:href="#DejaVuSans-6c" x="203.414062"/>
      <use xlink:href="#DejaVuSans-20" x="231.197266"/>
      <use xlink:href="#DejaVuSans-46" x="262.984375"/>
      <use xlink:href="#DejaVuSans-72" x="313.253906"/>
      <use xlink:href="#DejaVuSans-65" x="352.117188"/>
      <use xlink:href="#DejaVuSans-71" x="413.640625"/>
      <use xlink:href="#DejaVuSans-75" x="477.117188"/>
      <use xlink:href="#DejaVuSans-65" x="540.496094"/>
      <use xlink:href="#DejaVuSans-6e" x="602.019531"/>
      <use xlink:href="#DejaVuSans-63" x="665.398438"/>
      <use xlink:href="#DejaVuSans-79" x="720.378906"/>
     </g>
    </g>
   </g>
   <g id="line2d_14">
    <path d="M 63.47 168.874968 
L 64.286811 169.894807 
L 65.103622 169.093505 
L 65.920434 170.317311 
L 66.737245 168.860399 
L 67.554056 168.860399 
L 68.370867 168.569017 
L 69.187679 168.787554 
L 70.821301 171.00206 
L 71.638112 173.15829 
L 72.454923 178.257483 
L 74.088546 184.76988 
L 74.905357 187.188354 
L 75.722168 188.951218 
L 76.538979 189.708812 
L 77.355791 190.277008 
L 81.439847 190.612098 
L 86.340714 190.626667 
L 153.319234 190.553821 
L 154.136045 190.480975 
L 154.952856 190.56839 
L 156.586479 190.40813 
L 157.40329 190.466406 
L 158.220101 190.378992 
L 159.036913 190.451837 
L 161.487346 190.349853 
L 162.304157 190.40813 
L 163.93778 190.24787 
L 164.754591 190.422699 
L 165.571402 190.40813 
L 166.388214 190.277008 
L 168.838647 190.277008 
L 169.655458 190.087609 
L 170.47227 190.218731 
L 171.289081 190.131317 
L 172.105892 190.364422 
L 174.556326 190.116747 
L 180.274004 189.927349 
L 183.541249 189.533983 
L 184.35806 189.767088 
L 185.174872 189.650536 
L 185.991683 189.767088 
L 186.808494 189.431999 
L 187.625305 189.606828 
L 188.442116 189.665105 
L 189.258928 189.257169 
L 190.075739 189.330015 
L 190.89255 189.126047 
L 192.526172 189.300877 
L 193.342984 189.096909 
L 194.159795 188.58699 
L 194.976606 188.557851 
L 195.793417 188.339315 
L 196.610229 188.310176 
L 197.42704 188.106209 
L 198.243851 188.397591 
L 199.877473 187.712842 
L 200.694285 187.873103 
L 201.511096 187.771119 
L 202.327907 187.552582 
L 203.144718 187.202923 
L 203.96153 187.115508 
L 204.778341 187.42146 
L 205.595152 187.057232 
L 206.411963 187.377753 
L 207.228774 186.896972 
L 208.045586 186.867833 
L 208.862397 187.130078 
L 209.679208 187.173785 
L 210.496019 186.489036 
L 211.312831 187.24663 
L 212.129642 187.028094 
L 212.946453 186.940679 
L 213.763264 187.159216 
L 214.580075 187.173785 
L 215.396887 187.028094 
L 216.213698 187.406891 
L 217.030509 186.940679 
L 217.84732 187.188354 
L 218.664131 187.042663 
L 219.480943 187.727411 
L 220.297754 187.377753 
L 221.114565 187.42146 
L 222.748188 187.08637 
L 223.564999 187.406891 
L 226.015432 187.232061 
L 226.832244 188.047932 
L 227.649055 187.639997 
L 230.099489 187.771119 
L 230.9163 187.931379 
L 231.733111 187.625428 
L 232.549922 188.047932 
L 233.366733 188.266469 
L 234.183545 187.625428 
L 235.000356 187.843964 
L 235.817167 187.348614 
L 236.633978 187.931379 
L 237.450789 188.018794 
L 238.267601 187.989656 
L 239.084412 188.135347 
L 239.901223 187.975087 
L 240.718034 188.033363 
L 241.534846 188.339315 
L 242.351657 187.858534 
L 243.168468 188.018794 
L 245.618902 188.149916 
L 246.435713 187.771119 
L 247.252524 187.75655 
L 248.069335 188.004225 
L 249.702958 187.873103 
L 250.519769 187.596289 
L 252.153391 188.237331 
L 252.970203 187.58172 
L 253.787014 187.610859 
L 254.603825 187.363183 
L 255.420636 187.508875 
L 257.87107 187.377753 
L 259.504692 187.596289 
L 260.321504 187.24663 
L 261.138315 187.392322 
L 261.955126 187.173785 
L 262.771937 187.406891 
L 263.588748 187.232061 
L 264.40556 187.319476 
L 265.222371 187.115508 
L 266.039182 186.474467 
L 266.855993 185.60032 
L 267.672805 183.546074 
L 268.489616 176.115822 
L 269.306427 163.440686 
L 270.123238 156.097849 
L 270.940049 139.212237 
L 271.756861 164.03802 
L 271.756861 164.03802 
" clip-path="url(#p6e72be720a)" style="fill: none; stroke: #ff0000; stroke-width: 1.5; stroke-linecap: square"/>
   </g>
   <g id="patch_3">
    <path d="M 63.47 190.626667 
L 63.47 10.8 
" style="fill: none; stroke: #000000; stroke-width: 0.8; stroke-linejoin: miter; stroke-linecap: square"/>
   </g>
   <g id="patch_4">
    <path d="M 272.573672 190.626667 
L 272.573672 10.8 
" style="fill: none; stroke: #000000; stroke-width: 0.8; stroke-linejoin: miter; stroke-linecap: square"/>
   </g>
   <g id="patch_5">
    <path d="M 63.47 190.626667 
L 272.573672 190.626667 
" style="fill: none; stroke: #000000; stroke-width: 0.8; stroke-linejoin: miter; stroke-linecap: square"/>
   </g>
   <g id="patch_6">
    <path d="M 63.47 10.8 
L 272.573672 10.8 
" style="fill: none; stroke: #000000; stroke-width: 0.8; stroke-linejoin: miter; stroke-linecap: square"/>
   </g>
   <g id="text_15">
    <!-- Red Channel  -->
    <g transform="translate(192.880547 24.8) scale(0.12 -0.12)">
     <defs>
      <path id="DejaVuSans-52" d="M 2841 2188 
Q 3044 2119 3236 1894 
Q 3428 1669 3622 1275 
L 4263 0 
L 3584 0 
L 2988 1197 
Q 2756 1666 2539 1819 
Q 2322 1972 1947 1972 
L 1259 1972 
L 1259 0 
L 628 0 
L 628 4666 
L 2053 4666 
Q 2853 4666 3247 4331 
Q 3641 3997 3641 3322 
Q 3641 2881 3436 2590 
Q 3231 2300 2841 2188 
z
M 1259 4147 
L 1259 2491 
L 2053 2491 
Q 2509 2491 2742 2702 
Q 2975 2913 2975 3322 
Q 2975 3731 2742 3939 
Q 2509 4147 2053 4147 
L 1259 4147 
z
" transform="scale(0.015625)"/>
      <path id="DejaVuSans-64" d="M 2906 2969 
L 2906 4863 
L 3481 4863 
L 3481 0 
L 2906 0 
L 2906 525 
Q 2725 213 2448 61 
Q 2172 -91 1784 -91 
Q 1150 -91 751 415 
Q 353 922 353 1747 
Q 353 2572 751 3078 
Q 1150 3584 1784 3584 
Q 2172 3584 2448 3432 
Q 2725 3281 2906 2969 
z
M 947 1747 
Q 947 1113 1208 752 
Q 1469 391 1925 391 
Q 2381 391 2643 752 
Q 2906 1113 2906 1747 
Q 2906 2381 2643 2742 
Q 2381 3103 1925 3103 
Q 1469 3103 1208 2742 
Q 947 2381 947 1747 
z
" transform="scale(0.015625)"/>
      <path id="DejaVuSans-43" d="M 4122 4306 
L 4122 3641 
Q 3803 3938 3442 4084 
Q 3081 4231 2675 4231 
Q 1875 4231 1450 3742 
Q 1025 3253 1025 2328 
Q 1025 1406 1450 917 
Q 1875 428 2675 428 
Q 3081 428 3442 575 
Q 3803 722 4122 1019 
L 4122 359 
Q 3791 134 3420 21 
Q 3050 -91 2638 -91 
Q 1578 -91 968 557 
Q 359 1206 359 2328 
Q 359 3453 968 4101 
Q 1578 4750 2638 4750 
Q 3056 4750 3426 4639 
Q 3797 4528 4122 4306 
z
" transform="scale(0.015625)"/>
      <path id="DejaVuSans-68" d="M 3513 2113 
L 3513 0 
L 2938 0 
L 2938 2094 
Q 2938 2591 2744 2837 
Q 2550 3084 2163 3084 
Q 1697 3084 1428 2787 
Q 1159 2491 1159 1978 
L 1159 0 
L 581 0 
L 581 4863 
L 1159 4863 
L 1159 2956 
Q 1366 3272 1645 3428 
Q 1925 3584 2291 3584 
Q 2894 3584 3203 3211 
Q 3513 2838 3513 2113 
z
" transform="scale(0.015625)"/>
      <path id="DejaVuSans-61" d="M 2194 1759 
Q 1497 1759 1228 1600 
Q 959 1441 959 1056 
Q 959 750 1161 570 
Q 1363 391 1709 391 
Q 2188 391 2477 730 
Q 2766 1069 2766 1631 
L 2766 1759 
L 2194 1759 
z
M 3341 1997 
L 3341 0 
L 2766 0 
L 2766 531 
Q 2569 213 2275 61 
Q 1981 -91 1556 -91 
Q 1019 -91 701 211 
Q 384 513 384 1019 
Q 384 1609 779 1909 
Q 1175 2209 1959 2209 
L 2766 2209 
L 2766 2266 
Q 2766 2663 2505 2880 
Q 2244 3097 1772 3097 
Q 1472 3097 1187 3025 
Q 903 2953 641 2809 
L 641 3341 
Q 956 3463 1253 3523 
Q 1550 3584 1831 3584 
Q 2591 3584 2966 3190 
Q 3341 2797 3341 1997 
z
" transform="scale(0.015625)"/>
     </defs>
     <use xlink:href="#DejaVuSans-52"/>
     <use xlink:href="#DejaVuSans-65" x="64.982422"/>
     <use xlink:href="#DejaVuSans-64" x="126.505859"/>
     <use xlink:href="#DejaVuSans-20" x="189.982422"/>
     <use xlink:href="#DejaVuSans-43" x="221.769531"/>
     <use xlink:href="#DejaVuSans-68" x="291.59375"/>
     <use xlink:href="#DejaVuSans-61" x="354.972656"/>
     <use xlink:href="#DejaVuSans-6e" x="416.251953"/>
     <use xlink:href="#DejaVuSans-6e" x="479.630859"/>
     <use xlink:href="#DejaVuSans-65" x="543.009766"/>
     <use xlink:href="#DejaVuSans-6c" x="604.533203"/>
     <use xlink:href="#DejaVuSans-20" x="632.316406"/>
    </g>
   </g>
  </g>
  <g id="axes_2">
   <g id="patch_7">
    <path d="M 63.47 398.333333 
L 272.573672 398.333333 
L 272.573672 218.506667 
L 63.47 218.506667 
z
" style="fill: #ffffff"/>
   </g>
   <g id="PolyCollection_2">
    <defs>
     <path id="m5bbaab69fc" d="M 63.47 -249.666667 
L 63.47 -343.229565 
L 64.286811 -282.374344 
L 65.103622 -266.406587 
L 65.920434 -262.006713 
L 66.737245 -257.475716 
L 67.554056 -254.270509 
L 68.370867 -253.338085 
L 69.187679 -251.458669 
L 70.00449 -251.007026 
L 70.821301 -250.395123 
L 71.638112 -250.147448 
L 72.454923 -249.987187 
L 73.271735 -249.826927 
L 74.088546 -249.812358 
L 74.905357 -249.666667 
L 75.722168 -249.695805 
L 76.538979 -249.681236 
L 77.355791 -249.710374 
L 78.172602 -249.666667 
L 78.989413 -249.681236 
L 79.806224 -249.681236 
L 80.623036 -249.681236 
L 81.439847 -249.666667 
L 82.256658 -249.666667 
L 83.073469 -249.666667 
L 83.89028 -249.666667 
L 84.707092 -249.666667 
L 85.523903 -249.666667 
L 86.340714 -249.666667 
L 87.157525 -249.666667 
L 87.974337 -249.666667 
L 88.791148 -249.666667 
L 89.607959 -249.666667 
L 90.42477 -249.666667 
L 91.241581 -249.666667 
L 92.058393 -249.666667 
L 92.875204 -249.666667 
L 93.692015 -249.666667 
L 94.508826 -249.666667 
L 95.325638 -249.666667 
L 96.142449 -249.666667 
L 96.95926 -249.666667 
L 97.776071 -249.666667 
L 98.592882 -249.666667 
L 99.409694 -249.666667 
L 100.226505 -249.666667 
L 101.043316 -249.666667 
L 101.860127 -249.666667 
L 102.676938 -249.666667 
L 103.49375 -249.666667 
L 104.310561 -249.666667 
L 105.127372 -249.666667 
L 105.944183 -249.666667 
L 106.760995 -249.666667 
L 107.577806 -249.666667 
L 108.394617 -249.666667 
L 109.211428 -249.666667 
L 110.028239 -249.666667 
L 110.845051 -249.666667 
L 111.661862 -249.666667 
L 112.478673 -249.666667 
L 113.295484 -249.666667 
L 114.112296 -249.666667 
L 114.929107 -249.666667 
L 115.745918 -249.666667 
L 116.562729 -249.666667 
L 117.37954 -249.666667 
L 118.196352 -249.666667 
L 119.013163 -249.666667 
L 119.829974 -249.666667 
L 120.646785 -249.666667 
L 121.463596 -249.666667 
L 122.280408 -249.666667 
L 123.097219 -249.666667 
L 123.91403 -249.666667 
L 124.730841 -249.666667 
L 125.547653 -249.695805 
L 126.364464 -249.681236 
L 127.181275 -249.666667 
L 127.998086 -249.666667 
L 128.814897 -249.666667 
L 129.631709 -249.666667 
L 130.44852 -249.666667 
L 131.265331 -249.695805 
L 132.082142 -249.681236 
L 132.898954 -249.666667 
L 133.715765 -249.695805 
L 134.532576 -249.666667 
L 135.349387 -249.695805 
L 136.166198 -249.681236 
L 136.98301 -249.681236 
L 137.799821 -249.695805 
L 138.616632 -249.695805 
L 139.433443 -249.666667 
L 140.250255 -249.754081 
L 141.067066 -249.754081 
L 141.883877 -249.710374 
L 142.700688 -249.797789 
L 143.517499 -249.797789 
L 144.334311 -249.914342 
L 145.151122 -249.914342 
L 145.967933 -249.870634 
L 146.784744 -249.856065 
L 147.601555 -249.797789 
L 148.418367 -249.812358 
L 149.235178 -249.797789 
L 150.051989 -249.885203 
L 150.8688 -249.856065 
L 151.685612 -249.885203 
L 152.502423 -249.94348 
L 153.319234 -249.914342 
L 154.136045 -249.899773 
L 154.952856 -249.899773 
L 155.769668 -250.10374 
L 156.586479 -249.94348 
L 157.40329 -249.914342 
L 158.220101 -249.914342 
L 159.036913 -249.972618 
L 159.853724 -250.001756 
L 160.670535 -249.914342 
L 161.487346 -250.074602 
L 162.304157 -250.060033 
L 163.120969 -249.914342 
L 163.93778 -249.972618 
L 164.754591 -250.001756 
L 165.571402 -250.147448 
L 166.388214 -250.089171 
L 167.205025 -250.089171 
L 168.021836 -250.234862 
L 168.838647 -250.27857 
L 169.655458 -250.10374 
L 170.47227 -250.307708 
L 171.289081 -250.307708 
L 172.105892 -250.395123 
L 172.922703 -250.307708 
L 173.739514 -250.482537 
L 174.556326 -250.511676 
L 175.373137 -250.569952 
L 176.189948 -250.482537 
L 177.006759 -250.59909 
L 177.823571 -250.977888 
L 178.640382 -250.817627 
L 179.457193 -250.832196 
L 180.274004 -250.905042 
L 181.090815 -251.240132 
L 181.907627 -251.473238 
L 182.724438 -251.371254 
L 183.541249 -251.400392 
L 184.35806 -251.60436 
L 185.174872 -251.997726 
L 185.991683 -252.026864 
L 186.808494 -252.085141 
L 187.625305 -252.085141 
L 188.442116 -252.026864 
L 189.258928 -252.114279 
L 190.075739 -252.274539 
L 190.89255 -252.609629 
L 191.709361 -252.216263 
L 192.526172 -252.332816 
L 193.342984 -252.405662 
L 194.159795 -252.391092 
L 194.976606 -252.784459 
L 195.793417 -252.667906 
L 196.610229 -252.274539 
L 197.42704 -252.842735 
L 198.243851 -252.740751 
L 199.060662 -252.740751 
L 199.877473 -252.565922 
L 200.694285 -252.391092 
L 201.511096 -252.667906 
L 202.327907 -252.740751 
L 203.144718 -252.871873 
L 203.96153 -252.59506 
L 204.778341 -252.303678 
L 205.595152 -253.119548 
L 206.411963 -252.187125 
L 207.228774 -252.609629 
L 208.045586 -252.303678 
L 208.862397 -252.012295 
L 209.679208 -252.332816 
L 210.496019 -252.09971 
L 211.312831 -252.4348 
L 212.129642 -252.157986 
L 212.946453 -252.157986 
L 213.763264 -252.201694 
L 214.580075 -252.172556 
L 215.396887 -252.070572 
L 216.213698 -251.793758 
L 217.030509 -252.216263 
L 217.84732 -252.230832 
L 218.664131 -252.303678 
L 219.480943 -251.852035 
L 220.297754 -251.997726 
L 221.114565 -252.070572 
L 221.931376 -252.012295 
L 222.748188 -252.230832 
L 223.564999 -252.041433 
L 224.38181 -251.560652 
L 225.198621 -251.779189 
L 226.015432 -251.662636 
L 226.832244 -251.852035 
L 227.649055 -251.677205 
L 228.465866 -251.852035 
L 229.282677 -251.866604 
L 230.099489 -251.92488 
L 230.9163 -251.92488 
L 231.733111 -251.793758 
L 232.549922 -251.793758 
L 233.366733 -251.808328 
L 234.183545 -251.779189 
L 235.000356 -251.881173 
L 235.817167 -251.60436 
L 236.633978 -251.793758 
L 237.450789 -251.779189 
L 238.267601 -251.983157 
L 239.084412 -251.793758 
L 239.901223 -251.589791 
L 240.718034 -251.76462 
L 241.534846 -252.041433 
L 242.351657 -251.793758 
L 243.168468 -251.997726 
L 243.985279 -251.881173 
L 244.80209 -251.808328 
L 245.618902 -252.25997 
L 246.435713 -252.172556 
L 247.252524 -251.895742 
L 248.069335 -252.245401 
L 248.886147 -252.114279 
L 249.702958 -252.216263 
L 250.519769 -251.93945 
L 251.33658 -252.361954 
L 252.153391 -252.085141 
L 252.970203 -252.216263 
L 253.787014 -252.463938 
L 254.603825 -252.682475 
L 255.420636 -252.740751 
L 256.237448 -252.638767 
L 257.054259 -253.032134 
L 257.87107 -252.857304 
L 258.687881 -252.405662 
L 259.504692 -253.017565 
L 260.321504 -253.294378 
L 261.138315 -254.037403 
L 261.955126 -254.430769 
L 262.771937 -255.348624 
L 263.588748 -257.213472 
L 264.40556 -259.5591 
L 265.222371 -261.351102 
L 266.039182 -266.581417 
L 266.855993 -270.136282 
L 267.672805 -273.705717 
L 268.489616 -278.367836 
L 269.306427 -281.908133 
L 270.123238 -282.490897 
L 270.940049 -288.653636 
L 271.756861 -299.099696 
L 271.756861 -249.666667 
L 271.756861 -249.666667 
L 270.940049 -249.666667 
L 270.123238 -249.666667 
L 269.306427 -249.666667 
L 268.489616 -249.666667 
L 267.672805 -249.666667 
L 266.855993 -249.666667 
L 266.039182 -249.666667 
L 265.222371 -249.666667 
L 264.40556 -249.666667 
L 263.588748 -249.666667 
L 262.771937 -249.666667 
L 261.955126 -249.666667 
L 261.138315 -249.666667 
L 260.321504 -249.666667 
L 259.504692 -249.666667 
L 258.687881 -249.666667 
L 257.87107 -249.666667 
L 257.054259 -249.666667 
L 256.237448 -249.666667 
L 255.420636 -249.666667 
L 254.603825 -249.666667 
L 253.787014 -249.666667 
L 252.970203 -249.666667 
L 252.153391 -249.666667 
L 251.33658 -249.666667 
L 250.519769 -249.666667 
L 249.702958 -249.666667 
L 248.886147 -249.666667 
L 248.069335 -249.666667 
L 247.252524 -249.666667 
L 246.435713 -249.666667 
L 245.618902 -249.666667 
L 244.80209 -249.666667 
L 243.985279 -249.666667 
L 243.168468 -249.666667 
L 242.351657 -249.666667 
L 241.534846 -249.666667 
L 240.718034 -249.666667 
L 239.901223 -249.666667 
L 239.084412 -249.666667 
L 238.267601 -249.666667 
L 237.450789 -249.666667 
L 236.633978 -249.666667 
L 235.817167 -249.666667 
L 235.000356 -249.666667 
L 234.183545 -249.666667 
L 233.366733 -249.666667 
L 232.549922 -249.666667 
L 231.733111 -249.666667 
L 230.9163 -249.666667 
L 230.099489 -249.666667 
L 229.282677 -249.666667 
L 228.465866 -249.666667 
L 227.649055 -249.666667 
L 226.832244 -249.666667 
L 226.015432 -249.666667 
L 225.198621 -249.666667 
L 224.38181 -249.666667 
L 223.564999 -249.666667 
L 222.748188 -249.666667 
L 221.931376 -249.666667 
L 221.114565 -249.666667 
L 220.297754 -249.666667 
L 219.480943 -249.666667 
L 218.664131 -249.666667 
L 217.84732 -249.666667 
L 217.030509 -249.666667 
L 216.213698 -249.666667 
L 215.396887 -249.666667 
L 214.580075 -249.666667 
L 213.763264 -249.666667 
L 212.946453 -249.666667 
L 212.129642 -249.666667 
L 211.312831 -249.666667 
L 210.496019 -249.666667 
L 209.679208 -249.666667 
L 208.862397 -249.666667 
L 208.045586 -249.666667 
L 207.228774 -249.666667 
L 206.411963 -249.666667 
L 205.595152 -249.666667 
L 204.778341 -249.666667 
L 203.96153 -249.666667 
L 203.144718 -249.666667 
L 202.327907 -249.666667 
L 201.511096 -249.666667 
L 200.694285 -249.666667 
L 199.877473 -249.666667 
L 199.060662 -249.666667 
L 198.243851 -249.666667 
L 197.42704 -249.666667 
L 196.610229 -249.666667 
L 195.793417 -249.666667 
L 194.976606 -249.666667 
L 194.159795 -249.666667 
L 193.342984 -249.666667 
L 192.526172 -249.666667 
L 191.709361 -249.666667 
L 190.89255 -249.666667 
L 190.075739 -249.666667 
L 189.258928 -249.666667 
L 188.442116 -249.666667 
L 187.625305 -249.666667 
L 186.808494 -249.666667 
L 185.991683 -249.666667 
L 185.174872 -249.666667 
L 184.35806 -249.666667 
L 183.541249 -249.666667 
L 182.724438 -249.666667 
L 181.907627 -249.666667 
L 181.090815 -249.666667 
L 180.274004 -249.666667 
L 179.457193 -249.666667 
L 178.640382 -249.666667 
L 177.823571 -249.666667 
L 177.006759 -249.666667 
L 176.189948 -249.666667 
L 175.373137 -249.666667 
L 174.556326 -249.666667 
L 173.739514 -249.666667 
L 172.922703 -249.666667 
L 172.105892 -249.666667 
L 171.289081 -249.666667 
L 170.47227 -249.666667 
L 169.655458 -249.666667 
L 168.838647 -249.666667 
L 168.021836 -249.666667 
L 167.205025 -249.666667 
L 166.388214 -249.666667 
L 165.571402 -249.666667 
L 164.754591 -249.666667 
L 163.93778 -249.666667 
L 163.120969 -249.666667 
L 162.304157 -249.666667 
L 161.487346 -249.666667 
L 160.670535 -249.666667 
L 159.853724 -249.666667 
L 159.036913 -249.666667 
L 158.220101 -249.666667 
L 157.40329 -249.666667 
L 156.586479 -249.666667 
L 155.769668 -249.666667 
L 154.952856 -249.666667 
L 154.136045 -249.666667 
L 153.319234 -249.666667 
L 152.502423 -249.666667 
L 151.685612 -249.666667 
L 150.8688 -249.666667 
L 150.051989 -249.666667 
L 149.235178 -249.666667 
L 148.418367 -249.666667 
L 147.601555 -249.666667 
L 146.784744 -249.666667 
L 145.967933 -249.666667 
L 145.151122 -249.666667 
L 144.334311 -249.666667 
L 143.517499 -249.666667 
L 142.700688 -249.666667 
L 141.883877 -249.666667 
L 141.067066 -249.666667 
L 140.250255 -249.666667 
L 139.433443 -249.666667 
L 138.616632 -249.666667 
L 137.799821 -249.666667 
L 136.98301 -249.666667 
L 136.166198 -249.666667 
L 135.349387 -249.666667 
L 134.532576 -249.666667 
L 133.715765 -249.666667 
L 132.898954 -249.666667 
L 132.082142 -249.666667 
L 131.265331 -249.666667 
L 130.44852 -249.666667 
L 129.631709 -249.666667 
L 128.814897 -249.666667 
L 127.998086 -249.666667 
L 127.181275 -249.666667 
L 126.364464 -249.666667 
L 125.547653 -249.666667 
L 124.730841 -249.666667 
L 123.91403 -249.666667 
L 123.097219 -249.666667 
L 122.280408 -249.666667 
L 121.463596 -249.666667 
L 120.646785 -249.666667 
L 119.829974 -249.666667 
L 119.013163 -249.666667 
L 118.196352 -249.666667 
L 117.37954 -249.666667 
L 116.562729 -249.666667 
L 115.745918 -249.666667 
L 114.929107 -249.666667 
L 114.112296 -249.666667 
L 113.295484 -249.666667 
L 112.478673 -249.666667 
L 111.661862 -249.666667 
L 110.845051 -249.666667 
L 110.028239 -249.666667 
L 109.211428 -249.666667 
L 108.394617 -249.666667 
L 107.577806 -249.666667 
L 106.760995 -249.666667 
L 105.944183 -249.666667 
L 105.127372 -249.666667 
L 104.310561 -249.666667 
L 103.49375 -249.666667 
L 102.676938 -249.666667 
L 101.860127 -249.666667 
L 101.043316 -249.666667 
L 100.226505 -249.666667 
L 99.409694 -249.666667 
L 98.592882 -249.666667 
L 97.776071 -249.666667 
L 96.95926 -249.666667 
L 96.142449 -249.666667 
L 95.325638 -249.666667 
L 94.508826 -249.666667 
L 93.692015 -249.666667 
L 92.875204 -249.666667 
L 92.058393 -249.666667 
L 91.241581 -249.666667 
L 90.42477 -249.666667 
L 89.607959 -249.666667 
L 88.791148 -249.666667 
L 87.974337 -249.666667 
L 87.157525 -249.666667 
L 86.340714 -249.666667 
L 85.523903 -249.666667 
L 84.707092 -249.666667 
L 83.89028 -249.666667 
L 83.073469 -249.666667 
L 82.256658 -249.666667 
L 81.439847 -249.666667 
L 80.623036 -249.666667 
L 79.806224 -249.666667 
L 78.989413 -249.666667 
L 78.172602 -249.666667 
L 77.355791 -249.666667 
L 76.538979 -249.666667 
L 75.722168 -249.666667 
L 74.905357 -249.666667 
L 74.088546 -249.666667 
L 73.271735 -249.666667 
L 72.454923 -249.666667 
L 71.638112 -249.666667 
L 70.821301 -249.666667 
L 70.00449 -249.666667 
L 69.187679 -249.666667 
L 68.370867 -249.666667 
L 67.554056 -249.666667 
L 66.737245 -249.666667 
L 65.920434 -249.666667 
L 65.103622 -249.666667 
L 64.286811 -249.666667 
L 63.47 -249.666667 
z
" style="stroke: #008000; stroke-opacity: 0.4"/>
    </defs>
    <g clip-path="url(#pb0ffa3faf2)">
     <use xlink:href="#m5bbaab69fc" x="0" y="648" style="fill: #008000; fill-opacity: 0.4; stroke: #008000; stroke-opacity: 0.4"/>
    </g>
   </g>
   <g id="matplotlib.axis_3">
    <g id="xtick_7">
     <g id="line2d_15">
      <g>
       <use xlink:href="#m2755e2a883" x="63.47" y="398.333333" style="stroke: #000000; stroke-width: 0.8"/>
      </g>
     </g>
     <g id="text_16">
      <!-- 0 -->
      <g transform="translate(60.28875 412.931771) scale(0.1 -0.1)">
       <use xlink:href="#DejaVuSans-30"/>
      </g>
     </g>
    </g>
    <g id="xtick_8">
     <g id="line2d_16">
      <g>
       <use xlink:href="#m2755e2a883" x="104.310561" y="398.333333" style="stroke: #000000; stroke-width: 0.8"/>
      </g>
     </g>
     <g id="text_17">
      <!-- 50 -->
      <g transform="translate(97.948061 412.931771) scale(0.1 -0.1)">
       <use xlink:href="#DejaVuSans-35"/>
       <use xlink:href="#DejaVuSans-30" x="63.623047"/>
      </g>
     </g>
    </g>
    <g id="xtick_9">
     <g id="line2d_17">
      <g>
       <use xlink:href="#m2755e2a883" x="145.151122" y="398.333333" style="stroke: #000000; stroke-width: 0.8"/>
      </g>
     </g>
     <g id="text_18">
      <!-- 100 -->
      <g transform="translate(135.607372 412.931771) scale(0.1 -0.1)">
       <use xlink:href="#DejaVuSans-31"/>
       <use xlink:href="#DejaVuSans-30" x="63.623047"/>
       <use xlink:href="#DejaVuSans-30" x="127.246094"/>
      </g>
     </g>
    </g>
    <g id="xtick_10">
     <g id="line2d_18">
      <g>
       <use xlink:href="#m2755e2a883" x="185.991683" y="398.333333" style="stroke: #000000; stroke-width: 0.8"/>
      </g>
     </g>
     <g id="text_19">
      <!-- 150 -->
      <g transform="translate(176.447933 412.931771) scale(0.1 -0.1)">
       <use xlink:href="#DejaVuSans-31"/>
       <use xlink:href="#DejaVuSans-35" x="63.623047"/>
       <use xlink:href="#DejaVuSans-30" x="127.246094"/>
      </g>
     </g>
    </g>
    <g id="xtick_11">
     <g id="line2d_19">
      <g>
       <use xlink:href="#m2755e2a883" x="226.832244" y="398.333333" style="stroke: #000000; stroke-width: 0.8"/>
      </g>
     </g>
     <g id="text_20">
      <!-- 200 -->
      <g transform="translate(217.288494 412.931771) scale(0.1 -0.1)">
       <use xlink:href="#DejaVuSans-32"/>
       <use xlink:href="#DejaVuSans-30" x="63.623047"/>
       <use xlink:href="#DejaVuSans-30" x="127.246094"/>
      </g>
     </g>
    </g>
    <g id="xtick_12">
     <g id="line2d_20">
      <g>
       <use xlink:href="#m2755e2a883" x="267.672805" y="398.333333" style="stroke: #000000; stroke-width: 0.8"/>
      </g>
     </g>
     <g id="text_21">
      <!-- 250 -->
      <g transform="translate(258.129055 412.931771) scale(0.1 -0.1)">
       <use xlink:href="#DejaVuSans-32"/>
       <use xlink:href="#DejaVuSans-35" x="63.623047"/>
       <use xlink:href="#DejaVuSans-30" x="127.246094"/>
      </g>
     </g>
    </g>
   </g>
   <g id="matplotlib.axis_4">
    <g id="ytick_8">
     <g id="line2d_21">
      <g>
       <use xlink:href="#m2d46df88c4" x="63.47" y="398.333333" style="stroke: #000000; stroke-width: 0.8"/>
      </g>
     </g>
     <g id="text_22">
      <!-- 0 -->
      <g transform="translate(50.1075 402.132552) scale(0.1 -0.1)">
       <use xlink:href="#DejaVuSans-30"/>
      </g>
     </g>
    </g>
    <g id="ytick_9">
     <g id="line2d_22">
      <g>
       <use xlink:href="#m2d46df88c4" x="63.47" y="369.19509" style="stroke: #000000; stroke-width: 0.8"/>
      </g>
     </g>
     <g id="text_23">
      <!-- 2000 -->
      <g transform="translate(31.02 372.994309) scale(0.1 -0.1)">
       <use xlink:href="#DejaVuSans-32"/>
       <use xlink:href="#DejaVuSans-30" x="63.623047"/>
       <use xlink:href="#DejaVuSans-30" x="127.246094"/>
       <use xlink:href="#DejaVuSans-30" x="190.869141"/>
      </g>
     </g>
    </g>
    <g id="ytick_10">
     <g id="line2d_23">
      <g>
       <use xlink:href="#m2d46df88c4" x="63.47" y="340.056847" style="stroke: #000000; stroke-width: 0.8"/>
      </g>
     </g>
     <g id="text_24">
      <!-- 4000 -->
      <g transform="translate(31.02 343.856066) scale(0.1 -0.1)">
       <use xlink:href="#DejaVuSans-34"/>
       <use xlink:href="#DejaVuSans-30" x="63.623047"/>
       <use xlink:href="#DejaVuSans-30" x="127.246094"/>
       <use xlink:href="#DejaVuSans-30" x="190.869141"/>
      </g>
     </g>
    </g>
    <g id="ytick_11">
     <g id="line2d_24">
      <g>
       <use xlink:href="#m2d46df88c4" x="63.47" y="310.918604" style="stroke: #000000; stroke-width: 0.8"/>
      </g>
     </g>
     <g id="text_25">
      <!-- 6000 -->
      <g transform="translate(31.02 314.717823) scale(0.1 -0.1)">
       <use xlink:href="#DejaVuSans-36"/>
       <use xlink:href="#DejaVuSans-30" x="63.623047"/>
       <use xlink:href="#DejaVuSans-30" x="127.246094"/>
       <use xlink:href="#DejaVuSans-30" x="190.869141"/>
      </g>
     </g>
    </g>
    <g id="ytick_12">
     <g id="line2d_25">
      <g>
       <use xlink:href="#m2d46df88c4" x="63.47" y="281.780361" style="stroke: #000000; stroke-width: 0.8"/>
      </g>
     </g>
     <g id="text_26">
      <!-- 8000 -->
      <g transform="translate(31.02 285.57958) scale(0.1 -0.1)">
       <use xlink:href="#DejaVuSans-38"/>
       <use xlink:href="#DejaVuSans-30" x="63.623047"/>
       <use xlink:href="#DejaVuSans-30" x="127.246094"/>
       <use xlink:href="#DejaVuSans-30" x="190.869141"/>
      </g>
     </g>
    </g>
    <g id="ytick_13">
     <g id="line2d_26">
      <g>
       <use xlink:href="#m2d46df88c4" x="63.47" y="252.642118" style="stroke: #000000; stroke-width: 0.8"/>
      </g>
     </g>
     <g id="text_27">
      <!-- 10000 -->
      <g transform="translate(24.6575 256.441337) scale(0.1 -0.1)">
       <use xlink:href="#DejaVuSans-31"/>
       <use xlink:href="#DejaVuSans-30" x="63.623047"/>
       <use xlink:href="#DejaVuSans-30" x="127.246094"/>
       <use xlink:href="#DejaVuSans-30" x="190.869141"/>
       <use xlink:href="#DejaVuSans-30" x="254.492188"/>
      </g>
     </g>
    </g>
    <g id="ytick_14">
     <g id="line2d_27">
      <g>
       <use xlink:href="#m2d46df88c4" x="63.47" y="223.503875" style="stroke: #000000; stroke-width: 0.8"/>
      </g>
     </g>
     <g id="text_28">
      <!-- 12000 -->
      <g transform="translate(24.6575 227.303094) scale(0.1 -0.1)">
       <use xlink:href="#DejaVuSans-31"/>
       <use xlink:href="#DejaVuSans-32" x="63.623047"/>
       <use xlink:href="#DejaVuSans-30" x="127.246094"/>
       <use xlink:href="#DejaVuSans-30" x="190.869141"/>
       <use xlink:href="#DejaVuSans-30" x="254.492188"/>
      </g>
     </g>
    </g>
    <g id="text_29">
     <!-- Pixel Frequency -->
     <g transform="translate(18.577812 347.398906) rotate(-90) scale(0.1 -0.1)">
      <use xlink:href="#DejaVuSans-50"/>
      <use xlink:href="#DejaVuSans-69" x="58.052734"/>
      <use xlink:href="#DejaVuSans-78" x="85.835938"/>
      <use xlink:href="#DejaVuSans-65" x="141.890625"/>
      <use xlink:href="#DejaVuSans-6c" x="203.414062"/>
      <use xlink:href="#DejaVuSans-20" x="231.197266"/>
      <use xlink:href="#DejaVuSans-46" x="262.984375"/>
      <use xlink:href="#DejaVuSans-72" x="313.253906"/>
      <use xlink:href="#DejaVuSans-65" x="352.117188"/>
      <use xlink:href="#DejaVuSans-71" x="413.640625"/>
      <use xlink:href="#DejaVuSans-75" x="477.117188"/>
      <use xlink:href="#DejaVuSans-65" x="540.496094"/>
      <use xlink:href="#DejaVuSans-6e" x="602.019531"/>
      <use xlink:href="#DejaVuSans-63" x="665.398438"/>
      <use xlink:href="#DejaVuSans-79" x="720.378906"/>
     </g>
    </g>
   </g>
   <g id="line2d_28">
    <path d="M 63.47 304.770435 
L 64.286811 365.625656 
L 65.103622 381.593413 
L 66.737245 390.524284 
L 67.554056 393.729491 
L 68.370867 394.661915 
L 69.187679 396.541331 
L 70.00449 396.992974 
L 70.821301 397.604877 
L 72.454923 398.012813 
L 73.271735 398.173073 
L 74.088546 398.187642 
L 74.905357 398.333333 
L 77.355791 398.289626 
L 79.806224 398.318764 
L 141.883877 398.289626 
L 144.334311 398.085658 
L 146.784744 398.143935 
L 148.418367 398.187642 
L 150.8688 398.143935 
L 155.769668 397.89626 
L 156.586479 398.05652 
L 158.220101 398.085658 
L 159.853724 397.998244 
L 160.670535 398.085658 
L 161.487346 397.925398 
L 162.304157 397.939967 
L 163.120969 398.085658 
L 166.388214 397.910829 
L 167.205025 397.910829 
L 168.838647 397.72143 
L 169.655458 397.89626 
L 170.47227 397.692292 
L 172.922703 397.692292 
L 173.739514 397.517463 
L 177.006759 397.40091 
L 177.823571 397.022112 
L 178.640382 397.182373 
L 180.274004 397.094958 
L 181.907627 396.526762 
L 182.724438 396.628746 
L 183.541249 396.599608 
L 184.35806 396.39564 
L 185.174872 396.002274 
L 190.075739 395.725461 
L 190.89255 395.390371 
L 191.709361 395.783737 
L 193.342984 395.594338 
L 194.159795 395.608908 
L 194.976606 395.215541 
L 195.793417 395.332094 
L 196.610229 395.725461 
L 197.42704 395.157265 
L 200.694285 395.608908 
L 201.511096 395.332094 
L 203.144718 395.128127 
L 204.778341 395.696322 
L 205.595152 394.880452 
L 206.411963 395.812875 
L 207.228774 395.390371 
L 208.862397 395.987705 
L 209.679208 395.667184 
L 210.496019 395.90029 
L 211.312831 395.5652 
L 212.129642 395.842014 
L 215.396887 395.929428 
L 216.213698 396.206242 
L 217.030509 395.783737 
L 218.664131 395.696322 
L 219.480943 396.147965 
L 221.114565 395.929428 
L 221.931376 395.987705 
L 222.748188 395.769168 
L 223.564999 395.958567 
L 224.38181 396.439348 
L 225.198621 396.220811 
L 226.015432 396.337364 
L 226.832244 396.147965 
L 227.649055 396.322795 
L 228.465866 396.147965 
L 230.9163 396.07512 
L 231.733111 396.206242 
L 235.000356 396.118827 
L 235.817167 396.39564 
L 236.633978 396.206242 
L 237.450789 396.220811 
L 238.267601 396.016843 
L 239.901223 396.410209 
L 241.534846 395.958567 
L 242.351657 396.206242 
L 243.168468 396.002274 
L 244.80209 396.191672 
L 245.618902 395.74003 
L 246.435713 395.827444 
L 247.252524 396.104258 
L 248.069335 395.754599 
L 248.886147 395.885721 
L 249.702958 395.783737 
L 250.519769 396.06055 
L 251.33658 395.638046 
L 252.153391 395.914859 
L 252.970203 395.783737 
L 254.603825 395.317525 
L 255.420636 395.259249 
L 256.237448 395.361233 
L 257.054259 394.967866 
L 257.87107 395.142696 
L 258.687881 395.594338 
L 259.504692 394.982435 
L 260.321504 394.705622 
L 261.138315 393.962597 
L 261.955126 393.569231 
L 262.771937 392.651376 
L 263.588748 390.786528 
L 264.40556 388.4409 
L 265.222371 386.648898 
L 266.039182 381.418583 
L 267.672805 374.294283 
L 268.489616 369.632164 
L 269.306427 366.091867 
L 270.123238 365.509103 
L 270.940049 359.346364 
L 271.756861 348.900304 
L 271.756861 348.900304 
" clip-path="url(#pb0ffa3faf2)" style="fill: none; stroke: #008000; stroke-width: 1.5; stroke-linecap: square"/>
   </g>
   <g id="patch_8">
    <path d="M 63.47 398.333333 
L 63.47 218.506667 
" style="fill: none; stroke: #000000; stroke-width: 0.8; stroke-linejoin: miter; stroke-linecap: square"/>
   </g>
   <g id="patch_9">
    <path d="M 272.573672 398.333333 
L 272.573672 218.506667 
" style="fill: none; stroke: #000000; stroke-width: 0.8; stroke-linejoin: miter; stroke-linecap: square"/>
   </g>
   <g id="patch_10">
    <path d="M 63.47 398.333333 
L 272.573672 398.333333 
" style="fill: none; stroke: #000000; stroke-width: 0.8; stroke-linejoin: miter; stroke-linecap: square"/>
   </g>
   <g id="patch_11">
    <path d="M 63.47 218.506667 
L 272.573672 218.506667 
" style="fill: none; stroke: #000000; stroke-width: 0.8; stroke-linejoin: miter; stroke-linecap: square"/>
   </g>
   <g id="text_30">
    <!-- Green Channel  -->
    <g transform="translate(179.346797 232.506667) scale(0.12 -0.12)">
     <defs>
      <path id="DejaVuSans-47" d="M 3809 666 
L 3809 1919 
L 2778 1919 
L 2778 2438 
L 4434 2438 
L 4434 434 
Q 4069 175 3628 42 
Q 3188 -91 2688 -91 
Q 1594 -91 976 548 
Q 359 1188 359 2328 
Q 359 3472 976 4111 
Q 1594 4750 2688 4750 
Q 3144 4750 3555 4637 
Q 3966 4525 4313 4306 
L 4313 3634 
Q 3963 3931 3569 4081 
Q 3175 4231 2741 4231 
Q 1884 4231 1454 3753 
Q 1025 3275 1025 2328 
Q 1025 1384 1454 906 
Q 1884 428 2741 428 
Q 3075 428 3337 486 
Q 3600 544 3809 666 
z
" transform="scale(0.015625)"/>
     </defs>
     <use xlink:href="#DejaVuSans-47"/>
     <use xlink:href="#DejaVuSans-72" x="77.490234"/>
     <use xlink:href="#DejaVuSans-65" x="116.353516"/>
     <use xlink:href="#DejaVuSans-65" x="177.876953"/>
     <use xlink:href="#DejaVuSans-6e" x="239.400391"/>
     <use xlink:href="#DejaVuSans-20" x="302.779297"/>
     <use xlink:href="#DejaVuSans-43" x="334.566406"/>
     <use xlink:href="#DejaVuSans-68" x="404.390625"/>
     <use xlink:href="#DejaVuSans-61" x="467.769531"/>
     <use xlink:href="#DejaVuSans-6e" x="529.048828"/>
     <use xlink:href="#DejaVuSans-6e" x="592.427734"/>
     <use xlink:href="#DejaVuSans-65" x="655.806641"/>
     <use xlink:href="#DejaVuSans-6c" x="717.330078"/>
     <use xlink:href="#DejaVuSans-20" x="745.113281"/>
    </g>
   </g>
  </g>
  <g id="axes_3">
   <g id="patch_12">
    <path d="M 63.47 606.04 
L 272.573672 606.04 
L 272.573672 426.213333 
L 63.47 426.213333 
z
" style="fill: #ffffff"/>
   </g>
   <g id="PolyCollection_3">
    <defs>
     <path id="m0c93c98a19" d="M 63.47 -41.96 
L 63.47 -41.96 
L 64.286811 -41.96 
L 65.103622 -41.96 
L 65.920434 -41.96 
L 66.737245 -41.96 
L 67.554056 -41.96 
L 68.370867 -41.96 
L 69.187679 -41.96 
L 70.00449 -41.96 
L 70.821301 -41.96 
L 71.638112 -41.96 
L 72.454923 -41.96 
L 73.271735 -41.96 
L 74.088546 -41.96 
L 74.905357 -41.96 
L 75.722168 -41.96 
L 76.538979 -41.96 
L 77.355791 -41.96 
L 78.172602 -41.96 
L 78.989413 -41.96 
L 79.806224 -41.96 
L 80.623036 -41.96 
L 81.439847 -41.96 
L 82.256658 -41.96 
L 83.073469 -41.96 
L 83.89028 -41.96 
L 84.707092 -41.96 
L 85.523903 -41.96 
L 86.340714 -41.96 
L 87.157525 -41.96 
L 87.974337 -41.96 
L 88.791148 -41.96 
L 89.607959 -41.96 
L 90.42477 -41.96 
L 91.241581 -41.96 
L 92.058393 -41.96 
L 92.875204 -41.96 
L 93.692015 -41.96 
L 94.508826 -41.96 
L 95.325638 -41.96 
L 96.142449 -41.96 
L 96.95926 -41.96 
L 97.776071 -41.96 
L 98.592882 -41.96 
L 99.409694 -41.96 
L 100.226505 -41.96 
L 101.043316 -41.96 
L 101.860127 -41.96 
L 102.676938 -41.96 
L 103.49375 -41.96 
L 104.310561 -41.96 
L 105.127372 -41.974569 
L 105.944183 -41.974569 
L 106.760995 -42.003707 
L 107.577806 -41.989138 
L 108.394617 -41.989138 
L 109.211428 -42.032846 
L 110.028239 -42.032846 
L 110.845051 -42.003707 
L 111.661862 -42.193106 
L 112.478673 -42.222244 
L 113.295484 -42.091122 
L 114.112296 -42.134829 
L 114.929107 -42.207675 
L 115.745918 -42.207675 
L 116.562729 -42.382505 
L 117.37954 -42.397074 
L 118.196352 -42.367935 
L 119.013163 -42.45535 
L 119.829974 -42.469919 
L 120.646785 -42.61561 
L 121.463596 -42.644749 
L 122.280408 -42.805009 
L 123.097219 -42.601041 
L 123.91403 -42.601041 
L 124.730841 -42.877855 
L 125.547653 -43.227514 
L 126.364464 -43.140099 
L 127.181275 -43.664587 
L 127.998086 -43.737433 
L 128.814897 -43.591742 
L 129.631709 -43.824848 
L 130.44852 -43.795709 
L 131.265331 -44.159937 
L 132.082142 -44.61158 
L 132.898954 -44.713564 
L 133.715765 -44.961239 
L 134.532576 -45.340036 
L 135.349387 -45.908232 
L 136.166198 -45.791679 
L 136.98301 -45.675126 
L 137.799821 -46.330736 
L 138.616632 -46.738672 
L 139.433443 -46.126769 
L 140.250255 -46.359875 
L 141.067066 -47.015485 
L 141.883877 -46.971778 
L 142.700688 -46.957209 
L 143.517499 -47.423421 
L 144.334311 -47.190315 
L 145.151122 -47.044623 
L 145.967933 -47.000916 
L 146.784744 -47.190315 
L 147.601555 -46.724103 
L 148.418367 -47.408851 
L 149.235178 -47.306868 
L 150.051989 -47.336006 
L 150.8688 -47.175745 
L 151.685612 -47.539974 
L 152.502423 -46.869794 
L 153.319234 -46.811517 
L 154.136045 -46.665826 
L 154.952856 -46.447289 
L 155.769668 -47.175745 
L 156.586479 -46.913501 
L 157.40329 -46.724103 
L 158.220101 -46.651257 
L 159.036913 -46.957209 
L 159.853724 -47.030054 
L 160.670535 -46.622119 
L 161.487346 -46.665826 
L 162.304157 -46.913501 
L 163.120969 -46.257891 
L 163.93778 -46.753241 
L 164.754591 -47.088331 
L 165.571402 -46.43272 
L 166.388214 -46.447289 
L 167.205025 -46.257891 
L 168.021836 -46.826087 
L 168.838647 -46.826087 
L 169.655458 -46.418151 
L 170.47227 -46.724103 
L 171.289081 -46.563842 
L 172.105892 -46.826087 
L 172.922703 -46.796948 
L 173.739514 -46.76781 
L 174.556326 -47.030054 
L 175.373137 -46.374444 
L 176.189948 -46.345306 
L 177.006759 -46.724103 
L 177.823571 -46.097631 
L 178.640382 -46.549273 
L 179.457193 -46.214183 
L 180.274004 -46.257891 
L 181.090815 -46.796948 
L 181.907627 -46.097631 
L 182.724438 -46.126769 
L 183.541249 -46.199614 
L 184.35806 -45.849955 
L 185.174872 -46.461859 
L 185.991683 -46.083061 
L 186.808494 -45.966508 
L 187.625305 -46.024785 
L 188.442116 -46.126769 
L 189.258928 -46.068492 
L 190.075739 -46.345306 
L 190.89255 -45.296329 
L 191.709361 -45.354605 
L 192.526172 -46.097631 
L 193.342984 -45.733402 
L 194.159795 -45.28176 
L 194.976606 -45.471158 
L 195.793417 -45.849955 
L 196.610229 -45.879094 
L 197.42704 -45.733402 
L 198.243851 -45.456589 
L 199.060662 -46.097631 
L 199.877473 -45.77711 
L 200.694285 -45.558573 
L 201.511096 -45.296329 
L 202.327907 -45.733402 
L 203.144718 -45.485727 
L 203.96153 -45.631419 
L 204.778341 -45.179776 
L 205.595152 -45.762541 
L 206.411963 -45.092361 
L 207.228774 -45.485727 
L 208.045586 -44.961239 
L 208.862397 -45.004946 
L 209.679208 -45.019516 
L 210.496019 -44.961239 
L 211.312831 -45.208914 
L 212.129642 -45.28176 
L 212.946453 -45.208914 
L 213.763264 -45.004946 
L 214.580075 -44.728133 
L 215.396887 -44.728133 
L 216.213698 -44.800979 
L 217.030509 -44.349336 
L 217.84732 -44.961239 
L 218.664131 -45.063223 
L 219.480943 -44.713564 
L 220.297754 -44.698995 
L 221.114565 -44.465889 
L 221.931376 -44.261921 
L 222.748188 -44.713564 
L 223.564999 -44.422182 
L 224.38181 -44.553304 
L 225.198621 -44.218214 
L 226.015432 -44.436751 
L 226.832244 -44.61158 
L 227.649055 -44.028815 
L 228.465866 -44.597011 
L 229.282677 -44.232783 
L 230.099489 -44.422182 
L 230.9163 -44.247352 
L 231.733111 -44.320198 
L 232.549922 -43.970539 
L 233.366733 -44.553304 
L 234.183545 -44.189076 
L 235.000356 -44.509596 
L 235.817167 -44.363905 
L 236.633978 -44.203645 
L 237.450789 -44.072523 
L 238.267601 -44.232783 
L 239.084412 -44.45132 
L 239.901223 -44.174506 
L 240.718034 -44.145368 
L 241.534846 -44.189076 
L 242.351657 -44.305629 
L 243.168468 -44.130799 
L 243.985279 -43.839417 
L 244.80209 -43.883124 
L 245.618902 -44.378474 
L 246.435713 -43.970539 
L 247.252524 -44.057953 
L 248.069335 -44.218214 
L 248.886147 -44.057953 
L 249.702958 -43.985108 
L 250.519769 -43.926831 
L 251.33658 -44.45132 
L 252.153391 -44.480458 
L 252.970203 -44.567873 
L 253.787014 -44.495027 
L 254.603825 -44.61158 
L 255.420636 -43.970539 
L 256.237448 -44.509596 
L 257.054259 -44.61158 
L 257.87107 -44.378474 
L 258.687881 -44.742702 
L 259.504692 -44.78641 
L 260.321504 -44.582442 
L 261.138315 -45.573142 
L 261.955126 -45.893663 
L 262.771937 -46.694964 
L 263.588748 -46.330736 
L 264.40556 -46.665826 
L 265.222371 -46.068492 
L 266.039182 -47.117469 
L 266.855993 -47.75851 
L 267.672805 -49.943879 
L 268.489616 -55.188762 
L 269.306427 -49.113439 
L 270.123238 -70.267803 
L 270.940049 -80.815847 
L 271.756861 -51.473636 
L 271.756861 -41.96 
L 271.756861 -41.96 
L 270.940049 -41.96 
L 270.123238 -41.96 
L 269.306427 -41.96 
L 268.489616 -41.96 
L 267.672805 -41.96 
L 266.855993 -41.96 
L 266.039182 -41.96 
L 265.222371 -41.96 
L 264.40556 -41.96 
L 263.588748 -41.96 
L 262.771937 -41.96 
L 261.955126 -41.96 
L 261.138315 -41.96 
L 260.321504 -41.96 
L 259.504692 -41.96 
L 258.687881 -41.96 
L 257.87107 -41.96 
L 257.054259 -41.96 
L 256.237448 -41.96 
L 255.420636 -41.96 
L 254.603825 -41.96 
L 253.787014 -41.96 
L 252.970203 -41.96 
L 252.153391 -41.96 
L 251.33658 -41.96 
L 250.519769 -41.96 
L 249.702958 -41.96 
L 248.886147 -41.96 
L 248.069335 -41.96 
L 247.252524 -41.96 
L 246.435713 -41.96 
L 245.618902 -41.96 
L 244.80209 -41.96 
L 243.985279 -41.96 
L 243.168468 -41.96 
L 242.351657 -41.96 
L 241.534846 -41.96 
L 240.718034 -41.96 
L 239.901223 -41.96 
L 239.084412 -41.96 
L 238.267601 -41.96 
L 237.450789 -41.96 
L 236.633978 -41.96 
L 235.817167 -41.96 
L 235.000356 -41.96 
L 234.183545 -41.96 
L 233.366733 -41.96 
L 232.549922 -41.96 
L 231.733111 -41.96 
L 230.9163 -41.96 
L 230.099489 -41.96 
L 229.282677 -41.96 
L 228.465866 -41.96 
L 227.649055 -41.96 
L 226.832244 -41.96 
L 226.015432 -41.96 
L 225.198621 -41.96 
L 224.38181 -41.96 
L 223.564999 -41.96 
L 222.748188 -41.96 
L 221.931376 -41.96 
L 221.114565 -41.96 
L 220.297754 -41.96 
L 219.480943 -41.96 
L 218.664131 -41.96 
L 217.84732 -41.96 
L 217.030509 -41.96 
L 216.213698 -41.96 
L 215.396887 -41.96 
L 214.580075 -41.96 
L 213.763264 -41.96 
L 212.946453 -41.96 
L 212.129642 -41.96 
L 211.312831 -41.96 
L 210.496019 -41.96 
L 209.679208 -41.96 
L 208.862397 -41.96 
L 208.045586 -41.96 
L 207.228774 -41.96 
L 206.411963 -41.96 
L 205.595152 -41.96 
L 204.778341 -41.96 
L 203.96153 -41.96 
L 203.144718 -41.96 
L 202.327907 -41.96 
L 201.511096 -41.96 
L 200.694285 -41.96 
L 199.877473 -41.96 
L 199.060662 -41.96 
L 198.243851 -41.96 
L 197.42704 -41.96 
L 196.610229 -41.96 
L 195.793417 -41.96 
L 194.976606 -41.96 
L 194.159795 -41.96 
L 193.342984 -41.96 
L 192.526172 -41.96 
L 191.709361 -41.96 
L 190.89255 -41.96 
L 190.075739 -41.96 
L 189.258928 -41.96 
L 188.442116 -41.96 
L 187.625305 -41.96 
L 186.808494 -41.96 
L 185.991683 -41.96 
L 185.174872 -41.96 
L 184.35806 -41.96 
L 183.541249 -41.96 
L 182.724438 -41.96 
L 181.907627 -41.96 
L 181.090815 -41.96 
L 180.274004 -41.96 
L 179.457193 -41.96 
L 178.640382 -41.96 
L 177.823571 -41.96 
L 177.006759 -41.96 
L 176.189948 -41.96 
L 175.373137 -41.96 
L 174.556326 -41.96 
L 173.739514 -41.96 
L 172.922703 -41.96 
L 172.105892 -41.96 
L 171.289081 -41.96 
L 170.47227 -41.96 
L 169.655458 -41.96 
L 168.838647 -41.96 
L 168.021836 -41.96 
L 167.205025 -41.96 
L 166.388214 -41.96 
L 165.571402 -41.96 
L 164.754591 -41.96 
L 163.93778 -41.96 
L 163.120969 -41.96 
L 162.304157 -41.96 
L 161.487346 -41.96 
L 160.670535 -41.96 
L 159.853724 -41.96 
L 159.036913 -41.96 
L 158.220101 -41.96 
L 157.40329 -41.96 
L 156.586479 -41.96 
L 155.769668 -41.96 
L 154.952856 -41.96 
L 154.136045 -41.96 
L 153.319234 -41.96 
L 152.502423 -41.96 
L 151.685612 -41.96 
L 150.8688 -41.96 
L 150.051989 -41.96 
L 149.235178 -41.96 
L 148.418367 -41.96 
L 147.601555 -41.96 
L 146.784744 -41.96 
L 145.967933 -41.96 
L 145.151122 -41.96 
L 144.334311 -41.96 
L 143.517499 -41.96 
L 142.700688 -41.96 
L 141.883877 -41.96 
L 141.067066 -41.96 
L 140.250255 -41.96 
L 139.433443 -41.96 
L 138.616632 -41.96 
L 137.799821 -41.96 
L 136.98301 -41.96 
L 136.166198 -41.96 
L 135.349387 -41.96 
L 134.532576 -41.96 
L 133.715765 -41.96 
L 132.898954 -41.96 
L 132.082142 -41.96 
L 131.265331 -41.96 
L 130.44852 -41.96 
L 129.631709 -41.96 
L 128.814897 -41.96 
L 127.998086 -41.96 
L 127.181275 -41.96 
L 126.364464 -41.96 
L 125.547653 -41.96 
L 124.730841 -41.96 
L 123.91403 -41.96 
L 123.097219 -41.96 
L 122.280408 -41.96 
L 121.463596 -41.96 
L 120.646785 -41.96 
L 119.829974 -41.96 
L 119.013163 -41.96 
L 118.196352 -41.96 
L 117.37954 -41.96 
L 116.562729 -41.96 
L 115.745918 -41.96 
L 114.929107 -41.96 
L 114.112296 -41.96 
L 113.295484 -41.96 
L 112.478673 -41.96 
L 111.661862 -41.96 
L 110.845051 -41.96 
L 110.028239 -41.96 
L 109.211428 -41.96 
L 108.394617 -41.96 
L 107.577806 -41.96 
L 106.760995 -41.96 
L 105.944183 -41.96 
L 105.127372 -41.96 
L 104.310561 -41.96 
L 103.49375 -41.96 
L 102.676938 -41.96 
L 101.860127 -41.96 
L 101.043316 -41.96 
L 100.226505 -41.96 
L 99.409694 -41.96 
L 98.592882 -41.96 
L 97.776071 -41.96 
L 96.95926 -41.96 
L 96.142449 -41.96 
L 95.325638 -41.96 
L 94.508826 -41.96 
L 93.692015 -41.96 
L 92.875204 -41.96 
L 92.058393 -41.96 
L 91.241581 -41.96 
L 90.42477 -41.96 
L 89.607959 -41.96 
L 88.791148 -41.96 
L 87.974337 -41.96 
L 87.157525 -41.96 
L 86.340714 -41.96 
L 85.523903 -41.96 
L 84.707092 -41.96 
L 83.89028 -41.96 
L 83.073469 -41.96 
L 82.256658 -41.96 
L 81.439847 -41.96 
L 80.623036 -41.96 
L 79.806224 -41.96 
L 78.989413 -41.96 
L 78.172602 -41.96 
L 77.355791 -41.96 
L 76.538979 -41.96 
L 75.722168 -41.96 
L 74.905357 -41.96 
L 74.088546 -41.96 
L 73.271735 -41.96 
L 72.454923 -41.96 
L 71.638112 -41.96 
L 70.821301 -41.96 
L 70.00449 -41.96 
L 69.187679 -41.96 
L 68.370867 -41.96 
L 67.554056 -41.96 
L 66.737245 -41.96 
L 65.920434 -41.96 
L 65.103622 -41.96 
L 64.286811 -41.96 
L 63.47 -41.96 
z
" style="stroke: #0000ff; stroke-opacity: 0.4"/>
    </defs>
    <g clip-path="url(#pc5d5fa7882)">
     <use xlink:href="#m0c93c98a19" x="0" y="648" style="fill: #0000ff; fill-opacity: 0.4; stroke: #0000ff; stroke-opacity: 0.4"/>
    </g>
   </g>
   <g id="matplotlib.axis_5">
    <g id="xtick_13">
     <g id="line2d_29">
      <g>
       <use xlink:href="#m2755e2a883" x="63.47" y="606.04" style="stroke: #000000; stroke-width: 0.8"/>
      </g>
     </g>
     <g id="text_31">
      <!-- 0 -->
      <g transform="translate(60.28875 620.638438) scale(0.1 -0.1)">
       <use xlink:href="#DejaVuSans-30"/>
      </g>
     </g>
    </g>
    <g id="xtick_14">
     <g id="line2d_30">
      <g>
       <use xlink:href="#m2755e2a883" x="104.310561" y="606.04" style="stroke: #000000; stroke-width: 0.8"/>
      </g>
     </g>
     <g id="text_32">
      <!-- 50 -->
      <g transform="translate(97.948061 620.638438) scale(0.1 -0.1)">
       <use xlink:href="#DejaVuSans-35"/>
       <use xlink:href="#DejaVuSans-30" x="63.623047"/>
      </g>
     </g>
    </g>
    <g id="xtick_15">
     <g id="line2d_31">
      <g>
       <use xlink:href="#m2755e2a883" x="145.151122" y="606.04" style="stroke: #000000; stroke-width: 0.8"/>
      </g>
     </g>
     <g id="text_33">
      <!-- 100 -->
      <g transform="translate(135.607372 620.638438) scale(0.1 -0.1)">
       <use xlink:href="#DejaVuSans-31"/>
       <use xlink:href="#DejaVuSans-30" x="63.623047"/>
       <use xlink:href="#DejaVuSans-30" x="127.246094"/>
      </g>
     </g>
    </g>
    <g id="xtick_16">
     <g id="line2d_32">
      <g>
       <use xlink:href="#m2755e2a883" x="185.991683" y="606.04" style="stroke: #000000; stroke-width: 0.8"/>
      </g>
     </g>
     <g id="text_34">
      <!-- 150 -->
      <g transform="translate(176.447933 620.638438) scale(0.1 -0.1)">
       <use xlink:href="#DejaVuSans-31"/>
       <use xlink:href="#DejaVuSans-35" x="63.623047"/>
       <use xlink:href="#DejaVuSans-30" x="127.246094"/>
      </g>
     </g>
    </g>
    <g id="xtick_17">
     <g id="line2d_33">
      <g>
       <use xlink:href="#m2755e2a883" x="226.832244" y="606.04" style="stroke: #000000; stroke-width: 0.8"/>
      </g>
     </g>
     <g id="text_35">
      <!-- 200 -->
      <g transform="translate(217.288494 620.638438) scale(0.1 -0.1)">
       <use xlink:href="#DejaVuSans-32"/>
       <use xlink:href="#DejaVuSans-30" x="63.623047"/>
       <use xlink:href="#DejaVuSans-30" x="127.246094"/>
      </g>
     </g>
    </g>
    <g id="xtick_18">
     <g id="line2d_34">
      <g>
       <use xlink:href="#m2755e2a883" x="267.672805" y="606.04" style="stroke: #000000; stroke-width: 0.8"/>
      </g>
     </g>
     <g id="text_36">
      <!-- 250 -->
      <g transform="translate(258.129055 620.638438) scale(0.1 -0.1)">
       <use xlink:href="#DejaVuSans-32"/>
       <use xlink:href="#DejaVuSans-35" x="63.623047"/>
       <use xlink:href="#DejaVuSans-30" x="127.246094"/>
      </g>
     </g>
    </g>
    <g id="text_37">
     <!-- Pixel Intensity -->
     <g transform="translate(133.110117 634.316563) scale(0.1 -0.1)">
      <defs>
       <path id="DejaVuSans-49" d="M 628 4666 
L 1259 4666 
L 1259 0 
L 628 0 
L 628 4666 
z
" transform="scale(0.015625)"/>
       <path id="DejaVuSans-74" d="M 1172 4494 
L 1172 3500 
L 2356 3500 
L 2356 3053 
L 1172 3053 
L 1172 1153 
Q 1172 725 1289 603 
Q 1406 481 1766 481 
L 2356 481 
L 2356 0 
L 1766 0 
Q 1100 0 847 248 
Q 594 497 594 1153 
L 594 3053 
L 172 3053 
L 172 3500 
L 594 3500 
L 594 4494 
L 1172 4494 
z
" transform="scale(0.015625)"/>
       <path id="DejaVuSans-73" d="M 2834 3397 
L 2834 2853 
Q 2591 2978 2328 3040 
Q 2066 3103 1784 3103 
Q 1356 3103 1142 2972 
Q 928 2841 928 2578 
Q 928 2378 1081 2264 
Q 1234 2150 1697 2047 
L 1894 2003 
Q 2506 1872 2764 1633 
Q 3022 1394 3022 966 
Q 3022 478 2636 193 
Q 2250 -91 1575 -91 
Q 1294 -91 989 -36 
Q 684 19 347 128 
L 347 722 
Q 666 556 975 473 
Q 1284 391 1588 391 
Q 1994 391 2212 530 
Q 2431 669 2431 922 
Q 2431 1156 2273 1281 
Q 2116 1406 1581 1522 
L 1381 1569 
Q 847 1681 609 1914 
Q 372 2147 372 2553 
Q 372 3047 722 3315 
Q 1072 3584 1716 3584 
Q 2034 3584 2315 3537 
Q 2597 3491 2834 3397 
z
" transform="scale(0.015625)"/>
      </defs>
      <use xlink:href="#DejaVuSans-50"/>
      <use xlink:href="#DejaVuSans-69" x="58.052734"/>
      <use xlink:href="#DejaVuSans-78" x="85.835938"/>
      <use xlink:href="#DejaVuSans-65" x="141.890625"/>
      <use xlink:href="#DejaVuSans-6c" x="203.414062"/>
      <use xlink:href="#DejaVuSans-20" x="231.197266"/>
      <use xlink:href="#DejaVuSans-49" x="262.984375"/>
      <use xlink:href="#DejaVuSans-6e" x="292.476562"/>
      <use xlink:href="#DejaVuSans-74" x="355.855469"/>
      <use xlink:href="#DejaVuSans-65" x="395.064453"/>
      <use xlink:href="#DejaVuSans-6e" x="456.587891"/>
      <use xlink:href="#DejaVuSans-73" x="519.966797"/>
      <use xlink:href="#DejaVuSans-69" x="572.066406"/>
      <use xlink:href="#DejaVuSans-74" x="599.849609"/>
      <use xlink:href="#DejaVuSans-79" x="639.058594"/>
     </g>
    </g>
   </g>
   <g id="matplotlib.axis_6">
    <g id="ytick_15">
     <g id="line2d_35">
      <g>
       <use xlink:href="#m2d46df88c4" x="63.47" y="606.04" style="stroke: #000000; stroke-width: 0.8"/>
      </g>
     </g>
     <g id="text_38">
      <!-- 0 -->
      <g transform="translate(50.1075 609.839219) scale(0.1 -0.1)">
       <use xlink:href="#DejaVuSans-30"/>
      </g>
     </g>
    </g>
    <g id="ytick_16">
     <g id="line2d_36">
      <g>
       <use xlink:href="#m2d46df88c4" x="63.47" y="576.901757" style="stroke: #000000; stroke-width: 0.8"/>
      </g>
     </g>
     <g id="text_39">
      <!-- 2000 -->
      <g transform="translate(31.02 580.700976) scale(0.1 -0.1)">
       <use xlink:href="#DejaVuSans-32"/>
       <use xlink:href="#DejaVuSans-30" x="63.623047"/>
       <use xlink:href="#DejaVuSans-30" x="127.246094"/>
       <use xlink:href="#DejaVuSans-30" x="190.869141"/>
      </g>
     </g>
    </g>
    <g id="ytick_17">
     <g id="line2d_37">
      <g>
       <use xlink:href="#m2d46df88c4" x="63.47" y="547.763514" style="stroke: #000000; stroke-width: 0.8"/>
      </g>
     </g>
     <g id="text_40">
      <!-- 4000 -->
      <g transform="translate(31.02 551.562733) scale(0.1 -0.1)">
       <use xlink:href="#DejaVuSans-34"/>
       <use xlink:href="#DejaVuSans-30" x="63.623047"/>
       <use xlink:href="#DejaVuSans-30" x="127.246094"/>
       <use xlink:href="#DejaVuSans-30" x="190.869141"/>
      </g>
     </g>
    </g>
    <g id="ytick_18">
     <g id="line2d_38">
      <g>
       <use xlink:href="#m2d46df88c4" x="63.47" y="518.625271" style="stroke: #000000; stroke-width: 0.8"/>
      </g>
     </g>
     <g id="text_41">
      <!-- 6000 -->
      <g transform="translate(31.02 522.42449) scale(0.1 -0.1)">
       <use xlink:href="#DejaVuSans-36"/>
       <use xlink:href="#DejaVuSans-30" x="63.623047"/>
       <use xlink:href="#DejaVuSans-30" x="127.246094"/>
       <use xlink:href="#DejaVuSans-30" x="190.869141"/>
      </g>
     </g>
    </g>
    <g id="ytick_19">
     <g id="line2d_39">
      <g>
       <use xlink:href="#m2d46df88c4" x="63.47" y="489.487028" style="stroke: #000000; stroke-width: 0.8"/>
      </g>
     </g>
     <g id="text_42">
      <!-- 8000 -->
      <g transform="translate(31.02 493.286247) scale(0.1 -0.1)">
       <use xlink:href="#DejaVuSans-38"/>
       <use xlink:href="#DejaVuSans-30" x="63.623047"/>
       <use xlink:href="#DejaVuSans-30" x="127.246094"/>
       <use xlink:href="#DejaVuSans-30" x="190.869141"/>
      </g>
     </g>
    </g>
    <g id="ytick_20">
     <g id="line2d_40">
      <g>
       <use xlink:href="#m2d46df88c4" x="63.47" y="460.348785" style="stroke: #000000; stroke-width: 0.8"/>
      </g>
     </g>
     <g id="text_43">
      <!-- 10000 -->
      <g transform="translate(24.6575 464.148004) scale(0.1 -0.1)">
       <use xlink:href="#DejaVuSans-31"/>
       <use xlink:href="#DejaVuSans-30" x="63.623047"/>
       <use xlink:href="#DejaVuSans-30" x="127.246094"/>
       <use xlink:href="#DejaVuSans-30" x="190.869141"/>
       <use xlink:href="#DejaVuSans-30" x="254.492188"/>
      </g>
     </g>
    </g>
    <g id="ytick_21">
     <g id="line2d_41">
      <g>
       <use xlink:href="#m2d46df88c4" x="63.47" y="431.210542" style="stroke: #000000; stroke-width: 0.8"/>
      </g>
     </g>
     <g id="text_44">
      <!-- 12000 -->
      <g transform="translate(24.6575 435.009761) scale(0.1 -0.1)">
       <use xlink:href="#DejaVuSans-31"/>
       <use xlink:href="#DejaVuSans-32" x="63.623047"/>
       <use xlink:href="#DejaVuSans-30" x="127.246094"/>
       <use xlink:href="#DejaVuSans-30" x="190.869141"/>
       <use xlink:href="#DejaVuSans-30" x="254.492188"/>
      </g>
     </g>
    </g>
    <g id="text_45">
     <!-- Pixel Frequency -->
     <g transform="translate(18.577812 555.105573) rotate(-90) scale(0.1 -0.1)">
      <use xlink:href="#DejaVuSans-50"/>
      <use xlink:href="#DejaVuSans-69" x="58.052734"/>
      <use xlink:href="#DejaVuSans-78" x="85.835938"/>
      <use xlink:href="#DejaVuSans-65" x="141.890625"/>
      <use xlink:href="#DejaVuSans-6c" x="203.414062"/>
      <use xlink:href="#DejaVuSans-20" x="231.197266"/>
      <use xlink:href="#DejaVuSans-46" x="262.984375"/>
      <use xlink:href="#DejaVuSans-72" x="313.253906"/>
      <use xlink:href="#DejaVuSans-65" x="352.117188"/>
      <use xlink:href="#DejaVuSans-71" x="413.640625"/>
      <use xlink:href="#DejaVuSans-75" x="477.117188"/>
      <use xlink:href="#DejaVuSans-65" x="540.496094"/>
      <use xlink:href="#DejaVuSans-6e" x="602.019531"/>
      <use xlink:href="#DejaVuSans-63" x="665.398438"/>
      <use xlink:href="#DejaVuSans-79" x="720.378906"/>
     </g>
    </g>
   </g>
   <g id="line2d_42">
    <path d="M 63.47 606.04 
L 110.845051 605.996293 
L 111.661862 605.806894 
L 112.478673 605.777756 
L 113.295484 605.908878 
L 115.745918 605.792325 
L 116.562729 605.617495 
L 119.829974 605.530081 
L 120.646785 605.38439 
L 121.463596 605.355251 
L 122.280408 605.194991 
L 123.097219 605.398959 
L 123.91403 605.398959 
L 125.547653 604.772486 
L 126.364464 604.859901 
L 127.181275 604.335413 
L 127.998086 604.262567 
L 128.814897 604.408258 
L 129.631709 604.175152 
L 130.44852 604.204291 
L 132.082142 603.38842 
L 132.898954 603.286436 
L 133.715765 603.038761 
L 134.532576 602.659964 
L 135.349387 602.091768 
L 136.98301 602.324874 
L 137.799821 601.669264 
L 138.616632 601.261328 
L 139.433443 601.873231 
L 140.250255 601.640125 
L 141.067066 600.984515 
L 142.700688 601.042791 
L 143.517499 600.576579 
L 145.151122 600.955377 
L 145.967933 600.999084 
L 146.784744 600.809685 
L 147.601555 601.275897 
L 148.418367 600.591149 
L 149.235178 600.693132 
L 150.051989 600.663994 
L 150.8688 600.824255 
L 151.685612 600.460026 
L 152.502423 601.130206 
L 154.136045 601.334174 
L 154.952856 601.552711 
L 155.769668 600.824255 
L 157.40329 601.275897 
L 158.220101 601.348743 
L 159.036913 601.042791 
L 159.853724 600.969946 
L 160.670535 601.377881 
L 161.487346 601.334174 
L 162.304157 601.086499 
L 163.120969 601.742109 
L 163.93778 601.246759 
L 164.754591 600.911669 
L 165.571402 601.56728 
L 166.388214 601.552711 
L 167.205025 601.742109 
L 168.021836 601.173913 
L 168.838647 601.173913 
L 169.655458 601.581849 
L 170.47227 601.275897 
L 171.289081 601.436158 
L 172.105892 601.173913 
L 173.739514 601.23219 
L 174.556326 600.969946 
L 175.373137 601.625556 
L 176.189948 601.654694 
L 177.006759 601.275897 
L 177.823571 601.902369 
L 178.640382 601.450727 
L 179.457193 601.785817 
L 180.274004 601.742109 
L 181.090815 601.203052 
L 181.907627 601.902369 
L 183.541249 601.800386 
L 184.35806 602.150045 
L 185.174872 601.538141 
L 185.991683 601.916939 
L 186.808494 602.033492 
L 189.258928 601.931508 
L 190.075739 601.654694 
L 190.89255 602.703671 
L 191.709361 602.645395 
L 192.526172 601.902369 
L 194.159795 602.71824 
L 194.976606 602.528842 
L 195.793417 602.150045 
L 196.610229 602.120906 
L 197.42704 602.266598 
L 198.243851 602.543411 
L 199.060662 601.902369 
L 200.694285 602.441427 
L 201.511096 602.703671 
L 202.327907 602.266598 
L 203.144718 602.514273 
L 203.96153 602.368581 
L 204.778341 602.820224 
L 205.595152 602.237459 
L 206.411963 602.907639 
L 207.228774 602.514273 
L 208.045586 603.038761 
L 209.679208 602.980484 
L 210.496019 603.038761 
L 211.312831 602.791086 
L 212.129642 602.71824 
L 212.946453 602.791086 
L 214.580075 603.271867 
L 216.213698 603.199021 
L 217.030509 603.650664 
L 217.84732 603.038761 
L 218.664131 602.936777 
L 219.480943 603.286436 
L 220.297754 603.301005 
L 221.931376 603.738079 
L 222.748188 603.286436 
L 223.564999 603.577818 
L 224.38181 603.446696 
L 225.198621 603.781786 
L 226.832244 603.38842 
L 227.649055 603.971185 
L 228.465866 603.402989 
L 229.282677 603.767217 
L 230.099489 603.577818 
L 230.9163 603.752648 
L 231.733111 603.679802 
L 232.549922 604.029461 
L 233.366733 603.446696 
L 234.183545 603.810924 
L 235.000356 603.490404 
L 237.450789 603.927477 
L 239.084412 603.54868 
L 239.901223 603.825494 
L 241.534846 603.810924 
L 242.351657 603.694371 
L 243.168468 603.869201 
L 243.985279 604.160583 
L 244.80209 604.116876 
L 245.618902 603.621526 
L 246.435713 604.029461 
L 248.069335 603.781786 
L 249.702958 604.014892 
L 250.519769 604.073169 
L 251.33658 603.54868 
L 254.603825 603.38842 
L 255.420636 604.029461 
L 256.237448 603.490404 
L 257.054259 603.38842 
L 257.87107 603.621526 
L 258.687881 603.257298 
L 259.504692 603.21359 
L 260.321504 603.417558 
L 261.138315 602.426858 
L 261.955126 602.106337 
L 262.771937 601.305036 
L 263.588748 601.669264 
L 264.40556 601.334174 
L 265.222371 601.931508 
L 266.039182 600.882531 
L 266.855993 600.24149 
L 267.672805 598.056121 
L 268.489616 592.811238 
L 269.306427 598.886561 
L 270.123238 577.732197 
L 270.940049 567.184153 
L 271.756861 596.526364 
L 271.756861 596.526364 
" clip-path="url(#pc5d5fa7882)" style="fill: none; stroke: #0000ff; stroke-width: 1.5; stroke-linecap: square"/>
   </g>
   <g id="patch_13">
    <path d="M 63.47 606.04 
L 63.47 426.213333 
" style="fill: none; stroke: #000000; stroke-width: 0.8; stroke-linejoin: miter; stroke-linecap: square"/>
   </g>
   <g id="patch_14">
    <path d="M 272.573672 606.04 
L 272.573672 426.213333 
" style="fill: none; stroke: #000000; stroke-width: 0.8; stroke-linejoin: miter; stroke-linecap: square"/>
   </g>
   <g id="patch_15">
    <path d="M 63.47 606.04 
L 272.573672 606.04 
" style="fill: none; stroke: #000000; stroke-width: 0.8; stroke-linejoin: miter; stroke-linecap: square"/>
   </g>
   <g id="patch_16">
    <path d="M 63.47 426.213333 
L 272.573672 426.213333 
" style="fill: none; stroke: #000000; stroke-width: 0.8; stroke-linejoin: miter; stroke-linecap: square"/>
   </g>
   <g id="text_46">
    <!-- Blue Channel  -->
    <g transform="translate(189.124922 440.213333) scale(0.12 -0.12)">
     <defs>
      <path id="DejaVuSans-42" d="M 1259 2228 
L 1259 519 
L 2272 519 
Q 2781 519 3026 730 
Q 3272 941 3272 1375 
Q 3272 1813 3026 2020 
Q 2781 2228 2272 2228 
L 1259 2228 
z
M 1259 4147 
L 1259 2741 
L 2194 2741 
Q 2656 2741 2882 2914 
Q 3109 3088 3109 3444 
Q 3109 3797 2882 3972 
Q 2656 4147 2194 4147 
L 1259 4147 
z
M 628 4666 
L 2241 4666 
Q 2963 4666 3353 4366 
Q 3744 4066 3744 3513 
Q 3744 3084 3544 2831 
Q 3344 2578 2956 2516 
Q 3422 2416 3680 2098 
Q 3938 1781 3938 1306 
Q 3938 681 3513 340 
Q 3088 0 2303 0 
L 628 0 
L 628 4666 
z
" transform="scale(0.015625)"/>
     </defs>
     <use xlink:href="#DejaVuSans-42"/>
     <use xlink:href="#DejaVuSans-6c" x="68.603516"/>
     <use xlink:href="#DejaVuSans-75" x="96.386719"/>
     <use xlink:href="#DejaVuSans-65" x="159.765625"/>
     <use xlink:href="#DejaVuSans-20" x="221.289062"/>
     <use xlink:href="#DejaVuSans-43" x="253.076172"/>
     <use xlink:href="#DejaVuSans-68" x="322.900391"/>
     <use xlink:href="#DejaVuSans-61" x="386.279297"/>
     <use xlink:href="#DejaVuSans-6e" x="447.558594"/>
     <use xlink:href="#DejaVuSans-6e" x="510.9375"/>
     <use xlink:href="#DejaVuSans-65" x="574.316406"/>
     <use xlink:href="#DejaVuSans-6c" x="635.839844"/>
     <use xlink:href="#DejaVuSans-20" x="663.623047"/>
    </g>
   </g>
  </g>
 </g>
 <defs>
  <clipPath id="p6e72be720a">
   <rect x="63.47" y="10.8" width="209.103672" height="179.826667"/>
  </clipPath>
  <clipPath id="pb0ffa3faf2">
   <rect x="63.47" y="218.506667" width="209.103672" height="179.826667"/>
  </clipPath>
  <clipPath id="pc5d5fa7882">
   <rect x="63.47" y="426.213333" width="209.103672" height="179.826667"/>
  </clipPath>
 </defs>
</svg>
