<?xml version="1.0" encoding="utf-8" standalone="no"?>
<!DOCTYPE svg PUBLIC "-//W3C//DTD SVG 1.1//EN"
  "http://www.w3.org/Graphics/SVG/1.1/DTD/svg11.dtd">
<svg xmlns:xlink="http://www.w3.org/1999/xlink" width="720pt" height="288pt" viewBox="0 0 720 288" xmlns="http://www.w3.org/2000/svg" version="1.1">
 <metadata>
  <rdf:RDF xmlns:dc="http://purl.org/dc/elements/1.1/" xmlns:cc="http://creativecommons.org/ns#" xmlns:rdf="http://www.w3.org/1999/02/22-rdf-syntax-ns#">
   <cc:Work>
    <dc:type rdf:resource="http://purl.org/dc/dcmitype/StillImage"/>
    <dc:date>2023-11-18T15:18:14.830138</dc:date>
    <dc:format>image/svg+xml</dc:format>
    <dc:creator>
     <cc:Agent>
      <dc:title>Matplotlib v3.8.0, https://matplotlib.org/</dc:title>
     </cc:Agent>
    </dc:creator>
   </cc:Work>
  </rdf:RDF>
 </metadata>
 <defs>
  <style type="text/css">*{stroke-linejoin: round; stroke-linecap: butt}</style>
 </defs>
 <g id="figure_1">
  <g id="patch_1">
   <path d="M 0 288 
L 720 288 
L 720 0 
L 0 0 
z
" style="fill: #ffffff"/>
  </g>
  <g id="axes_1">
   <g id="patch_2">
    <path d="M 90 256.32 
L 648 256.32 
L 648 34.56 
L 90 34.56 
z
" style="fill: #ffffff"/>
   </g>
   <g id="matplotlib.axis_1">
    <g id="xtick_1">
     <g id="line2d_1">
      <defs>
       <path id="m2639edc09e" d="M 0 0 
L 0 3.5 
" style="stroke: #000000; stroke-width: 0.8"/>
      </defs>
      <g>
       <use xlink:href="#m2639edc09e" x="90" y="256.32" style="stroke: #000000; stroke-width: 0.8"/>
      </g>
     </g>
     <g id="text_1">
      <!-- 0 -->
      <g transform="translate(86.81875 270.918437) scale(0.1 -0.1)">
       <defs>
        <path id="DejaVuSans-30" d="M 2034 4250 
Q 1547 4250 1301 3770 
Q 1056 3291 1056 2328 
Q 1056 1369 1301 889 
Q 1547 409 2034 409 
Q 2525 409 2770 889 
Q 3016 1369 3016 2328 
Q 3016 3291 2770 3770 
Q 2525 4250 2034 4250 
z
M 2034 4750 
Q 2819 4750 3233 4129 
Q 3647 3509 3647 2328 
Q 3647 1150 3233 529 
Q 2819 -91 2034 -91 
Q 1250 -91 836 529 
Q 422 1150 422 2328 
Q 422 3509 836 4129 
Q 1250 4750 2034 4750 
z
" transform="scale(0.015625)"/>
       </defs>
       <use xlink:href="#DejaVuSans-30"/>
      </g>
     </g>
    </g>
    <g id="xtick_2">
     <g id="line2d_2">
      <g>
       <use xlink:href="#m2639edc09e" x="198.984375" y="256.32" style="stroke: #000000; stroke-width: 0.8"/>
      </g>
     </g>
     <g id="text_2">
      <!-- 50 -->
      <g transform="translate(192.621875 270.918437) scale(0.1 -0.1)">
       <defs>
        <path id="DejaVuSans-35" d="M 691 4666 
L 3169 4666 
L 3169 4134 
L 1269 4134 
L 1269 2991 
Q 1406 3038 1543 3061 
Q 1681 3084 1819 3084 
Q 2600 3084 3056 2656 
Q 3513 2228 3513 1497 
Q 3513 744 3044 326 
Q 2575 -91 1722 -91 
Q 1428 -91 1123 -41 
Q 819 9 494 109 
L 494 744 
Q 775 591 1075 516 
Q 1375 441 1709 441 
Q 2250 441 2565 725 
Q 2881 1009 2881 1497 
Q 2881 1984 2565 2268 
Q 2250 2553 1709 2553 
Q 1456 2553 1204 2497 
Q 953 2441 691 2322 
L 691 4666 
z
" transform="scale(0.015625)"/>
       </defs>
       <use xlink:href="#DejaVuSans-35"/>
       <use xlink:href="#DejaVuSans-30" x="63.623047"/>
      </g>
     </g>
    </g>
    <g id="xtick_3">
     <g id="line2d_3">
      <g>
       <use xlink:href="#m2639edc09e" x="307.96875" y="256.32" style="stroke: #000000; stroke-width: 0.8"/>
      </g>
     </g>
     <g id="text_3">
      <!-- 100 -->
      <g transform="translate(298.425 270.918437) scale(0.1 -0.1)">
       <defs>
        <path id="DejaVuSans-31" d="M 794 531 
L 1825 531 
L 1825 4091 
L 703 3866 
L 703 4441 
L 1819 4666 
L 2450 4666 
L 2450 531 
L 3481 531 
L 3481 0 
L 794 0 
L 794 531 
z
" transform="scale(0.015625)"/>
       </defs>
       <use xlink:href="#DejaVuSans-31"/>
       <use xlink:href="#DejaVuSans-30" x="63.623047"/>
       <use xlink:href="#DejaVuSans-30" x="127.246094"/>
      </g>
     </g>
    </g>
    <g id="xtick_4">
     <g id="line2d_4">
      <g>
       <use xlink:href="#m2639edc09e" x="416.953125" y="256.32" style="stroke: #000000; stroke-width: 0.8"/>
      </g>
     </g>
     <g id="text_4">
      <!-- 150 -->
      <g transform="translate(407.409375 270.918437) scale(0.1 -0.1)">
       <use xlink:href="#DejaVuSans-31"/>
       <use xlink:href="#DejaVuSans-35" x="63.623047"/>
       <use xlink:href="#DejaVuSans-30" x="127.246094"/>
      </g>
     </g>
    </g>
    <g id="xtick_5">
     <g id="line2d_5">
      <g>
       <use xlink:href="#m2639edc09e" x="525.9375" y="256.32" style="stroke: #000000; stroke-width: 0.8"/>
      </g>
     </g>
     <g id="text_5">
      <!-- 200 -->
      <g transform="translate(516.39375 270.918437) scale(0.1 -0.1)">
       <defs>
        <path id="DejaVuSans-32" d="M 1228 531 
L 3431 531 
L 3431 0 
L 469 0 
L 469 531 
Q 828 903 1448 1529 
Q 2069 2156 2228 2338 
Q 2531 2678 2651 2914 
Q 2772 3150 2772 3378 
Q 2772 3750 2511 3984 
Q 2250 4219 1831 4219 
Q 1534 4219 1204 4116 
Q 875 4013 500 3803 
L 500 4441 
Q 881 4594 1212 4672 
Q 1544 4750 1819 4750 
Q 2544 4750 2975 4387 
Q 3406 4025 3406 3419 
Q 3406 3131 3298 2873 
Q 3191 2616 2906 2266 
Q 2828 2175 2409 1742 
Q 1991 1309 1228 531 
z
" transform="scale(0.015625)"/>
       </defs>
       <use xlink:href="#DejaVuSans-32"/>
       <use xlink:href="#DejaVuSans-30" x="63.623047"/>
       <use xlink:href="#DejaVuSans-30" x="127.246094"/>
      </g>
     </g>
    </g>
    <g id="xtick_6">
     <g id="line2d_6">
      <g>
       <use xlink:href="#m2639edc09e" x="634.921875" y="256.32" style="stroke: #000000; stroke-width: 0.8"/>
      </g>
     </g>
     <g id="text_6">
      <!-- 250 -->
      <g transform="translate(625.378125 270.918437) scale(0.1 -0.1)">
       <use xlink:href="#DejaVuSans-32"/>
       <use xlink:href="#DejaVuSans-35" x="63.623047"/>
       <use xlink:href="#DejaVuSans-30" x="127.246094"/>
      </g>
     </g>
    </g>
    <g id="text_7">
     <!-- Pixel Intensity -->
     <g transform="translate(334.088281 284.596563) scale(0.1 -0.1)">
      <defs>
       <path id="DejaVuSans-50" d="M 1259 4147 
L 1259 2394 
L 2053 2394 
Q 2494 2394 2734 2622 
Q 2975 2850 2975 3272 
Q 2975 3691 2734 3919 
Q 2494 4147 2053 4147 
L 1259 4147 
z
M 628 4666 
L 2053 4666 
Q 2838 4666 3239 4311 
Q 3641 3956 3641 3272 
Q 3641 2581 3239 2228 
Q 2838 1875 2053 1875 
L 1259 1875 
L 1259 0 
L 628 0 
L 628 4666 
z
" transform="scale(0.015625)"/>
       <path id="DejaVuSans-69" d="M 603 3500 
L 1178 3500 
L 1178 0 
L 603 0 
L 603 3500 
z
M 603 4863 
L 1178 4863 
L 1178 4134 
L 603 4134 
L 603 4863 
z
" transform="scale(0.015625)"/>
       <path id="DejaVuSans-78" d="M 3513 3500 
L 2247 1797 
L 3578 0 
L 2900 0 
L 1881 1375 
L 863 0 
L 184 0 
L 1544 1831 
L 300 3500 
L 978 3500 
L 1906 2253 
L 2834 3500 
L 3513 3500 
z
" transform="scale(0.015625)"/>
       <path id="DejaVuSans-65" d="M 3597 1894 
L 3597 1613 
L 953 1613 
Q 991 1019 1311 708 
Q 1631 397 2203 397 
Q 2534 397 2845 478 
Q 3156 559 3463 722 
L 3463 178 
Q 3153 47 2828 -22 
Q 2503 -91 2169 -91 
Q 1331 -91 842 396 
Q 353 884 353 1716 
Q 353 2575 817 3079 
Q 1281 3584 2069 3584 
Q 2775 3584 3186 3129 
Q 3597 2675 3597 1894 
z
M 3022 2063 
Q 3016 2534 2758 2815 
Q 2500 3097 2075 3097 
Q 1594 3097 1305 2825 
Q 1016 2553 972 2059 
L 3022 2063 
z
" transform="scale(0.015625)"/>
       <path id="DejaVuSans-6c" d="M 603 4863 
L 1178 4863 
L 1178 0 
L 603 0 
L 603 4863 
z
" transform="scale(0.015625)"/>
       <path id="DejaVuSans-20" transform="scale(0.015625)"/>
       <path id="DejaVuSans-49" d="M 628 4666 
L 1259 4666 
L 1259 0 
L 628 0 
L 628 4666 
z
" transform="scale(0.015625)"/>
       <path id="DejaVuSans-6e" d="M 3513 2113 
L 3513 0 
L 2938 0 
L 2938 2094 
Q 2938 2591 2744 2837 
Q 2550 3084 2163 3084 
Q 1697 3084 1428 2787 
Q 1159 2491 1159 1978 
L 1159 0 
L 581 0 
L 581 3500 
L 1159 3500 
L 1159 2956 
Q 1366 3272 1645 3428 
Q 1925 3584 2291 3584 
Q 2894 3584 3203 3211 
Q 3513 2838 3513 2113 
z
" transform="scale(0.015625)"/>
       <path id="DejaVuSans-74" d="M 1172 4494 
L 1172 3500 
L 2356 3500 
L 2356 3053 
L 1172 3053 
L 1172 1153 
Q 1172 725 1289 603 
Q 1406 481 1766 481 
L 2356 481 
L 2356 0 
L 1766 0 
Q 1100 0 847 248 
Q 594 497 594 1153 
L 594 3053 
L 172 3053 
L 172 3500 
L 594 3500 
L 594 4494 
L 1172 4494 
z
" transform="scale(0.015625)"/>
       <path id="DejaVuSans-73" d="M 2834 3397 
L 2834 2853 
Q 2591 2978 2328 3040 
Q 2066 3103 1784 3103 
Q 1356 3103 1142 2972 
Q 928 2841 928 2578 
Q 928 2378 1081 2264 
Q 1234 2150 1697 2047 
L 1894 2003 
Q 2506 1872 2764 1633 
Q 3022 1394 3022 966 
Q 3022 478 2636 193 
Q 2250 -91 1575 -91 
Q 1294 -91 989 -36 
Q 684 19 347 128 
L 347 722 
Q 666 556 975 473 
Q 1284 391 1588 391 
Q 1994 391 2212 530 
Q 2431 669 2431 922 
Q 2431 1156 2273 1281 
Q 2116 1406 1581 1522 
L 1381 1569 
Q 847 1681 609 1914 
Q 372 2147 372 2553 
Q 372 3047 722 3315 
Q 1072 3584 1716 3584 
Q 2034 3584 2315 3537 
Q 2597 3491 2834 3397 
z
" transform="scale(0.015625)"/>
       <path id="DejaVuSans-79" d="M 2059 -325 
Q 1816 -950 1584 -1140 
Q 1353 -1331 966 -1331 
L 506 -1331 
L 506 -850 
L 844 -850 
Q 1081 -850 1212 -737 
Q 1344 -625 1503 -206 
L 1606 56 
L 191 3500 
L 800 3500 
L 1894 763 
L 2988 3500 
L 3597 3500 
L 2059 -325 
z
" transform="scale(0.015625)"/>
      </defs>
      <use xlink:href="#DejaVuSans-50"/>
      <use xlink:href="#DejaVuSans-69" x="58.052734"/>
      <use xlink:href="#DejaVuSans-78" x="85.835938"/>
      <use xlink:href="#DejaVuSans-65" x="141.890625"/>
      <use xlink:href="#DejaVuSans-6c" x="203.414062"/>
      <use xlink:href="#DejaVuSans-20" x="231.197266"/>
      <use xlink:href="#DejaVuSans-49" x="262.984375"/>
      <use xlink:href="#DejaVuSans-6e" x="292.476562"/>
      <use xlink:href="#DejaVuSans-74" x="355.855469"/>
      <use xlink:href="#DejaVuSans-65" x="395.064453"/>
      <use xlink:href="#DejaVuSans-6e" x="456.587891"/>
      <use xlink:href="#DejaVuSans-73" x="519.966797"/>
      <use xlink:href="#DejaVuSans-69" x="572.066406"/>
      <use xlink:href="#DejaVuSans-74" x="599.849609"/>
      <use xlink:href="#DejaVuSans-79" x="639.058594"/>
     </g>
    </g>
   </g>
   <g id="matplotlib.axis_2">
    <g id="ytick_1">
     <g id="line2d_7">
      <defs>
       <path id="maf9e20fd65" d="M 0 0 
L -3.5 0 
" style="stroke: #000000; stroke-width: 0.8"/>
      </defs>
      <g>
       <use xlink:href="#maf9e20fd65" x="90" y="246.24" style="stroke: #000000; stroke-width: 0.8"/>
      </g>
     </g>
     <g id="text_8">
      <!-- 0 -->
      <g transform="translate(76.6375 250.039219) scale(0.1 -0.1)">
       <use xlink:href="#DejaVuSans-30"/>
      </g>
     </g>
    </g>
    <g id="ytick_2">
     <g id="line2d_8">
      <g>
       <use xlink:href="#maf9e20fd65" x="90" y="201.736689" style="stroke: #000000; stroke-width: 0.8"/>
      </g>
     </g>
     <g id="text_9">
      <!-- 500 -->
      <g transform="translate(63.9125 205.535907) scale(0.1 -0.1)">
       <use xlink:href="#DejaVuSans-35"/>
       <use xlink:href="#DejaVuSans-30" x="63.623047"/>
       <use xlink:href="#DejaVuSans-30" x="127.246094"/>
      </g>
     </g>
    </g>
    <g id="ytick_3">
     <g id="line2d_9">
      <g>
       <use xlink:href="#maf9e20fd65" x="90" y="157.233377" style="stroke: #000000; stroke-width: 0.8"/>
      </g>
     </g>
     <g id="text_10">
      <!-- 1000 -->
      <g transform="translate(57.55 161.032596) scale(0.1 -0.1)">
       <use xlink:href="#DejaVuSans-31"/>
       <use xlink:href="#DejaVuSans-30" x="63.623047"/>
       <use xlink:href="#DejaVuSans-30" x="127.246094"/>
       <use xlink:href="#DejaVuSans-30" x="190.869141"/>
      </g>
     </g>
    </g>
    <g id="ytick_4">
     <g id="line2d_10">
      <g>
       <use xlink:href="#maf9e20fd65" x="90" y="112.730066" style="stroke: #000000; stroke-width: 0.8"/>
      </g>
     </g>
     <g id="text_11">
      <!-- 1500 -->
      <g transform="translate(57.55 116.529285) scale(0.1 -0.1)">
       <use xlink:href="#DejaVuSans-31"/>
       <use xlink:href="#DejaVuSans-35" x="63.623047"/>
       <use xlink:href="#DejaVuSans-30" x="127.246094"/>
       <use xlink:href="#DejaVuSans-30" x="190.869141"/>
      </g>
     </g>
    </g>
    <g id="ytick_5">
     <g id="line2d_11">
      <g>
       <use xlink:href="#maf9e20fd65" x="90" y="68.226755" style="stroke: #000000; stroke-width: 0.8"/>
      </g>
     </g>
     <g id="text_12">
      <!-- 2000 -->
      <g transform="translate(57.55 72.025974) scale(0.1 -0.1)">
       <use xlink:href="#DejaVuSans-32"/>
       <use xlink:href="#DejaVuSans-30" x="63.623047"/>
       <use xlink:href="#DejaVuSans-30" x="127.246094"/>
       <use xlink:href="#DejaVuSans-30" x="190.869141"/>
      </g>
     </g>
    </g>
    <g id="text_13">
     <!-- Frequency -->
     <g transform="translate(51.470312 171.269688) rotate(-90) scale(0.1 -0.1)">
      <defs>
       <path id="DejaVuSans-46" d="M 628 4666 
L 3309 4666 
L 3309 4134 
L 1259 4134 
L 1259 2759 
L 3109 2759 
L 3109 2228 
L 1259 2228 
L 1259 0 
L 628 0 
L 628 4666 
z
" transform="scale(0.015625)"/>
       <path id="DejaVuSans-72" d="M 2631 2963 
Q 2534 3019 2420 3045 
Q 2306 3072 2169 3072 
Q 1681 3072 1420 2755 
Q 1159 2438 1159 1844 
L 1159 0 
L 581 0 
L 581 3500 
L 1159 3500 
L 1159 2956 
Q 1341 3275 1631 3429 
Q 1922 3584 2338 3584 
Q 2397 3584 2469 3576 
Q 2541 3569 2628 3553 
L 2631 2963 
z
" transform="scale(0.015625)"/>
       <path id="DejaVuSans-71" d="M 947 1747 
Q 947 1113 1208 752 
Q 1469 391 1925 391 
Q 2381 391 2643 752 
Q 2906 1113 2906 1747 
Q 2906 2381 2643 2742 
Q 2381 3103 1925 3103 
Q 1469 3103 1208 2742 
Q 947 2381 947 1747 
z
M 2906 525 
Q 2725 213 2448 61 
Q 2172 -91 1784 -91 
Q 1150 -91 751 415 
Q 353 922 353 1747 
Q 353 2572 751 3078 
Q 1150 3584 1784 3584 
Q 2172 3584 2448 3432 
Q 2725 3281 2906 2969 
L 2906 3500 
L 3481 3500 
L 3481 -1331 
L 2906 -1331 
L 2906 525 
z
" transform="scale(0.015625)"/>
       <path id="DejaVuSans-75" d="M 544 1381 
L 544 3500 
L 1119 3500 
L 1119 1403 
Q 1119 906 1312 657 
Q 1506 409 1894 409 
Q 2359 409 2629 706 
Q 2900 1003 2900 1516 
L 2900 3500 
L 3475 3500 
L 3475 0 
L 2900 0 
L 2900 538 
Q 2691 219 2414 64 
Q 2138 -91 1772 -91 
Q 1169 -91 856 284 
Q 544 659 544 1381 
z
M 1991 3584 
L 1991 3584 
z
" transform="scale(0.015625)"/>
       <path id="DejaVuSans-63" d="M 3122 3366 
L 3122 2828 
Q 2878 2963 2633 3030 
Q 2388 3097 2138 3097 
Q 1578 3097 1268 2742 
Q 959 2388 959 1747 
Q 959 1106 1268 751 
Q 1578 397 2138 397 
Q 2388 397 2633 464 
Q 2878 531 3122 666 
L 3122 134 
Q 2881 22 2623 -34 
Q 2366 -91 2075 -91 
Q 1284 -91 818 406 
Q 353 903 353 1747 
Q 353 2603 823 3093 
Q 1294 3584 2113 3584 
Q 2378 3584 2631 3529 
Q 2884 3475 3122 3366 
z
" transform="scale(0.015625)"/>
      </defs>
      <use xlink:href="#DejaVuSans-46"/>
      <use xlink:href="#DejaVuSans-72" x="50.269531"/>
      <use xlink:href="#DejaVuSans-65" x="89.132812"/>
      <use xlink:href="#DejaVuSans-71" x="150.65625"/>
      <use xlink:href="#DejaVuSans-75" x="214.132812"/>
      <use xlink:href="#DejaVuSans-65" x="277.511719"/>
      <use xlink:href="#DejaVuSans-6e" x="339.035156"/>
      <use xlink:href="#DejaVuSans-63" x="402.414062"/>
      <use xlink:href="#DejaVuSans-79" x="457.394531"/>
     </g>
    </g>
   </g>
   <g id="line2d_12">
    <path d="M 90 246.24 
L 218.601562 246.24 
L 220.78125 245.260927 
L 222.960938 245.883974 
L 225.140625 245.082914 
L 227.320312 241.611656 
L 229.5 236.983311 
L 231.679688 228.705695 
L 233.859375 215.176689 
L 236.039062 184.202384 
L 238.21875 135.248742 
L 240.398438 114.599205 
L 242.578125 44.64 
L 244.757812 83.268874 
L 246.9375 118.604503 
L 249.117188 110.771921 
L 251.296875 67.870728 
L 253.476562 161.594702 
L 255.65625 210.459338 
L 257.835938 231.820927 
L 260.015625 229.684768 
L 262.195312 229.328742 
L 264.375 219.36 
L 266.554688 205.207947 
L 268.734375 189.631788 
L 270.914062 172.18649 
L 273.09375 148.955762 
L 275.273438 128.929272 
L 277.453125 105.431523 
L 279.632812 87.630199 
L 281.8125 82.111788 
L 283.992188 63.509404 
L 286.171875 74.368212 
L 288.351562 89.944371 
L 290.53125 103.117351 
L 292.710938 125.458013 
L 294.890625 146.10755 
L 297.070312 164.442914 
L 299.25 179.752053 
L 301.429688 192.123974 
L 303.609375 201.558675 
L 305.789062 208.145166 
L 307.96875 217.223841 
L 310.148438 212.595497 
L 312.328125 220.072053 
L 314.507812 219.181987 
L 316.6875 221.674172 
L 318.867188 226.48053 
L 321.046875 228.171656 
L 323.226562 231.197881 
L 325.40625 230.129801 
L 327.585938 230.485828 
L 329.765625 231.197881 
L 331.945312 232.978013 
L 334.125 233.245033 
L 336.304688 234.313113 
L 340.664062 234.224106 
L 342.84375 234.135099 
L 345.023438 235.826225 
L 347.203125 234.046093 
L 349.382812 235.737219 
L 351.5625 235.381192 
L 353.742188 236.538278 
L 355.921875 235.381192 
L 358.101562 236.360265 
L 362.460938 238.674437 
L 366.820312 237.695364 
L 369 237.962384 
L 371.179688 239.38649 
L 373.359375 238.674437 
L 375.539062 240.009536 
L 377.71875 238.58543 
L 382.078125 239.564503 
L 384.257812 238.58543 
L 386.4375 238.407417 
L 388.617188 240.632583 
L 390.796875 239.208477 
L 392.976562 239.11947 
L 395.15625 239.92053 
L 397.335938 240.098543 
L 399.515625 239.297483 
L 401.695312 240.276556 
L 403.875 240.632583 
L 406.054688 240.632583 
L 408.234375 240.988609 
L 410.414062 240.988609 
L 412.59375 240.721589 
L 414.773438 240.899603 
L 416.953125 240.18755 
L 419.132812 239.65351 
L 421.3125 241.077616 
L 423.492188 241.967682 
L 425.671875 240.632583 
L 427.851562 241.166623 
L 430.03125 240.632583 
L 432.210938 240.899603 
L 434.390625 240.18755 
L 436.570312 240.18755 
L 438.75 240.543576 
L 440.929688 240.45457 
L 443.109375 241.077616 
L 445.289062 241.255629 
L 447.46875 242.145695 
L 449.648438 241.077616 
L 451.828125 241.166623 
L 454.007812 240.721589 
L 456.1875 241.967682 
L 458.367188 241.700662 
L 462.726562 240.810596 
L 464.90625 241.077616 
L 467.085938 241.967682 
L 469.265625 242.679735 
L 471.445312 240.988609 
L 473.625 241.789669 
L 475.804688 242.946755 
L 477.984375 241.433642 
L 480.164062 240.543576 
L 482.34375 241.967682 
L 484.523438 241.611656 
L 486.703125 241.700662 
L 491.0625 242.323709 
L 493.242188 241.522649 
L 497.601562 241.967682 
L 501.960938 241.433642 
L 504.140625 241.789669 
L 506.320312 241.611656 
L 508.5 242.056689 
L 510.679688 242.234702 
L 512.859375 242.234702 
L 515.039062 241.344636 
L 517.21875 242.857748 
L 519.398438 242.323709 
L 521.578125 242.145695 
L 523.757812 242.234702 
L 528.117188 242.145695 
L 530.296875 241.700662 
L 532.476562 243.391788 
L 534.65625 241.878675 
L 536.835938 242.679735 
L 539.015625 241.878675 
L 541.195312 242.946755 
L 543.375 242.323709 
L 545.554688 241.077616 
L 547.734375 241.344636 
L 549.914062 242.145695 
L 552.09375 240.721589 
L 554.273438 241.522649 
L 556.453125 241.789669 
L 558.632812 241.700662 
L 560.8125 242.768742 
L 562.992188 242.056689 
L 565.171875 240.632583 
L 567.351562 240.098543 
L 569.53125 240.276556 
L 571.710938 240.098543 
L 573.890625 241.077616 
L 576.070312 240.098543 
L 578.25 238.318411 
L 580.429688 239.65351 
L 582.609375 239.11947 
L 584.789062 238.407417 
L 586.96875 239.742517 
L 589.148438 236.538278 
L 591.328125 239.92053 
L 593.507812 238.140397 
L 595.6875 239.65351 
L 597.867188 238.85245 
L 600.046875 239.11947 
L 602.226562 238.674437 
L 604.40625 240.632583 
L 606.585938 240.009536 
L 608.765625 240.276556 
L 610.945312 239.38649 
L 613.125 239.831523 
L 615.304688 240.009536 
L 617.484375 240.721589 
L 619.664062 240.721589 
L 621.84375 241.878675 
L 624.023438 242.768742 
L 626.203125 241.700662 
L 628.382812 242.590728 
L 630.5625 242.857748 
L 632.742188 243.836821 
L 637.101562 243.035762 
L 639.28125 244.103841 
L 641.460938 244.548874 
L 645.820312 246.24 
L 645.820312 246.24 
" clip-path="url(#p683739115f)" style="fill: none; stroke: #1f77b4; stroke-width: 1.5; stroke-linecap: square"/>
   </g>
   <g id="line2d_13">
    <path d="M 90 246.24 
L 179.367188 246.24 
L 183.726562 245.616954 
L 185.90625 245.883974 
L 188.085938 245.260927 
L 190.265625 245.616954 
L 192.445312 245.616954 
L 196.804688 244.993907 
L 198.984375 244.014834 
L 201.164062 243.836821 
L 203.34375 244.192848 
L 205.523438 243.391788 
L 207.703125 243.302781 
L 209.882812 241.967682 
L 214.242188 240.276556 
L 216.421875 238.674437 
L 218.601562 239.11947 
L 220.78125 233.06702 
L 222.960938 230.930861 
L 225.140625 225.857483 
L 227.320312 214.108609 
L 229.5 213.396556 
L 231.679688 195.150199 
L 233.859375 183.846358 
L 236.039062 165.243974 
L 238.21875 154.296159 
L 240.398438 150.201854 
L 242.578125 131.154437 
L 244.757812 138.809007 
L 246.9375 136.494834 
L 249.117188 146.10755 
L 251.296875 156.610331 
L 253.476562 170.673377 
L 255.65625 176.191788 
L 257.835938 179.752053 
L 260.015625 188.652715 
L 262.195312 187.050596 
L 264.375 189.186755 
L 266.554688 186.42755 
L 268.734375 167.914172 
L 270.914062 164.175894 
L 273.09375 147.620662 
L 275.273438 132.40053 
L 277.453125 121.185695 
L 279.632812 104.363444 
L 281.8125 114.154172 
L 283.992188 104.45245 
L 286.171875 108.902781 
L 288.351562 119.672583 
L 290.53125 124.300927 
L 292.710938 135.426755 
L 294.890625 144.238411 
L 297.070312 156.877351 
L 299.25 167.736159 
L 301.429688 172.45351 
L 303.609375 186.516556 
L 305.789062 191.411921 
L 307.96875 202.893775 
L 310.148438 210.281325 
L 312.328125 213.663576 
L 314.507812 220.250066 
L 316.6875 220.517086 
L 318.867188 223.810331 
L 321.046875 224.611391 
L 323.226562 227.726623 
L 325.40625 228.527682 
L 327.585938 230.841854 
L 329.765625 230.485828 
L 331.945312 229.862781 
L 334.125 231.99894 
L 336.304688 233.245033 
L 338.484375 235.737219 
L 340.664062 234.936159 
L 342.84375 235.559205 
L 345.023438 233.957086 
L 347.203125 236.093245 
L 349.382812 234.936159 
L 351.5625 237.428344 
L 353.742188 236.004238 
L 355.921875 236.983311 
L 358.101562 236.093245 
L 360.28125 237.517351 
L 362.460938 237.873377 
L 364.640625 237.962384 
L 366.820312 238.496424 
L 369 238.407417 
L 373.359375 239.475497 
L 375.539062 237.250331 
L 379.898438 239.11947 
L 382.078125 240.009536 
L 384.257812 238.58543 
L 386.4375 240.098543 
L 388.617188 240.721589 
L 390.796875 239.11947 
L 392.976562 238.941457 
L 395.15625 240.721589 
L 397.335938 239.831523 
L 399.515625 240.365563 
L 401.695312 239.38649 
L 403.875 238.85245 
L 406.054688 240.988609 
L 408.234375 240.009536 
L 410.414062 240.721589 
L 412.59375 240.988609 
L 414.773438 240.721589 
L 416.953125 241.077616 
L 419.132812 239.297483 
L 421.3125 240.899603 
L 425.671875 240.18755 
L 427.851562 240.988609 
L 430.03125 241.166623 
L 432.210938 240.810596 
L 434.390625 241.433642 
L 436.570312 241.433642 
L 438.75 240.899603 
L 440.929688 242.145695 
L 443.109375 240.632583 
L 445.289062 240.988609 
L 447.46875 240.721589 
L 449.648438 240.988609 
L 451.828125 241.878675 
L 454.007812 242.056689 
L 456.1875 241.611656 
L 458.367188 241.611656 
L 460.546875 240.810596 
L 462.726562 241.967682 
L 464.90625 241.255629 
L 467.085938 241.077616 
L 469.265625 241.077616 
L 471.445312 240.276556 
L 473.625 241.522649 
L 475.804688 242.323709 
L 477.984375 241.611656 
L 480.164062 241.878675 
L 482.34375 240.810596 
L 484.523438 242.946755 
L 486.703125 241.433642 
L 488.882812 240.276556 
L 491.0625 241.789669 
L 495.421875 240.543576 
L 497.601562 241.967682 
L 499.78125 241.522649 
L 501.960938 241.255629 
L 504.140625 240.098543 
L 508.5 238.58543 
L 510.679688 238.674437 
L 512.859375 239.11947 
L 515.039062 237.161325 
L 517.21875 237.695364 
L 519.398438 237.072318 
L 521.578125 235.648212 
L 523.757812 237.606358 
L 525.9375 237.606358 
L 528.117188 236.538278 
L 530.296875 236.805298 
L 534.65625 235.470199 
L 536.835938 236.182252 
L 539.015625 235.559205 
L 541.195312 235.292185 
L 543.375 238.58543 
L 545.554688 238.229404 
L 547.734375 238.674437 
L 549.914062 236.894305 
L 552.09375 240.365563 
L 554.273438 239.297483 
L 556.453125 239.742517 
L 558.632812 238.674437 
L 560.8125 239.92053 
L 562.992188 239.297483 
L 565.171875 240.365563 
L 567.351562 239.831523 
L 569.53125 241.522649 
L 571.710938 242.056689 
L 573.890625 243.480795 
L 576.070312 242.679735 
L 578.25 242.234702 
L 580.429688 243.747815 
L 582.609375 243.925828 
L 584.789062 244.726887 
L 586.96875 243.569801 
L 589.148438 244.815894 
L 591.328125 245.082914 
L 593.507812 244.904901 
L 595.6875 245.527947 
L 597.867188 245.794967 
L 600.046875 245.616954 
L 602.226562 245.97298 
L 604.40625 246.061987 
L 606.585938 245.70596 
L 608.765625 246.150993 
L 610.945312 246.24 
L 613.125 246.061987 
L 617.484375 246.150993 
L 619.664062 246.061987 
L 621.84375 246.24 
L 624.023438 246.150993 
L 628.382812 246.24 
L 645.820312 246.24 
L 645.820312 246.24 
" clip-path="url(#p683739115f)" style="fill: none; stroke: #ff7f0e; stroke-width: 1.5; stroke-linecap: square"/>
   </g>
   <g id="patch_3">
    <path d="M 90 256.32 
L 90 34.56 
" style="fill: none; stroke: #000000; stroke-width: 0.8; stroke-linejoin: miter; stroke-linecap: square"/>
   </g>
   <g id="patch_4">
    <path d="M 648 256.32 
L 648 34.56 
" style="fill: none; stroke: #000000; stroke-width: 0.8; stroke-linejoin: miter; stroke-linecap: square"/>
   </g>
   <g id="patch_5">
    <path d="M 90 256.32 
L 648 256.32 
" style="fill: none; stroke: #000000; stroke-width: 0.8; stroke-linejoin: miter; stroke-linecap: square"/>
   </g>
   <g id="patch_6">
    <path d="M 90 34.56 
L 648 34.56 
" style="fill: none; stroke: #000000; stroke-width: 0.8; stroke-linejoin: miter; stroke-linecap: square"/>
   </g>
   <g id="legend_1">
    <g id="patch_7">
     <path d="M 562.201563 71.91625 
L 641 71.91625 
Q 643 71.91625 643 69.91625 
L 643 41.56 
Q 643 39.56 641 39.56 
L 562.201563 39.56 
Q 560.201563 39.56 560.201563 41.56 
L 560.201563 69.91625 
Q 560.201563 71.91625 562.201563 71.91625 
z
" style="fill: #ffffff; opacity: 0.8; stroke: #cccccc; stroke-linejoin: miter"/>
    </g>
    <g id="line2d_14">
     <path d="M 564.201563 47.658437 
L 574.201563 47.658437 
L 584.201563 47.658437 
" style="fill: none; stroke: #1f77b4; stroke-width: 1.5; stroke-linecap: square"/>
    </g>
    <g id="text_14">
     <!-- Original -->
     <g transform="translate(592.201563 51.158437) scale(0.1 -0.1)">
      <defs>
       <path id="DejaVuSans-4f" d="M 2522 4238 
Q 1834 4238 1429 3725 
Q 1025 3213 1025 2328 
Q 1025 1447 1429 934 
Q 1834 422 2522 422 
Q 3209 422 3611 934 
Q 4013 1447 4013 2328 
Q 4013 3213 3611 3725 
Q 3209 4238 2522 4238 
z
M 2522 4750 
Q 3503 4750 4090 4092 
Q 4678 3434 4678 2328 
Q 4678 1225 4090 567 
Q 3503 -91 2522 -91 
Q 1538 -91 948 565 
Q 359 1222 359 2328 
Q 359 3434 948 4092 
Q 1538 4750 2522 4750 
z
" transform="scale(0.015625)"/>
       <path id="DejaVuSans-67" d="M 2906 1791 
Q 2906 2416 2648 2759 
Q 2391 3103 1925 3103 
Q 1463 3103 1205 2759 
Q 947 2416 947 1791 
Q 947 1169 1205 825 
Q 1463 481 1925 481 
Q 2391 481 2648 825 
Q 2906 1169 2906 1791 
z
M 3481 434 
Q 3481 -459 3084 -895 
Q 2688 -1331 1869 -1331 
Q 1566 -1331 1297 -1286 
Q 1028 -1241 775 -1147 
L 775 -588 
Q 1028 -725 1275 -790 
Q 1522 -856 1778 -856 
Q 2344 -856 2625 -561 
Q 2906 -266 2906 331 
L 2906 616 
Q 2728 306 2450 153 
Q 2172 0 1784 0 
Q 1141 0 747 490 
Q 353 981 353 1791 
Q 353 2603 747 3093 
Q 1141 3584 1784 3584 
Q 2172 3584 2450 3431 
Q 2728 3278 2906 2969 
L 2906 3500 
L 3481 3500 
L 3481 434 
z
" transform="scale(0.015625)"/>
       <path id="DejaVuSans-61" d="M 2194 1759 
Q 1497 1759 1228 1600 
Q 959 1441 959 1056 
Q 959 750 1161 570 
Q 1363 391 1709 391 
Q 2188 391 2477 730 
Q 2766 1069 2766 1631 
L 2766 1759 
L 2194 1759 
z
M 3341 1997 
L 3341 0 
L 2766 0 
L 2766 531 
Q 2569 213 2275 61 
Q 1981 -91 1556 -91 
Q 1019 -91 701 211 
Q 384 513 384 1019 
Q 384 1609 779 1909 
Q 1175 2209 1959 2209 
L 2766 2209 
L 2766 2266 
Q 2766 2663 2505 2880 
Q 2244 3097 1772 3097 
Q 1472 3097 1187 3025 
Q 903 2953 641 2809 
L 641 3341 
Q 956 3463 1253 3523 
Q 1550 3584 1831 3584 
Q 2591 3584 2966 3190 
Q 3341 2797 3341 1997 
z
" transform="scale(0.015625)"/>
      </defs>
      <use xlink:href="#DejaVuSans-4f"/>
      <use xlink:href="#DejaVuSans-72" x="78.710938"/>
      <use xlink:href="#DejaVuSans-69" x="119.824219"/>
      <use xlink:href="#DejaVuSans-67" x="147.607422"/>
      <use xlink:href="#DejaVuSans-69" x="211.083984"/>
      <use xlink:href="#DejaVuSans-6e" x="238.867188"/>
      <use xlink:href="#DejaVuSans-61" x="302.246094"/>
      <use xlink:href="#DejaVuSans-6c" x="363.525391"/>
     </g>
    </g>
    <g id="line2d_15">
     <path d="M 564.201563 62.336562 
L 574.201563 62.336562 
L 584.201563 62.336562 
" style="fill: none; stroke: #ff7f0e; stroke-width: 1.5; stroke-linecap: square"/>
    </g>
    <g id="text_15">
     <!-- Denoised -->
     <g transform="translate(592.201563 65.836562) scale(0.1 -0.1)">
      <defs>
       <path id="DejaVuSans-44" d="M 1259 4147 
L 1259 519 
L 2022 519 
Q 2988 519 3436 956 
Q 3884 1394 3884 2338 
Q 3884 3275 3436 3711 
Q 2988 4147 2022 4147 
L 1259 4147 
z
M 628 4666 
L 1925 4666 
Q 3281 4666 3915 4102 
Q 4550 3538 4550 2338 
Q 4550 1131 3912 565 
Q 3275 0 1925 0 
L 628 0 
L 628 4666 
z
" transform="scale(0.015625)"/>
       <path id="DejaVuSans-6f" d="M 1959 3097 
Q 1497 3097 1228 2736 
Q 959 2375 959 1747 
Q 959 1119 1226 758 
Q 1494 397 1959 397 
Q 2419 397 2687 759 
Q 2956 1122 2956 1747 
Q 2956 2369 2687 2733 
Q 2419 3097 1959 3097 
z
M 1959 3584 
Q 2709 3584 3137 3096 
Q 3566 2609 3566 1747 
Q 3566 888 3137 398 
Q 2709 -91 1959 -91 
Q 1206 -91 779 398 
Q 353 888 353 1747 
Q 353 2609 779 3096 
Q 1206 3584 1959 3584 
z
" transform="scale(0.015625)"/>
       <path id="DejaVuSans-64" d="M 2906 2969 
L 2906 4863 
L 3481 4863 
L 3481 0 
L 2906 0 
L 2906 525 
Q 2725 213 2448 61 
Q 2172 -91 1784 -91 
Q 1150 -91 751 415 
Q 353 922 353 1747 
Q 353 2572 751 3078 
Q 1150 3584 1784 3584 
Q 2172 3584 2448 3432 
Q 2725 3281 2906 2969 
z
M 947 1747 
Q 947 1113 1208 752 
Q 1469 391 1925 391 
Q 2381 391 2643 752 
Q 2906 1113 2906 1747 
Q 2906 2381 2643 2742 
Q 2381 3103 1925 3103 
Q 1469 3103 1208 2742 
Q 947 2381 947 1747 
z
" transform="scale(0.015625)"/>
      </defs>
      <use xlink:href="#DejaVuSans-44"/>
      <use xlink:href="#DejaVuSans-65" x="77.001953"/>
      <use xlink:href="#DejaVuSans-6e" x="138.525391"/>
      <use xlink:href="#DejaVuSans-6f" x="201.904297"/>
      <use xlink:href="#DejaVuSans-69" x="263.085938"/>
      <use xlink:href="#DejaVuSans-73" x="290.869141"/>
      <use xlink:href="#DejaVuSans-65" x="342.96875"/>
      <use xlink:href="#DejaVuSans-64" x="404.492188"/>
     </g>
    </g>
   </g>
  </g>
 </g>
 <defs>
  <clipPath id="p683739115f">
   <rect x="90" y="34.56" width="558" height="221.76"/>
  </clipPath>
 </defs>
</svg>
