<?xml version="1.0" encoding="utf-8" standalone="no"?>
<!DOCTYPE svg PUBLIC "-//W3C//DTD SVG 1.1//EN"
  "http://www.w3.org/Graphics/SVG/1.1/DTD/svg11.dtd">
<svg xmlns:xlink="http://www.w3.org/1999/xlink" width="288pt" height="648pt" viewBox="0 0 288 648" xmlns="http://www.w3.org/2000/svg" version="1.1">
 <metadata>
  <rdf:RDF xmlns:dc="http://purl.org/dc/elements/1.1/" xmlns:cc="http://creativecommons.org/ns#" xmlns:rdf="http://www.w3.org/1999/02/22-rdf-syntax-ns#">
   <cc:Work>
    <dc:type rdf:resource="http://purl.org/dc/dcmitype/StillImage"/>
    <dc:date>2023-11-18T15:18:16.660879</dc:date>
    <dc:format>image/svg+xml</dc:format>
    <dc:creator>
     <cc:Agent>
      <dc:title>Matplotlib v3.8.0, https://matplotlib.org/</dc:title>
     </cc:Agent>
    </dc:creator>
   </cc:Work>
  </rdf:RDF>
 </metadata>
 <defs>
  <style type="text/css">*{stroke-linejoin: round; stroke-linecap: butt}</style>
 </defs>
 <g id="figure_1">
  <g id="patch_1">
   <path d="M 0 648 
L 288 648 
L 288 0 
L 0 0 
z
" style="fill: #ffffff"/>
  </g>
  <g id="axes_1">
   <g id="patch_2">
    <path d="M 57.17 190.626667 
L 272.721328 190.626667 
L 272.721328 10.8 
L 57.17 10.8 
z
" style="fill: #ffffff"/>
   </g>
   <g id="PolyCollection_1">
    <defs>
     <path id="m5f983f45b4" d="M 57.17 -457.373333 
L 57.17 -457.373333 
L 58.011997 -457.373333 
L 58.853995 -457.373333 
L 59.695992 -457.373333 
L 60.53799 -457.373333 
L 61.379987 -457.373333 
L 62.221984 -457.373333 
L 63.063982 -457.373333 
L 63.905979 -457.373333 
L 64.747976 -457.373333 
L 65.589974 -457.373333 
L 66.431971 -457.373333 
L 67.273969 -457.373333 
L 68.115966 -457.373333 
L 68.957963 -457.373333 
L 69.799961 -457.373333 
L 70.641958 -457.373333 
L 71.483955 -457.373333 
L 72.325953 -457.373333 
L 73.16795 -457.373333 
L 74.009948 -457.373333 
L 74.851945 -457.373333 
L 75.693942 -457.373333 
L 76.53594 -457.373333 
L 77.377937 -457.373333 
L 78.219934 -457.373333 
L 79.061932 -457.373333 
L 79.903929 -457.373333 
L 80.745927 -457.373333 
L 81.587924 -457.373333 
L 82.429921 -457.373333 
L 83.271919 -457.373333 
L 84.113916 -457.373333 
L 84.955913 -457.373333 
L 85.797911 -457.373333 
L 86.639908 -457.373333 
L 87.481906 -457.373333 
L 88.323903 -457.373333 
L 89.1659 -457.373333 
L 90.007898 -457.373333 
L 90.849895 -457.373333 
L 91.691892 -457.373333 
L 92.53389 -457.373333 
L 93.375887 -457.373333 
L 94.217885 -457.373333 
L 95.059882 -457.373333 
L 95.901879 -457.373333 
L 96.743877 -457.373333 
L 97.585874 -457.373333 
L 98.427871 -457.373333 
L 99.269869 -457.373333 
L 100.111866 -457.373333 
L 100.953864 -457.373333 
L 101.795861 -457.373333 
L 102.637858 -457.373333 
L 103.479856 -457.373333 
L 104.321853 -457.373333 
L 105.16385 -457.373333 
L 106.005848 -457.373333 
L 106.847845 -457.373333 
L 107.689843 -457.541868 
L 108.53184 -457.541868 
L 109.373837 -457.79467 
L 110.215835 -457.963205 
L 111.057832 -458.047473 
L 111.899829 -459.817088 
L 112.741827 -462.429378 
L 113.583824 -464.536064 
L 114.425822 -465.378738 
L 115.267819 -476.0807 
L 116.109816 -492.849916 
L 116.951814 -513.24263 
L 117.793811 -545.348516 
L 118.635808 -552.932584 
L 119.477806 -549.477619 
L 120.319803 -534.056682 
L 121.161801 -528.91637 
L 122.003798 -529.843311 
L 122.845795 -522.090709 
L 123.687793 -513.158363 
L 124.52979 -506.838307 
L 125.371787 -504.984424 
L 126.213785 -497.905961 
L 127.055782 -496.979019 
L 127.89778 -497.737426 
L 128.739777 -497.484624 
L 129.581774 -495.040868 
L 130.423772 -494.788066 
L 131.265769 -492.934183 
L 132.107766 -491.164567 
L 132.949764 -490.827498 
L 133.791761 -489.900556 
L 134.633759 -490.406161 
L 135.475756 -484.844511 
L 136.317753 -484.760244 
L 137.159751 -481.30528 
L 138.001748 -480.883943 
L 138.843745 -477.766048 
L 139.685743 -476.502037 
L 140.52774 -477.934583 
L 141.369738 -474.816689 
L 142.211735 -478.187385 
L 143.053732 -478.01885 
L 143.89573 -476.333502 
L 144.737727 -475.575095 
L 145.579724 -474.732421 
L 146.421722 -475.575095 
L 147.263719 -473.974014 
L 148.105717 -474.226817 
L 148.947714 -473.721212 
L 149.789711 -476.502037 
L 150.631709 -472.962805 
L 151.473706 -472.710003 
L 152.315703 -473.13134 
L 153.157701 -475.490828 
L 153.999698 -472.035864 
L 154.841696 -474.226817 
L 155.683693 -471.445992 
L 156.52569 -474.479619 
L 157.367688 -472.962805 
L 158.209685 -474.395351 
L 159.051682 -472.288666 
L 159.89368 -476.0807 
L 160.735677 -469.592109 
L 161.577675 -472.120131 
L 162.419672 -472.288666 
L 163.261669 -472.288666 
L 164.103667 -471.614527 
L 164.945664 -473.047073 
L 165.787661 -472.794271 
L 166.629659 -472.625736 
L 167.471656 -473.299875 
L 168.313654 -473.636945 
L 169.155651 -474.226817 
L 169.997648 -473.047073 
L 170.839646 -474.226817 
L 171.681643 -471.783062 
L 172.52364 -473.384142 
L 173.365638 -471.783062 
L 174.207635 -472.962805 
L 175.049633 -472.288666 
L 175.89163 -472.372933 
L 176.733627 -472.457201 
L 177.575625 -473.552677 
L 178.417622 -472.372933 
L 179.259619 -473.047073 
L 180.101617 -472.288666 
L 180.943614 -471.698794 
L 181.785612 -473.299875 
L 182.627609 -471.614527 
L 183.469606 -474.900956 
L 184.311604 -472.878538 
L 185.153601 -471.783062 
L 185.995598 -472.878538 
L 186.837596 -471.614527 
L 187.679593 -473.636945 
L 188.521591 -472.288666 
L 189.363588 -474.648154 
L 190.205585 -472.962805 
L 191.047583 -471.783062 
L 191.88958 -473.974014 
L 192.731577 -474.226817 
L 193.573575 -472.962805 
L 194.415572 -474.058282 
L 195.25757 -474.311084 
L 196.099567 -472.541468 
L 196.941564 -471.867329 
L 197.783562 -472.794271 
L 198.625559 -472.372933 
L 199.467556 -473.299875 
L 200.309554 -473.46841 
L 201.151551 -473.889747 
L 201.993549 -475.322293 
L 202.835546 -473.047073 
L 203.677543 -472.541468 
L 204.519541 -472.541468 
L 205.361538 -472.625736 
L 206.203535 -472.962805 
L 207.045533 -473.299875 
L 207.88753 -472.204399 
L 208.729528 -473.552677 
L 209.571525 -471.108922 
L 210.413522 -473.384142 
L 211.25552 -472.288666 
L 212.097517 -472.035864 
L 212.939514 -471.783062 
L 213.781512 -472.204399 
L 214.623509 -474.226817 
L 215.465507 -472.204399 
L 216.307504 -472.120131 
L 217.149501 -472.878538 
L 217.991499 -470.771853 
L 218.833496 -471.361724 
L 219.675493 -471.614527 
L 220.517491 -471.024655 
L 221.359488 -469.929178 
L 222.201486 -471.951596 
L 223.043483 -472.710003 
L 223.88548 -474.479619 
L 224.727478 -470.940387 
L 225.569475 -471.783062 
L 226.411472 -471.19319 
L 227.25347 -472.288666 
L 228.095467 -471.108922 
L 228.937465 -472.120131 
L 229.779462 -472.372933 
L 230.621459 -471.024655 
L 231.463457 -471.024655 
L 232.305454 -471.783062 
L 233.147451 -471.951596 
L 233.989449 -471.867329 
L 234.831446 -470.603318 
L 235.673444 -473.215608 
L 236.515441 -473.215608 
L 237.357438 -472.710003 
L 238.199436 -472.204399 
L 239.041433 -470.940387 
L 239.88343 -472.457201 
L 240.725428 -472.625736 
L 241.567425 -470.85612 
L 242.409423 -473.047073 
L 243.25142 -473.46841 
L 244.093417 -469.844911 
L 244.935415 -471.783062 
L 245.777412 -472.962805 
L 246.619409 -473.552677 
L 247.461407 -474.311084 
L 248.303404 -471.698794 
L 249.145402 -472.962805 
L 249.987399 -474.985223 
L 250.829396 -473.047073 
L 251.671394 -474.395351 
L 252.513391 -473.299875 
L 253.355388 -477.766048 
L 254.197386 -475.40656 
L 255.039383 -475.996432 
L 255.881381 -476.670572 
L 256.723378 -476.670572 
L 257.565375 -474.311084 
L 258.407373 -478.01885 
L 259.24937 -477.513246 
L 260.091367 -475.659363 
L 260.933365 -479.704199 
L 261.775362 -479.282862 
L 262.61736 -481.052477 
L 263.459357 -479.957001 
L 264.301354 -482.147954 
L 265.143352 -484.338907 
L 265.985349 -489.226417 
L 266.827346 -487.456801 
L 267.669344 -490.827498 
L 268.511341 -494.619531 
L 269.353339 -499.254239 
L 270.195336 -505.995633 
L 271.037333 -524.113127 
L 271.879331 -600.796476 
L 271.879331 -457.373333 
L 271.879331 -457.373333 
L 271.037333 -457.373333 
L 270.195336 -457.373333 
L 269.353339 -457.373333 
L 268.511341 -457.373333 
L 267.669344 -457.373333 
L 266.827346 -457.373333 
L 265.985349 -457.373333 
L 265.143352 -457.373333 
L 264.301354 -457.373333 
L 263.459357 -457.373333 
L 262.61736 -457.373333 
L 261.775362 -457.373333 
L 260.933365 -457.373333 
L 260.091367 -457.373333 
L 259.24937 -457.373333 
L 258.407373 -457.373333 
L 257.565375 -457.373333 
L 256.723378 -457.373333 
L 255.881381 -457.373333 
L 255.039383 -457.373333 
L 254.197386 -457.373333 
L 253.355388 -457.373333 
L 252.513391 -457.373333 
L 251.671394 -457.373333 
L 250.829396 -457.373333 
L 249.987399 -457.373333 
L 249.145402 -457.373333 
L 248.303404 -457.373333 
L 247.461407 -457.373333 
L 246.619409 -457.373333 
L 245.777412 -457.373333 
L 244.935415 -457.373333 
L 244.093417 -457.373333 
L 243.25142 -457.373333 
L 242.409423 -457.373333 
L 241.567425 -457.373333 
L 240.725428 -457.373333 
L 239.88343 -457.373333 
L 239.041433 -457.373333 
L 238.199436 -457.373333 
L 237.357438 -457.373333 
L 236.515441 -457.373333 
L 235.673444 -457.373333 
L 234.831446 -457.373333 
L 233.989449 -457.373333 
L 233.147451 -457.373333 
L 232.305454 -457.373333 
L 231.463457 -457.373333 
L 230.621459 -457.373333 
L 229.779462 -457.373333 
L 228.937465 -457.373333 
L 228.095467 -457.373333 
L 227.25347 -457.373333 
L 226.411472 -457.373333 
L 225.569475 -457.373333 
L 224.727478 -457.373333 
L 223.88548 -457.373333 
L 223.043483 -457.373333 
L 222.201486 -457.373333 
L 221.359488 -457.373333 
L 220.517491 -457.373333 
L 219.675493 -457.373333 
L 218.833496 -457.373333 
L 217.991499 -457.373333 
L 217.149501 -457.373333 
L 216.307504 -457.373333 
L 215.465507 -457.373333 
L 214.623509 -457.373333 
L 213.781512 -457.373333 
L 212.939514 -457.373333 
L 212.097517 -457.373333 
L 211.25552 -457.373333 
L 210.413522 -457.373333 
L 209.571525 -457.373333 
L 208.729528 -457.373333 
L 207.88753 -457.373333 
L 207.045533 -457.373333 
L 206.203535 -457.373333 
L 205.361538 -457.373333 
L 204.519541 -457.373333 
L 203.677543 -457.373333 
L 202.835546 -457.373333 
L 201.993549 -457.373333 
L 201.151551 -457.373333 
L 200.309554 -457.373333 
L 199.467556 -457.373333 
L 198.625559 -457.373333 
L 197.783562 -457.373333 
L 196.941564 -457.373333 
L 196.099567 -457.373333 
L 195.25757 -457.373333 
L 194.415572 -457.373333 
L 193.573575 -457.373333 
L 192.731577 -457.373333 
L 191.88958 -457.373333 
L 191.047583 -457.373333 
L 190.205585 -457.373333 
L 189.363588 -457.373333 
L 188.521591 -457.373333 
L 187.679593 -457.373333 
L 186.837596 -457.373333 
L 185.995598 -457.373333 
L 185.153601 -457.373333 
L 184.311604 -457.373333 
L 183.469606 -457.373333 
L 182.627609 -457.373333 
L 181.785612 -457.373333 
L 180.943614 -457.373333 
L 180.101617 -457.373333 
L 179.259619 -457.373333 
L 178.417622 -457.373333 
L 177.575625 -457.373333 
L 176.733627 -457.373333 
L 175.89163 -457.373333 
L 175.049633 -457.373333 
L 174.207635 -457.373333 
L 173.365638 -457.373333 
L 172.52364 -457.373333 
L 171.681643 -457.373333 
L 170.839646 -457.373333 
L 169.997648 -457.373333 
L 169.155651 -457.373333 
L 168.313654 -457.373333 
L 167.471656 -457.373333 
L 166.629659 -457.373333 
L 165.787661 -457.373333 
L 164.945664 -457.373333 
L 164.103667 -457.373333 
L 163.261669 -457.373333 
L 162.419672 -457.373333 
L 161.577675 -457.373333 
L 160.735677 -457.373333 
L 159.89368 -457.373333 
L 159.051682 -457.373333 
L 158.209685 -457.373333 
L 157.367688 -457.373333 
L 156.52569 -457.373333 
L 155.683693 -457.373333 
L 154.841696 -457.373333 
L 153.999698 -457.373333 
L 153.157701 -457.373333 
L 152.315703 -457.373333 
L 151.473706 -457.373333 
L 150.631709 -457.373333 
L 149.789711 -457.373333 
L 148.947714 -457.373333 
L 148.105717 -457.373333 
L 147.263719 -457.373333 
L 146.421722 -457.373333 
L 145.579724 -457.373333 
L 144.737727 -457.373333 
L 143.89573 -457.373333 
L 143.053732 -457.373333 
L 142.211735 -457.373333 
L 141.369738 -457.373333 
L 140.52774 -457.373333 
L 139.685743 -457.373333 
L 138.843745 -457.373333 
L 138.001748 -457.373333 
L 137.159751 -457.373333 
L 136.317753 -457.373333 
L 135.475756 -457.373333 
L 134.633759 -457.373333 
L 133.791761 -457.373333 
L 132.949764 -457.373333 
L 132.107766 -457.373333 
L 131.265769 -457.373333 
L 130.423772 -457.373333 
L 129.581774 -457.373333 
L 128.739777 -457.373333 
L 127.89778 -457.373333 
L 127.055782 -457.373333 
L 126.213785 -457.373333 
L 125.371787 -457.373333 
L 124.52979 -457.373333 
L 123.687793 -457.373333 
L 122.845795 -457.373333 
L 122.003798 -457.373333 
L 121.161801 -457.373333 
L 120.319803 -457.373333 
L 119.477806 -457.373333 
L 118.635808 -457.373333 
L 117.793811 -457.373333 
L 116.951814 -457.373333 
L 116.109816 -457.373333 
L 115.267819 -457.373333 
L 114.425822 -457.373333 
L 113.583824 -457.373333 
L 112.741827 -457.373333 
L 111.899829 -457.373333 
L 111.057832 -457.373333 
L 110.215835 -457.373333 
L 109.373837 -457.373333 
L 108.53184 -457.373333 
L 107.689843 -457.373333 
L 106.847845 -457.373333 
L 106.005848 -457.373333 
L 105.16385 -457.373333 
L 104.321853 -457.373333 
L 103.479856 -457.373333 
L 102.637858 -457.373333 
L 101.795861 -457.373333 
L 100.953864 -457.373333 
L 100.111866 -457.373333 
L 99.269869 -457.373333 
L 98.427871 -457.373333 
L 97.585874 -457.373333 
L 96.743877 -457.373333 
L 95.901879 -457.373333 
L 95.059882 -457.373333 
L 94.217885 -457.373333 
L 93.375887 -457.373333 
L 92.53389 -457.373333 
L 91.691892 -457.373333 
L 90.849895 -457.373333 
L 90.007898 -457.373333 
L 89.1659 -457.373333 
L 88.323903 -457.373333 
L 87.481906 -457.373333 
L 86.639908 -457.373333 
L 85.797911 -457.373333 
L 84.955913 -457.373333 
L 84.113916 -457.373333 
L 83.271919 -457.373333 
L 82.429921 -457.373333 
L 81.587924 -457.373333 
L 80.745927 -457.373333 
L 79.903929 -457.373333 
L 79.061932 -457.373333 
L 78.219934 -457.373333 
L 77.377937 -457.373333 
L 76.53594 -457.373333 
L 75.693942 -457.373333 
L 74.851945 -457.373333 
L 74.009948 -457.373333 
L 73.16795 -457.373333 
L 72.325953 -457.373333 
L 71.483955 -457.373333 
L 70.641958 -457.373333 
L 69.799961 -457.373333 
L 68.957963 -457.373333 
L 68.115966 -457.373333 
L 67.273969 -457.373333 
L 66.431971 -457.373333 
L 65.589974 -457.373333 
L 64.747976 -457.373333 
L 63.905979 -457.373333 
L 63.063982 -457.373333 
L 62.221984 -457.373333 
L 61.379987 -457.373333 
L 60.53799 -457.373333 
L 59.695992 -457.373333 
L 58.853995 -457.373333 
L 58.011997 -457.373333 
L 57.17 -457.373333 
z
" style="stroke: #ff0000; stroke-opacity: 0.4"/>
    </defs>
    <g clip-path="url(#p6aa91fde3f)">
     <use xlink:href="#m5f983f45b4" x="0" y="648" style="fill: #ff0000; fill-opacity: 0.4; stroke: #ff0000; stroke-opacity: 0.4"/>
    </g>
   </g>
   <g id="matplotlib.axis_1">
    <g id="xtick_1">
     <g id="line2d_1">
      <defs>
       <path id="m0333e4dc9e" d="M 0 0 
L 0 3.5 
" style="stroke: #000000; stroke-width: 0.8"/>
      </defs>
      <g>
       <use xlink:href="#m0333e4dc9e" x="57.17" y="190.626667" style="stroke: #000000; stroke-width: 0.8"/>
      </g>
     </g>
     <g id="text_1">
      <!-- 0 -->
      <g transform="translate(53.98875 205.225104) scale(0.1 -0.1)">
       <defs>
        <path id="DejaVuSans-30" d="M 2034 4250 
Q 1547 4250 1301 3770 
Q 1056 3291 1056 2328 
Q 1056 1369 1301 889 
Q 1547 409 2034 409 
Q 2525 409 2770 889 
Q 3016 1369 3016 2328 
Q 3016 3291 2770 3770 
Q 2525 4250 2034 4250 
z
M 2034 4750 
Q 2819 4750 3233 4129 
Q 3647 3509 3647 2328 
Q 3647 1150 3233 529 
Q 2819 -91 2034 -91 
Q 1250 -91 836 529 
Q 422 1150 422 2328 
Q 422 3509 836 4129 
Q 1250 4750 2034 4750 
z
" transform="scale(0.015625)"/>
       </defs>
       <use xlink:href="#DejaVuSans-30"/>
      </g>
     </g>
    </g>
    <g id="xtick_2">
     <g id="line2d_2">
      <g>
       <use xlink:href="#m0333e4dc9e" x="99.269869" y="190.626667" style="stroke: #000000; stroke-width: 0.8"/>
      </g>
     </g>
     <g id="text_2">
      <!-- 50 -->
      <g transform="translate(92.907369 205.225104) scale(0.1 -0.1)">
       <defs>
        <path id="DejaVuSans-35" d="M 691 4666 
L 3169 4666 
L 3169 4134 
L 1269 4134 
L 1269 2991 
Q 1406 3038 1543 3061 
Q 1681 3084 1819 3084 
Q 2600 3084 3056 2656 
Q 3513 2228 3513 1497 
Q 3513 744 3044 326 
Q 2575 -91 1722 -91 
Q 1428 -91 1123 -41 
Q 819 9 494 109 
L 494 744 
Q 775 591 1075 516 
Q 1375 441 1709 441 
Q 2250 441 2565 725 
Q 2881 1009 2881 1497 
Q 2881 1984 2565 2268 
Q 2250 2553 1709 2553 
Q 1456 2553 1204 2497 
Q 953 2441 691 2322 
L 691 4666 
z
" transform="scale(0.015625)"/>
       </defs>
       <use xlink:href="#DejaVuSans-35"/>
       <use xlink:href="#DejaVuSans-30" x="63.623047"/>
      </g>
     </g>
    </g>
    <g id="xtick_3">
     <g id="line2d_3">
      <g>
       <use xlink:href="#m0333e4dc9e" x="141.369738" y="190.626667" style="stroke: #000000; stroke-width: 0.8"/>
      </g>
     </g>
     <g id="text_3">
      <!-- 100 -->
      <g transform="translate(131.825988 205.225104) scale(0.1 -0.1)">
       <defs>
        <path id="DejaVuSans-31" d="M 794 531 
L 1825 531 
L 1825 4091 
L 703 3866 
L 703 4441 
L 1819 4666 
L 2450 4666 
L 2450 531 
L 3481 531 
L 3481 0 
L 794 0 
L 794 531 
z
" transform="scale(0.015625)"/>
       </defs>
       <use xlink:href="#DejaVuSans-31"/>
       <use xlink:href="#DejaVuSans-30" x="63.623047"/>
       <use xlink:href="#DejaVuSans-30" x="127.246094"/>
      </g>
     </g>
    </g>
    <g id="xtick_4">
     <g id="line2d_4">
      <g>
       <use xlink:href="#m0333e4dc9e" x="183.469606" y="190.626667" style="stroke: #000000; stroke-width: 0.8"/>
      </g>
     </g>
     <g id="text_4">
      <!-- 150 -->
      <g transform="translate(173.925856 205.225104) scale(0.1 -0.1)">
       <use xlink:href="#DejaVuSans-31"/>
       <use xlink:href="#DejaVuSans-35" x="63.623047"/>
       <use xlink:href="#DejaVuSans-30" x="127.246094"/>
      </g>
     </g>
    </g>
    <g id="xtick_5">
     <g id="line2d_5">
      <g>
       <use xlink:href="#m0333e4dc9e" x="225.569475" y="190.626667" style="stroke: #000000; stroke-width: 0.8"/>
      </g>
     </g>
     <g id="text_5">
      <!-- 200 -->
      <g transform="translate(216.025725 205.225104) scale(0.1 -0.1)">
       <defs>
        <path id="DejaVuSans-32" d="M 1228 531 
L 3431 531 
L 3431 0 
L 469 0 
L 469 531 
Q 828 903 1448 1529 
Q 2069 2156 2228 2338 
Q 2531 2678 2651 2914 
Q 2772 3150 2772 3378 
Q 2772 3750 2511 3984 
Q 2250 4219 1831 4219 
Q 1534 4219 1204 4116 
Q 875 4013 500 3803 
L 500 4441 
Q 881 4594 1212 4672 
Q 1544 4750 1819 4750 
Q 2544 4750 2975 4387 
Q 3406 4025 3406 3419 
Q 3406 3131 3298 2873 
Q 3191 2616 2906 2266 
Q 2828 2175 2409 1742 
Q 1991 1309 1228 531 
z
" transform="scale(0.015625)"/>
       </defs>
       <use xlink:href="#DejaVuSans-32"/>
       <use xlink:href="#DejaVuSans-30" x="63.623047"/>
       <use xlink:href="#DejaVuSans-30" x="127.246094"/>
      </g>
     </g>
    </g>
    <g id="xtick_6">
     <g id="line2d_6">
      <g>
       <use xlink:href="#m0333e4dc9e" x="267.669344" y="190.626667" style="stroke: #000000; stroke-width: 0.8"/>
      </g>
     </g>
     <g id="text_6">
      <!-- 250 -->
      <g transform="translate(258.125594 205.225104) scale(0.1 -0.1)">
       <use xlink:href="#DejaVuSans-32"/>
       <use xlink:href="#DejaVuSans-35" x="63.623047"/>
       <use xlink:href="#DejaVuSans-30" x="127.246094"/>
      </g>
     </g>
    </g>
   </g>
   <g id="matplotlib.axis_2">
    <g id="ytick_1">
     <g id="line2d_7">
      <defs>
       <path id="mef0313f9fd" d="M 0 0 
L -3.5 0 
" style="stroke: #000000; stroke-width: 0.8"/>
      </defs>
      <g>
       <use xlink:href="#mef0313f9fd" x="57.17" y="190.626667" style="stroke: #000000; stroke-width: 0.8"/>
      </g>
     </g>
     <g id="text_7">
      <!-- 0 -->
      <g transform="translate(43.8075 194.425885) scale(0.1 -0.1)">
       <use xlink:href="#DejaVuSans-30"/>
      </g>
     </g>
    </g>
    <g id="ytick_2">
     <g id="line2d_8">
      <g>
       <use xlink:href="#mef0313f9fd" x="57.17" y="148.492958" style="stroke: #000000; stroke-width: 0.8"/>
      </g>
     </g>
     <g id="text_8">
      <!-- 500 -->
      <g transform="translate(31.0825 152.292177) scale(0.1 -0.1)">
       <use xlink:href="#DejaVuSans-35"/>
       <use xlink:href="#DejaVuSans-30" x="63.623047"/>
       <use xlink:href="#DejaVuSans-30" x="127.246094"/>
      </g>
     </g>
    </g>
    <g id="ytick_3">
     <g id="line2d_9">
      <g>
       <use xlink:href="#mef0313f9fd" x="57.17" y="106.35925" style="stroke: #000000; stroke-width: 0.8"/>
      </g>
     </g>
     <g id="text_9">
      <!-- 1000 -->
      <g transform="translate(24.72 110.158469) scale(0.1 -0.1)">
       <use xlink:href="#DejaVuSans-31"/>
       <use xlink:href="#DejaVuSans-30" x="63.623047"/>
       <use xlink:href="#DejaVuSans-30" x="127.246094"/>
       <use xlink:href="#DejaVuSans-30" x="190.869141"/>
      </g>
     </g>
    </g>
    <g id="ytick_4">
     <g id="line2d_10">
      <g>
       <use xlink:href="#mef0313f9fd" x="57.17" y="64.225542" style="stroke: #000000; stroke-width: 0.8"/>
      </g>
     </g>
     <g id="text_10">
      <!-- 1500 -->
      <g transform="translate(24.72 68.024761) scale(0.1 -0.1)">
       <use xlink:href="#DejaVuSans-31"/>
       <use xlink:href="#DejaVuSans-35" x="63.623047"/>
       <use xlink:href="#DejaVuSans-30" x="127.246094"/>
       <use xlink:href="#DejaVuSans-30" x="190.869141"/>
      </g>
     </g>
    </g>
    <g id="ytick_5">
     <g id="line2d_11">
      <g>
       <use xlink:href="#mef0313f9fd" x="57.17" y="22.091834" style="stroke: #000000; stroke-width: 0.8"/>
      </g>
     </g>
     <g id="text_11">
      <!-- 2000 -->
      <g transform="translate(24.72 25.891053) scale(0.1 -0.1)">
       <use xlink:href="#DejaVuSans-32"/>
       <use xlink:href="#DejaVuSans-30" x="63.623047"/>
       <use xlink:href="#DejaVuSans-30" x="127.246094"/>
       <use xlink:href="#DejaVuSans-30" x="190.869141"/>
      </g>
     </g>
    </g>
    <g id="text_12">
     <!-- Pixel Frequency -->
     <g transform="translate(18.640313 139.69224) rotate(-90) scale(0.1 -0.1)">
      <defs>
       <path id="DejaVuSans-50" d="M 1259 4147 
L 1259 2394 
L 2053 2394 
Q 2494 2394 2734 2622 
Q 2975 2850 2975 3272 
Q 2975 3691 2734 3919 
Q 2494 4147 2053 4147 
L 1259 4147 
z
M 628 4666 
L 2053 4666 
Q 2838 4666 3239 4311 
Q 3641 3956 3641 3272 
Q 3641 2581 3239 2228 
Q 2838 1875 2053 1875 
L 1259 1875 
L 1259 0 
L 628 0 
L 628 4666 
z
" transform="scale(0.015625)"/>
       <path id="DejaVuSans-69" d="M 603 3500 
L 1178 3500 
L 1178 0 
L 603 0 
L 603 3500 
z
M 603 4863 
L 1178 4863 
L 1178 4134 
L 603 4134 
L 603 4863 
z
" transform="scale(0.015625)"/>
       <path id="DejaVuSans-78" d="M 3513 3500 
L 2247 1797 
L 3578 0 
L 2900 0 
L 1881 1375 
L 863 0 
L 184 0 
L 1544 1831 
L 300 3500 
L 978 3500 
L 1906 2253 
L 2834 3500 
L 3513 3500 
z
" transform="scale(0.015625)"/>
       <path id="DejaVuSans-65" d="M 3597 1894 
L 3597 1613 
L 953 1613 
Q 991 1019 1311 708 
Q 1631 397 2203 397 
Q 2534 397 2845 478 
Q 3156 559 3463 722 
L 3463 178 
Q 3153 47 2828 -22 
Q 2503 -91 2169 -91 
Q 1331 -91 842 396 
Q 353 884 353 1716 
Q 353 2575 817 3079 
Q 1281 3584 2069 3584 
Q 2775 3584 3186 3129 
Q 3597 2675 3597 1894 
z
M 3022 2063 
Q 3016 2534 2758 2815 
Q 2500 3097 2075 3097 
Q 1594 3097 1305 2825 
Q 1016 2553 972 2059 
L 3022 2063 
z
" transform="scale(0.015625)"/>
       <path id="DejaVuSans-6c" d="M 603 4863 
L 1178 4863 
L 1178 0 
L 603 0 
L 603 4863 
z
" transform="scale(0.015625)"/>
       <path id="DejaVuSans-20" transform="scale(0.015625)"/>
       <path id="DejaVuSans-46" d="M 628 4666 
L 3309 4666 
L 3309 4134 
L 1259 4134 
L 1259 2759 
L 3109 2759 
L 3109 2228 
L 1259 2228 
L 1259 0 
L 628 0 
L 628 4666 
z
" transform="scale(0.015625)"/>
       <path id="DejaVuSans-72" d="M 2631 2963 
Q 2534 3019 2420 3045 
Q 2306 3072 2169 3072 
Q 1681 3072 1420 2755 
Q 1159 2438 1159 1844 
L 1159 0 
L 581 0 
L 581 3500 
L 1159 3500 
L 1159 2956 
Q 1341 3275 1631 3429 
Q 1922 3584 2338 3584 
Q 2397 3584 2469 3576 
Q 2541 3569 2628 3553 
L 2631 2963 
z
" transform="scale(0.015625)"/>
       <path id="DejaVuSans-71" d="M 947 1747 
Q 947 1113 1208 752 
Q 1469 391 1925 391 
Q 2381 391 2643 752 
Q 2906 1113 2906 1747 
Q 2906 2381 2643 2742 
Q 2381 3103 1925 3103 
Q 1469 3103 1208 2742 
Q 947 2381 947 1747 
z
M 2906 525 
Q 2725 213 2448 61 
Q 2172 -91 1784 -91 
Q 1150 -91 751 415 
Q 353 922 353 1747 
Q 353 2572 751 3078 
Q 1150 3584 1784 3584 
Q 2172 3584 2448 3432 
Q 2725 3281 2906 2969 
L 2906 3500 
L 3481 3500 
L 3481 -1331 
L 2906 -1331 
L 2906 525 
z
" transform="scale(0.015625)"/>
       <path id="DejaVuSans-75" d="M 544 1381 
L 544 3500 
L 1119 3500 
L 1119 1403 
Q 1119 906 1312 657 
Q 1506 409 1894 409 
Q 2359 409 2629 706 
Q 2900 1003 2900 1516 
L 2900 3500 
L 3475 3500 
L 3475 0 
L 2900 0 
L 2900 538 
Q 2691 219 2414 64 
Q 2138 -91 1772 -91 
Q 1169 -91 856 284 
Q 544 659 544 1381 
z
M 1991 3584 
L 1991 3584 
z
" transform="scale(0.015625)"/>
       <path id="DejaVuSans-6e" d="M 3513 2113 
L 3513 0 
L 2938 0 
L 2938 2094 
Q 2938 2591 2744 2837 
Q 2550 3084 2163 3084 
Q 1697 3084 1428 2787 
Q 1159 2491 1159 1978 
L 1159 0 
L 581 0 
L 581 3500 
L 1159 3500 
L 1159 2956 
Q 1366 3272 1645 3428 
Q 1925 3584 2291 3584 
Q 2894 3584 3203 3211 
Q 3513 2838 3513 2113 
z
" transform="scale(0.015625)"/>
       <path id="DejaVuSans-63" d="M 3122 3366 
L 3122 2828 
Q 2878 2963 2633 3030 
Q 2388 3097 2138 3097 
Q 1578 3097 1268 2742 
Q 959 2388 959 1747 
Q 959 1106 1268 751 
Q 1578 397 2138 397 
Q 2388 397 2633 464 
Q 2878 531 3122 666 
L 3122 134 
Q 2881 22 2623 -34 
Q 2366 -91 2075 -91 
Q 1284 -91 818 406 
Q 353 903 353 1747 
Q 353 2603 823 3093 
Q 1294 3584 2113 3584 
Q 2378 3584 2631 3529 
Q 2884 3475 3122 3366 
z
" transform="scale(0.015625)"/>
       <path id="DejaVuSans-79" d="M 2059 -325 
Q 1816 -950 1584 -1140 
Q 1353 -1331 966 -1331 
L 506 -1331 
L 506 -850 
L 844 -850 
Q 1081 -850 1212 -737 
Q 1344 -625 1503 -206 
L 1606 56 
L 191 3500 
L 800 3500 
L 1894 763 
L 2988 3500 
L 3597 3500 
L 2059 -325 
z
" transform="scale(0.015625)"/>
      </defs>
      <use xlink:href="#DejaVuSans-50"/>
      <use xlink:href="#DejaVuSans-69" x="58.052734"/>
      <use xlink:href="#DejaVuSans-78" x="85.835938"/>
      <use xlink:href="#DejaVuSans-65" x="141.890625"/>
      <use xlink:href="#DejaVuSans-6c" x="203.414062"/>
      <use xlink:href="#DejaVuSans-20" x="231.197266"/>
      <use xlink:href="#DejaVuSans-46" x="262.984375"/>
      <use xlink:href="#DejaVuSans-72" x="313.253906"/>
      <use xlink:href="#DejaVuSans-65" x="352.117188"/>
      <use xlink:href="#DejaVuSans-71" x="413.640625"/>
      <use xlink:href="#DejaVuSans-75" x="477.117188"/>
      <use xlink:href="#DejaVuSans-65" x="540.496094"/>
      <use xlink:href="#DejaVuSans-6e" x="602.019531"/>
      <use xlink:href="#DejaVuSans-63" x="665.398438"/>
      <use xlink:href="#DejaVuSans-79" x="720.378906"/>
     </g>
    </g>
   </g>
   <g id="line2d_12">
    <path d="M 57.17 190.626667 
L 106.847845 190.626667 
L 107.689843 190.458132 
L 108.53184 190.458132 
L 110.215835 190.036795 
L 111.057832 189.952527 
L 111.899829 188.182912 
L 112.741827 185.570622 
L 113.583824 183.463936 
L 114.425822 182.621262 
L 115.267819 171.9193 
L 116.109816 155.150084 
L 116.951814 134.75737 
L 117.793811 102.651484 
L 118.635808 95.067416 
L 119.477806 98.522381 
L 120.319803 113.943318 
L 121.161801 119.08363 
L 122.003798 118.156689 
L 122.845795 125.909291 
L 123.687793 134.841637 
L 124.52979 141.161693 
L 125.371787 143.015576 
L 126.213785 150.094039 
L 127.055782 151.020981 
L 127.89778 150.262574 
L 128.739777 150.515376 
L 129.581774 152.959132 
L 130.423772 153.211934 
L 132.107766 156.835433 
L 132.949764 157.172502 
L 133.791761 158.099444 
L 134.633759 157.593839 
L 135.475756 163.155489 
L 136.317753 163.239756 
L 137.159751 166.69472 
L 138.001748 167.116057 
L 138.843745 170.233952 
L 139.685743 171.497963 
L 140.52774 170.065417 
L 141.369738 173.183311 
L 142.211735 169.812615 
L 143.053732 169.98115 
L 143.89573 171.666498 
L 145.579724 173.267579 
L 146.421722 172.424905 
L 147.263719 174.025986 
L 148.105717 173.773183 
L 148.947714 174.278788 
L 149.789711 171.497963 
L 150.631709 175.037195 
L 151.473706 175.289997 
L 152.315703 174.86866 
L 153.157701 172.509172 
L 153.999698 175.964136 
L 154.841696 173.773183 
L 155.683693 176.554008 
L 156.52569 173.520381 
L 157.367688 175.037195 
L 158.209685 173.604649 
L 159.051682 175.711334 
L 159.89368 171.9193 
L 160.735677 178.407891 
L 161.577675 175.879869 
L 162.419672 175.711334 
L 163.261669 175.711334 
L 164.103667 176.385473 
L 164.945664 174.952927 
L 166.629659 175.374264 
L 167.471656 174.700125 
L 168.313654 174.363055 
L 169.155651 173.773183 
L 169.997648 174.952927 
L 170.839646 173.773183 
L 171.681643 176.216938 
L 172.52364 174.615858 
L 173.365638 176.216938 
L 174.207635 175.037195 
L 175.049633 175.711334 
L 176.733627 175.542799 
L 177.575625 174.447323 
L 178.417622 175.627067 
L 179.259619 174.952927 
L 180.101617 175.711334 
L 180.943614 176.301206 
L 181.785612 174.700125 
L 182.627609 176.385473 
L 183.469606 173.099044 
L 184.311604 175.121462 
L 185.153601 176.216938 
L 185.995598 175.121462 
L 186.837596 176.385473 
L 187.679593 174.363055 
L 188.521591 175.711334 
L 189.363588 173.351846 
L 190.205585 175.037195 
L 191.047583 176.216938 
L 191.88958 174.025986 
L 192.731577 173.773183 
L 193.573575 175.037195 
L 194.415572 173.941718 
L 195.25757 173.688916 
L 196.099567 175.458532 
L 196.941564 176.132671 
L 197.783562 175.205729 
L 198.625559 175.627067 
L 199.467556 174.700125 
L 200.309554 174.53159 
L 201.151551 174.110253 
L 201.993549 172.677707 
L 202.835546 174.952927 
L 203.677543 175.458532 
L 205.361538 175.374264 
L 207.045533 174.700125 
L 207.88753 175.795601 
L 208.729528 174.447323 
L 209.571525 176.891078 
L 210.413522 174.615858 
L 211.25552 175.711334 
L 212.939514 176.216938 
L 213.781512 175.795601 
L 214.623509 173.773183 
L 215.465507 175.795601 
L 216.307504 175.879869 
L 217.149501 175.121462 
L 217.991499 177.228147 
L 218.833496 176.638276 
L 219.675493 176.385473 
L 220.517491 176.975345 
L 221.359488 178.070822 
L 222.201486 176.048404 
L 223.043483 175.289997 
L 223.88548 173.520381 
L 224.727478 177.059613 
L 225.569475 176.216938 
L 226.411472 176.80681 
L 227.25347 175.711334 
L 228.095467 176.891078 
L 228.937465 175.879869 
L 229.779462 175.627067 
L 230.621459 176.975345 
L 231.463457 176.975345 
L 232.305454 176.216938 
L 233.147451 176.048404 
L 233.989449 176.132671 
L 234.831446 177.396682 
L 235.673444 174.784392 
L 236.515441 174.784392 
L 238.199436 175.795601 
L 239.041433 177.059613 
L 239.88343 175.542799 
L 240.725428 175.374264 
L 241.567425 177.14388 
L 242.409423 174.952927 
L 243.25142 174.53159 
L 244.093417 178.155089 
L 244.935415 176.216938 
L 245.777412 175.037195 
L 246.619409 174.447323 
L 247.461407 173.688916 
L 248.303404 176.301206 
L 249.145402 175.037195 
L 249.987399 173.014777 
L 250.829396 174.952927 
L 251.671394 173.604649 
L 252.513391 174.700125 
L 253.355388 170.233952 
L 254.197386 172.59344 
L 255.881381 171.329428 
L 256.723378 171.329428 
L 257.565375 173.688916 
L 258.407373 169.98115 
L 259.24937 170.486754 
L 260.091367 172.340637 
L 260.933365 168.295801 
L 261.775362 168.717138 
L 262.61736 166.947523 
L 263.459357 168.042999 
L 265.143352 163.661093 
L 265.985349 158.773583 
L 266.827346 160.543199 
L 268.511341 153.380469 
L 269.353339 148.745761 
L 270.195336 142.004367 
L 271.037333 123.886873 
L 271.879331 47.203524 
L 271.879331 47.203524 
" clip-path="url(#p6aa91fde3f)" style="fill: none; stroke: #ff0000; stroke-width: 1.5; stroke-linecap: square"/>
   </g>
   <g id="patch_3">
    <path d="M 57.17 190.626667 
L 57.17 10.8 
" style="fill: none; stroke: #000000; stroke-width: 0.8; stroke-linejoin: miter; stroke-linecap: square"/>
   </g>
   <g id="patch_4">
    <path d="M 272.721328 190.626667 
L 272.721328 10.8 
" style="fill: none; stroke: #000000; stroke-width: 0.8; stroke-linejoin: miter; stroke-linecap: square"/>
   </g>
   <g id="patch_5">
    <path d="M 57.17 190.626667 
L 272.721328 190.626667 
" style="fill: none; stroke: #000000; stroke-width: 0.8; stroke-linejoin: miter; stroke-linecap: square"/>
   </g>
   <g id="patch_6">
    <path d="M 57.17 10.8 
L 272.721328 10.8 
" style="fill: none; stroke: #000000; stroke-width: 0.8; stroke-linejoin: miter; stroke-linecap: square"/>
   </g>
   <g id="text_13">
    <!-- Red Channel  -->
    <g transform="translate(193.028203 24.8) scale(0.12 -0.12)">
     <defs>
      <path id="DejaVuSans-52" d="M 2841 2188 
Q 3044 2119 3236 1894 
Q 3428 1669 3622 1275 
L 4263 0 
L 3584 0 
L 2988 1197 
Q 2756 1666 2539 1819 
Q 2322 1972 1947 1972 
L 1259 1972 
L 1259 0 
L 628 0 
L 628 4666 
L 2053 4666 
Q 2853 4666 3247 4331 
Q 3641 3997 3641 3322 
Q 3641 2881 3436 2590 
Q 3231 2300 2841 2188 
z
M 1259 4147 
L 1259 2491 
L 2053 2491 
Q 2509 2491 2742 2702 
Q 2975 2913 2975 3322 
Q 2975 3731 2742 3939 
Q 2509 4147 2053 4147 
L 1259 4147 
z
" transform="scale(0.015625)"/>
      <path id="DejaVuSans-64" d="M 2906 2969 
L 2906 4863 
L 3481 4863 
L 3481 0 
L 2906 0 
L 2906 525 
Q 2725 213 2448 61 
Q 2172 -91 1784 -91 
Q 1150 -91 751 415 
Q 353 922 353 1747 
Q 353 2572 751 3078 
Q 1150 3584 1784 3584 
Q 2172 3584 2448 3432 
Q 2725 3281 2906 2969 
z
M 947 1747 
Q 947 1113 1208 752 
Q 1469 391 1925 391 
Q 2381 391 2643 752 
Q 2906 1113 2906 1747 
Q 2906 2381 2643 2742 
Q 2381 3103 1925 3103 
Q 1469 3103 1208 2742 
Q 947 2381 947 1747 
z
" transform="scale(0.015625)"/>
      <path id="DejaVuSans-43" d="M 4122 4306 
L 4122 3641 
Q 3803 3938 3442 4084 
Q 3081 4231 2675 4231 
Q 1875 4231 1450 3742 
Q 1025 3253 1025 2328 
Q 1025 1406 1450 917 
Q 1875 428 2675 428 
Q 3081 428 3442 575 
Q 3803 722 4122 1019 
L 4122 359 
Q 3791 134 3420 21 
Q 3050 -91 2638 -91 
Q 1578 -91 968 557 
Q 359 1206 359 2328 
Q 359 3453 968 4101 
Q 1578 4750 2638 4750 
Q 3056 4750 3426 4639 
Q 3797 4528 4122 4306 
z
" transform="scale(0.015625)"/>
      <path id="DejaVuSans-68" d="M 3513 2113 
L 3513 0 
L 2938 0 
L 2938 2094 
Q 2938 2591 2744 2837 
Q 2550 3084 2163 3084 
Q 1697 3084 1428 2787 
Q 1159 2491 1159 1978 
L 1159 0 
L 581 0 
L 581 4863 
L 1159 4863 
L 1159 2956 
Q 1366 3272 1645 3428 
Q 1925 3584 2291 3584 
Q 2894 3584 3203 3211 
Q 3513 2838 3513 2113 
z
" transform="scale(0.015625)"/>
      <path id="DejaVuSans-61" d="M 2194 1759 
Q 1497 1759 1228 1600 
Q 959 1441 959 1056 
Q 959 750 1161 570 
Q 1363 391 1709 391 
Q 2188 391 2477 730 
Q 2766 1069 2766 1631 
L 2766 1759 
L 2194 1759 
z
M 3341 1997 
L 3341 0 
L 2766 0 
L 2766 531 
Q 2569 213 2275 61 
Q 1981 -91 1556 -91 
Q 1019 -91 701 211 
Q 384 513 384 1019 
Q 384 1609 779 1909 
Q 1175 2209 1959 2209 
L 2766 2209 
L 2766 2266 
Q 2766 2663 2505 2880 
Q 2244 3097 1772 3097 
Q 1472 3097 1187 3025 
Q 903 2953 641 2809 
L 641 3341 
Q 956 3463 1253 3523 
Q 1550 3584 1831 3584 
Q 2591 3584 2966 3190 
Q 3341 2797 3341 1997 
z
" transform="scale(0.015625)"/>
     </defs>
     <use xlink:href="#DejaVuSans-52"/>
     <use xlink:href="#DejaVuSans-65" x="64.982422"/>
     <use xlink:href="#DejaVuSans-64" x="126.505859"/>
     <use xlink:href="#DejaVuSans-20" x="189.982422"/>
     <use xlink:href="#DejaVuSans-43" x="221.769531"/>
     <use xlink:href="#DejaVuSans-68" x="291.59375"/>
     <use xlink:href="#DejaVuSans-61" x="354.972656"/>
     <use xlink:href="#DejaVuSans-6e" x="416.251953"/>
     <use xlink:href="#DejaVuSans-6e" x="479.630859"/>
     <use xlink:href="#DejaVuSans-65" x="543.009766"/>
     <use xlink:href="#DejaVuSans-6c" x="604.533203"/>
     <use xlink:href="#DejaVuSans-20" x="632.316406"/>
    </g>
   </g>
  </g>
  <g id="axes_2">
   <g id="patch_7">
    <path d="M 57.17 398.333333 
L 272.721328 398.333333 
L 272.721328 218.506667 
L 57.17 218.506667 
z
" style="fill: #ffffff"/>
   </g>
   <g id="PolyCollection_2">
    <defs>
     <path id="mc4ea659fa1" d="M 57.17 -249.666667 
L 57.17 -249.666667 
L 58.011997 -249.666667 
L 58.853995 -249.666667 
L 59.695992 -249.666667 
L 60.53799 -249.666667 
L 61.379987 -249.666667 
L 62.221984 -249.666667 
L 63.063982 -249.666667 
L 63.905979 -249.666667 
L 64.747976 -249.666667 
L 65.589974 -249.666667 
L 66.431971 -249.666667 
L 67.273969 -249.666667 
L 68.115966 -249.666667 
L 68.957963 -249.666667 
L 69.799961 -249.666667 
L 70.641958 -249.666667 
L 71.483955 -249.666667 
L 72.325953 -249.666667 
L 73.16795 -249.666667 
L 74.009948 -249.666667 
L 74.851945 -249.666667 
L 75.693942 -249.666667 
L 76.53594 -249.666667 
L 77.377937 -249.666667 
L 78.219934 -249.666667 
L 79.061932 -249.666667 
L 79.903929 -249.666667 
L 80.745927 -249.666667 
L 81.587924 -249.666667 
L 82.429921 -249.666667 
L 83.271919 -249.666667 
L 84.113916 -249.666667 
L 84.955913 -249.666667 
L 85.797911 -249.666667 
L 86.639908 -249.666667 
L 87.481906 -249.666667 
L 88.323903 -249.666667 
L 89.1659 -249.666667 
L 90.007898 -249.666667 
L 90.849895 -249.666667 
L 91.691892 -249.666667 
L 92.53389 -249.666667 
L 93.375887 -249.666667 
L 94.217885 -249.666667 
L 95.059882 -249.666667 
L 95.901879 -249.666667 
L 96.743877 -249.666667 
L 97.585874 -249.666667 
L 98.427871 -249.666667 
L 99.269869 -249.666667 
L 100.111866 -249.666667 
L 100.953864 -249.666667 
L 101.795861 -249.835201 
L 102.637858 -249.666667 
L 103.479856 -250.088004 
L 104.321853 -250.088004 
L 105.16385 -251.267748 
L 106.005848 -253.964305 
L 106.847845 -257.503536 
L 107.689843 -273.598613 
L 108.53184 -315.058182 
L 109.373837 -330.479119 
L 110.215835 -330.142049 
L 111.057832 -316.827798 
L 111.899829 -320.451296 
L 112.741827 -318.344611 
L 113.583824 -314.215508 
L 114.425822 -306.715708 
L 115.267819 -302.755139 
L 116.109816 -300.901256 
L 116.951814 -297.783361 
L 117.793811 -289.103818 
L 118.635808 -283.457901 
L 119.477806 -285.733121 
L 120.319803 -281.266948 
L 121.161801 -282.193889 
L 122.003798 -282.362424 
L 122.845795 -283.205098 
L 123.687793 -280.761343 
L 124.52979 -278.401856 
L 125.371787 -277.137844 
L 126.213785 -279.075995 
L 127.055782 -279.075995 
L 127.89778 -278.738925 
L 128.739777 -275.536764 
L 129.581774 -272.334602 
L 130.423772 -271.40766 
L 131.265769 -271.491928 
L 132.107766 -267.952696 
L 132.949764 -270.396451 
L 133.791761 -270.059381 
L 134.633759 -267.699894 
L 135.475756 -268.121231 
L 136.317753 -266.772952 
L 137.159751 -265.930278 
L 138.001748 -262.138244 
L 138.843745 -267.699894 
L 139.685743 -266.688685 
L 140.52774 -267.615626 
L 141.369738 -264.413465 
L 142.211735 -264.919069 
L 143.053732 -267.278557 
L 143.89573 -265.003336 
L 144.737727 -265.256139 
L 145.579724 -263.57079 
L 146.421722 -265.508941 
L 147.263719 -265.003336 
L 148.105717 -265.677476 
L 148.947714 -263.233721 
L 149.789711 -264.160662 
L 150.631709 -263.823593 
L 151.473706 -264.497732 
L 152.315703 -262.222512 
L 153.157701 -261.464105 
L 153.999698 -261.885442 
L 154.841696 -263.823593 
L 155.683693 -263.149453 
L 156.52569 -262.053977 
L 157.367688 -262.222512 
L 158.209685 -264.413465 
L 159.051682 -261.548372 
L 159.89368 -262.812384 
L 160.735677 -263.739325 
L 161.577675 -265.508941 
L 162.419672 -261.969709 
L 163.261669 -262.980918 
L 164.103667 -263.90786 
L 164.945664 -261.716907 
L 165.787661 -261.211303 
L 166.629659 -263.402256 
L 167.471656 -262.980918 
L 168.313654 -263.823593 
L 169.155651 -262.728116 
L 169.997648 -262.475314 
L 170.839646 -262.306779 
L 171.681643 -263.233721 
L 172.52364 -260.537163 
L 173.365638 -263.823593 
L 174.207635 -262.812384 
L 175.049633 -261.716907 
L 175.89163 -263.065186 
L 176.733627 -261.969709 
L 177.575625 -263.402256 
L 178.417622 -263.317988 
L 179.259619 -260.789966 
L 180.101617 -263.149453 
L 180.943614 -263.317988 
L 181.785612 -264.497732 
L 182.627609 -262.222512 
L 183.469606 -263.992127 
L 184.311604 -263.402256 
L 185.153601 -261.969709 
L 185.995598 -263.823593 
L 186.837596 -263.149453 
L 187.679593 -263.57079 
L 188.521591 -263.402256 
L 189.363588 -263.402256 
L 190.205585 -262.980918 
L 191.047583 -262.306779 
L 191.88958 -263.655058 
L 192.731577 -264.329197 
L 193.573575 -266.18308 
L 194.415572 -262.896651 
L 195.25757 -261.716907 
L 196.099567 -263.57079 
L 196.941564 -265.087604 
L 197.783562 -263.823593 
L 198.625559 -262.728116 
L 199.467556 -263.823593 
L 200.309554 -264.666267 
L 201.151551 -263.149453 
L 201.993549 -265.171871 
L 202.835546 -262.980918 
L 203.677543 -262.812384 
L 204.519541 -263.992127 
L 205.361538 -265.846011 
L 206.203535 -265.171871 
L 207.045533 -264.24493 
L 207.88753 -263.317988 
L 208.729528 -262.980918 
L 209.571525 -262.559581 
L 210.413522 -263.402256 
L 211.25552 -264.666267 
L 212.097517 -263.90786 
L 212.939514 -265.761743 
L 213.781512 -264.329197 
L 214.623509 -264.413465 
L 215.465507 -262.559581 
L 216.307504 -264.497732 
L 217.149501 -264.834802 
L 217.991499 -262.812384 
L 218.833496 -265.340406 
L 219.675493 -262.728116 
L 220.517491 -263.402256 
L 221.359488 -262.643849 
L 222.201486 -263.90786 
L 223.043483 -261.885442 
L 223.88548 -263.149453 
L 224.727478 -263.149453 
L 225.569475 -263.065186 
L 226.411472 -264.834802 
L 227.25347 -263.655058 
L 228.095467 -264.160662 
L 228.937465 -261.801175 
L 229.779462 -263.823593 
L 230.621459 -263.739325 
L 231.463457 -263.065186 
L 232.305454 -263.065186 
L 233.147451 -264.497732 
L 233.989449 -263.317988 
L 234.831446 -265.508941 
L 235.673444 -263.823593 
L 236.515441 -265.761743 
L 237.357438 -263.486523 
L 238.199436 -265.593208 
L 239.041433 -262.138244 
L 239.88343 -266.18308 
L 240.725428 -265.003336 
L 241.567425 -263.823593 
L 242.409423 -263.739325 
L 243.25142 -265.340406 
L 244.093417 -264.497732 
L 244.935415 -264.750534 
L 245.777412 -266.18308 
L 246.619409 -262.643849 
L 247.461407 -266.435883 
L 248.303404 -264.919069 
L 249.145402 -265.340406 
L 249.987399 -265.508941 
L 250.829396 -265.677476 
L 251.671394 -267.699894 
L 252.513391 -265.340406 
L 253.355388 -266.435883 
L 254.197386 -267.447092 
L 255.039383 -268.289766 
L 255.881381 -268.036963 
L 256.723378 -266.772952 
L 257.565375 -269.890847 
L 258.407373 -269.638044 
L 259.24937 -268.458301 
L 260.091367 -270.312184 
L 260.933365 -271.239125 
L 261.775362 -274.609822 
L 262.61736 -274.862624 
L 263.459357 -272.081799 
L 264.301354 -276.042368 
L 265.143352 -280.340006 
L 265.985349 -280.171471 
L 266.827346 -286.322993 
L 267.669344 -292.811584 
L 268.511341 -300.901256 
L 269.353339 -310.592009 
L 270.195336 -324.24333 
L 271.037333 -362.41647 
L 271.879331 -429.493333 
L 271.879331 -249.666667 
L 271.879331 -249.666667 
L 271.037333 -249.666667 
L 270.195336 -249.666667 
L 269.353339 -249.666667 
L 268.511341 -249.666667 
L 267.669344 -249.666667 
L 266.827346 -249.666667 
L 265.985349 -249.666667 
L 265.143352 -249.666667 
L 264.301354 -249.666667 
L 263.459357 -249.666667 
L 262.61736 -249.666667 
L 261.775362 -249.666667 
L 260.933365 -249.666667 
L 260.091367 -249.666667 
L 259.24937 -249.666667 
L 258.407373 -249.666667 
L 257.565375 -249.666667 
L 256.723378 -249.666667 
L 255.881381 -249.666667 
L 255.039383 -249.666667 
L 254.197386 -249.666667 
L 253.355388 -249.666667 
L 252.513391 -249.666667 
L 251.671394 -249.666667 
L 250.829396 -249.666667 
L 249.987399 -249.666667 
L 249.145402 -249.666667 
L 248.303404 -249.666667 
L 247.461407 -249.666667 
L 246.619409 -249.666667 
L 245.777412 -249.666667 
L 244.935415 -249.666667 
L 244.093417 -249.666667 
L 243.25142 -249.666667 
L 242.409423 -249.666667 
L 241.567425 -249.666667 
L 240.725428 -249.666667 
L 239.88343 -249.666667 
L 239.041433 -249.666667 
L 238.199436 -249.666667 
L 237.357438 -249.666667 
L 236.515441 -249.666667 
L 235.673444 -249.666667 
L 234.831446 -249.666667 
L 233.989449 -249.666667 
L 233.147451 -249.666667 
L 232.305454 -249.666667 
L 231.463457 -249.666667 
L 230.621459 -249.666667 
L 229.779462 -249.666667 
L 228.937465 -249.666667 
L 228.095467 -249.666667 
L 227.25347 -249.666667 
L 226.411472 -249.666667 
L 225.569475 -249.666667 
L 224.727478 -249.666667 
L 223.88548 -249.666667 
L 223.043483 -249.666667 
L 222.201486 -249.666667 
L 221.359488 -249.666667 
L 220.517491 -249.666667 
L 219.675493 -249.666667 
L 218.833496 -249.666667 
L 217.991499 -249.666667 
L 217.149501 -249.666667 
L 216.307504 -249.666667 
L 215.465507 -249.666667 
L 214.623509 -249.666667 
L 213.781512 -249.666667 
L 212.939514 -249.666667 
L 212.097517 -249.666667 
L 211.25552 -249.666667 
L 210.413522 -249.666667 
L 209.571525 -249.666667 
L 208.729528 -249.666667 
L 207.88753 -249.666667 
L 207.045533 -249.666667 
L 206.203535 -249.666667 
L 205.361538 -249.666667 
L 204.519541 -249.666667 
L 203.677543 -249.666667 
L 202.835546 -249.666667 
L 201.993549 -249.666667 
L 201.151551 -249.666667 
L 200.309554 -249.666667 
L 199.467556 -249.666667 
L 198.625559 -249.666667 
L 197.783562 -249.666667 
L 196.941564 -249.666667 
L 196.099567 -249.666667 
L 195.25757 -249.666667 
L 194.415572 -249.666667 
L 193.573575 -249.666667 
L 192.731577 -249.666667 
L 191.88958 -249.666667 
L 191.047583 -249.666667 
L 190.205585 -249.666667 
L 189.363588 -249.666667 
L 188.521591 -249.666667 
L 187.679593 -249.666667 
L 186.837596 -249.666667 
L 185.995598 -249.666667 
L 185.153601 -249.666667 
L 184.311604 -249.666667 
L 183.469606 -249.666667 
L 182.627609 -249.666667 
L 181.785612 -249.666667 
L 180.943614 -249.666667 
L 180.101617 -249.666667 
L 179.259619 -249.666667 
L 178.417622 -249.666667 
L 177.575625 -249.666667 
L 176.733627 -249.666667 
L 175.89163 -249.666667 
L 175.049633 -249.666667 
L 174.207635 -249.666667 
L 173.365638 -249.666667 
L 172.52364 -249.666667 
L 171.681643 -249.666667 
L 170.839646 -249.666667 
L 169.997648 -249.666667 
L 169.155651 -249.666667 
L 168.313654 -249.666667 
L 167.471656 -249.666667 
L 166.629659 -249.666667 
L 165.787661 -249.666667 
L 164.945664 -249.666667 
L 164.103667 -249.666667 
L 163.261669 -249.666667 
L 162.419672 -249.666667 
L 161.577675 -249.666667 
L 160.735677 -249.666667 
L 159.89368 -249.666667 
L 159.051682 -249.666667 
L 158.209685 -249.666667 
L 157.367688 -249.666667 
L 156.52569 -249.666667 
L 155.683693 -249.666667 
L 154.841696 -249.666667 
L 153.999698 -249.666667 
L 153.157701 -249.666667 
L 152.315703 -249.666667 
L 151.473706 -249.666667 
L 150.631709 -249.666667 
L 149.789711 -249.666667 
L 148.947714 -249.666667 
L 148.105717 -249.666667 
L 147.263719 -249.666667 
L 146.421722 -249.666667 
L 145.579724 -249.666667 
L 144.737727 -249.666667 
L 143.89573 -249.666667 
L 143.053732 -249.666667 
L 142.211735 -249.666667 
L 141.369738 -249.666667 
L 140.52774 -249.666667 
L 139.685743 -249.666667 
L 138.843745 -249.666667 
L 138.001748 -249.666667 
L 137.159751 -249.666667 
L 136.317753 -249.666667 
L 135.475756 -249.666667 
L 134.633759 -249.666667 
L 133.791761 -249.666667 
L 132.949764 -249.666667 
L 132.107766 -249.666667 
L 131.265769 -249.666667 
L 130.423772 -249.666667 
L 129.581774 -249.666667 
L 128.739777 -249.666667 
L 127.89778 -249.666667 
L 127.055782 -249.666667 
L 126.213785 -249.666667 
L 125.371787 -249.666667 
L 124.52979 -249.666667 
L 123.687793 -249.666667 
L 122.845795 -249.666667 
L 122.003798 -249.666667 
L 121.161801 -249.666667 
L 120.319803 -249.666667 
L 119.477806 -249.666667 
L 118.635808 -249.666667 
L 117.793811 -249.666667 
L 116.951814 -249.666667 
L 116.109816 -249.666667 
L 115.267819 -249.666667 
L 114.425822 -249.666667 
L 113.583824 -249.666667 
L 112.741827 -249.666667 
L 111.899829 -249.666667 
L 111.057832 -249.666667 
L 110.215835 -249.666667 
L 109.373837 -249.666667 
L 108.53184 -249.666667 
L 107.689843 -249.666667 
L 106.847845 -249.666667 
L 106.005848 -249.666667 
L 105.16385 -249.666667 
L 104.321853 -249.666667 
L 103.479856 -249.666667 
L 102.637858 -249.666667 
L 101.795861 -249.666667 
L 100.953864 -249.666667 
L 100.111866 -249.666667 
L 99.269869 -249.666667 
L 98.427871 -249.666667 
L 97.585874 -249.666667 
L 96.743877 -249.666667 
L 95.901879 -249.666667 
L 95.059882 -249.666667 
L 94.217885 -249.666667 
L 93.375887 -249.666667 
L 92.53389 -249.666667 
L 91.691892 -249.666667 
L 90.849895 -249.666667 
L 90.007898 -249.666667 
L 89.1659 -249.666667 
L 88.323903 -249.666667 
L 87.481906 -249.666667 
L 86.639908 -249.666667 
L 85.797911 -249.666667 
L 84.955913 -249.666667 
L 84.113916 -249.666667 
L 83.271919 -249.666667 
L 82.429921 -249.666667 
L 81.587924 -249.666667 
L 80.745927 -249.666667 
L 79.903929 -249.666667 
L 79.061932 -249.666667 
L 78.219934 -249.666667 
L 77.377937 -249.666667 
L 76.53594 -249.666667 
L 75.693942 -249.666667 
L 74.851945 -249.666667 
L 74.009948 -249.666667 
L 73.16795 -249.666667 
L 72.325953 -249.666667 
L 71.483955 -249.666667 
L 70.641958 -249.666667 
L 69.799961 -249.666667 
L 68.957963 -249.666667 
L 68.115966 -249.666667 
L 67.273969 -249.666667 
L 66.431971 -249.666667 
L 65.589974 -249.666667 
L 64.747976 -249.666667 
L 63.905979 -249.666667 
L 63.063982 -249.666667 
L 62.221984 -249.666667 
L 61.379987 -249.666667 
L 60.53799 -249.666667 
L 59.695992 -249.666667 
L 58.853995 -249.666667 
L 58.011997 -249.666667 
L 57.17 -249.666667 
z
" style="stroke: #008000; stroke-opacity: 0.4"/>
    </defs>
    <g clip-path="url(#pe88195efdf)">
     <use xlink:href="#mc4ea659fa1" x="0" y="648" style="fill: #008000; fill-opacity: 0.4; stroke: #008000; stroke-opacity: 0.4"/>
    </g>
   </g>
   <g id="matplotlib.axis_3">
    <g id="xtick_7">
     <g id="line2d_13">
      <g>
       <use xlink:href="#m0333e4dc9e" x="57.17" y="398.333333" style="stroke: #000000; stroke-width: 0.8"/>
      </g>
     </g>
     <g id="text_14">
      <!-- 0 -->
      <g transform="translate(53.98875 412.931771) scale(0.1 -0.1)">
       <use xlink:href="#DejaVuSans-30"/>
      </g>
     </g>
    </g>
    <g id="xtick_8">
     <g id="line2d_14">
      <g>
       <use xlink:href="#m0333e4dc9e" x="99.269869" y="398.333333" style="stroke: #000000; stroke-width: 0.8"/>
      </g>
     </g>
     <g id="text_15">
      <!-- 50 -->
      <g transform="translate(92.907369 412.931771) scale(0.1 -0.1)">
       <use xlink:href="#DejaVuSans-35"/>
       <use xlink:href="#DejaVuSans-30" x="63.623047"/>
      </g>
     </g>
    </g>
    <g id="xtick_9">
     <g id="line2d_15">
      <g>
       <use xlink:href="#m0333e4dc9e" x="141.369738" y="398.333333" style="stroke: #000000; stroke-width: 0.8"/>
      </g>
     </g>
     <g id="text_16">
      <!-- 100 -->
      <g transform="translate(131.825988 412.931771) scale(0.1 -0.1)">
       <use xlink:href="#DejaVuSans-31"/>
       <use xlink:href="#DejaVuSans-30" x="63.623047"/>
       <use xlink:href="#DejaVuSans-30" x="127.246094"/>
      </g>
     </g>
    </g>
    <g id="xtick_10">
     <g id="line2d_16">
      <g>
       <use xlink:href="#m0333e4dc9e" x="183.469606" y="398.333333" style="stroke: #000000; stroke-width: 0.8"/>
      </g>
     </g>
     <g id="text_17">
      <!-- 150 -->
      <g transform="translate(173.925856 412.931771) scale(0.1 -0.1)">
       <use xlink:href="#DejaVuSans-31"/>
       <use xlink:href="#DejaVuSans-35" x="63.623047"/>
       <use xlink:href="#DejaVuSans-30" x="127.246094"/>
      </g>
     </g>
    </g>
    <g id="xtick_11">
     <g id="line2d_17">
      <g>
       <use xlink:href="#m0333e4dc9e" x="225.569475" y="398.333333" style="stroke: #000000; stroke-width: 0.8"/>
      </g>
     </g>
     <g id="text_18">
      <!-- 200 -->
      <g transform="translate(216.025725 412.931771) scale(0.1 -0.1)">
       <use xlink:href="#DejaVuSans-32"/>
       <use xlink:href="#DejaVuSans-30" x="63.623047"/>
       <use xlink:href="#DejaVuSans-30" x="127.246094"/>
      </g>
     </g>
    </g>
    <g id="xtick_12">
     <g id="line2d_18">
      <g>
       <use xlink:href="#m0333e4dc9e" x="267.669344" y="398.333333" style="stroke: #000000; stroke-width: 0.8"/>
      </g>
     </g>
     <g id="text_19">
      <!-- 250 -->
      <g transform="translate(258.125594 412.931771) scale(0.1 -0.1)">
       <use xlink:href="#DejaVuSans-32"/>
       <use xlink:href="#DejaVuSans-35" x="63.623047"/>
       <use xlink:href="#DejaVuSans-30" x="127.246094"/>
      </g>
     </g>
    </g>
   </g>
   <g id="matplotlib.axis_4">
    <g id="ytick_6">
     <g id="line2d_19">
      <g>
       <use xlink:href="#mef0313f9fd" x="57.17" y="398.333333" style="stroke: #000000; stroke-width: 0.8"/>
      </g>
     </g>
     <g id="text_20">
      <!-- 0 -->
      <g transform="translate(43.8075 402.132552) scale(0.1 -0.1)">
       <use xlink:href="#DejaVuSans-30"/>
      </g>
     </g>
    </g>
    <g id="ytick_7">
     <g id="line2d_20">
      <g>
       <use xlink:href="#mef0313f9fd" x="57.17" y="356.199625" style="stroke: #000000; stroke-width: 0.8"/>
      </g>
     </g>
     <g id="text_21">
      <!-- 500 -->
      <g transform="translate(31.0825 359.998844) scale(0.1 -0.1)">
       <use xlink:href="#DejaVuSans-35"/>
       <use xlink:href="#DejaVuSans-30" x="63.623047"/>
       <use xlink:href="#DejaVuSans-30" x="127.246094"/>
      </g>
     </g>
    </g>
    <g id="ytick_8">
     <g id="line2d_21">
      <g>
       <use xlink:href="#mef0313f9fd" x="57.17" y="314.065917" style="stroke: #000000; stroke-width: 0.8"/>
      </g>
     </g>
     <g id="text_22">
      <!-- 1000 -->
      <g transform="translate(24.72 317.865136) scale(0.1 -0.1)">
       <use xlink:href="#DejaVuSans-31"/>
       <use xlink:href="#DejaVuSans-30" x="63.623047"/>
       <use xlink:href="#DejaVuSans-30" x="127.246094"/>
       <use xlink:href="#DejaVuSans-30" x="190.869141"/>
      </g>
     </g>
    </g>
    <g id="ytick_9">
     <g id="line2d_22">
      <g>
       <use xlink:href="#mef0313f9fd" x="57.17" y="271.932209" style="stroke: #000000; stroke-width: 0.8"/>
      </g>
     </g>
     <g id="text_23">
      <!-- 1500 -->
      <g transform="translate(24.72 275.731427) scale(0.1 -0.1)">
       <use xlink:href="#DejaVuSans-31"/>
       <use xlink:href="#DejaVuSans-35" x="63.623047"/>
       <use xlink:href="#DejaVuSans-30" x="127.246094"/>
       <use xlink:href="#DejaVuSans-30" x="190.869141"/>
      </g>
     </g>
    </g>
    <g id="ytick_10">
     <g id="line2d_23">
      <g>
       <use xlink:href="#mef0313f9fd" x="57.17" y="229.7985" style="stroke: #000000; stroke-width: 0.8"/>
      </g>
     </g>
     <g id="text_24">
      <!-- 2000 -->
      <g transform="translate(24.72 233.597719) scale(0.1 -0.1)">
       <use xlink:href="#DejaVuSans-32"/>
       <use xlink:href="#DejaVuSans-30" x="63.623047"/>
       <use xlink:href="#DejaVuSans-30" x="127.246094"/>
       <use xlink:href="#DejaVuSans-30" x="190.869141"/>
      </g>
     </g>
    </g>
    <g id="text_25">
     <!-- Pixel Frequency -->
     <g transform="translate(18.640313 347.398906) rotate(-90) scale(0.1 -0.1)">
      <use xlink:href="#DejaVuSans-50"/>
      <use xlink:href="#DejaVuSans-69" x="58.052734"/>
      <use xlink:href="#DejaVuSans-78" x="85.835938"/>
      <use xlink:href="#DejaVuSans-65" x="141.890625"/>
      <use xlink:href="#DejaVuSans-6c" x="203.414062"/>
      <use xlink:href="#DejaVuSans-20" x="231.197266"/>
      <use xlink:href="#DejaVuSans-46" x="262.984375"/>
      <use xlink:href="#DejaVuSans-72" x="313.253906"/>
      <use xlink:href="#DejaVuSans-65" x="352.117188"/>
      <use xlink:href="#DejaVuSans-71" x="413.640625"/>
      <use xlink:href="#DejaVuSans-75" x="477.117188"/>
      <use xlink:href="#DejaVuSans-65" x="540.496094"/>
      <use xlink:href="#DejaVuSans-6e" x="602.019531"/>
      <use xlink:href="#DejaVuSans-63" x="665.398438"/>
      <use xlink:href="#DejaVuSans-79" x="720.378906"/>
     </g>
    </g>
   </g>
   <g id="line2d_24">
    <path d="M 57.17 398.333333 
L 100.953864 398.333333 
L 101.795861 398.164799 
L 102.637858 398.333333 
L 103.479856 397.911996 
L 104.321853 397.911996 
L 105.16385 396.732252 
L 106.005848 394.035695 
L 106.847845 390.496464 
L 107.689843 374.401387 
L 108.53184 332.941818 
L 109.373837 317.520881 
L 110.215835 317.857951 
L 111.057832 331.172202 
L 111.899829 327.548704 
L 112.741827 329.655389 
L 113.583824 333.784492 
L 114.425822 341.284292 
L 115.267819 345.244861 
L 116.109816 347.098744 
L 116.951814 350.216639 
L 117.793811 358.896182 
L 118.635808 364.542099 
L 119.477806 362.266879 
L 120.319803 366.733052 
L 121.161801 365.806111 
L 122.003798 365.637576 
L 122.845795 364.794902 
L 124.52979 369.598144 
L 125.371787 370.862156 
L 126.213785 368.924005 
L 127.055782 368.924005 
L 127.89778 369.261075 
L 129.581774 375.665398 
L 130.423772 376.59234 
L 131.265769 376.508072 
L 132.107766 380.047304 
L 132.949764 377.603549 
L 133.791761 377.940619 
L 134.633759 380.300106 
L 135.475756 379.878769 
L 136.317753 381.227048 
L 137.159751 382.069722 
L 138.001748 385.861756 
L 138.843745 380.300106 
L 139.685743 381.311315 
L 140.52774 380.384374 
L 141.369738 383.586535 
L 142.211735 383.080931 
L 143.053732 380.721443 
L 143.89573 382.996664 
L 144.737727 382.743861 
L 145.579724 384.42921 
L 146.421722 382.491059 
L 147.263719 382.996664 
L 148.105717 382.322524 
L 148.947714 384.766279 
L 149.789711 383.839338 
L 150.631709 384.176407 
L 151.473706 383.502268 
L 152.315703 385.777488 
L 153.157701 386.535895 
L 153.999698 386.114558 
L 154.841696 384.176407 
L 155.683693 384.850547 
L 156.52569 385.946023 
L 157.367688 385.777488 
L 158.209685 383.586535 
L 159.051682 386.451628 
L 159.89368 385.187616 
L 160.735677 384.260675 
L 161.577675 382.491059 
L 162.419672 386.030291 
L 164.103667 384.09214 
L 164.945664 386.283093 
L 165.787661 386.788697 
L 166.629659 384.597744 
L 167.471656 385.019082 
L 168.313654 384.176407 
L 169.155651 385.271884 
L 170.839646 385.693221 
L 171.681643 384.766279 
L 172.52364 387.462837 
L 173.365638 384.176407 
L 175.049633 386.283093 
L 175.89163 384.934814 
L 176.733627 386.030291 
L 177.575625 384.597744 
L 178.417622 384.682012 
L 179.259619 387.210034 
L 180.101617 384.850547 
L 180.943614 384.682012 
L 181.785612 383.502268 
L 182.627609 385.777488 
L 183.469606 384.007873 
L 184.311604 384.597744 
L 185.153601 386.030291 
L 185.995598 384.176407 
L 186.837596 384.850547 
L 187.679593 384.42921 
L 188.521591 384.597744 
L 189.363588 384.597744 
L 190.205585 385.019082 
L 191.047583 385.693221 
L 191.88958 384.344942 
L 192.731577 383.670803 
L 193.573575 381.81692 
L 194.415572 385.103349 
L 195.25757 386.283093 
L 196.099567 384.42921 
L 196.941564 382.912396 
L 198.625559 385.271884 
L 199.467556 384.176407 
L 200.309554 383.333733 
L 201.151551 384.850547 
L 201.993549 382.828129 
L 202.835546 385.019082 
L 203.677543 385.187616 
L 204.519541 384.007873 
L 205.361538 382.153989 
L 206.203535 382.828129 
L 207.88753 384.682012 
L 209.571525 385.440419 
L 210.413522 384.597744 
L 211.25552 383.333733 
L 212.097517 384.09214 
L 212.939514 382.238257 
L 213.781512 383.670803 
L 214.623509 383.586535 
L 215.465507 385.440419 
L 216.307504 383.502268 
L 217.149501 383.165198 
L 217.991499 385.187616 
L 218.833496 382.659594 
L 219.675493 385.271884 
L 220.517491 384.597744 
L 221.359488 385.356151 
L 222.201486 384.09214 
L 223.043483 386.114558 
L 223.88548 384.850547 
L 225.569475 384.934814 
L 226.411472 383.165198 
L 227.25347 384.344942 
L 228.095467 383.839338 
L 228.937465 386.198825 
L 229.779462 384.176407 
L 230.621459 384.260675 
L 231.463457 384.934814 
L 232.305454 384.934814 
L 233.147451 383.502268 
L 233.989449 384.682012 
L 234.831446 382.491059 
L 235.673444 384.176407 
L 236.515441 382.238257 
L 237.357438 384.513477 
L 238.199436 382.406792 
L 239.041433 385.861756 
L 239.88343 381.81692 
L 241.567425 384.176407 
L 242.409423 384.260675 
L 243.25142 382.659594 
L 244.093417 383.502268 
L 244.935415 383.249466 
L 245.777412 381.81692 
L 246.619409 385.356151 
L 247.461407 381.564117 
L 248.303404 383.080931 
L 249.145402 382.659594 
L 250.829396 382.322524 
L 251.671394 380.300106 
L 252.513391 382.659594 
L 254.197386 380.552908 
L 255.039383 379.710234 
L 255.881381 379.963037 
L 256.723378 381.227048 
L 257.565375 378.109153 
L 258.407373 378.361956 
L 259.24937 379.541699 
L 260.091367 377.687816 
L 260.933365 376.760875 
L 261.775362 373.390178 
L 262.61736 373.137376 
L 263.459357 375.918201 
L 265.143352 367.659994 
L 265.985349 367.828529 
L 267.669344 355.188416 
L 268.511341 347.098744 
L 269.353339 337.407991 
L 270.195336 323.75667 
L 271.037333 285.58353 
L 271.879331 218.506667 
L 271.879331 218.506667 
" clip-path="url(#pe88195efdf)" style="fill: none; stroke: #008000; stroke-width: 1.5; stroke-linecap: square"/>
   </g>
   <g id="patch_8">
    <path d="M 57.17 398.333333 
L 57.17 218.506667 
" style="fill: none; stroke: #000000; stroke-width: 0.8; stroke-linejoin: miter; stroke-linecap: square"/>
   </g>
   <g id="patch_9">
    <path d="M 272.721328 398.333333 
L 272.721328 218.506667 
" style="fill: none; stroke: #000000; stroke-width: 0.8; stroke-linejoin: miter; stroke-linecap: square"/>
   </g>
   <g id="patch_10">
    <path d="M 57.17 398.333333 
L 272.721328 398.333333 
" style="fill: none; stroke: #000000; stroke-width: 0.8; stroke-linejoin: miter; stroke-linecap: square"/>
   </g>
   <g id="patch_11">
    <path d="M 57.17 218.506667 
L 272.721328 218.506667 
" style="fill: none; stroke: #000000; stroke-width: 0.8; stroke-linejoin: miter; stroke-linecap: square"/>
   </g>
   <g id="text_26">
    <!-- Green Channel  -->
    <g transform="translate(179.494453 232.506667) scale(0.12 -0.12)">
     <defs>
      <path id="DejaVuSans-47" d="M 3809 666 
L 3809 1919 
L 2778 1919 
L 2778 2438 
L 4434 2438 
L 4434 434 
Q 4069 175 3628 42 
Q 3188 -91 2688 -91 
Q 1594 -91 976 548 
Q 359 1188 359 2328 
Q 359 3472 976 4111 
Q 1594 4750 2688 4750 
Q 3144 4750 3555 4637 
Q 3966 4525 4313 4306 
L 4313 3634 
Q 3963 3931 3569 4081 
Q 3175 4231 2741 4231 
Q 1884 4231 1454 3753 
Q 1025 3275 1025 2328 
Q 1025 1384 1454 906 
Q 1884 428 2741 428 
Q 3075 428 3337 486 
Q 3600 544 3809 666 
z
" transform="scale(0.015625)"/>
     </defs>
     <use xlink:href="#DejaVuSans-47"/>
     <use xlink:href="#DejaVuSans-72" x="77.490234"/>
     <use xlink:href="#DejaVuSans-65" x="116.353516"/>
     <use xlink:href="#DejaVuSans-65" x="177.876953"/>
     <use xlink:href="#DejaVuSans-6e" x="239.400391"/>
     <use xlink:href="#DejaVuSans-20" x="302.779297"/>
     <use xlink:href="#DejaVuSans-43" x="334.566406"/>
     <use xlink:href="#DejaVuSans-68" x="404.390625"/>
     <use xlink:href="#DejaVuSans-61" x="467.769531"/>
     <use xlink:href="#DejaVuSans-6e" x="529.048828"/>
     <use xlink:href="#DejaVuSans-6e" x="592.427734"/>
     <use xlink:href="#DejaVuSans-65" x="655.806641"/>
     <use xlink:href="#DejaVuSans-6c" x="717.330078"/>
     <use xlink:href="#DejaVuSans-20" x="745.113281"/>
    </g>
   </g>
  </g>
  <g id="axes_3">
   <g id="patch_12">
    <path d="M 57.17 606.04 
L 272.721328 606.04 
L 272.721328 426.213333 
L 57.17 426.213333 
z
" style="fill: #ffffff"/>
   </g>
   <g id="PolyCollection_3">
    <defs>
     <path id="meaea88933c" d="M 57.17 -41.96 
L 57.17 -41.96 
L 58.011997 -41.96 
L 58.853995 -41.96 
L 59.695992 -41.96 
L 60.53799 -41.96 
L 61.379987 -41.96 
L 62.221984 -41.96 
L 63.063982 -41.96 
L 63.905979 -41.96 
L 64.747976 -41.96 
L 65.589974 -41.96 
L 66.431971 -41.96 
L 67.273969 -41.96 
L 68.115966 -41.96 
L 68.957963 -41.96 
L 69.799961 -41.96 
L 70.641958 -41.96 
L 71.483955 -41.96 
L 72.325953 -41.96 
L 73.16795 -41.96 
L 74.009948 -41.96 
L 74.851945 -41.96 
L 75.693942 -41.96 
L 76.53594 -41.96 
L 77.377937 -41.96 
L 78.219934 -41.96 
L 79.061932 -41.96 
L 79.903929 -41.96 
L 80.745927 -42.044267 
L 81.587924 -42.29707 
L 82.429921 -42.634139 
L 83.271919 -45.414964 
L 84.113916 -51.060881 
L 84.955913 -85.947591 
L 85.797911 -157.406361 
L 86.639908 -162.293871 
L 87.481906 -143.333702 
L 88.323903 -144.850515 
L 89.1659 -139.79447 
L 90.007898 -130.440787 
L 90.849895 -119.401756 
L 91.691892 -112.491828 
L 92.53389 -102.885342 
L 93.375887 -98.082099 
L 94.217885 -95.469809 
L 95.059882 -97.155158 
L 95.901879 -94.79567 
L 96.743877 -90.413764 
L 97.585874 -81.481418 
L 98.427871 -79.964605 
L 99.269869 -78.026454 
L 100.111866 -74.655758 
L 100.953864 -74.487223 
L 101.795861 -74.150153 
L 102.637858 -72.801874 
L 103.479856 -71.369328 
L 104.321853 -70.610922 
L 105.16385 -71.874933 
L 106.005848 -68.419969 
L 106.847845 -66.903155 
L 107.689843 -66.566086 
L 108.53184 -67.40876 
L 109.373837 -67.577295 
L 110.215835 -66.903155 
L 111.057832 -64.543668 
L 111.899829 -63.616726 
L 112.741827 -65.217807 
L 113.583824 -65.049272 
L 114.425822 -64.122331 
L 115.267819 -64.038063 
L 116.109816 -63.616726 
L 116.951814 -63.111122 
L 117.793811 -64.038063 
L 118.635808 -64.965005 
L 119.477806 -62.52125 
L 120.319803 -61.088704 
L 121.161801 -63.111122 
L 122.003798 -61.678575 
L 122.845795 -63.363924 
L 123.687793 -61.425773 
L 124.52979 -65.470609 
L 125.371787 -63.532459 
L 126.213785 -66.313283 
L 127.055782 -64.712202 
L 127.89778 -62.352715 
L 128.739777 -63.700993 
L 129.581774 -66.313283 
L 130.423772 -61.257238 
L 131.265769 -65.470609 
L 132.107766 -62.352715 
L 132.949764 -61.84711 
L 133.791761 -62.689784 
L 134.633759 -64.122331 
L 135.475756 -65.807679 
L 136.317753 -61.84711 
L 137.159751 -60.330297 
L 138.001748 -62.099913 
L 138.843745 -64.712202 
L 139.685743 -64.880737 
L 140.52774 -63.448191 
L 141.369738 -62.436982 
L 142.211735 -64.543668 
L 143.053732 -66.566086 
L 143.89573 -62.942587 
L 144.737727 -60.246029 
L 145.579724 -64.79647 
L 146.421722 -65.217807 
L 147.263719 -61.088704 
L 148.105717 -65.217807 
L 148.947714 -61.257238 
L 149.789711 -63.111122 
L 150.631709 -61.004436 
L 151.473706 -60.330297 
L 152.315703 -62.352715 
L 153.157701 -61.088704 
L 153.999698 -62.015645 
L 154.841696 -60.077495 
L 155.683693 -58.729216 
L 156.52569 -60.835901 
L 157.367688 -63.279656 
L 158.209685 -61.931378 
L 159.051682 -60.751634 
L 159.89368 -62.268447 
L 160.735677 -60.077495 
L 161.577675 -58.982018 
L 162.419672 -58.392146 
L 163.261669 -59.824692 
L 164.103667 -59.824692 
L 164.945664 -60.751634 
L 165.787661 -59.740425 
L 166.629659 -58.223611 
L 167.471656 -58.560681 
L 168.313654 -58.560681 
L 169.155651 -58.982018 
L 169.997648 -59.740425 
L 170.839646 -57.549472 
L 171.681643 -58.392146 
L 172.52364 -57.043868 
L 173.365638 -58.307879 
L 174.207635 -58.476414 
L 175.049633 -58.729216 
L 175.89163 -56.706798 
L 176.733627 -56.201193 
L 177.575625 -57.970809 
L 178.417622 -56.62253 
L 179.259619 -55.358519 
L 180.101617 -59.150553 
L 180.943614 -57.718007 
L 181.785612 -59.403355 
L 182.627609 -58.644948 
L 183.469606 -58.729216 
L 184.311604 -58.307879 
L 185.153601 -59.90896 
L 185.995598 -56.9596 
L 186.837596 -58.055077 
L 187.679593 -58.392146 
L 188.521591 -56.791065 
L 189.363588 -57.128135 
L 190.205585 -57.128135 
L 191.047583 -55.695589 
L 191.88958 -55.864124 
L 192.731577 -55.611321 
L 193.573575 -55.442787 
L 194.415572 -57.212402 
L 195.25757 -57.29667 
L 196.099567 -56.032659 
L 196.941564 -56.453996 
L 197.783562 -55.864124 
L 198.625559 -53.504636 
L 199.467556 -57.465205 
L 200.309554 -55.779856 
L 201.151551 -53.757438 
L 201.993549 -56.369728 
L 202.835546 -54.431578 
L 203.677543 -54.515845 
L 204.519541 -54.768647 
L 205.361538 -52.746229 
L 206.203535 -54.094508 
L 207.045533 -53.925973 
L 207.88753 -52.40916 
L 208.729528 -55.358519 
L 209.571525 -53.336101 
L 210.413522 -51.650753 
L 211.25552 -52.40916 
L 212.097517 -52.493427 
L 212.939514 -53.251834 
L 213.781512 -52.999032 
L 214.623509 -53.420369 
L 215.465507 -52.999032 
L 216.307504 -52.999032 
L 217.149501 -50.639544 
L 217.991499 -50.639544 
L 218.833496 -50.218207 
L 219.675493 -51.060881 
L 220.517491 -49.712602 
L 221.359488 -49.712602 
L 222.201486 -51.482218 
L 223.043483 -51.229416 
L 223.88548 -48.785661 
L 224.727478 -49.038463 
L 225.569475 -50.892346 
L 226.411472 -48.954196 
L 227.25347 -50.892346 
L 228.095467 -50.808079 
L 228.937465 -49.038463 
L 229.779462 -49.544067 
L 230.621459 -48.617126 
L 231.463457 -49.965405 
L 232.305454 -49.12273 
L 233.147451 -48.532858 
L 233.989449 -49.628335 
L 234.831446 -47.858719 
L 235.673444 -48.785661 
L 236.515441 -49.291265 
L 237.357438 -49.291265 
L 238.199436 -48.448591 
L 239.041433 -47.858719 
L 239.88343 -47.605917 
L 240.725428 -47.353115 
L 241.567425 -48.280056 
L 242.409423 -47.858719 
L 243.25142 -47.353115 
L 244.093417 -46.341906 
L 244.935415 -46.931778 
L 245.777412 -46.341906 
L 246.619409 -46.594708 
L 247.461407 -47.268847 
L 248.303404 -47.100312 
L 249.145402 -45.752034 
L 249.987399 -46.678975 
L 250.829396 -47.605917 
L 251.671394 -45.414964 
L 252.513391 -46.173371 
L 253.355388 -45.583499 
L 254.197386 -45.583499 
L 255.039383 -46.931778 
L 255.881381 -45.836301 
L 256.723378 -45.077894 
L 257.565375 -46.763243 
L 258.407373 -45.836301 
L 259.24937 -45.330697 
L 260.091367 -46.089103 
L 260.933365 -44.825092 
L 261.775362 -45.836301 
L 262.61736 -45.246429 
L 263.459357 -45.752034 
L 264.301354 -44.993627 
L 265.143352 -44.993627 
L 265.985349 -45.752034 
L 266.827346 -43.813883 
L 267.669344 -44.825092 
L 268.511341 -44.993627 
L 269.353339 -44.993627 
L 270.195336 -43.729616 
L 271.037333 -44.57229 
L 271.879331 -45.246429 
L 271.879331 -41.96 
L 271.879331 -41.96 
L 271.037333 -41.96 
L 270.195336 -41.96 
L 269.353339 -41.96 
L 268.511341 -41.96 
L 267.669344 -41.96 
L 266.827346 -41.96 
L 265.985349 -41.96 
L 265.143352 -41.96 
L 264.301354 -41.96 
L 263.459357 -41.96 
L 262.61736 -41.96 
L 261.775362 -41.96 
L 260.933365 -41.96 
L 260.091367 -41.96 
L 259.24937 -41.96 
L 258.407373 -41.96 
L 257.565375 -41.96 
L 256.723378 -41.96 
L 255.881381 -41.96 
L 255.039383 -41.96 
L 254.197386 -41.96 
L 253.355388 -41.96 
L 252.513391 -41.96 
L 251.671394 -41.96 
L 250.829396 -41.96 
L 249.987399 -41.96 
L 249.145402 -41.96 
L 248.303404 -41.96 
L 247.461407 -41.96 
L 246.619409 -41.96 
L 245.777412 -41.96 
L 244.935415 -41.96 
L 244.093417 -41.96 
L 243.25142 -41.96 
L 242.409423 -41.96 
L 241.567425 -41.96 
L 240.725428 -41.96 
L 239.88343 -41.96 
L 239.041433 -41.96 
L 238.199436 -41.96 
L 237.357438 -41.96 
L 236.515441 -41.96 
L 235.673444 -41.96 
L 234.831446 -41.96 
L 233.989449 -41.96 
L 233.147451 -41.96 
L 232.305454 -41.96 
L 231.463457 -41.96 
L 230.621459 -41.96 
L 229.779462 -41.96 
L 228.937465 -41.96 
L 228.095467 -41.96 
L 227.25347 -41.96 
L 226.411472 -41.96 
L 225.569475 -41.96 
L 224.727478 -41.96 
L 223.88548 -41.96 
L 223.043483 -41.96 
L 222.201486 -41.96 
L 221.359488 -41.96 
L 220.517491 -41.96 
L 219.675493 -41.96 
L 218.833496 -41.96 
L 217.991499 -41.96 
L 217.149501 -41.96 
L 216.307504 -41.96 
L 215.465507 -41.96 
L 214.623509 -41.96 
L 213.781512 -41.96 
L 212.939514 -41.96 
L 212.097517 -41.96 
L 211.25552 -41.96 
L 210.413522 -41.96 
L 209.571525 -41.96 
L 208.729528 -41.96 
L 207.88753 -41.96 
L 207.045533 -41.96 
L 206.203535 -41.96 
L 205.361538 -41.96 
L 204.519541 -41.96 
L 203.677543 -41.96 
L 202.835546 -41.96 
L 201.993549 -41.96 
L 201.151551 -41.96 
L 200.309554 -41.96 
L 199.467556 -41.96 
L 198.625559 -41.96 
L 197.783562 -41.96 
L 196.941564 -41.96 
L 196.099567 -41.96 
L 195.25757 -41.96 
L 194.415572 -41.96 
L 193.573575 -41.96 
L 192.731577 -41.96 
L 191.88958 -41.96 
L 191.047583 -41.96 
L 190.205585 -41.96 
L 189.363588 -41.96 
L 188.521591 -41.96 
L 187.679593 -41.96 
L 186.837596 -41.96 
L 185.995598 -41.96 
L 185.153601 -41.96 
L 184.311604 -41.96 
L 183.469606 -41.96 
L 182.627609 -41.96 
L 181.785612 -41.96 
L 180.943614 -41.96 
L 180.101617 -41.96 
L 179.259619 -41.96 
L 178.417622 -41.96 
L 177.575625 -41.96 
L 176.733627 -41.96 
L 175.89163 -41.96 
L 175.049633 -41.96 
L 174.207635 -41.96 
L 173.365638 -41.96 
L 172.52364 -41.96 
L 171.681643 -41.96 
L 170.839646 -41.96 
L 169.997648 -41.96 
L 169.155651 -41.96 
L 168.313654 -41.96 
L 167.471656 -41.96 
L 166.629659 -41.96 
L 165.787661 -41.96 
L 164.945664 -41.96 
L 164.103667 -41.96 
L 163.261669 -41.96 
L 162.419672 -41.96 
L 161.577675 -41.96 
L 160.735677 -41.96 
L 159.89368 -41.96 
L 159.051682 -41.96 
L 158.209685 -41.96 
L 157.367688 -41.96 
L 156.52569 -41.96 
L 155.683693 -41.96 
L 154.841696 -41.96 
L 153.999698 -41.96 
L 153.157701 -41.96 
L 152.315703 -41.96 
L 151.473706 -41.96 
L 150.631709 -41.96 
L 149.789711 -41.96 
L 148.947714 -41.96 
L 148.105717 -41.96 
L 147.263719 -41.96 
L 146.421722 -41.96 
L 145.579724 -41.96 
L 144.737727 -41.96 
L 143.89573 -41.96 
L 143.053732 -41.96 
L 142.211735 -41.96 
L 141.369738 -41.96 
L 140.52774 -41.96 
L 139.685743 -41.96 
L 138.843745 -41.96 
L 138.001748 -41.96 
L 137.159751 -41.96 
L 136.317753 -41.96 
L 135.475756 -41.96 
L 134.633759 -41.96 
L 133.791761 -41.96 
L 132.949764 -41.96 
L 132.107766 -41.96 
L 131.265769 -41.96 
L 130.423772 -41.96 
L 129.581774 -41.96 
L 128.739777 -41.96 
L 127.89778 -41.96 
L 127.055782 -41.96 
L 126.213785 -41.96 
L 125.371787 -41.96 
L 124.52979 -41.96 
L 123.687793 -41.96 
L 122.845795 -41.96 
L 122.003798 -41.96 
L 121.161801 -41.96 
L 120.319803 -41.96 
L 119.477806 -41.96 
L 118.635808 -41.96 
L 117.793811 -41.96 
L 116.951814 -41.96 
L 116.109816 -41.96 
L 115.267819 -41.96 
L 114.425822 -41.96 
L 113.583824 -41.96 
L 112.741827 -41.96 
L 111.899829 -41.96 
L 111.057832 -41.96 
L 110.215835 -41.96 
L 109.373837 -41.96 
L 108.53184 -41.96 
L 107.689843 -41.96 
L 106.847845 -41.96 
L 106.005848 -41.96 
L 105.16385 -41.96 
L 104.321853 -41.96 
L 103.479856 -41.96 
L 102.637858 -41.96 
L 101.795861 -41.96 
L 100.953864 -41.96 
L 100.111866 -41.96 
L 99.269869 -41.96 
L 98.427871 -41.96 
L 97.585874 -41.96 
L 96.743877 -41.96 
L 95.901879 -41.96 
L 95.059882 -41.96 
L 94.217885 -41.96 
L 93.375887 -41.96 
L 92.53389 -41.96 
L 91.691892 -41.96 
L 90.849895 -41.96 
L 90.007898 -41.96 
L 89.1659 -41.96 
L 88.323903 -41.96 
L 87.481906 -41.96 
L 86.639908 -41.96 
L 85.797911 -41.96 
L 84.955913 -41.96 
L 84.113916 -41.96 
L 83.271919 -41.96 
L 82.429921 -41.96 
L 81.587924 -41.96 
L 80.745927 -41.96 
L 79.903929 -41.96 
L 79.061932 -41.96 
L 78.219934 -41.96 
L 77.377937 -41.96 
L 76.53594 -41.96 
L 75.693942 -41.96 
L 74.851945 -41.96 
L 74.009948 -41.96 
L 73.16795 -41.96 
L 72.325953 -41.96 
L 71.483955 -41.96 
L 70.641958 -41.96 
L 69.799961 -41.96 
L 68.957963 -41.96 
L 68.115966 -41.96 
L 67.273969 -41.96 
L 66.431971 -41.96 
L 65.589974 -41.96 
L 64.747976 -41.96 
L 63.905979 -41.96 
L 63.063982 -41.96 
L 62.221984 -41.96 
L 61.379987 -41.96 
L 60.53799 -41.96 
L 59.695992 -41.96 
L 58.853995 -41.96 
L 58.011997 -41.96 
L 57.17 -41.96 
z
" style="stroke: #0000ff; stroke-opacity: 0.4"/>
    </defs>
    <g clip-path="url(#p091c9c18b9)">
     <use xlink:href="#meaea88933c" x="0" y="648" style="fill: #0000ff; fill-opacity: 0.4; stroke: #0000ff; stroke-opacity: 0.4"/>
    </g>
   </g>
   <g id="matplotlib.axis_5">
    <g id="xtick_13">
     <g id="line2d_25">
      <g>
       <use xlink:href="#m0333e4dc9e" x="57.17" y="606.04" style="stroke: #000000; stroke-width: 0.8"/>
      </g>
     </g>
     <g id="text_27">
      <!-- 0 -->
      <g transform="translate(53.98875 620.638438) scale(0.1 -0.1)">
       <use xlink:href="#DejaVuSans-30"/>
      </g>
     </g>
    </g>
    <g id="xtick_14">
     <g id="line2d_26">
      <g>
       <use xlink:href="#m0333e4dc9e" x="99.269869" y="606.04" style="stroke: #000000; stroke-width: 0.8"/>
      </g>
     </g>
     <g id="text_28">
      <!-- 50 -->
      <g transform="translate(92.907369 620.638438) scale(0.1 -0.1)">
       <use xlink:href="#DejaVuSans-35"/>
       <use xlink:href="#DejaVuSans-30" x="63.623047"/>
      </g>
     </g>
    </g>
    <g id="xtick_15">
     <g id="line2d_27">
      <g>
       <use xlink:href="#m0333e4dc9e" x="141.369738" y="606.04" style="stroke: #000000; stroke-width: 0.8"/>
      </g>
     </g>
     <g id="text_29">
      <!-- 100 -->
      <g transform="translate(131.825988 620.638438) scale(0.1 -0.1)">
       <use xlink:href="#DejaVuSans-31"/>
       <use xlink:href="#DejaVuSans-30" x="63.623047"/>
       <use xlink:href="#DejaVuSans-30" x="127.246094"/>
      </g>
     </g>
    </g>
    <g id="xtick_16">
     <g id="line2d_28">
      <g>
       <use xlink:href="#m0333e4dc9e" x="183.469606" y="606.04" style="stroke: #000000; stroke-width: 0.8"/>
      </g>
     </g>
     <g id="text_30">
      <!-- 150 -->
      <g transform="translate(173.925856 620.638438) scale(0.1 -0.1)">
       <use xlink:href="#DejaVuSans-31"/>
       <use xlink:href="#DejaVuSans-35" x="63.623047"/>
       <use xlink:href="#DejaVuSans-30" x="127.246094"/>
      </g>
     </g>
    </g>
    <g id="xtick_17">
     <g id="line2d_29">
      <g>
       <use xlink:href="#m0333e4dc9e" x="225.569475" y="606.04" style="stroke: #000000; stroke-width: 0.8"/>
      </g>
     </g>
     <g id="text_31">
      <!-- 200 -->
      <g transform="translate(216.025725 620.638438) scale(0.1 -0.1)">
       <use xlink:href="#DejaVuSans-32"/>
       <use xlink:href="#DejaVuSans-30" x="63.623047"/>
       <use xlink:href="#DejaVuSans-30" x="127.246094"/>
      </g>
     </g>
    </g>
    <g id="xtick_18">
     <g id="line2d_30">
      <g>
       <use xlink:href="#m0333e4dc9e" x="267.669344" y="606.04" style="stroke: #000000; stroke-width: 0.8"/>
      </g>
     </g>
     <g id="text_32">
      <!-- 250 -->
      <g transform="translate(258.125594 620.638438) scale(0.1 -0.1)">
       <use xlink:href="#DejaVuSans-32"/>
       <use xlink:href="#DejaVuSans-35" x="63.623047"/>
       <use xlink:href="#DejaVuSans-30" x="127.246094"/>
      </g>
     </g>
    </g>
    <g id="text_33">
     <!-- Pixel Intensity -->
     <g transform="translate(130.033945 634.316563) scale(0.1 -0.1)">
      <defs>
       <path id="DejaVuSans-49" d="M 628 4666 
L 1259 4666 
L 1259 0 
L 628 0 
L 628 4666 
z
" transform="scale(0.015625)"/>
       <path id="DejaVuSans-74" d="M 1172 4494 
L 1172 3500 
L 2356 3500 
L 2356 3053 
L 1172 3053 
L 1172 1153 
Q 1172 725 1289 603 
Q 1406 481 1766 481 
L 2356 481 
L 2356 0 
L 1766 0 
Q 1100 0 847 248 
Q 594 497 594 1153 
L 594 3053 
L 172 3053 
L 172 3500 
L 594 3500 
L 594 4494 
L 1172 4494 
z
" transform="scale(0.015625)"/>
       <path id="DejaVuSans-73" d="M 2834 3397 
L 2834 2853 
Q 2591 2978 2328 3040 
Q 2066 3103 1784 3103 
Q 1356 3103 1142 2972 
Q 928 2841 928 2578 
Q 928 2378 1081 2264 
Q 1234 2150 1697 2047 
L 1894 2003 
Q 2506 1872 2764 1633 
Q 3022 1394 3022 966 
Q 3022 478 2636 193 
Q 2250 -91 1575 -91 
Q 1294 -91 989 -36 
Q 684 19 347 128 
L 347 722 
Q 666 556 975 473 
Q 1284 391 1588 391 
Q 1994 391 2212 530 
Q 2431 669 2431 922 
Q 2431 1156 2273 1281 
Q 2116 1406 1581 1522 
L 1381 1569 
Q 847 1681 609 1914 
Q 372 2147 372 2553 
Q 372 3047 722 3315 
Q 1072 3584 1716 3584 
Q 2034 3584 2315 3537 
Q 2597 3491 2834 3397 
z
" transform="scale(0.015625)"/>
      </defs>
      <use xlink:href="#DejaVuSans-50"/>
      <use xlink:href="#DejaVuSans-69" x="58.052734"/>
      <use xlink:href="#DejaVuSans-78" x="85.835938"/>
      <use xlink:href="#DejaVuSans-65" x="141.890625"/>
      <use xlink:href="#DejaVuSans-6c" x="203.414062"/>
      <use xlink:href="#DejaVuSans-20" x="231.197266"/>
      <use xlink:href="#DejaVuSans-49" x="262.984375"/>
      <use xlink:href="#DejaVuSans-6e" x="292.476562"/>
      <use xlink:href="#DejaVuSans-74" x="355.855469"/>
      <use xlink:href="#DejaVuSans-65" x="395.064453"/>
      <use xlink:href="#DejaVuSans-6e" x="456.587891"/>
      <use xlink:href="#DejaVuSans-73" x="519.966797"/>
      <use xlink:href="#DejaVuSans-69" x="572.066406"/>
      <use xlink:href="#DejaVuSans-74" x="599.849609"/>
      <use xlink:href="#DejaVuSans-79" x="639.058594"/>
     </g>
    </g>
   </g>
   <g id="matplotlib.axis_6">
    <g id="ytick_11">
     <g id="line2d_31">
      <g>
       <use xlink:href="#mef0313f9fd" x="57.17" y="606.04" style="stroke: #000000; stroke-width: 0.8"/>
      </g>
     </g>
     <g id="text_34">
      <!-- 0 -->
      <g transform="translate(43.8075 609.839219) scale(0.1 -0.1)">
       <use xlink:href="#DejaVuSans-30"/>
      </g>
     </g>
    </g>
    <g id="ytick_12">
     <g id="line2d_32">
      <g>
       <use xlink:href="#mef0313f9fd" x="57.17" y="563.906292" style="stroke: #000000; stroke-width: 0.8"/>
      </g>
     </g>
     <g id="text_35">
      <!-- 500 -->
      <g transform="translate(31.0825 567.705511) scale(0.1 -0.1)">
       <use xlink:href="#DejaVuSans-35"/>
       <use xlink:href="#DejaVuSans-30" x="63.623047"/>
       <use xlink:href="#DejaVuSans-30" x="127.246094"/>
      </g>
     </g>
    </g>
    <g id="ytick_13">
     <g id="line2d_33">
      <g>
       <use xlink:href="#mef0313f9fd" x="57.17" y="521.772584" style="stroke: #000000; stroke-width: 0.8"/>
      </g>
     </g>
     <g id="text_36">
      <!-- 1000 -->
      <g transform="translate(24.72 525.571802) scale(0.1 -0.1)">
       <use xlink:href="#DejaVuSans-31"/>
       <use xlink:href="#DejaVuSans-30" x="63.623047"/>
       <use xlink:href="#DejaVuSans-30" x="127.246094"/>
       <use xlink:href="#DejaVuSans-30" x="190.869141"/>
      </g>
     </g>
    </g>
    <g id="ytick_14">
     <g id="line2d_34">
      <g>
       <use xlink:href="#mef0313f9fd" x="57.17" y="479.638875" style="stroke: #000000; stroke-width: 0.8"/>
      </g>
     </g>
     <g id="text_37">
      <!-- 1500 -->
      <g transform="translate(24.72 483.438094) scale(0.1 -0.1)">
       <use xlink:href="#DejaVuSans-31"/>
       <use xlink:href="#DejaVuSans-35" x="63.623047"/>
       <use xlink:href="#DejaVuSans-30" x="127.246094"/>
       <use xlink:href="#DejaVuSans-30" x="190.869141"/>
      </g>
     </g>
    </g>
    <g id="ytick_15">
     <g id="line2d_35">
      <g>
       <use xlink:href="#mef0313f9fd" x="57.17" y="437.505167" style="stroke: #000000; stroke-width: 0.8"/>
      </g>
     </g>
     <g id="text_38">
      <!-- 2000 -->
      <g transform="translate(24.72 441.304386) scale(0.1 -0.1)">
       <use xlink:href="#DejaVuSans-32"/>
       <use xlink:href="#DejaVuSans-30" x="63.623047"/>
       <use xlink:href="#DejaVuSans-30" x="127.246094"/>
       <use xlink:href="#DejaVuSans-30" x="190.869141"/>
      </g>
     </g>
    </g>
    <g id="text_39">
     <!-- Pixel Frequency -->
     <g transform="translate(18.640313 555.105573) rotate(-90) scale(0.1 -0.1)">
      <use xlink:href="#DejaVuSans-50"/>
      <use xlink:href="#DejaVuSans-69" x="58.052734"/>
      <use xlink:href="#DejaVuSans-78" x="85.835938"/>
      <use xlink:href="#DejaVuSans-65" x="141.890625"/>
      <use xlink:href="#DejaVuSans-6c" x="203.414062"/>
      <use xlink:href="#DejaVuSans-20" x="231.197266"/>
      <use xlink:href="#DejaVuSans-46" x="262.984375"/>
      <use xlink:href="#DejaVuSans-72" x="313.253906"/>
      <use xlink:href="#DejaVuSans-65" x="352.117188"/>
      <use xlink:href="#DejaVuSans-71" x="413.640625"/>
      <use xlink:href="#DejaVuSans-75" x="477.117188"/>
      <use xlink:href="#DejaVuSans-65" x="540.496094"/>
      <use xlink:href="#DejaVuSans-6e" x="602.019531"/>
      <use xlink:href="#DejaVuSans-63" x="665.398438"/>
      <use xlink:href="#DejaVuSans-79" x="720.378906"/>
     </g>
    </g>
   </g>
   <g id="line2d_36">
    <path d="M 57.17 606.04 
L 80.745927 605.955733 
L 82.429921 605.365861 
L 83.271919 602.585036 
L 84.113916 596.939119 
L 84.955913 562.052409 
L 85.797911 490.593639 
L 86.639908 485.706129 
L 87.481906 504.666298 
L 88.323903 503.149485 
L 89.1659 508.20553 
L 90.007898 517.559213 
L 90.849895 528.598244 
L 91.691892 535.508172 
L 92.53389 545.114658 
L 93.375887 549.917901 
L 94.217885 552.530191 
L 95.059882 550.844842 
L 95.901879 553.20433 
L 96.743877 557.586236 
L 97.585874 566.518582 
L 98.427871 568.035395 
L 99.269869 569.973546 
L 100.111866 573.344242 
L 100.953864 573.512777 
L 101.795861 573.849847 
L 103.479856 576.630672 
L 104.321853 577.389078 
L 105.16385 576.125067 
L 106.005848 579.580031 
L 106.847845 581.096845 
L 107.689843 581.433914 
L 108.53184 580.59124 
L 109.373837 580.422705 
L 110.215835 581.096845 
L 111.057832 583.456332 
L 111.899829 584.383274 
L 112.741827 582.782193 
L 113.583824 582.950728 
L 114.425822 583.877669 
L 115.267819 583.961937 
L 116.951814 584.888878 
L 118.635808 583.034995 
L 119.477806 585.47875 
L 120.319803 586.911296 
L 121.161801 584.888878 
L 122.003798 586.321425 
L 122.845795 584.636076 
L 123.687793 586.574227 
L 124.52979 582.529391 
L 125.371787 584.467541 
L 126.213785 581.686717 
L 127.055782 583.287798 
L 127.89778 585.647285 
L 128.739777 584.299007 
L 129.581774 581.686717 
L 130.423772 586.742762 
L 131.265769 582.529391 
L 132.107766 585.647285 
L 132.949764 586.15289 
L 133.791761 585.310216 
L 134.633759 583.877669 
L 135.475756 582.192321 
L 136.317753 586.15289 
L 137.159751 587.669703 
L 138.001748 585.900087 
L 138.843745 583.287798 
L 139.685743 583.119263 
L 140.52774 584.551809 
L 141.369738 585.563018 
L 143.053732 581.433914 
L 143.89573 585.057413 
L 144.737727 587.753971 
L 145.579724 583.20353 
L 146.421722 582.782193 
L 147.263719 586.911296 
L 148.105717 582.782193 
L 148.947714 586.742762 
L 149.789711 584.888878 
L 150.631709 586.995564 
L 151.473706 587.669703 
L 152.315703 585.647285 
L 153.157701 586.911296 
L 153.999698 585.984355 
L 154.841696 587.922505 
L 155.683693 589.270784 
L 156.52569 587.164099 
L 157.367688 584.720344 
L 159.051682 587.248366 
L 159.89368 585.731553 
L 160.735677 587.922505 
L 161.577675 589.017982 
L 162.419672 589.607854 
L 163.261669 588.175308 
L 164.103667 588.175308 
L 164.945664 587.248366 
L 165.787661 588.259575 
L 166.629659 589.776389 
L 167.471656 589.439319 
L 168.313654 589.439319 
L 169.155651 589.017982 
L 169.997648 588.259575 
L 170.839646 590.450528 
L 171.681643 589.607854 
L 172.52364 590.956132 
L 173.365638 589.692121 
L 175.049633 589.270784 
L 175.89163 591.293202 
L 176.733627 591.798807 
L 177.575625 590.029191 
L 179.259619 592.641481 
L 180.101617 588.849447 
L 180.943614 590.281993 
L 181.785612 588.596645 
L 182.627609 589.355052 
L 183.469606 589.270784 
L 184.311604 589.692121 
L 185.153601 588.09104 
L 185.995598 591.0404 
L 186.837596 589.944923 
L 187.679593 589.607854 
L 188.521591 591.208935 
L 189.363588 590.871865 
L 190.205585 590.871865 
L 191.047583 592.304411 
L 191.88958 592.135876 
L 193.573575 592.557213 
L 194.415572 590.787598 
L 195.25757 590.70333 
L 196.099567 591.967341 
L 196.941564 591.546004 
L 197.783562 592.135876 
L 198.625559 594.495364 
L 199.467556 590.534795 
L 200.309554 592.220144 
L 201.151551 594.242562 
L 201.993549 591.630272 
L 202.835546 593.568422 
L 203.677543 593.484155 
L 204.519541 593.231353 
L 205.361538 595.253771 
L 206.203535 593.905492 
L 207.045533 594.074027 
L 207.88753 595.59084 
L 208.729528 592.641481 
L 209.571525 594.663899 
L 210.413522 596.349247 
L 211.25552 595.59084 
L 212.097517 595.506573 
L 212.939514 594.748166 
L 213.781512 595.000968 
L 214.623509 594.579631 
L 215.465507 595.000968 
L 216.307504 595.000968 
L 217.149501 597.360456 
L 217.991499 597.360456 
L 218.833496 597.781793 
L 219.675493 596.939119 
L 220.517491 598.287398 
L 221.359488 598.287398 
L 222.201486 596.517782 
L 223.043483 596.770584 
L 223.88548 599.214339 
L 224.727478 598.961537 
L 225.569475 597.107654 
L 226.411472 599.045804 
L 227.25347 597.107654 
L 228.095467 597.191921 
L 228.937465 598.961537 
L 229.779462 598.455933 
L 230.621459 599.382874 
L 231.463457 598.034595 
L 232.305454 598.87727 
L 233.147451 599.467142 
L 233.989449 598.371665 
L 234.831446 600.141281 
L 235.673444 599.214339 
L 236.515441 598.708735 
L 237.357438 598.708735 
L 238.199436 599.551409 
L 239.041433 600.141281 
L 240.725428 600.646885 
L 241.567425 599.719944 
L 243.25142 600.646885 
L 244.093417 601.658094 
L 244.935415 601.068222 
L 245.777412 601.658094 
L 246.619409 601.405292 
L 247.461407 600.731153 
L 248.303404 600.899688 
L 249.145402 602.247966 
L 250.829396 600.394083 
L 251.671394 602.585036 
L 252.513391 601.826629 
L 253.355388 602.416501 
L 254.197386 602.416501 
L 255.039383 601.068222 
L 255.881381 602.163699 
L 256.723378 602.922106 
L 257.565375 601.236757 
L 258.407373 602.163699 
L 259.24937 602.669303 
L 260.091367 601.910897 
L 260.933365 603.174908 
L 261.775362 602.163699 
L 262.61736 602.753571 
L 263.459357 602.247966 
L 264.301354 603.006373 
L 265.143352 603.006373 
L 265.985349 602.247966 
L 266.827346 604.186117 
L 267.669344 603.174908 
L 268.511341 603.006373 
L 269.353339 603.006373 
L 270.195336 604.270384 
L 271.037333 603.42771 
L 271.879331 602.753571 
L 271.879331 602.753571 
" clip-path="url(#p091c9c18b9)" style="fill: none; stroke: #0000ff; stroke-width: 1.5; stroke-linecap: square"/>
   </g>
   <g id="patch_13">
    <path d="M 57.17 606.04 
L 57.17 426.213333 
" style="fill: none; stroke: #000000; stroke-width: 0.8; stroke-linejoin: miter; stroke-linecap: square"/>
   </g>
   <g id="patch_14">
    <path d="M 272.721328 606.04 
L 272.721328 426.213333 
" style="fill: none; stroke: #000000; stroke-width: 0.8; stroke-linejoin: miter; stroke-linecap: square"/>
   </g>
   <g id="patch_15">
    <path d="M 57.17 606.04 
L 272.721328 606.04 
" style="fill: none; stroke: #000000; stroke-width: 0.8; stroke-linejoin: miter; stroke-linecap: square"/>
   </g>
   <g id="patch_16">
    <path d="M 57.17 426.213333 
L 272.721328 426.213333 
" style="fill: none; stroke: #000000; stroke-width: 0.8; stroke-linejoin: miter; stroke-linecap: square"/>
   </g>
   <g id="text_40">
    <!-- Blue Channel  -->
    <g transform="translate(189.272578 440.213333) scale(0.12 -0.12)">
     <defs>
      <path id="DejaVuSans-42" d="M 1259 2228 
L 1259 519 
L 2272 519 
Q 2781 519 3026 730 
Q 3272 941 3272 1375 
Q 3272 1813 3026 2020 
Q 2781 2228 2272 2228 
L 1259 2228 
z
M 1259 4147 
L 1259 2741 
L 2194 2741 
Q 2656 2741 2882 2914 
Q 3109 3088 3109 3444 
Q 3109 3797 2882 3972 
Q 2656 4147 2194 4147 
L 1259 4147 
z
M 628 4666 
L 2241 4666 
Q 2963 4666 3353 4366 
Q 3744 4066 3744 3513 
Q 3744 3084 3544 2831 
Q 3344 2578 2956 2516 
Q 3422 2416 3680 2098 
Q 3938 1781 3938 1306 
Q 3938 681 3513 340 
Q 3088 0 2303 0 
L 628 0 
L 628 4666 
z
" transform="scale(0.015625)"/>
     </defs>
     <use xlink:href="#DejaVuSans-42"/>
     <use xlink:href="#DejaVuSans-6c" x="68.603516"/>
     <use xlink:href="#DejaVuSans-75" x="96.386719"/>
     <use xlink:href="#DejaVuSans-65" x="159.765625"/>
     <use xlink:href="#DejaVuSans-20" x="221.289062"/>
     <use xlink:href="#DejaVuSans-43" x="253.076172"/>
     <use xlink:href="#DejaVuSans-68" x="322.900391"/>
     <use xlink:href="#DejaVuSans-61" x="386.279297"/>
     <use xlink:href="#DejaVuSans-6e" x="447.558594"/>
     <use xlink:href="#DejaVuSans-6e" x="510.9375"/>
     <use xlink:href="#DejaVuSans-65" x="574.316406"/>
     <use xlink:href="#DejaVuSans-6c" x="635.839844"/>
     <use xlink:href="#DejaVuSans-20" x="663.623047"/>
    </g>
   </g>
  </g>
 </g>
 <defs>
  <clipPath id="p6aa91fde3f">
   <rect x="57.17" y="10.8" width="215.551328" height="179.826667"/>
  </clipPath>
  <clipPath id="pe88195efdf">
   <rect x="57.17" y="218.506667" width="215.551328" height="179.826667"/>
  </clipPath>
  <clipPath id="p091c9c18b9">
   <rect x="57.17" y="426.213333" width="215.551328" height="179.826667"/>
  </clipPath>
 </defs>
</svg>
