<?xml version="1.0" encoding="utf-8" standalone="no"?>
<!DOCTYPE svg PUBLIC "-//W3C//DTD SVG 1.1//EN"
  "http://www.w3.org/Graphics/SVG/1.1/DTD/svg11.dtd">
<svg xmlns:xlink="http://www.w3.org/1999/xlink" width="288pt" height="648pt" viewBox="0 0 288 648" xmlns="http://www.w3.org/2000/svg" version="1.1">
 <metadata>
  <rdf:RDF xmlns:dc="http://purl.org/dc/elements/1.1/" xmlns:cc="http://creativecommons.org/ns#" xmlns:rdf="http://www.w3.org/1999/02/22-rdf-syntax-ns#">
   <cc:Work>
    <dc:type rdf:resource="http://purl.org/dc/dcmitype/StillImage"/>
    <dc:date>2023-11-18T15:18:11.642886</dc:date>
    <dc:format>image/svg+xml</dc:format>
    <dc:creator>
     <cc:Agent>
      <dc:title>Matplotlib v3.8.0, https://matplotlib.org/</dc:title>
     </cc:Agent>
    </dc:creator>
   </cc:Work>
  </rdf:RDF>
 </metadata>
 <defs>
  <style type="text/css">*{stroke-linejoin: round; stroke-linecap: butt}</style>
 </defs>
 <g id="figure_1">
  <g id="patch_1">
   <path d="M 0 648 
L 288 648 
L 288 0 
L 0 0 
z
" style="fill: #ffffff"/>
  </g>
  <g id="axes_1">
   <g id="patch_2">
    <path d="M 63.47 190.626667 
L 272.573672 190.626667 
L 272.573672 10.8 
L 63.47 10.8 
z
" style="fill: #ffffff"/>
   </g>
   <g id="PolyCollection_1">
    <defs>
     <path id="m226f969321" d="M 63.47 -457.373333 
L 63.47 -457.373333 
L 64.286811 -457.373333 
L 65.103622 -457.373333 
L 65.920434 -457.373333 
L 66.737245 -457.373333 
L 67.554056 -457.373333 
L 68.370867 -457.373333 
L 69.187679 -457.373333 
L 70.00449 -457.373333 
L 70.821301 -457.373333 
L 71.638112 -457.373333 
L 72.454923 -457.373333 
L 73.271735 -457.373333 
L 74.088546 -457.373333 
L 74.905357 -457.373333 
L 75.722168 -457.373333 
L 76.538979 -457.373333 
L 77.355791 -457.373333 
L 78.172602 -457.373333 
L 78.989413 -457.373333 
L 79.806224 -457.373333 
L 80.623036 -457.373333 
L 81.439847 -457.373333 
L 82.256658 -457.373333 
L 83.073469 -457.373333 
L 83.89028 -457.373333 
L 84.707092 -457.373333 
L 85.523903 -457.373333 
L 86.340714 -457.373333 
L 87.157525 -457.373333 
L 87.974337 -457.373333 
L 88.791148 -457.373333 
L 89.607959 -457.373333 
L 90.42477 -457.373333 
L 91.241581 -457.373333 
L 92.058393 -457.373333 
L 92.875204 -457.373333 
L 93.692015 -457.373333 
L 94.508826 -457.373333 
L 95.325638 -457.373333 
L 96.142449 -457.373333 
L 96.95926 -457.373333 
L 97.776071 -457.373333 
L 98.592882 -457.373333 
L 99.409694 -457.373333 
L 100.226505 -457.373333 
L 101.043316 -457.373333 
L 101.860127 -457.373333 
L 102.676938 -457.373333 
L 103.49375 -457.373333 
L 104.310561 -457.373333 
L 105.127372 -457.373333 
L 105.944183 -457.373333 
L 106.760995 -457.373333 
L 107.577806 -457.373333 
L 108.394617 -457.373333 
L 109.211428 -457.373333 
L 110.028239 -457.373333 
L 110.845051 -457.373333 
L 111.661862 -457.373333 
L 112.478673 -457.373333 
L 113.295484 -457.373333 
L 114.112296 -457.373333 
L 114.929107 -457.373333 
L 115.745918 -457.373333 
L 116.562729 -457.373333 
L 117.37954 -457.373333 
L 118.196352 -457.373333 
L 119.013163 -457.373333 
L 119.829974 -457.373333 
L 120.646785 -457.373333 
L 121.463596 -457.373333 
L 122.280408 -457.373333 
L 123.097219 -457.373333 
L 123.91403 -457.373333 
L 124.730841 -457.373333 
L 125.547653 -457.373333 
L 126.364464 -457.373333 
L 127.181275 -457.373333 
L 127.998086 -457.373333 
L 128.814897 -457.373333 
L 129.631709 -457.373333 
L 130.44852 -457.373333 
L 131.265331 -457.373333 
L 132.082142 -457.373333 
L 132.898954 -457.373333 
L 133.715765 -457.373333 
L 134.532576 -457.373333 
L 135.349387 -457.373333 
L 136.166198 -457.373333 
L 136.98301 -457.373333 
L 137.799821 -457.373333 
L 138.616632 -457.373333 
L 139.433443 -457.373333 
L 140.250255 -457.373333 
L 141.067066 -457.373333 
L 141.883877 -457.373333 
L 142.700688 -457.373333 
L 143.517499 -457.387902 
L 144.334311 -457.373333 
L 145.151122 -457.402472 
L 145.967933 -457.387902 
L 146.784744 -457.417041 
L 147.601555 -457.43161 
L 148.418367 -457.504455 
L 149.235178 -457.489886 
L 150.051989 -457.606439 
L 150.8688 -457.650147 
L 151.685612 -457.635578 
L 152.502423 -457.650147 
L 153.319234 -457.679285 
L 154.136045 -457.621008 
L 154.952856 -457.708423 
L 155.769668 -457.708423 
L 156.586479 -457.693854 
L 157.40329 -457.562732 
L 158.220101 -457.7667 
L 159.036913 -457.635578 
L 159.853724 -457.781269 
L 160.670535 -457.897822 
L 161.487346 -457.941529 
L 162.304157 -457.7667 
L 163.120969 -457.824976 
L 163.93778 -458.058082 
L 164.754591 -457.883253 
L 165.571402 -457.868683 
L 166.388214 -457.854114 
L 167.205025 -457.824976 
L 168.021836 -457.912391 
L 168.838647 -458.160066 
L 169.655458 -457.897822 
L 170.47227 -458.189204 
L 171.289081 -458.247481 
L 172.105892 -458.334895 
L 172.922703 -458.276619 
L 173.739514 -458.232912 
L 174.556326 -458.42231 
L 175.373137 -458.436879 
L 176.189948 -458.640847 
L 177.006759 -458.509725 
L 177.823571 -458.946798 
L 178.640382 -458.815676 
L 179.457193 -459.019644 
L 180.274004 -459.354734 
L 181.090815 -459.646116 
L 181.907627 -460.024913 
L 182.724438 -459.92293 
L 183.541249 -460.447418 
L 184.35806 -460.767939 
L 185.174872 -461.059321 
L 185.991683 -461.336134 
L 186.808494 -460.986475 
L 187.625305 -461.146736 
L 188.442116 -461.875192 
L 189.258928 -462.253989 
L 190.075739 -462.39968 
L 190.89255 -462.501664 
L 191.709361 -462.385111 
L 192.526172 -462.822185 
L 193.342984 -463.390381 
L 194.159795 -462.589079 
L 194.976606 -462.487095 
L 195.793417 -462.035452 
L 196.610229 -461.671224 
L 197.42704 -461.627517 
L 198.243851 -462.006314 
L 199.060662 -461.234151 
L 199.877473 -461.481826 
L 200.694285 -461.24872 
L 201.511096 -460.75337 
L 202.327907 -461.685793 
L 203.144718 -460.957337 
L 203.96153 -460.986475 
L 204.778341 -461.044752 
L 205.595152 -461.175874 
L 206.411963 -461.059321 
L 207.228774 -461.132167 
L 208.045586 -461.554671 
L 208.862397 -460.782508 
L 209.679208 -460.811646 
L 210.496019 -460.884492 
L 211.312831 -461.132167 
L 212.129642 -460.884492 
L 212.946453 -460.695093 
L 213.763264 -460.75337 
L 214.580075 -460.680524 
L 215.396887 -460.593109 
L 216.213698 -460.593109 
L 217.030509 -460.08319 
L 217.84732 -460.199743 
L 218.664131 -460.360003 
L 219.480943 -460.505694 
L 220.297754 -460.08319 
L 221.114565 -460.549402 
L 221.931376 -460.505694 
L 222.748188 -460.709662 
L 223.564999 -460.476556 
L 224.38181 -460.75337 
L 225.198621 -460.432849 
L 226.015432 -460.75337 
L 226.832244 -460.476556 
L 227.649055 -460.855353 
L 228.465866 -460.91363 
L 229.282677 -460.811646 
L 230.099489 -460.374572 
L 230.9163 -460.797077 
L 231.733111 -460.899061 
L 232.549922 -461.175874 
L 233.366733 -460.75337 
L 234.183545 -460.884492 
L 235.000356 -460.695093 
L 235.817167 -460.461987 
L 236.633978 -460.345434 
L 237.450789 -460.141466 
L 238.267601 -460.7388 
L 239.084412 -460.563971 
L 239.901223 -460.185174 
L 240.718034 -460.724231 
L 241.534846 -460.957337 
L 242.351657 -460.330865 
L 243.168468 -460.141466 
L 243.985279 -460.461987 
L 244.80209 -460.476556 
L 245.618902 -460.185174 
L 246.435713 -460.258019 
L 247.252524 -460.345434 
L 248.069335 -460.403711 
L 248.886147 -460.068621 
L 249.702958 -460.709662 
L 250.519769 -460.228881 
L 251.33658 -460.651386 
L 252.153391 -460.7388 
L 252.970203 -460.316296 
L 253.787014 -460.636817 
L 254.603825 -460.782508 
L 255.420636 -461.088459 
L 256.237448 -461.146736 
L 257.054259 -461.146736 
L 257.87107 -461.671224 
L 258.687881 -462.020883 
L 259.504692 -461.598379 
L 260.321504 -461.977176 
L 261.138315 -462.035452 
L 261.955126 -462.326835 
L 262.771937 -462.778477 
L 263.588748 -462.501664 
L 264.40556 -463.23012 
L 265.222371 -463.171844 
L 266.039182 -464.031422 
L 266.855993 -465.444627 
L 267.672805 -467.222059 
L 268.489616 -470.398128 
L 269.306427 -479.358138 
L 270.123238 -496.200042 
L 270.940049 -531.661284 
L 271.756861 -607.173041 
L 271.756861 -457.373333 
L 271.756861 -457.373333 
L 270.940049 -457.373333 
L 270.123238 -457.373333 
L 269.306427 -457.373333 
L 268.489616 -457.373333 
L 267.672805 -457.373333 
L 266.855993 -457.373333 
L 266.039182 -457.373333 
L 265.222371 -457.373333 
L 264.40556 -457.373333 
L 263.588748 -457.373333 
L 262.771937 -457.373333 
L 261.955126 -457.373333 
L 261.138315 -457.373333 
L 260.321504 -457.373333 
L 259.504692 -457.373333 
L 258.687881 -457.373333 
L 257.87107 -457.373333 
L 257.054259 -457.373333 
L 256.237448 -457.373333 
L 255.420636 -457.373333 
L 254.603825 -457.373333 
L 253.787014 -457.373333 
L 252.970203 -457.373333 
L 252.153391 -457.373333 
L 251.33658 -457.373333 
L 250.519769 -457.373333 
L 249.702958 -457.373333 
L 248.886147 -457.373333 
L 248.069335 -457.373333 
L 247.252524 -457.373333 
L 246.435713 -457.373333 
L 245.618902 -457.373333 
L 244.80209 -457.373333 
L 243.985279 -457.373333 
L 243.168468 -457.373333 
L 242.351657 -457.373333 
L 241.534846 -457.373333 
L 240.718034 -457.373333 
L 239.901223 -457.373333 
L 239.084412 -457.373333 
L 238.267601 -457.373333 
L 237.450789 -457.373333 
L 236.633978 -457.373333 
L 235.817167 -457.373333 
L 235.000356 -457.373333 
L 234.183545 -457.373333 
L 233.366733 -457.373333 
L 232.549922 -457.373333 
L 231.733111 -457.373333 
L 230.9163 -457.373333 
L 230.099489 -457.373333 
L 229.282677 -457.373333 
L 228.465866 -457.373333 
L 227.649055 -457.373333 
L 226.832244 -457.373333 
L 226.015432 -457.373333 
L 225.198621 -457.373333 
L 224.38181 -457.373333 
L 223.564999 -457.373333 
L 222.748188 -457.373333 
L 221.931376 -457.373333 
L 221.114565 -457.373333 
L 220.297754 -457.373333 
L 219.480943 -457.373333 
L 218.664131 -457.373333 
L 217.84732 -457.373333 
L 217.030509 -457.373333 
L 216.213698 -457.373333 
L 215.396887 -457.373333 
L 214.580075 -457.373333 
L 213.763264 -457.373333 
L 212.946453 -457.373333 
L 212.129642 -457.373333 
L 211.312831 -457.373333 
L 210.496019 -457.373333 
L 209.679208 -457.373333 
L 208.862397 -457.373333 
L 208.045586 -457.373333 
L 207.228774 -457.373333 
L 206.411963 -457.373333 
L 205.595152 -457.373333 
L 204.778341 -457.373333 
L 203.96153 -457.373333 
L 203.144718 -457.373333 
L 202.327907 -457.373333 
L 201.511096 -457.373333 
L 200.694285 -457.373333 
L 199.877473 -457.373333 
L 199.060662 -457.373333 
L 198.243851 -457.373333 
L 197.42704 -457.373333 
L 196.610229 -457.373333 
L 195.793417 -457.373333 
L 194.976606 -457.373333 
L 194.159795 -457.373333 
L 193.342984 -457.373333 
L 192.526172 -457.373333 
L 191.709361 -457.373333 
L 190.89255 -457.373333 
L 190.075739 -457.373333 
L 189.258928 -457.373333 
L 188.442116 -457.373333 
L 187.625305 -457.373333 
L 186.808494 -457.373333 
L 185.991683 -457.373333 
L 185.174872 -457.373333 
L 184.35806 -457.373333 
L 183.541249 -457.373333 
L 182.724438 -457.373333 
L 181.907627 -457.373333 
L 181.090815 -457.373333 
L 180.274004 -457.373333 
L 179.457193 -457.373333 
L 178.640382 -457.373333 
L 177.823571 -457.373333 
L 177.006759 -457.373333 
L 176.189948 -457.373333 
L 175.373137 -457.373333 
L 174.556326 -457.373333 
L 173.739514 -457.373333 
L 172.922703 -457.373333 
L 172.105892 -457.373333 
L 171.289081 -457.373333 
L 170.47227 -457.373333 
L 169.655458 -457.373333 
L 168.838647 -457.373333 
L 168.021836 -457.373333 
L 167.205025 -457.373333 
L 166.388214 -457.373333 
L 165.571402 -457.373333 
L 164.754591 -457.373333 
L 163.93778 -457.373333 
L 163.120969 -457.373333 
L 162.304157 -457.373333 
L 161.487346 -457.373333 
L 160.670535 -457.373333 
L 159.853724 -457.373333 
L 159.036913 -457.373333 
L 158.220101 -457.373333 
L 157.40329 -457.373333 
L 156.586479 -457.373333 
L 155.769668 -457.373333 
L 154.952856 -457.373333 
L 154.136045 -457.373333 
L 153.319234 -457.373333 
L 152.502423 -457.373333 
L 151.685612 -457.373333 
L 150.8688 -457.373333 
L 150.051989 -457.373333 
L 149.235178 -457.373333 
L 148.418367 -457.373333 
L 147.601555 -457.373333 
L 146.784744 -457.373333 
L 145.967933 -457.373333 
L 145.151122 -457.373333 
L 144.334311 -457.373333 
L 143.517499 -457.373333 
L 142.700688 -457.373333 
L 141.883877 -457.373333 
L 141.067066 -457.373333 
L 140.250255 -457.373333 
L 139.433443 -457.373333 
L 138.616632 -457.373333 
L 137.799821 -457.373333 
L 136.98301 -457.373333 
L 136.166198 -457.373333 
L 135.349387 -457.373333 
L 134.532576 -457.373333 
L 133.715765 -457.373333 
L 132.898954 -457.373333 
L 132.082142 -457.373333 
L 131.265331 -457.373333 
L 130.44852 -457.373333 
L 129.631709 -457.373333 
L 128.814897 -457.373333 
L 127.998086 -457.373333 
L 127.181275 -457.373333 
L 126.364464 -457.373333 
L 125.547653 -457.373333 
L 124.730841 -457.373333 
L 123.91403 -457.373333 
L 123.097219 -457.373333 
L 122.280408 -457.373333 
L 121.463596 -457.373333 
L 120.646785 -457.373333 
L 119.829974 -457.373333 
L 119.013163 -457.373333 
L 118.196352 -457.373333 
L 117.37954 -457.373333 
L 116.562729 -457.373333 
L 115.745918 -457.373333 
L 114.929107 -457.373333 
L 114.112296 -457.373333 
L 113.295484 -457.373333 
L 112.478673 -457.373333 
L 111.661862 -457.373333 
L 110.845051 -457.373333 
L 110.028239 -457.373333 
L 109.211428 -457.373333 
L 108.394617 -457.373333 
L 107.577806 -457.373333 
L 106.760995 -457.373333 
L 105.944183 -457.373333 
L 105.127372 -457.373333 
L 104.310561 -457.373333 
L 103.49375 -457.373333 
L 102.676938 -457.373333 
L 101.860127 -457.373333 
L 101.043316 -457.373333 
L 100.226505 -457.373333 
L 99.409694 -457.373333 
L 98.592882 -457.373333 
L 97.776071 -457.373333 
L 96.95926 -457.373333 
L 96.142449 -457.373333 
L 95.325638 -457.373333 
L 94.508826 -457.373333 
L 93.692015 -457.373333 
L 92.875204 -457.373333 
L 92.058393 -457.373333 
L 91.241581 -457.373333 
L 90.42477 -457.373333 
L 89.607959 -457.373333 
L 88.791148 -457.373333 
L 87.974337 -457.373333 
L 87.157525 -457.373333 
L 86.340714 -457.373333 
L 85.523903 -457.373333 
L 84.707092 -457.373333 
L 83.89028 -457.373333 
L 83.073469 -457.373333 
L 82.256658 -457.373333 
L 81.439847 -457.373333 
L 80.623036 -457.373333 
L 79.806224 -457.373333 
L 78.989413 -457.373333 
L 78.172602 -457.373333 
L 77.355791 -457.373333 
L 76.538979 -457.373333 
L 75.722168 -457.373333 
L 74.905357 -457.373333 
L 74.088546 -457.373333 
L 73.271735 -457.373333 
L 72.454923 -457.373333 
L 71.638112 -457.373333 
L 70.821301 -457.373333 
L 70.00449 -457.373333 
L 69.187679 -457.373333 
L 68.370867 -457.373333 
L 67.554056 -457.373333 
L 66.737245 -457.373333 
L 65.920434 -457.373333 
L 65.103622 -457.373333 
L 64.286811 -457.373333 
L 63.47 -457.373333 
z
" style="stroke: #ff0000; stroke-opacity: 0.4"/>
    </defs>
    <g clip-path="url(#p3062fc43be)">
     <use xlink:href="#m226f969321" x="0" y="648" style="fill: #ff0000; fill-opacity: 0.4; stroke: #ff0000; stroke-opacity: 0.4"/>
    </g>
   </g>
   <g id="matplotlib.axis_1">
    <g id="xtick_1">
     <g id="line2d_1">
      <defs>
       <path id="m56b9aeba01" d="M 0 0 
L 0 3.5 
" style="stroke: #000000; stroke-width: 0.8"/>
      </defs>
      <g>
       <use xlink:href="#m56b9aeba01" x="63.47" y="190.626667" style="stroke: #000000; stroke-width: 0.8"/>
      </g>
     </g>
     <g id="text_1">
      <!-- 0 -->
      <g transform="translate(60.28875 205.225104) scale(0.1 -0.1)">
       <defs>
        <path id="DejaVuSans-30" d="M 2034 4250 
Q 1547 4250 1301 3770 
Q 1056 3291 1056 2328 
Q 1056 1369 1301 889 
Q 1547 409 2034 409 
Q 2525 409 2770 889 
Q 3016 1369 3016 2328 
Q 3016 3291 2770 3770 
Q 2525 4250 2034 4250 
z
M 2034 4750 
Q 2819 4750 3233 4129 
Q 3647 3509 3647 2328 
Q 3647 1150 3233 529 
Q 2819 -91 2034 -91 
Q 1250 -91 836 529 
Q 422 1150 422 2328 
Q 422 3509 836 4129 
Q 1250 4750 2034 4750 
z
" transform="scale(0.015625)"/>
       </defs>
       <use xlink:href="#DejaVuSans-30"/>
      </g>
     </g>
    </g>
    <g id="xtick_2">
     <g id="line2d_2">
      <g>
       <use xlink:href="#m56b9aeba01" x="104.310561" y="190.626667" style="stroke: #000000; stroke-width: 0.8"/>
      </g>
     </g>
     <g id="text_2">
      <!-- 50 -->
      <g transform="translate(97.948061 205.225104) scale(0.1 -0.1)">
       <defs>
        <path id="DejaVuSans-35" d="M 691 4666 
L 3169 4666 
L 3169 4134 
L 1269 4134 
L 1269 2991 
Q 1406 3038 1543 3061 
Q 1681 3084 1819 3084 
Q 2600 3084 3056 2656 
Q 3513 2228 3513 1497 
Q 3513 744 3044 326 
Q 2575 -91 1722 -91 
Q 1428 -91 1123 -41 
Q 819 9 494 109 
L 494 744 
Q 775 591 1075 516 
Q 1375 441 1709 441 
Q 2250 441 2565 725 
Q 2881 1009 2881 1497 
Q 2881 1984 2565 2268 
Q 2250 2553 1709 2553 
Q 1456 2553 1204 2497 
Q 953 2441 691 2322 
L 691 4666 
z
" transform="scale(0.015625)"/>
       </defs>
       <use xlink:href="#DejaVuSans-35"/>
       <use xlink:href="#DejaVuSans-30" x="63.623047"/>
      </g>
     </g>
    </g>
    <g id="xtick_3">
     <g id="line2d_3">
      <g>
       <use xlink:href="#m56b9aeba01" x="145.151122" y="190.626667" style="stroke: #000000; stroke-width: 0.8"/>
      </g>
     </g>
     <g id="text_3">
      <!-- 100 -->
      <g transform="translate(135.607372 205.225104) scale(0.1 -0.1)">
       <defs>
        <path id="DejaVuSans-31" d="M 794 531 
L 1825 531 
L 1825 4091 
L 703 3866 
L 703 4441 
L 1819 4666 
L 2450 4666 
L 2450 531 
L 3481 531 
L 3481 0 
L 794 0 
L 794 531 
z
" transform="scale(0.015625)"/>
       </defs>
       <use xlink:href="#DejaVuSans-31"/>
       <use xlink:href="#DejaVuSans-30" x="63.623047"/>
       <use xlink:href="#DejaVuSans-30" x="127.246094"/>
      </g>
     </g>
    </g>
    <g id="xtick_4">
     <g id="line2d_4">
      <g>
       <use xlink:href="#m56b9aeba01" x="185.991683" y="190.626667" style="stroke: #000000; stroke-width: 0.8"/>
      </g>
     </g>
     <g id="text_4">
      <!-- 150 -->
      <g transform="translate(176.447933 205.225104) scale(0.1 -0.1)">
       <use xlink:href="#DejaVuSans-31"/>
       <use xlink:href="#DejaVuSans-35" x="63.623047"/>
       <use xlink:href="#DejaVuSans-30" x="127.246094"/>
      </g>
     </g>
    </g>
    <g id="xtick_5">
     <g id="line2d_5">
      <g>
       <use xlink:href="#m56b9aeba01" x="226.832244" y="190.626667" style="stroke: #000000; stroke-width: 0.8"/>
      </g>
     </g>
     <g id="text_5">
      <!-- 200 -->
      <g transform="translate(217.288494 205.225104) scale(0.1 -0.1)">
       <defs>
        <path id="DejaVuSans-32" d="M 1228 531 
L 3431 531 
L 3431 0 
L 469 0 
L 469 531 
Q 828 903 1448 1529 
Q 2069 2156 2228 2338 
Q 2531 2678 2651 2914 
Q 2772 3150 2772 3378 
Q 2772 3750 2511 3984 
Q 2250 4219 1831 4219 
Q 1534 4219 1204 4116 
Q 875 4013 500 3803 
L 500 4441 
Q 881 4594 1212 4672 
Q 1544 4750 1819 4750 
Q 2544 4750 2975 4387 
Q 3406 4025 3406 3419 
Q 3406 3131 3298 2873 
Q 3191 2616 2906 2266 
Q 2828 2175 2409 1742 
Q 1991 1309 1228 531 
z
" transform="scale(0.015625)"/>
       </defs>
       <use xlink:href="#DejaVuSans-32"/>
       <use xlink:href="#DejaVuSans-30" x="63.623047"/>
       <use xlink:href="#DejaVuSans-30" x="127.246094"/>
      </g>
     </g>
    </g>
    <g id="xtick_6">
     <g id="line2d_6">
      <g>
       <use xlink:href="#m56b9aeba01" x="267.672805" y="190.626667" style="stroke: #000000; stroke-width: 0.8"/>
      </g>
     </g>
     <g id="text_6">
      <!-- 250 -->
      <g transform="translate(258.129055 205.225104) scale(0.1 -0.1)">
       <use xlink:href="#DejaVuSans-32"/>
       <use xlink:href="#DejaVuSans-35" x="63.623047"/>
       <use xlink:href="#DejaVuSans-30" x="127.246094"/>
      </g>
     </g>
    </g>
   </g>
   <g id="matplotlib.axis_2">
    <g id="ytick_1">
     <g id="line2d_7">
      <defs>
       <path id="m935563c18b" d="M 0 0 
L -3.5 0 
" style="stroke: #000000; stroke-width: 0.8"/>
      </defs>
      <g>
       <use xlink:href="#m935563c18b" x="63.47" y="190.626667" style="stroke: #000000; stroke-width: 0.8"/>
      </g>
     </g>
     <g id="text_7">
      <!-- 0 -->
      <g transform="translate(50.1075 194.425885) scale(0.1 -0.1)">
       <use xlink:href="#DejaVuSans-30"/>
      </g>
     </g>
    </g>
    <g id="ytick_2">
     <g id="line2d_8">
      <g>
       <use xlink:href="#m935563c18b" x="63.47" y="161.488424" style="stroke: #000000; stroke-width: 0.8"/>
      </g>
     </g>
     <g id="text_8">
      <!-- 2000 -->
      <g transform="translate(31.02 165.287642) scale(0.1 -0.1)">
       <use xlink:href="#DejaVuSans-32"/>
       <use xlink:href="#DejaVuSans-30" x="63.623047"/>
       <use xlink:href="#DejaVuSans-30" x="127.246094"/>
       <use xlink:href="#DejaVuSans-30" x="190.869141"/>
      </g>
     </g>
    </g>
    <g id="ytick_3">
     <g id="line2d_9">
      <g>
       <use xlink:href="#m935563c18b" x="63.47" y="132.350181" style="stroke: #000000; stroke-width: 0.8"/>
      </g>
     </g>
     <g id="text_9">
      <!-- 4000 -->
      <g transform="translate(31.02 136.149399) scale(0.1 -0.1)">
       <defs>
        <path id="DejaVuSans-34" d="M 2419 4116 
L 825 1625 
L 2419 1625 
L 2419 4116 
z
M 2253 4666 
L 3047 4666 
L 3047 1625 
L 3713 1625 
L 3713 1100 
L 3047 1100 
L 3047 0 
L 2419 0 
L 2419 1100 
L 313 1100 
L 313 1709 
L 2253 4666 
z
" transform="scale(0.015625)"/>
       </defs>
       <use xlink:href="#DejaVuSans-34"/>
       <use xlink:href="#DejaVuSans-30" x="63.623047"/>
       <use xlink:href="#DejaVuSans-30" x="127.246094"/>
       <use xlink:href="#DejaVuSans-30" x="190.869141"/>
      </g>
     </g>
    </g>
    <g id="ytick_4">
     <g id="line2d_10">
      <g>
       <use xlink:href="#m935563c18b" x="63.47" y="103.211938" style="stroke: #000000; stroke-width: 0.8"/>
      </g>
     </g>
     <g id="text_10">
      <!-- 6000 -->
      <g transform="translate(31.02 107.011156) scale(0.1 -0.1)">
       <defs>
        <path id="DejaVuSans-36" d="M 2113 2584 
Q 1688 2584 1439 2293 
Q 1191 2003 1191 1497 
Q 1191 994 1439 701 
Q 1688 409 2113 409 
Q 2538 409 2786 701 
Q 3034 994 3034 1497 
Q 3034 2003 2786 2293 
Q 2538 2584 2113 2584 
z
M 3366 4563 
L 3366 3988 
Q 3128 4100 2886 4159 
Q 2644 4219 2406 4219 
Q 1781 4219 1451 3797 
Q 1122 3375 1075 2522 
Q 1259 2794 1537 2939 
Q 1816 3084 2150 3084 
Q 2853 3084 3261 2657 
Q 3669 2231 3669 1497 
Q 3669 778 3244 343 
Q 2819 -91 2113 -91 
Q 1303 -91 875 529 
Q 447 1150 447 2328 
Q 447 3434 972 4092 
Q 1497 4750 2381 4750 
Q 2619 4750 2861 4703 
Q 3103 4656 3366 4563 
z
" transform="scale(0.015625)"/>
       </defs>
       <use xlink:href="#DejaVuSans-36"/>
       <use xlink:href="#DejaVuSans-30" x="63.623047"/>
       <use xlink:href="#DejaVuSans-30" x="127.246094"/>
       <use xlink:href="#DejaVuSans-30" x="190.869141"/>
      </g>
     </g>
    </g>
    <g id="ytick_5">
     <g id="line2d_11">
      <g>
       <use xlink:href="#m935563c18b" x="63.47" y="74.073695" style="stroke: #000000; stroke-width: 0.8"/>
      </g>
     </g>
     <g id="text_11">
      <!-- 8000 -->
      <g transform="translate(31.02 77.872913) scale(0.1 -0.1)">
       <defs>
        <path id="DejaVuSans-38" d="M 2034 2216 
Q 1584 2216 1326 1975 
Q 1069 1734 1069 1313 
Q 1069 891 1326 650 
Q 1584 409 2034 409 
Q 2484 409 2743 651 
Q 3003 894 3003 1313 
Q 3003 1734 2745 1975 
Q 2488 2216 2034 2216 
z
M 1403 2484 
Q 997 2584 770 2862 
Q 544 3141 544 3541 
Q 544 4100 942 4425 
Q 1341 4750 2034 4750 
Q 2731 4750 3128 4425 
Q 3525 4100 3525 3541 
Q 3525 3141 3298 2862 
Q 3072 2584 2669 2484 
Q 3125 2378 3379 2068 
Q 3634 1759 3634 1313 
Q 3634 634 3220 271 
Q 2806 -91 2034 -91 
Q 1263 -91 848 271 
Q 434 634 434 1313 
Q 434 1759 690 2068 
Q 947 2378 1403 2484 
z
M 1172 3481 
Q 1172 3119 1398 2916 
Q 1625 2713 2034 2713 
Q 2441 2713 2670 2916 
Q 2900 3119 2900 3481 
Q 2900 3844 2670 4047 
Q 2441 4250 2034 4250 
Q 1625 4250 1398 4047 
Q 1172 3844 1172 3481 
z
" transform="scale(0.015625)"/>
       </defs>
       <use xlink:href="#DejaVuSans-38"/>
       <use xlink:href="#DejaVuSans-30" x="63.623047"/>
       <use xlink:href="#DejaVuSans-30" x="127.246094"/>
       <use xlink:href="#DejaVuSans-30" x="190.869141"/>
      </g>
     </g>
    </g>
    <g id="ytick_6">
     <g id="line2d_12">
      <g>
       <use xlink:href="#m935563c18b" x="63.47" y="44.935452" style="stroke: #000000; stroke-width: 0.8"/>
      </g>
     </g>
     <g id="text_12">
      <!-- 10000 -->
      <g transform="translate(24.6575 48.73467) scale(0.1 -0.1)">
       <use xlink:href="#DejaVuSans-31"/>
       <use xlink:href="#DejaVuSans-30" x="63.623047"/>
       <use xlink:href="#DejaVuSans-30" x="127.246094"/>
       <use xlink:href="#DejaVuSans-30" x="190.869141"/>
       <use xlink:href="#DejaVuSans-30" x="254.492188"/>
      </g>
     </g>
    </g>
    <g id="ytick_7">
     <g id="line2d_13">
      <g>
       <use xlink:href="#m935563c18b" x="63.47" y="15.797209" style="stroke: #000000; stroke-width: 0.8"/>
      </g>
     </g>
     <g id="text_13">
      <!-- 12000 -->
      <g transform="translate(24.6575 19.596427) scale(0.1 -0.1)">
       <use xlink:href="#DejaVuSans-31"/>
       <use xlink:href="#DejaVuSans-32" x="63.623047"/>
       <use xlink:href="#DejaVuSans-30" x="127.246094"/>
       <use xlink:href="#DejaVuSans-30" x="190.869141"/>
       <use xlink:href="#DejaVuSans-30" x="254.492188"/>
      </g>
     </g>
    </g>
    <g id="text_14">
     <!-- Pixel Frequency -->
     <g transform="translate(18.577812 139.69224) rotate(-90) scale(0.1 -0.1)">
      <defs>
       <path id="DejaVuSans-50" d="M 1259 4147 
L 1259 2394 
L 2053 2394 
Q 2494 2394 2734 2622 
Q 2975 2850 2975 3272 
Q 2975 3691 2734 3919 
Q 2494 4147 2053 4147 
L 1259 4147 
z
M 628 4666 
L 2053 4666 
Q 2838 4666 3239 4311 
Q 3641 3956 3641 3272 
Q 3641 2581 3239 2228 
Q 2838 1875 2053 1875 
L 1259 1875 
L 1259 0 
L 628 0 
L 628 4666 
z
" transform="scale(0.015625)"/>
       <path id="DejaVuSans-69" d="M 603 3500 
L 1178 3500 
L 1178 0 
L 603 0 
L 603 3500 
z
M 603 4863 
L 1178 4863 
L 1178 4134 
L 603 4134 
L 603 4863 
z
" transform="scale(0.015625)"/>
       <path id="DejaVuSans-78" d="M 3513 3500 
L 2247 1797 
L 3578 0 
L 2900 0 
L 1881 1375 
L 863 0 
L 184 0 
L 1544 1831 
L 300 3500 
L 978 3500 
L 1906 2253 
L 2834 3500 
L 3513 3500 
z
" transform="scale(0.015625)"/>
       <path id="DejaVuSans-65" d="M 3597 1894 
L 3597 1613 
L 953 1613 
Q 991 1019 1311 708 
Q 1631 397 2203 397 
Q 2534 397 2845 478 
Q 3156 559 3463 722 
L 3463 178 
Q 3153 47 2828 -22 
Q 2503 -91 2169 -91 
Q 1331 -91 842 396 
Q 353 884 353 1716 
Q 353 2575 817 3079 
Q 1281 3584 2069 3584 
Q 2775 3584 3186 3129 
Q 3597 2675 3597 1894 
z
M 3022 2063 
Q 3016 2534 2758 2815 
Q 2500 3097 2075 3097 
Q 1594 3097 1305 2825 
Q 1016 2553 972 2059 
L 3022 2063 
z
" transform="scale(0.015625)"/>
       <path id="DejaVuSans-6c" d="M 603 4863 
L 1178 4863 
L 1178 0 
L 603 0 
L 603 4863 
z
" transform="scale(0.015625)"/>
       <path id="DejaVuSans-20" transform="scale(0.015625)"/>
       <path id="DejaVuSans-46" d="M 628 4666 
L 3309 4666 
L 3309 4134 
L 1259 4134 
L 1259 2759 
L 3109 2759 
L 3109 2228 
L 1259 2228 
L 1259 0 
L 628 0 
L 628 4666 
z
" transform="scale(0.015625)"/>
       <path id="DejaVuSans-72" d="M 2631 2963 
Q 2534 3019 2420 3045 
Q 2306 3072 2169 3072 
Q 1681 3072 1420 2755 
Q 1159 2438 1159 1844 
L 1159 0 
L 581 0 
L 581 3500 
L 1159 3500 
L 1159 2956 
Q 1341 3275 1631 3429 
Q 1922 3584 2338 3584 
Q 2397 3584 2469 3576 
Q 2541 3569 2628 3553 
L 2631 2963 
z
" transform="scale(0.015625)"/>
       <path id="DejaVuSans-71" d="M 947 1747 
Q 947 1113 1208 752 
Q 1469 391 1925 391 
Q 2381 391 2643 752 
Q 2906 1113 2906 1747 
Q 2906 2381 2643 2742 
Q 2381 3103 1925 3103 
Q 1469 3103 1208 2742 
Q 947 2381 947 1747 
z
M 2906 525 
Q 2725 213 2448 61 
Q 2172 -91 1784 -91 
Q 1150 -91 751 415 
Q 353 922 353 1747 
Q 353 2572 751 3078 
Q 1150 3584 1784 3584 
Q 2172 3584 2448 3432 
Q 2725 3281 2906 2969 
L 2906 3500 
L 3481 3500 
L 3481 -1331 
L 2906 -1331 
L 2906 525 
z
" transform="scale(0.015625)"/>
       <path id="DejaVuSans-75" d="M 544 1381 
L 544 3500 
L 1119 3500 
L 1119 1403 
Q 1119 906 1312 657 
Q 1506 409 1894 409 
Q 2359 409 2629 706 
Q 2900 1003 2900 1516 
L 2900 3500 
L 3475 3500 
L 3475 0 
L 2900 0 
L 2900 538 
Q 2691 219 2414 64 
Q 2138 -91 1772 -91 
Q 1169 -91 856 284 
Q 544 659 544 1381 
z
M 1991 3584 
L 1991 3584 
z
" transform="scale(0.015625)"/>
       <path id="DejaVuSans-6e" d="M 3513 2113 
L 3513 0 
L 2938 0 
L 2938 2094 
Q 2938 2591 2744 2837 
Q 2550 3084 2163 3084 
Q 1697 3084 1428 2787 
Q 1159 2491 1159 1978 
L 1159 0 
L 581 0 
L 581 3500 
L 1159 3500 
L 1159 2956 
Q 1366 3272 1645 3428 
Q 1925 3584 2291 3584 
Q 2894 3584 3203 3211 
Q 3513 2838 3513 2113 
z
" transform="scale(0.015625)"/>
       <path id="DejaVuSans-63" d="M 3122 3366 
L 3122 2828 
Q 2878 2963 2633 3030 
Q 2388 3097 2138 3097 
Q 1578 3097 1268 2742 
Q 959 2388 959 1747 
Q 959 1106 1268 751 
Q 1578 397 2138 397 
Q 2388 397 2633 464 
Q 2878 531 3122 666 
L 3122 134 
Q 2881 22 2623 -34 
Q 2366 -91 2075 -91 
Q 1284 -91 818 406 
Q 353 903 353 1747 
Q 353 2603 823 3093 
Q 1294 3584 2113 3584 
Q 2378 3584 2631 3529 
Q 2884 3475 3122 3366 
z
" transform="scale(0.015625)"/>
       <path id="DejaVuSans-79" d="M 2059 -325 
Q 1816 -950 1584 -1140 
Q 1353 -1331 966 -1331 
L 506 -1331 
L 506 -850 
L 844 -850 
Q 1081 -850 1212 -737 
Q 1344 -625 1503 -206 
L 1606 56 
L 191 3500 
L 800 3500 
L 1894 763 
L 2988 3500 
L 3597 3500 
L 2059 -325 
z
" transform="scale(0.015625)"/>
      </defs>
      <use xlink:href="#DejaVuSans-50"/>
      <use xlink:href="#DejaVuSans-69" x="58.052734"/>
      <use xlink:href="#DejaVuSans-78" x="85.835938"/>
      <use xlink:href="#DejaVuSans-65" x="141.890625"/>
      <use xlink:href="#DejaVuSans-6c" x="203.414062"/>
      <use xlink:href="#DejaVuSans-20" x="231.197266"/>
      <use xlink:href="#DejaVuSans-46" x="262.984375"/>
      <use xlink:href="#DejaVuSans-72" x="313.253906"/>
      <use xlink:href="#DejaVuSans-65" x="352.117188"/>
      <use xlink:href="#DejaVuSans-71" x="413.640625"/>
      <use xlink:href="#DejaVuSans-75" x="477.117188"/>
      <use xlink:href="#DejaVuSans-65" x="540.496094"/>
      <use xlink:href="#DejaVuSans-6e" x="602.019531"/>
      <use xlink:href="#DejaVuSans-63" x="665.398438"/>
      <use xlink:href="#DejaVuSans-79" x="720.378906"/>
     </g>
    </g>
   </g>
   <g id="line2d_14">
    <path d="M 63.47 190.626667 
L 147.601555 190.56839 
L 150.8688 190.349853 
L 154.136045 190.378992 
L 155.769668 190.291577 
L 156.586479 190.306146 
L 157.40329 190.437268 
L 158.220101 190.2333 
L 159.036913 190.364422 
L 160.670535 190.102178 
L 161.487346 190.058471 
L 162.304157 190.2333 
L 163.120969 190.175024 
L 163.93778 189.941918 
L 164.754591 190.116747 
L 168.021836 190.087609 
L 168.838647 189.839934 
L 169.655458 190.102178 
L 170.47227 189.810796 
L 172.922703 189.723381 
L 173.739514 189.767088 
L 174.556326 189.57769 
L 175.373137 189.563121 
L 176.189948 189.359153 
L 177.006759 189.490275 
L 177.823571 189.053202 
L 178.640382 189.184324 
L 179.457193 188.980356 
L 181.907627 187.975087 
L 182.724438 188.07707 
L 183.541249 187.552582 
L 185.991683 186.663866 
L 186.808494 187.013525 
L 187.625305 186.853264 
L 188.442116 186.124808 
L 189.258928 185.746011 
L 190.89255 185.498336 
L 191.709361 185.614889 
L 192.526172 185.177815 
L 193.342984 184.609619 
L 194.159795 185.410921 
L 194.976606 185.512905 
L 196.610229 186.328776 
L 197.42704 186.372483 
L 198.243851 185.993686 
L 199.060662 186.765849 
L 199.877473 186.518174 
L 200.694285 186.75128 
L 201.511096 187.24663 
L 202.327907 186.314207 
L 203.144718 187.042663 
L 204.778341 186.955248 
L 205.595152 186.824126 
L 206.411963 186.940679 
L 207.228774 186.867833 
L 208.045586 186.445329 
L 208.862397 187.217492 
L 210.496019 187.115508 
L 211.312831 186.867833 
L 212.946453 187.304907 
L 213.763264 187.24663 
L 216.213698 187.406891 
L 217.030509 187.91681 
L 219.480943 187.494306 
L 220.297754 187.91681 
L 221.114565 187.450598 
L 221.931376 187.494306 
L 222.748188 187.290338 
L 223.564999 187.523444 
L 224.38181 187.24663 
L 225.198621 187.567151 
L 226.015432 187.24663 
L 226.832244 187.523444 
L 227.649055 187.144647 
L 228.465866 187.08637 
L 229.282677 187.188354 
L 230.099489 187.625428 
L 230.9163 187.202923 
L 231.733111 187.100939 
L 232.549922 186.824126 
L 233.366733 187.24663 
L 234.183545 187.115508 
L 237.450789 187.858534 
L 238.267601 187.2612 
L 239.084412 187.436029 
L 239.901223 187.814826 
L 240.718034 187.275769 
L 241.534846 187.042663 
L 242.351657 187.669135 
L 243.168468 187.858534 
L 243.985279 187.538013 
L 244.80209 187.523444 
L 245.618902 187.814826 
L 248.069335 187.596289 
L 248.886147 187.931379 
L 249.702958 187.290338 
L 250.519769 187.771119 
L 251.33658 187.348614 
L 252.153391 187.2612 
L 252.970203 187.683704 
L 253.787014 187.363183 
L 254.603825 187.217492 
L 255.420636 186.911541 
L 257.054259 186.853264 
L 257.87107 186.328776 
L 258.687881 185.979117 
L 259.504692 186.401621 
L 260.321504 186.022824 
L 261.138315 185.964548 
L 261.955126 185.673165 
L 262.771937 185.221523 
L 263.588748 185.498336 
L 264.40556 184.76988 
L 265.222371 184.828156 
L 266.039182 183.968578 
L 266.855993 182.555373 
L 267.672805 180.777941 
L 268.489616 177.601872 
L 269.306427 168.641862 
L 270.123238 151.799958 
L 270.940049 116.338716 
L 271.756861 40.826959 
L 271.756861 40.826959 
" clip-path="url(#p3062fc43be)" style="fill: none; stroke: #ff0000; stroke-width: 1.5; stroke-linecap: square"/>
   </g>
   <g id="patch_3">
    <path d="M 63.47 190.626667 
L 63.47 10.8 
" style="fill: none; stroke: #000000; stroke-width: 0.8; stroke-linejoin: miter; stroke-linecap: square"/>
   </g>
   <g id="patch_4">
    <path d="M 272.573672 190.626667 
L 272.573672 10.8 
" style="fill: none; stroke: #000000; stroke-width: 0.8; stroke-linejoin: miter; stroke-linecap: square"/>
   </g>
   <g id="patch_5">
    <path d="M 63.47 190.626667 
L 272.573672 190.626667 
" style="fill: none; stroke: #000000; stroke-width: 0.8; stroke-linejoin: miter; stroke-linecap: square"/>
   </g>
   <g id="patch_6">
    <path d="M 63.47 10.8 
L 272.573672 10.8 
" style="fill: none; stroke: #000000; stroke-width: 0.8; stroke-linejoin: miter; stroke-linecap: square"/>
   </g>
   <g id="text_15">
    <!-- Red Channel  -->
    <g transform="translate(192.880547 24.8) scale(0.12 -0.12)">
     <defs>
      <path id="DejaVuSans-52" d="M 2841 2188 
Q 3044 2119 3236 1894 
Q 3428 1669 3622 1275 
L 4263 0 
L 3584 0 
L 2988 1197 
Q 2756 1666 2539 1819 
Q 2322 1972 1947 1972 
L 1259 1972 
L 1259 0 
L 628 0 
L 628 4666 
L 2053 4666 
Q 2853 4666 3247 4331 
Q 3641 3997 3641 3322 
Q 3641 2881 3436 2590 
Q 3231 2300 2841 2188 
z
M 1259 4147 
L 1259 2491 
L 2053 2491 
Q 2509 2491 2742 2702 
Q 2975 2913 2975 3322 
Q 2975 3731 2742 3939 
Q 2509 4147 2053 4147 
L 1259 4147 
z
" transform="scale(0.015625)"/>
      <path id="DejaVuSans-64" d="M 2906 2969 
L 2906 4863 
L 3481 4863 
L 3481 0 
L 2906 0 
L 2906 525 
Q 2725 213 2448 61 
Q 2172 -91 1784 -91 
Q 1150 -91 751 415 
Q 353 922 353 1747 
Q 353 2572 751 3078 
Q 1150 3584 1784 3584 
Q 2172 3584 2448 3432 
Q 2725 3281 2906 2969 
z
M 947 1747 
Q 947 1113 1208 752 
Q 1469 391 1925 391 
Q 2381 391 2643 752 
Q 2906 1113 2906 1747 
Q 2906 2381 2643 2742 
Q 2381 3103 1925 3103 
Q 1469 3103 1208 2742 
Q 947 2381 947 1747 
z
" transform="scale(0.015625)"/>
      <path id="DejaVuSans-43" d="M 4122 4306 
L 4122 3641 
Q 3803 3938 3442 4084 
Q 3081 4231 2675 4231 
Q 1875 4231 1450 3742 
Q 1025 3253 1025 2328 
Q 1025 1406 1450 917 
Q 1875 428 2675 428 
Q 3081 428 3442 575 
Q 3803 722 4122 1019 
L 4122 359 
Q 3791 134 3420 21 
Q 3050 -91 2638 -91 
Q 1578 -91 968 557 
Q 359 1206 359 2328 
Q 359 3453 968 4101 
Q 1578 4750 2638 4750 
Q 3056 4750 3426 4639 
Q 3797 4528 4122 4306 
z
" transform="scale(0.015625)"/>
      <path id="DejaVuSans-68" d="M 3513 2113 
L 3513 0 
L 2938 0 
L 2938 2094 
Q 2938 2591 2744 2837 
Q 2550 3084 2163 3084 
Q 1697 3084 1428 2787 
Q 1159 2491 1159 1978 
L 1159 0 
L 581 0 
L 581 4863 
L 1159 4863 
L 1159 2956 
Q 1366 3272 1645 3428 
Q 1925 3584 2291 3584 
Q 2894 3584 3203 3211 
Q 3513 2838 3513 2113 
z
" transform="scale(0.015625)"/>
      <path id="DejaVuSans-61" d="M 2194 1759 
Q 1497 1759 1228 1600 
Q 959 1441 959 1056 
Q 959 750 1161 570 
Q 1363 391 1709 391 
Q 2188 391 2477 730 
Q 2766 1069 2766 1631 
L 2766 1759 
L 2194 1759 
z
M 3341 1997 
L 3341 0 
L 2766 0 
L 2766 531 
Q 2569 213 2275 61 
Q 1981 -91 1556 -91 
Q 1019 -91 701 211 
Q 384 513 384 1019 
Q 384 1609 779 1909 
Q 1175 2209 1959 2209 
L 2766 2209 
L 2766 2266 
Q 2766 2663 2505 2880 
Q 2244 3097 1772 3097 
Q 1472 3097 1187 3025 
Q 903 2953 641 2809 
L 641 3341 
Q 956 3463 1253 3523 
Q 1550 3584 1831 3584 
Q 2591 3584 2966 3190 
Q 3341 2797 3341 1997 
z
" transform="scale(0.015625)"/>
     </defs>
     <use xlink:href="#DejaVuSans-52"/>
     <use xlink:href="#DejaVuSans-65" x="64.982422"/>
     <use xlink:href="#DejaVuSans-64" x="126.505859"/>
     <use xlink:href="#DejaVuSans-20" x="189.982422"/>
     <use xlink:href="#DejaVuSans-43" x="221.769531"/>
     <use xlink:href="#DejaVuSans-68" x="291.59375"/>
     <use xlink:href="#DejaVuSans-61" x="354.972656"/>
     <use xlink:href="#DejaVuSans-6e" x="416.251953"/>
     <use xlink:href="#DejaVuSans-6e" x="479.630859"/>
     <use xlink:href="#DejaVuSans-65" x="543.009766"/>
     <use xlink:href="#DejaVuSans-6c" x="604.533203"/>
     <use xlink:href="#DejaVuSans-20" x="632.316406"/>
    </g>
   </g>
  </g>
  <g id="axes_2">
   <g id="patch_7">
    <path d="M 63.47 398.333333 
L 272.573672 398.333333 
L 272.573672 218.506667 
L 63.47 218.506667 
z
" style="fill: #ffffff"/>
   </g>
   <g id="PolyCollection_2">
    <defs>
     <path id="ma3d34dcd31" d="M 63.47 -249.666667 
L 63.47 -249.666667 
L 64.286811 -249.666667 
L 65.103622 -249.666667 
L 65.920434 -249.666667 
L 66.737245 -249.666667 
L 67.554056 -249.666667 
L 68.370867 -249.666667 
L 69.187679 -249.666667 
L 70.00449 -249.666667 
L 70.821301 -249.666667 
L 71.638112 -249.666667 
L 72.454923 -249.666667 
L 73.271735 -249.666667 
L 74.088546 -249.666667 
L 74.905357 -249.666667 
L 75.722168 -249.666667 
L 76.538979 -249.666667 
L 77.355791 -249.666667 
L 78.172602 -249.666667 
L 78.989413 -249.666667 
L 79.806224 -249.666667 
L 80.623036 -249.666667 
L 81.439847 -249.666667 
L 82.256658 -249.666667 
L 83.073469 -249.666667 
L 83.89028 -249.666667 
L 84.707092 -249.666667 
L 85.523903 -249.666667 
L 86.340714 -249.666667 
L 87.157525 -249.666667 
L 87.974337 -249.666667 
L 88.791148 -249.666667 
L 89.607959 -249.666667 
L 90.42477 -249.666667 
L 91.241581 -249.666667 
L 92.058393 -249.666667 
L 92.875204 -249.666667 
L 93.692015 -249.666667 
L 94.508826 -249.666667 
L 95.325638 -249.666667 
L 96.142449 -249.666667 
L 96.95926 -249.666667 
L 97.776071 -249.666667 
L 98.592882 -249.666667 
L 99.409694 -249.666667 
L 100.226505 -249.666667 
L 101.043316 -249.666667 
L 101.860127 -249.666667 
L 102.676938 -249.666667 
L 103.49375 -249.666667 
L 104.310561 -249.666667 
L 105.127372 -249.666667 
L 105.944183 -249.666667 
L 106.760995 -249.666667 
L 107.577806 -249.666667 
L 108.394617 -249.666667 
L 109.211428 -249.666667 
L 110.028239 -249.666667 
L 110.845051 -249.666667 
L 111.661862 -249.666667 
L 112.478673 -249.666667 
L 113.295484 -249.666667 
L 114.112296 -249.666667 
L 114.929107 -249.666667 
L 115.745918 -249.666667 
L 116.562729 -249.666667 
L 117.37954 -249.666667 
L 118.196352 -249.666667 
L 119.013163 -249.666667 
L 119.829974 -249.666667 
L 120.646785 -249.666667 
L 121.463596 -249.666667 
L 122.280408 -249.666667 
L 123.097219 -249.666667 
L 123.91403 -249.666667 
L 124.730841 -249.666667 
L 125.547653 -249.666667 
L 126.364464 -249.666667 
L 127.181275 -249.666667 
L 127.998086 -249.666667 
L 128.814897 -249.666667 
L 129.631709 -249.666667 
L 130.44852 -249.666667 
L 131.265331 -249.666667 
L 132.082142 -249.666667 
L 132.898954 -249.666667 
L 133.715765 -249.666667 
L 134.532576 -249.666667 
L 135.349387 -249.666667 
L 136.166198 -249.666667 
L 136.98301 -249.666667 
L 137.799821 -249.666667 
L 138.616632 -249.666667 
L 139.433443 -249.666667 
L 140.250255 -249.681236 
L 141.067066 -249.666667 
L 141.883877 -249.681236 
L 142.700688 -249.681236 
L 143.517499 -249.681236 
L 144.334311 -249.710374 
L 145.151122 -249.754081 
L 145.967933 -249.768651 
L 146.784744 -249.739512 
L 147.601555 -249.841496 
L 148.418367 -249.870634 
L 149.235178 -249.812358 
L 150.051989 -249.812358 
L 150.8688 -249.870634 
L 151.685612 -249.987187 
L 152.502423 -249.914342 
L 153.319234 -249.94348 
L 154.136045 -250.001756 
L 154.952856 -249.94348 
L 155.769668 -249.899773 
L 156.586479 -249.841496 
L 157.40329 -249.914342 
L 158.220101 -249.928911 
L 159.036913 -249.958049 
L 159.853724 -250.030895 
L 160.670535 -250.030895 
L 161.487346 -249.928911 
L 162.304157 -250.001756 
L 163.120969 -250.045464 
L 163.93778 -250.234862 
L 164.754591 -250.205724 
L 165.571402 -250.147448 
L 166.388214 -250.030895 
L 167.205025 -250.176586 
L 168.021836 -250.118309 
L 168.838647 -250.060033 
L 169.655458 -250.191155 
L 170.47227 -250.10374 
L 171.289081 -250.43883 
L 172.105892 -250.264001 
L 172.922703 -250.497107 
L 173.739514 -250.336846 
L 174.556326 -250.482537 
L 175.373137 -250.380554 
L 176.189948 -250.642798 
L 177.006759 -250.555383 
L 177.823571 -250.832196 
L 178.640382 -250.701074 
L 179.457193 -250.788489 
L 180.274004 -251.167286 
L 181.090815 -251.210994 
L 181.907627 -251.677205 
L 182.724438 -251.648067 
L 183.541249 -252.09971 
L 184.35806 -251.983157 
L 185.174872 -251.968588 
L 185.991683 -252.507645 
L 186.808494 -252.624198 
L 187.625305 -252.857304 
L 188.442116 -252.478507 
L 189.258928 -253.046703 
L 190.075739 -253.323516 
L 190.89255 -253.440069 
L 191.709361 -253.469207 
L 192.526172 -253.542053 
L 193.342984 -253.775159 
L 194.159795 -254.110249 
L 194.976606 -254.518184 
L 195.793417 -254.430769 
L 196.610229 -254.066541 
L 197.42704 -253.498346 
L 198.243851 -253.716882 
L 199.060662 -253.410931 
L 199.877473 -253.367224 
L 200.694285 -252.638767 
L 201.511096 -253.119548 
L 202.327907 -253.134118 
L 203.144718 -253.09041 
L 203.96153 -252.609629 
L 204.778341 -252.59506 
L 205.595152 -253.148687 
L 206.411963 -252.4348 
L 207.228774 -252.76989 
L 208.045586 -252.76989 
L 208.862397 -252.536784 
L 209.679208 -252.565922 
L 210.496019 -253.017565 
L 211.312831 -252.682475 
L 212.129642 -252.522214 
L 212.946453 -252.726182 
L 213.763264 -252.828166 
L 214.580075 -252.59506 
L 215.396887 -252.711613 
L 216.213698 -252.653337 
L 217.030509 -252.76989 
L 217.84732 -252.463938 
L 218.664131 -252.857304 
L 219.480943 -252.478507 
L 220.297754 -251.997726 
L 221.114565 -252.25997 
L 221.931376 -252.609629 
L 222.748188 -252.886443 
L 223.564999 -252.289109 
L 224.38181 -252.463938 
L 225.198621 -252.4348 
L 226.015432 -252.609629 
L 226.832244 -252.638767 
L 227.649055 -252.157986 
L 228.465866 -252.536784 
L 229.282677 -252.624198 
L 230.099489 -252.667906 
L 230.9163 -252.347385 
L 231.733111 -252.522214 
L 232.549922 -252.551353 
L 233.366733 -253.002995 
L 234.183545 -252.522214 
L 235.000356 -252.609629 
L 235.817167 -252.449369 
L 236.633978 -253.046703 
L 237.450789 -252.799028 
L 238.267601 -252.230832 
L 239.084412 -252.580491 
L 239.901223 -252.59506 
L 240.718034 -252.361954 
L 241.534846 -252.901012 
L 242.351657 -252.565922 
L 243.168468 -252.871873 
L 243.985279 -252.93015 
L 244.80209 -252.901012 
L 245.618902 -253.046703 
L 246.435713 -252.886443 
L 247.252524 -253.177825 
L 248.069335 -252.507645 
L 248.886147 -252.420231 
L 249.702958 -252.697044 
L 250.519769 -252.09971 
L 251.33658 -252.59506 
L 252.153391 -252.784459 
L 252.970203 -252.551353 
L 253.787014 -252.76989 
L 254.603825 -252.361954 
L 255.420636 -252.25997 
L 256.237448 -253.206963 
L 257.054259 -253.338085 
L 257.87107 -253.542053 
L 258.687881 -253.061272 
L 259.504692 -252.915581 
L 260.321504 -252.959288 
L 261.138315 -253.498346 
L 261.955126 -253.177825 
L 262.771937 -253.440069 
L 263.588748 -254.270509 
L 264.40556 -254.124818 
L 265.222371 -254.92612 
L 266.039182 -255.319486 
L 266.855993 -257.40287 
L 267.672805 -260.753768 
L 268.489616 -264.250357 
L 269.306427 -271.928284 
L 270.123238 -291.90255 
L 270.940049 -346.595032 
L 271.756861 -429.493333 
L 271.756861 -249.666667 
L 271.756861 -249.666667 
L 270.940049 -249.666667 
L 270.123238 -249.666667 
L 269.306427 -249.666667 
L 268.489616 -249.666667 
L 267.672805 -249.666667 
L 266.855993 -249.666667 
L 266.039182 -249.666667 
L 265.222371 -249.666667 
L 264.40556 -249.666667 
L 263.588748 -249.666667 
L 262.771937 -249.666667 
L 261.955126 -249.666667 
L 261.138315 -249.666667 
L 260.321504 -249.666667 
L 259.504692 -249.666667 
L 258.687881 -249.666667 
L 257.87107 -249.666667 
L 257.054259 -249.666667 
L 256.237448 -249.666667 
L 255.420636 -249.666667 
L 254.603825 -249.666667 
L 253.787014 -249.666667 
L 252.970203 -249.666667 
L 252.153391 -249.666667 
L 251.33658 -249.666667 
L 250.519769 -249.666667 
L 249.702958 -249.666667 
L 248.886147 -249.666667 
L 248.069335 -249.666667 
L 247.252524 -249.666667 
L 246.435713 -249.666667 
L 245.618902 -249.666667 
L 244.80209 -249.666667 
L 243.985279 -249.666667 
L 243.168468 -249.666667 
L 242.351657 -249.666667 
L 241.534846 -249.666667 
L 240.718034 -249.666667 
L 239.901223 -249.666667 
L 239.084412 -249.666667 
L 238.267601 -249.666667 
L 237.450789 -249.666667 
L 236.633978 -249.666667 
L 235.817167 -249.666667 
L 235.000356 -249.666667 
L 234.183545 -249.666667 
L 233.366733 -249.666667 
L 232.549922 -249.666667 
L 231.733111 -249.666667 
L 230.9163 -249.666667 
L 230.099489 -249.666667 
L 229.282677 -249.666667 
L 228.465866 -249.666667 
L 227.649055 -249.666667 
L 226.832244 -249.666667 
L 226.015432 -249.666667 
L 225.198621 -249.666667 
L 224.38181 -249.666667 
L 223.564999 -249.666667 
L 222.748188 -249.666667 
L 221.931376 -249.666667 
L 221.114565 -249.666667 
L 220.297754 -249.666667 
L 219.480943 -249.666667 
L 218.664131 -249.666667 
L 217.84732 -249.666667 
L 217.030509 -249.666667 
L 216.213698 -249.666667 
L 215.396887 -249.666667 
L 214.580075 -249.666667 
L 213.763264 -249.666667 
L 212.946453 -249.666667 
L 212.129642 -249.666667 
L 211.312831 -249.666667 
L 210.496019 -249.666667 
L 209.679208 -249.666667 
L 208.862397 -249.666667 
L 208.045586 -249.666667 
L 207.228774 -249.666667 
L 206.411963 -249.666667 
L 205.595152 -249.666667 
L 204.778341 -249.666667 
L 203.96153 -249.666667 
L 203.144718 -249.666667 
L 202.327907 -249.666667 
L 201.511096 -249.666667 
L 200.694285 -249.666667 
L 199.877473 -249.666667 
L 199.060662 -249.666667 
L 198.243851 -249.666667 
L 197.42704 -249.666667 
L 196.610229 -249.666667 
L 195.793417 -249.666667 
L 194.976606 -249.666667 
L 194.159795 -249.666667 
L 193.342984 -249.666667 
L 192.526172 -249.666667 
L 191.709361 -249.666667 
L 190.89255 -249.666667 
L 190.075739 -249.666667 
L 189.258928 -249.666667 
L 188.442116 -249.666667 
L 187.625305 -249.666667 
L 186.808494 -249.666667 
L 185.991683 -249.666667 
L 185.174872 -249.666667 
L 184.35806 -249.666667 
L 183.541249 -249.666667 
L 182.724438 -249.666667 
L 181.907627 -249.666667 
L 181.090815 -249.666667 
L 180.274004 -249.666667 
L 179.457193 -249.666667 
L 178.640382 -249.666667 
L 177.823571 -249.666667 
L 177.006759 -249.666667 
L 176.189948 -249.666667 
L 175.373137 -249.666667 
L 174.556326 -249.666667 
L 173.739514 -249.666667 
L 172.922703 -249.666667 
L 172.105892 -249.666667 
L 171.289081 -249.666667 
L 170.47227 -249.666667 
L 169.655458 -249.666667 
L 168.838647 -249.666667 
L 168.021836 -249.666667 
L 167.205025 -249.666667 
L 166.388214 -249.666667 
L 165.571402 -249.666667 
L 164.754591 -249.666667 
L 163.93778 -249.666667 
L 163.120969 -249.666667 
L 162.304157 -249.666667 
L 161.487346 -249.666667 
L 160.670535 -249.666667 
L 159.853724 -249.666667 
L 159.036913 -249.666667 
L 158.220101 -249.666667 
L 157.40329 -249.666667 
L 156.586479 -249.666667 
L 155.769668 -249.666667 
L 154.952856 -249.666667 
L 154.136045 -249.666667 
L 153.319234 -249.666667 
L 152.502423 -249.666667 
L 151.685612 -249.666667 
L 150.8688 -249.666667 
L 150.051989 -249.666667 
L 149.235178 -249.666667 
L 148.418367 -249.666667 
L 147.601555 -249.666667 
L 146.784744 -249.666667 
L 145.967933 -249.666667 
L 145.151122 -249.666667 
L 144.334311 -249.666667 
L 143.517499 -249.666667 
L 142.700688 -249.666667 
L 141.883877 -249.666667 
L 141.067066 -249.666667 
L 140.250255 -249.666667 
L 139.433443 -249.666667 
L 138.616632 -249.666667 
L 137.799821 -249.666667 
L 136.98301 -249.666667 
L 136.166198 -249.666667 
L 135.349387 -249.666667 
L 134.532576 -249.666667 
L 133.715765 -249.666667 
L 132.898954 -249.666667 
L 132.082142 -249.666667 
L 131.265331 -249.666667 
L 130.44852 -249.666667 
L 129.631709 -249.666667 
L 128.814897 -249.666667 
L 127.998086 -249.666667 
L 127.181275 -249.666667 
L 126.364464 -249.666667 
L 125.547653 -249.666667 
L 124.730841 -249.666667 
L 123.91403 -249.666667 
L 123.097219 -249.666667 
L 122.280408 -249.666667 
L 121.463596 -249.666667 
L 120.646785 -249.666667 
L 119.829974 -249.666667 
L 119.013163 -249.666667 
L 118.196352 -249.666667 
L 117.37954 -249.666667 
L 116.562729 -249.666667 
L 115.745918 -249.666667 
L 114.929107 -249.666667 
L 114.112296 -249.666667 
L 113.295484 -249.666667 
L 112.478673 -249.666667 
L 111.661862 -249.666667 
L 110.845051 -249.666667 
L 110.028239 -249.666667 
L 109.211428 -249.666667 
L 108.394617 -249.666667 
L 107.577806 -249.666667 
L 106.760995 -249.666667 
L 105.944183 -249.666667 
L 105.127372 -249.666667 
L 104.310561 -249.666667 
L 103.49375 -249.666667 
L 102.676938 -249.666667 
L 101.860127 -249.666667 
L 101.043316 -249.666667 
L 100.226505 -249.666667 
L 99.409694 -249.666667 
L 98.592882 -249.666667 
L 97.776071 -249.666667 
L 96.95926 -249.666667 
L 96.142449 -249.666667 
L 95.325638 -249.666667 
L 94.508826 -249.666667 
L 93.692015 -249.666667 
L 92.875204 -249.666667 
L 92.058393 -249.666667 
L 91.241581 -249.666667 
L 90.42477 -249.666667 
L 89.607959 -249.666667 
L 88.791148 -249.666667 
L 87.974337 -249.666667 
L 87.157525 -249.666667 
L 86.340714 -249.666667 
L 85.523903 -249.666667 
L 84.707092 -249.666667 
L 83.89028 -249.666667 
L 83.073469 -249.666667 
L 82.256658 -249.666667 
L 81.439847 -249.666667 
L 80.623036 -249.666667 
L 79.806224 -249.666667 
L 78.989413 -249.666667 
L 78.172602 -249.666667 
L 77.355791 -249.666667 
L 76.538979 -249.666667 
L 75.722168 -249.666667 
L 74.905357 -249.666667 
L 74.088546 -249.666667 
L 73.271735 -249.666667 
L 72.454923 -249.666667 
L 71.638112 -249.666667 
L 70.821301 -249.666667 
L 70.00449 -249.666667 
L 69.187679 -249.666667 
L 68.370867 -249.666667 
L 67.554056 -249.666667 
L 66.737245 -249.666667 
L 65.920434 -249.666667 
L 65.103622 -249.666667 
L 64.286811 -249.666667 
L 63.47 -249.666667 
z
" style="stroke: #008000; stroke-opacity: 0.4"/>
    </defs>
    <g clip-path="url(#pbb5e5ecf6e)">
     <use xlink:href="#ma3d34dcd31" x="0" y="648" style="fill: #008000; fill-opacity: 0.4; stroke: #008000; stroke-opacity: 0.4"/>
    </g>
   </g>
   <g id="matplotlib.axis_3">
    <g id="xtick_7">
     <g id="line2d_15">
      <g>
       <use xlink:href="#m56b9aeba01" x="63.47" y="398.333333" style="stroke: #000000; stroke-width: 0.8"/>
      </g>
     </g>
     <g id="text_16">
      <!-- 0 -->
      <g transform="translate(60.28875 412.931771) scale(0.1 -0.1)">
       <use xlink:href="#DejaVuSans-30"/>
      </g>
     </g>
    </g>
    <g id="xtick_8">
     <g id="line2d_16">
      <g>
       <use xlink:href="#m56b9aeba01" x="104.310561" y="398.333333" style="stroke: #000000; stroke-width: 0.8"/>
      </g>
     </g>
     <g id="text_17">
      <!-- 50 -->
      <g transform="translate(97.948061 412.931771) scale(0.1 -0.1)">
       <use xlink:href="#DejaVuSans-35"/>
       <use xlink:href="#DejaVuSans-30" x="63.623047"/>
      </g>
     </g>
    </g>
    <g id="xtick_9">
     <g id="line2d_17">
      <g>
       <use xlink:href="#m56b9aeba01" x="145.151122" y="398.333333" style="stroke: #000000; stroke-width: 0.8"/>
      </g>
     </g>
     <g id="text_18">
      <!-- 100 -->
      <g transform="translate(135.607372 412.931771) scale(0.1 -0.1)">
       <use xlink:href="#DejaVuSans-31"/>
       <use xlink:href="#DejaVuSans-30" x="63.623047"/>
       <use xlink:href="#DejaVuSans-30" x="127.246094"/>
      </g>
     </g>
    </g>
    <g id="xtick_10">
     <g id="line2d_18">
      <g>
       <use xlink:href="#m56b9aeba01" x="185.991683" y="398.333333" style="stroke: #000000; stroke-width: 0.8"/>
      </g>
     </g>
     <g id="text_19">
      <!-- 150 -->
      <g transform="translate(176.447933 412.931771) scale(0.1 -0.1)">
       <use xlink:href="#DejaVuSans-31"/>
       <use xlink:href="#DejaVuSans-35" x="63.623047"/>
       <use xlink:href="#DejaVuSans-30" x="127.246094"/>
      </g>
     </g>
    </g>
    <g id="xtick_11">
     <g id="line2d_19">
      <g>
       <use xlink:href="#m56b9aeba01" x="226.832244" y="398.333333" style="stroke: #000000; stroke-width: 0.8"/>
      </g>
     </g>
     <g id="text_20">
      <!-- 200 -->
      <g transform="translate(217.288494 412.931771) scale(0.1 -0.1)">
       <use xlink:href="#DejaVuSans-32"/>
       <use xlink:href="#DejaVuSans-30" x="63.623047"/>
       <use xlink:href="#DejaVuSans-30" x="127.246094"/>
      </g>
     </g>
    </g>
    <g id="xtick_12">
     <g id="line2d_20">
      <g>
       <use xlink:href="#m56b9aeba01" x="267.672805" y="398.333333" style="stroke: #000000; stroke-width: 0.8"/>
      </g>
     </g>
     <g id="text_21">
      <!-- 250 -->
      <g transform="translate(258.129055 412.931771) scale(0.1 -0.1)">
       <use xlink:href="#DejaVuSans-32"/>
       <use xlink:href="#DejaVuSans-35" x="63.623047"/>
       <use xlink:href="#DejaVuSans-30" x="127.246094"/>
      </g>
     </g>
    </g>
   </g>
   <g id="matplotlib.axis_4">
    <g id="ytick_8">
     <g id="line2d_21">
      <g>
       <use xlink:href="#m935563c18b" x="63.47" y="398.333333" style="stroke: #000000; stroke-width: 0.8"/>
      </g>
     </g>
     <g id="text_22">
      <!-- 0 -->
      <g transform="translate(50.1075 402.132552) scale(0.1 -0.1)">
       <use xlink:href="#DejaVuSans-30"/>
      </g>
     </g>
    </g>
    <g id="ytick_9">
     <g id="line2d_22">
      <g>
       <use xlink:href="#m935563c18b" x="63.47" y="369.19509" style="stroke: #000000; stroke-width: 0.8"/>
      </g>
     </g>
     <g id="text_23">
      <!-- 2000 -->
      <g transform="translate(31.02 372.994309) scale(0.1 -0.1)">
       <use xlink:href="#DejaVuSans-32"/>
       <use xlink:href="#DejaVuSans-30" x="63.623047"/>
       <use xlink:href="#DejaVuSans-30" x="127.246094"/>
       <use xlink:href="#DejaVuSans-30" x="190.869141"/>
      </g>
     </g>
    </g>
    <g id="ytick_10">
     <g id="line2d_23">
      <g>
       <use xlink:href="#m935563c18b" x="63.47" y="340.056847" style="stroke: #000000; stroke-width: 0.8"/>
      </g>
     </g>
     <g id="text_24">
      <!-- 4000 -->
      <g transform="translate(31.02 343.856066) scale(0.1 -0.1)">
       <use xlink:href="#DejaVuSans-34"/>
       <use xlink:href="#DejaVuSans-30" x="63.623047"/>
       <use xlink:href="#DejaVuSans-30" x="127.246094"/>
       <use xlink:href="#DejaVuSans-30" x="190.869141"/>
      </g>
     </g>
    </g>
    <g id="ytick_11">
     <g id="line2d_24">
      <g>
       <use xlink:href="#m935563c18b" x="63.47" y="310.918604" style="stroke: #000000; stroke-width: 0.8"/>
      </g>
     </g>
     <g id="text_25">
      <!-- 6000 -->
      <g transform="translate(31.02 314.717823) scale(0.1 -0.1)">
       <use xlink:href="#DejaVuSans-36"/>
       <use xlink:href="#DejaVuSans-30" x="63.623047"/>
       <use xlink:href="#DejaVuSans-30" x="127.246094"/>
       <use xlink:href="#DejaVuSans-30" x="190.869141"/>
      </g>
     </g>
    </g>
    <g id="ytick_12">
     <g id="line2d_25">
      <g>
       <use xlink:href="#m935563c18b" x="63.47" y="281.780361" style="stroke: #000000; stroke-width: 0.8"/>
      </g>
     </g>
     <g id="text_26">
      <!-- 8000 -->
      <g transform="translate(31.02 285.57958) scale(0.1 -0.1)">
       <use xlink:href="#DejaVuSans-38"/>
       <use xlink:href="#DejaVuSans-30" x="63.623047"/>
       <use xlink:href="#DejaVuSans-30" x="127.246094"/>
       <use xlink:href="#DejaVuSans-30" x="190.869141"/>
      </g>
     </g>
    </g>
    <g id="ytick_13">
     <g id="line2d_26">
      <g>
       <use xlink:href="#m935563c18b" x="63.47" y="252.642118" style="stroke: #000000; stroke-width: 0.8"/>
      </g>
     </g>
     <g id="text_27">
      <!-- 10000 -->
      <g transform="translate(24.6575 256.441337) scale(0.1 -0.1)">
       <use xlink:href="#DejaVuSans-31"/>
       <use xlink:href="#DejaVuSans-30" x="63.623047"/>
       <use xlink:href="#DejaVuSans-30" x="127.246094"/>
       <use xlink:href="#DejaVuSans-30" x="190.869141"/>
       <use xlink:href="#DejaVuSans-30" x="254.492188"/>
      </g>
     </g>
    </g>
    <g id="ytick_14">
     <g id="line2d_27">
      <g>
       <use xlink:href="#m935563c18b" x="63.47" y="223.503875" style="stroke: #000000; stroke-width: 0.8"/>
      </g>
     </g>
     <g id="text_28">
      <!-- 12000 -->
      <g transform="translate(24.6575 227.303094) scale(0.1 -0.1)">
       <use xlink:href="#DejaVuSans-31"/>
       <use xlink:href="#DejaVuSans-32" x="63.623047"/>
       <use xlink:href="#DejaVuSans-30" x="127.246094"/>
       <use xlink:href="#DejaVuSans-30" x="190.869141"/>
       <use xlink:href="#DejaVuSans-30" x="254.492188"/>
      </g>
     </g>
    </g>
    <g id="text_29">
     <!-- Pixel Frequency -->
     <g transform="translate(18.577812 347.398906) rotate(-90) scale(0.1 -0.1)">
      <use xlink:href="#DejaVuSans-50"/>
      <use xlink:href="#DejaVuSans-69" x="58.052734"/>
      <use xlink:href="#DejaVuSans-78" x="85.835938"/>
      <use xlink:href="#DejaVuSans-65" x="141.890625"/>
      <use xlink:href="#DejaVuSans-6c" x="203.414062"/>
      <use xlink:href="#DejaVuSans-20" x="231.197266"/>
      <use xlink:href="#DejaVuSans-46" x="262.984375"/>
      <use xlink:href="#DejaVuSans-72" x="313.253906"/>
      <use xlink:href="#DejaVuSans-65" x="352.117188"/>
      <use xlink:href="#DejaVuSans-71" x="413.640625"/>
      <use xlink:href="#DejaVuSans-75" x="477.117188"/>
      <use xlink:href="#DejaVuSans-65" x="540.496094"/>
      <use xlink:href="#DejaVuSans-6e" x="602.019531"/>
      <use xlink:href="#DejaVuSans-63" x="665.398438"/>
      <use xlink:href="#DejaVuSans-79" x="720.378906"/>
     </g>
    </g>
   </g>
   <g id="line2d_28">
    <path d="M 63.47 398.333333 
L 146.784744 398.260488 
L 148.418367 398.129366 
L 150.051989 398.187642 
L 154.136045 397.998244 
L 156.586479 398.158504 
L 159.853724 397.969105 
L 163.120969 397.954536 
L 163.93778 397.765138 
L 165.571402 397.852552 
L 166.388214 397.969105 
L 167.205025 397.823414 
L 168.838647 397.939967 
L 169.655458 397.808845 
L 170.47227 397.89626 
L 171.289081 397.56117 
L 172.105892 397.735999 
L 172.922703 397.502893 
L 173.739514 397.663154 
L 174.556326 397.517463 
L 175.373137 397.619446 
L 176.189948 397.357202 
L 177.006759 397.444617 
L 177.823571 397.167804 
L 178.640382 397.298926 
L 179.457193 397.211511 
L 180.274004 396.832714 
L 181.090815 396.789006 
L 181.907627 396.322795 
L 182.724438 396.351933 
L 183.541249 395.90029 
L 185.174872 396.031412 
L 185.991683 395.492355 
L 186.808494 395.375802 
L 187.625305 395.142696 
L 188.442116 395.521493 
L 189.258928 394.953297 
L 190.075739 394.676484 
L 191.709361 394.530793 
L 192.526172 394.457947 
L 194.159795 393.889751 
L 194.976606 393.481816 
L 195.793417 393.569231 
L 196.610229 393.933459 
L 197.42704 394.501654 
L 198.243851 394.283118 
L 199.060662 394.589069 
L 199.877473 394.632776 
L 200.694285 395.361233 
L 201.511096 394.880452 
L 203.144718 394.90959 
L 203.96153 395.390371 
L 204.778341 395.40494 
L 205.595152 394.851313 
L 206.411963 395.5652 
L 207.228774 395.23011 
L 208.045586 395.23011 
L 208.862397 395.463216 
L 209.679208 395.434078 
L 210.496019 394.982435 
L 211.312831 395.317525 
L 212.129642 395.477786 
L 213.763264 395.171834 
L 214.580075 395.40494 
L 215.396887 395.288387 
L 216.213698 395.346663 
L 217.030509 395.23011 
L 217.84732 395.536062 
L 218.664131 395.142696 
L 220.297754 396.002274 
L 222.748188 395.113557 
L 223.564999 395.710891 
L 224.38181 395.536062 
L 225.198621 395.5652 
L 226.015432 395.390371 
L 226.832244 395.361233 
L 227.649055 395.842014 
L 228.465866 395.463216 
L 230.099489 395.332094 
L 230.9163 395.652615 
L 231.733111 395.477786 
L 232.549922 395.448647 
L 233.366733 394.997005 
L 234.183545 395.477786 
L 235.000356 395.390371 
L 235.817167 395.550631 
L 236.633978 394.953297 
L 237.450789 395.200972 
L 238.267601 395.769168 
L 239.084412 395.419509 
L 239.901223 395.40494 
L 240.718034 395.638046 
L 241.534846 395.098988 
L 242.351657 395.434078 
L 243.168468 395.128127 
L 245.618902 394.953297 
L 246.435713 395.113557 
L 247.252524 394.822175 
L 248.069335 395.492355 
L 248.886147 395.579769 
L 249.702958 395.302956 
L 250.519769 395.90029 
L 251.33658 395.40494 
L 252.153391 395.215541 
L 252.970203 395.448647 
L 253.787014 395.23011 
L 254.603825 395.638046 
L 255.420636 395.74003 
L 256.237448 394.793037 
L 257.87107 394.457947 
L 258.687881 394.938728 
L 259.504692 395.084419 
L 260.321504 395.040712 
L 261.138315 394.501654 
L 261.955126 394.822175 
L 262.771937 394.559931 
L 263.588748 393.729491 
L 264.40556 393.875182 
L 265.222371 393.07388 
L 266.039182 392.680514 
L 266.855993 390.59713 
L 268.489616 383.749643 
L 269.306427 376.071716 
L 270.123238 356.09745 
L 270.940049 301.404968 
L 271.756861 218.506667 
L 271.756861 218.506667 
" clip-path="url(#pbb5e5ecf6e)" style="fill: none; stroke: #008000; stroke-width: 1.5; stroke-linecap: square"/>
   </g>
   <g id="patch_8">
    <path d="M 63.47 398.333333 
L 63.47 218.506667 
" style="fill: none; stroke: #000000; stroke-width: 0.8; stroke-linejoin: miter; stroke-linecap: square"/>
   </g>
   <g id="patch_9">
    <path d="M 272.573672 398.333333 
L 272.573672 218.506667 
" style="fill: none; stroke: #000000; stroke-width: 0.8; stroke-linejoin: miter; stroke-linecap: square"/>
   </g>
   <g id="patch_10">
    <path d="M 63.47 398.333333 
L 272.573672 398.333333 
" style="fill: none; stroke: #000000; stroke-width: 0.8; stroke-linejoin: miter; stroke-linecap: square"/>
   </g>
   <g id="patch_11">
    <path d="M 63.47 218.506667 
L 272.573672 218.506667 
" style="fill: none; stroke: #000000; stroke-width: 0.8; stroke-linejoin: miter; stroke-linecap: square"/>
   </g>
   <g id="text_30">
    <!-- Green Channel  -->
    <g transform="translate(179.346797 232.506667) scale(0.12 -0.12)">
     <defs>
      <path id="DejaVuSans-47" d="M 3809 666 
L 3809 1919 
L 2778 1919 
L 2778 2438 
L 4434 2438 
L 4434 434 
Q 4069 175 3628 42 
Q 3188 -91 2688 -91 
Q 1594 -91 976 548 
Q 359 1188 359 2328 
Q 359 3472 976 4111 
Q 1594 4750 2688 4750 
Q 3144 4750 3555 4637 
Q 3966 4525 4313 4306 
L 4313 3634 
Q 3963 3931 3569 4081 
Q 3175 4231 2741 4231 
Q 1884 4231 1454 3753 
Q 1025 3275 1025 2328 
Q 1025 1384 1454 906 
Q 1884 428 2741 428 
Q 3075 428 3337 486 
Q 3600 544 3809 666 
z
" transform="scale(0.015625)"/>
     </defs>
     <use xlink:href="#DejaVuSans-47"/>
     <use xlink:href="#DejaVuSans-72" x="77.490234"/>
     <use xlink:href="#DejaVuSans-65" x="116.353516"/>
     <use xlink:href="#DejaVuSans-65" x="177.876953"/>
     <use xlink:href="#DejaVuSans-6e" x="239.400391"/>
     <use xlink:href="#DejaVuSans-20" x="302.779297"/>
     <use xlink:href="#DejaVuSans-43" x="334.566406"/>
     <use xlink:href="#DejaVuSans-68" x="404.390625"/>
     <use xlink:href="#DejaVuSans-61" x="467.769531"/>
     <use xlink:href="#DejaVuSans-6e" x="529.048828"/>
     <use xlink:href="#DejaVuSans-6e" x="592.427734"/>
     <use xlink:href="#DejaVuSans-65" x="655.806641"/>
     <use xlink:href="#DejaVuSans-6c" x="717.330078"/>
     <use xlink:href="#DejaVuSans-20" x="745.113281"/>
    </g>
   </g>
  </g>
  <g id="axes_3">
   <g id="patch_12">
    <path d="M 63.47 606.04 
L 272.573672 606.04 
L 272.573672 426.213333 
L 63.47 426.213333 
z
" style="fill: #ffffff"/>
   </g>
   <g id="PolyCollection_3">
    <defs>
     <path id="me883dd183c" d="M 63.47 -41.96 
L 63.47 -41.96 
L 64.286811 -41.96 
L 65.103622 -41.96 
L 65.920434 -41.96 
L 66.737245 -41.96 
L 67.554056 -41.96 
L 68.370867 -41.96 
L 69.187679 -41.96 
L 70.00449 -41.96 
L 70.821301 -41.96 
L 71.638112 -41.96 
L 72.454923 -41.96 
L 73.271735 -41.96 
L 74.088546 -41.96 
L 74.905357 -41.96 
L 75.722168 -41.96 
L 76.538979 -41.96 
L 77.355791 -41.96 
L 78.172602 -41.96 
L 78.989413 -41.96 
L 79.806224 -41.96 
L 80.623036 -41.96 
L 81.439847 -41.96 
L 82.256658 -41.96 
L 83.073469 -41.96 
L 83.89028 -41.96 
L 84.707092 -41.96 
L 85.523903 -41.96 
L 86.340714 -41.96 
L 87.157525 -41.96 
L 87.974337 -41.96 
L 88.791148 -41.96 
L 89.607959 -41.96 
L 90.42477 -41.96 
L 91.241581 -41.96 
L 92.058393 -41.96 
L 92.875204 -41.96 
L 93.692015 -41.96 
L 94.508826 -41.96 
L 95.325638 -41.96 
L 96.142449 -41.96 
L 96.95926 -41.96 
L 97.776071 -41.96 
L 98.592882 -41.96 
L 99.409694 -41.96 
L 100.226505 -41.96 
L 101.043316 -41.96 
L 101.860127 -41.96 
L 102.676938 -41.96 
L 103.49375 -41.96 
L 104.310561 -41.96 
L 105.127372 -41.96 
L 105.944183 -41.96 
L 106.760995 -41.989138 
L 107.577806 -41.96 
L 108.394617 -41.974569 
L 109.211428 -42.047415 
L 110.028239 -42.12026 
L 110.845051 -42.12026 
L 111.661862 -42.265952 
L 112.478673 -42.193106 
L 113.295484 -42.367935 
L 114.112296 -42.382505 
L 114.929107 -42.513627 
L 115.745918 -42.469919 
L 116.562729 -42.411643 
L 117.37954 -42.542765 
L 118.196352 -42.469919 
L 119.013163 -42.659318 
L 119.829974 -42.61561 
L 120.646785 -42.63018 
L 121.463596 -42.805009 
L 122.280408 -42.775871 
L 123.097219 -42.863286 
L 123.91403 -42.906993 
L 124.730841 -43.169237 
L 125.547653 -43.038115 
L 126.364464 -43.227514 
L 127.181275 -43.912262 
L 127.998086 -43.999677 
L 128.814897 -44.11623 
L 129.631709 -44.305629 
L 130.44852 -44.961239 
L 131.265331 -45.587711 
L 132.082142 -45.893663 
L 132.898954 -46.651257 
L 133.715765 -47.627388 
L 134.532576 -48.020755 
L 135.349387 -48.312137 
L 136.166198 -48.851194 
L 136.98301 -49.696204 
L 137.799821 -49.026024 
L 138.616632 -48.676365 
L 139.433443 -48.020755 
L 140.250255 -47.306868 
L 141.067066 -46.971778 
L 141.883877 -47.234022 
L 142.700688 -46.811517 
L 143.517499 -46.680395 
L 144.334311 -46.60755 
L 145.151122 -47.044623 
L 145.967933 -46.986347 
L 146.784744 -47.204884 
L 147.601555 -47.015485 
L 148.418367 -46.694964 
L 149.235178 -46.651257 
L 150.051989 -46.447289 
L 150.8688 -46.709534 
L 151.685612 -46.898932 
L 152.502423 -46.578412 
L 153.319234 -46.563842 
L 154.136045 -46.753241 
L 154.952856 -46.724103 
L 155.769668 -46.694964 
L 156.586479 -46.709534 
L 157.40329 -46.738672 
L 158.220101 -46.622119 
L 159.036913 -46.578412 
L 159.853724 -46.301598 
L 160.670535 -46.651257 
L 161.487346 -46.403582 
L 162.304157 -46.505566 
L 163.120969 -46.578412 
L 163.93778 -46.155907 
L 164.754591 -46.316167 
L 165.571402 -46.155907 
L 166.388214 -46.214183 
L 167.205025 -46.316167 
L 168.021836 -46.490997 
L 168.838647 -46.534704 
L 169.655458 -46.461859 
L 170.47227 -46.592981 
L 171.289081 -46.665826 
L 172.105892 -46.490997 
L 172.922703 -45.718833 
L 173.739514 -45.529435 
L 174.556326 -46.010216 
L 175.373137 -45.908232 
L 176.189948 -45.238052 
L 177.006759 -45.616849 
L 177.823571 -45.645988 
L 178.640382 -45.485727 
L 179.457193 -45.733402 
L 180.274004 -45.44202 
L 181.090815 -45.28176 
L 181.907627 -45.340036 
L 182.724438 -45.514866 
L 183.541249 -45.019516 
L 184.35806 -45.660557 
L 185.174872 -45.631419 
L 185.991683 -45.733402 
L 186.808494 -45.252621 
L 187.625305 -45.849955 
L 188.442116 -45.995647 
L 189.258928 -46.068492 
L 190.075739 -45.981078 
L 190.89255 -46.287029 
L 191.709361 -45.791679 
L 192.526172 -45.747972 
L 193.342984 -45.77711 
L 194.159795 -46.1122 
L 194.976606 -46.228753 
L 195.793417 -46.126769 
L 196.610229 -46.461859 
L 197.42704 -46.287029 
L 198.243851 -46.141338 
L 199.060662 -45.864525 
L 199.877473 -46.214183 
L 200.694285 -45.93737 
L 201.511096 -45.849955 
L 202.327907 -45.675126 
L 203.144718 -45.849955 
L 203.96153 -45.908232 
L 204.778341 -45.704264 
L 205.595152 -46.418151 
L 206.411963 -45.762541 
L 207.228774 -45.908232 
L 208.045586 -45.77711 
L 208.862397 -44.917532 
L 209.679208 -45.645988 
L 210.496019 -45.208914 
L 211.312831 -45.136068 
L 212.129642 -44.961239 
L 212.946453 -45.558573 
L 213.763264 -45.500297 
L 214.580075 -45.325467 
L 215.396887 -45.310898 
L 216.213698 -45.10693 
L 217.030509 -45.485727 
L 217.84732 -45.10693 
L 218.664131 -45.325467 
L 219.480943 -44.961239 
L 220.297754 -44.902963 
L 221.114565 -45.223483 
L 221.931376 -45.675126 
L 222.748188 -45.238052 
L 223.564999 -45.238052 
L 224.38181 -44.728133 
L 225.198621 -44.713564 
L 226.015432 -45.340036 
L 226.832244 -45.136068 
L 227.649055 -44.873824 
L 228.465866 -44.728133 
L 229.282677 -44.640718 
L 230.099489 -45.077792 
L 230.9163 -44.626149 
L 231.733111 -44.830117 
L 232.549922 -44.669857 
L 233.366733 -44.072523 
L 234.183545 -44.77184 
L 235.000356 -44.436751 
L 235.817167 -44.538735 
L 236.633978 -44.422182 
L 237.450789 -44.61158 
L 238.267601 -44.742702 
L 239.084412 -45.092361 
L 239.901223 -44.844686 
L 240.718034 -44.436751 
L 241.534846 -44.684426 
L 242.351657 -44.61158 
L 243.168468 -44.538735 
L 243.985279 -44.480458 
L 244.80209 -44.524165 
L 245.618902 -44.349336 
L 246.435713 -45.136068 
L 247.252524 -44.815548 
L 248.069335 -44.77184 
L 248.886147 -44.480458 
L 249.702958 -44.043384 
L 250.519769 -44.159937 
L 251.33658 -44.363905 
L 252.153391 -44.174506 
L 252.970203 -44.043384 
L 253.787014 -44.742702 
L 254.603825 -44.728133 
L 255.420636 -45.252621 
L 256.237448 -45.238052 
L 257.054259 -44.509596 
L 257.87107 -44.378474 
L 258.687881 -45.063223 
L 259.504692 -45.063223 
L 260.321504 -44.597011 
L 261.138315 -44.728133 
L 261.955126 -45.063223 
L 262.771937 -45.689695 
L 263.588748 -45.908232 
L 264.40556 -45.631419 
L 265.222371 -45.150638 
L 266.039182 -45.238052 
L 266.855993 -45.616849 
L 267.672805 -46.592981 
L 268.489616 -46.986347 
L 269.306427 -45.354605 
L 270.123238 -48.792918 
L 270.940049 -53.877541 
L 271.756861 -82.622418 
L 271.756861 -41.96 
L 271.756861 -41.96 
L 270.940049 -41.96 
L 270.123238 -41.96 
L 269.306427 -41.96 
L 268.489616 -41.96 
L 267.672805 -41.96 
L 266.855993 -41.96 
L 266.039182 -41.96 
L 265.222371 -41.96 
L 264.40556 -41.96 
L 263.588748 -41.96 
L 262.771937 -41.96 
L 261.955126 -41.96 
L 261.138315 -41.96 
L 260.321504 -41.96 
L 259.504692 -41.96 
L 258.687881 -41.96 
L 257.87107 -41.96 
L 257.054259 -41.96 
L 256.237448 -41.96 
L 255.420636 -41.96 
L 254.603825 -41.96 
L 253.787014 -41.96 
L 252.970203 -41.96 
L 252.153391 -41.96 
L 251.33658 -41.96 
L 250.519769 -41.96 
L 249.702958 -41.96 
L 248.886147 -41.96 
L 248.069335 -41.96 
L 247.252524 -41.96 
L 246.435713 -41.96 
L 245.618902 -41.96 
L 244.80209 -41.96 
L 243.985279 -41.96 
L 243.168468 -41.96 
L 242.351657 -41.96 
L 241.534846 -41.96 
L 240.718034 -41.96 
L 239.901223 -41.96 
L 239.084412 -41.96 
L 238.267601 -41.96 
L 237.450789 -41.96 
L 236.633978 -41.96 
L 235.817167 -41.96 
L 235.000356 -41.96 
L 234.183545 -41.96 
L 233.366733 -41.96 
L 232.549922 -41.96 
L 231.733111 -41.96 
L 230.9163 -41.96 
L 230.099489 -41.96 
L 229.282677 -41.96 
L 228.465866 -41.96 
L 227.649055 -41.96 
L 226.832244 -41.96 
L 226.015432 -41.96 
L 225.198621 -41.96 
L 224.38181 -41.96 
L 223.564999 -41.96 
L 222.748188 -41.96 
L 221.931376 -41.96 
L 221.114565 -41.96 
L 220.297754 -41.96 
L 219.480943 -41.96 
L 218.664131 -41.96 
L 217.84732 -41.96 
L 217.030509 -41.96 
L 216.213698 -41.96 
L 215.396887 -41.96 
L 214.580075 -41.96 
L 213.763264 -41.96 
L 212.946453 -41.96 
L 212.129642 -41.96 
L 211.312831 -41.96 
L 210.496019 -41.96 
L 209.679208 -41.96 
L 208.862397 -41.96 
L 208.045586 -41.96 
L 207.228774 -41.96 
L 206.411963 -41.96 
L 205.595152 -41.96 
L 204.778341 -41.96 
L 203.96153 -41.96 
L 203.144718 -41.96 
L 202.327907 -41.96 
L 201.511096 -41.96 
L 200.694285 -41.96 
L 199.877473 -41.96 
L 199.060662 -41.96 
L 198.243851 -41.96 
L 197.42704 -41.96 
L 196.610229 -41.96 
L 195.793417 -41.96 
L 194.976606 -41.96 
L 194.159795 -41.96 
L 193.342984 -41.96 
L 192.526172 -41.96 
L 191.709361 -41.96 
L 190.89255 -41.96 
L 190.075739 -41.96 
L 189.258928 -41.96 
L 188.442116 -41.96 
L 187.625305 -41.96 
L 186.808494 -41.96 
L 185.991683 -41.96 
L 185.174872 -41.96 
L 184.35806 -41.96 
L 183.541249 -41.96 
L 182.724438 -41.96 
L 181.907627 -41.96 
L 181.090815 -41.96 
L 180.274004 -41.96 
L 179.457193 -41.96 
L 178.640382 -41.96 
L 177.823571 -41.96 
L 177.006759 -41.96 
L 176.189948 -41.96 
L 175.373137 -41.96 
L 174.556326 -41.96 
L 173.739514 -41.96 
L 172.922703 -41.96 
L 172.105892 -41.96 
L 171.289081 -41.96 
L 170.47227 -41.96 
L 169.655458 -41.96 
L 168.838647 -41.96 
L 168.021836 -41.96 
L 167.205025 -41.96 
L 166.388214 -41.96 
L 165.571402 -41.96 
L 164.754591 -41.96 
L 163.93778 -41.96 
L 163.120969 -41.96 
L 162.304157 -41.96 
L 161.487346 -41.96 
L 160.670535 -41.96 
L 159.853724 -41.96 
L 159.036913 -41.96 
L 158.220101 -41.96 
L 157.40329 -41.96 
L 156.586479 -41.96 
L 155.769668 -41.96 
L 154.952856 -41.96 
L 154.136045 -41.96 
L 153.319234 -41.96 
L 152.502423 -41.96 
L 151.685612 -41.96 
L 150.8688 -41.96 
L 150.051989 -41.96 
L 149.235178 -41.96 
L 148.418367 -41.96 
L 147.601555 -41.96 
L 146.784744 -41.96 
L 145.967933 -41.96 
L 145.151122 -41.96 
L 144.334311 -41.96 
L 143.517499 -41.96 
L 142.700688 -41.96 
L 141.883877 -41.96 
L 141.067066 -41.96 
L 140.250255 -41.96 
L 139.433443 -41.96 
L 138.616632 -41.96 
L 137.799821 -41.96 
L 136.98301 -41.96 
L 136.166198 -41.96 
L 135.349387 -41.96 
L 134.532576 -41.96 
L 133.715765 -41.96 
L 132.898954 -41.96 
L 132.082142 -41.96 
L 131.265331 -41.96 
L 130.44852 -41.96 
L 129.631709 -41.96 
L 128.814897 -41.96 
L 127.998086 -41.96 
L 127.181275 -41.96 
L 126.364464 -41.96 
L 125.547653 -41.96 
L 124.730841 -41.96 
L 123.91403 -41.96 
L 123.097219 -41.96 
L 122.280408 -41.96 
L 121.463596 -41.96 
L 120.646785 -41.96 
L 119.829974 -41.96 
L 119.013163 -41.96 
L 118.196352 -41.96 
L 117.37954 -41.96 
L 116.562729 -41.96 
L 115.745918 -41.96 
L 114.929107 -41.96 
L 114.112296 -41.96 
L 113.295484 -41.96 
L 112.478673 -41.96 
L 111.661862 -41.96 
L 110.845051 -41.96 
L 110.028239 -41.96 
L 109.211428 -41.96 
L 108.394617 -41.96 
L 107.577806 -41.96 
L 106.760995 -41.96 
L 105.944183 -41.96 
L 105.127372 -41.96 
L 104.310561 -41.96 
L 103.49375 -41.96 
L 102.676938 -41.96 
L 101.860127 -41.96 
L 101.043316 -41.96 
L 100.226505 -41.96 
L 99.409694 -41.96 
L 98.592882 -41.96 
L 97.776071 -41.96 
L 96.95926 -41.96 
L 96.142449 -41.96 
L 95.325638 -41.96 
L 94.508826 -41.96 
L 93.692015 -41.96 
L 92.875204 -41.96 
L 92.058393 -41.96 
L 91.241581 -41.96 
L 90.42477 -41.96 
L 89.607959 -41.96 
L 88.791148 -41.96 
L 87.974337 -41.96 
L 87.157525 -41.96 
L 86.340714 -41.96 
L 85.523903 -41.96 
L 84.707092 -41.96 
L 83.89028 -41.96 
L 83.073469 -41.96 
L 82.256658 -41.96 
L 81.439847 -41.96 
L 80.623036 -41.96 
L 79.806224 -41.96 
L 78.989413 -41.96 
L 78.172602 -41.96 
L 77.355791 -41.96 
L 76.538979 -41.96 
L 75.722168 -41.96 
L 74.905357 -41.96 
L 74.088546 -41.96 
L 73.271735 -41.96 
L 72.454923 -41.96 
L 71.638112 -41.96 
L 70.821301 -41.96 
L 70.00449 -41.96 
L 69.187679 -41.96 
L 68.370867 -41.96 
L 67.554056 -41.96 
L 66.737245 -41.96 
L 65.920434 -41.96 
L 65.103622 -41.96 
L 64.286811 -41.96 
L 63.47 -41.96 
z
" style="stroke: #0000ff; stroke-opacity: 0.4"/>
    </defs>
    <g clip-path="url(#p68cc5e540d)">
     <use xlink:href="#me883dd183c" x="0" y="648" style="fill: #0000ff; fill-opacity: 0.4; stroke: #0000ff; stroke-opacity: 0.4"/>
    </g>
   </g>
   <g id="matplotlib.axis_5">
    <g id="xtick_13">
     <g id="line2d_29">
      <g>
       <use xlink:href="#m56b9aeba01" x="63.47" y="606.04" style="stroke: #000000; stroke-width: 0.8"/>
      </g>
     </g>
     <g id="text_31">
      <!-- 0 -->
      <g transform="translate(60.28875 620.638438) scale(0.1 -0.1)">
       <use xlink:href="#DejaVuSans-30"/>
      </g>
     </g>
    </g>
    <g id="xtick_14">
     <g id="line2d_30">
      <g>
       <use xlink:href="#m56b9aeba01" x="104.310561" y="606.04" style="stroke: #000000; stroke-width: 0.8"/>
      </g>
     </g>
     <g id="text_32">
      <!-- 50 -->
      <g transform="translate(97.948061 620.638438) scale(0.1 -0.1)">
       <use xlink:href="#DejaVuSans-35"/>
       <use xlink:href="#DejaVuSans-30" x="63.623047"/>
      </g>
     </g>
    </g>
    <g id="xtick_15">
     <g id="line2d_31">
      <g>
       <use xlink:href="#m56b9aeba01" x="145.151122" y="606.04" style="stroke: #000000; stroke-width: 0.8"/>
      </g>
     </g>
     <g id="text_33">
      <!-- 100 -->
      <g transform="translate(135.607372 620.638438) scale(0.1 -0.1)">
       <use xlink:href="#DejaVuSans-31"/>
       <use xlink:href="#DejaVuSans-30" x="63.623047"/>
       <use xlink:href="#DejaVuSans-30" x="127.246094"/>
      </g>
     </g>
    </g>
    <g id="xtick_16">
     <g id="line2d_32">
      <g>
       <use xlink:href="#m56b9aeba01" x="185.991683" y="606.04" style="stroke: #000000; stroke-width: 0.8"/>
      </g>
     </g>
     <g id="text_34">
      <!-- 150 -->
      <g transform="translate(176.447933 620.638438) scale(0.1 -0.1)">
       <use xlink:href="#DejaVuSans-31"/>
       <use xlink:href="#DejaVuSans-35" x="63.623047"/>
       <use xlink:href="#DejaVuSans-30" x="127.246094"/>
      </g>
     </g>
    </g>
    <g id="xtick_17">
     <g id="line2d_33">
      <g>
       <use xlink:href="#m56b9aeba01" x="226.832244" y="606.04" style="stroke: #000000; stroke-width: 0.8"/>
      </g>
     </g>
     <g id="text_35">
      <!-- 200 -->
      <g transform="translate(217.288494 620.638438) scale(0.1 -0.1)">
       <use xlink:href="#DejaVuSans-32"/>
       <use xlink:href="#DejaVuSans-30" x="63.623047"/>
       <use xlink:href="#DejaVuSans-30" x="127.246094"/>
      </g>
     </g>
    </g>
    <g id="xtick_18">
     <g id="line2d_34">
      <g>
       <use xlink:href="#m56b9aeba01" x="267.672805" y="606.04" style="stroke: #000000; stroke-width: 0.8"/>
      </g>
     </g>
     <g id="text_36">
      <!-- 250 -->
      <g transform="translate(258.129055 620.638438) scale(0.1 -0.1)">
       <use xlink:href="#DejaVuSans-32"/>
       <use xlink:href="#DejaVuSans-35" x="63.623047"/>
       <use xlink:href="#DejaVuSans-30" x="127.246094"/>
      </g>
     </g>
    </g>
    <g id="text_37">
     <!-- Pixel Intensity -->
     <g transform="translate(133.110117 634.316563) scale(0.1 -0.1)">
      <defs>
       <path id="DejaVuSans-49" d="M 628 4666 
L 1259 4666 
L 1259 0 
L 628 0 
L 628 4666 
z
" transform="scale(0.015625)"/>
       <path id="DejaVuSans-74" d="M 1172 4494 
L 1172 3500 
L 2356 3500 
L 2356 3053 
L 1172 3053 
L 1172 1153 
Q 1172 725 1289 603 
Q 1406 481 1766 481 
L 2356 481 
L 2356 0 
L 1766 0 
Q 1100 0 847 248 
Q 594 497 594 1153 
L 594 3053 
L 172 3053 
L 172 3500 
L 594 3500 
L 594 4494 
L 1172 4494 
z
" transform="scale(0.015625)"/>
       <path id="DejaVuSans-73" d="M 2834 3397 
L 2834 2853 
Q 2591 2978 2328 3040 
Q 2066 3103 1784 3103 
Q 1356 3103 1142 2972 
Q 928 2841 928 2578 
Q 928 2378 1081 2264 
Q 1234 2150 1697 2047 
L 1894 2003 
Q 2506 1872 2764 1633 
Q 3022 1394 3022 966 
Q 3022 478 2636 193 
Q 2250 -91 1575 -91 
Q 1294 -91 989 -36 
Q 684 19 347 128 
L 347 722 
Q 666 556 975 473 
Q 1284 391 1588 391 
Q 1994 391 2212 530 
Q 2431 669 2431 922 
Q 2431 1156 2273 1281 
Q 2116 1406 1581 1522 
L 1381 1569 
Q 847 1681 609 1914 
Q 372 2147 372 2553 
Q 372 3047 722 3315 
Q 1072 3584 1716 3584 
Q 2034 3584 2315 3537 
Q 2597 3491 2834 3397 
z
" transform="scale(0.015625)"/>
      </defs>
      <use xlink:href="#DejaVuSans-50"/>
      <use xlink:href="#DejaVuSans-69" x="58.052734"/>
      <use xlink:href="#DejaVuSans-78" x="85.835938"/>
      <use xlink:href="#DejaVuSans-65" x="141.890625"/>
      <use xlink:href="#DejaVuSans-6c" x="203.414062"/>
      <use xlink:href="#DejaVuSans-20" x="231.197266"/>
      <use xlink:href="#DejaVuSans-49" x="262.984375"/>
      <use xlink:href="#DejaVuSans-6e" x="292.476562"/>
      <use xlink:href="#DejaVuSans-74" x="355.855469"/>
      <use xlink:href="#DejaVuSans-65" x="395.064453"/>
      <use xlink:href="#DejaVuSans-6e" x="456.587891"/>
      <use xlink:href="#DejaVuSans-73" x="519.966797"/>
      <use xlink:href="#DejaVuSans-69" x="572.066406"/>
      <use xlink:href="#DejaVuSans-74" x="599.849609"/>
      <use xlink:href="#DejaVuSans-79" x="639.058594"/>
     </g>
    </g>
   </g>
   <g id="matplotlib.axis_6">
    <g id="ytick_15">
     <g id="line2d_35">
      <g>
       <use xlink:href="#m935563c18b" x="63.47" y="606.04" style="stroke: #000000; stroke-width: 0.8"/>
      </g>
     </g>
     <g id="text_38">
      <!-- 0 -->
      <g transform="translate(50.1075 609.839219) scale(0.1 -0.1)">
       <use xlink:href="#DejaVuSans-30"/>
      </g>
     </g>
    </g>
    <g id="ytick_16">
     <g id="line2d_36">
      <g>
       <use xlink:href="#m935563c18b" x="63.47" y="576.901757" style="stroke: #000000; stroke-width: 0.8"/>
      </g>
     </g>
     <g id="text_39">
      <!-- 2000 -->
      <g transform="translate(31.02 580.700976) scale(0.1 -0.1)">
       <use xlink:href="#DejaVuSans-32"/>
       <use xlink:href="#DejaVuSans-30" x="63.623047"/>
       <use xlink:href="#DejaVuSans-30" x="127.246094"/>
       <use xlink:href="#DejaVuSans-30" x="190.869141"/>
      </g>
     </g>
    </g>
    <g id="ytick_17">
     <g id="line2d_37">
      <g>
       <use xlink:href="#m935563c18b" x="63.47" y="547.763514" style="stroke: #000000; stroke-width: 0.8"/>
      </g>
     </g>
     <g id="text_40">
      <!-- 4000 -->
      <g transform="translate(31.02 551.562733) scale(0.1 -0.1)">
       <use xlink:href="#DejaVuSans-34"/>
       <use xlink:href="#DejaVuSans-30" x="63.623047"/>
       <use xlink:href="#DejaVuSans-30" x="127.246094"/>
       <use xlink:href="#DejaVuSans-30" x="190.869141"/>
      </g>
     </g>
    </g>
    <g id="ytick_18">
     <g id="line2d_38">
      <g>
       <use xlink:href="#m935563c18b" x="63.47" y="518.625271" style="stroke: #000000; stroke-width: 0.8"/>
      </g>
     </g>
     <g id="text_41">
      <!-- 6000 -->
      <g transform="translate(31.02 522.42449) scale(0.1 -0.1)">
       <use xlink:href="#DejaVuSans-36"/>
       <use xlink:href="#DejaVuSans-30" x="63.623047"/>
       <use xlink:href="#DejaVuSans-30" x="127.246094"/>
       <use xlink:href="#DejaVuSans-30" x="190.869141"/>
      </g>
     </g>
    </g>
    <g id="ytick_19">
     <g id="line2d_39">
      <g>
       <use xlink:href="#m935563c18b" x="63.47" y="489.487028" style="stroke: #000000; stroke-width: 0.8"/>
      </g>
     </g>
     <g id="text_42">
      <!-- 8000 -->
      <g transform="translate(31.02 493.286247) scale(0.1 -0.1)">
       <use xlink:href="#DejaVuSans-38"/>
       <use xlink:href="#DejaVuSans-30" x="63.623047"/>
       <use xlink:href="#DejaVuSans-30" x="127.246094"/>
       <use xlink:href="#DejaVuSans-30" x="190.869141"/>
      </g>
     </g>
    </g>
    <g id="ytick_20">
     <g id="line2d_40">
      <g>
       <use xlink:href="#m935563c18b" x="63.47" y="460.348785" style="stroke: #000000; stroke-width: 0.8"/>
      </g>
     </g>
     <g id="text_43">
      <!-- 10000 -->
      <g transform="translate(24.6575 464.148004) scale(0.1 -0.1)">
       <use xlink:href="#DejaVuSans-31"/>
       <use xlink:href="#DejaVuSans-30" x="63.623047"/>
       <use xlink:href="#DejaVuSans-30" x="127.246094"/>
       <use xlink:href="#DejaVuSans-30" x="190.869141"/>
       <use xlink:href="#DejaVuSans-30" x="254.492188"/>
      </g>
     </g>
    </g>
    <g id="ytick_21">
     <g id="line2d_41">
      <g>
       <use xlink:href="#m935563c18b" x="63.47" y="431.210542" style="stroke: #000000; stroke-width: 0.8"/>
      </g>
     </g>
     <g id="text_44">
      <!-- 12000 -->
      <g transform="translate(24.6575 435.009761) scale(0.1 -0.1)">
       <use xlink:href="#DejaVuSans-31"/>
       <use xlink:href="#DejaVuSans-32" x="63.623047"/>
       <use xlink:href="#DejaVuSans-30" x="127.246094"/>
       <use xlink:href="#DejaVuSans-30" x="190.869141"/>
       <use xlink:href="#DejaVuSans-30" x="254.492188"/>
      </g>
     </g>
    </g>
    <g id="text_45">
     <!-- Pixel Frequency -->
     <g transform="translate(18.577812 555.105573) rotate(-90) scale(0.1 -0.1)">
      <use xlink:href="#DejaVuSans-50"/>
      <use xlink:href="#DejaVuSans-69" x="58.052734"/>
      <use xlink:href="#DejaVuSans-78" x="85.835938"/>
      <use xlink:href="#DejaVuSans-65" x="141.890625"/>
      <use xlink:href="#DejaVuSans-6c" x="203.414062"/>
      <use xlink:href="#DejaVuSans-20" x="231.197266"/>
      <use xlink:href="#DejaVuSans-46" x="262.984375"/>
      <use xlink:href="#DejaVuSans-72" x="313.253906"/>
      <use xlink:href="#DejaVuSans-65" x="352.117188"/>
      <use xlink:href="#DejaVuSans-71" x="413.640625"/>
      <use xlink:href="#DejaVuSans-75" x="477.117188"/>
      <use xlink:href="#DejaVuSans-65" x="540.496094"/>
      <use xlink:href="#DejaVuSans-6e" x="602.019531"/>
      <use xlink:href="#DejaVuSans-63" x="665.398438"/>
      <use xlink:href="#DejaVuSans-79" x="720.378906"/>
     </g>
    </g>
   </g>
   <g id="line2d_42">
    <path d="M 63.47 606.04 
L 109.211428 605.952585 
L 111.661862 605.734048 
L 112.478673 605.806894 
L 113.295484 605.632065 
L 114.112296 605.617495 
L 114.929107 605.486373 
L 116.562729 605.588357 
L 117.37954 605.457235 
L 118.196352 605.530081 
L 119.013163 605.340682 
L 120.646785 605.36982 
L 121.463596 605.194991 
L 122.280408 605.224129 
L 123.91403 605.093007 
L 124.730841 604.830763 
L 125.547653 604.961885 
L 126.364464 604.772486 
L 127.181275 604.087738 
L 128.814897 603.88377 
L 129.631709 603.694371 
L 131.265331 602.412289 
L 132.082142 602.106337 
L 132.898954 601.348743 
L 133.715765 600.372612 
L 136.166198 599.148806 
L 136.98301 598.303796 
L 137.799821 598.973976 
L 138.616632 599.323635 
L 140.250255 600.693132 
L 141.067066 601.028222 
L 141.883877 600.765978 
L 142.700688 601.188483 
L 144.334311 601.39245 
L 145.151122 600.955377 
L 145.967933 601.013653 
L 146.784744 600.795116 
L 147.601555 600.984515 
L 148.418367 601.305036 
L 149.235178 601.348743 
L 150.051989 601.552711 
L 151.685612 601.101068 
L 152.502423 601.421588 
L 153.319234 601.436158 
L 154.136045 601.246759 
L 159.036913 601.421588 
L 159.853724 601.698402 
L 160.670535 601.348743 
L 161.487346 601.596418 
L 163.120969 601.421588 
L 163.93778 601.844093 
L 164.754591 601.683833 
L 165.571402 601.844093 
L 167.205025 601.683833 
L 168.021836 601.509003 
L 168.838647 601.465296 
L 169.655458 601.538141 
L 171.289081 601.334174 
L 172.105892 601.509003 
L 172.922703 602.281167 
L 173.739514 602.470565 
L 174.556326 601.989784 
L 175.373137 602.091768 
L 176.189948 602.761948 
L 177.006759 602.383151 
L 177.823571 602.354012 
L 178.640382 602.514273 
L 179.457193 602.266598 
L 180.274004 602.55798 
L 181.090815 602.71824 
L 181.907627 602.659964 
L 182.724438 602.485134 
L 183.541249 602.980484 
L 184.35806 602.339443 
L 185.174872 602.368581 
L 185.991683 602.266598 
L 186.808494 602.747379 
L 187.625305 602.150045 
L 189.258928 601.931508 
L 190.075739 602.018922 
L 190.89255 601.712971 
L 191.709361 602.208321 
L 193.342984 602.22289 
L 194.159795 601.8878 
L 194.976606 601.771247 
L 195.793417 601.873231 
L 196.610229 601.538141 
L 199.060662 602.135475 
L 199.877473 601.785817 
L 200.694285 602.06263 
L 202.327907 602.324874 
L 203.144718 602.150045 
L 203.96153 602.091768 
L 204.778341 602.295736 
L 205.595152 601.581849 
L 206.411963 602.237459 
L 207.228774 602.091768 
L 208.045586 602.22289 
L 208.862397 603.082468 
L 209.679208 602.354012 
L 210.496019 602.791086 
L 212.129642 603.038761 
L 212.946453 602.441427 
L 213.763264 602.499703 
L 214.580075 602.674533 
L 215.396887 602.689102 
L 216.213698 602.89307 
L 217.030509 602.514273 
L 217.84732 602.89307 
L 218.664131 602.674533 
L 219.480943 603.038761 
L 220.297754 603.097037 
L 221.114565 602.776517 
L 221.931376 602.324874 
L 222.748188 602.761948 
L 223.564999 602.761948 
L 224.38181 603.271867 
L 225.198621 603.286436 
L 226.015432 602.659964 
L 228.465866 603.271867 
L 229.282677 603.359282 
L 230.099489 602.922208 
L 230.9163 603.373851 
L 231.733111 603.169883 
L 232.549922 603.330143 
L 233.366733 603.927477 
L 234.183545 603.22816 
L 235.000356 603.563249 
L 235.817167 603.461265 
L 236.633978 603.577818 
L 239.084412 602.907639 
L 239.901223 603.155314 
L 240.718034 603.563249 
L 241.534846 603.315574 
L 243.985279 603.519542 
L 244.80209 603.475835 
L 245.618902 603.650664 
L 246.435713 602.863932 
L 247.252524 603.184452 
L 248.069335 603.22816 
L 248.886147 603.519542 
L 249.702958 603.956616 
L 251.33658 603.636095 
L 252.970203 603.956616 
L 253.787014 603.257298 
L 254.603825 603.271867 
L 255.420636 602.747379 
L 256.237448 602.761948 
L 257.054259 603.490404 
L 257.87107 603.621526 
L 258.687881 602.936777 
L 259.504692 602.936777 
L 260.321504 603.402989 
L 261.138315 603.271867 
L 261.955126 602.936777 
L 262.771937 602.310305 
L 263.588748 602.091768 
L 264.40556 602.368581 
L 265.222371 602.849362 
L 266.039182 602.761948 
L 266.855993 602.383151 
L 267.672805 601.407019 
L 268.489616 601.013653 
L 269.306427 602.645395 
L 270.123238 599.207082 
L 270.940049 594.122459 
L 271.756861 565.377582 
L 271.756861 565.377582 
" clip-path="url(#p68cc5e540d)" style="fill: none; stroke: #0000ff; stroke-width: 1.5; stroke-linecap: square"/>
   </g>
   <g id="patch_13">
    <path d="M 63.47 606.04 
L 63.47 426.213333 
" style="fill: none; stroke: #000000; stroke-width: 0.8; stroke-linejoin: miter; stroke-linecap: square"/>
   </g>
   <g id="patch_14">
    <path d="M 272.573672 606.04 
L 272.573672 426.213333 
" style="fill: none; stroke: #000000; stroke-width: 0.8; stroke-linejoin: miter; stroke-linecap: square"/>
   </g>
   <g id="patch_15">
    <path d="M 63.47 606.04 
L 272.573672 606.04 
" style="fill: none; stroke: #000000; stroke-width: 0.8; stroke-linejoin: miter; stroke-linecap: square"/>
   </g>
   <g id="patch_16">
    <path d="M 63.47 426.213333 
L 272.573672 426.213333 
" style="fill: none; stroke: #000000; stroke-width: 0.8; stroke-linejoin: miter; stroke-linecap: square"/>
   </g>
   <g id="text_46">
    <!-- Blue Channel  -->
    <g transform="translate(189.124922 440.213333) scale(0.12 -0.12)">
     <defs>
      <path id="DejaVuSans-42" d="M 1259 2228 
L 1259 519 
L 2272 519 
Q 2781 519 3026 730 
Q 3272 941 3272 1375 
Q 3272 1813 3026 2020 
Q 2781 2228 2272 2228 
L 1259 2228 
z
M 1259 4147 
L 1259 2741 
L 2194 2741 
Q 2656 2741 2882 2914 
Q 3109 3088 3109 3444 
Q 3109 3797 2882 3972 
Q 2656 4147 2194 4147 
L 1259 4147 
z
M 628 4666 
L 2241 4666 
Q 2963 4666 3353 4366 
Q 3744 4066 3744 3513 
Q 3744 3084 3544 2831 
Q 3344 2578 2956 2516 
Q 3422 2416 3680 2098 
Q 3938 1781 3938 1306 
Q 3938 681 3513 340 
Q 3088 0 2303 0 
L 628 0 
L 628 4666 
z
" transform="scale(0.015625)"/>
     </defs>
     <use xlink:href="#DejaVuSans-42"/>
     <use xlink:href="#DejaVuSans-6c" x="68.603516"/>
     <use xlink:href="#DejaVuSans-75" x="96.386719"/>
     <use xlink:href="#DejaVuSans-65" x="159.765625"/>
     <use xlink:href="#DejaVuSans-20" x="221.289062"/>
     <use xlink:href="#DejaVuSans-43" x="253.076172"/>
     <use xlink:href="#DejaVuSans-68" x="322.900391"/>
     <use xlink:href="#DejaVuSans-61" x="386.279297"/>
     <use xlink:href="#DejaVuSans-6e" x="447.558594"/>
     <use xlink:href="#DejaVuSans-6e" x="510.9375"/>
     <use xlink:href="#DejaVuSans-65" x="574.316406"/>
     <use xlink:href="#DejaVuSans-6c" x="635.839844"/>
     <use xlink:href="#DejaVuSans-20" x="663.623047"/>
    </g>
   </g>
  </g>
 </g>
 <defs>
  <clipPath id="p3062fc43be">
   <rect x="63.47" y="10.8" width="209.103672" height="179.826667"/>
  </clipPath>
  <clipPath id="pbb5e5ecf6e">
   <rect x="63.47" y="218.506667" width="209.103672" height="179.826667"/>
  </clipPath>
  <clipPath id="p68cc5e540d">
   <rect x="63.47" y="426.213333" width="209.103672" height="179.826667"/>
  </clipPath>
 </defs>
</svg>
