<?xml version="1.0" encoding="utf-8" standalone="no"?>
<!DOCTYPE svg PUBLIC "-//W3C//DTD SVG 1.1//EN"
  "http://www.w3.org/Graphics/SVG/1.1/DTD/svg11.dtd">
<svg xmlns:xlink="http://www.w3.org/1999/xlink" width="288pt" height="648pt" viewBox="0 0 288 648" xmlns="http://www.w3.org/2000/svg" version="1.1">
 <metadata>
  <rdf:RDF xmlns:dc="http://purl.org/dc/elements/1.1/" xmlns:cc="http://creativecommons.org/ns#" xmlns:rdf="http://www.w3.org/1999/02/22-rdf-syntax-ns#">
   <cc:Work>
    <dc:type rdf:resource="http://purl.org/dc/dcmitype/StillImage"/>
    <dc:date>2023-11-18T15:18:14.163612</dc:date>
    <dc:format>image/svg+xml</dc:format>
    <dc:creator>
     <cc:Agent>
      <dc:title>Matplotlib v3.8.0, https://matplotlib.org/</dc:title>
     </cc:Agent>
    </dc:creator>
   </cc:Work>
  </rdf:RDF>
 </metadata>
 <defs>
  <style type="text/css">*{stroke-linejoin: round; stroke-linecap: butt}</style>
 </defs>
 <g id="figure_1">
  <g id="patch_1">
   <path d="M 0 648 
L 288 648 
L 288 0 
L 0 0 
z
" style="fill: #ffffff"/>
  </g>
  <g id="axes_1">
   <g id="patch_2">
    <path d="M 57.17 190.626667 
L 272.721328 190.626667 
L 272.721328 10.8 
L 57.17 10.8 
z
" style="fill: #ffffff"/>
   </g>
   <g id="PolyCollection_1">
    <defs>
     <path id="m64875969b5" d="M 57.17 -457.373333 
L 57.17 -457.373333 
L 58.011997 -457.373333 
L 58.853995 -457.373333 
L 59.695992 -457.373333 
L 60.53799 -457.373333 
L 61.379987 -457.373333 
L 62.221984 -457.373333 
L 63.063982 -457.373333 
L 63.905979 -457.373333 
L 64.747976 -457.373333 
L 65.589974 -457.373333 
L 66.431971 -457.373333 
L 67.273969 -457.373333 
L 68.115966 -457.373333 
L 68.957963 -457.373333 
L 69.799961 -457.373333 
L 70.641958 -457.373333 
L 71.483955 -457.373333 
L 72.325953 -457.373333 
L 73.16795 -457.373333 
L 74.009948 -457.373333 
L 74.851945 -457.373333 
L 75.693942 -457.373333 
L 76.53594 -457.373333 
L 77.377937 -457.373333 
L 78.219934 -457.373333 
L 79.061932 -457.373333 
L 79.903929 -457.373333 
L 80.745927 -457.373333 
L 81.587924 -457.373333 
L 82.429921 -457.373333 
L 83.271919 -457.373333 
L 84.113916 -457.373333 
L 84.955913 -457.373333 
L 85.797911 -457.373333 
L 86.639908 -457.373333 
L 87.481906 -457.373333 
L 88.323903 -457.373333 
L 89.1659 -457.373333 
L 90.007898 -457.373333 
L 90.849895 -457.373333 
L 91.691892 -457.373333 
L 92.53389 -457.373333 
L 93.375887 -457.373333 
L 94.217885 -457.373333 
L 95.059882 -457.373333 
L 95.901879 -457.373333 
L 96.743877 -457.373333 
L 97.585874 -457.373333 
L 98.427871 -457.373333 
L 99.269869 -457.373333 
L 100.111866 -457.373333 
L 100.953864 -457.373333 
L 101.795861 -457.373333 
L 102.637858 -457.373333 
L 103.479856 -457.373333 
L 104.321853 -457.373333 
L 105.16385 -457.373333 
L 106.005848 -457.373333 
L 106.847845 -457.373333 
L 107.689843 -457.373333 
L 108.53184 -457.373333 
L 109.373837 -457.373333 
L 110.215835 -457.373333 
L 111.057832 -457.373333 
L 111.899829 -457.373333 
L 112.741827 -457.373333 
L 113.583824 -457.373333 
L 114.425822 -457.373333 
L 115.267819 -457.373333 
L 116.109816 -457.373333 
L 116.951814 -457.373333 
L 117.793811 -457.373333 
L 118.635808 -457.373333 
L 119.477806 -457.484098 
L 120.319803 -458.037922 
L 121.161801 -457.705628 
L 122.003798 -457.594863 
L 122.845795 -457.484098 
L 123.687793 -457.594863 
L 124.52979 -457.539481 
L 125.371787 -457.927157 
L 126.213785 -458.425599 
L 127.055782 -459.256335 
L 127.89778 -462.966956 
L 128.739777 -467.840608 
L 129.581774 -467.785225 
L 130.423772 -471.440464 
L 131.265769 -475.760292 
L 132.107766 -484.898388 
L 132.949764 -507.27288 
L 133.791761 -526.989016 
L 134.633759 -531.031931 
L 135.475756 -546.760534 
L 136.317753 -529.425841 
L 137.159751 -538.508556 
L 138.001748 -556.673984 
L 138.843745 -578.993093 
L 139.685743 -541.333058 
L 140.52774 -528.761252 
L 141.369738 -511.149648 
L 142.211735 -514.361827 
L 143.053732 -524.164513 
L 143.89573 -543.326825 
L 144.737727 -547.36974 
L 145.579724 -562.655284 
L 146.421722 -567.805847 
L 147.263719 -577.663915 
L 148.105717 -566.698199 
L 148.947714 -550.748067 
L 149.789711 -536.847083 
L 150.631709 -526.158279 
L 151.473706 -512.644973 
L 152.315703 -501.346962 
L 153.157701 -492.651925 
L 153.999698 -486.282948 
L 154.841696 -479.581677 
L 155.683693 -477.587911 
L 156.52569 -474.652643 
L 157.367688 -471.440464 
L 158.209685 -471.772758 
L 159.051682 -469.834374 
L 159.89368 -468.892873 
L 160.735677 -468.11752 
L 161.577675 -468.283667 
L 162.419672 -466.677577 
L 163.261669 -466.566812 
L 164.103667 -465.791459 
L 164.945664 -464.739193 
L 165.787661 -465.403782 
L 166.629659 -464.960723 
L 167.471656 -464.462281 
L 168.313654 -466.400665 
L 169.155651 -463.631545 
L 169.997648 -464.794576 
L 170.839646 -463.631545 
L 171.681643 -463.74231 
L 172.52364 -462.800809 
L 173.365638 -464.517663 
L 174.207635 -463.631545 
L 175.049633 -462.634662 
L 175.89163 -462.690044 
L 176.733627 -462.634662 
L 177.575625 -462.468515 
L 178.417622 -461.91469 
L 179.259619 -461.637778 
L 180.101617 -462.690044 
L 180.943614 -461.305484 
L 181.785612 -461.91469 
L 182.627609 -461.91469 
L 183.469606 -462.413132 
L 184.311604 -461.748543 
L 185.153601 -461.083954 
L 185.995598 -462.13622 
L 186.837596 -461.637778 
L 187.679593 -461.693161 
L 188.521591 -461.360866 
L 189.363588 -461.250102 
L 190.205585 -460.696278 
L 191.047583 -461.527014 
L 191.88958 -460.474748 
L 192.731577 -460.97319 
L 193.573575 -460.640895 
L 194.415572 -461.582396 
L 195.25757 -460.253218 
L 196.099567 -460.585513 
L 196.941564 -460.97319 
L 197.783562 -460.585513 
L 198.625559 -461.028572 
L 199.467556 -460.087071 
L 200.309554 -461.028572 
L 201.151551 -460.807042 
L 201.993549 -460.53013 
L 202.835546 -461.139337 
L 203.677543 -460.917807 
L 204.519541 -460.474748 
L 205.361538 -460.75166 
L 206.203535 -460.474748 
L 207.045533 -459.699394 
L 207.88753 -460.142454 
L 208.729528 -460.807042 
L 209.571525 -460.862425 
L 210.413522 -460.031689 
L 211.25552 -461.305484 
L 212.097517 -460.308601 
L 212.939514 -459.976306 
L 213.781512 -460.253218 
L 214.623509 -460.087071 
L 215.465507 -460.53013 
L 216.307504 -459.699394 
L 217.149501 -460.253218 
L 217.991499 -460.087071 
L 218.833496 -460.53013 
L 219.675493 -460.253218 
L 220.517491 -459.920924 
L 221.359488 -459.920924 
L 222.201486 -459.754777 
L 223.043483 -459.754777 
L 223.88548 -460.197836 
L 224.727478 -459.644012 
L 225.569475 -460.75166 
L 226.411472 -459.976306 
L 227.25347 -460.142454 
L 228.095467 -459.754777 
L 228.937465 -460.419366 
L 229.779462 -460.308601 
L 230.621459 -459.477865 
L 231.463457 -460.474748 
L 232.305454 -459.58863 
L 233.147451 -459.865542 
L 233.989449 -459.920924 
L 234.831446 -459.644012 
L 235.673444 -459.810159 
L 236.515441 -459.533247 
L 237.357438 -460.197836 
L 238.199436 -459.699394 
L 239.041433 -459.920924 
L 239.88343 -459.477865 
L 240.725428 -459.256335 
L 241.567425 -459.58863 
L 242.409423 -459.810159 
L 243.25142 -459.477865 
L 244.093417 -459.865542 
L 244.935415 -459.58863 
L 245.777412 -459.754777 
L 246.619409 -459.920924 
L 247.461407 -460.253218 
L 248.303404 -460.363983 
L 249.145402 -459.810159 
L 249.987399 -459.865542 
L 250.829396 -460.087071 
L 251.671394 -459.3671 
L 252.513391 -460.419366 
L 253.355388 -461.028572 
L 254.197386 -459.58863 
L 255.039383 -460.862425 
L 255.881381 -460.585513 
L 256.723378 -460.474748 
L 257.565375 -460.696278 
L 258.407373 -461.028572 
L 259.24937 -460.807042 
L 260.091367 -461.527014 
L 260.933365 -460.419366 
L 261.775362 -461.471631 
L 262.61736 -461.637778 
L 263.459357 -463.631545 
L 264.301354 -462.302367 
L 265.143352 -461.693161 
L 265.985349 -461.91469 
L 266.827346 -462.911574 
L 267.669344 -463.908457 
L 268.511341 -465.182252 
L 269.353339 -464.517663 
L 270.195336 -466.179136 
L 271.037333 -469.059021 
L 271.879331 -479.027853 
L 271.879331 -457.373333 
L 271.879331 -457.373333 
L 271.037333 -457.373333 
L 270.195336 -457.373333 
L 269.353339 -457.373333 
L 268.511341 -457.373333 
L 267.669344 -457.373333 
L 266.827346 -457.373333 
L 265.985349 -457.373333 
L 265.143352 -457.373333 
L 264.301354 -457.373333 
L 263.459357 -457.373333 
L 262.61736 -457.373333 
L 261.775362 -457.373333 
L 260.933365 -457.373333 
L 260.091367 -457.373333 
L 259.24937 -457.373333 
L 258.407373 -457.373333 
L 257.565375 -457.373333 
L 256.723378 -457.373333 
L 255.881381 -457.373333 
L 255.039383 -457.373333 
L 254.197386 -457.373333 
L 253.355388 -457.373333 
L 252.513391 -457.373333 
L 251.671394 -457.373333 
L 250.829396 -457.373333 
L 249.987399 -457.373333 
L 249.145402 -457.373333 
L 248.303404 -457.373333 
L 247.461407 -457.373333 
L 246.619409 -457.373333 
L 245.777412 -457.373333 
L 244.935415 -457.373333 
L 244.093417 -457.373333 
L 243.25142 -457.373333 
L 242.409423 -457.373333 
L 241.567425 -457.373333 
L 240.725428 -457.373333 
L 239.88343 -457.373333 
L 239.041433 -457.373333 
L 238.199436 -457.373333 
L 237.357438 -457.373333 
L 236.515441 -457.373333 
L 235.673444 -457.373333 
L 234.831446 -457.373333 
L 233.989449 -457.373333 
L 233.147451 -457.373333 
L 232.305454 -457.373333 
L 231.463457 -457.373333 
L 230.621459 -457.373333 
L 229.779462 -457.373333 
L 228.937465 -457.373333 
L 228.095467 -457.373333 
L 227.25347 -457.373333 
L 226.411472 -457.373333 
L 225.569475 -457.373333 
L 224.727478 -457.373333 
L 223.88548 -457.373333 
L 223.043483 -457.373333 
L 222.201486 -457.373333 
L 221.359488 -457.373333 
L 220.517491 -457.373333 
L 219.675493 -457.373333 
L 218.833496 -457.373333 
L 217.991499 -457.373333 
L 217.149501 -457.373333 
L 216.307504 -457.373333 
L 215.465507 -457.373333 
L 214.623509 -457.373333 
L 213.781512 -457.373333 
L 212.939514 -457.373333 
L 212.097517 -457.373333 
L 211.25552 -457.373333 
L 210.413522 -457.373333 
L 209.571525 -457.373333 
L 208.729528 -457.373333 
L 207.88753 -457.373333 
L 207.045533 -457.373333 
L 206.203535 -457.373333 
L 205.361538 -457.373333 
L 204.519541 -457.373333 
L 203.677543 -457.373333 
L 202.835546 -457.373333 
L 201.993549 -457.373333 
L 201.151551 -457.373333 
L 200.309554 -457.373333 
L 199.467556 -457.373333 
L 198.625559 -457.373333 
L 197.783562 -457.373333 
L 196.941564 -457.373333 
L 196.099567 -457.373333 
L 195.25757 -457.373333 
L 194.415572 -457.373333 
L 193.573575 -457.373333 
L 192.731577 -457.373333 
L 191.88958 -457.373333 
L 191.047583 -457.373333 
L 190.205585 -457.373333 
L 189.363588 -457.373333 
L 188.521591 -457.373333 
L 187.679593 -457.373333 
L 186.837596 -457.373333 
L 185.995598 -457.373333 
L 185.153601 -457.373333 
L 184.311604 -457.373333 
L 183.469606 -457.373333 
L 182.627609 -457.373333 
L 181.785612 -457.373333 
L 180.943614 -457.373333 
L 180.101617 -457.373333 
L 179.259619 -457.373333 
L 178.417622 -457.373333 
L 177.575625 -457.373333 
L 176.733627 -457.373333 
L 175.89163 -457.373333 
L 175.049633 -457.373333 
L 174.207635 -457.373333 
L 173.365638 -457.373333 
L 172.52364 -457.373333 
L 171.681643 -457.373333 
L 170.839646 -457.373333 
L 169.997648 -457.373333 
L 169.155651 -457.373333 
L 168.313654 -457.373333 
L 167.471656 -457.373333 
L 166.629659 -457.373333 
L 165.787661 -457.373333 
L 164.945664 -457.373333 
L 164.103667 -457.373333 
L 163.261669 -457.373333 
L 162.419672 -457.373333 
L 161.577675 -457.373333 
L 160.735677 -457.373333 
L 159.89368 -457.373333 
L 159.051682 -457.373333 
L 158.209685 -457.373333 
L 157.367688 -457.373333 
L 156.52569 -457.373333 
L 155.683693 -457.373333 
L 154.841696 -457.373333 
L 153.999698 -457.373333 
L 153.157701 -457.373333 
L 152.315703 -457.373333 
L 151.473706 -457.373333 
L 150.631709 -457.373333 
L 149.789711 -457.373333 
L 148.947714 -457.373333 
L 148.105717 -457.373333 
L 147.263719 -457.373333 
L 146.421722 -457.373333 
L 145.579724 -457.373333 
L 144.737727 -457.373333 
L 143.89573 -457.373333 
L 143.053732 -457.373333 
L 142.211735 -457.373333 
L 141.369738 -457.373333 
L 140.52774 -457.373333 
L 139.685743 -457.373333 
L 138.843745 -457.373333 
L 138.001748 -457.373333 
L 137.159751 -457.373333 
L 136.317753 -457.373333 
L 135.475756 -457.373333 
L 134.633759 -457.373333 
L 133.791761 -457.373333 
L 132.949764 -457.373333 
L 132.107766 -457.373333 
L 131.265769 -457.373333 
L 130.423772 -457.373333 
L 129.581774 -457.373333 
L 128.739777 -457.373333 
L 127.89778 -457.373333 
L 127.055782 -457.373333 
L 126.213785 -457.373333 
L 125.371787 -457.373333 
L 124.52979 -457.373333 
L 123.687793 -457.373333 
L 122.845795 -457.373333 
L 122.003798 -457.373333 
L 121.161801 -457.373333 
L 120.319803 -457.373333 
L 119.477806 -457.373333 
L 118.635808 -457.373333 
L 117.793811 -457.373333 
L 116.951814 -457.373333 
L 116.109816 -457.373333 
L 115.267819 -457.373333 
L 114.425822 -457.373333 
L 113.583824 -457.373333 
L 112.741827 -457.373333 
L 111.899829 -457.373333 
L 111.057832 -457.373333 
L 110.215835 -457.373333 
L 109.373837 -457.373333 
L 108.53184 -457.373333 
L 107.689843 -457.373333 
L 106.847845 -457.373333 
L 106.005848 -457.373333 
L 105.16385 -457.373333 
L 104.321853 -457.373333 
L 103.479856 -457.373333 
L 102.637858 -457.373333 
L 101.795861 -457.373333 
L 100.953864 -457.373333 
L 100.111866 -457.373333 
L 99.269869 -457.373333 
L 98.427871 -457.373333 
L 97.585874 -457.373333 
L 96.743877 -457.373333 
L 95.901879 -457.373333 
L 95.059882 -457.373333 
L 94.217885 -457.373333 
L 93.375887 -457.373333 
L 92.53389 -457.373333 
L 91.691892 -457.373333 
L 90.849895 -457.373333 
L 90.007898 -457.373333 
L 89.1659 -457.373333 
L 88.323903 -457.373333 
L 87.481906 -457.373333 
L 86.639908 -457.373333 
L 85.797911 -457.373333 
L 84.955913 -457.373333 
L 84.113916 -457.373333 
L 83.271919 -457.373333 
L 82.429921 -457.373333 
L 81.587924 -457.373333 
L 80.745927 -457.373333 
L 79.903929 -457.373333 
L 79.061932 -457.373333 
L 78.219934 -457.373333 
L 77.377937 -457.373333 
L 76.53594 -457.373333 
L 75.693942 -457.373333 
L 74.851945 -457.373333 
L 74.009948 -457.373333 
L 73.16795 -457.373333 
L 72.325953 -457.373333 
L 71.483955 -457.373333 
L 70.641958 -457.373333 
L 69.799961 -457.373333 
L 68.957963 -457.373333 
L 68.115966 -457.373333 
L 67.273969 -457.373333 
L 66.431971 -457.373333 
L 65.589974 -457.373333 
L 64.747976 -457.373333 
L 63.905979 -457.373333 
L 63.063982 -457.373333 
L 62.221984 -457.373333 
L 61.379987 -457.373333 
L 60.53799 -457.373333 
L 59.695992 -457.373333 
L 58.853995 -457.373333 
L 58.011997 -457.373333 
L 57.17 -457.373333 
z
" style="stroke: #ff0000; stroke-opacity: 0.4"/>
    </defs>
    <g clip-path="url(#p5c7e5a4e9e)">
     <use xlink:href="#m64875969b5" x="0" y="648" style="fill: #ff0000; fill-opacity: 0.4; stroke: #ff0000; stroke-opacity: 0.4"/>
    </g>
   </g>
   <g id="matplotlib.axis_1">
    <g id="xtick_1">
     <g id="line2d_1">
      <defs>
       <path id="m561a077e75" d="M 0 0 
L 0 3.5 
" style="stroke: #000000; stroke-width: 0.8"/>
      </defs>
      <g>
       <use xlink:href="#m561a077e75" x="57.17" y="190.626667" style="stroke: #000000; stroke-width: 0.8"/>
      </g>
     </g>
     <g id="text_1">
      <!-- 0 -->
      <g transform="translate(53.98875 205.225104) scale(0.1 -0.1)">
       <defs>
        <path id="DejaVuSans-30" d="M 2034 4250 
Q 1547 4250 1301 3770 
Q 1056 3291 1056 2328 
Q 1056 1369 1301 889 
Q 1547 409 2034 409 
Q 2525 409 2770 889 
Q 3016 1369 3016 2328 
Q 3016 3291 2770 3770 
Q 2525 4250 2034 4250 
z
M 2034 4750 
Q 2819 4750 3233 4129 
Q 3647 3509 3647 2328 
Q 3647 1150 3233 529 
Q 2819 -91 2034 -91 
Q 1250 -91 836 529 
Q 422 1150 422 2328 
Q 422 3509 836 4129 
Q 1250 4750 2034 4750 
z
" transform="scale(0.015625)"/>
       </defs>
       <use xlink:href="#DejaVuSans-30"/>
      </g>
     </g>
    </g>
    <g id="xtick_2">
     <g id="line2d_2">
      <g>
       <use xlink:href="#m561a077e75" x="99.269869" y="190.626667" style="stroke: #000000; stroke-width: 0.8"/>
      </g>
     </g>
     <g id="text_2">
      <!-- 50 -->
      <g transform="translate(92.907369 205.225104) scale(0.1 -0.1)">
       <defs>
        <path id="DejaVuSans-35" d="M 691 4666 
L 3169 4666 
L 3169 4134 
L 1269 4134 
L 1269 2991 
Q 1406 3038 1543 3061 
Q 1681 3084 1819 3084 
Q 2600 3084 3056 2656 
Q 3513 2228 3513 1497 
Q 3513 744 3044 326 
Q 2575 -91 1722 -91 
Q 1428 -91 1123 -41 
Q 819 9 494 109 
L 494 744 
Q 775 591 1075 516 
Q 1375 441 1709 441 
Q 2250 441 2565 725 
Q 2881 1009 2881 1497 
Q 2881 1984 2565 2268 
Q 2250 2553 1709 2553 
Q 1456 2553 1204 2497 
Q 953 2441 691 2322 
L 691 4666 
z
" transform="scale(0.015625)"/>
       </defs>
       <use xlink:href="#DejaVuSans-35"/>
       <use xlink:href="#DejaVuSans-30" x="63.623047"/>
      </g>
     </g>
    </g>
    <g id="xtick_3">
     <g id="line2d_3">
      <g>
       <use xlink:href="#m561a077e75" x="141.369738" y="190.626667" style="stroke: #000000; stroke-width: 0.8"/>
      </g>
     </g>
     <g id="text_3">
      <!-- 100 -->
      <g transform="translate(131.825988 205.225104) scale(0.1 -0.1)">
       <defs>
        <path id="DejaVuSans-31" d="M 794 531 
L 1825 531 
L 1825 4091 
L 703 3866 
L 703 4441 
L 1819 4666 
L 2450 4666 
L 2450 531 
L 3481 531 
L 3481 0 
L 794 0 
L 794 531 
z
" transform="scale(0.015625)"/>
       </defs>
       <use xlink:href="#DejaVuSans-31"/>
       <use xlink:href="#DejaVuSans-30" x="63.623047"/>
       <use xlink:href="#DejaVuSans-30" x="127.246094"/>
      </g>
     </g>
    </g>
    <g id="xtick_4">
     <g id="line2d_4">
      <g>
       <use xlink:href="#m561a077e75" x="183.469606" y="190.626667" style="stroke: #000000; stroke-width: 0.8"/>
      </g>
     </g>
     <g id="text_4">
      <!-- 150 -->
      <g transform="translate(173.925856 205.225104) scale(0.1 -0.1)">
       <use xlink:href="#DejaVuSans-31"/>
       <use xlink:href="#DejaVuSans-35" x="63.623047"/>
       <use xlink:href="#DejaVuSans-30" x="127.246094"/>
      </g>
     </g>
    </g>
    <g id="xtick_5">
     <g id="line2d_5">
      <g>
       <use xlink:href="#m561a077e75" x="225.569475" y="190.626667" style="stroke: #000000; stroke-width: 0.8"/>
      </g>
     </g>
     <g id="text_5">
      <!-- 200 -->
      <g transform="translate(216.025725 205.225104) scale(0.1 -0.1)">
       <defs>
        <path id="DejaVuSans-32" d="M 1228 531 
L 3431 531 
L 3431 0 
L 469 0 
L 469 531 
Q 828 903 1448 1529 
Q 2069 2156 2228 2338 
Q 2531 2678 2651 2914 
Q 2772 3150 2772 3378 
Q 2772 3750 2511 3984 
Q 2250 4219 1831 4219 
Q 1534 4219 1204 4116 
Q 875 4013 500 3803 
L 500 4441 
Q 881 4594 1212 4672 
Q 1544 4750 1819 4750 
Q 2544 4750 2975 4387 
Q 3406 4025 3406 3419 
Q 3406 3131 3298 2873 
Q 3191 2616 2906 2266 
Q 2828 2175 2409 1742 
Q 1991 1309 1228 531 
z
" transform="scale(0.015625)"/>
       </defs>
       <use xlink:href="#DejaVuSans-32"/>
       <use xlink:href="#DejaVuSans-30" x="63.623047"/>
       <use xlink:href="#DejaVuSans-30" x="127.246094"/>
      </g>
     </g>
    </g>
    <g id="xtick_6">
     <g id="line2d_6">
      <g>
       <use xlink:href="#m561a077e75" x="267.669344" y="190.626667" style="stroke: #000000; stroke-width: 0.8"/>
      </g>
     </g>
     <g id="text_6">
      <!-- 250 -->
      <g transform="translate(258.125594 205.225104) scale(0.1 -0.1)">
       <use xlink:href="#DejaVuSans-32"/>
       <use xlink:href="#DejaVuSans-35" x="63.623047"/>
       <use xlink:href="#DejaVuSans-30" x="127.246094"/>
      </g>
     </g>
    </g>
   </g>
   <g id="matplotlib.axis_2">
    <g id="ytick_1">
     <g id="line2d_7">
      <defs>
       <path id="mf9148f0d3b" d="M 0 0 
L -3.5 0 
" style="stroke: #000000; stroke-width: 0.8"/>
      </defs>
      <g>
       <use xlink:href="#mf9148f0d3b" x="57.17" y="190.626667" style="stroke: #000000; stroke-width: 0.8"/>
      </g>
     </g>
     <g id="text_7">
      <!-- 0 -->
      <g transform="translate(43.8075 194.425885) scale(0.1 -0.1)">
       <use xlink:href="#DejaVuSans-30"/>
      </g>
     </g>
    </g>
    <g id="ytick_2">
     <g id="line2d_8">
      <g>
       <use xlink:href="#mf9148f0d3b" x="57.17" y="162.935465" style="stroke: #000000; stroke-width: 0.8"/>
      </g>
     </g>
     <g id="text_8">
      <!-- 500 -->
      <g transform="translate(31.0825 166.734683) scale(0.1 -0.1)">
       <use xlink:href="#DejaVuSans-35"/>
       <use xlink:href="#DejaVuSans-30" x="63.623047"/>
       <use xlink:href="#DejaVuSans-30" x="127.246094"/>
      </g>
     </g>
    </g>
    <g id="ytick_3">
     <g id="line2d_9">
      <g>
       <use xlink:href="#mf9148f0d3b" x="57.17" y="135.244262" style="stroke: #000000; stroke-width: 0.8"/>
      </g>
     </g>
     <g id="text_9">
      <!-- 1000 -->
      <g transform="translate(24.72 139.043481) scale(0.1 -0.1)">
       <use xlink:href="#DejaVuSans-31"/>
       <use xlink:href="#DejaVuSans-30" x="63.623047"/>
       <use xlink:href="#DejaVuSans-30" x="127.246094"/>
       <use xlink:href="#DejaVuSans-30" x="190.869141"/>
      </g>
     </g>
    </g>
    <g id="ytick_4">
     <g id="line2d_10">
      <g>
       <use xlink:href="#mf9148f0d3b" x="57.17" y="107.55306" style="stroke: #000000; stroke-width: 0.8"/>
      </g>
     </g>
     <g id="text_10">
      <!-- 1500 -->
      <g transform="translate(24.72 111.352279) scale(0.1 -0.1)">
       <use xlink:href="#DejaVuSans-31"/>
       <use xlink:href="#DejaVuSans-35" x="63.623047"/>
       <use xlink:href="#DejaVuSans-30" x="127.246094"/>
       <use xlink:href="#DejaVuSans-30" x="190.869141"/>
      </g>
     </g>
    </g>
    <g id="ytick_5">
     <g id="line2d_11">
      <g>
       <use xlink:href="#mf9148f0d3b" x="57.17" y="79.861858" style="stroke: #000000; stroke-width: 0.8"/>
      </g>
     </g>
     <g id="text_11">
      <!-- 2000 -->
      <g transform="translate(24.72 83.661077) scale(0.1 -0.1)">
       <use xlink:href="#DejaVuSans-32"/>
       <use xlink:href="#DejaVuSans-30" x="63.623047"/>
       <use xlink:href="#DejaVuSans-30" x="127.246094"/>
       <use xlink:href="#DejaVuSans-30" x="190.869141"/>
      </g>
     </g>
    </g>
    <g id="ytick_6">
     <g id="line2d_12">
      <g>
       <use xlink:href="#mf9148f0d3b" x="57.17" y="52.170656" style="stroke: #000000; stroke-width: 0.8"/>
      </g>
     </g>
     <g id="text_12">
      <!-- 2500 -->
      <g transform="translate(24.72 55.969875) scale(0.1 -0.1)">
       <use xlink:href="#DejaVuSans-32"/>
       <use xlink:href="#DejaVuSans-35" x="63.623047"/>
       <use xlink:href="#DejaVuSans-30" x="127.246094"/>
       <use xlink:href="#DejaVuSans-30" x="190.869141"/>
      </g>
     </g>
    </g>
    <g id="ytick_7">
     <g id="line2d_13">
      <g>
       <use xlink:href="#mf9148f0d3b" x="57.17" y="24.479454" style="stroke: #000000; stroke-width: 0.8"/>
      </g>
     </g>
     <g id="text_13">
      <!-- 3000 -->
      <g transform="translate(24.72 28.278673) scale(0.1 -0.1)">
       <defs>
        <path id="DejaVuSans-33" d="M 2597 2516 
Q 3050 2419 3304 2112 
Q 3559 1806 3559 1356 
Q 3559 666 3084 287 
Q 2609 -91 1734 -91 
Q 1441 -91 1130 -33 
Q 819 25 488 141 
L 488 750 
Q 750 597 1062 519 
Q 1375 441 1716 441 
Q 2309 441 2620 675 
Q 2931 909 2931 1356 
Q 2931 1769 2642 2001 
Q 2353 2234 1838 2234 
L 1294 2234 
L 1294 2753 
L 1863 2753 
Q 2328 2753 2575 2939 
Q 2822 3125 2822 3475 
Q 2822 3834 2567 4026 
Q 2313 4219 1838 4219 
Q 1578 4219 1281 4162 
Q 984 4106 628 3988 
L 628 4550 
Q 988 4650 1302 4700 
Q 1616 4750 1894 4750 
Q 2613 4750 3031 4423 
Q 3450 4097 3450 3541 
Q 3450 3153 3228 2886 
Q 3006 2619 2597 2516 
z
" transform="scale(0.015625)"/>
       </defs>
       <use xlink:href="#DejaVuSans-33"/>
       <use xlink:href="#DejaVuSans-30" x="63.623047"/>
       <use xlink:href="#DejaVuSans-30" x="127.246094"/>
       <use xlink:href="#DejaVuSans-30" x="190.869141"/>
      </g>
     </g>
    </g>
    <g id="text_14">
     <!-- Pixel Frequency -->
     <g transform="translate(18.640313 139.69224) rotate(-90) scale(0.1 -0.1)">
      <defs>
       <path id="DejaVuSans-50" d="M 1259 4147 
L 1259 2394 
L 2053 2394 
Q 2494 2394 2734 2622 
Q 2975 2850 2975 3272 
Q 2975 3691 2734 3919 
Q 2494 4147 2053 4147 
L 1259 4147 
z
M 628 4666 
L 2053 4666 
Q 2838 4666 3239 4311 
Q 3641 3956 3641 3272 
Q 3641 2581 3239 2228 
Q 2838 1875 2053 1875 
L 1259 1875 
L 1259 0 
L 628 0 
L 628 4666 
z
" transform="scale(0.015625)"/>
       <path id="DejaVuSans-69" d="M 603 3500 
L 1178 3500 
L 1178 0 
L 603 0 
L 603 3500 
z
M 603 4863 
L 1178 4863 
L 1178 4134 
L 603 4134 
L 603 4863 
z
" transform="scale(0.015625)"/>
       <path id="DejaVuSans-78" d="M 3513 3500 
L 2247 1797 
L 3578 0 
L 2900 0 
L 1881 1375 
L 863 0 
L 184 0 
L 1544 1831 
L 300 3500 
L 978 3500 
L 1906 2253 
L 2834 3500 
L 3513 3500 
z
" transform="scale(0.015625)"/>
       <path id="DejaVuSans-65" d="M 3597 1894 
L 3597 1613 
L 953 1613 
Q 991 1019 1311 708 
Q 1631 397 2203 397 
Q 2534 397 2845 478 
Q 3156 559 3463 722 
L 3463 178 
Q 3153 47 2828 -22 
Q 2503 -91 2169 -91 
Q 1331 -91 842 396 
Q 353 884 353 1716 
Q 353 2575 817 3079 
Q 1281 3584 2069 3584 
Q 2775 3584 3186 3129 
Q 3597 2675 3597 1894 
z
M 3022 2063 
Q 3016 2534 2758 2815 
Q 2500 3097 2075 3097 
Q 1594 3097 1305 2825 
Q 1016 2553 972 2059 
L 3022 2063 
z
" transform="scale(0.015625)"/>
       <path id="DejaVuSans-6c" d="M 603 4863 
L 1178 4863 
L 1178 0 
L 603 0 
L 603 4863 
z
" transform="scale(0.015625)"/>
       <path id="DejaVuSans-20" transform="scale(0.015625)"/>
       <path id="DejaVuSans-46" d="M 628 4666 
L 3309 4666 
L 3309 4134 
L 1259 4134 
L 1259 2759 
L 3109 2759 
L 3109 2228 
L 1259 2228 
L 1259 0 
L 628 0 
L 628 4666 
z
" transform="scale(0.015625)"/>
       <path id="DejaVuSans-72" d="M 2631 2963 
Q 2534 3019 2420 3045 
Q 2306 3072 2169 3072 
Q 1681 3072 1420 2755 
Q 1159 2438 1159 1844 
L 1159 0 
L 581 0 
L 581 3500 
L 1159 3500 
L 1159 2956 
Q 1341 3275 1631 3429 
Q 1922 3584 2338 3584 
Q 2397 3584 2469 3576 
Q 2541 3569 2628 3553 
L 2631 2963 
z
" transform="scale(0.015625)"/>
       <path id="DejaVuSans-71" d="M 947 1747 
Q 947 1113 1208 752 
Q 1469 391 1925 391 
Q 2381 391 2643 752 
Q 2906 1113 2906 1747 
Q 2906 2381 2643 2742 
Q 2381 3103 1925 3103 
Q 1469 3103 1208 2742 
Q 947 2381 947 1747 
z
M 2906 525 
Q 2725 213 2448 61 
Q 2172 -91 1784 -91 
Q 1150 -91 751 415 
Q 353 922 353 1747 
Q 353 2572 751 3078 
Q 1150 3584 1784 3584 
Q 2172 3584 2448 3432 
Q 2725 3281 2906 2969 
L 2906 3500 
L 3481 3500 
L 3481 -1331 
L 2906 -1331 
L 2906 525 
z
" transform="scale(0.015625)"/>
       <path id="DejaVuSans-75" d="M 544 1381 
L 544 3500 
L 1119 3500 
L 1119 1403 
Q 1119 906 1312 657 
Q 1506 409 1894 409 
Q 2359 409 2629 706 
Q 2900 1003 2900 1516 
L 2900 3500 
L 3475 3500 
L 3475 0 
L 2900 0 
L 2900 538 
Q 2691 219 2414 64 
Q 2138 -91 1772 -91 
Q 1169 -91 856 284 
Q 544 659 544 1381 
z
M 1991 3584 
L 1991 3584 
z
" transform="scale(0.015625)"/>
       <path id="DejaVuSans-6e" d="M 3513 2113 
L 3513 0 
L 2938 0 
L 2938 2094 
Q 2938 2591 2744 2837 
Q 2550 3084 2163 3084 
Q 1697 3084 1428 2787 
Q 1159 2491 1159 1978 
L 1159 0 
L 581 0 
L 581 3500 
L 1159 3500 
L 1159 2956 
Q 1366 3272 1645 3428 
Q 1925 3584 2291 3584 
Q 2894 3584 3203 3211 
Q 3513 2838 3513 2113 
z
" transform="scale(0.015625)"/>
       <path id="DejaVuSans-63" d="M 3122 3366 
L 3122 2828 
Q 2878 2963 2633 3030 
Q 2388 3097 2138 3097 
Q 1578 3097 1268 2742 
Q 959 2388 959 1747 
Q 959 1106 1268 751 
Q 1578 397 2138 397 
Q 2388 397 2633 464 
Q 2878 531 3122 666 
L 3122 134 
Q 2881 22 2623 -34 
Q 2366 -91 2075 -91 
Q 1284 -91 818 406 
Q 353 903 353 1747 
Q 353 2603 823 3093 
Q 1294 3584 2113 3584 
Q 2378 3584 2631 3529 
Q 2884 3475 3122 3366 
z
" transform="scale(0.015625)"/>
       <path id="DejaVuSans-79" d="M 2059 -325 
Q 1816 -950 1584 -1140 
Q 1353 -1331 966 -1331 
L 506 -1331 
L 506 -850 
L 844 -850 
Q 1081 -850 1212 -737 
Q 1344 -625 1503 -206 
L 1606 56 
L 191 3500 
L 800 3500 
L 1894 763 
L 2988 3500 
L 3597 3500 
L 2059 -325 
z
" transform="scale(0.015625)"/>
      </defs>
      <use xlink:href="#DejaVuSans-50"/>
      <use xlink:href="#DejaVuSans-69" x="58.052734"/>
      <use xlink:href="#DejaVuSans-78" x="85.835938"/>
      <use xlink:href="#DejaVuSans-65" x="141.890625"/>
      <use xlink:href="#DejaVuSans-6c" x="203.414062"/>
      <use xlink:href="#DejaVuSans-20" x="231.197266"/>
      <use xlink:href="#DejaVuSans-46" x="262.984375"/>
      <use xlink:href="#DejaVuSans-72" x="313.253906"/>
      <use xlink:href="#DejaVuSans-65" x="352.117188"/>
      <use xlink:href="#DejaVuSans-71" x="413.640625"/>
      <use xlink:href="#DejaVuSans-75" x="477.117188"/>
      <use xlink:href="#DejaVuSans-65" x="540.496094"/>
      <use xlink:href="#DejaVuSans-6e" x="602.019531"/>
      <use xlink:href="#DejaVuSans-63" x="665.398438"/>
      <use xlink:href="#DejaVuSans-79" x="720.378906"/>
     </g>
    </g>
   </g>
   <g id="line2d_14">
    <path d="M 57.17 190.626667 
L 119.477806 190.515902 
L 120.319803 189.962078 
L 121.161801 190.294372 
L 122.845795 190.515902 
L 123.687793 190.405137 
L 124.52979 190.460519 
L 126.213785 189.574401 
L 127.055782 188.743665 
L 127.89778 185.033044 
L 128.739777 180.159392 
L 129.581774 180.214775 
L 130.423772 176.559536 
L 131.265769 172.239708 
L 132.107766 163.101612 
L 133.791761 121.010984 
L 134.633759 116.968069 
L 135.475756 101.239466 
L 136.317753 118.574159 
L 137.159751 109.491444 
L 138.001748 91.326016 
L 138.843745 69.006907 
L 139.685743 106.666942 
L 140.52774 119.238748 
L 141.369738 136.850352 
L 142.211735 133.638173 
L 143.053732 123.835487 
L 143.89573 104.673175 
L 144.737727 100.63026 
L 145.579724 85.344716 
L 146.421722 80.194153 
L 147.263719 70.336085 
L 148.105717 81.301801 
L 149.789711 111.152917 
L 150.631709 121.841721 
L 151.473706 135.355027 
L 152.315703 146.653038 
L 153.157701 155.348075 
L 154.841696 168.418323 
L 155.683693 170.412089 
L 157.367688 176.559536 
L 158.209685 176.227242 
L 159.051682 178.165626 
L 160.735677 179.88248 
L 161.577675 179.716333 
L 162.419672 181.322423 
L 163.261669 181.433188 
L 164.103667 182.208541 
L 164.945664 183.260807 
L 165.787661 182.596218 
L 167.471656 183.537719 
L 168.313654 181.599335 
L 169.155651 184.368455 
L 169.997648 183.205424 
L 170.839646 184.368455 
L 171.681643 184.25769 
L 172.52364 185.199191 
L 173.365638 183.482337 
L 175.049633 185.365338 
L 176.733627 185.365338 
L 177.575625 185.531485 
L 178.417622 186.08531 
L 179.259619 186.362222 
L 180.101617 185.309956 
L 180.943614 186.694516 
L 181.785612 186.08531 
L 182.627609 186.08531 
L 183.469606 185.586868 
L 185.153601 186.916046 
L 185.995598 185.86378 
L 186.837596 186.362222 
L 187.679593 186.306839 
L 188.521591 186.639134 
L 189.363588 186.749898 
L 190.205585 187.303722 
L 191.047583 186.472986 
L 191.88958 187.525252 
L 192.731577 187.02681 
L 193.573575 187.359105 
L 194.415572 186.417604 
L 195.25757 187.746782 
L 196.941564 187.02681 
L 197.783562 187.414487 
L 198.625559 186.971428 
L 199.467556 187.912929 
L 200.309554 186.971428 
L 201.993549 187.46987 
L 202.835546 186.860663 
L 203.677543 187.082193 
L 204.519541 187.525252 
L 205.361538 187.24834 
L 206.203535 187.525252 
L 207.045533 188.300606 
L 207.88753 187.857546 
L 208.729528 187.192958 
L 209.571525 187.137575 
L 210.413522 187.968311 
L 211.25552 186.694516 
L 212.097517 187.691399 
L 212.939514 188.023694 
L 213.781512 187.746782 
L 214.623509 187.912929 
L 215.465507 187.46987 
L 216.307504 188.300606 
L 217.149501 187.746782 
L 217.991499 187.912929 
L 218.833496 187.46987 
L 220.517491 188.079076 
L 221.359488 188.079076 
L 222.201486 188.245223 
L 223.043483 188.245223 
L 223.88548 187.802164 
L 224.727478 188.355988 
L 225.569475 187.24834 
L 226.411472 188.023694 
L 227.25347 187.857546 
L 228.095467 188.245223 
L 228.937465 187.580634 
L 229.779462 187.691399 
L 230.621459 188.522135 
L 231.463457 187.525252 
L 232.305454 188.41137 
L 233.147451 188.134458 
L 233.989449 188.079076 
L 234.831446 188.355988 
L 235.673444 188.189841 
L 236.515441 188.466753 
L 237.357438 187.802164 
L 238.199436 188.300606 
L 239.041433 188.079076 
L 239.88343 188.522135 
L 240.725428 188.743665 
L 242.409423 188.189841 
L 243.25142 188.522135 
L 244.093417 188.134458 
L 244.935415 188.41137 
L 246.619409 188.079076 
L 247.461407 187.746782 
L 248.303404 187.636017 
L 249.145402 188.189841 
L 249.987399 188.134458 
L 250.829396 187.912929 
L 251.671394 188.6329 
L 252.513391 187.580634 
L 253.355388 186.971428 
L 254.197386 188.41137 
L 255.039383 187.137575 
L 255.881381 187.414487 
L 256.723378 187.525252 
L 258.407373 186.971428 
L 259.24937 187.192958 
L 260.091367 186.472986 
L 260.933365 187.580634 
L 261.775362 186.528369 
L 262.61736 186.362222 
L 263.459357 184.368455 
L 264.301354 185.697633 
L 265.143352 186.306839 
L 265.985349 186.08531 
L 267.669344 184.091543 
L 268.511341 182.817748 
L 269.353339 183.482337 
L 270.195336 181.820864 
L 271.037333 178.940979 
L 271.879331 168.972147 
L 271.879331 168.972147 
" clip-path="url(#p5c7e5a4e9e)" style="fill: none; stroke: #ff0000; stroke-width: 1.5; stroke-linecap: square"/>
   </g>
   <g id="patch_3">
    <path d="M 57.17 190.626667 
L 57.17 10.8 
" style="fill: none; stroke: #000000; stroke-width: 0.8; stroke-linejoin: miter; stroke-linecap: square"/>
   </g>
   <g id="patch_4">
    <path d="M 272.721328 190.626667 
L 272.721328 10.8 
" style="fill: none; stroke: #000000; stroke-width: 0.8; stroke-linejoin: miter; stroke-linecap: square"/>
   </g>
   <g id="patch_5">
    <path d="M 57.17 190.626667 
L 272.721328 190.626667 
" style="fill: none; stroke: #000000; stroke-width: 0.8; stroke-linejoin: miter; stroke-linecap: square"/>
   </g>
   <g id="patch_6">
    <path d="M 57.17 10.8 
L 272.721328 10.8 
" style="fill: none; stroke: #000000; stroke-width: 0.8; stroke-linejoin: miter; stroke-linecap: square"/>
   </g>
   <g id="text_15">
    <!-- Red Channel  -->
    <g transform="translate(193.028203 24.8) scale(0.12 -0.12)">
     <defs>
      <path id="DejaVuSans-52" d="M 2841 2188 
Q 3044 2119 3236 1894 
Q 3428 1669 3622 1275 
L 4263 0 
L 3584 0 
L 2988 1197 
Q 2756 1666 2539 1819 
Q 2322 1972 1947 1972 
L 1259 1972 
L 1259 0 
L 628 0 
L 628 4666 
L 2053 4666 
Q 2853 4666 3247 4331 
Q 3641 3997 3641 3322 
Q 3641 2881 3436 2590 
Q 3231 2300 2841 2188 
z
M 1259 4147 
L 1259 2491 
L 2053 2491 
Q 2509 2491 2742 2702 
Q 2975 2913 2975 3322 
Q 2975 3731 2742 3939 
Q 2509 4147 2053 4147 
L 1259 4147 
z
" transform="scale(0.015625)"/>
      <path id="DejaVuSans-64" d="M 2906 2969 
L 2906 4863 
L 3481 4863 
L 3481 0 
L 2906 0 
L 2906 525 
Q 2725 213 2448 61 
Q 2172 -91 1784 -91 
Q 1150 -91 751 415 
Q 353 922 353 1747 
Q 353 2572 751 3078 
Q 1150 3584 1784 3584 
Q 2172 3584 2448 3432 
Q 2725 3281 2906 2969 
z
M 947 1747 
Q 947 1113 1208 752 
Q 1469 391 1925 391 
Q 2381 391 2643 752 
Q 2906 1113 2906 1747 
Q 2906 2381 2643 2742 
Q 2381 3103 1925 3103 
Q 1469 3103 1208 2742 
Q 947 2381 947 1747 
z
" transform="scale(0.015625)"/>
      <path id="DejaVuSans-43" d="M 4122 4306 
L 4122 3641 
Q 3803 3938 3442 4084 
Q 3081 4231 2675 4231 
Q 1875 4231 1450 3742 
Q 1025 3253 1025 2328 
Q 1025 1406 1450 917 
Q 1875 428 2675 428 
Q 3081 428 3442 575 
Q 3803 722 4122 1019 
L 4122 359 
Q 3791 134 3420 21 
Q 3050 -91 2638 -91 
Q 1578 -91 968 557 
Q 359 1206 359 2328 
Q 359 3453 968 4101 
Q 1578 4750 2638 4750 
Q 3056 4750 3426 4639 
Q 3797 4528 4122 4306 
z
" transform="scale(0.015625)"/>
      <path id="DejaVuSans-68" d="M 3513 2113 
L 3513 0 
L 2938 0 
L 2938 2094 
Q 2938 2591 2744 2837 
Q 2550 3084 2163 3084 
Q 1697 3084 1428 2787 
Q 1159 2491 1159 1978 
L 1159 0 
L 581 0 
L 581 4863 
L 1159 4863 
L 1159 2956 
Q 1366 3272 1645 3428 
Q 1925 3584 2291 3584 
Q 2894 3584 3203 3211 
Q 3513 2838 3513 2113 
z
" transform="scale(0.015625)"/>
      <path id="DejaVuSans-61" d="M 2194 1759 
Q 1497 1759 1228 1600 
Q 959 1441 959 1056 
Q 959 750 1161 570 
Q 1363 391 1709 391 
Q 2188 391 2477 730 
Q 2766 1069 2766 1631 
L 2766 1759 
L 2194 1759 
z
M 3341 1997 
L 3341 0 
L 2766 0 
L 2766 531 
Q 2569 213 2275 61 
Q 1981 -91 1556 -91 
Q 1019 -91 701 211 
Q 384 513 384 1019 
Q 384 1609 779 1909 
Q 1175 2209 1959 2209 
L 2766 2209 
L 2766 2266 
Q 2766 2663 2505 2880 
Q 2244 3097 1772 3097 
Q 1472 3097 1187 3025 
Q 903 2953 641 2809 
L 641 3341 
Q 956 3463 1253 3523 
Q 1550 3584 1831 3584 
Q 2591 3584 2966 3190 
Q 3341 2797 3341 1997 
z
" transform="scale(0.015625)"/>
     </defs>
     <use xlink:href="#DejaVuSans-52"/>
     <use xlink:href="#DejaVuSans-65" x="64.982422"/>
     <use xlink:href="#DejaVuSans-64" x="126.505859"/>
     <use xlink:href="#DejaVuSans-20" x="189.982422"/>
     <use xlink:href="#DejaVuSans-43" x="221.769531"/>
     <use xlink:href="#DejaVuSans-68" x="291.59375"/>
     <use xlink:href="#DejaVuSans-61" x="354.972656"/>
     <use xlink:href="#DejaVuSans-6e" x="416.251953"/>
     <use xlink:href="#DejaVuSans-6e" x="479.630859"/>
     <use xlink:href="#DejaVuSans-65" x="543.009766"/>
     <use xlink:href="#DejaVuSans-6c" x="604.533203"/>
     <use xlink:href="#DejaVuSans-20" x="632.316406"/>
    </g>
   </g>
  </g>
  <g id="axes_2">
   <g id="patch_7">
    <path d="M 57.17 398.333333 
L 272.721328 398.333333 
L 272.721328 218.506667 
L 57.17 218.506667 
z
" style="fill: #ffffff"/>
   </g>
   <g id="PolyCollection_2">
    <defs>
     <path id="m262182fe3d" d="M 57.17 -249.666667 
L 57.17 -249.666667 
L 58.011997 -249.666667 
L 58.853995 -249.666667 
L 59.695992 -249.666667 
L 60.53799 -249.666667 
L 61.379987 -249.666667 
L 62.221984 -249.666667 
L 63.063982 -249.666667 
L 63.905979 -249.666667 
L 64.747976 -249.666667 
L 65.589974 -249.666667 
L 66.431971 -249.666667 
L 67.273969 -249.666667 
L 68.115966 -249.666667 
L 68.957963 -249.666667 
L 69.799961 -249.666667 
L 70.641958 -249.666667 
L 71.483955 -249.666667 
L 72.325953 -249.666667 
L 73.16795 -249.666667 
L 74.009948 -249.666667 
L 74.851945 -249.666667 
L 75.693942 -249.666667 
L 76.53594 -249.666667 
L 77.377937 -249.666667 
L 78.219934 -249.666667 
L 79.061932 -249.666667 
L 79.903929 -249.666667 
L 80.745927 -249.666667 
L 81.587924 -249.666667 
L 82.429921 -249.666667 
L 83.271919 -249.666667 
L 84.113916 -249.666667 
L 84.955913 -249.666667 
L 85.797911 -249.666667 
L 86.639908 -249.666667 
L 87.481906 -249.666667 
L 88.323903 -249.666667 
L 89.1659 -249.666667 
L 90.007898 -249.666667 
L 90.849895 -249.666667 
L 91.691892 -249.666667 
L 92.53389 -249.666667 
L 93.375887 -249.666667 
L 94.217885 -249.666667 
L 95.059882 -249.666667 
L 95.901879 -249.666667 
L 96.743877 -249.666667 
L 97.585874 -249.666667 
L 98.427871 -249.666667 
L 99.269869 -249.666667 
L 100.111866 -249.666667 
L 100.953864 -249.666667 
L 101.795861 -249.666667 
L 102.637858 -249.666667 
L 103.479856 -249.666667 
L 104.321853 -249.666667 
L 105.16385 -249.666667 
L 106.005848 -249.666667 
L 106.847845 -249.666667 
L 107.689843 -249.666667 
L 108.53184 -249.666667 
L 109.373837 -249.666667 
L 110.215835 -249.666667 
L 111.057832 -249.666667 
L 111.899829 -249.666667 
L 112.741827 -249.888196 
L 113.583824 -249.998961 
L 114.425822 -249.888196 
L 115.267819 -250.054343 
L 116.109816 -250.109726 
L 116.951814 -251.605051 
L 117.793811 -253.764965 
L 118.635808 -257.697115 
L 119.477806 -259.912411 
L 120.319803 -265.17374 
L 121.161801 -272.705747 
L 122.003798 -283.61608 
L 122.845795 -315.737875 
L 123.687793 -317.177817 
L 124.52979 -330.414212 
L 125.371787 -338.66619 
L 126.213785 -344.204431 
L 127.055782 -316.845523 
L 127.89778 -324.931354 
L 128.739777 -347.859669 
L 129.581774 -298.846242 
L 130.423772 -271.764246 
L 131.265769 -258.195557 
L 132.107766 -258.02941 
L 132.949764 -258.583234 
L 133.791761 -262.18309 
L 134.633759 -268.884361 
L 135.475756 -278.022458 
L 136.317753 -287.99129 
L 137.159751 -298.56933 
L 138.001748 -306.655161 
L 138.843745 -315.073286 
L 139.685743 -329.805006 
L 140.52774 -337.558542 
L 141.369738 -339.829221 
L 142.211735 -349.0227 
L 143.053732 -346.142815 
L 143.89573 -338.610808 
L 144.737727 -331.798772 
L 145.579724 -328.143534 
L 146.421722 -313.467196 
L 147.263719 -306.489013 
L 148.105717 -292.864942 
L 148.947714 -288.323585 
L 149.789711 -280.625431 
L 150.631709 -273.70263 
L 151.473706 -273.038041 
L 152.315703 -269.32742 
L 153.157701 -265.062975 
L 153.999698 -266.392153 
L 154.841696 -264.398386 
L 155.683693 -264.287621 
L 156.52569 -262.016943 
L 157.367688 -261.518501 
L 158.209685 -258.970911 
L 159.051682 -259.690882 
L 159.89368 -259.358587 
L 160.735677 -258.527851 
L 161.577675 -258.472469 
L 162.419672 -257.198674 
L 163.261669 -257.697115 
L 164.103667 -256.091026 
L 164.945664 -256.367938 
L 165.787661 -256.64485 
L 166.629659 -255.980261 
L 167.471656 -256.035643 
L 168.313654 -256.035643 
L 169.155651 -255.814114 
L 169.997648 -255.869496 
L 170.839646 -256.367938 
L 171.681643 -255.094142 
L 172.52364 -254.540318 
L 173.365638 -255.426437 
L 174.207635 -254.927995 
L 175.049633 -255.592584 
L 175.89163 -255.149525 
L 176.733627 -254.097259 
L 177.575625 -252.878846 
L 178.417622 -254.208024 
L 179.259619 -253.543435 
L 180.101617 -254.706465 
L 180.943614 -254.318789 
L 181.785612 -254.152641 
L 182.627609 -253.6542 
L 183.469606 -253.709582 
L 184.311604 -252.768081 
L 185.153601 -253.820347 
L 185.995598 -253.875729 
L 186.837596 -253.377288 
L 187.679593 -252.989611 
L 188.521591 -253.211141 
L 189.363588 -254.208024 
L 190.205585 -253.543435 
L 191.047583 -252.657316 
L 191.88958 -252.712699 
L 192.731577 -253.044993 
L 193.573575 -253.211141 
L 194.415572 -253.321905 
L 195.25757 -253.321905 
L 196.099567 -252.26964 
L 196.941564 -253.321905 
L 197.783562 -253.044993 
L 198.625559 -253.43267 
L 199.467556 -252.435787 
L 200.309554 -252.546552 
L 201.151551 -252.601934 
L 201.993549 -252.546552 
L 202.835546 -252.26964 
L 203.677543 -252.325022 
L 204.519541 -252.712699 
L 205.361538 -252.435787 
L 206.203535 -252.491169 
L 207.045533 -252.768081 
L 207.88753 -252.768081 
L 208.729528 -252.657316 
L 209.571525 -253.155758 
L 210.413522 -252.934229 
L 211.25552 -252.768081 
L 212.097517 -252.546552 
L 212.939514 -252.878846 
L 213.781512 -252.325022 
L 214.623509 -252.491169 
L 215.465507 -251.992728 
L 216.307504 -252.103492 
L 217.149501 -252.601934 
L 217.991499 -252.491169 
L 218.833496 -252.325022 
L 219.675493 -253.211141 
L 220.517491 -252.158875 
L 221.359488 -252.158875 
L 222.201486 -252.601934 
L 223.043483 -252.26964 
L 223.88548 -252.26964 
L 224.727478 -252.04811 
L 225.569475 -252.26964 
L 226.411472 -252.04811 
L 227.25347 -251.937345 
L 228.095467 -252.546552 
L 228.937465 -251.881963 
L 229.779462 -252.823464 
L 230.621459 -253.044993 
L 231.463457 -252.380404 
L 232.305454 -252.325022 
L 233.147451 -251.217374 
L 233.989449 -252.435787 
L 234.831446 -252.657316 
L 235.673444 -252.214257 
L 236.515441 -252.435787 
L 237.357438 -252.103492 
L 238.199436 -252.601934 
L 239.041433 -251.992728 
L 239.88343 -252.491169 
L 240.725428 -252.158875 
L 241.567425 -252.214257 
L 242.409423 -252.712699 
L 243.25142 -252.26964 
L 244.093417 -252.325022 
L 244.935415 -252.214257 
L 245.777412 -251.715816 
L 246.619409 -252.435787 
L 247.461407 -251.82658 
L 248.303404 -251.881963 
L 249.145402 -251.881963 
L 249.987399 -251.937345 
L 250.829396 -251.992728 
L 251.671394 -252.26964 
L 252.513391 -252.657316 
L 253.355388 -252.435787 
L 254.197386 -252.26964 
L 255.039383 -252.546552 
L 255.881381 -252.546552 
L 256.723378 -252.158875 
L 257.565375 -253.266523 
L 258.407373 -252.491169 
L 259.24937 -253.43267 
L 260.091367 -253.6542 
L 260.933365 -252.823464 
L 261.775362 -253.321905 
L 262.61736 -253.488053 
L 263.459357 -254.595701 
L 264.301354 -254.208024 
L 265.143352 -255.149525 
L 265.985349 -255.703349 
L 266.827346 -257.475586 
L 267.669344 -259.137058 
L 268.511341 -259.41397 
L 269.353339 -261.352354 
L 270.195336 -263.346121 
L 271.037333 -268.995126 
L 271.879331 -275.197955 
L 271.879331 -249.666667 
L 271.879331 -249.666667 
L 271.037333 -249.666667 
L 270.195336 -249.666667 
L 269.353339 -249.666667 
L 268.511341 -249.666667 
L 267.669344 -249.666667 
L 266.827346 -249.666667 
L 265.985349 -249.666667 
L 265.143352 -249.666667 
L 264.301354 -249.666667 
L 263.459357 -249.666667 
L 262.61736 -249.666667 
L 261.775362 -249.666667 
L 260.933365 -249.666667 
L 260.091367 -249.666667 
L 259.24937 -249.666667 
L 258.407373 -249.666667 
L 257.565375 -249.666667 
L 256.723378 -249.666667 
L 255.881381 -249.666667 
L 255.039383 -249.666667 
L 254.197386 -249.666667 
L 253.355388 -249.666667 
L 252.513391 -249.666667 
L 251.671394 -249.666667 
L 250.829396 -249.666667 
L 249.987399 -249.666667 
L 249.145402 -249.666667 
L 248.303404 -249.666667 
L 247.461407 -249.666667 
L 246.619409 -249.666667 
L 245.777412 -249.666667 
L 244.935415 -249.666667 
L 244.093417 -249.666667 
L 243.25142 -249.666667 
L 242.409423 -249.666667 
L 241.567425 -249.666667 
L 240.725428 -249.666667 
L 239.88343 -249.666667 
L 239.041433 -249.666667 
L 238.199436 -249.666667 
L 237.357438 -249.666667 
L 236.515441 -249.666667 
L 235.673444 -249.666667 
L 234.831446 -249.666667 
L 233.989449 -249.666667 
L 233.147451 -249.666667 
L 232.305454 -249.666667 
L 231.463457 -249.666667 
L 230.621459 -249.666667 
L 229.779462 -249.666667 
L 228.937465 -249.666667 
L 228.095467 -249.666667 
L 227.25347 -249.666667 
L 226.411472 -249.666667 
L 225.569475 -249.666667 
L 224.727478 -249.666667 
L 223.88548 -249.666667 
L 223.043483 -249.666667 
L 222.201486 -249.666667 
L 221.359488 -249.666667 
L 220.517491 -249.666667 
L 219.675493 -249.666667 
L 218.833496 -249.666667 
L 217.991499 -249.666667 
L 217.149501 -249.666667 
L 216.307504 -249.666667 
L 215.465507 -249.666667 
L 214.623509 -249.666667 
L 213.781512 -249.666667 
L 212.939514 -249.666667 
L 212.097517 -249.666667 
L 211.25552 -249.666667 
L 210.413522 -249.666667 
L 209.571525 -249.666667 
L 208.729528 -249.666667 
L 207.88753 -249.666667 
L 207.045533 -249.666667 
L 206.203535 -249.666667 
L 205.361538 -249.666667 
L 204.519541 -249.666667 
L 203.677543 -249.666667 
L 202.835546 -249.666667 
L 201.993549 -249.666667 
L 201.151551 -249.666667 
L 200.309554 -249.666667 
L 199.467556 -249.666667 
L 198.625559 -249.666667 
L 197.783562 -249.666667 
L 196.941564 -249.666667 
L 196.099567 -249.666667 
L 195.25757 -249.666667 
L 194.415572 -249.666667 
L 193.573575 -249.666667 
L 192.731577 -249.666667 
L 191.88958 -249.666667 
L 191.047583 -249.666667 
L 190.205585 -249.666667 
L 189.363588 -249.666667 
L 188.521591 -249.666667 
L 187.679593 -249.666667 
L 186.837596 -249.666667 
L 185.995598 -249.666667 
L 185.153601 -249.666667 
L 184.311604 -249.666667 
L 183.469606 -249.666667 
L 182.627609 -249.666667 
L 181.785612 -249.666667 
L 180.943614 -249.666667 
L 180.101617 -249.666667 
L 179.259619 -249.666667 
L 178.417622 -249.666667 
L 177.575625 -249.666667 
L 176.733627 -249.666667 
L 175.89163 -249.666667 
L 175.049633 -249.666667 
L 174.207635 -249.666667 
L 173.365638 -249.666667 
L 172.52364 -249.666667 
L 171.681643 -249.666667 
L 170.839646 -249.666667 
L 169.997648 -249.666667 
L 169.155651 -249.666667 
L 168.313654 -249.666667 
L 167.471656 -249.666667 
L 166.629659 -249.666667 
L 165.787661 -249.666667 
L 164.945664 -249.666667 
L 164.103667 -249.666667 
L 163.261669 -249.666667 
L 162.419672 -249.666667 
L 161.577675 -249.666667 
L 160.735677 -249.666667 
L 159.89368 -249.666667 
L 159.051682 -249.666667 
L 158.209685 -249.666667 
L 157.367688 -249.666667 
L 156.52569 -249.666667 
L 155.683693 -249.666667 
L 154.841696 -249.666667 
L 153.999698 -249.666667 
L 153.157701 -249.666667 
L 152.315703 -249.666667 
L 151.473706 -249.666667 
L 150.631709 -249.666667 
L 149.789711 -249.666667 
L 148.947714 -249.666667 
L 148.105717 -249.666667 
L 147.263719 -249.666667 
L 146.421722 -249.666667 
L 145.579724 -249.666667 
L 144.737727 -249.666667 
L 143.89573 -249.666667 
L 143.053732 -249.666667 
L 142.211735 -249.666667 
L 141.369738 -249.666667 
L 140.52774 -249.666667 
L 139.685743 -249.666667 
L 138.843745 -249.666667 
L 138.001748 -249.666667 
L 137.159751 -249.666667 
L 136.317753 -249.666667 
L 135.475756 -249.666667 
L 134.633759 -249.666667 
L 133.791761 -249.666667 
L 132.949764 -249.666667 
L 132.107766 -249.666667 
L 131.265769 -249.666667 
L 130.423772 -249.666667 
L 129.581774 -249.666667 
L 128.739777 -249.666667 
L 127.89778 -249.666667 
L 127.055782 -249.666667 
L 126.213785 -249.666667 
L 125.371787 -249.666667 
L 124.52979 -249.666667 
L 123.687793 -249.666667 
L 122.845795 -249.666667 
L 122.003798 -249.666667 
L 121.161801 -249.666667 
L 120.319803 -249.666667 
L 119.477806 -249.666667 
L 118.635808 -249.666667 
L 117.793811 -249.666667 
L 116.951814 -249.666667 
L 116.109816 -249.666667 
L 115.267819 -249.666667 
L 114.425822 -249.666667 
L 113.583824 -249.666667 
L 112.741827 -249.666667 
L 111.899829 -249.666667 
L 111.057832 -249.666667 
L 110.215835 -249.666667 
L 109.373837 -249.666667 
L 108.53184 -249.666667 
L 107.689843 -249.666667 
L 106.847845 -249.666667 
L 106.005848 -249.666667 
L 105.16385 -249.666667 
L 104.321853 -249.666667 
L 103.479856 -249.666667 
L 102.637858 -249.666667 
L 101.795861 -249.666667 
L 100.953864 -249.666667 
L 100.111866 -249.666667 
L 99.269869 -249.666667 
L 98.427871 -249.666667 
L 97.585874 -249.666667 
L 96.743877 -249.666667 
L 95.901879 -249.666667 
L 95.059882 -249.666667 
L 94.217885 -249.666667 
L 93.375887 -249.666667 
L 92.53389 -249.666667 
L 91.691892 -249.666667 
L 90.849895 -249.666667 
L 90.007898 -249.666667 
L 89.1659 -249.666667 
L 88.323903 -249.666667 
L 87.481906 -249.666667 
L 86.639908 -249.666667 
L 85.797911 -249.666667 
L 84.955913 -249.666667 
L 84.113916 -249.666667 
L 83.271919 -249.666667 
L 82.429921 -249.666667 
L 81.587924 -249.666667 
L 80.745927 -249.666667 
L 79.903929 -249.666667 
L 79.061932 -249.666667 
L 78.219934 -249.666667 
L 77.377937 -249.666667 
L 76.53594 -249.666667 
L 75.693942 -249.666667 
L 74.851945 -249.666667 
L 74.009948 -249.666667 
L 73.16795 -249.666667 
L 72.325953 -249.666667 
L 71.483955 -249.666667 
L 70.641958 -249.666667 
L 69.799961 -249.666667 
L 68.957963 -249.666667 
L 68.115966 -249.666667 
L 67.273969 -249.666667 
L 66.431971 -249.666667 
L 65.589974 -249.666667 
L 64.747976 -249.666667 
L 63.905979 -249.666667 
L 63.063982 -249.666667 
L 62.221984 -249.666667 
L 61.379987 -249.666667 
L 60.53799 -249.666667 
L 59.695992 -249.666667 
L 58.853995 -249.666667 
L 58.011997 -249.666667 
L 57.17 -249.666667 
z
" style="stroke: #008000; stroke-opacity: 0.4"/>
    </defs>
    <g clip-path="url(#pb1154caf1c)">
     <use xlink:href="#m262182fe3d" x="0" y="648" style="fill: #008000; fill-opacity: 0.4; stroke: #008000; stroke-opacity: 0.4"/>
    </g>
   </g>
   <g id="matplotlib.axis_3">
    <g id="xtick_7">
     <g id="line2d_15">
      <g>
       <use xlink:href="#m561a077e75" x="57.17" y="398.333333" style="stroke: #000000; stroke-width: 0.8"/>
      </g>
     </g>
     <g id="text_16">
      <!-- 0 -->
      <g transform="translate(53.98875 412.931771) scale(0.1 -0.1)">
       <use xlink:href="#DejaVuSans-30"/>
      </g>
     </g>
    </g>
    <g id="xtick_8">
     <g id="line2d_16">
      <g>
       <use xlink:href="#m561a077e75" x="99.269869" y="398.333333" style="stroke: #000000; stroke-width: 0.8"/>
      </g>
     </g>
     <g id="text_17">
      <!-- 50 -->
      <g transform="translate(92.907369 412.931771) scale(0.1 -0.1)">
       <use xlink:href="#DejaVuSans-35"/>
       <use xlink:href="#DejaVuSans-30" x="63.623047"/>
      </g>
     </g>
    </g>
    <g id="xtick_9">
     <g id="line2d_17">
      <g>
       <use xlink:href="#m561a077e75" x="141.369738" y="398.333333" style="stroke: #000000; stroke-width: 0.8"/>
      </g>
     </g>
     <g id="text_18">
      <!-- 100 -->
      <g transform="translate(131.825988 412.931771) scale(0.1 -0.1)">
       <use xlink:href="#DejaVuSans-31"/>
       <use xlink:href="#DejaVuSans-30" x="63.623047"/>
       <use xlink:href="#DejaVuSans-30" x="127.246094"/>
      </g>
     </g>
    </g>
    <g id="xtick_10">
     <g id="line2d_18">
      <g>
       <use xlink:href="#m561a077e75" x="183.469606" y="398.333333" style="stroke: #000000; stroke-width: 0.8"/>
      </g>
     </g>
     <g id="text_19">
      <!-- 150 -->
      <g transform="translate(173.925856 412.931771) scale(0.1 -0.1)">
       <use xlink:href="#DejaVuSans-31"/>
       <use xlink:href="#DejaVuSans-35" x="63.623047"/>
       <use xlink:href="#DejaVuSans-30" x="127.246094"/>
      </g>
     </g>
    </g>
    <g id="xtick_11">
     <g id="line2d_19">
      <g>
       <use xlink:href="#m561a077e75" x="225.569475" y="398.333333" style="stroke: #000000; stroke-width: 0.8"/>
      </g>
     </g>
     <g id="text_20">
      <!-- 200 -->
      <g transform="translate(216.025725 412.931771) scale(0.1 -0.1)">
       <use xlink:href="#DejaVuSans-32"/>
       <use xlink:href="#DejaVuSans-30" x="63.623047"/>
       <use xlink:href="#DejaVuSans-30" x="127.246094"/>
      </g>
     </g>
    </g>
    <g id="xtick_12">
     <g id="line2d_20">
      <g>
       <use xlink:href="#m561a077e75" x="267.669344" y="398.333333" style="stroke: #000000; stroke-width: 0.8"/>
      </g>
     </g>
     <g id="text_21">
      <!-- 250 -->
      <g transform="translate(258.125594 412.931771) scale(0.1 -0.1)">
       <use xlink:href="#DejaVuSans-32"/>
       <use xlink:href="#DejaVuSans-35" x="63.623047"/>
       <use xlink:href="#DejaVuSans-30" x="127.246094"/>
      </g>
     </g>
    </g>
   </g>
   <g id="matplotlib.axis_4">
    <g id="ytick_8">
     <g id="line2d_21">
      <g>
       <use xlink:href="#mf9148f0d3b" x="57.17" y="398.333333" style="stroke: #000000; stroke-width: 0.8"/>
      </g>
     </g>
     <g id="text_22">
      <!-- 0 -->
      <g transform="translate(43.8075 402.132552) scale(0.1 -0.1)">
       <use xlink:href="#DejaVuSans-30"/>
      </g>
     </g>
    </g>
    <g id="ytick_9">
     <g id="line2d_22">
      <g>
       <use xlink:href="#mf9148f0d3b" x="57.17" y="370.642131" style="stroke: #000000; stroke-width: 0.8"/>
      </g>
     </g>
     <g id="text_23">
      <!-- 500 -->
      <g transform="translate(31.0825 374.44135) scale(0.1 -0.1)">
       <use xlink:href="#DejaVuSans-35"/>
       <use xlink:href="#DejaVuSans-30" x="63.623047"/>
       <use xlink:href="#DejaVuSans-30" x="127.246094"/>
      </g>
     </g>
    </g>
    <g id="ytick_10">
     <g id="line2d_23">
      <g>
       <use xlink:href="#mf9148f0d3b" x="57.17" y="342.950929" style="stroke: #000000; stroke-width: 0.8"/>
      </g>
     </g>
     <g id="text_24">
      <!-- 1000 -->
      <g transform="translate(24.72 346.750148) scale(0.1 -0.1)">
       <use xlink:href="#DejaVuSans-31"/>
       <use xlink:href="#DejaVuSans-30" x="63.623047"/>
       <use xlink:href="#DejaVuSans-30" x="127.246094"/>
       <use xlink:href="#DejaVuSans-30" x="190.869141"/>
      </g>
     </g>
    </g>
    <g id="ytick_11">
     <g id="line2d_24">
      <g>
       <use xlink:href="#mf9148f0d3b" x="57.17" y="315.259727" style="stroke: #000000; stroke-width: 0.8"/>
      </g>
     </g>
     <g id="text_25">
      <!-- 1500 -->
      <g transform="translate(24.72 319.058946) scale(0.1 -0.1)">
       <use xlink:href="#DejaVuSans-31"/>
       <use xlink:href="#DejaVuSans-35" x="63.623047"/>
       <use xlink:href="#DejaVuSans-30" x="127.246094"/>
       <use xlink:href="#DejaVuSans-30" x="190.869141"/>
      </g>
     </g>
    </g>
    <g id="ytick_12">
     <g id="line2d_25">
      <g>
       <use xlink:href="#mf9148f0d3b" x="57.17" y="287.568525" style="stroke: #000000; stroke-width: 0.8"/>
      </g>
     </g>
     <g id="text_26">
      <!-- 2000 -->
      <g transform="translate(24.72 291.367744) scale(0.1 -0.1)">
       <use xlink:href="#DejaVuSans-32"/>
       <use xlink:href="#DejaVuSans-30" x="63.623047"/>
       <use xlink:href="#DejaVuSans-30" x="127.246094"/>
       <use xlink:href="#DejaVuSans-30" x="190.869141"/>
      </g>
     </g>
    </g>
    <g id="ytick_13">
     <g id="line2d_26">
      <g>
       <use xlink:href="#mf9148f0d3b" x="57.17" y="259.877323" style="stroke: #000000; stroke-width: 0.8"/>
      </g>
     </g>
     <g id="text_27">
      <!-- 2500 -->
      <g transform="translate(24.72 263.676541) scale(0.1 -0.1)">
       <use xlink:href="#DejaVuSans-32"/>
       <use xlink:href="#DejaVuSans-35" x="63.623047"/>
       <use xlink:href="#DejaVuSans-30" x="127.246094"/>
       <use xlink:href="#DejaVuSans-30" x="190.869141"/>
      </g>
     </g>
    </g>
    <g id="ytick_14">
     <g id="line2d_27">
      <g>
       <use xlink:href="#mf9148f0d3b" x="57.17" y="232.186121" style="stroke: #000000; stroke-width: 0.8"/>
      </g>
     </g>
     <g id="text_28">
      <!-- 3000 -->
      <g transform="translate(24.72 235.985339) scale(0.1 -0.1)">
       <use xlink:href="#DejaVuSans-33"/>
       <use xlink:href="#DejaVuSans-30" x="63.623047"/>
       <use xlink:href="#DejaVuSans-30" x="127.246094"/>
       <use xlink:href="#DejaVuSans-30" x="190.869141"/>
      </g>
     </g>
    </g>
    <g id="text_29">
     <!-- Pixel Frequency -->
     <g transform="translate(18.640313 347.398906) rotate(-90) scale(0.1 -0.1)">
      <use xlink:href="#DejaVuSans-50"/>
      <use xlink:href="#DejaVuSans-69" x="58.052734"/>
      <use xlink:href="#DejaVuSans-78" x="85.835938"/>
      <use xlink:href="#DejaVuSans-65" x="141.890625"/>
      <use xlink:href="#DejaVuSans-6c" x="203.414062"/>
      <use xlink:href="#DejaVuSans-20" x="231.197266"/>
      <use xlink:href="#DejaVuSans-46" x="262.984375"/>
      <use xlink:href="#DejaVuSans-72" x="313.253906"/>
      <use xlink:href="#DejaVuSans-65" x="352.117188"/>
      <use xlink:href="#DejaVuSans-71" x="413.640625"/>
      <use xlink:href="#DejaVuSans-75" x="477.117188"/>
      <use xlink:href="#DejaVuSans-65" x="540.496094"/>
      <use xlink:href="#DejaVuSans-6e" x="602.019531"/>
      <use xlink:href="#DejaVuSans-63" x="665.398438"/>
      <use xlink:href="#DejaVuSans-79" x="720.378906"/>
     </g>
    </g>
   </g>
   <g id="line2d_28">
    <path d="M 57.17 398.333333 
L 111.899829 398.333333 
L 113.583824 398.001039 
L 114.425822 398.111804 
L 116.109816 397.890274 
L 116.951814 396.394949 
L 117.793811 394.235035 
L 118.635808 390.302885 
L 119.477806 388.087589 
L 120.319803 382.82626 
L 121.161801 375.294253 
L 122.003798 364.38392 
L 122.845795 332.262125 
L 123.687793 330.822183 
L 124.52979 317.585788 
L 125.371787 309.33381 
L 126.213785 303.795569 
L 127.055782 331.154477 
L 127.89778 323.068646 
L 128.739777 300.140331 
L 129.581774 349.153758 
L 130.423772 376.235754 
L 131.265769 389.804443 
L 132.107766 389.97059 
L 132.949764 389.416766 
L 133.791761 385.81691 
L 134.633759 379.115639 
L 136.317753 360.00871 
L 137.159751 349.43067 
L 138.843745 332.926714 
L 139.685743 318.194994 
L 140.52774 310.441458 
L 141.369738 308.170779 
L 142.211735 298.9773 
L 143.053732 301.857185 
L 144.737727 316.201228 
L 145.579724 319.856466 
L 146.421722 334.532804 
L 147.263719 341.510987 
L 148.105717 355.135058 
L 148.947714 359.676415 
L 150.631709 374.29737 
L 151.473706 374.961959 
L 152.315703 378.67258 
L 153.157701 382.937025 
L 153.999698 381.607847 
L 154.841696 383.601614 
L 155.683693 383.712379 
L 156.52569 385.983057 
L 157.367688 386.481499 
L 158.209685 389.029089 
L 159.051682 388.309118 
L 159.89368 388.641413 
L 160.735677 389.472149 
L 161.577675 389.527531 
L 162.419672 390.801326 
L 163.261669 390.302885 
L 164.103667 391.908974 
L 165.787661 391.35515 
L 166.629659 392.019739 
L 168.313654 391.964357 
L 169.155651 392.185886 
L 169.997648 392.130504 
L 170.839646 391.632062 
L 171.681643 392.905858 
L 172.52364 393.459682 
L 173.365638 392.573563 
L 174.207635 393.072005 
L 175.049633 392.407416 
L 175.89163 392.850475 
L 177.575625 395.121154 
L 178.417622 393.791976 
L 179.259619 394.456565 
L 180.101617 393.293535 
L 180.943614 393.681211 
L 181.785612 393.847359 
L 182.627609 394.3458 
L 183.469606 394.290418 
L 184.311604 395.231919 
L 185.153601 394.179653 
L 185.995598 394.124271 
L 187.679593 395.010389 
L 188.521591 394.788859 
L 189.363588 393.791976 
L 190.205585 394.456565 
L 191.047583 395.342684 
L 191.88958 395.287301 
L 192.731577 394.955007 
L 194.415572 394.678095 
L 195.25757 394.678095 
L 196.099567 395.73036 
L 196.941564 394.678095 
L 197.783562 394.955007 
L 198.625559 394.56733 
L 199.467556 395.564213 
L 201.151551 395.398066 
L 201.993549 395.453448 
L 202.835546 395.73036 
L 203.677543 395.674978 
L 204.519541 395.287301 
L 205.361538 395.564213 
L 206.203535 395.508831 
L 207.045533 395.231919 
L 208.729528 395.342684 
L 209.571525 394.844242 
L 212.097517 395.453448 
L 212.939514 395.121154 
L 213.781512 395.674978 
L 214.623509 395.508831 
L 215.465507 396.007272 
L 216.307504 395.896508 
L 217.149501 395.398066 
L 218.833496 395.674978 
L 219.675493 394.788859 
L 220.517491 395.841125 
L 221.359488 395.841125 
L 222.201486 395.398066 
L 223.043483 395.73036 
L 223.88548 395.73036 
L 224.727478 395.95189 
L 225.569475 395.73036 
L 227.25347 396.062655 
L 228.095467 395.453448 
L 228.937465 396.118037 
L 229.779462 395.176536 
L 230.621459 394.955007 
L 231.463457 395.619596 
L 232.305454 395.674978 
L 233.147451 396.782626 
L 233.989449 395.564213 
L 234.831446 395.342684 
L 235.673444 395.785743 
L 236.515441 395.564213 
L 237.357438 395.896508 
L 238.199436 395.398066 
L 239.041433 396.007272 
L 239.88343 395.508831 
L 240.725428 395.841125 
L 241.567425 395.785743 
L 242.409423 395.287301 
L 243.25142 395.73036 
L 244.093417 395.674978 
L 244.935415 395.785743 
L 245.777412 396.284184 
L 246.619409 395.564213 
L 247.461407 396.17342 
L 250.829396 396.007272 
L 252.513391 395.342684 
L 254.197386 395.73036 
L 255.039383 395.453448 
L 255.881381 395.453448 
L 256.723378 395.841125 
L 257.565375 394.733477 
L 258.407373 395.508831 
L 259.24937 394.56733 
L 260.091367 394.3458 
L 260.933365 395.176536 
L 261.775362 394.678095 
L 262.61736 394.511947 
L 263.459357 393.404299 
L 264.301354 393.791976 
L 265.143352 392.850475 
L 265.985349 392.296651 
L 267.669344 388.862942 
L 268.511341 388.58603 
L 270.195336 384.653879 
L 271.879331 372.802045 
L 271.879331 372.802045 
" clip-path="url(#pb1154caf1c)" style="fill: none; stroke: #008000; stroke-width: 1.5; stroke-linecap: square"/>
   </g>
   <g id="patch_8">
    <path d="M 57.17 398.333333 
L 57.17 218.506667 
" style="fill: none; stroke: #000000; stroke-width: 0.8; stroke-linejoin: miter; stroke-linecap: square"/>
   </g>
   <g id="patch_9">
    <path d="M 272.721328 398.333333 
L 272.721328 218.506667 
" style="fill: none; stroke: #000000; stroke-width: 0.8; stroke-linejoin: miter; stroke-linecap: square"/>
   </g>
   <g id="patch_10">
    <path d="M 57.17 398.333333 
L 272.721328 398.333333 
" style="fill: none; stroke: #000000; stroke-width: 0.8; stroke-linejoin: miter; stroke-linecap: square"/>
   </g>
   <g id="patch_11">
    <path d="M 57.17 218.506667 
L 272.721328 218.506667 
" style="fill: none; stroke: #000000; stroke-width: 0.8; stroke-linejoin: miter; stroke-linecap: square"/>
   </g>
   <g id="text_30">
    <!-- Green Channel  -->
    <g transform="translate(179.494453 232.506667) scale(0.12 -0.12)">
     <defs>
      <path id="DejaVuSans-47" d="M 3809 666 
L 3809 1919 
L 2778 1919 
L 2778 2438 
L 4434 2438 
L 4434 434 
Q 4069 175 3628 42 
Q 3188 -91 2688 -91 
Q 1594 -91 976 548 
Q 359 1188 359 2328 
Q 359 3472 976 4111 
Q 1594 4750 2688 4750 
Q 3144 4750 3555 4637 
Q 3966 4525 4313 4306 
L 4313 3634 
Q 3963 3931 3569 4081 
Q 3175 4231 2741 4231 
Q 1884 4231 1454 3753 
Q 1025 3275 1025 2328 
Q 1025 1384 1454 906 
Q 1884 428 2741 428 
Q 3075 428 3337 486 
Q 3600 544 3809 666 
z
" transform="scale(0.015625)"/>
     </defs>
     <use xlink:href="#DejaVuSans-47"/>
     <use xlink:href="#DejaVuSans-72" x="77.490234"/>
     <use xlink:href="#DejaVuSans-65" x="116.353516"/>
     <use xlink:href="#DejaVuSans-65" x="177.876953"/>
     <use xlink:href="#DejaVuSans-6e" x="239.400391"/>
     <use xlink:href="#DejaVuSans-20" x="302.779297"/>
     <use xlink:href="#DejaVuSans-43" x="334.566406"/>
     <use xlink:href="#DejaVuSans-68" x="404.390625"/>
     <use xlink:href="#DejaVuSans-61" x="467.769531"/>
     <use xlink:href="#DejaVuSans-6e" x="529.048828"/>
     <use xlink:href="#DejaVuSans-6e" x="592.427734"/>
     <use xlink:href="#DejaVuSans-65" x="655.806641"/>
     <use xlink:href="#DejaVuSans-6c" x="717.330078"/>
     <use xlink:href="#DejaVuSans-20" x="745.113281"/>
    </g>
   </g>
  </g>
  <g id="axes_3">
   <g id="patch_12">
    <path d="M 57.17 606.04 
L 272.721328 606.04 
L 272.721328 426.213333 
L 57.17 426.213333 
z
" style="fill: #ffffff"/>
   </g>
   <g id="PolyCollection_3">
    <defs>
     <path id="m34b9da8162" d="M 57.17 -41.96 
L 57.17 -41.96 
L 58.011997 -41.96 
L 58.853995 -41.96 
L 59.695992 -41.96 
L 60.53799 -41.96 
L 61.379987 -41.96 
L 62.221984 -41.96 
L 63.063982 -41.96 
L 63.905979 -41.96 
L 64.747976 -41.96 
L 65.589974 -41.96 
L 66.431971 -41.96 
L 67.273969 -41.96 
L 68.115966 -41.96 
L 68.957963 -41.96 
L 69.799961 -41.96 
L 70.641958 -41.96 
L 71.483955 -41.96 
L 72.325953 -41.96 
L 73.16795 -41.96 
L 74.009948 -41.96 
L 74.851945 -41.96 
L 75.693942 -41.96 
L 76.53594 -41.96 
L 77.377937 -41.96 
L 78.219934 -41.96 
L 79.061932 -41.96 
L 79.903929 -41.96 
L 80.745927 -41.96 
L 81.587924 -41.96 
L 82.429921 -41.96 
L 83.271919 -41.96 
L 84.113916 -41.96 
L 84.955913 -41.96 
L 85.797911 -41.96 
L 86.639908 -41.96 
L 87.481906 -42.015382 
L 88.323903 -42.569206 
L 89.1659 -46.33521 
L 90.007898 -67.657436 
L 90.849895 -119.329219 
L 91.691892 -195.701554 
L 92.53389 -221.786667 
L 93.375887 -209.159478 
L 94.217885 -158.539961 
L 95.059882 -90.696516 
L 95.901879 -59.017781 
L 96.743877 -52.09498 
L 97.585874 -50.48889 
L 98.427871 -52.759569 
L 99.269869 -52.759569 
L 100.111866 -57.688603 
L 100.953864 -70.481938 
L 101.795861 -85.545952 
L 102.637858 -102.216056 
L 103.479856 -128.522698 
L 104.321853 -153.22325 
L 105.16385 -167.51191 
L 106.005848 -181.855953 
L 106.847845 -177.037684 
L 107.689843 -169.394912 
L 108.53184 -147.352715 
L 109.373837 -130.239552 
L 110.215835 -110.634181 
L 111.057832 -100.942261 
L 111.899829 -86.044394 
L 112.741827 -77.183209 
L 113.583824 -70.98038 
L 114.425822 -66.272875 
L 115.267819 -66.106728 
L 116.109816 -61.509989 
L 116.951814 -58.187044 
L 117.793811 -57.134779 
L 118.635808 -56.525572 
L 119.477806 -54.697953 
L 120.319803 -53.922599 
L 121.161801 -51.762686 
L 122.003798 -53.147246 
L 122.845795 -50.931949 
L 123.687793 -51.319626 
L 124.52979 -52.31651 
L 125.371787 -51.098097 
L 126.213785 -51.098097 
L 127.055782 -50.544273 
L 127.89778 -49.602772 
L 128.739777 -49.32586 
L 129.581774 -48.827418 
L 130.423772 -47.664388 
L 131.265769 -48.827418 
L 132.107766 -47.830535 
L 132.949764 -48.716653 
L 133.791761 -48.052064 
L 134.633759 -47.165946 
L 135.475756 -47.71977 
L 136.317753 -48.495124 
L 137.159751 -47.442858 
L 138.001748 -47.664388 
L 138.843745 -47.442858 
L 139.685743 -47.055181 
L 140.52774 -46.501357 
L 141.369738 -47.110564 
L 142.211735 -46.002916 
L 143.053732 -46.55674 
L 143.89573 -46.501357 
L 144.737727 -46.667504 
L 145.579724 -46.169063 
L 146.421722 -46.390592 
L 147.263719 -46.11368 
L 148.105717 -46.058298 
L 148.947714 -46.833652 
L 149.789711 -45.892151 
L 150.631709 -46.279828 
L 151.473706 -45.172179 
L 152.315703 -45.559856 
L 153.157701 -45.892151 
L 153.999698 -46.169063 
L 154.841696 -45.836768 
L 155.683693 -45.726003 
L 156.52569 -45.338327 
L 157.367688 -45.393709 
L 158.209685 -45.615239 
L 159.051682 -46.224445 
L 159.89368 -45.338327 
L 160.735677 -45.282944 
L 161.577675 -45.227562 
L 162.419672 -45.227562 
L 163.261669 -45.615239 
L 164.103667 -45.061415 
L 164.945664 -45.227562 
L 165.787661 -45.670621 
L 166.629659 -45.338327 
L 167.471656 -45.227562 
L 168.313654 -45.726003 
L 169.155651 -45.227562 
L 169.997648 -44.452208 
L 170.839646 -45.006032 
L 171.681643 -44.839885 
L 172.52364 -44.618355 
L 173.365638 -44.562973 
L 174.207635 -44.452208 
L 175.049633 -45.172179 
L 175.89163 -44.507591 
L 176.733627 -44.175296 
L 177.575625 -44.618355 
L 178.417622 -44.507591 
L 179.259619 -44.72912 
L 180.101617 -43.953767 
L 180.943614 -45.449091 
L 181.785612 -45.061415 
L 182.627609 -44.95065 
L 183.469606 -44.839885 
L 184.311604 -44.618355 
L 185.153601 -44.618355 
L 185.995598 -44.230679 
L 186.837596 -44.895267 
L 187.679593 -44.452208 
L 188.521591 -44.673738 
L 189.363588 -44.119914 
L 190.205585 -45.116797 
L 191.047583 -44.175296 
L 191.88958 -45.006032 
L 192.731577 -44.396826 
L 193.573575 -44.618355 
L 194.415572 -44.618355 
L 195.25757 -44.562973 
L 196.099567 -44.507591 
L 196.941564 -44.784503 
L 197.783562 -43.953767 
L 198.625559 -43.953767 
L 199.467556 -44.286061 
L 200.309554 -44.562973 
L 201.151551 -44.230679 
L 201.993549 -44.396826 
L 202.835546 -44.119914 
L 203.677543 -44.839885 
L 204.519541 -44.175296 
L 205.361538 -44.507591 
L 206.203535 -43.787619 
L 207.045533 -43.953767 
L 207.88753 -44.064531 
L 208.729528 -43.843002 
L 209.571525 -44.618355 
L 210.413522 -43.898384 
L 211.25552 -43.787619 
L 212.097517 -43.787619 
L 212.939514 -43.732237 
L 213.781512 -43.732237 
L 214.623509 -43.953767 
L 215.465507 -43.289178 
L 216.307504 -44.009149 
L 217.149501 -44.009149 
L 217.991499 -44.119914 
L 218.833496 -43.56609 
L 219.675493 -43.289178 
L 220.517491 -43.787619 
L 221.359488 -43.676855 
L 222.201486 -43.953767 
L 223.043483 -43.843002 
L 223.88548 -43.178413 
L 224.727478 -42.956883 
L 225.569475 -43.56609 
L 226.411472 -43.399943 
L 227.25347 -43.289178 
L 228.095467 -43.953767 
L 228.937465 -43.56609 
L 229.779462 -43.178413 
L 230.621459 -43.510707 
L 231.463457 -43.233795 
L 232.305454 -43.12303 
L 233.147451 -43.289178 
L 233.989449 -43.56609 
L 234.831446 -43.233795 
L 235.673444 -42.901501 
L 236.515441 -42.956883 
L 237.357438 -43.012266 
L 238.199436 -43.12303 
L 239.041433 -43.56609 
L 239.88343 -43.012266 
L 240.725428 -42.790736 
L 241.567425 -43.12303 
L 242.409423 -42.790736 
L 243.25142 -42.569206 
L 244.093417 -42.901501 
L 244.935415 -42.569206 
L 245.777412 -42.956883 
L 246.619409 -42.624589 
L 247.461407 -42.846118 
L 248.303404 -43.012266 
L 249.145402 -42.679971 
L 249.987399 -43.178413 
L 250.829396 -43.067648 
L 251.671394 -42.513824 
L 252.513391 -42.569206 
L 253.355388 -42.513824 
L 254.197386 -42.513824 
L 255.039383 -42.679971 
L 255.881381 -42.679971 
L 256.723378 -42.624589 
L 257.565375 -42.292294 
L 258.407373 -42.458442 
L 259.24937 -42.458442 
L 260.091367 -42.458442 
L 260.933365 -42.458442 
L 261.775362 -42.569206 
L 262.61736 -42.403059 
L 263.459357 -42.569206 
L 264.301354 -42.18153 
L 265.143352 -42.458442 
L 265.985349 -42.236912 
L 266.827346 -42.458442 
L 267.669344 -42.18153 
L 268.511341 -42.126147 
L 269.353339 -42.236912 
L 270.195336 -42.015382 
L 271.037333 -42.070765 
L 271.879331 -42.236912 
L 271.879331 -41.96 
L 271.879331 -41.96 
L 271.037333 -41.96 
L 270.195336 -41.96 
L 269.353339 -41.96 
L 268.511341 -41.96 
L 267.669344 -41.96 
L 266.827346 -41.96 
L 265.985349 -41.96 
L 265.143352 -41.96 
L 264.301354 -41.96 
L 263.459357 -41.96 
L 262.61736 -41.96 
L 261.775362 -41.96 
L 260.933365 -41.96 
L 260.091367 -41.96 
L 259.24937 -41.96 
L 258.407373 -41.96 
L 257.565375 -41.96 
L 256.723378 -41.96 
L 255.881381 -41.96 
L 255.039383 -41.96 
L 254.197386 -41.96 
L 253.355388 -41.96 
L 252.513391 -41.96 
L 251.671394 -41.96 
L 250.829396 -41.96 
L 249.987399 -41.96 
L 249.145402 -41.96 
L 248.303404 -41.96 
L 247.461407 -41.96 
L 246.619409 -41.96 
L 245.777412 -41.96 
L 244.935415 -41.96 
L 244.093417 -41.96 
L 243.25142 -41.96 
L 242.409423 -41.96 
L 241.567425 -41.96 
L 240.725428 -41.96 
L 239.88343 -41.96 
L 239.041433 -41.96 
L 238.199436 -41.96 
L 237.357438 -41.96 
L 236.515441 -41.96 
L 235.673444 -41.96 
L 234.831446 -41.96 
L 233.989449 -41.96 
L 233.147451 -41.96 
L 232.305454 -41.96 
L 231.463457 -41.96 
L 230.621459 -41.96 
L 229.779462 -41.96 
L 228.937465 -41.96 
L 228.095467 -41.96 
L 227.25347 -41.96 
L 226.411472 -41.96 
L 225.569475 -41.96 
L 224.727478 -41.96 
L 223.88548 -41.96 
L 223.043483 -41.96 
L 222.201486 -41.96 
L 221.359488 -41.96 
L 220.517491 -41.96 
L 219.675493 -41.96 
L 218.833496 -41.96 
L 217.991499 -41.96 
L 217.149501 -41.96 
L 216.307504 -41.96 
L 215.465507 -41.96 
L 214.623509 -41.96 
L 213.781512 -41.96 
L 212.939514 -41.96 
L 212.097517 -41.96 
L 211.25552 -41.96 
L 210.413522 -41.96 
L 209.571525 -41.96 
L 208.729528 -41.96 
L 207.88753 -41.96 
L 207.045533 -41.96 
L 206.203535 -41.96 
L 205.361538 -41.96 
L 204.519541 -41.96 
L 203.677543 -41.96 
L 202.835546 -41.96 
L 201.993549 -41.96 
L 201.151551 -41.96 
L 200.309554 -41.96 
L 199.467556 -41.96 
L 198.625559 -41.96 
L 197.783562 -41.96 
L 196.941564 -41.96 
L 196.099567 -41.96 
L 195.25757 -41.96 
L 194.415572 -41.96 
L 193.573575 -41.96 
L 192.731577 -41.96 
L 191.88958 -41.96 
L 191.047583 -41.96 
L 190.205585 -41.96 
L 189.363588 -41.96 
L 188.521591 -41.96 
L 187.679593 -41.96 
L 186.837596 -41.96 
L 185.995598 -41.96 
L 185.153601 -41.96 
L 184.311604 -41.96 
L 183.469606 -41.96 
L 182.627609 -41.96 
L 181.785612 -41.96 
L 180.943614 -41.96 
L 180.101617 -41.96 
L 179.259619 -41.96 
L 178.417622 -41.96 
L 177.575625 -41.96 
L 176.733627 -41.96 
L 175.89163 -41.96 
L 175.049633 -41.96 
L 174.207635 -41.96 
L 173.365638 -41.96 
L 172.52364 -41.96 
L 171.681643 -41.96 
L 170.839646 -41.96 
L 169.997648 -41.96 
L 169.155651 -41.96 
L 168.313654 -41.96 
L 167.471656 -41.96 
L 166.629659 -41.96 
L 165.787661 -41.96 
L 164.945664 -41.96 
L 164.103667 -41.96 
L 163.261669 -41.96 
L 162.419672 -41.96 
L 161.577675 -41.96 
L 160.735677 -41.96 
L 159.89368 -41.96 
L 159.051682 -41.96 
L 158.209685 -41.96 
L 157.367688 -41.96 
L 156.52569 -41.96 
L 155.683693 -41.96 
L 154.841696 -41.96 
L 153.999698 -41.96 
L 153.157701 -41.96 
L 152.315703 -41.96 
L 151.473706 -41.96 
L 150.631709 -41.96 
L 149.789711 -41.96 
L 148.947714 -41.96 
L 148.105717 -41.96 
L 147.263719 -41.96 
L 146.421722 -41.96 
L 145.579724 -41.96 
L 144.737727 -41.96 
L 143.89573 -41.96 
L 143.053732 -41.96 
L 142.211735 -41.96 
L 141.369738 -41.96 
L 140.52774 -41.96 
L 139.685743 -41.96 
L 138.843745 -41.96 
L 138.001748 -41.96 
L 137.159751 -41.96 
L 136.317753 -41.96 
L 135.475756 -41.96 
L 134.633759 -41.96 
L 133.791761 -41.96 
L 132.949764 -41.96 
L 132.107766 -41.96 
L 131.265769 -41.96 
L 130.423772 -41.96 
L 129.581774 -41.96 
L 128.739777 -41.96 
L 127.89778 -41.96 
L 127.055782 -41.96 
L 126.213785 -41.96 
L 125.371787 -41.96 
L 124.52979 -41.96 
L 123.687793 -41.96 
L 122.845795 -41.96 
L 122.003798 -41.96 
L 121.161801 -41.96 
L 120.319803 -41.96 
L 119.477806 -41.96 
L 118.635808 -41.96 
L 117.793811 -41.96 
L 116.951814 -41.96 
L 116.109816 -41.96 
L 115.267819 -41.96 
L 114.425822 -41.96 
L 113.583824 -41.96 
L 112.741827 -41.96 
L 111.899829 -41.96 
L 111.057832 -41.96 
L 110.215835 -41.96 
L 109.373837 -41.96 
L 108.53184 -41.96 
L 107.689843 -41.96 
L 106.847845 -41.96 
L 106.005848 -41.96 
L 105.16385 -41.96 
L 104.321853 -41.96 
L 103.479856 -41.96 
L 102.637858 -41.96 
L 101.795861 -41.96 
L 100.953864 -41.96 
L 100.111866 -41.96 
L 99.269869 -41.96 
L 98.427871 -41.96 
L 97.585874 -41.96 
L 96.743877 -41.96 
L 95.901879 -41.96 
L 95.059882 -41.96 
L 94.217885 -41.96 
L 93.375887 -41.96 
L 92.53389 -41.96 
L 91.691892 -41.96 
L 90.849895 -41.96 
L 90.007898 -41.96 
L 89.1659 -41.96 
L 88.323903 -41.96 
L 87.481906 -41.96 
L 86.639908 -41.96 
L 85.797911 -41.96 
L 84.955913 -41.96 
L 84.113916 -41.96 
L 83.271919 -41.96 
L 82.429921 -41.96 
L 81.587924 -41.96 
L 80.745927 -41.96 
L 79.903929 -41.96 
L 79.061932 -41.96 
L 78.219934 -41.96 
L 77.377937 -41.96 
L 76.53594 -41.96 
L 75.693942 -41.96 
L 74.851945 -41.96 
L 74.009948 -41.96 
L 73.16795 -41.96 
L 72.325953 -41.96 
L 71.483955 -41.96 
L 70.641958 -41.96 
L 69.799961 -41.96 
L 68.957963 -41.96 
L 68.115966 -41.96 
L 67.273969 -41.96 
L 66.431971 -41.96 
L 65.589974 -41.96 
L 64.747976 -41.96 
L 63.905979 -41.96 
L 63.063982 -41.96 
L 62.221984 -41.96 
L 61.379987 -41.96 
L 60.53799 -41.96 
L 59.695992 -41.96 
L 58.853995 -41.96 
L 58.011997 -41.96 
L 57.17 -41.96 
z
" style="stroke: #0000ff; stroke-opacity: 0.4"/>
    </defs>
    <g clip-path="url(#p9e6a4db66d)">
     <use xlink:href="#m34b9da8162" x="0" y="648" style="fill: #0000ff; fill-opacity: 0.4; stroke: #0000ff; stroke-opacity: 0.4"/>
    </g>
   </g>
   <g id="matplotlib.axis_5">
    <g id="xtick_13">
     <g id="line2d_29">
      <g>
       <use xlink:href="#m561a077e75" x="57.17" y="606.04" style="stroke: #000000; stroke-width: 0.8"/>
      </g>
     </g>
     <g id="text_31">
      <!-- 0 -->
      <g transform="translate(53.98875 620.638438) scale(0.1 -0.1)">
       <use xlink:href="#DejaVuSans-30"/>
      </g>
     </g>
    </g>
    <g id="xtick_14">
     <g id="line2d_30">
      <g>
       <use xlink:href="#m561a077e75" x="99.269869" y="606.04" style="stroke: #000000; stroke-width: 0.8"/>
      </g>
     </g>
     <g id="text_32">
      <!-- 50 -->
      <g transform="translate(92.907369 620.638438) scale(0.1 -0.1)">
       <use xlink:href="#DejaVuSans-35"/>
       <use xlink:href="#DejaVuSans-30" x="63.623047"/>
      </g>
     </g>
    </g>
    <g id="xtick_15">
     <g id="line2d_31">
      <g>
       <use xlink:href="#m561a077e75" x="141.369738" y="606.04" style="stroke: #000000; stroke-width: 0.8"/>
      </g>
     </g>
     <g id="text_33">
      <!-- 100 -->
      <g transform="translate(131.825988 620.638438) scale(0.1 -0.1)">
       <use xlink:href="#DejaVuSans-31"/>
       <use xlink:href="#DejaVuSans-30" x="63.623047"/>
       <use xlink:href="#DejaVuSans-30" x="127.246094"/>
      </g>
     </g>
    </g>
    <g id="xtick_16">
     <g id="line2d_32">
      <g>
       <use xlink:href="#m561a077e75" x="183.469606" y="606.04" style="stroke: #000000; stroke-width: 0.8"/>
      </g>
     </g>
     <g id="text_34">
      <!-- 150 -->
      <g transform="translate(173.925856 620.638438) scale(0.1 -0.1)">
       <use xlink:href="#DejaVuSans-31"/>
       <use xlink:href="#DejaVuSans-35" x="63.623047"/>
       <use xlink:href="#DejaVuSans-30" x="127.246094"/>
      </g>
     </g>
    </g>
    <g id="xtick_17">
     <g id="line2d_33">
      <g>
       <use xlink:href="#m561a077e75" x="225.569475" y="606.04" style="stroke: #000000; stroke-width: 0.8"/>
      </g>
     </g>
     <g id="text_35">
      <!-- 200 -->
      <g transform="translate(216.025725 620.638438) scale(0.1 -0.1)">
       <use xlink:href="#DejaVuSans-32"/>
       <use xlink:href="#DejaVuSans-30" x="63.623047"/>
       <use xlink:href="#DejaVuSans-30" x="127.246094"/>
      </g>
     </g>
    </g>
    <g id="xtick_18">
     <g id="line2d_34">
      <g>
       <use xlink:href="#m561a077e75" x="267.669344" y="606.04" style="stroke: #000000; stroke-width: 0.8"/>
      </g>
     </g>
     <g id="text_36">
      <!-- 250 -->
      <g transform="translate(258.125594 620.638438) scale(0.1 -0.1)">
       <use xlink:href="#DejaVuSans-32"/>
       <use xlink:href="#DejaVuSans-35" x="63.623047"/>
       <use xlink:href="#DejaVuSans-30" x="127.246094"/>
      </g>
     </g>
    </g>
    <g id="text_37">
     <!-- Pixel Intensity -->
     <g transform="translate(130.033945 634.316563) scale(0.1 -0.1)">
      <defs>
       <path id="DejaVuSans-49" d="M 628 4666 
L 1259 4666 
L 1259 0 
L 628 0 
L 628 4666 
z
" transform="scale(0.015625)"/>
       <path id="DejaVuSans-74" d="M 1172 4494 
L 1172 3500 
L 2356 3500 
L 2356 3053 
L 1172 3053 
L 1172 1153 
Q 1172 725 1289 603 
Q 1406 481 1766 481 
L 2356 481 
L 2356 0 
L 1766 0 
Q 1100 0 847 248 
Q 594 497 594 1153 
L 594 3053 
L 172 3053 
L 172 3500 
L 594 3500 
L 594 4494 
L 1172 4494 
z
" transform="scale(0.015625)"/>
       <path id="DejaVuSans-73" d="M 2834 3397 
L 2834 2853 
Q 2591 2978 2328 3040 
Q 2066 3103 1784 3103 
Q 1356 3103 1142 2972 
Q 928 2841 928 2578 
Q 928 2378 1081 2264 
Q 1234 2150 1697 2047 
L 1894 2003 
Q 2506 1872 2764 1633 
Q 3022 1394 3022 966 
Q 3022 478 2636 193 
Q 2250 -91 1575 -91 
Q 1294 -91 989 -36 
Q 684 19 347 128 
L 347 722 
Q 666 556 975 473 
Q 1284 391 1588 391 
Q 1994 391 2212 530 
Q 2431 669 2431 922 
Q 2431 1156 2273 1281 
Q 2116 1406 1581 1522 
L 1381 1569 
Q 847 1681 609 1914 
Q 372 2147 372 2553 
Q 372 3047 722 3315 
Q 1072 3584 1716 3584 
Q 2034 3584 2315 3537 
Q 2597 3491 2834 3397 
z
" transform="scale(0.015625)"/>
      </defs>
      <use xlink:href="#DejaVuSans-50"/>
      <use xlink:href="#DejaVuSans-69" x="58.052734"/>
      <use xlink:href="#DejaVuSans-78" x="85.835938"/>
      <use xlink:href="#DejaVuSans-65" x="141.890625"/>
      <use xlink:href="#DejaVuSans-6c" x="203.414062"/>
      <use xlink:href="#DejaVuSans-20" x="231.197266"/>
      <use xlink:href="#DejaVuSans-49" x="262.984375"/>
      <use xlink:href="#DejaVuSans-6e" x="292.476562"/>
      <use xlink:href="#DejaVuSans-74" x="355.855469"/>
      <use xlink:href="#DejaVuSans-65" x="395.064453"/>
      <use xlink:href="#DejaVuSans-6e" x="456.587891"/>
      <use xlink:href="#DejaVuSans-73" x="519.966797"/>
      <use xlink:href="#DejaVuSans-69" x="572.066406"/>
      <use xlink:href="#DejaVuSans-74" x="599.849609"/>
      <use xlink:href="#DejaVuSans-79" x="639.058594"/>
     </g>
    </g>
   </g>
   <g id="matplotlib.axis_6">
    <g id="ytick_15">
     <g id="line2d_35">
      <g>
       <use xlink:href="#mf9148f0d3b" x="57.17" y="606.04" style="stroke: #000000; stroke-width: 0.8"/>
      </g>
     </g>
     <g id="text_38">
      <!-- 0 -->
      <g transform="translate(43.8075 609.839219) scale(0.1 -0.1)">
       <use xlink:href="#DejaVuSans-30"/>
      </g>
     </g>
    </g>
    <g id="ytick_16">
     <g id="line2d_36">
      <g>
       <use xlink:href="#mf9148f0d3b" x="57.17" y="578.348798" style="stroke: #000000; stroke-width: 0.8"/>
      </g>
     </g>
     <g id="text_39">
      <!-- 500 -->
      <g transform="translate(31.0825 582.148017) scale(0.1 -0.1)">
       <use xlink:href="#DejaVuSans-35"/>
       <use xlink:href="#DejaVuSans-30" x="63.623047"/>
       <use xlink:href="#DejaVuSans-30" x="127.246094"/>
      </g>
     </g>
    </g>
    <g id="ytick_17">
     <g id="line2d_37">
      <g>
       <use xlink:href="#mf9148f0d3b" x="57.17" y="550.657596" style="stroke: #000000; stroke-width: 0.8"/>
      </g>
     </g>
     <g id="text_40">
      <!-- 1000 -->
      <g transform="translate(24.72 554.456814) scale(0.1 -0.1)">
       <use xlink:href="#DejaVuSans-31"/>
       <use xlink:href="#DejaVuSans-30" x="63.623047"/>
       <use xlink:href="#DejaVuSans-30" x="127.246094"/>
       <use xlink:href="#DejaVuSans-30" x="190.869141"/>
      </g>
     </g>
    </g>
    <g id="ytick_18">
     <g id="line2d_38">
      <g>
       <use xlink:href="#mf9148f0d3b" x="57.17" y="522.966394" style="stroke: #000000; stroke-width: 0.8"/>
      </g>
     </g>
     <g id="text_41">
      <!-- 1500 -->
      <g transform="translate(24.72 526.765612) scale(0.1 -0.1)">
       <use xlink:href="#DejaVuSans-31"/>
       <use xlink:href="#DejaVuSans-35" x="63.623047"/>
       <use xlink:href="#DejaVuSans-30" x="127.246094"/>
       <use xlink:href="#DejaVuSans-30" x="190.869141"/>
      </g>
     </g>
    </g>
    <g id="ytick_19">
     <g id="line2d_39">
      <g>
       <use xlink:href="#mf9148f0d3b" x="57.17" y="495.275191" style="stroke: #000000; stroke-width: 0.8"/>
      </g>
     </g>
     <g id="text_42">
      <!-- 2000 -->
      <g transform="translate(24.72 499.07441) scale(0.1 -0.1)">
       <use xlink:href="#DejaVuSans-32"/>
       <use xlink:href="#DejaVuSans-30" x="63.623047"/>
       <use xlink:href="#DejaVuSans-30" x="127.246094"/>
       <use xlink:href="#DejaVuSans-30" x="190.869141"/>
      </g>
     </g>
    </g>
    <g id="ytick_20">
     <g id="line2d_40">
      <g>
       <use xlink:href="#mf9148f0d3b" x="57.17" y="467.583989" style="stroke: #000000; stroke-width: 0.8"/>
      </g>
     </g>
     <g id="text_43">
      <!-- 2500 -->
      <g transform="translate(24.72 471.383208) scale(0.1 -0.1)">
       <use xlink:href="#DejaVuSans-32"/>
       <use xlink:href="#DejaVuSans-35" x="63.623047"/>
       <use xlink:href="#DejaVuSans-30" x="127.246094"/>
       <use xlink:href="#DejaVuSans-30" x="190.869141"/>
      </g>
     </g>
    </g>
    <g id="ytick_21">
     <g id="line2d_41">
      <g>
       <use xlink:href="#mf9148f0d3b" x="57.17" y="439.892787" style="stroke: #000000; stroke-width: 0.8"/>
      </g>
     </g>
     <g id="text_44">
      <!-- 3000 -->
      <g transform="translate(24.72 443.692006) scale(0.1 -0.1)">
       <use xlink:href="#DejaVuSans-33"/>
       <use xlink:href="#DejaVuSans-30" x="63.623047"/>
       <use xlink:href="#DejaVuSans-30" x="127.246094"/>
       <use xlink:href="#DejaVuSans-30" x="190.869141"/>
      </g>
     </g>
    </g>
    <g id="text_45">
     <!-- Pixel Frequency -->
     <g transform="translate(18.640313 555.105573) rotate(-90) scale(0.1 -0.1)">
      <use xlink:href="#DejaVuSans-50"/>
      <use xlink:href="#DejaVuSans-69" x="58.052734"/>
      <use xlink:href="#DejaVuSans-78" x="85.835938"/>
      <use xlink:href="#DejaVuSans-65" x="141.890625"/>
      <use xlink:href="#DejaVuSans-6c" x="203.414062"/>
      <use xlink:href="#DejaVuSans-20" x="231.197266"/>
      <use xlink:href="#DejaVuSans-46" x="262.984375"/>
      <use xlink:href="#DejaVuSans-72" x="313.253906"/>
      <use xlink:href="#DejaVuSans-65" x="352.117188"/>
      <use xlink:href="#DejaVuSans-71" x="413.640625"/>
      <use xlink:href="#DejaVuSans-75" x="477.117188"/>
      <use xlink:href="#DejaVuSans-65" x="540.496094"/>
      <use xlink:href="#DejaVuSans-6e" x="602.019531"/>
      <use xlink:href="#DejaVuSans-63" x="665.398438"/>
      <use xlink:href="#DejaVuSans-79" x="720.378906"/>
     </g>
    </g>
   </g>
   <g id="line2d_42">
    <path d="M 57.17 606.04 
L 87.481906 605.984618 
L 88.323903 605.430794 
L 89.1659 601.66479 
L 90.007898 580.342564 
L 90.849895 528.670781 
L 91.691892 452.298446 
L 92.53389 426.213333 
L 93.375887 438.840522 
L 94.217885 489.460039 
L 95.059882 557.303484 
L 95.901879 588.982219 
L 96.743877 595.90502 
L 97.585874 597.51111 
L 98.427871 595.240431 
L 99.269869 595.240431 
L 100.111866 590.311397 
L 100.953864 577.518062 
L 102.637858 545.783944 
L 104.321853 494.77675 
L 106.005848 466.144047 
L 106.847845 470.962316 
L 107.689843 478.605088 
L 108.53184 500.647285 
L 109.373837 517.760448 
L 110.215835 537.365819 
L 111.057832 547.057739 
L 111.899829 561.955606 
L 112.741827 570.816791 
L 113.583824 577.01962 
L 114.425822 581.727125 
L 115.267819 581.893272 
L 116.109816 586.490011 
L 116.951814 589.812956 
L 117.793811 590.865221 
L 118.635808 591.474428 
L 119.477806 593.302047 
L 120.319803 594.077401 
L 121.161801 596.237314 
L 122.003798 594.852754 
L 122.845795 597.068051 
L 123.687793 596.680374 
L 124.52979 595.68349 
L 125.371787 596.901903 
L 126.213785 596.901903 
L 127.055782 597.455727 
L 127.89778 598.397228 
L 128.739777 598.67414 
L 129.581774 599.172582 
L 130.423772 600.335612 
L 131.265769 599.172582 
L 132.107766 600.169465 
L 132.949764 599.283347 
L 133.791761 599.947936 
L 134.633759 600.834054 
L 135.475756 600.28023 
L 136.317753 599.504876 
L 137.159751 600.557142 
L 138.001748 600.335612 
L 138.843745 600.557142 
L 139.685743 600.944819 
L 140.52774 601.498643 
L 141.369738 600.889436 
L 142.211735 601.997084 
L 143.053732 601.44326 
L 143.89573 601.498643 
L 144.737727 601.332496 
L 145.579724 601.830937 
L 146.421722 601.609408 
L 147.263719 601.88632 
L 148.105717 601.941702 
L 148.947714 601.166348 
L 149.789711 602.107849 
L 150.631709 601.720172 
L 151.473706 602.827821 
L 153.157701 602.107849 
L 153.999698 601.830937 
L 154.841696 602.163232 
L 155.683693 602.273997 
L 156.52569 602.661673 
L 157.367688 602.606291 
L 158.209685 602.384761 
L 159.051682 601.775555 
L 159.89368 602.661673 
L 162.419672 602.772438 
L 163.261669 602.384761 
L 164.103667 602.938585 
L 164.945664 602.772438 
L 165.787661 602.329379 
L 166.629659 602.661673 
L 167.471656 602.772438 
L 168.313654 602.273997 
L 169.155651 602.772438 
L 169.997648 603.547792 
L 170.839646 602.993968 
L 174.207635 603.547792 
L 175.049633 602.827821 
L 175.89163 603.492409 
L 176.733627 603.824704 
L 177.575625 603.381645 
L 178.417622 603.492409 
L 179.259619 603.27088 
L 180.101617 604.046233 
L 180.943614 602.550909 
L 181.785612 602.938585 
L 185.153601 603.381645 
L 185.995598 603.769321 
L 186.837596 603.104733 
L 187.679593 603.547792 
L 188.521591 603.326262 
L 189.363588 603.880086 
L 190.205585 602.883203 
L 191.047583 603.824704 
L 191.88958 602.993968 
L 192.731577 603.603174 
L 193.573575 603.381645 
L 196.099567 603.492409 
L 196.941564 603.215497 
L 197.783562 604.046233 
L 198.625559 604.046233 
L 200.309554 603.437027 
L 201.151551 603.769321 
L 201.993549 603.603174 
L 202.835546 603.880086 
L 203.677543 603.160115 
L 204.519541 603.824704 
L 205.361538 603.492409 
L 206.203535 604.212381 
L 207.88753 603.935469 
L 208.729528 604.156998 
L 209.571525 603.381645 
L 210.413522 604.101616 
L 212.097517 604.212381 
L 213.781512 604.267763 
L 214.623509 604.046233 
L 215.465507 604.710822 
L 216.307504 603.990851 
L 217.991499 603.880086 
L 218.833496 604.43391 
L 219.675493 604.710822 
L 220.517491 604.212381 
L 221.359488 604.323145 
L 222.201486 604.046233 
L 223.043483 604.156998 
L 223.88548 604.821587 
L 224.727478 605.043117 
L 225.569475 604.43391 
L 227.25347 604.710822 
L 228.095467 604.046233 
L 229.779462 604.821587 
L 230.621459 604.489293 
L 231.463457 604.766205 
L 232.305454 604.87697 
L 233.989449 604.43391 
L 235.673444 605.098499 
L 238.199436 604.87697 
L 239.041433 604.43391 
L 239.88343 604.987734 
L 240.725428 605.209264 
L 241.567425 604.87697 
L 243.25142 605.430794 
L 244.093417 605.098499 
L 244.935415 605.430794 
L 245.777412 605.043117 
L 246.619409 605.375411 
L 248.303404 604.987734 
L 249.145402 605.320029 
L 249.987399 604.821587 
L 250.829396 604.932352 
L 251.671394 605.486176 
L 253.355388 605.486176 
L 254.197386 605.486176 
L 255.039383 605.320029 
L 256.723378 605.375411 
L 257.565375 605.707706 
L 258.407373 605.541558 
L 263.459357 605.430794 
L 264.301354 605.81847 
L 265.143352 605.541558 
L 265.985349 605.763088 
L 266.827346 605.541558 
L 267.669344 605.81847 
L 268.511341 605.873853 
L 269.353339 605.763088 
L 270.195336 605.984618 
L 271.879331 605.763088 
L 271.879331 605.763088 
" clip-path="url(#p9e6a4db66d)" style="fill: none; stroke: #0000ff; stroke-width: 1.5; stroke-linecap: square"/>
   </g>
   <g id="patch_13">
    <path d="M 57.17 606.04 
L 57.17 426.213333 
" style="fill: none; stroke: #000000; stroke-width: 0.8; stroke-linejoin: miter; stroke-linecap: square"/>
   </g>
   <g id="patch_14">
    <path d="M 272.721328 606.04 
L 272.721328 426.213333 
" style="fill: none; stroke: #000000; stroke-width: 0.8; stroke-linejoin: miter; stroke-linecap: square"/>
   </g>
   <g id="patch_15">
    <path d="M 57.17 606.04 
L 272.721328 606.04 
" style="fill: none; stroke: #000000; stroke-width: 0.8; stroke-linejoin: miter; stroke-linecap: square"/>
   </g>
   <g id="patch_16">
    <path d="M 57.17 426.213333 
L 272.721328 426.213333 
" style="fill: none; stroke: #000000; stroke-width: 0.8; stroke-linejoin: miter; stroke-linecap: square"/>
   </g>
   <g id="text_46">
    <!-- Blue Channel  -->
    <g transform="translate(189.272578 440.213333) scale(0.12 -0.12)">
     <defs>
      <path id="DejaVuSans-42" d="M 1259 2228 
L 1259 519 
L 2272 519 
Q 2781 519 3026 730 
Q 3272 941 3272 1375 
Q 3272 1813 3026 2020 
Q 2781 2228 2272 2228 
L 1259 2228 
z
M 1259 4147 
L 1259 2741 
L 2194 2741 
Q 2656 2741 2882 2914 
Q 3109 3088 3109 3444 
Q 3109 3797 2882 3972 
Q 2656 4147 2194 4147 
L 1259 4147 
z
M 628 4666 
L 2241 4666 
Q 2963 4666 3353 4366 
Q 3744 4066 3744 3513 
Q 3744 3084 3544 2831 
Q 3344 2578 2956 2516 
Q 3422 2416 3680 2098 
Q 3938 1781 3938 1306 
Q 3938 681 3513 340 
Q 3088 0 2303 0 
L 628 0 
L 628 4666 
z
" transform="scale(0.015625)"/>
     </defs>
     <use xlink:href="#DejaVuSans-42"/>
     <use xlink:href="#DejaVuSans-6c" x="68.603516"/>
     <use xlink:href="#DejaVuSans-75" x="96.386719"/>
     <use xlink:href="#DejaVuSans-65" x="159.765625"/>
     <use xlink:href="#DejaVuSans-20" x="221.289062"/>
     <use xlink:href="#DejaVuSans-43" x="253.076172"/>
     <use xlink:href="#DejaVuSans-68" x="322.900391"/>
     <use xlink:href="#DejaVuSans-61" x="386.279297"/>
     <use xlink:href="#DejaVuSans-6e" x="447.558594"/>
     <use xlink:href="#DejaVuSans-6e" x="510.9375"/>
     <use xlink:href="#DejaVuSans-65" x="574.316406"/>
     <use xlink:href="#DejaVuSans-6c" x="635.839844"/>
     <use xlink:href="#DejaVuSans-20" x="663.623047"/>
    </g>
   </g>
  </g>
 </g>
 <defs>
  <clipPath id="p5c7e5a4e9e">
   <rect x="57.17" y="10.8" width="215.551328" height="179.826667"/>
  </clipPath>
  <clipPath id="pb1154caf1c">
   <rect x="57.17" y="218.506667" width="215.551328" height="179.826667"/>
  </clipPath>
  <clipPath id="p9e6a4db66d">
   <rect x="57.17" y="426.213333" width="215.551328" height="179.826667"/>
  </clipPath>
 </defs>
</svg>
