<?xml version="1.0" encoding="utf-8" standalone="no"?>
<!DOCTYPE svg PUBLIC "-//W3C//DTD SVG 1.1//EN"
  "http://www.w3.org/Graphics/SVG/1.1/DTD/svg11.dtd">
<svg xmlns:xlink="http://www.w3.org/1999/xlink" width="288pt" height="648pt" viewBox="0 0 288 648" xmlns="http://www.w3.org/2000/svg" version="1.1">
 <metadata>
  <rdf:RDF xmlns:dc="http://purl.org/dc/elements/1.1/" xmlns:cc="http://creativecommons.org/ns#" xmlns:rdf="http://www.w3.org/1999/02/22-rdf-syntax-ns#">
   <cc:Work>
    <dc:type rdf:resource="http://purl.org/dc/dcmitype/StillImage"/>
    <dc:date>2023-11-04T15:33:46.248751</dc:date>
    <dc:format>image/svg+xml</dc:format>
    <dc:creator>
     <cc:Agent>
      <dc:title>Matplotlib v3.8.0, https://matplotlib.org/</dc:title>
     </cc:Agent>
    </dc:creator>
   </cc:Work>
  </rdf:RDF>
 </metadata>
 <defs>
  <style type="text/css">*{stroke-linejoin: round; stroke-linecap: butt}</style>
 </defs>
 <g id="figure_1">
  <g id="patch_1">
   <path d="M 0 648 
L 288 648 
L 288 0 
L 0 0 
z
" style="fill: #ffffff"/>
  </g>
  <g id="axes_1">
   <g id="patch_2">
    <path d="M 57.17 188.534425 
L 267.705 188.534425 
L 267.705 10.8 
L 57.17 10.8 
z
" style="fill: #ffffff"/>
   </g>
   <g id="PolyCollection_1">
    <path d="M 15.063 180.455588 
L 15.063 180.455588 
L 17.16835 180.455588 
L 19.2737 180.455588 
L 21.37905 180.455588 
L 23.4844 180.455588 
L 25.58975 180.455588 
L 27.6951 180.455588 
L 29.80045 180.455588 
L 31.9058 180.455588 
L 34.01115 180.455588 
L 36.1165 180.455588 
L 38.22185 180.455588 
L 40.3272 180.455588 
L 42.43255 180.455588 
L 44.5379 180.455588 
L 46.64325 180.455588 
L 48.7486 180.455588 
L 50.85395 180.455588 
L 52.9593 180.455588 
L 55.06465 180.455588 
L 57.17 180.455588 
L 59.27535 180.455588 
L 61.3807 180.455588 
L 63.48605 180.455588 
L 65.5914 180.455588 
L 67.69675 180.455588 
L 69.8021 180.455588 
L 71.90745 180.455588 
L 74.0128 180.455588 
L 76.11815 180.455588 
L 78.2235 180.455588 
L 80.32885 180.455588 
L 82.4342 180.455588 
L 84.53955 180.455588 
L 86.6449 180.455588 
L 88.75025 180.455588 
L 90.8556 180.455588 
L 92.96095 180.455588 
L 95.0663 180.455588 
L 97.17165 180.455588 
L 99.277 180.455588 
L 101.38235 180.455588 
L 103.4877 180.455588 
L 105.59305 180.455588 
L 107.6984 180.455588 
L 109.80375 180.455588 
L 111.9091 179.594611 
L 114.01445 178.159648 
L 116.1198 178.016152 
L 118.22515 173.280777 
L 120.3305 168.688897 
L 122.43585 163.523033 
L 124.5412 161.514086 
L 126.64655 160.940101 
L 128.7519 161.657582 
L 130.85725 160.079124 
L 132.9626 153.478297 
L 135.06795 149.029914 
L 137.1733 138.411194 
L 139.27865 117.747737 
L 141.384 117.604241 
L 143.48935 119.613188 
L 145.5947 116.169279 
L 147.70005 116.456271 
L 149.8054 119.613188 
L 151.91075 123.057098 
L 154.0161 112.868866 
L 156.12145 104.976573 
L 158.2268 90.913943 
L 160.33215 73.837892 
L 162.4375 63.075675 
L 164.54285 59.918758 
L 166.6482 60.923232 
L 168.75355 54.178909 
L 170.8589 42.986203 
L 172.96425 25.049175 
L 175.0696 26.197145 
L 177.17495 18.878838 
L 179.2803 24.618687 
L 181.38565 22.322747 
L 183.491 22.179251 
L 185.59635 28.636581 
L 187.7017 25.479664 
L 189.80705 26.914626 
L 191.9124 31.506505 
L 194.01775 32.223987 
L 196.1231 32.510979 
L 198.22845 36.815866 
L 200.3338 41.264249 
L 202.43915 41.551241 
L 204.5445 52.743947 
L 206.64985 57.335826 
L 208.7552 59.201277 
L 210.86055 68.528532 
L 212.9659 69.819998 
L 215.07125 68.672028 
L 217.1766 76.420824 
L 219.28195 74.985862 
L 221.3873 73.981388 
L 223.49265 71.25496 
L 225.598 70.250486 
L 227.70335 70.967968 
L 229.8087 73.407403 
L 231.91405 85.748079 
L 234.0194 81.730184 
L 236.12475 100.958679 
L 238.2301 99.236724 
L 240.33545 96.223303 
L 242.4408 106.842024 
L 244.54615 108.850971 
L 246.6515 112.294881 
L 248.75685 121.335143 
L 250.8622 120.617662 
L 252.96755 118.895707 
L 255.0729 126.357511 
L 257.17825 132.958337 
L 259.2836 134.393299 
L 261.38895 137.119728 
L 263.4943 136.832735 
L 265.59965 141.711607 
L 267.705 143.720554 
L 269.81035 145.155516 
L 271.9157 149.173411 
L 274.02105 149.029914 
L 276.1264 144.581531 
L 278.23175 148.599426 
L 280.3371 153.76529 
L 282.44245 151.325854 
L 284.5478 153.908786 
L 286.65315 156.922207 
L 288.7585 155.917733 
L 290.86385 157.209199 
L 292.9692 157.496192 
L 295.07455 157.352696 
L 297.1799 163.523033 
L 299.28525 162.662056 
L 301.3906 160.653109 
L 303.49595 163.523033 
L 305.6013 165.388484 
L 307.70665 164.671003 
L 309.812 165.388484 
L 311.91735 170.267356 
L 314.0227 170.12386 
L 316.12805 168.114913 
L 318.2334 170.12386 
L 320.33875 172.706792 
L 322.4441 169.980363 
L 324.54945 169.549875 
L 326.6548 172.706792 
L 328.76015 173.424273 
L 330.8655 171.845814 
L 332.97085 174.141754 
L 335.0762 173.711265 
L 337.18155 175.289724 
L 339.2869 173.998258 
L 341.39225 175.43322 
L 343.4976 176.150701 
L 345.60295 175.576716 
L 347.7083 176.724686 
L 349.81365 177.155175 
L 351.919 176.58119 
L 354.02435 176.294197 
L 356.1297 178.016152 
L 358.23505 178.877129 
L 360.3404 179.164122 
L 362.44575 178.016152 
L 364.5511 178.733633 
L 366.65645 178.159648 
L 368.7618 178.590137 
L 370.86715 178.159648 
L 372.9725 178.733633 
L 375.07785 177.72916 
L 377.1832 179.164122 
L 379.28855 179.307618 
L 381.3939 178.446641 
L 383.49925 179.307618 
L 385.6046 179.164122 
L 387.70995 179.020626 
L 389.8153 179.451114 
L 391.92065 179.451114 
L 394.026 179.738107 
L 396.13135 180.025099 
L 398.2367 179.451114 
L 400.34205 179.881603 
L 402.4474 179.307618 
L 404.55275 179.594611 
L 406.6581 179.451114 
L 408.76345 179.451114 
L 410.8688 179.020626 
L 412.97415 178.877129 
L 415.0795 179.451114 
L 417.18485 180.025099 
L 419.2902 179.881603 
L 421.39555 180.168596 
L 423.5009 179.451114 
L 425.60625 179.307618 
L 427.7116 179.594611 
L 429.81695 179.738107 
L 431.9223 179.164122 
L 434.02765 179.307618 
L 436.133 179.594611 
L 438.23835 178.877129 
L 440.3437 180.025099 
L 442.44905 179.451114 
L 444.5544 179.594611 
L 446.65975 179.307618 
L 448.7651 180.168596 
L 450.87045 180.312092 
L 452.9758 179.881603 
L 455.08115 180.312092 
L 457.1865 180.025099 
L 459.29185 179.451114 
L 461.3972 179.594611 
L 463.50255 180.168596 
L 465.6079 180.168596 
L 467.71325 180.025099 
L 469.8186 179.594611 
L 471.92395 179.164122 
L 474.0293 179.738107 
L 476.13465 179.164122 
L 478.24 179.451114 
L 480.34535 180.168596 
L 482.4507 179.594611 
L 484.55605 179.451114 
L 486.6614 180.168596 
L 488.76675 179.451114 
L 490.8721 179.738107 
L 492.97745 179.451114 
L 495.0828 180.025099 
L 497.18815 179.594611 
L 499.2935 179.594611 
L 501.39885 179.164122 
L 503.5042 180.025099 
L 505.60955 178.877129 
L 507.7149 179.594611 
L 509.82025 179.164122 
L 511.9256 179.738107 
L 514.03095 179.594611 
L 516.1363 180.025099 
L 518.24165 179.738107 
L 520.347 179.594611 
L 522.45235 180.312092 
L 524.5577 180.168596 
L 526.66305 180.168596 
L 528.7684 180.312092 
L 530.87375 179.881603 
L 532.9791 180.168596 
L 535.08445 180.455588 
L 537.1898 180.455588 
L 539.29515 180.312092 
L 541.4005 180.312092 
L 543.50585 180.455588 
L 545.6112 180.455588 
L 547.71655 180.312092 
L 549.8219 180.312092 
L 551.92725 180.312092 
L 551.92725 180.455588 
L 551.92725 180.455588 
L 549.8219 180.455588 
L 547.71655 180.455588 
L 545.6112 180.455588 
L 543.50585 180.455588 
L 541.4005 180.455588 
L 539.29515 180.455588 
L 537.1898 180.455588 
L 535.08445 180.455588 
L 532.9791 180.455588 
L 530.87375 180.455588 
L 528.7684 180.455588 
L 526.66305 180.455588 
L 524.5577 180.455588 
L 522.45235 180.455588 
L 520.347 180.455588 
L 518.24165 180.455588 
L 516.1363 180.455588 
L 514.03095 180.455588 
L 511.9256 180.455588 
L 509.82025 180.455588 
L 507.7149 180.455588 
L 505.60955 180.455588 
L 503.5042 180.455588 
L 501.39885 180.455588 
L 499.2935 180.455588 
L 497.18815 180.455588 
L 495.0828 180.455588 
L 492.97745 180.455588 
L 490.8721 180.455588 
L 488.76675 180.455588 
L 486.6614 180.455588 
L 484.55605 180.455588 
L 482.4507 180.455588 
L 480.34535 180.455588 
L 478.24 180.455588 
L 476.13465 180.455588 
L 474.0293 180.455588 
L 471.92395 180.455588 
L 469.8186 180.455588 
L 467.71325 180.455588 
L 465.6079 180.455588 
L 463.50255 180.455588 
L 461.3972 180.455588 
L 459.29185 180.455588 
L 457.1865 180.455588 
L 455.08115 180.455588 
L 452.9758 180.455588 
L 450.87045 180.455588 
L 448.7651 180.455588 
L 446.65975 180.455588 
L 444.5544 180.455588 
L 442.44905 180.455588 
L 440.3437 180.455588 
L 438.23835 180.455588 
L 436.133 180.455588 
L 434.02765 180.455588 
L 431.9223 180.455588 
L 429.81695 180.455588 
L 427.7116 180.455588 
L 425.60625 180.455588 
L 423.5009 180.455588 
L 421.39555 180.455588 
L 419.2902 180.455588 
L 417.18485 180.455588 
L 415.0795 180.455588 
L 412.97415 180.455588 
L 410.8688 180.455588 
L 408.76345 180.455588 
L 406.6581 180.455588 
L 404.55275 180.455588 
L 402.4474 180.455588 
L 400.34205 180.455588 
L 398.2367 180.455588 
L 396.13135 180.455588 
L 394.026 180.455588 
L 391.92065 180.455588 
L 389.8153 180.455588 
L 387.70995 180.455588 
L 385.6046 180.455588 
L 383.49925 180.455588 
L 381.3939 180.455588 
L 379.28855 180.455588 
L 377.1832 180.455588 
L 375.07785 180.455588 
L 372.9725 180.455588 
L 370.86715 180.455588 
L 368.7618 180.455588 
L 366.65645 180.455588 
L 364.5511 180.455588 
L 362.44575 180.455588 
L 360.3404 180.455588 
L 358.23505 180.455588 
L 356.1297 180.455588 
L 354.02435 180.455588 
L 351.919 180.455588 
L 349.81365 180.455588 
L 347.7083 180.455588 
L 345.60295 180.455588 
L 343.4976 180.455588 
L 341.39225 180.455588 
L 339.2869 180.455588 
L 337.18155 180.455588 
L 335.0762 180.455588 
L 332.97085 180.455588 
L 330.8655 180.455588 
L 328.76015 180.455588 
L 326.6548 180.455588 
L 324.54945 180.455588 
L 322.4441 180.455588 
L 320.33875 180.455588 
L 318.2334 180.455588 
L 316.12805 180.455588 
L 314.0227 180.455588 
L 311.91735 180.455588 
L 309.812 180.455588 
L 307.70665 180.455588 
L 305.6013 180.455588 
L 303.49595 180.455588 
L 301.3906 180.455588 
L 299.28525 180.455588 
L 297.1799 180.455588 
L 295.07455 180.455588 
L 292.9692 180.455588 
L 290.86385 180.455588 
L 288.7585 180.455588 
L 286.65315 180.455588 
L 284.5478 180.455588 
L 282.44245 180.455588 
L 280.3371 180.455588 
L 278.23175 180.455588 
L 276.1264 180.455588 
L 274.02105 180.455588 
L 271.9157 180.455588 
L 269.81035 180.455588 
L 267.705 180.455588 
L 265.59965 180.455588 
L 263.4943 180.455588 
L 261.38895 180.455588 
L 259.2836 180.455588 
L 257.17825 180.455588 
L 255.0729 180.455588 
L 252.96755 180.455588 
L 250.8622 180.455588 
L 248.75685 180.455588 
L 246.6515 180.455588 
L 244.54615 180.455588 
L 242.4408 180.455588 
L 240.33545 180.455588 
L 238.2301 180.455588 
L 236.12475 180.455588 
L 234.0194 180.455588 
L 231.91405 180.455588 
L 229.8087 180.455588 
L 227.70335 180.455588 
L 225.598 180.455588 
L 223.49265 180.455588 
L 221.3873 180.455588 
L 219.28195 180.455588 
L 217.1766 180.455588 
L 215.07125 180.455588 
L 212.9659 180.455588 
L 210.86055 180.455588 
L 208.7552 180.455588 
L 206.64985 180.455588 
L 204.5445 180.455588 
L 202.43915 180.455588 
L 200.3338 180.455588 
L 198.22845 180.455588 
L 196.1231 180.455588 
L 194.01775 180.455588 
L 191.9124 180.455588 
L 189.80705 180.455588 
L 187.7017 180.455588 
L 185.59635 180.455588 
L 183.491 180.455588 
L 181.38565 180.455588 
L 179.2803 180.455588 
L 177.17495 180.455588 
L 175.0696 180.455588 
L 172.96425 180.455588 
L 170.8589 180.455588 
L 168.75355 180.455588 
L 166.6482 180.455588 
L 164.54285 180.455588 
L 162.4375 180.455588 
L 160.33215 180.455588 
L 158.2268 180.455588 
L 156.12145 180.455588 
L 154.0161 180.455588 
L 151.91075 180.455588 
L 149.8054 180.455588 
L 147.70005 180.455588 
L 145.5947 180.455588 
L 143.48935 180.455588 
L 141.384 180.455588 
L 139.27865 180.455588 
L 137.1733 180.455588 
L 135.06795 180.455588 
L 132.9626 180.455588 
L 130.85725 180.455588 
L 128.7519 180.455588 
L 126.64655 180.455588 
L 124.5412 180.455588 
L 122.43585 180.455588 
L 120.3305 180.455588 
L 118.22515 180.455588 
L 116.1198 180.455588 
L 114.01445 180.455588 
L 111.9091 180.455588 
L 109.80375 180.455588 
L 107.6984 180.455588 
L 105.59305 180.455588 
L 103.4877 180.455588 
L 101.38235 180.455588 
L 99.277 180.455588 
L 97.17165 180.455588 
L 95.0663 180.455588 
L 92.96095 180.455588 
L 90.8556 180.455588 
L 88.75025 180.455588 
L 86.6449 180.455588 
L 84.53955 180.455588 
L 82.4342 180.455588 
L 80.32885 180.455588 
L 78.2235 180.455588 
L 76.11815 180.455588 
L 74.0128 180.455588 
L 71.90745 180.455588 
L 69.8021 180.455588 
L 67.69675 180.455588 
L 65.5914 180.455588 
L 63.48605 180.455588 
L 61.3807 180.455588 
L 59.27535 180.455588 
L 57.17 180.455588 
L 55.06465 180.455588 
L 52.9593 180.455588 
L 50.85395 180.455588 
L 48.7486 180.455588 
L 46.64325 180.455588 
L 44.5379 180.455588 
L 42.43255 180.455588 
L 40.3272 180.455588 
L 38.22185 180.455588 
L 36.1165 180.455588 
L 34.01115 180.455588 
L 31.9058 180.455588 
L 29.80045 180.455588 
L 27.6951 180.455588 
L 25.58975 180.455588 
L 23.4844 180.455588 
L 21.37905 180.455588 
L 19.2737 180.455588 
L 17.16835 180.455588 
L 15.063 180.455588 
z
" clip-path="url(#p36682bda59)" style="fill: #ff0000; fill-opacity: 0.4; stroke: #ff0000; stroke-opacity: 0.4"/>
   </g>
   <g id="matplotlib.axis_1">
    <g id="xtick_1">
     <g id="line2d_1">
      <defs>
       <path id="me8067f89c8" d="M 0 0 
L 0 3.5 
" style="stroke: #000000; stroke-width: 0.8"/>
      </defs>
      <g>
       <use xlink:href="#me8067f89c8" x="57.17" y="188.534425" style="stroke: #000000; stroke-width: 0.8"/>
      </g>
     </g>
     <g id="text_1">
      <!-- 20 -->
      <g transform="translate(50.8075 203.132863) scale(0.1 -0.1)">
       <defs>
        <path id="DejaVuSans-32" d="M 1228 531 
L 3431 531 
L 3431 0 
L 469 0 
L 469 531 
Q 828 903 1448 1529 
Q 2069 2156 2228 2338 
Q 2531 2678 2651 2914 
Q 2772 3150 2772 3378 
Q 2772 3750 2511 3984 
Q 2250 4219 1831 4219 
Q 1534 4219 1204 4116 
Q 875 4013 500 3803 
L 500 4441 
Q 881 4594 1212 4672 
Q 1544 4750 1819 4750 
Q 2544 4750 2975 4387 
Q 3406 4025 3406 3419 
Q 3406 3131 3298 2873 
Q 3191 2616 2906 2266 
Q 2828 2175 2409 1742 
Q 1991 1309 1228 531 
z
" transform="scale(0.015625)"/>
        <path id="DejaVuSans-30" d="M 2034 4250 
Q 1547 4250 1301 3770 
Q 1056 3291 1056 2328 
Q 1056 1369 1301 889 
Q 1547 409 2034 409 
Q 2525 409 2770 889 
Q 3016 1369 3016 2328 
Q 3016 3291 2770 3770 
Q 2525 4250 2034 4250 
z
M 2034 4750 
Q 2819 4750 3233 4129 
Q 3647 3509 3647 2328 
Q 3647 1150 3233 529 
Q 2819 -91 2034 -91 
Q 1250 -91 836 529 
Q 422 1150 422 2328 
Q 422 3509 836 4129 
Q 1250 4750 2034 4750 
z
" transform="scale(0.015625)"/>
       </defs>
       <use xlink:href="#DejaVuSans-32"/>
       <use xlink:href="#DejaVuSans-30" x="63.623047"/>
      </g>
     </g>
    </g>
    <g id="xtick_2">
     <g id="line2d_2">
      <g>
       <use xlink:href="#me8067f89c8" x="99.277" y="188.534425" style="stroke: #000000; stroke-width: 0.8"/>
      </g>
     </g>
     <g id="text_2">
      <!-- 40 -->
      <g transform="translate(92.9145 203.132863) scale(0.1 -0.1)">
       <defs>
        <path id="DejaVuSans-34" d="M 2419 4116 
L 825 1625 
L 2419 1625 
L 2419 4116 
z
M 2253 4666 
L 3047 4666 
L 3047 1625 
L 3713 1625 
L 3713 1100 
L 3047 1100 
L 3047 0 
L 2419 0 
L 2419 1100 
L 313 1100 
L 313 1709 
L 2253 4666 
z
" transform="scale(0.015625)"/>
       </defs>
       <use xlink:href="#DejaVuSans-34"/>
       <use xlink:href="#DejaVuSans-30" x="63.623047"/>
      </g>
     </g>
    </g>
    <g id="xtick_3">
     <g id="line2d_3">
      <g>
       <use xlink:href="#me8067f89c8" x="141.384" y="188.534425" style="stroke: #000000; stroke-width: 0.8"/>
      </g>
     </g>
     <g id="text_3">
      <!-- 60 -->
      <g transform="translate(135.0215 203.132863) scale(0.1 -0.1)">
       <defs>
        <path id="DejaVuSans-36" d="M 2113 2584 
Q 1688 2584 1439 2293 
Q 1191 2003 1191 1497 
Q 1191 994 1439 701 
Q 1688 409 2113 409 
Q 2538 409 2786 701 
Q 3034 994 3034 1497 
Q 3034 2003 2786 2293 
Q 2538 2584 2113 2584 
z
M 3366 4563 
L 3366 3988 
Q 3128 4100 2886 4159 
Q 2644 4219 2406 4219 
Q 1781 4219 1451 3797 
Q 1122 3375 1075 2522 
Q 1259 2794 1537 2939 
Q 1816 3084 2150 3084 
Q 2853 3084 3261 2657 
Q 3669 2231 3669 1497 
Q 3669 778 3244 343 
Q 2819 -91 2113 -91 
Q 1303 -91 875 529 
Q 447 1150 447 2328 
Q 447 3434 972 4092 
Q 1497 4750 2381 4750 
Q 2619 4750 2861 4703 
Q 3103 4656 3366 4563 
z
" transform="scale(0.015625)"/>
       </defs>
       <use xlink:href="#DejaVuSans-36"/>
       <use xlink:href="#DejaVuSans-30" x="63.623047"/>
      </g>
     </g>
    </g>
    <g id="xtick_4">
     <g id="line2d_4">
      <g>
       <use xlink:href="#me8067f89c8" x="183.491" y="188.534425" style="stroke: #000000; stroke-width: 0.8"/>
      </g>
     </g>
     <g id="text_4">
      <!-- 80 -->
      <g transform="translate(177.1285 203.132863) scale(0.1 -0.1)">
       <defs>
        <path id="DejaVuSans-38" d="M 2034 2216 
Q 1584 2216 1326 1975 
Q 1069 1734 1069 1313 
Q 1069 891 1326 650 
Q 1584 409 2034 409 
Q 2484 409 2743 651 
Q 3003 894 3003 1313 
Q 3003 1734 2745 1975 
Q 2488 2216 2034 2216 
z
M 1403 2484 
Q 997 2584 770 2862 
Q 544 3141 544 3541 
Q 544 4100 942 4425 
Q 1341 4750 2034 4750 
Q 2731 4750 3128 4425 
Q 3525 4100 3525 3541 
Q 3525 3141 3298 2862 
Q 3072 2584 2669 2484 
Q 3125 2378 3379 2068 
Q 3634 1759 3634 1313 
Q 3634 634 3220 271 
Q 2806 -91 2034 -91 
Q 1263 -91 848 271 
Q 434 634 434 1313 
Q 434 1759 690 2068 
Q 947 2378 1403 2484 
z
M 1172 3481 
Q 1172 3119 1398 2916 
Q 1625 2713 2034 2713 
Q 2441 2713 2670 2916 
Q 2900 3119 2900 3481 
Q 2900 3844 2670 4047 
Q 2441 4250 2034 4250 
Q 1625 4250 1398 4047 
Q 1172 3844 1172 3481 
z
" transform="scale(0.015625)"/>
       </defs>
       <use xlink:href="#DejaVuSans-38"/>
       <use xlink:href="#DejaVuSans-30" x="63.623047"/>
      </g>
     </g>
    </g>
    <g id="xtick_5">
     <g id="line2d_5">
      <g>
       <use xlink:href="#me8067f89c8" x="225.598" y="188.534425" style="stroke: #000000; stroke-width: 0.8"/>
      </g>
     </g>
     <g id="text_5">
      <!-- 100 -->
      <g transform="translate(216.05425 203.132863) scale(0.1 -0.1)">
       <defs>
        <path id="DejaVuSans-31" d="M 794 531 
L 1825 531 
L 1825 4091 
L 703 3866 
L 703 4441 
L 1819 4666 
L 2450 4666 
L 2450 531 
L 3481 531 
L 3481 0 
L 794 0 
L 794 531 
z
" transform="scale(0.015625)"/>
       </defs>
       <use xlink:href="#DejaVuSans-31"/>
       <use xlink:href="#DejaVuSans-30" x="63.623047"/>
       <use xlink:href="#DejaVuSans-30" x="127.246094"/>
      </g>
     </g>
    </g>
    <g id="xtick_6">
     <g id="line2d_6">
      <g>
       <use xlink:href="#me8067f89c8" x="267.705" y="188.534425" style="stroke: #000000; stroke-width: 0.8"/>
      </g>
     </g>
     <g id="text_6">
      <!-- 120 -->
      <g transform="translate(258.16125 203.132863) scale(0.1 -0.1)">
       <use xlink:href="#DejaVuSans-31"/>
       <use xlink:href="#DejaVuSans-32" x="63.623047"/>
       <use xlink:href="#DejaVuSans-30" x="127.246094"/>
      </g>
     </g>
    </g>
   </g>
   <g id="matplotlib.axis_2">
    <g id="ytick_1">
     <g id="line2d_7">
      <defs>
       <path id="m22cb15c71c" d="M 0 0 
L -3.5 0 
" style="stroke: #000000; stroke-width: 0.8"/>
      </defs>
      <g>
       <use xlink:href="#m22cb15c71c" x="57.17" y="180.455588" style="stroke: #000000; stroke-width: 0.8"/>
      </g>
     </g>
     <g id="text_7">
      <!-- 0 -->
      <g transform="translate(43.8075 184.254807) scale(0.1 -0.1)">
       <use xlink:href="#DejaVuSans-30"/>
      </g>
     </g>
    </g>
    <g id="ytick_2">
     <g id="line2d_8">
      <g>
       <use xlink:href="#m22cb15c71c" x="57.17" y="151.756343" style="stroke: #000000; stroke-width: 0.8"/>
      </g>
     </g>
     <g id="text_8">
      <!-- 200 -->
      <g transform="translate(31.0825 155.555562) scale(0.1 -0.1)">
       <use xlink:href="#DejaVuSans-32"/>
       <use xlink:href="#DejaVuSans-30" x="63.623047"/>
       <use xlink:href="#DejaVuSans-30" x="127.246094"/>
      </g>
     </g>
    </g>
    <g id="ytick_3">
     <g id="line2d_9">
      <g>
       <use xlink:href="#m22cb15c71c" x="57.17" y="123.057098" style="stroke: #000000; stroke-width: 0.8"/>
      </g>
     </g>
     <g id="text_9">
      <!-- 400 -->
      <g transform="translate(31.0825 126.856316) scale(0.1 -0.1)">
       <use xlink:href="#DejaVuSans-34"/>
       <use xlink:href="#DejaVuSans-30" x="63.623047"/>
       <use xlink:href="#DejaVuSans-30" x="127.246094"/>
      </g>
     </g>
    </g>
    <g id="ytick_4">
     <g id="line2d_10">
      <g>
       <use xlink:href="#m22cb15c71c" x="57.17" y="94.357852" style="stroke: #000000; stroke-width: 0.8"/>
      </g>
     </g>
     <g id="text_10">
      <!-- 600 -->
      <g transform="translate(31.0825 98.157071) scale(0.1 -0.1)">
       <use xlink:href="#DejaVuSans-36"/>
       <use xlink:href="#DejaVuSans-30" x="63.623047"/>
       <use xlink:href="#DejaVuSans-30" x="127.246094"/>
      </g>
     </g>
    </g>
    <g id="ytick_5">
     <g id="line2d_11">
      <g>
       <use xlink:href="#m22cb15c71c" x="57.17" y="65.658607" style="stroke: #000000; stroke-width: 0.8"/>
      </g>
     </g>
     <g id="text_11">
      <!-- 800 -->
      <g transform="translate(31.0825 69.457826) scale(0.1 -0.1)">
       <use xlink:href="#DejaVuSans-38"/>
       <use xlink:href="#DejaVuSans-30" x="63.623047"/>
       <use xlink:href="#DejaVuSans-30" x="127.246094"/>
      </g>
     </g>
    </g>
    <g id="ytick_6">
     <g id="line2d_12">
      <g>
       <use xlink:href="#m22cb15c71c" x="57.17" y="36.959362" style="stroke: #000000; stroke-width: 0.8"/>
      </g>
     </g>
     <g id="text_12">
      <!-- 1000 -->
      <g transform="translate(24.72 40.758581) scale(0.1 -0.1)">
       <use xlink:href="#DejaVuSans-31"/>
       <use xlink:href="#DejaVuSans-30" x="63.623047"/>
       <use xlink:href="#DejaVuSans-30" x="127.246094"/>
       <use xlink:href="#DejaVuSans-30" x="190.869141"/>
      </g>
     </g>
    </g>
    <g id="text_13">
     <!-- Pixel Frequency -->
     <g transform="translate(18.640313 138.646119) rotate(-90) scale(0.1 -0.1)">
      <defs>
       <path id="DejaVuSans-50" d="M 1259 4147 
L 1259 2394 
L 2053 2394 
Q 2494 2394 2734 2622 
Q 2975 2850 2975 3272 
Q 2975 3691 2734 3919 
Q 2494 4147 2053 4147 
L 1259 4147 
z
M 628 4666 
L 2053 4666 
Q 2838 4666 3239 4311 
Q 3641 3956 3641 3272 
Q 3641 2581 3239 2228 
Q 2838 1875 2053 1875 
L 1259 1875 
L 1259 0 
L 628 0 
L 628 4666 
z
" transform="scale(0.015625)"/>
       <path id="DejaVuSans-69" d="M 603 3500 
L 1178 3500 
L 1178 0 
L 603 0 
L 603 3500 
z
M 603 4863 
L 1178 4863 
L 1178 4134 
L 603 4134 
L 603 4863 
z
" transform="scale(0.015625)"/>
       <path id="DejaVuSans-78" d="M 3513 3500 
L 2247 1797 
L 3578 0 
L 2900 0 
L 1881 1375 
L 863 0 
L 184 0 
L 1544 1831 
L 300 3500 
L 978 3500 
L 1906 2253 
L 2834 3500 
L 3513 3500 
z
" transform="scale(0.015625)"/>
       <path id="DejaVuSans-65" d="M 3597 1894 
L 3597 1613 
L 953 1613 
Q 991 1019 1311 708 
Q 1631 397 2203 397 
Q 2534 397 2845 478 
Q 3156 559 3463 722 
L 3463 178 
Q 3153 47 2828 -22 
Q 2503 -91 2169 -91 
Q 1331 -91 842 396 
Q 353 884 353 1716 
Q 353 2575 817 3079 
Q 1281 3584 2069 3584 
Q 2775 3584 3186 3129 
Q 3597 2675 3597 1894 
z
M 3022 2063 
Q 3016 2534 2758 2815 
Q 2500 3097 2075 3097 
Q 1594 3097 1305 2825 
Q 1016 2553 972 2059 
L 3022 2063 
z
" transform="scale(0.015625)"/>
       <path id="DejaVuSans-6c" d="M 603 4863 
L 1178 4863 
L 1178 0 
L 603 0 
L 603 4863 
z
" transform="scale(0.015625)"/>
       <path id="DejaVuSans-20" transform="scale(0.015625)"/>
       <path id="DejaVuSans-46" d="M 628 4666 
L 3309 4666 
L 3309 4134 
L 1259 4134 
L 1259 2759 
L 3109 2759 
L 3109 2228 
L 1259 2228 
L 1259 0 
L 628 0 
L 628 4666 
z
" transform="scale(0.015625)"/>
       <path id="DejaVuSans-72" d="M 2631 2963 
Q 2534 3019 2420 3045 
Q 2306 3072 2169 3072 
Q 1681 3072 1420 2755 
Q 1159 2438 1159 1844 
L 1159 0 
L 581 0 
L 581 3500 
L 1159 3500 
L 1159 2956 
Q 1341 3275 1631 3429 
Q 1922 3584 2338 3584 
Q 2397 3584 2469 3576 
Q 2541 3569 2628 3553 
L 2631 2963 
z
" transform="scale(0.015625)"/>
       <path id="DejaVuSans-71" d="M 947 1747 
Q 947 1113 1208 752 
Q 1469 391 1925 391 
Q 2381 391 2643 752 
Q 2906 1113 2906 1747 
Q 2906 2381 2643 2742 
Q 2381 3103 1925 3103 
Q 1469 3103 1208 2742 
Q 947 2381 947 1747 
z
M 2906 525 
Q 2725 213 2448 61 
Q 2172 -91 1784 -91 
Q 1150 -91 751 415 
Q 353 922 353 1747 
Q 353 2572 751 3078 
Q 1150 3584 1784 3584 
Q 2172 3584 2448 3432 
Q 2725 3281 2906 2969 
L 2906 3500 
L 3481 3500 
L 3481 -1331 
L 2906 -1331 
L 2906 525 
z
" transform="scale(0.015625)"/>
       <path id="DejaVuSans-75" d="M 544 1381 
L 544 3500 
L 1119 3500 
L 1119 1403 
Q 1119 906 1312 657 
Q 1506 409 1894 409 
Q 2359 409 2629 706 
Q 2900 1003 2900 1516 
L 2900 3500 
L 3475 3500 
L 3475 0 
L 2900 0 
L 2900 538 
Q 2691 219 2414 64 
Q 2138 -91 1772 -91 
Q 1169 -91 856 284 
Q 544 659 544 1381 
z
M 1991 3584 
L 1991 3584 
z
" transform="scale(0.015625)"/>
       <path id="DejaVuSans-6e" d="M 3513 2113 
L 3513 0 
L 2938 0 
L 2938 2094 
Q 2938 2591 2744 2837 
Q 2550 3084 2163 3084 
Q 1697 3084 1428 2787 
Q 1159 2491 1159 1978 
L 1159 0 
L 581 0 
L 581 3500 
L 1159 3500 
L 1159 2956 
Q 1366 3272 1645 3428 
Q 1925 3584 2291 3584 
Q 2894 3584 3203 3211 
Q 3513 2838 3513 2113 
z
" transform="scale(0.015625)"/>
       <path id="DejaVuSans-63" d="M 3122 3366 
L 3122 2828 
Q 2878 2963 2633 3030 
Q 2388 3097 2138 3097 
Q 1578 3097 1268 2742 
Q 959 2388 959 1747 
Q 959 1106 1268 751 
Q 1578 397 2138 397 
Q 2388 397 2633 464 
Q 2878 531 3122 666 
L 3122 134 
Q 2881 22 2623 -34 
Q 2366 -91 2075 -91 
Q 1284 -91 818 406 
Q 353 903 353 1747 
Q 353 2603 823 3093 
Q 1294 3584 2113 3584 
Q 2378 3584 2631 3529 
Q 2884 3475 3122 3366 
z
" transform="scale(0.015625)"/>
       <path id="DejaVuSans-79" d="M 2059 -325 
Q 1816 -950 1584 -1140 
Q 1353 -1331 966 -1331 
L 506 -1331 
L 506 -850 
L 844 -850 
Q 1081 -850 1212 -737 
Q 1344 -625 1503 -206 
L 1606 56 
L 191 3500 
L 800 3500 
L 1894 763 
L 2988 3500 
L 3597 3500 
L 2059 -325 
z
" transform="scale(0.015625)"/>
      </defs>
      <use xlink:href="#DejaVuSans-50"/>
      <use xlink:href="#DejaVuSans-69" x="58.052734"/>
      <use xlink:href="#DejaVuSans-78" x="85.835938"/>
      <use xlink:href="#DejaVuSans-65" x="141.890625"/>
      <use xlink:href="#DejaVuSans-6c" x="203.414062"/>
      <use xlink:href="#DejaVuSans-20" x="231.197266"/>
      <use xlink:href="#DejaVuSans-46" x="262.984375"/>
      <use xlink:href="#DejaVuSans-72" x="313.253906"/>
      <use xlink:href="#DejaVuSans-65" x="352.117188"/>
      <use xlink:href="#DejaVuSans-71" x="413.640625"/>
      <use xlink:href="#DejaVuSans-75" x="477.117188"/>
      <use xlink:href="#DejaVuSans-65" x="540.496094"/>
      <use xlink:href="#DejaVuSans-6e" x="602.019531"/>
      <use xlink:href="#DejaVuSans-63" x="665.398438"/>
      <use xlink:href="#DejaVuSans-79" x="720.378906"/>
     </g>
    </g>
   </g>
   <g id="line2d_13">
    <path d="M 15.063 180.455588 
L 109.80375 180.455588 
L 111.9091 179.594611 
L 114.01445 178.159648 
L 116.1198 178.016152 
L 120.3305 168.688897 
L 122.43585 163.523033 
L 124.5412 161.514086 
L 126.64655 160.940101 
L 128.7519 161.657582 
L 130.85725 160.079124 
L 132.9626 153.478297 
L 135.06795 149.029914 
L 137.1733 138.411194 
L 139.27865 117.747737 
L 141.384 117.604241 
L 143.48935 119.613188 
L 145.5947 116.169279 
L 147.70005 116.456271 
L 149.8054 119.613188 
L 151.91075 123.057098 
L 154.0161 112.868866 
L 156.12145 104.976573 
L 158.2268 90.913943 
L 160.33215 73.837892 
L 162.4375 63.075675 
L 164.54285 59.918758 
L 166.6482 60.923232 
L 168.75355 54.178909 
L 170.8589 42.986203 
L 172.96425 25.049175 
L 175.0696 26.197145 
L 177.17495 18.878838 
L 179.2803 24.618687 
L 181.38565 22.322747 
L 183.491 22.179251 
L 185.59635 28.636581 
L 187.7017 25.479664 
L 189.80705 26.914626 
L 191.9124 31.506505 
L 194.01775 32.223987 
L 196.1231 32.510979 
L 200.3338 41.264249 
L 202.43915 41.551241 
L 204.5445 52.743947 
L 206.64985 57.335826 
L 208.7552 59.201277 
L 210.86055 68.528532 
L 212.9659 69.819998 
L 215.07125 68.672028 
L 217.1766 76.420824 
L 219.28195 74.985862 
L 221.3873 73.981388 
L 223.49265 71.25496 
L 225.598 70.250486 
L 227.70335 70.967968 
L 229.8087 73.407403 
L 231.91405 85.748079 
L 234.0194 81.730184 
L 236.12475 100.958679 
L 238.2301 99.236724 
L 240.33545 96.223303 
L 242.4408 106.842024 
L 244.54615 108.850971 
L 246.6515 112.294881 
L 248.75685 121.335143 
L 250.8622 120.617662 
L 252.96755 118.895707 
L 255.0729 126.357511 
L 257.17825 132.958337 
L 259.2836 134.393299 
L 261.38895 137.119728 
L 263.4943 136.832735 
L 265.59965 141.711607 
L 267.705 143.720554 
L 269.81035 145.155516 
L 271.9157 149.173411 
L 274.02105 149.029914 
L 276.1264 144.581531 
L 278.23175 148.599426 
L 280.3371 153.76529 
L 282.44245 151.325854 
L 284.5478 153.908786 
L 286.65315 156.922207 
L 288.7585 155.917733 
L 289 156.065875 
L 289 156.065875 
" clip-path="url(#p36682bda59)" style="fill: none; stroke: #ff0000; stroke-width: 1.5; stroke-linecap: square"/>
   </g>
   <g id="patch_3">
    <path d="M 57.17 188.534425 
L 57.17 10.8 
" style="fill: none; stroke: #000000; stroke-width: 0.8; stroke-linejoin: miter; stroke-linecap: square"/>
   </g>
   <g id="patch_4">
    <path d="M 267.705 188.534425 
L 267.705 10.8 
" style="fill: none; stroke: #000000; stroke-width: 0.8; stroke-linejoin: miter; stroke-linecap: square"/>
   </g>
   <g id="patch_5">
    <path d="M 57.17 188.534425 
L 267.705 188.534425 
" style="fill: none; stroke: #000000; stroke-width: 0.8; stroke-linejoin: miter; stroke-linecap: square"/>
   </g>
   <g id="patch_6">
    <path d="M 57.17 10.8 
L 267.705 10.8 
" style="fill: none; stroke: #000000; stroke-width: 0.8; stroke-linejoin: miter; stroke-linecap: square"/>
   </g>
   <g id="text_14">
    <!-- Red Channel  -->
    <g transform="translate(188.011875 24.8) scale(0.12 -0.12)">
     <defs>
      <path id="DejaVuSans-52" d="M 2841 2188 
Q 3044 2119 3236 1894 
Q 3428 1669 3622 1275 
L 4263 0 
L 3584 0 
L 2988 1197 
Q 2756 1666 2539 1819 
Q 2322 1972 1947 1972 
L 1259 1972 
L 1259 0 
L 628 0 
L 628 4666 
L 2053 4666 
Q 2853 4666 3247 4331 
Q 3641 3997 3641 3322 
Q 3641 2881 3436 2590 
Q 3231 2300 2841 2188 
z
M 1259 4147 
L 1259 2491 
L 2053 2491 
Q 2509 2491 2742 2702 
Q 2975 2913 2975 3322 
Q 2975 3731 2742 3939 
Q 2509 4147 2053 4147 
L 1259 4147 
z
" transform="scale(0.015625)"/>
      <path id="DejaVuSans-64" d="M 2906 2969 
L 2906 4863 
L 3481 4863 
L 3481 0 
L 2906 0 
L 2906 525 
Q 2725 213 2448 61 
Q 2172 -91 1784 -91 
Q 1150 -91 751 415 
Q 353 922 353 1747 
Q 353 2572 751 3078 
Q 1150 3584 1784 3584 
Q 2172 3584 2448 3432 
Q 2725 3281 2906 2969 
z
M 947 1747 
Q 947 1113 1208 752 
Q 1469 391 1925 391 
Q 2381 391 2643 752 
Q 2906 1113 2906 1747 
Q 2906 2381 2643 2742 
Q 2381 3103 1925 3103 
Q 1469 3103 1208 2742 
Q 947 2381 947 1747 
z
" transform="scale(0.015625)"/>
      <path id="DejaVuSans-43" d="M 4122 4306 
L 4122 3641 
Q 3803 3938 3442 4084 
Q 3081 4231 2675 4231 
Q 1875 4231 1450 3742 
Q 1025 3253 1025 2328 
Q 1025 1406 1450 917 
Q 1875 428 2675 428 
Q 3081 428 3442 575 
Q 3803 722 4122 1019 
L 4122 359 
Q 3791 134 3420 21 
Q 3050 -91 2638 -91 
Q 1578 -91 968 557 
Q 359 1206 359 2328 
Q 359 3453 968 4101 
Q 1578 4750 2638 4750 
Q 3056 4750 3426 4639 
Q 3797 4528 4122 4306 
z
" transform="scale(0.015625)"/>
      <path id="DejaVuSans-68" d="M 3513 2113 
L 3513 0 
L 2938 0 
L 2938 2094 
Q 2938 2591 2744 2837 
Q 2550 3084 2163 3084 
Q 1697 3084 1428 2787 
Q 1159 2491 1159 1978 
L 1159 0 
L 581 0 
L 581 4863 
L 1159 4863 
L 1159 2956 
Q 1366 3272 1645 3428 
Q 1925 3584 2291 3584 
Q 2894 3584 3203 3211 
Q 3513 2838 3513 2113 
z
" transform="scale(0.015625)"/>
      <path id="DejaVuSans-61" d="M 2194 1759 
Q 1497 1759 1228 1600 
Q 959 1441 959 1056 
Q 959 750 1161 570 
Q 1363 391 1709 391 
Q 2188 391 2477 730 
Q 2766 1069 2766 1631 
L 2766 1759 
L 2194 1759 
z
M 3341 1997 
L 3341 0 
L 2766 0 
L 2766 531 
Q 2569 213 2275 61 
Q 1981 -91 1556 -91 
Q 1019 -91 701 211 
Q 384 513 384 1019 
Q 384 1609 779 1909 
Q 1175 2209 1959 2209 
L 2766 2209 
L 2766 2266 
Q 2766 2663 2505 2880 
Q 2244 3097 1772 3097 
Q 1472 3097 1187 3025 
Q 903 2953 641 2809 
L 641 3341 
Q 956 3463 1253 3523 
Q 1550 3584 1831 3584 
Q 2591 3584 2966 3190 
Q 3341 2797 3341 1997 
z
" transform="scale(0.015625)"/>
     </defs>
     <use xlink:href="#DejaVuSans-52"/>
     <use xlink:href="#DejaVuSans-65" x="64.982422"/>
     <use xlink:href="#DejaVuSans-64" x="126.505859"/>
     <use xlink:href="#DejaVuSans-20" x="189.982422"/>
     <use xlink:href="#DejaVuSans-43" x="221.769531"/>
     <use xlink:href="#DejaVuSans-68" x="291.59375"/>
     <use xlink:href="#DejaVuSans-61" x="354.972656"/>
     <use xlink:href="#DejaVuSans-6e" x="416.251953"/>
     <use xlink:href="#DejaVuSans-6e" x="479.630859"/>
     <use xlink:href="#DejaVuSans-65" x="543.009766"/>
     <use xlink:href="#DejaVuSans-6c" x="604.533203"/>
     <use xlink:href="#DejaVuSans-20" x="632.316406"/>
    </g>
   </g>
  </g>
  <g id="axes_2">
   <g id="patch_7">
    <path d="M 57.17 397.287213 
L 267.705 397.287213 
L 267.705 219.552787 
L 57.17 219.552787 
z
" style="fill: #ffffff"/>
   </g>
   <g id="PolyCollection_2">
    <path d="M 15.063 389.208375 
L 15.063 389.208375 
L 17.16835 389.208375 
L 19.2737 389.208375 
L 21.37905 389.208375 
L 23.4844 389.208375 
L 25.58975 389.208375 
L 27.6951 389.208375 
L 29.80045 389.208375 
L 31.9058 389.208375 
L 34.01115 389.208375 
L 36.1165 389.208375 
L 38.22185 389.208375 
L 40.3272 389.208375 
L 42.43255 389.208375 
L 44.5379 389.208375 
L 46.64325 389.208375 
L 48.7486 389.208375 
L 50.85395 389.208375 
L 52.9593 389.208375 
L 55.06465 389.208375 
L 57.17 389.208375 
L 59.27535 389.208375 
L 61.3807 389.208375 
L 63.48605 389.208375 
L 65.5914 389.208375 
L 67.69675 389.208375 
L 69.8021 389.208375 
L 71.90745 389.208375 
L 74.0128 389.208375 
L 76.11815 389.208375 
L 78.2235 389.208375 
L 80.32885 389.208375 
L 82.4342 389.208375 
L 84.53955 389.208375 
L 86.6449 389.208375 
L 88.75025 389.208375 
L 90.8556 389.208375 
L 92.96095 389.208375 
L 95.0663 389.208375 
L 97.17165 388.027752 
L 99.277 387.690431 
L 101.38235 386.509807 
L 103.4877 384.317221 
L 105.59305 380.60669 
L 107.6984 374.534912 
L 109.80375 373.354289 
L 111.9091 370.824382 
L 114.01445 366.101888 
L 116.1198 366.101888 
L 118.22515 365.089925 
L 120.3305 362.560018 
L 122.43585 357.668863 
L 124.5412 349.910481 
L 126.64655 342.82674 
L 128.7519 337.429604 
L 130.85725 324.780068 
L 132.9626 324.105426 
L 135.06795 322.587481 
L 137.1733 317.359006 
L 139.27865 320.394895 
L 141.384 319.720253 
L 143.48935 326.466673 
L 145.5947 318.87695 
L 147.70005 322.0815 
L 149.8054 309.431963 
L 151.91075 299.986975 
L 154.0161 283.795568 
L 156.12145 267.26684 
L 158.2268 281.940303 
L 160.33215 282.952266 
L 162.4375 278.567093 
L 164.54285 255.966587 
L 166.6482 253.099359 
L 168.75355 246.184279 
L 170.8589 243.485711 
L 172.96425 240.281162 
L 175.0696 236.40197 
L 177.17495 234.040723 
L 179.2803 227.631625 
L 181.38565 232.69144 
L 183.491 239.269199 
L 185.59635 237.245273 
L 187.7017 240.787143 
L 189.80705 248.714186 
L 191.9124 244.497674 
L 194.01775 241.630446 
L 196.1231 255.291945 
L 198.22845 251.918735 
L 200.3338 254.785964 
L 202.43915 259.508458 
L 204.5445 253.60534 
L 206.64985 279.241735 
L 208.7552 268.110143 
L 210.86055 272.663976 
L 212.9659 277.049149 
L 215.07125 279.410396 
L 217.1766 273.001297 
L 219.28195 285.482173 
L 221.3873 287.337439 
L 223.49265 283.964229 
L 225.598 291.38529 
L 227.70335 285.313513 
L 229.8087 285.313513 
L 231.91405 289.024044 
L 234.0194 292.059932 
L 236.12475 292.903235 
L 238.2301 295.264482 
L 240.33545 289.530025 
L 242.4408 297.288408 
L 244.54615 303.866167 
L 246.6515 307.070716 
L 248.75685 311.96187 
L 250.8622 310.106605 
L 252.96755 320.394895 
L 255.0729 319.720253 
L 257.17825 324.105426 
L 259.2836 328.827919 
L 261.38895 330.345864 
L 263.4943 328.490598 
L 265.59965 335.91166 
L 267.705 340.634154 
L 269.81035 334.225055 
L 271.9157 342.82674 
L 274.02105 341.983438 
L 276.1264 349.910481 
L 278.23175 351.259765 
L 280.3371 356.6569 
L 282.44245 350.247802 
L 284.5478 352.271728 
L 286.65315 354.295654 
L 288.7585 362.054036 
L 290.86385 359.86145 
L 292.9692 360.198771 
L 295.07455 358.174845 
L 297.1799 358.343505 
L 299.28525 360.704752 
L 301.3906 358.680826 
L 303.49595 363.571981 
L 305.6013 362.560018 
L 307.70665 363.571981 
L 309.812 364.583944 
L 311.91735 365.764567 
L 314.0227 366.270548 
L 316.12805 368.800456 
L 318.2334 366.94519 
L 320.33875 368.969116 
L 322.4441 372.005005 
L 324.54945 370.824382 
L 326.6548 373.185629 
L 328.76015 372.005005 
L 330.8655 371.836345 
L 332.97085 372.848308 
L 335.0762 372.848308 
L 337.18155 375.040894 
L 339.2869 377.402141 
L 341.39225 374.197592 
L 343.4976 377.908122 
L 345.60295 379.594727 
L 347.7083 379.426067 
L 349.81365 380.269369 
L 351.919 378.414104 
L 354.02435 380.944011 
L 356.1297 379.932048 
L 358.23505 379.426067 
L 360.3404 381.618653 
L 362.44575 379.257406 
L 364.5511 382.967937 
L 366.65645 382.124635 
L 368.7618 382.293295 
L 370.86715 384.14856 
L 372.9725 381.787314 
L 375.07785 382.461956 
L 377.1832 384.14856 
L 379.28855 384.317221 
L 381.3939 383.81124 
L 383.49925 384.14856 
L 385.6046 384.317221 
L 387.70995 386.003826 
L 389.8153 385.160523 
L 391.92065 385.160523 
L 394.026 387.015789 
L 396.13135 387.184449 
L 398.2367 384.823202 
L 400.34205 386.678468 
L 402.4474 387.015789 
L 404.55275 386.847128 
L 406.6581 387.859091 
L 408.76345 387.35311 
L 410.8688 387.690431 
L 412.97415 387.35311 
L 415.0795 387.35311 
L 417.18485 386.003826 
L 419.2902 387.35311 
L 421.39555 387.690431 
L 423.5009 388.027752 
L 425.60625 387.859091 
L 427.7116 386.341147 
L 429.81695 387.859091 
L 431.9223 387.690431 
L 434.02765 388.533733 
L 436.133 388.027752 
L 438.23835 388.027752 
L 440.3437 388.365073 
L 442.44905 388.196412 
L 444.5544 388.196412 
L 446.65975 388.533733 
L 448.7651 389.039715 
L 450.87045 388.027752 
L 452.9758 388.365073 
L 455.08115 387.690431 
L 457.1865 388.702394 
L 459.29185 388.533733 
L 461.3972 387.859091 
L 463.50255 387.690431 
L 465.6079 388.365073 
L 467.71325 388.196412 
L 469.8186 388.365073 
L 471.92395 388.196412 
L 474.0293 388.365073 
L 476.13465 388.533733 
L 478.24 388.196412 
L 480.34535 388.702394 
L 482.4507 388.533733 
L 484.55605 387.015789 
L 486.6614 388.365073 
L 488.76675 388.533733 
L 490.8721 388.533733 
L 492.97745 388.871054 
L 495.0828 387.184449 
L 497.18815 388.702394 
L 499.2935 388.365073 
L 501.39885 387.859091 
L 503.5042 388.702394 
L 505.60955 387.859091 
L 507.7149 388.027752 
L 509.82025 388.871054 
L 511.9256 387.859091 
L 514.03095 389.039715 
L 516.1363 389.039715 
L 518.24165 388.365073 
L 520.347 388.533733 
L 522.45235 388.533733 
L 524.5577 388.027752 
L 526.66305 387.52177 
L 528.7684 387.52177 
L 530.87375 388.027752 
L 532.9791 387.35311 
L 535.08445 388.365073 
L 537.1898 388.196412 
L 539.29515 388.533733 
L 541.4005 387.184449 
L 543.50585 387.35311 
L 545.6112 386.509807 
L 547.71655 386.847128 
L 549.8219 386.509807 
L 551.92725 382.799277 
L 551.92725 389.208375 
L 551.92725 389.208375 
L 549.8219 389.208375 
L 547.71655 389.208375 
L 545.6112 389.208375 
L 543.50585 389.208375 
L 541.4005 389.208375 
L 539.29515 389.208375 
L 537.1898 389.208375 
L 535.08445 389.208375 
L 532.9791 389.208375 
L 530.87375 389.208375 
L 528.7684 389.208375 
L 526.66305 389.208375 
L 524.5577 389.208375 
L 522.45235 389.208375 
L 520.347 389.208375 
L 518.24165 389.208375 
L 516.1363 389.208375 
L 514.03095 389.208375 
L 511.9256 389.208375 
L 509.82025 389.208375 
L 507.7149 389.208375 
L 505.60955 389.208375 
L 503.5042 389.208375 
L 501.39885 389.208375 
L 499.2935 389.208375 
L 497.18815 389.208375 
L 495.0828 389.208375 
L 492.97745 389.208375 
L 490.8721 389.208375 
L 488.76675 389.208375 
L 486.6614 389.208375 
L 484.55605 389.208375 
L 482.4507 389.208375 
L 480.34535 389.208375 
L 478.24 389.208375 
L 476.13465 389.208375 
L 474.0293 389.208375 
L 471.92395 389.208375 
L 469.8186 389.208375 
L 467.71325 389.208375 
L 465.6079 389.208375 
L 463.50255 389.208375 
L 461.3972 389.208375 
L 459.29185 389.208375 
L 457.1865 389.208375 
L 455.08115 389.208375 
L 452.9758 389.208375 
L 450.87045 389.208375 
L 448.7651 389.208375 
L 446.65975 389.208375 
L 444.5544 389.208375 
L 442.44905 389.208375 
L 440.3437 389.208375 
L 438.23835 389.208375 
L 436.133 389.208375 
L 434.02765 389.208375 
L 431.9223 389.208375 
L 429.81695 389.208375 
L 427.7116 389.208375 
L 425.60625 389.208375 
L 423.5009 389.208375 
L 421.39555 389.208375 
L 419.2902 389.208375 
L 417.18485 389.208375 
L 415.0795 389.208375 
L 412.97415 389.208375 
L 410.8688 389.208375 
L 408.76345 389.208375 
L 406.6581 389.208375 
L 404.55275 389.208375 
L 402.4474 389.208375 
L 400.34205 389.208375 
L 398.2367 389.208375 
L 396.13135 389.208375 
L 394.026 389.208375 
L 391.92065 389.208375 
L 389.8153 389.208375 
L 387.70995 389.208375 
L 385.6046 389.208375 
L 383.49925 389.208375 
L 381.3939 389.208375 
L 379.28855 389.208375 
L 377.1832 389.208375 
L 375.07785 389.208375 
L 372.9725 389.208375 
L 370.86715 389.208375 
L 368.7618 389.208375 
L 366.65645 389.208375 
L 364.5511 389.208375 
L 362.44575 389.208375 
L 360.3404 389.208375 
L 358.23505 389.208375 
L 356.1297 389.208375 
L 354.02435 389.208375 
L 351.919 389.208375 
L 349.81365 389.208375 
L 347.7083 389.208375 
L 345.60295 389.208375 
L 343.4976 389.208375 
L 341.39225 389.208375 
L 339.2869 389.208375 
L 337.18155 389.208375 
L 335.0762 389.208375 
L 332.97085 389.208375 
L 330.8655 389.208375 
L 328.76015 389.208375 
L 326.6548 389.208375 
L 324.54945 389.208375 
L 322.4441 389.208375 
L 320.33875 389.208375 
L 318.2334 389.208375 
L 316.12805 389.208375 
L 314.0227 389.208375 
L 311.91735 389.208375 
L 309.812 389.208375 
L 307.70665 389.208375 
L 305.6013 389.208375 
L 303.49595 389.208375 
L 301.3906 389.208375 
L 299.28525 389.208375 
L 297.1799 389.208375 
L 295.07455 389.208375 
L 292.9692 389.208375 
L 290.86385 389.208375 
L 288.7585 389.208375 
L 286.65315 389.208375 
L 284.5478 389.208375 
L 282.44245 389.208375 
L 280.3371 389.208375 
L 278.23175 389.208375 
L 276.1264 389.208375 
L 274.02105 389.208375 
L 271.9157 389.208375 
L 269.81035 389.208375 
L 267.705 389.208375 
L 265.59965 389.208375 
L 263.4943 389.208375 
L 261.38895 389.208375 
L 259.2836 389.208375 
L 257.17825 389.208375 
L 255.0729 389.208375 
L 252.96755 389.208375 
L 250.8622 389.208375 
L 248.75685 389.208375 
L 246.6515 389.208375 
L 244.54615 389.208375 
L 242.4408 389.208375 
L 240.33545 389.208375 
L 238.2301 389.208375 
L 236.12475 389.208375 
L 234.0194 389.208375 
L 231.91405 389.208375 
L 229.8087 389.208375 
L 227.70335 389.208375 
L 225.598 389.208375 
L 223.49265 389.208375 
L 221.3873 389.208375 
L 219.28195 389.208375 
L 217.1766 389.208375 
L 215.07125 389.208375 
L 212.9659 389.208375 
L 210.86055 389.208375 
L 208.7552 389.208375 
L 206.64985 389.208375 
L 204.5445 389.208375 
L 202.43915 389.208375 
L 200.3338 389.208375 
L 198.22845 389.208375 
L 196.1231 389.208375 
L 194.01775 389.208375 
L 191.9124 389.208375 
L 189.80705 389.208375 
L 187.7017 389.208375 
L 185.59635 389.208375 
L 183.491 389.208375 
L 181.38565 389.208375 
L 179.2803 389.208375 
L 177.17495 389.208375 
L 175.0696 389.208375 
L 172.96425 389.208375 
L 170.8589 389.208375 
L 168.75355 389.208375 
L 166.6482 389.208375 
L 164.54285 389.208375 
L 162.4375 389.208375 
L 160.33215 389.208375 
L 158.2268 389.208375 
L 156.12145 389.208375 
L 154.0161 389.208375 
L 151.91075 389.208375 
L 149.8054 389.208375 
L 147.70005 389.208375 
L 145.5947 389.208375 
L 143.48935 389.208375 
L 141.384 389.208375 
L 139.27865 389.208375 
L 137.1733 389.208375 
L 135.06795 389.208375 
L 132.9626 389.208375 
L 130.85725 389.208375 
L 128.7519 389.208375 
L 126.64655 389.208375 
L 124.5412 389.208375 
L 122.43585 389.208375 
L 120.3305 389.208375 
L 118.22515 389.208375 
L 116.1198 389.208375 
L 114.01445 389.208375 
L 111.9091 389.208375 
L 109.80375 389.208375 
L 107.6984 389.208375 
L 105.59305 389.208375 
L 103.4877 389.208375 
L 101.38235 389.208375 
L 99.277 389.208375 
L 97.17165 389.208375 
L 95.0663 389.208375 
L 92.96095 389.208375 
L 90.8556 389.208375 
L 88.75025 389.208375 
L 86.6449 389.208375 
L 84.53955 389.208375 
L 82.4342 389.208375 
L 80.32885 389.208375 
L 78.2235 389.208375 
L 76.11815 389.208375 
L 74.0128 389.208375 
L 71.90745 389.208375 
L 69.8021 389.208375 
L 67.69675 389.208375 
L 65.5914 389.208375 
L 63.48605 389.208375 
L 61.3807 389.208375 
L 59.27535 389.208375 
L 57.17 389.208375 
L 55.06465 389.208375 
L 52.9593 389.208375 
L 50.85395 389.208375 
L 48.7486 389.208375 
L 46.64325 389.208375 
L 44.5379 389.208375 
L 42.43255 389.208375 
L 40.3272 389.208375 
L 38.22185 389.208375 
L 36.1165 389.208375 
L 34.01115 389.208375 
L 31.9058 389.208375 
L 29.80045 389.208375 
L 27.6951 389.208375 
L 25.58975 389.208375 
L 23.4844 389.208375 
L 21.37905 389.208375 
L 19.2737 389.208375 
L 17.16835 389.208375 
L 15.063 389.208375 
z
" clip-path="url(#pc0666c4908)" style="fill: #008000; fill-opacity: 0.4; stroke: #008000; stroke-opacity: 0.4"/>
   </g>
   <g id="matplotlib.axis_3">
    <g id="xtick_7">
     <g id="line2d_14">
      <g>
       <use xlink:href="#me8067f89c8" x="57.17" y="397.287213" style="stroke: #000000; stroke-width: 0.8"/>
      </g>
     </g>
     <g id="text_15">
      <!-- 20 -->
      <g transform="translate(50.8075 411.88565) scale(0.1 -0.1)">
       <use xlink:href="#DejaVuSans-32"/>
       <use xlink:href="#DejaVuSans-30" x="63.623047"/>
      </g>
     </g>
    </g>
    <g id="xtick_8">
     <g id="line2d_15">
      <g>
       <use xlink:href="#me8067f89c8" x="99.277" y="397.287213" style="stroke: #000000; stroke-width: 0.8"/>
      </g>
     </g>
     <g id="text_16">
      <!-- 40 -->
      <g transform="translate(92.9145 411.88565) scale(0.1 -0.1)">
       <use xlink:href="#DejaVuSans-34"/>
       <use xlink:href="#DejaVuSans-30" x="63.623047"/>
      </g>
     </g>
    </g>
    <g id="xtick_9">
     <g id="line2d_16">
      <g>
       <use xlink:href="#me8067f89c8" x="141.384" y="397.287213" style="stroke: #000000; stroke-width: 0.8"/>
      </g>
     </g>
     <g id="text_17">
      <!-- 60 -->
      <g transform="translate(135.0215 411.88565) scale(0.1 -0.1)">
       <use xlink:href="#DejaVuSans-36"/>
       <use xlink:href="#DejaVuSans-30" x="63.623047"/>
      </g>
     </g>
    </g>
    <g id="xtick_10">
     <g id="line2d_17">
      <g>
       <use xlink:href="#me8067f89c8" x="183.491" y="397.287213" style="stroke: #000000; stroke-width: 0.8"/>
      </g>
     </g>
     <g id="text_18">
      <!-- 80 -->
      <g transform="translate(177.1285 411.88565) scale(0.1 -0.1)">
       <use xlink:href="#DejaVuSans-38"/>
       <use xlink:href="#DejaVuSans-30" x="63.623047"/>
      </g>
     </g>
    </g>
    <g id="xtick_11">
     <g id="line2d_18">
      <g>
       <use xlink:href="#me8067f89c8" x="225.598" y="397.287213" style="stroke: #000000; stroke-width: 0.8"/>
      </g>
     </g>
     <g id="text_19">
      <!-- 100 -->
      <g transform="translate(216.05425 411.88565) scale(0.1 -0.1)">
       <use xlink:href="#DejaVuSans-31"/>
       <use xlink:href="#DejaVuSans-30" x="63.623047"/>
       <use xlink:href="#DejaVuSans-30" x="127.246094"/>
      </g>
     </g>
    </g>
    <g id="xtick_12">
     <g id="line2d_19">
      <g>
       <use xlink:href="#me8067f89c8" x="267.705" y="397.287213" style="stroke: #000000; stroke-width: 0.8"/>
      </g>
     </g>
     <g id="text_20">
      <!-- 120 -->
      <g transform="translate(258.16125 411.88565) scale(0.1 -0.1)">
       <use xlink:href="#DejaVuSans-31"/>
       <use xlink:href="#DejaVuSans-32" x="63.623047"/>
       <use xlink:href="#DejaVuSans-30" x="127.246094"/>
      </g>
     </g>
    </g>
   </g>
   <g id="matplotlib.axis_4">
    <g id="ytick_7">
     <g id="line2d_20">
      <g>
       <use xlink:href="#m22cb15c71c" x="57.17" y="389.208375" style="stroke: #000000; stroke-width: 0.8"/>
      </g>
     </g>
     <g id="text_21">
      <!-- 0 -->
      <g transform="translate(43.8075 393.007594) scale(0.1 -0.1)">
       <use xlink:href="#DejaVuSans-30"/>
      </g>
     </g>
    </g>
    <g id="ytick_8">
     <g id="line2d_21">
      <g>
       <use xlink:href="#m22cb15c71c" x="57.17" y="355.476277" style="stroke: #000000; stroke-width: 0.8"/>
      </g>
     </g>
     <g id="text_22">
      <!-- 200 -->
      <g transform="translate(31.0825 359.275496) scale(0.1 -0.1)">
       <use xlink:href="#DejaVuSans-32"/>
       <use xlink:href="#DejaVuSans-30" x="63.623047"/>
       <use xlink:href="#DejaVuSans-30" x="127.246094"/>
      </g>
     </g>
    </g>
    <g id="ytick_9">
     <g id="line2d_22">
      <g>
       <use xlink:href="#m22cb15c71c" x="57.17" y="321.744179" style="stroke: #000000; stroke-width: 0.8"/>
      </g>
     </g>
     <g id="text_23">
      <!-- 400 -->
      <g transform="translate(31.0825 325.543398) scale(0.1 -0.1)">
       <use xlink:href="#DejaVuSans-34"/>
       <use xlink:href="#DejaVuSans-30" x="63.623047"/>
       <use xlink:href="#DejaVuSans-30" x="127.246094"/>
      </g>
     </g>
    </g>
    <g id="ytick_10">
     <g id="line2d_23">
      <g>
       <use xlink:href="#m22cb15c71c" x="57.17" y="288.012081" style="stroke: #000000; stroke-width: 0.8"/>
      </g>
     </g>
     <g id="text_24">
      <!-- 600 -->
      <g transform="translate(31.0825 291.811299) scale(0.1 -0.1)">
       <use xlink:href="#DejaVuSans-36"/>
       <use xlink:href="#DejaVuSans-30" x="63.623047"/>
       <use xlink:href="#DejaVuSans-30" x="127.246094"/>
      </g>
     </g>
    </g>
    <g id="ytick_11">
     <g id="line2d_24">
      <g>
       <use xlink:href="#m22cb15c71c" x="57.17" y="254.279982" style="stroke: #000000; stroke-width: 0.8"/>
      </g>
     </g>
     <g id="text_25">
      <!-- 800 -->
      <g transform="translate(31.0825 258.079201) scale(0.1 -0.1)">
       <use xlink:href="#DejaVuSans-38"/>
       <use xlink:href="#DejaVuSans-30" x="63.623047"/>
       <use xlink:href="#DejaVuSans-30" x="127.246094"/>
      </g>
     </g>
    </g>
    <g id="ytick_12">
     <g id="line2d_25">
      <g>
       <use xlink:href="#m22cb15c71c" x="57.17" y="220.547884" style="stroke: #000000; stroke-width: 0.8"/>
      </g>
     </g>
     <g id="text_26">
      <!-- 1000 -->
      <g transform="translate(24.72 224.347103) scale(0.1 -0.1)">
       <use xlink:href="#DejaVuSans-31"/>
       <use xlink:href="#DejaVuSans-30" x="63.623047"/>
       <use xlink:href="#DejaVuSans-30" x="127.246094"/>
       <use xlink:href="#DejaVuSans-30" x="190.869141"/>
      </g>
     </g>
    </g>
    <g id="text_27">
     <!-- Pixel Frequency -->
     <g transform="translate(18.640313 347.398906) rotate(-90) scale(0.1 -0.1)">
      <use xlink:href="#DejaVuSans-50"/>
      <use xlink:href="#DejaVuSans-69" x="58.052734"/>
      <use xlink:href="#DejaVuSans-78" x="85.835938"/>
      <use xlink:href="#DejaVuSans-65" x="141.890625"/>
      <use xlink:href="#DejaVuSans-6c" x="203.414062"/>
      <use xlink:href="#DejaVuSans-20" x="231.197266"/>
      <use xlink:href="#DejaVuSans-46" x="262.984375"/>
      <use xlink:href="#DejaVuSans-72" x="313.253906"/>
      <use xlink:href="#DejaVuSans-65" x="352.117188"/>
      <use xlink:href="#DejaVuSans-71" x="413.640625"/>
      <use xlink:href="#DejaVuSans-75" x="477.117188"/>
      <use xlink:href="#DejaVuSans-65" x="540.496094"/>
      <use xlink:href="#DejaVuSans-6e" x="602.019531"/>
      <use xlink:href="#DejaVuSans-63" x="665.398438"/>
      <use xlink:href="#DejaVuSans-79" x="720.378906"/>
     </g>
    </g>
   </g>
   <g id="line2d_26">
    <path d="M 15.063 389.208375 
L 95.0663 389.208375 
L 97.17165 388.027752 
L 99.277 387.690431 
L 101.38235 386.509807 
L 103.4877 384.317221 
L 105.59305 380.60669 
L 107.6984 374.534912 
L 109.80375 373.354289 
L 111.9091 370.824382 
L 114.01445 366.101888 
L 116.1198 366.101888 
L 118.22515 365.089925 
L 120.3305 362.560018 
L 122.43585 357.668863 
L 124.5412 349.910481 
L 126.64655 342.82674 
L 128.7519 337.429604 
L 130.85725 324.780068 
L 132.9626 324.105426 
L 135.06795 322.587481 
L 137.1733 317.359006 
L 139.27865 320.394895 
L 141.384 319.720253 
L 143.48935 326.466673 
L 145.5947 318.87695 
L 147.70005 322.0815 
L 149.8054 309.431963 
L 151.91075 299.986975 
L 156.12145 267.26684 
L 158.2268 281.940303 
L 160.33215 282.952266 
L 162.4375 278.567093 
L 164.54285 255.966587 
L 166.6482 253.099359 
L 168.75355 246.184279 
L 170.8589 243.485711 
L 172.96425 240.281162 
L 175.0696 236.40197 
L 177.17495 234.040723 
L 179.2803 227.631625 
L 181.38565 232.69144 
L 183.491 239.269199 
L 185.59635 237.245273 
L 187.7017 240.787143 
L 189.80705 248.714186 
L 191.9124 244.497674 
L 194.01775 241.630446 
L 196.1231 255.291945 
L 198.22845 251.918735 
L 200.3338 254.785964 
L 202.43915 259.508458 
L 204.5445 253.60534 
L 206.64985 279.241735 
L 208.7552 268.110143 
L 212.9659 277.049149 
L 215.07125 279.410396 
L 217.1766 273.001297 
L 219.28195 285.482173 
L 221.3873 287.337439 
L 223.49265 283.964229 
L 225.598 291.38529 
L 227.70335 285.313513 
L 229.8087 285.313513 
L 231.91405 289.024044 
L 234.0194 292.059932 
L 236.12475 292.903235 
L 238.2301 295.264482 
L 240.33545 289.530025 
L 242.4408 297.288408 
L 244.54615 303.866167 
L 246.6515 307.070716 
L 248.75685 311.96187 
L 250.8622 310.106605 
L 252.96755 320.394895 
L 255.0729 319.720253 
L 257.17825 324.105426 
L 259.2836 328.827919 
L 261.38895 330.345864 
L 263.4943 328.490598 
L 265.59965 335.91166 
L 267.705 340.634154 
L 269.81035 334.225055 
L 271.9157 342.82674 
L 274.02105 341.983438 
L 276.1264 349.910481 
L 278.23175 351.259765 
L 280.3371 356.6569 
L 282.44245 350.247802 
L 286.65315 354.295654 
L 288.7585 362.054036 
L 289 361.802529 
L 289 361.802529 
" clip-path="url(#pc0666c4908)" style="fill: none; stroke: #008000; stroke-width: 1.5; stroke-linecap: square"/>
   </g>
   <g id="patch_8">
    <path d="M 57.17 397.287213 
L 57.17 219.552787 
" style="fill: none; stroke: #000000; stroke-width: 0.8; stroke-linejoin: miter; stroke-linecap: square"/>
   </g>
   <g id="patch_9">
    <path d="M 267.705 397.287213 
L 267.705 219.552787 
" style="fill: none; stroke: #000000; stroke-width: 0.8; stroke-linejoin: miter; stroke-linecap: square"/>
   </g>
   <g id="patch_10">
    <path d="M 57.17 397.287213 
L 267.705 397.287213 
" style="fill: none; stroke: #000000; stroke-width: 0.8; stroke-linejoin: miter; stroke-linecap: square"/>
   </g>
   <g id="patch_11">
    <path d="M 57.17 219.552787 
L 267.705 219.552787 
" style="fill: none; stroke: #000000; stroke-width: 0.8; stroke-linejoin: miter; stroke-linecap: square"/>
   </g>
   <g id="text_28">
    <!-- Green Channel  -->
    <g transform="translate(174.478125 233.552787) scale(0.12 -0.12)">
     <defs>
      <path id="DejaVuSans-47" d="M 3809 666 
L 3809 1919 
L 2778 1919 
L 2778 2438 
L 4434 2438 
L 4434 434 
Q 4069 175 3628 42 
Q 3188 -91 2688 -91 
Q 1594 -91 976 548 
Q 359 1188 359 2328 
Q 359 3472 976 4111 
Q 1594 4750 2688 4750 
Q 3144 4750 3555 4637 
Q 3966 4525 4313 4306 
L 4313 3634 
Q 3963 3931 3569 4081 
Q 3175 4231 2741 4231 
Q 1884 4231 1454 3753 
Q 1025 3275 1025 2328 
Q 1025 1384 1454 906 
Q 1884 428 2741 428 
Q 3075 428 3337 486 
Q 3600 544 3809 666 
z
" transform="scale(0.015625)"/>
     </defs>
     <use xlink:href="#DejaVuSans-47"/>
     <use xlink:href="#DejaVuSans-72" x="77.490234"/>
     <use xlink:href="#DejaVuSans-65" x="116.353516"/>
     <use xlink:href="#DejaVuSans-65" x="177.876953"/>
     <use xlink:href="#DejaVuSans-6e" x="239.400391"/>
     <use xlink:href="#DejaVuSans-20" x="302.779297"/>
     <use xlink:href="#DejaVuSans-43" x="334.566406"/>
     <use xlink:href="#DejaVuSans-68" x="404.390625"/>
     <use xlink:href="#DejaVuSans-61" x="467.769531"/>
     <use xlink:href="#DejaVuSans-6e" x="529.048828"/>
     <use xlink:href="#DejaVuSans-6e" x="592.427734"/>
     <use xlink:href="#DejaVuSans-65" x="655.806641"/>
     <use xlink:href="#DejaVuSans-6c" x="717.330078"/>
     <use xlink:href="#DejaVuSans-20" x="745.113281"/>
    </g>
   </g>
  </g>
  <g id="axes_3">
   <g id="patch_12">
    <path d="M 57.17 606.04 
L 267.705 606.04 
L 267.705 428.305575 
L 57.17 428.305575 
z
" style="fill: #ffffff"/>
   </g>
   <g id="PolyCollection_3">
    <path d="M 15.063 597.961162 
L 15.063 597.961162 
L 17.16835 597.961162 
L 19.2737 597.961162 
L 21.37905 597.961162 
L 23.4844 597.961162 
L 25.58975 597.961162 
L 27.6951 597.961162 
L 29.80045 597.961162 
L 31.9058 597.961162 
L 34.01115 597.961162 
L 36.1165 597.961162 
L 38.22185 597.961162 
L 40.3272 597.961162 
L 42.43255 597.961162 
L 44.5379 597.961162 
L 46.64325 597.961162 
L 48.7486 597.961162 
L 50.85395 597.961162 
L 52.9593 597.961162 
L 55.06465 597.961162 
L 57.17 597.961162 
L 59.27535 597.961162 
L 61.3807 597.365671 
L 63.48605 597.067925 
L 65.5914 594.785207 
L 67.69675 589.624279 
L 69.8021 584.959593 
L 71.90745 579.600168 
L 74.0128 572.752013 
L 76.11815 564.812124 
L 78.2235 552.90229 
L 80.32885 539.702224 
L 82.4342 540.893207 
L 84.53955 531.960831 
L 86.6449 530.174356 
L 88.75025 525.013428 
L 90.8556 522.532213 
L 92.96095 514.691572 
L 95.0663 500.002776 
L 97.17165 494.246356 
L 99.277 487.695948 
L 101.38235 483.825252 
L 103.4877 473.404147 
L 105.59305 461.792058 
L 107.6984 447.9965 
L 109.80375 438.369384 
L 111.9091 437.575395 
L 114.01445 436.384412 
L 116.1198 444.324302 
L 118.22515 450.775462 
L 120.3305 449.981473 
L 122.43585 456.134887 
L 124.5412 467.250732 
L 126.64655 473.999638 
L 128.7519 478.267329 
L 130.85725 482.634268 
L 132.9626 492.162135 
L 135.06795 497.720058 
L 137.1733 502.980235 
L 139.27865 499.208787 
L 141.384 501.293008 
L 143.48935 499.804279 
L 145.5947 504.568213 
L 147.70005 508.538157 
L 149.8054 513.202843 
L 151.91075 519.356257 
L 154.0161 530.670599 
L 156.12145 532.457074 
L 158.2268 540.297715 
L 160.33215 542.878179 
L 162.4375 546.153384 
L 164.54285 549.130842 
L 166.6482 553.497782 
L 168.75355 558.063218 
L 170.8589 561.735417 
L 172.96425 565.903859 
L 175.0696 565.506864 
L 177.17495 567.888831 
L 179.2803 570.767041 
L 181.38565 568.980566 
L 183.491 574.339991 
L 185.59635 573.942997 
L 187.7017 572.652765 
L 189.80705 573.049759 
L 191.9124 577.118953 
L 194.01775 579.302422 
L 196.1231 579.203174 
L 198.22845 580.989649 
L 200.3338 581.882886 
L 202.43915 583.371616 
L 204.5445 585.158091 
L 206.64985 585.455837 
L 208.7552 585.852831 
L 210.86055 588.135549 
L 212.9659 586.64682 
L 215.07125 587.937052 
L 217.1766 588.532544 
L 219.28195 589.723527 
L 221.3873 592.006245 
L 223.49265 591.609251 
L 225.598 592.601737 
L 227.70335 590.517516 
L 229.8087 593.693472 
L 231.91405 592.998732 
L 234.0194 594.884455 
L 236.12475 594.685958 
L 238.2301 595.182201 
L 240.33545 594.983704 
L 242.4408 595.380698 
L 244.54615 595.678444 
L 246.6515 595.182201 
L 248.75685 595.678444 
L 250.8622 596.571682 
L 252.96755 596.273936 
L 255.0729 595.876941 
L 257.17825 596.67093 
L 259.2836 596.373185 
L 261.38895 596.472433 
L 263.4943 596.968676 
L 265.59965 596.869428 
L 267.705 597.266422 
L 269.81035 596.869428 
L 271.9157 597.365671 
L 274.02105 596.869428 
L 276.1264 597.067925 
L 278.23175 597.266422 
L 280.3371 597.266422 
L 282.44245 596.869428 
L 284.5478 597.067925 
L 286.65315 597.564168 
L 288.7585 597.167174 
L 290.86385 597.266422 
L 292.9692 597.067925 
L 295.07455 596.770179 
L 297.1799 596.869428 
L 299.28525 596.968676 
L 301.3906 597.167174 
L 303.49595 597.167174 
L 305.6013 597.564168 
L 307.70665 597.564168 
L 309.812 597.266422 
L 311.91735 597.762665 
L 314.0227 597.266422 
L 316.12805 597.564168 
L 318.2334 597.464919 
L 320.33875 597.663417 
L 322.4441 597.663417 
L 324.54945 597.266422 
L 326.6548 596.968676 
L 328.76015 597.365671 
L 330.8655 597.464919 
L 332.97085 596.968676 
L 335.0762 597.266422 
L 337.18155 597.762665 
L 339.2869 597.266422 
L 341.39225 597.663417 
L 343.4976 597.167174 
L 345.60295 597.167174 
L 347.7083 597.464919 
L 349.81365 597.365671 
L 351.919 597.464919 
L 354.02435 597.067925 
L 356.1297 596.869428 
L 358.23505 597.067925 
L 360.3404 597.167174 
L 362.44575 597.464919 
L 364.5511 596.67093 
L 366.65645 597.762665 
L 368.7618 597.564168 
L 370.86715 597.663417 
L 372.9725 597.564168 
L 375.07785 597.762665 
L 377.1832 597.762665 
L 379.28855 597.762665 
L 381.3939 597.861914 
L 383.49925 597.961162 
L 385.6046 597.961162 
L 387.70995 597.961162 
L 389.8153 597.961162 
L 391.92065 597.861914 
L 394.026 597.861914 
L 396.13135 597.961162 
L 398.2367 597.861914 
L 400.34205 597.961162 
L 402.4474 597.961162 
L 404.55275 597.961162 
L 406.6581 597.961162 
L 408.76345 597.861914 
L 410.8688 597.961162 
L 412.97415 597.861914 
L 415.0795 597.961162 
L 417.18485 597.861914 
L 419.2902 597.961162 
L 421.39555 597.961162 
L 423.5009 597.961162 
L 425.60625 597.961162 
L 427.7116 597.961162 
L 429.81695 597.861914 
L 431.9223 597.961162 
L 434.02765 597.961162 
L 436.133 597.961162 
L 438.23835 597.961162 
L 440.3437 597.961162 
L 442.44905 597.961162 
L 444.5544 597.961162 
L 446.65975 597.861914 
L 448.7651 597.961162 
L 450.87045 597.861914 
L 452.9758 597.961162 
L 455.08115 597.961162 
L 457.1865 597.961162 
L 459.29185 597.961162 
L 461.3972 597.961162 
L 463.50255 597.961162 
L 465.6079 597.961162 
L 467.71325 597.961162 
L 469.8186 597.961162 
L 471.92395 597.961162 
L 474.0293 597.961162 
L 476.13465 597.961162 
L 478.24 597.961162 
L 480.34535 597.961162 
L 482.4507 597.961162 
L 484.55605 597.961162 
L 486.6614 597.961162 
L 488.76675 597.961162 
L 490.8721 597.961162 
L 492.97745 597.961162 
L 495.0828 597.961162 
L 497.18815 597.961162 
L 499.2935 597.961162 
L 501.39885 597.961162 
L 503.5042 597.961162 
L 505.60955 597.961162 
L 507.7149 597.961162 
L 509.82025 597.961162 
L 511.9256 597.961162 
L 514.03095 597.961162 
L 516.1363 597.961162 
L 518.24165 597.961162 
L 520.347 597.961162 
L 522.45235 597.961162 
L 524.5577 597.961162 
L 526.66305 597.961162 
L 528.7684 597.961162 
L 530.87375 597.961162 
L 532.9791 597.961162 
L 535.08445 597.961162 
L 537.1898 597.961162 
L 539.29515 597.961162 
L 541.4005 597.961162 
L 543.50585 597.961162 
L 545.6112 597.961162 
L 547.71655 597.961162 
L 549.8219 597.961162 
L 551.92725 597.961162 
L 551.92725 597.961162 
L 551.92725 597.961162 
L 549.8219 597.961162 
L 547.71655 597.961162 
L 545.6112 597.961162 
L 543.50585 597.961162 
L 541.4005 597.961162 
L 539.29515 597.961162 
L 537.1898 597.961162 
L 535.08445 597.961162 
L 532.9791 597.961162 
L 530.87375 597.961162 
L 528.7684 597.961162 
L 526.66305 597.961162 
L 524.5577 597.961162 
L 522.45235 597.961162 
L 520.347 597.961162 
L 518.24165 597.961162 
L 516.1363 597.961162 
L 514.03095 597.961162 
L 511.9256 597.961162 
L 509.82025 597.961162 
L 507.7149 597.961162 
L 505.60955 597.961162 
L 503.5042 597.961162 
L 501.39885 597.961162 
L 499.2935 597.961162 
L 497.18815 597.961162 
L 495.0828 597.961162 
L 492.97745 597.961162 
L 490.8721 597.961162 
L 488.76675 597.961162 
L 486.6614 597.961162 
L 484.55605 597.961162 
L 482.4507 597.961162 
L 480.34535 597.961162 
L 478.24 597.961162 
L 476.13465 597.961162 
L 474.0293 597.961162 
L 471.92395 597.961162 
L 469.8186 597.961162 
L 467.71325 597.961162 
L 465.6079 597.961162 
L 463.50255 597.961162 
L 461.3972 597.961162 
L 459.29185 597.961162 
L 457.1865 597.961162 
L 455.08115 597.961162 
L 452.9758 597.961162 
L 450.87045 597.961162 
L 448.7651 597.961162 
L 446.65975 597.961162 
L 444.5544 597.961162 
L 442.44905 597.961162 
L 440.3437 597.961162 
L 438.23835 597.961162 
L 436.133 597.961162 
L 434.02765 597.961162 
L 431.9223 597.961162 
L 429.81695 597.961162 
L 427.7116 597.961162 
L 425.60625 597.961162 
L 423.5009 597.961162 
L 421.39555 597.961162 
L 419.2902 597.961162 
L 417.18485 597.961162 
L 415.0795 597.961162 
L 412.97415 597.961162 
L 410.8688 597.961162 
L 408.76345 597.961162 
L 406.6581 597.961162 
L 404.55275 597.961162 
L 402.4474 597.961162 
L 400.34205 597.961162 
L 398.2367 597.961162 
L 396.13135 597.961162 
L 394.026 597.961162 
L 391.92065 597.961162 
L 389.8153 597.961162 
L 387.70995 597.961162 
L 385.6046 597.961162 
L 383.49925 597.961162 
L 381.3939 597.961162 
L 379.28855 597.961162 
L 377.1832 597.961162 
L 375.07785 597.961162 
L 372.9725 597.961162 
L 370.86715 597.961162 
L 368.7618 597.961162 
L 366.65645 597.961162 
L 364.5511 597.961162 
L 362.44575 597.961162 
L 360.3404 597.961162 
L 358.23505 597.961162 
L 356.1297 597.961162 
L 354.02435 597.961162 
L 351.919 597.961162 
L 349.81365 597.961162 
L 347.7083 597.961162 
L 345.60295 597.961162 
L 343.4976 597.961162 
L 341.39225 597.961162 
L 339.2869 597.961162 
L 337.18155 597.961162 
L 335.0762 597.961162 
L 332.97085 597.961162 
L 330.8655 597.961162 
L 328.76015 597.961162 
L 326.6548 597.961162 
L 324.54945 597.961162 
L 322.4441 597.961162 
L 320.33875 597.961162 
L 318.2334 597.961162 
L 316.12805 597.961162 
L 314.0227 597.961162 
L 311.91735 597.961162 
L 309.812 597.961162 
L 307.70665 597.961162 
L 305.6013 597.961162 
L 303.49595 597.961162 
L 301.3906 597.961162 
L 299.28525 597.961162 
L 297.1799 597.961162 
L 295.07455 597.961162 
L 292.9692 597.961162 
L 290.86385 597.961162 
L 288.7585 597.961162 
L 286.65315 597.961162 
L 284.5478 597.961162 
L 282.44245 597.961162 
L 280.3371 597.961162 
L 278.23175 597.961162 
L 276.1264 597.961162 
L 274.02105 597.961162 
L 271.9157 597.961162 
L 269.81035 597.961162 
L 267.705 597.961162 
L 265.59965 597.961162 
L 263.4943 597.961162 
L 261.38895 597.961162 
L 259.2836 597.961162 
L 257.17825 597.961162 
L 255.0729 597.961162 
L 252.96755 597.961162 
L 250.8622 597.961162 
L 248.75685 597.961162 
L 246.6515 597.961162 
L 244.54615 597.961162 
L 242.4408 597.961162 
L 240.33545 597.961162 
L 238.2301 597.961162 
L 236.12475 597.961162 
L 234.0194 597.961162 
L 231.91405 597.961162 
L 229.8087 597.961162 
L 227.70335 597.961162 
L 225.598 597.961162 
L 223.49265 597.961162 
L 221.3873 597.961162 
L 219.28195 597.961162 
L 217.1766 597.961162 
L 215.07125 597.961162 
L 212.9659 597.961162 
L 210.86055 597.961162 
L 208.7552 597.961162 
L 206.64985 597.961162 
L 204.5445 597.961162 
L 202.43915 597.961162 
L 200.3338 597.961162 
L 198.22845 597.961162 
L 196.1231 597.961162 
L 194.01775 597.961162 
L 191.9124 597.961162 
L 189.80705 597.961162 
L 187.7017 597.961162 
L 185.59635 597.961162 
L 183.491 597.961162 
L 181.38565 597.961162 
L 179.2803 597.961162 
L 177.17495 597.961162 
L 175.0696 597.961162 
L 172.96425 597.961162 
L 170.8589 597.961162 
L 168.75355 597.961162 
L 166.6482 597.961162 
L 164.54285 597.961162 
L 162.4375 597.961162 
L 160.33215 597.961162 
L 158.2268 597.961162 
L 156.12145 597.961162 
L 154.0161 597.961162 
L 151.91075 597.961162 
L 149.8054 597.961162 
L 147.70005 597.961162 
L 145.5947 597.961162 
L 143.48935 597.961162 
L 141.384 597.961162 
L 139.27865 597.961162 
L 137.1733 597.961162 
L 135.06795 597.961162 
L 132.9626 597.961162 
L 130.85725 597.961162 
L 128.7519 597.961162 
L 126.64655 597.961162 
L 124.5412 597.961162 
L 122.43585 597.961162 
L 120.3305 597.961162 
L 118.22515 597.961162 
L 116.1198 597.961162 
L 114.01445 597.961162 
L 111.9091 597.961162 
L 109.80375 597.961162 
L 107.6984 597.961162 
L 105.59305 597.961162 
L 103.4877 597.961162 
L 101.38235 597.961162 
L 99.277 597.961162 
L 97.17165 597.961162 
L 95.0663 597.961162 
L 92.96095 597.961162 
L 90.8556 597.961162 
L 88.75025 597.961162 
L 86.6449 597.961162 
L 84.53955 597.961162 
L 82.4342 597.961162 
L 80.32885 597.961162 
L 78.2235 597.961162 
L 76.11815 597.961162 
L 74.0128 597.961162 
L 71.90745 597.961162 
L 69.8021 597.961162 
L 67.69675 597.961162 
L 65.5914 597.961162 
L 63.48605 597.961162 
L 61.3807 597.961162 
L 59.27535 597.961162 
L 57.17 597.961162 
L 55.06465 597.961162 
L 52.9593 597.961162 
L 50.85395 597.961162 
L 48.7486 597.961162 
L 46.64325 597.961162 
L 44.5379 597.961162 
L 42.43255 597.961162 
L 40.3272 597.961162 
L 38.22185 597.961162 
L 36.1165 597.961162 
L 34.01115 597.961162 
L 31.9058 597.961162 
L 29.80045 597.961162 
L 27.6951 597.961162 
L 25.58975 597.961162 
L 23.4844 597.961162 
L 21.37905 597.961162 
L 19.2737 597.961162 
L 17.16835 597.961162 
L 15.063 597.961162 
z
" clip-path="url(#p5efd5c5258)" style="fill: #0000ff; fill-opacity: 0.4; stroke: #0000ff; stroke-opacity: 0.4"/>
   </g>
   <g id="matplotlib.axis_5">
    <g id="xtick_13">
     <g id="line2d_27">
      <g>
       <use xlink:href="#me8067f89c8" x="57.17" y="606.04" style="stroke: #000000; stroke-width: 0.8"/>
      </g>
     </g>
     <g id="text_29">
      <!-- 20 -->
      <g transform="translate(50.8075 620.638438) scale(0.1 -0.1)">
       <use xlink:href="#DejaVuSans-32"/>
       <use xlink:href="#DejaVuSans-30" x="63.623047"/>
      </g>
     </g>
    </g>
    <g id="xtick_14">
     <g id="line2d_28">
      <g>
       <use xlink:href="#me8067f89c8" x="99.277" y="606.04" style="stroke: #000000; stroke-width: 0.8"/>
      </g>
     </g>
     <g id="text_30">
      <!-- 40 -->
      <g transform="translate(92.9145 620.638438) scale(0.1 -0.1)">
       <use xlink:href="#DejaVuSans-34"/>
       <use xlink:href="#DejaVuSans-30" x="63.623047"/>
      </g>
     </g>
    </g>
    <g id="xtick_15">
     <g id="line2d_29">
      <g>
       <use xlink:href="#me8067f89c8" x="141.384" y="606.04" style="stroke: #000000; stroke-width: 0.8"/>
      </g>
     </g>
     <g id="text_31">
      <!-- 60 -->
      <g transform="translate(135.0215 620.638438) scale(0.1 -0.1)">
       <use xlink:href="#DejaVuSans-36"/>
       <use xlink:href="#DejaVuSans-30" x="63.623047"/>
      </g>
     </g>
    </g>
    <g id="xtick_16">
     <g id="line2d_30">
      <g>
       <use xlink:href="#me8067f89c8" x="183.491" y="606.04" style="stroke: #000000; stroke-width: 0.8"/>
      </g>
     </g>
     <g id="text_32">
      <!-- 80 -->
      <g transform="translate(177.1285 620.638438) scale(0.1 -0.1)">
       <use xlink:href="#DejaVuSans-38"/>
       <use xlink:href="#DejaVuSans-30" x="63.623047"/>
      </g>
     </g>
    </g>
    <g id="xtick_17">
     <g id="line2d_31">
      <g>
       <use xlink:href="#me8067f89c8" x="225.598" y="606.04" style="stroke: #000000; stroke-width: 0.8"/>
      </g>
     </g>
     <g id="text_33">
      <!-- 100 -->
      <g transform="translate(216.05425 620.638438) scale(0.1 -0.1)">
       <use xlink:href="#DejaVuSans-31"/>
       <use xlink:href="#DejaVuSans-30" x="63.623047"/>
       <use xlink:href="#DejaVuSans-30" x="127.246094"/>
      </g>
     </g>
    </g>
    <g id="xtick_18">
     <g id="line2d_32">
      <g>
       <use xlink:href="#me8067f89c8" x="267.705" y="606.04" style="stroke: #000000; stroke-width: 0.8"/>
      </g>
     </g>
     <g id="text_34">
      <!-- 120 -->
      <g transform="translate(258.16125 620.638438) scale(0.1 -0.1)">
       <use xlink:href="#DejaVuSans-31"/>
       <use xlink:href="#DejaVuSans-32" x="63.623047"/>
       <use xlink:href="#DejaVuSans-30" x="127.246094"/>
      </g>
     </g>
    </g>
    <g id="text_35">
     <!-- Pixel Intensity -->
     <g transform="translate(127.525781 634.316563) scale(0.1 -0.1)">
      <defs>
       <path id="DejaVuSans-49" d="M 628 4666 
L 1259 4666 
L 1259 0 
L 628 0 
L 628 4666 
z
" transform="scale(0.015625)"/>
       <path id="DejaVuSans-74" d="M 1172 4494 
L 1172 3500 
L 2356 3500 
L 2356 3053 
L 1172 3053 
L 1172 1153 
Q 1172 725 1289 603 
Q 1406 481 1766 481 
L 2356 481 
L 2356 0 
L 1766 0 
Q 1100 0 847 248 
Q 594 497 594 1153 
L 594 3053 
L 172 3053 
L 172 3500 
L 594 3500 
L 594 4494 
L 1172 4494 
z
" transform="scale(0.015625)"/>
       <path id="DejaVuSans-73" d="M 2834 3397 
L 2834 2853 
Q 2591 2978 2328 3040 
Q 2066 3103 1784 3103 
Q 1356 3103 1142 2972 
Q 928 2841 928 2578 
Q 928 2378 1081 2264 
Q 1234 2150 1697 2047 
L 1894 2003 
Q 2506 1872 2764 1633 
Q 3022 1394 3022 966 
Q 3022 478 2636 193 
Q 2250 -91 1575 -91 
Q 1294 -91 989 -36 
Q 684 19 347 128 
L 347 722 
Q 666 556 975 473 
Q 1284 391 1588 391 
Q 1994 391 2212 530 
Q 2431 669 2431 922 
Q 2431 1156 2273 1281 
Q 2116 1406 1581 1522 
L 1381 1569 
Q 847 1681 609 1914 
Q 372 2147 372 2553 
Q 372 3047 722 3315 
Q 1072 3584 1716 3584 
Q 2034 3584 2315 3537 
Q 2597 3491 2834 3397 
z
" transform="scale(0.015625)"/>
      </defs>
      <use xlink:href="#DejaVuSans-50"/>
      <use xlink:href="#DejaVuSans-69" x="58.052734"/>
      <use xlink:href="#DejaVuSans-78" x="85.835938"/>
      <use xlink:href="#DejaVuSans-65" x="141.890625"/>
      <use xlink:href="#DejaVuSans-6c" x="203.414062"/>
      <use xlink:href="#DejaVuSans-20" x="231.197266"/>
      <use xlink:href="#DejaVuSans-49" x="262.984375"/>
      <use xlink:href="#DejaVuSans-6e" x="292.476562"/>
      <use xlink:href="#DejaVuSans-74" x="355.855469"/>
      <use xlink:href="#DejaVuSans-65" x="395.064453"/>
      <use xlink:href="#DejaVuSans-6e" x="456.587891"/>
      <use xlink:href="#DejaVuSans-73" x="519.966797"/>
      <use xlink:href="#DejaVuSans-69" x="572.066406"/>
      <use xlink:href="#DejaVuSans-74" x="599.849609"/>
      <use xlink:href="#DejaVuSans-79" x="639.058594"/>
     </g>
    </g>
   </g>
   <g id="matplotlib.axis_6">
    <g id="ytick_13">
     <g id="line2d_33">
      <g>
       <use xlink:href="#m22cb15c71c" x="57.17" y="597.961162" style="stroke: #000000; stroke-width: 0.8"/>
      </g>
     </g>
     <g id="text_36">
      <!-- 0 -->
      <g transform="translate(43.8075 601.760381) scale(0.1 -0.1)">
       <use xlink:href="#DejaVuSans-30"/>
      </g>
     </g>
    </g>
    <g id="ytick_14">
     <g id="line2d_34">
      <g>
       <use xlink:href="#m22cb15c71c" x="57.17" y="573.149008" style="stroke: #000000; stroke-width: 0.8"/>
      </g>
     </g>
     <g id="text_37">
      <!-- 250 -->
      <g transform="translate(31.0825 576.948227) scale(0.1 -0.1)">
       <defs>
        <path id="DejaVuSans-35" d="M 691 4666 
L 3169 4666 
L 3169 4134 
L 1269 4134 
L 1269 2991 
Q 1406 3038 1543 3061 
Q 1681 3084 1819 3084 
Q 2600 3084 3056 2656 
Q 3513 2228 3513 1497 
Q 3513 744 3044 326 
Q 2575 -91 1722 -91 
Q 1428 -91 1123 -41 
Q 819 9 494 109 
L 494 744 
Q 775 591 1075 516 
Q 1375 441 1709 441 
Q 2250 441 2565 725 
Q 2881 1009 2881 1497 
Q 2881 1984 2565 2268 
Q 2250 2553 1709 2553 
Q 1456 2553 1204 2497 
Q 953 2441 691 2322 
L 691 4666 
z
" transform="scale(0.015625)"/>
       </defs>
       <use xlink:href="#DejaVuSans-32"/>
       <use xlink:href="#DejaVuSans-35" x="63.623047"/>
       <use xlink:href="#DejaVuSans-30" x="127.246094"/>
      </g>
     </g>
    </g>
    <g id="ytick_15">
     <g id="line2d_35">
      <g>
       <use xlink:href="#m22cb15c71c" x="57.17" y="548.336853" style="stroke: #000000; stroke-width: 0.8"/>
      </g>
     </g>
     <g id="text_38">
      <!-- 500 -->
      <g transform="translate(31.0825 552.136072) scale(0.1 -0.1)">
       <use xlink:href="#DejaVuSans-35"/>
       <use xlink:href="#DejaVuSans-30" x="63.623047"/>
       <use xlink:href="#DejaVuSans-30" x="127.246094"/>
      </g>
     </g>
    </g>
    <g id="ytick_16">
     <g id="line2d_36">
      <g>
       <use xlink:href="#m22cb15c71c" x="57.17" y="523.524699" style="stroke: #000000; stroke-width: 0.8"/>
      </g>
     </g>
     <g id="text_39">
      <!-- 750 -->
      <g transform="translate(31.0825 527.323918) scale(0.1 -0.1)">
       <defs>
        <path id="DejaVuSans-37" d="M 525 4666 
L 3525 4666 
L 3525 4397 
L 1831 0 
L 1172 0 
L 2766 4134 
L 525 4134 
L 525 4666 
z
" transform="scale(0.015625)"/>
       </defs>
       <use xlink:href="#DejaVuSans-37"/>
       <use xlink:href="#DejaVuSans-35" x="63.623047"/>
       <use xlink:href="#DejaVuSans-30" x="127.246094"/>
      </g>
     </g>
    </g>
    <g id="ytick_17">
     <g id="line2d_37">
      <g>
       <use xlink:href="#m22cb15c71c" x="57.17" y="498.712544" style="stroke: #000000; stroke-width: 0.8"/>
      </g>
     </g>
     <g id="text_40">
      <!-- 1000 -->
      <g transform="translate(24.72 502.511763) scale(0.1 -0.1)">
       <use xlink:href="#DejaVuSans-31"/>
       <use xlink:href="#DejaVuSans-30" x="63.623047"/>
       <use xlink:href="#DejaVuSans-30" x="127.246094"/>
       <use xlink:href="#DejaVuSans-30" x="190.869141"/>
      </g>
     </g>
    </g>
    <g id="ytick_18">
     <g id="line2d_38">
      <g>
       <use xlink:href="#m22cb15c71c" x="57.17" y="473.90039" style="stroke: #000000; stroke-width: 0.8"/>
      </g>
     </g>
     <g id="text_41">
      <!-- 1250 -->
      <g transform="translate(24.72 477.699608) scale(0.1 -0.1)">
       <use xlink:href="#DejaVuSans-31"/>
       <use xlink:href="#DejaVuSans-32" x="63.623047"/>
       <use xlink:href="#DejaVuSans-35" x="127.246094"/>
       <use xlink:href="#DejaVuSans-30" x="190.869141"/>
      </g>
     </g>
    </g>
    <g id="ytick_19">
     <g id="line2d_39">
      <g>
       <use xlink:href="#m22cb15c71c" x="57.17" y="449.088235" style="stroke: #000000; stroke-width: 0.8"/>
      </g>
     </g>
     <g id="text_42">
      <!-- 1500 -->
      <g transform="translate(24.72 452.887454) scale(0.1 -0.1)">
       <use xlink:href="#DejaVuSans-31"/>
       <use xlink:href="#DejaVuSans-35" x="63.623047"/>
       <use xlink:href="#DejaVuSans-30" x="127.246094"/>
       <use xlink:href="#DejaVuSans-30" x="190.869141"/>
      </g>
     </g>
    </g>
    <g id="text_43">
     <!-- Pixel Frequency -->
     <g transform="translate(18.640313 556.151694) rotate(-90) scale(0.1 -0.1)">
      <use xlink:href="#DejaVuSans-50"/>
      <use xlink:href="#DejaVuSans-69" x="58.052734"/>
      <use xlink:href="#DejaVuSans-78" x="85.835938"/>
      <use xlink:href="#DejaVuSans-65" x="141.890625"/>
      <use xlink:href="#DejaVuSans-6c" x="203.414062"/>
      <use xlink:href="#DejaVuSans-20" x="231.197266"/>
      <use xlink:href="#DejaVuSans-46" x="262.984375"/>
      <use xlink:href="#DejaVuSans-72" x="313.253906"/>
      <use xlink:href="#DejaVuSans-65" x="352.117188"/>
      <use xlink:href="#DejaVuSans-71" x="413.640625"/>
      <use xlink:href="#DejaVuSans-75" x="477.117188"/>
      <use xlink:href="#DejaVuSans-65" x="540.496094"/>
      <use xlink:href="#DejaVuSans-6e" x="602.019531"/>
      <use xlink:href="#DejaVuSans-63" x="665.398438"/>
      <use xlink:href="#DejaVuSans-79" x="720.378906"/>
     </g>
    </g>
   </g>
   <g id="line2d_40">
    <path d="M 15.063 597.961162 
L 59.27535 597.961162 
L 61.3807 597.365671 
L 63.48605 597.067925 
L 65.5914 594.785207 
L 67.69675 589.624279 
L 69.8021 584.959593 
L 71.90745 579.600168 
L 74.0128 572.752013 
L 76.11815 564.812124 
L 78.2235 552.90229 
L 80.32885 539.702224 
L 82.4342 540.893207 
L 84.53955 531.960831 
L 86.6449 530.174356 
L 88.75025 525.013428 
L 90.8556 522.532213 
L 92.96095 514.691572 
L 95.0663 500.002776 
L 97.17165 494.246356 
L 99.277 487.695948 
L 101.38235 483.825252 
L 103.4877 473.404147 
L 105.59305 461.792058 
L 107.6984 447.9965 
L 109.80375 438.369384 
L 111.9091 437.575395 
L 114.01445 436.384412 
L 116.1198 444.324302 
L 118.22515 450.775462 
L 120.3305 449.981473 
L 122.43585 456.134887 
L 124.5412 467.250732 
L 126.64655 473.999638 
L 130.85725 482.634268 
L 132.9626 492.162135 
L 137.1733 502.980235 
L 139.27865 499.208787 
L 141.384 501.293008 
L 143.48935 499.804279 
L 145.5947 504.568213 
L 147.70005 508.538157 
L 149.8054 513.202843 
L 151.91075 519.356257 
L 154.0161 530.670599 
L 156.12145 532.457074 
L 158.2268 540.297715 
L 160.33215 542.878179 
L 162.4375 546.153384 
L 164.54285 549.130842 
L 168.75355 558.063218 
L 170.8589 561.735417 
L 172.96425 565.903859 
L 175.0696 565.506864 
L 177.17495 567.888831 
L 179.2803 570.767041 
L 181.38565 568.980566 
L 183.491 574.339991 
L 185.59635 573.942997 
L 187.7017 572.652765 
L 189.80705 573.049759 
L 191.9124 577.118953 
L 194.01775 579.302422 
L 196.1231 579.203174 
L 198.22845 580.989649 
L 200.3338 581.882886 
L 202.43915 583.371616 
L 204.5445 585.158091 
L 208.7552 585.852831 
L 210.86055 588.135549 
L 212.9659 586.64682 
L 215.07125 587.937052 
L 217.1766 588.532544 
L 219.28195 589.723527 
L 221.3873 592.006245 
L 223.49265 591.609251 
L 225.598 592.601737 
L 227.70335 590.517516 
L 229.8087 593.693472 
L 231.91405 592.998732 
L 234.0194 594.884455 
L 236.12475 594.685958 
L 238.2301 595.182201 
L 240.33545 594.983704 
L 244.54615 595.678444 
L 246.6515 595.182201 
L 248.75685 595.678444 
L 250.8622 596.571682 
L 255.0729 595.876941 
L 257.17825 596.67093 
L 259.2836 596.373185 
L 261.38895 596.472433 
L 263.4943 596.968676 
L 265.59965 596.869428 
L 267.705 597.266422 
L 269.81035 596.869428 
L 271.9157 597.365671 
L 274.02105 596.869428 
L 278.23175 597.266422 
L 280.3371 597.266422 
L 282.44245 596.869428 
L 284.5478 597.067925 
L 286.65315 597.564168 
L 289 597.178558 
L 289 597.178558 
" clip-path="url(#p5efd5c5258)" style="fill: none; stroke: #0000ff; stroke-width: 1.5; stroke-linecap: square"/>
   </g>
   <g id="patch_13">
    <path d="M 57.17 606.04 
L 57.17 428.305575 
" style="fill: none; stroke: #000000; stroke-width: 0.8; stroke-linejoin: miter; stroke-linecap: square"/>
   </g>
   <g id="patch_14">
    <path d="M 267.705 606.04 
L 267.705 428.305575 
" style="fill: none; stroke: #000000; stroke-width: 0.8; stroke-linejoin: miter; stroke-linecap: square"/>
   </g>
   <g id="patch_15">
    <path d="M 57.17 606.04 
L 267.705 606.04 
" style="fill: none; stroke: #000000; stroke-width: 0.8; stroke-linejoin: miter; stroke-linecap: square"/>
   </g>
   <g id="patch_16">
    <path d="M 57.17 428.305575 
L 267.705 428.305575 
" style="fill: none; stroke: #000000; stroke-width: 0.8; stroke-linejoin: miter; stroke-linecap: square"/>
   </g>
   <g id="text_44">
    <!-- Blue Channel  -->
    <g transform="translate(184.25625 442.305575) scale(0.12 -0.12)">
     <defs>
      <path id="DejaVuSans-42" d="M 1259 2228 
L 1259 519 
L 2272 519 
Q 2781 519 3026 730 
Q 3272 941 3272 1375 
Q 3272 1813 3026 2020 
Q 2781 2228 2272 2228 
L 1259 2228 
z
M 1259 4147 
L 1259 2741 
L 2194 2741 
Q 2656 2741 2882 2914 
Q 3109 3088 3109 3444 
Q 3109 3797 2882 3972 
Q 2656 4147 2194 4147 
L 1259 4147 
z
M 628 4666 
L 2241 4666 
Q 2963 4666 3353 4366 
Q 3744 4066 3744 3513 
Q 3744 3084 3544 2831 
Q 3344 2578 2956 2516 
Q 3422 2416 3680 2098 
Q 3938 1781 3938 1306 
Q 3938 681 3513 340 
Q 3088 0 2303 0 
L 628 0 
L 628 4666 
z
" transform="scale(0.015625)"/>
     </defs>
     <use xlink:href="#DejaVuSans-42"/>
     <use xlink:href="#DejaVuSans-6c" x="68.603516"/>
     <use xlink:href="#DejaVuSans-75" x="96.386719"/>
     <use xlink:href="#DejaVuSans-65" x="159.765625"/>
     <use xlink:href="#DejaVuSans-20" x="221.289062"/>
     <use xlink:href="#DejaVuSans-43" x="253.076172"/>
     <use xlink:href="#DejaVuSans-68" x="322.900391"/>
     <use xlink:href="#DejaVuSans-61" x="386.279297"/>
     <use xlink:href="#DejaVuSans-6e" x="447.558594"/>
     <use xlink:href="#DejaVuSans-6e" x="510.9375"/>
     <use xlink:href="#DejaVuSans-65" x="574.316406"/>
     <use xlink:href="#DejaVuSans-6c" x="635.839844"/>
     <use xlink:href="#DejaVuSans-20" x="663.623047"/>
    </g>
   </g>
  </g>
 </g>
 <defs>
  <clipPath id="p36682bda59">
   <rect x="57.17" y="10.8" width="210.535" height="177.734425"/>
  </clipPath>
  <clipPath id="pc0666c4908">
   <rect x="57.17" y="219.552787" width="210.535" height="177.734425"/>
  </clipPath>
  <clipPath id="p5efd5c5258">
   <rect x="57.17" y="428.305575" width="210.535" height="177.734425"/>
  </clipPath>
 </defs>
</svg>
