<?xml version="1.0" encoding="utf-8" standalone="no"?>
<!DOCTYPE svg PUBLIC "-//W3C//DTD SVG 1.1//EN"
  "http://www.w3.org/Graphics/SVG/1.1/DTD/svg11.dtd">
<svg xmlns:xlink="http://www.w3.org/1999/xlink" width="720pt" height="360pt" viewBox="0 0 720 360" xmlns="http://www.w3.org/2000/svg" version="1.1">
 <metadata>
  <rdf:RDF xmlns:dc="http://purl.org/dc/elements/1.1/" xmlns:cc="http://creativecommons.org/ns#" xmlns:rdf="http://www.w3.org/1999/02/22-rdf-syntax-ns#">
   <cc:Work>
    <dc:type rdf:resource="http://purl.org/dc/dcmitype/StillImage"/>
    <dc:date>2023-09-30T15:16:12.407486</dc:date>
    <dc:format>image/svg+xml</dc:format>
    <dc:creator>
     <cc:Agent>
      <dc:title>Matplotlib v3.8.0, https://matplotlib.org/</dc:title>
     </cc:Agent>
    </dc:creator>
   </cc:Work>
  </rdf:RDF>
 </metadata>
 <defs>
  <style type="text/css">*{stroke-linejoin: round; stroke-linecap: butt}</style>
 </defs>
 <g id="figure_1">
  <g id="patch_1">
   <path d="M 0 360 
L 720 360 
L 720 0 
L 0 0 
z
" style="fill: #ffffff"/>
  </g>
  <g id="axes_1">
   <g id="patch_2">
    <path d="M 90 320.4 
L 648 320.4 
L 648 43.2 
L 90 43.2 
z
" style="fill: #ffffff"/>
   </g>
   <g id="matplotlib.axis_1">
    <g id="xtick_1">
     <g id="line2d_1">
      <defs>
       <path id="ma96b4003af" d="M 0 0 
L 0 3.5 
" style="stroke: #000000; stroke-width: 0.8"/>
      </defs>
      <g>
       <use xlink:href="#ma96b4003af" x="146.289474" y="320.4" style="stroke: #000000; stroke-width: 0.8"/>
      </g>
     </g>
     <g id="text_1">
      <!-- 50 -->
      <g transform="translate(139.926974 334.998438) scale(0.1 -0.1)">
       <defs>
        <path id="DejaVuSans-35" d="M 691 4666 
L 3169 4666 
L 3169 4134 
L 1269 4134 
L 1269 2991 
Q 1406 3038 1543 3061 
Q 1681 3084 1819 3084 
Q 2600 3084 3056 2656 
Q 3513 2228 3513 1497 
Q 3513 744 3044 326 
Q 2575 -91 1722 -91 
Q 1428 -91 1123 -41 
Q 819 9 494 109 
L 494 744 
Q 775 591 1075 516 
Q 1375 441 1709 441 
Q 2250 441 2565 725 
Q 2881 1009 2881 1497 
Q 2881 1984 2565 2268 
Q 2250 2553 1709 2553 
Q 1456 2553 1204 2497 
Q 953 2441 691 2322 
L 691 4666 
z
" transform="scale(0.015625)"/>
        <path id="DejaVuSans-30" d="M 2034 4250 
Q 1547 4250 1301 3770 
Q 1056 3291 1056 2328 
Q 1056 1369 1301 889 
Q 1547 409 2034 409 
Q 2525 409 2770 889 
Q 3016 1369 3016 2328 
Q 3016 3291 2770 3770 
Q 2525 4250 2034 4250 
z
M 2034 4750 
Q 2819 4750 3233 4129 
Q 3647 3509 3647 2328 
Q 3647 1150 3233 529 
Q 2819 -91 2034 -91 
Q 1250 -91 836 529 
Q 422 1150 422 2328 
Q 422 3509 836 4129 
Q 1250 4750 2034 4750 
z
" transform="scale(0.015625)"/>
       </defs>
       <use xlink:href="#DejaVuSans-35"/>
       <use xlink:href="#DejaVuSans-30" x="63.623047"/>
      </g>
     </g>
    </g>
    <g id="xtick_2">
     <g id="line2d_2">
      <g>
       <use xlink:href="#ma96b4003af" x="268.657895" y="320.4" style="stroke: #000000; stroke-width: 0.8"/>
      </g>
     </g>
     <g id="text_2">
      <!-- 100 -->
      <g transform="translate(259.114145 334.998438) scale(0.1 -0.1)">
       <defs>
        <path id="DejaVuSans-31" d="M 794 531 
L 1825 531 
L 1825 4091 
L 703 3866 
L 703 4441 
L 1819 4666 
L 2450 4666 
L 2450 531 
L 3481 531 
L 3481 0 
L 794 0 
L 794 531 
z
" transform="scale(0.015625)"/>
       </defs>
       <use xlink:href="#DejaVuSans-31"/>
       <use xlink:href="#DejaVuSans-30" x="63.623047"/>
       <use xlink:href="#DejaVuSans-30" x="127.246094"/>
      </g>
     </g>
    </g>
    <g id="xtick_3">
     <g id="line2d_3">
      <g>
       <use xlink:href="#ma96b4003af" x="391.026316" y="320.4" style="stroke: #000000; stroke-width: 0.8"/>
      </g>
     </g>
     <g id="text_3">
      <!-- 150 -->
      <g transform="translate(381.482566 334.998438) scale(0.1 -0.1)">
       <use xlink:href="#DejaVuSans-31"/>
       <use xlink:href="#DejaVuSans-35" x="63.623047"/>
       <use xlink:href="#DejaVuSans-30" x="127.246094"/>
      </g>
     </g>
    </g>
    <g id="xtick_4">
     <g id="line2d_4">
      <g>
       <use xlink:href="#ma96b4003af" x="513.394737" y="320.4" style="stroke: #000000; stroke-width: 0.8"/>
      </g>
     </g>
     <g id="text_4">
      <!-- 200 -->
      <g transform="translate(503.850987 334.998438) scale(0.1 -0.1)">
       <defs>
        <path id="DejaVuSans-32" d="M 1228 531 
L 3431 531 
L 3431 0 
L 469 0 
L 469 531 
Q 828 903 1448 1529 
Q 2069 2156 2228 2338 
Q 2531 2678 2651 2914 
Q 2772 3150 2772 3378 
Q 2772 3750 2511 3984 
Q 2250 4219 1831 4219 
Q 1534 4219 1204 4116 
Q 875 4013 500 3803 
L 500 4441 
Q 881 4594 1212 4672 
Q 1544 4750 1819 4750 
Q 2544 4750 2975 4387 
Q 3406 4025 3406 3419 
Q 3406 3131 3298 2873 
Q 3191 2616 2906 2266 
Q 2828 2175 2409 1742 
Q 1991 1309 1228 531 
z
" transform="scale(0.015625)"/>
       </defs>
       <use xlink:href="#DejaVuSans-32"/>
       <use xlink:href="#DejaVuSans-30" x="63.623047"/>
       <use xlink:href="#DejaVuSans-30" x="127.246094"/>
      </g>
     </g>
    </g>
    <g id="xtick_5">
     <g id="line2d_5">
      <g>
       <use xlink:href="#ma96b4003af" x="635.763158" y="320.4" style="stroke: #000000; stroke-width: 0.8"/>
      </g>
     </g>
     <g id="text_5">
      <!-- 250 -->
      <g transform="translate(626.219408 334.998438) scale(0.1 -0.1)">
       <use xlink:href="#DejaVuSans-32"/>
       <use xlink:href="#DejaVuSans-35" x="63.623047"/>
       <use xlink:href="#DejaVuSans-30" x="127.246094"/>
      </g>
     </g>
    </g>
    <g id="text_6">
     <!-- Pixel Value -->
     <g transform="translate(342.119531 348.676562) scale(0.1 -0.1)">
      <defs>
       <path id="DejaVuSans-50" d="M 1259 4147 
L 1259 2394 
L 2053 2394 
Q 2494 2394 2734 2622 
Q 2975 2850 2975 3272 
Q 2975 3691 2734 3919 
Q 2494 4147 2053 4147 
L 1259 4147 
z
M 628 4666 
L 2053 4666 
Q 2838 4666 3239 4311 
Q 3641 3956 3641 3272 
Q 3641 2581 3239 2228 
Q 2838 1875 2053 1875 
L 1259 1875 
L 1259 0 
L 628 0 
L 628 4666 
z
" transform="scale(0.015625)"/>
       <path id="DejaVuSans-69" d="M 603 3500 
L 1178 3500 
L 1178 0 
L 603 0 
L 603 3500 
z
M 603 4863 
L 1178 4863 
L 1178 4134 
L 603 4134 
L 603 4863 
z
" transform="scale(0.015625)"/>
       <path id="DejaVuSans-78" d="M 3513 3500 
L 2247 1797 
L 3578 0 
L 2900 0 
L 1881 1375 
L 863 0 
L 184 0 
L 1544 1831 
L 300 3500 
L 978 3500 
L 1906 2253 
L 2834 3500 
L 3513 3500 
z
" transform="scale(0.015625)"/>
       <path id="DejaVuSans-65" d="M 3597 1894 
L 3597 1613 
L 953 1613 
Q 991 1019 1311 708 
Q 1631 397 2203 397 
Q 2534 397 2845 478 
Q 3156 559 3463 722 
L 3463 178 
Q 3153 47 2828 -22 
Q 2503 -91 2169 -91 
Q 1331 -91 842 396 
Q 353 884 353 1716 
Q 353 2575 817 3079 
Q 1281 3584 2069 3584 
Q 2775 3584 3186 3129 
Q 3597 2675 3597 1894 
z
M 3022 2063 
Q 3016 2534 2758 2815 
Q 2500 3097 2075 3097 
Q 1594 3097 1305 2825 
Q 1016 2553 972 2059 
L 3022 2063 
z
" transform="scale(0.015625)"/>
       <path id="DejaVuSans-6c" d="M 603 4863 
L 1178 4863 
L 1178 0 
L 603 0 
L 603 4863 
z
" transform="scale(0.015625)"/>
       <path id="DejaVuSans-20" transform="scale(0.015625)"/>
       <path id="DejaVuSans-56" d="M 1831 0 
L 50 4666 
L 709 4666 
L 2188 738 
L 3669 4666 
L 4325 4666 
L 2547 0 
L 1831 0 
z
" transform="scale(0.015625)"/>
       <path id="DejaVuSans-61" d="M 2194 1759 
Q 1497 1759 1228 1600 
Q 959 1441 959 1056 
Q 959 750 1161 570 
Q 1363 391 1709 391 
Q 2188 391 2477 730 
Q 2766 1069 2766 1631 
L 2766 1759 
L 2194 1759 
z
M 3341 1997 
L 3341 0 
L 2766 0 
L 2766 531 
Q 2569 213 2275 61 
Q 1981 -91 1556 -91 
Q 1019 -91 701 211 
Q 384 513 384 1019 
Q 384 1609 779 1909 
Q 1175 2209 1959 2209 
L 2766 2209 
L 2766 2266 
Q 2766 2663 2505 2880 
Q 2244 3097 1772 3097 
Q 1472 3097 1187 3025 
Q 903 2953 641 2809 
L 641 3341 
Q 956 3463 1253 3523 
Q 1550 3584 1831 3584 
Q 2591 3584 2966 3190 
Q 3341 2797 3341 1997 
z
" transform="scale(0.015625)"/>
       <path id="DejaVuSans-75" d="M 544 1381 
L 544 3500 
L 1119 3500 
L 1119 1403 
Q 1119 906 1312 657 
Q 1506 409 1894 409 
Q 2359 409 2629 706 
Q 2900 1003 2900 1516 
L 2900 3500 
L 3475 3500 
L 3475 0 
L 2900 0 
L 2900 538 
Q 2691 219 2414 64 
Q 2138 -91 1772 -91 
Q 1169 -91 856 284 
Q 544 659 544 1381 
z
M 1991 3584 
L 1991 3584 
z
" transform="scale(0.015625)"/>
      </defs>
      <use xlink:href="#DejaVuSans-50"/>
      <use xlink:href="#DejaVuSans-69" x="58.052734"/>
      <use xlink:href="#DejaVuSans-78" x="85.835938"/>
      <use xlink:href="#DejaVuSans-65" x="141.890625"/>
      <use xlink:href="#DejaVuSans-6c" x="203.414062"/>
      <use xlink:href="#DejaVuSans-20" x="231.197266"/>
      <use xlink:href="#DejaVuSans-56" x="262.984375"/>
      <use xlink:href="#DejaVuSans-61" x="323.642578"/>
      <use xlink:href="#DejaVuSans-6c" x="384.921875"/>
      <use xlink:href="#DejaVuSans-75" x="412.705078"/>
      <use xlink:href="#DejaVuSans-65" x="476.083984"/>
     </g>
    </g>
   </g>
   <g id="matplotlib.axis_2">
    <g id="ytick_1">
     <g id="line2d_6">
      <defs>
       <path id="m59aa576251" d="M 0 0 
L -3.5 0 
" style="stroke: #000000; stroke-width: 0.8"/>
      </defs>
      <g>
       <use xlink:href="#m59aa576251" x="90" y="307.8" style="stroke: #000000; stroke-width: 0.8"/>
      </g>
     </g>
     <g id="text_7">
      <!-- 0 -->
      <g transform="translate(76.6375 311.599219) scale(0.1 -0.1)">
       <use xlink:href="#DejaVuSans-30"/>
      </g>
     </g>
    </g>
    <g id="ytick_2">
     <g id="line2d_7">
      <g>
       <use xlink:href="#m59aa576251" x="90" y="252.023108" style="stroke: #000000; stroke-width: 0.8"/>
      </g>
     </g>
     <g id="text_8">
      <!-- 500 -->
      <g transform="translate(63.9125 255.822326) scale(0.1 -0.1)">
       <use xlink:href="#DejaVuSans-35"/>
       <use xlink:href="#DejaVuSans-30" x="63.623047"/>
       <use xlink:href="#DejaVuSans-30" x="127.246094"/>
      </g>
     </g>
    </g>
    <g id="ytick_3">
     <g id="line2d_8">
      <g>
       <use xlink:href="#m59aa576251" x="90" y="196.246215" style="stroke: #000000; stroke-width: 0.8"/>
      </g>
     </g>
     <g id="text_9">
      <!-- 1000 -->
      <g transform="translate(57.55 200.045434) scale(0.1 -0.1)">
       <use xlink:href="#DejaVuSans-31"/>
       <use xlink:href="#DejaVuSans-30" x="63.623047"/>
       <use xlink:href="#DejaVuSans-30" x="127.246094"/>
       <use xlink:href="#DejaVuSans-30" x="190.869141"/>
      </g>
     </g>
    </g>
    <g id="ytick_4">
     <g id="line2d_9">
      <g>
       <use xlink:href="#m59aa576251" x="90" y="140.469323" style="stroke: #000000; stroke-width: 0.8"/>
      </g>
     </g>
     <g id="text_10">
      <!-- 1500 -->
      <g transform="translate(57.55 144.268541) scale(0.1 -0.1)">
       <use xlink:href="#DejaVuSans-31"/>
       <use xlink:href="#DejaVuSans-35" x="63.623047"/>
       <use xlink:href="#DejaVuSans-30" x="127.246094"/>
       <use xlink:href="#DejaVuSans-30" x="190.869141"/>
      </g>
     </g>
    </g>
    <g id="ytick_5">
     <g id="line2d_10">
      <g>
       <use xlink:href="#m59aa576251" x="90" y="84.69243" style="stroke: #000000; stroke-width: 0.8"/>
      </g>
     </g>
     <g id="text_11">
      <!-- 2000 -->
      <g transform="translate(57.55 88.491649) scale(0.1 -0.1)">
       <use xlink:href="#DejaVuSans-32"/>
       <use xlink:href="#DejaVuSans-30" x="63.623047"/>
       <use xlink:href="#DejaVuSans-30" x="127.246094"/>
       <use xlink:href="#DejaVuSans-30" x="190.869141"/>
      </g>
     </g>
    </g>
    <g id="text_12">
     <!-- Normalized Count -->
     <g transform="translate(51.470312 226.592969) rotate(-90) scale(0.1 -0.1)">
      <defs>
       <path id="DejaVuSans-4e" d="M 628 4666 
L 1478 4666 
L 3547 763 
L 3547 4666 
L 4159 4666 
L 4159 0 
L 3309 0 
L 1241 3903 
L 1241 0 
L 628 0 
L 628 4666 
z
" transform="scale(0.015625)"/>
       <path id="DejaVuSans-6f" d="M 1959 3097 
Q 1497 3097 1228 2736 
Q 959 2375 959 1747 
Q 959 1119 1226 758 
Q 1494 397 1959 397 
Q 2419 397 2687 759 
Q 2956 1122 2956 1747 
Q 2956 2369 2687 2733 
Q 2419 3097 1959 3097 
z
M 1959 3584 
Q 2709 3584 3137 3096 
Q 3566 2609 3566 1747 
Q 3566 888 3137 398 
Q 2709 -91 1959 -91 
Q 1206 -91 779 398 
Q 353 888 353 1747 
Q 353 2609 779 3096 
Q 1206 3584 1959 3584 
z
" transform="scale(0.015625)"/>
       <path id="DejaVuSans-72" d="M 2631 2963 
Q 2534 3019 2420 3045 
Q 2306 3072 2169 3072 
Q 1681 3072 1420 2755 
Q 1159 2438 1159 1844 
L 1159 0 
L 581 0 
L 581 3500 
L 1159 3500 
L 1159 2956 
Q 1341 3275 1631 3429 
Q 1922 3584 2338 3584 
Q 2397 3584 2469 3576 
Q 2541 3569 2628 3553 
L 2631 2963 
z
" transform="scale(0.015625)"/>
       <path id="DejaVuSans-6d" d="M 3328 2828 
Q 3544 3216 3844 3400 
Q 4144 3584 4550 3584 
Q 5097 3584 5394 3201 
Q 5691 2819 5691 2113 
L 5691 0 
L 5113 0 
L 5113 2094 
Q 5113 2597 4934 2840 
Q 4756 3084 4391 3084 
Q 3944 3084 3684 2787 
Q 3425 2491 3425 1978 
L 3425 0 
L 2847 0 
L 2847 2094 
Q 2847 2600 2669 2842 
Q 2491 3084 2119 3084 
Q 1678 3084 1418 2786 
Q 1159 2488 1159 1978 
L 1159 0 
L 581 0 
L 581 3500 
L 1159 3500 
L 1159 2956 
Q 1356 3278 1631 3431 
Q 1906 3584 2284 3584 
Q 2666 3584 2933 3390 
Q 3200 3197 3328 2828 
z
" transform="scale(0.015625)"/>
       <path id="DejaVuSans-7a" d="M 353 3500 
L 3084 3500 
L 3084 2975 
L 922 459 
L 3084 459 
L 3084 0 
L 275 0 
L 275 525 
L 2438 3041 
L 353 3041 
L 353 3500 
z
" transform="scale(0.015625)"/>
       <path id="DejaVuSans-64" d="M 2906 2969 
L 2906 4863 
L 3481 4863 
L 3481 0 
L 2906 0 
L 2906 525 
Q 2725 213 2448 61 
Q 2172 -91 1784 -91 
Q 1150 -91 751 415 
Q 353 922 353 1747 
Q 353 2572 751 3078 
Q 1150 3584 1784 3584 
Q 2172 3584 2448 3432 
Q 2725 3281 2906 2969 
z
M 947 1747 
Q 947 1113 1208 752 
Q 1469 391 1925 391 
Q 2381 391 2643 752 
Q 2906 1113 2906 1747 
Q 2906 2381 2643 2742 
Q 2381 3103 1925 3103 
Q 1469 3103 1208 2742 
Q 947 2381 947 1747 
z
" transform="scale(0.015625)"/>
       <path id="DejaVuSans-43" d="M 4122 4306 
L 4122 3641 
Q 3803 3938 3442 4084 
Q 3081 4231 2675 4231 
Q 1875 4231 1450 3742 
Q 1025 3253 1025 2328 
Q 1025 1406 1450 917 
Q 1875 428 2675 428 
Q 3081 428 3442 575 
Q 3803 722 4122 1019 
L 4122 359 
Q 3791 134 3420 21 
Q 3050 -91 2638 -91 
Q 1578 -91 968 557 
Q 359 1206 359 2328 
Q 359 3453 968 4101 
Q 1578 4750 2638 4750 
Q 3056 4750 3426 4639 
Q 3797 4528 4122 4306 
z
" transform="scale(0.015625)"/>
       <path id="DejaVuSans-6e" d="M 3513 2113 
L 3513 0 
L 2938 0 
L 2938 2094 
Q 2938 2591 2744 2837 
Q 2550 3084 2163 3084 
Q 1697 3084 1428 2787 
Q 1159 2491 1159 1978 
L 1159 0 
L 581 0 
L 581 3500 
L 1159 3500 
L 1159 2956 
Q 1366 3272 1645 3428 
Q 1925 3584 2291 3584 
Q 2894 3584 3203 3211 
Q 3513 2838 3513 2113 
z
" transform="scale(0.015625)"/>
       <path id="DejaVuSans-74" d="M 1172 4494 
L 1172 3500 
L 2356 3500 
L 2356 3053 
L 1172 3053 
L 1172 1153 
Q 1172 725 1289 603 
Q 1406 481 1766 481 
L 2356 481 
L 2356 0 
L 1766 0 
Q 1100 0 847 248 
Q 594 497 594 1153 
L 594 3053 
L 172 3053 
L 172 3500 
L 594 3500 
L 594 4494 
L 1172 4494 
z
" transform="scale(0.015625)"/>
      </defs>
      <use xlink:href="#DejaVuSans-4e"/>
      <use xlink:href="#DejaVuSans-6f" x="74.804688"/>
      <use xlink:href="#DejaVuSans-72" x="135.986328"/>
      <use xlink:href="#DejaVuSans-6d" x="175.349609"/>
      <use xlink:href="#DejaVuSans-61" x="272.761719"/>
      <use xlink:href="#DejaVuSans-6c" x="334.041016"/>
      <use xlink:href="#DejaVuSans-69" x="361.824219"/>
      <use xlink:href="#DejaVuSans-7a" x="389.607422"/>
      <use xlink:href="#DejaVuSans-65" x="442.097656"/>
      <use xlink:href="#DejaVuSans-64" x="503.621094"/>
      <use xlink:href="#DejaVuSans-20" x="567.097656"/>
      <use xlink:href="#DejaVuSans-43" x="598.884766"/>
      <use xlink:href="#DejaVuSans-6f" x="668.708984"/>
      <use xlink:href="#DejaVuSans-75" x="729.890625"/>
      <use xlink:href="#DejaVuSans-6e" x="793.269531"/>
      <use xlink:href="#DejaVuSans-74" x="856.648438"/>
     </g>
    </g>
   </g>
   <g id="line2d_11">
    <path d="M 23.921053 307.8 
L 107.131579 307.8 
L 109.578947 306.796016 
L 112.026316 306.461355 
L 114.473684 303.226295 
L 116.921053 289.505179 
L 121.815789 243.321912 
L 124.263158 204.94741 
L 126.710526 163.114741 
L 129.157895 100.086853 
L 131.605263 55.8 
L 134.052632 111.130677 
L 136.5 141.807968 
L 138.947368 165.234263 
L 141.394737 183.529084 
L 143.842105 179.736255 
L 146.289474 177.282072 
L 148.736842 180.517131 
L 151.184211 196.69243 
L 153.631579 201.600797 
L 156.078947 211.41753 
L 158.526316 211.640637 
L 160.973684 213.871713 
L 163.421053 223.576892 
L 165.868421 228.262151 
L 168.315789 226.477291 
L 170.763158 232.389641 
L 173.210526 231.831873 
L 175.657895 235.29004 
L 178.105263 236.294024 
L 180.552632 233.505179 
L 183 240.533068 
L 185.447368 244.43745 
L 187.894737 243.879681 
L 190.342105 245.552988 
L 192.789474 245.441434 
L 195.236842 244.883665 
L 197.684211 250.126693 
L 200.131579 248.341833 
L 202.578947 250.90757 
L 205.026316 256.708367 
L 207.473684 258.047012 
L 209.921053 257.043028 
L 212.368421 261.058964 
L 214.815789 260.612749 
L 217.263158 265.298008 
L 219.710526 268.644622 
L 222.157895 269.760159 
L 224.605263 268.644622 
L 227.052632 270.541036 
L 229.5 267.752191 
L 231.947368 273.999203 
L 234.394737 274.110757 
L 236.842105 276.007171 
L 239.289474 276.118725 
L 241.736842 280.357769 
L 244.184211 276.118725 
L 246.631579 281.027092 
L 249.078947 283.146614 
L 251.526316 280.803984 
L 253.973684 284.81992 
L 256.421053 282.588845 
L 258.868421 285.712351 
L 261.315789 286.493227 
L 263.763158 285.823904 
L 266.210526 286.493227 
L 268.657895 287.943426 
L 271.105263 289.170518 
L 273.552632 288.612749 
L 276 286.493227 
L 278.447368 287.16255 
L 280.894737 290.286056 
L 285.789474 290.732271 
L 288.236842 290.732271 
L 290.684211 289.282072 
L 293.131579 289.393625 
L 295.578947 290.174502 
L 298.026316 288.166534 
L 300.473684 291.066932 
L 302.921053 290.843825 
L 305.368421 288.278088 
L 307.815789 293.521116 
L 310.263158 293.744223 
L 312.710526 293.744223 
L 315.157895 292.963347 
L 317.605263 292.405578 
L 320.052632 292.851793 
L 322.5 293.0749 
L 324.947368 292.294024 
L 327.394737 293.521116 
L 329.842105 295.194422 
L 332.289474 297.537052 
L 334.736842 294.971315 
L 337.184211 294.636653 
L 339.631579 294.5251 
L 342.078947 294.078884 
L 344.526316 296.198406 
L 346.973684 296.867729 
L 349.421053 297.871713 
L 351.868421 295.752191 
L 354.315789 295.640637 
L 356.763158 296.533068 
L 359.210526 297.760159 
L 361.657895 295.194422 
L 364.105263 297.313944 
L 366.552632 294.971315 
L 369 295.975299 
L 371.447368 296.644622 
L 373.894737 296.867729 
L 376.342105 297.760159 
L 378.789474 299.879681 
L 381.236842 299.768127 
L 383.684211 296.979283 
L 386.131579 297.313944 
L 388.578947 298.65259 
L 391.026316 298.429482 
L 393.473684 299.321912 
L 398.368421 299.768127 
L 400.815789 297.871713 
L 403.263158 299.433466 
L 405.710526 298.987251 
L 408.157895 299.656574 
L 410.605263 298.875697 
L 413.052632 299.656574 
L 415.5 300.102789 
L 417.947368 300.102789 
L 420.394737 300.883665 
L 422.842105 301.32988 
L 425.289474 298.65259 
L 427.736842 298.987251 
L 430.184211 300.772112 
L 432.631579 301.106773 
L 435.078947 301.887649 
L 437.526316 301.106773 
L 439.973684 300.549004 
L 442.421053 300.883665 
L 444.868421 302.110757 
L 447.315789 302.222311 
L 449.763158 303.003187 
L 452.210526 300.995219 
L 454.657895 300.995219 
L 457.105263 300.102789 
L 459.552632 303.337849 
L 462 301.106773 
L 464.447368 300.660558 
L 466.894737 302.110757 
L 469.342105 301.552988 
L 471.789474 302.891633 
L 474.236842 301.999203 
L 476.684211 301.999203 
L 479.131579 302.110757 
L 481.578947 303.67251 
L 486.473684 302.891633 
L 491.368421 303.114741 
L 493.815789 302.556972 
L 496.263158 302.891633 
L 498.710526 302.110757 
L 501.157895 303.003187 
L 503.605263 304.118725 
L 506.052632 303.449402 
L 508.5 302.556972 
L 510.947368 303.337849 
L 513.394737 303.337849 
L 515.842105 303.560956 
L 520.736842 305.011155 
L 525.631579 303.560956 
L 528.078947 304.118725 
L 530.526316 303.114741 
L 532.973684 303.337849 
L 535.421053 303.337849 
L 537.868421 302.78008 
L 545.210526 305.011155 
L 547.657895 304.341833 
L 550.105263 304.453386 
L 552.552632 303.449402 
L 555 302.891633 
L 557.447368 304.341833 
L 559.894737 303.226295 
L 562.342105 304.676494 
L 567.236842 305.122709 
L 569.684211 305.011155 
L 572.131579 304.007171 
L 574.578947 304.676494 
L 577.026316 304.118725 
L 579.473684 303.895618 
L 581.921053 304.007171 
L 584.368421 303.895618 
L 586.815789 304.453386 
L 589.263158 304.453386 
L 591.710526 305.011155 
L 594.157895 305.903586 
L 596.605263 305.568924 
L 599.052632 305.903586 
L 603.947368 305.568924 
L 606.394737 306.238247 
L 611.289474 305.903586 
L 618.631579 307.242231 
L 621.078947 306.461355 
L 623.526316 307.353785 
L 625.973684 307.019124 
L 628.421053 306.90757 
L 635.763158 307.576892 
L 638.210526 307.465339 
L 640.657895 306.90757 
L 643.105263 307.130677 
L 645.552632 307.019124 
L 648 306.349801 
L 648 306.349801 
" clip-path="url(#pb6a68eebe3)" style="fill: none; stroke: #808080; stroke-width: 1.5; stroke-linecap: square"/>
   </g>
   <g id="line2d_12">
    <path d="M 23.921053 307.8 
L 87.552632 307.8 
L 90 307.688446 
L 92.447368 307.8 
L 94.894737 307.688446 
L 97.342105 307.8 
L 99.789474 307.465339 
L 102.236842 307.465339 
L 104.684211 306.90757 
L 107.131579 305.457371 
L 109.578947 301.32988 
L 112.026316 293.855777 
L 114.473684 280.469323 
L 116.921053 265.521116 
L 119.368421 241.648606 
L 121.815789 209.967331 
L 124.263158 174.827888 
L 126.710526 143.369721 
L 129.157895 119.720319 
L 131.605263 127.975299 
L 134.052632 137.122709 
L 136.5 141.696414 
L 138.947368 160.660558 
L 141.394737 165.680478 
L 143.842105 178.732271 
L 146.289474 184.979283 
L 148.736842 195.242231 
L 151.184211 199.592829 
L 153.631579 205.839841 
L 156.078947 210.748207 
L 158.526316 214.875697 
L 160.973684 221.345817 
L 163.421053 223.019124 
L 165.868421 223.353785 
L 168.315789 224.803984 
L 170.763158 227.704382 
L 173.210526 235.847809 
L 175.657895 230.158566 
L 178.105263 236.18247 
L 180.552632 237.0749 
L 183 238.301992 
L 185.447368 238.859761 
L 187.894737 247.226295 
L 190.342105 241.871713 
L 192.789474 247.895618 
L 195.236842 249.457371 
L 197.684211 250.349801 
L 200.131579 248.56494 
L 202.578947 253.027092 
L 205.026316 253.138645 
L 207.473684 257.712351 
L 209.921053 261.616733 
L 212.368421 262.843825 
L 214.815789 261.728287 
L 217.263158 265.967331 
L 219.710526 263.736255 
L 222.157895 267.305976 
L 224.605263 268.979283 
L 227.052632 272.772112 
L 229.5 274.78008 
L 231.947368 276.007171 
L 234.394737 276.676494 
L 236.842105 276.453386 
L 239.289474 281.027092 
L 241.736842 276.453386 
L 244.184211 281.361753 
L 246.631579 281.473307 
L 249.078947 283.815936 
L 251.526316 285.489243 
L 253.973684 287.385657 
L 256.421053 284.708367 
L 258.868421 288.501195 
L 261.315789 287.497211 
L 263.763158 287.050996 
L 266.210526 286.158566 
L 268.657895 288.612749 
L 271.105263 288.166534 
L 273.552632 289.728287 
L 276 291.959363 
L 278.447368 289.728287 
L 280.894737 292.18247 
L 283.342105 290.174502 
L 285.789474 291.959363 
L 288.236842 291.29004 
L 290.684211 290.955378 
L 293.131579 292.18247 
L 295.578947 291.29004 
L 298.026316 291.066932 
L 300.473684 292.070916 
L 302.921053 292.070916 
L 305.368421 291.066932 
L 307.815789 291.513147 
L 310.263158 292.517131 
L 312.710526 291.066932 
L 315.157895 294.5251 
L 317.605263 294.5251 
L 320.052632 294.190438 
L 322.5 293.0749 
L 324.947368 294.190438 
L 327.394737 294.301992 
L 329.842105 293.744223 
L 332.289474 293.632669 
L 334.736842 295.975299 
L 337.184211 294.636653 
L 339.631579 296.198406 
L 342.078947 295.863745 
L 344.526316 297.537052 
L 346.973684 295.752191 
L 351.868421 296.979283 
L 354.315789 294.301992 
L 356.763158 297.425498 
L 359.210526 296.421514 
L 361.657895 296.756175 
L 364.105263 297.760159 
L 366.552632 298.429482 
L 369 296.30996 
L 371.447368 295.975299 
L 373.894737 299.210359 
L 376.342105 297.313944 
L 378.789474 299.54502 
L 381.236842 298.875697 
L 383.684211 299.54502 
L 386.131579 299.54502 
L 388.578947 298.875697 
L 391.026316 299.098805 
L 393.473684 299.098805 
L 395.921053 299.54502 
L 398.368421 300.995219 
L 400.815789 298.429482 
L 403.263158 298.875697 
L 405.710526 300.660558 
L 408.157895 299.433466 
L 410.605263 299.54502 
L 413.052632 299.433466 
L 417.947368 299.656574 
L 420.394737 301.776096 
L 422.842105 298.764143 
L 425.289474 299.433466 
L 427.736842 301.441434 
L 430.184211 302.668526 
L 432.631579 300.102789 
L 437.526316 302.222311 
L 439.973684 301.32988 
L 442.421053 300.102789 
L 444.868421 300.43745 
L 447.315789 299.768127 
L 449.763158 301.552988 
L 452.210526 301.999203 
L 454.657895 300.549004 
L 457.105263 301.441434 
L 459.552632 301.218327 
L 462 300.43745 
L 466.894737 301.552988 
L 469.342105 300.995219 
L 471.789474 301.218327 
L 474.236842 300.43745 
L 476.684211 301.441434 
L 479.131579 299.879681 
L 481.578947 301.664542 
L 484.026316 299.433466 
L 486.473684 300.883665 
L 488.921053 299.210359 
L 491.368421 300.214343 
L 493.815789 298.206375 
L 496.263158 300.549004 
L 498.710526 297.090837 
L 501.157895 299.433466 
L 503.605263 298.094821 
L 506.052632 301.664542 
L 508.5 300.549004 
L 510.947368 300.883665 
L 513.394737 302.110757 
L 515.842105 301.552988 
L 518.289474 301.441434 
L 520.736842 301.664542 
L 523.184211 301.32988 
L 525.631579 301.441434 
L 528.078947 302.222311 
L 530.526316 302.445418 
L 535.421053 301.776096 
L 537.868421 303.226295 
L 540.315789 303.784064 
L 545.210526 302.333865 
L 547.657895 303.895618 
L 550.105263 303.337849 
L 552.552632 303.114741 
L 555 303.784064 
L 557.447368 303.449402 
L 559.894737 302.668526 
L 562.342105 304.788048 
L 567.236842 305.680478 
L 569.684211 305.457371 
L 572.131579 306.90757 
L 574.578947 307.242231 
L 577.026316 307.130677 
L 581.921053 307.688446 
L 584.368421 307.576892 
L 589.263158 307.8 
L 648 307.8 
L 648 307.8 
" clip-path="url(#pb6a68eebe3)" style="fill: none; stroke-dasharray: 5.55,2.4; stroke-dashoffset: 0; stroke: #000000; stroke-width: 1.5"/>
   </g>
   <g id="patch_3">
    <path d="M 90 320.4 
L 90 43.2 
" style="fill: none; stroke: #000000; stroke-width: 0.8; stroke-linejoin: miter; stroke-linecap: square"/>
   </g>
   <g id="patch_4">
    <path d="M 648 320.4 
L 648 43.2 
" style="fill: none; stroke: #000000; stroke-width: 0.8; stroke-linejoin: miter; stroke-linecap: square"/>
   </g>
   <g id="patch_5">
    <path d="M 90 320.4 
L 648 320.4 
" style="fill: none; stroke: #000000; stroke-width: 0.8; stroke-linejoin: miter; stroke-linecap: square"/>
   </g>
   <g id="patch_6">
    <path d="M 90 43.2 
L 648 43.2 
" style="fill: none; stroke: #000000; stroke-width: 0.8; stroke-linejoin: miter; stroke-linecap: square"/>
   </g>
   <g id="text_13">
    <!-- Histograms of Original and Denoised Images -->
    <g transform="translate(234.6675 37.2) scale(0.12 -0.12)">
     <defs>
      <path id="DejaVuSans-48" d="M 628 4666 
L 1259 4666 
L 1259 2753 
L 3553 2753 
L 3553 4666 
L 4184 4666 
L 4184 0 
L 3553 0 
L 3553 2222 
L 1259 2222 
L 1259 0 
L 628 0 
L 628 4666 
z
" transform="scale(0.015625)"/>
      <path id="DejaVuSans-73" d="M 2834 3397 
L 2834 2853 
Q 2591 2978 2328 3040 
Q 2066 3103 1784 3103 
Q 1356 3103 1142 2972 
Q 928 2841 928 2578 
Q 928 2378 1081 2264 
Q 1234 2150 1697 2047 
L 1894 2003 
Q 2506 1872 2764 1633 
Q 3022 1394 3022 966 
Q 3022 478 2636 193 
Q 2250 -91 1575 -91 
Q 1294 -91 989 -36 
Q 684 19 347 128 
L 347 722 
Q 666 556 975 473 
Q 1284 391 1588 391 
Q 1994 391 2212 530 
Q 2431 669 2431 922 
Q 2431 1156 2273 1281 
Q 2116 1406 1581 1522 
L 1381 1569 
Q 847 1681 609 1914 
Q 372 2147 372 2553 
Q 372 3047 722 3315 
Q 1072 3584 1716 3584 
Q 2034 3584 2315 3537 
Q 2597 3491 2834 3397 
z
" transform="scale(0.015625)"/>
      <path id="DejaVuSans-67" d="M 2906 1791 
Q 2906 2416 2648 2759 
Q 2391 3103 1925 3103 
Q 1463 3103 1205 2759 
Q 947 2416 947 1791 
Q 947 1169 1205 825 
Q 1463 481 1925 481 
Q 2391 481 2648 825 
Q 2906 1169 2906 1791 
z
M 3481 434 
Q 3481 -459 3084 -895 
Q 2688 -1331 1869 -1331 
Q 1566 -1331 1297 -1286 
Q 1028 -1241 775 -1147 
L 775 -588 
Q 1028 -725 1275 -790 
Q 1522 -856 1778 -856 
Q 2344 -856 2625 -561 
Q 2906 -266 2906 331 
L 2906 616 
Q 2728 306 2450 153 
Q 2172 0 1784 0 
Q 1141 0 747 490 
Q 353 981 353 1791 
Q 353 2603 747 3093 
Q 1141 3584 1784 3584 
Q 2172 3584 2450 3431 
Q 2728 3278 2906 2969 
L 2906 3500 
L 3481 3500 
L 3481 434 
z
" transform="scale(0.015625)"/>
      <path id="DejaVuSans-66" d="M 2375 4863 
L 2375 4384 
L 1825 4384 
Q 1516 4384 1395 4259 
Q 1275 4134 1275 3809 
L 1275 3500 
L 2222 3500 
L 2222 3053 
L 1275 3053 
L 1275 0 
L 697 0 
L 697 3053 
L 147 3053 
L 147 3500 
L 697 3500 
L 697 3744 
Q 697 4328 969 4595 
Q 1241 4863 1831 4863 
L 2375 4863 
z
" transform="scale(0.015625)"/>
      <path id="DejaVuSans-4f" d="M 2522 4238 
Q 1834 4238 1429 3725 
Q 1025 3213 1025 2328 
Q 1025 1447 1429 934 
Q 1834 422 2522 422 
Q 3209 422 3611 934 
Q 4013 1447 4013 2328 
Q 4013 3213 3611 3725 
Q 3209 4238 2522 4238 
z
M 2522 4750 
Q 3503 4750 4090 4092 
Q 4678 3434 4678 2328 
Q 4678 1225 4090 567 
Q 3503 -91 2522 -91 
Q 1538 -91 948 565 
Q 359 1222 359 2328 
Q 359 3434 948 4092 
Q 1538 4750 2522 4750 
z
" transform="scale(0.015625)"/>
      <path id="DejaVuSans-44" d="M 1259 4147 
L 1259 519 
L 2022 519 
Q 2988 519 3436 956 
Q 3884 1394 3884 2338 
Q 3884 3275 3436 3711 
Q 2988 4147 2022 4147 
L 1259 4147 
z
M 628 4666 
L 1925 4666 
Q 3281 4666 3915 4102 
Q 4550 3538 4550 2338 
Q 4550 1131 3912 565 
Q 3275 0 1925 0 
L 628 0 
L 628 4666 
z
" transform="scale(0.015625)"/>
      <path id="DejaVuSans-49" d="M 628 4666 
L 1259 4666 
L 1259 0 
L 628 0 
L 628 4666 
z
" transform="scale(0.015625)"/>
     </defs>
     <use xlink:href="#DejaVuSans-48"/>
     <use xlink:href="#DejaVuSans-69" x="75.195312"/>
     <use xlink:href="#DejaVuSans-73" x="102.978516"/>
     <use xlink:href="#DejaVuSans-74" x="155.078125"/>
     <use xlink:href="#DejaVuSans-6f" x="194.287109"/>
     <use xlink:href="#DejaVuSans-67" x="255.46875"/>
     <use xlink:href="#DejaVuSans-72" x="318.945312"/>
     <use xlink:href="#DejaVuSans-61" x="360.058594"/>
     <use xlink:href="#DejaVuSans-6d" x="421.337891"/>
     <use xlink:href="#DejaVuSans-73" x="518.75"/>
     <use xlink:href="#DejaVuSans-20" x="570.849609"/>
     <use xlink:href="#DejaVuSans-6f" x="602.636719"/>
     <use xlink:href="#DejaVuSans-66" x="663.818359"/>
     <use xlink:href="#DejaVuSans-20" x="699.023438"/>
     <use xlink:href="#DejaVuSans-4f" x="730.810547"/>
     <use xlink:href="#DejaVuSans-72" x="809.521484"/>
     <use xlink:href="#DejaVuSans-69" x="850.634766"/>
     <use xlink:href="#DejaVuSans-67" x="878.417969"/>
     <use xlink:href="#DejaVuSans-69" x="941.894531"/>
     <use xlink:href="#DejaVuSans-6e" x="969.677734"/>
     <use xlink:href="#DejaVuSans-61" x="1033.056641"/>
     <use xlink:href="#DejaVuSans-6c" x="1094.335938"/>
     <use xlink:href="#DejaVuSans-20" x="1122.119141"/>
     <use xlink:href="#DejaVuSans-61" x="1153.90625"/>
     <use xlink:href="#DejaVuSans-6e" x="1215.185547"/>
     <use xlink:href="#DejaVuSans-64" x="1278.564453"/>
     <use xlink:href="#DejaVuSans-20" x="1342.041016"/>
     <use xlink:href="#DejaVuSans-44" x="1373.828125"/>
     <use xlink:href="#DejaVuSans-65" x="1450.830078"/>
     <use xlink:href="#DejaVuSans-6e" x="1512.353516"/>
     <use xlink:href="#DejaVuSans-6f" x="1575.732422"/>
     <use xlink:href="#DejaVuSans-69" x="1636.914062"/>
     <use xlink:href="#DejaVuSans-73" x="1664.697266"/>
     <use xlink:href="#DejaVuSans-65" x="1716.796875"/>
     <use xlink:href="#DejaVuSans-64" x="1778.320312"/>
     <use xlink:href="#DejaVuSans-20" x="1841.796875"/>
     <use xlink:href="#DejaVuSans-49" x="1873.583984"/>
     <use xlink:href="#DejaVuSans-6d" x="1903.076172"/>
     <use xlink:href="#DejaVuSans-61" x="2000.488281"/>
     <use xlink:href="#DejaVuSans-67" x="2061.767578"/>
     <use xlink:href="#DejaVuSans-65" x="2125.244141"/>
     <use xlink:href="#DejaVuSans-73" x="2186.767578"/>
    </g>
   </g>
   <g id="legend_1">
    <g id="patch_7">
     <path d="M 527.703125 80.55625 
L 641 80.55625 
Q 643 80.55625 643 78.55625 
L 643 50.2 
Q 643 48.2 641 48.2 
L 527.703125 48.2 
Q 525.703125 48.2 525.703125 50.2 
L 525.703125 78.55625 
Q 525.703125 80.55625 527.703125 80.55625 
z
" style="fill: #ffffff; opacity: 0.8; stroke: #cccccc; stroke-linejoin: miter"/>
    </g>
    <g id="line2d_13">
     <path d="M 529.703125 56.298437 
L 539.703125 56.298437 
L 549.703125 56.298437 
" style="fill: none; stroke: #808080; stroke-width: 1.5; stroke-linecap: square"/>
    </g>
    <g id="text_14">
     <!-- Original Image -->
     <g transform="translate(557.703125 59.798437) scale(0.1 -0.1)">
      <use xlink:href="#DejaVuSans-4f"/>
      <use xlink:href="#DejaVuSans-72" x="78.710938"/>
      <use xlink:href="#DejaVuSans-69" x="119.824219"/>
      <use xlink:href="#DejaVuSans-67" x="147.607422"/>
      <use xlink:href="#DejaVuSans-69" x="211.083984"/>
      <use xlink:href="#DejaVuSans-6e" x="238.867188"/>
      <use xlink:href="#DejaVuSans-61" x="302.246094"/>
      <use xlink:href="#DejaVuSans-6c" x="363.525391"/>
      <use xlink:href="#DejaVuSans-20" x="391.308594"/>
      <use xlink:href="#DejaVuSans-49" x="423.095703"/>
      <use xlink:href="#DejaVuSans-6d" x="452.587891"/>
      <use xlink:href="#DejaVuSans-61" x="550"/>
      <use xlink:href="#DejaVuSans-67" x="611.279297"/>
      <use xlink:href="#DejaVuSans-65" x="674.755859"/>
     </g>
    </g>
    <g id="line2d_14">
     <path d="M 529.703125 70.976562 
L 539.703125 70.976562 
L 549.703125 70.976562 
" style="fill: none; stroke-dasharray: 5.55,2.4; stroke-dashoffset: 0; stroke: #000000; stroke-width: 1.5"/>
    </g>
    <g id="text_15">
     <!-- Denoised Image -->
     <g transform="translate(557.703125 74.476562) scale(0.1 -0.1)">
      <use xlink:href="#DejaVuSans-44"/>
      <use xlink:href="#DejaVuSans-65" x="77.001953"/>
      <use xlink:href="#DejaVuSans-6e" x="138.525391"/>
      <use xlink:href="#DejaVuSans-6f" x="201.904297"/>
      <use xlink:href="#DejaVuSans-69" x="263.085938"/>
      <use xlink:href="#DejaVuSans-73" x="290.869141"/>
      <use xlink:href="#DejaVuSans-65" x="342.96875"/>
      <use xlink:href="#DejaVuSans-64" x="404.492188"/>
      <use xlink:href="#DejaVuSans-20" x="467.96875"/>
      <use xlink:href="#DejaVuSans-49" x="499.755859"/>
      <use xlink:href="#DejaVuSans-6d" x="529.248047"/>
      <use xlink:href="#DejaVuSans-61" x="626.660156"/>
      <use xlink:href="#DejaVuSans-67" x="687.939453"/>
      <use xlink:href="#DejaVuSans-65" x="751.416016"/>
     </g>
    </g>
   </g>
  </g>
 </g>
 <defs>
  <clipPath id="pb6a68eebe3">
   <rect x="90" y="43.2" width="558" height="277.2"/>
  </clipPath>
 </defs>
</svg>
