<?xml version="1.0" encoding="UTF-8" standalone="no"?>
<svg
   width="720pt"
   height="288pt"
   viewBox="0 0 720 288"
   version="1.1"
   id="svg99"
   sodipodi:docname="histogram_grayscale_original_and_denoised_wgan_1697455926224.svg"
   inkscape:version="1.3 (0e150ed6c4, 2023-07-21)"
   xmlns:inkscape="http://www.inkscape.org/namespaces/inkscape"
   xmlns:sodipodi="http://sodipodi.sourceforge.net/DTD/sodipodi-0.dtd"
   xmlns:xlink="http://www.w3.org/1999/xlink"
   xmlns="http://www.w3.org/2000/svg"
   xmlns:svg="http://www.w3.org/2000/svg"
   xmlns:rdf="http://www.w3.org/1999/02/22-rdf-syntax-ns#"
   xmlns:cc="http://creativecommons.org/ns#"
   xmlns:dc="http://purl.org/dc/elements/1.1/">
  <sodipodi:namedview
     id="namedview99"
     pagecolor="#ffffff"
     bordercolor="#000000"
     borderopacity="0.25"
     inkscape:showpageshadow="2"
     inkscape:pageopacity="0.0"
     inkscape:pagecheckerboard="0"
     inkscape:deskcolor="#d1d1d1"
     inkscape:document-units="pt"
     inkscape:zoom="3.221875"
     inkscape:cx="480"
     inkscape:cy="191.96896"
     inkscape:window-width="3840"
     inkscape:window-height="2054"
     inkscape:window-x="-11"
     inkscape:window-y="1909"
     inkscape:window-maximized="1"
     inkscape:current-layer="axes_1" />
  <metadata
     id="metadata1">
    <rdf:RDF>
      <cc:Work>
        <dc:type
           rdf:resource="http://purl.org/dc/dcmitype/StillImage" />
        <dc:date>2023-11-04T15:32:07.115634</dc:date>
        <dc:format>image/svg+xml</dc:format>
        <dc:creator>
          <cc:Agent>
            <dc:title>Matplotlib v3.8.0, https://matplotlib.org/</dc:title>
          </cc:Agent>
        </dc:creator>
      </cc:Work>
    </rdf:RDF>
  </metadata>
  <defs
     id="defs1">
    <style
       type="text/css"
       id="style1">*{stroke-linejoin: round; stroke-linecap: butt}</style>
  </defs>
  <g
     id="figure_1">
    <g
       id="patch_1">
      <path
         d="M 0 288  L 720 288  L 720 0  L 0 0  z "
         style="fill: #ffffff"
         id="path1" />
    </g>
    <g
       id="axes_1">
      <g
         id="patch_2">
        <path
           d="M 90 256.32  L 648 256.32  L 648 34.56  L 90 34.56  z "
           style="fill: #ffffff"
           id="path2" />
      </g>
      <g
         id="matplotlib.axis_1">
        <g
           id="xtick_1">
          <g
             id="line2d_1">
            <defs
               id="defs2">
              <path
                 id="m4e647ccc60"
                 d="M 0 0  L 0 3.5  "
                 style="stroke: #000000; stroke-width: 0.8" />
            </defs>
            <g
               id="g2">
              <use
                 xlink:href="#m4e647ccc60"
                 x="90"
                 y="256.32"
                 style="stroke: #000000; stroke-width: 0.8"
                 id="use2" />
            </g>
          </g>
          <g
             id="text_1">
            <!-- 20 -->
            <g
               transform="translate(83.6375 270.918437) scale(0.1 -0.1)"
               id="g4">
              <defs
                 id="defs3">
                <path
                   id="DejaVuSans-32"
                   d="M 1228 531  L 3431 531  L 3431 0  L 469 0  L 469 531  Q 828 903 1448 1529  Q 2069 2156 2228 2338  Q 2531 2678 2651 2914  Q 2772 3150 2772 3378  Q 2772 3750 2511 3984  Q 2250 4219 1831 4219  Q 1534 4219 1204 4116  Q 875 4013 500 3803  L 500 4441  Q 881 4594 1212 4672  Q 1544 4750 1819 4750  Q 2544 4750 2975 4387  Q 3406 4025 3406 3419  Q 3406 3131 3298 2873  Q 3191 2616 2906 2266  Q 2828 2175 2409 1742  Q 1991 1309 1228 531  z "
                   transform="scale(0.015625)" />
                <path
                   id="DejaVuSans-30"
                   d="M 2034 4250  Q 1547 4250 1301 3770  Q 1056 3291 1056 2328  Q 1056 1369 1301 889  Q 1547 409 2034 409  Q 2525 409 2770 889  Q 3016 1369 3016 2328  Q 3016 3291 2770 3770  Q 2525 4250 2034 4250  z M 2034 4750  Q 2819 4750 3233 4129  Q 3647 3509 3647 2328  Q 3647 1150 3233 529  Q 2819 -91 2034 -91  Q 1250 -91 836 529  Q 422 1150 422 2328  Q 422 3509 836 4129  Q 1250 4750 2034 4750  z "
                   transform="scale(0.015625)" />
              </defs>
              <use
                 xlink:href="#DejaVuSans-32"
                 id="use3" />
              <use
                 xlink:href="#DejaVuSans-30"
                 x="63.623047"
                 id="use4" />
            </g>
          </g>
        </g>
        <g
           id="xtick_2">
          <g
             id="line2d_2">
            <g
               id="g5">
              <use
                 xlink:href="#m4e647ccc60"
                 x="201.6"
                 y="256.32"
                 style="stroke: #000000; stroke-width: 0.8"
                 id="use5" />
            </g>
          </g>
          <g
             id="text_2">
            <!-- 40 -->
            <g
               transform="translate(195.2375 270.918437) scale(0.1 -0.1)"
               id="g7">
              <defs
                 id="defs5">
                <path
                   id="DejaVuSans-34"
                   d="M 2419 4116  L 825 1625  L 2419 1625  L 2419 4116  z M 2253 4666  L 3047 4666  L 3047 1625  L 3713 1625  L 3713 1100  L 3047 1100  L 3047 0  L 2419 0  L 2419 1100  L 313 1100  L 313 1709  L 2253 4666  z "
                   transform="scale(0.015625)" />
              </defs>
              <use
                 xlink:href="#DejaVuSans-34"
                 id="use6" />
              <use
                 xlink:href="#DejaVuSans-30"
                 x="63.623047"
                 id="use7" />
            </g>
          </g>
        </g>
        <g
           id="xtick_3">
          <g
             id="line2d_3">
            <g
               id="g8">
              <use
                 xlink:href="#m4e647ccc60"
                 x="313.2"
                 y="256.32"
                 style="stroke: #000000; stroke-width: 0.8"
                 id="use8" />
            </g>
          </g>
          <g
             id="text_3">
            <!-- 60 -->
            <g
               transform="translate(306.8375 270.918437) scale(0.1 -0.1)"
               id="g10">
              <defs
                 id="defs8">
                <path
                   id="DejaVuSans-36"
                   d="M 2113 2584  Q 1688 2584 1439 2293  Q 1191 2003 1191 1497  Q 1191 994 1439 701  Q 1688 409 2113 409  Q 2538 409 2786 701  Q 3034 994 3034 1497  Q 3034 2003 2786 2293  Q 2538 2584 2113 2584  z M 3366 4563  L 3366 3988  Q 3128 4100 2886 4159  Q 2644 4219 2406 4219  Q 1781 4219 1451 3797  Q 1122 3375 1075 2522  Q 1259 2794 1537 2939  Q 1816 3084 2150 3084  Q 2853 3084 3261 2657  Q 3669 2231 3669 1497  Q 3669 778 3244 343  Q 2819 -91 2113 -91  Q 1303 -91 875 529  Q 447 1150 447 2328  Q 447 3434 972 4092  Q 1497 4750 2381 4750  Q 2619 4750 2861 4703  Q 3103 4656 3366 4563  z "
                   transform="scale(0.015625)" />
              </defs>
              <use
                 xlink:href="#DejaVuSans-36"
                 id="use9" />
              <use
                 xlink:href="#DejaVuSans-30"
                 x="63.623047"
                 id="use10" />
            </g>
          </g>
        </g>
        <g
           id="xtick_4">
          <g
             id="line2d_4">
            <g
               id="g11">
              <use
                 xlink:href="#m4e647ccc60"
                 x="424.8"
                 y="256.32"
                 style="stroke: #000000; stroke-width: 0.8"
                 id="use11" />
            </g>
          </g>
          <g
             id="text_4">
            <!-- 80 -->
            <g
               transform="translate(418.4375 270.918437) scale(0.1 -0.1)"
               id="g13">
              <defs
                 id="defs11">
                <path
                   id="DejaVuSans-38"
                   d="M 2034 2216  Q 1584 2216 1326 1975  Q 1069 1734 1069 1313  Q 1069 891 1326 650  Q 1584 409 2034 409  Q 2484 409 2743 651  Q 3003 894 3003 1313  Q 3003 1734 2745 1975  Q 2488 2216 2034 2216  z M 1403 2484  Q 997 2584 770 2862  Q 544 3141 544 3541  Q 544 4100 942 4425  Q 1341 4750 2034 4750  Q 2731 4750 3128 4425  Q 3525 4100 3525 3541  Q 3525 3141 3298 2862  Q 3072 2584 2669 2484  Q 3125 2378 3379 2068  Q 3634 1759 3634 1313  Q 3634 634 3220 271  Q 2806 -91 2034 -91  Q 1263 -91 848 271  Q 434 634 434 1313  Q 434 1759 690 2068  Q 947 2378 1403 2484  z M 1172 3481  Q 1172 3119 1398 2916  Q 1625 2713 2034 2713  Q 2441 2713 2670 2916  Q 2900 3119 2900 3481  Q 2900 3844 2670 4047  Q 2441 4250 2034 4250  Q 1625 4250 1398 4047  Q 1172 3844 1172 3481  z "
                   transform="scale(0.015625)" />
              </defs>
              <use
                 xlink:href="#DejaVuSans-38"
                 id="use12" />
              <use
                 xlink:href="#DejaVuSans-30"
                 x="63.623047"
                 id="use13" />
            </g>
          </g>
        </g>
        <g
           id="xtick_5">
          <g
             id="line2d_5">
            <g
               id="g14">
              <use
                 xlink:href="#m4e647ccc60"
                 x="536.4"
                 y="256.32"
                 style="stroke: #000000; stroke-width: 0.8"
                 id="use14" />
            </g>
          </g>
          <g
             id="text_5">
            <!-- 100 -->
            <g
               transform="translate(526.85625 270.918437) scale(0.1 -0.1)"
               id="g17">
              <defs
                 id="defs14">
                <path
                   id="DejaVuSans-31"
                   d="M 794 531  L 1825 531  L 1825 4091  L 703 3866  L 703 4441  L 1819 4666  L 2450 4666  L 2450 531  L 3481 531  L 3481 0  L 794 0  L 794 531  z "
                   transform="scale(0.015625)" />
              </defs>
              <use
                 xlink:href="#DejaVuSans-31"
                 id="use15" />
              <use
                 xlink:href="#DejaVuSans-30"
                 x="63.623047"
                 id="use16" />
              <use
                 xlink:href="#DejaVuSans-30"
                 x="127.246094"
                 id="use17" />
            </g>
          </g>
        </g>
        <g
           id="xtick_6">
          <g
             id="line2d_6">
            <g
               id="g18">
              <use
                 xlink:href="#m4e647ccc60"
                 x="648"
                 y="256.32"
                 style="stroke: #000000; stroke-width: 0.8"
                 id="use18" />
            </g>
          </g>
          <g
             id="text_6">
            <!-- 120 -->
            <g
               transform="translate(638.45625 270.918437) scale(0.1 -0.1)"
               id="g21">
              <use
                 xlink:href="#DejaVuSans-31"
                 id="use19" />
              <use
                 xlink:href="#DejaVuSans-32"
                 x="63.623047"
                 id="use20" />
              <use
                 xlink:href="#DejaVuSans-30"
                 x="127.246094"
                 id="use21" />
            </g>
          </g>
        </g>
        <g
           id="text_7">
          <!-- Pixel Intensity -->
          <g
             transform="translate(334.088281 284.596563) scale(0.1 -0.1)"
             id="g36">
            <defs
               id="defs21">
              <path
                 id="DejaVuSans-50"
                 d="M 1259 4147  L 1259 2394  L 2053 2394  Q 2494 2394 2734 2622  Q 2975 2850 2975 3272  Q 2975 3691 2734 3919  Q 2494 4147 2053 4147  L 1259 4147  z M 628 4666  L 2053 4666  Q 2838 4666 3239 4311  Q 3641 3956 3641 3272  Q 3641 2581 3239 2228  Q 2838 1875 2053 1875  L 1259 1875  L 1259 0  L 628 0  L 628 4666  z "
                 transform="scale(0.015625)" />
              <path
                 id="DejaVuSans-69"
                 d="M 603 3500  L 1178 3500  L 1178 0  L 603 0  L 603 3500  z M 603 4863  L 1178 4863  L 1178 4134  L 603 4134  L 603 4863  z "
                 transform="scale(0.015625)" />
              <path
                 id="DejaVuSans-78"
                 d="M 3513 3500  L 2247 1797  L 3578 0  L 2900 0  L 1881 1375  L 863 0  L 184 0  L 1544 1831  L 300 3500  L 978 3500  L 1906 2253  L 2834 3500  L 3513 3500  z "
                 transform="scale(0.015625)" />
              <path
                 id="DejaVuSans-65"
                 d="M 3597 1894  L 3597 1613  L 953 1613  Q 991 1019 1311 708  Q 1631 397 2203 397  Q 2534 397 2845 478  Q 3156 559 3463 722  L 3463 178  Q 3153 47 2828 -22  Q 2503 -91 2169 -91  Q 1331 -91 842 396  Q 353 884 353 1716  Q 353 2575 817 3079  Q 1281 3584 2069 3584  Q 2775 3584 3186 3129  Q 3597 2675 3597 1894  z M 3022 2063  Q 3016 2534 2758 2815  Q 2500 3097 2075 3097  Q 1594 3097 1305 2825  Q 1016 2553 972 2059  L 3022 2063  z "
                 transform="scale(0.015625)" />
              <path
                 id="DejaVuSans-6c"
                 d="M 603 4863  L 1178 4863  L 1178 0  L 603 0  L 603 4863  z "
                 transform="scale(0.015625)" />
              <path
                 id="DejaVuSans-20"
                 transform="scale(0.015625)" />
              <path
                 id="DejaVuSans-49"
                 d="M 628 4666  L 1259 4666  L 1259 0  L 628 0  L 628 4666  z "
                 transform="scale(0.015625)" />
              <path
                 id="DejaVuSans-6e"
                 d="M 3513 2113  L 3513 0  L 2938 0  L 2938 2094  Q 2938 2591 2744 2837  Q 2550 3084 2163 3084  Q 1697 3084 1428 2787  Q 1159 2491 1159 1978  L 1159 0  L 581 0  L 581 3500  L 1159 3500  L 1159 2956  Q 1366 3272 1645 3428  Q 1925 3584 2291 3584  Q 2894 3584 3203 3211  Q 3513 2838 3513 2113  z "
                 transform="scale(0.015625)" />
              <path
                 id="DejaVuSans-74"
                 d="M 1172 4494  L 1172 3500  L 2356 3500  L 2356 3053  L 1172 3053  L 1172 1153  Q 1172 725 1289 603  Q 1406 481 1766 481  L 2356 481  L 2356 0  L 1766 0  Q 1100 0 847 248  Q 594 497 594 1153  L 594 3053  L 172 3053  L 172 3500  L 594 3500  L 594 4494  L 1172 4494  z "
                 transform="scale(0.015625)" />
              <path
                 id="DejaVuSans-73"
                 d="M 2834 3397  L 2834 2853  Q 2591 2978 2328 3040  Q 2066 3103 1784 3103  Q 1356 3103 1142 2972  Q 928 2841 928 2578  Q 928 2378 1081 2264  Q 1234 2150 1697 2047  L 1894 2003  Q 2506 1872 2764 1633  Q 3022 1394 3022 966  Q 3022 478 2636 193  Q 2250 -91 1575 -91  Q 1294 -91 989 -36  Q 684 19 347 128  L 347 722  Q 666 556 975 473  Q 1284 391 1588 391  Q 1994 391 2212 530  Q 2431 669 2431 922  Q 2431 1156 2273 1281  Q 2116 1406 1581 1522  L 1381 1569  Q 847 1681 609 1914  Q 372 2147 372 2553  Q 372 3047 722 3315  Q 1072 3584 1716 3584  Q 2034 3584 2315 3537  Q 2597 3491 2834 3397  z "
                 transform="scale(0.015625)" />
              <path
                 id="DejaVuSans-79"
                 d="M 2059 -325  Q 1816 -950 1584 -1140  Q 1353 -1331 966 -1331  L 506 -1331  L 506 -850  L 844 -850  Q 1081 -850 1212 -737  Q 1344 -625 1503 -206  L 1606 56  L 191 3500  L 800 3500  L 1894 763  L 2988 3500  L 3597 3500  L 2059 -325  z "
                 transform="scale(0.015625)" />
            </defs>
            <use
               xlink:href="#DejaVuSans-50"
               id="use22" />
            <use
               xlink:href="#DejaVuSans-69"
               x="58.052734"
               id="use23" />
            <use
               xlink:href="#DejaVuSans-78"
               x="85.835938"
               id="use24" />
            <use
               xlink:href="#DejaVuSans-65"
               x="141.890625"
               id="use25" />
            <use
               xlink:href="#DejaVuSans-6c"
               x="203.414062"
               id="use26" />
            <use
               xlink:href="#DejaVuSans-20"
               x="231.197266"
               id="use27" />
            <use
               xlink:href="#DejaVuSans-49"
               x="262.984375"
               id="use28" />
            <use
               xlink:href="#DejaVuSans-6e"
               x="292.476562"
               id="use29" />
            <use
               xlink:href="#DejaVuSans-74"
               x="355.855469"
               id="use30" />
            <use
               xlink:href="#DejaVuSans-65"
               x="395.064453"
               id="use31" />
            <use
               xlink:href="#DejaVuSans-6e"
               x="456.587891"
               id="use32" />
            <use
               xlink:href="#DejaVuSans-73"
               x="519.966797"
               id="use33" />
            <use
               xlink:href="#DejaVuSans-69"
               x="572.066406"
               id="use34" />
            <use
               xlink:href="#DejaVuSans-74"
               x="599.849609"
               id="use35" />
            <use
               xlink:href="#DejaVuSans-79"
               x="639.058594"
               id="use36" />
          </g>
        </g>
      </g>
      <g
         id="matplotlib.axis_2">
        <g
           id="ytick_1">
          <g
             id="line2d_7">
            <defs
               id="defs36">
              <path
                 id="medefa43f4c"
                 d="M 0 0  L -3.5 0  "
                 style="stroke: #000000; stroke-width: 0.8" />
            </defs>
            <g
               id="g37">
              <use
                 xlink:href="#medefa43f4c"
                 x="90"
                 y="246.24"
                 style="stroke: #000000; stroke-width: 0.8"
                 id="use37" />
            </g>
          </g>
          <g
             id="text_8">
            <!-- 0 -->
            <g
               transform="translate(76.6375 250.039219) scale(0.1 -0.1)"
               id="g38">
              <use
                 xlink:href="#DejaVuSans-30"
                 id="use38" />
            </g>
          </g>
        </g>
        <g
           id="ytick_2">
          <g
             id="line2d_8">
            <g
               id="g39">
              <use
                 xlink:href="#medefa43f4c"
                 x="90"
                 y="201.618486"
                 style="stroke: #000000; stroke-width: 0.8"
                 id="use39" />
            </g>
          </g>
          <g
             id="text_9">
            <!-- 500 -->
            <g
               transform="translate(63.9125 205.417705) scale(0.1 -0.1)"
               id="g42">
              <defs
                 id="defs39">
                <path
                   id="DejaVuSans-35"
                   d="M 691 4666  L 3169 4666  L 3169 4134  L 1269 4134  L 1269 2991  Q 1406 3038 1543 3061  Q 1681 3084 1819 3084  Q 2600 3084 3056 2656  Q 3513 2228 3513 1497  Q 3513 744 3044 326  Q 2575 -91 1722 -91  Q 1428 -91 1123 -41  Q 819 9 494 109  L 494 744  Q 775 591 1075 516  Q 1375 441 1709 441  Q 2250 441 2565 725  Q 2881 1009 2881 1497  Q 2881 1984 2565 2268  Q 2250 2553 1709 2553  Q 1456 2553 1204 2497  Q 953 2441 691 2322  L 691 4666  z "
                   transform="scale(0.015625)" />
              </defs>
              <use
                 xlink:href="#DejaVuSans-35"
                 id="use40" />
              <use
                 xlink:href="#DejaVuSans-30"
                 x="63.623047"
                 id="use41" />
              <use
                 xlink:href="#DejaVuSans-30"
                 x="127.246094"
                 id="use42" />
            </g>
          </g>
        </g>
        <g
           id="ytick_3">
          <g
             id="line2d_9">
            <g
               id="g43">
              <use
                 xlink:href="#medefa43f4c"
                 x="90"
                 y="156.996972"
                 style="stroke: #000000; stroke-width: 0.8"
                 id="use43" />
            </g>
          </g>
          <g
             id="text_10">
            <!-- 1000 -->
            <g
               transform="translate(57.55 160.796191) scale(0.1 -0.1)"
               id="g47">
              <use
                 xlink:href="#DejaVuSans-31"
                 id="use44" />
              <use
                 xlink:href="#DejaVuSans-30"
                 x="63.623047"
                 id="use45" />
              <use
                 xlink:href="#DejaVuSans-30"
                 x="127.246094"
                 id="use46" />
              <use
                 xlink:href="#DejaVuSans-30"
                 x="190.869141"
                 id="use47" />
            </g>
          </g>
        </g>
        <g
           id="ytick_4">
          <g
             id="line2d_10">
            <g
               id="g48">
              <use
                 xlink:href="#medefa43f4c"
                 x="90"
                 y="112.375458"
                 style="stroke: #000000; stroke-width: 0.8"
                 id="use48" />
            </g>
          </g>
          <g
             id="text_11">
            <!-- 1500 -->
            <g
               transform="translate(57.55 116.174677) scale(0.1 -0.1)"
               id="g52">
              <use
                 xlink:href="#DejaVuSans-31"
                 id="use49" />
              <use
                 xlink:href="#DejaVuSans-35"
                 x="63.623047"
                 id="use50" />
              <use
                 xlink:href="#DejaVuSans-30"
                 x="127.246094"
                 id="use51" />
              <use
                 xlink:href="#DejaVuSans-30"
                 x="190.869141"
                 id="use52" />
            </g>
          </g>
        </g>
        <g
           id="ytick_5">
          <g
             id="line2d_11">
            <g
               id="g53">
              <use
                 xlink:href="#medefa43f4c"
                 x="90"
                 y="67.753944"
                 style="stroke: #000000; stroke-width: 0.8"
                 id="use53" />
            </g>
          </g>
          <g
             id="text_12">
            <!-- 2000 -->
            <g
               transform="translate(57.55 71.553163) scale(0.1 -0.1)"
               id="g57">
              <use
                 xlink:href="#DejaVuSans-32"
                 id="use54" />
              <use
                 xlink:href="#DejaVuSans-30"
                 x="63.623047"
                 id="use55" />
              <use
                 xlink:href="#DejaVuSans-30"
                 x="127.246094"
                 id="use56" />
              <use
                 xlink:href="#DejaVuSans-30"
                 x="190.869141"
                 id="use57" />
            </g>
          </g>
        </g>
        <g
           id="text_13">
          <!-- Frequency -->
          <g
             transform="translate(51.470312 171.269688) rotate(-90) scale(0.1 -0.1)"
             id="g66">
            <defs
               id="defs57">
              <path
                 id="DejaVuSans-46"
                 d="M 628 4666  L 3309 4666  L 3309 4134  L 1259 4134  L 1259 2759  L 3109 2759  L 3109 2228  L 1259 2228  L 1259 0  L 628 0  L 628 4666  z "
                 transform="scale(0.015625)" />
              <path
                 id="DejaVuSans-72"
                 d="M 2631 2963  Q 2534 3019 2420 3045  Q 2306 3072 2169 3072  Q 1681 3072 1420 2755  Q 1159 2438 1159 1844  L 1159 0  L 581 0  L 581 3500  L 1159 3500  L 1159 2956  Q 1341 3275 1631 3429  Q 1922 3584 2338 3584  Q 2397 3584 2469 3576  Q 2541 3569 2628 3553  L 2631 2963  z "
                 transform="scale(0.015625)" />
              <path
                 id="DejaVuSans-71"
                 d="M 947 1747  Q 947 1113 1208 752  Q 1469 391 1925 391  Q 2381 391 2643 752  Q 2906 1113 2906 1747  Q 2906 2381 2643 2742  Q 2381 3103 1925 3103  Q 1469 3103 1208 2742  Q 947 2381 947 1747  z M 2906 525  Q 2725 213 2448 61  Q 2172 -91 1784 -91  Q 1150 -91 751 415  Q 353 922 353 1747  Q 353 2572 751 3078  Q 1150 3584 1784 3584  Q 2172 3584 2448 3432  Q 2725 3281 2906 2969  L 2906 3500  L 3481 3500  L 3481 -1331  L 2906 -1331  L 2906 525  z "
                 transform="scale(0.015625)" />
              <path
                 id="DejaVuSans-75"
                 d="M 544 1381  L 544 3500  L 1119 3500  L 1119 1403  Q 1119 906 1312 657  Q 1506 409 1894 409  Q 2359 409 2629 706  Q 2900 1003 2900 1516  L 2900 3500  L 3475 3500  L 3475 0  L 2900 0  L 2900 538  Q 2691 219 2414 64  Q 2138 -91 1772 -91  Q 1169 -91 856 284  Q 544 659 544 1381  z M 1991 3584  L 1991 3584  z "
                 transform="scale(0.015625)" />
              <path
                 id="DejaVuSans-63"
                 d="M 3122 3366  L 3122 2828  Q 2878 2963 2633 3030  Q 2388 3097 2138 3097  Q 1578 3097 1268 2742  Q 959 2388 959 1747  Q 959 1106 1268 751  Q 1578 397 2138 397  Q 2388 397 2633 464  Q 2878 531 3122 666  L 3122 134  Q 2881 22 2623 -34  Q 2366 -91 2075 -91  Q 1284 -91 818 406  Q 353 903 353 1747  Q 353 2603 823 3093  Q 1294 3584 2113 3584  Q 2378 3584 2631 3529  Q 2884 3475 3122 3366  z "
                 transform="scale(0.015625)" />
            </defs>
            <use
               xlink:href="#DejaVuSans-46"
               id="use58" />
            <use
               xlink:href="#DejaVuSans-72"
               x="50.269531"
               id="use59" />
            <use
               xlink:href="#DejaVuSans-65"
               x="89.132812"
               id="use60" />
            <use
               xlink:href="#DejaVuSans-71"
               x="150.65625"
               id="use61" />
            <use
               xlink:href="#DejaVuSans-75"
               x="214.132812"
               id="use62" />
            <use
               xlink:href="#DejaVuSans-65"
               x="277.511719"
               id="use63" />
            <use
               xlink:href="#DejaVuSans-6e"
               x="339.035156"
               id="use64" />
            <use
               xlink:href="#DejaVuSans-63"
               x="402.414062"
               id="use65" />
            <use
               xlink:href="#DejaVuSans-79"
               x="457.394531"
               id="use66" />
          </g>
        </g>
      </g>
      <g
         id="line2d_12">
        <path
           d="m -1,246.24 h 169.12 l 5.58,-0.80319 5.58,-0.26773 5.58,-2.58804 5.58,-10.9769 5.58,-18.74103 5.58,-18.20558 5.58,-30.6996 3.71773,-29.50881 7.44227,-54.379638 4.1833,-29.377106 7.44227,42.635056 5.11443,20.118938 5.58,18.74104 7.90784,-5.38354 3.25216,16.98513 5.58,-1.96334 5.58,2.58804 5.58,12.94024 5.58,3.9267 0.92433,13.20741 10.23567,-5.17554 5.58,1.78486 5.58,7.76414 5.58,3.74821 5.58,-1.42789 5.58,4.72988 5.58,-0.44621 5.58,2.76653 5.58,0.80319 5.58,-2.23108 5.58,5.62231 5.58,3.12351 5.58,-0.44622 5.58,1.33865 5.58,-0.0892 5.58,-0.44622 5.58,4.19442 5.58,-1.42788 5.58,2.05259 5.58,4.64063 5.58,1.07092 5.58,-0.80319 5.58,3.21275 5.58,-0.35697 5.58,3.74821 5.58,2.67729 5.58,0.89243 5.58,-0.89243 5.58,1.51713 5.58,-2.23108 5.58,4.99761 5.58,0.0892 5.58,1.51713 5.58,0.0892 5.58,3.39123 5.58,-3.39123 5.58,3.92669 5.58,1.69562 5.58,-1.8741 5.58,3.21275 5.58,-1.78486 5.58,2.4988 5.58,0.6247 5.58,-0.53546 5.58,0.53546 5.58,1.16016 5.58,0.98167 5.58,-0.44621 5.58,-1.69562 5.58,0.53546 5.58,2.4988 11.16,0.35698 h 5.58 l 5.58,-1.16016 5.58,0.0892 5.58,0.6247 5.58,-1.60637 5.58,2.32032 5.58,-0.17849 5.58,-2.05259 5.58,4.19442 5.58,0.17849 h 5.58 l 5.58,-0.6247 5.58,-0.44622 5.58,0.35697 5.58,0.17849 5.58,-0.6247 5.58,0.98167 5.58,1.33865 5.58,1.8741 5.58,-2.05259 5.58,-0.26773 5.58,-0.0892 5.58,-0.35697 5.58,1.69561 5.58,0.53546 5.58,0.80319 0.46,-0.13978 v 0"
           clip-path="url(#p67e7421998)"
           style="fill:none;stroke:#1f77b4;stroke-width:1.5;stroke-linecap:square"
           id="path66"
           sodipodi:nodetypes="cccccccccccccccccccccccccccccccccccccccccccccccccccccccccccccccccccccccccccccccccccccccccccccccccccccc" />
      </g>
      <g
         id="line2d_13">
        <path
           d="m -1,246.24 h 146.8 l 5.58,-0.26773 h 5.58 l 5.58,-0.44621 5.58,-1.16016 5.58,-3.302 5.58,-5.97928 5.58,-10.70916 5.58,-11.95857 5.58,-19.09801 5.58,-25.34502 5.58,-28.11155 5.58,-25.16653 5.58,-18.919525 3.48495,-14.579333 7.67505,28.501248 3.71773,9.71134 2.55381,13.54183 10.46846,-0.40696 5.58,10.44144 5.58,4.99761 5.58,8.21035 5.58,3.48048 5.58,4.99761 5.58,3.9267 5.58,3.30199 5.58,5.17609 5.58,1.33865 5.58,0.26773 5.58,1.16016 5.58,2.32032 5.58,6.51474 5.58,-4.5514 5.58,4.81913 5.58,0.71394 5.58,0.98167 5.58,0.44622 5.58,6.69323 5.58,-4.28367 5.58,4.81912 5.58,1.24941 5.58,0.71394 5.58,-1.42789 5.58,3.56972 5.58,0.0892 5.58,3.65896 5.58,3.12351 5.58,0.98167 5.58,-0.89243 5.58,3.39123 5.58,-1.78486 5.58,2.85578 5.58,1.33865 5.58,3.03426 5.58,1.60637 5.58,0.98168 5.58,0.53545 5.58,-0.17848 5.58,3.65896 5.58,-3.65896 5.58,3.92669 5.58,0.0892 5.58,1.87411 5.58,1.33864 5.58,1.51714 5.58,-2.14184 5.58,3.03427 5.58,-0.80319 5.58,-0.35697 5.58,-0.71395 5.58,1.96335 5.58,-0.35697 5.58,1.2494 5.58,1.78486 5.58,-1.78486 5.58,1.96335 5.58,-1.60638 5.58,1.42789 5.58,-0.53546 5.58,-0.26773 5.58,0.98168 5.58,-0.71395 5.58,-0.17848 5.58,0.80318 h 5.58 l 5.58,-0.80318 5.58,0.35697 5.58,0.80318 5.58,-1.16015 5.58,2.76653 H 648 l 5.58,-0.26773 5.58,-0.89243 5.58,0.89243 5.58,0.0892 5.58,-0.44621 5.58,-0.0893 5.58,1.87411 5.58,-1.07092 5.58,1.2494 5.58,-0.26772 5.58,1.33864 5.58,-1.42789 6.04,0.57225 v 0"
           clip-path="url(#p67e7421998)"
           style="fill:none;stroke:#ff7f0e;stroke-width:1.5;stroke-linecap:square"
           id="path67"
           sodipodi:nodetypes="cccccccccccccccccccccccccccccccccccccccccccccccccccccccccccccccccccccccccccccccccccccccccccccccccccccccccc" />
      </g>
      <g
         id="patch_3">
        <path
           d="M 90 256.32  L 90 34.56  "
           style="fill: none; stroke: #000000; stroke-width: 0.8; stroke-linejoin: miter; stroke-linecap: square"
           id="path68" />
      </g>
      <g
         id="patch_4">
        <path
           d="M 648 256.32  L 648 34.56  "
           style="fill: none; stroke: #000000; stroke-width: 0.8; stroke-linejoin: miter; stroke-linecap: square"
           id="path69" />
      </g>
      <g
         id="patch_5">
        <path
           d="M 90 256.32  L 648 256.32  "
           style="fill: none; stroke: #000000; stroke-width: 0.8; stroke-linejoin: miter; stroke-linecap: square"
           id="path70" />
      </g>
      <g
         id="patch_6">
        <path
           d="M 90 34.56  L 648 34.56  "
           style="fill: none; stroke: #000000; stroke-width: 0.8; stroke-linejoin: miter; stroke-linecap: square"
           id="path71" />
      </g>
      <g
         id="legend_1">
        <g
           id="patch_7">
          <path
             d="M 527.065625 71.91625  L 641 71.91625  Q 643 71.91625 643 69.91625  L 643 41.56  Q 643 39.56 641 39.56  L 527.065625 39.56  Q 525.065625 39.56 525.065625 41.56  L 525.065625 69.91625  Q 525.065625 71.91625 527.065625 71.91625  z "
             style="fill: #ffffff; opacity: 0.8; stroke: #cccccc; stroke-linejoin: miter"
             id="path72" />
        </g>
        <g
           id="line2d_14">
          <path
             d="M 529.065625 47.658437  L 539.065625 47.658437  L 549.065625 47.658437  "
             style="fill: none; stroke: #1f77b4; stroke-width: 1.5; stroke-linecap: square"
             id="path73" />
        </g>
        <g
           id="text_14">
          <!-- Original image -->
          <g
             transform="translate(557.065625 51.158437) scale(0.1 -0.1)"
             id="g86">
            <defs
               id="defs73">
              <path
                 id="DejaVuSans-4f"
                 d="M 2522 4238  Q 1834 4238 1429 3725  Q 1025 3213 1025 2328  Q 1025 1447 1429 934  Q 1834 422 2522 422  Q 3209 422 3611 934  Q 4013 1447 4013 2328  Q 4013 3213 3611 3725  Q 3209 4238 2522 4238  z M 2522 4750  Q 3503 4750 4090 4092  Q 4678 3434 4678 2328  Q 4678 1225 4090 567  Q 3503 -91 2522 -91  Q 1538 -91 948 565  Q 359 1222 359 2328  Q 359 3434 948 4092  Q 1538 4750 2522 4750  z "
                 transform="scale(0.015625)" />
              <path
                 id="DejaVuSans-67"
                 d="M 2906 1791  Q 2906 2416 2648 2759  Q 2391 3103 1925 3103  Q 1463 3103 1205 2759  Q 947 2416 947 1791  Q 947 1169 1205 825  Q 1463 481 1925 481  Q 2391 481 2648 825  Q 2906 1169 2906 1791  z M 3481 434  Q 3481 -459 3084 -895  Q 2688 -1331 1869 -1331  Q 1566 -1331 1297 -1286  Q 1028 -1241 775 -1147  L 775 -588  Q 1028 -725 1275 -790  Q 1522 -856 1778 -856  Q 2344 -856 2625 -561  Q 2906 -266 2906 331  L 2906 616  Q 2728 306 2450 153  Q 2172 0 1784 0  Q 1141 0 747 490  Q 353 981 353 1791  Q 353 2603 747 3093  Q 1141 3584 1784 3584  Q 2172 3584 2450 3431  Q 2728 3278 2906 2969  L 2906 3500  L 3481 3500  L 3481 434  z "
                 transform="scale(0.015625)" />
              <path
                 id="DejaVuSans-61"
                 d="M 2194 1759  Q 1497 1759 1228 1600  Q 959 1441 959 1056  Q 959 750 1161 570  Q 1363 391 1709 391  Q 2188 391 2477 730  Q 2766 1069 2766 1631  L 2766 1759  L 2194 1759  z M 3341 1997  L 3341 0  L 2766 0  L 2766 531  Q 2569 213 2275 61  Q 1981 -91 1556 -91  Q 1019 -91 701 211  Q 384 513 384 1019  Q 384 1609 779 1909  Q 1175 2209 1959 2209  L 2766 2209  L 2766 2266  Q 2766 2663 2505 2880  Q 2244 3097 1772 3097  Q 1472 3097 1187 3025  Q 903 2953 641 2809  L 641 3341  Q 956 3463 1253 3523  Q 1550 3584 1831 3584  Q 2591 3584 2966 3190  Q 3341 2797 3341 1997  z "
                 transform="scale(0.015625)" />
              <path
                 id="DejaVuSans-6d"
                 d="M 3328 2828  Q 3544 3216 3844 3400  Q 4144 3584 4550 3584  Q 5097 3584 5394 3201  Q 5691 2819 5691 2113  L 5691 0  L 5113 0  L 5113 2094  Q 5113 2597 4934 2840  Q 4756 3084 4391 3084  Q 3944 3084 3684 2787  Q 3425 2491 3425 1978  L 3425 0  L 2847 0  L 2847 2094  Q 2847 2600 2669 2842  Q 2491 3084 2119 3084  Q 1678 3084 1418 2786  Q 1159 2488 1159 1978  L 1159 0  L 581 0  L 581 3500  L 1159 3500  L 1159 2956  Q 1356 3278 1631 3431  Q 1906 3584 2284 3584  Q 2666 3584 2933 3390  Q 3200 3197 3328 2828  z "
                 transform="scale(0.015625)" />
            </defs>
            <use
               xlink:href="#DejaVuSans-4f"
               id="use73" />
            <use
               xlink:href="#DejaVuSans-72"
               x="78.710938"
               id="use74" />
            <use
               xlink:href="#DejaVuSans-69"
               x="119.824219"
               id="use75" />
            <use
               xlink:href="#DejaVuSans-67"
               x="147.607422"
               id="use76" />
            <use
               xlink:href="#DejaVuSans-69"
               x="211.083984"
               id="use77" />
            <use
               xlink:href="#DejaVuSans-6e"
               x="238.867188"
               id="use78" />
            <use
               xlink:href="#DejaVuSans-61"
               x="302.246094"
               id="use79" />
            <use
               xlink:href="#DejaVuSans-6c"
               x="363.525391"
               id="use80" />
            <use
               xlink:href="#DejaVuSans-20"
               x="391.308594"
               id="use81" />
            <use
               xlink:href="#DejaVuSans-69"
               x="423.095703"
               id="use82" />
            <use
               xlink:href="#DejaVuSans-6d"
               x="450.878906"
               id="use83" />
            <use
               xlink:href="#DejaVuSans-61"
               x="548.291016"
               id="use84" />
            <use
               xlink:href="#DejaVuSans-67"
               x="609.570312"
               id="use85" />
            <use
               xlink:href="#DejaVuSans-65"
               x="673.046875"
               id="use86" />
          </g>
        </g>
        <g
           id="line2d_15">
          <path
             d="M 529.065625 62.336562  L 539.065625 62.336562  L 549.065625 62.336562  "
             style="fill: none; stroke: #ff7f0e; stroke-width: 1.5; stroke-linecap: square"
             id="path86" />
        </g>
        <g
           id="text_15">
          <!-- WGAN Denoised -->
          <g
             transform="translate(557.065625 65.836562) scale(0.1 -0.1)"
             id="g99">
            <defs
               id="defs86">
              <path
                 id="DejaVuSans-57"
                 d="M 213 4666  L 850 4666  L 1831 722  L 2809 4666  L 3519 4666  L 4500 722  L 5478 4666  L 6119 4666  L 4947 0  L 4153 0  L 3169 4050  L 2175 0  L 1381 0  L 213 4666  z "
                 transform="scale(0.015625)" />
              <path
                 id="DejaVuSans-47"
                 d="M 3809 666  L 3809 1919  L 2778 1919  L 2778 2438  L 4434 2438  L 4434 434  Q 4069 175 3628 42  Q 3188 -91 2688 -91  Q 1594 -91 976 548  Q 359 1188 359 2328  Q 359 3472 976 4111  Q 1594 4750 2688 4750  Q 3144 4750 3555 4637  Q 3966 4525 4313 4306  L 4313 3634  Q 3963 3931 3569 4081  Q 3175 4231 2741 4231  Q 1884 4231 1454 3753  Q 1025 3275 1025 2328  Q 1025 1384 1454 906  Q 1884 428 2741 428  Q 3075 428 3337 486  Q 3600 544 3809 666  z "
                 transform="scale(0.015625)" />
              <path
                 id="DejaVuSans-41"
                 d="M 2188 4044  L 1331 1722  L 3047 1722  L 2188 4044  z M 1831 4666  L 2547 4666  L 4325 0  L 3669 0  L 3244 1197  L 1141 1197  L 716 0  L 50 0  L 1831 4666  z "
                 transform="scale(0.015625)" />
              <path
                 id="DejaVuSans-4e"
                 d="M 628 4666  L 1478 4666  L 3547 763  L 3547 4666  L 4159 4666  L 4159 0  L 3309 0  L 1241 3903  L 1241 0  L 628 0  L 628 4666  z "
                 transform="scale(0.015625)" />
              <path
                 id="DejaVuSans-44"
                 d="M 1259 4147  L 1259 519  L 2022 519  Q 2988 519 3436 956  Q 3884 1394 3884 2338  Q 3884 3275 3436 3711  Q 2988 4147 2022 4147  L 1259 4147  z M 628 4666  L 1925 4666  Q 3281 4666 3915 4102  Q 4550 3538 4550 2338  Q 4550 1131 3912 565  Q 3275 0 1925 0  L 628 0  L 628 4666  z "
                 transform="scale(0.015625)" />
              <path
                 id="DejaVuSans-6f"
                 d="M 1959 3097  Q 1497 3097 1228 2736  Q 959 2375 959 1747  Q 959 1119 1226 758  Q 1494 397 1959 397  Q 2419 397 2687 759  Q 2956 1122 2956 1747  Q 2956 2369 2687 2733  Q 2419 3097 1959 3097  z M 1959 3584  Q 2709 3584 3137 3096  Q 3566 2609 3566 1747  Q 3566 888 3137 398  Q 2709 -91 1959 -91  Q 1206 -91 779 398  Q 353 888 353 1747  Q 353 2609 779 3096  Q 1206 3584 1959 3584  z "
                 transform="scale(0.015625)" />
              <path
                 id="DejaVuSans-64"
                 d="M 2906 2969  L 2906 4863  L 3481 4863  L 3481 0  L 2906 0  L 2906 525  Q 2725 213 2448 61  Q 2172 -91 1784 -91  Q 1150 -91 751 415  Q 353 922 353 1747  Q 353 2572 751 3078  Q 1150 3584 1784 3584  Q 2172 3584 2448 3432  Q 2725 3281 2906 2969  z M 947 1747  Q 947 1113 1208 752  Q 1469 391 1925 391  Q 2381 391 2643 752  Q 2906 1113 2906 1747  Q 2906 2381 2643 2742  Q 2381 3103 1925 3103  Q 1469 3103 1208 2742  Q 947 2381 947 1747  z "
                 transform="scale(0.015625)" />
            </defs>
            <use
               xlink:href="#DejaVuSans-57"
               id="use87" />
            <use
               xlink:href="#DejaVuSans-47"
               x="98.876953"
               id="use88" />
            <use
               xlink:href="#DejaVuSans-41"
               x="176.367188"
               id="use89" />
            <use
               xlink:href="#DejaVuSans-4e"
               x="244.775391"
               id="use90" />
            <use
               xlink:href="#DejaVuSans-20"
               x="319.580078"
               id="use91" />
            <use
               xlink:href="#DejaVuSans-44"
               x="351.367188"
               id="use92" />
            <use
               xlink:href="#DejaVuSans-65"
               x="428.369141"
               id="use93" />
            <use
               xlink:href="#DejaVuSans-6e"
               x="489.892578"
               id="use94" />
            <use
               xlink:href="#DejaVuSans-6f"
               x="553.271484"
               id="use95" />
            <use
               xlink:href="#DejaVuSans-69"
               x="614.453125"
               id="use96" />
            <use
               xlink:href="#DejaVuSans-73"
               x="642.236328"
               id="use97" />
            <use
               xlink:href="#DejaVuSans-65"
               x="694.335938"
               id="use98" />
            <use
               xlink:href="#DejaVuSans-64"
               x="755.859375"
               id="use99" />
          </g>
        </g>
      </g>
    </g>
  </g>
  <defs
     id="defs99">
    <clipPath
       id="p67e7421998">
      <rect
         x="90"
         y="34.56"
         width="558"
         height="221.76"
         id="rect99" />
    </clipPath>
  </defs>
</svg>
