<?xml version="1.0" encoding="utf-8" standalone="no"?>
<!DOCTYPE svg PUBLIC "-//W3C//DTD SVG 1.1//EN"
  "http://www.w3.org/Graphics/SVG/1.1/DTD/svg11.dtd">
<svg xmlns:xlink="http://www.w3.org/1999/xlink" width="288pt" height="648pt" viewBox="0 0 288 648" xmlns="http://www.w3.org/2000/svg" version="1.1">
 <metadata>
  <rdf:RDF xmlns:dc="http://purl.org/dc/elements/1.1/" xmlns:cc="http://creativecommons.org/ns#" xmlns:rdf="http://www.w3.org/1999/02/22-rdf-syntax-ns#">
   <cc:Work>
    <dc:type rdf:resource="http://purl.org/dc/dcmitype/StillImage"/>
    <dc:date>2023-11-15T15:16:03.386859</dc:date>
    <dc:format>image/svg+xml</dc:format>
    <dc:creator>
     <cc:Agent>
      <dc:title>Matplotlib v3.8.0, https://matplotlib.org/</dc:title>
     </cc:Agent>
    </dc:creator>
   </cc:Work>
  </rdf:RDF>
 </metadata>
 <defs>
  <style type="text/css">*{stroke-linejoin: round; stroke-linecap: butt}</style>
 </defs>
 <g id="figure_1">
  <g id="patch_1">
   <path d="M 0 648 
L 288 648 
L 288 0 
L 0 0 
z
" style="fill: #ffffff"/>
  </g>
  <g id="axes_1">
   <g id="patch_2">
    <path d="M 57.17 190.626667 
L 267.705 190.626667 
L 267.705 10.8 
L 57.17 10.8 
z
" style="fill: #ffffff"/>
   </g>
   <g id="PolyCollection_1">
    <path d="M 15.063 182.452727 
L 15.063 182.452727 
L 17.16835 182.452727 
L 19.2737 181.924097 
L 21.37905 182.32057 
L 23.4844 182.32057 
L 25.58975 182.452727 
L 27.6951 182.452727 
L 29.80045 182.452727 
L 31.9058 182.452727 
L 34.01115 182.452727 
L 36.1165 182.452727 
L 38.22185 182.452727 
L 40.3272 182.452727 
L 42.43255 182.452727 
L 44.5379 182.452727 
L 46.64325 182.452727 
L 48.7486 182.452727 
L 50.85395 182.452727 
L 52.9593 182.452727 
L 55.06465 182.452727 
L 57.17 182.452727 
L 59.27535 182.452727 
L 61.3807 182.452727 
L 63.48605 182.452727 
L 65.5914 182.452727 
L 67.69675 182.452727 
L 69.8021 182.452727 
L 71.90745 182.452727 
L 74.0128 182.452727 
L 76.11815 182.32057 
L 78.2235 182.452727 
L 80.32885 182.452727 
L 82.4342 182.452727 
L 84.53955 182.452727 
L 86.6449 182.452727 
L 88.75025 182.452727 
L 90.8556 182.452727 
L 92.96095 182.452727 
L 95.0663 182.452727 
L 97.17165 182.452727 
L 99.277 182.452727 
L 101.38235 182.452727 
L 103.4877 182.452727 
L 105.59305 182.452727 
L 107.6984 182.452727 
L 109.80375 182.452727 
L 111.9091 182.452727 
L 114.01445 182.452727 
L 116.1198 182.452727 
L 118.22515 182.452727 
L 120.3305 182.452727 
L 122.43585 182.452727 
L 124.5412 182.452727 
L 126.64655 182.452727 
L 128.7519 182.452727 
L 130.85725 182.452727 
L 132.9626 182.452727 
L 135.06795 182.452727 
L 137.1733 182.452727 
L 139.27865 182.452727 
L 141.384 182.452727 
L 143.48935 182.452727 
L 145.5947 182.32057 
L 147.70005 182.32057 
L 149.8054 182.32057 
L 151.91075 182.452727 
L 154.0161 182.32057 
L 156.12145 182.32057 
L 158.2268 182.32057 
L 160.33215 182.188412 
L 162.4375 182.056255 
L 164.54285 181.659782 
L 166.6482 181.527625 
L 168.75355 181.395468 
L 170.8589 180.73468 
L 172.96425 180.470365 
L 175.0696 180.73468 
L 177.17495 180.338208 
L 179.2803 179.016633 
L 181.38565 178.620161 
L 183.491 176.373484 
L 185.59635 177.430743 
L 187.7017 175.448381 
L 189.80705 176.373484 
L 191.9124 172.93739 
L 194.01775 172.805232 
L 196.1231 170.955028 
L 198.22845 168.972666 
L 200.3338 169.501295 
L 202.43915 164.875784 
L 204.5445 159.193013 
L 206.64985 156.946336 
L 208.7552 152.849454 
L 210.86055 146.638053 
L 212.9659 136.594086 
L 215.07125 130.250527 
L 217.1766 119.545773 
L 219.28195 110.030435 
L 221.3873 96.021743 
L 223.49265 86.638563 
L 225.598 74.347918 
L 227.70335 68.268675 
L 229.8087 59.281967 
L 231.91405 47.916425 
L 234.0194 45.934063 
L 236.12475 32.189686 
L 238.2301 28.753592 
L 240.33545 24.392396 
L 242.4408 28.489277 
L 244.54615 20.691986 
L 246.6515 19.106097 
L 248.75685 27.564175 
L 250.8622 24.656711 
L 252.96755 22.145719 
L 255.0729 18.973939 
L 257.17825 31.661056 
L 259.2836 19.106097 
L 261.38895 28.489277 
L 263.4943 35.493623 
L 265.59965 36.286568 
L 267.705 37.872457 
L 269.81035 38.401087 
L 271.9157 41.969339 
L 274.02105 54.127826 
L 276.1264 50.427417 
L 278.23175 62.057274 
L 280.3371 69.59025 
L 282.44245 77.38754 
L 284.5478 78.841272 
L 286.65315 81.880894 
L 288.7585 92.585649 
L 290.86385 95.228798 
L 292.9692 100.250782 
L 295.07455 106.858656 
L 297.1799 102.497459 
L 299.28525 112.673584 
L 301.3906 122.453237 
L 303.49595 123.114024 
L 305.6013 118.752828 
L 307.70665 127.210906 
L 309.812 126.814433 
L 311.91735 132.365047 
L 314.0227 128.136008 
L 316.12805 131.968575 
L 318.2334 135.933299 
L 320.33875 141.61607 
L 322.4441 142.276857 
L 324.54945 150.074148 
L 326.6548 143.730589 
L 328.76015 144.787849 
L 330.8655 147.695313 
L 332.97085 151.131407 
L 335.0762 154.435344 
L 337.18155 155.756919 
L 339.2869 159.32517 
L 341.39225 158.003596 
L 343.4976 161.043217 
L 345.60295 159.985958 
L 347.7083 161.96832 
L 349.81365 165.404414 
L 351.919 163.289894 
L 354.02435 163.289894 
L 356.1297 166.990304 
L 358.23505 167.518933 
L 360.3404 166.593831 
L 362.44575 171.3515 
L 364.5511 170.029925 
L 366.65645 170.955028 
L 368.7618 168.708351 
L 370.86715 170.29424 
L 372.9725 170.690713 
L 375.07785 173.466019 
L 377.1832 173.333862 
L 379.28855 173.994649 
L 381.3939 173.994649 
L 383.49925 173.730334 
L 385.6046 174.126807 
L 387.70995 176.109169 
L 389.8153 174.523279 
L 391.92065 175.184067 
L 394.026 176.109169 
L 396.13135 174.258964 
L 398.2367 175.844854 
L 400.34205 175.977011 
L 402.4474 177.034271 
L 404.55275 177.562901 
L 406.6581 177.298586 
L 408.76345 177.034271 
L 410.8688 177.959373 
L 412.97415 178.488003 
L 415.0795 179.809578 
L 417.18485 178.620161 
L 419.2902 178.355846 
L 421.39555 179.016633 
L 423.5009 176.769956 
L 425.60625 179.016633 
L 427.7116 179.148791 
L 429.81695 179.941735 
L 431.9223 180.073893 
L 434.02765 179.809578 
L 436.133 178.884476 
L 438.23835 180.602523 
L 440.3437 179.67742 
L 442.44905 180.470365 
L 444.5544 179.545263 
L 446.65975 179.941735 
L 448.7651 180.20605 
L 450.87045 180.866838 
L 452.9758 181.131153 
L 455.08115 180.470365 
L 457.1865 180.470365 
L 459.29185 180.866838 
L 461.3972 180.73468 
L 463.50255 181.131153 
L 465.6079 181.131153 
L 467.71325 180.866838 
L 469.8186 180.73468 
L 471.92395 181.527625 
L 474.0293 180.866838 
L 476.13465 180.73468 
L 478.24 181.659782 
L 480.34535 180.73468 
L 482.4507 182.056255 
L 484.55605 181.527625 
L 486.6614 181.924097 
L 488.76675 181.79194 
L 490.8721 181.659782 
L 492.97745 181.527625 
L 495.0828 182.056255 
L 497.18815 181.924097 
L 499.2935 182.056255 
L 501.39885 182.056255 
L 503.5042 182.32057 
L 505.60955 182.056255 
L 507.7149 181.924097 
L 509.82025 181.527625 
L 511.9256 182.32057 
L 514.03095 182.188412 
L 516.1363 182.056255 
L 518.24165 181.659782 
L 520.347 181.924097 
L 522.45235 182.452727 
L 524.5577 182.32057 
L 526.66305 182.056255 
L 528.7684 182.056255 
L 530.87375 182.32057 
L 532.9791 182.32057 
L 535.08445 182.188412 
L 537.1898 182.188412 
L 539.29515 182.056255 
L 541.4005 182.188412 
L 543.50585 182.452727 
L 545.6112 182.32057 
L 547.71655 182.32057 
L 549.8219 182.32057 
L 551.92725 182.056255 
L 551.92725 182.452727 
L 551.92725 182.452727 
L 549.8219 182.452727 
L 547.71655 182.452727 
L 545.6112 182.452727 
L 543.50585 182.452727 
L 541.4005 182.452727 
L 539.29515 182.452727 
L 537.1898 182.452727 
L 535.08445 182.452727 
L 532.9791 182.452727 
L 530.87375 182.452727 
L 528.7684 182.452727 
L 526.66305 182.452727 
L 524.5577 182.452727 
L 522.45235 182.452727 
L 520.347 182.452727 
L 518.24165 182.452727 
L 516.1363 182.452727 
L 514.03095 182.452727 
L 511.9256 182.452727 
L 509.82025 182.452727 
L 507.7149 182.452727 
L 505.60955 182.452727 
L 503.5042 182.452727 
L 501.39885 182.452727 
L 499.2935 182.452727 
L 497.18815 182.452727 
L 495.0828 182.452727 
L 492.97745 182.452727 
L 490.8721 182.452727 
L 488.76675 182.452727 
L 486.6614 182.452727 
L 484.55605 182.452727 
L 482.4507 182.452727 
L 480.34535 182.452727 
L 478.24 182.452727 
L 476.13465 182.452727 
L 474.0293 182.452727 
L 471.92395 182.452727 
L 469.8186 182.452727 
L 467.71325 182.452727 
L 465.6079 182.452727 
L 463.50255 182.452727 
L 461.3972 182.452727 
L 459.29185 182.452727 
L 457.1865 182.452727 
L 455.08115 182.452727 
L 452.9758 182.452727 
L 450.87045 182.452727 
L 448.7651 182.452727 
L 446.65975 182.452727 
L 444.5544 182.452727 
L 442.44905 182.452727 
L 440.3437 182.452727 
L 438.23835 182.452727 
L 436.133 182.452727 
L 434.02765 182.452727 
L 431.9223 182.452727 
L 429.81695 182.452727 
L 427.7116 182.452727 
L 425.60625 182.452727 
L 423.5009 182.452727 
L 421.39555 182.452727 
L 419.2902 182.452727 
L 417.18485 182.452727 
L 415.0795 182.452727 
L 412.97415 182.452727 
L 410.8688 182.452727 
L 408.76345 182.452727 
L 406.6581 182.452727 
L 404.55275 182.452727 
L 402.4474 182.452727 
L 400.34205 182.452727 
L 398.2367 182.452727 
L 396.13135 182.452727 
L 394.026 182.452727 
L 391.92065 182.452727 
L 389.8153 182.452727 
L 387.70995 182.452727 
L 385.6046 182.452727 
L 383.49925 182.452727 
L 381.3939 182.452727 
L 379.28855 182.452727 
L 377.1832 182.452727 
L 375.07785 182.452727 
L 372.9725 182.452727 
L 370.86715 182.452727 
L 368.7618 182.452727 
L 366.65645 182.452727 
L 364.5511 182.452727 
L 362.44575 182.452727 
L 360.3404 182.452727 
L 358.23505 182.452727 
L 356.1297 182.452727 
L 354.02435 182.452727 
L 351.919 182.452727 
L 349.81365 182.452727 
L 347.7083 182.452727 
L 345.60295 182.452727 
L 343.4976 182.452727 
L 341.39225 182.452727 
L 339.2869 182.452727 
L 337.18155 182.452727 
L 335.0762 182.452727 
L 332.97085 182.452727 
L 330.8655 182.452727 
L 328.76015 182.452727 
L 326.6548 182.452727 
L 324.54945 182.452727 
L 322.4441 182.452727 
L 320.33875 182.452727 
L 318.2334 182.452727 
L 316.12805 182.452727 
L 314.0227 182.452727 
L 311.91735 182.452727 
L 309.812 182.452727 
L 307.70665 182.452727 
L 305.6013 182.452727 
L 303.49595 182.452727 
L 301.3906 182.452727 
L 299.28525 182.452727 
L 297.1799 182.452727 
L 295.07455 182.452727 
L 292.9692 182.452727 
L 290.86385 182.452727 
L 288.7585 182.452727 
L 286.65315 182.452727 
L 284.5478 182.452727 
L 282.44245 182.452727 
L 280.3371 182.452727 
L 278.23175 182.452727 
L 276.1264 182.452727 
L 274.02105 182.452727 
L 271.9157 182.452727 
L 269.81035 182.452727 
L 267.705 182.452727 
L 265.59965 182.452727 
L 263.4943 182.452727 
L 261.38895 182.452727 
L 259.2836 182.452727 
L 257.17825 182.452727 
L 255.0729 182.452727 
L 252.96755 182.452727 
L 250.8622 182.452727 
L 248.75685 182.452727 
L 246.6515 182.452727 
L 244.54615 182.452727 
L 242.4408 182.452727 
L 240.33545 182.452727 
L 238.2301 182.452727 
L 236.12475 182.452727 
L 234.0194 182.452727 
L 231.91405 182.452727 
L 229.8087 182.452727 
L 227.70335 182.452727 
L 225.598 182.452727 
L 223.49265 182.452727 
L 221.3873 182.452727 
L 219.28195 182.452727 
L 217.1766 182.452727 
L 215.07125 182.452727 
L 212.9659 182.452727 
L 210.86055 182.452727 
L 208.7552 182.452727 
L 206.64985 182.452727 
L 204.5445 182.452727 
L 202.43915 182.452727 
L 200.3338 182.452727 
L 198.22845 182.452727 
L 196.1231 182.452727 
L 194.01775 182.452727 
L 191.9124 182.452727 
L 189.80705 182.452727 
L 187.7017 182.452727 
L 185.59635 182.452727 
L 183.491 182.452727 
L 181.38565 182.452727 
L 179.2803 182.452727 
L 177.17495 182.452727 
L 175.0696 182.452727 
L 172.96425 182.452727 
L 170.8589 182.452727 
L 168.75355 182.452727 
L 166.6482 182.452727 
L 164.54285 182.452727 
L 162.4375 182.452727 
L 160.33215 182.452727 
L 158.2268 182.452727 
L 156.12145 182.452727 
L 154.0161 182.452727 
L 151.91075 182.452727 
L 149.8054 182.452727 
L 147.70005 182.452727 
L 145.5947 182.452727 
L 143.48935 182.452727 
L 141.384 182.452727 
L 139.27865 182.452727 
L 137.1733 182.452727 
L 135.06795 182.452727 
L 132.9626 182.452727 
L 130.85725 182.452727 
L 128.7519 182.452727 
L 126.64655 182.452727 
L 124.5412 182.452727 
L 122.43585 182.452727 
L 120.3305 182.452727 
L 118.22515 182.452727 
L 116.1198 182.452727 
L 114.01445 182.452727 
L 111.9091 182.452727 
L 109.80375 182.452727 
L 107.6984 182.452727 
L 105.59305 182.452727 
L 103.4877 182.452727 
L 101.38235 182.452727 
L 99.277 182.452727 
L 97.17165 182.452727 
L 95.0663 182.452727 
L 92.96095 182.452727 
L 90.8556 182.452727 
L 88.75025 182.452727 
L 86.6449 182.452727 
L 84.53955 182.452727 
L 82.4342 182.452727 
L 80.32885 182.452727 
L 78.2235 182.452727 
L 76.11815 182.452727 
L 74.0128 182.452727 
L 71.90745 182.452727 
L 69.8021 182.452727 
L 67.69675 182.452727 
L 65.5914 182.452727 
L 63.48605 182.452727 
L 61.3807 182.452727 
L 59.27535 182.452727 
L 57.17 182.452727 
L 55.06465 182.452727 
L 52.9593 182.452727 
L 50.85395 182.452727 
L 48.7486 182.452727 
L 46.64325 182.452727 
L 44.5379 182.452727 
L 42.43255 182.452727 
L 40.3272 182.452727 
L 38.22185 182.452727 
L 36.1165 182.452727 
L 34.01115 182.452727 
L 31.9058 182.452727 
L 29.80045 182.452727 
L 27.6951 182.452727 
L 25.58975 182.452727 
L 23.4844 182.452727 
L 21.37905 182.452727 
L 19.2737 182.452727 
L 17.16835 182.452727 
L 15.063 182.452727 
z
" clip-path="url(#p5d951d8e8b)" style="fill: #ff0000; fill-opacity: 0.4; stroke: #ff0000; stroke-opacity: 0.4"/>
   </g>
   <g id="matplotlib.axis_1">
    <g id="xtick_1">
     <g id="line2d_1">
      <defs>
       <path id="m11591424ea" d="M 0 0 
L 0 3.5 
" style="stroke: #000000; stroke-width: 0.8"/>
      </defs>
      <g>
       <use xlink:href="#m11591424ea" x="57.17" y="190.626667" style="stroke: #000000; stroke-width: 0.8"/>
      </g>
     </g>
     <g id="text_1">
      <!-- 20 -->
      <g transform="translate(50.8075 205.225104) scale(0.1 -0.1)">
       <defs>
        <path id="DejaVuSans-32" d="M 1228 531 
L 3431 531 
L 3431 0 
L 469 0 
L 469 531 
Q 828 903 1448 1529 
Q 2069 2156 2228 2338 
Q 2531 2678 2651 2914 
Q 2772 3150 2772 3378 
Q 2772 3750 2511 3984 
Q 2250 4219 1831 4219 
Q 1534 4219 1204 4116 
Q 875 4013 500 3803 
L 500 4441 
Q 881 4594 1212 4672 
Q 1544 4750 1819 4750 
Q 2544 4750 2975 4387 
Q 3406 4025 3406 3419 
Q 3406 3131 3298 2873 
Q 3191 2616 2906 2266 
Q 2828 2175 2409 1742 
Q 1991 1309 1228 531 
z
" transform="scale(0.015625)"/>
        <path id="DejaVuSans-30" d="M 2034 4250 
Q 1547 4250 1301 3770 
Q 1056 3291 1056 2328 
Q 1056 1369 1301 889 
Q 1547 409 2034 409 
Q 2525 409 2770 889 
Q 3016 1369 3016 2328 
Q 3016 3291 2770 3770 
Q 2525 4250 2034 4250 
z
M 2034 4750 
Q 2819 4750 3233 4129 
Q 3647 3509 3647 2328 
Q 3647 1150 3233 529 
Q 2819 -91 2034 -91 
Q 1250 -91 836 529 
Q 422 1150 422 2328 
Q 422 3509 836 4129 
Q 1250 4750 2034 4750 
z
" transform="scale(0.015625)"/>
       </defs>
       <use xlink:href="#DejaVuSans-32"/>
       <use xlink:href="#DejaVuSans-30" x="63.623047"/>
      </g>
     </g>
    </g>
    <g id="xtick_2">
     <g id="line2d_2">
      <g>
       <use xlink:href="#m11591424ea" x="99.277" y="190.626667" style="stroke: #000000; stroke-width: 0.8"/>
      </g>
     </g>
     <g id="text_2">
      <!-- 40 -->
      <g transform="translate(92.9145 205.225104) scale(0.1 -0.1)">
       <defs>
        <path id="DejaVuSans-34" d="M 2419 4116 
L 825 1625 
L 2419 1625 
L 2419 4116 
z
M 2253 4666 
L 3047 4666 
L 3047 1625 
L 3713 1625 
L 3713 1100 
L 3047 1100 
L 3047 0 
L 2419 0 
L 2419 1100 
L 313 1100 
L 313 1709 
L 2253 4666 
z
" transform="scale(0.015625)"/>
       </defs>
       <use xlink:href="#DejaVuSans-34"/>
       <use xlink:href="#DejaVuSans-30" x="63.623047"/>
      </g>
     </g>
    </g>
    <g id="xtick_3">
     <g id="line2d_3">
      <g>
       <use xlink:href="#m11591424ea" x="141.384" y="190.626667" style="stroke: #000000; stroke-width: 0.8"/>
      </g>
     </g>
     <g id="text_3">
      <!-- 60 -->
      <g transform="translate(135.0215 205.225104) scale(0.1 -0.1)">
       <defs>
        <path id="DejaVuSans-36" d="M 2113 2584 
Q 1688 2584 1439 2293 
Q 1191 2003 1191 1497 
Q 1191 994 1439 701 
Q 1688 409 2113 409 
Q 2538 409 2786 701 
Q 3034 994 3034 1497 
Q 3034 2003 2786 2293 
Q 2538 2584 2113 2584 
z
M 3366 4563 
L 3366 3988 
Q 3128 4100 2886 4159 
Q 2644 4219 2406 4219 
Q 1781 4219 1451 3797 
Q 1122 3375 1075 2522 
Q 1259 2794 1537 2939 
Q 1816 3084 2150 3084 
Q 2853 3084 3261 2657 
Q 3669 2231 3669 1497 
Q 3669 778 3244 343 
Q 2819 -91 2113 -91 
Q 1303 -91 875 529 
Q 447 1150 447 2328 
Q 447 3434 972 4092 
Q 1497 4750 2381 4750 
Q 2619 4750 2861 4703 
Q 3103 4656 3366 4563 
z
" transform="scale(0.015625)"/>
       </defs>
       <use xlink:href="#DejaVuSans-36"/>
       <use xlink:href="#DejaVuSans-30" x="63.623047"/>
      </g>
     </g>
    </g>
    <g id="xtick_4">
     <g id="line2d_4">
      <g>
       <use xlink:href="#m11591424ea" x="183.491" y="190.626667" style="stroke: #000000; stroke-width: 0.8"/>
      </g>
     </g>
     <g id="text_4">
      <!-- 80 -->
      <g transform="translate(177.1285 205.225104) scale(0.1 -0.1)">
       <defs>
        <path id="DejaVuSans-38" d="M 2034 2216 
Q 1584 2216 1326 1975 
Q 1069 1734 1069 1313 
Q 1069 891 1326 650 
Q 1584 409 2034 409 
Q 2484 409 2743 651 
Q 3003 894 3003 1313 
Q 3003 1734 2745 1975 
Q 2488 2216 2034 2216 
z
M 1403 2484 
Q 997 2584 770 2862 
Q 544 3141 544 3541 
Q 544 4100 942 4425 
Q 1341 4750 2034 4750 
Q 2731 4750 3128 4425 
Q 3525 4100 3525 3541 
Q 3525 3141 3298 2862 
Q 3072 2584 2669 2484 
Q 3125 2378 3379 2068 
Q 3634 1759 3634 1313 
Q 3634 634 3220 271 
Q 2806 -91 2034 -91 
Q 1263 -91 848 271 
Q 434 634 434 1313 
Q 434 1759 690 2068 
Q 947 2378 1403 2484 
z
M 1172 3481 
Q 1172 3119 1398 2916 
Q 1625 2713 2034 2713 
Q 2441 2713 2670 2916 
Q 2900 3119 2900 3481 
Q 2900 3844 2670 4047 
Q 2441 4250 2034 4250 
Q 1625 4250 1398 4047 
Q 1172 3844 1172 3481 
z
" transform="scale(0.015625)"/>
       </defs>
       <use xlink:href="#DejaVuSans-38"/>
       <use xlink:href="#DejaVuSans-30" x="63.623047"/>
      </g>
     </g>
    </g>
    <g id="xtick_5">
     <g id="line2d_5">
      <g>
       <use xlink:href="#m11591424ea" x="225.598" y="190.626667" style="stroke: #000000; stroke-width: 0.8"/>
      </g>
     </g>
     <g id="text_5">
      <!-- 100 -->
      <g transform="translate(216.05425 205.225104) scale(0.1 -0.1)">
       <defs>
        <path id="DejaVuSans-31" d="M 794 531 
L 1825 531 
L 1825 4091 
L 703 3866 
L 703 4441 
L 1819 4666 
L 2450 4666 
L 2450 531 
L 3481 531 
L 3481 0 
L 794 0 
L 794 531 
z
" transform="scale(0.015625)"/>
       </defs>
       <use xlink:href="#DejaVuSans-31"/>
       <use xlink:href="#DejaVuSans-30" x="63.623047"/>
       <use xlink:href="#DejaVuSans-30" x="127.246094"/>
      </g>
     </g>
    </g>
    <g id="xtick_6">
     <g id="line2d_6">
      <g>
       <use xlink:href="#m11591424ea" x="267.705" y="190.626667" style="stroke: #000000; stroke-width: 0.8"/>
      </g>
     </g>
     <g id="text_6">
      <!-- 120 -->
      <g transform="translate(258.16125 205.225104) scale(0.1 -0.1)">
       <use xlink:href="#DejaVuSans-31"/>
       <use xlink:href="#DejaVuSans-32" x="63.623047"/>
       <use xlink:href="#DejaVuSans-30" x="127.246094"/>
      </g>
     </g>
    </g>
   </g>
   <g id="matplotlib.axis_2">
    <g id="ytick_1">
     <g id="line2d_7">
      <defs>
       <path id="m378cc3a34c" d="M 0 0 
L -3.5 0 
" style="stroke: #000000; stroke-width: 0.8"/>
      </defs>
      <g>
       <use xlink:href="#m378cc3a34c" x="57.17" y="182.452727" style="stroke: #000000; stroke-width: 0.8"/>
      </g>
     </g>
     <g id="text_7">
      <!-- 0 -->
      <g transform="translate(43.8075 186.251946) scale(0.1 -0.1)">
       <use xlink:href="#DejaVuSans-30"/>
      </g>
     </g>
    </g>
    <g id="ytick_2">
     <g id="line2d_8">
      <g>
       <use xlink:href="#m378cc3a34c" x="57.17" y="156.021234" style="stroke: #000000; stroke-width: 0.8"/>
      </g>
     </g>
     <g id="text_8">
      <!-- 200 -->
      <g transform="translate(31.0825 159.820452) scale(0.1 -0.1)">
       <use xlink:href="#DejaVuSans-32"/>
       <use xlink:href="#DejaVuSans-30" x="63.623047"/>
       <use xlink:href="#DejaVuSans-30" x="127.246094"/>
      </g>
     </g>
    </g>
    <g id="ytick_3">
     <g id="line2d_9">
      <g>
       <use xlink:href="#m378cc3a34c" x="57.17" y="129.58974" style="stroke: #000000; stroke-width: 0.8"/>
      </g>
     </g>
     <g id="text_9">
      <!-- 400 -->
      <g transform="translate(31.0825 133.388959) scale(0.1 -0.1)">
       <use xlink:href="#DejaVuSans-34"/>
       <use xlink:href="#DejaVuSans-30" x="63.623047"/>
       <use xlink:href="#DejaVuSans-30" x="127.246094"/>
      </g>
     </g>
    </g>
    <g id="ytick_4">
     <g id="line2d_10">
      <g>
       <use xlink:href="#m378cc3a34c" x="57.17" y="103.158246" style="stroke: #000000; stroke-width: 0.8"/>
      </g>
     </g>
     <g id="text_10">
      <!-- 600 -->
      <g transform="translate(31.0825 106.957465) scale(0.1 -0.1)">
       <use xlink:href="#DejaVuSans-36"/>
       <use xlink:href="#DejaVuSans-30" x="63.623047"/>
       <use xlink:href="#DejaVuSans-30" x="127.246094"/>
      </g>
     </g>
    </g>
    <g id="ytick_5">
     <g id="line2d_11">
      <g>
       <use xlink:href="#m378cc3a34c" x="57.17" y="76.726753" style="stroke: #000000; stroke-width: 0.8"/>
      </g>
     </g>
     <g id="text_11">
      <!-- 800 -->
      <g transform="translate(31.0825 80.525972) scale(0.1 -0.1)">
       <use xlink:href="#DejaVuSans-38"/>
       <use xlink:href="#DejaVuSans-30" x="63.623047"/>
       <use xlink:href="#DejaVuSans-30" x="127.246094"/>
      </g>
     </g>
    </g>
    <g id="ytick_6">
     <g id="line2d_12">
      <g>
       <use xlink:href="#m378cc3a34c" x="57.17" y="50.295259" style="stroke: #000000; stroke-width: 0.8"/>
      </g>
     </g>
     <g id="text_12">
      <!-- 1000 -->
      <g transform="translate(24.72 54.094478) scale(0.1 -0.1)">
       <use xlink:href="#DejaVuSans-31"/>
       <use xlink:href="#DejaVuSans-30" x="63.623047"/>
       <use xlink:href="#DejaVuSans-30" x="127.246094"/>
       <use xlink:href="#DejaVuSans-30" x="190.869141"/>
      </g>
     </g>
    </g>
    <g id="ytick_7">
     <g id="line2d_13">
      <g>
       <use xlink:href="#m378cc3a34c" x="57.17" y="23.863766" style="stroke: #000000; stroke-width: 0.8"/>
      </g>
     </g>
     <g id="text_13">
      <!-- 1200 -->
      <g transform="translate(24.72 27.662984) scale(0.1 -0.1)">
       <use xlink:href="#DejaVuSans-31"/>
       <use xlink:href="#DejaVuSans-32" x="63.623047"/>
       <use xlink:href="#DejaVuSans-30" x="127.246094"/>
       <use xlink:href="#DejaVuSans-30" x="190.869141"/>
      </g>
     </g>
    </g>
    <g id="text_14">
     <!-- Pixel Frequency -->
     <g transform="translate(18.640313 139.69224) rotate(-90) scale(0.1 -0.1)">
      <defs>
       <path id="DejaVuSans-50" d="M 1259 4147 
L 1259 2394 
L 2053 2394 
Q 2494 2394 2734 2622 
Q 2975 2850 2975 3272 
Q 2975 3691 2734 3919 
Q 2494 4147 2053 4147 
L 1259 4147 
z
M 628 4666 
L 2053 4666 
Q 2838 4666 3239 4311 
Q 3641 3956 3641 3272 
Q 3641 2581 3239 2228 
Q 2838 1875 2053 1875 
L 1259 1875 
L 1259 0 
L 628 0 
L 628 4666 
z
" transform="scale(0.015625)"/>
       <path id="DejaVuSans-69" d="M 603 3500 
L 1178 3500 
L 1178 0 
L 603 0 
L 603 3500 
z
M 603 4863 
L 1178 4863 
L 1178 4134 
L 603 4134 
L 603 4863 
z
" transform="scale(0.015625)"/>
       <path id="DejaVuSans-78" d="M 3513 3500 
L 2247 1797 
L 3578 0 
L 2900 0 
L 1881 1375 
L 863 0 
L 184 0 
L 1544 1831 
L 300 3500 
L 978 3500 
L 1906 2253 
L 2834 3500 
L 3513 3500 
z
" transform="scale(0.015625)"/>
       <path id="DejaVuSans-65" d="M 3597 1894 
L 3597 1613 
L 953 1613 
Q 991 1019 1311 708 
Q 1631 397 2203 397 
Q 2534 397 2845 478 
Q 3156 559 3463 722 
L 3463 178 
Q 3153 47 2828 -22 
Q 2503 -91 2169 -91 
Q 1331 -91 842 396 
Q 353 884 353 1716 
Q 353 2575 817 3079 
Q 1281 3584 2069 3584 
Q 2775 3584 3186 3129 
Q 3597 2675 3597 1894 
z
M 3022 2063 
Q 3016 2534 2758 2815 
Q 2500 3097 2075 3097 
Q 1594 3097 1305 2825 
Q 1016 2553 972 2059 
L 3022 2063 
z
" transform="scale(0.015625)"/>
       <path id="DejaVuSans-6c" d="M 603 4863 
L 1178 4863 
L 1178 0 
L 603 0 
L 603 4863 
z
" transform="scale(0.015625)"/>
       <path id="DejaVuSans-20" transform="scale(0.015625)"/>
       <path id="DejaVuSans-46" d="M 628 4666 
L 3309 4666 
L 3309 4134 
L 1259 4134 
L 1259 2759 
L 3109 2759 
L 3109 2228 
L 1259 2228 
L 1259 0 
L 628 0 
L 628 4666 
z
" transform="scale(0.015625)"/>
       <path id="DejaVuSans-72" d="M 2631 2963 
Q 2534 3019 2420 3045 
Q 2306 3072 2169 3072 
Q 1681 3072 1420 2755 
Q 1159 2438 1159 1844 
L 1159 0 
L 581 0 
L 581 3500 
L 1159 3500 
L 1159 2956 
Q 1341 3275 1631 3429 
Q 1922 3584 2338 3584 
Q 2397 3584 2469 3576 
Q 2541 3569 2628 3553 
L 2631 2963 
z
" transform="scale(0.015625)"/>
       <path id="DejaVuSans-71" d="M 947 1747 
Q 947 1113 1208 752 
Q 1469 391 1925 391 
Q 2381 391 2643 752 
Q 2906 1113 2906 1747 
Q 2906 2381 2643 2742 
Q 2381 3103 1925 3103 
Q 1469 3103 1208 2742 
Q 947 2381 947 1747 
z
M 2906 525 
Q 2725 213 2448 61 
Q 2172 -91 1784 -91 
Q 1150 -91 751 415 
Q 353 922 353 1747 
Q 353 2572 751 3078 
Q 1150 3584 1784 3584 
Q 2172 3584 2448 3432 
Q 2725 3281 2906 2969 
L 2906 3500 
L 3481 3500 
L 3481 -1331 
L 2906 -1331 
L 2906 525 
z
" transform="scale(0.015625)"/>
       <path id="DejaVuSans-75" d="M 544 1381 
L 544 3500 
L 1119 3500 
L 1119 1403 
Q 1119 906 1312 657 
Q 1506 409 1894 409 
Q 2359 409 2629 706 
Q 2900 1003 2900 1516 
L 2900 3500 
L 3475 3500 
L 3475 0 
L 2900 0 
L 2900 538 
Q 2691 219 2414 64 
Q 2138 -91 1772 -91 
Q 1169 -91 856 284 
Q 544 659 544 1381 
z
M 1991 3584 
L 1991 3584 
z
" transform="scale(0.015625)"/>
       <path id="DejaVuSans-6e" d="M 3513 2113 
L 3513 0 
L 2938 0 
L 2938 2094 
Q 2938 2591 2744 2837 
Q 2550 3084 2163 3084 
Q 1697 3084 1428 2787 
Q 1159 2491 1159 1978 
L 1159 0 
L 581 0 
L 581 3500 
L 1159 3500 
L 1159 2956 
Q 1366 3272 1645 3428 
Q 1925 3584 2291 3584 
Q 2894 3584 3203 3211 
Q 3513 2838 3513 2113 
z
" transform="scale(0.015625)"/>
       <path id="DejaVuSans-63" d="M 3122 3366 
L 3122 2828 
Q 2878 2963 2633 3030 
Q 2388 3097 2138 3097 
Q 1578 3097 1268 2742 
Q 959 2388 959 1747 
Q 959 1106 1268 751 
Q 1578 397 2138 397 
Q 2388 397 2633 464 
Q 2878 531 3122 666 
L 3122 134 
Q 2881 22 2623 -34 
Q 2366 -91 2075 -91 
Q 1284 -91 818 406 
Q 353 903 353 1747 
Q 353 2603 823 3093 
Q 1294 3584 2113 3584 
Q 2378 3584 2631 3529 
Q 2884 3475 3122 3366 
z
" transform="scale(0.015625)"/>
       <path id="DejaVuSans-79" d="M 2059 -325 
Q 1816 -950 1584 -1140 
Q 1353 -1331 966 -1331 
L 506 -1331 
L 506 -850 
L 844 -850 
Q 1081 -850 1212 -737 
Q 1344 -625 1503 -206 
L 1606 56 
L 191 3500 
L 800 3500 
L 1894 763 
L 2988 3500 
L 3597 3500 
L 2059 -325 
z
" transform="scale(0.015625)"/>
      </defs>
      <use xlink:href="#DejaVuSans-50"/>
      <use xlink:href="#DejaVuSans-69" x="58.052734"/>
      <use xlink:href="#DejaVuSans-78" x="85.835938"/>
      <use xlink:href="#DejaVuSans-65" x="141.890625"/>
      <use xlink:href="#DejaVuSans-6c" x="203.414062"/>
      <use xlink:href="#DejaVuSans-20" x="231.197266"/>
      <use xlink:href="#DejaVuSans-46" x="262.984375"/>
      <use xlink:href="#DejaVuSans-72" x="313.253906"/>
      <use xlink:href="#DejaVuSans-65" x="352.117188"/>
      <use xlink:href="#DejaVuSans-71" x="413.640625"/>
      <use xlink:href="#DejaVuSans-75" x="477.117188"/>
      <use xlink:href="#DejaVuSans-65" x="540.496094"/>
      <use xlink:href="#DejaVuSans-6e" x="602.019531"/>
      <use xlink:href="#DejaVuSans-63" x="665.398438"/>
      <use xlink:href="#DejaVuSans-79" x="720.378906"/>
     </g>
    </g>
   </g>
   <g id="line2d_14">
    <path d="M 15.063 182.452727 
L 17.16835 182.452727 
L 19.2737 181.924097 
L 21.37905 182.32057 
L 23.4844 182.32057 
L 25.58975 182.452727 
L 74.0128 182.452727 
L 76.11815 182.32057 
L 78.2235 182.452727 
L 143.48935 182.452727 
L 145.5947 182.32057 
L 149.8054 182.32057 
L 151.91075 182.452727 
L 154.0161 182.32057 
L 158.2268 182.32057 
L 162.4375 182.056255 
L 164.54285 181.659782 
L 168.75355 181.395468 
L 170.8589 180.73468 
L 172.96425 180.470365 
L 175.0696 180.73468 
L 177.17495 180.338208 
L 179.2803 179.016633 
L 181.38565 178.620161 
L 183.491 176.373484 
L 185.59635 177.430743 
L 187.7017 175.448381 
L 189.80705 176.373484 
L 191.9124 172.93739 
L 194.01775 172.805232 
L 198.22845 168.972666 
L 200.3338 169.501295 
L 202.43915 164.875784 
L 204.5445 159.193013 
L 206.64985 156.946336 
L 208.7552 152.849454 
L 210.86055 146.638053 
L 212.9659 136.594086 
L 215.07125 130.250527 
L 217.1766 119.545773 
L 219.28195 110.030435 
L 221.3873 96.021743 
L 223.49265 86.638563 
L 225.598 74.347918 
L 227.70335 68.268675 
L 229.8087 59.281967 
L 231.91405 47.916425 
L 234.0194 45.934063 
L 236.12475 32.189686 
L 238.2301 28.753592 
L 240.33545 24.392396 
L 242.4408 28.489277 
L 244.54615 20.691986 
L 246.6515 19.106097 
L 248.75685 27.564175 
L 250.8622 24.656711 
L 252.96755 22.145719 
L 255.0729 18.973939 
L 257.17825 31.661056 
L 259.2836 19.106097 
L 261.38895 28.489277 
L 263.4943 35.493623 
L 265.59965 36.286568 
L 267.705 37.872457 
L 269.81035 38.401087 
L 271.9157 41.969339 
L 274.02105 54.127826 
L 276.1264 50.427417 
L 278.23175 62.057274 
L 282.44245 77.38754 
L 284.5478 78.841272 
L 286.65315 81.880894 
L 288.7585 92.585649 
L 289 92.888839 
L 289 92.888839 
" clip-path="url(#p5d951d8e8b)" style="fill: none; stroke: #ff0000; stroke-width: 1.5; stroke-linecap: square"/>
   </g>
   <g id="patch_3">
    <path d="M 57.17 190.626667 
L 57.17 10.8 
" style="fill: none; stroke: #000000; stroke-width: 0.8; stroke-linejoin: miter; stroke-linecap: square"/>
   </g>
   <g id="patch_4">
    <path d="M 267.705 190.626667 
L 267.705 10.8 
" style="fill: none; stroke: #000000; stroke-width: 0.8; stroke-linejoin: miter; stroke-linecap: square"/>
   </g>
   <g id="patch_5">
    <path d="M 57.17 190.626667 
L 267.705 190.626667 
" style="fill: none; stroke: #000000; stroke-width: 0.8; stroke-linejoin: miter; stroke-linecap: square"/>
   </g>
   <g id="patch_6">
    <path d="M 57.17 10.8 
L 267.705 10.8 
" style="fill: none; stroke: #000000; stroke-width: 0.8; stroke-linejoin: miter; stroke-linecap: square"/>
   </g>
   <g id="text_15">
    <!-- Red Channel  -->
    <g transform="translate(188.011875 24.8) scale(0.12 -0.12)">
     <defs>
      <path id="DejaVuSans-52" d="M 2841 2188 
Q 3044 2119 3236 1894 
Q 3428 1669 3622 1275 
L 4263 0 
L 3584 0 
L 2988 1197 
Q 2756 1666 2539 1819 
Q 2322 1972 1947 1972 
L 1259 1972 
L 1259 0 
L 628 0 
L 628 4666 
L 2053 4666 
Q 2853 4666 3247 4331 
Q 3641 3997 3641 3322 
Q 3641 2881 3436 2590 
Q 3231 2300 2841 2188 
z
M 1259 4147 
L 1259 2491 
L 2053 2491 
Q 2509 2491 2742 2702 
Q 2975 2913 2975 3322 
Q 2975 3731 2742 3939 
Q 2509 4147 2053 4147 
L 1259 4147 
z
" transform="scale(0.015625)"/>
      <path id="DejaVuSans-64" d="M 2906 2969 
L 2906 4863 
L 3481 4863 
L 3481 0 
L 2906 0 
L 2906 525 
Q 2725 213 2448 61 
Q 2172 -91 1784 -91 
Q 1150 -91 751 415 
Q 353 922 353 1747 
Q 353 2572 751 3078 
Q 1150 3584 1784 3584 
Q 2172 3584 2448 3432 
Q 2725 3281 2906 2969 
z
M 947 1747 
Q 947 1113 1208 752 
Q 1469 391 1925 391 
Q 2381 391 2643 752 
Q 2906 1113 2906 1747 
Q 2906 2381 2643 2742 
Q 2381 3103 1925 3103 
Q 1469 3103 1208 2742 
Q 947 2381 947 1747 
z
" transform="scale(0.015625)"/>
      <path id="DejaVuSans-43" d="M 4122 4306 
L 4122 3641 
Q 3803 3938 3442 4084 
Q 3081 4231 2675 4231 
Q 1875 4231 1450 3742 
Q 1025 3253 1025 2328 
Q 1025 1406 1450 917 
Q 1875 428 2675 428 
Q 3081 428 3442 575 
Q 3803 722 4122 1019 
L 4122 359 
Q 3791 134 3420 21 
Q 3050 -91 2638 -91 
Q 1578 -91 968 557 
Q 359 1206 359 2328 
Q 359 3453 968 4101 
Q 1578 4750 2638 4750 
Q 3056 4750 3426 4639 
Q 3797 4528 4122 4306 
z
" transform="scale(0.015625)"/>
      <path id="DejaVuSans-68" d="M 3513 2113 
L 3513 0 
L 2938 0 
L 2938 2094 
Q 2938 2591 2744 2837 
Q 2550 3084 2163 3084 
Q 1697 3084 1428 2787 
Q 1159 2491 1159 1978 
L 1159 0 
L 581 0 
L 581 4863 
L 1159 4863 
L 1159 2956 
Q 1366 3272 1645 3428 
Q 1925 3584 2291 3584 
Q 2894 3584 3203 3211 
Q 3513 2838 3513 2113 
z
" transform="scale(0.015625)"/>
      <path id="DejaVuSans-61" d="M 2194 1759 
Q 1497 1759 1228 1600 
Q 959 1441 959 1056 
Q 959 750 1161 570 
Q 1363 391 1709 391 
Q 2188 391 2477 730 
Q 2766 1069 2766 1631 
L 2766 1759 
L 2194 1759 
z
M 3341 1997 
L 3341 0 
L 2766 0 
L 2766 531 
Q 2569 213 2275 61 
Q 1981 -91 1556 -91 
Q 1019 -91 701 211 
Q 384 513 384 1019 
Q 384 1609 779 1909 
Q 1175 2209 1959 2209 
L 2766 2209 
L 2766 2266 
Q 2766 2663 2505 2880 
Q 2244 3097 1772 3097 
Q 1472 3097 1187 3025 
Q 903 2953 641 2809 
L 641 3341 
Q 956 3463 1253 3523 
Q 1550 3584 1831 3584 
Q 2591 3584 2966 3190 
Q 3341 2797 3341 1997 
z
" transform="scale(0.015625)"/>
     </defs>
     <use xlink:href="#DejaVuSans-52"/>
     <use xlink:href="#DejaVuSans-65" x="64.982422"/>
     <use xlink:href="#DejaVuSans-64" x="126.505859"/>
     <use xlink:href="#DejaVuSans-20" x="189.982422"/>
     <use xlink:href="#DejaVuSans-43" x="221.769531"/>
     <use xlink:href="#DejaVuSans-68" x="291.59375"/>
     <use xlink:href="#DejaVuSans-61" x="354.972656"/>
     <use xlink:href="#DejaVuSans-6e" x="416.251953"/>
     <use xlink:href="#DejaVuSans-6e" x="479.630859"/>
     <use xlink:href="#DejaVuSans-65" x="543.009766"/>
     <use xlink:href="#DejaVuSans-6c" x="604.533203"/>
     <use xlink:href="#DejaVuSans-20" x="632.316406"/>
    </g>
   </g>
  </g>
  <g id="axes_2">
   <g id="patch_7">
    <path d="M 57.17 398.333333 
L 267.705 398.333333 
L 267.705 218.506667 
L 57.17 218.506667 
z
" style="fill: #ffffff"/>
   </g>
   <g id="PolyCollection_2">
    <path d="M 15.063 390.159394 
L 15.063 390.159394 
L 17.16835 390.039979 
L 19.2737 390.159394 
L 21.37905 390.159394 
L 23.4844 390.159394 
L 25.58975 390.039979 
L 27.6951 390.159394 
L 29.80045 390.159394 
L 31.9058 390.159394 
L 34.01115 390.159394 
L 36.1165 390.159394 
L 38.22185 390.159394 
L 40.3272 390.159394 
L 42.43255 390.159394 
L 44.5379 390.159394 
L 46.64325 390.159394 
L 48.7486 390.159394 
L 50.85395 390.159394 
L 52.9593 390.159394 
L 55.06465 390.159394 
L 57.17 390.159394 
L 59.27535 390.159394 
L 61.3807 390.159394 
L 63.48605 390.159394 
L 65.5914 390.159394 
L 67.69675 390.159394 
L 69.8021 390.159394 
L 71.90745 390.159394 
L 74.0128 390.159394 
L 76.11815 390.159394 
L 78.2235 390.159394 
L 80.32885 390.159394 
L 82.4342 390.159394 
L 84.53955 390.159394 
L 86.6449 390.159394 
L 88.75025 390.159394 
L 90.8556 390.159394 
L 92.96095 390.159394 
L 95.0663 390.159394 
L 97.17165 390.159394 
L 99.277 390.159394 
L 101.38235 390.159394 
L 103.4877 390.159394 
L 105.59305 390.159394 
L 107.6984 390.159394 
L 109.80375 390.159394 
L 111.9091 390.039979 
L 114.01445 390.039979 
L 116.1198 389.920564 
L 118.22515 390.159394 
L 120.3305 389.920564 
L 122.43585 389.681735 
L 124.5412 389.442905 
L 126.64655 389.323491 
L 128.7519 389.084661 
L 130.85725 388.368173 
L 132.9626 387.174025 
L 135.06795 385.741048 
L 137.1733 384.666316 
L 139.27865 382.158606 
L 141.384 377.501431 
L 143.48935 374.277233 
L 145.5947 362.574588 
L 147.70005 350.394283 
L 149.8054 337.73632 
L 151.91075 323.167721 
L 154.0161 305.494339 
L 156.12145 290.328666 
L 158.2268 270.625233 
L 160.33215 257.72844 
L 162.4375 239.457984 
L 164.54285 243.995744 
L 166.6482 232.05427 
L 168.75355 226.680606 
L 170.8589 234.442565 
L 172.96425 242.443353 
L 175.0696 235.756127 
L 177.17495 256.295463 
L 179.2803 255.698389 
L 181.38565 259.639076 
L 183.491 264.535081 
L 185.59635 271.81938 
L 187.7017 279.461924 
L 189.80705 280.178412 
L 191.9124 279.939583 
L 194.01775 280.775486 
L 196.1231 283.283196 
L 198.22845 289.970422 
L 200.3338 290.448081 
L 202.43915 298.687698 
L 204.5445 298.210039 
L 206.64985 296.538233 
L 208.7552 293.672279 
L 210.86055 291.642228 
L 212.9659 301.553652 
L 215.07125 301.434237 
L 217.1766 305.733168 
L 219.28195 306.091412 
L 221.3873 310.748588 
L 223.49265 311.345661 
L 225.598 319.704694 
L 227.70335 318.86879 
L 229.8087 321.018256 
L 231.91405 327.466652 
L 234.0194 326.033675 
L 236.12475 326.869578 
L 238.2301 330.213191 
L 240.33545 331.407339 
L 242.4408 343.707058 
L 244.54615 333.795634 
L 246.6515 336.183929 
L 248.75685 339.408127 
L 250.8622 342.393495 
L 252.96755 340.841104 
L 255.0729 347.05067 
L 257.17825 344.901205 
L 259.2836 347.647744 
L 261.38895 348.603062 
L 263.4943 352.782578 
L 265.59965 349.677795 
L 267.705 354.693214 
L 269.81035 357.559168 
L 271.9157 357.081509 
L 274.02105 362.694002 
L 276.1264 360.305707 
L 278.23175 362.574588 
L 280.3371 366.754104 
L 282.44245 366.515274 
L 284.5478 366.754104 
L 286.65315 368.784154 
L 288.7585 369.978302 
L 290.86385 368.784154 
L 292.9692 371.769523 
L 295.07455 373.2025 
L 297.1799 372.844256 
L 299.28525 374.157818 
L 301.3906 375.949039 
L 303.49595 373.321915 
L 305.6013 374.635477 
L 307.70665 375.351965 
L 309.812 375.351965 
L 311.91735 379.650896 
L 314.0227 377.501431 
L 316.12805 379.531482 
L 318.2334 378.576164 
L 320.33875 380.964458 
L 322.4441 379.173237 
L 324.54945 379.053823 
L 326.6548 377.859675 
L 328.76015 380.367385 
L 330.8655 379.650896 
L 332.97085 381.800362 
L 335.0762 382.039191 
L 337.18155 381.203288 
L 339.2869 382.875094 
L 341.39225 381.680947 
L 343.4976 382.397435 
L 345.60295 382.158606 
L 347.7083 382.994509 
L 349.81365 382.636265 
L 351.919 384.188657 
L 354.02435 385.263389 
L 356.1297 385.143975 
L 358.23505 385.979878 
L 360.3404 385.143975 
L 362.44575 384.308071 
L 364.5511 386.099293 
L 366.65645 387.054611 
L 368.7618 386.815781 
L 370.86715 385.263389 
L 372.9725 386.696366 
L 375.07785 386.815781 
L 377.1832 386.457537 
L 379.28855 386.338122 
L 381.3939 386.457537 
L 383.49925 387.771099 
L 385.6046 386.696366 
L 387.70995 387.53227 
L 389.8153 386.457537 
L 391.92065 387.29344 
L 394.026 387.890514 
L 396.13135 387.29344 
L 398.2367 387.174025 
L 400.34205 388.248758 
L 402.4474 387.771099 
L 404.55275 387.174025 
L 406.6581 388.368173 
L 408.76345 388.607002 
L 410.8688 387.890514 
L 412.97415 388.248758 
L 415.0795 387.890514 
L 417.18485 388.009929 
L 419.2902 388.009929 
L 421.39555 388.726417 
L 423.5009 388.248758 
L 425.60625 388.845832 
L 427.7116 388.009929 
L 429.81695 388.607002 
L 431.9223 388.726417 
L 434.02765 388.009929 
L 436.133 388.368173 
L 438.23835 388.845832 
L 440.3437 388.726417 
L 442.44905 389.442905 
L 444.5544 388.607002 
L 446.65975 388.368173 
L 448.7651 389.323491 
L 450.87045 389.204076 
L 452.9758 389.084661 
L 455.08115 388.726417 
L 457.1865 389.084661 
L 459.29185 389.204076 
L 461.3972 389.80115 
L 463.50255 388.965246 
L 465.6079 389.442905 
L 467.71325 389.80115 
L 469.8186 388.965246 
L 471.92395 389.56232 
L 474.0293 389.442905 
L 476.13465 389.80115 
L 478.24 389.56232 
L 480.34535 389.80115 
L 482.4507 389.56232 
L 484.55605 389.56232 
L 486.6614 389.80115 
L 488.76675 389.80115 
L 490.8721 389.323491 
L 492.97745 389.442905 
L 495.0828 389.681735 
L 497.18815 390.039979 
L 499.2935 389.920564 
L 501.39885 390.159394 
L 503.5042 389.323491 
L 505.60955 390.039979 
L 507.7149 389.920564 
L 509.82025 389.56232 
L 511.9256 390.039979 
L 514.03095 389.56232 
L 516.1363 389.80115 
L 518.24165 389.920564 
L 520.347 390.039979 
L 522.45235 389.920564 
L 524.5577 390.039979 
L 526.66305 389.920564 
L 528.7684 390.159394 
L 530.87375 389.920564 
L 532.9791 390.039979 
L 535.08445 390.159394 
L 537.1898 390.039979 
L 539.29515 390.039979 
L 541.4005 390.159394 
L 543.50585 390.159394 
L 545.6112 390.159394 
L 547.71655 390.039979 
L 549.8219 390.159394 
L 551.92725 390.039979 
L 551.92725 390.159394 
L 551.92725 390.159394 
L 549.8219 390.159394 
L 547.71655 390.159394 
L 545.6112 390.159394 
L 543.50585 390.159394 
L 541.4005 390.159394 
L 539.29515 390.159394 
L 537.1898 390.159394 
L 535.08445 390.159394 
L 532.9791 390.159394 
L 530.87375 390.159394 
L 528.7684 390.159394 
L 526.66305 390.159394 
L 524.5577 390.159394 
L 522.45235 390.159394 
L 520.347 390.159394 
L 518.24165 390.159394 
L 516.1363 390.159394 
L 514.03095 390.159394 
L 511.9256 390.159394 
L 509.82025 390.159394 
L 507.7149 390.159394 
L 505.60955 390.159394 
L 503.5042 390.159394 
L 501.39885 390.159394 
L 499.2935 390.159394 
L 497.18815 390.159394 
L 495.0828 390.159394 
L 492.97745 390.159394 
L 490.8721 390.159394 
L 488.76675 390.159394 
L 486.6614 390.159394 
L 484.55605 390.159394 
L 482.4507 390.159394 
L 480.34535 390.159394 
L 478.24 390.159394 
L 476.13465 390.159394 
L 474.0293 390.159394 
L 471.92395 390.159394 
L 469.8186 390.159394 
L 467.71325 390.159394 
L 465.6079 390.159394 
L 463.50255 390.159394 
L 461.3972 390.159394 
L 459.29185 390.159394 
L 457.1865 390.159394 
L 455.08115 390.159394 
L 452.9758 390.159394 
L 450.87045 390.159394 
L 448.7651 390.159394 
L 446.65975 390.159394 
L 444.5544 390.159394 
L 442.44905 390.159394 
L 440.3437 390.159394 
L 438.23835 390.159394 
L 436.133 390.159394 
L 434.02765 390.159394 
L 431.9223 390.159394 
L 429.81695 390.159394 
L 427.7116 390.159394 
L 425.60625 390.159394 
L 423.5009 390.159394 
L 421.39555 390.159394 
L 419.2902 390.159394 
L 417.18485 390.159394 
L 415.0795 390.159394 
L 412.97415 390.159394 
L 410.8688 390.159394 
L 408.76345 390.159394 
L 406.6581 390.159394 
L 404.55275 390.159394 
L 402.4474 390.159394 
L 400.34205 390.159394 
L 398.2367 390.159394 
L 396.13135 390.159394 
L 394.026 390.159394 
L 391.92065 390.159394 
L 389.8153 390.159394 
L 387.70995 390.159394 
L 385.6046 390.159394 
L 383.49925 390.159394 
L 381.3939 390.159394 
L 379.28855 390.159394 
L 377.1832 390.159394 
L 375.07785 390.159394 
L 372.9725 390.159394 
L 370.86715 390.159394 
L 368.7618 390.159394 
L 366.65645 390.159394 
L 364.5511 390.159394 
L 362.44575 390.159394 
L 360.3404 390.159394 
L 358.23505 390.159394 
L 356.1297 390.159394 
L 354.02435 390.159394 
L 351.919 390.159394 
L 349.81365 390.159394 
L 347.7083 390.159394 
L 345.60295 390.159394 
L 343.4976 390.159394 
L 341.39225 390.159394 
L 339.2869 390.159394 
L 337.18155 390.159394 
L 335.0762 390.159394 
L 332.97085 390.159394 
L 330.8655 390.159394 
L 328.76015 390.159394 
L 326.6548 390.159394 
L 324.54945 390.159394 
L 322.4441 390.159394 
L 320.33875 390.159394 
L 318.2334 390.159394 
L 316.12805 390.159394 
L 314.0227 390.159394 
L 311.91735 390.159394 
L 309.812 390.159394 
L 307.70665 390.159394 
L 305.6013 390.159394 
L 303.49595 390.159394 
L 301.3906 390.159394 
L 299.28525 390.159394 
L 297.1799 390.159394 
L 295.07455 390.159394 
L 292.9692 390.159394 
L 290.86385 390.159394 
L 288.7585 390.159394 
L 286.65315 390.159394 
L 284.5478 390.159394 
L 282.44245 390.159394 
L 280.3371 390.159394 
L 278.23175 390.159394 
L 276.1264 390.159394 
L 274.02105 390.159394 
L 271.9157 390.159394 
L 269.81035 390.159394 
L 267.705 390.159394 
L 265.59965 390.159394 
L 263.4943 390.159394 
L 261.38895 390.159394 
L 259.2836 390.159394 
L 257.17825 390.159394 
L 255.0729 390.159394 
L 252.96755 390.159394 
L 250.8622 390.159394 
L 248.75685 390.159394 
L 246.6515 390.159394 
L 244.54615 390.159394 
L 242.4408 390.159394 
L 240.33545 390.159394 
L 238.2301 390.159394 
L 236.12475 390.159394 
L 234.0194 390.159394 
L 231.91405 390.159394 
L 229.8087 390.159394 
L 227.70335 390.159394 
L 225.598 390.159394 
L 223.49265 390.159394 
L 221.3873 390.159394 
L 219.28195 390.159394 
L 217.1766 390.159394 
L 215.07125 390.159394 
L 212.9659 390.159394 
L 210.86055 390.159394 
L 208.7552 390.159394 
L 206.64985 390.159394 
L 204.5445 390.159394 
L 202.43915 390.159394 
L 200.3338 390.159394 
L 198.22845 390.159394 
L 196.1231 390.159394 
L 194.01775 390.159394 
L 191.9124 390.159394 
L 189.80705 390.159394 
L 187.7017 390.159394 
L 185.59635 390.159394 
L 183.491 390.159394 
L 181.38565 390.159394 
L 179.2803 390.159394 
L 177.17495 390.159394 
L 175.0696 390.159394 
L 172.96425 390.159394 
L 170.8589 390.159394 
L 168.75355 390.159394 
L 166.6482 390.159394 
L 164.54285 390.159394 
L 162.4375 390.159394 
L 160.33215 390.159394 
L 158.2268 390.159394 
L 156.12145 390.159394 
L 154.0161 390.159394 
L 151.91075 390.159394 
L 149.8054 390.159394 
L 147.70005 390.159394 
L 145.5947 390.159394 
L 143.48935 390.159394 
L 141.384 390.159394 
L 139.27865 390.159394 
L 137.1733 390.159394 
L 135.06795 390.159394 
L 132.9626 390.159394 
L 130.85725 390.159394 
L 128.7519 390.159394 
L 126.64655 390.159394 
L 124.5412 390.159394 
L 122.43585 390.159394 
L 120.3305 390.159394 
L 118.22515 390.159394 
L 116.1198 390.159394 
L 114.01445 390.159394 
L 111.9091 390.159394 
L 109.80375 390.159394 
L 107.6984 390.159394 
L 105.59305 390.159394 
L 103.4877 390.159394 
L 101.38235 390.159394 
L 99.277 390.159394 
L 97.17165 390.159394 
L 95.0663 390.159394 
L 92.96095 390.159394 
L 90.8556 390.159394 
L 88.75025 390.159394 
L 86.6449 390.159394 
L 84.53955 390.159394 
L 82.4342 390.159394 
L 80.32885 390.159394 
L 78.2235 390.159394 
L 76.11815 390.159394 
L 74.0128 390.159394 
L 71.90745 390.159394 
L 69.8021 390.159394 
L 67.69675 390.159394 
L 65.5914 390.159394 
L 63.48605 390.159394 
L 61.3807 390.159394 
L 59.27535 390.159394 
L 57.17 390.159394 
L 55.06465 390.159394 
L 52.9593 390.159394 
L 50.85395 390.159394 
L 48.7486 390.159394 
L 46.64325 390.159394 
L 44.5379 390.159394 
L 42.43255 390.159394 
L 40.3272 390.159394 
L 38.22185 390.159394 
L 36.1165 390.159394 
L 34.01115 390.159394 
L 31.9058 390.159394 
L 29.80045 390.159394 
L 27.6951 390.159394 
L 25.58975 390.159394 
L 23.4844 390.159394 
L 21.37905 390.159394 
L 19.2737 390.159394 
L 17.16835 390.159394 
L 15.063 390.159394 
z
" clip-path="url(#p6dbcd4d6bb)" style="fill: #008000; fill-opacity: 0.4; stroke: #008000; stroke-opacity: 0.4"/>
   </g>
   <g id="matplotlib.axis_3">
    <g id="xtick_7">
     <g id="line2d_15">
      <g>
       <use xlink:href="#m11591424ea" x="57.17" y="398.333333" style="stroke: #000000; stroke-width: 0.8"/>
      </g>
     </g>
     <g id="text_16">
      <!-- 20 -->
      <g transform="translate(50.8075 412.931771) scale(0.1 -0.1)">
       <use xlink:href="#DejaVuSans-32"/>
       <use xlink:href="#DejaVuSans-30" x="63.623047"/>
      </g>
     </g>
    </g>
    <g id="xtick_8">
     <g id="line2d_16">
      <g>
       <use xlink:href="#m11591424ea" x="99.277" y="398.333333" style="stroke: #000000; stroke-width: 0.8"/>
      </g>
     </g>
     <g id="text_17">
      <!-- 40 -->
      <g transform="translate(92.9145 412.931771) scale(0.1 -0.1)">
       <use xlink:href="#DejaVuSans-34"/>
       <use xlink:href="#DejaVuSans-30" x="63.623047"/>
      </g>
     </g>
    </g>
    <g id="xtick_9">
     <g id="line2d_17">
      <g>
       <use xlink:href="#m11591424ea" x="141.384" y="398.333333" style="stroke: #000000; stroke-width: 0.8"/>
      </g>
     </g>
     <g id="text_18">
      <!-- 60 -->
      <g transform="translate(135.0215 412.931771) scale(0.1 -0.1)">
       <use xlink:href="#DejaVuSans-36"/>
       <use xlink:href="#DejaVuSans-30" x="63.623047"/>
      </g>
     </g>
    </g>
    <g id="xtick_10">
     <g id="line2d_18">
      <g>
       <use xlink:href="#m11591424ea" x="183.491" y="398.333333" style="stroke: #000000; stroke-width: 0.8"/>
      </g>
     </g>
     <g id="text_19">
      <!-- 80 -->
      <g transform="translate(177.1285 412.931771) scale(0.1 -0.1)">
       <use xlink:href="#DejaVuSans-38"/>
       <use xlink:href="#DejaVuSans-30" x="63.623047"/>
      </g>
     </g>
    </g>
    <g id="xtick_11">
     <g id="line2d_19">
      <g>
       <use xlink:href="#m11591424ea" x="225.598" y="398.333333" style="stroke: #000000; stroke-width: 0.8"/>
      </g>
     </g>
     <g id="text_20">
      <!-- 100 -->
      <g transform="translate(216.05425 412.931771) scale(0.1 -0.1)">
       <use xlink:href="#DejaVuSans-31"/>
       <use xlink:href="#DejaVuSans-30" x="63.623047"/>
       <use xlink:href="#DejaVuSans-30" x="127.246094"/>
      </g>
     </g>
    </g>
    <g id="xtick_12">
     <g id="line2d_20">
      <g>
       <use xlink:href="#m11591424ea" x="267.705" y="398.333333" style="stroke: #000000; stroke-width: 0.8"/>
      </g>
     </g>
     <g id="text_21">
      <!-- 120 -->
      <g transform="translate(258.16125 412.931771) scale(0.1 -0.1)">
       <use xlink:href="#DejaVuSans-31"/>
       <use xlink:href="#DejaVuSans-32" x="63.623047"/>
       <use xlink:href="#DejaVuSans-30" x="127.246094"/>
      </g>
     </g>
    </g>
   </g>
   <g id="matplotlib.axis_4">
    <g id="ytick_8">
     <g id="line2d_21">
      <g>
       <use xlink:href="#m378cc3a34c" x="57.17" y="390.159394" style="stroke: #000000; stroke-width: 0.8"/>
      </g>
     </g>
     <g id="text_22">
      <!-- 0 -->
      <g transform="translate(43.8075 393.958613) scale(0.1 -0.1)">
       <use xlink:href="#DejaVuSans-30"/>
      </g>
     </g>
    </g>
    <g id="ytick_9">
     <g id="line2d_22">
      <g>
       <use xlink:href="#m378cc3a34c" x="57.17" y="366.276445" style="stroke: #000000; stroke-width: 0.8"/>
      </g>
     </g>
     <g id="text_23">
      <!-- 200 -->
      <g transform="translate(31.0825 370.075663) scale(0.1 -0.1)">
       <use xlink:href="#DejaVuSans-32"/>
       <use xlink:href="#DejaVuSans-30" x="63.623047"/>
       <use xlink:href="#DejaVuSans-30" x="127.246094"/>
      </g>
     </g>
    </g>
    <g id="ytick_10">
     <g id="line2d_23">
      <g>
       <use xlink:href="#m378cc3a34c" x="57.17" y="342.393495" style="stroke: #000000; stroke-width: 0.8"/>
      </g>
     </g>
     <g id="text_24">
      <!-- 400 -->
      <g transform="translate(31.0825 346.192714) scale(0.1 -0.1)">
       <use xlink:href="#DejaVuSans-34"/>
       <use xlink:href="#DejaVuSans-30" x="63.623047"/>
       <use xlink:href="#DejaVuSans-30" x="127.246094"/>
      </g>
     </g>
    </g>
    <g id="ytick_11">
     <g id="line2d_24">
      <g>
       <use xlink:href="#m378cc3a34c" x="57.17" y="318.510546" style="stroke: #000000; stroke-width: 0.8"/>
      </g>
     </g>
     <g id="text_25">
      <!-- 600 -->
      <g transform="translate(31.0825 322.309765) scale(0.1 -0.1)">
       <use xlink:href="#DejaVuSans-36"/>
       <use xlink:href="#DejaVuSans-30" x="63.623047"/>
       <use xlink:href="#DejaVuSans-30" x="127.246094"/>
      </g>
     </g>
    </g>
    <g id="ytick_12">
     <g id="line2d_25">
      <g>
       <use xlink:href="#m378cc3a34c" x="57.17" y="294.627597" style="stroke: #000000; stroke-width: 0.8"/>
      </g>
     </g>
     <g id="text_26">
      <!-- 800 -->
      <g transform="translate(31.0825 298.426816) scale(0.1 -0.1)">
       <use xlink:href="#DejaVuSans-38"/>
       <use xlink:href="#DejaVuSans-30" x="63.623047"/>
       <use xlink:href="#DejaVuSans-30" x="127.246094"/>
      </g>
     </g>
    </g>
    <g id="ytick_13">
     <g id="line2d_26">
      <g>
       <use xlink:href="#m378cc3a34c" x="57.17" y="270.744647" style="stroke: #000000; stroke-width: 0.8"/>
      </g>
     </g>
     <g id="text_27">
      <!-- 1000 -->
      <g transform="translate(24.72 274.543866) scale(0.1 -0.1)">
       <use xlink:href="#DejaVuSans-31"/>
       <use xlink:href="#DejaVuSans-30" x="63.623047"/>
       <use xlink:href="#DejaVuSans-30" x="127.246094"/>
       <use xlink:href="#DejaVuSans-30" x="190.869141"/>
      </g>
     </g>
    </g>
    <g id="ytick_14">
     <g id="line2d_27">
      <g>
       <use xlink:href="#m378cc3a34c" x="57.17" y="246.861698" style="stroke: #000000; stroke-width: 0.8"/>
      </g>
     </g>
     <g id="text_28">
      <!-- 1200 -->
      <g transform="translate(24.72 250.660917) scale(0.1 -0.1)">
       <use xlink:href="#DejaVuSans-31"/>
       <use xlink:href="#DejaVuSans-32" x="63.623047"/>
       <use xlink:href="#DejaVuSans-30" x="127.246094"/>
       <use xlink:href="#DejaVuSans-30" x="190.869141"/>
      </g>
     </g>
    </g>
    <g id="ytick_15">
     <g id="line2d_28">
      <g>
       <use xlink:href="#m378cc3a34c" x="57.17" y="222.978749" style="stroke: #000000; stroke-width: 0.8"/>
      </g>
     </g>
     <g id="text_29">
      <!-- 1400 -->
      <g transform="translate(24.72 226.777968) scale(0.1 -0.1)">
       <use xlink:href="#DejaVuSans-31"/>
       <use xlink:href="#DejaVuSans-34" x="63.623047"/>
       <use xlink:href="#DejaVuSans-30" x="127.246094"/>
       <use xlink:href="#DejaVuSans-30" x="190.869141"/>
      </g>
     </g>
    </g>
    <g id="text_30">
     <!-- Pixel Frequency -->
     <g transform="translate(18.640313 347.398906) rotate(-90) scale(0.1 -0.1)">
      <use xlink:href="#DejaVuSans-50"/>
      <use xlink:href="#DejaVuSans-69" x="58.052734"/>
      <use xlink:href="#DejaVuSans-78" x="85.835938"/>
      <use xlink:href="#DejaVuSans-65" x="141.890625"/>
      <use xlink:href="#DejaVuSans-6c" x="203.414062"/>
      <use xlink:href="#DejaVuSans-20" x="231.197266"/>
      <use xlink:href="#DejaVuSans-46" x="262.984375"/>
      <use xlink:href="#DejaVuSans-72" x="313.253906"/>
      <use xlink:href="#DejaVuSans-65" x="352.117188"/>
      <use xlink:href="#DejaVuSans-71" x="413.640625"/>
      <use xlink:href="#DejaVuSans-75" x="477.117188"/>
      <use xlink:href="#DejaVuSans-65" x="540.496094"/>
      <use xlink:href="#DejaVuSans-6e" x="602.019531"/>
      <use xlink:href="#DejaVuSans-63" x="665.398438"/>
      <use xlink:href="#DejaVuSans-79" x="720.378906"/>
     </g>
    </g>
   </g>
   <g id="line2d_29">
    <path d="M 15.063 390.159394 
L 17.16835 390.039979 
L 19.2737 390.159394 
L 23.4844 390.159394 
L 25.58975 390.039979 
L 27.6951 390.159394 
L 109.80375 390.159394 
L 111.9091 390.039979 
L 114.01445 390.039979 
L 116.1198 389.920564 
L 118.22515 390.159394 
L 124.5412 389.442905 
L 126.64655 389.323491 
L 128.7519 389.084661 
L 130.85725 388.368173 
L 132.9626 387.174025 
L 135.06795 385.741048 
L 137.1733 384.666316 
L 139.27865 382.158606 
L 141.384 377.501431 
L 143.48935 374.277233 
L 147.70005 350.394283 
L 149.8054 337.73632 
L 151.91075 323.167721 
L 154.0161 305.494339 
L 156.12145 290.328666 
L 158.2268 270.625233 
L 160.33215 257.72844 
L 162.4375 239.457984 
L 164.54285 243.995744 
L 166.6482 232.05427 
L 168.75355 226.680606 
L 172.96425 242.443353 
L 175.0696 235.756127 
L 177.17495 256.295463 
L 179.2803 255.698389 
L 181.38565 259.639076 
L 183.491 264.535081 
L 187.7017 279.461924 
L 189.80705 280.178412 
L 191.9124 279.939583 
L 194.01775 280.775486 
L 196.1231 283.283196 
L 198.22845 289.970422 
L 200.3338 290.448081 
L 202.43915 298.687698 
L 204.5445 298.210039 
L 206.64985 296.538233 
L 208.7552 293.672279 
L 210.86055 291.642228 
L 212.9659 301.553652 
L 215.07125 301.434237 
L 217.1766 305.733168 
L 219.28195 306.091412 
L 221.3873 310.748588 
L 223.49265 311.345661 
L 225.598 319.704694 
L 227.70335 318.86879 
L 229.8087 321.018256 
L 231.91405 327.466652 
L 234.0194 326.033675 
L 236.12475 326.869578 
L 238.2301 330.213191 
L 240.33545 331.407339 
L 242.4408 343.707058 
L 244.54615 333.795634 
L 246.6515 336.183929 
L 248.75685 339.408127 
L 250.8622 342.393495 
L 252.96755 340.841104 
L 255.0729 347.05067 
L 257.17825 344.901205 
L 259.2836 347.647744 
L 261.38895 348.603062 
L 263.4943 352.782578 
L 265.59965 349.677795 
L 267.705 354.693214 
L 269.81035 357.559168 
L 271.9157 357.081509 
L 274.02105 362.694002 
L 276.1264 360.305707 
L 278.23175 362.574588 
L 280.3371 366.754104 
L 282.44245 366.515274 
L 284.5478 366.754104 
L 286.65315 368.784154 
L 288.7585 369.978302 
L 289 369.841324 
L 289 369.841324 
" clip-path="url(#p6dbcd4d6bb)" style="fill: none; stroke: #008000; stroke-width: 1.5; stroke-linecap: square"/>
   </g>
   <g id="patch_8">
    <path d="M 57.17 398.333333 
L 57.17 218.506667 
" style="fill: none; stroke: #000000; stroke-width: 0.8; stroke-linejoin: miter; stroke-linecap: square"/>
   </g>
   <g id="patch_9">
    <path d="M 267.705 398.333333 
L 267.705 218.506667 
" style="fill: none; stroke: #000000; stroke-width: 0.8; stroke-linejoin: miter; stroke-linecap: square"/>
   </g>
   <g id="patch_10">
    <path d="M 57.17 398.333333 
L 267.705 398.333333 
" style="fill: none; stroke: #000000; stroke-width: 0.8; stroke-linejoin: miter; stroke-linecap: square"/>
   </g>
   <g id="patch_11">
    <path d="M 57.17 218.506667 
L 267.705 218.506667 
" style="fill: none; stroke: #000000; stroke-width: 0.8; stroke-linejoin: miter; stroke-linecap: square"/>
   </g>
   <g id="text_31">
    <!-- Green Channel  -->
    <g transform="translate(174.478125 232.506667) scale(0.12 -0.12)">
     <defs>
      <path id="DejaVuSans-47" d="M 3809 666 
L 3809 1919 
L 2778 1919 
L 2778 2438 
L 4434 2438 
L 4434 434 
Q 4069 175 3628 42 
Q 3188 -91 2688 -91 
Q 1594 -91 976 548 
Q 359 1188 359 2328 
Q 359 3472 976 4111 
Q 1594 4750 2688 4750 
Q 3144 4750 3555 4637 
Q 3966 4525 4313 4306 
L 4313 3634 
Q 3963 3931 3569 4081 
Q 3175 4231 2741 4231 
Q 1884 4231 1454 3753 
Q 1025 3275 1025 2328 
Q 1025 1384 1454 906 
Q 1884 428 2741 428 
Q 3075 428 3337 486 
Q 3600 544 3809 666 
z
" transform="scale(0.015625)"/>
     </defs>
     <use xlink:href="#DejaVuSans-47"/>
     <use xlink:href="#DejaVuSans-72" x="77.490234"/>
     <use xlink:href="#DejaVuSans-65" x="116.353516"/>
     <use xlink:href="#DejaVuSans-65" x="177.876953"/>
     <use xlink:href="#DejaVuSans-6e" x="239.400391"/>
     <use xlink:href="#DejaVuSans-20" x="302.779297"/>
     <use xlink:href="#DejaVuSans-43" x="334.566406"/>
     <use xlink:href="#DejaVuSans-68" x="404.390625"/>
     <use xlink:href="#DejaVuSans-61" x="467.769531"/>
     <use xlink:href="#DejaVuSans-6e" x="529.048828"/>
     <use xlink:href="#DejaVuSans-6e" x="592.427734"/>
     <use xlink:href="#DejaVuSans-65" x="655.806641"/>
     <use xlink:href="#DejaVuSans-6c" x="717.330078"/>
     <use xlink:href="#DejaVuSans-20" x="745.113281"/>
    </g>
   </g>
  </g>
  <g id="axes_3">
   <g id="patch_12">
    <path d="M 57.17 606.04 
L 267.705 606.04 
L 267.705 426.213333 
L 57.17 426.213333 
z
" style="fill: #ffffff"/>
   </g>
   <g id="PolyCollection_3">
    <path d="M 15.063 597.866061 
L 15.063 597.866061 
L 17.16835 597.866061 
L 19.2737 597.866061 
L 21.37905 597.866061 
L 23.4844 597.866061 
L 25.58975 597.866061 
L 27.6951 597.866061 
L 29.80045 597.866061 
L 31.9058 597.866061 
L 34.01115 597.866061 
L 36.1165 597.866061 
L 38.22185 597.866061 
L 40.3272 597.866061 
L 42.43255 597.866061 
L 44.5379 597.866061 
L 46.64325 597.866061 
L 48.7486 597.866061 
L 50.85395 597.866061 
L 52.9593 597.866061 
L 55.06465 597.866061 
L 57.17 597.866061 
L 59.27535 597.866061 
L 61.3807 597.866061 
L 63.48605 597.583551 
L 65.5914 597.677721 
L 67.69675 597.395212 
L 69.8021 597.112702 
L 71.90745 596.453513 
L 74.0128 596.171004 
L 76.11815 595.605985 
L 78.2235 593.34591 
L 80.32885 590.803325 
L 82.4342 588.919929 
L 84.53955 585.435646 
L 86.6449 582.798891 
L 88.75025 571.404344 
L 90.8556 566.884194 
L 92.96095 557.467213 
L 95.0663 544.565949 
L 97.17165 537.597383 
L 99.277 530.628817 
L 101.38235 513.019063 
L 103.4877 499.270271 
L 105.59305 488.723252 
L 107.6984 473.373574 
L 109.80375 466.875857 
L 111.9091 447.006027 
L 114.01445 443.521744 
L 116.1198 434.387273 
L 118.22515 438.907424 
L 120.3305 435.234801 
L 122.43585 436.176499 
L 124.5412 448.983593 
L 126.64655 447.571046 
L 128.7519 462.920725 
L 130.85725 462.732385 
L 132.9626 473.656083 
L 135.06795 482.319705 
L 137.1733 481.378007 
L 139.27865 493.996762 
L 141.384 489.75912 
L 143.48935 497.575214 
L 145.5947 497.669384 
L 147.70005 505.108799 
L 149.8054 507.463044 
L 151.91075 510.570648 
L 154.0161 519.23427 
L 156.12145 516.785855 
L 158.2268 524.41361 
L 160.33215 528.839591 
L 162.4375 531.853025 
L 164.54285 536.090666 
L 166.6482 539.480779 
L 168.75355 541.552515 
L 170.8589 547.296873 
L 172.96425 543.90676 
L 175.0696 555.489647 
L 177.17495 552.852892 
L 179.2803 558.408911 
L 181.38565 562.552382 
L 183.491 562.834892 
L 185.59635 567.449212 
L 187.7017 568.48508 
L 189.80705 570.462646 
L 191.9124 572.816891 
L 194.01775 573.193571 
L 196.1231 576.489514 
L 198.22845 578.37291 
L 200.3338 579.314608 
L 202.43915 579.973797 
L 204.5445 581.857193 
L 206.64985 584.305608 
L 208.7552 583.081401 
L 210.86055 583.834759 
L 212.9659 586.754023 
L 215.07125 587.036533 
L 217.1766 586.848193 
L 219.28195 589.108268 
L 221.3873 589.108268 
L 223.49265 589.296608 
L 225.598 589.202438 
L 227.70335 588.825759 
L 229.8087 590.614985 
L 231.91405 591.933363 
L 234.0194 591.745023 
L 236.12475 593.44008 
L 238.2301 592.875061 
L 240.33545 593.910929 
L 242.4408 593.816759 
L 244.54615 594.193438 
L 246.6515 594.381778 
L 248.75685 594.099268 
L 250.8622 594.570117 
L 252.96755 595.982664 
L 255.0729 595.417646 
L 257.17825 595.135136 
L 259.2836 595.417646 
L 261.38895 595.605985 
L 263.4943 595.605985 
L 265.59965 596.641853 
L 267.705 596.641853 
L 269.81035 596.547683 
L 271.9157 596.547683 
L 274.02105 596.076834 
L 276.1264 596.641853 
L 278.23175 596.265174 
L 280.3371 596.453513 
L 282.44245 597.018532 
L 284.5478 597.206872 
L 286.65315 596.830193 
L 288.7585 597.112702 
L 290.86385 596.924363 
L 292.9692 597.583551 
L 295.07455 597.583551 
L 297.1799 597.112702 
L 299.28525 597.112702 
L 301.3906 597.489381 
L 303.49595 597.489381 
L 305.6013 597.395212 
L 307.70665 597.395212 
L 309.812 597.489381 
L 311.91735 597.489381 
L 314.0227 597.583551 
L 316.12805 597.677721 
L 318.2334 597.677721 
L 320.33875 597.771891 
L 322.4441 597.866061 
L 324.54945 597.677721 
L 326.6548 597.677721 
L 328.76015 597.771891 
L 330.8655 597.583551 
L 332.97085 597.489381 
L 335.0762 597.771891 
L 337.18155 597.866061 
L 339.2869 597.771891 
L 341.39225 597.866061 
L 343.4976 597.866061 
L 345.60295 597.866061 
L 347.7083 597.866061 
L 349.81365 597.866061 
L 351.919 597.866061 
L 354.02435 597.866061 
L 356.1297 597.866061 
L 358.23505 597.866061 
L 360.3404 597.866061 
L 362.44575 597.866061 
L 364.5511 597.866061 
L 366.65645 597.771891 
L 368.7618 597.771891 
L 370.86715 597.866061 
L 372.9725 597.866061 
L 375.07785 597.866061 
L 377.1832 597.866061 
L 379.28855 597.866061 
L 381.3939 597.866061 
L 383.49925 597.866061 
L 385.6046 597.866061 
L 387.70995 597.866061 
L 389.8153 597.866061 
L 391.92065 597.866061 
L 394.026 597.866061 
L 396.13135 597.866061 
L 398.2367 597.866061 
L 400.34205 597.866061 
L 402.4474 597.866061 
L 404.55275 597.866061 
L 406.6581 597.866061 
L 408.76345 597.866061 
L 410.8688 597.866061 
L 412.97415 597.866061 
L 415.0795 597.866061 
L 417.18485 597.866061 
L 419.2902 597.866061 
L 421.39555 597.866061 
L 423.5009 597.866061 
L 425.60625 597.866061 
L 427.7116 597.866061 
L 429.81695 597.866061 
L 431.9223 597.866061 
L 434.02765 597.866061 
L 436.133 597.866061 
L 438.23835 597.866061 
L 440.3437 597.866061 
L 442.44905 597.866061 
L 444.5544 597.866061 
L 446.65975 597.866061 
L 448.7651 597.866061 
L 450.87045 597.866061 
L 452.9758 597.866061 
L 455.08115 597.866061 
L 457.1865 597.866061 
L 459.29185 597.866061 
L 461.3972 597.866061 
L 463.50255 597.866061 
L 465.6079 597.866061 
L 467.71325 597.866061 
L 469.8186 597.866061 
L 471.92395 597.866061 
L 474.0293 597.866061 
L 476.13465 597.866061 
L 478.24 597.866061 
L 480.34535 597.866061 
L 482.4507 597.866061 
L 484.55605 597.866061 
L 486.6614 597.866061 
L 488.76675 597.866061 
L 490.8721 597.866061 
L 492.97745 597.866061 
L 495.0828 597.866061 
L 497.18815 597.866061 
L 499.2935 597.866061 
L 501.39885 597.866061 
L 503.5042 597.866061 
L 505.60955 597.866061 
L 507.7149 597.866061 
L 509.82025 597.866061 
L 511.9256 597.866061 
L 514.03095 597.866061 
L 516.1363 597.866061 
L 518.24165 597.866061 
L 520.347 597.866061 
L 522.45235 597.866061 
L 524.5577 597.866061 
L 526.66305 597.866061 
L 528.7684 597.866061 
L 530.87375 597.866061 
L 532.9791 597.866061 
L 535.08445 597.866061 
L 537.1898 597.866061 
L 539.29515 597.866061 
L 541.4005 597.866061 
L 543.50585 597.866061 
L 545.6112 597.866061 
L 547.71655 597.866061 
L 549.8219 597.866061 
L 551.92725 597.866061 
L 551.92725 597.866061 
L 551.92725 597.866061 
L 549.8219 597.866061 
L 547.71655 597.866061 
L 545.6112 597.866061 
L 543.50585 597.866061 
L 541.4005 597.866061 
L 539.29515 597.866061 
L 537.1898 597.866061 
L 535.08445 597.866061 
L 532.9791 597.866061 
L 530.87375 597.866061 
L 528.7684 597.866061 
L 526.66305 597.866061 
L 524.5577 597.866061 
L 522.45235 597.866061 
L 520.347 597.866061 
L 518.24165 597.866061 
L 516.1363 597.866061 
L 514.03095 597.866061 
L 511.9256 597.866061 
L 509.82025 597.866061 
L 507.7149 597.866061 
L 505.60955 597.866061 
L 503.5042 597.866061 
L 501.39885 597.866061 
L 499.2935 597.866061 
L 497.18815 597.866061 
L 495.0828 597.866061 
L 492.97745 597.866061 
L 490.8721 597.866061 
L 488.76675 597.866061 
L 486.6614 597.866061 
L 484.55605 597.866061 
L 482.4507 597.866061 
L 480.34535 597.866061 
L 478.24 597.866061 
L 476.13465 597.866061 
L 474.0293 597.866061 
L 471.92395 597.866061 
L 469.8186 597.866061 
L 467.71325 597.866061 
L 465.6079 597.866061 
L 463.50255 597.866061 
L 461.3972 597.866061 
L 459.29185 597.866061 
L 457.1865 597.866061 
L 455.08115 597.866061 
L 452.9758 597.866061 
L 450.87045 597.866061 
L 448.7651 597.866061 
L 446.65975 597.866061 
L 444.5544 597.866061 
L 442.44905 597.866061 
L 440.3437 597.866061 
L 438.23835 597.866061 
L 436.133 597.866061 
L 434.02765 597.866061 
L 431.9223 597.866061 
L 429.81695 597.866061 
L 427.7116 597.866061 
L 425.60625 597.866061 
L 423.5009 597.866061 
L 421.39555 597.866061 
L 419.2902 597.866061 
L 417.18485 597.866061 
L 415.0795 597.866061 
L 412.97415 597.866061 
L 410.8688 597.866061 
L 408.76345 597.866061 
L 406.6581 597.866061 
L 404.55275 597.866061 
L 402.4474 597.866061 
L 400.34205 597.866061 
L 398.2367 597.866061 
L 396.13135 597.866061 
L 394.026 597.866061 
L 391.92065 597.866061 
L 389.8153 597.866061 
L 387.70995 597.866061 
L 385.6046 597.866061 
L 383.49925 597.866061 
L 381.3939 597.866061 
L 379.28855 597.866061 
L 377.1832 597.866061 
L 375.07785 597.866061 
L 372.9725 597.866061 
L 370.86715 597.866061 
L 368.7618 597.866061 
L 366.65645 597.866061 
L 364.5511 597.866061 
L 362.44575 597.866061 
L 360.3404 597.866061 
L 358.23505 597.866061 
L 356.1297 597.866061 
L 354.02435 597.866061 
L 351.919 597.866061 
L 349.81365 597.866061 
L 347.7083 597.866061 
L 345.60295 597.866061 
L 343.4976 597.866061 
L 341.39225 597.866061 
L 339.2869 597.866061 
L 337.18155 597.866061 
L 335.0762 597.866061 
L 332.97085 597.866061 
L 330.8655 597.866061 
L 328.76015 597.866061 
L 326.6548 597.866061 
L 324.54945 597.866061 
L 322.4441 597.866061 
L 320.33875 597.866061 
L 318.2334 597.866061 
L 316.12805 597.866061 
L 314.0227 597.866061 
L 311.91735 597.866061 
L 309.812 597.866061 
L 307.70665 597.866061 
L 305.6013 597.866061 
L 303.49595 597.866061 
L 301.3906 597.866061 
L 299.28525 597.866061 
L 297.1799 597.866061 
L 295.07455 597.866061 
L 292.9692 597.866061 
L 290.86385 597.866061 
L 288.7585 597.866061 
L 286.65315 597.866061 
L 284.5478 597.866061 
L 282.44245 597.866061 
L 280.3371 597.866061 
L 278.23175 597.866061 
L 276.1264 597.866061 
L 274.02105 597.866061 
L 271.9157 597.866061 
L 269.81035 597.866061 
L 267.705 597.866061 
L 265.59965 597.866061 
L 263.4943 597.866061 
L 261.38895 597.866061 
L 259.2836 597.866061 
L 257.17825 597.866061 
L 255.0729 597.866061 
L 252.96755 597.866061 
L 250.8622 597.866061 
L 248.75685 597.866061 
L 246.6515 597.866061 
L 244.54615 597.866061 
L 242.4408 597.866061 
L 240.33545 597.866061 
L 238.2301 597.866061 
L 236.12475 597.866061 
L 234.0194 597.866061 
L 231.91405 597.866061 
L 229.8087 597.866061 
L 227.70335 597.866061 
L 225.598 597.866061 
L 223.49265 597.866061 
L 221.3873 597.866061 
L 219.28195 597.866061 
L 217.1766 597.866061 
L 215.07125 597.866061 
L 212.9659 597.866061 
L 210.86055 597.866061 
L 208.7552 597.866061 
L 206.64985 597.866061 
L 204.5445 597.866061 
L 202.43915 597.866061 
L 200.3338 597.866061 
L 198.22845 597.866061 
L 196.1231 597.866061 
L 194.01775 597.866061 
L 191.9124 597.866061 
L 189.80705 597.866061 
L 187.7017 597.866061 
L 185.59635 597.866061 
L 183.491 597.866061 
L 181.38565 597.866061 
L 179.2803 597.866061 
L 177.17495 597.866061 
L 175.0696 597.866061 
L 172.96425 597.866061 
L 170.8589 597.866061 
L 168.75355 597.866061 
L 166.6482 597.866061 
L 164.54285 597.866061 
L 162.4375 597.866061 
L 160.33215 597.866061 
L 158.2268 597.866061 
L 156.12145 597.866061 
L 154.0161 597.866061 
L 151.91075 597.866061 
L 149.8054 597.866061 
L 147.70005 597.866061 
L 145.5947 597.866061 
L 143.48935 597.866061 
L 141.384 597.866061 
L 139.27865 597.866061 
L 137.1733 597.866061 
L 135.06795 597.866061 
L 132.9626 597.866061 
L 130.85725 597.866061 
L 128.7519 597.866061 
L 126.64655 597.866061 
L 124.5412 597.866061 
L 122.43585 597.866061 
L 120.3305 597.866061 
L 118.22515 597.866061 
L 116.1198 597.866061 
L 114.01445 597.866061 
L 111.9091 597.866061 
L 109.80375 597.866061 
L 107.6984 597.866061 
L 105.59305 597.866061 
L 103.4877 597.866061 
L 101.38235 597.866061 
L 99.277 597.866061 
L 97.17165 597.866061 
L 95.0663 597.866061 
L 92.96095 597.866061 
L 90.8556 597.866061 
L 88.75025 597.866061 
L 86.6449 597.866061 
L 84.53955 597.866061 
L 82.4342 597.866061 
L 80.32885 597.866061 
L 78.2235 597.866061 
L 76.11815 597.866061 
L 74.0128 597.866061 
L 71.90745 597.866061 
L 69.8021 597.866061 
L 67.69675 597.866061 
L 65.5914 597.866061 
L 63.48605 597.866061 
L 61.3807 597.866061 
L 59.27535 597.866061 
L 57.17 597.866061 
L 55.06465 597.866061 
L 52.9593 597.866061 
L 50.85395 597.866061 
L 48.7486 597.866061 
L 46.64325 597.866061 
L 44.5379 597.866061 
L 42.43255 597.866061 
L 40.3272 597.866061 
L 38.22185 597.866061 
L 36.1165 597.866061 
L 34.01115 597.866061 
L 31.9058 597.866061 
L 29.80045 597.866061 
L 27.6951 597.866061 
L 25.58975 597.866061 
L 23.4844 597.866061 
L 21.37905 597.866061 
L 19.2737 597.866061 
L 17.16835 597.866061 
L 15.063 597.866061 
z
" clip-path="url(#p0ae48f3e65)" style="fill: #0000ff; fill-opacity: 0.4; stroke: #0000ff; stroke-opacity: 0.4"/>
   </g>
   <g id="matplotlib.axis_5">
    <g id="xtick_13">
     <g id="line2d_30">
      <g>
       <use xlink:href="#m11591424ea" x="57.17" y="606.04" style="stroke: #000000; stroke-width: 0.8"/>
      </g>
     </g>
     <g id="text_32">
      <!-- 20 -->
      <g transform="translate(50.8075 620.638438) scale(0.1 -0.1)">
       <use xlink:href="#DejaVuSans-32"/>
       <use xlink:href="#DejaVuSans-30" x="63.623047"/>
      </g>
     </g>
    </g>
    <g id="xtick_14">
     <g id="line2d_31">
      <g>
       <use xlink:href="#m11591424ea" x="99.277" y="606.04" style="stroke: #000000; stroke-width: 0.8"/>
      </g>
     </g>
     <g id="text_33">
      <!-- 40 -->
      <g transform="translate(92.9145 620.638438) scale(0.1 -0.1)">
       <use xlink:href="#DejaVuSans-34"/>
       <use xlink:href="#DejaVuSans-30" x="63.623047"/>
      </g>
     </g>
    </g>
    <g id="xtick_15">
     <g id="line2d_32">
      <g>
       <use xlink:href="#m11591424ea" x="141.384" y="606.04" style="stroke: #000000; stroke-width: 0.8"/>
      </g>
     </g>
     <g id="text_34">
      <!-- 60 -->
      <g transform="translate(135.0215 620.638438) scale(0.1 -0.1)">
       <use xlink:href="#DejaVuSans-36"/>
       <use xlink:href="#DejaVuSans-30" x="63.623047"/>
      </g>
     </g>
    </g>
    <g id="xtick_16">
     <g id="line2d_33">
      <g>
       <use xlink:href="#m11591424ea" x="183.491" y="606.04" style="stroke: #000000; stroke-width: 0.8"/>
      </g>
     </g>
     <g id="text_35">
      <!-- 80 -->
      <g transform="translate(177.1285 620.638438) scale(0.1 -0.1)">
       <use xlink:href="#DejaVuSans-38"/>
       <use xlink:href="#DejaVuSans-30" x="63.623047"/>
      </g>
     </g>
    </g>
    <g id="xtick_17">
     <g id="line2d_34">
      <g>
       <use xlink:href="#m11591424ea" x="225.598" y="606.04" style="stroke: #000000; stroke-width: 0.8"/>
      </g>
     </g>
     <g id="text_36">
      <!-- 100 -->
      <g transform="translate(216.05425 620.638438) scale(0.1 -0.1)">
       <use xlink:href="#DejaVuSans-31"/>
       <use xlink:href="#DejaVuSans-30" x="63.623047"/>
       <use xlink:href="#DejaVuSans-30" x="127.246094"/>
      </g>
     </g>
    </g>
    <g id="xtick_18">
     <g id="line2d_35">
      <g>
       <use xlink:href="#m11591424ea" x="267.705" y="606.04" style="stroke: #000000; stroke-width: 0.8"/>
      </g>
     </g>
     <g id="text_37">
      <!-- 120 -->
      <g transform="translate(258.16125 620.638438) scale(0.1 -0.1)">
       <use xlink:href="#DejaVuSans-31"/>
       <use xlink:href="#DejaVuSans-32" x="63.623047"/>
       <use xlink:href="#DejaVuSans-30" x="127.246094"/>
      </g>
     </g>
    </g>
    <g id="text_38">
     <!-- Pixel Intensity -->
     <g transform="translate(127.525781 634.316563) scale(0.1 -0.1)">
      <defs>
       <path id="DejaVuSans-49" d="M 628 4666 
L 1259 4666 
L 1259 0 
L 628 0 
L 628 4666 
z
" transform="scale(0.015625)"/>
       <path id="DejaVuSans-74" d="M 1172 4494 
L 1172 3500 
L 2356 3500 
L 2356 3053 
L 1172 3053 
L 1172 1153 
Q 1172 725 1289 603 
Q 1406 481 1766 481 
L 2356 481 
L 2356 0 
L 1766 0 
Q 1100 0 847 248 
Q 594 497 594 1153 
L 594 3053 
L 172 3053 
L 172 3500 
L 594 3500 
L 594 4494 
L 1172 4494 
z
" transform="scale(0.015625)"/>
       <path id="DejaVuSans-73" d="M 2834 3397 
L 2834 2853 
Q 2591 2978 2328 3040 
Q 2066 3103 1784 3103 
Q 1356 3103 1142 2972 
Q 928 2841 928 2578 
Q 928 2378 1081 2264 
Q 1234 2150 1697 2047 
L 1894 2003 
Q 2506 1872 2764 1633 
Q 3022 1394 3022 966 
Q 3022 478 2636 193 
Q 2250 -91 1575 -91 
Q 1294 -91 989 -36 
Q 684 19 347 128 
L 347 722 
Q 666 556 975 473 
Q 1284 391 1588 391 
Q 1994 391 2212 530 
Q 2431 669 2431 922 
Q 2431 1156 2273 1281 
Q 2116 1406 1581 1522 
L 1381 1569 
Q 847 1681 609 1914 
Q 372 2147 372 2553 
Q 372 3047 722 3315 
Q 1072 3584 1716 3584 
Q 2034 3584 2315 3537 
Q 2597 3491 2834 3397 
z
" transform="scale(0.015625)"/>
      </defs>
      <use xlink:href="#DejaVuSans-50"/>
      <use xlink:href="#DejaVuSans-69" x="58.052734"/>
      <use xlink:href="#DejaVuSans-78" x="85.835938"/>
      <use xlink:href="#DejaVuSans-65" x="141.890625"/>
      <use xlink:href="#DejaVuSans-6c" x="203.414062"/>
      <use xlink:href="#DejaVuSans-20" x="231.197266"/>
      <use xlink:href="#DejaVuSans-49" x="262.984375"/>
      <use xlink:href="#DejaVuSans-6e" x="292.476562"/>
      <use xlink:href="#DejaVuSans-74" x="355.855469"/>
      <use xlink:href="#DejaVuSans-65" x="395.064453"/>
      <use xlink:href="#DejaVuSans-6e" x="456.587891"/>
      <use xlink:href="#DejaVuSans-73" x="519.966797"/>
      <use xlink:href="#DejaVuSans-69" x="572.066406"/>
      <use xlink:href="#DejaVuSans-74" x="599.849609"/>
      <use xlink:href="#DejaVuSans-79" x="639.058594"/>
     </g>
    </g>
   </g>
   <g id="matplotlib.axis_6">
    <g id="ytick_16">
     <g id="line2d_36">
      <g>
       <use xlink:href="#m378cc3a34c" x="57.17" y="597.866061" style="stroke: #000000; stroke-width: 0.8"/>
      </g>
     </g>
     <g id="text_39">
      <!-- 0 -->
      <g transform="translate(43.8075 601.665279) scale(0.1 -0.1)">
       <use xlink:href="#DejaVuSans-30"/>
      </g>
     </g>
    </g>
    <g id="ytick_17">
     <g id="line2d_37">
      <g>
       <use xlink:href="#m378cc3a34c" x="57.17" y="574.323608" style="stroke: #000000; stroke-width: 0.8"/>
      </g>
     </g>
     <g id="text_40">
      <!-- 250 -->
      <g transform="translate(31.0825 578.122827) scale(0.1 -0.1)">
       <defs>
        <path id="DejaVuSans-35" d="M 691 4666 
L 3169 4666 
L 3169 4134 
L 1269 4134 
L 1269 2991 
Q 1406 3038 1543 3061 
Q 1681 3084 1819 3084 
Q 2600 3084 3056 2656 
Q 3513 2228 3513 1497 
Q 3513 744 3044 326 
Q 2575 -91 1722 -91 
Q 1428 -91 1123 -41 
Q 819 9 494 109 
L 494 744 
Q 775 591 1075 516 
Q 1375 441 1709 441 
Q 2250 441 2565 725 
Q 2881 1009 2881 1497 
Q 2881 1984 2565 2268 
Q 2250 2553 1709 2553 
Q 1456 2553 1204 2497 
Q 953 2441 691 2322 
L 691 4666 
z
" transform="scale(0.015625)"/>
       </defs>
       <use xlink:href="#DejaVuSans-32"/>
       <use xlink:href="#DejaVuSans-35" x="63.623047"/>
       <use xlink:href="#DejaVuSans-30" x="127.246094"/>
      </g>
     </g>
    </g>
    <g id="ytick_18">
     <g id="line2d_38">
      <g>
       <use xlink:href="#m378cc3a34c" x="57.17" y="550.781156" style="stroke: #000000; stroke-width: 0.8"/>
      </g>
     </g>
     <g id="text_41">
      <!-- 500 -->
      <g transform="translate(31.0825 554.580375) scale(0.1 -0.1)">
       <use xlink:href="#DejaVuSans-35"/>
       <use xlink:href="#DejaVuSans-30" x="63.623047"/>
       <use xlink:href="#DejaVuSans-30" x="127.246094"/>
      </g>
     </g>
    </g>
    <g id="ytick_19">
     <g id="line2d_39">
      <g>
       <use xlink:href="#m378cc3a34c" x="57.17" y="527.238704" style="stroke: #000000; stroke-width: 0.8"/>
      </g>
     </g>
     <g id="text_42">
      <!-- 750 -->
      <g transform="translate(31.0825 531.037923) scale(0.1 -0.1)">
       <defs>
        <path id="DejaVuSans-37" d="M 525 4666 
L 3525 4666 
L 3525 4397 
L 1831 0 
L 1172 0 
L 2766 4134 
L 525 4134 
L 525 4666 
z
" transform="scale(0.015625)"/>
       </defs>
       <use xlink:href="#DejaVuSans-37"/>
       <use xlink:href="#DejaVuSans-35" x="63.623047"/>
       <use xlink:href="#DejaVuSans-30" x="127.246094"/>
      </g>
     </g>
    </g>
    <g id="ytick_20">
     <g id="line2d_40">
      <g>
       <use xlink:href="#m378cc3a34c" x="57.17" y="503.696252" style="stroke: #000000; stroke-width: 0.8"/>
      </g>
     </g>
     <g id="text_43">
      <!-- 1000 -->
      <g transform="translate(24.72 507.495471) scale(0.1 -0.1)">
       <use xlink:href="#DejaVuSans-31"/>
       <use xlink:href="#DejaVuSans-30" x="63.623047"/>
       <use xlink:href="#DejaVuSans-30" x="127.246094"/>
       <use xlink:href="#DejaVuSans-30" x="190.869141"/>
      </g>
     </g>
    </g>
    <g id="ytick_21">
     <g id="line2d_41">
      <g>
       <use xlink:href="#m378cc3a34c" x="57.17" y="480.1538" style="stroke: #000000; stroke-width: 0.8"/>
      </g>
     </g>
     <g id="text_44">
      <!-- 1250 -->
      <g transform="translate(24.72 483.953018) scale(0.1 -0.1)">
       <use xlink:href="#DejaVuSans-31"/>
       <use xlink:href="#DejaVuSans-32" x="63.623047"/>
       <use xlink:href="#DejaVuSans-35" x="127.246094"/>
       <use xlink:href="#DejaVuSans-30" x="190.869141"/>
      </g>
     </g>
    </g>
    <g id="ytick_22">
     <g id="line2d_42">
      <g>
       <use xlink:href="#m378cc3a34c" x="57.17" y="456.611348" style="stroke: #000000; stroke-width: 0.8"/>
      </g>
     </g>
     <g id="text_45">
      <!-- 1500 -->
      <g transform="translate(24.72 460.410566) scale(0.1 -0.1)">
       <use xlink:href="#DejaVuSans-31"/>
       <use xlink:href="#DejaVuSans-35" x="63.623047"/>
       <use xlink:href="#DejaVuSans-30" x="127.246094"/>
       <use xlink:href="#DejaVuSans-30" x="190.869141"/>
      </g>
     </g>
    </g>
    <g id="ytick_23">
     <g id="line2d_43">
      <g>
       <use xlink:href="#m378cc3a34c" x="57.17" y="433.068895" style="stroke: #000000; stroke-width: 0.8"/>
      </g>
     </g>
     <g id="text_46">
      <!-- 1750 -->
      <g transform="translate(24.72 436.868114) scale(0.1 -0.1)">
       <use xlink:href="#DejaVuSans-31"/>
       <use xlink:href="#DejaVuSans-37" x="63.623047"/>
       <use xlink:href="#DejaVuSans-35" x="127.246094"/>
       <use xlink:href="#DejaVuSans-30" x="190.869141"/>
      </g>
     </g>
    </g>
    <g id="text_47">
     <!-- Pixel Frequency -->
     <g transform="translate(18.640313 555.105573) rotate(-90) scale(0.1 -0.1)">
      <use xlink:href="#DejaVuSans-50"/>
      <use xlink:href="#DejaVuSans-69" x="58.052734"/>
      <use xlink:href="#DejaVuSans-78" x="85.835938"/>
      <use xlink:href="#DejaVuSans-65" x="141.890625"/>
      <use xlink:href="#DejaVuSans-6c" x="203.414062"/>
      <use xlink:href="#DejaVuSans-20" x="231.197266"/>
      <use xlink:href="#DejaVuSans-46" x="262.984375"/>
      <use xlink:href="#DejaVuSans-72" x="313.253906"/>
      <use xlink:href="#DejaVuSans-65" x="352.117188"/>
      <use xlink:href="#DejaVuSans-71" x="413.640625"/>
      <use xlink:href="#DejaVuSans-75" x="477.117188"/>
      <use xlink:href="#DejaVuSans-65" x="540.496094"/>
      <use xlink:href="#DejaVuSans-6e" x="602.019531"/>
      <use xlink:href="#DejaVuSans-63" x="665.398438"/>
      <use xlink:href="#DejaVuSans-79" x="720.378906"/>
     </g>
    </g>
   </g>
   <g id="line2d_44">
    <path d="M 15.063 597.866061 
L 61.3807 597.866061 
L 63.48605 597.583551 
L 65.5914 597.677721 
L 69.8021 597.112702 
L 71.90745 596.453513 
L 74.0128 596.171004 
L 76.11815 595.605985 
L 78.2235 593.34591 
L 80.32885 590.803325 
L 82.4342 588.919929 
L 84.53955 585.435646 
L 86.6449 582.798891 
L 88.75025 571.404344 
L 90.8556 566.884194 
L 92.96095 557.467213 
L 95.0663 544.565949 
L 99.277 530.628817 
L 101.38235 513.019063 
L 103.4877 499.270271 
L 105.59305 488.723252 
L 107.6984 473.373574 
L 109.80375 466.875857 
L 111.9091 447.006027 
L 114.01445 443.521744 
L 116.1198 434.387273 
L 118.22515 438.907424 
L 120.3305 435.234801 
L 122.43585 436.176499 
L 124.5412 448.983593 
L 126.64655 447.571046 
L 128.7519 462.920725 
L 130.85725 462.732385 
L 132.9626 473.656083 
L 135.06795 482.319705 
L 137.1733 481.378007 
L 139.27865 493.996762 
L 141.384 489.75912 
L 143.48935 497.575214 
L 145.5947 497.669384 
L 147.70005 505.108799 
L 149.8054 507.463044 
L 151.91075 510.570648 
L 154.0161 519.23427 
L 156.12145 516.785855 
L 158.2268 524.41361 
L 160.33215 528.839591 
L 162.4375 531.853025 
L 164.54285 536.090666 
L 166.6482 539.480779 
L 168.75355 541.552515 
L 170.8589 547.296873 
L 172.96425 543.90676 
L 175.0696 555.489647 
L 177.17495 552.852892 
L 179.2803 558.408911 
L 181.38565 562.552382 
L 183.491 562.834892 
L 185.59635 567.449212 
L 187.7017 568.48508 
L 189.80705 570.462646 
L 191.9124 572.816891 
L 194.01775 573.193571 
L 196.1231 576.489514 
L 198.22845 578.37291 
L 200.3338 579.314608 
L 202.43915 579.973797 
L 204.5445 581.857193 
L 206.64985 584.305608 
L 208.7552 583.081401 
L 210.86055 583.834759 
L 212.9659 586.754023 
L 215.07125 587.036533 
L 217.1766 586.848193 
L 219.28195 589.108268 
L 221.3873 589.108268 
L 223.49265 589.296608 
L 225.598 589.202438 
L 227.70335 588.825759 
L 229.8087 590.614985 
L 231.91405 591.933363 
L 234.0194 591.745023 
L 236.12475 593.44008 
L 238.2301 592.875061 
L 240.33545 593.910929 
L 242.4408 593.816759 
L 244.54615 594.193438 
L 246.6515 594.381778 
L 248.75685 594.099268 
L 250.8622 594.570117 
L 252.96755 595.982664 
L 255.0729 595.417646 
L 257.17825 595.135136 
L 261.38895 595.605985 
L 263.4943 595.605985 
L 265.59965 596.641853 
L 271.9157 596.547683 
L 274.02105 596.076834 
L 276.1264 596.641853 
L 278.23175 596.265174 
L 280.3371 596.453513 
L 282.44245 597.018532 
L 284.5478 597.206872 
L 286.65315 596.830193 
L 289 597.091098 
L 289 597.091098 
" clip-path="url(#p0ae48f3e65)" style="fill: none; stroke: #0000ff; stroke-width: 1.5; stroke-linecap: square"/>
   </g>
   <g id="patch_13">
    <path d="M 57.17 606.04 
L 57.17 426.213333 
" style="fill: none; stroke: #000000; stroke-width: 0.8; stroke-linejoin: miter; stroke-linecap: square"/>
   </g>
   <g id="patch_14">
    <path d="M 267.705 606.04 
L 267.705 426.213333 
" style="fill: none; stroke: #000000; stroke-width: 0.8; stroke-linejoin: miter; stroke-linecap: square"/>
   </g>
   <g id="patch_15">
    <path d="M 57.17 606.04 
L 267.705 606.04 
" style="fill: none; stroke: #000000; stroke-width: 0.8; stroke-linejoin: miter; stroke-linecap: square"/>
   </g>
   <g id="patch_16">
    <path d="M 57.17 426.213333 
L 267.705 426.213333 
" style="fill: none; stroke: #000000; stroke-width: 0.8; stroke-linejoin: miter; stroke-linecap: square"/>
   </g>
   <g id="text_48">
    <!-- Blue Channel  -->
    <g transform="translate(184.25625 440.213333) scale(0.12 -0.12)">
     <defs>
      <path id="DejaVuSans-42" d="M 1259 2228 
L 1259 519 
L 2272 519 
Q 2781 519 3026 730 
Q 3272 941 3272 1375 
Q 3272 1813 3026 2020 
Q 2781 2228 2272 2228 
L 1259 2228 
z
M 1259 4147 
L 1259 2741 
L 2194 2741 
Q 2656 2741 2882 2914 
Q 3109 3088 3109 3444 
Q 3109 3797 2882 3972 
Q 2656 4147 2194 4147 
L 1259 4147 
z
M 628 4666 
L 2241 4666 
Q 2963 4666 3353 4366 
Q 3744 4066 3744 3513 
Q 3744 3084 3544 2831 
Q 3344 2578 2956 2516 
Q 3422 2416 3680 2098 
Q 3938 1781 3938 1306 
Q 3938 681 3513 340 
Q 3088 0 2303 0 
L 628 0 
L 628 4666 
z
" transform="scale(0.015625)"/>
     </defs>
     <use xlink:href="#DejaVuSans-42"/>
     <use xlink:href="#DejaVuSans-6c" x="68.603516"/>
     <use xlink:href="#DejaVuSans-75" x="96.386719"/>
     <use xlink:href="#DejaVuSans-65" x="159.765625"/>
     <use xlink:href="#DejaVuSans-20" x="221.289062"/>
     <use xlink:href="#DejaVuSans-43" x="253.076172"/>
     <use xlink:href="#DejaVuSans-68" x="322.900391"/>
     <use xlink:href="#DejaVuSans-61" x="386.279297"/>
     <use xlink:href="#DejaVuSans-6e" x="447.558594"/>
     <use xlink:href="#DejaVuSans-6e" x="510.9375"/>
     <use xlink:href="#DejaVuSans-65" x="574.316406"/>
     <use xlink:href="#DejaVuSans-6c" x="635.839844"/>
     <use xlink:href="#DejaVuSans-20" x="663.623047"/>
    </g>
   </g>
  </g>
 </g>
 <defs>
  <clipPath id="p5d951d8e8b">
   <rect x="57.17" y="10.8" width="210.535" height="179.826667"/>
  </clipPath>
  <clipPath id="p6dbcd4d6bb">
   <rect x="57.17" y="218.506667" width="210.535" height="179.826667"/>
  </clipPath>
  <clipPath id="p0ae48f3e65">
   <rect x="57.17" y="426.213333" width="210.535" height="179.826667"/>
  </clipPath>
 </defs>
</svg>
