<?xml version="1.0" encoding="utf-8" standalone="no"?>
<!DOCTYPE svg PUBLIC "-//W3C//DTD SVG 1.1//EN"
  "http://www.w3.org/Graphics/SVG/1.1/DTD/svg11.dtd">
<svg xmlns:xlink="http://www.w3.org/1999/xlink" width="720pt" height="360pt" viewBox="0 0 720 360" xmlns="http://www.w3.org/2000/svg" version="1.1">
 <metadata>
  <rdf:RDF xmlns:dc="http://purl.org/dc/elements/1.1/" xmlns:cc="http://creativecommons.org/ns#" xmlns:rdf="http://www.w3.org/1999/02/22-rdf-syntax-ns#">
   <cc:Work>
    <dc:type rdf:resource="http://purl.org/dc/dcmitype/StillImage"/>
    <dc:date>2023-09-26T11:40:32.184392</dc:date>
    <dc:format>image/svg+xml</dc:format>
    <dc:creator>
     <cc:Agent>
      <dc:title>Matplotlib v3.8.0, https://matplotlib.org/</dc:title>
     </cc:Agent>
    </dc:creator>
   </cc:Work>
  </rdf:RDF>
 </metadata>
 <defs>
  <style type="text/css">*{stroke-linejoin: round; stroke-linecap: butt}</style>
 </defs>
 <g id="figure_1">
  <g id="patch_1">
   <path d="M 0 360 
L 720 360 
L 720 0 
L 0 0 
z
" style="fill: #ffffff"/>
  </g>
  <g id="axes_1">
   <g id="patch_2">
    <path d="M 90 320.4 
L 648 320.4 
L 648 43.2 
L 90 43.2 
z
" style="fill: #ffffff"/>
   </g>
   <g id="matplotlib.axis_1">
    <g id="xtick_1">
     <g id="line2d_1">
      <defs>
       <path id="m4e971dd913" d="M 0 0 
L 0 3.5 
" style="stroke: #000000; stroke-width: 0.8"/>
      </defs>
      <g>
       <use xlink:href="#m4e971dd913" x="137.330357" y="320.4" style="stroke: #000000; stroke-width: 0.8"/>
      </g>
     </g>
     <g id="text_1">
      <!-- 50 -->
      <g transform="translate(130.967857 334.998438) scale(0.1 -0.1)">
       <defs>
        <path id="DejaVuSans-35" d="M 691 4666 
L 3169 4666 
L 3169 4134 
L 1269 4134 
L 1269 2991 
Q 1406 3038 1543 3061 
Q 1681 3084 1819 3084 
Q 2600 3084 3056 2656 
Q 3513 2228 3513 1497 
Q 3513 744 3044 326 
Q 2575 -91 1722 -91 
Q 1428 -91 1123 -41 
Q 819 9 494 109 
L 494 744 
Q 775 591 1075 516 
Q 1375 441 1709 441 
Q 2250 441 2565 725 
Q 2881 1009 2881 1497 
Q 2881 1984 2565 2268 
Q 2250 2553 1709 2553 
Q 1456 2553 1204 2497 
Q 953 2441 691 2322 
L 691 4666 
z
" transform="scale(0.015625)"/>
        <path id="DejaVuSans-30" d="M 2034 4250 
Q 1547 4250 1301 3770 
Q 1056 3291 1056 2328 
Q 1056 1369 1301 889 
Q 1547 409 2034 409 
Q 2525 409 2770 889 
Q 3016 1369 3016 2328 
Q 3016 3291 2770 3770 
Q 2525 4250 2034 4250 
z
M 2034 4750 
Q 2819 4750 3233 4129 
Q 3647 3509 3647 2328 
Q 3647 1150 3233 529 
Q 2819 -91 2034 -91 
Q 1250 -91 836 529 
Q 422 1150 422 2328 
Q 422 3509 836 4129 
Q 1250 4750 2034 4750 
z
" transform="scale(0.015625)"/>
       </defs>
       <use xlink:href="#DejaVuSans-35"/>
       <use xlink:href="#DejaVuSans-30" x="63.623047"/>
      </g>
     </g>
    </g>
    <g id="xtick_2">
     <g id="line2d_2">
      <g>
       <use xlink:href="#m4e971dd913" x="199.607143" y="320.4" style="stroke: #000000; stroke-width: 0.8"/>
      </g>
     </g>
     <g id="text_2">
      <!-- 75 -->
      <g transform="translate(193.244643 334.998438) scale(0.1 -0.1)">
       <defs>
        <path id="DejaVuSans-37" d="M 525 4666 
L 3525 4666 
L 3525 4397 
L 1831 0 
L 1172 0 
L 2766 4134 
L 525 4134 
L 525 4666 
z
" transform="scale(0.015625)"/>
       </defs>
       <use xlink:href="#DejaVuSans-37"/>
       <use xlink:href="#DejaVuSans-35" x="63.623047"/>
      </g>
     </g>
    </g>
    <g id="xtick_3">
     <g id="line2d_3">
      <g>
       <use xlink:href="#m4e971dd913" x="261.883929" y="320.4" style="stroke: #000000; stroke-width: 0.8"/>
      </g>
     </g>
     <g id="text_3">
      <!-- 100 -->
      <g transform="translate(252.340179 334.998438) scale(0.1 -0.1)">
       <defs>
        <path id="DejaVuSans-31" d="M 794 531 
L 1825 531 
L 1825 4091 
L 703 3866 
L 703 4441 
L 1819 4666 
L 2450 4666 
L 2450 531 
L 3481 531 
L 3481 0 
L 794 0 
L 794 531 
z
" transform="scale(0.015625)"/>
       </defs>
       <use xlink:href="#DejaVuSans-31"/>
       <use xlink:href="#DejaVuSans-30" x="63.623047"/>
       <use xlink:href="#DejaVuSans-30" x="127.246094"/>
      </g>
     </g>
    </g>
    <g id="xtick_4">
     <g id="line2d_4">
      <g>
       <use xlink:href="#m4e971dd913" x="324.160714" y="320.4" style="stroke: #000000; stroke-width: 0.8"/>
      </g>
     </g>
     <g id="text_4">
      <!-- 125 -->
      <g transform="translate(314.616964 334.998438) scale(0.1 -0.1)">
       <defs>
        <path id="DejaVuSans-32" d="M 1228 531 
L 3431 531 
L 3431 0 
L 469 0 
L 469 531 
Q 828 903 1448 1529 
Q 2069 2156 2228 2338 
Q 2531 2678 2651 2914 
Q 2772 3150 2772 3378 
Q 2772 3750 2511 3984 
Q 2250 4219 1831 4219 
Q 1534 4219 1204 4116 
Q 875 4013 500 3803 
L 500 4441 
Q 881 4594 1212 4672 
Q 1544 4750 1819 4750 
Q 2544 4750 2975 4387 
Q 3406 4025 3406 3419 
Q 3406 3131 3298 2873 
Q 3191 2616 2906 2266 
Q 2828 2175 2409 1742 
Q 1991 1309 1228 531 
z
" transform="scale(0.015625)"/>
       </defs>
       <use xlink:href="#DejaVuSans-31"/>
       <use xlink:href="#DejaVuSans-32" x="63.623047"/>
       <use xlink:href="#DejaVuSans-35" x="127.246094"/>
      </g>
     </g>
    </g>
    <g id="xtick_5">
     <g id="line2d_5">
      <g>
       <use xlink:href="#m4e971dd913" x="386.4375" y="320.4" style="stroke: #000000; stroke-width: 0.8"/>
      </g>
     </g>
     <g id="text_5">
      <!-- 150 -->
      <g transform="translate(376.89375 334.998438) scale(0.1 -0.1)">
       <use xlink:href="#DejaVuSans-31"/>
       <use xlink:href="#DejaVuSans-35" x="63.623047"/>
       <use xlink:href="#DejaVuSans-30" x="127.246094"/>
      </g>
     </g>
    </g>
    <g id="xtick_6">
     <g id="line2d_6">
      <g>
       <use xlink:href="#m4e971dd913" x="448.714286" y="320.4" style="stroke: #000000; stroke-width: 0.8"/>
      </g>
     </g>
     <g id="text_6">
      <!-- 175 -->
      <g transform="translate(439.170536 334.998438) scale(0.1 -0.1)">
       <use xlink:href="#DejaVuSans-31"/>
       <use xlink:href="#DejaVuSans-37" x="63.623047"/>
       <use xlink:href="#DejaVuSans-35" x="127.246094"/>
      </g>
     </g>
    </g>
    <g id="xtick_7">
     <g id="line2d_7">
      <g>
       <use xlink:href="#m4e971dd913" x="510.991071" y="320.4" style="stroke: #000000; stroke-width: 0.8"/>
      </g>
     </g>
     <g id="text_7">
      <!-- 200 -->
      <g transform="translate(501.447321 334.998438) scale(0.1 -0.1)">
       <use xlink:href="#DejaVuSans-32"/>
       <use xlink:href="#DejaVuSans-30" x="63.623047"/>
       <use xlink:href="#DejaVuSans-30" x="127.246094"/>
      </g>
     </g>
    </g>
    <g id="xtick_8">
     <g id="line2d_8">
      <g>
       <use xlink:href="#m4e971dd913" x="573.267857" y="320.4" style="stroke: #000000; stroke-width: 0.8"/>
      </g>
     </g>
     <g id="text_8">
      <!-- 225 -->
      <g transform="translate(563.724107 334.998438) scale(0.1 -0.1)">
       <use xlink:href="#DejaVuSans-32"/>
       <use xlink:href="#DejaVuSans-32" x="63.623047"/>
       <use xlink:href="#DejaVuSans-35" x="127.246094"/>
      </g>
     </g>
    </g>
    <g id="xtick_9">
     <g id="line2d_9">
      <g>
       <use xlink:href="#m4e971dd913" x="635.544643" y="320.4" style="stroke: #000000; stroke-width: 0.8"/>
      </g>
     </g>
     <g id="text_9">
      <!-- 250 -->
      <g transform="translate(626.000893 334.998438) scale(0.1 -0.1)">
       <use xlink:href="#DejaVuSans-32"/>
       <use xlink:href="#DejaVuSans-35" x="63.623047"/>
       <use xlink:href="#DejaVuSans-30" x="127.246094"/>
      </g>
     </g>
    </g>
    <g id="text_10">
     <!-- Pixel Value -->
     <g transform="translate(342.119531 348.676562) scale(0.1 -0.1)">
      <defs>
       <path id="DejaVuSans-50" d="M 1259 4147 
L 1259 2394 
L 2053 2394 
Q 2494 2394 2734 2622 
Q 2975 2850 2975 3272 
Q 2975 3691 2734 3919 
Q 2494 4147 2053 4147 
L 1259 4147 
z
M 628 4666 
L 2053 4666 
Q 2838 4666 3239 4311 
Q 3641 3956 3641 3272 
Q 3641 2581 3239 2228 
Q 2838 1875 2053 1875 
L 1259 1875 
L 1259 0 
L 628 0 
L 628 4666 
z
" transform="scale(0.015625)"/>
       <path id="DejaVuSans-69" d="M 603 3500 
L 1178 3500 
L 1178 0 
L 603 0 
L 603 3500 
z
M 603 4863 
L 1178 4863 
L 1178 4134 
L 603 4134 
L 603 4863 
z
" transform="scale(0.015625)"/>
       <path id="DejaVuSans-78" d="M 3513 3500 
L 2247 1797 
L 3578 0 
L 2900 0 
L 1881 1375 
L 863 0 
L 184 0 
L 1544 1831 
L 300 3500 
L 978 3500 
L 1906 2253 
L 2834 3500 
L 3513 3500 
z
" transform="scale(0.015625)"/>
       <path id="DejaVuSans-65" d="M 3597 1894 
L 3597 1613 
L 953 1613 
Q 991 1019 1311 708 
Q 1631 397 2203 397 
Q 2534 397 2845 478 
Q 3156 559 3463 722 
L 3463 178 
Q 3153 47 2828 -22 
Q 2503 -91 2169 -91 
Q 1331 -91 842 396 
Q 353 884 353 1716 
Q 353 2575 817 3079 
Q 1281 3584 2069 3584 
Q 2775 3584 3186 3129 
Q 3597 2675 3597 1894 
z
M 3022 2063 
Q 3016 2534 2758 2815 
Q 2500 3097 2075 3097 
Q 1594 3097 1305 2825 
Q 1016 2553 972 2059 
L 3022 2063 
z
" transform="scale(0.015625)"/>
       <path id="DejaVuSans-6c" d="M 603 4863 
L 1178 4863 
L 1178 0 
L 603 0 
L 603 4863 
z
" transform="scale(0.015625)"/>
       <path id="DejaVuSans-20" transform="scale(0.015625)"/>
       <path id="DejaVuSans-56" d="M 1831 0 
L 50 4666 
L 709 4666 
L 2188 738 
L 3669 4666 
L 4325 4666 
L 2547 0 
L 1831 0 
z
" transform="scale(0.015625)"/>
       <path id="DejaVuSans-61" d="M 2194 1759 
Q 1497 1759 1228 1600 
Q 959 1441 959 1056 
Q 959 750 1161 570 
Q 1363 391 1709 391 
Q 2188 391 2477 730 
Q 2766 1069 2766 1631 
L 2766 1759 
L 2194 1759 
z
M 3341 1997 
L 3341 0 
L 2766 0 
L 2766 531 
Q 2569 213 2275 61 
Q 1981 -91 1556 -91 
Q 1019 -91 701 211 
Q 384 513 384 1019 
Q 384 1609 779 1909 
Q 1175 2209 1959 2209 
L 2766 2209 
L 2766 2266 
Q 2766 2663 2505 2880 
Q 2244 3097 1772 3097 
Q 1472 3097 1187 3025 
Q 903 2953 641 2809 
L 641 3341 
Q 956 3463 1253 3523 
Q 1550 3584 1831 3584 
Q 2591 3584 2966 3190 
Q 3341 2797 3341 1997 
z
" transform="scale(0.015625)"/>
       <path id="DejaVuSans-75" d="M 544 1381 
L 544 3500 
L 1119 3500 
L 1119 1403 
Q 1119 906 1312 657 
Q 1506 409 1894 409 
Q 2359 409 2629 706 
Q 2900 1003 2900 1516 
L 2900 3500 
L 3475 3500 
L 3475 0 
L 2900 0 
L 2900 538 
Q 2691 219 2414 64 
Q 2138 -91 1772 -91 
Q 1169 -91 856 284 
Q 544 659 544 1381 
z
M 1991 3584 
L 1991 3584 
z
" transform="scale(0.015625)"/>
      </defs>
      <use xlink:href="#DejaVuSans-50"/>
      <use xlink:href="#DejaVuSans-69" x="58.052734"/>
      <use xlink:href="#DejaVuSans-78" x="85.835938"/>
      <use xlink:href="#DejaVuSans-65" x="141.890625"/>
      <use xlink:href="#DejaVuSans-6c" x="203.414062"/>
      <use xlink:href="#DejaVuSans-20" x="231.197266"/>
      <use xlink:href="#DejaVuSans-56" x="262.984375"/>
      <use xlink:href="#DejaVuSans-61" x="323.642578"/>
      <use xlink:href="#DejaVuSans-6c" x="384.921875"/>
      <use xlink:href="#DejaVuSans-75" x="412.705078"/>
      <use xlink:href="#DejaVuSans-65" x="476.083984"/>
     </g>
    </g>
   </g>
   <g id="matplotlib.axis_2">
    <g id="ytick_1">
     <g id="line2d_10">
      <defs>
       <path id="m0059ff1145" d="M 0 0 
L -3.5 0 
" style="stroke: #000000; stroke-width: 0.8"/>
      </defs>
      <g>
       <use xlink:href="#m0059ff1145" x="90" y="307.8" style="stroke: #000000; stroke-width: 0.8"/>
      </g>
     </g>
     <g id="text_11">
      <!-- 0 -->
      <g transform="translate(76.6375 311.599219) scale(0.1 -0.1)">
       <use xlink:href="#DejaVuSans-30"/>
      </g>
     </g>
    </g>
    <g id="ytick_2">
     <g id="line2d_11">
      <g>
       <use xlink:href="#m0059ff1145" x="90" y="251.196226" style="stroke: #000000; stroke-width: 0.8"/>
      </g>
     </g>
     <g id="text_12">
      <!-- 500 -->
      <g transform="translate(63.9125 254.995445) scale(0.1 -0.1)">
       <use xlink:href="#DejaVuSans-35"/>
       <use xlink:href="#DejaVuSans-30" x="63.623047"/>
       <use xlink:href="#DejaVuSans-30" x="127.246094"/>
      </g>
     </g>
    </g>
    <g id="ytick_3">
     <g id="line2d_12">
      <g>
       <use xlink:href="#m0059ff1145" x="90" y="194.592453" style="stroke: #000000; stroke-width: 0.8"/>
      </g>
     </g>
     <g id="text_13">
      <!-- 1000 -->
      <g transform="translate(57.55 198.391672) scale(0.1 -0.1)">
       <use xlink:href="#DejaVuSans-31"/>
       <use xlink:href="#DejaVuSans-30" x="63.623047"/>
       <use xlink:href="#DejaVuSans-30" x="127.246094"/>
       <use xlink:href="#DejaVuSans-30" x="190.869141"/>
      </g>
     </g>
    </g>
    <g id="ytick_4">
     <g id="line2d_13">
      <g>
       <use xlink:href="#m0059ff1145" x="90" y="137.988679" style="stroke: #000000; stroke-width: 0.8"/>
      </g>
     </g>
     <g id="text_14">
      <!-- 1500 -->
      <g transform="translate(57.55 141.787898) scale(0.1 -0.1)">
       <use xlink:href="#DejaVuSans-31"/>
       <use xlink:href="#DejaVuSans-35" x="63.623047"/>
       <use xlink:href="#DejaVuSans-30" x="127.246094"/>
       <use xlink:href="#DejaVuSans-30" x="190.869141"/>
      </g>
     </g>
    </g>
    <g id="ytick_5">
     <g id="line2d_14">
      <g>
       <use xlink:href="#m0059ff1145" x="90" y="81.384906" style="stroke: #000000; stroke-width: 0.8"/>
      </g>
     </g>
     <g id="text_15">
      <!-- 2000 -->
      <g transform="translate(57.55 85.184124) scale(0.1 -0.1)">
       <use xlink:href="#DejaVuSans-32"/>
       <use xlink:href="#DejaVuSans-30" x="63.623047"/>
       <use xlink:href="#DejaVuSans-30" x="127.246094"/>
       <use xlink:href="#DejaVuSans-30" x="190.869141"/>
      </g>
     </g>
    </g>
    <g id="text_16">
     <!-- Normalized Count -->
     <g transform="translate(51.470312 226.592969) rotate(-90) scale(0.1 -0.1)">
      <defs>
       <path id="DejaVuSans-4e" d="M 628 4666 
L 1478 4666 
L 3547 763 
L 3547 4666 
L 4159 4666 
L 4159 0 
L 3309 0 
L 1241 3903 
L 1241 0 
L 628 0 
L 628 4666 
z
" transform="scale(0.015625)"/>
       <path id="DejaVuSans-6f" d="M 1959 3097 
Q 1497 3097 1228 2736 
Q 959 2375 959 1747 
Q 959 1119 1226 758 
Q 1494 397 1959 397 
Q 2419 397 2687 759 
Q 2956 1122 2956 1747 
Q 2956 2369 2687 2733 
Q 2419 3097 1959 3097 
z
M 1959 3584 
Q 2709 3584 3137 3096 
Q 3566 2609 3566 1747 
Q 3566 888 3137 398 
Q 2709 -91 1959 -91 
Q 1206 -91 779 398 
Q 353 888 353 1747 
Q 353 2609 779 3096 
Q 1206 3584 1959 3584 
z
" transform="scale(0.015625)"/>
       <path id="DejaVuSans-72" d="M 2631 2963 
Q 2534 3019 2420 3045 
Q 2306 3072 2169 3072 
Q 1681 3072 1420 2755 
Q 1159 2438 1159 1844 
L 1159 0 
L 581 0 
L 581 3500 
L 1159 3500 
L 1159 2956 
Q 1341 3275 1631 3429 
Q 1922 3584 2338 3584 
Q 2397 3584 2469 3576 
Q 2541 3569 2628 3553 
L 2631 2963 
z
" transform="scale(0.015625)"/>
       <path id="DejaVuSans-6d" d="M 3328 2828 
Q 3544 3216 3844 3400 
Q 4144 3584 4550 3584 
Q 5097 3584 5394 3201 
Q 5691 2819 5691 2113 
L 5691 0 
L 5113 0 
L 5113 2094 
Q 5113 2597 4934 2840 
Q 4756 3084 4391 3084 
Q 3944 3084 3684 2787 
Q 3425 2491 3425 1978 
L 3425 0 
L 2847 0 
L 2847 2094 
Q 2847 2600 2669 2842 
Q 2491 3084 2119 3084 
Q 1678 3084 1418 2786 
Q 1159 2488 1159 1978 
L 1159 0 
L 581 0 
L 581 3500 
L 1159 3500 
L 1159 2956 
Q 1356 3278 1631 3431 
Q 1906 3584 2284 3584 
Q 2666 3584 2933 3390 
Q 3200 3197 3328 2828 
z
" transform="scale(0.015625)"/>
       <path id="DejaVuSans-7a" d="M 353 3500 
L 3084 3500 
L 3084 2975 
L 922 459 
L 3084 459 
L 3084 0 
L 275 0 
L 275 525 
L 2438 3041 
L 353 3041 
L 353 3500 
z
" transform="scale(0.015625)"/>
       <path id="DejaVuSans-64" d="M 2906 2969 
L 2906 4863 
L 3481 4863 
L 3481 0 
L 2906 0 
L 2906 525 
Q 2725 213 2448 61 
Q 2172 -91 1784 -91 
Q 1150 -91 751 415 
Q 353 922 353 1747 
Q 353 2572 751 3078 
Q 1150 3584 1784 3584 
Q 2172 3584 2448 3432 
Q 2725 3281 2906 2969 
z
M 947 1747 
Q 947 1113 1208 752 
Q 1469 391 1925 391 
Q 2381 391 2643 752 
Q 2906 1113 2906 1747 
Q 2906 2381 2643 2742 
Q 2381 3103 1925 3103 
Q 1469 3103 1208 2742 
Q 947 2381 947 1747 
z
" transform="scale(0.015625)"/>
       <path id="DejaVuSans-43" d="M 4122 4306 
L 4122 3641 
Q 3803 3938 3442 4084 
Q 3081 4231 2675 4231 
Q 1875 4231 1450 3742 
Q 1025 3253 1025 2328 
Q 1025 1406 1450 917 
Q 1875 428 2675 428 
Q 3081 428 3442 575 
Q 3803 722 4122 1019 
L 4122 359 
Q 3791 134 3420 21 
Q 3050 -91 2638 -91 
Q 1578 -91 968 557 
Q 359 1206 359 2328 
Q 359 3453 968 4101 
Q 1578 4750 2638 4750 
Q 3056 4750 3426 4639 
Q 3797 4528 4122 4306 
z
" transform="scale(0.015625)"/>
       <path id="DejaVuSans-6e" d="M 3513 2113 
L 3513 0 
L 2938 0 
L 2938 2094 
Q 2938 2591 2744 2837 
Q 2550 3084 2163 3084 
Q 1697 3084 1428 2787 
Q 1159 2491 1159 1978 
L 1159 0 
L 581 0 
L 581 3500 
L 1159 3500 
L 1159 2956 
Q 1366 3272 1645 3428 
Q 1925 3584 2291 3584 
Q 2894 3584 3203 3211 
Q 3513 2838 3513 2113 
z
" transform="scale(0.015625)"/>
       <path id="DejaVuSans-74" d="M 1172 4494 
L 1172 3500 
L 2356 3500 
L 2356 3053 
L 1172 3053 
L 1172 1153 
Q 1172 725 1289 603 
Q 1406 481 1766 481 
L 2356 481 
L 2356 0 
L 1766 0 
Q 1100 0 847 248 
Q 594 497 594 1153 
L 594 3053 
L 172 3053 
L 172 3500 
L 594 3500 
L 594 4494 
L 1172 4494 
z
" transform="scale(0.015625)"/>
      </defs>
      <use xlink:href="#DejaVuSans-4e"/>
      <use xlink:href="#DejaVuSans-6f" x="74.804688"/>
      <use xlink:href="#DejaVuSans-72" x="135.986328"/>
      <use xlink:href="#DejaVuSans-6d" x="175.349609"/>
      <use xlink:href="#DejaVuSans-61" x="272.761719"/>
      <use xlink:href="#DejaVuSans-6c" x="334.041016"/>
      <use xlink:href="#DejaVuSans-69" x="361.824219"/>
      <use xlink:href="#DejaVuSans-7a" x="389.607422"/>
      <use xlink:href="#DejaVuSans-65" x="442.097656"/>
      <use xlink:href="#DejaVuSans-64" x="503.621094"/>
      <use xlink:href="#DejaVuSans-20" x="567.097656"/>
      <use xlink:href="#DejaVuSans-43" x="598.884766"/>
      <use xlink:href="#DejaVuSans-6f" x="668.708984"/>
      <use xlink:href="#DejaVuSans-75" x="729.890625"/>
      <use xlink:href="#DejaVuSans-6e" x="793.269531"/>
      <use xlink:href="#DejaVuSans-74" x="856.648438"/>
     </g>
    </g>
   </g>
   <g id="line2d_15">
    <path d="M 12.776786 307.8 
L 94.982143 307.8 
L 97.473214 307.573585 
L 99.964286 305.988679 
L 102.455357 302.70566 
L 104.946429 288.101887 
L 107.4375 266.818868 
L 109.928571 247.573585 
L 112.419643 220.177358 
L 114.910714 191.422642 
L 117.401786 159.271698 
L 119.892857 67.8 
L 122.383929 55.8 
L 124.875 80.479245 
L 127.366071 133.120755 
L 129.857143 169.573585 
L 132.348214 197.083019 
L 134.839286 209.083019 
L 137.330357 225.950943 
L 139.821429 238.177358 
L 142.3125 238.290566 
L 144.803571 244.290566 
L 147.294643 246.215094 
L 149.785714 245.422642 
L 152.276786 250.856604 
L 154.767857 250.856604 
L 157.258929 244.403774 
L 159.75 246.215094 
L 162.241071 246.215094 
L 164.732143 252.328302 
L 167.223214 251.309434 
L 169.714286 253.007547 
L 172.205357 252.781132 
L 174.696429 251.988679 
L 177.1875 253.460377 
L 179.678571 258.667925 
L 182.169643 254.70566 
L 184.660714 259.8 
L 187.151786 259.007547 
L 189.642857 259.913208 
L 192.133929 261.611321 
L 194.625 259.573585 
L 197.116071 263.762264 
L 199.607143 266.026415 
L 202.098214 261.724528 
L 204.589286 261.724528 
L 207.080357 263.535849 
L 209.571429 266.932075 
L 212.0625 266.139623 
L 214.553571 265.8 
L 217.044643 269.309434 
L 219.535714 265.34717 
L 222.026786 270.89434 
L 224.517857 271.460377 
L 227.008929 271.120755 
L 229.5 270.441509 
L 231.991071 275.535849 
L 234.482143 273.837736 
L 236.973214 274.516981 
L 239.464286 273.950943 
L 241.955357 274.403774 
L 244.446429 275.988679 
L 246.9375 278.479245 
L 249.428571 277.233962 
L 251.919643 274.743396 
L 254.410714 273.837736 
L 256.901786 276.215094 
L 259.392857 280.630189 
L 261.883929 279.724528 
L 264.375 279.045283 
L 266.866071 280.516981 
L 269.357143 281.762264 
L 271.848214 282.101887 
L 274.339286 280.516981 
L 276.830357 285.498113 
L 279.321429 281.422642 
L 281.8125 284.592453 
L 284.303571 283.007547 
L 286.794643 282.89434 
L 289.285714 285.498113 
L 291.776786 287.196226 
L 294.267857 287.083019 
L 296.758929 282.89434 
L 299.25 286.743396 
L 301.741071 282.89434 
L 304.232143 284.139623 
L 306.723214 288.101887 
L 309.214286 289.460377 
L 311.705357 287.762264 
L 314.196429 286.743396 
L 316.6875 291.271698 
L 319.178571 286.743396 
L 321.669643 288.215094 
L 324.160714 288.667925 
L 326.651786 290.592453 
L 329.142857 292.856604 
L 331.633929 292.064151 
L 334.125 291.498113 
L 336.616071 292.969811 
L 341.598214 291.384906 
L 344.089286 293.422642 
L 346.580357 293.309434 
L 349.071429 295.120755 
L 351.5625 293.649057 
L 354.053571 295.913208 
L 356.544643 295.686792 
L 359.035714 295.8 
L 361.526786 296.818868 
L 364.017857 294.781132 
L 366.508929 298.516981 
L 369 295.573585 
L 371.491071 296.366038 
L 373.982143 296.139623 
L 376.473214 295.007547 
L 378.964286 296.932075 
L 381.455357 298.516981 
L 383.946429 296.366038 
L 386.4375 295.686792 
L 388.928571 296.592453 
L 391.419643 297.724528 
L 393.910714 298.516981 
L 396.401786 297.271698 
L 398.892857 298.177358 
L 401.383929 296.932075 
L 403.875 298.856604 
L 406.366071 299.649057 
L 408.857143 298.290566 
L 411.348214 299.422642 
L 413.839286 298.403774 
L 416.330357 300.215094 
L 418.821429 298.630189 
L 421.3125 298.403774 
L 423.803571 300.781132 
L 426.294643 301.8 
L 428.785714 299.649057 
L 431.276786 299.083019 
L 433.767857 301.34717 
L 436.258929 300.328302 
L 438.75 301.573585 
L 441.241071 300.101887 
L 443.732143 301.34717 
L 446.223214 300.215094 
L 448.714286 301.460377 
L 453.696429 300.215094 
L 456.1875 298.969811 
L 458.678571 301.34717 
L 461.169643 300.554717 
L 463.660714 300.667925 
L 466.151786 300.441509 
L 468.642857 300.441509 
L 471.133929 301.8 
L 473.625 300.441509 
L 476.116071 301.460377 
L 478.607143 302.139623 
L 483.589286 299.875472 
L 486.080357 301.913208 
L 488.571429 301.233962 
L 491.0625 302.366038 
L 493.553571 300.667925 
L 496.044643 302.592453 
L 498.535714 301.913208 
L 501.026786 303.724528 
L 506.008929 301.460377 
L 508.5 301.913208 
L 510.991071 303.271698 
L 513.482143 302.139623 
L 515.973214 302.818868 
L 520.955357 302.366038 
L 523.446429 302.70566 
L 525.9375 301.913208 
L 528.428571 300.781132 
L 530.919643 302.70566 
L 533.410714 303.611321 
L 535.901786 302.479245 
L 538.392857 303.611321 
L 540.883929 303.045283 
L 543.375 302.932075 
L 545.866071 303.158491 
L 548.357143 303.611321 
L 550.848214 303.498113 
L 553.339286 302.366038 
L 555.830357 301.913208 
L 558.321429 303.724528 
L 560.8125 302.25283 
L 563.303571 301.460377 
L 565.794643 300.441509 
L 568.285714 301.913208 
L 570.776786 301.007547 
L 573.267857 300.667925 
L 575.758929 301.34717 
L 578.25 300.441509 
L 580.741071 301.34717 
L 583.232143 302.026415 
L 585.723214 299.988679 
L 588.214286 301.233962 
L 590.705357 300.89434 
L 595.6875 299.649057 
L 598.178571 301.007547 
L 600.669643 299.535849 
L 603.160714 302.026415 
L 605.651786 299.762264 
L 608.142857 300.781132 
L 613.125 301.8 
L 615.616071 302.932075 
L 618.107143 303.384906 
L 620.598214 302.479245 
L 623.089286 304.177358 
L 625.580357 300.554717 
L 628.071429 302.818868 
L 630.5625 302.25283 
L 633.053571 302.479245 
L 635.544643 302.592453 
L 638.035714 301.460377 
L 640.526786 301.120755 
L 643.017857 301.34717 
L 648 305.535849 
L 648 305.535849 
" clip-path="url(#pa3c2c3cef3)" style="fill: none; stroke: #808080; stroke-width: 1.5; stroke-linecap: square"/>
   </g>
   <g id="line2d_16">
    <path d="M 12.776786 307.8 
L 87.508929 307.8 
L 90 307.686792 
L 92.491071 307.686792 
L 94.982143 306.89434 
L 97.473214 305.875472 
L 99.964286 304.630189 
L 102.455357 301.913208 
L 104.946429 299.422642 
L 107.4375 290.25283 
L 109.928571 276.215094 
L 112.419643 257.196226 
L 114.910714 221.309434 
L 117.401786 193.913208 
L 119.892857 162.781132 
L 122.383929 127.573585 
L 124.875 125.196226 
L 127.366071 122.25283 
L 129.857143 140.592453 
L 132.348214 157.8 
L 137.330357 190.630189 
L 139.821429 205.686792 
L 142.3125 214.403774 
L 144.803571 227.875472 
L 147.294643 233.309434 
L 149.785714 239.762264 
L 152.276786 240.89434 
L 154.767857 241.233962 
L 157.258929 245.083019 
L 159.75 243.837736 
L 162.241071 245.649057 
L 164.732143 242.818868 
L 167.223214 245.875472 
L 169.714286 244.969811 
L 172.205357 245.083019 
L 174.696429 243.611321 
L 177.1875 243.611321 
L 179.678571 248.25283 
L 184.660714 253.120755 
L 187.151786 252.328302 
L 189.642857 251.196226 
L 192.133929 259.007547 
L 194.625 253.460377 
L 197.116071 252.667925 
L 199.607143 258.328302 
L 202.098214 260.139623 
L 204.589286 261.045283 
L 207.080357 262.177358 
L 209.571429 265.233962 
L 212.0625 262.064151 
L 214.553571 264.89434 
L 217.044643 265.686792 
L 219.535714 262.177358 
L 222.026786 268.290566 
L 224.517857 266.932075 
L 227.008929 269.083019 
L 229.5 268.516981 
L 231.991071 271.120755 
L 234.482143 273.384906 
L 236.973214 267.271698 
L 239.464286 270.781132 
L 241.955357 275.875472 
L 244.446429 273.384906 
L 249.428571 275.083019 
L 251.919643 276.554717 
L 254.410714 275.422642 
L 256.901786 277.233962 
L 259.392857 278.479245 
L 261.883929 277.686792 
L 264.375 277.460377 
L 266.866071 278.026415 
L 269.357143 279.158491 
L 271.848214 280.743396 
L 274.339286 283.8 
L 276.830357 281.309434 
L 279.321429 282.781132 
L 281.8125 282.554717 
L 284.303571 286.064151 
L 286.794643 285.384906 
L 289.285714 286.743396 
L 291.776786 286.290566 
L 294.267857 287.309434 
L 296.758929 285.158491 
L 299.25 287.309434 
L 301.741071 286.064151 
L 304.232143 287.196226 
L 306.723214 285.950943 
L 309.214286 288.441509 
L 311.705357 288.667925 
L 314.196429 290.139623 
L 316.6875 287.988679 
L 319.178571 288.441509 
L 321.669643 290.25283 
L 324.160714 293.762264 
L 326.651786 292.856604 
L 329.142857 292.743396 
L 331.633929 294.215094 
L 334.125 291.271698 
L 336.616071 294.215094 
L 339.107143 293.535849 
L 341.598214 293.988679 
L 344.089286 295.686792 
L 346.580357 292.403774 
L 349.071429 295.573585 
L 351.5625 295.8 
L 354.053571 295.573585 
L 356.544643 296.026415 
L 359.035714 296.818868 
L 361.526786 298.403774 
L 364.017857 296.818868 
L 366.508929 297.611321 
L 369 296.932075 
L 371.491071 296.026415 
L 373.982143 296.592453 
L 376.473214 295.913208 
L 378.964286 298.064151 
L 381.455357 299.875472 
L 383.946429 296.70566 
L 386.4375 297.158491 
L 388.928571 297.950943 
L 393.910714 298.403774 
L 396.401786 299.083019 
L 401.383929 297.158491 
L 403.875 298.743396 
L 406.366071 296.818868 
L 408.857143 301.233962 
L 411.348214 298.856604 
L 413.839286 298.177358 
L 416.330357 299.875472 
L 418.821429 299.422642 
L 421.3125 299.535849 
L 423.803571 299.196226 
L 426.294643 299.988679 
L 428.785714 297.724528 
L 431.276786 301.007547 
L 433.767857 300.101887 
L 436.258929 299.535849 
L 438.75 301.460377 
L 441.241071 301.34717 
L 443.732143 300.441509 
L 446.223214 300.667925 
L 448.714286 301.460377 
L 451.205357 301.120755 
L 453.696429 301.120755 
L 456.1875 299.875472 
L 458.678571 299.649057 
L 461.169643 301.120755 
L 463.660714 300.89434 
L 466.151786 300.554717 
L 468.642857 302.479245 
L 471.133929 301.120755 
L 473.625 300.328302 
L 476.116071 302.366038 
L 478.607143 301.007547 
L 481.098214 300.781132 
L 483.589286 301.460377 
L 486.080357 301.120755 
L 488.571429 301.233962 
L 491.0625 302.026415 
L 496.044643 301.8 
L 498.535714 302.366038 
L 501.026786 301.913208 
L 503.517857 302.366038 
L 506.008929 301.686792 
L 508.5 302.026415 
L 510.991071 301.913208 
L 513.482143 301.460377 
L 515.973214 303.950943 
L 518.464286 302.70566 
L 520.955357 302.592453 
L 523.446429 303.271698 
L 525.9375 302.932075 
L 528.428571 303.611321 
L 530.919643 303.724528 
L 533.410714 302.366038 
L 535.901786 301.34717 
L 538.392857 303.724528 
L 540.883929 302.932075 
L 543.375 299.988679 
L 545.866071 303.611321 
L 548.357143 302.818868 
L 550.848214 302.479245 
L 553.339286 302.818868 
L 555.830357 302.818868 
L 558.321429 302.139623 
L 560.8125 302.70566 
L 563.303571 300.441509 
L 565.794643 302.026415 
L 568.285714 302.026415 
L 570.776786 302.818868 
L 573.267857 301.913208 
L 575.758929 301.233962 
L 578.25 301.120755 
L 580.741071 300.101887 
L 583.232143 300.667925 
L 588.214286 300.441509 
L 590.705357 300.667925 
L 593.196429 301.233962 
L 595.6875 302.366038 
L 598.178571 300.328302 
L 600.669643 302.592453 
L 603.160714 302.026415 
L 605.651786 300.554717 
L 608.142857 302.592453 
L 610.633929 302.25283 
L 613.125 303.158491 
L 615.616071 302.479245 
L 618.107143 303.271698 
L 620.598214 303.045283 
L 623.089286 302.139623 
L 625.580357 302.479245 
L 628.071429 302.932075 
L 630.5625 302.026415 
L 633.053571 298.630189 
L 635.544643 296.026415 
L 638.035714 299.649057 
L 640.526786 307.460377 
L 643.017857 307.8 
L 648 307.8 
L 648 307.8 
" clip-path="url(#pa3c2c3cef3)" style="fill: none; stroke-dasharray: 5.55,2.4; stroke-dashoffset: 0; stroke: #000000; stroke-width: 1.5"/>
   </g>
   <g id="patch_3">
    <path d="M 90 320.4 
L 90 43.2 
" style="fill: none; stroke: #000000; stroke-width: 0.8; stroke-linejoin: miter; stroke-linecap: square"/>
   </g>
   <g id="patch_4">
    <path d="M 648 320.4 
L 648 43.2 
" style="fill: none; stroke: #000000; stroke-width: 0.8; stroke-linejoin: miter; stroke-linecap: square"/>
   </g>
   <g id="patch_5">
    <path d="M 90 320.4 
L 648 320.4 
" style="fill: none; stroke: #000000; stroke-width: 0.8; stroke-linejoin: miter; stroke-linecap: square"/>
   </g>
   <g id="patch_6">
    <path d="M 90 43.2 
L 648 43.2 
" style="fill: none; stroke: #000000; stroke-width: 0.8; stroke-linejoin: miter; stroke-linecap: square"/>
   </g>
   <g id="text_17">
    <!-- Histograms of Original and Denoised Images -->
    <g transform="translate(234.6675 37.2) scale(0.12 -0.12)">
     <defs>
      <path id="DejaVuSans-48" d="M 628 4666 
L 1259 4666 
L 1259 2753 
L 3553 2753 
L 3553 4666 
L 4184 4666 
L 4184 0 
L 3553 0 
L 3553 2222 
L 1259 2222 
L 1259 0 
L 628 0 
L 628 4666 
z
" transform="scale(0.015625)"/>
      <path id="DejaVuSans-73" d="M 2834 3397 
L 2834 2853 
Q 2591 2978 2328 3040 
Q 2066 3103 1784 3103 
Q 1356 3103 1142 2972 
Q 928 2841 928 2578 
Q 928 2378 1081 2264 
Q 1234 2150 1697 2047 
L 1894 2003 
Q 2506 1872 2764 1633 
Q 3022 1394 3022 966 
Q 3022 478 2636 193 
Q 2250 -91 1575 -91 
Q 1294 -91 989 -36 
Q 684 19 347 128 
L 347 722 
Q 666 556 975 473 
Q 1284 391 1588 391 
Q 1994 391 2212 530 
Q 2431 669 2431 922 
Q 2431 1156 2273 1281 
Q 2116 1406 1581 1522 
L 1381 1569 
Q 847 1681 609 1914 
Q 372 2147 372 2553 
Q 372 3047 722 3315 
Q 1072 3584 1716 3584 
Q 2034 3584 2315 3537 
Q 2597 3491 2834 3397 
z
" transform="scale(0.015625)"/>
      <path id="DejaVuSans-67" d="M 2906 1791 
Q 2906 2416 2648 2759 
Q 2391 3103 1925 3103 
Q 1463 3103 1205 2759 
Q 947 2416 947 1791 
Q 947 1169 1205 825 
Q 1463 481 1925 481 
Q 2391 481 2648 825 
Q 2906 1169 2906 1791 
z
M 3481 434 
Q 3481 -459 3084 -895 
Q 2688 -1331 1869 -1331 
Q 1566 -1331 1297 -1286 
Q 1028 -1241 775 -1147 
L 775 -588 
Q 1028 -725 1275 -790 
Q 1522 -856 1778 -856 
Q 2344 -856 2625 -561 
Q 2906 -266 2906 331 
L 2906 616 
Q 2728 306 2450 153 
Q 2172 0 1784 0 
Q 1141 0 747 490 
Q 353 981 353 1791 
Q 353 2603 747 3093 
Q 1141 3584 1784 3584 
Q 2172 3584 2450 3431 
Q 2728 3278 2906 2969 
L 2906 3500 
L 3481 3500 
L 3481 434 
z
" transform="scale(0.015625)"/>
      <path id="DejaVuSans-66" d="M 2375 4863 
L 2375 4384 
L 1825 4384 
Q 1516 4384 1395 4259 
Q 1275 4134 1275 3809 
L 1275 3500 
L 2222 3500 
L 2222 3053 
L 1275 3053 
L 1275 0 
L 697 0 
L 697 3053 
L 147 3053 
L 147 3500 
L 697 3500 
L 697 3744 
Q 697 4328 969 4595 
Q 1241 4863 1831 4863 
L 2375 4863 
z
" transform="scale(0.015625)"/>
      <path id="DejaVuSans-4f" d="M 2522 4238 
Q 1834 4238 1429 3725 
Q 1025 3213 1025 2328 
Q 1025 1447 1429 934 
Q 1834 422 2522 422 
Q 3209 422 3611 934 
Q 4013 1447 4013 2328 
Q 4013 3213 3611 3725 
Q 3209 4238 2522 4238 
z
M 2522 4750 
Q 3503 4750 4090 4092 
Q 4678 3434 4678 2328 
Q 4678 1225 4090 567 
Q 3503 -91 2522 -91 
Q 1538 -91 948 565 
Q 359 1222 359 2328 
Q 359 3434 948 4092 
Q 1538 4750 2522 4750 
z
" transform="scale(0.015625)"/>
      <path id="DejaVuSans-44" d="M 1259 4147 
L 1259 519 
L 2022 519 
Q 2988 519 3436 956 
Q 3884 1394 3884 2338 
Q 3884 3275 3436 3711 
Q 2988 4147 2022 4147 
L 1259 4147 
z
M 628 4666 
L 1925 4666 
Q 3281 4666 3915 4102 
Q 4550 3538 4550 2338 
Q 4550 1131 3912 565 
Q 3275 0 1925 0 
L 628 0 
L 628 4666 
z
" transform="scale(0.015625)"/>
      <path id="DejaVuSans-49" d="M 628 4666 
L 1259 4666 
L 1259 0 
L 628 0 
L 628 4666 
z
" transform="scale(0.015625)"/>
     </defs>
     <use xlink:href="#DejaVuSans-48"/>
     <use xlink:href="#DejaVuSans-69" x="75.195312"/>
     <use xlink:href="#DejaVuSans-73" x="102.978516"/>
     <use xlink:href="#DejaVuSans-74" x="155.078125"/>
     <use xlink:href="#DejaVuSans-6f" x="194.287109"/>
     <use xlink:href="#DejaVuSans-67" x="255.46875"/>
     <use xlink:href="#DejaVuSans-72" x="318.945312"/>
     <use xlink:href="#DejaVuSans-61" x="360.058594"/>
     <use xlink:href="#DejaVuSans-6d" x="421.337891"/>
     <use xlink:href="#DejaVuSans-73" x="518.75"/>
     <use xlink:href="#DejaVuSans-20" x="570.849609"/>
     <use xlink:href="#DejaVuSans-6f" x="602.636719"/>
     <use xlink:href="#DejaVuSans-66" x="663.818359"/>
     <use xlink:href="#DejaVuSans-20" x="699.023438"/>
     <use xlink:href="#DejaVuSans-4f" x="730.810547"/>
     <use xlink:href="#DejaVuSans-72" x="809.521484"/>
     <use xlink:href="#DejaVuSans-69" x="850.634766"/>
     <use xlink:href="#DejaVuSans-67" x="878.417969"/>
     <use xlink:href="#DejaVuSans-69" x="941.894531"/>
     <use xlink:href="#DejaVuSans-6e" x="969.677734"/>
     <use xlink:href="#DejaVuSans-61" x="1033.056641"/>
     <use xlink:href="#DejaVuSans-6c" x="1094.335938"/>
     <use xlink:href="#DejaVuSans-20" x="1122.119141"/>
     <use xlink:href="#DejaVuSans-61" x="1153.90625"/>
     <use xlink:href="#DejaVuSans-6e" x="1215.185547"/>
     <use xlink:href="#DejaVuSans-64" x="1278.564453"/>
     <use xlink:href="#DejaVuSans-20" x="1342.041016"/>
     <use xlink:href="#DejaVuSans-44" x="1373.828125"/>
     <use xlink:href="#DejaVuSans-65" x="1450.830078"/>
     <use xlink:href="#DejaVuSans-6e" x="1512.353516"/>
     <use xlink:href="#DejaVuSans-6f" x="1575.732422"/>
     <use xlink:href="#DejaVuSans-69" x="1636.914062"/>
     <use xlink:href="#DejaVuSans-73" x="1664.697266"/>
     <use xlink:href="#DejaVuSans-65" x="1716.796875"/>
     <use xlink:href="#DejaVuSans-64" x="1778.320312"/>
     <use xlink:href="#DejaVuSans-20" x="1841.796875"/>
     <use xlink:href="#DejaVuSans-49" x="1873.583984"/>
     <use xlink:href="#DejaVuSans-6d" x="1903.076172"/>
     <use xlink:href="#DejaVuSans-61" x="2000.488281"/>
     <use xlink:href="#DejaVuSans-67" x="2061.767578"/>
     <use xlink:href="#DejaVuSans-65" x="2125.244141"/>
     <use xlink:href="#DejaVuSans-73" x="2186.767578"/>
    </g>
   </g>
   <g id="legend_1">
    <g id="patch_7">
     <path d="M 527.703125 80.55625 
L 641 80.55625 
Q 643 80.55625 643 78.55625 
L 643 50.2 
Q 643 48.2 641 48.2 
L 527.703125 48.2 
Q 525.703125 48.2 525.703125 50.2 
L 525.703125 78.55625 
Q 525.703125 80.55625 527.703125 80.55625 
z
" style="fill: #ffffff; opacity: 0.8; stroke: #cccccc; stroke-linejoin: miter"/>
    </g>
    <g id="line2d_17">
     <path d="M 529.703125 56.298437 
L 539.703125 56.298437 
L 549.703125 56.298437 
" style="fill: none; stroke: #808080; stroke-width: 1.5; stroke-linecap: square"/>
    </g>
    <g id="text_18">
     <!-- Original Image -->
     <g transform="translate(557.703125 59.798437) scale(0.1 -0.1)">
      <use xlink:href="#DejaVuSans-4f"/>
      <use xlink:href="#DejaVuSans-72" x="78.710938"/>
      <use xlink:href="#DejaVuSans-69" x="119.824219"/>
      <use xlink:href="#DejaVuSans-67" x="147.607422"/>
      <use xlink:href="#DejaVuSans-69" x="211.083984"/>
      <use xlink:href="#DejaVuSans-6e" x="238.867188"/>
      <use xlink:href="#DejaVuSans-61" x="302.246094"/>
      <use xlink:href="#DejaVuSans-6c" x="363.525391"/>
      <use xlink:href="#DejaVuSans-20" x="391.308594"/>
      <use xlink:href="#DejaVuSans-49" x="423.095703"/>
      <use xlink:href="#DejaVuSans-6d" x="452.587891"/>
      <use xlink:href="#DejaVuSans-61" x="550"/>
      <use xlink:href="#DejaVuSans-67" x="611.279297"/>
      <use xlink:href="#DejaVuSans-65" x="674.755859"/>
     </g>
    </g>
    <g id="line2d_18">
     <path d="M 529.703125 70.976562 
L 539.703125 70.976562 
L 549.703125 70.976562 
" style="fill: none; stroke-dasharray: 5.55,2.4; stroke-dashoffset: 0; stroke: #000000; stroke-width: 1.5"/>
    </g>
    <g id="text_19">
     <!-- Denoised Image -->
     <g transform="translate(557.703125 74.476562) scale(0.1 -0.1)">
      <use xlink:href="#DejaVuSans-44"/>
      <use xlink:href="#DejaVuSans-65" x="77.001953"/>
      <use xlink:href="#DejaVuSans-6e" x="138.525391"/>
      <use xlink:href="#DejaVuSans-6f" x="201.904297"/>
      <use xlink:href="#DejaVuSans-69" x="263.085938"/>
      <use xlink:href="#DejaVuSans-73" x="290.869141"/>
      <use xlink:href="#DejaVuSans-65" x="342.96875"/>
      <use xlink:href="#DejaVuSans-64" x="404.492188"/>
      <use xlink:href="#DejaVuSans-20" x="467.96875"/>
      <use xlink:href="#DejaVuSans-49" x="499.755859"/>
      <use xlink:href="#DejaVuSans-6d" x="529.248047"/>
      <use xlink:href="#DejaVuSans-61" x="626.660156"/>
      <use xlink:href="#DejaVuSans-67" x="687.939453"/>
      <use xlink:href="#DejaVuSans-65" x="751.416016"/>
     </g>
    </g>
   </g>
  </g>
 </g>
 <defs>
  <clipPath id="pa3c2c3cef3">
   <rect x="90" y="43.2" width="558" height="277.2"/>
  </clipPath>
 </defs>
</svg>
