<?xml version="1.0" encoding="utf-8" standalone="no"?>
<!DOCTYPE svg PUBLIC "-//W3C//DTD SVG 1.1//EN"
  "http://www.w3.org/Graphics/SVG/1.1/DTD/svg11.dtd">
<svg xmlns:xlink="http://www.w3.org/1999/xlink" width="288pt" height="648pt" viewBox="0 0 288 648" xmlns="http://www.w3.org/2000/svg" version="1.1">
 <metadata>
  <rdf:RDF xmlns:dc="http://purl.org/dc/elements/1.1/" xmlns:cc="http://creativecommons.org/ns#" xmlns:rdf="http://www.w3.org/1999/02/22-rdf-syntax-ns#">
   <cc:Work>
    <dc:type rdf:resource="http://purl.org/dc/dcmitype/StillImage"/>
    <dc:date>2023-11-04T15:32:03.546744</dc:date>
    <dc:format>image/svg+xml</dc:format>
    <dc:creator>
     <cc:Agent>
      <dc:title>Matplotlib v3.8.0, https://matplotlib.org/</dc:title>
     </cc:Agent>
    </dc:creator>
   </cc:Work>
  </rdf:RDF>
 </metadata>
 <defs>
  <style type="text/css">*{stroke-linejoin: round; stroke-linecap: butt}</style>
 </defs>
 <g id="figure_1">
  <g id="patch_1">
   <path d="M 0 648 
L 288 648 
L 288 0 
L 0 0 
z
" style="fill: #ffffff"/>
  </g>
  <g id="axes_1">
   <g id="patch_2">
    <path d="M 57.17 188.275276 
L 267.705 188.275276 
L 267.705 10.8 
L 57.17 10.8 
z
" style="fill: #ffffff"/>
   </g>
   <g id="PolyCollection_1">
    <path d="M 15.063 180.208218 
L 15.063 174.256071 
L 17.16835 176.408975 
L 19.2737 175.395844 
L 21.37905 174.256071 
L 23.4844 175.142561 
L 25.58975 175.269202 
L 27.6951 174.635995 
L 29.80045 175.142561 
L 31.9058 175.269202 
L 34.01115 176.155692 
L 36.1165 175.395844 
L 38.22185 174.12943 
L 40.3272 175.142561 
L 42.43255 175.775768 
L 44.5379 177.422106 
L 46.64325 176.155692 
L 48.7486 177.168824 
L 50.85395 176.535617 
L 52.9593 176.915541 
L 55.06465 177.042182 
L 57.17 178.308596 
L 59.27535 177.928672 
L 61.3807 177.675389 
L 63.48605 178.815162 
L 65.5914 178.308596 
L 67.69675 178.055314 
L 69.8021 179.195086 
L 71.90745 179.068445 
L 74.0128 178.815162 
L 76.11815 179.448369 
L 78.2235 179.57501 
L 80.32885 180.208218 
L 82.4342 179.448369 
L 84.53955 179.828293 
L 86.6449 180.081576 
L 88.75025 180.081576 
L 90.8556 179.954935 
L 92.96095 179.828293 
L 95.0663 180.081576 
L 97.17165 179.954935 
L 99.277 179.195086 
L 101.38235 179.448369 
L 103.4877 179.195086 
L 105.59305 178.561879 
L 107.6984 177.168824 
L 109.80375 174.635995 
L 111.9091 170.456829 
L 114.01445 165.391172 
L 116.1198 158.299253 
L 118.22515 149.687637 
L 120.3305 138.796476 
L 122.43585 123.472865 
L 124.5412 105.743067 
L 126.64655 86.113648 
L 128.7519 71.549886 
L 130.85725 55.719709 
L 132.9626 47.614659 
L 135.06795 33.177538 
L 137.1733 28.238523 
L 139.27865 18.867058 
L 141.384 20.513396 
L 143.48935 30.264785 
L 145.5947 33.177538 
L 147.70005 41.155947 
L 149.8054 48.247866 
L 151.91075 59.645593 
L 154.0161 54.959861 
L 156.12145 60.658724 
L 158.2268 61.545214 
L 160.33215 69.396982 
L 162.4375 80.414784 
L 164.54285 87.506704 
L 166.6482 88.646476 
L 168.75355 86.366931 
L 170.8589 100.804052 
L 172.96425 101.817183 
L 175.0696 109.922234 
L 177.17495 110.302158 
L 179.2803 110.555441 
L 181.38565 114.607966 
L 183.491 115.114531 
L 185.59635 121.826526 
L 187.7017 123.472865 
L 189.80705 121.446602 
L 191.9124 122.459733 
L 194.01775 120.686754 
L 196.1231 119.926905 
L 198.22845 121.573244 
L 200.3338 125.119203 
L 202.43915 126.132334 
L 204.5445 126.6389 
L 206.64985 128.158597 
L 208.7552 125.119203 
L 210.86055 126.765541 
L 212.9659 133.477536 
L 215.07125 135.883723 
L 217.1766 134.74395 
L 219.28195 134.110743 
L 221.3873 132.717688 
L 223.49265 137.276779 
L 225.598 139.303041 
L 227.70335 140.822738 
L 229.8087 141.582587 
L 231.91405 139.809607 
L 234.0194 143.482208 
L 236.12475 143.102284 
L 238.2301 148.421223 
L 240.33545 149.434354 
L 242.4408 150.574127 
L 244.54615 151.7139 
L 246.6515 151.207334 
L 248.75685 153.233597 
L 250.8622 152.727031 
L 252.96755 154.373369 
L 255.0729 154.500011 
L 257.17825 155.766425 
L 259.2836 157.666046 
L 261.38895 157.539405 
L 263.4943 157.792688 
L 265.59965 163.111627 
L 267.705 158.552536 
L 269.81035 159.312384 
L 271.9157 159.945592 
L 274.02105 162.225137 
L 276.1264 162.47842 
L 278.23175 163.36491 
L 280.3371 163.36491 
L 282.44245 163.36491 
L 284.5478 162.351778 
L 286.65315 160.832081 
L 288.7585 163.744834 
L 290.86385 162.351778 
L 292.9692 161.085364 
L 295.07455 162.984985 
L 297.1799 163.618192 
L 299.28525 164.631324 
L 301.3906 163.871475 
L 303.49595 162.225137 
L 305.6013 164.2514 
L 307.70665 163.491551 
L 309.812 165.137889 
L 311.91735 166.024379 
L 314.0227 165.011248 
L 316.12805 165.644455 
L 318.2334 165.644455 
L 320.33875 166.657586 
L 322.4441 164.378041 
L 324.54945 168.177283 
L 326.6548 166.910869 
L 328.76015 168.050642 
L 330.8655 168.81049 
L 332.97085 168.303925 
L 335.0762 167.544076 
L 337.18155 165.391172 
L 339.2869 167.670718 
L 341.39225 169.570339 
L 343.4976 168.683849 
L 345.60295 167.924001 
L 347.7083 167.924001 
L 349.81365 169.69698 
L 351.919 169.823622 
L 354.02435 171.216677 
L 356.1297 169.063773 
L 358.23505 168.683849 
L 360.3404 171.090036 
L 362.44575 171.723243 
L 364.5511 169.317056 
L 366.65645 170.963394 
L 368.7618 169.823622 
L 370.86715 169.950263 
L 372.9725 170.203546 
L 375.07785 172.736374 
L 377.1832 170.330187 
L 379.28855 171.849884 
L 381.3939 171.46996 
L 383.49925 172.103167 
L 385.6046 170.836753 
L 387.70995 172.35645 
L 389.8153 173.369581 
L 391.92065 170.330187 
L 394.026 173.116298 
L 396.13135 172.736374 
L 398.2367 171.723243 
L 400.34205 172.863016 
L 402.4474 173.116298 
L 404.55275 174.002788 
L 406.6581 172.609733 
L 408.76345 174.002788 
L 410.8688 171.46996 
L 412.97415 169.823622 
L 415.0795 173.876147 
L 417.18485 171.596601 
L 419.2902 172.483091 
L 421.39555 172.229809 
L 423.5009 173.496223 
L 425.60625 173.876147 
L 427.7116 173.749505 
L 429.81695 173.496223 
L 431.9223 172.863016 
L 434.02765 173.876147 
L 436.133 175.01592 
L 438.23835 173.622864 
L 440.3437 173.876147 
L 442.44905 172.35645 
L 444.5544 173.116298 
L 446.65975 174.635995 
L 448.7651 174.002788 
L 450.87045 173.496223 
L 452.9758 172.989657 
L 455.08115 174.889278 
L 457.1865 175.395844 
L 459.29185 173.369581 
L 461.3972 174.762637 
L 463.50255 174.382713 
L 465.6079 173.622864 
L 467.71325 174.12943 
L 469.8186 176.155692 
L 471.92395 172.989657 
L 474.0293 174.509354 
L 476.13465 175.395844 
L 478.24 174.762637 
L 480.34535 171.976526 
L 482.4507 175.522485 
L 484.55605 174.256071 
L 486.6614 175.395844 
L 488.76675 175.90241 
L 490.8721 174.256071 
L 492.97745 173.876147 
L 495.0828 175.01592 
L 497.18815 173.622864 
L 499.2935 176.282334 
L 501.39885 175.90241 
L 503.5042 175.522485 
L 505.60955 176.535617 
L 507.7149 174.889278 
L 509.82025 174.762637 
L 511.9256 175.649127 
L 514.03095 174.509354 
L 516.1363 174.889278 
L 518.24165 174.762637 
L 520.347 176.155692 
L 522.45235 176.155692 
L 524.5577 176.408975 
L 526.66305 176.662258 
L 528.7684 174.889278 
L 530.87375 174.889278 
L 532.9791 174.002788 
L 535.08445 175.01592 
L 537.1898 175.395844 
L 539.29515 175.269202 
L 541.4005 174.382713 
L 543.50585 175.269202 
L 545.6112 174.889278 
L 547.71655 174.509354 
L 549.8219 174.889278 
L 551.92725 174.762637 
L 551.92725 180.208218 
L 551.92725 180.208218 
L 549.8219 180.208218 
L 547.71655 180.208218 
L 545.6112 180.208218 
L 543.50585 180.208218 
L 541.4005 180.208218 
L 539.29515 180.208218 
L 537.1898 180.208218 
L 535.08445 180.208218 
L 532.9791 180.208218 
L 530.87375 180.208218 
L 528.7684 180.208218 
L 526.66305 180.208218 
L 524.5577 180.208218 
L 522.45235 180.208218 
L 520.347 180.208218 
L 518.24165 180.208218 
L 516.1363 180.208218 
L 514.03095 180.208218 
L 511.9256 180.208218 
L 509.82025 180.208218 
L 507.7149 180.208218 
L 505.60955 180.208218 
L 503.5042 180.208218 
L 501.39885 180.208218 
L 499.2935 180.208218 
L 497.18815 180.208218 
L 495.0828 180.208218 
L 492.97745 180.208218 
L 490.8721 180.208218 
L 488.76675 180.208218 
L 486.6614 180.208218 
L 484.55605 180.208218 
L 482.4507 180.208218 
L 480.34535 180.208218 
L 478.24 180.208218 
L 476.13465 180.208218 
L 474.0293 180.208218 
L 471.92395 180.208218 
L 469.8186 180.208218 
L 467.71325 180.208218 
L 465.6079 180.208218 
L 463.50255 180.208218 
L 461.3972 180.208218 
L 459.29185 180.208218 
L 457.1865 180.208218 
L 455.08115 180.208218 
L 452.9758 180.208218 
L 450.87045 180.208218 
L 448.7651 180.208218 
L 446.65975 180.208218 
L 444.5544 180.208218 
L 442.44905 180.208218 
L 440.3437 180.208218 
L 438.23835 180.208218 
L 436.133 180.208218 
L 434.02765 180.208218 
L 431.9223 180.208218 
L 429.81695 180.208218 
L 427.7116 180.208218 
L 425.60625 180.208218 
L 423.5009 180.208218 
L 421.39555 180.208218 
L 419.2902 180.208218 
L 417.18485 180.208218 
L 415.0795 180.208218 
L 412.97415 180.208218 
L 410.8688 180.208218 
L 408.76345 180.208218 
L 406.6581 180.208218 
L 404.55275 180.208218 
L 402.4474 180.208218 
L 400.34205 180.208218 
L 398.2367 180.208218 
L 396.13135 180.208218 
L 394.026 180.208218 
L 391.92065 180.208218 
L 389.8153 180.208218 
L 387.70995 180.208218 
L 385.6046 180.208218 
L 383.49925 180.208218 
L 381.3939 180.208218 
L 379.28855 180.208218 
L 377.1832 180.208218 
L 375.07785 180.208218 
L 372.9725 180.208218 
L 370.86715 180.208218 
L 368.7618 180.208218 
L 366.65645 180.208218 
L 364.5511 180.208218 
L 362.44575 180.208218 
L 360.3404 180.208218 
L 358.23505 180.208218 
L 356.1297 180.208218 
L 354.02435 180.208218 
L 351.919 180.208218 
L 349.81365 180.208218 
L 347.7083 180.208218 
L 345.60295 180.208218 
L 343.4976 180.208218 
L 341.39225 180.208218 
L 339.2869 180.208218 
L 337.18155 180.208218 
L 335.0762 180.208218 
L 332.97085 180.208218 
L 330.8655 180.208218 
L 328.76015 180.208218 
L 326.6548 180.208218 
L 324.54945 180.208218 
L 322.4441 180.208218 
L 320.33875 180.208218 
L 318.2334 180.208218 
L 316.12805 180.208218 
L 314.0227 180.208218 
L 311.91735 180.208218 
L 309.812 180.208218 
L 307.70665 180.208218 
L 305.6013 180.208218 
L 303.49595 180.208218 
L 301.3906 180.208218 
L 299.28525 180.208218 
L 297.1799 180.208218 
L 295.07455 180.208218 
L 292.9692 180.208218 
L 290.86385 180.208218 
L 288.7585 180.208218 
L 286.65315 180.208218 
L 284.5478 180.208218 
L 282.44245 180.208218 
L 280.3371 180.208218 
L 278.23175 180.208218 
L 276.1264 180.208218 
L 274.02105 180.208218 
L 271.9157 180.208218 
L 269.81035 180.208218 
L 267.705 180.208218 
L 265.59965 180.208218 
L 263.4943 180.208218 
L 261.38895 180.208218 
L 259.2836 180.208218 
L 257.17825 180.208218 
L 255.0729 180.208218 
L 252.96755 180.208218 
L 250.8622 180.208218 
L 248.75685 180.208218 
L 246.6515 180.208218 
L 244.54615 180.208218 
L 242.4408 180.208218 
L 240.33545 180.208218 
L 238.2301 180.208218 
L 236.12475 180.208218 
L 234.0194 180.208218 
L 231.91405 180.208218 
L 229.8087 180.208218 
L 227.70335 180.208218 
L 225.598 180.208218 
L 223.49265 180.208218 
L 221.3873 180.208218 
L 219.28195 180.208218 
L 217.1766 180.208218 
L 215.07125 180.208218 
L 212.9659 180.208218 
L 210.86055 180.208218 
L 208.7552 180.208218 
L 206.64985 180.208218 
L 204.5445 180.208218 
L 202.43915 180.208218 
L 200.3338 180.208218 
L 198.22845 180.208218 
L 196.1231 180.208218 
L 194.01775 180.208218 
L 191.9124 180.208218 
L 189.80705 180.208218 
L 187.7017 180.208218 
L 185.59635 180.208218 
L 183.491 180.208218 
L 181.38565 180.208218 
L 179.2803 180.208218 
L 177.17495 180.208218 
L 175.0696 180.208218 
L 172.96425 180.208218 
L 170.8589 180.208218 
L 168.75355 180.208218 
L 166.6482 180.208218 
L 164.54285 180.208218 
L 162.4375 180.208218 
L 160.33215 180.208218 
L 158.2268 180.208218 
L 156.12145 180.208218 
L 154.0161 180.208218 
L 151.91075 180.208218 
L 149.8054 180.208218 
L 147.70005 180.208218 
L 145.5947 180.208218 
L 143.48935 180.208218 
L 141.384 180.208218 
L 139.27865 180.208218 
L 137.1733 180.208218 
L 135.06795 180.208218 
L 132.9626 180.208218 
L 130.85725 180.208218 
L 128.7519 180.208218 
L 126.64655 180.208218 
L 124.5412 180.208218 
L 122.43585 180.208218 
L 120.3305 180.208218 
L 118.22515 180.208218 
L 116.1198 180.208218 
L 114.01445 180.208218 
L 111.9091 180.208218 
L 109.80375 180.208218 
L 107.6984 180.208218 
L 105.59305 180.208218 
L 103.4877 180.208218 
L 101.38235 180.208218 
L 99.277 180.208218 
L 97.17165 180.208218 
L 95.0663 180.208218 
L 92.96095 180.208218 
L 90.8556 180.208218 
L 88.75025 180.208218 
L 86.6449 180.208218 
L 84.53955 180.208218 
L 82.4342 180.208218 
L 80.32885 180.208218 
L 78.2235 180.208218 
L 76.11815 180.208218 
L 74.0128 180.208218 
L 71.90745 180.208218 
L 69.8021 180.208218 
L 67.69675 180.208218 
L 65.5914 180.208218 
L 63.48605 180.208218 
L 61.3807 180.208218 
L 59.27535 180.208218 
L 57.17 180.208218 
L 55.06465 180.208218 
L 52.9593 180.208218 
L 50.85395 180.208218 
L 48.7486 180.208218 
L 46.64325 180.208218 
L 44.5379 180.208218 
L 42.43255 180.208218 
L 40.3272 180.208218 
L 38.22185 180.208218 
L 36.1165 180.208218 
L 34.01115 180.208218 
L 31.9058 180.208218 
L 29.80045 180.208218 
L 27.6951 180.208218 
L 25.58975 180.208218 
L 23.4844 180.208218 
L 21.37905 180.208218 
L 19.2737 180.208218 
L 17.16835 180.208218 
L 15.063 180.208218 
z
" clip-path="url(#p6d1bd7b50a)" style="fill: #ff0000; fill-opacity: 0.4; stroke: #ff0000; stroke-opacity: 0.4"/>
   </g>
   <g id="matplotlib.axis_1">
    <g id="xtick_1">
     <g id="line2d_1">
      <defs>
       <path id="mb3b7c323cf" d="M 0 0 
L 0 3.5 
" style="stroke: #000000; stroke-width: 0.8"/>
      </defs>
      <g>
       <use xlink:href="#mb3b7c323cf" x="57.17" y="188.275276" style="stroke: #000000; stroke-width: 0.8"/>
      </g>
     </g>
     <g id="text_1">
      <!-- 20 -->
      <g transform="translate(50.8075 202.873713) scale(0.1 -0.1)">
       <defs>
        <path id="DejaVuSans-32" d="M 1228 531 
L 3431 531 
L 3431 0 
L 469 0 
L 469 531 
Q 828 903 1448 1529 
Q 2069 2156 2228 2338 
Q 2531 2678 2651 2914 
Q 2772 3150 2772 3378 
Q 2772 3750 2511 3984 
Q 2250 4219 1831 4219 
Q 1534 4219 1204 4116 
Q 875 4013 500 3803 
L 500 4441 
Q 881 4594 1212 4672 
Q 1544 4750 1819 4750 
Q 2544 4750 2975 4387 
Q 3406 4025 3406 3419 
Q 3406 3131 3298 2873 
Q 3191 2616 2906 2266 
Q 2828 2175 2409 1742 
Q 1991 1309 1228 531 
z
" transform="scale(0.015625)"/>
        <path id="DejaVuSans-30" d="M 2034 4250 
Q 1547 4250 1301 3770 
Q 1056 3291 1056 2328 
Q 1056 1369 1301 889 
Q 1547 409 2034 409 
Q 2525 409 2770 889 
Q 3016 1369 3016 2328 
Q 3016 3291 2770 3770 
Q 2525 4250 2034 4250 
z
M 2034 4750 
Q 2819 4750 3233 4129 
Q 3647 3509 3647 2328 
Q 3647 1150 3233 529 
Q 2819 -91 2034 -91 
Q 1250 -91 836 529 
Q 422 1150 422 2328 
Q 422 3509 836 4129 
Q 1250 4750 2034 4750 
z
" transform="scale(0.015625)"/>
       </defs>
       <use xlink:href="#DejaVuSans-32"/>
       <use xlink:href="#DejaVuSans-30" x="63.623047"/>
      </g>
     </g>
    </g>
    <g id="xtick_2">
     <g id="line2d_2">
      <g>
       <use xlink:href="#mb3b7c323cf" x="99.277" y="188.275276" style="stroke: #000000; stroke-width: 0.8"/>
      </g>
     </g>
     <g id="text_2">
      <!-- 40 -->
      <g transform="translate(92.9145 202.873713) scale(0.1 -0.1)">
       <defs>
        <path id="DejaVuSans-34" d="M 2419 4116 
L 825 1625 
L 2419 1625 
L 2419 4116 
z
M 2253 4666 
L 3047 4666 
L 3047 1625 
L 3713 1625 
L 3713 1100 
L 3047 1100 
L 3047 0 
L 2419 0 
L 2419 1100 
L 313 1100 
L 313 1709 
L 2253 4666 
z
" transform="scale(0.015625)"/>
       </defs>
       <use xlink:href="#DejaVuSans-34"/>
       <use xlink:href="#DejaVuSans-30" x="63.623047"/>
      </g>
     </g>
    </g>
    <g id="xtick_3">
     <g id="line2d_3">
      <g>
       <use xlink:href="#mb3b7c323cf" x="141.384" y="188.275276" style="stroke: #000000; stroke-width: 0.8"/>
      </g>
     </g>
     <g id="text_3">
      <!-- 60 -->
      <g transform="translate(135.0215 202.873713) scale(0.1 -0.1)">
       <defs>
        <path id="DejaVuSans-36" d="M 2113 2584 
Q 1688 2584 1439 2293 
Q 1191 2003 1191 1497 
Q 1191 994 1439 701 
Q 1688 409 2113 409 
Q 2538 409 2786 701 
Q 3034 994 3034 1497 
Q 3034 2003 2786 2293 
Q 2538 2584 2113 2584 
z
M 3366 4563 
L 3366 3988 
Q 3128 4100 2886 4159 
Q 2644 4219 2406 4219 
Q 1781 4219 1451 3797 
Q 1122 3375 1075 2522 
Q 1259 2794 1537 2939 
Q 1816 3084 2150 3084 
Q 2853 3084 3261 2657 
Q 3669 2231 3669 1497 
Q 3669 778 3244 343 
Q 2819 -91 2113 -91 
Q 1303 -91 875 529 
Q 447 1150 447 2328 
Q 447 3434 972 4092 
Q 1497 4750 2381 4750 
Q 2619 4750 2861 4703 
Q 3103 4656 3366 4563 
z
" transform="scale(0.015625)"/>
       </defs>
       <use xlink:href="#DejaVuSans-36"/>
       <use xlink:href="#DejaVuSans-30" x="63.623047"/>
      </g>
     </g>
    </g>
    <g id="xtick_4">
     <g id="line2d_4">
      <g>
       <use xlink:href="#mb3b7c323cf" x="183.491" y="188.275276" style="stroke: #000000; stroke-width: 0.8"/>
      </g>
     </g>
     <g id="text_4">
      <!-- 80 -->
      <g transform="translate(177.1285 202.873713) scale(0.1 -0.1)">
       <defs>
        <path id="DejaVuSans-38" d="M 2034 2216 
Q 1584 2216 1326 1975 
Q 1069 1734 1069 1313 
Q 1069 891 1326 650 
Q 1584 409 2034 409 
Q 2484 409 2743 651 
Q 3003 894 3003 1313 
Q 3003 1734 2745 1975 
Q 2488 2216 2034 2216 
z
M 1403 2484 
Q 997 2584 770 2862 
Q 544 3141 544 3541 
Q 544 4100 942 4425 
Q 1341 4750 2034 4750 
Q 2731 4750 3128 4425 
Q 3525 4100 3525 3541 
Q 3525 3141 3298 2862 
Q 3072 2584 2669 2484 
Q 3125 2378 3379 2068 
Q 3634 1759 3634 1313 
Q 3634 634 3220 271 
Q 2806 -91 2034 -91 
Q 1263 -91 848 271 
Q 434 634 434 1313 
Q 434 1759 690 2068 
Q 947 2378 1403 2484 
z
M 1172 3481 
Q 1172 3119 1398 2916 
Q 1625 2713 2034 2713 
Q 2441 2713 2670 2916 
Q 2900 3119 2900 3481 
Q 2900 3844 2670 4047 
Q 2441 4250 2034 4250 
Q 1625 4250 1398 4047 
Q 1172 3844 1172 3481 
z
" transform="scale(0.015625)"/>
       </defs>
       <use xlink:href="#DejaVuSans-38"/>
       <use xlink:href="#DejaVuSans-30" x="63.623047"/>
      </g>
     </g>
    </g>
    <g id="xtick_5">
     <g id="line2d_5">
      <g>
       <use xlink:href="#mb3b7c323cf" x="225.598" y="188.275276" style="stroke: #000000; stroke-width: 0.8"/>
      </g>
     </g>
     <g id="text_5">
      <!-- 100 -->
      <g transform="translate(216.05425 202.873713) scale(0.1 -0.1)">
       <defs>
        <path id="DejaVuSans-31" d="M 794 531 
L 1825 531 
L 1825 4091 
L 703 3866 
L 703 4441 
L 1819 4666 
L 2450 4666 
L 2450 531 
L 3481 531 
L 3481 0 
L 794 0 
L 794 531 
z
" transform="scale(0.015625)"/>
       </defs>
       <use xlink:href="#DejaVuSans-31"/>
       <use xlink:href="#DejaVuSans-30" x="63.623047"/>
       <use xlink:href="#DejaVuSans-30" x="127.246094"/>
      </g>
     </g>
    </g>
    <g id="xtick_6">
     <g id="line2d_6">
      <g>
       <use xlink:href="#mb3b7c323cf" x="267.705" y="188.275276" style="stroke: #000000; stroke-width: 0.8"/>
      </g>
     </g>
     <g id="text_6">
      <!-- 120 -->
      <g transform="translate(258.16125 202.873713) scale(0.1 -0.1)">
       <use xlink:href="#DejaVuSans-31"/>
       <use xlink:href="#DejaVuSans-32" x="63.623047"/>
       <use xlink:href="#DejaVuSans-30" x="127.246094"/>
      </g>
     </g>
    </g>
   </g>
   <g id="matplotlib.axis_2">
    <g id="ytick_1">
     <g id="line2d_7">
      <defs>
       <path id="mf493d3d903" d="M 0 0 
L -3.5 0 
" style="stroke: #000000; stroke-width: 0.8"/>
      </defs>
      <g>
       <use xlink:href="#mf493d3d903" x="57.17" y="180.208218" style="stroke: #000000; stroke-width: 0.8"/>
      </g>
     </g>
     <g id="text_7">
      <!-- 0 -->
      <g transform="translate(43.8075 184.007436) scale(0.1 -0.1)">
       <use xlink:href="#DejaVuSans-30"/>
      </g>
     </g>
    </g>
    <g id="ytick_2">
     <g id="line2d_8">
      <g>
       <use xlink:href="#mf493d3d903" x="57.17" y="154.879935" style="stroke: #000000; stroke-width: 0.8"/>
      </g>
     </g>
     <g id="text_8">
      <!-- 200 -->
      <g transform="translate(31.0825 158.679154) scale(0.1 -0.1)">
       <use xlink:href="#DejaVuSans-32"/>
       <use xlink:href="#DejaVuSans-30" x="63.623047"/>
       <use xlink:href="#DejaVuSans-30" x="127.246094"/>
      </g>
     </g>
    </g>
    <g id="ytick_3">
     <g id="line2d_9">
      <g>
       <use xlink:href="#mf493d3d903" x="57.17" y="129.551653" style="stroke: #000000; stroke-width: 0.8"/>
      </g>
     </g>
     <g id="text_9">
      <!-- 400 -->
      <g transform="translate(31.0825 133.350871) scale(0.1 -0.1)">
       <use xlink:href="#DejaVuSans-34"/>
       <use xlink:href="#DejaVuSans-30" x="63.623047"/>
       <use xlink:href="#DejaVuSans-30" x="127.246094"/>
      </g>
     </g>
    </g>
    <g id="ytick_4">
     <g id="line2d_10">
      <g>
       <use xlink:href="#mf493d3d903" x="57.17" y="104.22337" style="stroke: #000000; stroke-width: 0.8"/>
      </g>
     </g>
     <g id="text_10">
      <!-- 600 -->
      <g transform="translate(31.0825 108.022589) scale(0.1 -0.1)">
       <use xlink:href="#DejaVuSans-36"/>
       <use xlink:href="#DejaVuSans-30" x="63.623047"/>
       <use xlink:href="#DejaVuSans-30" x="127.246094"/>
      </g>
     </g>
    </g>
    <g id="ytick_5">
     <g id="line2d_11">
      <g>
       <use xlink:href="#mf493d3d903" x="57.17" y="78.895088" style="stroke: #000000; stroke-width: 0.8"/>
      </g>
     </g>
     <g id="text_11">
      <!-- 800 -->
      <g transform="translate(31.0825 82.694306) scale(0.1 -0.1)">
       <use xlink:href="#DejaVuSans-38"/>
       <use xlink:href="#DejaVuSans-30" x="63.623047"/>
       <use xlink:href="#DejaVuSans-30" x="127.246094"/>
      </g>
     </g>
    </g>
    <g id="ytick_6">
     <g id="line2d_12">
      <g>
       <use xlink:href="#mf493d3d903" x="57.17" y="53.566805" style="stroke: #000000; stroke-width: 0.8"/>
      </g>
     </g>
     <g id="text_12">
      <!-- 1000 -->
      <g transform="translate(24.72 57.366024) scale(0.1 -0.1)">
       <use xlink:href="#DejaVuSans-31"/>
       <use xlink:href="#DejaVuSans-30" x="63.623047"/>
       <use xlink:href="#DejaVuSans-30" x="127.246094"/>
       <use xlink:href="#DejaVuSans-30" x="190.869141"/>
      </g>
     </g>
    </g>
    <g id="ytick_7">
     <g id="line2d_13">
      <g>
       <use xlink:href="#mf493d3d903" x="57.17" y="28.238523" style="stroke: #000000; stroke-width: 0.8"/>
      </g>
     </g>
     <g id="text_13">
      <!-- 1200 -->
      <g transform="translate(24.72 32.037741) scale(0.1 -0.1)">
       <use xlink:href="#DejaVuSans-31"/>
       <use xlink:href="#DejaVuSans-32" x="63.623047"/>
       <use xlink:href="#DejaVuSans-30" x="127.246094"/>
       <use xlink:href="#DejaVuSans-30" x="190.869141"/>
      </g>
     </g>
    </g>
    <g id="text_14">
     <!-- Pixel Frequency -->
     <g transform="translate(18.640313 138.516544) rotate(-90) scale(0.1 -0.1)">
      <defs>
       <path id="DejaVuSans-50" d="M 1259 4147 
L 1259 2394 
L 2053 2394 
Q 2494 2394 2734 2622 
Q 2975 2850 2975 3272 
Q 2975 3691 2734 3919 
Q 2494 4147 2053 4147 
L 1259 4147 
z
M 628 4666 
L 2053 4666 
Q 2838 4666 3239 4311 
Q 3641 3956 3641 3272 
Q 3641 2581 3239 2228 
Q 2838 1875 2053 1875 
L 1259 1875 
L 1259 0 
L 628 0 
L 628 4666 
z
" transform="scale(0.015625)"/>
       <path id="DejaVuSans-69" d="M 603 3500 
L 1178 3500 
L 1178 0 
L 603 0 
L 603 3500 
z
M 603 4863 
L 1178 4863 
L 1178 4134 
L 603 4134 
L 603 4863 
z
" transform="scale(0.015625)"/>
       <path id="DejaVuSans-78" d="M 3513 3500 
L 2247 1797 
L 3578 0 
L 2900 0 
L 1881 1375 
L 863 0 
L 184 0 
L 1544 1831 
L 300 3500 
L 978 3500 
L 1906 2253 
L 2834 3500 
L 3513 3500 
z
" transform="scale(0.015625)"/>
       <path id="DejaVuSans-65" d="M 3597 1894 
L 3597 1613 
L 953 1613 
Q 991 1019 1311 708 
Q 1631 397 2203 397 
Q 2534 397 2845 478 
Q 3156 559 3463 722 
L 3463 178 
Q 3153 47 2828 -22 
Q 2503 -91 2169 -91 
Q 1331 -91 842 396 
Q 353 884 353 1716 
Q 353 2575 817 3079 
Q 1281 3584 2069 3584 
Q 2775 3584 3186 3129 
Q 3597 2675 3597 1894 
z
M 3022 2063 
Q 3016 2534 2758 2815 
Q 2500 3097 2075 3097 
Q 1594 3097 1305 2825 
Q 1016 2553 972 2059 
L 3022 2063 
z
" transform="scale(0.015625)"/>
       <path id="DejaVuSans-6c" d="M 603 4863 
L 1178 4863 
L 1178 0 
L 603 0 
L 603 4863 
z
" transform="scale(0.015625)"/>
       <path id="DejaVuSans-20" transform="scale(0.015625)"/>
       <path id="DejaVuSans-46" d="M 628 4666 
L 3309 4666 
L 3309 4134 
L 1259 4134 
L 1259 2759 
L 3109 2759 
L 3109 2228 
L 1259 2228 
L 1259 0 
L 628 0 
L 628 4666 
z
" transform="scale(0.015625)"/>
       <path id="DejaVuSans-72" d="M 2631 2963 
Q 2534 3019 2420 3045 
Q 2306 3072 2169 3072 
Q 1681 3072 1420 2755 
Q 1159 2438 1159 1844 
L 1159 0 
L 581 0 
L 581 3500 
L 1159 3500 
L 1159 2956 
Q 1341 3275 1631 3429 
Q 1922 3584 2338 3584 
Q 2397 3584 2469 3576 
Q 2541 3569 2628 3553 
L 2631 2963 
z
" transform="scale(0.015625)"/>
       <path id="DejaVuSans-71" d="M 947 1747 
Q 947 1113 1208 752 
Q 1469 391 1925 391 
Q 2381 391 2643 752 
Q 2906 1113 2906 1747 
Q 2906 2381 2643 2742 
Q 2381 3103 1925 3103 
Q 1469 3103 1208 2742 
Q 947 2381 947 1747 
z
M 2906 525 
Q 2725 213 2448 61 
Q 2172 -91 1784 -91 
Q 1150 -91 751 415 
Q 353 922 353 1747 
Q 353 2572 751 3078 
Q 1150 3584 1784 3584 
Q 2172 3584 2448 3432 
Q 2725 3281 2906 2969 
L 2906 3500 
L 3481 3500 
L 3481 -1331 
L 2906 -1331 
L 2906 525 
z
" transform="scale(0.015625)"/>
       <path id="DejaVuSans-75" d="M 544 1381 
L 544 3500 
L 1119 3500 
L 1119 1403 
Q 1119 906 1312 657 
Q 1506 409 1894 409 
Q 2359 409 2629 706 
Q 2900 1003 2900 1516 
L 2900 3500 
L 3475 3500 
L 3475 0 
L 2900 0 
L 2900 538 
Q 2691 219 2414 64 
Q 2138 -91 1772 -91 
Q 1169 -91 856 284 
Q 544 659 544 1381 
z
M 1991 3584 
L 1991 3584 
z
" transform="scale(0.015625)"/>
       <path id="DejaVuSans-6e" d="M 3513 2113 
L 3513 0 
L 2938 0 
L 2938 2094 
Q 2938 2591 2744 2837 
Q 2550 3084 2163 3084 
Q 1697 3084 1428 2787 
Q 1159 2491 1159 1978 
L 1159 0 
L 581 0 
L 581 3500 
L 1159 3500 
L 1159 2956 
Q 1366 3272 1645 3428 
Q 1925 3584 2291 3584 
Q 2894 3584 3203 3211 
Q 3513 2838 3513 2113 
z
" transform="scale(0.015625)"/>
       <path id="DejaVuSans-63" d="M 3122 3366 
L 3122 2828 
Q 2878 2963 2633 3030 
Q 2388 3097 2138 3097 
Q 1578 3097 1268 2742 
Q 959 2388 959 1747 
Q 959 1106 1268 751 
Q 1578 397 2138 397 
Q 2388 397 2633 464 
Q 2878 531 3122 666 
L 3122 134 
Q 2881 22 2623 -34 
Q 2366 -91 2075 -91 
Q 1284 -91 818 406 
Q 353 903 353 1747 
Q 353 2603 823 3093 
Q 1294 3584 2113 3584 
Q 2378 3584 2631 3529 
Q 2884 3475 3122 3366 
z
" transform="scale(0.015625)"/>
       <path id="DejaVuSans-79" d="M 2059 -325 
Q 1816 -950 1584 -1140 
Q 1353 -1331 966 -1331 
L 506 -1331 
L 506 -850 
L 844 -850 
Q 1081 -850 1212 -737 
Q 1344 -625 1503 -206 
L 1606 56 
L 191 3500 
L 800 3500 
L 1894 763 
L 2988 3500 
L 3597 3500 
L 2059 -325 
z
" transform="scale(0.015625)"/>
      </defs>
      <use xlink:href="#DejaVuSans-50"/>
      <use xlink:href="#DejaVuSans-69" x="58.052734"/>
      <use xlink:href="#DejaVuSans-78" x="85.835938"/>
      <use xlink:href="#DejaVuSans-65" x="141.890625"/>
      <use xlink:href="#DejaVuSans-6c" x="203.414062"/>
      <use xlink:href="#DejaVuSans-20" x="231.197266"/>
      <use xlink:href="#DejaVuSans-46" x="262.984375"/>
      <use xlink:href="#DejaVuSans-72" x="313.253906"/>
      <use xlink:href="#DejaVuSans-65" x="352.117188"/>
      <use xlink:href="#DejaVuSans-71" x="413.640625"/>
      <use xlink:href="#DejaVuSans-75" x="477.117188"/>
      <use xlink:href="#DejaVuSans-65" x="540.496094"/>
      <use xlink:href="#DejaVuSans-6e" x="602.019531"/>
      <use xlink:href="#DejaVuSans-63" x="665.398438"/>
      <use xlink:href="#DejaVuSans-79" x="720.378906"/>
     </g>
    </g>
   </g>
   <g id="line2d_14">
    <path d="M 15.063 174.256071 
L 17.16835 176.408975 
L 19.2737 175.395844 
L 21.37905 174.256071 
L 23.4844 175.142561 
L 25.58975 175.269202 
L 27.6951 174.635995 
L 29.80045 175.142561 
L 31.9058 175.269202 
L 34.01115 176.155692 
L 36.1165 175.395844 
L 38.22185 174.12943 
L 40.3272 175.142561 
L 42.43255 175.775768 
L 44.5379 177.422106 
L 46.64325 176.155692 
L 48.7486 177.168824 
L 50.85395 176.535617 
L 52.9593 176.915541 
L 55.06465 177.042182 
L 57.17 178.308596 
L 59.27535 177.928672 
L 61.3807 177.675389 
L 63.48605 178.815162 
L 65.5914 178.308596 
L 67.69675 178.055314 
L 69.8021 179.195086 
L 71.90745 179.068445 
L 74.0128 178.815162 
L 76.11815 179.448369 
L 78.2235 179.57501 
L 80.32885 180.208218 
L 82.4342 179.448369 
L 84.53955 179.828293 
L 86.6449 180.081576 
L 88.75025 180.081576 
L 92.96095 179.828293 
L 95.0663 180.081576 
L 97.17165 179.954935 
L 99.277 179.195086 
L 101.38235 179.448369 
L 103.4877 179.195086 
L 105.59305 178.561879 
L 107.6984 177.168824 
L 109.80375 174.635995 
L 111.9091 170.456829 
L 114.01445 165.391172 
L 116.1198 158.299253 
L 118.22515 149.687637 
L 120.3305 138.796476 
L 122.43585 123.472865 
L 124.5412 105.743067 
L 126.64655 86.113648 
L 128.7519 71.549886 
L 130.85725 55.719709 
L 132.9626 47.614659 
L 135.06795 33.177538 
L 137.1733 28.238523 
L 139.27865 18.867058 
L 141.384 20.513396 
L 143.48935 30.264785 
L 145.5947 33.177538 
L 147.70005 41.155947 
L 149.8054 48.247866 
L 151.91075 59.645593 
L 154.0161 54.959861 
L 156.12145 60.658724 
L 158.2268 61.545214 
L 160.33215 69.396982 
L 162.4375 80.414784 
L 164.54285 87.506704 
L 166.6482 88.646476 
L 168.75355 86.366931 
L 170.8589 100.804052 
L 172.96425 101.817183 
L 175.0696 109.922234 
L 177.17495 110.302158 
L 179.2803 110.555441 
L 181.38565 114.607966 
L 183.491 115.114531 
L 185.59635 121.826526 
L 187.7017 123.472865 
L 189.80705 121.446602 
L 191.9124 122.459733 
L 194.01775 120.686754 
L 196.1231 119.926905 
L 198.22845 121.573244 
L 200.3338 125.119203 
L 202.43915 126.132334 
L 204.5445 126.6389 
L 206.64985 128.158597 
L 208.7552 125.119203 
L 210.86055 126.765541 
L 212.9659 133.477536 
L 215.07125 135.883723 
L 217.1766 134.74395 
L 219.28195 134.110743 
L 221.3873 132.717688 
L 223.49265 137.276779 
L 225.598 139.303041 
L 227.70335 140.822738 
L 229.8087 141.582587 
L 231.91405 139.809607 
L 234.0194 143.482208 
L 236.12475 143.102284 
L 238.2301 148.421223 
L 240.33545 149.434354 
L 244.54615 151.7139 
L 246.6515 151.207334 
L 248.75685 153.233597 
L 250.8622 152.727031 
L 252.96755 154.373369 
L 255.0729 154.500011 
L 257.17825 155.766425 
L 259.2836 157.666046 
L 261.38895 157.539405 
L 263.4943 157.792688 
L 265.59965 163.111627 
L 267.705 158.552536 
L 269.81035 159.312384 
L 271.9157 159.945592 
L 274.02105 162.225137 
L 276.1264 162.47842 
L 278.23175 163.36491 
L 282.44245 163.36491 
L 284.5478 162.351778 
L 286.65315 160.832081 
L 288.7585 163.744834 
L 289 163.58504 
L 289 163.58504 
" clip-path="url(#p6d1bd7b50a)" style="fill: none; stroke: #ff0000; stroke-width: 1.5; stroke-linecap: square"/>
   </g>
   <g id="patch_3">
    <path d="M 57.17 188.275276 
L 57.17 10.8 
" style="fill: none; stroke: #000000; stroke-width: 0.8; stroke-linejoin: miter; stroke-linecap: square"/>
   </g>
   <g id="patch_4">
    <path d="M 267.705 188.275276 
L 267.705 10.8 
" style="fill: none; stroke: #000000; stroke-width: 0.8; stroke-linejoin: miter; stroke-linecap: square"/>
   </g>
   <g id="patch_5">
    <path d="M 57.17 188.275276 
L 267.705 188.275276 
" style="fill: none; stroke: #000000; stroke-width: 0.8; stroke-linejoin: miter; stroke-linecap: square"/>
   </g>
   <g id="patch_6">
    <path d="M 57.17 10.8 
L 267.705 10.8 
" style="fill: none; stroke: #000000; stroke-width: 0.8; stroke-linejoin: miter; stroke-linecap: square"/>
   </g>
   <g id="text_15">
    <!-- Red Channel  -->
    <g transform="translate(188.011875 24.8) scale(0.12 -0.12)">
     <defs>
      <path id="DejaVuSans-52" d="M 2841 2188 
Q 3044 2119 3236 1894 
Q 3428 1669 3622 1275 
L 4263 0 
L 3584 0 
L 2988 1197 
Q 2756 1666 2539 1819 
Q 2322 1972 1947 1972 
L 1259 1972 
L 1259 0 
L 628 0 
L 628 4666 
L 2053 4666 
Q 2853 4666 3247 4331 
Q 3641 3997 3641 3322 
Q 3641 2881 3436 2590 
Q 3231 2300 2841 2188 
z
M 1259 4147 
L 1259 2491 
L 2053 2491 
Q 2509 2491 2742 2702 
Q 2975 2913 2975 3322 
Q 2975 3731 2742 3939 
Q 2509 4147 2053 4147 
L 1259 4147 
z
" transform="scale(0.015625)"/>
      <path id="DejaVuSans-64" d="M 2906 2969 
L 2906 4863 
L 3481 4863 
L 3481 0 
L 2906 0 
L 2906 525 
Q 2725 213 2448 61 
Q 2172 -91 1784 -91 
Q 1150 -91 751 415 
Q 353 922 353 1747 
Q 353 2572 751 3078 
Q 1150 3584 1784 3584 
Q 2172 3584 2448 3432 
Q 2725 3281 2906 2969 
z
M 947 1747 
Q 947 1113 1208 752 
Q 1469 391 1925 391 
Q 2381 391 2643 752 
Q 2906 1113 2906 1747 
Q 2906 2381 2643 2742 
Q 2381 3103 1925 3103 
Q 1469 3103 1208 2742 
Q 947 2381 947 1747 
z
" transform="scale(0.015625)"/>
      <path id="DejaVuSans-43" d="M 4122 4306 
L 4122 3641 
Q 3803 3938 3442 4084 
Q 3081 4231 2675 4231 
Q 1875 4231 1450 3742 
Q 1025 3253 1025 2328 
Q 1025 1406 1450 917 
Q 1875 428 2675 428 
Q 3081 428 3442 575 
Q 3803 722 4122 1019 
L 4122 359 
Q 3791 134 3420 21 
Q 3050 -91 2638 -91 
Q 1578 -91 968 557 
Q 359 1206 359 2328 
Q 359 3453 968 4101 
Q 1578 4750 2638 4750 
Q 3056 4750 3426 4639 
Q 3797 4528 4122 4306 
z
" transform="scale(0.015625)"/>
      <path id="DejaVuSans-68" d="M 3513 2113 
L 3513 0 
L 2938 0 
L 2938 2094 
Q 2938 2591 2744 2837 
Q 2550 3084 2163 3084 
Q 1697 3084 1428 2787 
Q 1159 2491 1159 1978 
L 1159 0 
L 581 0 
L 581 4863 
L 1159 4863 
L 1159 2956 
Q 1366 3272 1645 3428 
Q 1925 3584 2291 3584 
Q 2894 3584 3203 3211 
Q 3513 2838 3513 2113 
z
" transform="scale(0.015625)"/>
      <path id="DejaVuSans-61" d="M 2194 1759 
Q 1497 1759 1228 1600 
Q 959 1441 959 1056 
Q 959 750 1161 570 
Q 1363 391 1709 391 
Q 2188 391 2477 730 
Q 2766 1069 2766 1631 
L 2766 1759 
L 2194 1759 
z
M 3341 1997 
L 3341 0 
L 2766 0 
L 2766 531 
Q 2569 213 2275 61 
Q 1981 -91 1556 -91 
Q 1019 -91 701 211 
Q 384 513 384 1019 
Q 384 1609 779 1909 
Q 1175 2209 1959 2209 
L 2766 2209 
L 2766 2266 
Q 2766 2663 2505 2880 
Q 2244 3097 1772 3097 
Q 1472 3097 1187 3025 
Q 903 2953 641 2809 
L 641 3341 
Q 956 3463 1253 3523 
Q 1550 3584 1831 3584 
Q 2591 3584 2966 3190 
Q 3341 2797 3341 1997 
z
" transform="scale(0.015625)"/>
     </defs>
     <use xlink:href="#DejaVuSans-52"/>
     <use xlink:href="#DejaVuSans-65" x="64.982422"/>
     <use xlink:href="#DejaVuSans-64" x="126.505859"/>
     <use xlink:href="#DejaVuSans-20" x="189.982422"/>
     <use xlink:href="#DejaVuSans-43" x="221.769531"/>
     <use xlink:href="#DejaVuSans-68" x="291.59375"/>
     <use xlink:href="#DejaVuSans-61" x="354.972656"/>
     <use xlink:href="#DejaVuSans-6e" x="416.251953"/>
     <use xlink:href="#DejaVuSans-6e" x="479.630859"/>
     <use xlink:href="#DejaVuSans-65" x="543.009766"/>
     <use xlink:href="#DejaVuSans-6c" x="604.533203"/>
     <use xlink:href="#DejaVuSans-20" x="632.316406"/>
    </g>
   </g>
  </g>
  <g id="axes_2">
   <g id="patch_7">
    <path d="M 57.17 397.157638 
L 267.705 397.157638 
L 267.705 219.682362 
L 57.17 219.682362 
z
" style="fill: #ffffff"/>
   </g>
   <g id="PolyCollection_2">
    <path d="M 15.063 389.09058 
L 15.063 382.560372 
L 17.16835 382.560372 
L 19.2737 382.560372 
L 21.37905 383.91145 
L 23.4844 383.123321 
L 25.58975 385.375117 
L 27.6951 384.699578 
L 29.80045 385.600296 
L 31.9058 386.838784 
L 34.01115 387.063964 
L 36.1165 387.739502 
L 38.22185 387.289143 
L 40.3272 388.415041 
L 42.43255 388.415041 
L 44.5379 388.8654 
L 46.64325 389.09058 
L 48.7486 388.97799 
L 50.85395 389.09058 
L 52.9593 388.97799 
L 55.06465 389.09058 
L 57.17 389.09058 
L 59.27535 389.09058 
L 61.3807 389.09058 
L 63.48605 389.09058 
L 65.5914 389.09058 
L 67.69675 389.09058 
L 69.8021 389.09058 
L 71.90745 389.09058 
L 74.0128 388.97799 
L 76.11815 389.09058 
L 78.2235 388.97799 
L 80.32885 388.97799 
L 82.4342 388.8654 
L 84.53955 388.189862 
L 86.6449 387.852092 
L 88.75025 384.361809 
L 90.8556 383.348501 
L 92.96095 375.467216 
L 95.0663 367.360752 
L 97.17165 354.863286 
L 99.277 335.948202 
L 101.38235 315.456861 
L 103.4877 295.978829 
L 105.59305 265.129228 
L 107.6984 247.002273 
L 109.80375 227.74942 
L 111.9091 233.378909 
L 114.01445 237.432142 
L 116.1198 244.187529 
L 118.22515 248.46594 
L 120.3305 258.148662 
L 122.43585 268.281742 
L 124.5412 280.216259 
L 126.64655 285.05762 
L 128.7519 290.46193 
L 130.85725 291.024878 
L 132.9626 293.952213 
L 135.06795 305.436371 
L 137.1733 308.588885 
L 139.27865 310.390321 
L 141.384 315.456861 
L 143.48935 315.006502 
L 145.5947 313.205066 
L 147.70005 316.695349 
L 149.8054 318.496786 
L 151.91075 323.338146 
L 154.0161 319.172324 
L 156.12145 326.265481 
L 158.2268 326.265481 
L 160.33215 322.550018 
L 162.4375 325.702532 
L 164.54285 332.232739 
L 166.6482 331.219431 
L 168.75355 333.921586 
L 170.8589 338.988126 
L 172.96425 336.285971 
L 175.0696 336.84892 
L 177.17495 339.551075 
L 179.2803 341.352512 
L 181.38565 340.789563 
L 183.491 343.716897 
L 185.59635 346.306462 
L 187.7017 347.65754 
L 189.80705 350.584874 
L 191.9124 348.445668 
L 194.01775 351.147823 
L 196.1231 354.075157 
L 198.22845 349.121207 
L 200.3338 354.075157 
L 202.43915 354.075157 
L 204.5445 357.90321 
L 206.64985 357.56544 
L 208.7552 357.115081 
L 210.86055 362.519391 
L 212.9659 362.631981 
L 215.07125 362.74457 
L 217.1766 361.393493 
L 219.28195 365.671905 
L 221.3873 365.559315 
L 223.49265 364.095648 
L 225.598 367.698521 
L 227.70335 368.711829 
L 229.8087 370.738445 
L 231.91405 367.698521 
L 234.0194 370.288086 
L 236.12475 371.526574 
L 238.2301 370.062906 
L 240.33545 372.202112 
L 242.4408 373.21542 
L 244.54615 371.976933 
L 246.6515 372.089522 
L 248.75685 372.539882 
L 250.8622 374.904267 
L 252.96755 371.301394 
L 255.0729 371.751753 
L 257.17825 373.665779 
L 259.2836 375.804985 
L 261.38895 373.778369 
L 263.4943 375.242036 
L 265.59965 375.579806 
L 267.705 376.930883 
L 269.81035 376.930883 
L 271.9157 374.566498 
L 274.02105 374.791677 
L 276.1264 373.665779 
L 278.23175 376.705704 
L 280.3371 375.467216 
L 282.44245 375.016857 
L 284.5478 375.129447 
L 286.65315 376.367934 
L 288.7585 378.056781 
L 290.86385 375.692396 
L 292.9692 375.354626 
L 295.07455 376.367934 
L 297.1799 377.043473 
L 299.28525 375.016857 
L 301.3906 376.367934 
L 303.49595 379.407858 
L 305.6013 378.169371 
L 307.70665 375.804985 
L 309.812 376.593114 
L 311.91735 378.056781 
L 314.0227 377.268653 
L 316.12805 378.169371 
L 318.2334 377.156063 
L 320.33875 380.421166 
L 322.4441 377.381242 
L 324.54945 380.308577 
L 326.6548 379.295269 
L 328.76015 378.056781 
L 330.8655 379.407858 
L 332.97085 378.957499 
L 335.0762 379.520448 
L 337.18155 380.533756 
L 339.2869 379.295269 
L 341.39225 380.984115 
L 343.4976 380.421166 
L 345.60295 380.195987 
L 347.7083 379.633038 
L 349.81365 379.970807 
L 351.919 380.421166 
L 354.02435 381.772244 
L 356.1297 381.434475 
L 358.23505 380.533756 
L 360.3404 381.659654 
L 362.44575 379.970807 
L 364.5511 380.871526 
L 366.65645 382.335193 
L 368.7618 379.295269 
L 370.86715 382.222603 
L 372.9725 381.096705 
L 375.07785 381.321885 
L 377.1832 380.195987 
L 379.28855 382.447783 
L 381.3939 380.984115 
L 383.49925 382.335193 
L 385.6046 382.110013 
L 387.70995 383.79886 
L 389.8153 382.785552 
L 391.92065 382.222603 
L 394.026 382.560372 
L 396.13135 382.785552 
L 398.2367 382.898142 
L 400.34205 381.884834 
L 402.4474 381.321885 
L 404.55275 382.560372 
L 406.6581 380.421166 
L 408.76345 384.02404 
L 410.8688 383.123321 
L 412.97415 383.68627 
L 415.0795 383.235911 
L 417.18485 383.235911 
L 419.2902 384.474399 
L 421.39555 383.91145 
L 423.5009 381.772244 
L 425.60625 385.037348 
L 427.7116 382.785552 
L 429.81695 381.997423 
L 431.9223 382.672962 
L 434.02765 384.474399 
L 436.133 382.222603 
L 438.23835 383.010731 
L 440.3437 383.123321 
L 442.44905 383.91145 
L 444.5544 384.136629 
L 446.65975 384.02404 
L 448.7651 384.699578 
L 450.87045 382.110013 
L 452.9758 384.02404 
L 455.08115 384.361809 
L 457.1865 383.68627 
L 459.29185 383.68627 
L 461.3972 383.68627 
L 463.50255 384.249219 
L 465.6079 384.02404 
L 467.71325 383.010731 
L 469.8186 385.487707 
L 471.92395 383.348501 
L 474.0293 383.79886 
L 476.13465 384.249219 
L 478.24 384.361809 
L 480.34535 385.712886 
L 482.4507 383.235911 
L 484.55605 384.361809 
L 486.6614 384.474399 
L 488.76675 385.375117 
L 490.8721 383.68627 
L 492.97745 383.79886 
L 495.0828 385.149937 
L 497.18815 384.361809 
L 499.2935 383.123321 
L 501.39885 385.487707 
L 503.5042 384.02404 
L 505.60955 384.474399 
L 507.7149 385.149937 
L 509.82025 385.037348 
L 511.9256 385.037348 
L 514.03095 384.136629 
L 516.1363 384.361809 
L 518.24165 384.474399 
L 520.347 383.68627 
L 522.45235 383.91145 
L 524.5577 382.560372 
L 526.66305 383.010731 
L 528.7684 383.79886 
L 530.87375 382.560372 
L 532.9791 381.321885 
L 535.08445 382.222603 
L 537.1898 380.646346 
L 539.29515 381.659654 
L 541.4005 381.772244 
L 543.50585 382.222603 
L 545.6112 382.785552 
L 547.71655 381.209295 
L 549.8219 381.659654 
L 551.92725 382.898142 
L 551.92725 389.09058 
L 551.92725 389.09058 
L 549.8219 389.09058 
L 547.71655 389.09058 
L 545.6112 389.09058 
L 543.50585 389.09058 
L 541.4005 389.09058 
L 539.29515 389.09058 
L 537.1898 389.09058 
L 535.08445 389.09058 
L 532.9791 389.09058 
L 530.87375 389.09058 
L 528.7684 389.09058 
L 526.66305 389.09058 
L 524.5577 389.09058 
L 522.45235 389.09058 
L 520.347 389.09058 
L 518.24165 389.09058 
L 516.1363 389.09058 
L 514.03095 389.09058 
L 511.9256 389.09058 
L 509.82025 389.09058 
L 507.7149 389.09058 
L 505.60955 389.09058 
L 503.5042 389.09058 
L 501.39885 389.09058 
L 499.2935 389.09058 
L 497.18815 389.09058 
L 495.0828 389.09058 
L 492.97745 389.09058 
L 490.8721 389.09058 
L 488.76675 389.09058 
L 486.6614 389.09058 
L 484.55605 389.09058 
L 482.4507 389.09058 
L 480.34535 389.09058 
L 478.24 389.09058 
L 476.13465 389.09058 
L 474.0293 389.09058 
L 471.92395 389.09058 
L 469.8186 389.09058 
L 467.71325 389.09058 
L 465.6079 389.09058 
L 463.50255 389.09058 
L 461.3972 389.09058 
L 459.29185 389.09058 
L 457.1865 389.09058 
L 455.08115 389.09058 
L 452.9758 389.09058 
L 450.87045 389.09058 
L 448.7651 389.09058 
L 446.65975 389.09058 
L 444.5544 389.09058 
L 442.44905 389.09058 
L 440.3437 389.09058 
L 438.23835 389.09058 
L 436.133 389.09058 
L 434.02765 389.09058 
L 431.9223 389.09058 
L 429.81695 389.09058 
L 427.7116 389.09058 
L 425.60625 389.09058 
L 423.5009 389.09058 
L 421.39555 389.09058 
L 419.2902 389.09058 
L 417.18485 389.09058 
L 415.0795 389.09058 
L 412.97415 389.09058 
L 410.8688 389.09058 
L 408.76345 389.09058 
L 406.6581 389.09058 
L 404.55275 389.09058 
L 402.4474 389.09058 
L 400.34205 389.09058 
L 398.2367 389.09058 
L 396.13135 389.09058 
L 394.026 389.09058 
L 391.92065 389.09058 
L 389.8153 389.09058 
L 387.70995 389.09058 
L 385.6046 389.09058 
L 383.49925 389.09058 
L 381.3939 389.09058 
L 379.28855 389.09058 
L 377.1832 389.09058 
L 375.07785 389.09058 
L 372.9725 389.09058 
L 370.86715 389.09058 
L 368.7618 389.09058 
L 366.65645 389.09058 
L 364.5511 389.09058 
L 362.44575 389.09058 
L 360.3404 389.09058 
L 358.23505 389.09058 
L 356.1297 389.09058 
L 354.02435 389.09058 
L 351.919 389.09058 
L 349.81365 389.09058 
L 347.7083 389.09058 
L 345.60295 389.09058 
L 343.4976 389.09058 
L 341.39225 389.09058 
L 339.2869 389.09058 
L 337.18155 389.09058 
L 335.0762 389.09058 
L 332.97085 389.09058 
L 330.8655 389.09058 
L 328.76015 389.09058 
L 326.6548 389.09058 
L 324.54945 389.09058 
L 322.4441 389.09058 
L 320.33875 389.09058 
L 318.2334 389.09058 
L 316.12805 389.09058 
L 314.0227 389.09058 
L 311.91735 389.09058 
L 309.812 389.09058 
L 307.70665 389.09058 
L 305.6013 389.09058 
L 303.49595 389.09058 
L 301.3906 389.09058 
L 299.28525 389.09058 
L 297.1799 389.09058 
L 295.07455 389.09058 
L 292.9692 389.09058 
L 290.86385 389.09058 
L 288.7585 389.09058 
L 286.65315 389.09058 
L 284.5478 389.09058 
L 282.44245 389.09058 
L 280.3371 389.09058 
L 278.23175 389.09058 
L 276.1264 389.09058 
L 274.02105 389.09058 
L 271.9157 389.09058 
L 269.81035 389.09058 
L 267.705 389.09058 
L 265.59965 389.09058 
L 263.4943 389.09058 
L 261.38895 389.09058 
L 259.2836 389.09058 
L 257.17825 389.09058 
L 255.0729 389.09058 
L 252.96755 389.09058 
L 250.8622 389.09058 
L 248.75685 389.09058 
L 246.6515 389.09058 
L 244.54615 389.09058 
L 242.4408 389.09058 
L 240.33545 389.09058 
L 238.2301 389.09058 
L 236.12475 389.09058 
L 234.0194 389.09058 
L 231.91405 389.09058 
L 229.8087 389.09058 
L 227.70335 389.09058 
L 225.598 389.09058 
L 223.49265 389.09058 
L 221.3873 389.09058 
L 219.28195 389.09058 
L 217.1766 389.09058 
L 215.07125 389.09058 
L 212.9659 389.09058 
L 210.86055 389.09058 
L 208.7552 389.09058 
L 206.64985 389.09058 
L 204.5445 389.09058 
L 202.43915 389.09058 
L 200.3338 389.09058 
L 198.22845 389.09058 
L 196.1231 389.09058 
L 194.01775 389.09058 
L 191.9124 389.09058 
L 189.80705 389.09058 
L 187.7017 389.09058 
L 185.59635 389.09058 
L 183.491 389.09058 
L 181.38565 389.09058 
L 179.2803 389.09058 
L 177.17495 389.09058 
L 175.0696 389.09058 
L 172.96425 389.09058 
L 170.8589 389.09058 
L 168.75355 389.09058 
L 166.6482 389.09058 
L 164.54285 389.09058 
L 162.4375 389.09058 
L 160.33215 389.09058 
L 158.2268 389.09058 
L 156.12145 389.09058 
L 154.0161 389.09058 
L 151.91075 389.09058 
L 149.8054 389.09058 
L 147.70005 389.09058 
L 145.5947 389.09058 
L 143.48935 389.09058 
L 141.384 389.09058 
L 139.27865 389.09058 
L 137.1733 389.09058 
L 135.06795 389.09058 
L 132.9626 389.09058 
L 130.85725 389.09058 
L 128.7519 389.09058 
L 126.64655 389.09058 
L 124.5412 389.09058 
L 122.43585 389.09058 
L 120.3305 389.09058 
L 118.22515 389.09058 
L 116.1198 389.09058 
L 114.01445 389.09058 
L 111.9091 389.09058 
L 109.80375 389.09058 
L 107.6984 389.09058 
L 105.59305 389.09058 
L 103.4877 389.09058 
L 101.38235 389.09058 
L 99.277 389.09058 
L 97.17165 389.09058 
L 95.0663 389.09058 
L 92.96095 389.09058 
L 90.8556 389.09058 
L 88.75025 389.09058 
L 86.6449 389.09058 
L 84.53955 389.09058 
L 82.4342 389.09058 
L 80.32885 389.09058 
L 78.2235 389.09058 
L 76.11815 389.09058 
L 74.0128 389.09058 
L 71.90745 389.09058 
L 69.8021 389.09058 
L 67.69675 389.09058 
L 65.5914 389.09058 
L 63.48605 389.09058 
L 61.3807 389.09058 
L 59.27535 389.09058 
L 57.17 389.09058 
L 55.06465 389.09058 
L 52.9593 389.09058 
L 50.85395 389.09058 
L 48.7486 389.09058 
L 46.64325 389.09058 
L 44.5379 389.09058 
L 42.43255 389.09058 
L 40.3272 389.09058 
L 38.22185 389.09058 
L 36.1165 389.09058 
L 34.01115 389.09058 
L 31.9058 389.09058 
L 29.80045 389.09058 
L 27.6951 389.09058 
L 25.58975 389.09058 
L 23.4844 389.09058 
L 21.37905 389.09058 
L 19.2737 389.09058 
L 17.16835 389.09058 
L 15.063 389.09058 
z
" clip-path="url(#p1ef73eab2e)" style="fill: #008000; fill-opacity: 0.4; stroke: #008000; stroke-opacity: 0.4"/>
   </g>
   <g id="matplotlib.axis_3">
    <g id="xtick_7">
     <g id="line2d_15">
      <g>
       <use xlink:href="#mb3b7c323cf" x="57.17" y="397.157638" style="stroke: #000000; stroke-width: 0.8"/>
      </g>
     </g>
     <g id="text_16">
      <!-- 20 -->
      <g transform="translate(50.8075 411.756075) scale(0.1 -0.1)">
       <use xlink:href="#DejaVuSans-32"/>
       <use xlink:href="#DejaVuSans-30" x="63.623047"/>
      </g>
     </g>
    </g>
    <g id="xtick_8">
     <g id="line2d_16">
      <g>
       <use xlink:href="#mb3b7c323cf" x="99.277" y="397.157638" style="stroke: #000000; stroke-width: 0.8"/>
      </g>
     </g>
     <g id="text_17">
      <!-- 40 -->
      <g transform="translate(92.9145 411.756075) scale(0.1 -0.1)">
       <use xlink:href="#DejaVuSans-34"/>
       <use xlink:href="#DejaVuSans-30" x="63.623047"/>
      </g>
     </g>
    </g>
    <g id="xtick_9">
     <g id="line2d_17">
      <g>
       <use xlink:href="#mb3b7c323cf" x="141.384" y="397.157638" style="stroke: #000000; stroke-width: 0.8"/>
      </g>
     </g>
     <g id="text_18">
      <!-- 60 -->
      <g transform="translate(135.0215 411.756075) scale(0.1 -0.1)">
       <use xlink:href="#DejaVuSans-36"/>
       <use xlink:href="#DejaVuSans-30" x="63.623047"/>
      </g>
     </g>
    </g>
    <g id="xtick_10">
     <g id="line2d_18">
      <g>
       <use xlink:href="#mb3b7c323cf" x="183.491" y="397.157638" style="stroke: #000000; stroke-width: 0.8"/>
      </g>
     </g>
     <g id="text_19">
      <!-- 80 -->
      <g transform="translate(177.1285 411.756075) scale(0.1 -0.1)">
       <use xlink:href="#DejaVuSans-38"/>
       <use xlink:href="#DejaVuSans-30" x="63.623047"/>
      </g>
     </g>
    </g>
    <g id="xtick_11">
     <g id="line2d_19">
      <g>
       <use xlink:href="#mb3b7c323cf" x="225.598" y="397.157638" style="stroke: #000000; stroke-width: 0.8"/>
      </g>
     </g>
     <g id="text_20">
      <!-- 100 -->
      <g transform="translate(216.05425 411.756075) scale(0.1 -0.1)">
       <use xlink:href="#DejaVuSans-31"/>
       <use xlink:href="#DejaVuSans-30" x="63.623047"/>
       <use xlink:href="#DejaVuSans-30" x="127.246094"/>
      </g>
     </g>
    </g>
    <g id="xtick_12">
     <g id="line2d_20">
      <g>
       <use xlink:href="#mb3b7c323cf" x="267.705" y="397.157638" style="stroke: #000000; stroke-width: 0.8"/>
      </g>
     </g>
     <g id="text_21">
      <!-- 120 -->
      <g transform="translate(258.16125 411.756075) scale(0.1 -0.1)">
       <use xlink:href="#DejaVuSans-31"/>
       <use xlink:href="#DejaVuSans-32" x="63.623047"/>
       <use xlink:href="#DejaVuSans-30" x="127.246094"/>
      </g>
     </g>
    </g>
   </g>
   <g id="matplotlib.axis_4">
    <g id="ytick_8">
     <g id="line2d_21">
      <g>
       <use xlink:href="#mf493d3d903" x="57.17" y="389.09058" style="stroke: #000000; stroke-width: 0.8"/>
      </g>
     </g>
     <g id="text_22">
      <!-- 0 -->
      <g transform="translate(43.8075 392.889799) scale(0.1 -0.1)">
       <use xlink:href="#DejaVuSans-30"/>
      </g>
     </g>
    </g>
    <g id="ytick_9">
     <g id="line2d_22">
      <g>
       <use xlink:href="#mf493d3d903" x="57.17" y="366.572623" style="stroke: #000000; stroke-width: 0.8"/>
      </g>
     </g>
     <g id="text_23">
      <!-- 200 -->
      <g transform="translate(31.0825 370.371842) scale(0.1 -0.1)">
       <use xlink:href="#DejaVuSans-32"/>
       <use xlink:href="#DejaVuSans-30" x="63.623047"/>
       <use xlink:href="#DejaVuSans-30" x="127.246094"/>
      </g>
     </g>
    </g>
    <g id="ytick_10">
     <g id="line2d_23">
      <g>
       <use xlink:href="#mf493d3d903" x="57.17" y="344.054666" style="stroke: #000000; stroke-width: 0.8"/>
      </g>
     </g>
     <g id="text_24">
      <!-- 400 -->
      <g transform="translate(31.0825 347.853885) scale(0.1 -0.1)">
       <use xlink:href="#DejaVuSans-34"/>
       <use xlink:href="#DejaVuSans-30" x="63.623047"/>
       <use xlink:href="#DejaVuSans-30" x="127.246094"/>
      </g>
     </g>
    </g>
    <g id="ytick_11">
     <g id="line2d_24">
      <g>
       <use xlink:href="#mf493d3d903" x="57.17" y="321.53671" style="stroke: #000000; stroke-width: 0.8"/>
      </g>
     </g>
     <g id="text_25">
      <!-- 600 -->
      <g transform="translate(31.0825 325.335929) scale(0.1 -0.1)">
       <use xlink:href="#DejaVuSans-36"/>
       <use xlink:href="#DejaVuSans-30" x="63.623047"/>
       <use xlink:href="#DejaVuSans-30" x="127.246094"/>
      </g>
     </g>
    </g>
    <g id="ytick_12">
     <g id="line2d_25">
      <g>
       <use xlink:href="#mf493d3d903" x="57.17" y="299.018753" style="stroke: #000000; stroke-width: 0.8"/>
      </g>
     </g>
     <g id="text_26">
      <!-- 800 -->
      <g transform="translate(31.0825 302.817972) scale(0.1 -0.1)">
       <use xlink:href="#DejaVuSans-38"/>
       <use xlink:href="#DejaVuSans-30" x="63.623047"/>
       <use xlink:href="#DejaVuSans-30" x="127.246094"/>
      </g>
     </g>
    </g>
    <g id="ytick_13">
     <g id="line2d_26">
      <g>
       <use xlink:href="#mf493d3d903" x="57.17" y="276.500796" style="stroke: #000000; stroke-width: 0.8"/>
      </g>
     </g>
     <g id="text_27">
      <!-- 1000 -->
      <g transform="translate(24.72 280.300015) scale(0.1 -0.1)">
       <use xlink:href="#DejaVuSans-31"/>
       <use xlink:href="#DejaVuSans-30" x="63.623047"/>
       <use xlink:href="#DejaVuSans-30" x="127.246094"/>
       <use xlink:href="#DejaVuSans-30" x="190.869141"/>
      </g>
     </g>
    </g>
    <g id="ytick_14">
     <g id="line2d_27">
      <g>
       <use xlink:href="#mf493d3d903" x="57.17" y="253.98284" style="stroke: #000000; stroke-width: 0.8"/>
      </g>
     </g>
     <g id="text_28">
      <!-- 1200 -->
      <g transform="translate(24.72 257.782058) scale(0.1 -0.1)">
       <use xlink:href="#DejaVuSans-31"/>
       <use xlink:href="#DejaVuSans-32" x="63.623047"/>
       <use xlink:href="#DejaVuSans-30" x="127.246094"/>
       <use xlink:href="#DejaVuSans-30" x="190.869141"/>
      </g>
     </g>
    </g>
    <g id="ytick_15">
     <g id="line2d_28">
      <g>
       <use xlink:href="#mf493d3d903" x="57.17" y="231.464883" style="stroke: #000000; stroke-width: 0.8"/>
      </g>
     </g>
     <g id="text_29">
      <!-- 1400 -->
      <g transform="translate(24.72 235.264102) scale(0.1 -0.1)">
       <use xlink:href="#DejaVuSans-31"/>
       <use xlink:href="#DejaVuSans-34" x="63.623047"/>
       <use xlink:href="#DejaVuSans-30" x="127.246094"/>
       <use xlink:href="#DejaVuSans-30" x="190.869141"/>
      </g>
     </g>
    </g>
    <g id="text_30">
     <!-- Pixel Frequency -->
     <g transform="translate(18.640313 347.398906) rotate(-90) scale(0.1 -0.1)">
      <use xlink:href="#DejaVuSans-50"/>
      <use xlink:href="#DejaVuSans-69" x="58.052734"/>
      <use xlink:href="#DejaVuSans-78" x="85.835938"/>
      <use xlink:href="#DejaVuSans-65" x="141.890625"/>
      <use xlink:href="#DejaVuSans-6c" x="203.414062"/>
      <use xlink:href="#DejaVuSans-20" x="231.197266"/>
      <use xlink:href="#DejaVuSans-46" x="262.984375"/>
      <use xlink:href="#DejaVuSans-72" x="313.253906"/>
      <use xlink:href="#DejaVuSans-65" x="352.117188"/>
      <use xlink:href="#DejaVuSans-71" x="413.640625"/>
      <use xlink:href="#DejaVuSans-75" x="477.117188"/>
      <use xlink:href="#DejaVuSans-65" x="540.496094"/>
      <use xlink:href="#DejaVuSans-6e" x="602.019531"/>
      <use xlink:href="#DejaVuSans-63" x="665.398438"/>
      <use xlink:href="#DejaVuSans-79" x="720.378906"/>
     </g>
    </g>
   </g>
   <g id="line2d_29">
    <path d="M 15.063 382.560372 
L 19.2737 382.560372 
L 21.37905 383.91145 
L 23.4844 383.123321 
L 25.58975 385.375117 
L 27.6951 384.699578 
L 29.80045 385.600296 
L 31.9058 386.838784 
L 34.01115 387.063964 
L 36.1165 387.739502 
L 38.22185 387.289143 
L 40.3272 388.415041 
L 42.43255 388.415041 
L 44.5379 388.8654 
L 46.64325 389.09058 
L 48.7486 388.97799 
L 50.85395 389.09058 
L 52.9593 388.97799 
L 55.06465 389.09058 
L 71.90745 389.09058 
L 74.0128 388.97799 
L 76.11815 389.09058 
L 78.2235 388.97799 
L 80.32885 388.97799 
L 82.4342 388.8654 
L 84.53955 388.189862 
L 86.6449 387.852092 
L 88.75025 384.361809 
L 90.8556 383.348501 
L 95.0663 367.360752 
L 97.17165 354.863286 
L 99.277 335.948202 
L 103.4877 295.978829 
L 105.59305 265.129228 
L 107.6984 247.002273 
L 109.80375 227.74942 
L 111.9091 233.378909 
L 114.01445 237.432142 
L 116.1198 244.187529 
L 118.22515 248.46594 
L 122.43585 268.281742 
L 124.5412 280.216259 
L 126.64655 285.05762 
L 128.7519 290.46193 
L 130.85725 291.024878 
L 132.9626 293.952213 
L 135.06795 305.436371 
L 137.1733 308.588885 
L 139.27865 310.390321 
L 141.384 315.456861 
L 143.48935 315.006502 
L 145.5947 313.205066 
L 147.70005 316.695349 
L 149.8054 318.496786 
L 151.91075 323.338146 
L 154.0161 319.172324 
L 156.12145 326.265481 
L 158.2268 326.265481 
L 160.33215 322.550018 
L 162.4375 325.702532 
L 164.54285 332.232739 
L 166.6482 331.219431 
L 168.75355 333.921586 
L 170.8589 338.988126 
L 172.96425 336.285971 
L 175.0696 336.84892 
L 177.17495 339.551075 
L 179.2803 341.352512 
L 181.38565 340.789563 
L 183.491 343.716897 
L 185.59635 346.306462 
L 187.7017 347.65754 
L 189.80705 350.584874 
L 191.9124 348.445668 
L 194.01775 351.147823 
L 196.1231 354.075157 
L 198.22845 349.121207 
L 200.3338 354.075157 
L 202.43915 354.075157 
L 204.5445 357.90321 
L 206.64985 357.56544 
L 208.7552 357.115081 
L 210.86055 362.519391 
L 215.07125 362.74457 
L 217.1766 361.393493 
L 219.28195 365.671905 
L 221.3873 365.559315 
L 223.49265 364.095648 
L 225.598 367.698521 
L 227.70335 368.711829 
L 229.8087 370.738445 
L 231.91405 367.698521 
L 234.0194 370.288086 
L 236.12475 371.526574 
L 238.2301 370.062906 
L 240.33545 372.202112 
L 242.4408 373.21542 
L 244.54615 371.976933 
L 246.6515 372.089522 
L 248.75685 372.539882 
L 250.8622 374.904267 
L 252.96755 371.301394 
L 255.0729 371.751753 
L 257.17825 373.665779 
L 259.2836 375.804985 
L 261.38895 373.778369 
L 263.4943 375.242036 
L 265.59965 375.579806 
L 267.705 376.930883 
L 269.81035 376.930883 
L 271.9157 374.566498 
L 274.02105 374.791677 
L 276.1264 373.665779 
L 278.23175 376.705704 
L 280.3371 375.467216 
L 282.44245 375.016857 
L 284.5478 375.129447 
L 286.65315 376.367934 
L 288.7585 378.056781 
L 289 377.785568 
L 289 377.785568 
" clip-path="url(#p1ef73eab2e)" style="fill: none; stroke: #008000; stroke-width: 1.5; stroke-linecap: square"/>
   </g>
   <g id="patch_8">
    <path d="M 57.17 397.157638 
L 57.17 219.682362 
" style="fill: none; stroke: #000000; stroke-width: 0.8; stroke-linejoin: miter; stroke-linecap: square"/>
   </g>
   <g id="patch_9">
    <path d="M 267.705 397.157638 
L 267.705 219.682362 
" style="fill: none; stroke: #000000; stroke-width: 0.8; stroke-linejoin: miter; stroke-linecap: square"/>
   </g>
   <g id="patch_10">
    <path d="M 57.17 397.157638 
L 267.705 397.157638 
" style="fill: none; stroke: #000000; stroke-width: 0.8; stroke-linejoin: miter; stroke-linecap: square"/>
   </g>
   <g id="patch_11">
    <path d="M 57.17 219.682362 
L 267.705 219.682362 
" style="fill: none; stroke: #000000; stroke-width: 0.8; stroke-linejoin: miter; stroke-linecap: square"/>
   </g>
   <g id="text_31">
    <!-- Green Channel  -->
    <g transform="translate(174.478125 233.682362) scale(0.12 -0.12)">
     <defs>
      <path id="DejaVuSans-47" d="M 3809 666 
L 3809 1919 
L 2778 1919 
L 2778 2438 
L 4434 2438 
L 4434 434 
Q 4069 175 3628 42 
Q 3188 -91 2688 -91 
Q 1594 -91 976 548 
Q 359 1188 359 2328 
Q 359 3472 976 4111 
Q 1594 4750 2688 4750 
Q 3144 4750 3555 4637 
Q 3966 4525 4313 4306 
L 4313 3634 
Q 3963 3931 3569 4081 
Q 3175 4231 2741 4231 
Q 1884 4231 1454 3753 
Q 1025 3275 1025 2328 
Q 1025 1384 1454 906 
Q 1884 428 2741 428 
Q 3075 428 3337 486 
Q 3600 544 3809 666 
z
" transform="scale(0.015625)"/>
     </defs>
     <use xlink:href="#DejaVuSans-47"/>
     <use xlink:href="#DejaVuSans-72" x="77.490234"/>
     <use xlink:href="#DejaVuSans-65" x="116.353516"/>
     <use xlink:href="#DejaVuSans-65" x="177.876953"/>
     <use xlink:href="#DejaVuSans-6e" x="239.400391"/>
     <use xlink:href="#DejaVuSans-20" x="302.779297"/>
     <use xlink:href="#DejaVuSans-43" x="334.566406"/>
     <use xlink:href="#DejaVuSans-68" x="404.390625"/>
     <use xlink:href="#DejaVuSans-61" x="467.769531"/>
     <use xlink:href="#DejaVuSans-6e" x="529.048828"/>
     <use xlink:href="#DejaVuSans-6e" x="592.427734"/>
     <use xlink:href="#DejaVuSans-65" x="655.806641"/>
     <use xlink:href="#DejaVuSans-6c" x="717.330078"/>
     <use xlink:href="#DejaVuSans-20" x="745.113281"/>
    </g>
   </g>
  </g>
  <g id="axes_3">
   <g id="patch_12">
    <path d="M 57.17 606.04 
L 267.705 606.04 
L 267.705 428.564724 
L 57.17 428.564724 
z
" style="fill: #ffffff"/>
   </g>
   <g id="PolyCollection_3">
    <path d="M 15.063 597.972942 
L 15.063 597.972942 
L 17.16835 597.972942 
L 19.2737 597.972942 
L 21.37905 597.972942 
L 23.4844 597.972942 
L 25.58975 597.972942 
L 27.6951 597.972942 
L 29.80045 597.972942 
L 31.9058 597.972942 
L 34.01115 597.972942 
L 36.1165 597.972942 
L 38.22185 597.972942 
L 40.3272 597.972942 
L 42.43255 597.972942 
L 44.5379 597.972942 
L 46.64325 597.972942 
L 48.7486 597.972942 
L 50.85395 597.809393 
L 52.9593 597.809393 
L 55.06465 597.972942 
L 57.17 597.891167 
L 59.27535 597.073422 
L 61.3807 596.419226 
L 63.48605 595.846804 
L 65.5914 592.902921 
L 67.69675 591.594528 
L 69.8021 587.914674 
L 71.90745 582.108682 
L 74.0128 573.113483 
L 76.11815 554.795987 
L 78.2235 533.20751 
L 80.32885 510.883061 
L 82.4342 485.205857 
L 84.53955 469.423371 
L 86.6449 448.325541 
L 88.75025 438.349048 
L 90.8556 436.631782 
L 92.96095 449.225061 
L 95.0663 458.302035 
L 97.17165 469.75047 
L 99.277 477.600825 
L 101.38235 493.219761 
L 103.4877 494.119281 
L 105.59305 506.876109 
L 107.6984 508.920472 
L 109.80375 513.090974 
L 111.9091 514.562915 
L 114.01445 519.305838 
L 116.1198 524.948281 
L 118.22515 528.219263 
L 120.3305 530.672499 
L 122.43585 530.345401 
L 124.5412 532.144441 
L 126.64655 534.270578 
L 128.7519 545.064817 
L 130.85725 544.901268 
L 132.9626 544.492395 
L 135.06795 549.725966 
L 137.1733 554.30534 
L 139.27865 554.550663 
L 141.384 556.84035 
L 143.48935 557.658096 
L 145.5947 561.419724 
L 147.70005 563.13699 
L 149.8054 565.672 
L 151.91075 567.798138 
L 154.0161 566.326197 
L 156.12145 570.1696 
L 158.2268 569.515403 
L 160.33215 570.823796 
L 162.4375 570.823796 
L 164.54285 574.830748 
L 166.6482 575.484945 
L 168.75355 577.20221 
L 170.8589 576.629788 
L 172.96425 575.566719 
L 175.0696 578.019955 
L 177.17495 576.466239 
L 179.2803 577.774632 
L 181.38565 579.491897 
L 183.491 582.026907 
L 185.59635 580.554966 
L 187.7017 581.699809 
L 189.80705 582.926427 
L 191.9124 581.53626 
L 194.01775 580.963839 
L 196.1231 580.963839 
L 198.22845 581.209162 
L 200.3338 583.417075 
L 202.43915 582.517555 
L 204.5445 583.253526 
L 206.64985 583.171751 
L 208.7552 584.398369 
L 210.86055 584.643693 
L 212.9659 583.171751 
L 215.07125 584.153045 
L 217.1766 585.13434 
L 219.28195 586.279183 
L 221.3873 585.952085 
L 223.49265 587.751125 
L 225.598 587.178703 
L 227.70335 587.260478 
L 229.8087 588.405321 
L 231.91405 588.56887 
L 234.0194 589.713714 
L 236.12475 589.141292 
L 238.2301 588.895969 
L 240.33545 590.040812 
L 242.4408 589.059518 
L 244.54615 588.487096 
L 246.6515 589.304841 
L 248.75685 589.386616 
L 250.8622 589.141292 
L 252.96755 589.713714 
L 255.0729 590.204361 
L 257.17825 590.858557 
L 259.2836 590.286136 
L 261.38895 589.795488 
L 263.4943 591.430979 
L 265.59965 591.185656 
L 267.705 591.185656 
L 269.81035 590.449685 
L 271.9157 591.921626 
L 274.02105 591.839852 
L 276.1264 590.940332 
L 278.23175 591.839852 
L 280.3371 591.594528 
L 282.44245 590.858557 
L 284.5478 590.36791 
L 286.65315 591.430979 
L 288.7585 592.085175 
L 290.86385 592.821146 
L 292.9692 591.676303 
L 295.07455 591.921626 
L 297.1799 592.16695 
L 299.28525 592.248725 
L 301.3906 592.412274 
L 303.49595 592.494048 
L 305.6013 592.657597 
L 307.70665 593.230019 
L 309.812 593.311793 
L 311.91735 593.557117 
L 314.0227 594.047764 
L 316.12805 594.129539 
L 318.2334 592.412274 
L 320.33875 593.884215 
L 322.4441 594.456637 
L 324.54945 594.293088 
L 326.6548 594.620186 
L 328.76015 594.129539 
L 330.8655 594.293088 
L 332.97085 594.701961 
L 335.0762 594.620186 
L 337.18155 595.437931 
L 339.2869 594.620186 
L 341.39225 594.86551 
L 343.4976 595.928579 
L 345.60295 595.76503 
L 347.7083 595.356157 
L 349.81365 596.010353 
L 351.919 596.092128 
L 354.02435 596.419226 
L 356.1297 595.846804 
L 358.23505 595.110833 
L 360.3404 596.746324 
L 362.44575 596.501 
L 364.5511 596.173902 
L 366.65645 596.419226 
L 368.7618 595.928579 
L 370.86715 596.664549 
L 372.9725 596.664549 
L 375.07785 596.664549 
L 377.1832 596.909873 
L 379.28855 596.746324 
L 381.3939 596.991648 
L 383.49925 597.155197 
L 385.6046 596.664549 
L 387.70995 597.236971 
L 389.8153 596.582775 
L 391.92065 597.40052 
L 394.026 597.155197 
L 396.13135 596.991648 
L 398.2367 596.828099 
L 400.34205 597.727618 
L 402.4474 596.991648 
L 404.55275 597.073422 
L 406.6581 597.236971 
L 408.76345 597.564069 
L 410.8688 597.318746 
L 412.97415 597.891167 
L 415.0795 597.236971 
L 417.18485 597.318746 
L 419.2902 597.40052 
L 421.39555 597.727618 
L 423.5009 597.40052 
L 425.60625 597.236971 
L 427.7116 597.236971 
L 429.81695 597.645844 
L 431.9223 597.482295 
L 434.02765 597.564069 
L 436.133 597.891167 
L 438.23835 597.645844 
L 440.3437 597.564069 
L 442.44905 597.564069 
L 444.5544 597.645844 
L 446.65975 597.645844 
L 448.7651 597.482295 
L 450.87045 597.645844 
L 452.9758 597.891167 
L 455.08115 597.564069 
L 457.1865 597.809393 
L 459.29185 597.809393 
L 461.3972 597.482295 
L 463.50255 597.727618 
L 465.6079 597.645844 
L 467.71325 597.482295 
L 469.8186 597.727618 
L 471.92395 597.727618 
L 474.0293 597.809393 
L 476.13465 597.645844 
L 478.24 597.727618 
L 480.34535 597.809393 
L 482.4507 597.564069 
L 484.55605 597.564069 
L 486.6614 597.482295 
L 488.76675 597.972942 
L 490.8721 597.972942 
L 492.97745 597.891167 
L 495.0828 597.972942 
L 497.18815 597.891167 
L 499.2935 597.972942 
L 501.39885 597.972942 
L 503.5042 597.972942 
L 505.60955 597.972942 
L 507.7149 597.972942 
L 509.82025 597.972942 
L 511.9256 597.972942 
L 514.03095 597.972942 
L 516.1363 597.972942 
L 518.24165 597.972942 
L 520.347 597.972942 
L 522.45235 597.972942 
L 524.5577 597.972942 
L 526.66305 597.972942 
L 528.7684 597.972942 
L 530.87375 597.972942 
L 532.9791 597.972942 
L 535.08445 597.972942 
L 537.1898 597.972942 
L 539.29515 597.972942 
L 541.4005 597.972942 
L 543.50585 597.972942 
L 545.6112 597.972942 
L 547.71655 597.972942 
L 549.8219 597.972942 
L 551.92725 597.972942 
L 551.92725 597.972942 
L 551.92725 597.972942 
L 549.8219 597.972942 
L 547.71655 597.972942 
L 545.6112 597.972942 
L 543.50585 597.972942 
L 541.4005 597.972942 
L 539.29515 597.972942 
L 537.1898 597.972942 
L 535.08445 597.972942 
L 532.9791 597.972942 
L 530.87375 597.972942 
L 528.7684 597.972942 
L 526.66305 597.972942 
L 524.5577 597.972942 
L 522.45235 597.972942 
L 520.347 597.972942 
L 518.24165 597.972942 
L 516.1363 597.972942 
L 514.03095 597.972942 
L 511.9256 597.972942 
L 509.82025 597.972942 
L 507.7149 597.972942 
L 505.60955 597.972942 
L 503.5042 597.972942 
L 501.39885 597.972942 
L 499.2935 597.972942 
L 497.18815 597.972942 
L 495.0828 597.972942 
L 492.97745 597.972942 
L 490.8721 597.972942 
L 488.76675 597.972942 
L 486.6614 597.972942 
L 484.55605 597.972942 
L 482.4507 597.972942 
L 480.34535 597.972942 
L 478.24 597.972942 
L 476.13465 597.972942 
L 474.0293 597.972942 
L 471.92395 597.972942 
L 469.8186 597.972942 
L 467.71325 597.972942 
L 465.6079 597.972942 
L 463.50255 597.972942 
L 461.3972 597.972942 
L 459.29185 597.972942 
L 457.1865 597.972942 
L 455.08115 597.972942 
L 452.9758 597.972942 
L 450.87045 597.972942 
L 448.7651 597.972942 
L 446.65975 597.972942 
L 444.5544 597.972942 
L 442.44905 597.972942 
L 440.3437 597.972942 
L 438.23835 597.972942 
L 436.133 597.972942 
L 434.02765 597.972942 
L 431.9223 597.972942 
L 429.81695 597.972942 
L 427.7116 597.972942 
L 425.60625 597.972942 
L 423.5009 597.972942 
L 421.39555 597.972942 
L 419.2902 597.972942 
L 417.18485 597.972942 
L 415.0795 597.972942 
L 412.97415 597.972942 
L 410.8688 597.972942 
L 408.76345 597.972942 
L 406.6581 597.972942 
L 404.55275 597.972942 
L 402.4474 597.972942 
L 400.34205 597.972942 
L 398.2367 597.972942 
L 396.13135 597.972942 
L 394.026 597.972942 
L 391.92065 597.972942 
L 389.8153 597.972942 
L 387.70995 597.972942 
L 385.6046 597.972942 
L 383.49925 597.972942 
L 381.3939 597.972942 
L 379.28855 597.972942 
L 377.1832 597.972942 
L 375.07785 597.972942 
L 372.9725 597.972942 
L 370.86715 597.972942 
L 368.7618 597.972942 
L 366.65645 597.972942 
L 364.5511 597.972942 
L 362.44575 597.972942 
L 360.3404 597.972942 
L 358.23505 597.972942 
L 356.1297 597.972942 
L 354.02435 597.972942 
L 351.919 597.972942 
L 349.81365 597.972942 
L 347.7083 597.972942 
L 345.60295 597.972942 
L 343.4976 597.972942 
L 341.39225 597.972942 
L 339.2869 597.972942 
L 337.18155 597.972942 
L 335.0762 597.972942 
L 332.97085 597.972942 
L 330.8655 597.972942 
L 328.76015 597.972942 
L 326.6548 597.972942 
L 324.54945 597.972942 
L 322.4441 597.972942 
L 320.33875 597.972942 
L 318.2334 597.972942 
L 316.12805 597.972942 
L 314.0227 597.972942 
L 311.91735 597.972942 
L 309.812 597.972942 
L 307.70665 597.972942 
L 305.6013 597.972942 
L 303.49595 597.972942 
L 301.3906 597.972942 
L 299.28525 597.972942 
L 297.1799 597.972942 
L 295.07455 597.972942 
L 292.9692 597.972942 
L 290.86385 597.972942 
L 288.7585 597.972942 
L 286.65315 597.972942 
L 284.5478 597.972942 
L 282.44245 597.972942 
L 280.3371 597.972942 
L 278.23175 597.972942 
L 276.1264 597.972942 
L 274.02105 597.972942 
L 271.9157 597.972942 
L 269.81035 597.972942 
L 267.705 597.972942 
L 265.59965 597.972942 
L 263.4943 597.972942 
L 261.38895 597.972942 
L 259.2836 597.972942 
L 257.17825 597.972942 
L 255.0729 597.972942 
L 252.96755 597.972942 
L 250.8622 597.972942 
L 248.75685 597.972942 
L 246.6515 597.972942 
L 244.54615 597.972942 
L 242.4408 597.972942 
L 240.33545 597.972942 
L 238.2301 597.972942 
L 236.12475 597.972942 
L 234.0194 597.972942 
L 231.91405 597.972942 
L 229.8087 597.972942 
L 227.70335 597.972942 
L 225.598 597.972942 
L 223.49265 597.972942 
L 221.3873 597.972942 
L 219.28195 597.972942 
L 217.1766 597.972942 
L 215.07125 597.972942 
L 212.9659 597.972942 
L 210.86055 597.972942 
L 208.7552 597.972942 
L 206.64985 597.972942 
L 204.5445 597.972942 
L 202.43915 597.972942 
L 200.3338 597.972942 
L 198.22845 597.972942 
L 196.1231 597.972942 
L 194.01775 597.972942 
L 191.9124 597.972942 
L 189.80705 597.972942 
L 187.7017 597.972942 
L 185.59635 597.972942 
L 183.491 597.972942 
L 181.38565 597.972942 
L 179.2803 597.972942 
L 177.17495 597.972942 
L 175.0696 597.972942 
L 172.96425 597.972942 
L 170.8589 597.972942 
L 168.75355 597.972942 
L 166.6482 597.972942 
L 164.54285 597.972942 
L 162.4375 597.972942 
L 160.33215 597.972942 
L 158.2268 597.972942 
L 156.12145 597.972942 
L 154.0161 597.972942 
L 151.91075 597.972942 
L 149.8054 597.972942 
L 147.70005 597.972942 
L 145.5947 597.972942 
L 143.48935 597.972942 
L 141.384 597.972942 
L 139.27865 597.972942 
L 137.1733 597.972942 
L 135.06795 597.972942 
L 132.9626 597.972942 
L 130.85725 597.972942 
L 128.7519 597.972942 
L 126.64655 597.972942 
L 124.5412 597.972942 
L 122.43585 597.972942 
L 120.3305 597.972942 
L 118.22515 597.972942 
L 116.1198 597.972942 
L 114.01445 597.972942 
L 111.9091 597.972942 
L 109.80375 597.972942 
L 107.6984 597.972942 
L 105.59305 597.972942 
L 103.4877 597.972942 
L 101.38235 597.972942 
L 99.277 597.972942 
L 97.17165 597.972942 
L 95.0663 597.972942 
L 92.96095 597.972942 
L 90.8556 597.972942 
L 88.75025 597.972942 
L 86.6449 597.972942 
L 84.53955 597.972942 
L 82.4342 597.972942 
L 80.32885 597.972942 
L 78.2235 597.972942 
L 76.11815 597.972942 
L 74.0128 597.972942 
L 71.90745 597.972942 
L 69.8021 597.972942 
L 67.69675 597.972942 
L 65.5914 597.972942 
L 63.48605 597.972942 
L 61.3807 597.972942 
L 59.27535 597.972942 
L 57.17 597.972942 
L 55.06465 597.972942 
L 52.9593 597.972942 
L 50.85395 597.972942 
L 48.7486 597.972942 
L 46.64325 597.972942 
L 44.5379 597.972942 
L 42.43255 597.972942 
L 40.3272 597.972942 
L 38.22185 597.972942 
L 36.1165 597.972942 
L 34.01115 597.972942 
L 31.9058 597.972942 
L 29.80045 597.972942 
L 27.6951 597.972942 
L 25.58975 597.972942 
L 23.4844 597.972942 
L 21.37905 597.972942 
L 19.2737 597.972942 
L 17.16835 597.972942 
L 15.063 597.972942 
z
" clip-path="url(#p34e99a9b0a)" style="fill: #0000ff; fill-opacity: 0.4; stroke: #0000ff; stroke-opacity: 0.4"/>
   </g>
   <g id="matplotlib.axis_5">
    <g id="xtick_13">
     <g id="line2d_30">
      <g>
       <use xlink:href="#mb3b7c323cf" x="57.17" y="606.04" style="stroke: #000000; stroke-width: 0.8"/>
      </g>
     </g>
     <g id="text_32">
      <!-- 20 -->
      <g transform="translate(50.8075 620.638437) scale(0.1 -0.1)">
       <use xlink:href="#DejaVuSans-32"/>
       <use xlink:href="#DejaVuSans-30" x="63.623047"/>
      </g>
     </g>
    </g>
    <g id="xtick_14">
     <g id="line2d_31">
      <g>
       <use xlink:href="#mb3b7c323cf" x="99.277" y="606.04" style="stroke: #000000; stroke-width: 0.8"/>
      </g>
     </g>
     <g id="text_33">
      <!-- 40 -->
      <g transform="translate(92.9145 620.638437) scale(0.1 -0.1)">
       <use xlink:href="#DejaVuSans-34"/>
       <use xlink:href="#DejaVuSans-30" x="63.623047"/>
      </g>
     </g>
    </g>
    <g id="xtick_15">
     <g id="line2d_32">
      <g>
       <use xlink:href="#mb3b7c323cf" x="141.384" y="606.04" style="stroke: #000000; stroke-width: 0.8"/>
      </g>
     </g>
     <g id="text_34">
      <!-- 60 -->
      <g transform="translate(135.0215 620.638437) scale(0.1 -0.1)">
       <use xlink:href="#DejaVuSans-36"/>
       <use xlink:href="#DejaVuSans-30" x="63.623047"/>
      </g>
     </g>
    </g>
    <g id="xtick_16">
     <g id="line2d_33">
      <g>
       <use xlink:href="#mb3b7c323cf" x="183.491" y="606.04" style="stroke: #000000; stroke-width: 0.8"/>
      </g>
     </g>
     <g id="text_35">
      <!-- 80 -->
      <g transform="translate(177.1285 620.638437) scale(0.1 -0.1)">
       <use xlink:href="#DejaVuSans-38"/>
       <use xlink:href="#DejaVuSans-30" x="63.623047"/>
      </g>
     </g>
    </g>
    <g id="xtick_17">
     <g id="line2d_34">
      <g>
       <use xlink:href="#mb3b7c323cf" x="225.598" y="606.04" style="stroke: #000000; stroke-width: 0.8"/>
      </g>
     </g>
     <g id="text_36">
      <!-- 100 -->
      <g transform="translate(216.05425 620.638437) scale(0.1 -0.1)">
       <use xlink:href="#DejaVuSans-31"/>
       <use xlink:href="#DejaVuSans-30" x="63.623047"/>
       <use xlink:href="#DejaVuSans-30" x="127.246094"/>
      </g>
     </g>
    </g>
    <g id="xtick_18">
     <g id="line2d_35">
      <g>
       <use xlink:href="#mb3b7c323cf" x="267.705" y="606.04" style="stroke: #000000; stroke-width: 0.8"/>
      </g>
     </g>
     <g id="text_37">
      <!-- 120 -->
      <g transform="translate(258.16125 620.638437) scale(0.1 -0.1)">
       <use xlink:href="#DejaVuSans-31"/>
       <use xlink:href="#DejaVuSans-32" x="63.623047"/>
       <use xlink:href="#DejaVuSans-30" x="127.246094"/>
      </g>
     </g>
    </g>
    <g id="text_38">
     <!-- Pixel Intensity -->
     <g transform="translate(127.525781 634.316562) scale(0.1 -0.1)">
      <defs>
       <path id="DejaVuSans-49" d="M 628 4666 
L 1259 4666 
L 1259 0 
L 628 0 
L 628 4666 
z
" transform="scale(0.015625)"/>
       <path id="DejaVuSans-74" d="M 1172 4494 
L 1172 3500 
L 2356 3500 
L 2356 3053 
L 1172 3053 
L 1172 1153 
Q 1172 725 1289 603 
Q 1406 481 1766 481 
L 2356 481 
L 2356 0 
L 1766 0 
Q 1100 0 847 248 
Q 594 497 594 1153 
L 594 3053 
L 172 3053 
L 172 3500 
L 594 3500 
L 594 4494 
L 1172 4494 
z
" transform="scale(0.015625)"/>
       <path id="DejaVuSans-73" d="M 2834 3397 
L 2834 2853 
Q 2591 2978 2328 3040 
Q 2066 3103 1784 3103 
Q 1356 3103 1142 2972 
Q 928 2841 928 2578 
Q 928 2378 1081 2264 
Q 1234 2150 1697 2047 
L 1894 2003 
Q 2506 1872 2764 1633 
Q 3022 1394 3022 966 
Q 3022 478 2636 193 
Q 2250 -91 1575 -91 
Q 1294 -91 989 -36 
Q 684 19 347 128 
L 347 722 
Q 666 556 975 473 
Q 1284 391 1588 391 
Q 1994 391 2212 530 
Q 2431 669 2431 922 
Q 2431 1156 2273 1281 
Q 2116 1406 1581 1522 
L 1381 1569 
Q 847 1681 609 1914 
Q 372 2147 372 2553 
Q 372 3047 722 3315 
Q 1072 3584 1716 3584 
Q 2034 3584 2315 3537 
Q 2597 3491 2834 3397 
z
" transform="scale(0.015625)"/>
      </defs>
      <use xlink:href="#DejaVuSans-50"/>
      <use xlink:href="#DejaVuSans-69" x="58.052734"/>
      <use xlink:href="#DejaVuSans-78" x="85.835938"/>
      <use xlink:href="#DejaVuSans-65" x="141.890625"/>
      <use xlink:href="#DejaVuSans-6c" x="203.414062"/>
      <use xlink:href="#DejaVuSans-20" x="231.197266"/>
      <use xlink:href="#DejaVuSans-49" x="262.984375"/>
      <use xlink:href="#DejaVuSans-6e" x="292.476562"/>
      <use xlink:href="#DejaVuSans-74" x="355.855469"/>
      <use xlink:href="#DejaVuSans-65" x="395.064453"/>
      <use xlink:href="#DejaVuSans-6e" x="456.587891"/>
      <use xlink:href="#DejaVuSans-73" x="519.966797"/>
      <use xlink:href="#DejaVuSans-69" x="572.066406"/>
      <use xlink:href="#DejaVuSans-74" x="599.849609"/>
      <use xlink:href="#DejaVuSans-79" x="639.058594"/>
     </g>
    </g>
   </g>
   <g id="matplotlib.axis_6">
    <g id="ytick_16">
     <g id="line2d_36">
      <g>
       <use xlink:href="#mf493d3d903" x="57.17" y="597.972942" style="stroke: #000000; stroke-width: 0.8"/>
      </g>
     </g>
     <g id="text_39">
      <!-- 0 -->
      <g transform="translate(43.8075 601.772161) scale(0.1 -0.1)">
       <use xlink:href="#DejaVuSans-30"/>
      </g>
     </g>
    </g>
    <g id="ytick_17">
     <g id="line2d_37">
      <g>
       <use xlink:href="#mf493d3d903" x="57.17" y="557.085674" style="stroke: #000000; stroke-width: 0.8"/>
      </g>
     </g>
     <g id="text_40">
      <!-- 500 -->
      <g transform="translate(31.0825 560.884893) scale(0.1 -0.1)">
       <defs>
        <path id="DejaVuSans-35" d="M 691 4666 
L 3169 4666 
L 3169 4134 
L 1269 4134 
L 1269 2991 
Q 1406 3038 1543 3061 
Q 1681 3084 1819 3084 
Q 2600 3084 3056 2656 
Q 3513 2228 3513 1497 
Q 3513 744 3044 326 
Q 2575 -91 1722 -91 
Q 1428 -91 1123 -41 
Q 819 9 494 109 
L 494 744 
Q 775 591 1075 516 
Q 1375 441 1709 441 
Q 2250 441 2565 725 
Q 2881 1009 2881 1497 
Q 2881 1984 2565 2268 
Q 2250 2553 1709 2553 
Q 1456 2553 1204 2497 
Q 953 2441 691 2322 
L 691 4666 
z
" transform="scale(0.015625)"/>
       </defs>
       <use xlink:href="#DejaVuSans-35"/>
       <use xlink:href="#DejaVuSans-30" x="63.623047"/>
       <use xlink:href="#DejaVuSans-30" x="127.246094"/>
      </g>
     </g>
    </g>
    <g id="ytick_18">
     <g id="line2d_38">
      <g>
       <use xlink:href="#mf493d3d903" x="57.17" y="516.198406" style="stroke: #000000; stroke-width: 0.8"/>
      </g>
     </g>
     <g id="text_41">
      <!-- 1000 -->
      <g transform="translate(24.72 519.997625) scale(0.1 -0.1)">
       <use xlink:href="#DejaVuSans-31"/>
       <use xlink:href="#DejaVuSans-30" x="63.623047"/>
       <use xlink:href="#DejaVuSans-30" x="127.246094"/>
       <use xlink:href="#DejaVuSans-30" x="190.869141"/>
      </g>
     </g>
    </g>
    <g id="ytick_19">
     <g id="line2d_39">
      <g>
       <use xlink:href="#mf493d3d903" x="57.17" y="475.311138" style="stroke: #000000; stroke-width: 0.8"/>
      </g>
     </g>
     <g id="text_42">
      <!-- 1500 -->
      <g transform="translate(24.72 479.110357) scale(0.1 -0.1)">
       <use xlink:href="#DejaVuSans-31"/>
       <use xlink:href="#DejaVuSans-35" x="63.623047"/>
       <use xlink:href="#DejaVuSans-30" x="127.246094"/>
       <use xlink:href="#DejaVuSans-30" x="190.869141"/>
      </g>
     </g>
    </g>
    <g id="ytick_20">
     <g id="line2d_40">
      <g>
       <use xlink:href="#mf493d3d903" x="57.17" y="434.42387" style="stroke: #000000; stroke-width: 0.8"/>
      </g>
     </g>
     <g id="text_43">
      <!-- 2000 -->
      <g transform="translate(24.72 438.223089) scale(0.1 -0.1)">
       <use xlink:href="#DejaVuSans-32"/>
       <use xlink:href="#DejaVuSans-30" x="63.623047"/>
       <use xlink:href="#DejaVuSans-30" x="127.246094"/>
       <use xlink:href="#DejaVuSans-30" x="190.869141"/>
      </g>
     </g>
    </g>
    <g id="text_44">
     <!-- Pixel Frequency -->
     <g transform="translate(18.640313 556.281268) rotate(-90) scale(0.1 -0.1)">
      <use xlink:href="#DejaVuSans-50"/>
      <use xlink:href="#DejaVuSans-69" x="58.052734"/>
      <use xlink:href="#DejaVuSans-78" x="85.835938"/>
      <use xlink:href="#DejaVuSans-65" x="141.890625"/>
      <use xlink:href="#DejaVuSans-6c" x="203.414062"/>
      <use xlink:href="#DejaVuSans-20" x="231.197266"/>
      <use xlink:href="#DejaVuSans-46" x="262.984375"/>
      <use xlink:href="#DejaVuSans-72" x="313.253906"/>
      <use xlink:href="#DejaVuSans-65" x="352.117188"/>
      <use xlink:href="#DejaVuSans-71" x="413.640625"/>
      <use xlink:href="#DejaVuSans-75" x="477.117188"/>
      <use xlink:href="#DejaVuSans-65" x="540.496094"/>
      <use xlink:href="#DejaVuSans-6e" x="602.019531"/>
      <use xlink:href="#DejaVuSans-63" x="665.398438"/>
      <use xlink:href="#DejaVuSans-79" x="720.378906"/>
     </g>
    </g>
   </g>
   <g id="line2d_41">
    <path d="M 15.063 597.972942 
L 48.7486 597.972942 
L 50.85395 597.809393 
L 52.9593 597.809393 
L 55.06465 597.972942 
L 57.17 597.891167 
L 59.27535 597.073422 
L 63.48605 595.846804 
L 65.5914 592.902921 
L 67.69675 591.594528 
L 69.8021 587.914674 
L 71.90745 582.108682 
L 74.0128 573.113483 
L 76.11815 554.795987 
L 80.32885 510.883061 
L 82.4342 485.205857 
L 84.53955 469.423371 
L 86.6449 448.325541 
L 88.75025 438.349048 
L 90.8556 436.631782 
L 92.96095 449.225061 
L 95.0663 458.302035 
L 97.17165 469.75047 
L 99.277 477.600825 
L 101.38235 493.219761 
L 103.4877 494.119281 
L 105.59305 506.876109 
L 107.6984 508.920472 
L 109.80375 513.090974 
L 111.9091 514.562915 
L 114.01445 519.305838 
L 116.1198 524.948281 
L 118.22515 528.219263 
L 120.3305 530.672499 
L 122.43585 530.345401 
L 124.5412 532.144441 
L 126.64655 534.270578 
L 128.7519 545.064817 
L 130.85725 544.901268 
L 132.9626 544.492395 
L 135.06795 549.725966 
L 137.1733 554.30534 
L 139.27865 554.550663 
L 141.384 556.84035 
L 143.48935 557.658096 
L 145.5947 561.419724 
L 147.70005 563.13699 
L 149.8054 565.672 
L 151.91075 567.798138 
L 154.0161 566.326197 
L 156.12145 570.1696 
L 158.2268 569.515403 
L 160.33215 570.823796 
L 162.4375 570.823796 
L 164.54285 574.830748 
L 166.6482 575.484945 
L 168.75355 577.20221 
L 170.8589 576.629788 
L 172.96425 575.566719 
L 175.0696 578.019955 
L 177.17495 576.466239 
L 179.2803 577.774632 
L 181.38565 579.491897 
L 183.491 582.026907 
L 185.59635 580.554966 
L 189.80705 582.926427 
L 191.9124 581.53626 
L 194.01775 580.963839 
L 196.1231 580.963839 
L 198.22845 581.209162 
L 200.3338 583.417075 
L 202.43915 582.517555 
L 204.5445 583.253526 
L 206.64985 583.171751 
L 208.7552 584.398369 
L 210.86055 584.643693 
L 212.9659 583.171751 
L 217.1766 585.13434 
L 219.28195 586.279183 
L 221.3873 585.952085 
L 223.49265 587.751125 
L 225.598 587.178703 
L 227.70335 587.260478 
L 229.8087 588.405321 
L 231.91405 588.56887 
L 234.0194 589.713714 
L 236.12475 589.141292 
L 238.2301 588.895969 
L 240.33545 590.040812 
L 242.4408 589.059518 
L 244.54615 588.487096 
L 246.6515 589.304841 
L 248.75685 589.386616 
L 250.8622 589.141292 
L 257.17825 590.858557 
L 261.38895 589.795488 
L 263.4943 591.430979 
L 265.59965 591.185656 
L 267.705 591.185656 
L 269.81035 590.449685 
L 271.9157 591.921626 
L 274.02105 591.839852 
L 276.1264 590.940332 
L 278.23175 591.839852 
L 280.3371 591.594528 
L 282.44245 590.858557 
L 284.5478 590.36791 
L 286.65315 591.430979 
L 289 592.169597 
L 289 592.169597 
" clip-path="url(#p34e99a9b0a)" style="fill: none; stroke: #0000ff; stroke-width: 1.5; stroke-linecap: square"/>
   </g>
   <g id="patch_13">
    <path d="M 57.17 606.04 
L 57.17 428.564724 
" style="fill: none; stroke: #000000; stroke-width: 0.8; stroke-linejoin: miter; stroke-linecap: square"/>
   </g>
   <g id="patch_14">
    <path d="M 267.705 606.04 
L 267.705 428.564724 
" style="fill: none; stroke: #000000; stroke-width: 0.8; stroke-linejoin: miter; stroke-linecap: square"/>
   </g>
   <g id="patch_15">
    <path d="M 57.17 606.04 
L 267.705 606.04 
" style="fill: none; stroke: #000000; stroke-width: 0.8; stroke-linejoin: miter; stroke-linecap: square"/>
   </g>
   <g id="patch_16">
    <path d="M 57.17 428.564724 
L 267.705 428.564724 
" style="fill: none; stroke: #000000; stroke-width: 0.8; stroke-linejoin: miter; stroke-linecap: square"/>
   </g>
   <g id="text_45">
    <!-- Blue Channel  -->
    <g transform="translate(184.25625 442.564724) scale(0.12 -0.12)">
     <defs>
      <path id="DejaVuSans-42" d="M 1259 2228 
L 1259 519 
L 2272 519 
Q 2781 519 3026 730 
Q 3272 941 3272 1375 
Q 3272 1813 3026 2020 
Q 2781 2228 2272 2228 
L 1259 2228 
z
M 1259 4147 
L 1259 2741 
L 2194 2741 
Q 2656 2741 2882 2914 
Q 3109 3088 3109 3444 
Q 3109 3797 2882 3972 
Q 2656 4147 2194 4147 
L 1259 4147 
z
M 628 4666 
L 2241 4666 
Q 2963 4666 3353 4366 
Q 3744 4066 3744 3513 
Q 3744 3084 3544 2831 
Q 3344 2578 2956 2516 
Q 3422 2416 3680 2098 
Q 3938 1781 3938 1306 
Q 3938 681 3513 340 
Q 3088 0 2303 0 
L 628 0 
L 628 4666 
z
" transform="scale(0.015625)"/>
     </defs>
     <use xlink:href="#DejaVuSans-42"/>
     <use xlink:href="#DejaVuSans-6c" x="68.603516"/>
     <use xlink:href="#DejaVuSans-75" x="96.386719"/>
     <use xlink:href="#DejaVuSans-65" x="159.765625"/>
     <use xlink:href="#DejaVuSans-20" x="221.289062"/>
     <use xlink:href="#DejaVuSans-43" x="253.076172"/>
     <use xlink:href="#DejaVuSans-68" x="322.900391"/>
     <use xlink:href="#DejaVuSans-61" x="386.279297"/>
     <use xlink:href="#DejaVuSans-6e" x="447.558594"/>
     <use xlink:href="#DejaVuSans-6e" x="510.9375"/>
     <use xlink:href="#DejaVuSans-65" x="574.316406"/>
     <use xlink:href="#DejaVuSans-6c" x="635.839844"/>
     <use xlink:href="#DejaVuSans-20" x="663.623047"/>
    </g>
   </g>
  </g>
 </g>
 <defs>
  <clipPath id="p6d1bd7b50a">
   <rect x="57.17" y="10.8" width="210.535" height="177.475276"/>
  </clipPath>
  <clipPath id="p1ef73eab2e">
   <rect x="57.17" y="219.682362" width="210.535" height="177.475276"/>
  </clipPath>
  <clipPath id="p34e99a9b0a">
   <rect x="57.17" y="428.564724" width="210.535" height="177.475276"/>
  </clipPath>
 </defs>
</svg>
