<?xml version="1.0" encoding="utf-8" standalone="no"?>
<!DOCTYPE svg PUBLIC "-//W3C//DTD SVG 1.1//EN"
  "http://www.w3.org/Graphics/SVG/1.1/DTD/svg11.dtd">
<svg xmlns:xlink="http://www.w3.org/1999/xlink" width="288pt" height="648pt" viewBox="0 0 288 648" xmlns="http://www.w3.org/2000/svg" version="1.1">
 <metadata>
  <rdf:RDF xmlns:dc="http://purl.org/dc/elements/1.1/" xmlns:cc="http://creativecommons.org/ns#" xmlns:rdf="http://www.w3.org/1999/02/22-rdf-syntax-ns#">
   <cc:Work>
    <dc:type rdf:resource="http://purl.org/dc/dcmitype/StillImage"/>
    <dc:date>2023-11-04T12:53:30.174625</dc:date>
    <dc:format>image/svg+xml</dc:format>
    <dc:creator>
     <cc:Agent>
      <dc:title>Matplotlib v3.8.0, https://matplotlib.org/</dc:title>
     </cc:Agent>
    </dc:creator>
   </cc:Work>
  </rdf:RDF>
 </metadata>
 <defs>
  <style type="text/css">*{stroke-linejoin: round; stroke-linecap: butt}</style>
 </defs>
 <g id="figure_1">
  <g id="patch_1">
   <path d="M 0 648 
L 288 648 
L 288 0 
L 0 0 
z
" style="fill: #ffffff"/>
  </g>
  <g id="axes_1">
   <g id="patch_2">
    <path d="M 57.17 192.751223 
L 267.705 192.751223 
L 267.705 13.986834 
L 57.17 13.986834 
z
" style="fill: #ffffff"/>
   </g>
   <g id="PolyCollection_1">
    <path d="M 15.063 184.625569 
L 15.063 184.625569 
L 17.16835 184.625569 
L 19.2737 184.625569 
L 21.37905 184.625569 
L 23.4844 184.625569 
L 25.58975 184.625569 
L 27.6951 184.625569 
L 29.80045 184.625569 
L 31.9058 184.625569 
L 34.01115 184.625569 
L 36.1165 184.625569 
L 38.22185 184.625569 
L 40.3272 184.625569 
L 42.43255 184.625569 
L 44.5379 184.625569 
L 46.64325 184.625569 
L 48.7486 184.625569 
L 50.85395 184.625569 
L 52.9593 184.625569 
L 55.06465 184.625569 
L 57.17 184.625569 
L 59.27535 184.625569 
L 61.3807 184.625569 
L 63.48605 184.625569 
L 65.5914 184.625569 
L 67.69675 184.625569 
L 69.8021 184.625569 
L 71.90745 184.625569 
L 74.0128 184.625569 
L 76.11815 184.625569 
L 78.2235 184.625569 
L 80.32885 184.625569 
L 82.4342 184.625569 
L 84.53955 184.625569 
L 86.6449 184.625569 
L 88.75025 184.455872 
L 90.8556 184.512437 
L 92.96095 184.229609 
L 95.0663 184.229609 
L 97.17165 183.777084 
L 99.277 182.815468 
L 101.38235 182.476074 
L 103.4877 180.72254 
L 105.59305 179.930621 
L 107.6984 174.500319 
L 109.80375 162.847798 
L 111.9091 157.021537 
L 114.01445 151.704367 
L 116.1198 143.954874 
L 118.22515 133.094272 
L 120.3305 121.837709 
L 122.43585 103.397311 
L 124.5412 69.967019 
L 126.64655 39.478139 
L 128.7519 22.112488 
L 130.85725 33.878141 
L 132.9626 43.550865 
L 135.06795 58.371063 
L 137.1733 71.550856 
L 139.27865 89.878123 
L 141.384 98.249838 
L 143.48935 108.657916 
L 145.5947 116.181146 
L 147.70005 126.080132 
L 149.8054 129.813465 
L 151.91075 132.698312 
L 154.0161 135.696291 
L 156.12145 140.843764 
L 158.2268 138.128613 
L 160.33215 142.71043 
L 162.4375 144.859924 
L 164.54285 145.425581 
L 166.6482 145.934672 
L 168.75355 145.199318 
L 170.8589 147.801338 
L 172.96425 150.063963 
L 175.0696 150.855882 
L 177.17495 152.552851 
L 179.2803 152.779114 
L 181.38565 156.512446 
L 183.491 156.003355 
L 185.59635 159.623556 
L 187.7017 159.736688 
L 189.80705 160.132647 
L 191.9124 162.395273 
L 194.01775 162.451838 
L 196.1231 163.922545 
L 198.22845 162.847798 
L 200.3338 167.599311 
L 202.43915 166.920524 
L 204.5445 168.278099 
L 206.64985 168.334665 
L 208.7552 170.031634 
L 210.86055 172.181128 
L 212.9659 171.954866 
L 215.07125 172.124562 
L 217.1766 172.181128 
L 219.28195 173.7084 
L 221.3873 172.859916 
L 223.49265 174.556885 
L 225.598 172.407391 
L 227.70335 173.142744 
L 229.8087 173.651835 
L 231.91405 175.292238 
L 234.0194 173.878097 
L 236.12475 174.726582 
L 238.2301 175.179107 
L 240.33545 174.387188 
L 242.4408 175.631632 
L 244.54615 175.518501 
L 246.6515 175.857895 
L 248.75685 178.346783 
L 250.8622 179.02557 
L 252.96755 178.459914 
L 255.0729 180.948802 
L 257.17825 181.175065 
L 259.2836 182.476074 
L 261.38895 182.476074 
L 263.4943 182.476074 
L 265.59965 182.193246 
L 267.705 182.815468 
L 269.81035 183.154862 
L 271.9157 183.890215 
L 274.02105 183.267993 
L 276.1264 183.324559 
L 278.23175 183.777084 
L 280.3371 183.946781 
L 282.44245 183.946781 
L 284.5478 184.399306 
L 286.65315 183.946781 
L 288.7585 184.116478 
L 290.86385 184.116478 
L 292.9692 184.34274 
L 295.07455 184.286175 
L 297.1799 184.34274 
L 299.28525 184.286175 
L 301.3906 184.34274 
L 303.49595 184.512437 
L 305.6013 184.34274 
L 307.70665 184.116478 
L 309.812 184.455872 
L 311.91735 184.625569 
L 314.0227 184.173044 
L 316.12805 184.399306 
L 318.2334 184.569003 
L 320.33875 184.512437 
L 322.4441 184.399306 
L 324.54945 184.569003 
L 326.6548 184.569003 
L 328.76015 184.569003 
L 330.8655 184.569003 
L 332.97085 184.399306 
L 335.0762 184.625569 
L 337.18155 184.512437 
L 339.2869 184.569003 
L 341.39225 184.569003 
L 343.4976 184.625569 
L 345.60295 184.569003 
L 347.7083 184.569003 
L 349.81365 184.569003 
L 351.919 184.569003 
L 354.02435 184.625569 
L 356.1297 184.569003 
L 358.23505 184.625569 
L 360.3404 184.625569 
L 362.44575 184.569003 
L 364.5511 184.625569 
L 366.65645 184.625569 
L 368.7618 184.625569 
L 370.86715 184.625569 
L 372.9725 184.625569 
L 375.07785 184.625569 
L 377.1832 184.625569 
L 379.28855 184.625569 
L 381.3939 184.625569 
L 383.49925 184.625569 
L 385.6046 184.625569 
L 387.70995 184.625569 
L 389.8153 184.625569 
L 391.92065 184.625569 
L 394.026 184.625569 
L 396.13135 184.625569 
L 398.2367 184.625569 
L 400.34205 184.625569 
L 402.4474 184.625569 
L 404.55275 184.625569 
L 406.6581 184.625569 
L 408.76345 184.625569 
L 410.8688 184.625569 
L 412.97415 184.625569 
L 415.0795 184.625569 
L 417.18485 184.625569 
L 419.2902 184.625569 
L 421.39555 184.625569 
L 423.5009 184.625569 
L 425.60625 184.625569 
L 427.7116 184.625569 
L 429.81695 184.625569 
L 431.9223 184.625569 
L 434.02765 184.625569 
L 436.133 184.625569 
L 438.23835 184.625569 
L 440.3437 184.625569 
L 442.44905 184.625569 
L 444.5544 184.625569 
L 446.65975 184.625569 
L 448.7651 184.625569 
L 450.87045 184.625569 
L 452.9758 184.625569 
L 455.08115 184.625569 
L 457.1865 184.625569 
L 459.29185 184.625569 
L 461.3972 184.625569 
L 463.50255 184.625569 
L 465.6079 184.625569 
L 467.71325 184.625569 
L 469.8186 184.625569 
L 471.92395 184.625569 
L 474.0293 184.625569 
L 476.13465 184.625569 
L 478.24 184.625569 
L 480.34535 184.625569 
L 482.4507 184.625569 
L 484.55605 184.625569 
L 486.6614 184.625569 
L 488.76675 184.625569 
L 490.8721 184.625569 
L 492.97745 184.625569 
L 495.0828 184.625569 
L 497.18815 184.625569 
L 499.2935 184.625569 
L 501.39885 184.625569 
L 503.5042 184.625569 
L 505.60955 184.625569 
L 507.7149 184.625569 
L 509.82025 184.625569 
L 511.9256 184.625569 
L 514.03095 184.625569 
L 516.1363 184.625569 
L 518.24165 184.625569 
L 520.347 184.625569 
L 522.45235 184.625569 
L 524.5577 184.625569 
L 526.66305 184.625569 
L 528.7684 184.625569 
L 530.87375 184.625569 
L 532.9791 184.625569 
L 535.08445 184.625569 
L 537.1898 184.625569 
L 539.29515 184.625569 
L 541.4005 184.625569 
L 543.50585 184.625569 
L 545.6112 184.625569 
L 547.71655 184.625569 
L 549.8219 184.625569 
L 551.92725 184.625569 
L 551.92725 184.625569 
L 551.92725 184.625569 
L 549.8219 184.625569 
L 547.71655 184.625569 
L 545.6112 184.625569 
L 543.50585 184.625569 
L 541.4005 184.625569 
L 539.29515 184.625569 
L 537.1898 184.625569 
L 535.08445 184.625569 
L 532.9791 184.625569 
L 530.87375 184.625569 
L 528.7684 184.625569 
L 526.66305 184.625569 
L 524.5577 184.625569 
L 522.45235 184.625569 
L 520.347 184.625569 
L 518.24165 184.625569 
L 516.1363 184.625569 
L 514.03095 184.625569 
L 511.9256 184.625569 
L 509.82025 184.625569 
L 507.7149 184.625569 
L 505.60955 184.625569 
L 503.5042 184.625569 
L 501.39885 184.625569 
L 499.2935 184.625569 
L 497.18815 184.625569 
L 495.0828 184.625569 
L 492.97745 184.625569 
L 490.8721 184.625569 
L 488.76675 184.625569 
L 486.6614 184.625569 
L 484.55605 184.625569 
L 482.4507 184.625569 
L 480.34535 184.625569 
L 478.24 184.625569 
L 476.13465 184.625569 
L 474.0293 184.625569 
L 471.92395 184.625569 
L 469.8186 184.625569 
L 467.71325 184.625569 
L 465.6079 184.625569 
L 463.50255 184.625569 
L 461.3972 184.625569 
L 459.29185 184.625569 
L 457.1865 184.625569 
L 455.08115 184.625569 
L 452.9758 184.625569 
L 450.87045 184.625569 
L 448.7651 184.625569 
L 446.65975 184.625569 
L 444.5544 184.625569 
L 442.44905 184.625569 
L 440.3437 184.625569 
L 438.23835 184.625569 
L 436.133 184.625569 
L 434.02765 184.625569 
L 431.9223 184.625569 
L 429.81695 184.625569 
L 427.7116 184.625569 
L 425.60625 184.625569 
L 423.5009 184.625569 
L 421.39555 184.625569 
L 419.2902 184.625569 
L 417.18485 184.625569 
L 415.0795 184.625569 
L 412.97415 184.625569 
L 410.8688 184.625569 
L 408.76345 184.625569 
L 406.6581 184.625569 
L 404.55275 184.625569 
L 402.4474 184.625569 
L 400.34205 184.625569 
L 398.2367 184.625569 
L 396.13135 184.625569 
L 394.026 184.625569 
L 391.92065 184.625569 
L 389.8153 184.625569 
L 387.70995 184.625569 
L 385.6046 184.625569 
L 383.49925 184.625569 
L 381.3939 184.625569 
L 379.28855 184.625569 
L 377.1832 184.625569 
L 375.07785 184.625569 
L 372.9725 184.625569 
L 370.86715 184.625569 
L 368.7618 184.625569 
L 366.65645 184.625569 
L 364.5511 184.625569 
L 362.44575 184.625569 
L 360.3404 184.625569 
L 358.23505 184.625569 
L 356.1297 184.625569 
L 354.02435 184.625569 
L 351.919 184.625569 
L 349.81365 184.625569 
L 347.7083 184.625569 
L 345.60295 184.625569 
L 343.4976 184.625569 
L 341.39225 184.625569 
L 339.2869 184.625569 
L 337.18155 184.625569 
L 335.0762 184.625569 
L 332.97085 184.625569 
L 330.8655 184.625569 
L 328.76015 184.625569 
L 326.6548 184.625569 
L 324.54945 184.625569 
L 322.4441 184.625569 
L 320.33875 184.625569 
L 318.2334 184.625569 
L 316.12805 184.625569 
L 314.0227 184.625569 
L 311.91735 184.625569 
L 309.812 184.625569 
L 307.70665 184.625569 
L 305.6013 184.625569 
L 303.49595 184.625569 
L 301.3906 184.625569 
L 299.28525 184.625569 
L 297.1799 184.625569 
L 295.07455 184.625569 
L 292.9692 184.625569 
L 290.86385 184.625569 
L 288.7585 184.625569 
L 286.65315 184.625569 
L 284.5478 184.625569 
L 282.44245 184.625569 
L 280.3371 184.625569 
L 278.23175 184.625569 
L 276.1264 184.625569 
L 274.02105 184.625569 
L 271.9157 184.625569 
L 269.81035 184.625569 
L 267.705 184.625569 
L 265.59965 184.625569 
L 263.4943 184.625569 
L 261.38895 184.625569 
L 259.2836 184.625569 
L 257.17825 184.625569 
L 255.0729 184.625569 
L 252.96755 184.625569 
L 250.8622 184.625569 
L 248.75685 184.625569 
L 246.6515 184.625569 
L 244.54615 184.625569 
L 242.4408 184.625569 
L 240.33545 184.625569 
L 238.2301 184.625569 
L 236.12475 184.625569 
L 234.0194 184.625569 
L 231.91405 184.625569 
L 229.8087 184.625569 
L 227.70335 184.625569 
L 225.598 184.625569 
L 223.49265 184.625569 
L 221.3873 184.625569 
L 219.28195 184.625569 
L 217.1766 184.625569 
L 215.07125 184.625569 
L 212.9659 184.625569 
L 210.86055 184.625569 
L 208.7552 184.625569 
L 206.64985 184.625569 
L 204.5445 184.625569 
L 202.43915 184.625569 
L 200.3338 184.625569 
L 198.22845 184.625569 
L 196.1231 184.625569 
L 194.01775 184.625569 
L 191.9124 184.625569 
L 189.80705 184.625569 
L 187.7017 184.625569 
L 185.59635 184.625569 
L 183.491 184.625569 
L 181.38565 184.625569 
L 179.2803 184.625569 
L 177.17495 184.625569 
L 175.0696 184.625569 
L 172.96425 184.625569 
L 170.8589 184.625569 
L 168.75355 184.625569 
L 166.6482 184.625569 
L 164.54285 184.625569 
L 162.4375 184.625569 
L 160.33215 184.625569 
L 158.2268 184.625569 
L 156.12145 184.625569 
L 154.0161 184.625569 
L 151.91075 184.625569 
L 149.8054 184.625569 
L 147.70005 184.625569 
L 145.5947 184.625569 
L 143.48935 184.625569 
L 141.384 184.625569 
L 139.27865 184.625569 
L 137.1733 184.625569 
L 135.06795 184.625569 
L 132.9626 184.625569 
L 130.85725 184.625569 
L 128.7519 184.625569 
L 126.64655 184.625569 
L 124.5412 184.625569 
L 122.43585 184.625569 
L 120.3305 184.625569 
L 118.22515 184.625569 
L 116.1198 184.625569 
L 114.01445 184.625569 
L 111.9091 184.625569 
L 109.80375 184.625569 
L 107.6984 184.625569 
L 105.59305 184.625569 
L 103.4877 184.625569 
L 101.38235 184.625569 
L 99.277 184.625569 
L 97.17165 184.625569 
L 95.0663 184.625569 
L 92.96095 184.625569 
L 90.8556 184.625569 
L 88.75025 184.625569 
L 86.6449 184.625569 
L 84.53955 184.625569 
L 82.4342 184.625569 
L 80.32885 184.625569 
L 78.2235 184.625569 
L 76.11815 184.625569 
L 74.0128 184.625569 
L 71.90745 184.625569 
L 69.8021 184.625569 
L 67.69675 184.625569 
L 65.5914 184.625569 
L 63.48605 184.625569 
L 61.3807 184.625569 
L 59.27535 184.625569 
L 57.17 184.625569 
L 55.06465 184.625569 
L 52.9593 184.625569 
L 50.85395 184.625569 
L 48.7486 184.625569 
L 46.64325 184.625569 
L 44.5379 184.625569 
L 42.43255 184.625569 
L 40.3272 184.625569 
L 38.22185 184.625569 
L 36.1165 184.625569 
L 34.01115 184.625569 
L 31.9058 184.625569 
L 29.80045 184.625569 
L 27.6951 184.625569 
L 25.58975 184.625569 
L 23.4844 184.625569 
L 21.37905 184.625569 
L 19.2737 184.625569 
L 17.16835 184.625569 
L 15.063 184.625569 
z
" clip-path="url(#pafdbc590d8)" style="fill: #ff0000; fill-opacity: 0.4; stroke: #ff0000; stroke-opacity: 0.4"/>
   </g>
   <g id="matplotlib.axis_1">
    <g id="xtick_1">
     <g id="line2d_1">
      <defs>
       <path id="ma2452c0c93" d="M 0 0 
L 0 3.5 
" style="stroke: #000000; stroke-width: 0.8"/>
      </defs>
      <g>
       <use xlink:href="#ma2452c0c93" x="57.17" y="192.751223" style="stroke: #000000; stroke-width: 0.8"/>
      </g>
     </g>
     <g id="text_1">
      <!-- 20 -->
      <g transform="translate(50.8075 207.34966) scale(0.1 -0.1)">
       <defs>
        <path id="DejaVuSans-32" d="M 1228 531 
L 3431 531 
L 3431 0 
L 469 0 
L 469 531 
Q 828 903 1448 1529 
Q 2069 2156 2228 2338 
Q 2531 2678 2651 2914 
Q 2772 3150 2772 3378 
Q 2772 3750 2511 3984 
Q 2250 4219 1831 4219 
Q 1534 4219 1204 4116 
Q 875 4013 500 3803 
L 500 4441 
Q 881 4594 1212 4672 
Q 1544 4750 1819 4750 
Q 2544 4750 2975 4387 
Q 3406 4025 3406 3419 
Q 3406 3131 3298 2873 
Q 3191 2616 2906 2266 
Q 2828 2175 2409 1742 
Q 1991 1309 1228 531 
z
" transform="scale(0.015625)"/>
        <path id="DejaVuSans-30" d="M 2034 4250 
Q 1547 4250 1301 3770 
Q 1056 3291 1056 2328 
Q 1056 1369 1301 889 
Q 1547 409 2034 409 
Q 2525 409 2770 889 
Q 3016 1369 3016 2328 
Q 3016 3291 2770 3770 
Q 2525 4250 2034 4250 
z
M 2034 4750 
Q 2819 4750 3233 4129 
Q 3647 3509 3647 2328 
Q 3647 1150 3233 529 
Q 2819 -91 2034 -91 
Q 1250 -91 836 529 
Q 422 1150 422 2328 
Q 422 3509 836 4129 
Q 1250 4750 2034 4750 
z
" transform="scale(0.015625)"/>
       </defs>
       <use xlink:href="#DejaVuSans-32"/>
       <use xlink:href="#DejaVuSans-30" x="63.623047"/>
      </g>
     </g>
    </g>
    <g id="xtick_2">
     <g id="line2d_2">
      <g>
       <use xlink:href="#ma2452c0c93" x="99.277" y="192.751223" style="stroke: #000000; stroke-width: 0.8"/>
      </g>
     </g>
     <g id="text_2">
      <!-- 40 -->
      <g transform="translate(92.9145 207.34966) scale(0.1 -0.1)">
       <defs>
        <path id="DejaVuSans-34" d="M 2419 4116 
L 825 1625 
L 2419 1625 
L 2419 4116 
z
M 2253 4666 
L 3047 4666 
L 3047 1625 
L 3713 1625 
L 3713 1100 
L 3047 1100 
L 3047 0 
L 2419 0 
L 2419 1100 
L 313 1100 
L 313 1709 
L 2253 4666 
z
" transform="scale(0.015625)"/>
       </defs>
       <use xlink:href="#DejaVuSans-34"/>
       <use xlink:href="#DejaVuSans-30" x="63.623047"/>
      </g>
     </g>
    </g>
    <g id="xtick_3">
     <g id="line2d_3">
      <g>
       <use xlink:href="#ma2452c0c93" x="141.384" y="192.751223" style="stroke: #000000; stroke-width: 0.8"/>
      </g>
     </g>
     <g id="text_3">
      <!-- 60 -->
      <g transform="translate(135.0215 207.34966) scale(0.1 -0.1)">
       <defs>
        <path id="DejaVuSans-36" d="M 2113 2584 
Q 1688 2584 1439 2293 
Q 1191 2003 1191 1497 
Q 1191 994 1439 701 
Q 1688 409 2113 409 
Q 2538 409 2786 701 
Q 3034 994 3034 1497 
Q 3034 2003 2786 2293 
Q 2538 2584 2113 2584 
z
M 3366 4563 
L 3366 3988 
Q 3128 4100 2886 4159 
Q 2644 4219 2406 4219 
Q 1781 4219 1451 3797 
Q 1122 3375 1075 2522 
Q 1259 2794 1537 2939 
Q 1816 3084 2150 3084 
Q 2853 3084 3261 2657 
Q 3669 2231 3669 1497 
Q 3669 778 3244 343 
Q 2819 -91 2113 -91 
Q 1303 -91 875 529 
Q 447 1150 447 2328 
Q 447 3434 972 4092 
Q 1497 4750 2381 4750 
Q 2619 4750 2861 4703 
Q 3103 4656 3366 4563 
z
" transform="scale(0.015625)"/>
       </defs>
       <use xlink:href="#DejaVuSans-36"/>
       <use xlink:href="#DejaVuSans-30" x="63.623047"/>
      </g>
     </g>
    </g>
    <g id="xtick_4">
     <g id="line2d_4">
      <g>
       <use xlink:href="#ma2452c0c93" x="183.491" y="192.751223" style="stroke: #000000; stroke-width: 0.8"/>
      </g>
     </g>
     <g id="text_4">
      <!-- 80 -->
      <g transform="translate(177.1285 207.34966) scale(0.1 -0.1)">
       <defs>
        <path id="DejaVuSans-38" d="M 2034 2216 
Q 1584 2216 1326 1975 
Q 1069 1734 1069 1313 
Q 1069 891 1326 650 
Q 1584 409 2034 409 
Q 2484 409 2743 651 
Q 3003 894 3003 1313 
Q 3003 1734 2745 1975 
Q 2488 2216 2034 2216 
z
M 1403 2484 
Q 997 2584 770 2862 
Q 544 3141 544 3541 
Q 544 4100 942 4425 
Q 1341 4750 2034 4750 
Q 2731 4750 3128 4425 
Q 3525 4100 3525 3541 
Q 3525 3141 3298 2862 
Q 3072 2584 2669 2484 
Q 3125 2378 3379 2068 
Q 3634 1759 3634 1313 
Q 3634 634 3220 271 
Q 2806 -91 2034 -91 
Q 1263 -91 848 271 
Q 434 634 434 1313 
Q 434 1759 690 2068 
Q 947 2378 1403 2484 
z
M 1172 3481 
Q 1172 3119 1398 2916 
Q 1625 2713 2034 2713 
Q 2441 2713 2670 2916 
Q 2900 3119 2900 3481 
Q 2900 3844 2670 4047 
Q 2441 4250 2034 4250 
Q 1625 4250 1398 4047 
Q 1172 3844 1172 3481 
z
" transform="scale(0.015625)"/>
       </defs>
       <use xlink:href="#DejaVuSans-38"/>
       <use xlink:href="#DejaVuSans-30" x="63.623047"/>
      </g>
     </g>
    </g>
    <g id="xtick_5">
     <g id="line2d_5">
      <g>
       <use xlink:href="#ma2452c0c93" x="225.598" y="192.751223" style="stroke: #000000; stroke-width: 0.8"/>
      </g>
     </g>
     <g id="text_5">
      <!-- 100 -->
      <g transform="translate(216.05425 207.34966) scale(0.1 -0.1)">
       <defs>
        <path id="DejaVuSans-31" d="M 794 531 
L 1825 531 
L 1825 4091 
L 703 3866 
L 703 4441 
L 1819 4666 
L 2450 4666 
L 2450 531 
L 3481 531 
L 3481 0 
L 794 0 
L 794 531 
z
" transform="scale(0.015625)"/>
       </defs>
       <use xlink:href="#DejaVuSans-31"/>
       <use xlink:href="#DejaVuSans-30" x="63.623047"/>
       <use xlink:href="#DejaVuSans-30" x="127.246094"/>
      </g>
     </g>
    </g>
    <g id="xtick_6">
     <g id="line2d_6">
      <g>
       <use xlink:href="#ma2452c0c93" x="267.705" y="192.751223" style="stroke: #000000; stroke-width: 0.8"/>
      </g>
     </g>
     <g id="text_6">
      <!-- 120 -->
      <g transform="translate(258.16125 207.34966) scale(0.1 -0.1)">
       <use xlink:href="#DejaVuSans-31"/>
       <use xlink:href="#DejaVuSans-32" x="63.623047"/>
       <use xlink:href="#DejaVuSans-30" x="127.246094"/>
      </g>
     </g>
    </g>
   </g>
   <g id="matplotlib.axis_2">
    <g id="ytick_1">
     <g id="line2d_7">
      <defs>
       <path id="mfcbc655bf8" d="M 0 0 
L -3.5 0 
" style="stroke: #000000; stroke-width: 0.8"/>
      </defs>
      <g>
       <use xlink:href="#mfcbc655bf8" x="57.17" y="184.625569" style="stroke: #000000; stroke-width: 0.8"/>
      </g>
     </g>
     <g id="text_7">
      <!-- 0 -->
      <g transform="translate(43.8075 188.424787) scale(0.1 -0.1)">
       <use xlink:href="#DejaVuSans-30"/>
      </g>
     </g>
    </g>
    <g id="ytick_2">
     <g id="line2d_8">
      <g>
       <use xlink:href="#mfcbc655bf8" x="57.17" y="156.342749" style="stroke: #000000; stroke-width: 0.8"/>
      </g>
     </g>
     <g id="text_8">
      <!-- 500 -->
      <g transform="translate(31.0825 160.141968) scale(0.1 -0.1)">
       <defs>
        <path id="DejaVuSans-35" d="M 691 4666 
L 3169 4666 
L 3169 4134 
L 1269 4134 
L 1269 2991 
Q 1406 3038 1543 3061 
Q 1681 3084 1819 3084 
Q 2600 3084 3056 2656 
Q 3513 2228 3513 1497 
Q 3513 744 3044 326 
Q 2575 -91 1722 -91 
Q 1428 -91 1123 -41 
Q 819 9 494 109 
L 494 744 
Q 775 591 1075 516 
Q 1375 441 1709 441 
Q 2250 441 2565 725 
Q 2881 1009 2881 1497 
Q 2881 1984 2565 2268 
Q 2250 2553 1709 2553 
Q 1456 2553 1204 2497 
Q 953 2441 691 2322 
L 691 4666 
z
" transform="scale(0.015625)"/>
       </defs>
       <use xlink:href="#DejaVuSans-35"/>
       <use xlink:href="#DejaVuSans-30" x="63.623047"/>
       <use xlink:href="#DejaVuSans-30" x="127.246094"/>
      </g>
     </g>
    </g>
    <g id="ytick_3">
     <g id="line2d_9">
      <g>
       <use xlink:href="#mfcbc655bf8" x="57.17" y="128.05993" style="stroke: #000000; stroke-width: 0.8"/>
      </g>
     </g>
     <g id="text_9">
      <!-- 1000 -->
      <g transform="translate(24.72 131.859148) scale(0.1 -0.1)">
       <use xlink:href="#DejaVuSans-31"/>
       <use xlink:href="#DejaVuSans-30" x="63.623047"/>
       <use xlink:href="#DejaVuSans-30" x="127.246094"/>
       <use xlink:href="#DejaVuSans-30" x="190.869141"/>
      </g>
     </g>
    </g>
    <g id="ytick_4">
     <g id="line2d_10">
      <g>
       <use xlink:href="#mfcbc655bf8" x="57.17" y="99.77711" style="stroke: #000000; stroke-width: 0.8"/>
      </g>
     </g>
     <g id="text_10">
      <!-- 1500 -->
      <g transform="translate(24.72 103.576329) scale(0.1 -0.1)">
       <use xlink:href="#DejaVuSans-31"/>
       <use xlink:href="#DejaVuSans-35" x="63.623047"/>
       <use xlink:href="#DejaVuSans-30" x="127.246094"/>
       <use xlink:href="#DejaVuSans-30" x="190.869141"/>
      </g>
     </g>
    </g>
    <g id="ytick_5">
     <g id="line2d_11">
      <g>
       <use xlink:href="#mfcbc655bf8" x="57.17" y="71.494291" style="stroke: #000000; stroke-width: 0.8"/>
      </g>
     </g>
     <g id="text_11">
      <!-- 2000 -->
      <g transform="translate(24.72 75.29351) scale(0.1 -0.1)">
       <use xlink:href="#DejaVuSans-32"/>
       <use xlink:href="#DejaVuSans-30" x="63.623047"/>
       <use xlink:href="#DejaVuSans-30" x="127.246094"/>
       <use xlink:href="#DejaVuSans-30" x="190.869141"/>
      </g>
     </g>
    </g>
    <g id="ytick_6">
     <g id="line2d_12">
      <g>
       <use xlink:href="#mfcbc655bf8" x="57.17" y="43.211471" style="stroke: #000000; stroke-width: 0.8"/>
      </g>
     </g>
     <g id="text_12">
      <!-- 2500 -->
      <g transform="translate(24.72 47.01069) scale(0.1 -0.1)">
       <use xlink:href="#DejaVuSans-32"/>
       <use xlink:href="#DejaVuSans-35" x="63.623047"/>
       <use xlink:href="#DejaVuSans-30" x="127.246094"/>
       <use xlink:href="#DejaVuSans-30" x="190.869141"/>
      </g>
     </g>
    </g>
    <g id="ytick_7">
     <g id="line2d_13">
      <g>
       <use xlink:href="#mfcbc655bf8" x="57.17" y="14.928652" style="stroke: #000000; stroke-width: 0.8"/>
      </g>
     </g>
     <g id="text_13">
      <!-- 3000 -->
      <g transform="translate(24.72 18.727871) scale(0.1 -0.1)">
       <defs>
        <path id="DejaVuSans-33" d="M 2597 2516 
Q 3050 2419 3304 2112 
Q 3559 1806 3559 1356 
Q 3559 666 3084 287 
Q 2609 -91 1734 -91 
Q 1441 -91 1130 -33 
Q 819 25 488 141 
L 488 750 
Q 750 597 1062 519 
Q 1375 441 1716 441 
Q 2309 441 2620 675 
Q 2931 909 2931 1356 
Q 2931 1769 2642 2001 
Q 2353 2234 1838 2234 
L 1294 2234 
L 1294 2753 
L 1863 2753 
Q 2328 2753 2575 2939 
Q 2822 3125 2822 3475 
Q 2822 3834 2567 4026 
Q 2313 4219 1838 4219 
Q 1578 4219 1281 4162 
Q 984 4106 628 3988 
L 628 4550 
Q 988 4650 1302 4700 
Q 1616 4750 1894 4750 
Q 2613 4750 3031 4423 
Q 3450 4097 3450 3541 
Q 3450 3153 3228 2886 
Q 3006 2619 2597 2516 
z
" transform="scale(0.015625)"/>
       </defs>
       <use xlink:href="#DejaVuSans-33"/>
       <use xlink:href="#DejaVuSans-30" x="63.623047"/>
       <use xlink:href="#DejaVuSans-30" x="127.246094"/>
       <use xlink:href="#DejaVuSans-30" x="190.869141"/>
      </g>
     </g>
    </g>
    <g id="text_14">
     <!-- Pixel Frequency -->
     <g transform="translate(18.640313 142.347935) rotate(-90) scale(0.1 -0.1)">
      <defs>
       <path id="DejaVuSans-50" d="M 1259 4147 
L 1259 2394 
L 2053 2394 
Q 2494 2394 2734 2622 
Q 2975 2850 2975 3272 
Q 2975 3691 2734 3919 
Q 2494 4147 2053 4147 
L 1259 4147 
z
M 628 4666 
L 2053 4666 
Q 2838 4666 3239 4311 
Q 3641 3956 3641 3272 
Q 3641 2581 3239 2228 
Q 2838 1875 2053 1875 
L 1259 1875 
L 1259 0 
L 628 0 
L 628 4666 
z
" transform="scale(0.015625)"/>
       <path id="DejaVuSans-69" d="M 603 3500 
L 1178 3500 
L 1178 0 
L 603 0 
L 603 3500 
z
M 603 4863 
L 1178 4863 
L 1178 4134 
L 603 4134 
L 603 4863 
z
" transform="scale(0.015625)"/>
       <path id="DejaVuSans-78" d="M 3513 3500 
L 2247 1797 
L 3578 0 
L 2900 0 
L 1881 1375 
L 863 0 
L 184 0 
L 1544 1831 
L 300 3500 
L 978 3500 
L 1906 2253 
L 2834 3500 
L 3513 3500 
z
" transform="scale(0.015625)"/>
       <path id="DejaVuSans-65" d="M 3597 1894 
L 3597 1613 
L 953 1613 
Q 991 1019 1311 708 
Q 1631 397 2203 397 
Q 2534 397 2845 478 
Q 3156 559 3463 722 
L 3463 178 
Q 3153 47 2828 -22 
Q 2503 -91 2169 -91 
Q 1331 -91 842 396 
Q 353 884 353 1716 
Q 353 2575 817 3079 
Q 1281 3584 2069 3584 
Q 2775 3584 3186 3129 
Q 3597 2675 3597 1894 
z
M 3022 2063 
Q 3016 2534 2758 2815 
Q 2500 3097 2075 3097 
Q 1594 3097 1305 2825 
Q 1016 2553 972 2059 
L 3022 2063 
z
" transform="scale(0.015625)"/>
       <path id="DejaVuSans-6c" d="M 603 4863 
L 1178 4863 
L 1178 0 
L 603 0 
L 603 4863 
z
" transform="scale(0.015625)"/>
       <path id="DejaVuSans-20" transform="scale(0.015625)"/>
       <path id="DejaVuSans-46" d="M 628 4666 
L 3309 4666 
L 3309 4134 
L 1259 4134 
L 1259 2759 
L 3109 2759 
L 3109 2228 
L 1259 2228 
L 1259 0 
L 628 0 
L 628 4666 
z
" transform="scale(0.015625)"/>
       <path id="DejaVuSans-72" d="M 2631 2963 
Q 2534 3019 2420 3045 
Q 2306 3072 2169 3072 
Q 1681 3072 1420 2755 
Q 1159 2438 1159 1844 
L 1159 0 
L 581 0 
L 581 3500 
L 1159 3500 
L 1159 2956 
Q 1341 3275 1631 3429 
Q 1922 3584 2338 3584 
Q 2397 3584 2469 3576 
Q 2541 3569 2628 3553 
L 2631 2963 
z
" transform="scale(0.015625)"/>
       <path id="DejaVuSans-71" d="M 947 1747 
Q 947 1113 1208 752 
Q 1469 391 1925 391 
Q 2381 391 2643 752 
Q 2906 1113 2906 1747 
Q 2906 2381 2643 2742 
Q 2381 3103 1925 3103 
Q 1469 3103 1208 2742 
Q 947 2381 947 1747 
z
M 2906 525 
Q 2725 213 2448 61 
Q 2172 -91 1784 -91 
Q 1150 -91 751 415 
Q 353 922 353 1747 
Q 353 2572 751 3078 
Q 1150 3584 1784 3584 
Q 2172 3584 2448 3432 
Q 2725 3281 2906 2969 
L 2906 3500 
L 3481 3500 
L 3481 -1331 
L 2906 -1331 
L 2906 525 
z
" transform="scale(0.015625)"/>
       <path id="DejaVuSans-75" d="M 544 1381 
L 544 3500 
L 1119 3500 
L 1119 1403 
Q 1119 906 1312 657 
Q 1506 409 1894 409 
Q 2359 409 2629 706 
Q 2900 1003 2900 1516 
L 2900 3500 
L 3475 3500 
L 3475 0 
L 2900 0 
L 2900 538 
Q 2691 219 2414 64 
Q 2138 -91 1772 -91 
Q 1169 -91 856 284 
Q 544 659 544 1381 
z
M 1991 3584 
L 1991 3584 
z
" transform="scale(0.015625)"/>
       <path id="DejaVuSans-6e" d="M 3513 2113 
L 3513 0 
L 2938 0 
L 2938 2094 
Q 2938 2591 2744 2837 
Q 2550 3084 2163 3084 
Q 1697 3084 1428 2787 
Q 1159 2491 1159 1978 
L 1159 0 
L 581 0 
L 581 3500 
L 1159 3500 
L 1159 2956 
Q 1366 3272 1645 3428 
Q 1925 3584 2291 3584 
Q 2894 3584 3203 3211 
Q 3513 2838 3513 2113 
z
" transform="scale(0.015625)"/>
       <path id="DejaVuSans-63" d="M 3122 3366 
L 3122 2828 
Q 2878 2963 2633 3030 
Q 2388 3097 2138 3097 
Q 1578 3097 1268 2742 
Q 959 2388 959 1747 
Q 959 1106 1268 751 
Q 1578 397 2138 397 
Q 2388 397 2633 464 
Q 2878 531 3122 666 
L 3122 134 
Q 2881 22 2623 -34 
Q 2366 -91 2075 -91 
Q 1284 -91 818 406 
Q 353 903 353 1747 
Q 353 2603 823 3093 
Q 1294 3584 2113 3584 
Q 2378 3584 2631 3529 
Q 2884 3475 3122 3366 
z
" transform="scale(0.015625)"/>
       <path id="DejaVuSans-79" d="M 2059 -325 
Q 1816 -950 1584 -1140 
Q 1353 -1331 966 -1331 
L 506 -1331 
L 506 -850 
L 844 -850 
Q 1081 -850 1212 -737 
Q 1344 -625 1503 -206 
L 1606 56 
L 191 3500 
L 800 3500 
L 1894 763 
L 2988 3500 
L 3597 3500 
L 2059 -325 
z
" transform="scale(0.015625)"/>
      </defs>
      <use xlink:href="#DejaVuSans-50"/>
      <use xlink:href="#DejaVuSans-69" x="58.052734"/>
      <use xlink:href="#DejaVuSans-78" x="85.835938"/>
      <use xlink:href="#DejaVuSans-65" x="141.890625"/>
      <use xlink:href="#DejaVuSans-6c" x="203.414062"/>
      <use xlink:href="#DejaVuSans-20" x="231.197266"/>
      <use xlink:href="#DejaVuSans-46" x="262.984375"/>
      <use xlink:href="#DejaVuSans-72" x="313.253906"/>
      <use xlink:href="#DejaVuSans-65" x="352.117188"/>
      <use xlink:href="#DejaVuSans-71" x="413.640625"/>
      <use xlink:href="#DejaVuSans-75" x="477.117188"/>
      <use xlink:href="#DejaVuSans-65" x="540.496094"/>
      <use xlink:href="#DejaVuSans-6e" x="602.019531"/>
      <use xlink:href="#DejaVuSans-63" x="665.398438"/>
      <use xlink:href="#DejaVuSans-79" x="720.378906"/>
     </g>
    </g>
   </g>
   <g id="line2d_14">
    <path d="M 15.063 184.625569 
L 86.6449 184.625569 
L 88.75025 184.455872 
L 90.8556 184.512437 
L 92.96095 184.229609 
L 95.0663 184.229609 
L 97.17165 183.777084 
L 99.277 182.815468 
L 101.38235 182.476074 
L 103.4877 180.72254 
L 105.59305 179.930621 
L 107.6984 174.500319 
L 109.80375 162.847798 
L 111.9091 157.021537 
L 114.01445 151.704367 
L 116.1198 143.954874 
L 120.3305 121.837709 
L 122.43585 103.397311 
L 124.5412 69.967019 
L 126.64655 39.478139 
L 128.7519 22.112488 
L 130.85725 33.878141 
L 132.9626 43.550865 
L 135.06795 58.371063 
L 137.1733 71.550856 
L 139.27865 89.878123 
L 141.384 98.249838 
L 143.48935 108.657916 
L 145.5947 116.181146 
L 147.70005 126.080132 
L 149.8054 129.813465 
L 154.0161 135.696291 
L 156.12145 140.843764 
L 158.2268 138.128613 
L 160.33215 142.71043 
L 162.4375 144.859924 
L 166.6482 145.934672 
L 168.75355 145.199318 
L 170.8589 147.801338 
L 172.96425 150.063963 
L 175.0696 150.855882 
L 177.17495 152.552851 
L 179.2803 152.779114 
L 181.38565 156.512446 
L 183.491 156.003355 
L 185.59635 159.623556 
L 187.7017 159.736688 
L 189.80705 160.132647 
L 191.9124 162.395273 
L 194.01775 162.451838 
L 196.1231 163.922545 
L 198.22845 162.847798 
L 200.3338 167.599311 
L 202.43915 166.920524 
L 204.5445 168.278099 
L 206.64985 168.334665 
L 208.7552 170.031634 
L 210.86055 172.181128 
L 212.9659 171.954866 
L 215.07125 172.124562 
L 217.1766 172.181128 
L 219.28195 173.7084 
L 221.3873 172.859916 
L 223.49265 174.556885 
L 225.598 172.407391 
L 227.70335 173.142744 
L 229.8087 173.651835 
L 231.91405 175.292238 
L 234.0194 173.878097 
L 236.12475 174.726582 
L 238.2301 175.179107 
L 240.33545 174.387188 
L 242.4408 175.631632 
L 244.54615 175.518501 
L 246.6515 175.857895 
L 248.75685 178.346783 
L 250.8622 179.02557 
L 252.96755 178.459914 
L 255.0729 180.948802 
L 257.17825 181.175065 
L 259.2836 182.476074 
L 263.4943 182.476074 
L 265.59965 182.193246 
L 267.705 182.815468 
L 269.81035 183.154862 
L 271.9157 183.890215 
L 274.02105 183.267993 
L 276.1264 183.324559 
L 278.23175 183.777084 
L 280.3371 183.946781 
L 282.44245 183.946781 
L 284.5478 184.399306 
L 286.65315 183.946781 
L 289 184.116478 
L 289 184.116478 
" clip-path="url(#pafdbc590d8)" style="fill: none; stroke: #ff0000; stroke-width: 1.5; stroke-linecap: square"/>
   </g>
   <g id="patch_3">
    <path d="M 57.17 192.751223 
L 57.17 13.986834 
" style="fill: none; stroke: #000000; stroke-width: 0.8; stroke-linejoin: miter; stroke-linecap: square"/>
   </g>
   <g id="patch_4">
    <path d="M 267.705 192.751223 
L 267.705 13.986834 
" style="fill: none; stroke: #000000; stroke-width: 0.8; stroke-linejoin: miter; stroke-linecap: square"/>
   </g>
   <g id="patch_5">
    <path d="M 57.17 192.751223 
L 267.705 192.751223 
" style="fill: none; stroke: #000000; stroke-width: 0.8; stroke-linejoin: miter; stroke-linecap: square"/>
   </g>
   <g id="patch_6">
    <path d="M 57.17 13.986834 
L 267.705 13.986834 
" style="fill: none; stroke: #000000; stroke-width: 0.8; stroke-linejoin: miter; stroke-linecap: square"/>
   </g>
   <g id="text_15">
    <!-- Red Channel  -->
    <g transform="translate(188.011875 27.986834) scale(0.12 -0.12)">
     <defs>
      <path id="DejaVuSans-52" d="M 2841 2188 
Q 3044 2119 3236 1894 
Q 3428 1669 3622 1275 
L 4263 0 
L 3584 0 
L 2988 1197 
Q 2756 1666 2539 1819 
Q 2322 1972 1947 1972 
L 1259 1972 
L 1259 0 
L 628 0 
L 628 4666 
L 2053 4666 
Q 2853 4666 3247 4331 
Q 3641 3997 3641 3322 
Q 3641 2881 3436 2590 
Q 3231 2300 2841 2188 
z
M 1259 4147 
L 1259 2491 
L 2053 2491 
Q 2509 2491 2742 2702 
Q 2975 2913 2975 3322 
Q 2975 3731 2742 3939 
Q 2509 4147 2053 4147 
L 1259 4147 
z
" transform="scale(0.015625)"/>
      <path id="DejaVuSans-64" d="M 2906 2969 
L 2906 4863 
L 3481 4863 
L 3481 0 
L 2906 0 
L 2906 525 
Q 2725 213 2448 61 
Q 2172 -91 1784 -91 
Q 1150 -91 751 415 
Q 353 922 353 1747 
Q 353 2572 751 3078 
Q 1150 3584 1784 3584 
Q 2172 3584 2448 3432 
Q 2725 3281 2906 2969 
z
M 947 1747 
Q 947 1113 1208 752 
Q 1469 391 1925 391 
Q 2381 391 2643 752 
Q 2906 1113 2906 1747 
Q 2906 2381 2643 2742 
Q 2381 3103 1925 3103 
Q 1469 3103 1208 2742 
Q 947 2381 947 1747 
z
" transform="scale(0.015625)"/>
      <path id="DejaVuSans-43" d="M 4122 4306 
L 4122 3641 
Q 3803 3938 3442 4084 
Q 3081 4231 2675 4231 
Q 1875 4231 1450 3742 
Q 1025 3253 1025 2328 
Q 1025 1406 1450 917 
Q 1875 428 2675 428 
Q 3081 428 3442 575 
Q 3803 722 4122 1019 
L 4122 359 
Q 3791 134 3420 21 
Q 3050 -91 2638 -91 
Q 1578 -91 968 557 
Q 359 1206 359 2328 
Q 359 3453 968 4101 
Q 1578 4750 2638 4750 
Q 3056 4750 3426 4639 
Q 3797 4528 4122 4306 
z
" transform="scale(0.015625)"/>
      <path id="DejaVuSans-68" d="M 3513 2113 
L 3513 0 
L 2938 0 
L 2938 2094 
Q 2938 2591 2744 2837 
Q 2550 3084 2163 3084 
Q 1697 3084 1428 2787 
Q 1159 2491 1159 1978 
L 1159 0 
L 581 0 
L 581 4863 
L 1159 4863 
L 1159 2956 
Q 1366 3272 1645 3428 
Q 1925 3584 2291 3584 
Q 2894 3584 3203 3211 
Q 3513 2838 3513 2113 
z
" transform="scale(0.015625)"/>
      <path id="DejaVuSans-61" d="M 2194 1759 
Q 1497 1759 1228 1600 
Q 959 1441 959 1056 
Q 959 750 1161 570 
Q 1363 391 1709 391 
Q 2188 391 2477 730 
Q 2766 1069 2766 1631 
L 2766 1759 
L 2194 1759 
z
M 3341 1997 
L 3341 0 
L 2766 0 
L 2766 531 
Q 2569 213 2275 61 
Q 1981 -91 1556 -91 
Q 1019 -91 701 211 
Q 384 513 384 1019 
Q 384 1609 779 1909 
Q 1175 2209 1959 2209 
L 2766 2209 
L 2766 2266 
Q 2766 2663 2505 2880 
Q 2244 3097 1772 3097 
Q 1472 3097 1187 3025 
Q 903 2953 641 2809 
L 641 3341 
Q 956 3463 1253 3523 
Q 1550 3584 1831 3584 
Q 2591 3584 2966 3190 
Q 3341 2797 3341 1997 
z
" transform="scale(0.015625)"/>
     </defs>
     <use xlink:href="#DejaVuSans-52"/>
     <use xlink:href="#DejaVuSans-65" x="64.982422"/>
     <use xlink:href="#DejaVuSans-64" x="126.505859"/>
     <use xlink:href="#DejaVuSans-20" x="189.982422"/>
     <use xlink:href="#DejaVuSans-43" x="221.769531"/>
     <use xlink:href="#DejaVuSans-68" x="291.59375"/>
     <use xlink:href="#DejaVuSans-61" x="354.972656"/>
     <use xlink:href="#DejaVuSans-6e" x="416.251953"/>
     <use xlink:href="#DejaVuSans-6e" x="479.630859"/>
     <use xlink:href="#DejaVuSans-65" x="543.009766"/>
     <use xlink:href="#DejaVuSans-6c" x="604.533203"/>
     <use xlink:href="#DejaVuSans-20" x="632.316406"/>
    </g>
   </g>
  </g>
  <g id="axes_2">
   <g id="patch_7">
    <path d="M 57.17 399.395611 
L 267.705 399.395611 
L 267.705 220.631223 
L 57.17 220.631223 
z
" style="fill: #ffffff"/>
   </g>
   <g id="PolyCollection_2">
    <path d="M 15.063 391.269957 
L 15.063 391.269957 
L 17.16835 391.269957 
L 19.2737 391.269957 
L 21.37905 391.269957 
L 23.4844 391.269957 
L 25.58975 391.269957 
L 27.6951 391.269957 
L 29.80045 391.269957 
L 31.9058 391.269957 
L 34.01115 391.269957 
L 36.1165 391.269957 
L 38.22185 391.269957 
L 40.3272 391.269957 
L 42.43255 391.269957 
L 44.5379 391.269957 
L 46.64325 391.269957 
L 48.7486 391.269957 
L 50.85395 391.269957 
L 52.9593 391.269957 
L 55.06465 391.269957 
L 57.17 391.269957 
L 59.27535 391.269957 
L 61.3807 391.269957 
L 63.48605 391.269957 
L 65.5914 391.269957 
L 67.69675 391.269957 
L 69.8021 391.269957 
L 71.90745 391.269957 
L 74.0128 391.269957 
L 76.11815 391.269957 
L 78.2235 391.269957 
L 80.32885 391.201183 
L 82.4342 390.926087 
L 84.53955 390.994861 
L 86.6449 390.788539 
L 88.75025 389.61938 
L 90.8556 389.069188 
L 92.96095 388.243899 
L 95.0663 387.143514 
L 97.17165 384.117456 
L 99.277 375.658248 
L 101.38235 368.368199 
L 103.4877 365.617237 
L 105.59305 352.618941 
L 107.6984 338.932905 
L 109.80375 311.904703 
L 111.9091 284.395083 
L 114.01445 251.314765 
L 116.1198 235.221637 
L 118.22515 228.756877 
L 120.3305 236.046926 
L 122.43585 246.156711 
L 124.5412 257.710752 
L 126.64655 266.16996 
L 128.7519 281.506573 
L 130.85725 289.965781 
L 132.9626 300.900855 
L 135.06795 312.1798 
L 137.1733 322.427133 
L 139.27865 325.040547 
L 141.384 330.886341 
L 143.48935 328.272927 
L 145.5947 332.949563 
L 147.70005 337.076006 
L 149.8054 341.890189 
L 151.91075 346.773147 
L 154.0161 350.143075 
L 156.12145 346.841921 
L 158.2268 352.825263 
L 160.33215 349.111465 
L 162.4375 352.412619 
L 164.54285 350.005527 
L 166.6482 352.962811 
L 168.75355 349.386561 
L 170.8589 354.269518 
L 172.96425 352.068749 
L 175.0696 352.275071 
L 177.17495 357.501899 
L 179.2803 358.258413 
L 181.38565 360.252861 
L 183.491 361.078149 
L 185.59635 362.384856 
L 187.7017 363.072597 
L 189.80705 365.961107 
L 191.9124 365.617237 
L 194.01775 367.19904 
L 196.1231 368.643295 
L 198.22845 368.23065 
L 200.3338 369.262261 
L 202.43915 371.463031 
L 204.5445 370.912838 
L 206.64985 372.013223 
L 208.7552 372.700964 
L 210.86055 373.938897 
L 212.9659 377.171277 
L 215.07125 375.245604 
L 217.1766 377.583921 
L 219.28195 375.658248 
L 221.3873 378.890628 
L 223.49265 378.134114 
L 225.598 378.340436 
L 227.70335 380.266109 
L 229.8087 380.60998 
L 231.91405 381.435268 
L 234.0194 378.959402 
L 236.12475 379.372047 
L 238.2301 380.541205 
L 240.33545 380.747528 
L 242.4408 381.504042 
L 244.54615 381.847912 
L 246.6515 381.435268 
L 248.75685 380.885076 
L 250.8622 379.647143 
L 252.96755 379.647143 
L 255.0729 378.959402 
L 257.17825 380.885076 
L 259.2836 380.472431 
L 261.38895 379.853465 
L 263.4943 382.329331 
L 265.59965 381.572816 
L 267.705 383.911134 
L 269.81035 385.699259 
L 271.9157 386.799644 
L 274.02105 387.831255 
L 276.1264 386.593322 
L 278.23175 387.762481 
L 280.3371 388.450221 
L 282.44245 388.450221 
L 284.5478 389.000414 
L 286.65315 389.000414 
L 288.7585 389.206736 
L 290.86385 388.862866 
L 292.9692 389.61938 
L 295.07455 389.344284 
L 297.1799 390.032024 
L 299.28525 390.238347 
L 301.3906 390.032024 
L 303.49595 390.788539 
L 305.6013 390.857313 
L 307.70665 390.032024 
L 309.812 390.375895 
L 311.91735 390.650991 
L 314.0227 390.513443 
L 316.12805 390.582217 
L 318.2334 391.063635 
L 320.33875 390.926087 
L 322.4441 390.926087 
L 324.54945 390.857313 
L 326.6548 390.582217 
L 328.76015 391.063635 
L 330.8655 390.926087 
L 332.97085 391.063635 
L 335.0762 390.994861 
L 337.18155 390.857313 
L 339.2869 390.994861 
L 341.39225 391.063635 
L 343.4976 391.269957 
L 345.60295 391.132409 
L 347.7083 391.132409 
L 349.81365 391.132409 
L 351.919 391.269957 
L 354.02435 391.201183 
L 356.1297 391.201183 
L 358.23505 391.132409 
L 360.3404 390.926087 
L 362.44575 391.063635 
L 364.5511 391.269957 
L 366.65645 391.269957 
L 368.7618 391.201183 
L 370.86715 391.201183 
L 372.9725 391.269957 
L 375.07785 391.269957 
L 377.1832 391.269957 
L 379.28855 391.201183 
L 381.3939 391.269957 
L 383.49925 391.269957 
L 385.6046 391.201183 
L 387.70995 391.269957 
L 389.8153 391.269957 
L 391.92065 391.269957 
L 394.026 391.269957 
L 396.13135 391.201183 
L 398.2367 391.269957 
L 400.34205 391.269957 
L 402.4474 391.269957 
L 404.55275 391.269957 
L 406.6581 391.201183 
L 408.76345 391.269957 
L 410.8688 391.269957 
L 412.97415 391.269957 
L 415.0795 391.269957 
L 417.18485 391.269957 
L 419.2902 391.269957 
L 421.39555 391.269957 
L 423.5009 391.269957 
L 425.60625 391.269957 
L 427.7116 391.269957 
L 429.81695 391.269957 
L 431.9223 391.269957 
L 434.02765 391.269957 
L 436.133 391.269957 
L 438.23835 391.269957 
L 440.3437 391.269957 
L 442.44905 391.269957 
L 444.5544 391.269957 
L 446.65975 391.269957 
L 448.7651 391.269957 
L 450.87045 391.269957 
L 452.9758 391.269957 
L 455.08115 391.269957 
L 457.1865 391.269957 
L 459.29185 391.269957 
L 461.3972 391.269957 
L 463.50255 391.269957 
L 465.6079 391.269957 
L 467.71325 391.269957 
L 469.8186 391.269957 
L 471.92395 391.269957 
L 474.0293 391.269957 
L 476.13465 391.269957 
L 478.24 391.269957 
L 480.34535 391.269957 
L 482.4507 391.269957 
L 484.55605 391.269957 
L 486.6614 391.269957 
L 488.76675 391.269957 
L 490.8721 391.269957 
L 492.97745 391.269957 
L 495.0828 391.269957 
L 497.18815 391.269957 
L 499.2935 391.269957 
L 501.39885 391.269957 
L 503.5042 391.269957 
L 505.60955 391.269957 
L 507.7149 391.269957 
L 509.82025 391.269957 
L 511.9256 391.269957 
L 514.03095 391.269957 
L 516.1363 391.269957 
L 518.24165 391.269957 
L 520.347 391.269957 
L 522.45235 391.269957 
L 524.5577 391.269957 
L 526.66305 391.269957 
L 528.7684 391.269957 
L 530.87375 391.269957 
L 532.9791 391.269957 
L 535.08445 391.269957 
L 537.1898 391.269957 
L 539.29515 391.269957 
L 541.4005 391.269957 
L 543.50585 391.269957 
L 545.6112 391.269957 
L 547.71655 391.269957 
L 549.8219 391.269957 
L 551.92725 391.269957 
L 551.92725 391.269957 
L 551.92725 391.269957 
L 549.8219 391.269957 
L 547.71655 391.269957 
L 545.6112 391.269957 
L 543.50585 391.269957 
L 541.4005 391.269957 
L 539.29515 391.269957 
L 537.1898 391.269957 
L 535.08445 391.269957 
L 532.9791 391.269957 
L 530.87375 391.269957 
L 528.7684 391.269957 
L 526.66305 391.269957 
L 524.5577 391.269957 
L 522.45235 391.269957 
L 520.347 391.269957 
L 518.24165 391.269957 
L 516.1363 391.269957 
L 514.03095 391.269957 
L 511.9256 391.269957 
L 509.82025 391.269957 
L 507.7149 391.269957 
L 505.60955 391.269957 
L 503.5042 391.269957 
L 501.39885 391.269957 
L 499.2935 391.269957 
L 497.18815 391.269957 
L 495.0828 391.269957 
L 492.97745 391.269957 
L 490.8721 391.269957 
L 488.76675 391.269957 
L 486.6614 391.269957 
L 484.55605 391.269957 
L 482.4507 391.269957 
L 480.34535 391.269957 
L 478.24 391.269957 
L 476.13465 391.269957 
L 474.0293 391.269957 
L 471.92395 391.269957 
L 469.8186 391.269957 
L 467.71325 391.269957 
L 465.6079 391.269957 
L 463.50255 391.269957 
L 461.3972 391.269957 
L 459.29185 391.269957 
L 457.1865 391.269957 
L 455.08115 391.269957 
L 452.9758 391.269957 
L 450.87045 391.269957 
L 448.7651 391.269957 
L 446.65975 391.269957 
L 444.5544 391.269957 
L 442.44905 391.269957 
L 440.3437 391.269957 
L 438.23835 391.269957 
L 436.133 391.269957 
L 434.02765 391.269957 
L 431.9223 391.269957 
L 429.81695 391.269957 
L 427.7116 391.269957 
L 425.60625 391.269957 
L 423.5009 391.269957 
L 421.39555 391.269957 
L 419.2902 391.269957 
L 417.18485 391.269957 
L 415.0795 391.269957 
L 412.97415 391.269957 
L 410.8688 391.269957 
L 408.76345 391.269957 
L 406.6581 391.269957 
L 404.55275 391.269957 
L 402.4474 391.269957 
L 400.34205 391.269957 
L 398.2367 391.269957 
L 396.13135 391.269957 
L 394.026 391.269957 
L 391.92065 391.269957 
L 389.8153 391.269957 
L 387.70995 391.269957 
L 385.6046 391.269957 
L 383.49925 391.269957 
L 381.3939 391.269957 
L 379.28855 391.269957 
L 377.1832 391.269957 
L 375.07785 391.269957 
L 372.9725 391.269957 
L 370.86715 391.269957 
L 368.7618 391.269957 
L 366.65645 391.269957 
L 364.5511 391.269957 
L 362.44575 391.269957 
L 360.3404 391.269957 
L 358.23505 391.269957 
L 356.1297 391.269957 
L 354.02435 391.269957 
L 351.919 391.269957 
L 349.81365 391.269957 
L 347.7083 391.269957 
L 345.60295 391.269957 
L 343.4976 391.269957 
L 341.39225 391.269957 
L 339.2869 391.269957 
L 337.18155 391.269957 
L 335.0762 391.269957 
L 332.97085 391.269957 
L 330.8655 391.269957 
L 328.76015 391.269957 
L 326.6548 391.269957 
L 324.54945 391.269957 
L 322.4441 391.269957 
L 320.33875 391.269957 
L 318.2334 391.269957 
L 316.12805 391.269957 
L 314.0227 391.269957 
L 311.91735 391.269957 
L 309.812 391.269957 
L 307.70665 391.269957 
L 305.6013 391.269957 
L 303.49595 391.269957 
L 301.3906 391.269957 
L 299.28525 391.269957 
L 297.1799 391.269957 
L 295.07455 391.269957 
L 292.9692 391.269957 
L 290.86385 391.269957 
L 288.7585 391.269957 
L 286.65315 391.269957 
L 284.5478 391.269957 
L 282.44245 391.269957 
L 280.3371 391.269957 
L 278.23175 391.269957 
L 276.1264 391.269957 
L 274.02105 391.269957 
L 271.9157 391.269957 
L 269.81035 391.269957 
L 267.705 391.269957 
L 265.59965 391.269957 
L 263.4943 391.269957 
L 261.38895 391.269957 
L 259.2836 391.269957 
L 257.17825 391.269957 
L 255.0729 391.269957 
L 252.96755 391.269957 
L 250.8622 391.269957 
L 248.75685 391.269957 
L 246.6515 391.269957 
L 244.54615 391.269957 
L 242.4408 391.269957 
L 240.33545 391.269957 
L 238.2301 391.269957 
L 236.12475 391.269957 
L 234.0194 391.269957 
L 231.91405 391.269957 
L 229.8087 391.269957 
L 227.70335 391.269957 
L 225.598 391.269957 
L 223.49265 391.269957 
L 221.3873 391.269957 
L 219.28195 391.269957 
L 217.1766 391.269957 
L 215.07125 391.269957 
L 212.9659 391.269957 
L 210.86055 391.269957 
L 208.7552 391.269957 
L 206.64985 391.269957 
L 204.5445 391.269957 
L 202.43915 391.269957 
L 200.3338 391.269957 
L 198.22845 391.269957 
L 196.1231 391.269957 
L 194.01775 391.269957 
L 191.9124 391.269957 
L 189.80705 391.269957 
L 187.7017 391.269957 
L 185.59635 391.269957 
L 183.491 391.269957 
L 181.38565 391.269957 
L 179.2803 391.269957 
L 177.17495 391.269957 
L 175.0696 391.269957 
L 172.96425 391.269957 
L 170.8589 391.269957 
L 168.75355 391.269957 
L 166.6482 391.269957 
L 164.54285 391.269957 
L 162.4375 391.269957 
L 160.33215 391.269957 
L 158.2268 391.269957 
L 156.12145 391.269957 
L 154.0161 391.269957 
L 151.91075 391.269957 
L 149.8054 391.269957 
L 147.70005 391.269957 
L 145.5947 391.269957 
L 143.48935 391.269957 
L 141.384 391.269957 
L 139.27865 391.269957 
L 137.1733 391.269957 
L 135.06795 391.269957 
L 132.9626 391.269957 
L 130.85725 391.269957 
L 128.7519 391.269957 
L 126.64655 391.269957 
L 124.5412 391.269957 
L 122.43585 391.269957 
L 120.3305 391.269957 
L 118.22515 391.269957 
L 116.1198 391.269957 
L 114.01445 391.269957 
L 111.9091 391.269957 
L 109.80375 391.269957 
L 107.6984 391.269957 
L 105.59305 391.269957 
L 103.4877 391.269957 
L 101.38235 391.269957 
L 99.277 391.269957 
L 97.17165 391.269957 
L 95.0663 391.269957 
L 92.96095 391.269957 
L 90.8556 391.269957 
L 88.75025 391.269957 
L 86.6449 391.269957 
L 84.53955 391.269957 
L 82.4342 391.269957 
L 80.32885 391.269957 
L 78.2235 391.269957 
L 76.11815 391.269957 
L 74.0128 391.269957 
L 71.90745 391.269957 
L 69.8021 391.269957 
L 67.69675 391.269957 
L 65.5914 391.269957 
L 63.48605 391.269957 
L 61.3807 391.269957 
L 59.27535 391.269957 
L 57.17 391.269957 
L 55.06465 391.269957 
L 52.9593 391.269957 
L 50.85395 391.269957 
L 48.7486 391.269957 
L 46.64325 391.269957 
L 44.5379 391.269957 
L 42.43255 391.269957 
L 40.3272 391.269957 
L 38.22185 391.269957 
L 36.1165 391.269957 
L 34.01115 391.269957 
L 31.9058 391.269957 
L 29.80045 391.269957 
L 27.6951 391.269957 
L 25.58975 391.269957 
L 23.4844 391.269957 
L 21.37905 391.269957 
L 19.2737 391.269957 
L 17.16835 391.269957 
L 15.063 391.269957 
z
" clip-path="url(#p2b29569141)" style="fill: #008000; fill-opacity: 0.4; stroke: #008000; stroke-opacity: 0.4"/>
   </g>
   <g id="matplotlib.axis_3">
    <g id="xtick_7">
     <g id="line2d_15">
      <g>
       <use xlink:href="#ma2452c0c93" x="57.17" y="399.395611" style="stroke: #000000; stroke-width: 0.8"/>
      </g>
     </g>
     <g id="text_16">
      <!-- 20 -->
      <g transform="translate(50.8075 413.994049) scale(0.1 -0.1)">
       <use xlink:href="#DejaVuSans-32"/>
       <use xlink:href="#DejaVuSans-30" x="63.623047"/>
      </g>
     </g>
    </g>
    <g id="xtick_8">
     <g id="line2d_16">
      <g>
       <use xlink:href="#ma2452c0c93" x="99.277" y="399.395611" style="stroke: #000000; stroke-width: 0.8"/>
      </g>
     </g>
     <g id="text_17">
      <!-- 40 -->
      <g transform="translate(92.9145 413.994049) scale(0.1 -0.1)">
       <use xlink:href="#DejaVuSans-34"/>
       <use xlink:href="#DejaVuSans-30" x="63.623047"/>
      </g>
     </g>
    </g>
    <g id="xtick_9">
     <g id="line2d_17">
      <g>
       <use xlink:href="#ma2452c0c93" x="141.384" y="399.395611" style="stroke: #000000; stroke-width: 0.8"/>
      </g>
     </g>
     <g id="text_18">
      <!-- 60 -->
      <g transform="translate(135.0215 413.994049) scale(0.1 -0.1)">
       <use xlink:href="#DejaVuSans-36"/>
       <use xlink:href="#DejaVuSans-30" x="63.623047"/>
      </g>
     </g>
    </g>
    <g id="xtick_10">
     <g id="line2d_18">
      <g>
       <use xlink:href="#ma2452c0c93" x="183.491" y="399.395611" style="stroke: #000000; stroke-width: 0.8"/>
      </g>
     </g>
     <g id="text_19">
      <!-- 80 -->
      <g transform="translate(177.1285 413.994049) scale(0.1 -0.1)">
       <use xlink:href="#DejaVuSans-38"/>
       <use xlink:href="#DejaVuSans-30" x="63.623047"/>
      </g>
     </g>
    </g>
    <g id="xtick_11">
     <g id="line2d_19">
      <g>
       <use xlink:href="#ma2452c0c93" x="225.598" y="399.395611" style="stroke: #000000; stroke-width: 0.8"/>
      </g>
     </g>
     <g id="text_20">
      <!-- 100 -->
      <g transform="translate(216.05425 413.994049) scale(0.1 -0.1)">
       <use xlink:href="#DejaVuSans-31"/>
       <use xlink:href="#DejaVuSans-30" x="63.623047"/>
       <use xlink:href="#DejaVuSans-30" x="127.246094"/>
      </g>
     </g>
    </g>
    <g id="xtick_12">
     <g id="line2d_20">
      <g>
       <use xlink:href="#ma2452c0c93" x="267.705" y="399.395611" style="stroke: #000000; stroke-width: 0.8"/>
      </g>
     </g>
     <g id="text_21">
      <!-- 120 -->
      <g transform="translate(258.16125 413.994049) scale(0.1 -0.1)">
       <use xlink:href="#DejaVuSans-31"/>
       <use xlink:href="#DejaVuSans-32" x="63.623047"/>
       <use xlink:href="#DejaVuSans-30" x="127.246094"/>
      </g>
     </g>
    </g>
   </g>
   <g id="matplotlib.axis_4">
    <g id="ytick_8">
     <g id="line2d_21">
      <g>
       <use xlink:href="#mfcbc655bf8" x="57.17" y="391.269957" style="stroke: #000000; stroke-width: 0.8"/>
      </g>
     </g>
     <g id="text_22">
      <!-- 0 -->
      <g transform="translate(43.8075 395.069176) scale(0.1 -0.1)">
       <use xlink:href="#DejaVuSans-30"/>
      </g>
     </g>
    </g>
    <g id="ytick_9">
     <g id="line2d_22">
      <g>
       <use xlink:href="#mfcbc655bf8" x="57.17" y="356.882932" style="stroke: #000000; stroke-width: 0.8"/>
      </g>
     </g>
     <g id="text_23">
      <!-- 500 -->
      <g transform="translate(31.0825 360.682151) scale(0.1 -0.1)">
       <use xlink:href="#DejaVuSans-35"/>
       <use xlink:href="#DejaVuSans-30" x="63.623047"/>
       <use xlink:href="#DejaVuSans-30" x="127.246094"/>
      </g>
     </g>
    </g>
    <g id="ytick_10">
     <g id="line2d_23">
      <g>
       <use xlink:href="#mfcbc655bf8" x="57.17" y="322.495907" style="stroke: #000000; stroke-width: 0.8"/>
      </g>
     </g>
     <g id="text_24">
      <!-- 1000 -->
      <g transform="translate(24.72 326.295126) scale(0.1 -0.1)">
       <use xlink:href="#DejaVuSans-31"/>
       <use xlink:href="#DejaVuSans-30" x="63.623047"/>
       <use xlink:href="#DejaVuSans-30" x="127.246094"/>
       <use xlink:href="#DejaVuSans-30" x="190.869141"/>
      </g>
     </g>
    </g>
    <g id="ytick_11">
     <g id="line2d_24">
      <g>
       <use xlink:href="#mfcbc655bf8" x="57.17" y="288.108882" style="stroke: #000000; stroke-width: 0.8"/>
      </g>
     </g>
     <g id="text_25">
      <!-- 1500 -->
      <g transform="translate(24.72 291.908101) scale(0.1 -0.1)">
       <use xlink:href="#DejaVuSans-31"/>
       <use xlink:href="#DejaVuSans-35" x="63.623047"/>
       <use xlink:href="#DejaVuSans-30" x="127.246094"/>
       <use xlink:href="#DejaVuSans-30" x="190.869141"/>
      </g>
     </g>
    </g>
    <g id="ytick_12">
     <g id="line2d_25">
      <g>
       <use xlink:href="#mfcbc655bf8" x="57.17" y="253.721857" style="stroke: #000000; stroke-width: 0.8"/>
      </g>
     </g>
     <g id="text_26">
      <!-- 2000 -->
      <g transform="translate(24.72 257.521076) scale(0.1 -0.1)">
       <use xlink:href="#DejaVuSans-32"/>
       <use xlink:href="#DejaVuSans-30" x="63.623047"/>
       <use xlink:href="#DejaVuSans-30" x="127.246094"/>
       <use xlink:href="#DejaVuSans-30" x="190.869141"/>
      </g>
     </g>
    </g>
    <g id="text_27">
     <!-- Pixel Frequency -->
     <g transform="translate(18.640313 348.992323) rotate(-90) scale(0.1 -0.1)">
      <use xlink:href="#DejaVuSans-50"/>
      <use xlink:href="#DejaVuSans-69" x="58.052734"/>
      <use xlink:href="#DejaVuSans-78" x="85.835938"/>
      <use xlink:href="#DejaVuSans-65" x="141.890625"/>
      <use xlink:href="#DejaVuSans-6c" x="203.414062"/>
      <use xlink:href="#DejaVuSans-20" x="231.197266"/>
      <use xlink:href="#DejaVuSans-46" x="262.984375"/>
      <use xlink:href="#DejaVuSans-72" x="313.253906"/>
      <use xlink:href="#DejaVuSans-65" x="352.117188"/>
      <use xlink:href="#DejaVuSans-71" x="413.640625"/>
      <use xlink:href="#DejaVuSans-75" x="477.117188"/>
      <use xlink:href="#DejaVuSans-65" x="540.496094"/>
      <use xlink:href="#DejaVuSans-6e" x="602.019531"/>
      <use xlink:href="#DejaVuSans-63" x="665.398438"/>
      <use xlink:href="#DejaVuSans-79" x="720.378906"/>
     </g>
    </g>
   </g>
   <g id="line2d_26">
    <path d="M 15.063 391.269957 
L 80.32885 391.201183 
L 82.4342 390.926087 
L 84.53955 390.994861 
L 86.6449 390.788539 
L 88.75025 389.61938 
L 90.8556 389.069188 
L 92.96095 388.243899 
L 95.0663 387.143514 
L 97.17165 384.117456 
L 99.277 375.658248 
L 101.38235 368.368199 
L 103.4877 365.617237 
L 107.6984 338.932905 
L 111.9091 284.395083 
L 114.01445 251.314765 
L 116.1198 235.221637 
L 118.22515 228.756877 
L 120.3305 236.046926 
L 122.43585 246.156711 
L 124.5412 257.710752 
L 126.64655 266.16996 
L 128.7519 281.506573 
L 130.85725 289.965781 
L 137.1733 322.427133 
L 139.27865 325.040547 
L 141.384 330.886341 
L 143.48935 328.272927 
L 145.5947 332.949563 
L 147.70005 337.076006 
L 151.91075 346.773147 
L 154.0161 350.143075 
L 156.12145 346.841921 
L 158.2268 352.825263 
L 160.33215 349.111465 
L 162.4375 352.412619 
L 164.54285 350.005527 
L 166.6482 352.962811 
L 168.75355 349.386561 
L 170.8589 354.269518 
L 172.96425 352.068749 
L 175.0696 352.275071 
L 177.17495 357.501899 
L 179.2803 358.258413 
L 181.38565 360.252861 
L 183.491 361.078149 
L 185.59635 362.384856 
L 187.7017 363.072597 
L 189.80705 365.961107 
L 191.9124 365.617237 
L 196.1231 368.643295 
L 198.22845 368.23065 
L 200.3338 369.262261 
L 202.43915 371.463031 
L 204.5445 370.912838 
L 206.64985 372.013223 
L 208.7552 372.700964 
L 210.86055 373.938897 
L 212.9659 377.171277 
L 215.07125 375.245604 
L 217.1766 377.583921 
L 219.28195 375.658248 
L 221.3873 378.890628 
L 223.49265 378.134114 
L 225.598 378.340436 
L 227.70335 380.266109 
L 229.8087 380.60998 
L 231.91405 381.435268 
L 234.0194 378.959402 
L 236.12475 379.372047 
L 238.2301 380.541205 
L 240.33545 380.747528 
L 242.4408 381.504042 
L 244.54615 381.847912 
L 246.6515 381.435268 
L 248.75685 380.885076 
L 250.8622 379.647143 
L 252.96755 379.647143 
L 255.0729 378.959402 
L 257.17825 380.885076 
L 259.2836 380.472431 
L 261.38895 379.853465 
L 263.4943 382.329331 
L 265.59965 381.572816 
L 267.705 383.911134 
L 269.81035 385.699259 
L 274.02105 387.831255 
L 276.1264 386.593322 
L 278.23175 387.762481 
L 280.3371 388.450221 
L 282.44245 388.450221 
L 284.5478 389.000414 
L 286.65315 389.000414 
L 289 389.167291 
L 289 389.167291 
" clip-path="url(#p2b29569141)" style="fill: none; stroke: #008000; stroke-width: 1.5; stroke-linecap: square"/>
   </g>
   <g id="patch_8">
    <path d="M 57.17 399.395611 
L 57.17 220.631223 
" style="fill: none; stroke: #000000; stroke-width: 0.8; stroke-linejoin: miter; stroke-linecap: square"/>
   </g>
   <g id="patch_9">
    <path d="M 267.705 399.395611 
L 267.705 220.631223 
" style="fill: none; stroke: #000000; stroke-width: 0.8; stroke-linejoin: miter; stroke-linecap: square"/>
   </g>
   <g id="patch_10">
    <path d="M 57.17 399.395611 
L 267.705 399.395611 
" style="fill: none; stroke: #000000; stroke-width: 0.8; stroke-linejoin: miter; stroke-linecap: square"/>
   </g>
   <g id="patch_11">
    <path d="M 57.17 220.631223 
L 267.705 220.631223 
" style="fill: none; stroke: #000000; stroke-width: 0.8; stroke-linejoin: miter; stroke-linecap: square"/>
   </g>
   <g id="text_28">
    <!-- Green Channel  -->
    <g transform="translate(174.478125 234.631223) scale(0.12 -0.12)">
     <defs>
      <path id="DejaVuSans-47" d="M 3809 666 
L 3809 1919 
L 2778 1919 
L 2778 2438 
L 4434 2438 
L 4434 434 
Q 4069 175 3628 42 
Q 3188 -91 2688 -91 
Q 1594 -91 976 548 
Q 359 1188 359 2328 
Q 359 3472 976 4111 
Q 1594 4750 2688 4750 
Q 3144 4750 3555 4637 
Q 3966 4525 4313 4306 
L 4313 3634 
Q 3963 3931 3569 4081 
Q 3175 4231 2741 4231 
Q 1884 4231 1454 3753 
Q 1025 3275 1025 2328 
Q 1025 1384 1454 906 
Q 1884 428 2741 428 
Q 3075 428 3337 486 
Q 3600 544 3809 666 
z
" transform="scale(0.015625)"/>
     </defs>
     <use xlink:href="#DejaVuSans-47"/>
     <use xlink:href="#DejaVuSans-72" x="77.490234"/>
     <use xlink:href="#DejaVuSans-65" x="116.353516"/>
     <use xlink:href="#DejaVuSans-65" x="177.876953"/>
     <use xlink:href="#DejaVuSans-6e" x="239.400391"/>
     <use xlink:href="#DejaVuSans-20" x="302.779297"/>
     <use xlink:href="#DejaVuSans-43" x="334.566406"/>
     <use xlink:href="#DejaVuSans-68" x="404.390625"/>
     <use xlink:href="#DejaVuSans-61" x="467.769531"/>
     <use xlink:href="#DejaVuSans-6e" x="529.048828"/>
     <use xlink:href="#DejaVuSans-6e" x="592.427734"/>
     <use xlink:href="#DejaVuSans-65" x="655.806641"/>
     <use xlink:href="#DejaVuSans-6c" x="717.330078"/>
     <use xlink:href="#DejaVuSans-20" x="745.113281"/>
    </g>
   </g>
  </g>
  <g id="axes_3">
   <g id="patch_12">
    <path d="M 57.17 606.04 
L 267.705 606.04 
L 267.705 427.275611 
L 57.17 427.275611 
z
" style="fill: #ffffff"/>
   </g>
   <g id="PolyCollection_3">
    <path d="M 15.063 597.914346 
L 15.063 597.914346 
L 17.16835 597.914346 
L 19.2737 597.914346 
L 21.37905 597.914346 
L 23.4844 597.914346 
L 25.58975 597.914346 
L 27.6951 597.914346 
L 29.80045 597.914346 
L 31.9058 597.914346 
L 34.01115 597.914346 
L 36.1165 597.914346 
L 38.22185 597.914346 
L 40.3272 597.914346 
L 42.43255 597.865352 
L 44.5379 597.816358 
L 46.64325 597.767364 
L 48.7486 597.326418 
L 50.85395 597.4734 
L 52.9593 597.375412 
L 55.06465 596.73849 
L 57.17 594.77873 
L 59.27535 593.945832 
L 61.3807 588.948445 
L 63.48605 578.659706 
L 65.5914 562.295712 
L 67.69675 536.622859 
L 69.8021 504.972738 
L 71.90745 470.235996 
L 74.0128 439.173803 
L 76.11815 435.401265 
L 78.2235 442.701371 
L 80.32885 459.016371 
L 82.4342 475.968293 
L 84.53955 492.087317 
L 86.6449 509.333203 
L 88.75025 521.67969 
L 90.8556 532.850321 
L 92.96095 538.386642 
L 95.0663 543.629 
L 97.17165 543.286042 
L 99.277 547.401537 
L 101.38235 547.940471 
L 103.4877 548.871357 
L 105.59305 553.623775 
L 107.6984 553.427799 
L 109.80375 555.142589 
L 111.9091 559.160096 
L 114.01445 561.070862 
L 116.1198 563.912514 
L 118.22515 565.529315 
L 120.3305 567.391087 
L 122.43585 566.901147 
L 124.5412 571.604571 
L 126.64655 573.368355 
L 128.7519 573.907289 
L 130.85725 575.52409 
L 132.9626 578.95367 
L 135.06795 579.884556 
L 137.1733 581.060412 
L 139.27865 583.167154 
L 141.384 581.256388 
L 143.48935 583.853069 
L 145.5947 583.167154 
L 147.70005 584.979931 
L 149.8054 584.196027 
L 151.91075 585.518865 
L 154.0161 585.077919 
L 156.12145 586.008805 
L 158.2268 586.841703 
L 160.33215 587.037679 
L 162.4375 588.801463 
L 164.54285 589.683355 
L 166.6482 591.398145 
L 168.75355 591.692109 
L 170.8589 592.231043 
L 172.96425 593.700862 
L 175.0696 593.112934 
L 177.17495 594.28879 
L 179.2803 595.121688 
L 181.38565 595.51364 
L 183.491 595.807604 
L 185.59635 594.925712 
L 187.7017 595.954586 
L 189.80705 596.199556 
L 191.9124 596.24855 
L 194.01775 596.101568 
L 196.1231 596.934466 
L 198.22845 596.885472 
L 200.3338 596.689496 
L 202.43915 597.130442 
L 204.5445 597.130442 
L 206.64985 597.179436 
L 208.7552 597.326418 
L 210.86055 597.22843 
L 212.9659 597.179436 
L 215.07125 597.375412 
L 217.1766 597.4734 
L 219.28195 597.71837 
L 221.3873 597.22843 
L 223.49265 597.767364 
L 225.598 597.375412 
L 227.70335 597.620382 
L 229.8087 597.4734 
L 231.91405 597.620382 
L 234.0194 597.767364 
L 236.12475 597.522394 
L 238.2301 597.620382 
L 240.33545 597.816358 
L 242.4408 597.816358 
L 244.54615 597.816358 
L 246.6515 597.816358 
L 248.75685 597.865352 
L 250.8622 597.816358 
L 252.96755 597.816358 
L 255.0729 597.914346 
L 257.17825 597.71837 
L 259.2836 597.865352 
L 261.38895 597.865352 
L 263.4943 597.816358 
L 265.59965 597.914346 
L 267.705 597.816358 
L 269.81035 597.865352 
L 271.9157 597.914346 
L 274.02105 597.914346 
L 276.1264 597.865352 
L 278.23175 597.914346 
L 280.3371 597.865352 
L 282.44245 597.914346 
L 284.5478 597.865352 
L 286.65315 597.816358 
L 288.7585 597.914346 
L 290.86385 597.865352 
L 292.9692 597.914346 
L 295.07455 597.914346 
L 297.1799 597.914346 
L 299.28525 597.865352 
L 301.3906 597.914346 
L 303.49595 597.914346 
L 305.6013 597.914346 
L 307.70665 597.914346 
L 309.812 597.914346 
L 311.91735 597.914346 
L 314.0227 597.914346 
L 316.12805 597.914346 
L 318.2334 597.914346 
L 320.33875 597.914346 
L 322.4441 597.914346 
L 324.54945 597.914346 
L 326.6548 597.914346 
L 328.76015 597.914346 
L 330.8655 597.914346 
L 332.97085 597.914346 
L 335.0762 597.914346 
L 337.18155 597.914346 
L 339.2869 597.914346 
L 341.39225 597.914346 
L 343.4976 597.914346 
L 345.60295 597.914346 
L 347.7083 597.914346 
L 349.81365 597.914346 
L 351.919 597.914346 
L 354.02435 597.914346 
L 356.1297 597.914346 
L 358.23505 597.914346 
L 360.3404 597.914346 
L 362.44575 597.914346 
L 364.5511 597.914346 
L 366.65645 597.914346 
L 368.7618 597.914346 
L 370.86715 597.914346 
L 372.9725 597.914346 
L 375.07785 597.914346 
L 377.1832 597.914346 
L 379.28855 597.914346 
L 381.3939 597.914346 
L 383.49925 597.914346 
L 385.6046 597.914346 
L 387.70995 597.914346 
L 389.8153 597.914346 
L 391.92065 597.914346 
L 394.026 597.914346 
L 396.13135 597.914346 
L 398.2367 597.914346 
L 400.34205 597.914346 
L 402.4474 597.914346 
L 404.55275 597.914346 
L 406.6581 597.914346 
L 408.76345 597.914346 
L 410.8688 597.914346 
L 412.97415 597.914346 
L 415.0795 597.914346 
L 417.18485 597.914346 
L 419.2902 597.914346 
L 421.39555 597.914346 
L 423.5009 597.914346 
L 425.60625 597.914346 
L 427.7116 597.914346 
L 429.81695 597.914346 
L 431.9223 597.914346 
L 434.02765 597.914346 
L 436.133 597.914346 
L 438.23835 597.914346 
L 440.3437 597.914346 
L 442.44905 597.914346 
L 444.5544 597.914346 
L 446.65975 597.914346 
L 448.7651 597.914346 
L 450.87045 597.914346 
L 452.9758 597.914346 
L 455.08115 597.914346 
L 457.1865 597.914346 
L 459.29185 597.914346 
L 461.3972 597.914346 
L 463.50255 597.914346 
L 465.6079 597.914346 
L 467.71325 597.914346 
L 469.8186 597.914346 
L 471.92395 597.914346 
L 474.0293 597.914346 
L 476.13465 597.914346 
L 478.24 597.914346 
L 480.34535 597.914346 
L 482.4507 597.914346 
L 484.55605 597.914346 
L 486.6614 597.914346 
L 488.76675 597.914346 
L 490.8721 597.914346 
L 492.97745 597.914346 
L 495.0828 597.914346 
L 497.18815 597.914346 
L 499.2935 597.914346 
L 501.39885 597.914346 
L 503.5042 597.914346 
L 505.60955 597.914346 
L 507.7149 597.914346 
L 509.82025 597.914346 
L 511.9256 597.914346 
L 514.03095 597.914346 
L 516.1363 597.914346 
L 518.24165 597.914346 
L 520.347 597.914346 
L 522.45235 597.914346 
L 524.5577 597.914346 
L 526.66305 597.914346 
L 528.7684 597.914346 
L 530.87375 597.914346 
L 532.9791 597.914346 
L 535.08445 597.914346 
L 537.1898 597.914346 
L 539.29515 597.914346 
L 541.4005 597.914346 
L 543.50585 597.914346 
L 545.6112 597.914346 
L 547.71655 597.914346 
L 549.8219 597.914346 
L 551.92725 597.914346 
L 551.92725 597.914346 
L 551.92725 597.914346 
L 549.8219 597.914346 
L 547.71655 597.914346 
L 545.6112 597.914346 
L 543.50585 597.914346 
L 541.4005 597.914346 
L 539.29515 597.914346 
L 537.1898 597.914346 
L 535.08445 597.914346 
L 532.9791 597.914346 
L 530.87375 597.914346 
L 528.7684 597.914346 
L 526.66305 597.914346 
L 524.5577 597.914346 
L 522.45235 597.914346 
L 520.347 597.914346 
L 518.24165 597.914346 
L 516.1363 597.914346 
L 514.03095 597.914346 
L 511.9256 597.914346 
L 509.82025 597.914346 
L 507.7149 597.914346 
L 505.60955 597.914346 
L 503.5042 597.914346 
L 501.39885 597.914346 
L 499.2935 597.914346 
L 497.18815 597.914346 
L 495.0828 597.914346 
L 492.97745 597.914346 
L 490.8721 597.914346 
L 488.76675 597.914346 
L 486.6614 597.914346 
L 484.55605 597.914346 
L 482.4507 597.914346 
L 480.34535 597.914346 
L 478.24 597.914346 
L 476.13465 597.914346 
L 474.0293 597.914346 
L 471.92395 597.914346 
L 469.8186 597.914346 
L 467.71325 597.914346 
L 465.6079 597.914346 
L 463.50255 597.914346 
L 461.3972 597.914346 
L 459.29185 597.914346 
L 457.1865 597.914346 
L 455.08115 597.914346 
L 452.9758 597.914346 
L 450.87045 597.914346 
L 448.7651 597.914346 
L 446.65975 597.914346 
L 444.5544 597.914346 
L 442.44905 597.914346 
L 440.3437 597.914346 
L 438.23835 597.914346 
L 436.133 597.914346 
L 434.02765 597.914346 
L 431.9223 597.914346 
L 429.81695 597.914346 
L 427.7116 597.914346 
L 425.60625 597.914346 
L 423.5009 597.914346 
L 421.39555 597.914346 
L 419.2902 597.914346 
L 417.18485 597.914346 
L 415.0795 597.914346 
L 412.97415 597.914346 
L 410.8688 597.914346 
L 408.76345 597.914346 
L 406.6581 597.914346 
L 404.55275 597.914346 
L 402.4474 597.914346 
L 400.34205 597.914346 
L 398.2367 597.914346 
L 396.13135 597.914346 
L 394.026 597.914346 
L 391.92065 597.914346 
L 389.8153 597.914346 
L 387.70995 597.914346 
L 385.6046 597.914346 
L 383.49925 597.914346 
L 381.3939 597.914346 
L 379.28855 597.914346 
L 377.1832 597.914346 
L 375.07785 597.914346 
L 372.9725 597.914346 
L 370.86715 597.914346 
L 368.7618 597.914346 
L 366.65645 597.914346 
L 364.5511 597.914346 
L 362.44575 597.914346 
L 360.3404 597.914346 
L 358.23505 597.914346 
L 356.1297 597.914346 
L 354.02435 597.914346 
L 351.919 597.914346 
L 349.81365 597.914346 
L 347.7083 597.914346 
L 345.60295 597.914346 
L 343.4976 597.914346 
L 341.39225 597.914346 
L 339.2869 597.914346 
L 337.18155 597.914346 
L 335.0762 597.914346 
L 332.97085 597.914346 
L 330.8655 597.914346 
L 328.76015 597.914346 
L 326.6548 597.914346 
L 324.54945 597.914346 
L 322.4441 597.914346 
L 320.33875 597.914346 
L 318.2334 597.914346 
L 316.12805 597.914346 
L 314.0227 597.914346 
L 311.91735 597.914346 
L 309.812 597.914346 
L 307.70665 597.914346 
L 305.6013 597.914346 
L 303.49595 597.914346 
L 301.3906 597.914346 
L 299.28525 597.914346 
L 297.1799 597.914346 
L 295.07455 597.914346 
L 292.9692 597.914346 
L 290.86385 597.914346 
L 288.7585 597.914346 
L 286.65315 597.914346 
L 284.5478 597.914346 
L 282.44245 597.914346 
L 280.3371 597.914346 
L 278.23175 597.914346 
L 276.1264 597.914346 
L 274.02105 597.914346 
L 271.9157 597.914346 
L 269.81035 597.914346 
L 267.705 597.914346 
L 265.59965 597.914346 
L 263.4943 597.914346 
L 261.38895 597.914346 
L 259.2836 597.914346 
L 257.17825 597.914346 
L 255.0729 597.914346 
L 252.96755 597.914346 
L 250.8622 597.914346 
L 248.75685 597.914346 
L 246.6515 597.914346 
L 244.54615 597.914346 
L 242.4408 597.914346 
L 240.33545 597.914346 
L 238.2301 597.914346 
L 236.12475 597.914346 
L 234.0194 597.914346 
L 231.91405 597.914346 
L 229.8087 597.914346 
L 227.70335 597.914346 
L 225.598 597.914346 
L 223.49265 597.914346 
L 221.3873 597.914346 
L 219.28195 597.914346 
L 217.1766 597.914346 
L 215.07125 597.914346 
L 212.9659 597.914346 
L 210.86055 597.914346 
L 208.7552 597.914346 
L 206.64985 597.914346 
L 204.5445 597.914346 
L 202.43915 597.914346 
L 200.3338 597.914346 
L 198.22845 597.914346 
L 196.1231 597.914346 
L 194.01775 597.914346 
L 191.9124 597.914346 
L 189.80705 597.914346 
L 187.7017 597.914346 
L 185.59635 597.914346 
L 183.491 597.914346 
L 181.38565 597.914346 
L 179.2803 597.914346 
L 177.17495 597.914346 
L 175.0696 597.914346 
L 172.96425 597.914346 
L 170.8589 597.914346 
L 168.75355 597.914346 
L 166.6482 597.914346 
L 164.54285 597.914346 
L 162.4375 597.914346 
L 160.33215 597.914346 
L 158.2268 597.914346 
L 156.12145 597.914346 
L 154.0161 597.914346 
L 151.91075 597.914346 
L 149.8054 597.914346 
L 147.70005 597.914346 
L 145.5947 597.914346 
L 143.48935 597.914346 
L 141.384 597.914346 
L 139.27865 597.914346 
L 137.1733 597.914346 
L 135.06795 597.914346 
L 132.9626 597.914346 
L 130.85725 597.914346 
L 128.7519 597.914346 
L 126.64655 597.914346 
L 124.5412 597.914346 
L 122.43585 597.914346 
L 120.3305 597.914346 
L 118.22515 597.914346 
L 116.1198 597.914346 
L 114.01445 597.914346 
L 111.9091 597.914346 
L 109.80375 597.914346 
L 107.6984 597.914346 
L 105.59305 597.914346 
L 103.4877 597.914346 
L 101.38235 597.914346 
L 99.277 597.914346 
L 97.17165 597.914346 
L 95.0663 597.914346 
L 92.96095 597.914346 
L 90.8556 597.914346 
L 88.75025 597.914346 
L 86.6449 597.914346 
L 84.53955 597.914346 
L 82.4342 597.914346 
L 80.32885 597.914346 
L 78.2235 597.914346 
L 76.11815 597.914346 
L 74.0128 597.914346 
L 71.90745 597.914346 
L 69.8021 597.914346 
L 67.69675 597.914346 
L 65.5914 597.914346 
L 63.48605 597.914346 
L 61.3807 597.914346 
L 59.27535 597.914346 
L 57.17 597.914346 
L 55.06465 597.914346 
L 52.9593 597.914346 
L 50.85395 597.914346 
L 48.7486 597.914346 
L 46.64325 597.914346 
L 44.5379 597.914346 
L 42.43255 597.914346 
L 40.3272 597.914346 
L 38.22185 597.914346 
L 36.1165 597.914346 
L 34.01115 597.914346 
L 31.9058 597.914346 
L 29.80045 597.914346 
L 27.6951 597.914346 
L 25.58975 597.914346 
L 23.4844 597.914346 
L 21.37905 597.914346 
L 19.2737 597.914346 
L 17.16835 597.914346 
L 15.063 597.914346 
z
" clip-path="url(#pdd10531428)" style="fill: #0000ff; fill-opacity: 0.4; stroke: #0000ff; stroke-opacity: 0.4"/>
   </g>
   <g id="matplotlib.axis_5">
    <g id="xtick_13">
     <g id="line2d_27">
      <g>
       <use xlink:href="#ma2452c0c93" x="57.17" y="606.04" style="stroke: #000000; stroke-width: 0.8"/>
      </g>
     </g>
     <g id="text_29">
      <!-- 20 -->
      <g transform="translate(50.8075 620.638438) scale(0.1 -0.1)">
       <use xlink:href="#DejaVuSans-32"/>
       <use xlink:href="#DejaVuSans-30" x="63.623047"/>
      </g>
     </g>
    </g>
    <g id="xtick_14">
     <g id="line2d_28">
      <g>
       <use xlink:href="#ma2452c0c93" x="99.277" y="606.04" style="stroke: #000000; stroke-width: 0.8"/>
      </g>
     </g>
     <g id="text_30">
      <!-- 40 -->
      <g transform="translate(92.9145 620.638438) scale(0.1 -0.1)">
       <use xlink:href="#DejaVuSans-34"/>
       <use xlink:href="#DejaVuSans-30" x="63.623047"/>
      </g>
     </g>
    </g>
    <g id="xtick_15">
     <g id="line2d_29">
      <g>
       <use xlink:href="#ma2452c0c93" x="141.384" y="606.04" style="stroke: #000000; stroke-width: 0.8"/>
      </g>
     </g>
     <g id="text_31">
      <!-- 60 -->
      <g transform="translate(135.0215 620.638438) scale(0.1 -0.1)">
       <use xlink:href="#DejaVuSans-36"/>
       <use xlink:href="#DejaVuSans-30" x="63.623047"/>
      </g>
     </g>
    </g>
    <g id="xtick_16">
     <g id="line2d_30">
      <g>
       <use xlink:href="#ma2452c0c93" x="183.491" y="606.04" style="stroke: #000000; stroke-width: 0.8"/>
      </g>
     </g>
     <g id="text_32">
      <!-- 80 -->
      <g transform="translate(177.1285 620.638438) scale(0.1 -0.1)">
       <use xlink:href="#DejaVuSans-38"/>
       <use xlink:href="#DejaVuSans-30" x="63.623047"/>
      </g>
     </g>
    </g>
    <g id="xtick_17">
     <g id="line2d_31">
      <g>
       <use xlink:href="#ma2452c0c93" x="225.598" y="606.04" style="stroke: #000000; stroke-width: 0.8"/>
      </g>
     </g>
     <g id="text_33">
      <!-- 100 -->
      <g transform="translate(216.05425 620.638438) scale(0.1 -0.1)">
       <use xlink:href="#DejaVuSans-31"/>
       <use xlink:href="#DejaVuSans-30" x="63.623047"/>
       <use xlink:href="#DejaVuSans-30" x="127.246094"/>
      </g>
     </g>
    </g>
    <g id="xtick_18">
     <g id="line2d_32">
      <g>
       <use xlink:href="#ma2452c0c93" x="267.705" y="606.04" style="stroke: #000000; stroke-width: 0.8"/>
      </g>
     </g>
     <g id="text_34">
      <!-- 120 -->
      <g transform="translate(258.16125 620.638438) scale(0.1 -0.1)">
       <use xlink:href="#DejaVuSans-31"/>
       <use xlink:href="#DejaVuSans-32" x="63.623047"/>
       <use xlink:href="#DejaVuSans-30" x="127.246094"/>
      </g>
     </g>
    </g>
    <g id="text_35">
     <!-- Pixel Intensity -->
     <g transform="translate(127.525781 634.316563) scale(0.1 -0.1)">
      <defs>
       <path id="DejaVuSans-49" d="M 628 4666 
L 1259 4666 
L 1259 0 
L 628 0 
L 628 4666 
z
" transform="scale(0.015625)"/>
       <path id="DejaVuSans-74" d="M 1172 4494 
L 1172 3500 
L 2356 3500 
L 2356 3053 
L 1172 3053 
L 1172 1153 
Q 1172 725 1289 603 
Q 1406 481 1766 481 
L 2356 481 
L 2356 0 
L 1766 0 
Q 1100 0 847 248 
Q 594 497 594 1153 
L 594 3053 
L 172 3053 
L 172 3500 
L 594 3500 
L 594 4494 
L 1172 4494 
z
" transform="scale(0.015625)"/>
       <path id="DejaVuSans-73" d="M 2834 3397 
L 2834 2853 
Q 2591 2978 2328 3040 
Q 2066 3103 1784 3103 
Q 1356 3103 1142 2972 
Q 928 2841 928 2578 
Q 928 2378 1081 2264 
Q 1234 2150 1697 2047 
L 1894 2003 
Q 2506 1872 2764 1633 
Q 3022 1394 3022 966 
Q 3022 478 2636 193 
Q 2250 -91 1575 -91 
Q 1294 -91 989 -36 
Q 684 19 347 128 
L 347 722 
Q 666 556 975 473 
Q 1284 391 1588 391 
Q 1994 391 2212 530 
Q 2431 669 2431 922 
Q 2431 1156 2273 1281 
Q 2116 1406 1581 1522 
L 1381 1569 
Q 847 1681 609 1914 
Q 372 2147 372 2553 
Q 372 3047 722 3315 
Q 1072 3584 1716 3584 
Q 2034 3584 2315 3537 
Q 2597 3491 2834 3397 
z
" transform="scale(0.015625)"/>
      </defs>
      <use xlink:href="#DejaVuSans-50"/>
      <use xlink:href="#DejaVuSans-69" x="58.052734"/>
      <use xlink:href="#DejaVuSans-78" x="85.835938"/>
      <use xlink:href="#DejaVuSans-65" x="141.890625"/>
      <use xlink:href="#DejaVuSans-6c" x="203.414062"/>
      <use xlink:href="#DejaVuSans-20" x="231.197266"/>
      <use xlink:href="#DejaVuSans-49" x="262.984375"/>
      <use xlink:href="#DejaVuSans-6e" x="292.476562"/>
      <use xlink:href="#DejaVuSans-74" x="355.855469"/>
      <use xlink:href="#DejaVuSans-65" x="395.064453"/>
      <use xlink:href="#DejaVuSans-6e" x="456.587891"/>
      <use xlink:href="#DejaVuSans-73" x="519.966797"/>
      <use xlink:href="#DejaVuSans-69" x="572.066406"/>
      <use xlink:href="#DejaVuSans-74" x="599.849609"/>
      <use xlink:href="#DejaVuSans-79" x="639.058594"/>
     </g>
    </g>
   </g>
   <g id="matplotlib.axis_6">
    <g id="ytick_13">
     <g id="line2d_33">
      <g>
       <use xlink:href="#mfcbc655bf8" x="57.17" y="597.914346" style="stroke: #000000; stroke-width: 0.8"/>
      </g>
     </g>
     <g id="text_36">
      <!-- 0 -->
      <g transform="translate(43.8075 601.713565) scale(0.1 -0.1)">
       <use xlink:href="#DejaVuSans-30"/>
      </g>
     </g>
    </g>
    <g id="ytick_14">
     <g id="line2d_34">
      <g>
       <use xlink:href="#mfcbc655bf8" x="57.17" y="573.417349" style="stroke: #000000; stroke-width: 0.8"/>
      </g>
     </g>
     <g id="text_37">
      <!-- 500 -->
      <g transform="translate(31.0825 577.216567) scale(0.1 -0.1)">
       <use xlink:href="#DejaVuSans-35"/>
       <use xlink:href="#DejaVuSans-30" x="63.623047"/>
       <use xlink:href="#DejaVuSans-30" x="127.246094"/>
      </g>
     </g>
    </g>
    <g id="ytick_15">
     <g id="line2d_35">
      <g>
       <use xlink:href="#mfcbc655bf8" x="57.17" y="548.920351" style="stroke: #000000; stroke-width: 0.8"/>
      </g>
     </g>
     <g id="text_38">
      <!-- 1000 -->
      <g transform="translate(24.72 552.71957) scale(0.1 -0.1)">
       <use xlink:href="#DejaVuSans-31"/>
       <use xlink:href="#DejaVuSans-30" x="63.623047"/>
       <use xlink:href="#DejaVuSans-30" x="127.246094"/>
       <use xlink:href="#DejaVuSans-30" x="190.869141"/>
      </g>
     </g>
    </g>
    <g id="ytick_16">
     <g id="line2d_36">
      <g>
       <use xlink:href="#mfcbc655bf8" x="57.17" y="524.423354" style="stroke: #000000; stroke-width: 0.8"/>
      </g>
     </g>
     <g id="text_39">
      <!-- 1500 -->
      <g transform="translate(24.72 528.222573) scale(0.1 -0.1)">
       <use xlink:href="#DejaVuSans-31"/>
       <use xlink:href="#DejaVuSans-35" x="63.623047"/>
       <use xlink:href="#DejaVuSans-30" x="127.246094"/>
       <use xlink:href="#DejaVuSans-30" x="190.869141"/>
      </g>
     </g>
    </g>
    <g id="ytick_17">
     <g id="line2d_37">
      <g>
       <use xlink:href="#mfcbc655bf8" x="57.17" y="499.926356" style="stroke: #000000; stroke-width: 0.8"/>
      </g>
     </g>
     <g id="text_40">
      <!-- 2000 -->
      <g transform="translate(24.72 503.725575) scale(0.1 -0.1)">
       <use xlink:href="#DejaVuSans-32"/>
       <use xlink:href="#DejaVuSans-30" x="63.623047"/>
       <use xlink:href="#DejaVuSans-30" x="127.246094"/>
       <use xlink:href="#DejaVuSans-30" x="190.869141"/>
      </g>
     </g>
    </g>
    <g id="ytick_18">
     <g id="line2d_38">
      <g>
       <use xlink:href="#mfcbc655bf8" x="57.17" y="475.429359" style="stroke: #000000; stroke-width: 0.8"/>
      </g>
     </g>
     <g id="text_41">
      <!-- 2500 -->
      <g transform="translate(24.72 479.228578) scale(0.1 -0.1)">
       <use xlink:href="#DejaVuSans-32"/>
       <use xlink:href="#DejaVuSans-35" x="63.623047"/>
       <use xlink:href="#DejaVuSans-30" x="127.246094"/>
       <use xlink:href="#DejaVuSans-30" x="190.869141"/>
      </g>
     </g>
    </g>
    <g id="ytick_19">
     <g id="line2d_39">
      <g>
       <use xlink:href="#mfcbc655bf8" x="57.17" y="450.932362" style="stroke: #000000; stroke-width: 0.8"/>
      </g>
     </g>
     <g id="text_42">
      <!-- 3000 -->
      <g transform="translate(24.72 454.73158) scale(0.1 -0.1)">
       <use xlink:href="#DejaVuSans-33"/>
       <use xlink:href="#DejaVuSans-30" x="63.623047"/>
       <use xlink:href="#DejaVuSans-30" x="127.246094"/>
       <use xlink:href="#DejaVuSans-30" x="190.869141"/>
      </g>
     </g>
    </g>
    <g id="text_43">
     <!-- Pixel Frequency -->
     <g transform="translate(18.640313 555.636712) rotate(-90) scale(0.1 -0.1)">
      <use xlink:href="#DejaVuSans-50"/>
      <use xlink:href="#DejaVuSans-69" x="58.052734"/>
      <use xlink:href="#DejaVuSans-78" x="85.835938"/>
      <use xlink:href="#DejaVuSans-65" x="141.890625"/>
      <use xlink:href="#DejaVuSans-6c" x="203.414062"/>
      <use xlink:href="#DejaVuSans-20" x="231.197266"/>
      <use xlink:href="#DejaVuSans-46" x="262.984375"/>
      <use xlink:href="#DejaVuSans-72" x="313.253906"/>
      <use xlink:href="#DejaVuSans-65" x="352.117188"/>
      <use xlink:href="#DejaVuSans-71" x="413.640625"/>
      <use xlink:href="#DejaVuSans-75" x="477.117188"/>
      <use xlink:href="#DejaVuSans-65" x="540.496094"/>
      <use xlink:href="#DejaVuSans-6e" x="602.019531"/>
      <use xlink:href="#DejaVuSans-63" x="665.398438"/>
      <use xlink:href="#DejaVuSans-79" x="720.378906"/>
     </g>
    </g>
   </g>
   <g id="line2d_40">
    <path d="M 15.063 597.914346 
L 44.5379 597.816358 
L 46.64325 597.767364 
L 48.7486 597.326418 
L 50.85395 597.4734 
L 52.9593 597.375412 
L 55.06465 596.73849 
L 57.17 594.77873 
L 59.27535 593.945832 
L 61.3807 588.948445 
L 63.48605 578.659706 
L 65.5914 562.295712 
L 67.69675 536.622859 
L 69.8021 504.972738 
L 71.90745 470.235996 
L 74.0128 439.173803 
L 76.11815 435.401265 
L 78.2235 442.701371 
L 84.53955 492.087317 
L 86.6449 509.333203 
L 88.75025 521.67969 
L 90.8556 532.850321 
L 95.0663 543.629 
L 97.17165 543.286042 
L 99.277 547.401537 
L 101.38235 547.940471 
L 103.4877 548.871357 
L 105.59305 553.623775 
L 107.6984 553.427799 
L 109.80375 555.142589 
L 111.9091 559.160096 
L 114.01445 561.070862 
L 116.1198 563.912514 
L 118.22515 565.529315 
L 120.3305 567.391087 
L 122.43585 566.901147 
L 124.5412 571.604571 
L 126.64655 573.368355 
L 128.7519 573.907289 
L 130.85725 575.52409 
L 132.9626 578.95367 
L 135.06795 579.884556 
L 137.1733 581.060412 
L 139.27865 583.167154 
L 141.384 581.256388 
L 143.48935 583.853069 
L 145.5947 583.167154 
L 147.70005 584.979931 
L 149.8054 584.196027 
L 151.91075 585.518865 
L 154.0161 585.077919 
L 158.2268 586.841703 
L 160.33215 587.037679 
L 162.4375 588.801463 
L 164.54285 589.683355 
L 166.6482 591.398145 
L 168.75355 591.692109 
L 170.8589 592.231043 
L 172.96425 593.700862 
L 175.0696 593.112934 
L 177.17495 594.28879 
L 179.2803 595.121688 
L 183.491 595.807604 
L 185.59635 594.925712 
L 187.7017 595.954586 
L 189.80705 596.199556 
L 191.9124 596.24855 
L 194.01775 596.101568 
L 196.1231 596.934466 
L 198.22845 596.885472 
L 200.3338 596.689496 
L 202.43915 597.130442 
L 206.64985 597.179436 
L 208.7552 597.326418 
L 212.9659 597.179436 
L 219.28195 597.71837 
L 221.3873 597.22843 
L 223.49265 597.767364 
L 225.598 597.375412 
L 227.70335 597.620382 
L 229.8087 597.4734 
L 234.0194 597.767364 
L 236.12475 597.522394 
L 244.54615 597.816358 
L 289 597.908726 
L 289 597.908726 
" clip-path="url(#pdd10531428)" style="fill: none; stroke: #0000ff; stroke-width: 1.5; stroke-linecap: square"/>
   </g>
   <g id="patch_13">
    <path d="M 57.17 606.04 
L 57.17 427.275611 
" style="fill: none; stroke: #000000; stroke-width: 0.8; stroke-linejoin: miter; stroke-linecap: square"/>
   </g>
   <g id="patch_14">
    <path d="M 267.705 606.04 
L 267.705 427.275611 
" style="fill: none; stroke: #000000; stroke-width: 0.8; stroke-linejoin: miter; stroke-linecap: square"/>
   </g>
   <g id="patch_15">
    <path d="M 57.17 606.04 
L 267.705 606.04 
" style="fill: none; stroke: #000000; stroke-width: 0.8; stroke-linejoin: miter; stroke-linecap: square"/>
   </g>
   <g id="patch_16">
    <path d="M 57.17 427.275611 
L 267.705 427.275611 
" style="fill: none; stroke: #000000; stroke-width: 0.8; stroke-linejoin: miter; stroke-linecap: square"/>
   </g>
   <g id="text_44">
    <!-- Blue Channel  -->
    <g transform="translate(184.25625 441.275611) scale(0.12 -0.12)">
     <defs>
      <path id="DejaVuSans-42" d="M 1259 2228 
L 1259 519 
L 2272 519 
Q 2781 519 3026 730 
Q 3272 941 3272 1375 
Q 3272 1813 3026 2020 
Q 2781 2228 2272 2228 
L 1259 2228 
z
M 1259 4147 
L 1259 2741 
L 2194 2741 
Q 2656 2741 2882 2914 
Q 3109 3088 3109 3444 
Q 3109 3797 2882 3972 
Q 2656 4147 2194 4147 
L 1259 4147 
z
M 628 4666 
L 2241 4666 
Q 2963 4666 3353 4366 
Q 3744 4066 3744 3513 
Q 3744 3084 3544 2831 
Q 3344 2578 2956 2516 
Q 3422 2416 3680 2098 
Q 3938 1781 3938 1306 
Q 3938 681 3513 340 
Q 3088 0 2303 0 
L 628 0 
L 628 4666 
z
" transform="scale(0.015625)"/>
     </defs>
     <use xlink:href="#DejaVuSans-42"/>
     <use xlink:href="#DejaVuSans-6c" x="68.603516"/>
     <use xlink:href="#DejaVuSans-75" x="96.386719"/>
     <use xlink:href="#DejaVuSans-65" x="159.765625"/>
     <use xlink:href="#DejaVuSans-20" x="221.289062"/>
     <use xlink:href="#DejaVuSans-43" x="253.076172"/>
     <use xlink:href="#DejaVuSans-68" x="322.900391"/>
     <use xlink:href="#DejaVuSans-61" x="386.279297"/>
     <use xlink:href="#DejaVuSans-6e" x="447.558594"/>
     <use xlink:href="#DejaVuSans-6e" x="510.9375"/>
     <use xlink:href="#DejaVuSans-65" x="574.316406"/>
     <use xlink:href="#DejaVuSans-6c" x="635.839844"/>
     <use xlink:href="#DejaVuSans-20" x="663.623047"/>
    </g>
   </g>
  </g>
 </g>
 <defs>
  <clipPath id="pafdbc590d8">
   <rect x="57.17" y="13.986834" width="210.535" height="178.764389"/>
  </clipPath>
  <clipPath id="p2b29569141">
   <rect x="57.17" y="220.631223" width="210.535" height="178.764389"/>
  </clipPath>
  <clipPath id="pdd10531428">
   <rect x="57.17" y="427.275611" width="210.535" height="178.764389"/>
  </clipPath>
 </defs>
</svg>
