<?xml version="1.0" encoding="utf-8" standalone="no"?>
<!DOCTYPE svg PUBLIC "-//W3C//DTD SVG 1.1//EN"
  "http://www.w3.org/Graphics/SVG/1.1/DTD/svg11.dtd">
<svg xmlns:xlink="http://www.w3.org/1999/xlink" width="720pt" height="360pt" viewBox="0 0 720 360" xmlns="http://www.w3.org/2000/svg" version="1.1">
 <metadata>
  <rdf:RDF xmlns:dc="http://purl.org/dc/elements/1.1/" xmlns:cc="http://creativecommons.org/ns#" xmlns:rdf="http://www.w3.org/1999/02/22-rdf-syntax-ns#">
   <cc:Work>
    <dc:type rdf:resource="http://purl.org/dc/dcmitype/StillImage"/>
    <dc:date>2023-09-26T11:39:29.081545</dc:date>
    <dc:format>image/svg+xml</dc:format>
    <dc:creator>
     <cc:Agent>
      <dc:title>Matplotlib v3.8.0, https://matplotlib.org/</dc:title>
     </cc:Agent>
    </dc:creator>
   </cc:Work>
  </rdf:RDF>
 </metadata>
 <defs>
  <style type="text/css">*{stroke-linejoin: round; stroke-linecap: butt}</style>
 </defs>
 <g id="figure_1">
  <g id="patch_1">
   <path d="M 0 360 
L 720 360 
L 720 0 
L 0 0 
z
" style="fill: #ffffff"/>
  </g>
  <g id="axes_1">
   <g id="patch_2">
    <path d="M 90 320.4 
L 648 320.4 
L 648 43.2 
L 90 43.2 
z
" style="fill: #ffffff"/>
   </g>
   <g id="matplotlib.axis_1">
    <g id="xtick_1">
     <g id="line2d_1">
      <defs>
       <path id="m9a74f28c0c" d="M 0 0 
L 0 3.5 
" style="stroke: #000000; stroke-width: 0.8"/>
      </defs>
      <g>
       <use xlink:href="#m9a74f28c0c" x="150.715026" y="320.4" style="stroke: #000000; stroke-width: 0.8"/>
      </g>
     </g>
     <g id="text_1">
      <!-- 50 -->
      <g transform="translate(144.352526 334.998438) scale(0.1 -0.1)">
       <defs>
        <path id="DejaVuSans-35" d="M 691 4666 
L 3169 4666 
L 3169 4134 
L 1269 4134 
L 1269 2991 
Q 1406 3038 1543 3061 
Q 1681 3084 1819 3084 
Q 2600 3084 3056 2656 
Q 3513 2228 3513 1497 
Q 3513 744 3044 326 
Q 2575 -91 1722 -91 
Q 1428 -91 1123 -41 
Q 819 9 494 109 
L 494 744 
Q 775 591 1075 516 
Q 1375 441 1709 441 
Q 2250 441 2565 725 
Q 2881 1009 2881 1497 
Q 2881 1984 2565 2268 
Q 2250 2553 1709 2553 
Q 1456 2553 1204 2497 
Q 953 2441 691 2322 
L 691 4666 
z
" transform="scale(0.015625)"/>
        <path id="DejaVuSans-30" d="M 2034 4250 
Q 1547 4250 1301 3770 
Q 1056 3291 1056 2328 
Q 1056 1369 1301 889 
Q 1547 409 2034 409 
Q 2525 409 2770 889 
Q 3016 1369 3016 2328 
Q 3016 3291 2770 3770 
Q 2525 4250 2034 4250 
z
M 2034 4750 
Q 2819 4750 3233 4129 
Q 3647 3509 3647 2328 
Q 3647 1150 3233 529 
Q 2819 -91 2034 -91 
Q 1250 -91 836 529 
Q 422 1150 422 2328 
Q 422 3509 836 4129 
Q 1250 4750 2034 4750 
z
" transform="scale(0.015625)"/>
       </defs>
       <use xlink:href="#DejaVuSans-35"/>
       <use xlink:href="#DejaVuSans-30" x="63.623047"/>
      </g>
     </g>
    </g>
    <g id="xtick_2">
     <g id="line2d_2">
      <g>
       <use xlink:href="#m9a74f28c0c" x="222.994819" y="320.4" style="stroke: #000000; stroke-width: 0.8"/>
      </g>
     </g>
     <g id="text_2">
      <!-- 75 -->
      <g transform="translate(216.632319 334.998438) scale(0.1 -0.1)">
       <defs>
        <path id="DejaVuSans-37" d="M 525 4666 
L 3525 4666 
L 3525 4397 
L 1831 0 
L 1172 0 
L 2766 4134 
L 525 4134 
L 525 4666 
z
" transform="scale(0.015625)"/>
       </defs>
       <use xlink:href="#DejaVuSans-37"/>
       <use xlink:href="#DejaVuSans-35" x="63.623047"/>
      </g>
     </g>
    </g>
    <g id="xtick_3">
     <g id="line2d_3">
      <g>
       <use xlink:href="#m9a74f28c0c" x="295.274611" y="320.4" style="stroke: #000000; stroke-width: 0.8"/>
      </g>
     </g>
     <g id="text_3">
      <!-- 100 -->
      <g transform="translate(285.730861 334.998438) scale(0.1 -0.1)">
       <defs>
        <path id="DejaVuSans-31" d="M 794 531 
L 1825 531 
L 1825 4091 
L 703 3866 
L 703 4441 
L 1819 4666 
L 2450 4666 
L 2450 531 
L 3481 531 
L 3481 0 
L 794 0 
L 794 531 
z
" transform="scale(0.015625)"/>
       </defs>
       <use xlink:href="#DejaVuSans-31"/>
       <use xlink:href="#DejaVuSans-30" x="63.623047"/>
       <use xlink:href="#DejaVuSans-30" x="127.246094"/>
      </g>
     </g>
    </g>
    <g id="xtick_4">
     <g id="line2d_4">
      <g>
       <use xlink:href="#m9a74f28c0c" x="367.554404" y="320.4" style="stroke: #000000; stroke-width: 0.8"/>
      </g>
     </g>
     <g id="text_4">
      <!-- 125 -->
      <g transform="translate(358.010654 334.998438) scale(0.1 -0.1)">
       <defs>
        <path id="DejaVuSans-32" d="M 1228 531 
L 3431 531 
L 3431 0 
L 469 0 
L 469 531 
Q 828 903 1448 1529 
Q 2069 2156 2228 2338 
Q 2531 2678 2651 2914 
Q 2772 3150 2772 3378 
Q 2772 3750 2511 3984 
Q 2250 4219 1831 4219 
Q 1534 4219 1204 4116 
Q 875 4013 500 3803 
L 500 4441 
Q 881 4594 1212 4672 
Q 1544 4750 1819 4750 
Q 2544 4750 2975 4387 
Q 3406 4025 3406 3419 
Q 3406 3131 3298 2873 
Q 3191 2616 2906 2266 
Q 2828 2175 2409 1742 
Q 1991 1309 1228 531 
z
" transform="scale(0.015625)"/>
       </defs>
       <use xlink:href="#DejaVuSans-31"/>
       <use xlink:href="#DejaVuSans-32" x="63.623047"/>
       <use xlink:href="#DejaVuSans-35" x="127.246094"/>
      </g>
     </g>
    </g>
    <g id="xtick_5">
     <g id="line2d_5">
      <g>
       <use xlink:href="#m9a74f28c0c" x="439.834197" y="320.4" style="stroke: #000000; stroke-width: 0.8"/>
      </g>
     </g>
     <g id="text_5">
      <!-- 150 -->
      <g transform="translate(430.290447 334.998438) scale(0.1 -0.1)">
       <use xlink:href="#DejaVuSans-31"/>
       <use xlink:href="#DejaVuSans-35" x="63.623047"/>
       <use xlink:href="#DejaVuSans-30" x="127.246094"/>
      </g>
     </g>
    </g>
    <g id="xtick_6">
     <g id="line2d_6">
      <g>
       <use xlink:href="#m9a74f28c0c" x="512.11399" y="320.4" style="stroke: #000000; stroke-width: 0.8"/>
      </g>
     </g>
     <g id="text_6">
      <!-- 175 -->
      <g transform="translate(502.57024 334.998438) scale(0.1 -0.1)">
       <use xlink:href="#DejaVuSans-31"/>
       <use xlink:href="#DejaVuSans-37" x="63.623047"/>
       <use xlink:href="#DejaVuSans-35" x="127.246094"/>
      </g>
     </g>
    </g>
    <g id="xtick_7">
     <g id="line2d_7">
      <g>
       <use xlink:href="#m9a74f28c0c" x="584.393782" y="320.4" style="stroke: #000000; stroke-width: 0.8"/>
      </g>
     </g>
     <g id="text_7">
      <!-- 200 -->
      <g transform="translate(574.850032 334.998438) scale(0.1 -0.1)">
       <use xlink:href="#DejaVuSans-32"/>
       <use xlink:href="#DejaVuSans-30" x="63.623047"/>
       <use xlink:href="#DejaVuSans-30" x="127.246094"/>
      </g>
     </g>
    </g>
    <g id="text_8">
     <!-- Pixel Value -->
     <g transform="translate(342.119531 348.676562) scale(0.1 -0.1)">
      <defs>
       <path id="DejaVuSans-50" d="M 1259 4147 
L 1259 2394 
L 2053 2394 
Q 2494 2394 2734 2622 
Q 2975 2850 2975 3272 
Q 2975 3691 2734 3919 
Q 2494 4147 2053 4147 
L 1259 4147 
z
M 628 4666 
L 2053 4666 
Q 2838 4666 3239 4311 
Q 3641 3956 3641 3272 
Q 3641 2581 3239 2228 
Q 2838 1875 2053 1875 
L 1259 1875 
L 1259 0 
L 628 0 
L 628 4666 
z
" transform="scale(0.015625)"/>
       <path id="DejaVuSans-69" d="M 603 3500 
L 1178 3500 
L 1178 0 
L 603 0 
L 603 3500 
z
M 603 4863 
L 1178 4863 
L 1178 4134 
L 603 4134 
L 603 4863 
z
" transform="scale(0.015625)"/>
       <path id="DejaVuSans-78" d="M 3513 3500 
L 2247 1797 
L 3578 0 
L 2900 0 
L 1881 1375 
L 863 0 
L 184 0 
L 1544 1831 
L 300 3500 
L 978 3500 
L 1906 2253 
L 2834 3500 
L 3513 3500 
z
" transform="scale(0.015625)"/>
       <path id="DejaVuSans-65" d="M 3597 1894 
L 3597 1613 
L 953 1613 
Q 991 1019 1311 708 
Q 1631 397 2203 397 
Q 2534 397 2845 478 
Q 3156 559 3463 722 
L 3463 178 
Q 3153 47 2828 -22 
Q 2503 -91 2169 -91 
Q 1331 -91 842 396 
Q 353 884 353 1716 
Q 353 2575 817 3079 
Q 1281 3584 2069 3584 
Q 2775 3584 3186 3129 
Q 3597 2675 3597 1894 
z
M 3022 2063 
Q 3016 2534 2758 2815 
Q 2500 3097 2075 3097 
Q 1594 3097 1305 2825 
Q 1016 2553 972 2059 
L 3022 2063 
z
" transform="scale(0.015625)"/>
       <path id="DejaVuSans-6c" d="M 603 4863 
L 1178 4863 
L 1178 0 
L 603 0 
L 603 4863 
z
" transform="scale(0.015625)"/>
       <path id="DejaVuSans-20" transform="scale(0.015625)"/>
       <path id="DejaVuSans-56" d="M 1831 0 
L 50 4666 
L 709 4666 
L 2188 738 
L 3669 4666 
L 4325 4666 
L 2547 0 
L 1831 0 
z
" transform="scale(0.015625)"/>
       <path id="DejaVuSans-61" d="M 2194 1759 
Q 1497 1759 1228 1600 
Q 959 1441 959 1056 
Q 959 750 1161 570 
Q 1363 391 1709 391 
Q 2188 391 2477 730 
Q 2766 1069 2766 1631 
L 2766 1759 
L 2194 1759 
z
M 3341 1997 
L 3341 0 
L 2766 0 
L 2766 531 
Q 2569 213 2275 61 
Q 1981 -91 1556 -91 
Q 1019 -91 701 211 
Q 384 513 384 1019 
Q 384 1609 779 1909 
Q 1175 2209 1959 2209 
L 2766 2209 
L 2766 2266 
Q 2766 2663 2505 2880 
Q 2244 3097 1772 3097 
Q 1472 3097 1187 3025 
Q 903 2953 641 2809 
L 641 3341 
Q 956 3463 1253 3523 
Q 1550 3584 1831 3584 
Q 2591 3584 2966 3190 
Q 3341 2797 3341 1997 
z
" transform="scale(0.015625)"/>
       <path id="DejaVuSans-75" d="M 544 1381 
L 544 3500 
L 1119 3500 
L 1119 1403 
Q 1119 906 1312 657 
Q 1506 409 1894 409 
Q 2359 409 2629 706 
Q 2900 1003 2900 1516 
L 2900 3500 
L 3475 3500 
L 3475 0 
L 2900 0 
L 2900 538 
Q 2691 219 2414 64 
Q 2138 -91 1772 -91 
Q 1169 -91 856 284 
Q 544 659 544 1381 
z
M 1991 3584 
L 1991 3584 
z
" transform="scale(0.015625)"/>
      </defs>
      <use xlink:href="#DejaVuSans-50"/>
      <use xlink:href="#DejaVuSans-69" x="58.052734"/>
      <use xlink:href="#DejaVuSans-78" x="85.835938"/>
      <use xlink:href="#DejaVuSans-65" x="141.890625"/>
      <use xlink:href="#DejaVuSans-6c" x="203.414062"/>
      <use xlink:href="#DejaVuSans-20" x="231.197266"/>
      <use xlink:href="#DejaVuSans-56" x="262.984375"/>
      <use xlink:href="#DejaVuSans-61" x="323.642578"/>
      <use xlink:href="#DejaVuSans-6c" x="384.921875"/>
      <use xlink:href="#DejaVuSans-75" x="412.705078"/>
      <use xlink:href="#DejaVuSans-65" x="476.083984"/>
     </g>
    </g>
   </g>
   <g id="matplotlib.axis_2">
    <g id="ytick_1">
     <g id="line2d_8">
      <defs>
       <path id="me31bd173ed" d="M 0 0 
L -3.5 0 
" style="stroke: #000000; stroke-width: 0.8"/>
      </defs>
      <g>
       <use xlink:href="#me31bd173ed" x="90" y="307.8" style="stroke: #000000; stroke-width: 0.8"/>
      </g>
     </g>
     <g id="text_9">
      <!-- 0 -->
      <g transform="translate(76.6375 311.599219) scale(0.1 -0.1)">
       <use xlink:href="#DejaVuSans-30"/>
      </g>
     </g>
    </g>
    <g id="ytick_2">
     <g id="line2d_9">
      <g>
       <use xlink:href="#me31bd173ed" x="90" y="276.611881" style="stroke: #000000; stroke-width: 0.8"/>
      </g>
     </g>
     <g id="text_10">
      <!-- 200 -->
      <g transform="translate(63.9125 280.4111) scale(0.1 -0.1)">
       <use xlink:href="#DejaVuSans-32"/>
       <use xlink:href="#DejaVuSans-30" x="63.623047"/>
       <use xlink:href="#DejaVuSans-30" x="127.246094"/>
      </g>
     </g>
    </g>
    <g id="ytick_3">
     <g id="line2d_10">
      <g>
       <use xlink:href="#me31bd173ed" x="90" y="245.423762" style="stroke: #000000; stroke-width: 0.8"/>
      </g>
     </g>
     <g id="text_11">
      <!-- 400 -->
      <g transform="translate(63.9125 249.222981) scale(0.1 -0.1)">
       <defs>
        <path id="DejaVuSans-34" d="M 2419 4116 
L 825 1625 
L 2419 1625 
L 2419 4116 
z
M 2253 4666 
L 3047 4666 
L 3047 1625 
L 3713 1625 
L 3713 1100 
L 3047 1100 
L 3047 0 
L 2419 0 
L 2419 1100 
L 313 1100 
L 313 1709 
L 2253 4666 
z
" transform="scale(0.015625)"/>
       </defs>
       <use xlink:href="#DejaVuSans-34"/>
       <use xlink:href="#DejaVuSans-30" x="63.623047"/>
       <use xlink:href="#DejaVuSans-30" x="127.246094"/>
      </g>
     </g>
    </g>
    <g id="ytick_4">
     <g id="line2d_11">
      <g>
       <use xlink:href="#me31bd173ed" x="90" y="214.235644" style="stroke: #000000; stroke-width: 0.8"/>
      </g>
     </g>
     <g id="text_12">
      <!-- 600 -->
      <g transform="translate(63.9125 218.034862) scale(0.1 -0.1)">
       <defs>
        <path id="DejaVuSans-36" d="M 2113 2584 
Q 1688 2584 1439 2293 
Q 1191 2003 1191 1497 
Q 1191 994 1439 701 
Q 1688 409 2113 409 
Q 2538 409 2786 701 
Q 3034 994 3034 1497 
Q 3034 2003 2786 2293 
Q 2538 2584 2113 2584 
z
M 3366 4563 
L 3366 3988 
Q 3128 4100 2886 4159 
Q 2644 4219 2406 4219 
Q 1781 4219 1451 3797 
Q 1122 3375 1075 2522 
Q 1259 2794 1537 2939 
Q 1816 3084 2150 3084 
Q 2853 3084 3261 2657 
Q 3669 2231 3669 1497 
Q 3669 778 3244 343 
Q 2819 -91 2113 -91 
Q 1303 -91 875 529 
Q 447 1150 447 2328 
Q 447 3434 972 4092 
Q 1497 4750 2381 4750 
Q 2619 4750 2861 4703 
Q 3103 4656 3366 4563 
z
" transform="scale(0.015625)"/>
       </defs>
       <use xlink:href="#DejaVuSans-36"/>
       <use xlink:href="#DejaVuSans-30" x="63.623047"/>
       <use xlink:href="#DejaVuSans-30" x="127.246094"/>
      </g>
     </g>
    </g>
    <g id="ytick_5">
     <g id="line2d_12">
      <g>
       <use xlink:href="#me31bd173ed" x="90" y="183.047525" style="stroke: #000000; stroke-width: 0.8"/>
      </g>
     </g>
     <g id="text_13">
      <!-- 800 -->
      <g transform="translate(63.9125 186.846744) scale(0.1 -0.1)">
       <defs>
        <path id="DejaVuSans-38" d="M 2034 2216 
Q 1584 2216 1326 1975 
Q 1069 1734 1069 1313 
Q 1069 891 1326 650 
Q 1584 409 2034 409 
Q 2484 409 2743 651 
Q 3003 894 3003 1313 
Q 3003 1734 2745 1975 
Q 2488 2216 2034 2216 
z
M 1403 2484 
Q 997 2584 770 2862 
Q 544 3141 544 3541 
Q 544 4100 942 4425 
Q 1341 4750 2034 4750 
Q 2731 4750 3128 4425 
Q 3525 4100 3525 3541 
Q 3525 3141 3298 2862 
Q 3072 2584 2669 2484 
Q 3125 2378 3379 2068 
Q 3634 1759 3634 1313 
Q 3634 634 3220 271 
Q 2806 -91 2034 -91 
Q 1263 -91 848 271 
Q 434 634 434 1313 
Q 434 1759 690 2068 
Q 947 2378 1403 2484 
z
M 1172 3481 
Q 1172 3119 1398 2916 
Q 1625 2713 2034 2713 
Q 2441 2713 2670 2916 
Q 2900 3119 2900 3481 
Q 2900 3844 2670 4047 
Q 2441 4250 2034 4250 
Q 1625 4250 1398 4047 
Q 1172 3844 1172 3481 
z
" transform="scale(0.015625)"/>
       </defs>
       <use xlink:href="#DejaVuSans-38"/>
       <use xlink:href="#DejaVuSans-30" x="63.623047"/>
       <use xlink:href="#DejaVuSans-30" x="127.246094"/>
      </g>
     </g>
    </g>
    <g id="ytick_6">
     <g id="line2d_13">
      <g>
       <use xlink:href="#me31bd173ed" x="90" y="151.859406" style="stroke: #000000; stroke-width: 0.8"/>
      </g>
     </g>
     <g id="text_14">
      <!-- 1000 -->
      <g transform="translate(57.55 155.658625) scale(0.1 -0.1)">
       <use xlink:href="#DejaVuSans-31"/>
       <use xlink:href="#DejaVuSans-30" x="63.623047"/>
       <use xlink:href="#DejaVuSans-30" x="127.246094"/>
       <use xlink:href="#DejaVuSans-30" x="190.869141"/>
      </g>
     </g>
    </g>
    <g id="ytick_7">
     <g id="line2d_14">
      <g>
       <use xlink:href="#me31bd173ed" x="90" y="120.671287" style="stroke: #000000; stroke-width: 0.8"/>
      </g>
     </g>
     <g id="text_15">
      <!-- 1200 -->
      <g transform="translate(57.55 124.470506) scale(0.1 -0.1)">
       <use xlink:href="#DejaVuSans-31"/>
       <use xlink:href="#DejaVuSans-32" x="63.623047"/>
       <use xlink:href="#DejaVuSans-30" x="127.246094"/>
       <use xlink:href="#DejaVuSans-30" x="190.869141"/>
      </g>
     </g>
    </g>
    <g id="ytick_8">
     <g id="line2d_15">
      <g>
       <use xlink:href="#me31bd173ed" x="90" y="89.483168" style="stroke: #000000; stroke-width: 0.8"/>
      </g>
     </g>
     <g id="text_16">
      <!-- 1400 -->
      <g transform="translate(57.55 93.282387) scale(0.1 -0.1)">
       <use xlink:href="#DejaVuSans-31"/>
       <use xlink:href="#DejaVuSans-34" x="63.623047"/>
       <use xlink:href="#DejaVuSans-30" x="127.246094"/>
       <use xlink:href="#DejaVuSans-30" x="190.869141"/>
      </g>
     </g>
    </g>
    <g id="ytick_9">
     <g id="line2d_16">
      <g>
       <use xlink:href="#me31bd173ed" x="90" y="58.29505" style="stroke: #000000; stroke-width: 0.8"/>
      </g>
     </g>
     <g id="text_17">
      <!-- 1600 -->
      <g transform="translate(57.55 62.094268) scale(0.1 -0.1)">
       <use xlink:href="#DejaVuSans-31"/>
       <use xlink:href="#DejaVuSans-36" x="63.623047"/>
       <use xlink:href="#DejaVuSans-30" x="127.246094"/>
       <use xlink:href="#DejaVuSans-30" x="190.869141"/>
      </g>
     </g>
    </g>
    <g id="text_18">
     <!-- Normalized Count -->
     <g transform="translate(51.470312 226.592969) rotate(-90) scale(0.1 -0.1)">
      <defs>
       <path id="DejaVuSans-4e" d="M 628 4666 
L 1478 4666 
L 3547 763 
L 3547 4666 
L 4159 4666 
L 4159 0 
L 3309 0 
L 1241 3903 
L 1241 0 
L 628 0 
L 628 4666 
z
" transform="scale(0.015625)"/>
       <path id="DejaVuSans-6f" d="M 1959 3097 
Q 1497 3097 1228 2736 
Q 959 2375 959 1747 
Q 959 1119 1226 758 
Q 1494 397 1959 397 
Q 2419 397 2687 759 
Q 2956 1122 2956 1747 
Q 2956 2369 2687 2733 
Q 2419 3097 1959 3097 
z
M 1959 3584 
Q 2709 3584 3137 3096 
Q 3566 2609 3566 1747 
Q 3566 888 3137 398 
Q 2709 -91 1959 -91 
Q 1206 -91 779 398 
Q 353 888 353 1747 
Q 353 2609 779 3096 
Q 1206 3584 1959 3584 
z
" transform="scale(0.015625)"/>
       <path id="DejaVuSans-72" d="M 2631 2963 
Q 2534 3019 2420 3045 
Q 2306 3072 2169 3072 
Q 1681 3072 1420 2755 
Q 1159 2438 1159 1844 
L 1159 0 
L 581 0 
L 581 3500 
L 1159 3500 
L 1159 2956 
Q 1341 3275 1631 3429 
Q 1922 3584 2338 3584 
Q 2397 3584 2469 3576 
Q 2541 3569 2628 3553 
L 2631 2963 
z
" transform="scale(0.015625)"/>
       <path id="DejaVuSans-6d" d="M 3328 2828 
Q 3544 3216 3844 3400 
Q 4144 3584 4550 3584 
Q 5097 3584 5394 3201 
Q 5691 2819 5691 2113 
L 5691 0 
L 5113 0 
L 5113 2094 
Q 5113 2597 4934 2840 
Q 4756 3084 4391 3084 
Q 3944 3084 3684 2787 
Q 3425 2491 3425 1978 
L 3425 0 
L 2847 0 
L 2847 2094 
Q 2847 2600 2669 2842 
Q 2491 3084 2119 3084 
Q 1678 3084 1418 2786 
Q 1159 2488 1159 1978 
L 1159 0 
L 581 0 
L 581 3500 
L 1159 3500 
L 1159 2956 
Q 1356 3278 1631 3431 
Q 1906 3584 2284 3584 
Q 2666 3584 2933 3390 
Q 3200 3197 3328 2828 
z
" transform="scale(0.015625)"/>
       <path id="DejaVuSans-7a" d="M 353 3500 
L 3084 3500 
L 3084 2975 
L 922 459 
L 3084 459 
L 3084 0 
L 275 0 
L 275 525 
L 2438 3041 
L 353 3041 
L 353 3500 
z
" transform="scale(0.015625)"/>
       <path id="DejaVuSans-64" d="M 2906 2969 
L 2906 4863 
L 3481 4863 
L 3481 0 
L 2906 0 
L 2906 525 
Q 2725 213 2448 61 
Q 2172 -91 1784 -91 
Q 1150 -91 751 415 
Q 353 922 353 1747 
Q 353 2572 751 3078 
Q 1150 3584 1784 3584 
Q 2172 3584 2448 3432 
Q 2725 3281 2906 2969 
z
M 947 1747 
Q 947 1113 1208 752 
Q 1469 391 1925 391 
Q 2381 391 2643 752 
Q 2906 1113 2906 1747 
Q 2906 2381 2643 2742 
Q 2381 3103 1925 3103 
Q 1469 3103 1208 2742 
Q 947 2381 947 1747 
z
" transform="scale(0.015625)"/>
       <path id="DejaVuSans-43" d="M 4122 4306 
L 4122 3641 
Q 3803 3938 3442 4084 
Q 3081 4231 2675 4231 
Q 1875 4231 1450 3742 
Q 1025 3253 1025 2328 
Q 1025 1406 1450 917 
Q 1875 428 2675 428 
Q 3081 428 3442 575 
Q 3803 722 4122 1019 
L 4122 359 
Q 3791 134 3420 21 
Q 3050 -91 2638 -91 
Q 1578 -91 968 557 
Q 359 1206 359 2328 
Q 359 3453 968 4101 
Q 1578 4750 2638 4750 
Q 3056 4750 3426 4639 
Q 3797 4528 4122 4306 
z
" transform="scale(0.015625)"/>
       <path id="DejaVuSans-6e" d="M 3513 2113 
L 3513 0 
L 2938 0 
L 2938 2094 
Q 2938 2591 2744 2837 
Q 2550 3084 2163 3084 
Q 1697 3084 1428 2787 
Q 1159 2491 1159 1978 
L 1159 0 
L 581 0 
L 581 3500 
L 1159 3500 
L 1159 2956 
Q 1366 3272 1645 3428 
Q 1925 3584 2291 3584 
Q 2894 3584 3203 3211 
Q 3513 2838 3513 2113 
z
" transform="scale(0.015625)"/>
       <path id="DejaVuSans-74" d="M 1172 4494 
L 1172 3500 
L 2356 3500 
L 2356 3053 
L 1172 3053 
L 1172 1153 
Q 1172 725 1289 603 
Q 1406 481 1766 481 
L 2356 481 
L 2356 0 
L 1766 0 
Q 1100 0 847 248 
Q 594 497 594 1153 
L 594 3053 
L 172 3053 
L 172 3500 
L 594 3500 
L 594 4494 
L 1172 4494 
z
" transform="scale(0.015625)"/>
      </defs>
      <use xlink:href="#DejaVuSans-4e"/>
      <use xlink:href="#DejaVuSans-6f" x="74.804688"/>
      <use xlink:href="#DejaVuSans-72" x="135.986328"/>
      <use xlink:href="#DejaVuSans-6d" x="175.349609"/>
      <use xlink:href="#DejaVuSans-61" x="272.761719"/>
      <use xlink:href="#DejaVuSans-6c" x="334.041016"/>
      <use xlink:href="#DejaVuSans-69" x="361.824219"/>
      <use xlink:href="#DejaVuSans-7a" x="389.607422"/>
      <use xlink:href="#DejaVuSans-65" x="442.097656"/>
      <use xlink:href="#DejaVuSans-64" x="503.621094"/>
      <use xlink:href="#DejaVuSans-20" x="567.097656"/>
      <use xlink:href="#DejaVuSans-43" x="598.884766"/>
      <use xlink:href="#DejaVuSans-6f" x="668.708984"/>
      <use xlink:href="#DejaVuSans-75" x="729.890625"/>
      <use xlink:href="#DejaVuSans-6e" x="793.269531"/>
      <use xlink:href="#DejaVuSans-74" x="856.648438"/>
     </g>
    </g>
   </g>
   <g id="line2d_17">
    <path d="M 6.15544 307.8 
L 92.891192 307.8 
L 98.673575 306.552475 
L 101.564767 299.223267 
L 104.455959 272.869307 
L 107.34715 230.141584 
L 110.238342 154.510396 
L 116.020725 121.762871 
L 118.911917 123.634158 
L 121.803109 95.09703 
L 124.694301 81.99802 
L 127.585492 55.8 
L 130.476684 59.854455 
L 133.367876 61.569802 
L 136.259067 98.527723 
L 139.150259 110.691089 
L 142.041451 111.00297 
L 144.932642 121.918812 
L 147.823834 129.871782 
L 150.715026 146.401485 
L 153.606218 155.44604 
L 156.497409 154.510396 
L 159.388601 146.245545 
L 162.279793 159.344554 
L 165.170984 160.280198 
L 168.062176 155.134158 
L 170.953368 161.683663 
L 173.84456 174.314851 
L 176.735751 163.243069 
L 179.626943 166.673762 
L 182.518135 173.691089 
L 185.409326 179.616832 
L 188.300518 181.020297 
L 191.19171 193.027723 
L 194.082902 197.082178 
L 196.974093 203.787624 
L 199.865285 206.282673 
L 202.756477 221.25297 
L 205.647668 216.886634 
L 208.53886 218.134158 
L 211.430052 220.785149 
L 214.321244 224.527723 
L 217.212435 226.866832 
L 220.103627 225.931188 
L 222.994819 232.012871 
L 225.88601 225.463366 
L 228.777202 228.582178 
L 231.668394 227.646535 
L 234.559585 232.012871 
L 237.450777 233.416337 
L 240.341969 232.792574 
L 243.233161 244.020297 
L 246.124352 246.671287 
L 249.015544 250.257921 
L 251.906736 244.176238 
L 254.797927 257.275248 
L 257.689119 250.413861 
L 260.580311 258.678713 
L 263.471503 268.191089 
L 266.362694 268.970792 
L 269.253886 270.99802 
L 272.145078 271.465842 
L 275.036269 275.832178 
L 277.927461 269.750495 
L 280.818653 278.327228 
L 283.709845 280.822277 
L 286.601036 276.144059 
L 289.492228 279.886634 
L 292.38342 278.79505 
L 295.274611 282.537624 
L 298.165803 282.069802 
L 301.056995 287.527723 
L 303.948187 286.436139 
L 306.839378 286.90396 
L 309.73057 286.90396 
L 312.621762 288.619307 
L 315.512953 288.151485 
L 318.404145 290.022772 
L 321.295337 290.178713 
L 324.186528 289.243069 
L 327.07772 292.05 
L 329.968912 292.05 
L 332.860104 294.54505 
L 335.751295 293.765347 
L 338.642487 296.416337 
L 341.533679 296.260396 
L 347.316062 299.379208 
L 350.207254 299.223267 
L 353.098446 298.911386 
L 355.989637 301.562376 
L 358.880829 299.691089 
L 361.772021 301.718317 
L 364.663212 300.314851 
L 367.554404 301.094554 
L 370.445596 302.965842 
L 373.336788 302.49802 
L 376.227979 302.186139 
L 379.119171 302.965842 
L 382.010363 302.965842 
L 384.901554 302.342079 
L 387.792746 303.277723 
L 390.683938 304.837129 
L 393.57513 304.057426 
L 396.466321 305.460891 
L 399.357513 305.772772 
L 402.248705 304.525248 
L 405.139896 306.084653 
L 408.031088 305.772772 
L 410.92228 306.240594 
L 413.813472 304.681188 
L 416.704663 306.396535 
L 419.595855 304.213366 
L 422.487047 306.552475 
L 425.378238 306.240594 
L 428.26943 305.460891 
L 431.160622 306.240594 
L 434.051813 306.396535 
L 436.943005 305.616832 
L 439.834197 306.864356 
L 442.725389 306.240594 
L 445.61658 306.240594 
L 448.507772 306.864356 
L 451.398964 306.708416 
L 460.072539 306.708416 
L 462.963731 306.864356 
L 465.854922 307.488119 
L 468.746114 307.020297 
L 471.637306 307.488119 
L 474.528497 306.552475 
L 477.419689 306.708416 
L 480.310881 307.176238 
L 483.202073 307.488119 
L 486.093264 307.644059 
L 488.984456 307.332178 
L 491.875648 307.488119 
L 494.766839 307.8 
L 497.658031 307.332178 
L 500.549223 307.644059 
L 503.440415 307.332178 
L 506.331606 306.864356 
L 509.222798 307.332178 
L 512.11399 307.488119 
L 515.005181 307.020297 
L 517.896373 307.332178 
L 520.787565 307.020297 
L 526.569948 307.644059 
L 529.46114 307.176238 
L 532.352332 307.332178 
L 535.243523 307.644059 
L 538.134715 307.8 
L 541.025907 307.488119 
L 546.80829 307.488119 
L 549.699482 307.644059 
L 552.590674 306.864356 
L 555.481865 307.644059 
L 561.264249 307.332178 
L 564.15544 307.8 
L 567.046632 307.488119 
L 569.937824 307.488119 
L 575.720207 307.8 
L 578.611399 307.644059 
L 581.502591 307.8 
L 584.393782 307.644059 
L 587.284974 307.644059 
L 590.176166 307.488119 
L 595.958549 307.488119 
L 598.849741 307.8 
L 607.523316 307.8 
L 610.414508 307.644059 
L 613.305699 307.8 
L 616.196891 307.644059 
L 619.088083 307.8 
L 621.979275 307.8 
L 624.870466 307.644059 
L 627.761658 307.8 
L 630.65285 307.8 
L 633.544041 307.644059 
L 636.435233 307.8 
L 639.326425 307.644059 
L 642.217617 307.8 
L 645.108808 307.644059 
L 648 307.644059 
L 650.891192 307.8 
L 721 307.8 
L 721 307.8 
" clip-path="url(#peceb1a3b32)" style="fill: none; stroke: #808080; stroke-width: 1.5; stroke-linecap: square"/>
   </g>
   <g id="line2d_18">
    <path d="M 6.15544 307.8 
L 87.108808 307.8 
L 90 307.020297 
L 92.891192 306.396535 
L 95.782383 304.369307 
L 98.673575 303.745545 
L 101.564767 292.517822 
L 104.455959 271.465842 
L 107.34715 231.233168 
L 110.238342 197.55 
L 113.129534 173.223267 
L 116.020725 132.678713 
L 118.911917 124.10198 
L 121.803109 105.70099 
L 124.694301 104.141584 
L 127.585492 79.658911 
L 130.476684 74.668812 
L 133.367876 70.302475 
L 136.259067 90.262871 
L 139.150259 99.463366 
L 142.041451 109.287624 
L 144.932642 116.772772 
L 147.823834 140.007921 
L 150.715026 143.750495 
L 153.606218 141.879208 
L 156.497409 144.062376 
L 159.388601 153.886634 
L 162.279793 157.941089 
L 165.170984 155.44604 
L 168.062176 154.354455 
L 170.953368 148.116832 
L 173.84456 153.886634 
L 176.735751 160.280198 
L 179.626943 170.260396 
L 182.518135 167.609406 
L 185.409326 173.067327 
L 188.300518 176.809901 
L 191.19171 175.562376 
L 194.082902 190.064851 
L 196.974093 195.05495 
L 199.865285 199.265347 
L 202.756477 200.20099 
L 205.647668 213.3 
L 208.53886 210.960891 
L 211.430052 216.574752 
L 214.321244 214.703465 
L 217.212435 215.171287 
L 220.103627 218.757921 
L 222.994819 224.527723 
L 225.88601 218.757921 
L 228.777202 220.317327 
L 231.668394 232.792574 
L 234.559585 230.921287 
L 237.450777 235.599505 
L 240.341969 232.480693 
L 246.124352 245.267822 
L 249.015544 247.45099 
L 251.906736 256.807426 
L 254.797927 248.386634 
L 257.689119 262.733168 
L 260.580311 264.760396 
L 263.471503 263.512871 
L 266.362694 265.072277 
L 269.253886 269.282673 
L 272.145078 269.282673 
L 275.036269 273.493069 
L 277.927461 271.621782 
L 280.818653 270.374257 
L 283.709845 276.923762 
L 286.601036 279.574752 
L 289.492228 276.3 
L 292.38342 281.60198 
L 295.274611 284.876733 
L 298.165803 285.812376 
L 301.056995 282.537624 
L 303.948187 289.087129 
L 306.839378 287.683663 
L 309.73057 285.500495 
L 312.621762 287.059901 
L 315.512953 288.307426 
L 318.404145 292.205941 
L 321.295337 292.829703 
L 324.186528 293.609406 
L 327.07772 296.260396 
L 329.968912 293.141584 
L 332.860104 295.948515 
L 335.751295 297.35198 
L 338.642487 299.84703 
L 341.533679 298.599505 
L 344.42487 301.250495 
L 347.316062 300.626733 
L 350.207254 302.186139 
L 353.098446 301.250495 
L 355.989637 299.379208 
L 358.880829 303.589604 
L 361.772021 302.342079 
L 364.663212 303.745545 
L 367.554404 304.213366 
L 370.445596 303.901485 
L 373.336788 304.525248 
L 376.227979 305.616832 
L 379.119171 303.745545 
L 382.010363 304.369307 
L 384.901554 304.057426 
L 387.792746 303.589604 
L 390.683938 303.901485 
L 393.57513 305.30495 
L 396.466321 305.616832 
L 399.357513 305.30495 
L 402.248705 305.14901 
L 405.139896 305.772772 
L 408.031088 306.240594 
L 413.813472 306.552475 
L 416.704663 306.240594 
L 419.595855 306.240594 
L 422.487047 306.552475 
L 425.378238 306.084653 
L 428.26943 306.396535 
L 431.160622 306.084653 
L 434.051813 307.332178 
L 436.943005 306.864356 
L 439.834197 306.864356 
L 442.725389 307.332178 
L 445.61658 306.396535 
L 448.507772 307.332178 
L 451.398964 307.176238 
L 454.290155 306.708416 
L 457.181347 307.488119 
L 460.072539 306.864356 
L 462.963731 307.332178 
L 465.854922 307.176238 
L 468.746114 307.488119 
L 471.637306 306.708416 
L 474.528497 307.332178 
L 477.419689 306.396535 
L 480.310881 307.332178 
L 483.202073 307.644059 
L 486.093264 307.020297 
L 488.984456 307.488119 
L 494.766839 307.176238 
L 497.658031 306.864356 
L 500.549223 307.332178 
L 503.440415 307.176238 
L 506.331606 307.8 
L 509.222798 307.488119 
L 512.11399 306.864356 
L 517.896373 307.176238 
L 520.787565 307.8 
L 526.569948 307.8 
L 529.46114 307.488119 
L 535.243523 307.8 
L 538.134715 307.332178 
L 541.025907 307.644059 
L 546.80829 307.332178 
L 552.590674 307.644059 
L 555.481865 307.332178 
L 558.373057 307.332178 
L 561.264249 307.488119 
L 564.15544 307.332178 
L 572.829016 307.8 
L 575.720207 307.644059 
L 581.502591 307.644059 
L 584.393782 307.8 
L 587.284974 307.644059 
L 590.176166 307.8 
L 593.067358 307.488119 
L 598.849741 307.8 
L 601.740933 307.488119 
L 604.632124 307.8 
L 721 307.8 
L 721 307.8 
" clip-path="url(#peceb1a3b32)" style="fill: none; stroke-dasharray: 5.55,2.4; stroke-dashoffset: 0; stroke: #000000; stroke-width: 1.5"/>
   </g>
   <g id="patch_3">
    <path d="M 90 320.4 
L 90 43.2 
" style="fill: none; stroke: #000000; stroke-width: 0.8; stroke-linejoin: miter; stroke-linecap: square"/>
   </g>
   <g id="patch_4">
    <path d="M 648 320.4 
L 648 43.2 
" style="fill: none; stroke: #000000; stroke-width: 0.8; stroke-linejoin: miter; stroke-linecap: square"/>
   </g>
   <g id="patch_5">
    <path d="M 90 320.4 
L 648 320.4 
" style="fill: none; stroke: #000000; stroke-width: 0.8; stroke-linejoin: miter; stroke-linecap: square"/>
   </g>
   <g id="patch_6">
    <path d="M 90 43.2 
L 648 43.2 
" style="fill: none; stroke: #000000; stroke-width: 0.8; stroke-linejoin: miter; stroke-linecap: square"/>
   </g>
   <g id="text_19">
    <!-- Histograms of Original and Denoised Images -->
    <g transform="translate(234.6675 37.2) scale(0.12 -0.12)">
     <defs>
      <path id="DejaVuSans-48" d="M 628 4666 
L 1259 4666 
L 1259 2753 
L 3553 2753 
L 3553 4666 
L 4184 4666 
L 4184 0 
L 3553 0 
L 3553 2222 
L 1259 2222 
L 1259 0 
L 628 0 
L 628 4666 
z
" transform="scale(0.015625)"/>
      <path id="DejaVuSans-73" d="M 2834 3397 
L 2834 2853 
Q 2591 2978 2328 3040 
Q 2066 3103 1784 3103 
Q 1356 3103 1142 2972 
Q 928 2841 928 2578 
Q 928 2378 1081 2264 
Q 1234 2150 1697 2047 
L 1894 2003 
Q 2506 1872 2764 1633 
Q 3022 1394 3022 966 
Q 3022 478 2636 193 
Q 2250 -91 1575 -91 
Q 1294 -91 989 -36 
Q 684 19 347 128 
L 347 722 
Q 666 556 975 473 
Q 1284 391 1588 391 
Q 1994 391 2212 530 
Q 2431 669 2431 922 
Q 2431 1156 2273 1281 
Q 2116 1406 1581 1522 
L 1381 1569 
Q 847 1681 609 1914 
Q 372 2147 372 2553 
Q 372 3047 722 3315 
Q 1072 3584 1716 3584 
Q 2034 3584 2315 3537 
Q 2597 3491 2834 3397 
z
" transform="scale(0.015625)"/>
      <path id="DejaVuSans-67" d="M 2906 1791 
Q 2906 2416 2648 2759 
Q 2391 3103 1925 3103 
Q 1463 3103 1205 2759 
Q 947 2416 947 1791 
Q 947 1169 1205 825 
Q 1463 481 1925 481 
Q 2391 481 2648 825 
Q 2906 1169 2906 1791 
z
M 3481 434 
Q 3481 -459 3084 -895 
Q 2688 -1331 1869 -1331 
Q 1566 -1331 1297 -1286 
Q 1028 -1241 775 -1147 
L 775 -588 
Q 1028 -725 1275 -790 
Q 1522 -856 1778 -856 
Q 2344 -856 2625 -561 
Q 2906 -266 2906 331 
L 2906 616 
Q 2728 306 2450 153 
Q 2172 0 1784 0 
Q 1141 0 747 490 
Q 353 981 353 1791 
Q 353 2603 747 3093 
Q 1141 3584 1784 3584 
Q 2172 3584 2450 3431 
Q 2728 3278 2906 2969 
L 2906 3500 
L 3481 3500 
L 3481 434 
z
" transform="scale(0.015625)"/>
      <path id="DejaVuSans-66" d="M 2375 4863 
L 2375 4384 
L 1825 4384 
Q 1516 4384 1395 4259 
Q 1275 4134 1275 3809 
L 1275 3500 
L 2222 3500 
L 2222 3053 
L 1275 3053 
L 1275 0 
L 697 0 
L 697 3053 
L 147 3053 
L 147 3500 
L 697 3500 
L 697 3744 
Q 697 4328 969 4595 
Q 1241 4863 1831 4863 
L 2375 4863 
z
" transform="scale(0.015625)"/>
      <path id="DejaVuSans-4f" d="M 2522 4238 
Q 1834 4238 1429 3725 
Q 1025 3213 1025 2328 
Q 1025 1447 1429 934 
Q 1834 422 2522 422 
Q 3209 422 3611 934 
Q 4013 1447 4013 2328 
Q 4013 3213 3611 3725 
Q 3209 4238 2522 4238 
z
M 2522 4750 
Q 3503 4750 4090 4092 
Q 4678 3434 4678 2328 
Q 4678 1225 4090 567 
Q 3503 -91 2522 -91 
Q 1538 -91 948 565 
Q 359 1222 359 2328 
Q 359 3434 948 4092 
Q 1538 4750 2522 4750 
z
" transform="scale(0.015625)"/>
      <path id="DejaVuSans-44" d="M 1259 4147 
L 1259 519 
L 2022 519 
Q 2988 519 3436 956 
Q 3884 1394 3884 2338 
Q 3884 3275 3436 3711 
Q 2988 4147 2022 4147 
L 1259 4147 
z
M 628 4666 
L 1925 4666 
Q 3281 4666 3915 4102 
Q 4550 3538 4550 2338 
Q 4550 1131 3912 565 
Q 3275 0 1925 0 
L 628 0 
L 628 4666 
z
" transform="scale(0.015625)"/>
      <path id="DejaVuSans-49" d="M 628 4666 
L 1259 4666 
L 1259 0 
L 628 0 
L 628 4666 
z
" transform="scale(0.015625)"/>
     </defs>
     <use xlink:href="#DejaVuSans-48"/>
     <use xlink:href="#DejaVuSans-69" x="75.195312"/>
     <use xlink:href="#DejaVuSans-73" x="102.978516"/>
     <use xlink:href="#DejaVuSans-74" x="155.078125"/>
     <use xlink:href="#DejaVuSans-6f" x="194.287109"/>
     <use xlink:href="#DejaVuSans-67" x="255.46875"/>
     <use xlink:href="#DejaVuSans-72" x="318.945312"/>
     <use xlink:href="#DejaVuSans-61" x="360.058594"/>
     <use xlink:href="#DejaVuSans-6d" x="421.337891"/>
     <use xlink:href="#DejaVuSans-73" x="518.75"/>
     <use xlink:href="#DejaVuSans-20" x="570.849609"/>
     <use xlink:href="#DejaVuSans-6f" x="602.636719"/>
     <use xlink:href="#DejaVuSans-66" x="663.818359"/>
     <use xlink:href="#DejaVuSans-20" x="699.023438"/>
     <use xlink:href="#DejaVuSans-4f" x="730.810547"/>
     <use xlink:href="#DejaVuSans-72" x="809.521484"/>
     <use xlink:href="#DejaVuSans-69" x="850.634766"/>
     <use xlink:href="#DejaVuSans-67" x="878.417969"/>
     <use xlink:href="#DejaVuSans-69" x="941.894531"/>
     <use xlink:href="#DejaVuSans-6e" x="969.677734"/>
     <use xlink:href="#DejaVuSans-61" x="1033.056641"/>
     <use xlink:href="#DejaVuSans-6c" x="1094.335938"/>
     <use xlink:href="#DejaVuSans-20" x="1122.119141"/>
     <use xlink:href="#DejaVuSans-61" x="1153.90625"/>
     <use xlink:href="#DejaVuSans-6e" x="1215.185547"/>
     <use xlink:href="#DejaVuSans-64" x="1278.564453"/>
     <use xlink:href="#DejaVuSans-20" x="1342.041016"/>
     <use xlink:href="#DejaVuSans-44" x="1373.828125"/>
     <use xlink:href="#DejaVuSans-65" x="1450.830078"/>
     <use xlink:href="#DejaVuSans-6e" x="1512.353516"/>
     <use xlink:href="#DejaVuSans-6f" x="1575.732422"/>
     <use xlink:href="#DejaVuSans-69" x="1636.914062"/>
     <use xlink:href="#DejaVuSans-73" x="1664.697266"/>
     <use xlink:href="#DejaVuSans-65" x="1716.796875"/>
     <use xlink:href="#DejaVuSans-64" x="1778.320312"/>
     <use xlink:href="#DejaVuSans-20" x="1841.796875"/>
     <use xlink:href="#DejaVuSans-49" x="1873.583984"/>
     <use xlink:href="#DejaVuSans-6d" x="1903.076172"/>
     <use xlink:href="#DejaVuSans-61" x="2000.488281"/>
     <use xlink:href="#DejaVuSans-67" x="2061.767578"/>
     <use xlink:href="#DejaVuSans-65" x="2125.244141"/>
     <use xlink:href="#DejaVuSans-73" x="2186.767578"/>
    </g>
   </g>
   <g id="legend_1">
    <g id="patch_7">
     <path d="M 527.703125 80.55625 
L 641 80.55625 
Q 643 80.55625 643 78.55625 
L 643 50.2 
Q 643 48.2 641 48.2 
L 527.703125 48.2 
Q 525.703125 48.2 525.703125 50.2 
L 525.703125 78.55625 
Q 525.703125 80.55625 527.703125 80.55625 
z
" style="fill: #ffffff; opacity: 0.8; stroke: #cccccc; stroke-linejoin: miter"/>
    </g>
    <g id="line2d_19">
     <path d="M 529.703125 56.298437 
L 539.703125 56.298437 
L 549.703125 56.298437 
" style="fill: none; stroke: #808080; stroke-width: 1.5; stroke-linecap: square"/>
    </g>
    <g id="text_20">
     <!-- Original Image -->
     <g transform="translate(557.703125 59.798437) scale(0.1 -0.1)">
      <use xlink:href="#DejaVuSans-4f"/>
      <use xlink:href="#DejaVuSans-72" x="78.710938"/>
      <use xlink:href="#DejaVuSans-69" x="119.824219"/>
      <use xlink:href="#DejaVuSans-67" x="147.607422"/>
      <use xlink:href="#DejaVuSans-69" x="211.083984"/>
      <use xlink:href="#DejaVuSans-6e" x="238.867188"/>
      <use xlink:href="#DejaVuSans-61" x="302.246094"/>
      <use xlink:href="#DejaVuSans-6c" x="363.525391"/>
      <use xlink:href="#DejaVuSans-20" x="391.308594"/>
      <use xlink:href="#DejaVuSans-49" x="423.095703"/>
      <use xlink:href="#DejaVuSans-6d" x="452.587891"/>
      <use xlink:href="#DejaVuSans-61" x="550"/>
      <use xlink:href="#DejaVuSans-67" x="611.279297"/>
      <use xlink:href="#DejaVuSans-65" x="674.755859"/>
     </g>
    </g>
    <g id="line2d_20">
     <path d="M 529.703125 70.976562 
L 539.703125 70.976562 
L 549.703125 70.976562 
" style="fill: none; stroke-dasharray: 5.55,2.4; stroke-dashoffset: 0; stroke: #000000; stroke-width: 1.5"/>
    </g>
    <g id="text_21">
     <!-- Denoised Image -->
     <g transform="translate(557.703125 74.476562) scale(0.1 -0.1)">
      <use xlink:href="#DejaVuSans-44"/>
      <use xlink:href="#DejaVuSans-65" x="77.001953"/>
      <use xlink:href="#DejaVuSans-6e" x="138.525391"/>
      <use xlink:href="#DejaVuSans-6f" x="201.904297"/>
      <use xlink:href="#DejaVuSans-69" x="263.085938"/>
      <use xlink:href="#DejaVuSans-73" x="290.869141"/>
      <use xlink:href="#DejaVuSans-65" x="342.96875"/>
      <use xlink:href="#DejaVuSans-64" x="404.492188"/>
      <use xlink:href="#DejaVuSans-20" x="467.96875"/>
      <use xlink:href="#DejaVuSans-49" x="499.755859"/>
      <use xlink:href="#DejaVuSans-6d" x="529.248047"/>
      <use xlink:href="#DejaVuSans-61" x="626.660156"/>
      <use xlink:href="#DejaVuSans-67" x="687.939453"/>
      <use xlink:href="#DejaVuSans-65" x="751.416016"/>
     </g>
    </g>
   </g>
  </g>
 </g>
 <defs>
  <clipPath id="peceb1a3b32">
   <rect x="90" y="43.2" width="558" height="277.2"/>
  </clipPath>
 </defs>
</svg>
