<?xml version="1.0" encoding="utf-8" standalone="no"?>
<!DOCTYPE svg PUBLIC "-//W3C//DTD SVG 1.1//EN"
  "http://www.w3.org/Graphics/SVG/1.1/DTD/svg11.dtd">
<svg xmlns:xlink="http://www.w3.org/1999/xlink" width="288pt" height="648pt" viewBox="0 0 288 648" xmlns="http://www.w3.org/2000/svg" version="1.1">
 <metadata>
  <rdf:RDF xmlns:dc="http://purl.org/dc/elements/1.1/" xmlns:cc="http://creativecommons.org/ns#" xmlns:rdf="http://www.w3.org/1999/02/22-rdf-syntax-ns#">
   <cc:Work>
    <dc:type rdf:resource="http://purl.org/dc/dcmitype/StillImage"/>
    <dc:date>2023-11-18T17:59:10.151886</dc:date>
    <dc:format>image/svg+xml</dc:format>
    <dc:creator>
     <cc:Agent>
      <dc:title>Matplotlib v3.8.0, https://matplotlib.org/</dc:title>
     </cc:Agent>
    </dc:creator>
   </cc:Work>
  </rdf:RDF>
 </metadata>
 <defs>
  <style type="text/css">*{stroke-linejoin: round; stroke-linecap: butt}</style>
 </defs>
 <g id="figure_1">
  <g id="patch_1">
   <path d="M 0 648 
L 288 648 
L 288 0 
L 0 0 
z
" style="fill: #ffffff"/>
  </g>
  <g id="axes_1">
   <g id="patch_2">
    <path d="M 57.17 190.626667 
L 277.2 190.626667 
L 277.2 10.8 
L 57.17 10.8 
z
" style="fill: #ffffff"/>
   </g>
   <g id="PolyCollection_1">
    <path d="M 23.319231 190.626667 
L 23.319231 190.626667 
L 25.011769 190.626667 
L 26.704308 190.626667 
L 28.396846 190.626667 
L 30.089385 190.626667 
L 31.781923 190.626667 
L 33.474462 190.626667 
L 35.167 190.626667 
L 36.859538 190.626667 
L 38.552077 190.626667 
L 40.244615 190.626667 
L 41.937154 190.626667 
L 43.629692 190.626667 
L 45.322231 190.626667 
L 47.014769 190.626667 
L 48.707308 190.626667 
L 50.399846 190.626667 
L 52.092385 190.626667 
L 53.784923 190.626667 
L 55.477462 190.626667 
L 57.17 190.626667 
L 58.862538 190.626667 
L 60.555077 190.626667 
L 62.247615 190.626667 
L 63.940154 190.626667 
L 65.632692 190.626667 
L 67.325231 190.626667 
L 69.017769 190.626667 
L 70.710308 190.626667 
L 72.402846 190.626667 
L 74.095385 190.626667 
L 75.787923 190.626667 
L 77.480462 190.626667 
L 79.173 190.626667 
L 80.865538 190.626667 
L 82.558077 190.464026 
L 84.250615 190.518239 
L 85.943154 190.247171 
L 87.635692 190.247171 
L 89.328231 189.813462 
L 91.020769 188.89183 
L 92.713308 188.566548 
L 94.405846 186.885925 
L 96.098385 186.126934 
L 97.790923 180.922424 
L 99.483462 169.754413 
L 101.176 164.170407 
L 102.868538 159.074324 
L 104.561077 151.647055 
L 106.253615 141.238034 
L 107.946154 130.449519 
L 109.638692 112.77587 
L 111.331231 80.735604 
L 113.023769 51.514449 
L 114.716308 34.870859 
L 116.408846 46.147298 
L 118.101385 55.417831 
L 119.793923 69.621807 
L 121.486462 82.253587 
L 123.179 99.818808 
L 124.871538 107.842428 
L 126.564077 117.817739 
L 128.256615 125.028154 
L 129.949154 134.515542 
L 131.641692 138.093643 
L 133.334231 140.858539 
L 135.026769 143.731862 
L 136.719308 148.665304 
L 138.411846 146.063049 
L 140.104385 150.454354 
L 141.796923 152.514473 
L 143.489462 153.056609 
L 145.182 153.544532 
L 146.874538 152.839755 
L 148.567077 155.333583 
L 150.259615 157.502128 
L 151.952154 158.261119 
L 153.644692 159.887529 
L 155.337231 160.104383 
L 157.029769 163.682484 
L 158.722308 163.194561 
L 160.414846 166.664235 
L 162.107385 166.772662 
L 163.799923 167.152158 
L 165.492462 169.320703 
L 167.185 169.374917 
L 168.877538 170.784472 
L 170.570077 169.754413 
L 172.262615 174.308359 
L 173.955154 173.657795 
L 175.647692 174.958923 
L 177.340231 175.013136 
L 179.032769 176.639546 
L 180.725308 178.699664 
L 182.417846 178.48281 
L 184.110385 178.645451 
L 185.802923 178.699664 
L 187.495462 180.163433 
L 189.188 179.350228 
L 190.880538 180.976638 
L 192.573077 178.916519 
L 194.265615 179.621296 
L 195.958154 180.109219 
L 197.650692 181.681415 
L 199.343231 180.326074 
L 201.035769 181.139278 
L 202.728308 181.572988 
L 204.420846 180.813997 
L 206.113385 182.006697 
L 207.805923 181.89827 
L 209.498462 182.223551 
L 211.191 184.608952 
L 212.883538 185.259516 
L 214.576077 184.717379 
L 216.268615 187.10278 
L 217.961154 187.319634 
L 219.653692 188.566548 
L 221.346231 188.566548 
L 223.038769 188.566548 
L 224.731308 188.29548 
L 226.423846 188.89183 
L 228.116385 189.217112 
L 229.808923 189.921889 
L 231.501462 189.325539 
L 233.194 189.379753 
L 234.886538 189.813462 
L 236.579077 189.976103 
L 238.271615 189.976103 
L 239.964154 190.409812 
L 241.656692 189.976103 
L 243.349231 190.138744 
L 245.041769 190.138744 
L 246.734308 190.355598 
L 248.426846 190.301385 
L 250.119385 190.355598 
L 251.811923 190.301385 
L 253.504462 190.355598 
L 255.197 190.518239 
L 256.889538 190.355598 
L 258.582077 190.138744 
L 260.274615 190.464026 
L 261.967154 190.626667 
L 263.659692 190.192957 
L 265.352231 190.409812 
L 267.044769 190.572453 
L 268.737308 190.518239 
L 270.429846 190.409812 
L 272.122385 190.572453 
L 273.814923 190.572453 
L 275.507462 190.572453 
L 277.2 190.572453 
L 278.892538 190.409812 
L 280.585077 190.626667 
L 282.277615 190.518239 
L 283.970154 190.572453 
L 285.662692 190.572453 
L 287.355231 190.626667 
L 289.047769 190.572453 
L 290.740308 190.572453 
L 292.432846 190.572453 
L 294.125385 190.572453 
L 295.817923 190.626667 
L 297.510462 190.572453 
L 299.203 190.626667 
L 300.895538 190.626667 
L 302.588077 190.572453 
L 304.280615 190.626667 
L 305.973154 190.626667 
L 307.665692 190.626667 
L 309.358231 190.626667 
L 311.050769 190.626667 
L 312.743308 190.626667 
L 314.435846 190.626667 
L 316.128385 190.626667 
L 317.820923 190.626667 
L 319.513462 190.626667 
L 321.206 190.626667 
L 322.898538 190.626667 
L 324.591077 190.626667 
L 326.283615 190.626667 
L 327.976154 190.626667 
L 329.668692 190.626667 
L 331.361231 190.626667 
L 333.053769 190.626667 
L 334.746308 190.626667 
L 336.438846 190.626667 
L 338.131385 190.626667 
L 339.823923 190.626667 
L 341.516462 190.626667 
L 343.209 190.626667 
L 344.901538 190.626667 
L 346.594077 190.626667 
L 348.286615 190.626667 
L 349.979154 190.626667 
L 351.671692 190.626667 
L 353.364231 190.626667 
L 355.056769 190.626667 
L 356.749308 190.626667 
L 358.441846 190.626667 
L 360.134385 190.626667 
L 361.826923 190.626667 
L 363.519462 190.626667 
L 365.212 190.626667 
L 366.904538 190.626667 
L 368.597077 190.626667 
L 370.289615 190.626667 
L 371.982154 190.626667 
L 373.674692 190.626667 
L 375.367231 190.626667 
L 377.059769 190.626667 
L 378.752308 190.626667 
L 380.444846 190.626667 
L 382.137385 190.626667 
L 383.829923 190.626667 
L 385.522462 190.626667 
L 387.215 190.626667 
L 388.907538 190.626667 
L 390.600077 190.626667 
L 392.292615 190.626667 
L 393.985154 190.626667 
L 395.677692 190.626667 
L 397.370231 190.626667 
L 399.062769 190.626667 
L 400.755308 190.626667 
L 402.447846 190.626667 
L 404.140385 190.626667 
L 405.832923 190.626667 
L 407.525462 190.626667 
L 409.218 190.626667 
L 410.910538 190.626667 
L 412.603077 190.626667 
L 414.295615 190.626667 
L 415.988154 190.626667 
L 417.680692 190.626667 
L 419.373231 190.626667 
L 421.065769 190.626667 
L 422.758308 190.626667 
L 424.450846 190.626667 
L 426.143385 190.626667 
L 427.835923 190.626667 
L 429.528462 190.626667 
L 431.221 190.626667 
L 432.913538 190.626667 
L 434.606077 190.626667 
L 436.298615 190.626667 
L 437.991154 190.626667 
L 439.683692 190.626667 
L 441.376231 190.626667 
L 443.068769 190.626667 
L 444.761308 190.626667 
L 446.453846 190.626667 
L 448.146385 190.626667 
L 449.838923 190.626667 
L 451.531462 190.626667 
L 453.224 190.626667 
L 454.916538 190.626667 
L 454.916538 190.626667 
L 454.916538 190.626667 
L 453.224 190.626667 
L 451.531462 190.626667 
L 449.838923 190.626667 
L 448.146385 190.626667 
L 446.453846 190.626667 
L 444.761308 190.626667 
L 443.068769 190.626667 
L 441.376231 190.626667 
L 439.683692 190.626667 
L 437.991154 190.626667 
L 436.298615 190.626667 
L 434.606077 190.626667 
L 432.913538 190.626667 
L 431.221 190.626667 
L 429.528462 190.626667 
L 427.835923 190.626667 
L 426.143385 190.626667 
L 424.450846 190.626667 
L 422.758308 190.626667 
L 421.065769 190.626667 
L 419.373231 190.626667 
L 417.680692 190.626667 
L 415.988154 190.626667 
L 414.295615 190.626667 
L 412.603077 190.626667 
L 410.910538 190.626667 
L 409.218 190.626667 
L 407.525462 190.626667 
L 405.832923 190.626667 
L 404.140385 190.626667 
L 402.447846 190.626667 
L 400.755308 190.626667 
L 399.062769 190.626667 
L 397.370231 190.626667 
L 395.677692 190.626667 
L 393.985154 190.626667 
L 392.292615 190.626667 
L 390.600077 190.626667 
L 388.907538 190.626667 
L 387.215 190.626667 
L 385.522462 190.626667 
L 383.829923 190.626667 
L 382.137385 190.626667 
L 380.444846 190.626667 
L 378.752308 190.626667 
L 377.059769 190.626667 
L 375.367231 190.626667 
L 373.674692 190.626667 
L 371.982154 190.626667 
L 370.289615 190.626667 
L 368.597077 190.626667 
L 366.904538 190.626667 
L 365.212 190.626667 
L 363.519462 190.626667 
L 361.826923 190.626667 
L 360.134385 190.626667 
L 358.441846 190.626667 
L 356.749308 190.626667 
L 355.056769 190.626667 
L 353.364231 190.626667 
L 351.671692 190.626667 
L 349.979154 190.626667 
L 348.286615 190.626667 
L 346.594077 190.626667 
L 344.901538 190.626667 
L 343.209 190.626667 
L 341.516462 190.626667 
L 339.823923 190.626667 
L 338.131385 190.626667 
L 336.438846 190.626667 
L 334.746308 190.626667 
L 333.053769 190.626667 
L 331.361231 190.626667 
L 329.668692 190.626667 
L 327.976154 190.626667 
L 326.283615 190.626667 
L 324.591077 190.626667 
L 322.898538 190.626667 
L 321.206 190.626667 
L 319.513462 190.626667 
L 317.820923 190.626667 
L 316.128385 190.626667 
L 314.435846 190.626667 
L 312.743308 190.626667 
L 311.050769 190.626667 
L 309.358231 190.626667 
L 307.665692 190.626667 
L 305.973154 190.626667 
L 304.280615 190.626667 
L 302.588077 190.626667 
L 300.895538 190.626667 
L 299.203 190.626667 
L 297.510462 190.626667 
L 295.817923 190.626667 
L 294.125385 190.626667 
L 292.432846 190.626667 
L 290.740308 190.626667 
L 289.047769 190.626667 
L 287.355231 190.626667 
L 285.662692 190.626667 
L 283.970154 190.626667 
L 282.277615 190.626667 
L 280.585077 190.626667 
L 278.892538 190.626667 
L 277.2 190.626667 
L 275.507462 190.626667 
L 273.814923 190.626667 
L 272.122385 190.626667 
L 270.429846 190.626667 
L 268.737308 190.626667 
L 267.044769 190.626667 
L 265.352231 190.626667 
L 263.659692 190.626667 
L 261.967154 190.626667 
L 260.274615 190.626667 
L 258.582077 190.626667 
L 256.889538 190.626667 
L 255.197 190.626667 
L 253.504462 190.626667 
L 251.811923 190.626667 
L 250.119385 190.626667 
L 248.426846 190.626667 
L 246.734308 190.626667 
L 245.041769 190.626667 
L 243.349231 190.626667 
L 241.656692 190.626667 
L 239.964154 190.626667 
L 238.271615 190.626667 
L 236.579077 190.626667 
L 234.886538 190.626667 
L 233.194 190.626667 
L 231.501462 190.626667 
L 229.808923 190.626667 
L 228.116385 190.626667 
L 226.423846 190.626667 
L 224.731308 190.626667 
L 223.038769 190.626667 
L 221.346231 190.626667 
L 219.653692 190.626667 
L 217.961154 190.626667 
L 216.268615 190.626667 
L 214.576077 190.626667 
L 212.883538 190.626667 
L 211.191 190.626667 
L 209.498462 190.626667 
L 207.805923 190.626667 
L 206.113385 190.626667 
L 204.420846 190.626667 
L 202.728308 190.626667 
L 201.035769 190.626667 
L 199.343231 190.626667 
L 197.650692 190.626667 
L 195.958154 190.626667 
L 194.265615 190.626667 
L 192.573077 190.626667 
L 190.880538 190.626667 
L 189.188 190.626667 
L 187.495462 190.626667 
L 185.802923 190.626667 
L 184.110385 190.626667 
L 182.417846 190.626667 
L 180.725308 190.626667 
L 179.032769 190.626667 
L 177.340231 190.626667 
L 175.647692 190.626667 
L 173.955154 190.626667 
L 172.262615 190.626667 
L 170.570077 190.626667 
L 168.877538 190.626667 
L 167.185 190.626667 
L 165.492462 190.626667 
L 163.799923 190.626667 
L 162.107385 190.626667 
L 160.414846 190.626667 
L 158.722308 190.626667 
L 157.029769 190.626667 
L 155.337231 190.626667 
L 153.644692 190.626667 
L 151.952154 190.626667 
L 150.259615 190.626667 
L 148.567077 190.626667 
L 146.874538 190.626667 
L 145.182 190.626667 
L 143.489462 190.626667 
L 141.796923 190.626667 
L 140.104385 190.626667 
L 138.411846 190.626667 
L 136.719308 190.626667 
L 135.026769 190.626667 
L 133.334231 190.626667 
L 131.641692 190.626667 
L 129.949154 190.626667 
L 128.256615 190.626667 
L 126.564077 190.626667 
L 124.871538 190.626667 
L 123.179 190.626667 
L 121.486462 190.626667 
L 119.793923 190.626667 
L 118.101385 190.626667 
L 116.408846 190.626667 
L 114.716308 190.626667 
L 113.023769 190.626667 
L 111.331231 190.626667 
L 109.638692 190.626667 
L 107.946154 190.626667 
L 106.253615 190.626667 
L 104.561077 190.626667 
L 102.868538 190.626667 
L 101.176 190.626667 
L 99.483462 190.626667 
L 97.790923 190.626667 
L 96.098385 190.626667 
L 94.405846 190.626667 
L 92.713308 190.626667 
L 91.020769 190.626667 
L 89.328231 190.626667 
L 87.635692 190.626667 
L 85.943154 190.626667 
L 84.250615 190.626667 
L 82.558077 190.626667 
L 80.865538 190.626667 
L 79.173 190.626667 
L 77.480462 190.626667 
L 75.787923 190.626667 
L 74.095385 190.626667 
L 72.402846 190.626667 
L 70.710308 190.626667 
L 69.017769 190.626667 
L 67.325231 190.626667 
L 65.632692 190.626667 
L 63.940154 190.626667 
L 62.247615 190.626667 
L 60.555077 190.626667 
L 58.862538 190.626667 
L 57.17 190.626667 
L 55.477462 190.626667 
L 53.784923 190.626667 
L 52.092385 190.626667 
L 50.399846 190.626667 
L 48.707308 190.626667 
L 47.014769 190.626667 
L 45.322231 190.626667 
L 43.629692 190.626667 
L 41.937154 190.626667 
L 40.244615 190.626667 
L 38.552077 190.626667 
L 36.859538 190.626667 
L 35.167 190.626667 
L 33.474462 190.626667 
L 31.781923 190.626667 
L 30.089385 190.626667 
L 28.396846 190.626667 
L 26.704308 190.626667 
L 25.011769 190.626667 
L 23.319231 190.626667 
z
" clip-path="url(#p5aa7fe384d)" style="fill: #ff0000; fill-opacity: 0.4; stroke: #ff0000; stroke-opacity: 0.4"/>
   </g>
   <g id="matplotlib.axis_1">
    <g id="xtick_1">
     <g id="line2d_1">
      <defs>
       <path id="m1a6f17ce05" d="M 0 0 
L 0 3.5 
" style="stroke: #000000; stroke-width: 0.8"/>
      </defs>
      <g>
       <use xlink:href="#m1a6f17ce05" x="57.17" y="190.626667" style="stroke: #000000; stroke-width: 0.8"/>
      </g>
     </g>
     <g id="text_1">
      <!-- 20 -->
      <g transform="translate(50.8075 205.225104) scale(0.1 -0.1)">
       <defs>
        <path id="DejaVuSans-32" d="M 1228 531 
L 3431 531 
L 3431 0 
L 469 0 
L 469 531 
Q 828 903 1448 1529 
Q 2069 2156 2228 2338 
Q 2531 2678 2651 2914 
Q 2772 3150 2772 3378 
Q 2772 3750 2511 3984 
Q 2250 4219 1831 4219 
Q 1534 4219 1204 4116 
Q 875 4013 500 3803 
L 500 4441 
Q 881 4594 1212 4672 
Q 1544 4750 1819 4750 
Q 2544 4750 2975 4387 
Q 3406 4025 3406 3419 
Q 3406 3131 3298 2873 
Q 3191 2616 2906 2266 
Q 2828 2175 2409 1742 
Q 1991 1309 1228 531 
z
" transform="scale(0.015625)"/>
        <path id="DejaVuSans-30" d="M 2034 4250 
Q 1547 4250 1301 3770 
Q 1056 3291 1056 2328 
Q 1056 1369 1301 889 
Q 1547 409 2034 409 
Q 2525 409 2770 889 
Q 3016 1369 3016 2328 
Q 3016 3291 2770 3770 
Q 2525 4250 2034 4250 
z
M 2034 4750 
Q 2819 4750 3233 4129 
Q 3647 3509 3647 2328 
Q 3647 1150 3233 529 
Q 2819 -91 2034 -91 
Q 1250 -91 836 529 
Q 422 1150 422 2328 
Q 422 3509 836 4129 
Q 1250 4750 2034 4750 
z
" transform="scale(0.015625)"/>
       </defs>
       <use xlink:href="#DejaVuSans-32"/>
       <use xlink:href="#DejaVuSans-30" x="63.623047"/>
      </g>
     </g>
    </g>
    <g id="xtick_2">
     <g id="line2d_2">
      <g>
       <use xlink:href="#m1a6f17ce05" x="91.020769" y="190.626667" style="stroke: #000000; stroke-width: 0.8"/>
      </g>
     </g>
     <g id="text_2">
      <!-- 40 -->
      <g transform="translate(84.658269 205.225104) scale(0.1 -0.1)">
       <defs>
        <path id="DejaVuSans-34" d="M 2419 4116 
L 825 1625 
L 2419 1625 
L 2419 4116 
z
M 2253 4666 
L 3047 4666 
L 3047 1625 
L 3713 1625 
L 3713 1100 
L 3047 1100 
L 3047 0 
L 2419 0 
L 2419 1100 
L 313 1100 
L 313 1709 
L 2253 4666 
z
" transform="scale(0.015625)"/>
       </defs>
       <use xlink:href="#DejaVuSans-34"/>
       <use xlink:href="#DejaVuSans-30" x="63.623047"/>
      </g>
     </g>
    </g>
    <g id="xtick_3">
     <g id="line2d_3">
      <g>
       <use xlink:href="#m1a6f17ce05" x="124.871538" y="190.626667" style="stroke: #000000; stroke-width: 0.8"/>
      </g>
     </g>
     <g id="text_3">
      <!-- 60 -->
      <g transform="translate(118.509038 205.225104) scale(0.1 -0.1)">
       <defs>
        <path id="DejaVuSans-36" d="M 2113 2584 
Q 1688 2584 1439 2293 
Q 1191 2003 1191 1497 
Q 1191 994 1439 701 
Q 1688 409 2113 409 
Q 2538 409 2786 701 
Q 3034 994 3034 1497 
Q 3034 2003 2786 2293 
Q 2538 2584 2113 2584 
z
M 3366 4563 
L 3366 3988 
Q 3128 4100 2886 4159 
Q 2644 4219 2406 4219 
Q 1781 4219 1451 3797 
Q 1122 3375 1075 2522 
Q 1259 2794 1537 2939 
Q 1816 3084 2150 3084 
Q 2853 3084 3261 2657 
Q 3669 2231 3669 1497 
Q 3669 778 3244 343 
Q 2819 -91 2113 -91 
Q 1303 -91 875 529 
Q 447 1150 447 2328 
Q 447 3434 972 4092 
Q 1497 4750 2381 4750 
Q 2619 4750 2861 4703 
Q 3103 4656 3366 4563 
z
" transform="scale(0.015625)"/>
       </defs>
       <use xlink:href="#DejaVuSans-36"/>
       <use xlink:href="#DejaVuSans-30" x="63.623047"/>
      </g>
     </g>
    </g>
    <g id="xtick_4">
     <g id="line2d_4">
      <g>
       <use xlink:href="#m1a6f17ce05" x="158.722308" y="190.626667" style="stroke: #000000; stroke-width: 0.8"/>
      </g>
     </g>
     <g id="text_4">
      <!-- 80 -->
      <g transform="translate(152.359808 205.225104) scale(0.1 -0.1)">
       <defs>
        <path id="DejaVuSans-38" d="M 2034 2216 
Q 1584 2216 1326 1975 
Q 1069 1734 1069 1313 
Q 1069 891 1326 650 
Q 1584 409 2034 409 
Q 2484 409 2743 651 
Q 3003 894 3003 1313 
Q 3003 1734 2745 1975 
Q 2488 2216 2034 2216 
z
M 1403 2484 
Q 997 2584 770 2862 
Q 544 3141 544 3541 
Q 544 4100 942 4425 
Q 1341 4750 2034 4750 
Q 2731 4750 3128 4425 
Q 3525 4100 3525 3541 
Q 3525 3141 3298 2862 
Q 3072 2584 2669 2484 
Q 3125 2378 3379 2068 
Q 3634 1759 3634 1313 
Q 3634 634 3220 271 
Q 2806 -91 2034 -91 
Q 1263 -91 848 271 
Q 434 634 434 1313 
Q 434 1759 690 2068 
Q 947 2378 1403 2484 
z
M 1172 3481 
Q 1172 3119 1398 2916 
Q 1625 2713 2034 2713 
Q 2441 2713 2670 2916 
Q 2900 3119 2900 3481 
Q 2900 3844 2670 4047 
Q 2441 4250 2034 4250 
Q 1625 4250 1398 4047 
Q 1172 3844 1172 3481 
z
" transform="scale(0.015625)"/>
       </defs>
       <use xlink:href="#DejaVuSans-38"/>
       <use xlink:href="#DejaVuSans-30" x="63.623047"/>
      </g>
     </g>
    </g>
    <g id="xtick_5">
     <g id="line2d_5">
      <g>
       <use xlink:href="#m1a6f17ce05" x="192.573077" y="190.626667" style="stroke: #000000; stroke-width: 0.8"/>
      </g>
     </g>
     <g id="text_5">
      <!-- 100 -->
      <g transform="translate(183.029327 205.225104) scale(0.1 -0.1)">
       <defs>
        <path id="DejaVuSans-31" d="M 794 531 
L 1825 531 
L 1825 4091 
L 703 3866 
L 703 4441 
L 1819 4666 
L 2450 4666 
L 2450 531 
L 3481 531 
L 3481 0 
L 794 0 
L 794 531 
z
" transform="scale(0.015625)"/>
       </defs>
       <use xlink:href="#DejaVuSans-31"/>
       <use xlink:href="#DejaVuSans-30" x="63.623047"/>
       <use xlink:href="#DejaVuSans-30" x="127.246094"/>
      </g>
     </g>
    </g>
    <g id="xtick_6">
     <g id="line2d_6">
      <g>
       <use xlink:href="#m1a6f17ce05" x="226.423846" y="190.626667" style="stroke: #000000; stroke-width: 0.8"/>
      </g>
     </g>
     <g id="text_6">
      <!-- 120 -->
      <g transform="translate(216.880096 205.225104) scale(0.1 -0.1)">
       <use xlink:href="#DejaVuSans-31"/>
       <use xlink:href="#DejaVuSans-32" x="63.623047"/>
       <use xlink:href="#DejaVuSans-30" x="127.246094"/>
      </g>
     </g>
    </g>
    <g id="xtick_7">
     <g id="line2d_7">
      <g>
       <use xlink:href="#m1a6f17ce05" x="260.274615" y="190.626667" style="stroke: #000000; stroke-width: 0.8"/>
      </g>
     </g>
     <g id="text_7">
      <!-- 140 -->
      <g transform="translate(250.730865 205.225104) scale(0.1 -0.1)">
       <use xlink:href="#DejaVuSans-31"/>
       <use xlink:href="#DejaVuSans-34" x="63.623047"/>
       <use xlink:href="#DejaVuSans-30" x="127.246094"/>
      </g>
     </g>
    </g>
   </g>
   <g id="matplotlib.axis_2">
    <g id="ytick_1">
     <g id="line2d_8">
      <defs>
       <path id="m5aa0412cab" d="M 0 0 
L -3.5 0 
" style="stroke: #000000; stroke-width: 0.8"/>
      </defs>
      <g>
       <use xlink:href="#m5aa0412cab" x="57.17" y="190.626667" style="stroke: #000000; stroke-width: 0.8"/>
      </g>
     </g>
     <g id="text_8">
      <!-- 0 -->
      <g transform="translate(43.8075 194.425885) scale(0.1 -0.1)">
       <use xlink:href="#DejaVuSans-30"/>
      </g>
     </g>
    </g>
    <g id="ytick_2">
     <g id="line2d_9">
      <g>
       <use xlink:href="#m5aa0412cab" x="57.17" y="163.519843" style="stroke: #000000; stroke-width: 0.8"/>
      </g>
     </g>
     <g id="text_9">
      <!-- 500 -->
      <g transform="translate(31.0825 167.319062) scale(0.1 -0.1)">
       <defs>
        <path id="DejaVuSans-35" d="M 691 4666 
L 3169 4666 
L 3169 4134 
L 1269 4134 
L 1269 2991 
Q 1406 3038 1543 3061 
Q 1681 3084 1819 3084 
Q 2600 3084 3056 2656 
Q 3513 2228 3513 1497 
Q 3513 744 3044 326 
Q 2575 -91 1722 -91 
Q 1428 -91 1123 -41 
Q 819 9 494 109 
L 494 744 
Q 775 591 1075 516 
Q 1375 441 1709 441 
Q 2250 441 2565 725 
Q 2881 1009 2881 1497 
Q 2881 1984 2565 2268 
Q 2250 2553 1709 2553 
Q 1456 2553 1204 2497 
Q 953 2441 691 2322 
L 691 4666 
z
" transform="scale(0.015625)"/>
       </defs>
       <use xlink:href="#DejaVuSans-35"/>
       <use xlink:href="#DejaVuSans-30" x="63.623047"/>
       <use xlink:href="#DejaVuSans-30" x="127.246094"/>
      </g>
     </g>
    </g>
    <g id="ytick_3">
     <g id="line2d_10">
      <g>
       <use xlink:href="#m5aa0412cab" x="57.17" y="136.41302" style="stroke: #000000; stroke-width: 0.8"/>
      </g>
     </g>
     <g id="text_10">
      <!-- 1000 -->
      <g transform="translate(24.72 140.212239) scale(0.1 -0.1)">
       <use xlink:href="#DejaVuSans-31"/>
       <use xlink:href="#DejaVuSans-30" x="63.623047"/>
       <use xlink:href="#DejaVuSans-30" x="127.246094"/>
       <use xlink:href="#DejaVuSans-30" x="190.869141"/>
      </g>
     </g>
    </g>
    <g id="ytick_4">
     <g id="line2d_11">
      <g>
       <use xlink:href="#m5aa0412cab" x="57.17" y="109.306196" style="stroke: #000000; stroke-width: 0.8"/>
      </g>
     </g>
     <g id="text_11">
      <!-- 1500 -->
      <g transform="translate(24.72 113.105415) scale(0.1 -0.1)">
       <use xlink:href="#DejaVuSans-31"/>
       <use xlink:href="#DejaVuSans-35" x="63.623047"/>
       <use xlink:href="#DejaVuSans-30" x="127.246094"/>
       <use xlink:href="#DejaVuSans-30" x="190.869141"/>
      </g>
     </g>
    </g>
    <g id="ytick_5">
     <g id="line2d_12">
      <g>
       <use xlink:href="#m5aa0412cab" x="57.17" y="82.199373" style="stroke: #000000; stroke-width: 0.8"/>
      </g>
     </g>
     <g id="text_12">
      <!-- 2000 -->
      <g transform="translate(24.72 85.998592) scale(0.1 -0.1)">
       <use xlink:href="#DejaVuSans-32"/>
       <use xlink:href="#DejaVuSans-30" x="63.623047"/>
       <use xlink:href="#DejaVuSans-30" x="127.246094"/>
       <use xlink:href="#DejaVuSans-30" x="190.869141"/>
      </g>
     </g>
    </g>
    <g id="ytick_6">
     <g id="line2d_13">
      <g>
       <use xlink:href="#m5aa0412cab" x="57.17" y="55.092549" style="stroke: #000000; stroke-width: 0.8"/>
      </g>
     </g>
     <g id="text_13">
      <!-- 2500 -->
      <g transform="translate(24.72 58.891768) scale(0.1 -0.1)">
       <use xlink:href="#DejaVuSans-32"/>
       <use xlink:href="#DejaVuSans-35" x="63.623047"/>
       <use xlink:href="#DejaVuSans-30" x="127.246094"/>
       <use xlink:href="#DejaVuSans-30" x="190.869141"/>
      </g>
     </g>
    </g>
    <g id="ytick_7">
     <g id="line2d_14">
      <g>
       <use xlink:href="#m5aa0412cab" x="57.17" y="27.985726" style="stroke: #000000; stroke-width: 0.8"/>
      </g>
     </g>
     <g id="text_14">
      <!-- 3000 -->
      <g transform="translate(24.72 31.784945) scale(0.1 -0.1)">
       <defs>
        <path id="DejaVuSans-33" d="M 2597 2516 
Q 3050 2419 3304 2112 
Q 3559 1806 3559 1356 
Q 3559 666 3084 287 
Q 2609 -91 1734 -91 
Q 1441 -91 1130 -33 
Q 819 25 488 141 
L 488 750 
Q 750 597 1062 519 
Q 1375 441 1716 441 
Q 2309 441 2620 675 
Q 2931 909 2931 1356 
Q 2931 1769 2642 2001 
Q 2353 2234 1838 2234 
L 1294 2234 
L 1294 2753 
L 1863 2753 
Q 2328 2753 2575 2939 
Q 2822 3125 2822 3475 
Q 2822 3834 2567 4026 
Q 2313 4219 1838 4219 
Q 1578 4219 1281 4162 
Q 984 4106 628 3988 
L 628 4550 
Q 988 4650 1302 4700 
Q 1616 4750 1894 4750 
Q 2613 4750 3031 4423 
Q 3450 4097 3450 3541 
Q 3450 3153 3228 2886 
Q 3006 2619 2597 2516 
z
" transform="scale(0.015625)"/>
       </defs>
       <use xlink:href="#DejaVuSans-33"/>
       <use xlink:href="#DejaVuSans-30" x="63.623047"/>
       <use xlink:href="#DejaVuSans-30" x="127.246094"/>
       <use xlink:href="#DejaVuSans-30" x="190.869141"/>
      </g>
     </g>
    </g>
    <g id="text_15">
     <!-- Pixel Frequency -->
     <g transform="translate(18.640313 139.69224) rotate(-90) scale(0.1 -0.1)">
      <defs>
       <path id="DejaVuSans-50" d="M 1259 4147 
L 1259 2394 
L 2053 2394 
Q 2494 2394 2734 2622 
Q 2975 2850 2975 3272 
Q 2975 3691 2734 3919 
Q 2494 4147 2053 4147 
L 1259 4147 
z
M 628 4666 
L 2053 4666 
Q 2838 4666 3239 4311 
Q 3641 3956 3641 3272 
Q 3641 2581 3239 2228 
Q 2838 1875 2053 1875 
L 1259 1875 
L 1259 0 
L 628 0 
L 628 4666 
z
" transform="scale(0.015625)"/>
       <path id="DejaVuSans-69" d="M 603 3500 
L 1178 3500 
L 1178 0 
L 603 0 
L 603 3500 
z
M 603 4863 
L 1178 4863 
L 1178 4134 
L 603 4134 
L 603 4863 
z
" transform="scale(0.015625)"/>
       <path id="DejaVuSans-78" d="M 3513 3500 
L 2247 1797 
L 3578 0 
L 2900 0 
L 1881 1375 
L 863 0 
L 184 0 
L 1544 1831 
L 300 3500 
L 978 3500 
L 1906 2253 
L 2834 3500 
L 3513 3500 
z
" transform="scale(0.015625)"/>
       <path id="DejaVuSans-65" d="M 3597 1894 
L 3597 1613 
L 953 1613 
Q 991 1019 1311 708 
Q 1631 397 2203 397 
Q 2534 397 2845 478 
Q 3156 559 3463 722 
L 3463 178 
Q 3153 47 2828 -22 
Q 2503 -91 2169 -91 
Q 1331 -91 842 396 
Q 353 884 353 1716 
Q 353 2575 817 3079 
Q 1281 3584 2069 3584 
Q 2775 3584 3186 3129 
Q 3597 2675 3597 1894 
z
M 3022 2063 
Q 3016 2534 2758 2815 
Q 2500 3097 2075 3097 
Q 1594 3097 1305 2825 
Q 1016 2553 972 2059 
L 3022 2063 
z
" transform="scale(0.015625)"/>
       <path id="DejaVuSans-6c" d="M 603 4863 
L 1178 4863 
L 1178 0 
L 603 0 
L 603 4863 
z
" transform="scale(0.015625)"/>
       <path id="DejaVuSans-20" transform="scale(0.015625)"/>
       <path id="DejaVuSans-46" d="M 628 4666 
L 3309 4666 
L 3309 4134 
L 1259 4134 
L 1259 2759 
L 3109 2759 
L 3109 2228 
L 1259 2228 
L 1259 0 
L 628 0 
L 628 4666 
z
" transform="scale(0.015625)"/>
       <path id="DejaVuSans-72" d="M 2631 2963 
Q 2534 3019 2420 3045 
Q 2306 3072 2169 3072 
Q 1681 3072 1420 2755 
Q 1159 2438 1159 1844 
L 1159 0 
L 581 0 
L 581 3500 
L 1159 3500 
L 1159 2956 
Q 1341 3275 1631 3429 
Q 1922 3584 2338 3584 
Q 2397 3584 2469 3576 
Q 2541 3569 2628 3553 
L 2631 2963 
z
" transform="scale(0.015625)"/>
       <path id="DejaVuSans-71" d="M 947 1747 
Q 947 1113 1208 752 
Q 1469 391 1925 391 
Q 2381 391 2643 752 
Q 2906 1113 2906 1747 
Q 2906 2381 2643 2742 
Q 2381 3103 1925 3103 
Q 1469 3103 1208 2742 
Q 947 2381 947 1747 
z
M 2906 525 
Q 2725 213 2448 61 
Q 2172 -91 1784 -91 
Q 1150 -91 751 415 
Q 353 922 353 1747 
Q 353 2572 751 3078 
Q 1150 3584 1784 3584 
Q 2172 3584 2448 3432 
Q 2725 3281 2906 2969 
L 2906 3500 
L 3481 3500 
L 3481 -1331 
L 2906 -1331 
L 2906 525 
z
" transform="scale(0.015625)"/>
       <path id="DejaVuSans-75" d="M 544 1381 
L 544 3500 
L 1119 3500 
L 1119 1403 
Q 1119 906 1312 657 
Q 1506 409 1894 409 
Q 2359 409 2629 706 
Q 2900 1003 2900 1516 
L 2900 3500 
L 3475 3500 
L 3475 0 
L 2900 0 
L 2900 538 
Q 2691 219 2414 64 
Q 2138 -91 1772 -91 
Q 1169 -91 856 284 
Q 544 659 544 1381 
z
M 1991 3584 
L 1991 3584 
z
" transform="scale(0.015625)"/>
       <path id="DejaVuSans-6e" d="M 3513 2113 
L 3513 0 
L 2938 0 
L 2938 2094 
Q 2938 2591 2744 2837 
Q 2550 3084 2163 3084 
Q 1697 3084 1428 2787 
Q 1159 2491 1159 1978 
L 1159 0 
L 581 0 
L 581 3500 
L 1159 3500 
L 1159 2956 
Q 1366 3272 1645 3428 
Q 1925 3584 2291 3584 
Q 2894 3584 3203 3211 
Q 3513 2838 3513 2113 
z
" transform="scale(0.015625)"/>
       <path id="DejaVuSans-63" d="M 3122 3366 
L 3122 2828 
Q 2878 2963 2633 3030 
Q 2388 3097 2138 3097 
Q 1578 3097 1268 2742 
Q 959 2388 959 1747 
Q 959 1106 1268 751 
Q 1578 397 2138 397 
Q 2388 397 2633 464 
Q 2878 531 3122 666 
L 3122 134 
Q 2881 22 2623 -34 
Q 2366 -91 2075 -91 
Q 1284 -91 818 406 
Q 353 903 353 1747 
Q 353 2603 823 3093 
Q 1294 3584 2113 3584 
Q 2378 3584 2631 3529 
Q 2884 3475 3122 3366 
z
" transform="scale(0.015625)"/>
       <path id="DejaVuSans-79" d="M 2059 -325 
Q 1816 -950 1584 -1140 
Q 1353 -1331 966 -1331 
L 506 -1331 
L 506 -850 
L 844 -850 
Q 1081 -850 1212 -737 
Q 1344 -625 1503 -206 
L 1606 56 
L 191 3500 
L 800 3500 
L 1894 763 
L 2988 3500 
L 3597 3500 
L 2059 -325 
z
" transform="scale(0.015625)"/>
      </defs>
      <use xlink:href="#DejaVuSans-50"/>
      <use xlink:href="#DejaVuSans-69" x="58.052734"/>
      <use xlink:href="#DejaVuSans-78" x="85.835938"/>
      <use xlink:href="#DejaVuSans-65" x="141.890625"/>
      <use xlink:href="#DejaVuSans-6c" x="203.414062"/>
      <use xlink:href="#DejaVuSans-20" x="231.197266"/>
      <use xlink:href="#DejaVuSans-46" x="262.984375"/>
      <use xlink:href="#DejaVuSans-72" x="313.253906"/>
      <use xlink:href="#DejaVuSans-65" x="352.117188"/>
      <use xlink:href="#DejaVuSans-71" x="413.640625"/>
      <use xlink:href="#DejaVuSans-75" x="477.117188"/>
      <use xlink:href="#DejaVuSans-65" x="540.496094"/>
      <use xlink:href="#DejaVuSans-6e" x="602.019531"/>
      <use xlink:href="#DejaVuSans-63" x="665.398438"/>
      <use xlink:href="#DejaVuSans-79" x="720.378906"/>
     </g>
    </g>
   </g>
   <g id="line2d_15">
    <path d="M 23.319231 190.626667 
L 80.865538 190.626667 
L 82.558077 190.464026 
L 84.250615 190.518239 
L 85.943154 190.247171 
L 87.635692 190.247171 
L 89.328231 189.813462 
L 91.020769 188.89183 
L 92.713308 188.566548 
L 94.405846 186.885925 
L 96.098385 186.126934 
L 97.790923 180.922424 
L 99.483462 169.754413 
L 101.176 164.170407 
L 102.868538 159.074324 
L 104.561077 151.647055 
L 107.946154 130.449519 
L 109.638692 112.77587 
L 111.331231 80.735604 
L 113.023769 51.514449 
L 114.716308 34.870859 
L 116.408846 46.147298 
L 118.101385 55.417831 
L 119.793923 69.621807 
L 121.486462 82.253587 
L 123.179 99.818808 
L 124.871538 107.842428 
L 126.564077 117.817739 
L 128.256615 125.028154 
L 129.949154 134.515542 
L 131.641692 138.093643 
L 135.026769 143.731862 
L 136.719308 148.665304 
L 138.411846 146.063049 
L 140.104385 150.454354 
L 141.796923 152.514473 
L 145.182 153.544532 
L 146.874538 152.839755 
L 148.567077 155.333583 
L 150.259615 157.502128 
L 151.952154 158.261119 
L 153.644692 159.887529 
L 155.337231 160.104383 
L 157.029769 163.682484 
L 158.722308 163.194561 
L 160.414846 166.664235 
L 162.107385 166.772662 
L 163.799923 167.152158 
L 165.492462 169.320703 
L 167.185 169.374917 
L 168.877538 170.784472 
L 170.570077 169.754413 
L 172.262615 174.308359 
L 173.955154 173.657795 
L 175.647692 174.958923 
L 177.340231 175.013136 
L 179.032769 176.639546 
L 180.725308 178.699664 
L 182.417846 178.48281 
L 185.802923 178.699664 
L 187.495462 180.163433 
L 189.188 179.350228 
L 190.880538 180.976638 
L 192.573077 178.916519 
L 194.265615 179.621296 
L 195.958154 180.109219 
L 197.650692 181.681415 
L 199.343231 180.326074 
L 201.035769 181.139278 
L 202.728308 181.572988 
L 204.420846 180.813997 
L 206.113385 182.006697 
L 207.805923 181.89827 
L 209.498462 182.223551 
L 211.191 184.608952 
L 212.883538 185.259516 
L 214.576077 184.717379 
L 216.268615 187.10278 
L 217.961154 187.319634 
L 219.653692 188.566548 
L 223.038769 188.566548 
L 224.731308 188.29548 
L 226.423846 188.89183 
L 228.116385 189.217112 
L 229.808923 189.921889 
L 231.501462 189.325539 
L 233.194 189.379753 
L 234.886538 189.813462 
L 236.579077 189.976103 
L 238.271615 189.976103 
L 239.964154 190.409812 
L 241.656692 189.976103 
L 243.349231 190.138744 
L 245.041769 190.138744 
L 246.734308 190.355598 
L 251.811923 190.301385 
L 256.889538 190.355598 
L 258.582077 190.138744 
L 260.274615 190.464026 
L 261.967154 190.626667 
L 263.659692 190.192957 
L 267.044769 190.572453 
L 270.429846 190.409812 
L 272.122385 190.572453 
L 277.2 190.572453 
L 278.892538 190.409812 
L 280.585077 190.626667 
L 282.277615 190.518239 
L 287.355231 190.626667 
L 289 190.573983 
L 289 190.573983 
" clip-path="url(#p5aa7fe384d)" style="fill: none; stroke: #ff0000; stroke-width: 1.5; stroke-linecap: square"/>
   </g>
   <g id="patch_3">
    <path d="M 57.17 190.626667 
L 57.17 10.8 
" style="fill: none; stroke: #000000; stroke-width: 0.8; stroke-linejoin: miter; stroke-linecap: square"/>
   </g>
   <g id="patch_4">
    <path d="M 277.2 190.626667 
L 277.2 10.8 
" style="fill: none; stroke: #000000; stroke-width: 0.8; stroke-linejoin: miter; stroke-linecap: square"/>
   </g>
   <g id="patch_5">
    <path d="M 57.17 190.626667 
L 277.2 190.626667 
" style="fill: none; stroke: #000000; stroke-width: 0.8; stroke-linejoin: miter; stroke-linecap: square"/>
   </g>
   <g id="patch_6">
    <path d="M 57.17 10.8 
L 277.2 10.8 
" style="fill: none; stroke: #000000; stroke-width: 0.8; stroke-linejoin: miter; stroke-linecap: square"/>
   </g>
   <g id="text_16">
    <!-- Red Channel  -->
    <g transform="translate(197.506875 24.8) scale(0.12 -0.12)">
     <defs>
      <path id="DejaVuSans-52" d="M 2841 2188 
Q 3044 2119 3236 1894 
Q 3428 1669 3622 1275 
L 4263 0 
L 3584 0 
L 2988 1197 
Q 2756 1666 2539 1819 
Q 2322 1972 1947 1972 
L 1259 1972 
L 1259 0 
L 628 0 
L 628 4666 
L 2053 4666 
Q 2853 4666 3247 4331 
Q 3641 3997 3641 3322 
Q 3641 2881 3436 2590 
Q 3231 2300 2841 2188 
z
M 1259 4147 
L 1259 2491 
L 2053 2491 
Q 2509 2491 2742 2702 
Q 2975 2913 2975 3322 
Q 2975 3731 2742 3939 
Q 2509 4147 2053 4147 
L 1259 4147 
z
" transform="scale(0.015625)"/>
      <path id="DejaVuSans-64" d="M 2906 2969 
L 2906 4863 
L 3481 4863 
L 3481 0 
L 2906 0 
L 2906 525 
Q 2725 213 2448 61 
Q 2172 -91 1784 -91 
Q 1150 -91 751 415 
Q 353 922 353 1747 
Q 353 2572 751 3078 
Q 1150 3584 1784 3584 
Q 2172 3584 2448 3432 
Q 2725 3281 2906 2969 
z
M 947 1747 
Q 947 1113 1208 752 
Q 1469 391 1925 391 
Q 2381 391 2643 752 
Q 2906 1113 2906 1747 
Q 2906 2381 2643 2742 
Q 2381 3103 1925 3103 
Q 1469 3103 1208 2742 
Q 947 2381 947 1747 
z
" transform="scale(0.015625)"/>
      <path id="DejaVuSans-43" d="M 4122 4306 
L 4122 3641 
Q 3803 3938 3442 4084 
Q 3081 4231 2675 4231 
Q 1875 4231 1450 3742 
Q 1025 3253 1025 2328 
Q 1025 1406 1450 917 
Q 1875 428 2675 428 
Q 3081 428 3442 575 
Q 3803 722 4122 1019 
L 4122 359 
Q 3791 134 3420 21 
Q 3050 -91 2638 -91 
Q 1578 -91 968 557 
Q 359 1206 359 2328 
Q 359 3453 968 4101 
Q 1578 4750 2638 4750 
Q 3056 4750 3426 4639 
Q 3797 4528 4122 4306 
z
" transform="scale(0.015625)"/>
      <path id="DejaVuSans-68" d="M 3513 2113 
L 3513 0 
L 2938 0 
L 2938 2094 
Q 2938 2591 2744 2837 
Q 2550 3084 2163 3084 
Q 1697 3084 1428 2787 
Q 1159 2491 1159 1978 
L 1159 0 
L 581 0 
L 581 4863 
L 1159 4863 
L 1159 2956 
Q 1366 3272 1645 3428 
Q 1925 3584 2291 3584 
Q 2894 3584 3203 3211 
Q 3513 2838 3513 2113 
z
" transform="scale(0.015625)"/>
      <path id="DejaVuSans-61" d="M 2194 1759 
Q 1497 1759 1228 1600 
Q 959 1441 959 1056 
Q 959 750 1161 570 
Q 1363 391 1709 391 
Q 2188 391 2477 730 
Q 2766 1069 2766 1631 
L 2766 1759 
L 2194 1759 
z
M 3341 1997 
L 3341 0 
L 2766 0 
L 2766 531 
Q 2569 213 2275 61 
Q 1981 -91 1556 -91 
Q 1019 -91 701 211 
Q 384 513 384 1019 
Q 384 1609 779 1909 
Q 1175 2209 1959 2209 
L 2766 2209 
L 2766 2266 
Q 2766 2663 2505 2880 
Q 2244 3097 1772 3097 
Q 1472 3097 1187 3025 
Q 903 2953 641 2809 
L 641 3341 
Q 956 3463 1253 3523 
Q 1550 3584 1831 3584 
Q 2591 3584 2966 3190 
Q 3341 2797 3341 1997 
z
" transform="scale(0.015625)"/>
     </defs>
     <use xlink:href="#DejaVuSans-52"/>
     <use xlink:href="#DejaVuSans-65" x="64.982422"/>
     <use xlink:href="#DejaVuSans-64" x="126.505859"/>
     <use xlink:href="#DejaVuSans-20" x="189.982422"/>
     <use xlink:href="#DejaVuSans-43" x="221.769531"/>
     <use xlink:href="#DejaVuSans-68" x="291.59375"/>
     <use xlink:href="#DejaVuSans-61" x="354.972656"/>
     <use xlink:href="#DejaVuSans-6e" x="416.251953"/>
     <use xlink:href="#DejaVuSans-6e" x="479.630859"/>
     <use xlink:href="#DejaVuSans-65" x="543.009766"/>
     <use xlink:href="#DejaVuSans-6c" x="604.533203"/>
     <use xlink:href="#DejaVuSans-20" x="632.316406"/>
    </g>
   </g>
  </g>
  <g id="axes_2">
   <g id="patch_7">
    <path d="M 57.17 398.333333 
L 277.2 398.333333 
L 277.2 218.506667 
L 57.17 218.506667 
z
" style="fill: #ffffff"/>
   </g>
   <g id="PolyCollection_2">
    <path d="M 23.319231 398.333333 
L 23.319231 398.333333 
L 25.011769 398.333333 
L 26.704308 398.333333 
L 28.396846 398.333333 
L 30.089385 398.333333 
L 31.781923 398.333333 
L 33.474462 398.333333 
L 35.167 398.333333 
L 36.859538 398.333333 
L 38.552077 398.333333 
L 40.244615 398.333333 
L 41.937154 398.333333 
L 43.629692 398.333333 
L 45.322231 398.333333 
L 47.014769 398.333333 
L 48.707308 398.333333 
L 50.399846 398.333333 
L 52.092385 398.333333 
L 53.784923 398.333333 
L 55.477462 398.333333 
L 57.17 398.333333 
L 58.862538 398.333333 
L 60.555077 398.333333 
L 62.247615 398.333333 
L 63.940154 398.333333 
L 65.632692 398.333333 
L 67.325231 398.333333 
L 69.017769 398.333333 
L 70.710308 398.333333 
L 72.402846 398.333333 
L 74.095385 398.333333 
L 75.787923 398.27912 
L 77.480462 398.062265 
L 79.173 398.116479 
L 80.865538 397.953838 
L 82.558077 397.032206 
L 84.250615 396.598497 
L 85.943154 395.947933 
L 87.635692 395.080515 
L 89.328231 392.695114 
L 91.020769 386.026835 
L 92.713308 380.280189 
L 94.405846 378.111643 
L 96.098385 367.865264 
L 97.790923 357.076748 
L 99.483462 335.770785 
L 101.176 314.085326 
L 102.868538 288.008562 
L 104.561077 275.322569 
L 106.253615 270.226486 
L 107.946154 275.973132 
L 109.638692 283.942538 
L 111.331231 293.050431 
L 113.023769 299.71871 
L 114.716308 311.808353 
L 116.408846 318.476631 
L 118.101385 327.096601 
L 119.793923 335.987639 
L 121.486462 344.065473 
L 123.179 346.125591 
L 124.871538 350.733751 
L 126.564077 348.673633 
L 128.256615 352.360161 
L 129.949154 355.61298 
L 131.641692 359.407935 
L 133.334231 363.257104 
L 135.026769 365.913573 
L 136.719308 363.311317 
L 138.411846 368.027905 
L 140.104385 365.100368 
L 141.796923 367.702623 
L 143.489462 365.805145 
L 145.182 368.136332 
L 146.874538 365.317222 
L 148.567077 369.166391 
L 150.259615 367.431555 
L 151.952154 367.594196 
L 153.644692 371.714433 
L 155.337231 372.310783 
L 157.029769 373.882979 
L 158.722308 374.533542 
L 160.414846 375.563602 
L 162.107385 376.105738 
L 163.799923 378.382711 
L 165.492462 378.111643 
L 167.185 379.358557 
L 168.877538 380.497044 
L 170.570077 380.171762 
L 172.262615 380.984966 
L 173.955154 382.719803 
L 175.647692 382.286094 
L 177.340231 383.153512 
L 179.032769 383.695649 
L 180.725308 384.671494 
L 182.417846 387.219536 
L 184.110385 385.701554 
L 185.802923 387.544818 
L 187.495462 386.026835 
L 189.188 388.574877 
L 190.880538 387.978527 
L 192.573077 388.141168 
L 194.265615 389.65915 
L 195.958154 389.930218 
L 197.650692 390.580782 
L 199.343231 388.629091 
L 201.035769 388.954372 
L 202.728308 389.876004 
L 204.420846 390.038645 
L 206.113385 390.634995 
L 207.805923 390.906064 
L 209.498462 390.580782 
L 211.191 390.147073 
L 212.883538 389.171227 
L 214.576077 389.171227 
L 216.268615 388.629091 
L 217.961154 390.147073 
L 219.653692 389.821791 
L 221.346231 389.333868 
L 223.038769 391.285559 
L 224.731308 390.689209 
L 226.423846 392.532473 
L 228.116385 393.942028 
L 229.808923 394.809446 
L 231.501462 395.622651 
L 233.194 394.646805 
L 234.886538 395.568437 
L 236.579077 396.110574 
L 238.271615 396.110574 
L 239.964154 396.544283 
L 241.656692 396.544283 
L 243.349231 396.706924 
L 245.041769 396.435856 
L 246.734308 397.032206 
L 248.426846 396.815351 
L 250.119385 397.357488 
L 251.811923 397.520129 
L 253.504462 397.357488 
L 255.197 397.953838 
L 256.889538 398.008051 
L 258.582077 397.357488 
L 260.274615 397.628556 
L 261.967154 397.845411 
L 263.659692 397.736983 
L 265.352231 397.791197 
L 267.044769 398.170692 
L 268.737308 398.062265 
L 270.429846 398.062265 
L 272.122385 398.008051 
L 273.814923 397.791197 
L 275.507462 398.170692 
L 277.2 398.062265 
L 278.892538 398.170692 
L 280.585077 398.116479 
L 282.277615 398.008051 
L 283.970154 398.116479 
L 285.662692 398.170692 
L 287.355231 398.333333 
L 289.047769 398.224906 
L 290.740308 398.224906 
L 292.432846 398.224906 
L 294.125385 398.333333 
L 295.817923 398.27912 
L 297.510462 398.27912 
L 299.203 398.224906 
L 300.895538 398.062265 
L 302.588077 398.170692 
L 304.280615 398.333333 
L 305.973154 398.333333 
L 307.665692 398.27912 
L 309.358231 398.27912 
L 311.050769 398.333333 
L 312.743308 398.333333 
L 314.435846 398.333333 
L 316.128385 398.27912 
L 317.820923 398.333333 
L 319.513462 398.333333 
L 321.206 398.27912 
L 322.898538 398.333333 
L 324.591077 398.333333 
L 326.283615 398.333333 
L 327.976154 398.333333 
L 329.668692 398.27912 
L 331.361231 398.333333 
L 333.053769 398.333333 
L 334.746308 398.333333 
L 336.438846 398.333333 
L 338.131385 398.27912 
L 339.823923 398.333333 
L 341.516462 398.333333 
L 343.209 398.333333 
L 344.901538 398.333333 
L 346.594077 398.333333 
L 348.286615 398.333333 
L 349.979154 398.333333 
L 351.671692 398.333333 
L 353.364231 398.333333 
L 355.056769 398.333333 
L 356.749308 398.333333 
L 358.441846 398.333333 
L 360.134385 398.333333 
L 361.826923 398.333333 
L 363.519462 398.333333 
L 365.212 398.333333 
L 366.904538 398.333333 
L 368.597077 398.333333 
L 370.289615 398.333333 
L 371.982154 398.333333 
L 373.674692 398.333333 
L 375.367231 398.333333 
L 377.059769 398.333333 
L 378.752308 398.333333 
L 380.444846 398.333333 
L 382.137385 398.333333 
L 383.829923 398.333333 
L 385.522462 398.333333 
L 387.215 398.333333 
L 388.907538 398.333333 
L 390.600077 398.333333 
L 392.292615 398.333333 
L 393.985154 398.333333 
L 395.677692 398.333333 
L 397.370231 398.333333 
L 399.062769 398.333333 
L 400.755308 398.333333 
L 402.447846 398.333333 
L 404.140385 398.333333 
L 405.832923 398.333333 
L 407.525462 398.333333 
L 409.218 398.333333 
L 410.910538 398.333333 
L 412.603077 398.333333 
L 414.295615 398.333333 
L 415.988154 398.333333 
L 417.680692 398.333333 
L 419.373231 398.333333 
L 421.065769 398.333333 
L 422.758308 398.333333 
L 424.450846 398.333333 
L 426.143385 398.333333 
L 427.835923 398.333333 
L 429.528462 398.333333 
L 431.221 398.333333 
L 432.913538 398.333333 
L 434.606077 398.333333 
L 436.298615 398.333333 
L 437.991154 398.333333 
L 439.683692 398.333333 
L 441.376231 398.333333 
L 443.068769 398.333333 
L 444.761308 398.333333 
L 446.453846 398.333333 
L 448.146385 398.333333 
L 449.838923 398.333333 
L 451.531462 398.333333 
L 453.224 398.333333 
L 454.916538 398.333333 
L 454.916538 398.333333 
L 454.916538 398.333333 
L 453.224 398.333333 
L 451.531462 398.333333 
L 449.838923 398.333333 
L 448.146385 398.333333 
L 446.453846 398.333333 
L 444.761308 398.333333 
L 443.068769 398.333333 
L 441.376231 398.333333 
L 439.683692 398.333333 
L 437.991154 398.333333 
L 436.298615 398.333333 
L 434.606077 398.333333 
L 432.913538 398.333333 
L 431.221 398.333333 
L 429.528462 398.333333 
L 427.835923 398.333333 
L 426.143385 398.333333 
L 424.450846 398.333333 
L 422.758308 398.333333 
L 421.065769 398.333333 
L 419.373231 398.333333 
L 417.680692 398.333333 
L 415.988154 398.333333 
L 414.295615 398.333333 
L 412.603077 398.333333 
L 410.910538 398.333333 
L 409.218 398.333333 
L 407.525462 398.333333 
L 405.832923 398.333333 
L 404.140385 398.333333 
L 402.447846 398.333333 
L 400.755308 398.333333 
L 399.062769 398.333333 
L 397.370231 398.333333 
L 395.677692 398.333333 
L 393.985154 398.333333 
L 392.292615 398.333333 
L 390.600077 398.333333 
L 388.907538 398.333333 
L 387.215 398.333333 
L 385.522462 398.333333 
L 383.829923 398.333333 
L 382.137385 398.333333 
L 380.444846 398.333333 
L 378.752308 398.333333 
L 377.059769 398.333333 
L 375.367231 398.333333 
L 373.674692 398.333333 
L 371.982154 398.333333 
L 370.289615 398.333333 
L 368.597077 398.333333 
L 366.904538 398.333333 
L 365.212 398.333333 
L 363.519462 398.333333 
L 361.826923 398.333333 
L 360.134385 398.333333 
L 358.441846 398.333333 
L 356.749308 398.333333 
L 355.056769 398.333333 
L 353.364231 398.333333 
L 351.671692 398.333333 
L 349.979154 398.333333 
L 348.286615 398.333333 
L 346.594077 398.333333 
L 344.901538 398.333333 
L 343.209 398.333333 
L 341.516462 398.333333 
L 339.823923 398.333333 
L 338.131385 398.333333 
L 336.438846 398.333333 
L 334.746308 398.333333 
L 333.053769 398.333333 
L 331.361231 398.333333 
L 329.668692 398.333333 
L 327.976154 398.333333 
L 326.283615 398.333333 
L 324.591077 398.333333 
L 322.898538 398.333333 
L 321.206 398.333333 
L 319.513462 398.333333 
L 317.820923 398.333333 
L 316.128385 398.333333 
L 314.435846 398.333333 
L 312.743308 398.333333 
L 311.050769 398.333333 
L 309.358231 398.333333 
L 307.665692 398.333333 
L 305.973154 398.333333 
L 304.280615 398.333333 
L 302.588077 398.333333 
L 300.895538 398.333333 
L 299.203 398.333333 
L 297.510462 398.333333 
L 295.817923 398.333333 
L 294.125385 398.333333 
L 292.432846 398.333333 
L 290.740308 398.333333 
L 289.047769 398.333333 
L 287.355231 398.333333 
L 285.662692 398.333333 
L 283.970154 398.333333 
L 282.277615 398.333333 
L 280.585077 398.333333 
L 278.892538 398.333333 
L 277.2 398.333333 
L 275.507462 398.333333 
L 273.814923 398.333333 
L 272.122385 398.333333 
L 270.429846 398.333333 
L 268.737308 398.333333 
L 267.044769 398.333333 
L 265.352231 398.333333 
L 263.659692 398.333333 
L 261.967154 398.333333 
L 260.274615 398.333333 
L 258.582077 398.333333 
L 256.889538 398.333333 
L 255.197 398.333333 
L 253.504462 398.333333 
L 251.811923 398.333333 
L 250.119385 398.333333 
L 248.426846 398.333333 
L 246.734308 398.333333 
L 245.041769 398.333333 
L 243.349231 398.333333 
L 241.656692 398.333333 
L 239.964154 398.333333 
L 238.271615 398.333333 
L 236.579077 398.333333 
L 234.886538 398.333333 
L 233.194 398.333333 
L 231.501462 398.333333 
L 229.808923 398.333333 
L 228.116385 398.333333 
L 226.423846 398.333333 
L 224.731308 398.333333 
L 223.038769 398.333333 
L 221.346231 398.333333 
L 219.653692 398.333333 
L 217.961154 398.333333 
L 216.268615 398.333333 
L 214.576077 398.333333 
L 212.883538 398.333333 
L 211.191 398.333333 
L 209.498462 398.333333 
L 207.805923 398.333333 
L 206.113385 398.333333 
L 204.420846 398.333333 
L 202.728308 398.333333 
L 201.035769 398.333333 
L 199.343231 398.333333 
L 197.650692 398.333333 
L 195.958154 398.333333 
L 194.265615 398.333333 
L 192.573077 398.333333 
L 190.880538 398.333333 
L 189.188 398.333333 
L 187.495462 398.333333 
L 185.802923 398.333333 
L 184.110385 398.333333 
L 182.417846 398.333333 
L 180.725308 398.333333 
L 179.032769 398.333333 
L 177.340231 398.333333 
L 175.647692 398.333333 
L 173.955154 398.333333 
L 172.262615 398.333333 
L 170.570077 398.333333 
L 168.877538 398.333333 
L 167.185 398.333333 
L 165.492462 398.333333 
L 163.799923 398.333333 
L 162.107385 398.333333 
L 160.414846 398.333333 
L 158.722308 398.333333 
L 157.029769 398.333333 
L 155.337231 398.333333 
L 153.644692 398.333333 
L 151.952154 398.333333 
L 150.259615 398.333333 
L 148.567077 398.333333 
L 146.874538 398.333333 
L 145.182 398.333333 
L 143.489462 398.333333 
L 141.796923 398.333333 
L 140.104385 398.333333 
L 138.411846 398.333333 
L 136.719308 398.333333 
L 135.026769 398.333333 
L 133.334231 398.333333 
L 131.641692 398.333333 
L 129.949154 398.333333 
L 128.256615 398.333333 
L 126.564077 398.333333 
L 124.871538 398.333333 
L 123.179 398.333333 
L 121.486462 398.333333 
L 119.793923 398.333333 
L 118.101385 398.333333 
L 116.408846 398.333333 
L 114.716308 398.333333 
L 113.023769 398.333333 
L 111.331231 398.333333 
L 109.638692 398.333333 
L 107.946154 398.333333 
L 106.253615 398.333333 
L 104.561077 398.333333 
L 102.868538 398.333333 
L 101.176 398.333333 
L 99.483462 398.333333 
L 97.790923 398.333333 
L 96.098385 398.333333 
L 94.405846 398.333333 
L 92.713308 398.333333 
L 91.020769 398.333333 
L 89.328231 398.333333 
L 87.635692 398.333333 
L 85.943154 398.333333 
L 84.250615 398.333333 
L 82.558077 398.333333 
L 80.865538 398.333333 
L 79.173 398.333333 
L 77.480462 398.333333 
L 75.787923 398.333333 
L 74.095385 398.333333 
L 72.402846 398.333333 
L 70.710308 398.333333 
L 69.017769 398.333333 
L 67.325231 398.333333 
L 65.632692 398.333333 
L 63.940154 398.333333 
L 62.247615 398.333333 
L 60.555077 398.333333 
L 58.862538 398.333333 
L 57.17 398.333333 
L 55.477462 398.333333 
L 53.784923 398.333333 
L 52.092385 398.333333 
L 50.399846 398.333333 
L 48.707308 398.333333 
L 47.014769 398.333333 
L 45.322231 398.333333 
L 43.629692 398.333333 
L 41.937154 398.333333 
L 40.244615 398.333333 
L 38.552077 398.333333 
L 36.859538 398.333333 
L 35.167 398.333333 
L 33.474462 398.333333 
L 31.781923 398.333333 
L 30.089385 398.333333 
L 28.396846 398.333333 
L 26.704308 398.333333 
L 25.011769 398.333333 
L 23.319231 398.333333 
z
" clip-path="url(#p7db8dba379)" style="fill: #008000; fill-opacity: 0.4; stroke: #008000; stroke-opacity: 0.4"/>
   </g>
   <g id="matplotlib.axis_3">
    <g id="xtick_8">
     <g id="line2d_16">
      <g>
       <use xlink:href="#m1a6f17ce05" x="57.17" y="398.333333" style="stroke: #000000; stroke-width: 0.8"/>
      </g>
     </g>
     <g id="text_17">
      <!-- 20 -->
      <g transform="translate(50.8075 412.931771) scale(0.1 -0.1)">
       <use xlink:href="#DejaVuSans-32"/>
       <use xlink:href="#DejaVuSans-30" x="63.623047"/>
      </g>
     </g>
    </g>
    <g id="xtick_9">
     <g id="line2d_17">
      <g>
       <use xlink:href="#m1a6f17ce05" x="91.020769" y="398.333333" style="stroke: #000000; stroke-width: 0.8"/>
      </g>
     </g>
     <g id="text_18">
      <!-- 40 -->
      <g transform="translate(84.658269 412.931771) scale(0.1 -0.1)">
       <use xlink:href="#DejaVuSans-34"/>
       <use xlink:href="#DejaVuSans-30" x="63.623047"/>
      </g>
     </g>
    </g>
    <g id="xtick_10">
     <g id="line2d_18">
      <g>
       <use xlink:href="#m1a6f17ce05" x="124.871538" y="398.333333" style="stroke: #000000; stroke-width: 0.8"/>
      </g>
     </g>
     <g id="text_19">
      <!-- 60 -->
      <g transform="translate(118.509038 412.931771) scale(0.1 -0.1)">
       <use xlink:href="#DejaVuSans-36"/>
       <use xlink:href="#DejaVuSans-30" x="63.623047"/>
      </g>
     </g>
    </g>
    <g id="xtick_11">
     <g id="line2d_19">
      <g>
       <use xlink:href="#m1a6f17ce05" x="158.722308" y="398.333333" style="stroke: #000000; stroke-width: 0.8"/>
      </g>
     </g>
     <g id="text_20">
      <!-- 80 -->
      <g transform="translate(152.359808 412.931771) scale(0.1 -0.1)">
       <use xlink:href="#DejaVuSans-38"/>
       <use xlink:href="#DejaVuSans-30" x="63.623047"/>
      </g>
     </g>
    </g>
    <g id="xtick_12">
     <g id="line2d_20">
      <g>
       <use xlink:href="#m1a6f17ce05" x="192.573077" y="398.333333" style="stroke: #000000; stroke-width: 0.8"/>
      </g>
     </g>
     <g id="text_21">
      <!-- 100 -->
      <g transform="translate(183.029327 412.931771) scale(0.1 -0.1)">
       <use xlink:href="#DejaVuSans-31"/>
       <use xlink:href="#DejaVuSans-30" x="63.623047"/>
       <use xlink:href="#DejaVuSans-30" x="127.246094"/>
      </g>
     </g>
    </g>
    <g id="xtick_13">
     <g id="line2d_21">
      <g>
       <use xlink:href="#m1a6f17ce05" x="226.423846" y="398.333333" style="stroke: #000000; stroke-width: 0.8"/>
      </g>
     </g>
     <g id="text_22">
      <!-- 120 -->
      <g transform="translate(216.880096 412.931771) scale(0.1 -0.1)">
       <use xlink:href="#DejaVuSans-31"/>
       <use xlink:href="#DejaVuSans-32" x="63.623047"/>
       <use xlink:href="#DejaVuSans-30" x="127.246094"/>
      </g>
     </g>
    </g>
    <g id="xtick_14">
     <g id="line2d_22">
      <g>
       <use xlink:href="#m1a6f17ce05" x="260.274615" y="398.333333" style="stroke: #000000; stroke-width: 0.8"/>
      </g>
     </g>
     <g id="text_23">
      <!-- 140 -->
      <g transform="translate(250.730865 412.931771) scale(0.1 -0.1)">
       <use xlink:href="#DejaVuSans-31"/>
       <use xlink:href="#DejaVuSans-34" x="63.623047"/>
       <use xlink:href="#DejaVuSans-30" x="127.246094"/>
      </g>
     </g>
    </g>
   </g>
   <g id="matplotlib.axis_4">
    <g id="ytick_8">
     <g id="line2d_23">
      <g>
       <use xlink:href="#m5aa0412cab" x="57.17" y="398.333333" style="stroke: #000000; stroke-width: 0.8"/>
      </g>
     </g>
     <g id="text_24">
      <!-- 0 -->
      <g transform="translate(43.8075 402.132552) scale(0.1 -0.1)">
       <use xlink:href="#DejaVuSans-30"/>
      </g>
     </g>
    </g>
    <g id="ytick_9">
     <g id="line2d_24">
      <g>
       <use xlink:href="#m5aa0412cab" x="57.17" y="371.22651" style="stroke: #000000; stroke-width: 0.8"/>
      </g>
     </g>
     <g id="text_25">
      <!-- 500 -->
      <g transform="translate(31.0825 375.025729) scale(0.1 -0.1)">
       <use xlink:href="#DejaVuSans-35"/>
       <use xlink:href="#DejaVuSans-30" x="63.623047"/>
       <use xlink:href="#DejaVuSans-30" x="127.246094"/>
      </g>
     </g>
    </g>
    <g id="ytick_10">
     <g id="line2d_25">
      <g>
       <use xlink:href="#m5aa0412cab" x="57.17" y="344.119686" style="stroke: #000000; stroke-width: 0.8"/>
      </g>
     </g>
     <g id="text_26">
      <!-- 1000 -->
      <g transform="translate(24.72 347.918905) scale(0.1 -0.1)">
       <use xlink:href="#DejaVuSans-31"/>
       <use xlink:href="#DejaVuSans-30" x="63.623047"/>
       <use xlink:href="#DejaVuSans-30" x="127.246094"/>
       <use xlink:href="#DejaVuSans-30" x="190.869141"/>
      </g>
     </g>
    </g>
    <g id="ytick_11">
     <g id="line2d_26">
      <g>
       <use xlink:href="#m5aa0412cab" x="57.17" y="317.012863" style="stroke: #000000; stroke-width: 0.8"/>
      </g>
     </g>
     <g id="text_27">
      <!-- 1500 -->
      <g transform="translate(24.72 320.812082) scale(0.1 -0.1)">
       <use xlink:href="#DejaVuSans-31"/>
       <use xlink:href="#DejaVuSans-35" x="63.623047"/>
       <use xlink:href="#DejaVuSans-30" x="127.246094"/>
       <use xlink:href="#DejaVuSans-30" x="190.869141"/>
      </g>
     </g>
    </g>
    <g id="ytick_12">
     <g id="line2d_27">
      <g>
       <use xlink:href="#m5aa0412cab" x="57.17" y="289.90604" style="stroke: #000000; stroke-width: 0.8"/>
      </g>
     </g>
     <g id="text_28">
      <!-- 2000 -->
      <g transform="translate(24.72 293.705258) scale(0.1 -0.1)">
       <use xlink:href="#DejaVuSans-32"/>
       <use xlink:href="#DejaVuSans-30" x="63.623047"/>
       <use xlink:href="#DejaVuSans-30" x="127.246094"/>
       <use xlink:href="#DejaVuSans-30" x="190.869141"/>
      </g>
     </g>
    </g>
    <g id="ytick_13">
     <g id="line2d_28">
      <g>
       <use xlink:href="#m5aa0412cab" x="57.17" y="262.799216" style="stroke: #000000; stroke-width: 0.8"/>
      </g>
     </g>
     <g id="text_29">
      <!-- 2500 -->
      <g transform="translate(24.72 266.598435) scale(0.1 -0.1)">
       <use xlink:href="#DejaVuSans-32"/>
       <use xlink:href="#DejaVuSans-35" x="63.623047"/>
       <use xlink:href="#DejaVuSans-30" x="127.246094"/>
       <use xlink:href="#DejaVuSans-30" x="190.869141"/>
      </g>
     </g>
    </g>
    <g id="ytick_14">
     <g id="line2d_29">
      <g>
       <use xlink:href="#m5aa0412cab" x="57.17" y="235.692393" style="stroke: #000000; stroke-width: 0.8"/>
      </g>
     </g>
     <g id="text_30">
      <!-- 3000 -->
      <g transform="translate(24.72 239.491611) scale(0.1 -0.1)">
       <use xlink:href="#DejaVuSans-33"/>
       <use xlink:href="#DejaVuSans-30" x="63.623047"/>
       <use xlink:href="#DejaVuSans-30" x="127.246094"/>
       <use xlink:href="#DejaVuSans-30" x="190.869141"/>
      </g>
     </g>
    </g>
    <g id="text_31">
     <!-- Pixel Frequency -->
     <g transform="translate(18.640313 347.398906) rotate(-90) scale(0.1 -0.1)">
      <use xlink:href="#DejaVuSans-50"/>
      <use xlink:href="#DejaVuSans-69" x="58.052734"/>
      <use xlink:href="#DejaVuSans-78" x="85.835938"/>
      <use xlink:href="#DejaVuSans-65" x="141.890625"/>
      <use xlink:href="#DejaVuSans-6c" x="203.414062"/>
      <use xlink:href="#DejaVuSans-20" x="231.197266"/>
      <use xlink:href="#DejaVuSans-46" x="262.984375"/>
      <use xlink:href="#DejaVuSans-72" x="313.253906"/>
      <use xlink:href="#DejaVuSans-65" x="352.117188"/>
      <use xlink:href="#DejaVuSans-71" x="413.640625"/>
      <use xlink:href="#DejaVuSans-75" x="477.117188"/>
      <use xlink:href="#DejaVuSans-65" x="540.496094"/>
      <use xlink:href="#DejaVuSans-6e" x="602.019531"/>
      <use xlink:href="#DejaVuSans-63" x="665.398438"/>
      <use xlink:href="#DejaVuSans-79" x="720.378906"/>
     </g>
    </g>
   </g>
   <g id="line2d_30">
    <path d="M 23.319231 398.333333 
L 75.787923 398.27912 
L 77.480462 398.062265 
L 79.173 398.116479 
L 80.865538 397.953838 
L 82.558077 397.032206 
L 84.250615 396.598497 
L 85.943154 395.947933 
L 87.635692 395.080515 
L 89.328231 392.695114 
L 91.020769 386.026835 
L 92.713308 380.280189 
L 94.405846 378.111643 
L 97.790923 357.076748 
L 101.176 314.085326 
L 102.868538 288.008562 
L 104.561077 275.322569 
L 106.253615 270.226486 
L 107.946154 275.973132 
L 109.638692 283.942538 
L 111.331231 293.050431 
L 113.023769 299.71871 
L 114.716308 311.808353 
L 116.408846 318.476631 
L 121.486462 344.065473 
L 123.179 346.125591 
L 124.871538 350.733751 
L 126.564077 348.673633 
L 128.256615 352.360161 
L 129.949154 355.61298 
L 133.334231 363.257104 
L 135.026769 365.913573 
L 136.719308 363.311317 
L 138.411846 368.027905 
L 140.104385 365.100368 
L 141.796923 367.702623 
L 143.489462 365.805145 
L 145.182 368.136332 
L 146.874538 365.317222 
L 148.567077 369.166391 
L 150.259615 367.431555 
L 151.952154 367.594196 
L 153.644692 371.714433 
L 155.337231 372.310783 
L 157.029769 373.882979 
L 158.722308 374.533542 
L 160.414846 375.563602 
L 162.107385 376.105738 
L 163.799923 378.382711 
L 165.492462 378.111643 
L 168.877538 380.497044 
L 170.570077 380.171762 
L 172.262615 380.984966 
L 173.955154 382.719803 
L 175.647692 382.286094 
L 177.340231 383.153512 
L 179.032769 383.695649 
L 180.725308 384.671494 
L 182.417846 387.219536 
L 184.110385 385.701554 
L 185.802923 387.544818 
L 187.495462 386.026835 
L 189.188 388.574877 
L 190.880538 387.978527 
L 192.573077 388.141168 
L 194.265615 389.65915 
L 195.958154 389.930218 
L 197.650692 390.580782 
L 199.343231 388.629091 
L 201.035769 388.954372 
L 202.728308 389.876004 
L 204.420846 390.038645 
L 206.113385 390.634995 
L 207.805923 390.906064 
L 211.191 390.147073 
L 212.883538 389.171227 
L 214.576077 389.171227 
L 216.268615 388.629091 
L 217.961154 390.147073 
L 219.653692 389.821791 
L 221.346231 389.333868 
L 223.038769 391.285559 
L 224.731308 390.689209 
L 226.423846 392.532473 
L 228.116385 393.942028 
L 231.501462 395.622651 
L 233.194 394.646805 
L 234.886538 395.568437 
L 236.579077 396.110574 
L 238.271615 396.110574 
L 239.964154 396.544283 
L 241.656692 396.544283 
L 243.349231 396.706924 
L 245.041769 396.435856 
L 246.734308 397.032206 
L 248.426846 396.815351 
L 250.119385 397.357488 
L 251.811923 397.520129 
L 253.504462 397.357488 
L 255.197 397.953838 
L 256.889538 398.008051 
L 258.582077 397.357488 
L 261.967154 397.845411 
L 263.659692 397.736983 
L 265.352231 397.791197 
L 267.044769 398.170692 
L 270.429846 398.062265 
L 272.122385 398.008051 
L 273.814923 397.791197 
L 275.507462 398.170692 
L 277.2 398.062265 
L 278.892538 398.170692 
L 283.970154 398.116479 
L 289 398.227966 
L 289 398.227966 
" clip-path="url(#p7db8dba379)" style="fill: none; stroke: #008000; stroke-width: 1.5; stroke-linecap: square"/>
   </g>
   <g id="patch_8">
    <path d="M 57.17 398.333333 
L 57.17 218.506667 
" style="fill: none; stroke: #000000; stroke-width: 0.8; stroke-linejoin: miter; stroke-linecap: square"/>
   </g>
   <g id="patch_9">
    <path d="M 277.2 398.333333 
L 277.2 218.506667 
" style="fill: none; stroke: #000000; stroke-width: 0.8; stroke-linejoin: miter; stroke-linecap: square"/>
   </g>
   <g id="patch_10">
    <path d="M 57.17 398.333333 
L 277.2 398.333333 
" style="fill: none; stroke: #000000; stroke-width: 0.8; stroke-linejoin: miter; stroke-linecap: square"/>
   </g>
   <g id="patch_11">
    <path d="M 57.17 218.506667 
L 277.2 218.506667 
" style="fill: none; stroke: #000000; stroke-width: 0.8; stroke-linejoin: miter; stroke-linecap: square"/>
   </g>
   <g id="text_32">
    <!-- Green Channel  -->
    <g transform="translate(183.973125 232.506667) scale(0.12 -0.12)">
     <defs>
      <path id="DejaVuSans-47" d="M 3809 666 
L 3809 1919 
L 2778 1919 
L 2778 2438 
L 4434 2438 
L 4434 434 
Q 4069 175 3628 42 
Q 3188 -91 2688 -91 
Q 1594 -91 976 548 
Q 359 1188 359 2328 
Q 359 3472 976 4111 
Q 1594 4750 2688 4750 
Q 3144 4750 3555 4637 
Q 3966 4525 4313 4306 
L 4313 3634 
Q 3963 3931 3569 4081 
Q 3175 4231 2741 4231 
Q 1884 4231 1454 3753 
Q 1025 3275 1025 2328 
Q 1025 1384 1454 906 
Q 1884 428 2741 428 
Q 3075 428 3337 486 
Q 3600 544 3809 666 
z
" transform="scale(0.015625)"/>
     </defs>
     <use xlink:href="#DejaVuSans-47"/>
     <use xlink:href="#DejaVuSans-72" x="77.490234"/>
     <use xlink:href="#DejaVuSans-65" x="116.353516"/>
     <use xlink:href="#DejaVuSans-65" x="177.876953"/>
     <use xlink:href="#DejaVuSans-6e" x="239.400391"/>
     <use xlink:href="#DejaVuSans-20" x="302.779297"/>
     <use xlink:href="#DejaVuSans-43" x="334.566406"/>
     <use xlink:href="#DejaVuSans-68" x="404.390625"/>
     <use xlink:href="#DejaVuSans-61" x="467.769531"/>
     <use xlink:href="#DejaVuSans-6e" x="529.048828"/>
     <use xlink:href="#DejaVuSans-6e" x="592.427734"/>
     <use xlink:href="#DejaVuSans-65" x="655.806641"/>
     <use xlink:href="#DejaVuSans-6c" x="717.330078"/>
     <use xlink:href="#DejaVuSans-20" x="745.113281"/>
    </g>
   </g>
  </g>
  <g id="axes_3">
   <g id="patch_12">
    <path d="M 57.17 606.04 
L 277.2 606.04 
L 277.2 426.213333 
L 57.17 426.213333 
z
" style="fill: #ffffff"/>
   </g>
   <g id="PolyCollection_3">
    <path d="M 23.319231 606.04 
L 23.319231 606.04 
L 25.011769 606.04 
L 26.704308 606.04 
L 28.396846 606.04 
L 30.089385 606.04 
L 31.781923 606.04 
L 33.474462 606.04 
L 35.167 606.04 
L 36.859538 606.04 
L 38.552077 606.04 
L 40.244615 606.04 
L 41.937154 606.04 
L 43.629692 606.04 
L 45.322231 605.985786 
L 47.014769 605.931573 
L 48.707308 605.877359 
L 50.399846 605.389436 
L 52.092385 605.552077 
L 53.784923 605.44365 
L 55.477462 604.738872 
L 57.17 602.570327 
L 58.862538 601.648695 
L 60.555077 596.118903 
L 62.247615 584.734037 
L 63.940154 566.626679 
L 65.632692 538.218728 
L 67.325231 503.196712 
L 69.017769 464.759236 
L 70.710308 430.387784 
L 72.402846 426.213333 
L 74.095385 434.291167 
L 75.787923 452.344311 
L 77.480462 471.102233 
L 79.173 488.938523 
L 80.865538 508.021726 
L 82.558077 521.683565 
L 84.250615 534.044277 
L 85.943154 540.170419 
L 87.635692 545.971279 
L 89.328231 545.591784 
L 91.020769 550.14573 
L 92.713308 550.74208 
L 94.405846 551.772139 
L 96.098385 557.030863 
L 97.790923 556.814009 
L 99.483462 558.711486 
L 101.176 563.157005 
L 102.868538 565.271338 
L 104.561077 568.415729 
L 106.253615 570.204779 
L 107.946154 572.264898 
L 109.638692 571.722762 
L 111.331231 576.927272 
L 113.023769 578.878963 
L 114.716308 579.475313 
L 116.408846 581.264363 
L 118.101385 585.059319 
L 119.793923 586.089378 
L 121.486462 587.390505 
L 123.179 589.721692 
L 124.871538 587.60736 
L 126.564077 590.480683 
L 128.256615 589.721692 
L 129.949154 591.727597 
L 131.641692 590.860179 
L 133.334231 592.323947 
L 135.026769 591.836025 
L 136.719308 592.866084 
L 138.411846 593.787716 
L 140.104385 594.00457 
L 141.796923 595.956262 
L 143.489462 596.932107 
L 145.182 598.829585 
L 146.874538 599.154867 
L 148.567077 599.751217 
L 150.259615 601.377626 
L 151.952154 600.727063 
L 153.644692 602.02819 
L 155.337231 602.949822 
L 157.029769 603.383531 
L 158.722308 603.708813 
L 160.414846 602.732968 
L 162.107385 603.871454 
L 163.799923 604.142522 
L 165.492462 604.196736 
L 167.185 604.034095 
L 168.877538 604.955727 
L 170.570077 604.901513 
L 172.262615 604.684659 
L 173.955154 605.172582 
L 175.647692 605.172582 
L 177.340231 605.226795 
L 179.032769 605.389436 
L 180.725308 605.281009 
L 182.417846 605.226795 
L 184.110385 605.44365 
L 185.802923 605.552077 
L 187.495462 605.823145 
L 189.188 605.281009 
L 190.880538 605.877359 
L 192.573077 605.44365 
L 194.265615 605.714718 
L 195.958154 605.552077 
L 197.650692 605.714718 
L 199.343231 605.877359 
L 201.035769 605.606291 
L 202.728308 605.714718 
L 204.420846 605.931573 
L 206.113385 605.931573 
L 207.805923 605.931573 
L 209.498462 605.931573 
L 211.191 605.985786 
L 212.883538 605.931573 
L 214.576077 605.931573 
L 216.268615 606.04 
L 217.961154 605.823145 
L 219.653692 605.985786 
L 221.346231 605.985786 
L 223.038769 605.931573 
L 224.731308 606.04 
L 226.423846 605.931573 
L 228.116385 605.985786 
L 229.808923 606.04 
L 231.501462 606.04 
L 233.194 605.985786 
L 234.886538 606.04 
L 236.579077 605.985786 
L 238.271615 606.04 
L 239.964154 605.985786 
L 241.656692 605.931573 
L 243.349231 606.04 
L 245.041769 605.985786 
L 246.734308 606.04 
L 248.426846 606.04 
L 250.119385 606.04 
L 251.811923 605.985786 
L 253.504462 606.04 
L 255.197 606.04 
L 256.889538 606.04 
L 258.582077 606.04 
L 260.274615 606.04 
L 261.967154 606.04 
L 263.659692 606.04 
L 265.352231 606.04 
L 267.044769 606.04 
L 268.737308 606.04 
L 270.429846 606.04 
L 272.122385 606.04 
L 273.814923 606.04 
L 275.507462 606.04 
L 277.2 606.04 
L 278.892538 606.04 
L 280.585077 606.04 
L 282.277615 606.04 
L 283.970154 606.04 
L 285.662692 606.04 
L 287.355231 606.04 
L 289.047769 606.04 
L 290.740308 606.04 
L 292.432846 606.04 
L 294.125385 606.04 
L 295.817923 606.04 
L 297.510462 606.04 
L 299.203 606.04 
L 300.895538 606.04 
L 302.588077 606.04 
L 304.280615 606.04 
L 305.973154 606.04 
L 307.665692 606.04 
L 309.358231 606.04 
L 311.050769 606.04 
L 312.743308 606.04 
L 314.435846 606.04 
L 316.128385 606.04 
L 317.820923 606.04 
L 319.513462 606.04 
L 321.206 606.04 
L 322.898538 606.04 
L 324.591077 606.04 
L 326.283615 606.04 
L 327.976154 606.04 
L 329.668692 606.04 
L 331.361231 606.04 
L 333.053769 606.04 
L 334.746308 606.04 
L 336.438846 606.04 
L 338.131385 606.04 
L 339.823923 606.04 
L 341.516462 606.04 
L 343.209 606.04 
L 344.901538 606.04 
L 346.594077 606.04 
L 348.286615 606.04 
L 349.979154 606.04 
L 351.671692 606.04 
L 353.364231 606.04 
L 355.056769 606.04 
L 356.749308 606.04 
L 358.441846 606.04 
L 360.134385 606.04 
L 361.826923 606.04 
L 363.519462 606.04 
L 365.212 606.04 
L 366.904538 606.04 
L 368.597077 606.04 
L 370.289615 606.04 
L 371.982154 606.04 
L 373.674692 606.04 
L 375.367231 606.04 
L 377.059769 606.04 
L 378.752308 606.04 
L 380.444846 606.04 
L 382.137385 606.04 
L 383.829923 606.04 
L 385.522462 606.04 
L 387.215 606.04 
L 388.907538 606.04 
L 390.600077 606.04 
L 392.292615 606.04 
L 393.985154 606.04 
L 395.677692 606.04 
L 397.370231 606.04 
L 399.062769 606.04 
L 400.755308 606.04 
L 402.447846 606.04 
L 404.140385 606.04 
L 405.832923 606.04 
L 407.525462 606.04 
L 409.218 606.04 
L 410.910538 606.04 
L 412.603077 606.04 
L 414.295615 606.04 
L 415.988154 606.04 
L 417.680692 606.04 
L 419.373231 606.04 
L 421.065769 606.04 
L 422.758308 606.04 
L 424.450846 606.04 
L 426.143385 606.04 
L 427.835923 606.04 
L 429.528462 606.04 
L 431.221 606.04 
L 432.913538 606.04 
L 434.606077 606.04 
L 436.298615 606.04 
L 437.991154 606.04 
L 439.683692 606.04 
L 441.376231 606.04 
L 443.068769 606.04 
L 444.761308 606.04 
L 446.453846 606.04 
L 448.146385 606.04 
L 449.838923 606.04 
L 451.531462 606.04 
L 453.224 606.04 
L 454.916538 606.04 
L 454.916538 606.04 
L 454.916538 606.04 
L 453.224 606.04 
L 451.531462 606.04 
L 449.838923 606.04 
L 448.146385 606.04 
L 446.453846 606.04 
L 444.761308 606.04 
L 443.068769 606.04 
L 441.376231 606.04 
L 439.683692 606.04 
L 437.991154 606.04 
L 436.298615 606.04 
L 434.606077 606.04 
L 432.913538 606.04 
L 431.221 606.04 
L 429.528462 606.04 
L 427.835923 606.04 
L 426.143385 606.04 
L 424.450846 606.04 
L 422.758308 606.04 
L 421.065769 606.04 
L 419.373231 606.04 
L 417.680692 606.04 
L 415.988154 606.04 
L 414.295615 606.04 
L 412.603077 606.04 
L 410.910538 606.04 
L 409.218 606.04 
L 407.525462 606.04 
L 405.832923 606.04 
L 404.140385 606.04 
L 402.447846 606.04 
L 400.755308 606.04 
L 399.062769 606.04 
L 397.370231 606.04 
L 395.677692 606.04 
L 393.985154 606.04 
L 392.292615 606.04 
L 390.600077 606.04 
L 388.907538 606.04 
L 387.215 606.04 
L 385.522462 606.04 
L 383.829923 606.04 
L 382.137385 606.04 
L 380.444846 606.04 
L 378.752308 606.04 
L 377.059769 606.04 
L 375.367231 606.04 
L 373.674692 606.04 
L 371.982154 606.04 
L 370.289615 606.04 
L 368.597077 606.04 
L 366.904538 606.04 
L 365.212 606.04 
L 363.519462 606.04 
L 361.826923 606.04 
L 360.134385 606.04 
L 358.441846 606.04 
L 356.749308 606.04 
L 355.056769 606.04 
L 353.364231 606.04 
L 351.671692 606.04 
L 349.979154 606.04 
L 348.286615 606.04 
L 346.594077 606.04 
L 344.901538 606.04 
L 343.209 606.04 
L 341.516462 606.04 
L 339.823923 606.04 
L 338.131385 606.04 
L 336.438846 606.04 
L 334.746308 606.04 
L 333.053769 606.04 
L 331.361231 606.04 
L 329.668692 606.04 
L 327.976154 606.04 
L 326.283615 606.04 
L 324.591077 606.04 
L 322.898538 606.04 
L 321.206 606.04 
L 319.513462 606.04 
L 317.820923 606.04 
L 316.128385 606.04 
L 314.435846 606.04 
L 312.743308 606.04 
L 311.050769 606.04 
L 309.358231 606.04 
L 307.665692 606.04 
L 305.973154 606.04 
L 304.280615 606.04 
L 302.588077 606.04 
L 300.895538 606.04 
L 299.203 606.04 
L 297.510462 606.04 
L 295.817923 606.04 
L 294.125385 606.04 
L 292.432846 606.04 
L 290.740308 606.04 
L 289.047769 606.04 
L 287.355231 606.04 
L 285.662692 606.04 
L 283.970154 606.04 
L 282.277615 606.04 
L 280.585077 606.04 
L 278.892538 606.04 
L 277.2 606.04 
L 275.507462 606.04 
L 273.814923 606.04 
L 272.122385 606.04 
L 270.429846 606.04 
L 268.737308 606.04 
L 267.044769 606.04 
L 265.352231 606.04 
L 263.659692 606.04 
L 261.967154 606.04 
L 260.274615 606.04 
L 258.582077 606.04 
L 256.889538 606.04 
L 255.197 606.04 
L 253.504462 606.04 
L 251.811923 606.04 
L 250.119385 606.04 
L 248.426846 606.04 
L 246.734308 606.04 
L 245.041769 606.04 
L 243.349231 606.04 
L 241.656692 606.04 
L 239.964154 606.04 
L 238.271615 606.04 
L 236.579077 606.04 
L 234.886538 606.04 
L 233.194 606.04 
L 231.501462 606.04 
L 229.808923 606.04 
L 228.116385 606.04 
L 226.423846 606.04 
L 224.731308 606.04 
L 223.038769 606.04 
L 221.346231 606.04 
L 219.653692 606.04 
L 217.961154 606.04 
L 216.268615 606.04 
L 214.576077 606.04 
L 212.883538 606.04 
L 211.191 606.04 
L 209.498462 606.04 
L 207.805923 606.04 
L 206.113385 606.04 
L 204.420846 606.04 
L 202.728308 606.04 
L 201.035769 606.04 
L 199.343231 606.04 
L 197.650692 606.04 
L 195.958154 606.04 
L 194.265615 606.04 
L 192.573077 606.04 
L 190.880538 606.04 
L 189.188 606.04 
L 187.495462 606.04 
L 185.802923 606.04 
L 184.110385 606.04 
L 182.417846 606.04 
L 180.725308 606.04 
L 179.032769 606.04 
L 177.340231 606.04 
L 175.647692 606.04 
L 173.955154 606.04 
L 172.262615 606.04 
L 170.570077 606.04 
L 168.877538 606.04 
L 167.185 606.04 
L 165.492462 606.04 
L 163.799923 606.04 
L 162.107385 606.04 
L 160.414846 606.04 
L 158.722308 606.04 
L 157.029769 606.04 
L 155.337231 606.04 
L 153.644692 606.04 
L 151.952154 606.04 
L 150.259615 606.04 
L 148.567077 606.04 
L 146.874538 606.04 
L 145.182 606.04 
L 143.489462 606.04 
L 141.796923 606.04 
L 140.104385 606.04 
L 138.411846 606.04 
L 136.719308 606.04 
L 135.026769 606.04 
L 133.334231 606.04 
L 131.641692 606.04 
L 129.949154 606.04 
L 128.256615 606.04 
L 126.564077 606.04 
L 124.871538 606.04 
L 123.179 606.04 
L 121.486462 606.04 
L 119.793923 606.04 
L 118.101385 606.04 
L 116.408846 606.04 
L 114.716308 606.04 
L 113.023769 606.04 
L 111.331231 606.04 
L 109.638692 606.04 
L 107.946154 606.04 
L 106.253615 606.04 
L 104.561077 606.04 
L 102.868538 606.04 
L 101.176 606.04 
L 99.483462 606.04 
L 97.790923 606.04 
L 96.098385 606.04 
L 94.405846 606.04 
L 92.713308 606.04 
L 91.020769 606.04 
L 89.328231 606.04 
L 87.635692 606.04 
L 85.943154 606.04 
L 84.250615 606.04 
L 82.558077 606.04 
L 80.865538 606.04 
L 79.173 606.04 
L 77.480462 606.04 
L 75.787923 606.04 
L 74.095385 606.04 
L 72.402846 606.04 
L 70.710308 606.04 
L 69.017769 606.04 
L 67.325231 606.04 
L 65.632692 606.04 
L 63.940154 606.04 
L 62.247615 606.04 
L 60.555077 606.04 
L 58.862538 606.04 
L 57.17 606.04 
L 55.477462 606.04 
L 53.784923 606.04 
L 52.092385 606.04 
L 50.399846 606.04 
L 48.707308 606.04 
L 47.014769 606.04 
L 45.322231 606.04 
L 43.629692 606.04 
L 41.937154 606.04 
L 40.244615 606.04 
L 38.552077 606.04 
L 36.859538 606.04 
L 35.167 606.04 
L 33.474462 606.04 
L 31.781923 606.04 
L 30.089385 606.04 
L 28.396846 606.04 
L 26.704308 606.04 
L 25.011769 606.04 
L 23.319231 606.04 
z
" clip-path="url(#pc63c98e6d7)" style="fill: #0000ff; fill-opacity: 0.4; stroke: #0000ff; stroke-opacity: 0.4"/>
   </g>
   <g id="matplotlib.axis_5">
    <g id="xtick_15">
     <g id="line2d_31">
      <g>
       <use xlink:href="#m1a6f17ce05" x="57.17" y="606.04" style="stroke: #000000; stroke-width: 0.8"/>
      </g>
     </g>
     <g id="text_33">
      <!-- 20 -->
      <g transform="translate(50.8075 620.638438) scale(0.1 -0.1)">
       <use xlink:href="#DejaVuSans-32"/>
       <use xlink:href="#DejaVuSans-30" x="63.623047"/>
      </g>
     </g>
    </g>
    <g id="xtick_16">
     <g id="line2d_32">
      <g>
       <use xlink:href="#m1a6f17ce05" x="91.020769" y="606.04" style="stroke: #000000; stroke-width: 0.8"/>
      </g>
     </g>
     <g id="text_34">
      <!-- 40 -->
      <g transform="translate(84.658269 620.638438) scale(0.1 -0.1)">
       <use xlink:href="#DejaVuSans-34"/>
       <use xlink:href="#DejaVuSans-30" x="63.623047"/>
      </g>
     </g>
    </g>
    <g id="xtick_17">
     <g id="line2d_33">
      <g>
       <use xlink:href="#m1a6f17ce05" x="124.871538" y="606.04" style="stroke: #000000; stroke-width: 0.8"/>
      </g>
     </g>
     <g id="text_35">
      <!-- 60 -->
      <g transform="translate(118.509038 620.638438) scale(0.1 -0.1)">
       <use xlink:href="#DejaVuSans-36"/>
       <use xlink:href="#DejaVuSans-30" x="63.623047"/>
      </g>
     </g>
    </g>
    <g id="xtick_18">
     <g id="line2d_34">
      <g>
       <use xlink:href="#m1a6f17ce05" x="158.722308" y="606.04" style="stroke: #000000; stroke-width: 0.8"/>
      </g>
     </g>
     <g id="text_36">
      <!-- 80 -->
      <g transform="translate(152.359808 620.638438) scale(0.1 -0.1)">
       <use xlink:href="#DejaVuSans-38"/>
       <use xlink:href="#DejaVuSans-30" x="63.623047"/>
      </g>
     </g>
    </g>
    <g id="xtick_19">
     <g id="line2d_35">
      <g>
       <use xlink:href="#m1a6f17ce05" x="192.573077" y="606.04" style="stroke: #000000; stroke-width: 0.8"/>
      </g>
     </g>
     <g id="text_37">
      <!-- 100 -->
      <g transform="translate(183.029327 620.638438) scale(0.1 -0.1)">
       <use xlink:href="#DejaVuSans-31"/>
       <use xlink:href="#DejaVuSans-30" x="63.623047"/>
       <use xlink:href="#DejaVuSans-30" x="127.246094"/>
      </g>
     </g>
    </g>
    <g id="xtick_20">
     <g id="line2d_36">
      <g>
       <use xlink:href="#m1a6f17ce05" x="226.423846" y="606.04" style="stroke: #000000; stroke-width: 0.8"/>
      </g>
     </g>
     <g id="text_38">
      <!-- 120 -->
      <g transform="translate(216.880096 620.638438) scale(0.1 -0.1)">
       <use xlink:href="#DejaVuSans-31"/>
       <use xlink:href="#DejaVuSans-32" x="63.623047"/>
       <use xlink:href="#DejaVuSans-30" x="127.246094"/>
      </g>
     </g>
    </g>
    <g id="xtick_21">
     <g id="line2d_37">
      <g>
       <use xlink:href="#m1a6f17ce05" x="260.274615" y="606.04" style="stroke: #000000; stroke-width: 0.8"/>
      </g>
     </g>
     <g id="text_39">
      <!-- 140 -->
      <g transform="translate(250.730865 620.638438) scale(0.1 -0.1)">
       <use xlink:href="#DejaVuSans-31"/>
       <use xlink:href="#DejaVuSans-34" x="63.623047"/>
       <use xlink:href="#DejaVuSans-30" x="127.246094"/>
      </g>
     </g>
    </g>
    <g id="text_40">
     <!-- Pixel Intensity -->
     <g transform="translate(132.273281 634.316563) scale(0.1 -0.1)">
      <defs>
       <path id="DejaVuSans-49" d="M 628 4666 
L 1259 4666 
L 1259 0 
L 628 0 
L 628 4666 
z
" transform="scale(0.015625)"/>
       <path id="DejaVuSans-74" d="M 1172 4494 
L 1172 3500 
L 2356 3500 
L 2356 3053 
L 1172 3053 
L 1172 1153 
Q 1172 725 1289 603 
Q 1406 481 1766 481 
L 2356 481 
L 2356 0 
L 1766 0 
Q 1100 0 847 248 
Q 594 497 594 1153 
L 594 3053 
L 172 3053 
L 172 3500 
L 594 3500 
L 594 4494 
L 1172 4494 
z
" transform="scale(0.015625)"/>
       <path id="DejaVuSans-73" d="M 2834 3397 
L 2834 2853 
Q 2591 2978 2328 3040 
Q 2066 3103 1784 3103 
Q 1356 3103 1142 2972 
Q 928 2841 928 2578 
Q 928 2378 1081 2264 
Q 1234 2150 1697 2047 
L 1894 2003 
Q 2506 1872 2764 1633 
Q 3022 1394 3022 966 
Q 3022 478 2636 193 
Q 2250 -91 1575 -91 
Q 1294 -91 989 -36 
Q 684 19 347 128 
L 347 722 
Q 666 556 975 473 
Q 1284 391 1588 391 
Q 1994 391 2212 530 
Q 2431 669 2431 922 
Q 2431 1156 2273 1281 
Q 2116 1406 1581 1522 
L 1381 1569 
Q 847 1681 609 1914 
Q 372 2147 372 2553 
Q 372 3047 722 3315 
Q 1072 3584 1716 3584 
Q 2034 3584 2315 3537 
Q 2597 3491 2834 3397 
z
" transform="scale(0.015625)"/>
      </defs>
      <use xlink:href="#DejaVuSans-50"/>
      <use xlink:href="#DejaVuSans-69" x="58.052734"/>
      <use xlink:href="#DejaVuSans-78" x="85.835938"/>
      <use xlink:href="#DejaVuSans-65" x="141.890625"/>
      <use xlink:href="#DejaVuSans-6c" x="203.414062"/>
      <use xlink:href="#DejaVuSans-20" x="231.197266"/>
      <use xlink:href="#DejaVuSans-49" x="262.984375"/>
      <use xlink:href="#DejaVuSans-6e" x="292.476562"/>
      <use xlink:href="#DejaVuSans-74" x="355.855469"/>
      <use xlink:href="#DejaVuSans-65" x="395.064453"/>
      <use xlink:href="#DejaVuSans-6e" x="456.587891"/>
      <use xlink:href="#DejaVuSans-73" x="519.966797"/>
      <use xlink:href="#DejaVuSans-69" x="572.066406"/>
      <use xlink:href="#DejaVuSans-74" x="599.849609"/>
      <use xlink:href="#DejaVuSans-79" x="639.058594"/>
     </g>
    </g>
   </g>
   <g id="matplotlib.axis_6">
    <g id="ytick_15">
     <g id="line2d_38">
      <g>
       <use xlink:href="#m5aa0412cab" x="57.17" y="606.04" style="stroke: #000000; stroke-width: 0.8"/>
      </g>
     </g>
     <g id="text_41">
      <!-- 0 -->
      <g transform="translate(43.8075 609.839219) scale(0.1 -0.1)">
       <use xlink:href="#DejaVuSans-30"/>
      </g>
     </g>
    </g>
    <g id="ytick_16">
     <g id="line2d_39">
      <g>
       <use xlink:href="#m5aa0412cab" x="57.17" y="578.933177" style="stroke: #000000; stroke-width: 0.8"/>
      </g>
     </g>
     <g id="text_42">
      <!-- 500 -->
      <g transform="translate(31.0825 582.732395) scale(0.1 -0.1)">
       <use xlink:href="#DejaVuSans-35"/>
       <use xlink:href="#DejaVuSans-30" x="63.623047"/>
       <use xlink:href="#DejaVuSans-30" x="127.246094"/>
      </g>
     </g>
    </g>
    <g id="ytick_17">
     <g id="line2d_40">
      <g>
       <use xlink:href="#m5aa0412cab" x="57.17" y="551.826353" style="stroke: #000000; stroke-width: 0.8"/>
      </g>
     </g>
     <g id="text_43">
      <!-- 1000 -->
      <g transform="translate(24.72 555.625572) scale(0.1 -0.1)">
       <use xlink:href="#DejaVuSans-31"/>
       <use xlink:href="#DejaVuSans-30" x="63.623047"/>
       <use xlink:href="#DejaVuSans-30" x="127.246094"/>
       <use xlink:href="#DejaVuSans-30" x="190.869141"/>
      </g>
     </g>
    </g>
    <g id="ytick_18">
     <g id="line2d_41">
      <g>
       <use xlink:href="#m5aa0412cab" x="57.17" y="524.71953" style="stroke: #000000; stroke-width: 0.8"/>
      </g>
     </g>
     <g id="text_44">
      <!-- 1500 -->
      <g transform="translate(24.72 528.518748) scale(0.1 -0.1)">
       <use xlink:href="#DejaVuSans-31"/>
       <use xlink:href="#DejaVuSans-35" x="63.623047"/>
       <use xlink:href="#DejaVuSans-30" x="127.246094"/>
       <use xlink:href="#DejaVuSans-30" x="190.869141"/>
      </g>
     </g>
    </g>
    <g id="ytick_19">
     <g id="line2d_42">
      <g>
       <use xlink:href="#m5aa0412cab" x="57.17" y="497.612706" style="stroke: #000000; stroke-width: 0.8"/>
      </g>
     </g>
     <g id="text_45">
      <!-- 2000 -->
      <g transform="translate(24.72 501.411925) scale(0.1 -0.1)">
       <use xlink:href="#DejaVuSans-32"/>
       <use xlink:href="#DejaVuSans-30" x="63.623047"/>
       <use xlink:href="#DejaVuSans-30" x="127.246094"/>
       <use xlink:href="#DejaVuSans-30" x="190.869141"/>
      </g>
     </g>
    </g>
    <g id="ytick_20">
     <g id="line2d_43">
      <g>
       <use xlink:href="#m5aa0412cab" x="57.17" y="470.505883" style="stroke: #000000; stroke-width: 0.8"/>
      </g>
     </g>
     <g id="text_46">
      <!-- 2500 -->
      <g transform="translate(24.72 474.305102) scale(0.1 -0.1)">
       <use xlink:href="#DejaVuSans-32"/>
       <use xlink:href="#DejaVuSans-35" x="63.623047"/>
       <use xlink:href="#DejaVuSans-30" x="127.246094"/>
       <use xlink:href="#DejaVuSans-30" x="190.869141"/>
      </g>
     </g>
    </g>
    <g id="ytick_21">
     <g id="line2d_44">
      <g>
       <use xlink:href="#m5aa0412cab" x="57.17" y="443.399059" style="stroke: #000000; stroke-width: 0.8"/>
      </g>
     </g>
     <g id="text_47">
      <!-- 3000 -->
      <g transform="translate(24.72 447.198278) scale(0.1 -0.1)">
       <use xlink:href="#DejaVuSans-33"/>
       <use xlink:href="#DejaVuSans-30" x="63.623047"/>
       <use xlink:href="#DejaVuSans-30" x="127.246094"/>
       <use xlink:href="#DejaVuSans-30" x="190.869141"/>
      </g>
     </g>
    </g>
    <g id="text_48">
     <!-- Pixel Frequency -->
     <g transform="translate(18.640313 555.105573) rotate(-90) scale(0.1 -0.1)">
      <use xlink:href="#DejaVuSans-50"/>
      <use xlink:href="#DejaVuSans-69" x="58.052734"/>
      <use xlink:href="#DejaVuSans-78" x="85.835938"/>
      <use xlink:href="#DejaVuSans-65" x="141.890625"/>
      <use xlink:href="#DejaVuSans-6c" x="203.414062"/>
      <use xlink:href="#DejaVuSans-20" x="231.197266"/>
      <use xlink:href="#DejaVuSans-46" x="262.984375"/>
      <use xlink:href="#DejaVuSans-72" x="313.253906"/>
      <use xlink:href="#DejaVuSans-65" x="352.117188"/>
      <use xlink:href="#DejaVuSans-71" x="413.640625"/>
      <use xlink:href="#DejaVuSans-75" x="477.117188"/>
      <use xlink:href="#DejaVuSans-65" x="540.496094"/>
      <use xlink:href="#DejaVuSans-6e" x="602.019531"/>
      <use xlink:href="#DejaVuSans-63" x="665.398438"/>
      <use xlink:href="#DejaVuSans-79" x="720.378906"/>
     </g>
    </g>
   </g>
   <g id="line2d_45">
    <path d="M 23.319231 606.04 
L 47.014769 605.931573 
L 48.707308 605.877359 
L 50.399846 605.389436 
L 52.092385 605.552077 
L 53.784923 605.44365 
L 55.477462 604.738872 
L 57.17 602.570327 
L 58.862538 601.648695 
L 60.555077 596.118903 
L 62.247615 584.734037 
L 63.940154 566.626679 
L 65.632692 538.218728 
L 67.325231 503.196712 
L 69.017769 464.759236 
L 70.710308 430.387784 
L 72.402846 426.213333 
L 74.095385 434.291167 
L 79.173 488.938523 
L 80.865538 508.021726 
L 82.558077 521.683565 
L 84.250615 534.044277 
L 87.635692 545.971279 
L 89.328231 545.591784 
L 91.020769 550.14573 
L 92.713308 550.74208 
L 94.405846 551.772139 
L 96.098385 557.030863 
L 97.790923 556.814009 
L 99.483462 558.711486 
L 101.176 563.157005 
L 102.868538 565.271338 
L 104.561077 568.415729 
L 106.253615 570.204779 
L 107.946154 572.264898 
L 109.638692 571.722762 
L 111.331231 576.927272 
L 113.023769 578.878963 
L 114.716308 579.475313 
L 116.408846 581.264363 
L 118.101385 585.059319 
L 119.793923 586.089378 
L 121.486462 587.390505 
L 123.179 589.721692 
L 124.871538 587.60736 
L 126.564077 590.480683 
L 128.256615 589.721692 
L 129.949154 591.727597 
L 131.641692 590.860179 
L 133.334231 592.323947 
L 135.026769 591.836025 
L 138.411846 593.787716 
L 140.104385 594.00457 
L 141.796923 595.956262 
L 143.489462 596.932107 
L 145.182 598.829585 
L 146.874538 599.154867 
L 148.567077 599.751217 
L 150.259615 601.377626 
L 151.952154 600.727063 
L 153.644692 602.02819 
L 155.337231 602.949822 
L 158.722308 603.708813 
L 160.414846 602.732968 
L 162.107385 603.871454 
L 163.799923 604.142522 
L 165.492462 604.196736 
L 167.185 604.034095 
L 168.877538 604.955727 
L 170.570077 604.901513 
L 172.262615 604.684659 
L 173.955154 605.172582 
L 177.340231 605.226795 
L 179.032769 605.389436 
L 182.417846 605.226795 
L 187.495462 605.823145 
L 189.188 605.281009 
L 190.880538 605.877359 
L 192.573077 605.44365 
L 194.265615 605.714718 
L 195.958154 605.552077 
L 199.343231 605.877359 
L 201.035769 605.606291 
L 207.805923 605.931573 
L 289 606.04 
L 289 606.04 
" clip-path="url(#pc63c98e6d7)" style="fill: none; stroke: #0000ff; stroke-width: 1.5; stroke-linecap: square"/>
   </g>
   <g id="patch_13">
    <path d="M 57.17 606.04 
L 57.17 426.213333 
" style="fill: none; stroke: #000000; stroke-width: 0.8; stroke-linejoin: miter; stroke-linecap: square"/>
   </g>
   <g id="patch_14">
    <path d="M 277.2 606.04 
L 277.2 426.213333 
" style="fill: none; stroke: #000000; stroke-width: 0.8; stroke-linejoin: miter; stroke-linecap: square"/>
   </g>
   <g id="patch_15">
    <path d="M 57.17 606.04 
L 277.2 606.04 
" style="fill: none; stroke: #000000; stroke-width: 0.8; stroke-linejoin: miter; stroke-linecap: square"/>
   </g>
   <g id="patch_16">
    <path d="M 57.17 426.213333 
L 277.2 426.213333 
" style="fill: none; stroke: #000000; stroke-width: 0.8; stroke-linejoin: miter; stroke-linecap: square"/>
   </g>
   <g id="text_49">
    <!-- Blue Channel  -->
    <g transform="translate(193.75125 440.213333) scale(0.12 -0.12)">
     <defs>
      <path id="DejaVuSans-42" d="M 1259 2228 
L 1259 519 
L 2272 519 
Q 2781 519 3026 730 
Q 3272 941 3272 1375 
Q 3272 1813 3026 2020 
Q 2781 2228 2272 2228 
L 1259 2228 
z
M 1259 4147 
L 1259 2741 
L 2194 2741 
Q 2656 2741 2882 2914 
Q 3109 3088 3109 3444 
Q 3109 3797 2882 3972 
Q 2656 4147 2194 4147 
L 1259 4147 
z
M 628 4666 
L 2241 4666 
Q 2963 4666 3353 4366 
Q 3744 4066 3744 3513 
Q 3744 3084 3544 2831 
Q 3344 2578 2956 2516 
Q 3422 2416 3680 2098 
Q 3938 1781 3938 1306 
Q 3938 681 3513 340 
Q 3088 0 2303 0 
L 628 0 
L 628 4666 
z
" transform="scale(0.015625)"/>
     </defs>
     <use xlink:href="#DejaVuSans-42"/>
     <use xlink:href="#DejaVuSans-6c" x="68.603516"/>
     <use xlink:href="#DejaVuSans-75" x="96.386719"/>
     <use xlink:href="#DejaVuSans-65" x="159.765625"/>
     <use xlink:href="#DejaVuSans-20" x="221.289062"/>
     <use xlink:href="#DejaVuSans-43" x="253.076172"/>
     <use xlink:href="#DejaVuSans-68" x="322.900391"/>
     <use xlink:href="#DejaVuSans-61" x="386.279297"/>
     <use xlink:href="#DejaVuSans-6e" x="447.558594"/>
     <use xlink:href="#DejaVuSans-6e" x="510.9375"/>
     <use xlink:href="#DejaVuSans-65" x="574.316406"/>
     <use xlink:href="#DejaVuSans-6c" x="635.839844"/>
     <use xlink:href="#DejaVuSans-20" x="663.623047"/>
    </g>
   </g>
  </g>
 </g>
 <defs>
  <clipPath id="p5aa7fe384d">
   <rect x="57.17" y="10.8" width="220.03" height="179.826667"/>
  </clipPath>
  <clipPath id="p7db8dba379">
   <rect x="57.17" y="218.506667" width="220.03" height="179.826667"/>
  </clipPath>
  <clipPath id="pc63c98e6d7">
   <rect x="57.17" y="426.213333" width="220.03" height="179.826667"/>
  </clipPath>
 </defs>
</svg>
