<?xml version="1.0" encoding="utf-8" standalone="no"?>
<!DOCTYPE svg PUBLIC "-//W3C//DTD SVG 1.1//EN"
  "http://www.w3.org/Graphics/SVG/1.1/DTD/svg11.dtd">
<svg xmlns:xlink="http://www.w3.org/1999/xlink" width="720pt" height="360pt" viewBox="0 0 720 360" xmlns="http://www.w3.org/2000/svg" version="1.1">
 <metadata>
  <rdf:RDF xmlns:dc="http://purl.org/dc/elements/1.1/" xmlns:cc="http://creativecommons.org/ns#" xmlns:rdf="http://www.w3.org/1999/02/22-rdf-syntax-ns#">
   <cc:Work>
    <dc:type rdf:resource="http://purl.org/dc/dcmitype/StillImage"/>
    <dc:date>2023-09-26T11:40:26.002739</dc:date>
    <dc:format>image/svg+xml</dc:format>
    <dc:creator>
     <cc:Agent>
      <dc:title>Matplotlib v3.8.0, https://matplotlib.org/</dc:title>
     </cc:Agent>
    </dc:creator>
   </cc:Work>
  </rdf:RDF>
 </metadata>
 <defs>
  <style type="text/css">*{stroke-linejoin: round; stroke-linecap: butt}</style>
 </defs>
 <g id="figure_1">
  <g id="patch_1">
   <path d="M 0 360 
L 720 360 
L 720 0 
L 0 0 
z
" style="fill: #ffffff"/>
  </g>
  <g id="axes_1">
   <g id="patch_2">
    <path d="M 90 320.4 
L 648 320.4 
L 648 43.2 
L 90 43.2 
z
" style="fill: #ffffff"/>
   </g>
   <g id="matplotlib.axis_1">
    <g id="xtick_1">
     <g id="line2d_1">
      <defs>
       <path id="m02535bff7e" d="M 0 0 
L 0 3.5 
" style="stroke: #000000; stroke-width: 0.8"/>
      </defs>
      <g>
       <use xlink:href="#m02535bff7e" x="93.170455" y="320.4" style="stroke: #000000; stroke-width: 0.8"/>
      </g>
     </g>
     <g id="text_1">
      <!-- 80 -->
      <g transform="translate(86.807955 334.998438) scale(0.1 -0.1)">
       <defs>
        <path id="DejaVuSans-38" d="M 2034 2216 
Q 1584 2216 1326 1975 
Q 1069 1734 1069 1313 
Q 1069 891 1326 650 
Q 1584 409 2034 409 
Q 2484 409 2743 651 
Q 3003 894 3003 1313 
Q 3003 1734 2745 1975 
Q 2488 2216 2034 2216 
z
M 1403 2484 
Q 997 2584 770 2862 
Q 544 3141 544 3541 
Q 544 4100 942 4425 
Q 1341 4750 2034 4750 
Q 2731 4750 3128 4425 
Q 3525 4100 3525 3541 
Q 3525 3141 3298 2862 
Q 3072 2584 2669 2484 
Q 3125 2378 3379 2068 
Q 3634 1759 3634 1313 
Q 3634 634 3220 271 
Q 2806 -91 2034 -91 
Q 1263 -91 848 271 
Q 434 634 434 1313 
Q 434 1759 690 2068 
Q 947 2378 1403 2484 
z
M 1172 3481 
Q 1172 3119 1398 2916 
Q 1625 2713 2034 2713 
Q 2441 2713 2670 2916 
Q 2900 3119 2900 3481 
Q 2900 3844 2670 4047 
Q 2441 4250 2034 4250 
Q 1625 4250 1398 4047 
Q 1172 3844 1172 3481 
z
" transform="scale(0.015625)"/>
        <path id="DejaVuSans-30" d="M 2034 4250 
Q 1547 4250 1301 3770 
Q 1056 3291 1056 2328 
Q 1056 1369 1301 889 
Q 1547 409 2034 409 
Q 2525 409 2770 889 
Q 3016 1369 3016 2328 
Q 3016 3291 2770 3770 
Q 2525 4250 2034 4250 
z
M 2034 4750 
Q 2819 4750 3233 4129 
Q 3647 3509 3647 2328 
Q 3647 1150 3233 529 
Q 2819 -91 2034 -91 
Q 1250 -91 836 529 
Q 422 1150 422 2328 
Q 422 3509 836 4129 
Q 1250 4750 2034 4750 
z
" transform="scale(0.015625)"/>
       </defs>
       <use xlink:href="#DejaVuSans-38"/>
       <use xlink:href="#DejaVuSans-30" x="63.623047"/>
      </g>
     </g>
    </g>
    <g id="xtick_2">
     <g id="line2d_2">
      <g>
       <use xlink:href="#m02535bff7e" x="156.579545" y="320.4" style="stroke: #000000; stroke-width: 0.8"/>
      </g>
     </g>
     <g id="text_2">
      <!-- 100 -->
      <g transform="translate(147.035795 334.998438) scale(0.1 -0.1)">
       <defs>
        <path id="DejaVuSans-31" d="M 794 531 
L 1825 531 
L 1825 4091 
L 703 3866 
L 703 4441 
L 1819 4666 
L 2450 4666 
L 2450 531 
L 3481 531 
L 3481 0 
L 794 0 
L 794 531 
z
" transform="scale(0.015625)"/>
       </defs>
       <use xlink:href="#DejaVuSans-31"/>
       <use xlink:href="#DejaVuSans-30" x="63.623047"/>
       <use xlink:href="#DejaVuSans-30" x="127.246094"/>
      </g>
     </g>
    </g>
    <g id="xtick_3">
     <g id="line2d_3">
      <g>
       <use xlink:href="#m02535bff7e" x="219.988636" y="320.4" style="stroke: #000000; stroke-width: 0.8"/>
      </g>
     </g>
     <g id="text_3">
      <!-- 120 -->
      <g transform="translate(210.444886 334.998438) scale(0.1 -0.1)">
       <defs>
        <path id="DejaVuSans-32" d="M 1228 531 
L 3431 531 
L 3431 0 
L 469 0 
L 469 531 
Q 828 903 1448 1529 
Q 2069 2156 2228 2338 
Q 2531 2678 2651 2914 
Q 2772 3150 2772 3378 
Q 2772 3750 2511 3984 
Q 2250 4219 1831 4219 
Q 1534 4219 1204 4116 
Q 875 4013 500 3803 
L 500 4441 
Q 881 4594 1212 4672 
Q 1544 4750 1819 4750 
Q 2544 4750 2975 4387 
Q 3406 4025 3406 3419 
Q 3406 3131 3298 2873 
Q 3191 2616 2906 2266 
Q 2828 2175 2409 1742 
Q 1991 1309 1228 531 
z
" transform="scale(0.015625)"/>
       </defs>
       <use xlink:href="#DejaVuSans-31"/>
       <use xlink:href="#DejaVuSans-32" x="63.623047"/>
       <use xlink:href="#DejaVuSans-30" x="127.246094"/>
      </g>
     </g>
    </g>
    <g id="xtick_4">
     <g id="line2d_4">
      <g>
       <use xlink:href="#m02535bff7e" x="283.397727" y="320.4" style="stroke: #000000; stroke-width: 0.8"/>
      </g>
     </g>
     <g id="text_4">
      <!-- 140 -->
      <g transform="translate(273.853977 334.998438) scale(0.1 -0.1)">
       <defs>
        <path id="DejaVuSans-34" d="M 2419 4116 
L 825 1625 
L 2419 1625 
L 2419 4116 
z
M 2253 4666 
L 3047 4666 
L 3047 1625 
L 3713 1625 
L 3713 1100 
L 3047 1100 
L 3047 0 
L 2419 0 
L 2419 1100 
L 313 1100 
L 313 1709 
L 2253 4666 
z
" transform="scale(0.015625)"/>
       </defs>
       <use xlink:href="#DejaVuSans-31"/>
       <use xlink:href="#DejaVuSans-34" x="63.623047"/>
       <use xlink:href="#DejaVuSans-30" x="127.246094"/>
      </g>
     </g>
    </g>
    <g id="xtick_5">
     <g id="line2d_5">
      <g>
       <use xlink:href="#m02535bff7e" x="346.806818" y="320.4" style="stroke: #000000; stroke-width: 0.8"/>
      </g>
     </g>
     <g id="text_5">
      <!-- 160 -->
      <g transform="translate(337.263068 334.998438) scale(0.1 -0.1)">
       <defs>
        <path id="DejaVuSans-36" d="M 2113 2584 
Q 1688 2584 1439 2293 
Q 1191 2003 1191 1497 
Q 1191 994 1439 701 
Q 1688 409 2113 409 
Q 2538 409 2786 701 
Q 3034 994 3034 1497 
Q 3034 2003 2786 2293 
Q 2538 2584 2113 2584 
z
M 3366 4563 
L 3366 3988 
Q 3128 4100 2886 4159 
Q 2644 4219 2406 4219 
Q 1781 4219 1451 3797 
Q 1122 3375 1075 2522 
Q 1259 2794 1537 2939 
Q 1816 3084 2150 3084 
Q 2853 3084 3261 2657 
Q 3669 2231 3669 1497 
Q 3669 778 3244 343 
Q 2819 -91 2113 -91 
Q 1303 -91 875 529 
Q 447 1150 447 2328 
Q 447 3434 972 4092 
Q 1497 4750 2381 4750 
Q 2619 4750 2861 4703 
Q 3103 4656 3366 4563 
z
" transform="scale(0.015625)"/>
       </defs>
       <use xlink:href="#DejaVuSans-31"/>
       <use xlink:href="#DejaVuSans-36" x="63.623047"/>
       <use xlink:href="#DejaVuSans-30" x="127.246094"/>
      </g>
     </g>
    </g>
    <g id="xtick_6">
     <g id="line2d_6">
      <g>
       <use xlink:href="#m02535bff7e" x="410.215909" y="320.4" style="stroke: #000000; stroke-width: 0.8"/>
      </g>
     </g>
     <g id="text_6">
      <!-- 180 -->
      <g transform="translate(400.672159 334.998438) scale(0.1 -0.1)">
       <use xlink:href="#DejaVuSans-31"/>
       <use xlink:href="#DejaVuSans-38" x="63.623047"/>
       <use xlink:href="#DejaVuSans-30" x="127.246094"/>
      </g>
     </g>
    </g>
    <g id="xtick_7">
     <g id="line2d_7">
      <g>
       <use xlink:href="#m02535bff7e" x="473.625" y="320.4" style="stroke: #000000; stroke-width: 0.8"/>
      </g>
     </g>
     <g id="text_7">
      <!-- 200 -->
      <g transform="translate(464.08125 334.998438) scale(0.1 -0.1)">
       <use xlink:href="#DejaVuSans-32"/>
       <use xlink:href="#DejaVuSans-30" x="63.623047"/>
       <use xlink:href="#DejaVuSans-30" x="127.246094"/>
      </g>
     </g>
    </g>
    <g id="xtick_8">
     <g id="line2d_8">
      <g>
       <use xlink:href="#m02535bff7e" x="537.034091" y="320.4" style="stroke: #000000; stroke-width: 0.8"/>
      </g>
     </g>
     <g id="text_8">
      <!-- 220 -->
      <g transform="translate(527.490341 334.998438) scale(0.1 -0.1)">
       <use xlink:href="#DejaVuSans-32"/>
       <use xlink:href="#DejaVuSans-32" x="63.623047"/>
       <use xlink:href="#DejaVuSans-30" x="127.246094"/>
      </g>
     </g>
    </g>
    <g id="xtick_9">
     <g id="line2d_9">
      <g>
       <use xlink:href="#m02535bff7e" x="600.443182" y="320.4" style="stroke: #000000; stroke-width: 0.8"/>
      </g>
     </g>
     <g id="text_9">
      <!-- 240 -->
      <g transform="translate(590.899432 334.998438) scale(0.1 -0.1)">
       <use xlink:href="#DejaVuSans-32"/>
       <use xlink:href="#DejaVuSans-34" x="63.623047"/>
       <use xlink:href="#DejaVuSans-30" x="127.246094"/>
      </g>
     </g>
    </g>
    <g id="text_10">
     <!-- Pixel Value -->
     <g transform="translate(342.119531 348.676562) scale(0.1 -0.1)">
      <defs>
       <path id="DejaVuSans-50" d="M 1259 4147 
L 1259 2394 
L 2053 2394 
Q 2494 2394 2734 2622 
Q 2975 2850 2975 3272 
Q 2975 3691 2734 3919 
Q 2494 4147 2053 4147 
L 1259 4147 
z
M 628 4666 
L 2053 4666 
Q 2838 4666 3239 4311 
Q 3641 3956 3641 3272 
Q 3641 2581 3239 2228 
Q 2838 1875 2053 1875 
L 1259 1875 
L 1259 0 
L 628 0 
L 628 4666 
z
" transform="scale(0.015625)"/>
       <path id="DejaVuSans-69" d="M 603 3500 
L 1178 3500 
L 1178 0 
L 603 0 
L 603 3500 
z
M 603 4863 
L 1178 4863 
L 1178 4134 
L 603 4134 
L 603 4863 
z
" transform="scale(0.015625)"/>
       <path id="DejaVuSans-78" d="M 3513 3500 
L 2247 1797 
L 3578 0 
L 2900 0 
L 1881 1375 
L 863 0 
L 184 0 
L 1544 1831 
L 300 3500 
L 978 3500 
L 1906 2253 
L 2834 3500 
L 3513 3500 
z
" transform="scale(0.015625)"/>
       <path id="DejaVuSans-65" d="M 3597 1894 
L 3597 1613 
L 953 1613 
Q 991 1019 1311 708 
Q 1631 397 2203 397 
Q 2534 397 2845 478 
Q 3156 559 3463 722 
L 3463 178 
Q 3153 47 2828 -22 
Q 2503 -91 2169 -91 
Q 1331 -91 842 396 
Q 353 884 353 1716 
Q 353 2575 817 3079 
Q 1281 3584 2069 3584 
Q 2775 3584 3186 3129 
Q 3597 2675 3597 1894 
z
M 3022 2063 
Q 3016 2534 2758 2815 
Q 2500 3097 2075 3097 
Q 1594 3097 1305 2825 
Q 1016 2553 972 2059 
L 3022 2063 
z
" transform="scale(0.015625)"/>
       <path id="DejaVuSans-6c" d="M 603 4863 
L 1178 4863 
L 1178 0 
L 603 0 
L 603 4863 
z
" transform="scale(0.015625)"/>
       <path id="DejaVuSans-20" transform="scale(0.015625)"/>
       <path id="DejaVuSans-56" d="M 1831 0 
L 50 4666 
L 709 4666 
L 2188 738 
L 3669 4666 
L 4325 4666 
L 2547 0 
L 1831 0 
z
" transform="scale(0.015625)"/>
       <path id="DejaVuSans-61" d="M 2194 1759 
Q 1497 1759 1228 1600 
Q 959 1441 959 1056 
Q 959 750 1161 570 
Q 1363 391 1709 391 
Q 2188 391 2477 730 
Q 2766 1069 2766 1631 
L 2766 1759 
L 2194 1759 
z
M 3341 1997 
L 3341 0 
L 2766 0 
L 2766 531 
Q 2569 213 2275 61 
Q 1981 -91 1556 -91 
Q 1019 -91 701 211 
Q 384 513 384 1019 
Q 384 1609 779 1909 
Q 1175 2209 1959 2209 
L 2766 2209 
L 2766 2266 
Q 2766 2663 2505 2880 
Q 2244 3097 1772 3097 
Q 1472 3097 1187 3025 
Q 903 2953 641 2809 
L 641 3341 
Q 956 3463 1253 3523 
Q 1550 3584 1831 3584 
Q 2591 3584 2966 3190 
Q 3341 2797 3341 1997 
z
" transform="scale(0.015625)"/>
       <path id="DejaVuSans-75" d="M 544 1381 
L 544 3500 
L 1119 3500 
L 1119 1403 
Q 1119 906 1312 657 
Q 1506 409 1894 409 
Q 2359 409 2629 706 
Q 2900 1003 2900 1516 
L 2900 3500 
L 3475 3500 
L 3475 0 
L 2900 0 
L 2900 538 
Q 2691 219 2414 64 
Q 2138 -91 1772 -91 
Q 1169 -91 856 284 
Q 544 659 544 1381 
z
M 1991 3584 
L 1991 3584 
z
" transform="scale(0.015625)"/>
      </defs>
      <use xlink:href="#DejaVuSans-50"/>
      <use xlink:href="#DejaVuSans-69" x="58.052734"/>
      <use xlink:href="#DejaVuSans-78" x="85.835938"/>
      <use xlink:href="#DejaVuSans-65" x="141.890625"/>
      <use xlink:href="#DejaVuSans-6c" x="203.414062"/>
      <use xlink:href="#DejaVuSans-20" x="231.197266"/>
      <use xlink:href="#DejaVuSans-56" x="262.984375"/>
      <use xlink:href="#DejaVuSans-61" x="323.642578"/>
      <use xlink:href="#DejaVuSans-6c" x="384.921875"/>
      <use xlink:href="#DejaVuSans-75" x="412.705078"/>
      <use xlink:href="#DejaVuSans-65" x="476.083984"/>
     </g>
    </g>
   </g>
   <g id="matplotlib.axis_2">
    <g id="ytick_1">
     <g id="line2d_10">
      <defs>
       <path id="m841254f83c" d="M 0 0 
L -3.5 0 
" style="stroke: #000000; stroke-width: 0.8"/>
      </defs>
      <g>
       <use xlink:href="#m841254f83c" x="90" y="307.8" style="stroke: #000000; stroke-width: 0.8"/>
      </g>
     </g>
     <g id="text_11">
      <!-- 0 -->
      <g transform="translate(76.6375 311.599219) scale(0.1 -0.1)">
       <use xlink:href="#DejaVuSans-30"/>
      </g>
     </g>
    </g>
    <g id="ytick_2">
     <g id="line2d_11">
      <g>
       <use xlink:href="#m841254f83c" x="90" y="250.331357" style="stroke: #000000; stroke-width: 0.8"/>
      </g>
     </g>
     <g id="text_12">
      <!-- 200 -->
      <g transform="translate(63.9125 254.130576) scale(0.1 -0.1)">
       <use xlink:href="#DejaVuSans-32"/>
       <use xlink:href="#DejaVuSans-30" x="63.623047"/>
       <use xlink:href="#DejaVuSans-30" x="127.246094"/>
      </g>
     </g>
    </g>
    <g id="ytick_3">
     <g id="line2d_12">
      <g>
       <use xlink:href="#m841254f83c" x="90" y="192.862714" style="stroke: #000000; stroke-width: 0.8"/>
      </g>
     </g>
     <g id="text_13">
      <!-- 400 -->
      <g transform="translate(63.9125 196.661933) scale(0.1 -0.1)">
       <use xlink:href="#DejaVuSans-34"/>
       <use xlink:href="#DejaVuSans-30" x="63.623047"/>
       <use xlink:href="#DejaVuSans-30" x="127.246094"/>
      </g>
     </g>
    </g>
    <g id="ytick_4">
     <g id="line2d_13">
      <g>
       <use xlink:href="#m841254f83c" x="90" y="135.394071" style="stroke: #000000; stroke-width: 0.8"/>
      </g>
     </g>
     <g id="text_14">
      <!-- 600 -->
      <g transform="translate(63.9125 139.193289) scale(0.1 -0.1)">
       <use xlink:href="#DejaVuSans-36"/>
       <use xlink:href="#DejaVuSans-30" x="63.623047"/>
       <use xlink:href="#DejaVuSans-30" x="127.246094"/>
      </g>
     </g>
    </g>
    <g id="ytick_5">
     <g id="line2d_14">
      <g>
       <use xlink:href="#m841254f83c" x="90" y="77.925428" style="stroke: #000000; stroke-width: 0.8"/>
      </g>
     </g>
     <g id="text_15">
      <!-- 800 -->
      <g transform="translate(63.9125 81.724646) scale(0.1 -0.1)">
       <use xlink:href="#DejaVuSans-38"/>
       <use xlink:href="#DejaVuSans-30" x="63.623047"/>
       <use xlink:href="#DejaVuSans-30" x="127.246094"/>
      </g>
     </g>
    </g>
    <g id="text_16">
     <!-- Normalized Count -->
     <g transform="translate(57.832812 226.592969) rotate(-90) scale(0.1 -0.1)">
      <defs>
       <path id="DejaVuSans-4e" d="M 628 4666 
L 1478 4666 
L 3547 763 
L 3547 4666 
L 4159 4666 
L 4159 0 
L 3309 0 
L 1241 3903 
L 1241 0 
L 628 0 
L 628 4666 
z
" transform="scale(0.015625)"/>
       <path id="DejaVuSans-6f" d="M 1959 3097 
Q 1497 3097 1228 2736 
Q 959 2375 959 1747 
Q 959 1119 1226 758 
Q 1494 397 1959 397 
Q 2419 397 2687 759 
Q 2956 1122 2956 1747 
Q 2956 2369 2687 2733 
Q 2419 3097 1959 3097 
z
M 1959 3584 
Q 2709 3584 3137 3096 
Q 3566 2609 3566 1747 
Q 3566 888 3137 398 
Q 2709 -91 1959 -91 
Q 1206 -91 779 398 
Q 353 888 353 1747 
Q 353 2609 779 3096 
Q 1206 3584 1959 3584 
z
" transform="scale(0.015625)"/>
       <path id="DejaVuSans-72" d="M 2631 2963 
Q 2534 3019 2420 3045 
Q 2306 3072 2169 3072 
Q 1681 3072 1420 2755 
Q 1159 2438 1159 1844 
L 1159 0 
L 581 0 
L 581 3500 
L 1159 3500 
L 1159 2956 
Q 1341 3275 1631 3429 
Q 1922 3584 2338 3584 
Q 2397 3584 2469 3576 
Q 2541 3569 2628 3553 
L 2631 2963 
z
" transform="scale(0.015625)"/>
       <path id="DejaVuSans-6d" d="M 3328 2828 
Q 3544 3216 3844 3400 
Q 4144 3584 4550 3584 
Q 5097 3584 5394 3201 
Q 5691 2819 5691 2113 
L 5691 0 
L 5113 0 
L 5113 2094 
Q 5113 2597 4934 2840 
Q 4756 3084 4391 3084 
Q 3944 3084 3684 2787 
Q 3425 2491 3425 1978 
L 3425 0 
L 2847 0 
L 2847 2094 
Q 2847 2600 2669 2842 
Q 2491 3084 2119 3084 
Q 1678 3084 1418 2786 
Q 1159 2488 1159 1978 
L 1159 0 
L 581 0 
L 581 3500 
L 1159 3500 
L 1159 2956 
Q 1356 3278 1631 3431 
Q 1906 3584 2284 3584 
Q 2666 3584 2933 3390 
Q 3200 3197 3328 2828 
z
" transform="scale(0.015625)"/>
       <path id="DejaVuSans-7a" d="M 353 3500 
L 3084 3500 
L 3084 2975 
L 922 459 
L 3084 459 
L 3084 0 
L 275 0 
L 275 525 
L 2438 3041 
L 353 3041 
L 353 3500 
z
" transform="scale(0.015625)"/>
       <path id="DejaVuSans-64" d="M 2906 2969 
L 2906 4863 
L 3481 4863 
L 3481 0 
L 2906 0 
L 2906 525 
Q 2725 213 2448 61 
Q 2172 -91 1784 -91 
Q 1150 -91 751 415 
Q 353 922 353 1747 
Q 353 2572 751 3078 
Q 1150 3584 1784 3584 
Q 2172 3584 2448 3432 
Q 2725 3281 2906 2969 
z
M 947 1747 
Q 947 1113 1208 752 
Q 1469 391 1925 391 
Q 2381 391 2643 752 
Q 2906 1113 2906 1747 
Q 2906 2381 2643 2742 
Q 2381 3103 1925 3103 
Q 1469 3103 1208 2742 
Q 947 2381 947 1747 
z
" transform="scale(0.015625)"/>
       <path id="DejaVuSans-43" d="M 4122 4306 
L 4122 3641 
Q 3803 3938 3442 4084 
Q 3081 4231 2675 4231 
Q 1875 4231 1450 3742 
Q 1025 3253 1025 2328 
Q 1025 1406 1450 917 
Q 1875 428 2675 428 
Q 3081 428 3442 575 
Q 3803 722 4122 1019 
L 4122 359 
Q 3791 134 3420 21 
Q 3050 -91 2638 -91 
Q 1578 -91 968 557 
Q 359 1206 359 2328 
Q 359 3453 968 4101 
Q 1578 4750 2638 4750 
Q 3056 4750 3426 4639 
Q 3797 4528 4122 4306 
z
" transform="scale(0.015625)"/>
       <path id="DejaVuSans-6e" d="M 3513 2113 
L 3513 0 
L 2938 0 
L 2938 2094 
Q 2938 2591 2744 2837 
Q 2550 3084 2163 3084 
Q 1697 3084 1428 2787 
Q 1159 2491 1159 1978 
L 1159 0 
L 581 0 
L 581 3500 
L 1159 3500 
L 1159 2956 
Q 1366 3272 1645 3428 
Q 1925 3584 2291 3584 
Q 2894 3584 3203 3211 
Q 3513 2838 3513 2113 
z
" transform="scale(0.015625)"/>
       <path id="DejaVuSans-74" d="M 1172 4494 
L 1172 3500 
L 2356 3500 
L 2356 3053 
L 1172 3053 
L 1172 1153 
Q 1172 725 1289 603 
Q 1406 481 1766 481 
L 2356 481 
L 2356 0 
L 1766 0 
Q 1100 0 847 248 
Q 594 497 594 1153 
L 594 3053 
L 172 3053 
L 172 3500 
L 594 3500 
L 594 4494 
L 1172 4494 
z
" transform="scale(0.015625)"/>
      </defs>
      <use xlink:href="#DejaVuSans-4e"/>
      <use xlink:href="#DejaVuSans-6f" x="74.804688"/>
      <use xlink:href="#DejaVuSans-72" x="135.986328"/>
      <use xlink:href="#DejaVuSans-6d" x="175.349609"/>
      <use xlink:href="#DejaVuSans-61" x="272.761719"/>
      <use xlink:href="#DejaVuSans-6c" x="334.041016"/>
      <use xlink:href="#DejaVuSans-69" x="361.824219"/>
      <use xlink:href="#DejaVuSans-7a" x="389.607422"/>
      <use xlink:href="#DejaVuSans-65" x="442.097656"/>
      <use xlink:href="#DejaVuSans-64" x="503.621094"/>
      <use xlink:href="#DejaVuSans-20" x="567.097656"/>
      <use xlink:href="#DejaVuSans-43" x="598.884766"/>
      <use xlink:href="#DejaVuSans-6f" x="668.708984"/>
      <use xlink:href="#DejaVuSans-75" x="729.890625"/>
      <use xlink:href="#DejaVuSans-6e" x="793.269531"/>
      <use xlink:href="#DejaVuSans-74" x="856.648438"/>
     </g>
    </g>
   </g>
   <g id="line2d_15">
    <path d="M -1 307.8 
L 86.829545 307.8 
L 90 307.225314 
L 93.170455 306.93797 
L 96.340909 307.225314 
L 99.511364 304.926568 
L 102.681818 303.202509 
L 105.852273 298.605017 
L 112.193182 280.789738 
L 115.363636 268.146636 
L 118.534091 251.193387 
L 121.704545 240.561688 
L 124.875 244.009806 
L 128.045455 235.38951 
L 131.215909 238.262942 
L 134.386364 232.228734 
L 137.556818 223.321095 
L 140.727273 212.976739 
L 143.897727 227.056556 
L 147.068182 236.251539 
L 150.238636 228.205929 
L 153.409091 224.757811 
L 156.579545 204.643786 
L 159.75 204.069099 
L 162.920455 197.747548 
L 166.090909 209.52862 
L 169.261364 214.126112 
L 172.431818 205.505815 
L 175.602273 205.218472 
L 178.772727 208.091904 
L 181.943182 202.632383 
L 185.113636 187.690536 
L 188.284091 191.713341 
L 191.454545 196.598176 
L 194.625 204.643786 
L 197.795455 203.494413 
L 200.965909 203.494413 
L 204.136364 206.942531 
L 207.306818 212.976739 
L 210.477273 199.184265 
L 213.647727 148.324515 
L 216.818182 100.338198 
L 223.159091 172.748689 
L 226.329545 168.43854 
L 229.5 177.34618 
L 232.670455 198.322235 
L 235.840909 185.966477 
L 239.011364 166.714481 
L 242.181818 176.771494 
L 245.352273 173.898062 
L 248.522727 179.070239 
L 251.693182 168.151197 
L 254.863636 177.34618 
L 258.034091 191.425998 
L 261.204545 190.276625 
L 264.375 212.402052 
L 267.545455 199.184265 
L 270.715909 183.955074 
L 273.886364 198.609578 
L 277.056818 194.586773 
L 280.227273 199.471608 
L 283.397727 199.184265 
L 286.568182 194.874116 
L 289.738636 208.091904 
L 292.909091 200.908324 
L 296.079545 174.760091 
L 299.25 175.047434 
L 302.420455 162.979019 
L 305.590909 137.405473 
L 308.761364 144.589054 
L 311.931818 142.577651 
L 315.102273 130.509236 
L 318.272727 135.968757 
L 321.443182 136.830787 
L 324.613636 115.280046 
L 327.784091 145.451083 
L 330.954545 123.900342 
L 334.125 142.577651 
L 337.295455 110.395211 
L 340.465909 73.902623 
L 343.636364 92.579932 
L 346.806818 71.603877 
L 349.977273 100.338198 
L 353.147727 112.11927 
L 356.318182 90.568529 
L 359.488636 55.8 
L 362.659091 86.545724 
L 365.829545 119.590194 
L 369 141.140935 
L 372.170455 141.428278 
L 375.340909 130.509236 
L 378.511364 121.314253 
L 381.681818 158.668871 
L 384.852273 181.656328 
L 388.022727 208.953934 
L 391.193182 216.424857 
L 394.363636 217.57423 
L 397.534091 215.275485 
L 400.704545 192.288027 
L 403.875 198.322235 
L 407.045455 192.575371 
L 410.215909 207.804561 
L 413.386364 231.941391 
L 416.556818 230.217332 
L 419.727273 248.607298 
L 422.897727 256.078221 
L 426.068182 255.503535 
L 429.238636 256.365564 
L 432.409091 254.066819 
L 435.579545 260.388369 
L 438.75 258.089624 
L 445.090909 265.560547 
L 448.261364 261.537742 
L 451.431818 271.020068 
L 454.602273 267.859293 
L 457.772727 270.445382 
L 460.943182 268.721323 
L 464.113636 274.75553 
L 467.284091 271.882098 
L 470.454545 276.192246 
L 473.625 275.042873 
L 476.795455 279.640365 
L 479.965909 278.490992 
L 483.136364 279.065678 
L 486.306818 280.789738 
L 489.477273 281.939111 
L 492.647727 280.789738 
L 495.818182 279.065678 
L 498.988636 285.674572 
L 502.159091 278.778335 
L 505.329545 287.111288 
L 508.5 279.640365 
L 511.670455 278.778335 
L 514.840909 281.651767 
L 518.011364 284.812543 
L 521.181818 281.651767 
L 524.352273 279.640365 
L 527.522727 285.674572 
L 530.693182 287.398632 
L 533.863636 281.939111 
L 537.034091 284.237856 
L 540.204545 289.697377 
L 543.375 287.111288 
L 546.545455 283.66317 
L 549.715909 285.387229 
L 552.886364 288.835348 
L 556.056818 284.5252 
L 559.227273 285.099886 
L 562.397727 284.5252 
L 565.568182 284.812543 
L 568.738636 287.398632 
L 571.909091 288.260661 
L 575.079545 288.548005 
L 578.25 284.5252 
L 581.420455 284.5252 
L 584.590909 292.283466 
L 587.761364 285.387229 
L 590.931818 288.548005 
L 594.102273 291.421437 
L 597.272727 289.697377 
L 600.443182 284.812543 
L 603.613636 294.582212 
L 606.784091 291.421437 
L 609.954545 291.421437 
L 613.125 291.996123 
L 616.295455 289.122691 
L 619.465909 291.70878 
L 622.636364 294.869555 
L 625.806818 288.835348 
L 632.147727 291.70878 
L 635.318182 290.559407 
L 638.488636 289.697377 
L 641.659091 285.099886 
L 644.829545 269.870696 
L 648 291.70878 
L 648 291.70878 
" clip-path="url(#p6a4258dd91)" style="fill: none; stroke: #808080; stroke-width: 1.5; stroke-linecap: square"/>
   </g>
   <g id="line2d_16">
    <path d="M -1 307.8 
L 86.829545 307.8 
L 90 306.650627 
L 93.170455 306.93797 
L 96.340909 304.926568 
L 99.511364 305.213911 
L 102.681818 304.351881 
L 105.852273 300.329076 
L 109.022727 290.559407 
L 112.193182 285.961916 
L 115.363636 278.778335 
L 118.534091 274.75553 
L 121.704545 256.652908 
L 124.875 254.641505 
L 128.045455 256.365564 
L 131.215909 241.998404 
L 134.386364 237.688255 
L 137.556818 235.964196 
L 140.727273 224.183124 
L 143.897727 226.769213 
L 147.068182 226.194527 
L 150.238636 217.57423 
L 153.409091 217.286887 
L 156.579545 214.700798 
L 159.75 207.804561 
L 162.920455 209.241277 
L 166.090909 215.562828 
L 169.261364 205.793158 
L 172.431818 210.39065 
L 175.602273 212.114709 
L 178.772727 208.953934 
L 181.943182 193.4374 
L 185.113636 200.333637 
L 188.284091 211.540023 
L 191.454545 194.586773 
L 194.625 201.48301 
L 197.795455 203.20707 
L 200.965909 207.804561 
L 204.136364 190.851311 
L 207.306818 189.127252 
L 210.477273 189.989282 
L 213.647727 182.231015 
L 216.818182 162.691676 
L 219.988636 170.449943 
L 223.159091 163.553706 
L 226.329545 180.506956 
L 229.5 176.484151 
L 232.670455 167.863854 
L 235.840909 175.047434 
L 239.011364 168.43854 
L 242.181818 179.932269 
L 245.352273 182.805701 
L 248.522727 175.622121 
L 251.693182 188.552566 
L 254.863636 192.288027 
L 258.034091 203.781756 
L 261.204545 192.862714 
L 264.375 197.172862 
L 267.545455 199.471608 
L 270.715909 206.655188 
L 273.886364 204.069099 
L 277.056818 204.356442 
L 280.227273 213.551425 
L 286.568182 191.425998 
L 289.738636 185.966477 
L 292.909091 187.403193 
L 296.079545 186.25382 
L 299.25 171.599316 
L 302.420455 169.875257 
L 305.590909 175.909464 
L 308.761364 172.461345 
L 311.931818 155.508096 
L 315.102273 147.749829 
L 318.272727 152.922007 
L 321.443182 135.106727 
L 324.613636 139.704219 
L 327.784091 129.359863 
L 330.954545 129.07252 
L 334.125 119.302851 
L 337.295455 127.635804 
L 340.465909 123.612999 
L 343.636364 104.361003 
L 346.806818 109.820525 
L 349.977273 102.062258 
L 353.147727 89.706499 
L 356.318182 85.971038 
L 359.488636 112.9813 
L 362.659091 96.02805 
L 365.829545 91.430559 
L 369 96.89008 
L 372.170455 115.280046 
L 375.340909 127.348461 
L 378.511364 125.624401 
L 381.681818 127.348461 
L 384.852273 153.20935 
L 388.022727 164.703079 
L 397.534091 196.023489 
L 403.875 210.39065 
L 407.045455 207.517218 
L 410.215909 217.57423 
L 413.386364 223.608438 
L 416.556818 233.66545 
L 419.727273 238.837628 
L 422.897727 242.860433 
L 426.068182 246.308552 
L 429.238636 241.998404 
L 432.409091 238.262942 
L 435.579545 247.457925 
L 438.75 243.43512 
L 441.920455 260.675713 
L 445.090909 254.066819 
L 451.431818 256.940251 
L 454.602273 261.825086 
L 457.772727 267.859293 
L 460.943182 255.503535 
L 464.113636 257.802281 
L 467.284091 258.376967 
L 470.454545 259.813683 
L 473.625 262.974458 
L 476.795455 260.675713 
L 479.965909 262.112429 
L 483.136364 258.951653 
L 486.306818 254.641505 
L 489.477273 261.825086 
L 492.647727 261.537742 
L 495.818182 263.549145 
L 498.988636 272.744128 
L 502.159091 265.847891 
L 505.329545 273.893501 
L 508.5 269.008666 
L 511.670455 267.284607 
L 514.840909 271.020068 
L 518.011364 269.008666 
L 521.181818 273.031471 
L 524.352273 272.744128 
L 527.522727 275.61756 
L 530.693182 276.766933 
L 533.863636 277.054276 
L 537.034091 281.364424 
L 540.204545 279.927708 
L 543.375 280.215051 
L 546.545455 285.387229 
L 549.715909 287.685975 
L 552.886364 287.398632 
L 556.056818 283.088483 
L 559.227273 287.973318 
L 562.397727 288.548005 
L 565.568182 289.410034 
L 568.738636 288.548005 
L 571.909091 285.674572 
L 575.079545 293.432839 
L 578.25 289.697377 
L 581.420455 289.697377 
L 584.590909 289.984721 
L 587.761364 289.697377 
L 590.931818 290.84675 
L 594.102273 293.145496 
L 597.272727 290.559407 
L 600.443182 294.869555 
L 603.613636 293.432839 
L 606.784091 292.283466 
L 609.954545 296.018928 
L 613.125 293.145496 
L 616.295455 299.179704 
L 619.465909 299.179704 
L 622.636364 299.467047 
L 625.806818 301.478449 
L 628.977273 299.467047 
L 632.147727 302.340479 
L 635.318182 303.489852 
L 638.488636 307.512657 
L 641.659091 307.8 
L 648 307.8 
L 648 307.8 
" clip-path="url(#p6a4258dd91)" style="fill: none; stroke-dasharray: 5.55,2.4; stroke-dashoffset: 0; stroke: #000000; stroke-width: 1.5"/>
   </g>
   <g id="patch_3">
    <path d="M 90 320.4 
L 90 43.2 
" style="fill: none; stroke: #000000; stroke-width: 0.8; stroke-linejoin: miter; stroke-linecap: square"/>
   </g>
   <g id="patch_4">
    <path d="M 648 320.4 
L 648 43.2 
" style="fill: none; stroke: #000000; stroke-width: 0.8; stroke-linejoin: miter; stroke-linecap: square"/>
   </g>
   <g id="patch_5">
    <path d="M 90 320.4 
L 648 320.4 
" style="fill: none; stroke: #000000; stroke-width: 0.8; stroke-linejoin: miter; stroke-linecap: square"/>
   </g>
   <g id="patch_6">
    <path d="M 90 43.2 
L 648 43.2 
" style="fill: none; stroke: #000000; stroke-width: 0.8; stroke-linejoin: miter; stroke-linecap: square"/>
   </g>
   <g id="text_17">
    <!-- Histograms of Original and Denoised Images -->
    <g transform="translate(234.6675 37.2) scale(0.12 -0.12)">
     <defs>
      <path id="DejaVuSans-48" d="M 628 4666 
L 1259 4666 
L 1259 2753 
L 3553 2753 
L 3553 4666 
L 4184 4666 
L 4184 0 
L 3553 0 
L 3553 2222 
L 1259 2222 
L 1259 0 
L 628 0 
L 628 4666 
z
" transform="scale(0.015625)"/>
      <path id="DejaVuSans-73" d="M 2834 3397 
L 2834 2853 
Q 2591 2978 2328 3040 
Q 2066 3103 1784 3103 
Q 1356 3103 1142 2972 
Q 928 2841 928 2578 
Q 928 2378 1081 2264 
Q 1234 2150 1697 2047 
L 1894 2003 
Q 2506 1872 2764 1633 
Q 3022 1394 3022 966 
Q 3022 478 2636 193 
Q 2250 -91 1575 -91 
Q 1294 -91 989 -36 
Q 684 19 347 128 
L 347 722 
Q 666 556 975 473 
Q 1284 391 1588 391 
Q 1994 391 2212 530 
Q 2431 669 2431 922 
Q 2431 1156 2273 1281 
Q 2116 1406 1581 1522 
L 1381 1569 
Q 847 1681 609 1914 
Q 372 2147 372 2553 
Q 372 3047 722 3315 
Q 1072 3584 1716 3584 
Q 2034 3584 2315 3537 
Q 2597 3491 2834 3397 
z
" transform="scale(0.015625)"/>
      <path id="DejaVuSans-67" d="M 2906 1791 
Q 2906 2416 2648 2759 
Q 2391 3103 1925 3103 
Q 1463 3103 1205 2759 
Q 947 2416 947 1791 
Q 947 1169 1205 825 
Q 1463 481 1925 481 
Q 2391 481 2648 825 
Q 2906 1169 2906 1791 
z
M 3481 434 
Q 3481 -459 3084 -895 
Q 2688 -1331 1869 -1331 
Q 1566 -1331 1297 -1286 
Q 1028 -1241 775 -1147 
L 775 -588 
Q 1028 -725 1275 -790 
Q 1522 -856 1778 -856 
Q 2344 -856 2625 -561 
Q 2906 -266 2906 331 
L 2906 616 
Q 2728 306 2450 153 
Q 2172 0 1784 0 
Q 1141 0 747 490 
Q 353 981 353 1791 
Q 353 2603 747 3093 
Q 1141 3584 1784 3584 
Q 2172 3584 2450 3431 
Q 2728 3278 2906 2969 
L 2906 3500 
L 3481 3500 
L 3481 434 
z
" transform="scale(0.015625)"/>
      <path id="DejaVuSans-66" d="M 2375 4863 
L 2375 4384 
L 1825 4384 
Q 1516 4384 1395 4259 
Q 1275 4134 1275 3809 
L 1275 3500 
L 2222 3500 
L 2222 3053 
L 1275 3053 
L 1275 0 
L 697 0 
L 697 3053 
L 147 3053 
L 147 3500 
L 697 3500 
L 697 3744 
Q 697 4328 969 4595 
Q 1241 4863 1831 4863 
L 2375 4863 
z
" transform="scale(0.015625)"/>
      <path id="DejaVuSans-4f" d="M 2522 4238 
Q 1834 4238 1429 3725 
Q 1025 3213 1025 2328 
Q 1025 1447 1429 934 
Q 1834 422 2522 422 
Q 3209 422 3611 934 
Q 4013 1447 4013 2328 
Q 4013 3213 3611 3725 
Q 3209 4238 2522 4238 
z
M 2522 4750 
Q 3503 4750 4090 4092 
Q 4678 3434 4678 2328 
Q 4678 1225 4090 567 
Q 3503 -91 2522 -91 
Q 1538 -91 948 565 
Q 359 1222 359 2328 
Q 359 3434 948 4092 
Q 1538 4750 2522 4750 
z
" transform="scale(0.015625)"/>
      <path id="DejaVuSans-44" d="M 1259 4147 
L 1259 519 
L 2022 519 
Q 2988 519 3436 956 
Q 3884 1394 3884 2338 
Q 3884 3275 3436 3711 
Q 2988 4147 2022 4147 
L 1259 4147 
z
M 628 4666 
L 1925 4666 
Q 3281 4666 3915 4102 
Q 4550 3538 4550 2338 
Q 4550 1131 3912 565 
Q 3275 0 1925 0 
L 628 0 
L 628 4666 
z
" transform="scale(0.015625)"/>
      <path id="DejaVuSans-49" d="M 628 4666 
L 1259 4666 
L 1259 0 
L 628 0 
L 628 4666 
z
" transform="scale(0.015625)"/>
     </defs>
     <use xlink:href="#DejaVuSans-48"/>
     <use xlink:href="#DejaVuSans-69" x="75.195312"/>
     <use xlink:href="#DejaVuSans-73" x="102.978516"/>
     <use xlink:href="#DejaVuSans-74" x="155.078125"/>
     <use xlink:href="#DejaVuSans-6f" x="194.287109"/>
     <use xlink:href="#DejaVuSans-67" x="255.46875"/>
     <use xlink:href="#DejaVuSans-72" x="318.945312"/>
     <use xlink:href="#DejaVuSans-61" x="360.058594"/>
     <use xlink:href="#DejaVuSans-6d" x="421.337891"/>
     <use xlink:href="#DejaVuSans-73" x="518.75"/>
     <use xlink:href="#DejaVuSans-20" x="570.849609"/>
     <use xlink:href="#DejaVuSans-6f" x="602.636719"/>
     <use xlink:href="#DejaVuSans-66" x="663.818359"/>
     <use xlink:href="#DejaVuSans-20" x="699.023438"/>
     <use xlink:href="#DejaVuSans-4f" x="730.810547"/>
     <use xlink:href="#DejaVuSans-72" x="809.521484"/>
     <use xlink:href="#DejaVuSans-69" x="850.634766"/>
     <use xlink:href="#DejaVuSans-67" x="878.417969"/>
     <use xlink:href="#DejaVuSans-69" x="941.894531"/>
     <use xlink:href="#DejaVuSans-6e" x="969.677734"/>
     <use xlink:href="#DejaVuSans-61" x="1033.056641"/>
     <use xlink:href="#DejaVuSans-6c" x="1094.335938"/>
     <use xlink:href="#DejaVuSans-20" x="1122.119141"/>
     <use xlink:href="#DejaVuSans-61" x="1153.90625"/>
     <use xlink:href="#DejaVuSans-6e" x="1215.185547"/>
     <use xlink:href="#DejaVuSans-64" x="1278.564453"/>
     <use xlink:href="#DejaVuSans-20" x="1342.041016"/>
     <use xlink:href="#DejaVuSans-44" x="1373.828125"/>
     <use xlink:href="#DejaVuSans-65" x="1450.830078"/>
     <use xlink:href="#DejaVuSans-6e" x="1512.353516"/>
     <use xlink:href="#DejaVuSans-6f" x="1575.732422"/>
     <use xlink:href="#DejaVuSans-69" x="1636.914062"/>
     <use xlink:href="#DejaVuSans-73" x="1664.697266"/>
     <use xlink:href="#DejaVuSans-65" x="1716.796875"/>
     <use xlink:href="#DejaVuSans-64" x="1778.320312"/>
     <use xlink:href="#DejaVuSans-20" x="1841.796875"/>
     <use xlink:href="#DejaVuSans-49" x="1873.583984"/>
     <use xlink:href="#DejaVuSans-6d" x="1903.076172"/>
     <use xlink:href="#DejaVuSans-61" x="2000.488281"/>
     <use xlink:href="#DejaVuSans-67" x="2061.767578"/>
     <use xlink:href="#DejaVuSans-65" x="2125.244141"/>
     <use xlink:href="#DejaVuSans-73" x="2186.767578"/>
    </g>
   </g>
   <g id="legend_1">
    <g id="patch_7">
     <path d="M 527.703125 80.55625 
L 641 80.55625 
Q 643 80.55625 643 78.55625 
L 643 50.2 
Q 643 48.2 641 48.2 
L 527.703125 48.2 
Q 525.703125 48.2 525.703125 50.2 
L 525.703125 78.55625 
Q 525.703125 80.55625 527.703125 80.55625 
z
" style="fill: #ffffff; opacity: 0.8; stroke: #cccccc; stroke-linejoin: miter"/>
    </g>
    <g id="line2d_17">
     <path d="M 529.703125 56.298437 
L 539.703125 56.298437 
L 549.703125 56.298437 
" style="fill: none; stroke: #808080; stroke-width: 1.5; stroke-linecap: square"/>
    </g>
    <g id="text_18">
     <!-- Original Image -->
     <g transform="translate(557.703125 59.798437) scale(0.1 -0.1)">
      <use xlink:href="#DejaVuSans-4f"/>
      <use xlink:href="#DejaVuSans-72" x="78.710938"/>
      <use xlink:href="#DejaVuSans-69" x="119.824219"/>
      <use xlink:href="#DejaVuSans-67" x="147.607422"/>
      <use xlink:href="#DejaVuSans-69" x="211.083984"/>
      <use xlink:href="#DejaVuSans-6e" x="238.867188"/>
      <use xlink:href="#DejaVuSans-61" x="302.246094"/>
      <use xlink:href="#DejaVuSans-6c" x="363.525391"/>
      <use xlink:href="#DejaVuSans-20" x="391.308594"/>
      <use xlink:href="#DejaVuSans-49" x="423.095703"/>
      <use xlink:href="#DejaVuSans-6d" x="452.587891"/>
      <use xlink:href="#DejaVuSans-61" x="550"/>
      <use xlink:href="#DejaVuSans-67" x="611.279297"/>
      <use xlink:href="#DejaVuSans-65" x="674.755859"/>
     </g>
    </g>
    <g id="line2d_18">
     <path d="M 529.703125 70.976562 
L 539.703125 70.976562 
L 549.703125 70.976562 
" style="fill: none; stroke-dasharray: 5.55,2.4; stroke-dashoffset: 0; stroke: #000000; stroke-width: 1.5"/>
    </g>
    <g id="text_19">
     <!-- Denoised Image -->
     <g transform="translate(557.703125 74.476562) scale(0.1 -0.1)">
      <use xlink:href="#DejaVuSans-44"/>
      <use xlink:href="#DejaVuSans-65" x="77.001953"/>
      <use xlink:href="#DejaVuSans-6e" x="138.525391"/>
      <use xlink:href="#DejaVuSans-6f" x="201.904297"/>
      <use xlink:href="#DejaVuSans-69" x="263.085938"/>
      <use xlink:href="#DejaVuSans-73" x="290.869141"/>
      <use xlink:href="#DejaVuSans-65" x="342.96875"/>
      <use xlink:href="#DejaVuSans-64" x="404.492188"/>
      <use xlink:href="#DejaVuSans-20" x="467.96875"/>
      <use xlink:href="#DejaVuSans-49" x="499.755859"/>
      <use xlink:href="#DejaVuSans-6d" x="529.248047"/>
      <use xlink:href="#DejaVuSans-61" x="626.660156"/>
      <use xlink:href="#DejaVuSans-67" x="687.939453"/>
      <use xlink:href="#DejaVuSans-65" x="751.416016"/>
     </g>
    </g>
   </g>
  </g>
 </g>
 <defs>
  <clipPath id="p6a4258dd91">
   <rect x="90" y="43.2" width="558" height="277.2"/>
  </clipPath>
 </defs>
</svg>
