<?xml version="1.0" encoding="utf-8" standalone="no"?>
<!DOCTYPE svg PUBLIC "-//W3C//DTD SVG 1.1//EN"
  "http://www.w3.org/Graphics/SVG/1.1/DTD/svg11.dtd">
<svg xmlns:xlink="http://www.w3.org/1999/xlink" width="288pt" height="648pt" viewBox="0 0 288 648" xmlns="http://www.w3.org/2000/svg" version="1.1">
 <metadata>
  <rdf:RDF xmlns:dc="http://purl.org/dc/elements/1.1/" xmlns:cc="http://creativecommons.org/ns#" xmlns:rdf="http://www.w3.org/1999/02/22-rdf-syntax-ns#">
   <cc:Work>
    <dc:type rdf:resource="http://purl.org/dc/dcmitype/StillImage"/>
    <dc:date>2023-11-17T20:55:43.613750</dc:date>
    <dc:format>image/svg+xml</dc:format>
    <dc:creator>
     <cc:Agent>
      <dc:title>Matplotlib v3.8.0, https://matplotlib.org/</dc:title>
     </cc:Agent>
    </dc:creator>
   </cc:Work>
  </rdf:RDF>
 </metadata>
 <defs>
  <style type="text/css">*{stroke-linejoin: round; stroke-linecap: butt}</style>
 </defs>
 <g id="figure_1">
  <g id="patch_1">
   <path d="M 0 648 
L 288 648 
L 288 0 
L 0 0 
z
" style="fill: #ffffff"/>
  </g>
  <g id="axes_1">
   <g id="patch_2">
    <path d="M 57.17 190.626667 
L 267.705 190.626667 
L 267.705 10.8 
L 57.17 10.8 
z
" style="fill: #ffffff"/>
   </g>
   <g id="PolyCollection_1">
    <path d="M 15.063 182.452727 
L 15.063 182.452727 
L 17.16835 182.452727 
L 19.2737 182.452727 
L 21.37905 182.452727 
L 23.4844 182.452727 
L 25.58975 182.452727 
L 27.6951 182.452727 
L 29.80045 182.452727 
L 31.9058 182.452727 
L 34.01115 182.452727 
L 36.1165 182.452727 
L 38.22185 182.452727 
L 40.3272 182.452727 
L 42.43255 182.452727 
L 44.5379 182.452727 
L 46.64325 182.452727 
L 48.7486 182.452727 
L 50.85395 182.452727 
L 52.9593 182.452727 
L 55.06465 182.452727 
L 57.17 182.452727 
L 59.27535 182.452727 
L 61.3807 182.452727 
L 63.48605 182.452727 
L 65.5914 182.452727 
L 67.69675 182.452727 
L 69.8021 182.452727 
L 71.90745 182.452727 
L 74.0128 182.452727 
L 76.11815 182.452727 
L 78.2235 182.452727 
L 80.32885 182.452727 
L 82.4342 182.452727 
L 84.53955 182.452727 
L 86.6449 182.452727 
L 88.75025 182.452727 
L 90.8556 182.452727 
L 92.96095 182.452727 
L 95.0663 182.452727 
L 97.17165 182.452727 
L 99.277 182.452727 
L 101.38235 182.452727 
L 103.4877 182.452727 
L 105.59305 182.452727 
L 107.6984 182.452727 
L 109.80375 182.452727 
L 111.9091 182.452727 
L 114.01445 182.452727 
L 116.1198 182.452727 
L 118.22515 182.452727 
L 120.3305 182.452727 
L 122.43585 182.452727 
L 124.5412 182.452727 
L 126.64655 182.452727 
L 128.7519 182.452727 
L 130.85725 182.452727 
L 132.9626 182.452727 
L 135.06795 182.452727 
L 137.1733 182.452727 
L 139.27865 182.452727 
L 141.384 182.452727 
L 143.48935 182.452727 
L 145.5947 182.452727 
L 147.70005 182.452727 
L 149.8054 182.452727 
L 151.91075 182.452727 
L 154.0161 182.452727 
L 156.12145 182.452727 
L 158.2268 182.452727 
L 160.33215 182.452727 
L 162.4375 182.452727 
L 164.54285 182.452727 
L 166.6482 182.452727 
L 168.75355 182.452727 
L 170.8589 182.452727 
L 172.96425 182.452727 
L 175.0696 182.452727 
L 177.17495 182.452727 
L 179.2803 182.335032 
L 181.38565 182.276184 
L 183.491 181.981946 
L 185.59635 181.923098 
L 187.7017 181.511165 
L 189.80705 179.392649 
L 191.9124 179.569192 
L 194.01775 178.509934 
L 196.1231 178.745325 
L 198.22845 166.858098 
L 200.3338 157.913255 
L 202.43915 137.846204 
L 204.5445 95.181654 
L 206.64985 83.882904 
L 208.7552 18.973939 
L 210.86055 48.456615 
L 212.9659 99.242142 
L 215.07125 99.948314 
L 217.1766 74.879212 
L 219.28195 102.596458 
L 221.3873 92.710052 
L 223.49265 101.419505 
L 225.598 92.592357 
L 227.70335 88.414173 
L 229.8087 84.647923 
L 231.91405 77.821595 
L 234.0194 63.286224 
L 236.12475 84.824466 
L 238.2301 100.948724 
L 240.33545 102.243372 
L 242.4408 112.188626 
L 244.54615 120.662689 
L 246.6515 124.487786 
L 248.75685 132.66761 
L 250.8622 127.194778 
L 252.96755 136.139622 
L 255.0729 139.1997 
L 257.17825 142.142083 
L 259.2836 143.907513 
L 261.38895 143.907513 
L 263.4943 145.73179 
L 265.59965 153.087747 
L 267.705 152.793509 
L 269.81035 151.910794 
L 271.9157 147.614915 
L 274.02105 155.441653 
L 276.1264 160.267161 
L 278.23175 162.150286 
L 280.3371 162.267981 
L 282.44245 164.033411 
L 284.5478 162.915306 
L 286.65315 164.974973 
L 288.7585 167.505423 
L 290.86385 170.153567 
L 292.9692 169.3297 
L 295.07455 171.212825 
L 297.1799 171.801302 
L 299.28525 171.801302 
L 301.3906 173.507884 
L 303.49595 172.448626 
L 305.6013 173.390188 
L 307.70665 173.743274 
L 309.812 173.09595 
L 311.91735 174.86138 
L 314.0227 175.626399 
L 316.12805 174.567141 
L 318.2334 175.626399 
L 320.33875 177.038743 
L 322.4441 174.920227 
L 324.54945 176.921048 
L 326.6548 176.744505 
L 328.76015 175.567552 
L 330.8655 178.86302 
L 332.97085 177.627219 
L 335.0762 178.509934 
L 337.18155 178.509934 
L 339.2869 178.509934 
L 341.39225 178.62763 
L 343.4976 177.391829 
L 345.60295 177.744915 
L 347.7083 179.157259 
L 349.81365 179.157259 
L 351.919 180.216516 
L 354.02435 179.216106 
L 356.1297 179.686887 
L 358.23505 179.804583 
L 360.3404 180.039973 
L 362.44575 180.393059 
L 364.5511 179.981126 
L 366.65645 180.334212 
L 368.7618 180.510755 
L 370.86715 180.62845 
L 372.9725 180.62845 
L 375.07785 180.746145 
L 377.1832 180.804993 
L 379.28855 180.863841 
L 381.3939 181.216927 
L 383.49925 181.275774 
L 385.6046 181.216927 
L 387.70995 181.216927 
L 389.8153 181.393469 
L 391.92065 181.805403 
L 394.026 181.334622 
L 396.13135 181.393469 
L 398.2367 181.687708 
L 400.34205 181.393469 
L 402.4474 181.746555 
L 404.55275 181.864251 
L 406.6581 181.687708 
L 408.76345 181.393469 
L 410.8688 181.981946 
L 412.97415 182.040794 
L 415.0795 182.099641 
L 417.18485 181.981946 
L 419.2902 182.217337 
L 421.39555 182.158489 
L 423.5009 182.158489 
L 425.60625 182.040794 
L 427.7116 182.040794 
L 429.81695 182.099641 
L 431.9223 182.158489 
L 434.02765 182.217337 
L 436.133 182.335032 
L 438.23835 182.217337 
L 440.3437 182.217337 
L 442.44905 182.158489 
L 444.5544 182.158489 
L 446.65975 182.158489 
L 448.7651 182.217337 
L 450.87045 182.217337 
L 452.9758 182.39388 
L 455.08115 182.217337 
L 457.1865 182.39388 
L 459.29185 182.39388 
L 461.3972 182.217337 
L 463.50255 182.39388 
L 465.6079 182.335032 
L 467.71325 182.099641 
L 469.8186 182.39388 
L 471.92395 182.39388 
L 474.0293 182.452727 
L 476.13465 182.39388 
L 478.24 182.39388 
L 480.34535 182.39388 
L 482.4507 182.39388 
L 484.55605 182.335032 
L 486.6614 182.39388 
L 488.76675 182.452727 
L 490.8721 182.452727 
L 492.97745 182.39388 
L 495.0828 182.452727 
L 497.18815 182.452727 
L 499.2935 182.452727 
L 501.39885 182.452727 
L 503.5042 182.39388 
L 505.60955 182.452727 
L 507.7149 182.452727 
L 509.82025 182.452727 
L 511.9256 182.452727 
L 514.03095 182.452727 
L 516.1363 182.452727 
L 518.24165 182.452727 
L 520.347 182.452727 
L 522.45235 182.452727 
L 524.5577 182.452727 
L 526.66305 182.452727 
L 528.7684 182.452727 
L 530.87375 182.452727 
L 532.9791 182.452727 
L 535.08445 182.452727 
L 537.1898 182.452727 
L 539.29515 182.452727 
L 541.4005 182.452727 
L 543.50585 182.452727 
L 545.6112 182.452727 
L 547.71655 182.452727 
L 549.8219 182.452727 
L 551.92725 182.452727 
L 551.92725 182.452727 
L 551.92725 182.452727 
L 549.8219 182.452727 
L 547.71655 182.452727 
L 545.6112 182.452727 
L 543.50585 182.452727 
L 541.4005 182.452727 
L 539.29515 182.452727 
L 537.1898 182.452727 
L 535.08445 182.452727 
L 532.9791 182.452727 
L 530.87375 182.452727 
L 528.7684 182.452727 
L 526.66305 182.452727 
L 524.5577 182.452727 
L 522.45235 182.452727 
L 520.347 182.452727 
L 518.24165 182.452727 
L 516.1363 182.452727 
L 514.03095 182.452727 
L 511.9256 182.452727 
L 509.82025 182.452727 
L 507.7149 182.452727 
L 505.60955 182.452727 
L 503.5042 182.452727 
L 501.39885 182.452727 
L 499.2935 182.452727 
L 497.18815 182.452727 
L 495.0828 182.452727 
L 492.97745 182.452727 
L 490.8721 182.452727 
L 488.76675 182.452727 
L 486.6614 182.452727 
L 484.55605 182.452727 
L 482.4507 182.452727 
L 480.34535 182.452727 
L 478.24 182.452727 
L 476.13465 182.452727 
L 474.0293 182.452727 
L 471.92395 182.452727 
L 469.8186 182.452727 
L 467.71325 182.452727 
L 465.6079 182.452727 
L 463.50255 182.452727 
L 461.3972 182.452727 
L 459.29185 182.452727 
L 457.1865 182.452727 
L 455.08115 182.452727 
L 452.9758 182.452727 
L 450.87045 182.452727 
L 448.7651 182.452727 
L 446.65975 182.452727 
L 444.5544 182.452727 
L 442.44905 182.452727 
L 440.3437 182.452727 
L 438.23835 182.452727 
L 436.133 182.452727 
L 434.02765 182.452727 
L 431.9223 182.452727 
L 429.81695 182.452727 
L 427.7116 182.452727 
L 425.60625 182.452727 
L 423.5009 182.452727 
L 421.39555 182.452727 
L 419.2902 182.452727 
L 417.18485 182.452727 
L 415.0795 182.452727 
L 412.97415 182.452727 
L 410.8688 182.452727 
L 408.76345 182.452727 
L 406.6581 182.452727 
L 404.55275 182.452727 
L 402.4474 182.452727 
L 400.34205 182.452727 
L 398.2367 182.452727 
L 396.13135 182.452727 
L 394.026 182.452727 
L 391.92065 182.452727 
L 389.8153 182.452727 
L 387.70995 182.452727 
L 385.6046 182.452727 
L 383.49925 182.452727 
L 381.3939 182.452727 
L 379.28855 182.452727 
L 377.1832 182.452727 
L 375.07785 182.452727 
L 372.9725 182.452727 
L 370.86715 182.452727 
L 368.7618 182.452727 
L 366.65645 182.452727 
L 364.5511 182.452727 
L 362.44575 182.452727 
L 360.3404 182.452727 
L 358.23505 182.452727 
L 356.1297 182.452727 
L 354.02435 182.452727 
L 351.919 182.452727 
L 349.81365 182.452727 
L 347.7083 182.452727 
L 345.60295 182.452727 
L 343.4976 182.452727 
L 341.39225 182.452727 
L 339.2869 182.452727 
L 337.18155 182.452727 
L 335.0762 182.452727 
L 332.97085 182.452727 
L 330.8655 182.452727 
L 328.76015 182.452727 
L 326.6548 182.452727 
L 324.54945 182.452727 
L 322.4441 182.452727 
L 320.33875 182.452727 
L 318.2334 182.452727 
L 316.12805 182.452727 
L 314.0227 182.452727 
L 311.91735 182.452727 
L 309.812 182.452727 
L 307.70665 182.452727 
L 305.6013 182.452727 
L 303.49595 182.452727 
L 301.3906 182.452727 
L 299.28525 182.452727 
L 297.1799 182.452727 
L 295.07455 182.452727 
L 292.9692 182.452727 
L 290.86385 182.452727 
L 288.7585 182.452727 
L 286.65315 182.452727 
L 284.5478 182.452727 
L 282.44245 182.452727 
L 280.3371 182.452727 
L 278.23175 182.452727 
L 276.1264 182.452727 
L 274.02105 182.452727 
L 271.9157 182.452727 
L 269.81035 182.452727 
L 267.705 182.452727 
L 265.59965 182.452727 
L 263.4943 182.452727 
L 261.38895 182.452727 
L 259.2836 182.452727 
L 257.17825 182.452727 
L 255.0729 182.452727 
L 252.96755 182.452727 
L 250.8622 182.452727 
L 248.75685 182.452727 
L 246.6515 182.452727 
L 244.54615 182.452727 
L 242.4408 182.452727 
L 240.33545 182.452727 
L 238.2301 182.452727 
L 236.12475 182.452727 
L 234.0194 182.452727 
L 231.91405 182.452727 
L 229.8087 182.452727 
L 227.70335 182.452727 
L 225.598 182.452727 
L 223.49265 182.452727 
L 221.3873 182.452727 
L 219.28195 182.452727 
L 217.1766 182.452727 
L 215.07125 182.452727 
L 212.9659 182.452727 
L 210.86055 182.452727 
L 208.7552 182.452727 
L 206.64985 182.452727 
L 204.5445 182.452727 
L 202.43915 182.452727 
L 200.3338 182.452727 
L 198.22845 182.452727 
L 196.1231 182.452727 
L 194.01775 182.452727 
L 191.9124 182.452727 
L 189.80705 182.452727 
L 187.7017 182.452727 
L 185.59635 182.452727 
L 183.491 182.452727 
L 181.38565 182.452727 
L 179.2803 182.452727 
L 177.17495 182.452727 
L 175.0696 182.452727 
L 172.96425 182.452727 
L 170.8589 182.452727 
L 168.75355 182.452727 
L 166.6482 182.452727 
L 164.54285 182.452727 
L 162.4375 182.452727 
L 160.33215 182.452727 
L 158.2268 182.452727 
L 156.12145 182.452727 
L 154.0161 182.452727 
L 151.91075 182.452727 
L 149.8054 182.452727 
L 147.70005 182.452727 
L 145.5947 182.452727 
L 143.48935 182.452727 
L 141.384 182.452727 
L 139.27865 182.452727 
L 137.1733 182.452727 
L 135.06795 182.452727 
L 132.9626 182.452727 
L 130.85725 182.452727 
L 128.7519 182.452727 
L 126.64655 182.452727 
L 124.5412 182.452727 
L 122.43585 182.452727 
L 120.3305 182.452727 
L 118.22515 182.452727 
L 116.1198 182.452727 
L 114.01445 182.452727 
L 111.9091 182.452727 
L 109.80375 182.452727 
L 107.6984 182.452727 
L 105.59305 182.452727 
L 103.4877 182.452727 
L 101.38235 182.452727 
L 99.277 182.452727 
L 97.17165 182.452727 
L 95.0663 182.452727 
L 92.96095 182.452727 
L 90.8556 182.452727 
L 88.75025 182.452727 
L 86.6449 182.452727 
L 84.53955 182.452727 
L 82.4342 182.452727 
L 80.32885 182.452727 
L 78.2235 182.452727 
L 76.11815 182.452727 
L 74.0128 182.452727 
L 71.90745 182.452727 
L 69.8021 182.452727 
L 67.69675 182.452727 
L 65.5914 182.452727 
L 63.48605 182.452727 
L 61.3807 182.452727 
L 59.27535 182.452727 
L 57.17 182.452727 
L 55.06465 182.452727 
L 52.9593 182.452727 
L 50.85395 182.452727 
L 48.7486 182.452727 
L 46.64325 182.452727 
L 44.5379 182.452727 
L 42.43255 182.452727 
L 40.3272 182.452727 
L 38.22185 182.452727 
L 36.1165 182.452727 
L 34.01115 182.452727 
L 31.9058 182.452727 
L 29.80045 182.452727 
L 27.6951 182.452727 
L 25.58975 182.452727 
L 23.4844 182.452727 
L 21.37905 182.452727 
L 19.2737 182.452727 
L 17.16835 182.452727 
L 15.063 182.452727 
z
" clip-path="url(#p2944459d71)" style="fill: #ff0000; fill-opacity: 0.4; stroke: #ff0000; stroke-opacity: 0.4"/>
   </g>
   <g id="matplotlib.axis_1">
    <g id="xtick_1">
     <g id="line2d_1">
      <defs>
       <path id="mc77dc0b9dc" d="M 0 0 
L 0 3.5 
" style="stroke: #000000; stroke-width: 0.8"/>
      </defs>
      <g>
       <use xlink:href="#mc77dc0b9dc" x="57.17" y="190.626667" style="stroke: #000000; stroke-width: 0.8"/>
      </g>
     </g>
     <g id="text_1">
      <!-- 20 -->
      <g transform="translate(50.8075 205.225104) scale(0.1 -0.1)">
       <defs>
        <path id="DejaVuSans-32" d="M 1228 531 
L 3431 531 
L 3431 0 
L 469 0 
L 469 531 
Q 828 903 1448 1529 
Q 2069 2156 2228 2338 
Q 2531 2678 2651 2914 
Q 2772 3150 2772 3378 
Q 2772 3750 2511 3984 
Q 2250 4219 1831 4219 
Q 1534 4219 1204 4116 
Q 875 4013 500 3803 
L 500 4441 
Q 881 4594 1212 4672 
Q 1544 4750 1819 4750 
Q 2544 4750 2975 4387 
Q 3406 4025 3406 3419 
Q 3406 3131 3298 2873 
Q 3191 2616 2906 2266 
Q 2828 2175 2409 1742 
Q 1991 1309 1228 531 
z
" transform="scale(0.015625)"/>
        <path id="DejaVuSans-30" d="M 2034 4250 
Q 1547 4250 1301 3770 
Q 1056 3291 1056 2328 
Q 1056 1369 1301 889 
Q 1547 409 2034 409 
Q 2525 409 2770 889 
Q 3016 1369 3016 2328 
Q 3016 3291 2770 3770 
Q 2525 4250 2034 4250 
z
M 2034 4750 
Q 2819 4750 3233 4129 
Q 3647 3509 3647 2328 
Q 3647 1150 3233 529 
Q 2819 -91 2034 -91 
Q 1250 -91 836 529 
Q 422 1150 422 2328 
Q 422 3509 836 4129 
Q 1250 4750 2034 4750 
z
" transform="scale(0.015625)"/>
       </defs>
       <use xlink:href="#DejaVuSans-32"/>
       <use xlink:href="#DejaVuSans-30" x="63.623047"/>
      </g>
     </g>
    </g>
    <g id="xtick_2">
     <g id="line2d_2">
      <g>
       <use xlink:href="#mc77dc0b9dc" x="99.277" y="190.626667" style="stroke: #000000; stroke-width: 0.8"/>
      </g>
     </g>
     <g id="text_2">
      <!-- 40 -->
      <g transform="translate(92.9145 205.225104) scale(0.1 -0.1)">
       <defs>
        <path id="DejaVuSans-34" d="M 2419 4116 
L 825 1625 
L 2419 1625 
L 2419 4116 
z
M 2253 4666 
L 3047 4666 
L 3047 1625 
L 3713 1625 
L 3713 1100 
L 3047 1100 
L 3047 0 
L 2419 0 
L 2419 1100 
L 313 1100 
L 313 1709 
L 2253 4666 
z
" transform="scale(0.015625)"/>
       </defs>
       <use xlink:href="#DejaVuSans-34"/>
       <use xlink:href="#DejaVuSans-30" x="63.623047"/>
      </g>
     </g>
    </g>
    <g id="xtick_3">
     <g id="line2d_3">
      <g>
       <use xlink:href="#mc77dc0b9dc" x="141.384" y="190.626667" style="stroke: #000000; stroke-width: 0.8"/>
      </g>
     </g>
     <g id="text_3">
      <!-- 60 -->
      <g transform="translate(135.0215 205.225104) scale(0.1 -0.1)">
       <defs>
        <path id="DejaVuSans-36" d="M 2113 2584 
Q 1688 2584 1439 2293 
Q 1191 2003 1191 1497 
Q 1191 994 1439 701 
Q 1688 409 2113 409 
Q 2538 409 2786 701 
Q 3034 994 3034 1497 
Q 3034 2003 2786 2293 
Q 2538 2584 2113 2584 
z
M 3366 4563 
L 3366 3988 
Q 3128 4100 2886 4159 
Q 2644 4219 2406 4219 
Q 1781 4219 1451 3797 
Q 1122 3375 1075 2522 
Q 1259 2794 1537 2939 
Q 1816 3084 2150 3084 
Q 2853 3084 3261 2657 
Q 3669 2231 3669 1497 
Q 3669 778 3244 343 
Q 2819 -91 2113 -91 
Q 1303 -91 875 529 
Q 447 1150 447 2328 
Q 447 3434 972 4092 
Q 1497 4750 2381 4750 
Q 2619 4750 2861 4703 
Q 3103 4656 3366 4563 
z
" transform="scale(0.015625)"/>
       </defs>
       <use xlink:href="#DejaVuSans-36"/>
       <use xlink:href="#DejaVuSans-30" x="63.623047"/>
      </g>
     </g>
    </g>
    <g id="xtick_4">
     <g id="line2d_4">
      <g>
       <use xlink:href="#mc77dc0b9dc" x="183.491" y="190.626667" style="stroke: #000000; stroke-width: 0.8"/>
      </g>
     </g>
     <g id="text_4">
      <!-- 80 -->
      <g transform="translate(177.1285 205.225104) scale(0.1 -0.1)">
       <defs>
        <path id="DejaVuSans-38" d="M 2034 2216 
Q 1584 2216 1326 1975 
Q 1069 1734 1069 1313 
Q 1069 891 1326 650 
Q 1584 409 2034 409 
Q 2484 409 2743 651 
Q 3003 894 3003 1313 
Q 3003 1734 2745 1975 
Q 2488 2216 2034 2216 
z
M 1403 2484 
Q 997 2584 770 2862 
Q 544 3141 544 3541 
Q 544 4100 942 4425 
Q 1341 4750 2034 4750 
Q 2731 4750 3128 4425 
Q 3525 4100 3525 3541 
Q 3525 3141 3298 2862 
Q 3072 2584 2669 2484 
Q 3125 2378 3379 2068 
Q 3634 1759 3634 1313 
Q 3634 634 3220 271 
Q 2806 -91 2034 -91 
Q 1263 -91 848 271 
Q 434 634 434 1313 
Q 434 1759 690 2068 
Q 947 2378 1403 2484 
z
M 1172 3481 
Q 1172 3119 1398 2916 
Q 1625 2713 2034 2713 
Q 2441 2713 2670 2916 
Q 2900 3119 2900 3481 
Q 2900 3844 2670 4047 
Q 2441 4250 2034 4250 
Q 1625 4250 1398 4047 
Q 1172 3844 1172 3481 
z
" transform="scale(0.015625)"/>
       </defs>
       <use xlink:href="#DejaVuSans-38"/>
       <use xlink:href="#DejaVuSans-30" x="63.623047"/>
      </g>
     </g>
    </g>
    <g id="xtick_5">
     <g id="line2d_5">
      <g>
       <use xlink:href="#mc77dc0b9dc" x="225.598" y="190.626667" style="stroke: #000000; stroke-width: 0.8"/>
      </g>
     </g>
     <g id="text_5">
      <!-- 100 -->
      <g transform="translate(216.05425 205.225104) scale(0.1 -0.1)">
       <defs>
        <path id="DejaVuSans-31" d="M 794 531 
L 1825 531 
L 1825 4091 
L 703 3866 
L 703 4441 
L 1819 4666 
L 2450 4666 
L 2450 531 
L 3481 531 
L 3481 0 
L 794 0 
L 794 531 
z
" transform="scale(0.015625)"/>
       </defs>
       <use xlink:href="#DejaVuSans-31"/>
       <use xlink:href="#DejaVuSans-30" x="63.623047"/>
       <use xlink:href="#DejaVuSans-30" x="127.246094"/>
      </g>
     </g>
    </g>
    <g id="xtick_6">
     <g id="line2d_6">
      <g>
       <use xlink:href="#mc77dc0b9dc" x="267.705" y="190.626667" style="stroke: #000000; stroke-width: 0.8"/>
      </g>
     </g>
     <g id="text_6">
      <!-- 120 -->
      <g transform="translate(258.16125 205.225104) scale(0.1 -0.1)">
       <use xlink:href="#DejaVuSans-31"/>
       <use xlink:href="#DejaVuSans-32" x="63.623047"/>
       <use xlink:href="#DejaVuSans-30" x="127.246094"/>
      </g>
     </g>
    </g>
   </g>
   <g id="matplotlib.axis_2">
    <g id="ytick_1">
     <g id="line2d_7">
      <defs>
       <path id="m766a16582f" d="M 0 0 
L -3.5 0 
" style="stroke: #000000; stroke-width: 0.8"/>
      </defs>
      <g>
       <use xlink:href="#m766a16582f" x="57.17" y="182.452727" style="stroke: #000000; stroke-width: 0.8"/>
      </g>
     </g>
     <g id="text_7">
      <!-- 0 -->
      <g transform="translate(43.8075 186.251946) scale(0.1 -0.1)">
       <use xlink:href="#DejaVuSans-30"/>
      </g>
     </g>
    </g>
    <g id="ytick_2">
     <g id="line2d_8">
      <g>
       <use xlink:href="#m766a16582f" x="57.17" y="153.028899" style="stroke: #000000; stroke-width: 0.8"/>
      </g>
     </g>
     <g id="text_8">
      <!-- 500 -->
      <g transform="translate(31.0825 156.828118) scale(0.1 -0.1)">
       <defs>
        <path id="DejaVuSans-35" d="M 691 4666 
L 3169 4666 
L 3169 4134 
L 1269 4134 
L 1269 2991 
Q 1406 3038 1543 3061 
Q 1681 3084 1819 3084 
Q 2600 3084 3056 2656 
Q 3513 2228 3513 1497 
Q 3513 744 3044 326 
Q 2575 -91 1722 -91 
Q 1428 -91 1123 -41 
Q 819 9 494 109 
L 494 744 
Q 775 591 1075 516 
Q 1375 441 1709 441 
Q 2250 441 2565 725 
Q 2881 1009 2881 1497 
Q 2881 1984 2565 2268 
Q 2250 2553 1709 2553 
Q 1456 2553 1204 2497 
Q 953 2441 691 2322 
L 691 4666 
z
" transform="scale(0.015625)"/>
       </defs>
       <use xlink:href="#DejaVuSans-35"/>
       <use xlink:href="#DejaVuSans-30" x="63.623047"/>
       <use xlink:href="#DejaVuSans-30" x="127.246094"/>
      </g>
     </g>
    </g>
    <g id="ytick_3">
     <g id="line2d_9">
      <g>
       <use xlink:href="#m766a16582f" x="57.17" y="123.605071" style="stroke: #000000; stroke-width: 0.8"/>
      </g>
     </g>
     <g id="text_9">
      <!-- 1000 -->
      <g transform="translate(24.72 127.40429) scale(0.1 -0.1)">
       <use xlink:href="#DejaVuSans-31"/>
       <use xlink:href="#DejaVuSans-30" x="63.623047"/>
       <use xlink:href="#DejaVuSans-30" x="127.246094"/>
       <use xlink:href="#DejaVuSans-30" x="190.869141"/>
      </g>
     </g>
    </g>
    <g id="ytick_4">
     <g id="line2d_10">
      <g>
       <use xlink:href="#m766a16582f" x="57.17" y="94.181244" style="stroke: #000000; stroke-width: 0.8"/>
      </g>
     </g>
     <g id="text_10">
      <!-- 1500 -->
      <g transform="translate(24.72 97.980462) scale(0.1 -0.1)">
       <use xlink:href="#DejaVuSans-31"/>
       <use xlink:href="#DejaVuSans-35" x="63.623047"/>
       <use xlink:href="#DejaVuSans-30" x="127.246094"/>
       <use xlink:href="#DejaVuSans-30" x="190.869141"/>
      </g>
     </g>
    </g>
    <g id="ytick_5">
     <g id="line2d_11">
      <g>
       <use xlink:href="#m766a16582f" x="57.17" y="64.757416" style="stroke: #000000; stroke-width: 0.8"/>
      </g>
     </g>
     <g id="text_11">
      <!-- 2000 -->
      <g transform="translate(24.72 68.556634) scale(0.1 -0.1)">
       <use xlink:href="#DejaVuSans-32"/>
       <use xlink:href="#DejaVuSans-30" x="63.623047"/>
       <use xlink:href="#DejaVuSans-30" x="127.246094"/>
       <use xlink:href="#DejaVuSans-30" x="190.869141"/>
      </g>
     </g>
    </g>
    <g id="ytick_6">
     <g id="line2d_12">
      <g>
       <use xlink:href="#m766a16582f" x="57.17" y="35.333588" style="stroke: #000000; stroke-width: 0.8"/>
      </g>
     </g>
     <g id="text_12">
      <!-- 2500 -->
      <g transform="translate(24.72 39.132806) scale(0.1 -0.1)">
       <use xlink:href="#DejaVuSans-32"/>
       <use xlink:href="#DejaVuSans-35" x="63.623047"/>
       <use xlink:href="#DejaVuSans-30" x="127.246094"/>
       <use xlink:href="#DejaVuSans-30" x="190.869141"/>
      </g>
     </g>
    </g>
    <g id="text_13">
     <!-- Pixel Frequency -->
     <g transform="translate(18.640313 139.69224) rotate(-90) scale(0.1 -0.1)">
      <defs>
       <path id="DejaVuSans-50" d="M 1259 4147 
L 1259 2394 
L 2053 2394 
Q 2494 2394 2734 2622 
Q 2975 2850 2975 3272 
Q 2975 3691 2734 3919 
Q 2494 4147 2053 4147 
L 1259 4147 
z
M 628 4666 
L 2053 4666 
Q 2838 4666 3239 4311 
Q 3641 3956 3641 3272 
Q 3641 2581 3239 2228 
Q 2838 1875 2053 1875 
L 1259 1875 
L 1259 0 
L 628 0 
L 628 4666 
z
" transform="scale(0.015625)"/>
       <path id="DejaVuSans-69" d="M 603 3500 
L 1178 3500 
L 1178 0 
L 603 0 
L 603 3500 
z
M 603 4863 
L 1178 4863 
L 1178 4134 
L 603 4134 
L 603 4863 
z
" transform="scale(0.015625)"/>
       <path id="DejaVuSans-78" d="M 3513 3500 
L 2247 1797 
L 3578 0 
L 2900 0 
L 1881 1375 
L 863 0 
L 184 0 
L 1544 1831 
L 300 3500 
L 978 3500 
L 1906 2253 
L 2834 3500 
L 3513 3500 
z
" transform="scale(0.015625)"/>
       <path id="DejaVuSans-65" d="M 3597 1894 
L 3597 1613 
L 953 1613 
Q 991 1019 1311 708 
Q 1631 397 2203 397 
Q 2534 397 2845 478 
Q 3156 559 3463 722 
L 3463 178 
Q 3153 47 2828 -22 
Q 2503 -91 2169 -91 
Q 1331 -91 842 396 
Q 353 884 353 1716 
Q 353 2575 817 3079 
Q 1281 3584 2069 3584 
Q 2775 3584 3186 3129 
Q 3597 2675 3597 1894 
z
M 3022 2063 
Q 3016 2534 2758 2815 
Q 2500 3097 2075 3097 
Q 1594 3097 1305 2825 
Q 1016 2553 972 2059 
L 3022 2063 
z
" transform="scale(0.015625)"/>
       <path id="DejaVuSans-6c" d="M 603 4863 
L 1178 4863 
L 1178 0 
L 603 0 
L 603 4863 
z
" transform="scale(0.015625)"/>
       <path id="DejaVuSans-20" transform="scale(0.015625)"/>
       <path id="DejaVuSans-46" d="M 628 4666 
L 3309 4666 
L 3309 4134 
L 1259 4134 
L 1259 2759 
L 3109 2759 
L 3109 2228 
L 1259 2228 
L 1259 0 
L 628 0 
L 628 4666 
z
" transform="scale(0.015625)"/>
       <path id="DejaVuSans-72" d="M 2631 2963 
Q 2534 3019 2420 3045 
Q 2306 3072 2169 3072 
Q 1681 3072 1420 2755 
Q 1159 2438 1159 1844 
L 1159 0 
L 581 0 
L 581 3500 
L 1159 3500 
L 1159 2956 
Q 1341 3275 1631 3429 
Q 1922 3584 2338 3584 
Q 2397 3584 2469 3576 
Q 2541 3569 2628 3553 
L 2631 2963 
z
" transform="scale(0.015625)"/>
       <path id="DejaVuSans-71" d="M 947 1747 
Q 947 1113 1208 752 
Q 1469 391 1925 391 
Q 2381 391 2643 752 
Q 2906 1113 2906 1747 
Q 2906 2381 2643 2742 
Q 2381 3103 1925 3103 
Q 1469 3103 1208 2742 
Q 947 2381 947 1747 
z
M 2906 525 
Q 2725 213 2448 61 
Q 2172 -91 1784 -91 
Q 1150 -91 751 415 
Q 353 922 353 1747 
Q 353 2572 751 3078 
Q 1150 3584 1784 3584 
Q 2172 3584 2448 3432 
Q 2725 3281 2906 2969 
L 2906 3500 
L 3481 3500 
L 3481 -1331 
L 2906 -1331 
L 2906 525 
z
" transform="scale(0.015625)"/>
       <path id="DejaVuSans-75" d="M 544 1381 
L 544 3500 
L 1119 3500 
L 1119 1403 
Q 1119 906 1312 657 
Q 1506 409 1894 409 
Q 2359 409 2629 706 
Q 2900 1003 2900 1516 
L 2900 3500 
L 3475 3500 
L 3475 0 
L 2900 0 
L 2900 538 
Q 2691 219 2414 64 
Q 2138 -91 1772 -91 
Q 1169 -91 856 284 
Q 544 659 544 1381 
z
M 1991 3584 
L 1991 3584 
z
" transform="scale(0.015625)"/>
       <path id="DejaVuSans-6e" d="M 3513 2113 
L 3513 0 
L 2938 0 
L 2938 2094 
Q 2938 2591 2744 2837 
Q 2550 3084 2163 3084 
Q 1697 3084 1428 2787 
Q 1159 2491 1159 1978 
L 1159 0 
L 581 0 
L 581 3500 
L 1159 3500 
L 1159 2956 
Q 1366 3272 1645 3428 
Q 1925 3584 2291 3584 
Q 2894 3584 3203 3211 
Q 3513 2838 3513 2113 
z
" transform="scale(0.015625)"/>
       <path id="DejaVuSans-63" d="M 3122 3366 
L 3122 2828 
Q 2878 2963 2633 3030 
Q 2388 3097 2138 3097 
Q 1578 3097 1268 2742 
Q 959 2388 959 1747 
Q 959 1106 1268 751 
Q 1578 397 2138 397 
Q 2388 397 2633 464 
Q 2878 531 3122 666 
L 3122 134 
Q 2881 22 2623 -34 
Q 2366 -91 2075 -91 
Q 1284 -91 818 406 
Q 353 903 353 1747 
Q 353 2603 823 3093 
Q 1294 3584 2113 3584 
Q 2378 3584 2631 3529 
Q 2884 3475 3122 3366 
z
" transform="scale(0.015625)"/>
       <path id="DejaVuSans-79" d="M 2059 -325 
Q 1816 -950 1584 -1140 
Q 1353 -1331 966 -1331 
L 506 -1331 
L 506 -850 
L 844 -850 
Q 1081 -850 1212 -737 
Q 1344 -625 1503 -206 
L 1606 56 
L 191 3500 
L 800 3500 
L 1894 763 
L 2988 3500 
L 3597 3500 
L 2059 -325 
z
" transform="scale(0.015625)"/>
      </defs>
      <use xlink:href="#DejaVuSans-50"/>
      <use xlink:href="#DejaVuSans-69" x="58.052734"/>
      <use xlink:href="#DejaVuSans-78" x="85.835938"/>
      <use xlink:href="#DejaVuSans-65" x="141.890625"/>
      <use xlink:href="#DejaVuSans-6c" x="203.414062"/>
      <use xlink:href="#DejaVuSans-20" x="231.197266"/>
      <use xlink:href="#DejaVuSans-46" x="262.984375"/>
      <use xlink:href="#DejaVuSans-72" x="313.253906"/>
      <use xlink:href="#DejaVuSans-65" x="352.117188"/>
      <use xlink:href="#DejaVuSans-71" x="413.640625"/>
      <use xlink:href="#DejaVuSans-75" x="477.117188"/>
      <use xlink:href="#DejaVuSans-65" x="540.496094"/>
      <use xlink:href="#DejaVuSans-6e" x="602.019531"/>
      <use xlink:href="#DejaVuSans-63" x="665.398438"/>
      <use xlink:href="#DejaVuSans-79" x="720.378906"/>
     </g>
    </g>
   </g>
   <g id="line2d_13">
    <path d="M 15.063 182.452727 
L 177.17495 182.452727 
L 181.38565 182.276184 
L 183.491 181.981946 
L 185.59635 181.923098 
L 187.7017 181.511165 
L 189.80705 179.392649 
L 191.9124 179.569192 
L 194.01775 178.509934 
L 196.1231 178.745325 
L 198.22845 166.858098 
L 200.3338 157.913255 
L 202.43915 137.846204 
L 204.5445 95.181654 
L 206.64985 83.882904 
L 208.7552 18.973939 
L 210.86055 48.456615 
L 212.9659 99.242142 
L 215.07125 99.948314 
L 217.1766 74.879212 
L 219.28195 102.596458 
L 221.3873 92.710052 
L 223.49265 101.419505 
L 225.598 92.592357 
L 227.70335 88.414173 
L 229.8087 84.647923 
L 231.91405 77.821595 
L 234.0194 63.286224 
L 236.12475 84.824466 
L 238.2301 100.948724 
L 240.33545 102.243372 
L 242.4408 112.188626 
L 244.54615 120.662689 
L 246.6515 124.487786 
L 248.75685 132.66761 
L 250.8622 127.194778 
L 252.96755 136.139622 
L 257.17825 142.142083 
L 259.2836 143.907513 
L 261.38895 143.907513 
L 263.4943 145.73179 
L 265.59965 153.087747 
L 267.705 152.793509 
L 269.81035 151.910794 
L 271.9157 147.614915 
L 274.02105 155.441653 
L 276.1264 160.267161 
L 278.23175 162.150286 
L 280.3371 162.267981 
L 282.44245 164.033411 
L 284.5478 162.915306 
L 286.65315 164.974973 
L 289 167.809185 
L 289 167.809185 
" clip-path="url(#p2944459d71)" style="fill: none; stroke: #ff0000; stroke-width: 1.5; stroke-linecap: square"/>
   </g>
   <g id="patch_3">
    <path d="M 57.17 190.626667 
L 57.17 10.8 
" style="fill: none; stroke: #000000; stroke-width: 0.8; stroke-linejoin: miter; stroke-linecap: square"/>
   </g>
   <g id="patch_4">
    <path d="M 267.705 190.626667 
L 267.705 10.8 
" style="fill: none; stroke: #000000; stroke-width: 0.8; stroke-linejoin: miter; stroke-linecap: square"/>
   </g>
   <g id="patch_5">
    <path d="M 57.17 190.626667 
L 267.705 190.626667 
" style="fill: none; stroke: #000000; stroke-width: 0.8; stroke-linejoin: miter; stroke-linecap: square"/>
   </g>
   <g id="patch_6">
    <path d="M 57.17 10.8 
L 267.705 10.8 
" style="fill: none; stroke: #000000; stroke-width: 0.8; stroke-linejoin: miter; stroke-linecap: square"/>
   </g>
   <g id="text_14">
    <!-- Red Channel  -->
    <g transform="translate(188.011875 24.8) scale(0.12 -0.12)">
     <defs>
      <path id="DejaVuSans-52" d="M 2841 2188 
Q 3044 2119 3236 1894 
Q 3428 1669 3622 1275 
L 4263 0 
L 3584 0 
L 2988 1197 
Q 2756 1666 2539 1819 
Q 2322 1972 1947 1972 
L 1259 1972 
L 1259 0 
L 628 0 
L 628 4666 
L 2053 4666 
Q 2853 4666 3247 4331 
Q 3641 3997 3641 3322 
Q 3641 2881 3436 2590 
Q 3231 2300 2841 2188 
z
M 1259 4147 
L 1259 2491 
L 2053 2491 
Q 2509 2491 2742 2702 
Q 2975 2913 2975 3322 
Q 2975 3731 2742 3939 
Q 2509 4147 2053 4147 
L 1259 4147 
z
" transform="scale(0.015625)"/>
      <path id="DejaVuSans-64" d="M 2906 2969 
L 2906 4863 
L 3481 4863 
L 3481 0 
L 2906 0 
L 2906 525 
Q 2725 213 2448 61 
Q 2172 -91 1784 -91 
Q 1150 -91 751 415 
Q 353 922 353 1747 
Q 353 2572 751 3078 
Q 1150 3584 1784 3584 
Q 2172 3584 2448 3432 
Q 2725 3281 2906 2969 
z
M 947 1747 
Q 947 1113 1208 752 
Q 1469 391 1925 391 
Q 2381 391 2643 752 
Q 2906 1113 2906 1747 
Q 2906 2381 2643 2742 
Q 2381 3103 1925 3103 
Q 1469 3103 1208 2742 
Q 947 2381 947 1747 
z
" transform="scale(0.015625)"/>
      <path id="DejaVuSans-43" d="M 4122 4306 
L 4122 3641 
Q 3803 3938 3442 4084 
Q 3081 4231 2675 4231 
Q 1875 4231 1450 3742 
Q 1025 3253 1025 2328 
Q 1025 1406 1450 917 
Q 1875 428 2675 428 
Q 3081 428 3442 575 
Q 3803 722 4122 1019 
L 4122 359 
Q 3791 134 3420 21 
Q 3050 -91 2638 -91 
Q 1578 -91 968 557 
Q 359 1206 359 2328 
Q 359 3453 968 4101 
Q 1578 4750 2638 4750 
Q 3056 4750 3426 4639 
Q 3797 4528 4122 4306 
z
" transform="scale(0.015625)"/>
      <path id="DejaVuSans-68" d="M 3513 2113 
L 3513 0 
L 2938 0 
L 2938 2094 
Q 2938 2591 2744 2837 
Q 2550 3084 2163 3084 
Q 1697 3084 1428 2787 
Q 1159 2491 1159 1978 
L 1159 0 
L 581 0 
L 581 4863 
L 1159 4863 
L 1159 2956 
Q 1366 3272 1645 3428 
Q 1925 3584 2291 3584 
Q 2894 3584 3203 3211 
Q 3513 2838 3513 2113 
z
" transform="scale(0.015625)"/>
      <path id="DejaVuSans-61" d="M 2194 1759 
Q 1497 1759 1228 1600 
Q 959 1441 959 1056 
Q 959 750 1161 570 
Q 1363 391 1709 391 
Q 2188 391 2477 730 
Q 2766 1069 2766 1631 
L 2766 1759 
L 2194 1759 
z
M 3341 1997 
L 3341 0 
L 2766 0 
L 2766 531 
Q 2569 213 2275 61 
Q 1981 -91 1556 -91 
Q 1019 -91 701 211 
Q 384 513 384 1019 
Q 384 1609 779 1909 
Q 1175 2209 1959 2209 
L 2766 2209 
L 2766 2266 
Q 2766 2663 2505 2880 
Q 2244 3097 1772 3097 
Q 1472 3097 1187 3025 
Q 903 2953 641 2809 
L 641 3341 
Q 956 3463 1253 3523 
Q 1550 3584 1831 3584 
Q 2591 3584 2966 3190 
Q 3341 2797 3341 1997 
z
" transform="scale(0.015625)"/>
     </defs>
     <use xlink:href="#DejaVuSans-52"/>
     <use xlink:href="#DejaVuSans-65" x="64.982422"/>
     <use xlink:href="#DejaVuSans-64" x="126.505859"/>
     <use xlink:href="#DejaVuSans-20" x="189.982422"/>
     <use xlink:href="#DejaVuSans-43" x="221.769531"/>
     <use xlink:href="#DejaVuSans-68" x="291.59375"/>
     <use xlink:href="#DejaVuSans-61" x="354.972656"/>
     <use xlink:href="#DejaVuSans-6e" x="416.251953"/>
     <use xlink:href="#DejaVuSans-6e" x="479.630859"/>
     <use xlink:href="#DejaVuSans-65" x="543.009766"/>
     <use xlink:href="#DejaVuSans-6c" x="604.533203"/>
     <use xlink:href="#DejaVuSans-20" x="632.316406"/>
    </g>
   </g>
  </g>
  <g id="axes_2">
   <g id="patch_7">
    <path d="M 57.17 398.333333 
L 267.705 398.333333 
L 267.705 218.506667 
L 57.17 218.506667 
z
" style="fill: #ffffff"/>
   </g>
   <g id="PolyCollection_2">
    <path d="M 15.063 390.159394 
L 15.063 390.159394 
L 17.16835 390.159394 
L 19.2737 390.159394 
L 21.37905 390.159394 
L 23.4844 390.159394 
L 25.58975 390.159394 
L 27.6951 390.159394 
L 29.80045 390.159394 
L 31.9058 390.159394 
L 34.01115 390.159394 
L 36.1165 390.159394 
L 38.22185 390.159394 
L 40.3272 390.159394 
L 42.43255 390.159394 
L 44.5379 390.159394 
L 46.64325 390.159394 
L 48.7486 390.159394 
L 50.85395 390.159394 
L 52.9593 390.159394 
L 55.06465 390.159394 
L 57.17 390.159394 
L 59.27535 390.159394 
L 61.3807 390.159394 
L 63.48605 390.159394 
L 65.5914 390.159394 
L 67.69675 390.159394 
L 69.8021 390.159394 
L 71.90745 390.159394 
L 74.0128 390.159394 
L 76.11815 390.159394 
L 78.2235 390.159394 
L 80.32885 390.159394 
L 82.4342 390.159394 
L 84.53955 390.159394 
L 86.6449 390.159394 
L 88.75025 390.159394 
L 90.8556 390.159394 
L 92.96095 390.159394 
L 95.0663 390.159394 
L 97.17165 390.159394 
L 99.277 390.159394 
L 101.38235 390.159394 
L 103.4877 390.159394 
L 105.59305 390.159394 
L 107.6984 390.159394 
L 109.80375 390.159394 
L 111.9091 390.159394 
L 114.01445 390.159394 
L 116.1198 390.159394 
L 118.22515 390.159394 
L 120.3305 390.159394 
L 122.43585 390.159394 
L 124.5412 390.159394 
L 126.64655 390.159394 
L 128.7519 390.159394 
L 130.85725 390.159394 
L 132.9626 390.159394 
L 135.06795 390.159394 
L 137.1733 390.159394 
L 139.27865 390.159394 
L 141.384 390.159394 
L 143.48935 390.159394 
L 145.5947 390.159394 
L 147.70005 390.159394 
L 149.8054 390.159394 
L 151.91075 390.159394 
L 154.0161 389.983295 
L 156.12145 389.865895 
L 158.2268 389.572396 
L 160.33215 389.161498 
L 162.4375 387.341806 
L 164.54285 387.048307 
L 166.6482 379.123842 
L 168.75355 346.838983 
L 170.8589 301.111882 
L 172.96425 295.770205 
L 175.0696 226.680606 
L 177.17495 302.109777 
L 179.2803 293.422215 
L 181.38565 292.36562 
L 183.491 323.182986 
L 185.59635 345.664988 
L 187.7017 302.872874 
L 189.80705 317.782609 
L 191.9124 325.413576 
L 194.01775 330.403054 
L 196.1231 337.094825 
L 198.22845 345.958486 
L 200.3338 327.174568 
L 202.43915 290.428528 
L 204.5445 304.692566 
L 206.64985 344.608392 
L 208.7552 344.608392 
L 210.86055 335.509932 
L 212.9659 339.208016 
L 215.07125 342.9648 
L 217.1766 340.61681 
L 219.28195 342.7887 
L 221.3873 340.440711 
L 223.49265 330.168255 
L 225.598 337.094825 
L 227.70335 345.606288 
L 229.8087 350.419667 
L 231.91405 351.828461 
L 234.0194 355.878743 
L 236.12475 357.815835 
L 238.2301 357.815835 
L 240.33545 358.226733 
L 242.4408 358.637631 
L 244.54615 362.394415 
L 246.6515 364.918504 
L 248.75685 365.505501 
L 250.8622 361.983517 
L 252.96755 362.687914 
L 255.0729 364.977204 
L 257.17825 362.981412 
L 259.2836 363.392311 
L 261.38895 361.924817 
L 263.4943 360.516023 
L 265.59965 366.268598 
L 267.705 369.086186 
L 269.81035 371.845074 
L 271.9157 371.375476 
L 274.02105 372.549471 
L 276.1264 373.606066 
L 278.23175 374.780061 
L 280.3371 375.190959 
L 282.44245 377.949847 
L 284.5478 376.188855 
L 286.65315 377.069351 
L 288.7585 378.947743 
L 290.86385 379.065142 
L 292.9692 380.063038 
L 295.07455 380.004338 
L 297.1799 380.180437 
L 299.28525 381.178333 
L 301.3906 380.356537 
L 303.49595 382.352328 
L 305.6013 382.176229 
L 307.70665 381.589231 
L 309.812 381.94143 
L 311.91735 382.528427 
L 314.0227 382.998025 
L 316.12805 383.232824 
L 318.2334 383.995921 
L 320.33875 384.28942 
L 322.4441 384.28942 
L 324.54945 385.052516 
L 326.6548 385.346015 
L 328.76015 384.876417 
L 330.8655 384.817717 
L 332.97085 386.050412 
L 335.0762 385.463414 
L 337.18155 385.756913 
L 339.2869 386.167811 
L 341.39225 386.050412 
L 343.4976 387.107007 
L 345.60295 386.285211 
L 347.7083 386.637409 
L 349.81365 387.224407 
L 351.919 386.637409 
L 354.02435 387.224407 
L 356.1297 386.40261 
L 358.23505 387.459206 
L 360.3404 386.637409 
L 362.44575 387.928804 
L 364.5511 387.870104 
L 366.65645 387.870104 
L 368.7618 387.928804 
L 370.86715 387.694005 
L 372.9725 388.222302 
L 375.07785 388.163603 
L 377.1832 388.163603 
L 379.28855 388.515801 
L 381.3939 388.515801 
L 383.49925 388.7506 
L 385.6046 389.044099 
L 387.70995 388.339702 
L 389.8153 389.161498 
L 391.92065 388.7506 
L 394.026 388.6919 
L 396.13135 388.985399 
L 398.2367 388.985399 
L 400.34205 389.044099 
L 402.4474 389.161498 
L 404.55275 389.102799 
L 406.6581 389.161498 
L 408.76345 389.572396 
L 410.8688 389.102799 
L 412.97415 389.161498 
L 415.0795 389.161498 
L 417.18485 389.396297 
L 419.2902 389.689796 
L 421.39555 389.102799 
L 423.5009 389.396297 
L 425.60625 389.631096 
L 427.7116 389.513697 
L 429.81695 389.572396 
L 431.9223 389.748496 
L 434.02765 389.631096 
L 436.133 389.513697 
L 438.23835 389.983295 
L 440.3437 389.924595 
L 442.44905 389.748496 
L 444.5544 389.924595 
L 446.65975 389.865895 
L 448.7651 389.631096 
L 450.87045 389.572396 
L 452.9758 389.983295 
L 455.08115 389.924595 
L 457.1865 390.100694 
L 459.29185 389.689796 
L 461.3972 389.865895 
L 463.50255 389.983295 
L 465.6079 390.100694 
L 467.71325 389.983295 
L 469.8186 389.807195 
L 471.92395 389.807195 
L 474.0293 389.865895 
L 476.13465 390.041994 
L 478.24 390.041994 
L 480.34535 389.983295 
L 482.4507 390.041994 
L 484.55605 390.041994 
L 486.6614 390.100694 
L 488.76675 390.041994 
L 490.8721 389.983295 
L 492.97745 390.100694 
L 495.0828 390.041994 
L 497.18815 390.159394 
L 499.2935 390.100694 
L 501.39885 390.100694 
L 503.5042 390.100694 
L 505.60955 390.159394 
L 507.7149 389.983295 
L 509.82025 390.041994 
L 511.9256 390.100694 
L 514.03095 390.159394 
L 516.1363 390.159394 
L 518.24165 390.100694 
L 520.347 390.159394 
L 522.45235 390.159394 
L 524.5577 390.159394 
L 526.66305 390.159394 
L 528.7684 390.100694 
L 530.87375 390.159394 
L 532.9791 390.159394 
L 535.08445 390.159394 
L 537.1898 390.159394 
L 539.29515 390.159394 
L 541.4005 390.159394 
L 543.50585 390.159394 
L 545.6112 390.159394 
L 547.71655 390.159394 
L 549.8219 390.159394 
L 551.92725 390.159394 
L 551.92725 390.159394 
L 551.92725 390.159394 
L 549.8219 390.159394 
L 547.71655 390.159394 
L 545.6112 390.159394 
L 543.50585 390.159394 
L 541.4005 390.159394 
L 539.29515 390.159394 
L 537.1898 390.159394 
L 535.08445 390.159394 
L 532.9791 390.159394 
L 530.87375 390.159394 
L 528.7684 390.159394 
L 526.66305 390.159394 
L 524.5577 390.159394 
L 522.45235 390.159394 
L 520.347 390.159394 
L 518.24165 390.159394 
L 516.1363 390.159394 
L 514.03095 390.159394 
L 511.9256 390.159394 
L 509.82025 390.159394 
L 507.7149 390.159394 
L 505.60955 390.159394 
L 503.5042 390.159394 
L 501.39885 390.159394 
L 499.2935 390.159394 
L 497.18815 390.159394 
L 495.0828 390.159394 
L 492.97745 390.159394 
L 490.8721 390.159394 
L 488.76675 390.159394 
L 486.6614 390.159394 
L 484.55605 390.159394 
L 482.4507 390.159394 
L 480.34535 390.159394 
L 478.24 390.159394 
L 476.13465 390.159394 
L 474.0293 390.159394 
L 471.92395 390.159394 
L 469.8186 390.159394 
L 467.71325 390.159394 
L 465.6079 390.159394 
L 463.50255 390.159394 
L 461.3972 390.159394 
L 459.29185 390.159394 
L 457.1865 390.159394 
L 455.08115 390.159394 
L 452.9758 390.159394 
L 450.87045 390.159394 
L 448.7651 390.159394 
L 446.65975 390.159394 
L 444.5544 390.159394 
L 442.44905 390.159394 
L 440.3437 390.159394 
L 438.23835 390.159394 
L 436.133 390.159394 
L 434.02765 390.159394 
L 431.9223 390.159394 
L 429.81695 390.159394 
L 427.7116 390.159394 
L 425.60625 390.159394 
L 423.5009 390.159394 
L 421.39555 390.159394 
L 419.2902 390.159394 
L 417.18485 390.159394 
L 415.0795 390.159394 
L 412.97415 390.159394 
L 410.8688 390.159394 
L 408.76345 390.159394 
L 406.6581 390.159394 
L 404.55275 390.159394 
L 402.4474 390.159394 
L 400.34205 390.159394 
L 398.2367 390.159394 
L 396.13135 390.159394 
L 394.026 390.159394 
L 391.92065 390.159394 
L 389.8153 390.159394 
L 387.70995 390.159394 
L 385.6046 390.159394 
L 383.49925 390.159394 
L 381.3939 390.159394 
L 379.28855 390.159394 
L 377.1832 390.159394 
L 375.07785 390.159394 
L 372.9725 390.159394 
L 370.86715 390.159394 
L 368.7618 390.159394 
L 366.65645 390.159394 
L 364.5511 390.159394 
L 362.44575 390.159394 
L 360.3404 390.159394 
L 358.23505 390.159394 
L 356.1297 390.159394 
L 354.02435 390.159394 
L 351.919 390.159394 
L 349.81365 390.159394 
L 347.7083 390.159394 
L 345.60295 390.159394 
L 343.4976 390.159394 
L 341.39225 390.159394 
L 339.2869 390.159394 
L 337.18155 390.159394 
L 335.0762 390.159394 
L 332.97085 390.159394 
L 330.8655 390.159394 
L 328.76015 390.159394 
L 326.6548 390.159394 
L 324.54945 390.159394 
L 322.4441 390.159394 
L 320.33875 390.159394 
L 318.2334 390.159394 
L 316.12805 390.159394 
L 314.0227 390.159394 
L 311.91735 390.159394 
L 309.812 390.159394 
L 307.70665 390.159394 
L 305.6013 390.159394 
L 303.49595 390.159394 
L 301.3906 390.159394 
L 299.28525 390.159394 
L 297.1799 390.159394 
L 295.07455 390.159394 
L 292.9692 390.159394 
L 290.86385 390.159394 
L 288.7585 390.159394 
L 286.65315 390.159394 
L 284.5478 390.159394 
L 282.44245 390.159394 
L 280.3371 390.159394 
L 278.23175 390.159394 
L 276.1264 390.159394 
L 274.02105 390.159394 
L 271.9157 390.159394 
L 269.81035 390.159394 
L 267.705 390.159394 
L 265.59965 390.159394 
L 263.4943 390.159394 
L 261.38895 390.159394 
L 259.2836 390.159394 
L 257.17825 390.159394 
L 255.0729 390.159394 
L 252.96755 390.159394 
L 250.8622 390.159394 
L 248.75685 390.159394 
L 246.6515 390.159394 
L 244.54615 390.159394 
L 242.4408 390.159394 
L 240.33545 390.159394 
L 238.2301 390.159394 
L 236.12475 390.159394 
L 234.0194 390.159394 
L 231.91405 390.159394 
L 229.8087 390.159394 
L 227.70335 390.159394 
L 225.598 390.159394 
L 223.49265 390.159394 
L 221.3873 390.159394 
L 219.28195 390.159394 
L 217.1766 390.159394 
L 215.07125 390.159394 
L 212.9659 390.159394 
L 210.86055 390.159394 
L 208.7552 390.159394 
L 206.64985 390.159394 
L 204.5445 390.159394 
L 202.43915 390.159394 
L 200.3338 390.159394 
L 198.22845 390.159394 
L 196.1231 390.159394 
L 194.01775 390.159394 
L 191.9124 390.159394 
L 189.80705 390.159394 
L 187.7017 390.159394 
L 185.59635 390.159394 
L 183.491 390.159394 
L 181.38565 390.159394 
L 179.2803 390.159394 
L 177.17495 390.159394 
L 175.0696 390.159394 
L 172.96425 390.159394 
L 170.8589 390.159394 
L 168.75355 390.159394 
L 166.6482 390.159394 
L 164.54285 390.159394 
L 162.4375 390.159394 
L 160.33215 390.159394 
L 158.2268 390.159394 
L 156.12145 390.159394 
L 154.0161 390.159394 
L 151.91075 390.159394 
L 149.8054 390.159394 
L 147.70005 390.159394 
L 145.5947 390.159394 
L 143.48935 390.159394 
L 141.384 390.159394 
L 139.27865 390.159394 
L 137.1733 390.159394 
L 135.06795 390.159394 
L 132.9626 390.159394 
L 130.85725 390.159394 
L 128.7519 390.159394 
L 126.64655 390.159394 
L 124.5412 390.159394 
L 122.43585 390.159394 
L 120.3305 390.159394 
L 118.22515 390.159394 
L 116.1198 390.159394 
L 114.01445 390.159394 
L 111.9091 390.159394 
L 109.80375 390.159394 
L 107.6984 390.159394 
L 105.59305 390.159394 
L 103.4877 390.159394 
L 101.38235 390.159394 
L 99.277 390.159394 
L 97.17165 390.159394 
L 95.0663 390.159394 
L 92.96095 390.159394 
L 90.8556 390.159394 
L 88.75025 390.159394 
L 86.6449 390.159394 
L 84.53955 390.159394 
L 82.4342 390.159394 
L 80.32885 390.159394 
L 78.2235 390.159394 
L 76.11815 390.159394 
L 74.0128 390.159394 
L 71.90745 390.159394 
L 69.8021 390.159394 
L 67.69675 390.159394 
L 65.5914 390.159394 
L 63.48605 390.159394 
L 61.3807 390.159394 
L 59.27535 390.159394 
L 57.17 390.159394 
L 55.06465 390.159394 
L 52.9593 390.159394 
L 50.85395 390.159394 
L 48.7486 390.159394 
L 46.64325 390.159394 
L 44.5379 390.159394 
L 42.43255 390.159394 
L 40.3272 390.159394 
L 38.22185 390.159394 
L 36.1165 390.159394 
L 34.01115 390.159394 
L 31.9058 390.159394 
L 29.80045 390.159394 
L 27.6951 390.159394 
L 25.58975 390.159394 
L 23.4844 390.159394 
L 21.37905 390.159394 
L 19.2737 390.159394 
L 17.16835 390.159394 
L 15.063 390.159394 
z
" clip-path="url(#p0a6fa5445f)" style="fill: #008000; fill-opacity: 0.4; stroke: #008000; stroke-opacity: 0.4"/>
   </g>
   <g id="matplotlib.axis_3">
    <g id="xtick_7">
     <g id="line2d_14">
      <g>
       <use xlink:href="#mc77dc0b9dc" x="57.17" y="398.333333" style="stroke: #000000; stroke-width: 0.8"/>
      </g>
     </g>
     <g id="text_15">
      <!-- 20 -->
      <g transform="translate(50.8075 412.931771) scale(0.1 -0.1)">
       <use xlink:href="#DejaVuSans-32"/>
       <use xlink:href="#DejaVuSans-30" x="63.623047"/>
      </g>
     </g>
    </g>
    <g id="xtick_8">
     <g id="line2d_15">
      <g>
       <use xlink:href="#mc77dc0b9dc" x="99.277" y="398.333333" style="stroke: #000000; stroke-width: 0.8"/>
      </g>
     </g>
     <g id="text_16">
      <!-- 40 -->
      <g transform="translate(92.9145 412.931771) scale(0.1 -0.1)">
       <use xlink:href="#DejaVuSans-34"/>
       <use xlink:href="#DejaVuSans-30" x="63.623047"/>
      </g>
     </g>
    </g>
    <g id="xtick_9">
     <g id="line2d_16">
      <g>
       <use xlink:href="#mc77dc0b9dc" x="141.384" y="398.333333" style="stroke: #000000; stroke-width: 0.8"/>
      </g>
     </g>
     <g id="text_17">
      <!-- 60 -->
      <g transform="translate(135.0215 412.931771) scale(0.1 -0.1)">
       <use xlink:href="#DejaVuSans-36"/>
       <use xlink:href="#DejaVuSans-30" x="63.623047"/>
      </g>
     </g>
    </g>
    <g id="xtick_10">
     <g id="line2d_17">
      <g>
       <use xlink:href="#mc77dc0b9dc" x="183.491" y="398.333333" style="stroke: #000000; stroke-width: 0.8"/>
      </g>
     </g>
     <g id="text_18">
      <!-- 80 -->
      <g transform="translate(177.1285 412.931771) scale(0.1 -0.1)">
       <use xlink:href="#DejaVuSans-38"/>
       <use xlink:href="#DejaVuSans-30" x="63.623047"/>
      </g>
     </g>
    </g>
    <g id="xtick_11">
     <g id="line2d_18">
      <g>
       <use xlink:href="#mc77dc0b9dc" x="225.598" y="398.333333" style="stroke: #000000; stroke-width: 0.8"/>
      </g>
     </g>
     <g id="text_19">
      <!-- 100 -->
      <g transform="translate(216.05425 412.931771) scale(0.1 -0.1)">
       <use xlink:href="#DejaVuSans-31"/>
       <use xlink:href="#DejaVuSans-30" x="63.623047"/>
       <use xlink:href="#DejaVuSans-30" x="127.246094"/>
      </g>
     </g>
    </g>
    <g id="xtick_12">
     <g id="line2d_19">
      <g>
       <use xlink:href="#mc77dc0b9dc" x="267.705" y="398.333333" style="stroke: #000000; stroke-width: 0.8"/>
      </g>
     </g>
     <g id="text_20">
      <!-- 120 -->
      <g transform="translate(258.16125 412.931771) scale(0.1 -0.1)">
       <use xlink:href="#DejaVuSans-31"/>
       <use xlink:href="#DejaVuSans-32" x="63.623047"/>
       <use xlink:href="#DejaVuSans-30" x="127.246094"/>
      </g>
     </g>
    </g>
   </g>
   <g id="matplotlib.axis_4">
    <g id="ytick_7">
     <g id="line2d_20">
      <g>
       <use xlink:href="#m766a16582f" x="57.17" y="390.159394" style="stroke: #000000; stroke-width: 0.8"/>
      </g>
     </g>
     <g id="text_21">
      <!-- 0 -->
      <g transform="translate(43.8075 393.958613) scale(0.1 -0.1)">
       <use xlink:href="#DejaVuSans-30"/>
      </g>
     </g>
    </g>
    <g id="ytick_8">
     <g id="line2d_21">
      <g>
       <use xlink:href="#m766a16582f" x="57.17" y="360.809522" style="stroke: #000000; stroke-width: 0.8"/>
      </g>
     </g>
     <g id="text_22">
      <!-- 500 -->
      <g transform="translate(31.0825 364.608741) scale(0.1 -0.1)">
       <use xlink:href="#DejaVuSans-35"/>
       <use xlink:href="#DejaVuSans-30" x="63.623047"/>
       <use xlink:href="#DejaVuSans-30" x="127.246094"/>
      </g>
     </g>
    </g>
    <g id="ytick_9">
     <g id="line2d_22">
      <g>
       <use xlink:href="#m766a16582f" x="57.17" y="331.45965" style="stroke: #000000; stroke-width: 0.8"/>
      </g>
     </g>
     <g id="text_23">
      <!-- 1000 -->
      <g transform="translate(24.72 335.258868) scale(0.1 -0.1)">
       <use xlink:href="#DejaVuSans-31"/>
       <use xlink:href="#DejaVuSans-30" x="63.623047"/>
       <use xlink:href="#DejaVuSans-30" x="127.246094"/>
       <use xlink:href="#DejaVuSans-30" x="190.869141"/>
      </g>
     </g>
    </g>
    <g id="ytick_10">
     <g id="line2d_23">
      <g>
       <use xlink:href="#m766a16582f" x="57.17" y="302.109777" style="stroke: #000000; stroke-width: 0.8"/>
      </g>
     </g>
     <g id="text_24">
      <!-- 1500 -->
      <g transform="translate(24.72 305.908996) scale(0.1 -0.1)">
       <use xlink:href="#DejaVuSans-31"/>
       <use xlink:href="#DejaVuSans-35" x="63.623047"/>
       <use xlink:href="#DejaVuSans-30" x="127.246094"/>
       <use xlink:href="#DejaVuSans-30" x="190.869141"/>
      </g>
     </g>
    </g>
    <g id="ytick_11">
     <g id="line2d_24">
      <g>
       <use xlink:href="#m766a16582f" x="57.17" y="272.759905" style="stroke: #000000; stroke-width: 0.8"/>
      </g>
     </g>
     <g id="text_25">
      <!-- 2000 -->
      <g transform="translate(24.72 276.559124) scale(0.1 -0.1)">
       <use xlink:href="#DejaVuSans-32"/>
       <use xlink:href="#DejaVuSans-30" x="63.623047"/>
       <use xlink:href="#DejaVuSans-30" x="127.246094"/>
       <use xlink:href="#DejaVuSans-30" x="190.869141"/>
      </g>
     </g>
    </g>
    <g id="ytick_12">
     <g id="line2d_25">
      <g>
       <use xlink:href="#m766a16582f" x="57.17" y="243.410033" style="stroke: #000000; stroke-width: 0.8"/>
      </g>
     </g>
     <g id="text_26">
      <!-- 2500 -->
      <g transform="translate(24.72 247.209252) scale(0.1 -0.1)">
       <use xlink:href="#DejaVuSans-32"/>
       <use xlink:href="#DejaVuSans-35" x="63.623047"/>
       <use xlink:href="#DejaVuSans-30" x="127.246094"/>
       <use xlink:href="#DejaVuSans-30" x="190.869141"/>
      </g>
     </g>
    </g>
    <g id="text_27">
     <!-- Pixel Frequency -->
     <g transform="translate(18.640313 347.398906) rotate(-90) scale(0.1 -0.1)">
      <use xlink:href="#DejaVuSans-50"/>
      <use xlink:href="#DejaVuSans-69" x="58.052734"/>
      <use xlink:href="#DejaVuSans-78" x="85.835938"/>
      <use xlink:href="#DejaVuSans-65" x="141.890625"/>
      <use xlink:href="#DejaVuSans-6c" x="203.414062"/>
      <use xlink:href="#DejaVuSans-20" x="231.197266"/>
      <use xlink:href="#DejaVuSans-46" x="262.984375"/>
      <use xlink:href="#DejaVuSans-72" x="313.253906"/>
      <use xlink:href="#DejaVuSans-65" x="352.117188"/>
      <use xlink:href="#DejaVuSans-71" x="413.640625"/>
      <use xlink:href="#DejaVuSans-75" x="477.117188"/>
      <use xlink:href="#DejaVuSans-65" x="540.496094"/>
      <use xlink:href="#DejaVuSans-6e" x="602.019531"/>
      <use xlink:href="#DejaVuSans-63" x="665.398438"/>
      <use xlink:href="#DejaVuSans-79" x="720.378906"/>
     </g>
    </g>
   </g>
   <g id="line2d_26">
    <path d="M 15.063 390.159394 
L 151.91075 390.159394 
L 158.2268 389.572396 
L 160.33215 389.161498 
L 162.4375 387.341806 
L 164.54285 387.048307 
L 166.6482 379.123842 
L 168.75355 346.838983 
L 170.8589 301.111882 
L 172.96425 295.770205 
L 175.0696 226.680606 
L 177.17495 302.109777 
L 179.2803 293.422215 
L 181.38565 292.36562 
L 183.491 323.182986 
L 185.59635 345.664988 
L 187.7017 302.872874 
L 189.80705 317.782609 
L 191.9124 325.413576 
L 194.01775 330.403054 
L 196.1231 337.094825 
L 198.22845 345.958486 
L 200.3338 327.174568 
L 202.43915 290.428528 
L 204.5445 304.692566 
L 206.64985 344.608392 
L 208.7552 344.608392 
L 210.86055 335.509932 
L 215.07125 342.9648 
L 217.1766 340.61681 
L 219.28195 342.7887 
L 221.3873 340.440711 
L 223.49265 330.168255 
L 225.598 337.094825 
L 227.70335 345.606288 
L 229.8087 350.419667 
L 231.91405 351.828461 
L 234.0194 355.878743 
L 236.12475 357.815835 
L 238.2301 357.815835 
L 242.4408 358.637631 
L 244.54615 362.394415 
L 246.6515 364.918504 
L 248.75685 365.505501 
L 250.8622 361.983517 
L 252.96755 362.687914 
L 255.0729 364.977204 
L 257.17825 362.981412 
L 259.2836 363.392311 
L 263.4943 360.516023 
L 265.59965 366.268598 
L 269.81035 371.845074 
L 271.9157 371.375476 
L 278.23175 374.780061 
L 280.3371 375.190959 
L 282.44245 377.949847 
L 284.5478 376.188855 
L 286.65315 377.069351 
L 288.7585 378.947743 
L 289 378.961209 
L 289 378.961209 
" clip-path="url(#p0a6fa5445f)" style="fill: none; stroke: #008000; stroke-width: 1.5; stroke-linecap: square"/>
   </g>
   <g id="patch_8">
    <path d="M 57.17 398.333333 
L 57.17 218.506667 
" style="fill: none; stroke: #000000; stroke-width: 0.8; stroke-linejoin: miter; stroke-linecap: square"/>
   </g>
   <g id="patch_9">
    <path d="M 267.705 398.333333 
L 267.705 218.506667 
" style="fill: none; stroke: #000000; stroke-width: 0.8; stroke-linejoin: miter; stroke-linecap: square"/>
   </g>
   <g id="patch_10">
    <path d="M 57.17 398.333333 
L 267.705 398.333333 
" style="fill: none; stroke: #000000; stroke-width: 0.8; stroke-linejoin: miter; stroke-linecap: square"/>
   </g>
   <g id="patch_11">
    <path d="M 57.17 218.506667 
L 267.705 218.506667 
" style="fill: none; stroke: #000000; stroke-width: 0.8; stroke-linejoin: miter; stroke-linecap: square"/>
   </g>
   <g id="text_28">
    <!-- Green Channel  -->
    <g transform="translate(174.478125 232.506667) scale(0.12 -0.12)">
     <defs>
      <path id="DejaVuSans-47" d="M 3809 666 
L 3809 1919 
L 2778 1919 
L 2778 2438 
L 4434 2438 
L 4434 434 
Q 4069 175 3628 42 
Q 3188 -91 2688 -91 
Q 1594 -91 976 548 
Q 359 1188 359 2328 
Q 359 3472 976 4111 
Q 1594 4750 2688 4750 
Q 3144 4750 3555 4637 
Q 3966 4525 4313 4306 
L 4313 3634 
Q 3963 3931 3569 4081 
Q 3175 4231 2741 4231 
Q 1884 4231 1454 3753 
Q 1025 3275 1025 2328 
Q 1025 1384 1454 906 
Q 1884 428 2741 428 
Q 3075 428 3337 486 
Q 3600 544 3809 666 
z
" transform="scale(0.015625)"/>
     </defs>
     <use xlink:href="#DejaVuSans-47"/>
     <use xlink:href="#DejaVuSans-72" x="77.490234"/>
     <use xlink:href="#DejaVuSans-65" x="116.353516"/>
     <use xlink:href="#DejaVuSans-65" x="177.876953"/>
     <use xlink:href="#DejaVuSans-6e" x="239.400391"/>
     <use xlink:href="#DejaVuSans-20" x="302.779297"/>
     <use xlink:href="#DejaVuSans-43" x="334.566406"/>
     <use xlink:href="#DejaVuSans-68" x="404.390625"/>
     <use xlink:href="#DejaVuSans-61" x="467.769531"/>
     <use xlink:href="#DejaVuSans-6e" x="529.048828"/>
     <use xlink:href="#DejaVuSans-6e" x="592.427734"/>
     <use xlink:href="#DejaVuSans-65" x="655.806641"/>
     <use xlink:href="#DejaVuSans-6c" x="717.330078"/>
     <use xlink:href="#DejaVuSans-20" x="745.113281"/>
    </g>
   </g>
  </g>
  <g id="axes_3">
   <g id="patch_12">
    <path d="M 57.17 606.04 
L 267.705 606.04 
L 267.705 426.213333 
L 57.17 426.213333 
z
" style="fill: #ffffff"/>
   </g>
   <g id="PolyCollection_3">
    <path d="M 15.063 597.866061 
L 15.063 597.866061 
L 17.16835 597.866061 
L 19.2737 597.866061 
L 21.37905 597.866061 
L 23.4844 597.866061 
L 25.58975 597.866061 
L 27.6951 597.866061 
L 29.80045 597.866061 
L 31.9058 597.866061 
L 34.01115 597.866061 
L 36.1165 597.866061 
L 38.22185 597.866061 
L 40.3272 597.866061 
L 42.43255 597.866061 
L 44.5379 597.866061 
L 46.64325 597.866061 
L 48.7486 597.866061 
L 50.85395 597.866061 
L 52.9593 597.866061 
L 55.06465 597.866061 
L 57.17 597.866061 
L 59.27535 597.866061 
L 61.3807 597.866061 
L 63.48605 597.866061 
L 65.5914 597.866061 
L 67.69675 597.866061 
L 69.8021 597.866061 
L 71.90745 597.866061 
L 74.0128 597.866061 
L 76.11815 597.866061 
L 78.2235 597.866061 
L 80.32885 597.866061 
L 82.4342 597.866061 
L 84.53955 597.835871 
L 86.6449 597.866061 
L 88.75025 597.745301 
L 90.8556 594.303642 
L 92.96095 575.193379 
L 95.0663 526.829018 
L 97.17165 434.387273 
L 99.277 459.928003 
L 101.38235 509.047114 
L 103.4877 508.684834 
L 105.59305 509.560344 
L 107.6984 531.146186 
L 109.80375 558.105846 
L 111.9091 568.128922 
L 114.01445 568.642152 
L 116.1198 576.008509 
L 118.22515 580.174727 
L 120.3305 582.982396 
L 122.43585 582.348407 
L 124.5412 581.020047 
L 126.64655 576.461359 
L 128.7519 570.121461 
L 130.85725 567.766642 
L 132.9626 564.506123 
L 135.06795 562.272064 
L 137.1733 563.811754 
L 139.27865 565.472203 
L 141.384 563.419284 
L 143.48935 570.966781 
L 145.5947 576.853829 
L 147.70005 579.782257 
L 149.8054 579.903017 
L 151.91075 580.899287 
L 154.0161 584.189996 
L 156.12145 584.340946 
L 158.2268 583.072966 
L 160.33215 584.703226 
L 162.4375 584.612656 
L 164.54285 584.763606 
L 166.6482 585.608925 
L 168.75355 587.088235 
L 170.8589 586.846715 
L 172.96425 588.869444 
L 175.0696 589.805334 
L 177.17495 589.292104 
L 179.2803 590.288373 
L 181.38565 590.560083 
L 183.491 590.650653 
L 185.59635 591.858253 
L 187.7017 591.375213 
L 189.80705 592.311103 
L 191.9124 592.613003 
L 194.01775 593.065852 
L 196.1231 593.397942 
L 198.22845 593.850792 
L 200.3338 594.364022 
L 202.43915 595.058392 
L 204.5445 595.239532 
L 206.64985 595.058392 
L 208.7552 594.424402 
L 210.86055 595.420672 
L 212.9659 596.205611 
L 215.07125 595.994281 
L 217.1766 595.782951 
L 219.28195 595.873521 
L 221.3873 596.235801 
L 223.49265 596.356561 
L 225.598 596.447131 
L 227.70335 596.537701 
L 229.8087 596.779221 
L 231.91405 596.718841 
L 234.0194 596.537701 
L 236.12475 597.141501 
L 238.2301 596.930171 
L 240.33545 597.232071 
L 242.4408 596.990551 
L 244.54615 597.322641 
L 246.6515 596.839601 
L 248.75685 597.171691 
L 250.8622 597.050931 
L 252.96755 597.262261 
L 255.0729 597.292451 
L 257.17825 597.503781 
L 259.2836 597.383021 
L 261.38895 597.654731 
L 263.4943 597.413211 
L 265.59965 597.654731 
L 267.705 597.503781 
L 269.81035 597.654731 
L 271.9157 597.533971 
L 274.02105 597.775491 
L 276.1264 597.443401 
L 278.23175 597.594351 
L 280.3371 597.775491 
L 282.44245 597.624541 
L 284.5478 597.715111 
L 286.65315 597.624541 
L 288.7585 597.775491 
L 290.86385 597.715111 
L 292.9692 597.805681 
L 295.07455 597.745301 
L 297.1799 597.684921 
L 299.28525 597.805681 
L 301.3906 597.805681 
L 303.49595 597.866061 
L 305.6013 597.805681 
L 307.70665 597.745301 
L 309.812 597.835871 
L 311.91735 597.805681 
L 314.0227 597.835871 
L 316.12805 597.775491 
L 318.2334 597.866061 
L 320.33875 597.835871 
L 322.4441 597.866061 
L 324.54945 597.805681 
L 326.6548 597.835871 
L 328.76015 597.866061 
L 330.8655 597.866061 
L 332.97085 597.866061 
L 335.0762 597.866061 
L 337.18155 597.866061 
L 339.2869 597.866061 
L 341.39225 597.835871 
L 343.4976 597.866061 
L 345.60295 597.866061 
L 347.7083 597.866061 
L 349.81365 597.866061 
L 351.919 597.866061 
L 354.02435 597.866061 
L 356.1297 597.866061 
L 358.23505 597.866061 
L 360.3404 597.866061 
L 362.44575 597.866061 
L 364.5511 597.866061 
L 366.65645 597.866061 
L 368.7618 597.866061 
L 370.86715 597.866061 
L 372.9725 597.866061 
L 375.07785 597.866061 
L 377.1832 597.866061 
L 379.28855 597.866061 
L 381.3939 597.866061 
L 383.49925 597.866061 
L 385.6046 597.866061 
L 387.70995 597.866061 
L 389.8153 597.866061 
L 391.92065 597.866061 
L 394.026 597.866061 
L 396.13135 597.866061 
L 398.2367 597.866061 
L 400.34205 597.866061 
L 402.4474 597.866061 
L 404.55275 597.866061 
L 406.6581 597.866061 
L 408.76345 597.866061 
L 410.8688 597.866061 
L 412.97415 597.866061 
L 415.0795 597.866061 
L 417.18485 597.866061 
L 419.2902 597.866061 
L 421.39555 597.866061 
L 423.5009 597.866061 
L 425.60625 597.866061 
L 427.7116 597.866061 
L 429.81695 597.866061 
L 431.9223 597.866061 
L 434.02765 597.866061 
L 436.133 597.866061 
L 438.23835 597.866061 
L 440.3437 597.866061 
L 442.44905 597.866061 
L 444.5544 597.866061 
L 446.65975 597.866061 
L 448.7651 597.866061 
L 450.87045 597.866061 
L 452.9758 597.866061 
L 455.08115 597.866061 
L 457.1865 597.866061 
L 459.29185 597.866061 
L 461.3972 597.866061 
L 463.50255 597.866061 
L 465.6079 597.866061 
L 467.71325 597.866061 
L 469.8186 597.866061 
L 471.92395 597.866061 
L 474.0293 597.866061 
L 476.13465 597.866061 
L 478.24 597.866061 
L 480.34535 597.866061 
L 482.4507 597.866061 
L 484.55605 597.866061 
L 486.6614 597.866061 
L 488.76675 597.866061 
L 490.8721 597.866061 
L 492.97745 597.866061 
L 495.0828 597.866061 
L 497.18815 597.866061 
L 499.2935 597.866061 
L 501.39885 597.866061 
L 503.5042 597.866061 
L 505.60955 597.866061 
L 507.7149 597.866061 
L 509.82025 597.866061 
L 511.9256 597.866061 
L 514.03095 597.866061 
L 516.1363 597.866061 
L 518.24165 597.866061 
L 520.347 597.866061 
L 522.45235 597.866061 
L 524.5577 597.866061 
L 526.66305 597.866061 
L 528.7684 597.866061 
L 530.87375 597.866061 
L 532.9791 597.866061 
L 535.08445 597.866061 
L 537.1898 597.866061 
L 539.29515 597.866061 
L 541.4005 597.866061 
L 543.50585 597.866061 
L 545.6112 597.866061 
L 547.71655 597.866061 
L 549.8219 597.866061 
L 551.92725 597.866061 
L 551.92725 597.866061 
L 551.92725 597.866061 
L 549.8219 597.866061 
L 547.71655 597.866061 
L 545.6112 597.866061 
L 543.50585 597.866061 
L 541.4005 597.866061 
L 539.29515 597.866061 
L 537.1898 597.866061 
L 535.08445 597.866061 
L 532.9791 597.866061 
L 530.87375 597.866061 
L 528.7684 597.866061 
L 526.66305 597.866061 
L 524.5577 597.866061 
L 522.45235 597.866061 
L 520.347 597.866061 
L 518.24165 597.866061 
L 516.1363 597.866061 
L 514.03095 597.866061 
L 511.9256 597.866061 
L 509.82025 597.866061 
L 507.7149 597.866061 
L 505.60955 597.866061 
L 503.5042 597.866061 
L 501.39885 597.866061 
L 499.2935 597.866061 
L 497.18815 597.866061 
L 495.0828 597.866061 
L 492.97745 597.866061 
L 490.8721 597.866061 
L 488.76675 597.866061 
L 486.6614 597.866061 
L 484.55605 597.866061 
L 482.4507 597.866061 
L 480.34535 597.866061 
L 478.24 597.866061 
L 476.13465 597.866061 
L 474.0293 597.866061 
L 471.92395 597.866061 
L 469.8186 597.866061 
L 467.71325 597.866061 
L 465.6079 597.866061 
L 463.50255 597.866061 
L 461.3972 597.866061 
L 459.29185 597.866061 
L 457.1865 597.866061 
L 455.08115 597.866061 
L 452.9758 597.866061 
L 450.87045 597.866061 
L 448.7651 597.866061 
L 446.65975 597.866061 
L 444.5544 597.866061 
L 442.44905 597.866061 
L 440.3437 597.866061 
L 438.23835 597.866061 
L 436.133 597.866061 
L 434.02765 597.866061 
L 431.9223 597.866061 
L 429.81695 597.866061 
L 427.7116 597.866061 
L 425.60625 597.866061 
L 423.5009 597.866061 
L 421.39555 597.866061 
L 419.2902 597.866061 
L 417.18485 597.866061 
L 415.0795 597.866061 
L 412.97415 597.866061 
L 410.8688 597.866061 
L 408.76345 597.866061 
L 406.6581 597.866061 
L 404.55275 597.866061 
L 402.4474 597.866061 
L 400.34205 597.866061 
L 398.2367 597.866061 
L 396.13135 597.866061 
L 394.026 597.866061 
L 391.92065 597.866061 
L 389.8153 597.866061 
L 387.70995 597.866061 
L 385.6046 597.866061 
L 383.49925 597.866061 
L 381.3939 597.866061 
L 379.28855 597.866061 
L 377.1832 597.866061 
L 375.07785 597.866061 
L 372.9725 597.866061 
L 370.86715 597.866061 
L 368.7618 597.866061 
L 366.65645 597.866061 
L 364.5511 597.866061 
L 362.44575 597.866061 
L 360.3404 597.866061 
L 358.23505 597.866061 
L 356.1297 597.866061 
L 354.02435 597.866061 
L 351.919 597.866061 
L 349.81365 597.866061 
L 347.7083 597.866061 
L 345.60295 597.866061 
L 343.4976 597.866061 
L 341.39225 597.866061 
L 339.2869 597.866061 
L 337.18155 597.866061 
L 335.0762 597.866061 
L 332.97085 597.866061 
L 330.8655 597.866061 
L 328.76015 597.866061 
L 326.6548 597.866061 
L 324.54945 597.866061 
L 322.4441 597.866061 
L 320.33875 597.866061 
L 318.2334 597.866061 
L 316.12805 597.866061 
L 314.0227 597.866061 
L 311.91735 597.866061 
L 309.812 597.866061 
L 307.70665 597.866061 
L 305.6013 597.866061 
L 303.49595 597.866061 
L 301.3906 597.866061 
L 299.28525 597.866061 
L 297.1799 597.866061 
L 295.07455 597.866061 
L 292.9692 597.866061 
L 290.86385 597.866061 
L 288.7585 597.866061 
L 286.65315 597.866061 
L 284.5478 597.866061 
L 282.44245 597.866061 
L 280.3371 597.866061 
L 278.23175 597.866061 
L 276.1264 597.866061 
L 274.02105 597.866061 
L 271.9157 597.866061 
L 269.81035 597.866061 
L 267.705 597.866061 
L 265.59965 597.866061 
L 263.4943 597.866061 
L 261.38895 597.866061 
L 259.2836 597.866061 
L 257.17825 597.866061 
L 255.0729 597.866061 
L 252.96755 597.866061 
L 250.8622 597.866061 
L 248.75685 597.866061 
L 246.6515 597.866061 
L 244.54615 597.866061 
L 242.4408 597.866061 
L 240.33545 597.866061 
L 238.2301 597.866061 
L 236.12475 597.866061 
L 234.0194 597.866061 
L 231.91405 597.866061 
L 229.8087 597.866061 
L 227.70335 597.866061 
L 225.598 597.866061 
L 223.49265 597.866061 
L 221.3873 597.866061 
L 219.28195 597.866061 
L 217.1766 597.866061 
L 215.07125 597.866061 
L 212.9659 597.866061 
L 210.86055 597.866061 
L 208.7552 597.866061 
L 206.64985 597.866061 
L 204.5445 597.866061 
L 202.43915 597.866061 
L 200.3338 597.866061 
L 198.22845 597.866061 
L 196.1231 597.866061 
L 194.01775 597.866061 
L 191.9124 597.866061 
L 189.80705 597.866061 
L 187.7017 597.866061 
L 185.59635 597.866061 
L 183.491 597.866061 
L 181.38565 597.866061 
L 179.2803 597.866061 
L 177.17495 597.866061 
L 175.0696 597.866061 
L 172.96425 597.866061 
L 170.8589 597.866061 
L 168.75355 597.866061 
L 166.6482 597.866061 
L 164.54285 597.866061 
L 162.4375 597.866061 
L 160.33215 597.866061 
L 158.2268 597.866061 
L 156.12145 597.866061 
L 154.0161 597.866061 
L 151.91075 597.866061 
L 149.8054 597.866061 
L 147.70005 597.866061 
L 145.5947 597.866061 
L 143.48935 597.866061 
L 141.384 597.866061 
L 139.27865 597.866061 
L 137.1733 597.866061 
L 135.06795 597.866061 
L 132.9626 597.866061 
L 130.85725 597.866061 
L 128.7519 597.866061 
L 126.64655 597.866061 
L 124.5412 597.866061 
L 122.43585 597.866061 
L 120.3305 597.866061 
L 118.22515 597.866061 
L 116.1198 597.866061 
L 114.01445 597.866061 
L 111.9091 597.866061 
L 109.80375 597.866061 
L 107.6984 597.866061 
L 105.59305 597.866061 
L 103.4877 597.866061 
L 101.38235 597.866061 
L 99.277 597.866061 
L 97.17165 597.866061 
L 95.0663 597.866061 
L 92.96095 597.866061 
L 90.8556 597.866061 
L 88.75025 597.866061 
L 86.6449 597.866061 
L 84.53955 597.866061 
L 82.4342 597.866061 
L 80.32885 597.866061 
L 78.2235 597.866061 
L 76.11815 597.866061 
L 74.0128 597.866061 
L 71.90745 597.866061 
L 69.8021 597.866061 
L 67.69675 597.866061 
L 65.5914 597.866061 
L 63.48605 597.866061 
L 61.3807 597.866061 
L 59.27535 597.866061 
L 57.17 597.866061 
L 55.06465 597.866061 
L 52.9593 597.866061 
L 50.85395 597.866061 
L 48.7486 597.866061 
L 46.64325 597.866061 
L 44.5379 597.866061 
L 42.43255 597.866061 
L 40.3272 597.866061 
L 38.22185 597.866061 
L 36.1165 597.866061 
L 34.01115 597.866061 
L 31.9058 597.866061 
L 29.80045 597.866061 
L 27.6951 597.866061 
L 25.58975 597.866061 
L 23.4844 597.866061 
L 21.37905 597.866061 
L 19.2737 597.866061 
L 17.16835 597.866061 
L 15.063 597.866061 
z
" clip-path="url(#pc297e681ec)" style="fill: #0000ff; fill-opacity: 0.4; stroke: #0000ff; stroke-opacity: 0.4"/>
   </g>
   <g id="matplotlib.axis_5">
    <g id="xtick_13">
     <g id="line2d_27">
      <g>
       <use xlink:href="#mc77dc0b9dc" x="57.17" y="606.04" style="stroke: #000000; stroke-width: 0.8"/>
      </g>
     </g>
     <g id="text_29">
      <!-- 20 -->
      <g transform="translate(50.8075 620.638438) scale(0.1 -0.1)">
       <use xlink:href="#DejaVuSans-32"/>
       <use xlink:href="#DejaVuSans-30" x="63.623047"/>
      </g>
     </g>
    </g>
    <g id="xtick_14">
     <g id="line2d_28">
      <g>
       <use xlink:href="#mc77dc0b9dc" x="99.277" y="606.04" style="stroke: #000000; stroke-width: 0.8"/>
      </g>
     </g>
     <g id="text_30">
      <!-- 40 -->
      <g transform="translate(92.9145 620.638438) scale(0.1 -0.1)">
       <use xlink:href="#DejaVuSans-34"/>
       <use xlink:href="#DejaVuSans-30" x="63.623047"/>
      </g>
     </g>
    </g>
    <g id="xtick_15">
     <g id="line2d_29">
      <g>
       <use xlink:href="#mc77dc0b9dc" x="141.384" y="606.04" style="stroke: #000000; stroke-width: 0.8"/>
      </g>
     </g>
     <g id="text_31">
      <!-- 60 -->
      <g transform="translate(135.0215 620.638438) scale(0.1 -0.1)">
       <use xlink:href="#DejaVuSans-36"/>
       <use xlink:href="#DejaVuSans-30" x="63.623047"/>
      </g>
     </g>
    </g>
    <g id="xtick_16">
     <g id="line2d_30">
      <g>
       <use xlink:href="#mc77dc0b9dc" x="183.491" y="606.04" style="stroke: #000000; stroke-width: 0.8"/>
      </g>
     </g>
     <g id="text_32">
      <!-- 80 -->
      <g transform="translate(177.1285 620.638438) scale(0.1 -0.1)">
       <use xlink:href="#DejaVuSans-38"/>
       <use xlink:href="#DejaVuSans-30" x="63.623047"/>
      </g>
     </g>
    </g>
    <g id="xtick_17">
     <g id="line2d_31">
      <g>
       <use xlink:href="#mc77dc0b9dc" x="225.598" y="606.04" style="stroke: #000000; stroke-width: 0.8"/>
      </g>
     </g>
     <g id="text_33">
      <!-- 100 -->
      <g transform="translate(216.05425 620.638438) scale(0.1 -0.1)">
       <use xlink:href="#DejaVuSans-31"/>
       <use xlink:href="#DejaVuSans-30" x="63.623047"/>
       <use xlink:href="#DejaVuSans-30" x="127.246094"/>
      </g>
     </g>
    </g>
    <g id="xtick_18">
     <g id="line2d_32">
      <g>
       <use xlink:href="#mc77dc0b9dc" x="267.705" y="606.04" style="stroke: #000000; stroke-width: 0.8"/>
      </g>
     </g>
     <g id="text_34">
      <!-- 120 -->
      <g transform="translate(258.16125 620.638438) scale(0.1 -0.1)">
       <use xlink:href="#DejaVuSans-31"/>
       <use xlink:href="#DejaVuSans-32" x="63.623047"/>
       <use xlink:href="#DejaVuSans-30" x="127.246094"/>
      </g>
     </g>
    </g>
    <g id="text_35">
     <!-- Pixel Intensity -->
     <g transform="translate(127.525781 634.316563) scale(0.1 -0.1)">
      <defs>
       <path id="DejaVuSans-49" d="M 628 4666 
L 1259 4666 
L 1259 0 
L 628 0 
L 628 4666 
z
" transform="scale(0.015625)"/>
       <path id="DejaVuSans-74" d="M 1172 4494 
L 1172 3500 
L 2356 3500 
L 2356 3053 
L 1172 3053 
L 1172 1153 
Q 1172 725 1289 603 
Q 1406 481 1766 481 
L 2356 481 
L 2356 0 
L 1766 0 
Q 1100 0 847 248 
Q 594 497 594 1153 
L 594 3053 
L 172 3053 
L 172 3500 
L 594 3500 
L 594 4494 
L 1172 4494 
z
" transform="scale(0.015625)"/>
       <path id="DejaVuSans-73" d="M 2834 3397 
L 2834 2853 
Q 2591 2978 2328 3040 
Q 2066 3103 1784 3103 
Q 1356 3103 1142 2972 
Q 928 2841 928 2578 
Q 928 2378 1081 2264 
Q 1234 2150 1697 2047 
L 1894 2003 
Q 2506 1872 2764 1633 
Q 3022 1394 3022 966 
Q 3022 478 2636 193 
Q 2250 -91 1575 -91 
Q 1294 -91 989 -36 
Q 684 19 347 128 
L 347 722 
Q 666 556 975 473 
Q 1284 391 1588 391 
Q 1994 391 2212 530 
Q 2431 669 2431 922 
Q 2431 1156 2273 1281 
Q 2116 1406 1581 1522 
L 1381 1569 
Q 847 1681 609 1914 
Q 372 2147 372 2553 
Q 372 3047 722 3315 
Q 1072 3584 1716 3584 
Q 2034 3584 2315 3537 
Q 2597 3491 2834 3397 
z
" transform="scale(0.015625)"/>
      </defs>
      <use xlink:href="#DejaVuSans-50"/>
      <use xlink:href="#DejaVuSans-69" x="58.052734"/>
      <use xlink:href="#DejaVuSans-78" x="85.835938"/>
      <use xlink:href="#DejaVuSans-65" x="141.890625"/>
      <use xlink:href="#DejaVuSans-6c" x="203.414062"/>
      <use xlink:href="#DejaVuSans-20" x="231.197266"/>
      <use xlink:href="#DejaVuSans-49" x="262.984375"/>
      <use xlink:href="#DejaVuSans-6e" x="292.476562"/>
      <use xlink:href="#DejaVuSans-74" x="355.855469"/>
      <use xlink:href="#DejaVuSans-65" x="395.064453"/>
      <use xlink:href="#DejaVuSans-6e" x="456.587891"/>
      <use xlink:href="#DejaVuSans-73" x="519.966797"/>
      <use xlink:href="#DejaVuSans-69" x="572.066406"/>
      <use xlink:href="#DejaVuSans-74" x="599.849609"/>
      <use xlink:href="#DejaVuSans-79" x="639.058594"/>
     </g>
    </g>
   </g>
   <g id="matplotlib.axis_6">
    <g id="ytick_13">
     <g id="line2d_33">
      <g>
       <use xlink:href="#m766a16582f" x="57.17" y="597.866061" style="stroke: #000000; stroke-width: 0.8"/>
      </g>
     </g>
     <g id="text_36">
      <!-- 0 -->
      <g transform="translate(43.8075 601.665279) scale(0.1 -0.1)">
       <use xlink:href="#DejaVuSans-30"/>
      </g>
     </g>
    </g>
    <g id="ytick_14">
     <g id="line2d_34">
      <g>
       <use xlink:href="#m766a16582f" x="57.17" y="567.676072" style="stroke: #000000; stroke-width: 0.8"/>
      </g>
     </g>
     <g id="text_37">
      <!-- 1000 -->
      <g transform="translate(24.72 571.475291) scale(0.1 -0.1)">
       <use xlink:href="#DejaVuSans-31"/>
       <use xlink:href="#DejaVuSans-30" x="63.623047"/>
       <use xlink:href="#DejaVuSans-30" x="127.246094"/>
       <use xlink:href="#DejaVuSans-30" x="190.869141"/>
      </g>
     </g>
    </g>
    <g id="ytick_15">
     <g id="line2d_35">
      <g>
       <use xlink:href="#m766a16582f" x="57.17" y="537.486084" style="stroke: #000000; stroke-width: 0.8"/>
      </g>
     </g>
     <g id="text_38">
      <!-- 2000 -->
      <g transform="translate(24.72 541.285302) scale(0.1 -0.1)">
       <use xlink:href="#DejaVuSans-32"/>
       <use xlink:href="#DejaVuSans-30" x="63.623047"/>
       <use xlink:href="#DejaVuSans-30" x="127.246094"/>
       <use xlink:href="#DejaVuSans-30" x="190.869141"/>
      </g>
     </g>
    </g>
    <g id="ytick_16">
     <g id="line2d_36">
      <g>
       <use xlink:href="#m766a16582f" x="57.17" y="507.296095" style="stroke: #000000; stroke-width: 0.8"/>
      </g>
     </g>
     <g id="text_39">
      <!-- 3000 -->
      <g transform="translate(24.72 511.095314) scale(0.1 -0.1)">
       <defs>
        <path id="DejaVuSans-33" d="M 2597 2516 
Q 3050 2419 3304 2112 
Q 3559 1806 3559 1356 
Q 3559 666 3084 287 
Q 2609 -91 1734 -91 
Q 1441 -91 1130 -33 
Q 819 25 488 141 
L 488 750 
Q 750 597 1062 519 
Q 1375 441 1716 441 
Q 2309 441 2620 675 
Q 2931 909 2931 1356 
Q 2931 1769 2642 2001 
Q 2353 2234 1838 2234 
L 1294 2234 
L 1294 2753 
L 1863 2753 
Q 2328 2753 2575 2939 
Q 2822 3125 2822 3475 
Q 2822 3834 2567 4026 
Q 2313 4219 1838 4219 
Q 1578 4219 1281 4162 
Q 984 4106 628 3988 
L 628 4550 
Q 988 4650 1302 4700 
Q 1616 4750 1894 4750 
Q 2613 4750 3031 4423 
Q 3450 4097 3450 3541 
Q 3450 3153 3228 2886 
Q 3006 2619 2597 2516 
z
" transform="scale(0.015625)"/>
       </defs>
       <use xlink:href="#DejaVuSans-33"/>
       <use xlink:href="#DejaVuSans-30" x="63.623047"/>
       <use xlink:href="#DejaVuSans-30" x="127.246094"/>
       <use xlink:href="#DejaVuSans-30" x="190.869141"/>
      </g>
     </g>
    </g>
    <g id="ytick_17">
     <g id="line2d_37">
      <g>
       <use xlink:href="#m766a16582f" x="57.17" y="477.106106" style="stroke: #000000; stroke-width: 0.8"/>
      </g>
     </g>
     <g id="text_40">
      <!-- 4000 -->
      <g transform="translate(24.72 480.905325) scale(0.1 -0.1)">
       <use xlink:href="#DejaVuSans-34"/>
       <use xlink:href="#DejaVuSans-30" x="63.623047"/>
       <use xlink:href="#DejaVuSans-30" x="127.246094"/>
       <use xlink:href="#DejaVuSans-30" x="190.869141"/>
      </g>
     </g>
    </g>
    <g id="ytick_18">
     <g id="line2d_38">
      <g>
       <use xlink:href="#m766a16582f" x="57.17" y="446.916118" style="stroke: #000000; stroke-width: 0.8"/>
      </g>
     </g>
     <g id="text_41">
      <!-- 5000 -->
      <g transform="translate(24.72 450.715337) scale(0.1 -0.1)">
       <use xlink:href="#DejaVuSans-35"/>
       <use xlink:href="#DejaVuSans-30" x="63.623047"/>
       <use xlink:href="#DejaVuSans-30" x="127.246094"/>
       <use xlink:href="#DejaVuSans-30" x="190.869141"/>
      </g>
     </g>
    </g>
    <g id="text_42">
     <!-- Pixel Frequency -->
     <g transform="translate(18.640313 555.105573) rotate(-90) scale(0.1 -0.1)">
      <use xlink:href="#DejaVuSans-50"/>
      <use xlink:href="#DejaVuSans-69" x="58.052734"/>
      <use xlink:href="#DejaVuSans-78" x="85.835938"/>
      <use xlink:href="#DejaVuSans-65" x="141.890625"/>
      <use xlink:href="#DejaVuSans-6c" x="203.414062"/>
      <use xlink:href="#DejaVuSans-20" x="231.197266"/>
      <use xlink:href="#DejaVuSans-46" x="262.984375"/>
      <use xlink:href="#DejaVuSans-72" x="313.253906"/>
      <use xlink:href="#DejaVuSans-65" x="352.117188"/>
      <use xlink:href="#DejaVuSans-71" x="413.640625"/>
      <use xlink:href="#DejaVuSans-75" x="477.117188"/>
      <use xlink:href="#DejaVuSans-65" x="540.496094"/>
      <use xlink:href="#DejaVuSans-6e" x="602.019531"/>
      <use xlink:href="#DejaVuSans-63" x="665.398438"/>
      <use xlink:href="#DejaVuSans-79" x="720.378906"/>
     </g>
    </g>
   </g>
   <g id="line2d_39">
    <path d="M 15.063 597.866061 
L 86.6449 597.866061 
L 88.75025 597.745301 
L 90.8556 594.303642 
L 92.96095 575.193379 
L 95.0663 526.829018 
L 97.17165 434.387273 
L 99.277 459.928003 
L 101.38235 509.047114 
L 103.4877 508.684834 
L 105.59305 509.560344 
L 107.6984 531.146186 
L 109.80375 558.105846 
L 111.9091 568.128922 
L 114.01445 568.642152 
L 116.1198 576.008509 
L 118.22515 580.174727 
L 120.3305 582.982396 
L 122.43585 582.348407 
L 124.5412 581.020047 
L 126.64655 576.461359 
L 128.7519 570.121461 
L 130.85725 567.766642 
L 132.9626 564.506123 
L 135.06795 562.272064 
L 139.27865 565.472203 
L 141.384 563.419284 
L 143.48935 570.966781 
L 145.5947 576.853829 
L 147.70005 579.782257 
L 149.8054 579.903017 
L 151.91075 580.899287 
L 154.0161 584.189996 
L 156.12145 584.340946 
L 158.2268 583.072966 
L 160.33215 584.703226 
L 162.4375 584.612656 
L 164.54285 584.763606 
L 166.6482 585.608925 
L 168.75355 587.088235 
L 170.8589 586.846715 
L 172.96425 588.869444 
L 175.0696 589.805334 
L 177.17495 589.292104 
L 179.2803 590.288373 
L 181.38565 590.560083 
L 183.491 590.650653 
L 185.59635 591.858253 
L 187.7017 591.375213 
L 189.80705 592.311103 
L 191.9124 592.613003 
L 194.01775 593.065852 
L 196.1231 593.397942 
L 200.3338 594.364022 
L 202.43915 595.058392 
L 204.5445 595.239532 
L 206.64985 595.058392 
L 208.7552 594.424402 
L 210.86055 595.420672 
L 212.9659 596.205611 
L 217.1766 595.782951 
L 219.28195 595.873521 
L 221.3873 596.235801 
L 229.8087 596.779221 
L 231.91405 596.718841 
L 234.0194 596.537701 
L 236.12475 597.141501 
L 238.2301 596.930171 
L 240.33545 597.232071 
L 242.4408 596.990551 
L 244.54615 597.322641 
L 246.6515 596.839601 
L 248.75685 597.171691 
L 250.8622 597.050931 
L 252.96755 597.262261 
L 255.0729 597.292451 
L 257.17825 597.503781 
L 259.2836 597.383021 
L 261.38895 597.654731 
L 263.4943 597.413211 
L 265.59965 597.654731 
L 267.705 597.503781 
L 269.81035 597.654731 
L 271.9157 597.533971 
L 274.02105 597.775491 
L 276.1264 597.443401 
L 280.3371 597.775491 
L 282.44245 597.624541 
L 284.5478 597.715111 
L 286.65315 597.624541 
L 289 597.768565 
L 289 597.768565 
" clip-path="url(#pc297e681ec)" style="fill: none; stroke: #0000ff; stroke-width: 1.5; stroke-linecap: square"/>
   </g>
   <g id="patch_13">
    <path d="M 57.17 606.04 
L 57.17 426.213333 
" style="fill: none; stroke: #000000; stroke-width: 0.8; stroke-linejoin: miter; stroke-linecap: square"/>
   </g>
   <g id="patch_14">
    <path d="M 267.705 606.04 
L 267.705 426.213333 
" style="fill: none; stroke: #000000; stroke-width: 0.8; stroke-linejoin: miter; stroke-linecap: square"/>
   </g>
   <g id="patch_15">
    <path d="M 57.17 606.04 
L 267.705 606.04 
" style="fill: none; stroke: #000000; stroke-width: 0.8; stroke-linejoin: miter; stroke-linecap: square"/>
   </g>
   <g id="patch_16">
    <path d="M 57.17 426.213333 
L 267.705 426.213333 
" style="fill: none; stroke: #000000; stroke-width: 0.8; stroke-linejoin: miter; stroke-linecap: square"/>
   </g>
   <g id="text_43">
    <!-- Blue Channel  -->
    <g transform="translate(184.25625 440.213333) scale(0.12 -0.12)">
     <defs>
      <path id="DejaVuSans-42" d="M 1259 2228 
L 1259 519 
L 2272 519 
Q 2781 519 3026 730 
Q 3272 941 3272 1375 
Q 3272 1813 3026 2020 
Q 2781 2228 2272 2228 
L 1259 2228 
z
M 1259 4147 
L 1259 2741 
L 2194 2741 
Q 2656 2741 2882 2914 
Q 3109 3088 3109 3444 
Q 3109 3797 2882 3972 
Q 2656 4147 2194 4147 
L 1259 4147 
z
M 628 4666 
L 2241 4666 
Q 2963 4666 3353 4366 
Q 3744 4066 3744 3513 
Q 3744 3084 3544 2831 
Q 3344 2578 2956 2516 
Q 3422 2416 3680 2098 
Q 3938 1781 3938 1306 
Q 3938 681 3513 340 
Q 3088 0 2303 0 
L 628 0 
L 628 4666 
z
" transform="scale(0.015625)"/>
     </defs>
     <use xlink:href="#DejaVuSans-42"/>
     <use xlink:href="#DejaVuSans-6c" x="68.603516"/>
     <use xlink:href="#DejaVuSans-75" x="96.386719"/>
     <use xlink:href="#DejaVuSans-65" x="159.765625"/>
     <use xlink:href="#DejaVuSans-20" x="221.289062"/>
     <use xlink:href="#DejaVuSans-43" x="253.076172"/>
     <use xlink:href="#DejaVuSans-68" x="322.900391"/>
     <use xlink:href="#DejaVuSans-61" x="386.279297"/>
     <use xlink:href="#DejaVuSans-6e" x="447.558594"/>
     <use xlink:href="#DejaVuSans-6e" x="510.9375"/>
     <use xlink:href="#DejaVuSans-65" x="574.316406"/>
     <use xlink:href="#DejaVuSans-6c" x="635.839844"/>
     <use xlink:href="#DejaVuSans-20" x="663.623047"/>
    </g>
   </g>
  </g>
 </g>
 <defs>
  <clipPath id="p2944459d71">
   <rect x="57.17" y="10.8" width="210.535" height="179.826667"/>
  </clipPath>
  <clipPath id="p0a6fa5445f">
   <rect x="57.17" y="218.506667" width="210.535" height="179.826667"/>
  </clipPath>
  <clipPath id="pc297e681ec">
   <rect x="57.17" y="426.213333" width="210.535" height="179.826667"/>
  </clipPath>
 </defs>
</svg>
