<?xml version="1.0" encoding="utf-8" standalone="no"?>
<!DOCTYPE svg PUBLIC "-//W3C//DTD SVG 1.1//EN"
  "http://www.w3.org/Graphics/SVG/1.1/DTD/svg11.dtd">
<svg xmlns:xlink="http://www.w3.org/1999/xlink" width="720pt" height="648pt" viewBox="0 0 720 648" xmlns="http://www.w3.org/2000/svg" version="1.1">
 <metadata>
  <rdf:RDF xmlns:dc="http://purl.org/dc/elements/1.1/" xmlns:cc="http://creativecommons.org/ns#" xmlns:rdf="http://www.w3.org/1999/02/22-rdf-syntax-ns#">
   <cc:Work>
    <dc:type rdf:resource="http://purl.org/dc/dcmitype/StillImage"/>
    <dc:date>2023-09-30T22:16:15.708442</dc:date>
    <dc:format>image/svg+xml</dc:format>
    <dc:creator>
     <cc:Agent>
      <dc:title>Matplotlib v3.8.0, https://matplotlib.org/</dc:title>
     </cc:Agent>
    </dc:creator>
   </cc:Work>
  </rdf:RDF>
 </metadata>
 <defs>
  <style type="text/css">*{stroke-linejoin: round; stroke-linecap: butt}</style>
 </defs>
 <g id="figure_1">
  <g id="patch_1">
   <path d="M 0 648 
L 720 648 
L 720 0 
L 0 0 
z
" style="fill: #ffffff"/>
  </g>
  <g id="axes_1">
   <g id="patch_2">
    <path d="M 90 576.72 
L 648 576.72 
L 648 77.76 
L 90 77.76 
z
" style="fill: #ffffff"/>
   </g>
   <g id="matplotlib.axis_1">
    <g id="xtick_1">
     <g id="line2d_1">
      <defs>
       <path id="m3fff3500c4" d="M 0 0 
L 0 3.5 
" style="stroke: #000000; stroke-width: 0.8"/>
      </defs>
      <g>
       <use xlink:href="#m3fff3500c4" x="90" y="576.72" style="stroke: #000000; stroke-width: 0.8"/>
      </g>
     </g>
     <g id="text_1">
      <!-- 30 -->
      <g transform="translate(83.6375 591.318438) scale(0.1 -0.1)">
       <defs>
        <path id="DejaVuSans-33" d="M 2597 2516 
Q 3050 2419 3304 2112 
Q 3559 1806 3559 1356 
Q 3559 666 3084 287 
Q 2609 -91 1734 -91 
Q 1441 -91 1130 -33 
Q 819 25 488 141 
L 488 750 
Q 750 597 1062 519 
Q 1375 441 1716 441 
Q 2309 441 2620 675 
Q 2931 909 2931 1356 
Q 2931 1769 2642 2001 
Q 2353 2234 1838 2234 
L 1294 2234 
L 1294 2753 
L 1863 2753 
Q 2328 2753 2575 2939 
Q 2822 3125 2822 3475 
Q 2822 3834 2567 4026 
Q 2313 4219 1838 4219 
Q 1578 4219 1281 4162 
Q 984 4106 628 3988 
L 628 4550 
Q 988 4650 1302 4700 
Q 1616 4750 1894 4750 
Q 2613 4750 3031 4423 
Q 3450 4097 3450 3541 
Q 3450 3153 3228 2886 
Q 3006 2619 2597 2516 
z
" transform="scale(0.015625)"/>
        <path id="DejaVuSans-30" d="M 2034 4250 
Q 1547 4250 1301 3770 
Q 1056 3291 1056 2328 
Q 1056 1369 1301 889 
Q 1547 409 2034 409 
Q 2525 409 2770 889 
Q 3016 1369 3016 2328 
Q 3016 3291 2770 3770 
Q 2525 4250 2034 4250 
z
M 2034 4750 
Q 2819 4750 3233 4129 
Q 3647 3509 3647 2328 
Q 3647 1150 3233 529 
Q 2819 -91 2034 -91 
Q 1250 -91 836 529 
Q 422 1150 422 2328 
Q 422 3509 836 4129 
Q 1250 4750 2034 4750 
z
" transform="scale(0.015625)"/>
       </defs>
       <use xlink:href="#DejaVuSans-33"/>
       <use xlink:href="#DejaVuSans-30" x="63.623047"/>
      </g>
     </g>
    </g>
    <g id="xtick_2">
     <g id="line2d_2">
      <g>
       <use xlink:href="#m3fff3500c4" x="159.75" y="576.72" style="stroke: #000000; stroke-width: 0.8"/>
      </g>
     </g>
     <g id="text_2">
      <!-- 40 -->
      <g transform="translate(153.3875 591.318438) scale(0.1 -0.1)">
       <defs>
        <path id="DejaVuSans-34" d="M 2419 4116 
L 825 1625 
L 2419 1625 
L 2419 4116 
z
M 2253 4666 
L 3047 4666 
L 3047 1625 
L 3713 1625 
L 3713 1100 
L 3047 1100 
L 3047 0 
L 2419 0 
L 2419 1100 
L 313 1100 
L 313 1709 
L 2253 4666 
z
" transform="scale(0.015625)"/>
       </defs>
       <use xlink:href="#DejaVuSans-34"/>
       <use xlink:href="#DejaVuSans-30" x="63.623047"/>
      </g>
     </g>
    </g>
    <g id="xtick_3">
     <g id="line2d_3">
      <g>
       <use xlink:href="#m3fff3500c4" x="229.5" y="576.72" style="stroke: #000000; stroke-width: 0.8"/>
      </g>
     </g>
     <g id="text_3">
      <!-- 50 -->
      <g transform="translate(223.1375 591.318438) scale(0.1 -0.1)">
       <defs>
        <path id="DejaVuSans-35" d="M 691 4666 
L 3169 4666 
L 3169 4134 
L 1269 4134 
L 1269 2991 
Q 1406 3038 1543 3061 
Q 1681 3084 1819 3084 
Q 2600 3084 3056 2656 
Q 3513 2228 3513 1497 
Q 3513 744 3044 326 
Q 2575 -91 1722 -91 
Q 1428 -91 1123 -41 
Q 819 9 494 109 
L 494 744 
Q 775 591 1075 516 
Q 1375 441 1709 441 
Q 2250 441 2565 725 
Q 2881 1009 2881 1497 
Q 2881 1984 2565 2268 
Q 2250 2553 1709 2553 
Q 1456 2553 1204 2497 
Q 953 2441 691 2322 
L 691 4666 
z
" transform="scale(0.015625)"/>
       </defs>
       <use xlink:href="#DejaVuSans-35"/>
       <use xlink:href="#DejaVuSans-30" x="63.623047"/>
      </g>
     </g>
    </g>
    <g id="xtick_4">
     <g id="line2d_4">
      <g>
       <use xlink:href="#m3fff3500c4" x="299.25" y="576.72" style="stroke: #000000; stroke-width: 0.8"/>
      </g>
     </g>
     <g id="text_4">
      <!-- 60 -->
      <g transform="translate(292.8875 591.318438) scale(0.1 -0.1)">
       <defs>
        <path id="DejaVuSans-36" d="M 2113 2584 
Q 1688 2584 1439 2293 
Q 1191 2003 1191 1497 
Q 1191 994 1439 701 
Q 1688 409 2113 409 
Q 2538 409 2786 701 
Q 3034 994 3034 1497 
Q 3034 2003 2786 2293 
Q 2538 2584 2113 2584 
z
M 3366 4563 
L 3366 3988 
Q 3128 4100 2886 4159 
Q 2644 4219 2406 4219 
Q 1781 4219 1451 3797 
Q 1122 3375 1075 2522 
Q 1259 2794 1537 2939 
Q 1816 3084 2150 3084 
Q 2853 3084 3261 2657 
Q 3669 2231 3669 1497 
Q 3669 778 3244 343 
Q 2819 -91 2113 -91 
Q 1303 -91 875 529 
Q 447 1150 447 2328 
Q 447 3434 972 4092 
Q 1497 4750 2381 4750 
Q 2619 4750 2861 4703 
Q 3103 4656 3366 4563 
z
" transform="scale(0.015625)"/>
       </defs>
       <use xlink:href="#DejaVuSans-36"/>
       <use xlink:href="#DejaVuSans-30" x="63.623047"/>
      </g>
     </g>
    </g>
    <g id="xtick_5">
     <g id="line2d_5">
      <g>
       <use xlink:href="#m3fff3500c4" x="369" y="576.72" style="stroke: #000000; stroke-width: 0.8"/>
      </g>
     </g>
     <g id="text_5">
      <!-- 70 -->
      <g transform="translate(362.6375 591.318438) scale(0.1 -0.1)">
       <defs>
        <path id="DejaVuSans-37" d="M 525 4666 
L 3525 4666 
L 3525 4397 
L 1831 0 
L 1172 0 
L 2766 4134 
L 525 4134 
L 525 4666 
z
" transform="scale(0.015625)"/>
       </defs>
       <use xlink:href="#DejaVuSans-37"/>
       <use xlink:href="#DejaVuSans-30" x="63.623047"/>
      </g>
     </g>
    </g>
    <g id="xtick_6">
     <g id="line2d_6">
      <g>
       <use xlink:href="#m3fff3500c4" x="438.75" y="576.72" style="stroke: #000000; stroke-width: 0.8"/>
      </g>
     </g>
     <g id="text_6">
      <!-- 80 -->
      <g transform="translate(432.3875 591.318438) scale(0.1 -0.1)">
       <defs>
        <path id="DejaVuSans-38" d="M 2034 2216 
Q 1584 2216 1326 1975 
Q 1069 1734 1069 1313 
Q 1069 891 1326 650 
Q 1584 409 2034 409 
Q 2484 409 2743 651 
Q 3003 894 3003 1313 
Q 3003 1734 2745 1975 
Q 2488 2216 2034 2216 
z
M 1403 2484 
Q 997 2584 770 2862 
Q 544 3141 544 3541 
Q 544 4100 942 4425 
Q 1341 4750 2034 4750 
Q 2731 4750 3128 4425 
Q 3525 4100 3525 3541 
Q 3525 3141 3298 2862 
Q 3072 2584 2669 2484 
Q 3125 2378 3379 2068 
Q 3634 1759 3634 1313 
Q 3634 634 3220 271 
Q 2806 -91 2034 -91 
Q 1263 -91 848 271 
Q 434 634 434 1313 
Q 434 1759 690 2068 
Q 947 2378 1403 2484 
z
M 1172 3481 
Q 1172 3119 1398 2916 
Q 1625 2713 2034 2713 
Q 2441 2713 2670 2916 
Q 2900 3119 2900 3481 
Q 2900 3844 2670 4047 
Q 2441 4250 2034 4250 
Q 1625 4250 1398 4047 
Q 1172 3844 1172 3481 
z
" transform="scale(0.015625)"/>
       </defs>
       <use xlink:href="#DejaVuSans-38"/>
       <use xlink:href="#DejaVuSans-30" x="63.623047"/>
      </g>
     </g>
    </g>
    <g id="xtick_7">
     <g id="line2d_7">
      <g>
       <use xlink:href="#m3fff3500c4" x="508.5" y="576.72" style="stroke: #000000; stroke-width: 0.8"/>
      </g>
     </g>
     <g id="text_7">
      <!-- 90 -->
      <g transform="translate(502.1375 591.318438) scale(0.1 -0.1)">
       <defs>
        <path id="DejaVuSans-39" d="M 703 97 
L 703 672 
Q 941 559 1184 500 
Q 1428 441 1663 441 
Q 2288 441 2617 861 
Q 2947 1281 2994 2138 
Q 2813 1869 2534 1725 
Q 2256 1581 1919 1581 
Q 1219 1581 811 2004 
Q 403 2428 403 3163 
Q 403 3881 828 4315 
Q 1253 4750 1959 4750 
Q 2769 4750 3195 4129 
Q 3622 3509 3622 2328 
Q 3622 1225 3098 567 
Q 2575 -91 1691 -91 
Q 1453 -91 1209 -44 
Q 966 3 703 97 
z
M 1959 2075 
Q 2384 2075 2632 2365 
Q 2881 2656 2881 3163 
Q 2881 3666 2632 3958 
Q 2384 4250 1959 4250 
Q 1534 4250 1286 3958 
Q 1038 3666 1038 3163 
Q 1038 2656 1286 2365 
Q 1534 2075 1959 2075 
z
" transform="scale(0.015625)"/>
       </defs>
       <use xlink:href="#DejaVuSans-39"/>
       <use xlink:href="#DejaVuSans-30" x="63.623047"/>
      </g>
     </g>
    </g>
    <g id="xtick_8">
     <g id="line2d_8">
      <g>
       <use xlink:href="#m3fff3500c4" x="578.25" y="576.72" style="stroke: #000000; stroke-width: 0.8"/>
      </g>
     </g>
     <g id="text_8">
      <!-- 100 -->
      <g transform="translate(568.70625 591.318438) scale(0.1 -0.1)">
       <defs>
        <path id="DejaVuSans-31" d="M 794 531 
L 1825 531 
L 1825 4091 
L 703 3866 
L 703 4441 
L 1819 4666 
L 2450 4666 
L 2450 531 
L 3481 531 
L 3481 0 
L 794 0 
L 794 531 
z
" transform="scale(0.015625)"/>
       </defs>
       <use xlink:href="#DejaVuSans-31"/>
       <use xlink:href="#DejaVuSans-30" x="63.623047"/>
       <use xlink:href="#DejaVuSans-30" x="127.246094"/>
      </g>
     </g>
    </g>
    <g id="xtick_9">
     <g id="line2d_9">
      <g>
       <use xlink:href="#m3fff3500c4" x="648" y="576.72" style="stroke: #000000; stroke-width: 0.8"/>
      </g>
     </g>
     <g id="text_9">
      <!-- 110 -->
      <g transform="translate(638.45625 591.318438) scale(0.1 -0.1)">
       <use xlink:href="#DejaVuSans-31"/>
       <use xlink:href="#DejaVuSans-31" x="63.623047"/>
       <use xlink:href="#DejaVuSans-30" x="127.246094"/>
      </g>
     </g>
    </g>
    <g id="text_10">
     <!-- Pixel Intensity -->
     <g transform="translate(334.088281 604.996562) scale(0.1 -0.1)">
      <defs>
       <path id="DejaVuSans-50" d="M 1259 4147 
L 1259 2394 
L 2053 2394 
Q 2494 2394 2734 2622 
Q 2975 2850 2975 3272 
Q 2975 3691 2734 3919 
Q 2494 4147 2053 4147 
L 1259 4147 
z
M 628 4666 
L 2053 4666 
Q 2838 4666 3239 4311 
Q 3641 3956 3641 3272 
Q 3641 2581 3239 2228 
Q 2838 1875 2053 1875 
L 1259 1875 
L 1259 0 
L 628 0 
L 628 4666 
z
" transform="scale(0.015625)"/>
       <path id="DejaVuSans-69" d="M 603 3500 
L 1178 3500 
L 1178 0 
L 603 0 
L 603 3500 
z
M 603 4863 
L 1178 4863 
L 1178 4134 
L 603 4134 
L 603 4863 
z
" transform="scale(0.015625)"/>
       <path id="DejaVuSans-78" d="M 3513 3500 
L 2247 1797 
L 3578 0 
L 2900 0 
L 1881 1375 
L 863 0 
L 184 0 
L 1544 1831 
L 300 3500 
L 978 3500 
L 1906 2253 
L 2834 3500 
L 3513 3500 
z
" transform="scale(0.015625)"/>
       <path id="DejaVuSans-65" d="M 3597 1894 
L 3597 1613 
L 953 1613 
Q 991 1019 1311 708 
Q 1631 397 2203 397 
Q 2534 397 2845 478 
Q 3156 559 3463 722 
L 3463 178 
Q 3153 47 2828 -22 
Q 2503 -91 2169 -91 
Q 1331 -91 842 396 
Q 353 884 353 1716 
Q 353 2575 817 3079 
Q 1281 3584 2069 3584 
Q 2775 3584 3186 3129 
Q 3597 2675 3597 1894 
z
M 3022 2063 
Q 3016 2534 2758 2815 
Q 2500 3097 2075 3097 
Q 1594 3097 1305 2825 
Q 1016 2553 972 2059 
L 3022 2063 
z
" transform="scale(0.015625)"/>
       <path id="DejaVuSans-6c" d="M 603 4863 
L 1178 4863 
L 1178 0 
L 603 0 
L 603 4863 
z
" transform="scale(0.015625)"/>
       <path id="DejaVuSans-20" transform="scale(0.015625)"/>
       <path id="DejaVuSans-49" d="M 628 4666 
L 1259 4666 
L 1259 0 
L 628 0 
L 628 4666 
z
" transform="scale(0.015625)"/>
       <path id="DejaVuSans-6e" d="M 3513 2113 
L 3513 0 
L 2938 0 
L 2938 2094 
Q 2938 2591 2744 2837 
Q 2550 3084 2163 3084 
Q 1697 3084 1428 2787 
Q 1159 2491 1159 1978 
L 1159 0 
L 581 0 
L 581 3500 
L 1159 3500 
L 1159 2956 
Q 1366 3272 1645 3428 
Q 1925 3584 2291 3584 
Q 2894 3584 3203 3211 
Q 3513 2838 3513 2113 
z
" transform="scale(0.015625)"/>
       <path id="DejaVuSans-74" d="M 1172 4494 
L 1172 3500 
L 2356 3500 
L 2356 3053 
L 1172 3053 
L 1172 1153 
Q 1172 725 1289 603 
Q 1406 481 1766 481 
L 2356 481 
L 2356 0 
L 1766 0 
Q 1100 0 847 248 
Q 594 497 594 1153 
L 594 3053 
L 172 3053 
L 172 3500 
L 594 3500 
L 594 4494 
L 1172 4494 
z
" transform="scale(0.015625)"/>
       <path id="DejaVuSans-73" d="M 2834 3397 
L 2834 2853 
Q 2591 2978 2328 3040 
Q 2066 3103 1784 3103 
Q 1356 3103 1142 2972 
Q 928 2841 928 2578 
Q 928 2378 1081 2264 
Q 1234 2150 1697 2047 
L 1894 2003 
Q 2506 1872 2764 1633 
Q 3022 1394 3022 966 
Q 3022 478 2636 193 
Q 2250 -91 1575 -91 
Q 1294 -91 989 -36 
Q 684 19 347 128 
L 347 722 
Q 666 556 975 473 
Q 1284 391 1588 391 
Q 1994 391 2212 530 
Q 2431 669 2431 922 
Q 2431 1156 2273 1281 
Q 2116 1406 1581 1522 
L 1381 1569 
Q 847 1681 609 1914 
Q 372 2147 372 2553 
Q 372 3047 722 3315 
Q 1072 3584 1716 3584 
Q 2034 3584 2315 3537 
Q 2597 3491 2834 3397 
z
" transform="scale(0.015625)"/>
       <path id="DejaVuSans-79" d="M 2059 -325 
Q 1816 -950 1584 -1140 
Q 1353 -1331 966 -1331 
L 506 -1331 
L 506 -850 
L 844 -850 
Q 1081 -850 1212 -737 
Q 1344 -625 1503 -206 
L 1606 56 
L 191 3500 
L 800 3500 
L 1894 763 
L 2988 3500 
L 3597 3500 
L 2059 -325 
z
" transform="scale(0.015625)"/>
      </defs>
      <use xlink:href="#DejaVuSans-50"/>
      <use xlink:href="#DejaVuSans-69" x="58.052734"/>
      <use xlink:href="#DejaVuSans-78" x="85.835938"/>
      <use xlink:href="#DejaVuSans-65" x="141.890625"/>
      <use xlink:href="#DejaVuSans-6c" x="203.414062"/>
      <use xlink:href="#DejaVuSans-20" x="231.197266"/>
      <use xlink:href="#DejaVuSans-49" x="262.984375"/>
      <use xlink:href="#DejaVuSans-6e" x="292.476562"/>
      <use xlink:href="#DejaVuSans-74" x="355.855469"/>
      <use xlink:href="#DejaVuSans-65" x="395.064453"/>
      <use xlink:href="#DejaVuSans-6e" x="456.587891"/>
      <use xlink:href="#DejaVuSans-73" x="519.966797"/>
      <use xlink:href="#DejaVuSans-69" x="572.066406"/>
      <use xlink:href="#DejaVuSans-74" x="599.849609"/>
      <use xlink:href="#DejaVuSans-79" x="639.058594"/>
     </g>
    </g>
   </g>
   <g id="matplotlib.axis_2">
    <g id="ytick_1">
     <g id="line2d_10">
      <defs>
       <path id="mfff143bb85" d="M 0 0 
L -3.5 0 
" style="stroke: #000000; stroke-width: 0.8"/>
      </defs>
      <g>
       <use xlink:href="#mfff143bb85" x="90" y="554.04" style="stroke: #000000; stroke-width: 0.8"/>
      </g>
     </g>
     <g id="text_11">
      <!-- 0 -->
      <g transform="translate(76.6375 557.839219) scale(0.1 -0.1)">
       <use xlink:href="#DejaVuSans-30"/>
      </g>
     </g>
    </g>
    <g id="ytick_2">
     <g id="line2d_11">
      <g>
       <use xlink:href="#mfff143bb85" x="90" y="473.270769" style="stroke: #000000; stroke-width: 0.8"/>
      </g>
     </g>
     <g id="text_12">
      <!-- 500 -->
      <g transform="translate(63.9125 477.069988) scale(0.1 -0.1)">
       <use xlink:href="#DejaVuSans-35"/>
       <use xlink:href="#DejaVuSans-30" x="63.623047"/>
       <use xlink:href="#DejaVuSans-30" x="127.246094"/>
      </g>
     </g>
    </g>
    <g id="ytick_3">
     <g id="line2d_12">
      <g>
       <use xlink:href="#mfff143bb85" x="90" y="392.501538" style="stroke: #000000; stroke-width: 0.8"/>
      </g>
     </g>
     <g id="text_13">
      <!-- 1000 -->
      <g transform="translate(57.55 396.300757) scale(0.1 -0.1)">
       <use xlink:href="#DejaVuSans-31"/>
       <use xlink:href="#DejaVuSans-30" x="63.623047"/>
       <use xlink:href="#DejaVuSans-30" x="127.246094"/>
       <use xlink:href="#DejaVuSans-30" x="190.869141"/>
      </g>
     </g>
    </g>
    <g id="ytick_4">
     <g id="line2d_13">
      <g>
       <use xlink:href="#mfff143bb85" x="90" y="311.732308" style="stroke: #000000; stroke-width: 0.8"/>
      </g>
     </g>
     <g id="text_14">
      <!-- 1500 -->
      <g transform="translate(57.55 315.531526) scale(0.1 -0.1)">
       <use xlink:href="#DejaVuSans-31"/>
       <use xlink:href="#DejaVuSans-35" x="63.623047"/>
       <use xlink:href="#DejaVuSans-30" x="127.246094"/>
       <use xlink:href="#DejaVuSans-30" x="190.869141"/>
      </g>
     </g>
    </g>
    <g id="ytick_5">
     <g id="line2d_14">
      <g>
       <use xlink:href="#mfff143bb85" x="90" y="230.963077" style="stroke: #000000; stroke-width: 0.8"/>
      </g>
     </g>
     <g id="text_15">
      <!-- 2000 -->
      <g transform="translate(57.55 234.762296) scale(0.1 -0.1)">
       <defs>
        <path id="DejaVuSans-32" d="M 1228 531 
L 3431 531 
L 3431 0 
L 469 0 
L 469 531 
Q 828 903 1448 1529 
Q 2069 2156 2228 2338 
Q 2531 2678 2651 2914 
Q 2772 3150 2772 3378 
Q 2772 3750 2511 3984 
Q 2250 4219 1831 4219 
Q 1534 4219 1204 4116 
Q 875 4013 500 3803 
L 500 4441 
Q 881 4594 1212 4672 
Q 1544 4750 1819 4750 
Q 2544 4750 2975 4387 
Q 3406 4025 3406 3419 
Q 3406 3131 3298 2873 
Q 3191 2616 2906 2266 
Q 2828 2175 2409 1742 
Q 1991 1309 1228 531 
z
" transform="scale(0.015625)"/>
       </defs>
       <use xlink:href="#DejaVuSans-32"/>
       <use xlink:href="#DejaVuSans-30" x="63.623047"/>
       <use xlink:href="#DejaVuSans-30" x="127.246094"/>
       <use xlink:href="#DejaVuSans-30" x="190.869141"/>
      </g>
     </g>
    </g>
    <g id="ytick_6">
     <g id="line2d_15">
      <g>
       <use xlink:href="#mfff143bb85" x="90" y="150.193846" style="stroke: #000000; stroke-width: 0.8"/>
      </g>
     </g>
     <g id="text_16">
      <!-- 2500 -->
      <g transform="translate(57.55 153.993065) scale(0.1 -0.1)">
       <use xlink:href="#DejaVuSans-32"/>
       <use xlink:href="#DejaVuSans-35" x="63.623047"/>
       <use xlink:href="#DejaVuSans-30" x="127.246094"/>
       <use xlink:href="#DejaVuSans-30" x="190.869141"/>
      </g>
     </g>
    </g>
    <g id="text_17">
     <!-- Frequency -->
     <g transform="translate(51.470312 353.069687) rotate(-90) scale(0.1 -0.1)">
      <defs>
       <path id="DejaVuSans-46" d="M 628 4666 
L 3309 4666 
L 3309 4134 
L 1259 4134 
L 1259 2759 
L 3109 2759 
L 3109 2228 
L 1259 2228 
L 1259 0 
L 628 0 
L 628 4666 
z
" transform="scale(0.015625)"/>
       <path id="DejaVuSans-72" d="M 2631 2963 
Q 2534 3019 2420 3045 
Q 2306 3072 2169 3072 
Q 1681 3072 1420 2755 
Q 1159 2438 1159 1844 
L 1159 0 
L 581 0 
L 581 3500 
L 1159 3500 
L 1159 2956 
Q 1341 3275 1631 3429 
Q 1922 3584 2338 3584 
Q 2397 3584 2469 3576 
Q 2541 3569 2628 3553 
L 2631 2963 
z
" transform="scale(0.015625)"/>
       <path id="DejaVuSans-71" d="M 947 1747 
Q 947 1113 1208 752 
Q 1469 391 1925 391 
Q 2381 391 2643 752 
Q 2906 1113 2906 1747 
Q 2906 2381 2643 2742 
Q 2381 3103 1925 3103 
Q 1469 3103 1208 2742 
Q 947 2381 947 1747 
z
M 2906 525 
Q 2725 213 2448 61 
Q 2172 -91 1784 -91 
Q 1150 -91 751 415 
Q 353 922 353 1747 
Q 353 2572 751 3078 
Q 1150 3584 1784 3584 
Q 2172 3584 2448 3432 
Q 2725 3281 2906 2969 
L 2906 3500 
L 3481 3500 
L 3481 -1331 
L 2906 -1331 
L 2906 525 
z
" transform="scale(0.015625)"/>
       <path id="DejaVuSans-75" d="M 544 1381 
L 544 3500 
L 1119 3500 
L 1119 1403 
Q 1119 906 1312 657 
Q 1506 409 1894 409 
Q 2359 409 2629 706 
Q 2900 1003 2900 1516 
L 2900 3500 
L 3475 3500 
L 3475 0 
L 2900 0 
L 2900 538 
Q 2691 219 2414 64 
Q 2138 -91 1772 -91 
Q 1169 -91 856 284 
Q 544 659 544 1381 
z
M 1991 3584 
L 1991 3584 
z
" transform="scale(0.015625)"/>
       <path id="DejaVuSans-63" d="M 3122 3366 
L 3122 2828 
Q 2878 2963 2633 3030 
Q 2388 3097 2138 3097 
Q 1578 3097 1268 2742 
Q 959 2388 959 1747 
Q 959 1106 1268 751 
Q 1578 397 2138 397 
Q 2388 397 2633 464 
Q 2878 531 3122 666 
L 3122 134 
Q 2881 22 2623 -34 
Q 2366 -91 2075 -91 
Q 1284 -91 818 406 
Q 353 903 353 1747 
Q 353 2603 823 3093 
Q 1294 3584 2113 3584 
Q 2378 3584 2631 3529 
Q 2884 3475 3122 3366 
z
" transform="scale(0.015625)"/>
      </defs>
      <use xlink:href="#DejaVuSans-46"/>
      <use xlink:href="#DejaVuSans-72" x="50.269531"/>
      <use xlink:href="#DejaVuSans-65" x="89.132812"/>
      <use xlink:href="#DejaVuSans-71" x="150.65625"/>
      <use xlink:href="#DejaVuSans-75" x="214.132812"/>
      <use xlink:href="#DejaVuSans-65" x="277.511719"/>
      <use xlink:href="#DejaVuSans-6e" x="339.035156"/>
      <use xlink:href="#DejaVuSans-63" x="402.414062"/>
      <use xlink:href="#DejaVuSans-79" x="457.394531"/>
     </g>
    </g>
   </g>
   <g id="line2d_16">
    <path d="M -1 554.04 
L 62.1 554.04 
L 69.075 553.878462 
L 76.05 553.232308 
L 83.025 552.747692 
L 90 553.393846 
L 96.975 550.809231 
L 103.95 550.001538 
L 110.925 544.347692 
L 117.9 543.055385 
L 124.875 530.778462 
L 131.85 497.986154 
L 138.825 477.955385 
L 145.8 454.370769 
L 152.775 416.247692 
L 159.75 346.463077 
L 166.725 253.255385 
L 173.7 155.686154 
L 180.675 100.44 
L 187.65 119.016923 
L 194.625 157.463077 
L 201.6 182.986154 
L 208.575 219.170769 
L 215.55 258.909231 
L 222.525 302.524615 
L 229.5 333.055385 
L 236.475 353.409231 
L 243.45 379.416923 
L 250.425 387.009231 
L 257.4 388.786154 
L 264.375 406.716923 
L 271.35 417.54 
L 278.325 428.04 
L 285.3 441.932308 
L 292.275 440.155385 
L 299.25 443.547692 
L 306.225 439.670769 
L 313.2 441.447692 
L 320.175 448.232308 
L 327.15 447.747692 
L 334.125 446.132308 
L 341.1 455.663077 
L 348.075 453.886154 
L 355.05 464.547692 
L 362.025 464.547692 
L 369 473.109231 
L 375.975 475.370769 
L 382.95 483.609231 
L 389.925 484.901538 
L 396.9 483.447692 
L 403.875 484.578462 
L 410.85 494.593846 
L 417.825 493.624615 
L 431.775 501.055385 
L 438.75 504.447692 
L 445.725 505.255385 
L 452.7 505.578462 
L 459.675 509.778462 
L 466.65 512.847692 
L 473.625 515.270769 
L 480.6 519.632308 
L 487.575 521.247692 
L 494.55 527.063077 
L 501.525 522.701538 
L 508.5 521.732308 
L 515.475 522.055385 
L 522.45 524.963077 
L 529.425 526.093846 
L 536.4 526.901538 
L 543.375 522.701538 
L 550.35 527.547692 
L 557.325 527.709231 
L 564.3 524.155385 
L 571.275 524.155385 
L 578.25 523.024615 
L 585.225 528.516923 
L 592.2 525.286154 
L 599.175 530.616923 
L 606.15 529.001538 
L 613.125 535.947692 
L 620.1 541.44 
L 627.075 543.378462 
L 634.05 543.54 
L 641.025 545.155385 
L 648 544.670769 
L 654.975 546.770769 
L 661.95 547.255385 
L 668.925 548.386154 
L 675.9 547.416923 
L 682.875 549.678462 
L 689.85 549.678462 
L 696.825 549.84 
L 703.8 550.647692 
L 710.775 550.647692 
L 717.75 551.778462 
L 721 551.477386 
L 721 551.477386 
" clip-path="url(#pb45f366450)" style="fill: none; stroke: #000000; stroke-width: 1.5; stroke-linecap: square"/>
   </g>
   <g id="line2d_17">
    <path d="M -1 554.04 
L 62.1 554.04 
L 69.075 553.878462 
L 76.05 553.878462 
L 83.025 552.747692 
L 90 552.747692 
L 96.975 549.84 
L 103.95 545.963077 
L 110.925 541.116923 
L 117.9 535.301538 
L 124.875 519.955385 
L 131.85 498.147692 
L 138.825 466.486154 
L 145.8 440.801538 
L 152.775 381.516923 
L 159.75 329.824615 
L 166.725 265.047692 
L 173.7 220.624615 
L 180.675 188.316923 
L 187.65 164.732308 
L 194.625 175.070769 
L 201.6 172.486154 
L 208.575 197.201538 
L 215.55 244.370769 
L 222.525 272.316923 
L 229.5 298.486154 
L 236.475 334.832308 
L 243.45 360.032308 
L 250.425 377.64 
L 257.4 385.070769 
L 264.375 398.963077 
L 271.35 407.686154 
L 278.325 419.801538 
L 285.3 421.74 
L 292.275 427.232308 
L 299.25 429.332308 
L 306.225 434.34 
L 313.2 442.093846 
L 320.175 442.255385 
L 327.15 449.847692 
L 334.125 459.378462 
L 341.1 460.186154 
L 348.075 457.601538 
L 355.05 463.255385 
L 362.025 467.778462 
L 369 469.070769 
L 375.975 480.863077 
L 382.95 478.278462 
L 389.925 485.709231 
L 396.9 491.04 
L 403.875 489.909231 
L 410.85 503.316923 
L 417.825 502.509231 
L 424.8 501.055385 
L 431.775 503.963077 
L 438.75 510.909231 
L 445.725 511.070769 
L 452.7 516.563077 
L 459.675 516.886154 
L 466.65 518.501538 
L 473.625 519.147692 
L 480.6 517.693846 
L 487.575 516.078462 
L 494.55 521.409231 
L 501.525 524.478462 
L 508.5 526.093846 
L 515.475 522.055385 
L 522.45 525.286154 
L 529.425 523.993846 
L 536.4 523.832308 
L 543.375 523.832308 
L 550.35 523.670769 
L 557.325 528.355385 
L 564.3 524.478462 
L 571.275 526.74 
L 578.25 526.093846 
L 585.225 531.424615 
L 592.2 532.716923 
L 599.175 530.455385 
L 606.15 534.655385 
L 613.125 539.016923 
L 620.1 543.055385 
L 627.075 539.663077 
L 634.05 546.609231 
L 641.025 546.932308 
L 648 546.932308 
L 654.975 547.578462 
L 661.95 548.063077 
L 668.925 547.093846 
L 675.9 549.678462 
L 689.85 549.678462 
L 696.825 549.84 
L 703.8 550.647692 
L 710.775 553.070769 
L 717.75 551.293846 
L 721 551.06804 
L 721 551.06804 
" clip-path="url(#pb45f366450)" style="fill: none; stroke-dasharray: 5.55,2.4; stroke-dashoffset: 0; stroke: #d7191c; stroke-width: 1.5"/>
   </g>
   <g id="line2d_18">
    <path d="M -1 554.04 
L 69.075 554.04 
L 76.05 553.878462 
L 83.025 552.586154 
L 90 552.586154 
L 96.975 550.163077 
L 103.95 546.609231 
L 110.925 542.086154 
L 117.9 533.686154 
L 124.875 519.470769 
L 131.85 501.701538 
L 138.825 470.04 
L 145.8 445.486154 
L 152.775 384.101538 
L 159.75 329.178462 
L 166.725 263.916923 
L 173.7 221.270769 
L 180.675 193.001538 
L 187.65 158.916923 
L 194.625 172.970769 
L 201.6 180.401538 
L 208.575 199.463077 
L 215.55 228.54 
L 222.525 270.378462 
L 229.5 304.947692 
L 236.475 334.993846 
L 243.45 356.316923 
L 250.425 374.570769 
L 257.4 394.924615 
L 264.375 393.147692 
L 271.35 409.14 
L 278.325 420.286154 
L 285.3 424.647692 
L 292.275 426.586154 
L 299.25 429.816923 
L 306.225 438.216923 
L 313.2 439.670769 
L 320.175 442.255385 
L 327.15 450.816923 
L 334.125 458.570769 
L 341.1 458.409231 
L 348.075 450.655385 
L 355.05 467.293846 
L 362.025 469.555385 
L 369 466.486154 
L 375.975 477.470769 
L 382.95 477.147692 
L 389.925 486.193846 
L 396.9 489.101538 
L 403.875 493.786154 
L 410.85 501.54 
L 417.825 504.124615 
L 424.8 505.416923 
L 431.775 507.193846 
L 438.75 507.355385 
L 445.725 513.493846 
L 452.7 515.593846 
L 459.675 514.301538 
L 466.65 516.24 
L 473.625 518.34 
L 480.6 519.470769 
L 487.575 514.14 
L 494.55 519.955385 
L 501.525 523.186154 
L 508.5 525.286154 
L 515.475 521.409231 
L 522.45 528.355385 
L 529.425 526.901538 
L 536.4 525.124615 
L 543.375 524.801538 
L 550.35 528.355385 
L 557.325 522.701538 
L 564.3 526.74 
L 571.275 528.193846 
L 578.25 528.032308 
L 585.225 526.578462 
L 592.2 529.001538 
L 599.175 533.04 
L 606.15 532.878462 
L 613.125 537.724615 
L 620.1 542.732308 
L 627.075 540.955385 
L 634.05 543.216923 
L 641.025 546.286154 
L 648 547.416923 
L 654.975 547.901538 
L 661.95 547.416923 
L 668.925 546.447692 
L 675.9 548.870769 
L 682.875 550.163077 
L 689.85 550.001538 
L 696.825 549.516923 
L 703.8 550.809231 
L 710.775 551.94 
L 717.75 552.101538 
L 721 551.424119 
L 721 551.424119 
" clip-path="url(#pb45f366450)" style="fill: none; stroke-dasharray: 5.55,2.4; stroke-dashoffset: 0; stroke: #fdae61; stroke-width: 1.5"/>
   </g>
   <g id="line2d_19">
    <path d="M -1 554.04 
L 69.075 554.04 
L 76.05 553.878462 
L 83.025 552.586154 
L 90 552.263077 
L 96.975 550.163077 
L 103.95 546.286154 
L 110.925 541.601538 
L 117.9 532.878462 
L 124.875 520.44 
L 131.85 499.278462 
L 138.825 471.816923 
L 145.8 441.609231 
L 152.775 379.578462 
L 159.75 329.501538 
L 166.725 255.032308 
L 173.7 231.770769 
L 180.675 186.216923 
L 187.65 165.378462 
L 194.625 167.155385 
L 201.6 174.263077 
L 208.575 197.201538 
L 215.55 234.84 
L 222.525 274.74 
L 229.5 298.001538 
L 236.475 341.616923 
L 243.45 358.901538 
L 250.425 378.124615 
L 257.4 390.724615 
L 264.375 393.955385 
L 271.35 417.54 
L 278.325 419.155385 
L 285.3 423.193846 
L 292.275 424.001538 
L 299.25 433.370769 
L 306.225 439.670769 
L 313.2 437.247692 
L 320.175 444.84 
L 327.15 448.716923 
L 334.125 457.763077 
L 341.1 459.216923 
L 348.075 456.147692 
L 355.05 462.447692 
L 362.025 467.94 
L 369 469.393846 
L 375.975 477.309231 
L 382.95 477.147692 
L 389.925 486.84 
L 396.9 491.686154 
L 403.875 492.978462 
L 410.85 500.893846 
L 417.825 503.64 
L 424.8 502.832308 
L 431.775 505.093846 
L 438.75 508.163077 
L 445.725 515.593846 
L 452.7 515.916923 
L 459.675 511.878462 
L 466.65 520.116923 
L 473.625 518.016923 
L 480.6 517.370769 
L 487.575 512.524615 
L 494.55 523.832308 
L 501.525 526.093846 
L 508.5 522.863077 
L 515.475 521.570769 
L 522.45 526.093846 
L 529.425 528.193846 
L 536.4 525.609231 
L 543.375 524.478462 
L 550.35 525.447692 
L 557.325 527.709231 
L 564.3 524.801538 
L 571.275 526.416923 
L 578.25 525.124615 
L 585.225 527.386154 
L 592.2 531.101538 
L 599.175 532.716923 
L 606.15 533.524615 
L 613.125 539.501538 
L 620.1 540.793846 
L 627.075 539.663077 
L 634.05 545.963077 
L 648 546.932308 
L 654.975 548.547692 
L 661.95 546.286154 
L 668.925 547.255385 
L 675.9 549.516923 
L 682.875 549.516923 
L 689.85 550.324615 
L 696.825 549.516923 
L 703.8 550.324615 
L 710.775 552.263077 
L 717.75 551.94 
L 721 551.337849 
L 721 551.337849 
" clip-path="url(#pb45f366450)" style="fill: none; stroke-dasharray: 5.55,2.4; stroke-dashoffset: 0; stroke: #ffffbf; stroke-width: 1.5"/>
   </g>
   <g id="line2d_20">
    <path d="M -1 554.04 
L 69.075 554.04 
L 76.05 553.878462 
L 83.025 552.424615 
L 90 552.424615 
L 96.975 550.001538 
L 103.95 546.609231 
L 110.925 541.116923 
L 117.9 533.363077 
L 124.875 520.278462 
L 131.85 500.409231 
L 138.825 467.293846 
L 145.8 443.386154 
L 152.775 378.932308 
L 159.75 326.432308 
L 166.725 258.424615 
L 173.7 220.14 
L 180.675 183.309231 
L 187.65 171.678462 
L 194.625 175.232308 
L 201.6 170.709231 
L 208.575 199.14 
L 215.55 236.94 
L 222.525 271.832308 
L 229.5 301.555385 
L 236.475 344.363077 
L 243.45 361.001538 
L 250.425 377.155385 
L 257.4 385.878462 
L 264.375 396.216923 
L 271.35 413.986154 
L 278.325 419.64 
L 285.3 424.809231 
L 292.275 424.970769 
L 299.25 434.824615 
L 306.225 435.632308 
L 313.2 444.193846 
L 320.175 440.963077 
L 327.15 446.778462 
L 334.125 460.832308 
L 341.1 461.963077 
L 348.075 454.532308 
L 355.05 460.670769 
L 362.025 468.747692 
L 369 469.070769 
L 375.975 478.278462 
L 382.95 475.855385 
L 389.925 486.84 
L 396.9 492.009231 
L 403.875 492.978462 
L 410.85 500.570769 
L 417.825 504.770769 
L 424.8 501.216923 
L 431.775 505.255385 
L 438.75 509.132308 
L 445.725 514.947692 
L 452.7 514.463077 
L 459.675 510.909231 
L 466.65 523.509231 
L 473.625 517.370769 
L 480.6 517.532308 
L 487.575 513.493846 
L 494.55 522.055385 
L 501.525 523.832308 
L 508.5 524.801538 
L 515.475 522.055385 
L 522.45 525.932308 
L 529.425 528.355385 
L 536.4 526.416923 
L 543.375 524.801538 
L 550.35 520.601538 
L 557.325 529.809231 
L 564.3 526.416923 
L 571.275 526.255385 
L 578.25 530.132308 
L 585.225 525.124615 
L 592.2 530.616923 
L 599.175 530.616923 
L 606.15 533.847692 
L 613.125 539.663077 
L 620.1 540.793846 
L 627.075 539.663077 
L 634.05 544.832308 
L 641.025 545.963077 
L 648 548.063077 
L 654.975 547.901538 
L 661.95 546.770769 
L 668.925 546.609231 
L 675.9 549.678462 
L 682.875 548.870769 
L 689.85 550.486154 
L 696.825 550.324615 
L 703.8 550.324615 
L 710.775 551.94 
L 721 551.154309 
L 721 551.154309 
" clip-path="url(#pb45f366450)" style="fill: none; stroke-dasharray: 5.55,2.4; stroke-dashoffset: 0; stroke: #abd9e9; stroke-width: 1.5"/>
   </g>
   <g id="line2d_21">
    <path d="M -1 554.04 
L 69.075 554.04 
L 76.05 553.878462 
L 83.025 552.424615 
L 90 552.263077 
L 96.975 550.486154 
L 103.95 545.963077 
L 110.925 541.601538 
L 117.9 534.009231 
L 124.875 518.663077 
L 131.85 499.601538 
L 138.825 466.970769 
L 145.8 446.293846 
L 152.775 375.701538 
L 159.75 324.332308 
L 166.725 254.870769 
L 173.7 221.755385 
L 180.675 183.632308 
L 187.65 170.870769 
L 194.625 179.109231 
L 201.6 168.124615 
L 208.575 197.686154 
L 215.55 238.878462 
L 222.525 274.901538 
L 229.5 300.586154 
L 236.475 343.070769 
L 243.45 360.678462 
L 250.425 379.901538 
L 257.4 388.947692 
L 264.375 395.086154 
L 271.35 410.916923 
L 278.325 422.386154 
L 285.3 425.455385 
L 292.275 424.486154 
L 299.25 438.701538 
L 306.225 432.563077 
L 313.2 440.316923 
L 320.175 444.032308 
L 327.15 445.970769 
L 334.125 460.347692 
L 341.1 460.186154 
L 348.075 454.209231 
L 355.05 464.224615 
L 362.025 469.232308 
L 369 467.778462 
L 375.975 478.116923 
L 382.95 476.501538 
L 389.925 487.970769 
L 396.9 491.686154 
L 403.875 493.947692 
L 410.85 498.309231 
L 417.825 503.801538 
L 424.8 500.570769 
L 431.775 508.486154 
L 438.75 506.386154 
L 445.725 516.24 
L 452.7 514.786154 
L 459.675 513.655385 
L 466.65 519.470769 
L 473.625 516.563077 
L 480.6 519.470769 
L 487.575 514.301538 
L 494.55 521.732308 
L 501.525 524.316923 
L 508.5 525.932308 
L 515.475 519.309231 
L 522.45 527.386154 
L 529.425 527.224615 
L 536.4 526.74 
L 543.375 523.993846 
L 550.35 524.478462 
L 557.325 527.063077 
L 564.3 526.416923 
L 571.275 527.063077 
L 578.25 527.386154 
L 585.225 529.324615 
L 592.2 528.516923 
L 599.175 531.424615 
L 606.15 535.14 
L 613.125 538.370769 
L 620.1 539.824615 
L 627.075 541.44 
L 634.05 542.732308 
L 641.025 546.447692 
L 648 546.447692 
L 654.975 549.032308 
L 661.95 546.770769 
L 668.925 547.255385 
L 675.9 549.193846 
L 689.85 550.163077 
L 696.825 550.001538 
L 703.8 550.324615 
L 710.775 552.101538 
L 721 551.154309 
L 721 551.154309 
" clip-path="url(#pb45f366450)" style="fill: none; stroke-dasharray: 5.55,2.4; stroke-dashoffset: 0; stroke: #2c7bb6; stroke-width: 1.5"/>
   </g>
   <g id="patch_3">
    <path d="M 90 576.72 
L 90 77.76 
" style="fill: none; stroke: #000000; stroke-width: 0.8; stroke-linejoin: miter; stroke-linecap: square"/>
   </g>
   <g id="patch_4">
    <path d="M 648 576.72 
L 648 77.76 
" style="fill: none; stroke: #000000; stroke-width: 0.8; stroke-linejoin: miter; stroke-linecap: square"/>
   </g>
   <g id="patch_5">
    <path d="M 90 576.72 
L 648 576.72 
" style="fill: none; stroke: #000000; stroke-width: 0.8; stroke-linejoin: miter; stroke-linecap: square"/>
   </g>
   <g id="patch_6">
    <path d="M 90 77.76 
L 648 77.76 
" style="fill: none; stroke: #000000; stroke-width: 0.8; stroke-linejoin: miter; stroke-linecap: square"/>
   </g>
   <g id="legend_1">
    <g id="patch_7">
     <path d="M 535.370312 173.82875 
L 641 173.82875 
Q 643 173.82875 643 171.82875 
L 643 84.76 
Q 643 82.76 641 82.76 
L 535.370312 82.76 
Q 533.370312 82.76 533.370312 84.76 
L 533.370312 171.82875 
Q 533.370312 173.82875 535.370312 173.82875 
z
" style="fill: #ffffff; opacity: 0.8; stroke: #cccccc; stroke-linejoin: miter"/>
    </g>
    <g id="line2d_22">
     <path d="M 537.370312 90.858438 
L 547.370312 90.858438 
L 557.370312 90.858438 
" style="fill: none; stroke: #000000; stroke-width: 1.5; stroke-linecap: square"/>
    </g>
    <g id="text_18">
     <!-- Original Image -->
     <g transform="translate(565.370312 94.358438) scale(0.1 -0.1)">
      <defs>
       <path id="DejaVuSans-4f" d="M 2522 4238 
Q 1834 4238 1429 3725 
Q 1025 3213 1025 2328 
Q 1025 1447 1429 934 
Q 1834 422 2522 422 
Q 3209 422 3611 934 
Q 4013 1447 4013 2328 
Q 4013 3213 3611 3725 
Q 3209 4238 2522 4238 
z
M 2522 4750 
Q 3503 4750 4090 4092 
Q 4678 3434 4678 2328 
Q 4678 1225 4090 567 
Q 3503 -91 2522 -91 
Q 1538 -91 948 565 
Q 359 1222 359 2328 
Q 359 3434 948 4092 
Q 1538 4750 2522 4750 
z
" transform="scale(0.015625)"/>
       <path id="DejaVuSans-67" d="M 2906 1791 
Q 2906 2416 2648 2759 
Q 2391 3103 1925 3103 
Q 1463 3103 1205 2759 
Q 947 2416 947 1791 
Q 947 1169 1205 825 
Q 1463 481 1925 481 
Q 2391 481 2648 825 
Q 2906 1169 2906 1791 
z
M 3481 434 
Q 3481 -459 3084 -895 
Q 2688 -1331 1869 -1331 
Q 1566 -1331 1297 -1286 
Q 1028 -1241 775 -1147 
L 775 -588 
Q 1028 -725 1275 -790 
Q 1522 -856 1778 -856 
Q 2344 -856 2625 -561 
Q 2906 -266 2906 331 
L 2906 616 
Q 2728 306 2450 153 
Q 2172 0 1784 0 
Q 1141 0 747 490 
Q 353 981 353 1791 
Q 353 2603 747 3093 
Q 1141 3584 1784 3584 
Q 2172 3584 2450 3431 
Q 2728 3278 2906 2969 
L 2906 3500 
L 3481 3500 
L 3481 434 
z
" transform="scale(0.015625)"/>
       <path id="DejaVuSans-61" d="M 2194 1759 
Q 1497 1759 1228 1600 
Q 959 1441 959 1056 
Q 959 750 1161 570 
Q 1363 391 1709 391 
Q 2188 391 2477 730 
Q 2766 1069 2766 1631 
L 2766 1759 
L 2194 1759 
z
M 3341 1997 
L 3341 0 
L 2766 0 
L 2766 531 
Q 2569 213 2275 61 
Q 1981 -91 1556 -91 
Q 1019 -91 701 211 
Q 384 513 384 1019 
Q 384 1609 779 1909 
Q 1175 2209 1959 2209 
L 2766 2209 
L 2766 2266 
Q 2766 2663 2505 2880 
Q 2244 3097 1772 3097 
Q 1472 3097 1187 3025 
Q 903 2953 641 2809 
L 641 3341 
Q 956 3463 1253 3523 
Q 1550 3584 1831 3584 
Q 2591 3584 2966 3190 
Q 3341 2797 3341 1997 
z
" transform="scale(0.015625)"/>
       <path id="DejaVuSans-6d" d="M 3328 2828 
Q 3544 3216 3844 3400 
Q 4144 3584 4550 3584 
Q 5097 3584 5394 3201 
Q 5691 2819 5691 2113 
L 5691 0 
L 5113 0 
L 5113 2094 
Q 5113 2597 4934 2840 
Q 4756 3084 4391 3084 
Q 3944 3084 3684 2787 
Q 3425 2491 3425 1978 
L 3425 0 
L 2847 0 
L 2847 2094 
Q 2847 2600 2669 2842 
Q 2491 3084 2119 3084 
Q 1678 3084 1418 2786 
Q 1159 2488 1159 1978 
L 1159 0 
L 581 0 
L 581 3500 
L 1159 3500 
L 1159 2956 
Q 1356 3278 1631 3431 
Q 1906 3584 2284 3584 
Q 2666 3584 2933 3390 
Q 3200 3197 3328 2828 
z
" transform="scale(0.015625)"/>
      </defs>
      <use xlink:href="#DejaVuSans-4f"/>
      <use xlink:href="#DejaVuSans-72" x="78.710938"/>
      <use xlink:href="#DejaVuSans-69" x="119.824219"/>
      <use xlink:href="#DejaVuSans-67" x="147.607422"/>
      <use xlink:href="#DejaVuSans-69" x="211.083984"/>
      <use xlink:href="#DejaVuSans-6e" x="238.867188"/>
      <use xlink:href="#DejaVuSans-61" x="302.246094"/>
      <use xlink:href="#DejaVuSans-6c" x="363.525391"/>
      <use xlink:href="#DejaVuSans-20" x="391.308594"/>
      <use xlink:href="#DejaVuSans-49" x="423.095703"/>
      <use xlink:href="#DejaVuSans-6d" x="452.587891"/>
      <use xlink:href="#DejaVuSans-61" x="550"/>
      <use xlink:href="#DejaVuSans-67" x="611.279297"/>
      <use xlink:href="#DejaVuSans-65" x="674.755859"/>
     </g>
    </g>
    <g id="line2d_23">
     <path d="M 537.370312 105.536563 
L 547.370312 105.536563 
L 557.370312 105.536563 
" style="fill: none; stroke-dasharray: 5.55,2.4; stroke-dashoffset: 0; stroke: #d7191c; stroke-width: 1.5"/>
    </g>
    <g id="text_19">
     <!-- 0 Pixels -->
     <g transform="translate(565.370312 109.036563) scale(0.1 -0.1)">
      <use xlink:href="#DejaVuSans-30"/>
      <use xlink:href="#DejaVuSans-20" x="63.623047"/>
      <use xlink:href="#DejaVuSans-50" x="95.410156"/>
      <use xlink:href="#DejaVuSans-69" x="153.462891"/>
      <use xlink:href="#DejaVuSans-78" x="181.246094"/>
      <use xlink:href="#DejaVuSans-65" x="237.300781"/>
      <use xlink:href="#DejaVuSans-6c" x="298.824219"/>
      <use xlink:href="#DejaVuSans-73" x="326.607422"/>
     </g>
    </g>
    <g id="line2d_24">
     <path d="M 537.370312 120.214688 
L 547.370312 120.214688 
L 557.370312 120.214688 
" style="fill: none; stroke-dasharray: 5.55,2.4; stroke-dashoffset: 0; stroke: #fdae61; stroke-width: 1.5"/>
    </g>
    <g id="text_20">
     <!-- 2 Pixels -->
     <g transform="translate(565.370312 123.714688) scale(0.1 -0.1)">
      <use xlink:href="#DejaVuSans-32"/>
      <use xlink:href="#DejaVuSans-20" x="63.623047"/>
      <use xlink:href="#DejaVuSans-50" x="95.410156"/>
      <use xlink:href="#DejaVuSans-69" x="153.462891"/>
      <use xlink:href="#DejaVuSans-78" x="181.246094"/>
      <use xlink:href="#DejaVuSans-65" x="237.300781"/>
      <use xlink:href="#DejaVuSans-6c" x="298.824219"/>
      <use xlink:href="#DejaVuSans-73" x="326.607422"/>
     </g>
    </g>
    <g id="line2d_25">
     <path d="M 537.370312 134.892813 
L 547.370312 134.892813 
L 557.370312 134.892813 
" style="fill: none; stroke-dasharray: 5.55,2.4; stroke-dashoffset: 0; stroke: #ffffbf; stroke-width: 1.5"/>
    </g>
    <g id="text_21">
     <!-- 4 Pixels -->
     <g transform="translate(565.370312 138.392813) scale(0.1 -0.1)">
      <use xlink:href="#DejaVuSans-34"/>
      <use xlink:href="#DejaVuSans-20" x="63.623047"/>
      <use xlink:href="#DejaVuSans-50" x="95.410156"/>
      <use xlink:href="#DejaVuSans-69" x="153.462891"/>
      <use xlink:href="#DejaVuSans-78" x="181.246094"/>
      <use xlink:href="#DejaVuSans-65" x="237.300781"/>
      <use xlink:href="#DejaVuSans-6c" x="298.824219"/>
      <use xlink:href="#DejaVuSans-73" x="326.607422"/>
     </g>
    </g>
    <g id="line2d_26">
     <path d="M 537.370312 149.570938 
L 547.370312 149.570938 
L 557.370312 149.570938 
" style="fill: none; stroke-dasharray: 5.55,2.4; stroke-dashoffset: 0; stroke: #abd9e9; stroke-width: 1.5"/>
    </g>
    <g id="text_22">
     <!-- 6 Pixels -->
     <g transform="translate(565.370312 153.070938) scale(0.1 -0.1)">
      <use xlink:href="#DejaVuSans-36"/>
      <use xlink:href="#DejaVuSans-20" x="63.623047"/>
      <use xlink:href="#DejaVuSans-50" x="95.410156"/>
      <use xlink:href="#DejaVuSans-69" x="153.462891"/>
      <use xlink:href="#DejaVuSans-78" x="181.246094"/>
      <use xlink:href="#DejaVuSans-65" x="237.300781"/>
      <use xlink:href="#DejaVuSans-6c" x="298.824219"/>
      <use xlink:href="#DejaVuSans-73" x="326.607422"/>
     </g>
    </g>
    <g id="line2d_27">
     <path d="M 537.370312 164.249063 
L 547.370312 164.249063 
L 557.370312 164.249063 
" style="fill: none; stroke-dasharray: 5.55,2.4; stroke-dashoffset: 0; stroke: #2c7bb6; stroke-width: 1.5"/>
    </g>
    <g id="text_23">
     <!-- 8 Pixels -->
     <g transform="translate(565.370312 167.749063) scale(0.1 -0.1)">
      <use xlink:href="#DejaVuSans-38"/>
      <use xlink:href="#DejaVuSans-20" x="63.623047"/>
      <use xlink:href="#DejaVuSans-50" x="95.410156"/>
      <use xlink:href="#DejaVuSans-69" x="153.462891"/>
      <use xlink:href="#DejaVuSans-78" x="181.246094"/>
      <use xlink:href="#DejaVuSans-65" x="237.300781"/>
      <use xlink:href="#DejaVuSans-6c" x="298.824219"/>
      <use xlink:href="#DejaVuSans-73" x="326.607422"/>
     </g>
    </g>
   </g>
  </g>
 </g>
 <defs>
  <clipPath id="pb45f366450">
   <rect x="90" y="77.76" width="558" height="498.96"/>
  </clipPath>
 </defs>
</svg>
