<?xml version="1.0" encoding="utf-8" standalone="no"?>
<!DOCTYPE svg PUBLIC "-//W3C//DTD SVG 1.1//EN"
  "http://www.w3.org/Graphics/SVG/1.1/DTD/svg11.dtd">
<svg xmlns:xlink="http://www.w3.org/1999/xlink" width="288pt" height="648pt" viewBox="0 0 288 648" xmlns="http://www.w3.org/2000/svg" version="1.1">
 <metadata>
  <rdf:RDF xmlns:dc="http://purl.org/dc/elements/1.1/" xmlns:cc="http://creativecommons.org/ns#" xmlns:rdf="http://www.w3.org/1999/02/22-rdf-syntax-ns#">
   <cc:Work>
    <dc:type rdf:resource="http://purl.org/dc/dcmitype/StillImage"/>
    <dc:date>2023-11-18T15:20:02.733088</dc:date>
    <dc:format>image/svg+xml</dc:format>
    <dc:creator>
     <cc:Agent>
      <dc:title>Matplotlib v3.8.0, https://matplotlib.org/</dc:title>
     </cc:Agent>
    </dc:creator>
   </cc:Work>
  </rdf:RDF>
 </metadata>
 <defs>
  <style type="text/css">*{stroke-linejoin: round; stroke-linecap: butt}</style>
 </defs>
 <g id="figure_1">
  <g id="patch_1">
   <path d="M 0 648 
L 288 648 
L 288 0 
L 0 0 
z
" style="fill: #ffffff"/>
  </g>
  <g id="axes_1">
   <g id="patch_2">
    <path d="M 57.17 190.626667 
L 272.721328 190.626667 
L 272.721328 10.8 
L 57.17 10.8 
z
" style="fill: #ffffff"/>
   </g>
   <g id="PolyCollection_1">
    <defs>
     <path id="m15b8ad8567" d="M 57.17 -457.373333 
L 57.17 -457.373333 
L 58.011997 -457.373333 
L 58.853995 -457.373333 
L 59.695992 -457.373333 
L 60.53799 -457.373333 
L 61.379987 -457.373333 
L 62.221984 -457.373333 
L 63.063982 -457.373333 
L 63.905979 -457.373333 
L 64.747976 -457.373333 
L 65.589974 -457.373333 
L 66.431971 -457.373333 
L 67.273969 -457.373333 
L 68.115966 -457.373333 
L 68.957963 -457.373333 
L 69.799961 -457.373333 
L 70.641958 -457.373333 
L 71.483955 -457.373333 
L 72.325953 -457.373333 
L 73.16795 -457.373333 
L 74.009948 -457.373333 
L 74.851945 -457.373333 
L 75.693942 -457.373333 
L 76.53594 -457.373333 
L 77.377937 -457.373333 
L 78.219934 -457.373333 
L 79.061932 -457.373333 
L 79.903929 -457.373333 
L 80.745927 -457.373333 
L 81.587924 -457.373333 
L 82.429921 -457.373333 
L 83.271919 -457.373333 
L 84.113916 -457.373333 
L 84.955913 -457.373333 
L 85.797911 -457.373333 
L 86.639908 -457.373333 
L 87.481906 -457.373333 
L 88.323903 -457.373333 
L 89.1659 -457.373333 
L 90.007898 -457.373333 
L 90.849895 -457.373333 
L 91.691892 -457.373333 
L 92.53389 -457.373333 
L 93.375887 -457.373333 
L 94.217885 -457.373333 
L 95.059882 -457.373333 
L 95.901879 -457.373333 
L 96.743877 -457.373333 
L 97.585874 -457.373333 
L 98.427871 -457.373333 
L 99.269869 -457.373333 
L 100.111866 -457.373333 
L 100.953864 -457.373333 
L 101.795861 -457.373333 
L 102.637858 -457.373333 
L 103.479856 -457.373333 
L 104.321853 -457.373333 
L 105.16385 -457.373333 
L 106.005848 -457.373333 
L 106.847845 -457.373333 
L 107.689843 -457.373333 
L 108.53184 -457.373333 
L 109.373837 -457.373333 
L 110.215835 -457.373333 
L 111.057832 -457.373333 
L 111.899829 -457.373333 
L 112.741827 -457.373333 
L 113.583824 -457.373333 
L 114.425822 -457.373333 
L 115.267819 -457.418459 
L 116.109816 -457.373333 
L 116.951814 -457.508711 
L 117.793811 -457.418459 
L 118.635808 -457.508711 
L 119.477806 -457.463585 
L 120.319803 -457.824592 
L 121.161801 -457.824592 
L 122.003798 -458.005096 
L 122.845795 -458.005096 
L 123.687793 -458.636858 
L 124.52979 -458.501481 
L 125.371787 -459.088117 
L 126.213785 -458.72711 
L 127.055782 -459.900383 
L 127.89778 -459.313747 
L 128.739777 -460.035761 
L 129.581774 -460.126013 
L 130.423772 -460.26139 
L 131.265769 -460.126013 
L 132.107766 -460.983404 
L 132.949764 -461.02853 
L 133.791761 -460.126013 
L 134.633759 -460.983404 
L 135.475756 -460.351642 
L 136.317753 -460.532146 
L 137.159751 -460.035761 
L 138.001748 -460.396768 
L 138.843745 -460.757775 
L 139.685743 -460.848027 
L 140.52774 -460.893153 
L 141.369738 -461.524915 
L 142.211735 -461.840796 
L 143.053732 -461.750545 
L 143.89573 -463.104321 
L 144.737727 -462.427433 
L 145.579724 -462.878692 
L 146.421722 -463.239699 
L 147.263719 -464.006839 
L 148.105717 -464.097091 
L 148.947714 -463.645832 
L 149.789711 -462.968944 
L 150.631709 -464.277594 
L 151.473706 -463.736084 
L 152.315703 -463.239699 
L 153.157701 -464.187343 
L 153.999698 -463.736084 
L 154.841696 -464.142217 
L 155.683693 -464.683727 
L 156.52569 -463.375077 
L 157.367688 -464.187343 
L 158.209685 -464.728853 
L 159.051682 -465.31549 
L 159.89368 -464.412972 
L 160.735677 -466.08263 
L 161.577675 -466.624141 
L 162.419672 -466.894896 
L 163.261669 -465.902126 
L 164.103667 -466.940022 
L 164.945664 -466.624141 
L 165.787661 -467.61691 
L 166.629659 -466.218008 
L 167.471656 -466.263133 
L 168.313654 -467.571784 
L 169.155651 -465.134986 
L 169.997648 -467.977917 
L 170.839646 -468.429176 
L 171.681643 -467.481532 
L 172.52364 -467.61691 
L 173.365638 -467.662036 
L 174.207635 -469.060939 
L 175.049633 -469.196316 
L 175.89163 -469.37682 
L 176.733627 -468.835309 
L 177.575625 -467.526658 
L 178.417622 -469.286568 
L 179.259619 -469.557323 
L 180.101617 -470.234212 
L 180.943614 -471.181855 
L 181.785612 -470.685471 
L 182.627609 -469.873205 
L 183.469606 -470.9111 
L 184.311604 -472.084373 
L 185.153601 -471.226981 
L 185.995598 -471.948995 
L 186.837596 -471.587988 
L 187.679593 -471.994121 
L 188.521591 -470.640345 
L 189.363588 -472.219751 
L 190.205585 -471.542862 
L 191.047583 -472.400254 
L 191.88958 -472.264877 
L 192.731577 -471.542862 
L 193.573575 -471.633114 
L 194.415572 -470.685471 
L 195.25757 -471.091604 
L 196.099567 -472.355128 
L 196.941564 -473.167394 
L 197.783562 -472.67101 
L 198.625559 -472.580758 
L 199.467556 -472.084373 
L 200.309554 -473.077143 
L 201.151551 -473.032017 
L 201.993549 -473.032017 
L 202.835546 -473.618653 
L 203.677543 -472.400254 
L 204.519541 -472.851513 
L 205.361538 -474.340668 
L 206.203535 -472.264877 
L 207.045533 -473.167394 
L 207.88753 -475.198059 
L 208.729528 -473.43815 
L 209.571525 -473.077143 
L 210.413522 -472.580758 
L 211.25552 -472.986891 
L 212.097517 -473.573527 
L 212.939514 -473.573527 
L 213.781512 -472.986891 
L 214.623509 -474.791926 
L 215.465507 -473.483276 
L 216.307504 -472.084373 
L 217.149501 -470.685471 
L 217.991499 -472.44538 
L 218.833496 -469.782953 
L 219.675493 -471.858744 
L 220.517491 -471.587988 
L 221.359488 -471.67824 
L 222.201486 -471.452611 
L 223.043483 -471.90387 
L 223.88548 -471.497737 
L 224.727478 -470.053708 
L 225.569475 -471.136729 
L 226.411472 -468.925561 
L 227.25347 -469.963456 
L 228.095467 -470.595219 
L 228.937465 -469.467072 
L 229.779462 -470.279338 
L 230.621459 -468.068169 
L 231.463457 -469.196316 
L 232.305454 -469.512197 
L 233.147451 -469.37682 
L 233.989449 -467.797414 
L 234.831446 -467.932791 
L 235.673444 -468.113295 
L 236.515441 -466.579015 
L 237.357438 -468.745057 
L 238.199436 -467.571784 
L 239.041433 -466.759518 
L 239.88343 -467.752288 
L 240.725428 -466.940022 
L 241.567425 -466.669266 
L 242.409423 -468.474302 
L 243.25142 -467.481532 
L 244.093417 -467.84254 
L 244.935415 -467.752288 
L 245.777412 -467.571784 
L 246.619409 -469.467072 
L 247.461407 -468.293798 
L 248.303404 -468.60968 
L 249.145402 -469.106064 
L 249.987399 -469.692701 
L 250.829396 -469.15119 
L 251.671394 -468.60968 
L 252.513391 -470.865974 
L 253.355388 -469.828079 
L 254.197386 -471.497737 
L 255.039383 -469.963456 
L 255.881381 -471.90387 
L 256.723378 -471.362359 
L 257.565375 -472.580758 
L 258.407373 -473.393024 
L 259.24937 -474.837052 
L 260.091367 -474.656549 
L 260.933365 -475.198059 
L 261.775362 -478.26662 
L 262.61736 -481.425432 
L 263.459357 -484.042734 
L 264.301354 -487.291798 
L 265.143352 -494.241184 
L 265.985349 -501.86746 
L 266.827346 -511.343896 
L 267.669344 -522.399739 
L 268.511341 -527.679468 
L 269.353339 -518.834794 
L 270.195336 -504.078628 
L 271.037333 -478.672753 
L 271.879331 -462.878692 
L 271.879331 -457.373333 
L 271.879331 -457.373333 
L 271.037333 -457.373333 
L 270.195336 -457.373333 
L 269.353339 -457.373333 
L 268.511341 -457.373333 
L 267.669344 -457.373333 
L 266.827346 -457.373333 
L 265.985349 -457.373333 
L 265.143352 -457.373333 
L 264.301354 -457.373333 
L 263.459357 -457.373333 
L 262.61736 -457.373333 
L 261.775362 -457.373333 
L 260.933365 -457.373333 
L 260.091367 -457.373333 
L 259.24937 -457.373333 
L 258.407373 -457.373333 
L 257.565375 -457.373333 
L 256.723378 -457.373333 
L 255.881381 -457.373333 
L 255.039383 -457.373333 
L 254.197386 -457.373333 
L 253.355388 -457.373333 
L 252.513391 -457.373333 
L 251.671394 -457.373333 
L 250.829396 -457.373333 
L 249.987399 -457.373333 
L 249.145402 -457.373333 
L 248.303404 -457.373333 
L 247.461407 -457.373333 
L 246.619409 -457.373333 
L 245.777412 -457.373333 
L 244.935415 -457.373333 
L 244.093417 -457.373333 
L 243.25142 -457.373333 
L 242.409423 -457.373333 
L 241.567425 -457.373333 
L 240.725428 -457.373333 
L 239.88343 -457.373333 
L 239.041433 -457.373333 
L 238.199436 -457.373333 
L 237.357438 -457.373333 
L 236.515441 -457.373333 
L 235.673444 -457.373333 
L 234.831446 -457.373333 
L 233.989449 -457.373333 
L 233.147451 -457.373333 
L 232.305454 -457.373333 
L 231.463457 -457.373333 
L 230.621459 -457.373333 
L 229.779462 -457.373333 
L 228.937465 -457.373333 
L 228.095467 -457.373333 
L 227.25347 -457.373333 
L 226.411472 -457.373333 
L 225.569475 -457.373333 
L 224.727478 -457.373333 
L 223.88548 -457.373333 
L 223.043483 -457.373333 
L 222.201486 -457.373333 
L 221.359488 -457.373333 
L 220.517491 -457.373333 
L 219.675493 -457.373333 
L 218.833496 -457.373333 
L 217.991499 -457.373333 
L 217.149501 -457.373333 
L 216.307504 -457.373333 
L 215.465507 -457.373333 
L 214.623509 -457.373333 
L 213.781512 -457.373333 
L 212.939514 -457.373333 
L 212.097517 -457.373333 
L 211.25552 -457.373333 
L 210.413522 -457.373333 
L 209.571525 -457.373333 
L 208.729528 -457.373333 
L 207.88753 -457.373333 
L 207.045533 -457.373333 
L 206.203535 -457.373333 
L 205.361538 -457.373333 
L 204.519541 -457.373333 
L 203.677543 -457.373333 
L 202.835546 -457.373333 
L 201.993549 -457.373333 
L 201.151551 -457.373333 
L 200.309554 -457.373333 
L 199.467556 -457.373333 
L 198.625559 -457.373333 
L 197.783562 -457.373333 
L 196.941564 -457.373333 
L 196.099567 -457.373333 
L 195.25757 -457.373333 
L 194.415572 -457.373333 
L 193.573575 -457.373333 
L 192.731577 -457.373333 
L 191.88958 -457.373333 
L 191.047583 -457.373333 
L 190.205585 -457.373333 
L 189.363588 -457.373333 
L 188.521591 -457.373333 
L 187.679593 -457.373333 
L 186.837596 -457.373333 
L 185.995598 -457.373333 
L 185.153601 -457.373333 
L 184.311604 -457.373333 
L 183.469606 -457.373333 
L 182.627609 -457.373333 
L 181.785612 -457.373333 
L 180.943614 -457.373333 
L 180.101617 -457.373333 
L 179.259619 -457.373333 
L 178.417622 -457.373333 
L 177.575625 -457.373333 
L 176.733627 -457.373333 
L 175.89163 -457.373333 
L 175.049633 -457.373333 
L 174.207635 -457.373333 
L 173.365638 -457.373333 
L 172.52364 -457.373333 
L 171.681643 -457.373333 
L 170.839646 -457.373333 
L 169.997648 -457.373333 
L 169.155651 -457.373333 
L 168.313654 -457.373333 
L 167.471656 -457.373333 
L 166.629659 -457.373333 
L 165.787661 -457.373333 
L 164.945664 -457.373333 
L 164.103667 -457.373333 
L 163.261669 -457.373333 
L 162.419672 -457.373333 
L 161.577675 -457.373333 
L 160.735677 -457.373333 
L 159.89368 -457.373333 
L 159.051682 -457.373333 
L 158.209685 -457.373333 
L 157.367688 -457.373333 
L 156.52569 -457.373333 
L 155.683693 -457.373333 
L 154.841696 -457.373333 
L 153.999698 -457.373333 
L 153.157701 -457.373333 
L 152.315703 -457.373333 
L 151.473706 -457.373333 
L 150.631709 -457.373333 
L 149.789711 -457.373333 
L 148.947714 -457.373333 
L 148.105717 -457.373333 
L 147.263719 -457.373333 
L 146.421722 -457.373333 
L 145.579724 -457.373333 
L 144.737727 -457.373333 
L 143.89573 -457.373333 
L 143.053732 -457.373333 
L 142.211735 -457.373333 
L 141.369738 -457.373333 
L 140.52774 -457.373333 
L 139.685743 -457.373333 
L 138.843745 -457.373333 
L 138.001748 -457.373333 
L 137.159751 -457.373333 
L 136.317753 -457.373333 
L 135.475756 -457.373333 
L 134.633759 -457.373333 
L 133.791761 -457.373333 
L 132.949764 -457.373333 
L 132.107766 -457.373333 
L 131.265769 -457.373333 
L 130.423772 -457.373333 
L 129.581774 -457.373333 
L 128.739777 -457.373333 
L 127.89778 -457.373333 
L 127.055782 -457.373333 
L 126.213785 -457.373333 
L 125.371787 -457.373333 
L 124.52979 -457.373333 
L 123.687793 -457.373333 
L 122.845795 -457.373333 
L 122.003798 -457.373333 
L 121.161801 -457.373333 
L 120.319803 -457.373333 
L 119.477806 -457.373333 
L 118.635808 -457.373333 
L 117.793811 -457.373333 
L 116.951814 -457.373333 
L 116.109816 -457.373333 
L 115.267819 -457.373333 
L 114.425822 -457.373333 
L 113.583824 -457.373333 
L 112.741827 -457.373333 
L 111.899829 -457.373333 
L 111.057832 -457.373333 
L 110.215835 -457.373333 
L 109.373837 -457.373333 
L 108.53184 -457.373333 
L 107.689843 -457.373333 
L 106.847845 -457.373333 
L 106.005848 -457.373333 
L 105.16385 -457.373333 
L 104.321853 -457.373333 
L 103.479856 -457.373333 
L 102.637858 -457.373333 
L 101.795861 -457.373333 
L 100.953864 -457.373333 
L 100.111866 -457.373333 
L 99.269869 -457.373333 
L 98.427871 -457.373333 
L 97.585874 -457.373333 
L 96.743877 -457.373333 
L 95.901879 -457.373333 
L 95.059882 -457.373333 
L 94.217885 -457.373333 
L 93.375887 -457.373333 
L 92.53389 -457.373333 
L 91.691892 -457.373333 
L 90.849895 -457.373333 
L 90.007898 -457.373333 
L 89.1659 -457.373333 
L 88.323903 -457.373333 
L 87.481906 -457.373333 
L 86.639908 -457.373333 
L 85.797911 -457.373333 
L 84.955913 -457.373333 
L 84.113916 -457.373333 
L 83.271919 -457.373333 
L 82.429921 -457.373333 
L 81.587924 -457.373333 
L 80.745927 -457.373333 
L 79.903929 -457.373333 
L 79.061932 -457.373333 
L 78.219934 -457.373333 
L 77.377937 -457.373333 
L 76.53594 -457.373333 
L 75.693942 -457.373333 
L 74.851945 -457.373333 
L 74.009948 -457.373333 
L 73.16795 -457.373333 
L 72.325953 -457.373333 
L 71.483955 -457.373333 
L 70.641958 -457.373333 
L 69.799961 -457.373333 
L 68.957963 -457.373333 
L 68.115966 -457.373333 
L 67.273969 -457.373333 
L 66.431971 -457.373333 
L 65.589974 -457.373333 
L 64.747976 -457.373333 
L 63.905979 -457.373333 
L 63.063982 -457.373333 
L 62.221984 -457.373333 
L 61.379987 -457.373333 
L 60.53799 -457.373333 
L 59.695992 -457.373333 
L 58.853995 -457.373333 
L 58.011997 -457.373333 
L 57.17 -457.373333 
z
" style="stroke: #ff0000; stroke-opacity: 0.4"/>
    </defs>
    <g clip-path="url(#pafd43b1cd2)">
     <use xlink:href="#m15b8ad8567" x="0" y="648" style="fill: #ff0000; fill-opacity: 0.4; stroke: #ff0000; stroke-opacity: 0.4"/>
    </g>
   </g>
   <g id="matplotlib.axis_1">
    <g id="xtick_1">
     <g id="line2d_1">
      <defs>
       <path id="m137a105dcf" d="M 0 0 
L 0 3.5 
" style="stroke: #000000; stroke-width: 0.8"/>
      </defs>
      <g>
       <use xlink:href="#m137a105dcf" x="57.17" y="190.626667" style="stroke: #000000; stroke-width: 0.8"/>
      </g>
     </g>
     <g id="text_1">
      <!-- 0 -->
      <g transform="translate(53.98875 205.225104) scale(0.1 -0.1)">
       <defs>
        <path id="DejaVuSans-30" d="M 2034 4250 
Q 1547 4250 1301 3770 
Q 1056 3291 1056 2328 
Q 1056 1369 1301 889 
Q 1547 409 2034 409 
Q 2525 409 2770 889 
Q 3016 1369 3016 2328 
Q 3016 3291 2770 3770 
Q 2525 4250 2034 4250 
z
M 2034 4750 
Q 2819 4750 3233 4129 
Q 3647 3509 3647 2328 
Q 3647 1150 3233 529 
Q 2819 -91 2034 -91 
Q 1250 -91 836 529 
Q 422 1150 422 2328 
Q 422 3509 836 4129 
Q 1250 4750 2034 4750 
z
" transform="scale(0.015625)"/>
       </defs>
       <use xlink:href="#DejaVuSans-30"/>
      </g>
     </g>
    </g>
    <g id="xtick_2">
     <g id="line2d_2">
      <g>
       <use xlink:href="#m137a105dcf" x="99.269869" y="190.626667" style="stroke: #000000; stroke-width: 0.8"/>
      </g>
     </g>
     <g id="text_2">
      <!-- 50 -->
      <g transform="translate(92.907369 205.225104) scale(0.1 -0.1)">
       <defs>
        <path id="DejaVuSans-35" d="M 691 4666 
L 3169 4666 
L 3169 4134 
L 1269 4134 
L 1269 2991 
Q 1406 3038 1543 3061 
Q 1681 3084 1819 3084 
Q 2600 3084 3056 2656 
Q 3513 2228 3513 1497 
Q 3513 744 3044 326 
Q 2575 -91 1722 -91 
Q 1428 -91 1123 -41 
Q 819 9 494 109 
L 494 744 
Q 775 591 1075 516 
Q 1375 441 1709 441 
Q 2250 441 2565 725 
Q 2881 1009 2881 1497 
Q 2881 1984 2565 2268 
Q 2250 2553 1709 2553 
Q 1456 2553 1204 2497 
Q 953 2441 691 2322 
L 691 4666 
z
" transform="scale(0.015625)"/>
       </defs>
       <use xlink:href="#DejaVuSans-35"/>
       <use xlink:href="#DejaVuSans-30" x="63.623047"/>
      </g>
     </g>
    </g>
    <g id="xtick_3">
     <g id="line2d_3">
      <g>
       <use xlink:href="#m137a105dcf" x="141.369738" y="190.626667" style="stroke: #000000; stroke-width: 0.8"/>
      </g>
     </g>
     <g id="text_3">
      <!-- 100 -->
      <g transform="translate(131.825988 205.225104) scale(0.1 -0.1)">
       <defs>
        <path id="DejaVuSans-31" d="M 794 531 
L 1825 531 
L 1825 4091 
L 703 3866 
L 703 4441 
L 1819 4666 
L 2450 4666 
L 2450 531 
L 3481 531 
L 3481 0 
L 794 0 
L 794 531 
z
" transform="scale(0.015625)"/>
       </defs>
       <use xlink:href="#DejaVuSans-31"/>
       <use xlink:href="#DejaVuSans-30" x="63.623047"/>
       <use xlink:href="#DejaVuSans-30" x="127.246094"/>
      </g>
     </g>
    </g>
    <g id="xtick_4">
     <g id="line2d_4">
      <g>
       <use xlink:href="#m137a105dcf" x="183.469606" y="190.626667" style="stroke: #000000; stroke-width: 0.8"/>
      </g>
     </g>
     <g id="text_4">
      <!-- 150 -->
      <g transform="translate(173.925856 205.225104) scale(0.1 -0.1)">
       <use xlink:href="#DejaVuSans-31"/>
       <use xlink:href="#DejaVuSans-35" x="63.623047"/>
       <use xlink:href="#DejaVuSans-30" x="127.246094"/>
      </g>
     </g>
    </g>
    <g id="xtick_5">
     <g id="line2d_5">
      <g>
       <use xlink:href="#m137a105dcf" x="225.569475" y="190.626667" style="stroke: #000000; stroke-width: 0.8"/>
      </g>
     </g>
     <g id="text_5">
      <!-- 200 -->
      <g transform="translate(216.025725 205.225104) scale(0.1 -0.1)">
       <defs>
        <path id="DejaVuSans-32" d="M 1228 531 
L 3431 531 
L 3431 0 
L 469 0 
L 469 531 
Q 828 903 1448 1529 
Q 2069 2156 2228 2338 
Q 2531 2678 2651 2914 
Q 2772 3150 2772 3378 
Q 2772 3750 2511 3984 
Q 2250 4219 1831 4219 
Q 1534 4219 1204 4116 
Q 875 4013 500 3803 
L 500 4441 
Q 881 4594 1212 4672 
Q 1544 4750 1819 4750 
Q 2544 4750 2975 4387 
Q 3406 4025 3406 3419 
Q 3406 3131 3298 2873 
Q 3191 2616 2906 2266 
Q 2828 2175 2409 1742 
Q 1991 1309 1228 531 
z
" transform="scale(0.015625)"/>
       </defs>
       <use xlink:href="#DejaVuSans-32"/>
       <use xlink:href="#DejaVuSans-30" x="63.623047"/>
       <use xlink:href="#DejaVuSans-30" x="127.246094"/>
      </g>
     </g>
    </g>
    <g id="xtick_6">
     <g id="line2d_6">
      <g>
       <use xlink:href="#m137a105dcf" x="267.669344" y="190.626667" style="stroke: #000000; stroke-width: 0.8"/>
      </g>
     </g>
     <g id="text_6">
      <!-- 250 -->
      <g transform="translate(258.125594 205.225104) scale(0.1 -0.1)">
       <use xlink:href="#DejaVuSans-32"/>
       <use xlink:href="#DejaVuSans-35" x="63.623047"/>
       <use xlink:href="#DejaVuSans-30" x="127.246094"/>
      </g>
     </g>
    </g>
   </g>
   <g id="matplotlib.axis_2">
    <g id="ytick_1">
     <g id="line2d_7">
      <defs>
       <path id="m120af15b4c" d="M 0 0 
L -3.5 0 
" style="stroke: #000000; stroke-width: 0.8"/>
      </defs>
      <g>
       <use xlink:href="#m120af15b4c" x="57.17" y="190.626667" style="stroke: #000000; stroke-width: 0.8"/>
      </g>
     </g>
     <g id="text_7">
      <!-- 0 -->
      <g transform="translate(43.8075 194.425885) scale(0.1 -0.1)">
       <use xlink:href="#DejaVuSans-30"/>
      </g>
     </g>
    </g>
    <g id="ytick_2">
     <g id="line2d_8">
      <g>
       <use xlink:href="#m120af15b4c" x="57.17" y="168.063722" style="stroke: #000000; stroke-width: 0.8"/>
      </g>
     </g>
     <g id="text_8">
      <!-- 500 -->
      <g transform="translate(31.0825 171.862941) scale(0.1 -0.1)">
       <use xlink:href="#DejaVuSans-35"/>
       <use xlink:href="#DejaVuSans-30" x="63.623047"/>
       <use xlink:href="#DejaVuSans-30" x="127.246094"/>
      </g>
     </g>
    </g>
    <g id="ytick_3">
     <g id="line2d_9">
      <g>
       <use xlink:href="#m120af15b4c" x="57.17" y="145.500778" style="stroke: #000000; stroke-width: 0.8"/>
      </g>
     </g>
     <g id="text_9">
      <!-- 1000 -->
      <g transform="translate(24.72 149.299997) scale(0.1 -0.1)">
       <use xlink:href="#DejaVuSans-31"/>
       <use xlink:href="#DejaVuSans-30" x="63.623047"/>
       <use xlink:href="#DejaVuSans-30" x="127.246094"/>
       <use xlink:href="#DejaVuSans-30" x="190.869141"/>
      </g>
     </g>
    </g>
    <g id="ytick_4">
     <g id="line2d_10">
      <g>
       <use xlink:href="#m120af15b4c" x="57.17" y="122.937834" style="stroke: #000000; stroke-width: 0.8"/>
      </g>
     </g>
     <g id="text_10">
      <!-- 1500 -->
      <g transform="translate(24.72 126.737052) scale(0.1 -0.1)">
       <use xlink:href="#DejaVuSans-31"/>
       <use xlink:href="#DejaVuSans-35" x="63.623047"/>
       <use xlink:href="#DejaVuSans-30" x="127.246094"/>
       <use xlink:href="#DejaVuSans-30" x="190.869141"/>
      </g>
     </g>
    </g>
    <g id="ytick_5">
     <g id="line2d_11">
      <g>
       <use xlink:href="#m120af15b4c" x="57.17" y="100.374889" style="stroke: #000000; stroke-width: 0.8"/>
      </g>
     </g>
     <g id="text_11">
      <!-- 2000 -->
      <g transform="translate(24.72 104.174108) scale(0.1 -0.1)">
       <use xlink:href="#DejaVuSans-32"/>
       <use xlink:href="#DejaVuSans-30" x="63.623047"/>
       <use xlink:href="#DejaVuSans-30" x="127.246094"/>
       <use xlink:href="#DejaVuSans-30" x="190.869141"/>
      </g>
     </g>
    </g>
    <g id="ytick_6">
     <g id="line2d_12">
      <g>
       <use xlink:href="#m120af15b4c" x="57.17" y="77.811945" style="stroke: #000000; stroke-width: 0.8"/>
      </g>
     </g>
     <g id="text_12">
      <!-- 2500 -->
      <g transform="translate(24.72 81.611164) scale(0.1 -0.1)">
       <use xlink:href="#DejaVuSans-32"/>
       <use xlink:href="#DejaVuSans-35" x="63.623047"/>
       <use xlink:href="#DejaVuSans-30" x="127.246094"/>
       <use xlink:href="#DejaVuSans-30" x="190.869141"/>
      </g>
     </g>
    </g>
    <g id="ytick_7">
     <g id="line2d_13">
      <g>
       <use xlink:href="#m120af15b4c" x="57.17" y="55.249" style="stroke: #000000; stroke-width: 0.8"/>
      </g>
     </g>
     <g id="text_13">
      <!-- 3000 -->
      <g transform="translate(24.72 59.048219) scale(0.1 -0.1)">
       <defs>
        <path id="DejaVuSans-33" d="M 2597 2516 
Q 3050 2419 3304 2112 
Q 3559 1806 3559 1356 
Q 3559 666 3084 287 
Q 2609 -91 1734 -91 
Q 1441 -91 1130 -33 
Q 819 25 488 141 
L 488 750 
Q 750 597 1062 519 
Q 1375 441 1716 441 
Q 2309 441 2620 675 
Q 2931 909 2931 1356 
Q 2931 1769 2642 2001 
Q 2353 2234 1838 2234 
L 1294 2234 
L 1294 2753 
L 1863 2753 
Q 2328 2753 2575 2939 
Q 2822 3125 2822 3475 
Q 2822 3834 2567 4026 
Q 2313 4219 1838 4219 
Q 1578 4219 1281 4162 
Q 984 4106 628 3988 
L 628 4550 
Q 988 4650 1302 4700 
Q 1616 4750 1894 4750 
Q 2613 4750 3031 4423 
Q 3450 4097 3450 3541 
Q 3450 3153 3228 2886 
Q 3006 2619 2597 2516 
z
" transform="scale(0.015625)"/>
       </defs>
       <use xlink:href="#DejaVuSans-33"/>
       <use xlink:href="#DejaVuSans-30" x="63.623047"/>
       <use xlink:href="#DejaVuSans-30" x="127.246094"/>
       <use xlink:href="#DejaVuSans-30" x="190.869141"/>
      </g>
     </g>
    </g>
    <g id="ytick_8">
     <g id="line2d_14">
      <g>
       <use xlink:href="#m120af15b4c" x="57.17" y="32.686056" style="stroke: #000000; stroke-width: 0.8"/>
      </g>
     </g>
     <g id="text_14">
      <!-- 3500 -->
      <g transform="translate(24.72 36.485275) scale(0.1 -0.1)">
       <use xlink:href="#DejaVuSans-33"/>
       <use xlink:href="#DejaVuSans-35" x="63.623047"/>
       <use xlink:href="#DejaVuSans-30" x="127.246094"/>
       <use xlink:href="#DejaVuSans-30" x="190.869141"/>
      </g>
     </g>
    </g>
    <g id="text_15">
     <!-- Pixel Frequency -->
     <g transform="translate(18.640313 139.69224) rotate(-90) scale(0.1 -0.1)">
      <defs>
       <path id="DejaVuSans-50" d="M 1259 4147 
L 1259 2394 
L 2053 2394 
Q 2494 2394 2734 2622 
Q 2975 2850 2975 3272 
Q 2975 3691 2734 3919 
Q 2494 4147 2053 4147 
L 1259 4147 
z
M 628 4666 
L 2053 4666 
Q 2838 4666 3239 4311 
Q 3641 3956 3641 3272 
Q 3641 2581 3239 2228 
Q 2838 1875 2053 1875 
L 1259 1875 
L 1259 0 
L 628 0 
L 628 4666 
z
" transform="scale(0.015625)"/>
       <path id="DejaVuSans-69" d="M 603 3500 
L 1178 3500 
L 1178 0 
L 603 0 
L 603 3500 
z
M 603 4863 
L 1178 4863 
L 1178 4134 
L 603 4134 
L 603 4863 
z
" transform="scale(0.015625)"/>
       <path id="DejaVuSans-78" d="M 3513 3500 
L 2247 1797 
L 3578 0 
L 2900 0 
L 1881 1375 
L 863 0 
L 184 0 
L 1544 1831 
L 300 3500 
L 978 3500 
L 1906 2253 
L 2834 3500 
L 3513 3500 
z
" transform="scale(0.015625)"/>
       <path id="DejaVuSans-65" d="M 3597 1894 
L 3597 1613 
L 953 1613 
Q 991 1019 1311 708 
Q 1631 397 2203 397 
Q 2534 397 2845 478 
Q 3156 559 3463 722 
L 3463 178 
Q 3153 47 2828 -22 
Q 2503 -91 2169 -91 
Q 1331 -91 842 396 
Q 353 884 353 1716 
Q 353 2575 817 3079 
Q 1281 3584 2069 3584 
Q 2775 3584 3186 3129 
Q 3597 2675 3597 1894 
z
M 3022 2063 
Q 3016 2534 2758 2815 
Q 2500 3097 2075 3097 
Q 1594 3097 1305 2825 
Q 1016 2553 972 2059 
L 3022 2063 
z
" transform="scale(0.015625)"/>
       <path id="DejaVuSans-6c" d="M 603 4863 
L 1178 4863 
L 1178 0 
L 603 0 
L 603 4863 
z
" transform="scale(0.015625)"/>
       <path id="DejaVuSans-20" transform="scale(0.015625)"/>
       <path id="DejaVuSans-46" d="M 628 4666 
L 3309 4666 
L 3309 4134 
L 1259 4134 
L 1259 2759 
L 3109 2759 
L 3109 2228 
L 1259 2228 
L 1259 0 
L 628 0 
L 628 4666 
z
" transform="scale(0.015625)"/>
       <path id="DejaVuSans-72" d="M 2631 2963 
Q 2534 3019 2420 3045 
Q 2306 3072 2169 3072 
Q 1681 3072 1420 2755 
Q 1159 2438 1159 1844 
L 1159 0 
L 581 0 
L 581 3500 
L 1159 3500 
L 1159 2956 
Q 1341 3275 1631 3429 
Q 1922 3584 2338 3584 
Q 2397 3584 2469 3576 
Q 2541 3569 2628 3553 
L 2631 2963 
z
" transform="scale(0.015625)"/>
       <path id="DejaVuSans-71" d="M 947 1747 
Q 947 1113 1208 752 
Q 1469 391 1925 391 
Q 2381 391 2643 752 
Q 2906 1113 2906 1747 
Q 2906 2381 2643 2742 
Q 2381 3103 1925 3103 
Q 1469 3103 1208 2742 
Q 947 2381 947 1747 
z
M 2906 525 
Q 2725 213 2448 61 
Q 2172 -91 1784 -91 
Q 1150 -91 751 415 
Q 353 922 353 1747 
Q 353 2572 751 3078 
Q 1150 3584 1784 3584 
Q 2172 3584 2448 3432 
Q 2725 3281 2906 2969 
L 2906 3500 
L 3481 3500 
L 3481 -1331 
L 2906 -1331 
L 2906 525 
z
" transform="scale(0.015625)"/>
       <path id="DejaVuSans-75" d="M 544 1381 
L 544 3500 
L 1119 3500 
L 1119 1403 
Q 1119 906 1312 657 
Q 1506 409 1894 409 
Q 2359 409 2629 706 
Q 2900 1003 2900 1516 
L 2900 3500 
L 3475 3500 
L 3475 0 
L 2900 0 
L 2900 538 
Q 2691 219 2414 64 
Q 2138 -91 1772 -91 
Q 1169 -91 856 284 
Q 544 659 544 1381 
z
M 1991 3584 
L 1991 3584 
z
" transform="scale(0.015625)"/>
       <path id="DejaVuSans-6e" d="M 3513 2113 
L 3513 0 
L 2938 0 
L 2938 2094 
Q 2938 2591 2744 2837 
Q 2550 3084 2163 3084 
Q 1697 3084 1428 2787 
Q 1159 2491 1159 1978 
L 1159 0 
L 581 0 
L 581 3500 
L 1159 3500 
L 1159 2956 
Q 1366 3272 1645 3428 
Q 1925 3584 2291 3584 
Q 2894 3584 3203 3211 
Q 3513 2838 3513 2113 
z
" transform="scale(0.015625)"/>
       <path id="DejaVuSans-63" d="M 3122 3366 
L 3122 2828 
Q 2878 2963 2633 3030 
Q 2388 3097 2138 3097 
Q 1578 3097 1268 2742 
Q 959 2388 959 1747 
Q 959 1106 1268 751 
Q 1578 397 2138 397 
Q 2388 397 2633 464 
Q 2878 531 3122 666 
L 3122 134 
Q 2881 22 2623 -34 
Q 2366 -91 2075 -91 
Q 1284 -91 818 406 
Q 353 903 353 1747 
Q 353 2603 823 3093 
Q 1294 3584 2113 3584 
Q 2378 3584 2631 3529 
Q 2884 3475 3122 3366 
z
" transform="scale(0.015625)"/>
       <path id="DejaVuSans-79" d="M 2059 -325 
Q 1816 -950 1584 -1140 
Q 1353 -1331 966 -1331 
L 506 -1331 
L 506 -850 
L 844 -850 
Q 1081 -850 1212 -737 
Q 1344 -625 1503 -206 
L 1606 56 
L 191 3500 
L 800 3500 
L 1894 763 
L 2988 3500 
L 3597 3500 
L 2059 -325 
z
" transform="scale(0.015625)"/>
      </defs>
      <use xlink:href="#DejaVuSans-50"/>
      <use xlink:href="#DejaVuSans-69" x="58.052734"/>
      <use xlink:href="#DejaVuSans-78" x="85.835938"/>
      <use xlink:href="#DejaVuSans-65" x="141.890625"/>
      <use xlink:href="#DejaVuSans-6c" x="203.414062"/>
      <use xlink:href="#DejaVuSans-20" x="231.197266"/>
      <use xlink:href="#DejaVuSans-46" x="262.984375"/>
      <use xlink:href="#DejaVuSans-72" x="313.253906"/>
      <use xlink:href="#DejaVuSans-65" x="352.117188"/>
      <use xlink:href="#DejaVuSans-71" x="413.640625"/>
      <use xlink:href="#DejaVuSans-75" x="477.117188"/>
      <use xlink:href="#DejaVuSans-65" x="540.496094"/>
      <use xlink:href="#DejaVuSans-6e" x="602.019531"/>
      <use xlink:href="#DejaVuSans-63" x="665.398438"/>
      <use xlink:href="#DejaVuSans-79" x="720.378906"/>
     </g>
    </g>
   </g>
   <g id="line2d_15">
    <path d="M 57.17 190.626667 
L 116.109816 190.626667 
L 116.951814 190.491289 
L 117.793811 190.581541 
L 118.635808 190.491289 
L 119.477806 190.536415 
L 120.319803 190.175408 
L 121.161801 190.175408 
L 122.003798 189.994904 
L 122.845795 189.994904 
L 123.687793 189.363142 
L 124.52979 189.498519 
L 125.371787 188.911883 
L 126.213785 189.27289 
L 127.055782 188.099617 
L 127.89778 188.686253 
L 128.739777 187.964239 
L 130.423772 187.73861 
L 131.265769 187.873987 
L 132.107766 187.016596 
L 132.949764 186.97147 
L 133.791761 187.873987 
L 134.633759 187.016596 
L 135.475756 187.648358 
L 136.317753 187.467854 
L 137.159751 187.964239 
L 138.843745 187.242225 
L 140.52774 187.106847 
L 141.369738 186.475085 
L 142.211735 186.159204 
L 143.053732 186.249455 
L 143.89573 184.895679 
L 144.737727 185.572567 
L 146.421722 184.760301 
L 147.263719 183.993161 
L 148.105717 183.902909 
L 148.947714 184.354168 
L 149.789711 185.031056 
L 150.631709 183.722406 
L 152.315703 184.760301 
L 153.157701 183.812657 
L 153.999698 184.263916 
L 154.841696 183.857783 
L 155.683693 183.316273 
L 156.52569 184.624923 
L 157.367688 183.812657 
L 159.051682 182.68451 
L 159.89368 183.587028 
L 160.735677 181.91737 
L 161.577675 181.375859 
L 162.419672 181.105104 
L 163.261669 182.097874 
L 164.103667 181.059978 
L 164.945664 181.375859 
L 165.787661 180.38309 
L 166.629659 181.781992 
L 167.471656 181.736867 
L 168.313654 180.428216 
L 169.155651 182.865014 
L 169.997648 180.022083 
L 170.839646 179.570824 
L 171.681643 180.518468 
L 173.365638 180.337964 
L 174.207635 178.939061 
L 175.89163 178.62318 
L 176.733627 179.164691 
L 177.575625 180.473342 
L 178.417622 178.713432 
L 179.259619 178.442677 
L 180.101617 177.765788 
L 180.943614 176.818145 
L 181.785612 177.314529 
L 182.627609 178.126795 
L 184.311604 175.915627 
L 185.153601 176.773019 
L 185.995598 176.051005 
L 186.837596 176.412012 
L 187.679593 176.005879 
L 188.521591 177.359655 
L 189.363588 175.780249 
L 190.205585 176.457138 
L 191.047583 175.599746 
L 191.88958 175.735123 
L 192.731577 176.457138 
L 193.573575 176.366886 
L 194.415572 177.314529 
L 195.25757 176.908396 
L 196.099567 175.644872 
L 196.941564 174.832606 
L 197.783562 175.32899 
L 198.625559 175.419242 
L 199.467556 175.915627 
L 200.309554 174.922857 
L 201.993549 174.967983 
L 202.835546 174.381347 
L 203.677543 175.599746 
L 204.519541 175.148487 
L 205.361538 173.659332 
L 206.203535 175.735123 
L 207.045533 174.832606 
L 207.88753 172.801941 
L 208.729528 174.56185 
L 209.571525 174.922857 
L 210.413522 175.419242 
L 211.25552 175.013109 
L 212.097517 174.426473 
L 212.939514 174.426473 
L 213.781512 175.013109 
L 214.623509 173.208074 
L 217.149501 177.314529 
L 217.991499 175.55462 
L 218.833496 178.217047 
L 219.675493 176.141256 
L 220.517491 176.412012 
L 221.359488 176.32176 
L 222.201486 176.547389 
L 223.043483 176.09613 
L 223.88548 176.502263 
L 224.727478 177.946292 
L 225.569475 176.863271 
L 226.411472 179.074439 
L 227.25347 178.036544 
L 228.095467 177.404781 
L 228.937465 178.532928 
L 229.779462 177.720662 
L 230.621459 179.931831 
L 231.463457 178.803684 
L 232.305454 178.487803 
L 233.147451 178.62318 
L 233.989449 180.202586 
L 235.673444 179.886705 
L 236.515441 181.420985 
L 237.357438 179.254943 
L 238.199436 180.428216 
L 239.041433 181.240482 
L 239.88343 180.247712 
L 240.725428 181.059978 
L 241.567425 181.330734 
L 242.409423 179.525698 
L 243.25142 180.518468 
L 244.093417 180.15746 
L 245.777412 180.428216 
L 246.619409 178.532928 
L 247.461407 179.706202 
L 248.303404 179.39032 
L 249.987399 178.307299 
L 251.671394 179.39032 
L 252.513391 177.134026 
L 253.355388 178.171921 
L 254.197386 176.502263 
L 255.039383 178.036544 
L 255.881381 176.09613 
L 256.723378 176.637641 
L 257.565375 175.419242 
L 258.407373 174.606976 
L 259.24937 173.162948 
L 260.091367 173.343451 
L 260.933365 172.801941 
L 264.301354 160.708202 
L 265.985349 146.13254 
L 266.827346 136.656104 
L 267.669344 125.600261 
L 268.511341 120.320532 
L 269.353339 129.165206 
L 270.195336 143.921372 
L 271.037333 169.327247 
L 271.879331 185.121308 
L 271.879331 185.121308 
" clip-path="url(#pafd43b1cd2)" style="fill: none; stroke: #ff0000; stroke-width: 1.5; stroke-linecap: square"/>
   </g>
   <g id="patch_3">
    <path d="M 57.17 190.626667 
L 57.17 10.8 
" style="fill: none; stroke: #000000; stroke-width: 0.8; stroke-linejoin: miter; stroke-linecap: square"/>
   </g>
   <g id="patch_4">
    <path d="M 272.721328 190.626667 
L 272.721328 10.8 
" style="fill: none; stroke: #000000; stroke-width: 0.8; stroke-linejoin: miter; stroke-linecap: square"/>
   </g>
   <g id="patch_5">
    <path d="M 57.17 190.626667 
L 272.721328 190.626667 
" style="fill: none; stroke: #000000; stroke-width: 0.8; stroke-linejoin: miter; stroke-linecap: square"/>
   </g>
   <g id="patch_6">
    <path d="M 57.17 10.8 
L 272.721328 10.8 
" style="fill: none; stroke: #000000; stroke-width: 0.8; stroke-linejoin: miter; stroke-linecap: square"/>
   </g>
   <g id="text_16">
    <!-- Red Channel  -->
    <g transform="translate(193.028203 24.8) scale(0.12 -0.12)">
     <defs>
      <path id="DejaVuSans-52" d="M 2841 2188 
Q 3044 2119 3236 1894 
Q 3428 1669 3622 1275 
L 4263 0 
L 3584 0 
L 2988 1197 
Q 2756 1666 2539 1819 
Q 2322 1972 1947 1972 
L 1259 1972 
L 1259 0 
L 628 0 
L 628 4666 
L 2053 4666 
Q 2853 4666 3247 4331 
Q 3641 3997 3641 3322 
Q 3641 2881 3436 2590 
Q 3231 2300 2841 2188 
z
M 1259 4147 
L 1259 2491 
L 2053 2491 
Q 2509 2491 2742 2702 
Q 2975 2913 2975 3322 
Q 2975 3731 2742 3939 
Q 2509 4147 2053 4147 
L 1259 4147 
z
" transform="scale(0.015625)"/>
      <path id="DejaVuSans-64" d="M 2906 2969 
L 2906 4863 
L 3481 4863 
L 3481 0 
L 2906 0 
L 2906 525 
Q 2725 213 2448 61 
Q 2172 -91 1784 -91 
Q 1150 -91 751 415 
Q 353 922 353 1747 
Q 353 2572 751 3078 
Q 1150 3584 1784 3584 
Q 2172 3584 2448 3432 
Q 2725 3281 2906 2969 
z
M 947 1747 
Q 947 1113 1208 752 
Q 1469 391 1925 391 
Q 2381 391 2643 752 
Q 2906 1113 2906 1747 
Q 2906 2381 2643 2742 
Q 2381 3103 1925 3103 
Q 1469 3103 1208 2742 
Q 947 2381 947 1747 
z
" transform="scale(0.015625)"/>
      <path id="DejaVuSans-43" d="M 4122 4306 
L 4122 3641 
Q 3803 3938 3442 4084 
Q 3081 4231 2675 4231 
Q 1875 4231 1450 3742 
Q 1025 3253 1025 2328 
Q 1025 1406 1450 917 
Q 1875 428 2675 428 
Q 3081 428 3442 575 
Q 3803 722 4122 1019 
L 4122 359 
Q 3791 134 3420 21 
Q 3050 -91 2638 -91 
Q 1578 -91 968 557 
Q 359 1206 359 2328 
Q 359 3453 968 4101 
Q 1578 4750 2638 4750 
Q 3056 4750 3426 4639 
Q 3797 4528 4122 4306 
z
" transform="scale(0.015625)"/>
      <path id="DejaVuSans-68" d="M 3513 2113 
L 3513 0 
L 2938 0 
L 2938 2094 
Q 2938 2591 2744 2837 
Q 2550 3084 2163 3084 
Q 1697 3084 1428 2787 
Q 1159 2491 1159 1978 
L 1159 0 
L 581 0 
L 581 4863 
L 1159 4863 
L 1159 2956 
Q 1366 3272 1645 3428 
Q 1925 3584 2291 3584 
Q 2894 3584 3203 3211 
Q 3513 2838 3513 2113 
z
" transform="scale(0.015625)"/>
      <path id="DejaVuSans-61" d="M 2194 1759 
Q 1497 1759 1228 1600 
Q 959 1441 959 1056 
Q 959 750 1161 570 
Q 1363 391 1709 391 
Q 2188 391 2477 730 
Q 2766 1069 2766 1631 
L 2766 1759 
L 2194 1759 
z
M 3341 1997 
L 3341 0 
L 2766 0 
L 2766 531 
Q 2569 213 2275 61 
Q 1981 -91 1556 -91 
Q 1019 -91 701 211 
Q 384 513 384 1019 
Q 384 1609 779 1909 
Q 1175 2209 1959 2209 
L 2766 2209 
L 2766 2266 
Q 2766 2663 2505 2880 
Q 2244 3097 1772 3097 
Q 1472 3097 1187 3025 
Q 903 2953 641 2809 
L 641 3341 
Q 956 3463 1253 3523 
Q 1550 3584 1831 3584 
Q 2591 3584 2966 3190 
Q 3341 2797 3341 1997 
z
" transform="scale(0.015625)"/>
     </defs>
     <use xlink:href="#DejaVuSans-52"/>
     <use xlink:href="#DejaVuSans-65" x="64.982422"/>
     <use xlink:href="#DejaVuSans-64" x="126.505859"/>
     <use xlink:href="#DejaVuSans-20" x="189.982422"/>
     <use xlink:href="#DejaVuSans-43" x="221.769531"/>
     <use xlink:href="#DejaVuSans-68" x="291.59375"/>
     <use xlink:href="#DejaVuSans-61" x="354.972656"/>
     <use xlink:href="#DejaVuSans-6e" x="416.251953"/>
     <use xlink:href="#DejaVuSans-6e" x="479.630859"/>
     <use xlink:href="#DejaVuSans-65" x="543.009766"/>
     <use xlink:href="#DejaVuSans-6c" x="604.533203"/>
     <use xlink:href="#DejaVuSans-20" x="632.316406"/>
    </g>
   </g>
  </g>
  <g id="axes_2">
   <g id="patch_7">
    <path d="M 57.17 398.333333 
L 272.721328 398.333333 
L 272.721328 218.506667 
L 57.17 218.506667 
z
" style="fill: #ffffff"/>
   </g>
   <g id="PolyCollection_2">
    <defs>
     <path id="mda32072c88" d="M 57.17 -249.666667 
L 57.17 -249.666667 
L 58.011997 -249.666667 
L 58.853995 -249.666667 
L 59.695992 -249.666667 
L 60.53799 -249.666667 
L 61.379987 -249.666667 
L 62.221984 -249.666667 
L 63.063982 -249.666667 
L 63.905979 -249.666667 
L 64.747976 -249.666667 
L 65.589974 -249.666667 
L 66.431971 -249.666667 
L 67.273969 -249.666667 
L 68.115966 -249.666667 
L 68.957963 -249.666667 
L 69.799961 -249.666667 
L 70.641958 -249.666667 
L 71.483955 -249.666667 
L 72.325953 -249.666667 
L 73.16795 -249.666667 
L 74.009948 -249.666667 
L 74.851945 -249.666667 
L 75.693942 -249.666667 
L 76.53594 -249.666667 
L 77.377937 -249.666667 
L 78.219934 -249.666667 
L 79.061932 -249.666667 
L 79.903929 -249.666667 
L 80.745927 -249.666667 
L 81.587924 -249.666667 
L 82.429921 -249.666667 
L 83.271919 -249.666667 
L 84.113916 -249.666667 
L 84.955913 -249.666667 
L 85.797911 -249.666667 
L 86.639908 -249.666667 
L 87.481906 -249.666667 
L 88.323903 -249.666667 
L 89.1659 -249.666667 
L 90.007898 -249.666667 
L 90.849895 -249.666667 
L 91.691892 -249.666667 
L 92.53389 -249.666667 
L 93.375887 -249.666667 
L 94.217885 -249.666667 
L 95.059882 -249.666667 
L 95.901879 -249.666667 
L 96.743877 -249.666667 
L 97.585874 -249.666667 
L 98.427871 -249.666667 
L 99.269869 -249.666667 
L 100.111866 -249.666667 
L 100.953864 -249.666667 
L 101.795861 -249.666667 
L 102.637858 -249.666667 
L 103.479856 -249.666667 
L 104.321853 -249.666667 
L 105.16385 -249.666667 
L 106.005848 -249.666667 
L 106.847845 -249.666667 
L 107.689843 -249.666667 
L 108.53184 -249.666667 
L 109.373837 -249.666667 
L 110.215835 -249.711793 
L 111.057832 -249.666667 
L 111.899829 -249.666667 
L 112.741827 -249.666667 
L 113.583824 -249.892296 
L 114.425822 -249.756918 
L 115.267819 -249.711793 
L 116.109816 -249.802044 
L 116.951814 -249.982548 
L 117.793811 -249.937422 
L 118.635808 -249.982548 
L 119.477806 -250.163051 
L 120.319803 -250.388681 
L 121.161801 -250.930192 
L 122.003798 -250.659436 
L 122.845795 -250.794814 
L 123.687793 -251.561954 
L 124.52979 -251.922961 
L 125.371787 -251.832709 
L 126.213785 -251.742458 
L 127.055782 -251.471702 
L 127.89778 -251.742458 
L 128.739777 -252.013213 
L 129.581774 -252.464472 
L 130.423772 -252.37422 
L 131.265769 -252.238842 
L 132.107766 -252.329094 
L 132.949764 -252.644975 
L 133.791761 -251.877835 
L 134.633759 -252.509598 
L 135.475756 -252.37422 
L 136.317753 -252.37422 
L 137.159751 -253.186486 
L 138.001748 -252.193716 
L 138.843745 -253.14136 
L 139.685743 -253.051108 
L 140.52774 -252.960857 
L 141.369738 -253.682871 
L 142.211735 -254.359759 
L 143.053732 -253.36699 
L 143.89573 -253.412115 
L 144.737727 -254.089004 
L 145.579724 -254.314633 
L 146.421722 -254.90127 
L 147.263719 -255.262277 
L 148.105717 -255.307403 
L 148.947714 -254.946396 
L 149.789711 -255.848913 
L 150.631709 -254.856144 
L 151.473706 -255.172025 
L 152.315703 -255.307403 
L 153.157701 -255.036647 
L 153.999698 -255.081773 
L 154.841696 -255.533032 
L 155.683693 -255.44278 
L 156.52569 -254.856144 
L 157.367688 -255.848913 
L 158.209685 -256.43555 
L 159.051682 -256.525802 
L 159.89368 -256.300172 
L 160.735677 -258.105208 
L 161.577675 -257.112438 
L 162.419672 -256.931935 
L 163.261669 -257.608823 
L 164.103667 -257.879578 
L 164.945664 -257.879578 
L 165.787661 -259.097977 
L 166.629659 -257.473445 
L 167.471656 -255.984291 
L 168.313654 -257.022187 
L 169.155651 -257.789327 
L 169.997648 -257.473445 
L 170.839646 -257.112438 
L 171.681643 -258.782096 
L 172.52364 -259.639488 
L 173.365638 -258.511341 
L 174.207635 -258.330837 
L 175.049633 -258.330837 
L 175.89163 -258.375963 
L 176.733627 -259.233355 
L 177.575625 -258.466215 
L 178.417622 -258.73697 
L 179.259619 -259.413859 
L 180.101617 -259.910243 
L 180.943614 -260.451754 
L 181.785612 -258.9626 
L 182.627609 -260.857887 
L 183.469606 -260.948139 
L 184.311604 -260.361502 
L 185.153601 -260.226125 
L 185.995598 -261.534775 
L 186.837596 -261.218894 
L 187.679593 -261.805531 
L 188.521591 -261.805531 
L 189.363588 -261.173768 
L 190.205585 -261.48965 
L 191.047583 -261.173768 
L 191.88958 -261.173768 
L 192.731577 -261.986034 
L 193.573575 -259.910243 
L 194.415572 -263.610566 
L 195.25757 -263.159307 
L 196.099567 -262.25679 
L 196.941564 -262.933678 
L 197.783562 -260.587132 
L 198.625559 -261.444524 
L 199.467556 -260.767635 
L 200.309554 -263.294685 
L 201.151551 -262.121412 
L 201.993549 -263.745944 
L 202.835546 -262.708049 
L 203.677543 -262.7983 
L 204.519541 -262.933678 
L 205.361538 -262.978804 
L 206.203535 -263.745944 
L 207.045533 -261.670153 
L 207.88753 -262.572671 
L 208.729528 -262.753174 
L 209.571525 -262.437293 
L 210.413522 -263.159307 
L 211.25552 -264.061825 
L 212.097517 -264.152077 
L 212.939514 -262.572671 
L 213.781512 -263.475189 
L 214.623509 -263.204433 
L 215.465507 -262.978804 
L 216.307504 -263.836196 
L 217.149501 -262.978804 
L 217.991499 -264.422832 
L 218.833496 -262.753174 
L 219.675493 -263.249559 
L 220.517491 -263.836196 
L 221.359488 -264.061825 
L 222.201486 -264.513084 
L 223.043483 -264.738714 
L 223.88548 -265.596105 
L 224.727478 -262.437293 
L 225.569475 -263.79107 
L 226.411472 -265.415602 
L 227.25347 -263.881322 
L 228.095467 -263.655692 
L 228.937465 -263.339811 
L 229.779462 -264.016699 
L 230.621459 -262.437293 
L 231.463457 -262.437293 
L 232.305454 -261.309146 
L 233.147451 -262.482419 
L 233.989449 -264.152077 
L 234.831446 -263.430063 
L 235.673444 -262.166538 
L 236.515441 -263.204433 
L 237.357438 -261.670153 
L 238.199436 -262.662923 
L 239.041433 -262.708049 
L 239.88343 -262.25679 
L 240.725428 -262.211664 
L 241.567425 -261.895783 
L 242.409423 -261.940908 
L 243.25142 -262.888552 
L 244.093417 -262.166538 
L 244.935415 -261.173768 
L 245.777412 -263.384937 
L 246.619409 -261.760405 
L 247.461407 -261.48965 
L 248.303404 -262.076286 
L 249.145402 -262.527545 
L 249.987399 -263.204433 
L 250.829396 -263.79107 
L 251.671394 -262.527545 
L 252.513391 -264.287455 
L 253.355388 -265.415602 
L 254.197386 -264.738714 
L 255.039383 -266.002238 
L 255.881381 -266.047364 
L 256.723378 -266.498623 
L 257.565375 -267.671896 
L 258.407373 -268.980547 
L 259.24937 -269.702561 
L 260.091367 -270.334324 
L 260.933365 -272.410115 
L 261.775362 -272.816248 
L 262.61736 -273.312632 
L 263.459357 -276.290941 
L 264.301354 -277.915473 
L 265.143352 -284.503853 
L 265.985349 -290.6861 
L 266.827346 -299.621026 
L 267.669344 -310.902498 
L 268.511341 -324.440264 
L 269.353339 -334.187456 
L 270.195336 -330.171252 
L 271.037333 -298.447752 
L 271.879331 -257.022187 
L 271.879331 -249.666667 
L 271.879331 -249.666667 
L 271.037333 -249.666667 
L 270.195336 -249.666667 
L 269.353339 -249.666667 
L 268.511341 -249.666667 
L 267.669344 -249.666667 
L 266.827346 -249.666667 
L 265.985349 -249.666667 
L 265.143352 -249.666667 
L 264.301354 -249.666667 
L 263.459357 -249.666667 
L 262.61736 -249.666667 
L 261.775362 -249.666667 
L 260.933365 -249.666667 
L 260.091367 -249.666667 
L 259.24937 -249.666667 
L 258.407373 -249.666667 
L 257.565375 -249.666667 
L 256.723378 -249.666667 
L 255.881381 -249.666667 
L 255.039383 -249.666667 
L 254.197386 -249.666667 
L 253.355388 -249.666667 
L 252.513391 -249.666667 
L 251.671394 -249.666667 
L 250.829396 -249.666667 
L 249.987399 -249.666667 
L 249.145402 -249.666667 
L 248.303404 -249.666667 
L 247.461407 -249.666667 
L 246.619409 -249.666667 
L 245.777412 -249.666667 
L 244.935415 -249.666667 
L 244.093417 -249.666667 
L 243.25142 -249.666667 
L 242.409423 -249.666667 
L 241.567425 -249.666667 
L 240.725428 -249.666667 
L 239.88343 -249.666667 
L 239.041433 -249.666667 
L 238.199436 -249.666667 
L 237.357438 -249.666667 
L 236.515441 -249.666667 
L 235.673444 -249.666667 
L 234.831446 -249.666667 
L 233.989449 -249.666667 
L 233.147451 -249.666667 
L 232.305454 -249.666667 
L 231.463457 -249.666667 
L 230.621459 -249.666667 
L 229.779462 -249.666667 
L 228.937465 -249.666667 
L 228.095467 -249.666667 
L 227.25347 -249.666667 
L 226.411472 -249.666667 
L 225.569475 -249.666667 
L 224.727478 -249.666667 
L 223.88548 -249.666667 
L 223.043483 -249.666667 
L 222.201486 -249.666667 
L 221.359488 -249.666667 
L 220.517491 -249.666667 
L 219.675493 -249.666667 
L 218.833496 -249.666667 
L 217.991499 -249.666667 
L 217.149501 -249.666667 
L 216.307504 -249.666667 
L 215.465507 -249.666667 
L 214.623509 -249.666667 
L 213.781512 -249.666667 
L 212.939514 -249.666667 
L 212.097517 -249.666667 
L 211.25552 -249.666667 
L 210.413522 -249.666667 
L 209.571525 -249.666667 
L 208.729528 -249.666667 
L 207.88753 -249.666667 
L 207.045533 -249.666667 
L 206.203535 -249.666667 
L 205.361538 -249.666667 
L 204.519541 -249.666667 
L 203.677543 -249.666667 
L 202.835546 -249.666667 
L 201.993549 -249.666667 
L 201.151551 -249.666667 
L 200.309554 -249.666667 
L 199.467556 -249.666667 
L 198.625559 -249.666667 
L 197.783562 -249.666667 
L 196.941564 -249.666667 
L 196.099567 -249.666667 
L 195.25757 -249.666667 
L 194.415572 -249.666667 
L 193.573575 -249.666667 
L 192.731577 -249.666667 
L 191.88958 -249.666667 
L 191.047583 -249.666667 
L 190.205585 -249.666667 
L 189.363588 -249.666667 
L 188.521591 -249.666667 
L 187.679593 -249.666667 
L 186.837596 -249.666667 
L 185.995598 -249.666667 
L 185.153601 -249.666667 
L 184.311604 -249.666667 
L 183.469606 -249.666667 
L 182.627609 -249.666667 
L 181.785612 -249.666667 
L 180.943614 -249.666667 
L 180.101617 -249.666667 
L 179.259619 -249.666667 
L 178.417622 -249.666667 
L 177.575625 -249.666667 
L 176.733627 -249.666667 
L 175.89163 -249.666667 
L 175.049633 -249.666667 
L 174.207635 -249.666667 
L 173.365638 -249.666667 
L 172.52364 -249.666667 
L 171.681643 -249.666667 
L 170.839646 -249.666667 
L 169.997648 -249.666667 
L 169.155651 -249.666667 
L 168.313654 -249.666667 
L 167.471656 -249.666667 
L 166.629659 -249.666667 
L 165.787661 -249.666667 
L 164.945664 -249.666667 
L 164.103667 -249.666667 
L 163.261669 -249.666667 
L 162.419672 -249.666667 
L 161.577675 -249.666667 
L 160.735677 -249.666667 
L 159.89368 -249.666667 
L 159.051682 -249.666667 
L 158.209685 -249.666667 
L 157.367688 -249.666667 
L 156.52569 -249.666667 
L 155.683693 -249.666667 
L 154.841696 -249.666667 
L 153.999698 -249.666667 
L 153.157701 -249.666667 
L 152.315703 -249.666667 
L 151.473706 -249.666667 
L 150.631709 -249.666667 
L 149.789711 -249.666667 
L 148.947714 -249.666667 
L 148.105717 -249.666667 
L 147.263719 -249.666667 
L 146.421722 -249.666667 
L 145.579724 -249.666667 
L 144.737727 -249.666667 
L 143.89573 -249.666667 
L 143.053732 -249.666667 
L 142.211735 -249.666667 
L 141.369738 -249.666667 
L 140.52774 -249.666667 
L 139.685743 -249.666667 
L 138.843745 -249.666667 
L 138.001748 -249.666667 
L 137.159751 -249.666667 
L 136.317753 -249.666667 
L 135.475756 -249.666667 
L 134.633759 -249.666667 
L 133.791761 -249.666667 
L 132.949764 -249.666667 
L 132.107766 -249.666667 
L 131.265769 -249.666667 
L 130.423772 -249.666667 
L 129.581774 -249.666667 
L 128.739777 -249.666667 
L 127.89778 -249.666667 
L 127.055782 -249.666667 
L 126.213785 -249.666667 
L 125.371787 -249.666667 
L 124.52979 -249.666667 
L 123.687793 -249.666667 
L 122.845795 -249.666667 
L 122.003798 -249.666667 
L 121.161801 -249.666667 
L 120.319803 -249.666667 
L 119.477806 -249.666667 
L 118.635808 -249.666667 
L 117.793811 -249.666667 
L 116.951814 -249.666667 
L 116.109816 -249.666667 
L 115.267819 -249.666667 
L 114.425822 -249.666667 
L 113.583824 -249.666667 
L 112.741827 -249.666667 
L 111.899829 -249.666667 
L 111.057832 -249.666667 
L 110.215835 -249.666667 
L 109.373837 -249.666667 
L 108.53184 -249.666667 
L 107.689843 -249.666667 
L 106.847845 -249.666667 
L 106.005848 -249.666667 
L 105.16385 -249.666667 
L 104.321853 -249.666667 
L 103.479856 -249.666667 
L 102.637858 -249.666667 
L 101.795861 -249.666667 
L 100.953864 -249.666667 
L 100.111866 -249.666667 
L 99.269869 -249.666667 
L 98.427871 -249.666667 
L 97.585874 -249.666667 
L 96.743877 -249.666667 
L 95.901879 -249.666667 
L 95.059882 -249.666667 
L 94.217885 -249.666667 
L 93.375887 -249.666667 
L 92.53389 -249.666667 
L 91.691892 -249.666667 
L 90.849895 -249.666667 
L 90.007898 -249.666667 
L 89.1659 -249.666667 
L 88.323903 -249.666667 
L 87.481906 -249.666667 
L 86.639908 -249.666667 
L 85.797911 -249.666667 
L 84.955913 -249.666667 
L 84.113916 -249.666667 
L 83.271919 -249.666667 
L 82.429921 -249.666667 
L 81.587924 -249.666667 
L 80.745927 -249.666667 
L 79.903929 -249.666667 
L 79.061932 -249.666667 
L 78.219934 -249.666667 
L 77.377937 -249.666667 
L 76.53594 -249.666667 
L 75.693942 -249.666667 
L 74.851945 -249.666667 
L 74.009948 -249.666667 
L 73.16795 -249.666667 
L 72.325953 -249.666667 
L 71.483955 -249.666667 
L 70.641958 -249.666667 
L 69.799961 -249.666667 
L 68.957963 -249.666667 
L 68.115966 -249.666667 
L 67.273969 -249.666667 
L 66.431971 -249.666667 
L 65.589974 -249.666667 
L 64.747976 -249.666667 
L 63.905979 -249.666667 
L 63.063982 -249.666667 
L 62.221984 -249.666667 
L 61.379987 -249.666667 
L 60.53799 -249.666667 
L 59.695992 -249.666667 
L 58.853995 -249.666667 
L 58.011997 -249.666667 
L 57.17 -249.666667 
z
" style="stroke: #008000; stroke-opacity: 0.4"/>
    </defs>
    <g clip-path="url(#pcf5f24c4a3)">
     <use xlink:href="#mda32072c88" x="0" y="648" style="fill: #008000; fill-opacity: 0.4; stroke: #008000; stroke-opacity: 0.4"/>
    </g>
   </g>
   <g id="matplotlib.axis_3">
    <g id="xtick_7">
     <g id="line2d_16">
      <g>
       <use xlink:href="#m137a105dcf" x="57.17" y="398.333333" style="stroke: #000000; stroke-width: 0.8"/>
      </g>
     </g>
     <g id="text_17">
      <!-- 0 -->
      <g transform="translate(53.98875 412.931771) scale(0.1 -0.1)">
       <use xlink:href="#DejaVuSans-30"/>
      </g>
     </g>
    </g>
    <g id="xtick_8">
     <g id="line2d_17">
      <g>
       <use xlink:href="#m137a105dcf" x="99.269869" y="398.333333" style="stroke: #000000; stroke-width: 0.8"/>
      </g>
     </g>
     <g id="text_18">
      <!-- 50 -->
      <g transform="translate(92.907369 412.931771) scale(0.1 -0.1)">
       <use xlink:href="#DejaVuSans-35"/>
       <use xlink:href="#DejaVuSans-30" x="63.623047"/>
      </g>
     </g>
    </g>
    <g id="xtick_9">
     <g id="line2d_18">
      <g>
       <use xlink:href="#m137a105dcf" x="141.369738" y="398.333333" style="stroke: #000000; stroke-width: 0.8"/>
      </g>
     </g>
     <g id="text_19">
      <!-- 100 -->
      <g transform="translate(131.825988 412.931771) scale(0.1 -0.1)">
       <use xlink:href="#DejaVuSans-31"/>
       <use xlink:href="#DejaVuSans-30" x="63.623047"/>
       <use xlink:href="#DejaVuSans-30" x="127.246094"/>
      </g>
     </g>
    </g>
    <g id="xtick_10">
     <g id="line2d_19">
      <g>
       <use xlink:href="#m137a105dcf" x="183.469606" y="398.333333" style="stroke: #000000; stroke-width: 0.8"/>
      </g>
     </g>
     <g id="text_20">
      <!-- 150 -->
      <g transform="translate(173.925856 412.931771) scale(0.1 -0.1)">
       <use xlink:href="#DejaVuSans-31"/>
       <use xlink:href="#DejaVuSans-35" x="63.623047"/>
       <use xlink:href="#DejaVuSans-30" x="127.246094"/>
      </g>
     </g>
    </g>
    <g id="xtick_11">
     <g id="line2d_20">
      <g>
       <use xlink:href="#m137a105dcf" x="225.569475" y="398.333333" style="stroke: #000000; stroke-width: 0.8"/>
      </g>
     </g>
     <g id="text_21">
      <!-- 200 -->
      <g transform="translate(216.025725 412.931771) scale(0.1 -0.1)">
       <use xlink:href="#DejaVuSans-32"/>
       <use xlink:href="#DejaVuSans-30" x="63.623047"/>
       <use xlink:href="#DejaVuSans-30" x="127.246094"/>
      </g>
     </g>
    </g>
    <g id="xtick_12">
     <g id="line2d_21">
      <g>
       <use xlink:href="#m137a105dcf" x="267.669344" y="398.333333" style="stroke: #000000; stroke-width: 0.8"/>
      </g>
     </g>
     <g id="text_22">
      <!-- 250 -->
      <g transform="translate(258.125594 412.931771) scale(0.1 -0.1)">
       <use xlink:href="#DejaVuSans-32"/>
       <use xlink:href="#DejaVuSans-35" x="63.623047"/>
       <use xlink:href="#DejaVuSans-30" x="127.246094"/>
      </g>
     </g>
    </g>
   </g>
   <g id="matplotlib.axis_4">
    <g id="ytick_9">
     <g id="line2d_22">
      <g>
       <use xlink:href="#m120af15b4c" x="57.17" y="398.333333" style="stroke: #000000; stroke-width: 0.8"/>
      </g>
     </g>
     <g id="text_23">
      <!-- 0 -->
      <g transform="translate(43.8075 402.132552) scale(0.1 -0.1)">
       <use xlink:href="#DejaVuSans-30"/>
      </g>
     </g>
    </g>
    <g id="ytick_10">
     <g id="line2d_23">
      <g>
       <use xlink:href="#m120af15b4c" x="57.17" y="375.770389" style="stroke: #000000; stroke-width: 0.8"/>
      </g>
     </g>
     <g id="text_24">
      <!-- 500 -->
      <g transform="translate(31.0825 379.569608) scale(0.1 -0.1)">
       <use xlink:href="#DejaVuSans-35"/>
       <use xlink:href="#DejaVuSans-30" x="63.623047"/>
       <use xlink:href="#DejaVuSans-30" x="127.246094"/>
      </g>
     </g>
    </g>
    <g id="ytick_11">
     <g id="line2d_24">
      <g>
       <use xlink:href="#m120af15b4c" x="57.17" y="353.207445" style="stroke: #000000; stroke-width: 0.8"/>
      </g>
     </g>
     <g id="text_25">
      <!-- 1000 -->
      <g transform="translate(24.72 357.006663) scale(0.1 -0.1)">
       <use xlink:href="#DejaVuSans-31"/>
       <use xlink:href="#DejaVuSans-30" x="63.623047"/>
       <use xlink:href="#DejaVuSans-30" x="127.246094"/>
       <use xlink:href="#DejaVuSans-30" x="190.869141"/>
      </g>
     </g>
    </g>
    <g id="ytick_12">
     <g id="line2d_25">
      <g>
       <use xlink:href="#m120af15b4c" x="57.17" y="330.6445" style="stroke: #000000; stroke-width: 0.8"/>
      </g>
     </g>
     <g id="text_26">
      <!-- 1500 -->
      <g transform="translate(24.72 334.443719) scale(0.1 -0.1)">
       <use xlink:href="#DejaVuSans-31"/>
       <use xlink:href="#DejaVuSans-35" x="63.623047"/>
       <use xlink:href="#DejaVuSans-30" x="127.246094"/>
       <use xlink:href="#DejaVuSans-30" x="190.869141"/>
      </g>
     </g>
    </g>
    <g id="ytick_13">
     <g id="line2d_26">
      <g>
       <use xlink:href="#m120af15b4c" x="57.17" y="308.081556" style="stroke: #000000; stroke-width: 0.8"/>
      </g>
     </g>
     <g id="text_27">
      <!-- 2000 -->
      <g transform="translate(24.72 311.880775) scale(0.1 -0.1)">
       <use xlink:href="#DejaVuSans-32"/>
       <use xlink:href="#DejaVuSans-30" x="63.623047"/>
       <use xlink:href="#DejaVuSans-30" x="127.246094"/>
       <use xlink:href="#DejaVuSans-30" x="190.869141"/>
      </g>
     </g>
    </g>
    <g id="ytick_14">
     <g id="line2d_27">
      <g>
       <use xlink:href="#m120af15b4c" x="57.17" y="285.518611" style="stroke: #000000; stroke-width: 0.8"/>
      </g>
     </g>
     <g id="text_28">
      <!-- 2500 -->
      <g transform="translate(24.72 289.31783) scale(0.1 -0.1)">
       <use xlink:href="#DejaVuSans-32"/>
       <use xlink:href="#DejaVuSans-35" x="63.623047"/>
       <use xlink:href="#DejaVuSans-30" x="127.246094"/>
       <use xlink:href="#DejaVuSans-30" x="190.869141"/>
      </g>
     </g>
    </g>
    <g id="ytick_15">
     <g id="line2d_28">
      <g>
       <use xlink:href="#m120af15b4c" x="57.17" y="262.955667" style="stroke: #000000; stroke-width: 0.8"/>
      </g>
     </g>
     <g id="text_29">
      <!-- 3000 -->
      <g transform="translate(24.72 266.754886) scale(0.1 -0.1)">
       <use xlink:href="#DejaVuSans-33"/>
       <use xlink:href="#DejaVuSans-30" x="63.623047"/>
       <use xlink:href="#DejaVuSans-30" x="127.246094"/>
       <use xlink:href="#DejaVuSans-30" x="190.869141"/>
      </g>
     </g>
    </g>
    <g id="ytick_16">
     <g id="line2d_29">
      <g>
       <use xlink:href="#m120af15b4c" x="57.17" y="240.392723" style="stroke: #000000; stroke-width: 0.8"/>
      </g>
     </g>
     <g id="text_30">
      <!-- 3500 -->
      <g transform="translate(24.72 244.191941) scale(0.1 -0.1)">
       <use xlink:href="#DejaVuSans-33"/>
       <use xlink:href="#DejaVuSans-35" x="63.623047"/>
       <use xlink:href="#DejaVuSans-30" x="127.246094"/>
       <use xlink:href="#DejaVuSans-30" x="190.869141"/>
      </g>
     </g>
    </g>
    <g id="text_31">
     <!-- Pixel Frequency -->
     <g transform="translate(18.640313 347.398906) rotate(-90) scale(0.1 -0.1)">
      <use xlink:href="#DejaVuSans-50"/>
      <use xlink:href="#DejaVuSans-69" x="58.052734"/>
      <use xlink:href="#DejaVuSans-78" x="85.835938"/>
      <use xlink:href="#DejaVuSans-65" x="141.890625"/>
      <use xlink:href="#DejaVuSans-6c" x="203.414062"/>
      <use xlink:href="#DejaVuSans-20" x="231.197266"/>
      <use xlink:href="#DejaVuSans-46" x="262.984375"/>
      <use xlink:href="#DejaVuSans-72" x="313.253906"/>
      <use xlink:href="#DejaVuSans-65" x="352.117188"/>
      <use xlink:href="#DejaVuSans-71" x="413.640625"/>
      <use xlink:href="#DejaVuSans-75" x="477.117188"/>
      <use xlink:href="#DejaVuSans-65" x="540.496094"/>
      <use xlink:href="#DejaVuSans-6e" x="602.019531"/>
      <use xlink:href="#DejaVuSans-63" x="665.398438"/>
      <use xlink:href="#DejaVuSans-79" x="720.378906"/>
     </g>
    </g>
   </g>
   <g id="line2d_30">
    <path d="M 57.17 398.333333 
L 112.741827 398.333333 
L 113.583824 398.107704 
L 115.267819 398.288207 
L 119.477806 397.836949 
L 120.319803 397.611319 
L 121.161801 397.069808 
L 122.003798 397.340564 
L 122.845795 397.205186 
L 123.687793 396.438046 
L 124.52979 396.077039 
L 126.213785 396.257542 
L 127.055782 396.528298 
L 128.739777 395.986787 
L 129.581774 395.535528 
L 131.265769 395.761158 
L 132.107766 395.670906 
L 132.949764 395.355025 
L 133.791761 396.122165 
L 134.633759 395.490402 
L 135.475756 395.62578 
L 136.317753 395.62578 
L 137.159751 394.813514 
L 138.001748 395.806284 
L 138.843745 394.85864 
L 140.52774 395.039143 
L 142.211735 393.640241 
L 143.053732 394.63301 
L 143.89573 394.587885 
L 144.737727 393.910996 
L 145.579724 393.685367 
L 146.421722 393.09873 
L 147.263719 392.737723 
L 148.105717 392.692597 
L 148.947714 393.053604 
L 149.789711 392.151087 
L 150.631709 393.143856 
L 151.473706 392.827975 
L 152.315703 392.692597 
L 153.157701 392.963353 
L 153.999698 392.918227 
L 154.841696 392.466968 
L 155.683693 392.55722 
L 156.52569 393.143856 
L 157.367688 392.151087 
L 158.209685 391.56445 
L 159.051682 391.474198 
L 159.89368 391.699828 
L 160.735677 389.894792 
L 161.577675 390.887562 
L 162.419672 391.068065 
L 163.261669 390.391177 
L 164.103667 390.120422 
L 164.945664 390.120422 
L 165.787661 388.902023 
L 167.471656 392.015709 
L 168.313654 390.977813 
L 169.155651 390.210673 
L 170.839646 390.887562 
L 171.681643 389.217904 
L 172.52364 388.360512 
L 173.365638 389.488659 
L 174.207635 389.669163 
L 175.89163 389.624037 
L 176.733627 388.766645 
L 177.575625 389.533785 
L 178.417622 389.26303 
L 179.259619 388.586141 
L 180.943614 387.548246 
L 181.785612 389.0374 
L 182.627609 387.142113 
L 183.469606 387.051861 
L 184.311604 387.638498 
L 185.153601 387.773875 
L 185.995598 386.465225 
L 186.837596 386.781106 
L 187.679593 386.194469 
L 188.521591 386.194469 
L 189.363588 386.826232 
L 190.205585 386.51035 
L 191.047583 386.826232 
L 191.88958 386.826232 
L 192.731577 386.013966 
L 193.573575 388.089757 
L 194.415572 384.389434 
L 195.25757 384.840693 
L 196.099567 385.74321 
L 196.941564 385.066322 
L 197.783562 387.412868 
L 198.625559 386.555476 
L 199.467556 387.232365 
L 200.309554 384.705315 
L 201.151551 385.878588 
L 201.993549 384.254056 
L 202.835546 385.291951 
L 205.361538 385.021196 
L 206.203535 384.254056 
L 207.045533 386.329847 
L 207.88753 385.427329 
L 208.729528 385.246826 
L 209.571525 385.562707 
L 210.413522 384.840693 
L 211.25552 383.938175 
L 212.097517 383.847923 
L 212.939514 385.427329 
L 213.781512 384.524811 
L 215.465507 385.021196 
L 216.307504 384.163804 
L 217.149501 385.021196 
L 217.991499 383.577168 
L 218.833496 385.246826 
L 220.517491 384.163804 
L 221.359488 383.938175 
L 222.201486 383.486916 
L 223.043483 383.261286 
L 223.88548 382.403895 
L 224.727478 385.562707 
L 225.569475 384.20893 
L 226.411472 382.584398 
L 227.25347 384.118678 
L 228.937465 384.660189 
L 229.779462 383.983301 
L 230.621459 385.562707 
L 231.463457 385.562707 
L 232.305454 386.690854 
L 233.147451 385.517581 
L 233.989449 383.847923 
L 234.831446 384.569937 
L 235.673444 385.833462 
L 236.515441 384.795567 
L 237.357438 386.329847 
L 238.199436 385.337077 
L 239.041433 385.291951 
L 239.88343 385.74321 
L 240.725428 385.788336 
L 241.567425 386.104217 
L 242.409423 386.059092 
L 243.25142 385.111448 
L 244.093417 385.833462 
L 244.935415 386.826232 
L 245.777412 384.615063 
L 246.619409 386.239595 
L 247.461407 386.51035 
L 250.829396 384.20893 
L 251.671394 385.472455 
L 252.513391 383.712545 
L 253.355388 382.584398 
L 254.197386 383.261286 
L 255.039383 381.997762 
L 255.881381 381.952636 
L 256.723378 381.501377 
L 258.407373 379.019453 
L 260.091367 377.665676 
L 260.933365 375.589885 
L 262.61736 374.687368 
L 263.459357 371.709059 
L 264.301354 370.084527 
L 265.985349 357.3139 
L 266.827346 348.378974 
L 267.669344 337.097502 
L 268.511341 323.559736 
L 269.353339 313.812544 
L 270.195336 317.828748 
L 271.037333 349.552248 
L 271.879331 390.977813 
L 271.879331 390.977813 
" clip-path="url(#pcf5f24c4a3)" style="fill: none; stroke: #008000; stroke-width: 1.5; stroke-linecap: square"/>
   </g>
   <g id="patch_8">
    <path d="M 57.17 398.333333 
L 57.17 218.506667 
" style="fill: none; stroke: #000000; stroke-width: 0.8; stroke-linejoin: miter; stroke-linecap: square"/>
   </g>
   <g id="patch_9">
    <path d="M 272.721328 398.333333 
L 272.721328 218.506667 
" style="fill: none; stroke: #000000; stroke-width: 0.8; stroke-linejoin: miter; stroke-linecap: square"/>
   </g>
   <g id="patch_10">
    <path d="M 57.17 398.333333 
L 272.721328 398.333333 
" style="fill: none; stroke: #000000; stroke-width: 0.8; stroke-linejoin: miter; stroke-linecap: square"/>
   </g>
   <g id="patch_11">
    <path d="M 57.17 218.506667 
L 272.721328 218.506667 
" style="fill: none; stroke: #000000; stroke-width: 0.8; stroke-linejoin: miter; stroke-linecap: square"/>
   </g>
   <g id="text_32">
    <!-- Green Channel  -->
    <g transform="translate(179.494453 232.506667) scale(0.12 -0.12)">
     <defs>
      <path id="DejaVuSans-47" d="M 3809 666 
L 3809 1919 
L 2778 1919 
L 2778 2438 
L 4434 2438 
L 4434 434 
Q 4069 175 3628 42 
Q 3188 -91 2688 -91 
Q 1594 -91 976 548 
Q 359 1188 359 2328 
Q 359 3472 976 4111 
Q 1594 4750 2688 4750 
Q 3144 4750 3555 4637 
Q 3966 4525 4313 4306 
L 4313 3634 
Q 3963 3931 3569 4081 
Q 3175 4231 2741 4231 
Q 1884 4231 1454 3753 
Q 1025 3275 1025 2328 
Q 1025 1384 1454 906 
Q 1884 428 2741 428 
Q 3075 428 3337 486 
Q 3600 544 3809 666 
z
" transform="scale(0.015625)"/>
     </defs>
     <use xlink:href="#DejaVuSans-47"/>
     <use xlink:href="#DejaVuSans-72" x="77.490234"/>
     <use xlink:href="#DejaVuSans-65" x="116.353516"/>
     <use xlink:href="#DejaVuSans-65" x="177.876953"/>
     <use xlink:href="#DejaVuSans-6e" x="239.400391"/>
     <use xlink:href="#DejaVuSans-20" x="302.779297"/>
     <use xlink:href="#DejaVuSans-43" x="334.566406"/>
     <use xlink:href="#DejaVuSans-68" x="404.390625"/>
     <use xlink:href="#DejaVuSans-61" x="467.769531"/>
     <use xlink:href="#DejaVuSans-6e" x="529.048828"/>
     <use xlink:href="#DejaVuSans-6e" x="592.427734"/>
     <use xlink:href="#DejaVuSans-65" x="655.806641"/>
     <use xlink:href="#DejaVuSans-6c" x="717.330078"/>
     <use xlink:href="#DejaVuSans-20" x="745.113281"/>
    </g>
   </g>
  </g>
  <g id="axes_3">
   <g id="patch_12">
    <path d="M 57.17 606.04 
L 272.721328 606.04 
L 272.721328 426.213333 
L 57.17 426.213333 
z
" style="fill: #ffffff"/>
   </g>
   <g id="PolyCollection_3">
    <defs>
     <path id="m710971a6c1" d="M 57.17 -41.96 
L 57.17 -41.96 
L 58.011997 -41.96 
L 58.853995 -41.96 
L 59.695992 -41.96 
L 60.53799 -41.96 
L 61.379987 -41.96 
L 62.221984 -41.96 
L 63.063982 -41.96 
L 63.905979 -41.96 
L 64.747976 -41.96 
L 65.589974 -41.96 
L 66.431971 -41.96 
L 67.273969 -41.96 
L 68.115966 -41.96 
L 68.957963 -41.96 
L 69.799961 -41.96 
L 70.641958 -41.96 
L 71.483955 -41.96 
L 72.325953 -41.96 
L 73.16795 -41.96 
L 74.009948 -41.96 
L 74.851945 -41.96 
L 75.693942 -41.96 
L 76.53594 -41.96 
L 77.377937 -41.96 
L 78.219934 -41.96 
L 79.061932 -41.96 
L 79.903929 -41.96 
L 80.745927 -41.96 
L 81.587924 -41.96 
L 82.429921 -41.96 
L 83.271919 -41.96 
L 84.113916 -41.96 
L 84.955913 -41.96 
L 85.797911 -42.005126 
L 86.639908 -41.96 
L 87.481906 -41.96 
L 88.323903 -42.005126 
L 89.1659 -42.275881 
L 90.007898 -42.275881 
L 90.849895 -42.546637 
L 91.691892 -42.997895 
L 92.53389 -43.629658 
L 93.375887 -43.990665 
L 94.217885 -44.577302 
L 95.059882 -45.163938 
L 95.901879 -45.299316 
L 96.743877 -45.434693 
L 97.585874 -46.607967 
L 98.427871 -45.434693 
L 99.269869 -46.246959 
L 100.111866 -46.653092 
L 100.953864 -46.337211 
L 101.795861 -46.698218 
L 102.637858 -47.465358 
L 103.479856 -47.420233 
L 104.321853 -46.968974 
L 105.16385 -48.503254 
L 106.005848 -47.645862 
L 106.847845 -48.54838 
L 107.689843 -49.08989 
L 108.53184 -49.225268 
L 109.373837 -50.398541 
L 110.215835 -50.624171 
L 111.057832 -50.443667 
L 111.899829 -51.07543 
L 112.741827 -52.564584 
L 113.583824 -52.338954 
L 114.425822 -53.241472 
L 115.267819 -54.053738 
L 116.109816 -53.196346 
L 116.951814 -53.331724 
L 117.793811 -54.189116 
L 118.635808 -55.994151 
L 119.477806 -56.310033 
L 120.319803 -53.963486 
L 121.161801 -55.67827 
L 122.003798 -54.866004 
L 122.845795 -55.67827 
L 123.687793 -54.685501 
L 124.52979 -57.618683 
L 125.371787 -56.761292 
L 126.213785 -57.754061 
L 127.055782 -56.44541 
L 127.89778 -57.302802 
L 128.739777 -58.024816 
L 129.581774 -58.20532 
L 130.423772 -58.746831 
L 131.265769 -59.423719 
L 132.107766 -58.250446 
L 132.949764 -61.183629 
L 133.791761 -59.423719 
L 134.633759 -61.49951 
L 135.475756 -61.815391 
L 136.317753 -61.048251 
L 137.159751 -60.281111 
L 138.001748 -60.912873 
L 138.843745 -60.145733 
L 139.685743 -62.898412 
L 140.52774 -62.086146 
L 141.369738 -61.228754 
L 142.211735 -61.364132 
L 143.053732 -61.49951 
L 143.89573 -63.169168 
L 144.737727 -62.311776 
L 145.579724 -62.808161 
L 146.421722 -62.808161 
L 147.263719 -62.356902 
L 148.105717 -64.207063 
L 148.947714 -62.943538 
L 149.789711 -61.544636 
L 150.631709 -62.356902 
L 151.473706 -62.356902 
L 152.315703 -62.763035 
L 153.157701 -60.687244 
L 153.999698 -64.658322 
L 154.841696 -63.124042 
L 155.683693 -62.988664 
L 156.52569 -63.620427 
L 157.367688 -63.349671 
L 158.209685 -63.124042 
L 159.051682 -63.80093 
L 159.89368 -63.124042 
L 160.735677 -61.228754 
L 161.577675 -60.190859 
L 162.419672 -62.086146 
L 163.261669 -63.078916 
L 164.103667 -63.80093 
L 164.945664 -62.402028 
L 165.787661 -62.311776 
L 166.629659 -63.530175 
L 167.471656 -63.214294 
L 168.313654 -61.544636 
L 169.155651 -63.394797 
L 169.997648 -64.838826 
L 170.839646 -62.672783 
L 171.681643 -63.078916 
L 172.52364 -61.364132 
L 173.365638 -61.589762 
L 174.207635 -61.228754 
L 175.049633 -60.055481 
L 175.89163 -60.912873 
L 176.733627 -61.905643 
L 177.575625 -60.461614 
L 178.417622 -57.663809 
L 179.259619 -57.167425 
L 180.101617 -58.295572 
L 180.943614 -56.039277 
L 181.785612 -56.400284 
L 182.627609 -56.761292 
L 183.469606 -55.723396 
L 184.311604 -55.452641 
L 185.153601 -55.994151 
L 185.995598 -55.949026 
L 186.837596 -55.272137 
L 187.679593 -52.970717 
L 188.521591 -54.369619 
L 189.363588 -54.324494 
L 190.205585 -54.234242 
L 191.047583 -53.060969 
L 191.88958 -53.602479 
L 192.731577 -52.790213 
L 193.573575 -52.248703 
L 194.415572 -52.60971 
L 195.25757 -53.873235 
L 196.099567 -53.196346 
L 196.941564 -52.970717 
L 197.783562 -50.579045 
L 198.625559 -53.963486 
L 199.467556 -53.015843 
L 200.309554 -53.647605 
L 201.151551 -52.248703 
L 201.993549 -52.023073 
L 202.835546 -50.08266 
L 203.677543 -50.579045 
L 204.519541 -52.38408 
L 205.361538 -51.301059 
L 206.203535 -51.84257 
L 207.045533 -47.78124 
L 207.88753 -52.38408 
L 208.729528 -53.963486 
L 209.571525 -53.512228 
L 210.413522 -52.429206 
L 211.25552 -49.992408 
L 212.097517 -50.804674 
L 212.939514 -48.638632 
L 213.781512 -54.324494 
L 214.623509 -51.301059 
L 215.465507 -51.301059 
L 216.307504 -46.923848 
L 217.149501 -53.196346 
L 217.991499 -50.985178 
L 218.833496 -51.662066 
L 219.675493 -50.940052 
L 220.517491 -49.180142 
L 221.359488 -46.292085 
L 222.201486 -47.78124 
L 223.043483 -49.902156 
L 223.88548 -48.728883 
L 224.727478 -47.736114 
L 225.569475 -44.171169 
L 226.411472 -49.541149 
L 227.25347 -48.097121 
L 228.095467 -50.308289 
L 228.937465 -47.329981 
L 229.779462 -47.510484 
L 230.621459 -43.629658 
L 231.463457 -49.405772 
L 232.305454 -46.066456 
L 233.147451 -49.135016 
L 233.989449 -43.855287 
L 234.831446 -45.795701 
L 235.673444 -45.976204 
L 236.515441 -47.375107 
L 237.357438 -47.600736 
L 238.199436 -45.660323 
L 239.041433 -43.810161 
L 239.88343 -43.313777 
L 240.725428 -46.156708 
L 241.567425 -44.216294 
L 242.409423 -44.306546 
L 243.25142 -42.275881 
L 244.093417 -44.712679 
L 244.935415 -43.990665 
L 245.777412 -44.712679 
L 246.619409 -43.990665 
L 247.461407 -43.71991 
L 248.303404 -42.050252 
L 249.145402 -44.441924 
L 249.987399 -43.088147 
L 250.829396 -43.268651 
L 251.671394 -42.050252 
L 252.513391 -43.629658 
L 253.355388 -42.907644 
L 254.197386 -43.810161 
L 255.039383 -42.636888 
L 255.881381 -42.546637 
L 256.723378 -42.140504 
L 257.565375 -43.088147 
L 258.407373 -42.456385 
L 259.24937 -42.772266 
L 260.091367 -42.005126 
L 260.933365 -42.636888 
L 261.775362 -42.366133 
L 262.61736 -42.321007 
L 263.459357 -41.96 
L 264.301354 -41.96 
L 265.143352 -41.96 
L 265.985349 -41.96 
L 266.827346 -41.96 
L 267.669344 -41.96 
L 268.511341 -41.96 
L 269.353339 -41.96 
L 270.195336 -41.96 
L 271.037333 -41.96 
L 271.879331 -41.96 
L 271.879331 -41.96 
L 271.879331 -41.96 
L 271.037333 -41.96 
L 270.195336 -41.96 
L 269.353339 -41.96 
L 268.511341 -41.96 
L 267.669344 -41.96 
L 266.827346 -41.96 
L 265.985349 -41.96 
L 265.143352 -41.96 
L 264.301354 -41.96 
L 263.459357 -41.96 
L 262.61736 -41.96 
L 261.775362 -41.96 
L 260.933365 -41.96 
L 260.091367 -41.96 
L 259.24937 -41.96 
L 258.407373 -41.96 
L 257.565375 -41.96 
L 256.723378 -41.96 
L 255.881381 -41.96 
L 255.039383 -41.96 
L 254.197386 -41.96 
L 253.355388 -41.96 
L 252.513391 -41.96 
L 251.671394 -41.96 
L 250.829396 -41.96 
L 249.987399 -41.96 
L 249.145402 -41.96 
L 248.303404 -41.96 
L 247.461407 -41.96 
L 246.619409 -41.96 
L 245.777412 -41.96 
L 244.935415 -41.96 
L 244.093417 -41.96 
L 243.25142 -41.96 
L 242.409423 -41.96 
L 241.567425 -41.96 
L 240.725428 -41.96 
L 239.88343 -41.96 
L 239.041433 -41.96 
L 238.199436 -41.96 
L 237.357438 -41.96 
L 236.515441 -41.96 
L 235.673444 -41.96 
L 234.831446 -41.96 
L 233.989449 -41.96 
L 233.147451 -41.96 
L 232.305454 -41.96 
L 231.463457 -41.96 
L 230.621459 -41.96 
L 229.779462 -41.96 
L 228.937465 -41.96 
L 228.095467 -41.96 
L 227.25347 -41.96 
L 226.411472 -41.96 
L 225.569475 -41.96 
L 224.727478 -41.96 
L 223.88548 -41.96 
L 223.043483 -41.96 
L 222.201486 -41.96 
L 221.359488 -41.96 
L 220.517491 -41.96 
L 219.675493 -41.96 
L 218.833496 -41.96 
L 217.991499 -41.96 
L 217.149501 -41.96 
L 216.307504 -41.96 
L 215.465507 -41.96 
L 214.623509 -41.96 
L 213.781512 -41.96 
L 212.939514 -41.96 
L 212.097517 -41.96 
L 211.25552 -41.96 
L 210.413522 -41.96 
L 209.571525 -41.96 
L 208.729528 -41.96 
L 207.88753 -41.96 
L 207.045533 -41.96 
L 206.203535 -41.96 
L 205.361538 -41.96 
L 204.519541 -41.96 
L 203.677543 -41.96 
L 202.835546 -41.96 
L 201.993549 -41.96 
L 201.151551 -41.96 
L 200.309554 -41.96 
L 199.467556 -41.96 
L 198.625559 -41.96 
L 197.783562 -41.96 
L 196.941564 -41.96 
L 196.099567 -41.96 
L 195.25757 -41.96 
L 194.415572 -41.96 
L 193.573575 -41.96 
L 192.731577 -41.96 
L 191.88958 -41.96 
L 191.047583 -41.96 
L 190.205585 -41.96 
L 189.363588 -41.96 
L 188.521591 -41.96 
L 187.679593 -41.96 
L 186.837596 -41.96 
L 185.995598 -41.96 
L 185.153601 -41.96 
L 184.311604 -41.96 
L 183.469606 -41.96 
L 182.627609 -41.96 
L 181.785612 -41.96 
L 180.943614 -41.96 
L 180.101617 -41.96 
L 179.259619 -41.96 
L 178.417622 -41.96 
L 177.575625 -41.96 
L 176.733627 -41.96 
L 175.89163 -41.96 
L 175.049633 -41.96 
L 174.207635 -41.96 
L 173.365638 -41.96 
L 172.52364 -41.96 
L 171.681643 -41.96 
L 170.839646 -41.96 
L 169.997648 -41.96 
L 169.155651 -41.96 
L 168.313654 -41.96 
L 167.471656 -41.96 
L 166.629659 -41.96 
L 165.787661 -41.96 
L 164.945664 -41.96 
L 164.103667 -41.96 
L 163.261669 -41.96 
L 162.419672 -41.96 
L 161.577675 -41.96 
L 160.735677 -41.96 
L 159.89368 -41.96 
L 159.051682 -41.96 
L 158.209685 -41.96 
L 157.367688 -41.96 
L 156.52569 -41.96 
L 155.683693 -41.96 
L 154.841696 -41.96 
L 153.999698 -41.96 
L 153.157701 -41.96 
L 152.315703 -41.96 
L 151.473706 -41.96 
L 150.631709 -41.96 
L 149.789711 -41.96 
L 148.947714 -41.96 
L 148.105717 -41.96 
L 147.263719 -41.96 
L 146.421722 -41.96 
L 145.579724 -41.96 
L 144.737727 -41.96 
L 143.89573 -41.96 
L 143.053732 -41.96 
L 142.211735 -41.96 
L 141.369738 -41.96 
L 140.52774 -41.96 
L 139.685743 -41.96 
L 138.843745 -41.96 
L 138.001748 -41.96 
L 137.159751 -41.96 
L 136.317753 -41.96 
L 135.475756 -41.96 
L 134.633759 -41.96 
L 133.791761 -41.96 
L 132.949764 -41.96 
L 132.107766 -41.96 
L 131.265769 -41.96 
L 130.423772 -41.96 
L 129.581774 -41.96 
L 128.739777 -41.96 
L 127.89778 -41.96 
L 127.055782 -41.96 
L 126.213785 -41.96 
L 125.371787 -41.96 
L 124.52979 -41.96 
L 123.687793 -41.96 
L 122.845795 -41.96 
L 122.003798 -41.96 
L 121.161801 -41.96 
L 120.319803 -41.96 
L 119.477806 -41.96 
L 118.635808 -41.96 
L 117.793811 -41.96 
L 116.951814 -41.96 
L 116.109816 -41.96 
L 115.267819 -41.96 
L 114.425822 -41.96 
L 113.583824 -41.96 
L 112.741827 -41.96 
L 111.899829 -41.96 
L 111.057832 -41.96 
L 110.215835 -41.96 
L 109.373837 -41.96 
L 108.53184 -41.96 
L 107.689843 -41.96 
L 106.847845 -41.96 
L 106.005848 -41.96 
L 105.16385 -41.96 
L 104.321853 -41.96 
L 103.479856 -41.96 
L 102.637858 -41.96 
L 101.795861 -41.96 
L 100.953864 -41.96 
L 100.111866 -41.96 
L 99.269869 -41.96 
L 98.427871 -41.96 
L 97.585874 -41.96 
L 96.743877 -41.96 
L 95.901879 -41.96 
L 95.059882 -41.96 
L 94.217885 -41.96 
L 93.375887 -41.96 
L 92.53389 -41.96 
L 91.691892 -41.96 
L 90.849895 -41.96 
L 90.007898 -41.96 
L 89.1659 -41.96 
L 88.323903 -41.96 
L 87.481906 -41.96 
L 86.639908 -41.96 
L 85.797911 -41.96 
L 84.955913 -41.96 
L 84.113916 -41.96 
L 83.271919 -41.96 
L 82.429921 -41.96 
L 81.587924 -41.96 
L 80.745927 -41.96 
L 79.903929 -41.96 
L 79.061932 -41.96 
L 78.219934 -41.96 
L 77.377937 -41.96 
L 76.53594 -41.96 
L 75.693942 -41.96 
L 74.851945 -41.96 
L 74.009948 -41.96 
L 73.16795 -41.96 
L 72.325953 -41.96 
L 71.483955 -41.96 
L 70.641958 -41.96 
L 69.799961 -41.96 
L 68.957963 -41.96 
L 68.115966 -41.96 
L 67.273969 -41.96 
L 66.431971 -41.96 
L 65.589974 -41.96 
L 64.747976 -41.96 
L 63.905979 -41.96 
L 63.063982 -41.96 
L 62.221984 -41.96 
L 61.379987 -41.96 
L 60.53799 -41.96 
L 59.695992 -41.96 
L 58.853995 -41.96 
L 58.011997 -41.96 
L 57.17 -41.96 
z
" style="stroke: #0000ff; stroke-opacity: 0.4"/>
    </defs>
    <g clip-path="url(#pc258458260)">
     <use xlink:href="#m710971a6c1" x="0" y="648" style="fill: #0000ff; fill-opacity: 0.4; stroke: #0000ff; stroke-opacity: 0.4"/>
    </g>
   </g>
   <g id="matplotlib.axis_5">
    <g id="xtick_13">
     <g id="line2d_31">
      <g>
       <use xlink:href="#m137a105dcf" x="57.17" y="606.04" style="stroke: #000000; stroke-width: 0.8"/>
      </g>
     </g>
     <g id="text_33">
      <!-- 0 -->
      <g transform="translate(53.98875 620.638438) scale(0.1 -0.1)">
       <use xlink:href="#DejaVuSans-30"/>
      </g>
     </g>
    </g>
    <g id="xtick_14">
     <g id="line2d_32">
      <g>
       <use xlink:href="#m137a105dcf" x="99.269869" y="606.04" style="stroke: #000000; stroke-width: 0.8"/>
      </g>
     </g>
     <g id="text_34">
      <!-- 50 -->
      <g transform="translate(92.907369 620.638438) scale(0.1 -0.1)">
       <use xlink:href="#DejaVuSans-35"/>
       <use xlink:href="#DejaVuSans-30" x="63.623047"/>
      </g>
     </g>
    </g>
    <g id="xtick_15">
     <g id="line2d_33">
      <g>
       <use xlink:href="#m137a105dcf" x="141.369738" y="606.04" style="stroke: #000000; stroke-width: 0.8"/>
      </g>
     </g>
     <g id="text_35">
      <!-- 100 -->
      <g transform="translate(131.825988 620.638438) scale(0.1 -0.1)">
       <use xlink:href="#DejaVuSans-31"/>
       <use xlink:href="#DejaVuSans-30" x="63.623047"/>
       <use xlink:href="#DejaVuSans-30" x="127.246094"/>
      </g>
     </g>
    </g>
    <g id="xtick_16">
     <g id="line2d_34">
      <g>
       <use xlink:href="#m137a105dcf" x="183.469606" y="606.04" style="stroke: #000000; stroke-width: 0.8"/>
      </g>
     </g>
     <g id="text_36">
      <!-- 150 -->
      <g transform="translate(173.925856 620.638438) scale(0.1 -0.1)">
       <use xlink:href="#DejaVuSans-31"/>
       <use xlink:href="#DejaVuSans-35" x="63.623047"/>
       <use xlink:href="#DejaVuSans-30" x="127.246094"/>
      </g>
     </g>
    </g>
    <g id="xtick_17">
     <g id="line2d_35">
      <g>
       <use xlink:href="#m137a105dcf" x="225.569475" y="606.04" style="stroke: #000000; stroke-width: 0.8"/>
      </g>
     </g>
     <g id="text_37">
      <!-- 200 -->
      <g transform="translate(216.025725 620.638438) scale(0.1 -0.1)">
       <use xlink:href="#DejaVuSans-32"/>
       <use xlink:href="#DejaVuSans-30" x="63.623047"/>
       <use xlink:href="#DejaVuSans-30" x="127.246094"/>
      </g>
     </g>
    </g>
    <g id="xtick_18">
     <g id="line2d_36">
      <g>
       <use xlink:href="#m137a105dcf" x="267.669344" y="606.04" style="stroke: #000000; stroke-width: 0.8"/>
      </g>
     </g>
     <g id="text_38">
      <!-- 250 -->
      <g transform="translate(258.125594 620.638438) scale(0.1 -0.1)">
       <use xlink:href="#DejaVuSans-32"/>
       <use xlink:href="#DejaVuSans-35" x="63.623047"/>
       <use xlink:href="#DejaVuSans-30" x="127.246094"/>
      </g>
     </g>
    </g>
    <g id="text_39">
     <!-- Pixel Intensity -->
     <g transform="translate(130.033945 634.316563) scale(0.1 -0.1)">
      <defs>
       <path id="DejaVuSans-49" d="M 628 4666 
L 1259 4666 
L 1259 0 
L 628 0 
L 628 4666 
z
" transform="scale(0.015625)"/>
       <path id="DejaVuSans-74" d="M 1172 4494 
L 1172 3500 
L 2356 3500 
L 2356 3053 
L 1172 3053 
L 1172 1153 
Q 1172 725 1289 603 
Q 1406 481 1766 481 
L 2356 481 
L 2356 0 
L 1766 0 
Q 1100 0 847 248 
Q 594 497 594 1153 
L 594 3053 
L 172 3053 
L 172 3500 
L 594 3500 
L 594 4494 
L 1172 4494 
z
" transform="scale(0.015625)"/>
       <path id="DejaVuSans-73" d="M 2834 3397 
L 2834 2853 
Q 2591 2978 2328 3040 
Q 2066 3103 1784 3103 
Q 1356 3103 1142 2972 
Q 928 2841 928 2578 
Q 928 2378 1081 2264 
Q 1234 2150 1697 2047 
L 1894 2003 
Q 2506 1872 2764 1633 
Q 3022 1394 3022 966 
Q 3022 478 2636 193 
Q 2250 -91 1575 -91 
Q 1294 -91 989 -36 
Q 684 19 347 128 
L 347 722 
Q 666 556 975 473 
Q 1284 391 1588 391 
Q 1994 391 2212 530 
Q 2431 669 2431 922 
Q 2431 1156 2273 1281 
Q 2116 1406 1581 1522 
L 1381 1569 
Q 847 1681 609 1914 
Q 372 2147 372 2553 
Q 372 3047 722 3315 
Q 1072 3584 1716 3584 
Q 2034 3584 2315 3537 
Q 2597 3491 2834 3397 
z
" transform="scale(0.015625)"/>
      </defs>
      <use xlink:href="#DejaVuSans-50"/>
      <use xlink:href="#DejaVuSans-69" x="58.052734"/>
      <use xlink:href="#DejaVuSans-78" x="85.835938"/>
      <use xlink:href="#DejaVuSans-65" x="141.890625"/>
      <use xlink:href="#DejaVuSans-6c" x="203.414062"/>
      <use xlink:href="#DejaVuSans-20" x="231.197266"/>
      <use xlink:href="#DejaVuSans-49" x="262.984375"/>
      <use xlink:href="#DejaVuSans-6e" x="292.476562"/>
      <use xlink:href="#DejaVuSans-74" x="355.855469"/>
      <use xlink:href="#DejaVuSans-65" x="395.064453"/>
      <use xlink:href="#DejaVuSans-6e" x="456.587891"/>
      <use xlink:href="#DejaVuSans-73" x="519.966797"/>
      <use xlink:href="#DejaVuSans-69" x="572.066406"/>
      <use xlink:href="#DejaVuSans-74" x="599.849609"/>
      <use xlink:href="#DejaVuSans-79" x="639.058594"/>
     </g>
    </g>
   </g>
   <g id="matplotlib.axis_6">
    <g id="ytick_17">
     <g id="line2d_37">
      <g>
       <use xlink:href="#m120af15b4c" x="57.17" y="606.04" style="stroke: #000000; stroke-width: 0.8"/>
      </g>
     </g>
     <g id="text_40">
      <!-- 0 -->
      <g transform="translate(43.8075 609.839219) scale(0.1 -0.1)">
       <use xlink:href="#DejaVuSans-30"/>
      </g>
     </g>
    </g>
    <g id="ytick_18">
     <g id="line2d_38">
      <g>
       <use xlink:href="#m120af15b4c" x="57.17" y="583.477056" style="stroke: #000000; stroke-width: 0.8"/>
      </g>
     </g>
     <g id="text_41">
      <!-- 500 -->
      <g transform="translate(31.0825 587.276274) scale(0.1 -0.1)">
       <use xlink:href="#DejaVuSans-35"/>
       <use xlink:href="#DejaVuSans-30" x="63.623047"/>
       <use xlink:href="#DejaVuSans-30" x="127.246094"/>
      </g>
     </g>
    </g>
    <g id="ytick_19">
     <g id="line2d_39">
      <g>
       <use xlink:href="#m120af15b4c" x="57.17" y="560.914111" style="stroke: #000000; stroke-width: 0.8"/>
      </g>
     </g>
     <g id="text_42">
      <!-- 1000 -->
      <g transform="translate(24.72 564.71333) scale(0.1 -0.1)">
       <use xlink:href="#DejaVuSans-31"/>
       <use xlink:href="#DejaVuSans-30" x="63.623047"/>
       <use xlink:href="#DejaVuSans-30" x="127.246094"/>
       <use xlink:href="#DejaVuSans-30" x="190.869141"/>
      </g>
     </g>
    </g>
    <g id="ytick_20">
     <g id="line2d_40">
      <g>
       <use xlink:href="#m120af15b4c" x="57.17" y="538.351167" style="stroke: #000000; stroke-width: 0.8"/>
      </g>
     </g>
     <g id="text_43">
      <!-- 1500 -->
      <g transform="translate(24.72 542.150386) scale(0.1 -0.1)">
       <use xlink:href="#DejaVuSans-31"/>
       <use xlink:href="#DejaVuSans-35" x="63.623047"/>
       <use xlink:href="#DejaVuSans-30" x="127.246094"/>
       <use xlink:href="#DejaVuSans-30" x="190.869141"/>
      </g>
     </g>
    </g>
    <g id="ytick_21">
     <g id="line2d_41">
      <g>
       <use xlink:href="#m120af15b4c" x="57.17" y="515.788223" style="stroke: #000000; stroke-width: 0.8"/>
      </g>
     </g>
     <g id="text_44">
      <!-- 2000 -->
      <g transform="translate(24.72 519.587441) scale(0.1 -0.1)">
       <use xlink:href="#DejaVuSans-32"/>
       <use xlink:href="#DejaVuSans-30" x="63.623047"/>
       <use xlink:href="#DejaVuSans-30" x="127.246094"/>
       <use xlink:href="#DejaVuSans-30" x="190.869141"/>
      </g>
     </g>
    </g>
    <g id="ytick_22">
     <g id="line2d_42">
      <g>
       <use xlink:href="#m120af15b4c" x="57.17" y="493.225278" style="stroke: #000000; stroke-width: 0.8"/>
      </g>
     </g>
     <g id="text_45">
      <!-- 2500 -->
      <g transform="translate(24.72 497.024497) scale(0.1 -0.1)">
       <use xlink:href="#DejaVuSans-32"/>
       <use xlink:href="#DejaVuSans-35" x="63.623047"/>
       <use xlink:href="#DejaVuSans-30" x="127.246094"/>
       <use xlink:href="#DejaVuSans-30" x="190.869141"/>
      </g>
     </g>
    </g>
    <g id="ytick_23">
     <g id="line2d_43">
      <g>
       <use xlink:href="#m120af15b4c" x="57.17" y="470.662334" style="stroke: #000000; stroke-width: 0.8"/>
      </g>
     </g>
     <g id="text_46">
      <!-- 3000 -->
      <g transform="translate(24.72 474.461553) scale(0.1 -0.1)">
       <use xlink:href="#DejaVuSans-33"/>
       <use xlink:href="#DejaVuSans-30" x="63.623047"/>
       <use xlink:href="#DejaVuSans-30" x="127.246094"/>
       <use xlink:href="#DejaVuSans-30" x="190.869141"/>
      </g>
     </g>
    </g>
    <g id="ytick_24">
     <g id="line2d_44">
      <g>
       <use xlink:href="#m120af15b4c" x="57.17" y="448.099389" style="stroke: #000000; stroke-width: 0.8"/>
      </g>
     </g>
     <g id="text_47">
      <!-- 3500 -->
      <g transform="translate(24.72 451.898608) scale(0.1 -0.1)">
       <use xlink:href="#DejaVuSans-33"/>
       <use xlink:href="#DejaVuSans-35" x="63.623047"/>
       <use xlink:href="#DejaVuSans-30" x="127.246094"/>
       <use xlink:href="#DejaVuSans-30" x="190.869141"/>
      </g>
     </g>
    </g>
    <g id="text_48">
     <!-- Pixel Frequency -->
     <g transform="translate(18.640313 555.105573) rotate(-90) scale(0.1 -0.1)">
      <use xlink:href="#DejaVuSans-50"/>
      <use xlink:href="#DejaVuSans-69" x="58.052734"/>
      <use xlink:href="#DejaVuSans-78" x="85.835938"/>
      <use xlink:href="#DejaVuSans-65" x="141.890625"/>
      <use xlink:href="#DejaVuSans-6c" x="203.414062"/>
      <use xlink:href="#DejaVuSans-20" x="231.197266"/>
      <use xlink:href="#DejaVuSans-46" x="262.984375"/>
      <use xlink:href="#DejaVuSans-72" x="313.253906"/>
      <use xlink:href="#DejaVuSans-65" x="352.117188"/>
      <use xlink:href="#DejaVuSans-71" x="413.640625"/>
      <use xlink:href="#DejaVuSans-75" x="477.117188"/>
      <use xlink:href="#DejaVuSans-65" x="540.496094"/>
      <use xlink:href="#DejaVuSans-6e" x="602.019531"/>
      <use xlink:href="#DejaVuSans-63" x="665.398438"/>
      <use xlink:href="#DejaVuSans-79" x="720.378906"/>
     </g>
    </g>
   </g>
   <g id="line2d_45">
    <path d="M 57.17 606.04 
L 88.323903 605.994874 
L 89.1659 605.724119 
L 90.007898 605.724119 
L 90.849895 605.453363 
L 91.691892 605.002105 
L 92.53389 604.370342 
L 93.375887 604.009335 
L 95.059882 602.836062 
L 96.743877 602.565307 
L 97.585874 601.392033 
L 98.427871 602.565307 
L 99.269869 601.753041 
L 100.111866 601.346908 
L 100.953864 601.662789 
L 101.795861 601.301782 
L 102.637858 600.534642 
L 103.479856 600.579767 
L 104.321853 601.031026 
L 105.16385 599.496746 
L 106.005848 600.354138 
L 106.847845 599.45162 
L 107.689843 598.91011 
L 108.53184 598.774732 
L 109.373837 597.601459 
L 110.215835 597.375829 
L 111.057832 597.556333 
L 111.899829 596.92457 
L 112.741827 595.435416 
L 113.583824 595.661046 
L 115.267819 593.946262 
L 116.109816 594.803654 
L 116.951814 594.668276 
L 117.793811 593.810884 
L 118.635808 592.005849 
L 119.477806 591.689967 
L 120.319803 594.036514 
L 121.161801 592.32173 
L 122.003798 593.133996 
L 122.845795 592.32173 
L 123.687793 593.314499 
L 124.52979 590.381317 
L 125.371787 591.238708 
L 126.213785 590.245939 
L 127.055782 591.55459 
L 128.739777 589.975184 
L 129.581774 589.79468 
L 130.423772 589.253169 
L 131.265769 588.576281 
L 132.107766 589.749554 
L 132.949764 586.816371 
L 133.791761 588.576281 
L 134.633759 586.50049 
L 135.475756 586.184609 
L 137.159751 587.718889 
L 138.001748 587.087127 
L 138.843745 587.854267 
L 139.685743 585.101588 
L 141.369738 586.771246 
L 143.053732 586.50049 
L 143.89573 584.830832 
L 144.737727 585.688224 
L 145.579724 585.191839 
L 146.421722 585.191839 
L 147.263719 585.643098 
L 148.105717 583.792937 
L 149.789711 586.455364 
L 150.631709 585.643098 
L 151.473706 585.643098 
L 152.315703 585.236965 
L 153.157701 587.312756 
L 153.999698 583.341678 
L 154.841696 584.875958 
L 155.683693 585.011336 
L 156.52569 584.379573 
L 158.209685 584.875958 
L 159.051682 584.19907 
L 159.89368 584.875958 
L 160.735677 586.771246 
L 161.577675 587.809141 
L 162.419672 585.913854 
L 163.261669 584.921084 
L 164.103667 584.19907 
L 164.945664 585.597972 
L 165.787661 585.688224 
L 166.629659 584.469825 
L 167.471656 584.785706 
L 168.313654 586.455364 
L 169.155651 584.605203 
L 169.997648 583.161174 
L 170.839646 585.327217 
L 171.681643 584.921084 
L 172.52364 586.635868 
L 173.365638 586.410238 
L 174.207635 586.771246 
L 175.049633 587.944519 
L 176.733627 586.094357 
L 177.575625 587.538386 
L 178.417622 590.336191 
L 179.259619 590.832575 
L 180.101617 589.704428 
L 180.943614 591.960723 
L 182.627609 591.238708 
L 183.469606 592.276604 
L 184.311604 592.547359 
L 185.153601 592.005849 
L 185.995598 592.050974 
L 186.837596 592.727863 
L 187.679593 595.029283 
L 188.521591 593.630381 
L 190.205585 593.765758 
L 191.047583 594.939031 
L 191.88958 594.397521 
L 192.731577 595.209787 
L 193.573575 595.751297 
L 194.415572 595.39029 
L 195.25757 594.126765 
L 196.099567 594.803654 
L 196.941564 595.029283 
L 197.783562 597.420955 
L 198.625559 594.036514 
L 199.467556 594.984157 
L 200.309554 594.352395 
L 201.151551 595.751297 
L 201.993549 595.976927 
L 202.835546 597.91734 
L 203.677543 597.420955 
L 204.519541 595.61592 
L 205.361538 596.698941 
L 206.203535 596.15743 
L 207.045533 600.21876 
L 207.88753 595.61592 
L 208.729528 594.036514 
L 209.571525 594.487772 
L 210.413522 595.570794 
L 211.25552 598.007592 
L 212.097517 597.195326 
L 212.939514 599.361368 
L 213.781512 593.675506 
L 214.623509 596.698941 
L 215.465507 596.698941 
L 216.307504 601.076152 
L 217.149501 594.803654 
L 217.991499 597.014822 
L 218.833496 596.337934 
L 219.675493 597.059948 
L 220.517491 598.819858 
L 221.359488 601.707915 
L 222.201486 600.21876 
L 223.043483 598.097844 
L 224.727478 600.263886 
L 225.569475 603.828831 
L 226.411472 598.458851 
L 227.25347 599.902879 
L 228.095467 597.691711 
L 228.937465 600.670019 
L 229.779462 600.489516 
L 230.621459 604.370342 
L 231.463457 598.594228 
L 232.305454 601.933544 
L 233.147451 598.864984 
L 233.989449 604.144713 
L 234.831446 602.204299 
L 235.673444 602.023796 
L 236.515441 600.624893 
L 237.357438 600.399264 
L 239.041433 604.189839 
L 239.88343 604.686223 
L 240.725428 601.843292 
L 241.567425 603.783706 
L 242.409423 603.693454 
L 243.25142 605.724119 
L 244.093417 603.287321 
L 244.935415 604.009335 
L 245.777412 603.287321 
L 246.619409 604.009335 
L 247.461407 604.28009 
L 248.303404 605.949748 
L 249.145402 603.558076 
L 249.987399 604.911853 
L 250.829396 604.731349 
L 251.671394 605.949748 
L 252.513391 604.370342 
L 253.355388 605.092356 
L 254.197386 604.189839 
L 255.039383 605.363112 
L 255.881381 605.453363 
L 256.723378 605.859496 
L 257.565375 604.911853 
L 258.407373 605.543615 
L 259.24937 605.227734 
L 260.091367 605.994874 
L 260.933365 605.363112 
L 261.775362 605.633867 
L 262.61736 605.678993 
L 263.459357 606.04 
L 271.879331 606.04 
L 271.879331 606.04 
" clip-path="url(#pc258458260)" style="fill: none; stroke: #0000ff; stroke-width: 1.5; stroke-linecap: square"/>
   </g>
   <g id="patch_13">
    <path d="M 57.17 606.04 
L 57.17 426.213333 
" style="fill: none; stroke: #000000; stroke-width: 0.8; stroke-linejoin: miter; stroke-linecap: square"/>
   </g>
   <g id="patch_14">
    <path d="M 272.721328 606.04 
L 272.721328 426.213333 
" style="fill: none; stroke: #000000; stroke-width: 0.8; stroke-linejoin: miter; stroke-linecap: square"/>
   </g>
   <g id="patch_15">
    <path d="M 57.17 606.04 
L 272.721328 606.04 
" style="fill: none; stroke: #000000; stroke-width: 0.8; stroke-linejoin: miter; stroke-linecap: square"/>
   </g>
   <g id="patch_16">
    <path d="M 57.17 426.213333 
L 272.721328 426.213333 
" style="fill: none; stroke: #000000; stroke-width: 0.8; stroke-linejoin: miter; stroke-linecap: square"/>
   </g>
   <g id="text_49">
    <!-- Blue Channel  -->
    <g transform="translate(189.272578 440.213333) scale(0.12 -0.12)">
     <defs>
      <path id="DejaVuSans-42" d="M 1259 2228 
L 1259 519 
L 2272 519 
Q 2781 519 3026 730 
Q 3272 941 3272 1375 
Q 3272 1813 3026 2020 
Q 2781 2228 2272 2228 
L 1259 2228 
z
M 1259 4147 
L 1259 2741 
L 2194 2741 
Q 2656 2741 2882 2914 
Q 3109 3088 3109 3444 
Q 3109 3797 2882 3972 
Q 2656 4147 2194 4147 
L 1259 4147 
z
M 628 4666 
L 2241 4666 
Q 2963 4666 3353 4366 
Q 3744 4066 3744 3513 
Q 3744 3084 3544 2831 
Q 3344 2578 2956 2516 
Q 3422 2416 3680 2098 
Q 3938 1781 3938 1306 
Q 3938 681 3513 340 
Q 3088 0 2303 0 
L 628 0 
L 628 4666 
z
" transform="scale(0.015625)"/>
     </defs>
     <use xlink:href="#DejaVuSans-42"/>
     <use xlink:href="#DejaVuSans-6c" x="68.603516"/>
     <use xlink:href="#DejaVuSans-75" x="96.386719"/>
     <use xlink:href="#DejaVuSans-65" x="159.765625"/>
     <use xlink:href="#DejaVuSans-20" x="221.289062"/>
     <use xlink:href="#DejaVuSans-43" x="253.076172"/>
     <use xlink:href="#DejaVuSans-68" x="322.900391"/>
     <use xlink:href="#DejaVuSans-61" x="386.279297"/>
     <use xlink:href="#DejaVuSans-6e" x="447.558594"/>
     <use xlink:href="#DejaVuSans-6e" x="510.9375"/>
     <use xlink:href="#DejaVuSans-65" x="574.316406"/>
     <use xlink:href="#DejaVuSans-6c" x="635.839844"/>
     <use xlink:href="#DejaVuSans-20" x="663.623047"/>
    </g>
   </g>
  </g>
 </g>
 <defs>
  <clipPath id="pafd43b1cd2">
   <rect x="57.17" y="10.8" width="215.551328" height="179.826667"/>
  </clipPath>
  <clipPath id="pcf5f24c4a3">
   <rect x="57.17" y="218.506667" width="215.551328" height="179.826667"/>
  </clipPath>
  <clipPath id="pc258458260">
   <rect x="57.17" y="426.213333" width="215.551328" height="179.826667"/>
  </clipPath>
 </defs>
</svg>
