<?xml version="1.0" encoding="utf-8" standalone="no"?>
<!DOCTYPE svg PUBLIC "-//W3C//DTD SVG 1.1//EN"
  "http://www.w3.org/Graphics/SVG/1.1/DTD/svg11.dtd">
<svg xmlns:xlink="http://www.w3.org/1999/xlink" width="288pt" height="648pt" viewBox="0 0 288 648" xmlns="http://www.w3.org/2000/svg" version="1.1">
 <metadata>
  <rdf:RDF xmlns:dc="http://purl.org/dc/elements/1.1/" xmlns:cc="http://creativecommons.org/ns#" xmlns:rdf="http://www.w3.org/1999/02/22-rdf-syntax-ns#">
   <cc:Work>
    <dc:type rdf:resource="http://purl.org/dc/dcmitype/StillImage"/>
    <dc:date>2023-11-18T15:20:20.644424</dc:date>
    <dc:format>image/svg+xml</dc:format>
    <dc:creator>
     <cc:Agent>
      <dc:title>Matplotlib v3.8.0, https://matplotlib.org/</dc:title>
     </cc:Agent>
    </dc:creator>
   </cc:Work>
  </rdf:RDF>
 </metadata>
 <defs>
  <style type="text/css">*{stroke-linejoin: round; stroke-linecap: butt}</style>
 </defs>
 <g id="figure_1">
  <g id="patch_1">
   <path d="M 0 648 
L 288 648 
L 288 0 
L 0 0 
z
" style="fill: #ffffff"/>
  </g>
  <g id="axes_1">
   <g id="patch_2">
    <path d="M 57.17 190.626667 
L 272.721328 190.626667 
L 272.721328 11.266698 
L 57.17 11.266698 
z
" style="fill: #ffffff"/>
   </g>
   <g id="PolyCollection_1">
    <defs>
     <path id="m83667887f2" d="M 57.17 -457.373333 
L 57.17 -457.373333 
L 58.011997 -457.373333 
L 58.853995 -457.373333 
L 59.695992 -457.373333 
L 60.53799 -457.373333 
L 61.379987 -457.373333 
L 62.221984 -457.373333 
L 63.063982 -457.373333 
L 63.905979 -457.373333 
L 64.747976 -457.373333 
L 65.589974 -457.373333 
L 66.431971 -457.373333 
L 67.273969 -457.373333 
L 68.115966 -457.373333 
L 68.957963 -457.373333 
L 69.799961 -457.373333 
L 70.641958 -457.373333 
L 71.483955 -457.373333 
L 72.325953 -457.373333 
L 73.16795 -457.373333 
L 74.009948 -457.373333 
L 74.851945 -457.373333 
L 75.693942 -457.373333 
L 76.53594 -457.373333 
L 77.377937 -457.373333 
L 78.219934 -457.373333 
L 79.061932 -457.373333 
L 79.903929 -457.373333 
L 80.745927 -457.373333 
L 81.587924 -457.373333 
L 82.429921 -457.373333 
L 83.271919 -457.373333 
L 84.113916 -457.373333 
L 84.955913 -457.373333 
L 85.797911 -457.373333 
L 86.639908 -457.373333 
L 87.481906 -457.373333 
L 88.323903 -457.373333 
L 89.1659 -457.373333 
L 90.007898 -457.373333 
L 90.849895 -457.373333 
L 91.691892 -457.373333 
L 92.53389 -457.373333 
L 93.375887 -457.373333 
L 94.217885 -457.373333 
L 95.059882 -457.373333 
L 95.901879 -457.373333 
L 96.743877 -457.373333 
L 97.585874 -457.373333 
L 98.427871 -457.373333 
L 99.269869 -457.373333 
L 100.111866 -457.373333 
L 100.953864 -457.373333 
L 101.795861 -457.373333 
L 102.637858 -457.373333 
L 103.479856 -457.373333 
L 104.321853 -457.373333 
L 105.16385 -457.373333 
L 106.005848 -457.373333 
L 106.847845 -457.373333 
L 107.689843 -457.373333 
L 108.53184 -457.373333 
L 109.373837 -457.373333 
L 110.215835 -457.373333 
L 111.057832 -457.373333 
L 111.899829 -457.373333 
L 112.741827 -457.373333 
L 113.583824 -457.373333 
L 114.425822 -457.373333 
L 115.267819 -457.373333 
L 116.109816 -457.373333 
L 116.951814 -457.373333 
L 117.793811 -457.373333 
L 118.635808 -457.373333 
L 119.477806 -457.373333 
L 120.319803 -457.373333 
L 121.161801 -457.373333 
L 122.003798 -457.373333 
L 122.845795 -457.373333 
L 123.687793 -457.373333 
L 124.52979 -457.373333 
L 125.371787 -457.373333 
L 126.213785 -457.373333 
L 127.055782 -457.373333 
L 127.89778 -457.373333 
L 128.739777 -457.373333 
L 129.581774 -457.373333 
L 130.423772 -457.373333 
L 131.265769 -457.373333 
L 132.107766 -457.373333 
L 132.949764 -457.373333 
L 133.791761 -457.373333 
L 134.633759 -457.373333 
L 135.475756 -457.373333 
L 136.317753 -457.373333 
L 137.159751 -457.373333 
L 138.001748 -457.373333 
L 138.843745 -457.373333 
L 139.685743 -457.373333 
L 140.52774 -457.373333 
L 141.369738 -457.373333 
L 142.211735 -457.373333 
L 143.053732 -457.373333 
L 143.89573 -457.373333 
L 144.737727 -457.373333 
L 145.579724 -457.443698 
L 146.421722 -457.584428 
L 147.263719 -457.443698 
L 148.105717 -457.373333 
L 148.947714 -457.584428 
L 149.789711 -457.373333 
L 150.631709 -457.373333 
L 151.473706 -457.584428 
L 152.315703 -457.443698 
L 153.157701 -457.514063 
L 153.999698 -457.725158 
L 154.841696 -457.373333 
L 155.683693 -457.725158 
L 156.52569 -457.725158 
L 157.367688 -457.795522 
L 158.209685 -457.795522 
L 159.051682 -457.865887 
L 159.89368 -458.076982 
L 160.735677 -458.428806 
L 161.577675 -457.936252 
L 162.419672 -458.076982 
L 163.261669 -458.6399 
L 164.103667 -458.358441 
L 164.945664 -458.076982 
L 165.787661 -458.850995 
L 166.629659 -459.343549 
L 167.471656 -459.062089 
L 168.313654 -460.680481 
L 169.155651 -460.750845 
L 169.997648 -460.96194 
L 170.839646 -461.032305 
L 171.681643 -461.173035 
L 172.52364 -461.243399 
L 173.365638 -461.313764 
L 174.207635 -461.947048 
L 175.049633 -462.721061 
L 175.89163 -463.00252 
L 176.733627 -463.213615 
L 177.575625 -464.409817 
L 178.417622 -465.535654 
L 179.259619 -465.46529 
L 180.101617 -465.254195 
L 180.943614 -465.957843 
L 181.785612 -466.802221 
L 182.627609 -464.761641 
L 183.469606 -466.239303 
L 184.311604 -468.350248 
L 185.153601 -467.576235 
L 185.995598 -468.983531 
L 186.837596 -470.953747 
L 187.679593 -468.139153 
L 188.521591 -469.827909 
L 189.363588 -470.320463 
L 190.205585 -472.009219 
L 191.047583 -471.72776 
L 191.88958 -471.86849 
L 192.731577 -473.979435 
L 193.573575 -472.853597 
L 194.415572 -475.808921 
L 195.25757 -479.327162 
L 196.099567 -476.512569 
L 196.941564 -478.764244 
L 197.783562 -480.875189 
L 198.625559 -478.904973 
L 199.467556 -484.604525 
L 200.309554 -486.082187 
L 201.151551 -488.685686 
L 201.993549 -493.048306 
L 202.835546 -490.022618 
L 203.677543 -492.837211 
L 204.519541 -495.088886 
L 205.361538 -498.255303 
L 206.203535 -498.747857 
L 207.045533 -501.140262 
L 207.88753 -500.295884 
L 208.729528 -503.814126 
L 209.571525 -501.914275 
L 210.413522 -499.80333 
L 211.25552 -502.336464 
L 212.097517 -501.069897 
L 212.939514 -499.170046 
L 213.781512 -501.632816 
L 214.623509 -500.647708 
L 215.465507 -501.210627 
L 216.307504 -499.80333 
L 217.149501 -498.958952 
L 217.991499 -496.003629 
L 218.833496 -500.084789 
L 219.675493 -495.088886 
L 220.517491 -494.737062 
L 221.359488 -495.370345 
L 222.201486 -493.751954 
L 223.043483 -491.359549 
L 223.88548 -492.063198 
L 224.727478 -490.092982 
L 225.569475 -486.99693 
L 226.411472 -491.570644 
L 227.25347 -488.685686 
L 228.095467 -486.504376 
L 228.937465 -487.630213 
L 229.779462 -488.474591 
L 230.621459 -484.111971 
L 231.463457 -486.574741 
L 232.305454 -483.971242 
L 233.147451 -484.463795 
L 233.989449 -483.197228 
L 234.831446 -483.760147 
L 235.673444 -482.071391 
L 236.515441 -485.026714 
L 237.357438 -484.53416 
L 238.199436 -484.393431 
L 239.041433 -484.463795 
L 239.88343 -486.99693 
L 240.725428 -481.578837 
L 241.567425 -480.875189 
L 242.409423 -483.900877 
L 243.25142 -484.323066 
L 244.093417 -481.649202 
L 244.935415 -480.804824 
L 245.777412 -484.745255 
L 246.619409 -484.323066 
L 247.461407 -483.689782 
L 248.303404 -483.900877 
L 249.145402 -485.308174 
L 249.987399 -483.830512 
L 250.829396 -485.730363 
L 251.671394 -486.011822 
L 252.513391 -484.252701 
L 253.355388 -484.67489 
L 254.197386 -487.911672 
L 255.039383 -487.911672 
L 255.881381 -486.574741 
L 256.723378 -490.726266 
L 257.565375 -489.952253 
L 258.407373 -488.826415 
L 259.24937 -493.611224 
L 260.091367 -493.2594 
L 260.933365 -494.174143 
L 261.775362 -497.903479 
L 262.61736 -500.577343 
L 263.459357 -505.995436 
L 264.301354 -507.543462 
L 265.143352 -509.935866 
L 265.985349 -515.916878 
L 266.827346 -516.339067 
L 267.669344 -526.471603 
L 268.511341 -543.922083 
L 269.353339 -541.529678 
L 270.195336 -519.224025 
L 271.037333 -480.101176 
L 271.879331 -462.017413 
L 271.879331 -457.373333 
L 271.879331 -457.373333 
L 271.037333 -457.373333 
L 270.195336 -457.373333 
L 269.353339 -457.373333 
L 268.511341 -457.373333 
L 267.669344 -457.373333 
L 266.827346 -457.373333 
L 265.985349 -457.373333 
L 265.143352 -457.373333 
L 264.301354 -457.373333 
L 263.459357 -457.373333 
L 262.61736 -457.373333 
L 261.775362 -457.373333 
L 260.933365 -457.373333 
L 260.091367 -457.373333 
L 259.24937 -457.373333 
L 258.407373 -457.373333 
L 257.565375 -457.373333 
L 256.723378 -457.373333 
L 255.881381 -457.373333 
L 255.039383 -457.373333 
L 254.197386 -457.373333 
L 253.355388 -457.373333 
L 252.513391 -457.373333 
L 251.671394 -457.373333 
L 250.829396 -457.373333 
L 249.987399 -457.373333 
L 249.145402 -457.373333 
L 248.303404 -457.373333 
L 247.461407 -457.373333 
L 246.619409 -457.373333 
L 245.777412 -457.373333 
L 244.935415 -457.373333 
L 244.093417 -457.373333 
L 243.25142 -457.373333 
L 242.409423 -457.373333 
L 241.567425 -457.373333 
L 240.725428 -457.373333 
L 239.88343 -457.373333 
L 239.041433 -457.373333 
L 238.199436 -457.373333 
L 237.357438 -457.373333 
L 236.515441 -457.373333 
L 235.673444 -457.373333 
L 234.831446 -457.373333 
L 233.989449 -457.373333 
L 233.147451 -457.373333 
L 232.305454 -457.373333 
L 231.463457 -457.373333 
L 230.621459 -457.373333 
L 229.779462 -457.373333 
L 228.937465 -457.373333 
L 228.095467 -457.373333 
L 227.25347 -457.373333 
L 226.411472 -457.373333 
L 225.569475 -457.373333 
L 224.727478 -457.373333 
L 223.88548 -457.373333 
L 223.043483 -457.373333 
L 222.201486 -457.373333 
L 221.359488 -457.373333 
L 220.517491 -457.373333 
L 219.675493 -457.373333 
L 218.833496 -457.373333 
L 217.991499 -457.373333 
L 217.149501 -457.373333 
L 216.307504 -457.373333 
L 215.465507 -457.373333 
L 214.623509 -457.373333 
L 213.781512 -457.373333 
L 212.939514 -457.373333 
L 212.097517 -457.373333 
L 211.25552 -457.373333 
L 210.413522 -457.373333 
L 209.571525 -457.373333 
L 208.729528 -457.373333 
L 207.88753 -457.373333 
L 207.045533 -457.373333 
L 206.203535 -457.373333 
L 205.361538 -457.373333 
L 204.519541 -457.373333 
L 203.677543 -457.373333 
L 202.835546 -457.373333 
L 201.993549 -457.373333 
L 201.151551 -457.373333 
L 200.309554 -457.373333 
L 199.467556 -457.373333 
L 198.625559 -457.373333 
L 197.783562 -457.373333 
L 196.941564 -457.373333 
L 196.099567 -457.373333 
L 195.25757 -457.373333 
L 194.415572 -457.373333 
L 193.573575 -457.373333 
L 192.731577 -457.373333 
L 191.88958 -457.373333 
L 191.047583 -457.373333 
L 190.205585 -457.373333 
L 189.363588 -457.373333 
L 188.521591 -457.373333 
L 187.679593 -457.373333 
L 186.837596 -457.373333 
L 185.995598 -457.373333 
L 185.153601 -457.373333 
L 184.311604 -457.373333 
L 183.469606 -457.373333 
L 182.627609 -457.373333 
L 181.785612 -457.373333 
L 180.943614 -457.373333 
L 180.101617 -457.373333 
L 179.259619 -457.373333 
L 178.417622 -457.373333 
L 177.575625 -457.373333 
L 176.733627 -457.373333 
L 175.89163 -457.373333 
L 175.049633 -457.373333 
L 174.207635 -457.373333 
L 173.365638 -457.373333 
L 172.52364 -457.373333 
L 171.681643 -457.373333 
L 170.839646 -457.373333 
L 169.997648 -457.373333 
L 169.155651 -457.373333 
L 168.313654 -457.373333 
L 167.471656 -457.373333 
L 166.629659 -457.373333 
L 165.787661 -457.373333 
L 164.945664 -457.373333 
L 164.103667 -457.373333 
L 163.261669 -457.373333 
L 162.419672 -457.373333 
L 161.577675 -457.373333 
L 160.735677 -457.373333 
L 159.89368 -457.373333 
L 159.051682 -457.373333 
L 158.209685 -457.373333 
L 157.367688 -457.373333 
L 156.52569 -457.373333 
L 155.683693 -457.373333 
L 154.841696 -457.373333 
L 153.999698 -457.373333 
L 153.157701 -457.373333 
L 152.315703 -457.373333 
L 151.473706 -457.373333 
L 150.631709 -457.373333 
L 149.789711 -457.373333 
L 148.947714 -457.373333 
L 148.105717 -457.373333 
L 147.263719 -457.373333 
L 146.421722 -457.373333 
L 145.579724 -457.373333 
L 144.737727 -457.373333 
L 143.89573 -457.373333 
L 143.053732 -457.373333 
L 142.211735 -457.373333 
L 141.369738 -457.373333 
L 140.52774 -457.373333 
L 139.685743 -457.373333 
L 138.843745 -457.373333 
L 138.001748 -457.373333 
L 137.159751 -457.373333 
L 136.317753 -457.373333 
L 135.475756 -457.373333 
L 134.633759 -457.373333 
L 133.791761 -457.373333 
L 132.949764 -457.373333 
L 132.107766 -457.373333 
L 131.265769 -457.373333 
L 130.423772 -457.373333 
L 129.581774 -457.373333 
L 128.739777 -457.373333 
L 127.89778 -457.373333 
L 127.055782 -457.373333 
L 126.213785 -457.373333 
L 125.371787 -457.373333 
L 124.52979 -457.373333 
L 123.687793 -457.373333 
L 122.845795 -457.373333 
L 122.003798 -457.373333 
L 121.161801 -457.373333 
L 120.319803 -457.373333 
L 119.477806 -457.373333 
L 118.635808 -457.373333 
L 117.793811 -457.373333 
L 116.951814 -457.373333 
L 116.109816 -457.373333 
L 115.267819 -457.373333 
L 114.425822 -457.373333 
L 113.583824 -457.373333 
L 112.741827 -457.373333 
L 111.899829 -457.373333 
L 111.057832 -457.373333 
L 110.215835 -457.373333 
L 109.373837 -457.373333 
L 108.53184 -457.373333 
L 107.689843 -457.373333 
L 106.847845 -457.373333 
L 106.005848 -457.373333 
L 105.16385 -457.373333 
L 104.321853 -457.373333 
L 103.479856 -457.373333 
L 102.637858 -457.373333 
L 101.795861 -457.373333 
L 100.953864 -457.373333 
L 100.111866 -457.373333 
L 99.269869 -457.373333 
L 98.427871 -457.373333 
L 97.585874 -457.373333 
L 96.743877 -457.373333 
L 95.901879 -457.373333 
L 95.059882 -457.373333 
L 94.217885 -457.373333 
L 93.375887 -457.373333 
L 92.53389 -457.373333 
L 91.691892 -457.373333 
L 90.849895 -457.373333 
L 90.007898 -457.373333 
L 89.1659 -457.373333 
L 88.323903 -457.373333 
L 87.481906 -457.373333 
L 86.639908 -457.373333 
L 85.797911 -457.373333 
L 84.955913 -457.373333 
L 84.113916 -457.373333 
L 83.271919 -457.373333 
L 82.429921 -457.373333 
L 81.587924 -457.373333 
L 80.745927 -457.373333 
L 79.903929 -457.373333 
L 79.061932 -457.373333 
L 78.219934 -457.373333 
L 77.377937 -457.373333 
L 76.53594 -457.373333 
L 75.693942 -457.373333 
L 74.851945 -457.373333 
L 74.009948 -457.373333 
L 73.16795 -457.373333 
L 72.325953 -457.373333 
L 71.483955 -457.373333 
L 70.641958 -457.373333 
L 69.799961 -457.373333 
L 68.957963 -457.373333 
L 68.115966 -457.373333 
L 67.273969 -457.373333 
L 66.431971 -457.373333 
L 65.589974 -457.373333 
L 64.747976 -457.373333 
L 63.905979 -457.373333 
L 63.063982 -457.373333 
L 62.221984 -457.373333 
L 61.379987 -457.373333 
L 60.53799 -457.373333 
L 59.695992 -457.373333 
L 58.853995 -457.373333 
L 58.011997 -457.373333 
L 57.17 -457.373333 
z
" style="stroke: #ff0000; stroke-opacity: 0.4"/>
    </defs>
    <g clip-path="url(#pde54cc1df4)">
     <use xlink:href="#m83667887f2" x="0" y="648" style="fill: #ff0000; fill-opacity: 0.4; stroke: #ff0000; stroke-opacity: 0.4"/>
    </g>
   </g>
   <g id="matplotlib.axis_1">
    <g id="xtick_1">
     <g id="line2d_1">
      <defs>
       <path id="me8790007f4" d="M 0 0 
L 0 3.5 
" style="stroke: #000000; stroke-width: 0.8"/>
      </defs>
      <g>
       <use xlink:href="#me8790007f4" x="57.17" y="190.626667" style="stroke: #000000; stroke-width: 0.8"/>
      </g>
     </g>
     <g id="text_1">
      <!-- 0 -->
      <g transform="translate(53.98875 205.225104) scale(0.1 -0.1)">
       <defs>
        <path id="DejaVuSans-30" d="M 2034 4250 
Q 1547 4250 1301 3770 
Q 1056 3291 1056 2328 
Q 1056 1369 1301 889 
Q 1547 409 2034 409 
Q 2525 409 2770 889 
Q 3016 1369 3016 2328 
Q 3016 3291 2770 3770 
Q 2525 4250 2034 4250 
z
M 2034 4750 
Q 2819 4750 3233 4129 
Q 3647 3509 3647 2328 
Q 3647 1150 3233 529 
Q 2819 -91 2034 -91 
Q 1250 -91 836 529 
Q 422 1150 422 2328 
Q 422 3509 836 4129 
Q 1250 4750 2034 4750 
z
" transform="scale(0.015625)"/>
       </defs>
       <use xlink:href="#DejaVuSans-30"/>
      </g>
     </g>
    </g>
    <g id="xtick_2">
     <g id="line2d_2">
      <g>
       <use xlink:href="#me8790007f4" x="99.269869" y="190.626667" style="stroke: #000000; stroke-width: 0.8"/>
      </g>
     </g>
     <g id="text_2">
      <!-- 50 -->
      <g transform="translate(92.907369 205.225104) scale(0.1 -0.1)">
       <defs>
        <path id="DejaVuSans-35" d="M 691 4666 
L 3169 4666 
L 3169 4134 
L 1269 4134 
L 1269 2991 
Q 1406 3038 1543 3061 
Q 1681 3084 1819 3084 
Q 2600 3084 3056 2656 
Q 3513 2228 3513 1497 
Q 3513 744 3044 326 
Q 2575 -91 1722 -91 
Q 1428 -91 1123 -41 
Q 819 9 494 109 
L 494 744 
Q 775 591 1075 516 
Q 1375 441 1709 441 
Q 2250 441 2565 725 
Q 2881 1009 2881 1497 
Q 2881 1984 2565 2268 
Q 2250 2553 1709 2553 
Q 1456 2553 1204 2497 
Q 953 2441 691 2322 
L 691 4666 
z
" transform="scale(0.015625)"/>
       </defs>
       <use xlink:href="#DejaVuSans-35"/>
       <use xlink:href="#DejaVuSans-30" x="63.623047"/>
      </g>
     </g>
    </g>
    <g id="xtick_3">
     <g id="line2d_3">
      <g>
       <use xlink:href="#me8790007f4" x="141.369738" y="190.626667" style="stroke: #000000; stroke-width: 0.8"/>
      </g>
     </g>
     <g id="text_3">
      <!-- 100 -->
      <g transform="translate(131.825988 205.225104) scale(0.1 -0.1)">
       <defs>
        <path id="DejaVuSans-31" d="M 794 531 
L 1825 531 
L 1825 4091 
L 703 3866 
L 703 4441 
L 1819 4666 
L 2450 4666 
L 2450 531 
L 3481 531 
L 3481 0 
L 794 0 
L 794 531 
z
" transform="scale(0.015625)"/>
       </defs>
       <use xlink:href="#DejaVuSans-31"/>
       <use xlink:href="#DejaVuSans-30" x="63.623047"/>
       <use xlink:href="#DejaVuSans-30" x="127.246094"/>
      </g>
     </g>
    </g>
    <g id="xtick_4">
     <g id="line2d_4">
      <g>
       <use xlink:href="#me8790007f4" x="183.469606" y="190.626667" style="stroke: #000000; stroke-width: 0.8"/>
      </g>
     </g>
     <g id="text_4">
      <!-- 150 -->
      <g transform="translate(173.925856 205.225104) scale(0.1 -0.1)">
       <use xlink:href="#DejaVuSans-31"/>
       <use xlink:href="#DejaVuSans-35" x="63.623047"/>
       <use xlink:href="#DejaVuSans-30" x="127.246094"/>
      </g>
     </g>
    </g>
    <g id="xtick_5">
     <g id="line2d_5">
      <g>
       <use xlink:href="#me8790007f4" x="225.569475" y="190.626667" style="stroke: #000000; stroke-width: 0.8"/>
      </g>
     </g>
     <g id="text_5">
      <!-- 200 -->
      <g transform="translate(216.025725 205.225104) scale(0.1 -0.1)">
       <defs>
        <path id="DejaVuSans-32" d="M 1228 531 
L 3431 531 
L 3431 0 
L 469 0 
L 469 531 
Q 828 903 1448 1529 
Q 2069 2156 2228 2338 
Q 2531 2678 2651 2914 
Q 2772 3150 2772 3378 
Q 2772 3750 2511 3984 
Q 2250 4219 1831 4219 
Q 1534 4219 1204 4116 
Q 875 4013 500 3803 
L 500 4441 
Q 881 4594 1212 4672 
Q 1544 4750 1819 4750 
Q 2544 4750 2975 4387 
Q 3406 4025 3406 3419 
Q 3406 3131 3298 2873 
Q 3191 2616 2906 2266 
Q 2828 2175 2409 1742 
Q 1991 1309 1228 531 
z
" transform="scale(0.015625)"/>
       </defs>
       <use xlink:href="#DejaVuSans-32"/>
       <use xlink:href="#DejaVuSans-30" x="63.623047"/>
       <use xlink:href="#DejaVuSans-30" x="127.246094"/>
      </g>
     </g>
    </g>
    <g id="xtick_6">
     <g id="line2d_6">
      <g>
       <use xlink:href="#me8790007f4" x="267.669344" y="190.626667" style="stroke: #000000; stroke-width: 0.8"/>
      </g>
     </g>
     <g id="text_6">
      <!-- 250 -->
      <g transform="translate(258.125594 205.225104) scale(0.1 -0.1)">
       <use xlink:href="#DejaVuSans-32"/>
       <use xlink:href="#DejaVuSans-35" x="63.623047"/>
       <use xlink:href="#DejaVuSans-30" x="127.246094"/>
      </g>
     </g>
    </g>
   </g>
   <g id="matplotlib.axis_2">
    <g id="ytick_1">
     <g id="line2d_7">
      <defs>
       <path id="me12675b382" d="M 0 0 
L -3.5 0 
" style="stroke: #000000; stroke-width: 0.8"/>
      </defs>
      <g>
       <use xlink:href="#me12675b382" x="57.17" y="190.626667" style="stroke: #000000; stroke-width: 0.8"/>
      </g>
     </g>
     <g id="text_7">
      <!-- 0 -->
      <g transform="translate(43.8075 194.425885) scale(0.1 -0.1)">
       <use xlink:href="#DejaVuSans-30"/>
      </g>
     </g>
    </g>
    <g id="ytick_2">
     <g id="line2d_8">
      <g>
       <use xlink:href="#me12675b382" x="57.17" y="155.444248" style="stroke: #000000; stroke-width: 0.8"/>
      </g>
     </g>
     <g id="text_8">
      <!-- 500 -->
      <g transform="translate(31.0825 159.243467) scale(0.1 -0.1)">
       <use xlink:href="#DejaVuSans-35"/>
       <use xlink:href="#DejaVuSans-30" x="63.623047"/>
       <use xlink:href="#DejaVuSans-30" x="127.246094"/>
      </g>
     </g>
    </g>
    <g id="ytick_3">
     <g id="line2d_9">
      <g>
       <use xlink:href="#me12675b382" x="57.17" y="120.26183" style="stroke: #000000; stroke-width: 0.8"/>
      </g>
     </g>
     <g id="text_9">
      <!-- 1000 -->
      <g transform="translate(24.72 124.061049) scale(0.1 -0.1)">
       <use xlink:href="#DejaVuSans-31"/>
       <use xlink:href="#DejaVuSans-30" x="63.623047"/>
       <use xlink:href="#DejaVuSans-30" x="127.246094"/>
       <use xlink:href="#DejaVuSans-30" x="190.869141"/>
      </g>
     </g>
    </g>
    <g id="ytick_4">
     <g id="line2d_10">
      <g>
       <use xlink:href="#me12675b382" x="57.17" y="85.079412" style="stroke: #000000; stroke-width: 0.8"/>
      </g>
     </g>
     <g id="text_10">
      <!-- 1500 -->
      <g transform="translate(24.72 88.87863) scale(0.1 -0.1)">
       <use xlink:href="#DejaVuSans-31"/>
       <use xlink:href="#DejaVuSans-35" x="63.623047"/>
       <use xlink:href="#DejaVuSans-30" x="127.246094"/>
       <use xlink:href="#DejaVuSans-30" x="190.869141"/>
      </g>
     </g>
    </g>
    <g id="ytick_5">
     <g id="line2d_11">
      <g>
       <use xlink:href="#me12675b382" x="57.17" y="49.896993" style="stroke: #000000; stroke-width: 0.8"/>
      </g>
     </g>
     <g id="text_11">
      <!-- 2000 -->
      <g transform="translate(24.72 53.696212) scale(0.1 -0.1)">
       <use xlink:href="#DejaVuSans-32"/>
       <use xlink:href="#DejaVuSans-30" x="63.623047"/>
       <use xlink:href="#DejaVuSans-30" x="127.246094"/>
       <use xlink:href="#DejaVuSans-30" x="190.869141"/>
      </g>
     </g>
    </g>
    <g id="ytick_6">
     <g id="line2d_12">
      <g>
       <use xlink:href="#me12675b382" x="57.17" y="14.714575" style="stroke: #000000; stroke-width: 0.8"/>
      </g>
     </g>
     <g id="text_12">
      <!-- 2500 -->
      <g transform="translate(24.72 18.513794) scale(0.1 -0.1)">
       <use xlink:href="#DejaVuSans-32"/>
       <use xlink:href="#DejaVuSans-35" x="63.623047"/>
       <use xlink:href="#DejaVuSans-30" x="127.246094"/>
       <use xlink:href="#DejaVuSans-30" x="190.869141"/>
      </g>
     </g>
    </g>
    <g id="text_13">
     <!-- Pixel Frequency -->
     <g transform="translate(18.640313 139.925588) rotate(-90) scale(0.1 -0.1)">
      <defs>
       <path id="DejaVuSans-50" d="M 1259 4147 
L 1259 2394 
L 2053 2394 
Q 2494 2394 2734 2622 
Q 2975 2850 2975 3272 
Q 2975 3691 2734 3919 
Q 2494 4147 2053 4147 
L 1259 4147 
z
M 628 4666 
L 2053 4666 
Q 2838 4666 3239 4311 
Q 3641 3956 3641 3272 
Q 3641 2581 3239 2228 
Q 2838 1875 2053 1875 
L 1259 1875 
L 1259 0 
L 628 0 
L 628 4666 
z
" transform="scale(0.015625)"/>
       <path id="DejaVuSans-69" d="M 603 3500 
L 1178 3500 
L 1178 0 
L 603 0 
L 603 3500 
z
M 603 4863 
L 1178 4863 
L 1178 4134 
L 603 4134 
L 603 4863 
z
" transform="scale(0.015625)"/>
       <path id="DejaVuSans-78" d="M 3513 3500 
L 2247 1797 
L 3578 0 
L 2900 0 
L 1881 1375 
L 863 0 
L 184 0 
L 1544 1831 
L 300 3500 
L 978 3500 
L 1906 2253 
L 2834 3500 
L 3513 3500 
z
" transform="scale(0.015625)"/>
       <path id="DejaVuSans-65" d="M 3597 1894 
L 3597 1613 
L 953 1613 
Q 991 1019 1311 708 
Q 1631 397 2203 397 
Q 2534 397 2845 478 
Q 3156 559 3463 722 
L 3463 178 
Q 3153 47 2828 -22 
Q 2503 -91 2169 -91 
Q 1331 -91 842 396 
Q 353 884 353 1716 
Q 353 2575 817 3079 
Q 1281 3584 2069 3584 
Q 2775 3584 3186 3129 
Q 3597 2675 3597 1894 
z
M 3022 2063 
Q 3016 2534 2758 2815 
Q 2500 3097 2075 3097 
Q 1594 3097 1305 2825 
Q 1016 2553 972 2059 
L 3022 2063 
z
" transform="scale(0.015625)"/>
       <path id="DejaVuSans-6c" d="M 603 4863 
L 1178 4863 
L 1178 0 
L 603 0 
L 603 4863 
z
" transform="scale(0.015625)"/>
       <path id="DejaVuSans-20" transform="scale(0.015625)"/>
       <path id="DejaVuSans-46" d="M 628 4666 
L 3309 4666 
L 3309 4134 
L 1259 4134 
L 1259 2759 
L 3109 2759 
L 3109 2228 
L 1259 2228 
L 1259 0 
L 628 0 
L 628 4666 
z
" transform="scale(0.015625)"/>
       <path id="DejaVuSans-72" d="M 2631 2963 
Q 2534 3019 2420 3045 
Q 2306 3072 2169 3072 
Q 1681 3072 1420 2755 
Q 1159 2438 1159 1844 
L 1159 0 
L 581 0 
L 581 3500 
L 1159 3500 
L 1159 2956 
Q 1341 3275 1631 3429 
Q 1922 3584 2338 3584 
Q 2397 3584 2469 3576 
Q 2541 3569 2628 3553 
L 2631 2963 
z
" transform="scale(0.015625)"/>
       <path id="DejaVuSans-71" d="M 947 1747 
Q 947 1113 1208 752 
Q 1469 391 1925 391 
Q 2381 391 2643 752 
Q 2906 1113 2906 1747 
Q 2906 2381 2643 2742 
Q 2381 3103 1925 3103 
Q 1469 3103 1208 2742 
Q 947 2381 947 1747 
z
M 2906 525 
Q 2725 213 2448 61 
Q 2172 -91 1784 -91 
Q 1150 -91 751 415 
Q 353 922 353 1747 
Q 353 2572 751 3078 
Q 1150 3584 1784 3584 
Q 2172 3584 2448 3432 
Q 2725 3281 2906 2969 
L 2906 3500 
L 3481 3500 
L 3481 -1331 
L 2906 -1331 
L 2906 525 
z
" transform="scale(0.015625)"/>
       <path id="DejaVuSans-75" d="M 544 1381 
L 544 3500 
L 1119 3500 
L 1119 1403 
Q 1119 906 1312 657 
Q 1506 409 1894 409 
Q 2359 409 2629 706 
Q 2900 1003 2900 1516 
L 2900 3500 
L 3475 3500 
L 3475 0 
L 2900 0 
L 2900 538 
Q 2691 219 2414 64 
Q 2138 -91 1772 -91 
Q 1169 -91 856 284 
Q 544 659 544 1381 
z
M 1991 3584 
L 1991 3584 
z
" transform="scale(0.015625)"/>
       <path id="DejaVuSans-6e" d="M 3513 2113 
L 3513 0 
L 2938 0 
L 2938 2094 
Q 2938 2591 2744 2837 
Q 2550 3084 2163 3084 
Q 1697 3084 1428 2787 
Q 1159 2491 1159 1978 
L 1159 0 
L 581 0 
L 581 3500 
L 1159 3500 
L 1159 2956 
Q 1366 3272 1645 3428 
Q 1925 3584 2291 3584 
Q 2894 3584 3203 3211 
Q 3513 2838 3513 2113 
z
" transform="scale(0.015625)"/>
       <path id="DejaVuSans-63" d="M 3122 3366 
L 3122 2828 
Q 2878 2963 2633 3030 
Q 2388 3097 2138 3097 
Q 1578 3097 1268 2742 
Q 959 2388 959 1747 
Q 959 1106 1268 751 
Q 1578 397 2138 397 
Q 2388 397 2633 464 
Q 2878 531 3122 666 
L 3122 134 
Q 2881 22 2623 -34 
Q 2366 -91 2075 -91 
Q 1284 -91 818 406 
Q 353 903 353 1747 
Q 353 2603 823 3093 
Q 1294 3584 2113 3584 
Q 2378 3584 2631 3529 
Q 2884 3475 3122 3366 
z
" transform="scale(0.015625)"/>
       <path id="DejaVuSans-79" d="M 2059 -325 
Q 1816 -950 1584 -1140 
Q 1353 -1331 966 -1331 
L 506 -1331 
L 506 -850 
L 844 -850 
Q 1081 -850 1212 -737 
Q 1344 -625 1503 -206 
L 1606 56 
L 191 3500 
L 800 3500 
L 1894 763 
L 2988 3500 
L 3597 3500 
L 2059 -325 
z
" transform="scale(0.015625)"/>
      </defs>
      <use xlink:href="#DejaVuSans-50"/>
      <use xlink:href="#DejaVuSans-69" x="58.052734"/>
      <use xlink:href="#DejaVuSans-78" x="85.835938"/>
      <use xlink:href="#DejaVuSans-65" x="141.890625"/>
      <use xlink:href="#DejaVuSans-6c" x="203.414062"/>
      <use xlink:href="#DejaVuSans-20" x="231.197266"/>
      <use xlink:href="#DejaVuSans-46" x="262.984375"/>
      <use xlink:href="#DejaVuSans-72" x="313.253906"/>
      <use xlink:href="#DejaVuSans-65" x="352.117188"/>
      <use xlink:href="#DejaVuSans-71" x="413.640625"/>
      <use xlink:href="#DejaVuSans-75" x="477.117188"/>
      <use xlink:href="#DejaVuSans-65" x="540.496094"/>
      <use xlink:href="#DejaVuSans-6e" x="602.019531"/>
      <use xlink:href="#DejaVuSans-63" x="665.398438"/>
      <use xlink:href="#DejaVuSans-79" x="720.378906"/>
     </g>
    </g>
   </g>
   <g id="line2d_13">
    <path d="M 57.17 190.626667 
L 145.579724 190.556302 
L 146.421722 190.415572 
L 148.105717 190.626667 
L 148.947714 190.415572 
L 149.789711 190.626667 
L 150.631709 190.626667 
L 151.473706 190.415572 
L 152.315703 190.556302 
L 153.157701 190.485937 
L 153.999698 190.274842 
L 154.841696 190.626667 
L 155.683693 190.274842 
L 158.209685 190.204478 
L 159.051682 190.134113 
L 159.89368 189.923018 
L 160.735677 189.571194 
L 161.577675 190.063748 
L 162.419672 189.923018 
L 163.261669 189.3601 
L 164.945664 189.923018 
L 165.787661 189.149005 
L 166.629659 188.656451 
L 167.471656 188.937911 
L 168.313654 187.319519 
L 169.155651 187.249155 
L 169.997648 187.03806 
L 173.365638 186.686236 
L 174.207635 186.052952 
L 175.049633 185.278939 
L 176.733627 184.786385 
L 178.417622 182.464346 
L 179.259619 182.53471 
L 180.101617 182.745805 
L 181.785612 181.197779 
L 182.627609 183.238359 
L 183.469606 181.760697 
L 184.311604 179.649752 
L 185.153601 180.423765 
L 185.995598 179.016469 
L 186.837596 177.046253 
L 187.679593 179.860847 
L 188.521591 178.172091 
L 189.363588 177.679537 
L 190.205585 175.990781 
L 191.047583 176.27224 
L 191.88958 176.13151 
L 192.731577 174.020565 
L 193.573575 175.146403 
L 194.415572 172.191079 
L 195.25757 168.672838 
L 196.099567 171.487431 
L 197.783562 167.124811 
L 198.625559 169.095027 
L 199.467556 163.395475 
L 200.309554 161.917813 
L 201.151551 159.314314 
L 201.993549 154.951694 
L 202.835546 157.977382 
L 203.677543 155.162789 
L 204.519541 152.911114 
L 205.361538 149.744697 
L 206.203535 149.252143 
L 207.045533 146.859738 
L 207.88753 147.704116 
L 208.729528 144.185874 
L 210.413522 148.19667 
L 211.25552 145.663536 
L 212.097517 146.930103 
L 212.939514 148.829954 
L 213.781512 146.367184 
L 214.623509 147.352292 
L 215.465507 146.789373 
L 216.307504 148.19667 
L 217.149501 149.041048 
L 217.991499 151.996371 
L 218.833496 147.915211 
L 219.675493 152.911114 
L 220.517491 153.262938 
L 221.359488 152.629655 
L 222.201486 154.248046 
L 223.043483 156.640451 
L 223.88548 155.936802 
L 224.727478 157.907018 
L 225.569475 161.00307 
L 226.411472 156.429356 
L 227.25347 159.314314 
L 228.095467 161.495624 
L 228.937465 160.369787 
L 229.779462 159.525409 
L 230.621459 163.888029 
L 231.463457 161.425259 
L 232.305454 164.028758 
L 233.147451 163.536205 
L 233.989449 164.802772 
L 234.831446 164.239853 
L 235.673444 165.928609 
L 236.515441 162.973286 
L 237.357438 163.46584 
L 238.199436 163.606569 
L 239.041433 163.536205 
L 239.88343 161.00307 
L 240.725428 166.421163 
L 241.567425 167.124811 
L 242.409423 164.099123 
L 243.25142 163.676934 
L 244.093417 166.350798 
L 244.935415 167.195176 
L 245.777412 163.254745 
L 246.619409 163.676934 
L 247.461407 164.310218 
L 248.303404 164.099123 
L 249.145402 162.691826 
L 249.987399 164.169488 
L 250.829396 162.269637 
L 251.671394 161.988178 
L 252.513391 163.747299 
L 253.355388 163.32511 
L 254.197386 160.088328 
L 255.039383 160.088328 
L 255.881381 161.425259 
L 256.723378 157.273734 
L 257.565375 158.047747 
L 258.407373 159.173585 
L 259.24937 154.388776 
L 260.091367 154.7406 
L 260.933365 153.825857 
L 261.775362 150.096521 
L 262.61736 147.422657 
L 263.459357 142.004564 
L 264.301354 140.456538 
L 265.143352 138.064134 
L 265.985349 132.083122 
L 266.827346 131.660933 
L 267.669344 121.528397 
L 268.511341 104.077917 
L 269.353339 106.470322 
L 270.195336 128.775975 
L 271.037333 167.898824 
L 271.879331 185.982587 
L 271.879331 185.982587 
" clip-path="url(#pde54cc1df4)" style="fill: none; stroke: #ff0000; stroke-width: 1.5; stroke-linecap: square"/>
   </g>
   <g id="patch_3">
    <path d="M 57.17 190.626667 
L 57.17 11.266698 
" style="fill: none; stroke: #000000; stroke-width: 0.8; stroke-linejoin: miter; stroke-linecap: square"/>
   </g>
   <g id="patch_4">
    <path d="M 272.721328 190.626667 
L 272.721328 11.266698 
" style="fill: none; stroke: #000000; stroke-width: 0.8; stroke-linejoin: miter; stroke-linecap: square"/>
   </g>
   <g id="patch_5">
    <path d="M 57.17 190.626667 
L 272.721328 190.626667 
" style="fill: none; stroke: #000000; stroke-width: 0.8; stroke-linejoin: miter; stroke-linecap: square"/>
   </g>
   <g id="patch_6">
    <path d="M 57.17 11.266698 
L 272.721328 11.266698 
" style="fill: none; stroke: #000000; stroke-width: 0.8; stroke-linejoin: miter; stroke-linecap: square"/>
   </g>
   <g id="text_14">
    <!-- Red Channel  -->
    <g transform="translate(193.028203 25.266698) scale(0.12 -0.12)">
     <defs>
      <path id="DejaVuSans-52" d="M 2841 2188 
Q 3044 2119 3236 1894 
Q 3428 1669 3622 1275 
L 4263 0 
L 3584 0 
L 2988 1197 
Q 2756 1666 2539 1819 
Q 2322 1972 1947 1972 
L 1259 1972 
L 1259 0 
L 628 0 
L 628 4666 
L 2053 4666 
Q 2853 4666 3247 4331 
Q 3641 3997 3641 3322 
Q 3641 2881 3436 2590 
Q 3231 2300 2841 2188 
z
M 1259 4147 
L 1259 2491 
L 2053 2491 
Q 2509 2491 2742 2702 
Q 2975 2913 2975 3322 
Q 2975 3731 2742 3939 
Q 2509 4147 2053 4147 
L 1259 4147 
z
" transform="scale(0.015625)"/>
      <path id="DejaVuSans-64" d="M 2906 2969 
L 2906 4863 
L 3481 4863 
L 3481 0 
L 2906 0 
L 2906 525 
Q 2725 213 2448 61 
Q 2172 -91 1784 -91 
Q 1150 -91 751 415 
Q 353 922 353 1747 
Q 353 2572 751 3078 
Q 1150 3584 1784 3584 
Q 2172 3584 2448 3432 
Q 2725 3281 2906 2969 
z
M 947 1747 
Q 947 1113 1208 752 
Q 1469 391 1925 391 
Q 2381 391 2643 752 
Q 2906 1113 2906 1747 
Q 2906 2381 2643 2742 
Q 2381 3103 1925 3103 
Q 1469 3103 1208 2742 
Q 947 2381 947 1747 
z
" transform="scale(0.015625)"/>
      <path id="DejaVuSans-43" d="M 4122 4306 
L 4122 3641 
Q 3803 3938 3442 4084 
Q 3081 4231 2675 4231 
Q 1875 4231 1450 3742 
Q 1025 3253 1025 2328 
Q 1025 1406 1450 917 
Q 1875 428 2675 428 
Q 3081 428 3442 575 
Q 3803 722 4122 1019 
L 4122 359 
Q 3791 134 3420 21 
Q 3050 -91 2638 -91 
Q 1578 -91 968 557 
Q 359 1206 359 2328 
Q 359 3453 968 4101 
Q 1578 4750 2638 4750 
Q 3056 4750 3426 4639 
Q 3797 4528 4122 4306 
z
" transform="scale(0.015625)"/>
      <path id="DejaVuSans-68" d="M 3513 2113 
L 3513 0 
L 2938 0 
L 2938 2094 
Q 2938 2591 2744 2837 
Q 2550 3084 2163 3084 
Q 1697 3084 1428 2787 
Q 1159 2491 1159 1978 
L 1159 0 
L 581 0 
L 581 4863 
L 1159 4863 
L 1159 2956 
Q 1366 3272 1645 3428 
Q 1925 3584 2291 3584 
Q 2894 3584 3203 3211 
Q 3513 2838 3513 2113 
z
" transform="scale(0.015625)"/>
      <path id="DejaVuSans-61" d="M 2194 1759 
Q 1497 1759 1228 1600 
Q 959 1441 959 1056 
Q 959 750 1161 570 
Q 1363 391 1709 391 
Q 2188 391 2477 730 
Q 2766 1069 2766 1631 
L 2766 1759 
L 2194 1759 
z
M 3341 1997 
L 3341 0 
L 2766 0 
L 2766 531 
Q 2569 213 2275 61 
Q 1981 -91 1556 -91 
Q 1019 -91 701 211 
Q 384 513 384 1019 
Q 384 1609 779 1909 
Q 1175 2209 1959 2209 
L 2766 2209 
L 2766 2266 
Q 2766 2663 2505 2880 
Q 2244 3097 1772 3097 
Q 1472 3097 1187 3025 
Q 903 2953 641 2809 
L 641 3341 
Q 956 3463 1253 3523 
Q 1550 3584 1831 3584 
Q 2591 3584 2966 3190 
Q 3341 2797 3341 1997 
z
" transform="scale(0.015625)"/>
     </defs>
     <use xlink:href="#DejaVuSans-52"/>
     <use xlink:href="#DejaVuSans-65" x="64.982422"/>
     <use xlink:href="#DejaVuSans-64" x="126.505859"/>
     <use xlink:href="#DejaVuSans-20" x="189.982422"/>
     <use xlink:href="#DejaVuSans-43" x="221.769531"/>
     <use xlink:href="#DejaVuSans-68" x="291.59375"/>
     <use xlink:href="#DejaVuSans-61" x="354.972656"/>
     <use xlink:href="#DejaVuSans-6e" x="416.251953"/>
     <use xlink:href="#DejaVuSans-6e" x="479.630859"/>
     <use xlink:href="#DejaVuSans-65" x="543.009766"/>
     <use xlink:href="#DejaVuSans-6c" x="604.533203"/>
     <use xlink:href="#DejaVuSans-20" x="632.316406"/>
    </g>
   </g>
  </g>
  <g id="axes_2">
   <g id="patch_7">
    <path d="M 57.17 398.333333 
L 272.721328 398.333333 
L 272.721328 218.973364 
L 57.17 218.973364 
z
" style="fill: #ffffff"/>
   </g>
   <g id="PolyCollection_2">
    <defs>
     <path id="m27f16808e0" d="M 57.17 -249.666667 
L 57.17 -249.666667 
L 58.011997 -249.666667 
L 58.853995 -249.666667 
L 59.695992 -249.666667 
L 60.53799 -249.666667 
L 61.379987 -249.666667 
L 62.221984 -249.666667 
L 63.063982 -249.666667 
L 63.905979 -249.666667 
L 64.747976 -249.666667 
L 65.589974 -249.666667 
L 66.431971 -249.666667 
L 67.273969 -249.666667 
L 68.115966 -249.666667 
L 68.957963 -249.666667 
L 69.799961 -249.666667 
L 70.641958 -249.666667 
L 71.483955 -249.666667 
L 72.325953 -249.666667 
L 73.16795 -249.666667 
L 74.009948 -249.666667 
L 74.851945 -249.666667 
L 75.693942 -249.666667 
L 76.53594 -249.666667 
L 77.377937 -249.666667 
L 78.219934 -249.666667 
L 79.061932 -249.666667 
L 79.903929 -249.666667 
L 80.745927 -249.666667 
L 81.587924 -249.666667 
L 82.429921 -249.666667 
L 83.271919 -249.666667 
L 84.113916 -249.666667 
L 84.955913 -249.666667 
L 85.797911 -249.666667 
L 86.639908 -249.666667 
L 87.481906 -249.666667 
L 88.323903 -249.666667 
L 89.1659 -249.666667 
L 90.007898 -249.666667 
L 90.849895 -249.666667 
L 91.691892 -249.666667 
L 92.53389 -249.666667 
L 93.375887 -249.666667 
L 94.217885 -249.666667 
L 95.059882 -249.666667 
L 95.901879 -249.666667 
L 96.743877 -249.666667 
L 97.585874 -249.666667 
L 98.427871 -249.666667 
L 99.269869 -249.666667 
L 100.111866 -249.666667 
L 100.953864 -249.666667 
L 101.795861 -249.666667 
L 102.637858 -249.666667 
L 103.479856 -249.666667 
L 104.321853 -249.666667 
L 105.16385 -249.666667 
L 106.005848 -249.666667 
L 106.847845 -249.666667 
L 107.689843 -249.666667 
L 108.53184 -249.666667 
L 109.373837 -249.666667 
L 110.215835 -249.666667 
L 111.057832 -249.666667 
L 111.899829 -249.666667 
L 112.741827 -249.666667 
L 113.583824 -249.666667 
L 114.425822 -249.666667 
L 115.267819 -249.666667 
L 116.109816 -249.666667 
L 116.951814 -249.666667 
L 117.793811 -249.666667 
L 118.635808 -249.666667 
L 119.477806 -249.666667 
L 120.319803 -249.666667 
L 121.161801 -249.666667 
L 122.003798 -249.666667 
L 122.845795 -249.666667 
L 123.687793 -249.666667 
L 124.52979 -249.666667 
L 125.371787 -249.666667 
L 126.213785 -249.666667 
L 127.055782 -249.666667 
L 127.89778 -249.666667 
L 128.739777 -249.666667 
L 129.581774 -249.666667 
L 130.423772 -249.666667 
L 131.265769 -249.666667 
L 132.107766 -249.666667 
L 132.949764 -249.666667 
L 133.791761 -249.666667 
L 134.633759 -249.666667 
L 135.475756 -249.666667 
L 136.317753 -249.666667 
L 137.159751 -249.666667 
L 138.001748 -249.666667 
L 138.843745 -249.666667 
L 139.685743 -249.666667 
L 140.52774 -249.666667 
L 141.369738 -249.666667 
L 142.211735 -249.666667 
L 143.053732 -249.666667 
L 143.89573 -249.666667 
L 144.737727 -249.737032 
L 145.579724 -249.666667 
L 146.421722 -249.666667 
L 147.263719 -249.807396 
L 148.105717 -249.807396 
L 148.947714 -249.666667 
L 149.789711 -249.666667 
L 150.631709 -249.666667 
L 151.473706 -249.948126 
L 152.315703 -249.666667 
L 153.157701 -249.737032 
L 153.999698 -249.877761 
L 154.841696 -250.159221 
L 155.683693 -249.807396 
L 156.52569 -250.722139 
L 157.367688 -250.018491 
L 158.209685 -249.877761 
L 159.051682 -250.018491 
L 159.89368 -250.018491 
L 160.735677 -250.018491 
L 161.577675 -249.807396 
L 162.419672 -250.29995 
L 163.261669 -250.44068 
L 164.103667 -250.159221 
L 164.945664 -250.722139 
L 165.787661 -251.003599 
L 166.629659 -250.58141 
L 167.471656 -251.496152 
L 168.313654 -251.777612 
L 169.155651 -252.34053 
L 169.997648 -252.62199 
L 170.839646 -252.762719 
L 171.681643 -253.536733 
L 172.52364 -254.170016 
L 173.365638 -255.084759 
L 174.207635 -254.451476 
L 175.049633 -253.818192 
L 175.89163 -255.084759 
L 176.733627 -255.436583 
L 177.575625 -255.366218 
L 178.417622 -255.929137 
L 179.259619 -255.225489 
L 180.101617 -256.140232 
L 180.943614 -257.054975 
L 181.785612 -257.195704 
L 182.627609 -256.562421 
L 183.469606 -255.858772 
L 184.311604 -257.266069 
L 185.153601 -257.688258 
L 185.995598 -257.336434 
L 186.837596 -259.306649 
L 187.679593 -258.180812 
L 188.521591 -258.673366 
L 189.363588 -259.02519 
L 190.205585 -259.517744 
L 191.047583 -261.276865 
L 191.88958 -259.517744 
L 192.731577 -261.417594 
L 193.573575 -261.839783 
L 194.415572 -263.10635 
L 195.25757 -263.52854 
L 196.099567 -264.724742 
L 196.941564 -265.358025 
L 197.783562 -267.187511 
L 198.625559 -264.865471 
L 199.467556 -266.343133 
L 200.309554 -268.313348 
L 201.151551 -268.383713 
L 201.993549 -268.805902 
L 202.835546 -269.087362 
L 203.677543 -270.072469 
L 204.519541 -270.916847 
L 205.361538 -273.449981 
L 206.203535 -273.801806 
L 207.045533 -273.872171 
L 207.88753 -277.390412 
L 208.729528 -277.531142 
L 209.571525 -279.853182 
L 210.413522 -278.023696 
L 211.25552 -282.949234 
L 212.097517 -283.582518 
L 212.939514 -285.552733 
L 213.781512 -284.004707 
L 214.623509 -288.015503 
L 215.465507 -287.663679 
L 216.307504 -284.567626 
L 217.149501 -287.945138 
L 217.991499 -288.156232 
L 218.833496 -293.152136 
L 219.675493 -291.533745 
L 220.517491 -290.196813 
L 221.359488 -288.719151 
L 222.201486 -290.126448 
L 223.043483 -286.96003 
L 223.88548 -287.874773 
L 224.727478 -284.004707 
L 225.569475 -284.849085 
L 226.411472 -287.663679 
L 227.25347 -285.974922 
L 228.095467 -286.397111 
L 228.937465 -286.326747 
L 229.779462 -283.371423 
L 230.621459 -281.893762 
L 231.463457 -281.190114 
L 232.305454 -280.979019 
L 233.147451 -282.034492 
L 233.989449 -282.034492 
L 234.831446 -278.656979 
L 235.673444 -280.979019 
L 236.515441 -278.023696 
L 237.357438 -280.627195 
L 238.199436 -279.149533 
L 239.041433 -279.149533 
L 239.88343 -279.430993 
L 240.725428 -277.249683 
L 241.567425 -278.938439 
L 242.409423 -277.108953 
L 243.25142 -277.671872 
L 244.093417 -279.430993 
L 244.935415 -275.279467 
L 245.777412 -276.05348 
L 246.619409 -277.531142 
L 247.461407 -279.008804 
L 248.303404 -281.049384 
L 249.145402 -278.164426 
L 249.987399 -280.69756 
L 250.829396 -282.175221 
L 251.671394 -281.823397 
L 252.513391 -281.401208 
L 253.355388 -280.345735 
L 254.197386 -282.104856 
L 255.039383 -281.964127 
L 255.881381 -283.019599 
L 256.723378 -285.412004 
L 257.565375 -287.382219 
L 258.407373 -291.041191 
L 259.24937 -290.267177 
L 260.091367 -291.604109 
L 260.933365 -292.941041 
L 261.775362 -296.670378 
L 262.61736 -297.655485 
L 263.459357 -303.355037 
L 264.301354 -305.747442 
L 265.143352 -307.084373 
L 265.985349 -313.839398 
L 266.827346 -320.594422 
L 267.669344 -329.530756 
L 268.511341 -335.089578 
L 269.353339 -362.391135 
L 270.195336 -368.442511 
L 271.037333 -307.576927 
L 271.879331 -260.432487 
L 271.879331 -249.666667 
L 271.879331 -249.666667 
L 271.037333 -249.666667 
L 270.195336 -249.666667 
L 269.353339 -249.666667 
L 268.511341 -249.666667 
L 267.669344 -249.666667 
L 266.827346 -249.666667 
L 265.985349 -249.666667 
L 265.143352 -249.666667 
L 264.301354 -249.666667 
L 263.459357 -249.666667 
L 262.61736 -249.666667 
L 261.775362 -249.666667 
L 260.933365 -249.666667 
L 260.091367 -249.666667 
L 259.24937 -249.666667 
L 258.407373 -249.666667 
L 257.565375 -249.666667 
L 256.723378 -249.666667 
L 255.881381 -249.666667 
L 255.039383 -249.666667 
L 254.197386 -249.666667 
L 253.355388 -249.666667 
L 252.513391 -249.666667 
L 251.671394 -249.666667 
L 250.829396 -249.666667 
L 249.987399 -249.666667 
L 249.145402 -249.666667 
L 248.303404 -249.666667 
L 247.461407 -249.666667 
L 246.619409 -249.666667 
L 245.777412 -249.666667 
L 244.935415 -249.666667 
L 244.093417 -249.666667 
L 243.25142 -249.666667 
L 242.409423 -249.666667 
L 241.567425 -249.666667 
L 240.725428 -249.666667 
L 239.88343 -249.666667 
L 239.041433 -249.666667 
L 238.199436 -249.666667 
L 237.357438 -249.666667 
L 236.515441 -249.666667 
L 235.673444 -249.666667 
L 234.831446 -249.666667 
L 233.989449 -249.666667 
L 233.147451 -249.666667 
L 232.305454 -249.666667 
L 231.463457 -249.666667 
L 230.621459 -249.666667 
L 229.779462 -249.666667 
L 228.937465 -249.666667 
L 228.095467 -249.666667 
L 227.25347 -249.666667 
L 226.411472 -249.666667 
L 225.569475 -249.666667 
L 224.727478 -249.666667 
L 223.88548 -249.666667 
L 223.043483 -249.666667 
L 222.201486 -249.666667 
L 221.359488 -249.666667 
L 220.517491 -249.666667 
L 219.675493 -249.666667 
L 218.833496 -249.666667 
L 217.991499 -249.666667 
L 217.149501 -249.666667 
L 216.307504 -249.666667 
L 215.465507 -249.666667 
L 214.623509 -249.666667 
L 213.781512 -249.666667 
L 212.939514 -249.666667 
L 212.097517 -249.666667 
L 211.25552 -249.666667 
L 210.413522 -249.666667 
L 209.571525 -249.666667 
L 208.729528 -249.666667 
L 207.88753 -249.666667 
L 207.045533 -249.666667 
L 206.203535 -249.666667 
L 205.361538 -249.666667 
L 204.519541 -249.666667 
L 203.677543 -249.666667 
L 202.835546 -249.666667 
L 201.993549 -249.666667 
L 201.151551 -249.666667 
L 200.309554 -249.666667 
L 199.467556 -249.666667 
L 198.625559 -249.666667 
L 197.783562 -249.666667 
L 196.941564 -249.666667 
L 196.099567 -249.666667 
L 195.25757 -249.666667 
L 194.415572 -249.666667 
L 193.573575 -249.666667 
L 192.731577 -249.666667 
L 191.88958 -249.666667 
L 191.047583 -249.666667 
L 190.205585 -249.666667 
L 189.363588 -249.666667 
L 188.521591 -249.666667 
L 187.679593 -249.666667 
L 186.837596 -249.666667 
L 185.995598 -249.666667 
L 185.153601 -249.666667 
L 184.311604 -249.666667 
L 183.469606 -249.666667 
L 182.627609 -249.666667 
L 181.785612 -249.666667 
L 180.943614 -249.666667 
L 180.101617 -249.666667 
L 179.259619 -249.666667 
L 178.417622 -249.666667 
L 177.575625 -249.666667 
L 176.733627 -249.666667 
L 175.89163 -249.666667 
L 175.049633 -249.666667 
L 174.207635 -249.666667 
L 173.365638 -249.666667 
L 172.52364 -249.666667 
L 171.681643 -249.666667 
L 170.839646 -249.666667 
L 169.997648 -249.666667 
L 169.155651 -249.666667 
L 168.313654 -249.666667 
L 167.471656 -249.666667 
L 166.629659 -249.666667 
L 165.787661 -249.666667 
L 164.945664 -249.666667 
L 164.103667 -249.666667 
L 163.261669 -249.666667 
L 162.419672 -249.666667 
L 161.577675 -249.666667 
L 160.735677 -249.666667 
L 159.89368 -249.666667 
L 159.051682 -249.666667 
L 158.209685 -249.666667 
L 157.367688 -249.666667 
L 156.52569 -249.666667 
L 155.683693 -249.666667 
L 154.841696 -249.666667 
L 153.999698 -249.666667 
L 153.157701 -249.666667 
L 152.315703 -249.666667 
L 151.473706 -249.666667 
L 150.631709 -249.666667 
L 149.789711 -249.666667 
L 148.947714 -249.666667 
L 148.105717 -249.666667 
L 147.263719 -249.666667 
L 146.421722 -249.666667 
L 145.579724 -249.666667 
L 144.737727 -249.666667 
L 143.89573 -249.666667 
L 143.053732 -249.666667 
L 142.211735 -249.666667 
L 141.369738 -249.666667 
L 140.52774 -249.666667 
L 139.685743 -249.666667 
L 138.843745 -249.666667 
L 138.001748 -249.666667 
L 137.159751 -249.666667 
L 136.317753 -249.666667 
L 135.475756 -249.666667 
L 134.633759 -249.666667 
L 133.791761 -249.666667 
L 132.949764 -249.666667 
L 132.107766 -249.666667 
L 131.265769 -249.666667 
L 130.423772 -249.666667 
L 129.581774 -249.666667 
L 128.739777 -249.666667 
L 127.89778 -249.666667 
L 127.055782 -249.666667 
L 126.213785 -249.666667 
L 125.371787 -249.666667 
L 124.52979 -249.666667 
L 123.687793 -249.666667 
L 122.845795 -249.666667 
L 122.003798 -249.666667 
L 121.161801 -249.666667 
L 120.319803 -249.666667 
L 119.477806 -249.666667 
L 118.635808 -249.666667 
L 117.793811 -249.666667 
L 116.951814 -249.666667 
L 116.109816 -249.666667 
L 115.267819 -249.666667 
L 114.425822 -249.666667 
L 113.583824 -249.666667 
L 112.741827 -249.666667 
L 111.899829 -249.666667 
L 111.057832 -249.666667 
L 110.215835 -249.666667 
L 109.373837 -249.666667 
L 108.53184 -249.666667 
L 107.689843 -249.666667 
L 106.847845 -249.666667 
L 106.005848 -249.666667 
L 105.16385 -249.666667 
L 104.321853 -249.666667 
L 103.479856 -249.666667 
L 102.637858 -249.666667 
L 101.795861 -249.666667 
L 100.953864 -249.666667 
L 100.111866 -249.666667 
L 99.269869 -249.666667 
L 98.427871 -249.666667 
L 97.585874 -249.666667 
L 96.743877 -249.666667 
L 95.901879 -249.666667 
L 95.059882 -249.666667 
L 94.217885 -249.666667 
L 93.375887 -249.666667 
L 92.53389 -249.666667 
L 91.691892 -249.666667 
L 90.849895 -249.666667 
L 90.007898 -249.666667 
L 89.1659 -249.666667 
L 88.323903 -249.666667 
L 87.481906 -249.666667 
L 86.639908 -249.666667 
L 85.797911 -249.666667 
L 84.955913 -249.666667 
L 84.113916 -249.666667 
L 83.271919 -249.666667 
L 82.429921 -249.666667 
L 81.587924 -249.666667 
L 80.745927 -249.666667 
L 79.903929 -249.666667 
L 79.061932 -249.666667 
L 78.219934 -249.666667 
L 77.377937 -249.666667 
L 76.53594 -249.666667 
L 75.693942 -249.666667 
L 74.851945 -249.666667 
L 74.009948 -249.666667 
L 73.16795 -249.666667 
L 72.325953 -249.666667 
L 71.483955 -249.666667 
L 70.641958 -249.666667 
L 69.799961 -249.666667 
L 68.957963 -249.666667 
L 68.115966 -249.666667 
L 67.273969 -249.666667 
L 66.431971 -249.666667 
L 65.589974 -249.666667 
L 64.747976 -249.666667 
L 63.905979 -249.666667 
L 63.063982 -249.666667 
L 62.221984 -249.666667 
L 61.379987 -249.666667 
L 60.53799 -249.666667 
L 59.695992 -249.666667 
L 58.853995 -249.666667 
L 58.011997 -249.666667 
L 57.17 -249.666667 
z
" style="stroke: #008000; stroke-opacity: 0.4"/>
    </defs>
    <g clip-path="url(#p362d47b7ef)">
     <use xlink:href="#m27f16808e0" x="0" y="648" style="fill: #008000; fill-opacity: 0.4; stroke: #008000; stroke-opacity: 0.4"/>
    </g>
   </g>
   <g id="matplotlib.axis_3">
    <g id="xtick_7">
     <g id="line2d_14">
      <g>
       <use xlink:href="#me8790007f4" x="57.17" y="398.333333" style="stroke: #000000; stroke-width: 0.8"/>
      </g>
     </g>
     <g id="text_15">
      <!-- 0 -->
      <g transform="translate(53.98875 412.931771) scale(0.1 -0.1)">
       <use xlink:href="#DejaVuSans-30"/>
      </g>
     </g>
    </g>
    <g id="xtick_8">
     <g id="line2d_15">
      <g>
       <use xlink:href="#me8790007f4" x="99.269869" y="398.333333" style="stroke: #000000; stroke-width: 0.8"/>
      </g>
     </g>
     <g id="text_16">
      <!-- 50 -->
      <g transform="translate(92.907369 412.931771) scale(0.1 -0.1)">
       <use xlink:href="#DejaVuSans-35"/>
       <use xlink:href="#DejaVuSans-30" x="63.623047"/>
      </g>
     </g>
    </g>
    <g id="xtick_9">
     <g id="line2d_16">
      <g>
       <use xlink:href="#me8790007f4" x="141.369738" y="398.333333" style="stroke: #000000; stroke-width: 0.8"/>
      </g>
     </g>
     <g id="text_17">
      <!-- 100 -->
      <g transform="translate(131.825988 412.931771) scale(0.1 -0.1)">
       <use xlink:href="#DejaVuSans-31"/>
       <use xlink:href="#DejaVuSans-30" x="63.623047"/>
       <use xlink:href="#DejaVuSans-30" x="127.246094"/>
      </g>
     </g>
    </g>
    <g id="xtick_10">
     <g id="line2d_17">
      <g>
       <use xlink:href="#me8790007f4" x="183.469606" y="398.333333" style="stroke: #000000; stroke-width: 0.8"/>
      </g>
     </g>
     <g id="text_18">
      <!-- 150 -->
      <g transform="translate(173.925856 412.931771) scale(0.1 -0.1)">
       <use xlink:href="#DejaVuSans-31"/>
       <use xlink:href="#DejaVuSans-35" x="63.623047"/>
       <use xlink:href="#DejaVuSans-30" x="127.246094"/>
      </g>
     </g>
    </g>
    <g id="xtick_11">
     <g id="line2d_18">
      <g>
       <use xlink:href="#me8790007f4" x="225.569475" y="398.333333" style="stroke: #000000; stroke-width: 0.8"/>
      </g>
     </g>
     <g id="text_19">
      <!-- 200 -->
      <g transform="translate(216.025725 412.931771) scale(0.1 -0.1)">
       <use xlink:href="#DejaVuSans-32"/>
       <use xlink:href="#DejaVuSans-30" x="63.623047"/>
       <use xlink:href="#DejaVuSans-30" x="127.246094"/>
      </g>
     </g>
    </g>
    <g id="xtick_12">
     <g id="line2d_19">
      <g>
       <use xlink:href="#me8790007f4" x="267.669344" y="398.333333" style="stroke: #000000; stroke-width: 0.8"/>
      </g>
     </g>
     <g id="text_20">
      <!-- 250 -->
      <g transform="translate(258.125594 412.931771) scale(0.1 -0.1)">
       <use xlink:href="#DejaVuSans-32"/>
       <use xlink:href="#DejaVuSans-35" x="63.623047"/>
       <use xlink:href="#DejaVuSans-30" x="127.246094"/>
      </g>
     </g>
    </g>
   </g>
   <g id="matplotlib.axis_4">
    <g id="ytick_7">
     <g id="line2d_20">
      <g>
       <use xlink:href="#me12675b382" x="57.17" y="398.333333" style="stroke: #000000; stroke-width: 0.8"/>
      </g>
     </g>
     <g id="text_21">
      <!-- 0 -->
      <g transform="translate(43.8075 402.132552) scale(0.1 -0.1)">
       <use xlink:href="#DejaVuSans-30"/>
      </g>
     </g>
    </g>
    <g id="ytick_8">
     <g id="line2d_21">
      <g>
       <use xlink:href="#me12675b382" x="57.17" y="363.150915" style="stroke: #000000; stroke-width: 0.8"/>
      </g>
     </g>
     <g id="text_22">
      <!-- 500 -->
      <g transform="translate(31.0825 366.950134) scale(0.1 -0.1)">
       <use xlink:href="#DejaVuSans-35"/>
       <use xlink:href="#DejaVuSans-30" x="63.623047"/>
       <use xlink:href="#DejaVuSans-30" x="127.246094"/>
      </g>
     </g>
    </g>
    <g id="ytick_9">
     <g id="line2d_22">
      <g>
       <use xlink:href="#me12675b382" x="57.17" y="327.968497" style="stroke: #000000; stroke-width: 0.8"/>
      </g>
     </g>
     <g id="text_23">
      <!-- 1000 -->
      <g transform="translate(24.72 331.767715) scale(0.1 -0.1)">
       <use xlink:href="#DejaVuSans-31"/>
       <use xlink:href="#DejaVuSans-30" x="63.623047"/>
       <use xlink:href="#DejaVuSans-30" x="127.246094"/>
       <use xlink:href="#DejaVuSans-30" x="190.869141"/>
      </g>
     </g>
    </g>
    <g id="ytick_10">
     <g id="line2d_23">
      <g>
       <use xlink:href="#me12675b382" x="57.17" y="292.786078" style="stroke: #000000; stroke-width: 0.8"/>
      </g>
     </g>
     <g id="text_24">
      <!-- 1500 -->
      <g transform="translate(24.72 296.585297) scale(0.1 -0.1)">
       <use xlink:href="#DejaVuSans-31"/>
       <use xlink:href="#DejaVuSans-35" x="63.623047"/>
       <use xlink:href="#DejaVuSans-30" x="127.246094"/>
       <use xlink:href="#DejaVuSans-30" x="190.869141"/>
      </g>
     </g>
    </g>
    <g id="ytick_11">
     <g id="line2d_24">
      <g>
       <use xlink:href="#me12675b382" x="57.17" y="257.60366" style="stroke: #000000; stroke-width: 0.8"/>
      </g>
     </g>
     <g id="text_25">
      <!-- 2000 -->
      <g transform="translate(24.72 261.402879) scale(0.1 -0.1)">
       <use xlink:href="#DejaVuSans-32"/>
       <use xlink:href="#DejaVuSans-30" x="63.623047"/>
       <use xlink:href="#DejaVuSans-30" x="127.246094"/>
       <use xlink:href="#DejaVuSans-30" x="190.869141"/>
      </g>
     </g>
    </g>
    <g id="ytick_12">
     <g id="line2d_25">
      <g>
       <use xlink:href="#me12675b382" x="57.17" y="222.421241" style="stroke: #000000; stroke-width: 0.8"/>
      </g>
     </g>
     <g id="text_26">
      <!-- 2500 -->
      <g transform="translate(24.72 226.22046) scale(0.1 -0.1)">
       <use xlink:href="#DejaVuSans-32"/>
       <use xlink:href="#DejaVuSans-35" x="63.623047"/>
       <use xlink:href="#DejaVuSans-30" x="127.246094"/>
       <use xlink:href="#DejaVuSans-30" x="190.869141"/>
      </g>
     </g>
    </g>
    <g id="text_27">
     <!-- Pixel Frequency -->
     <g transform="translate(18.640313 347.632255) rotate(-90) scale(0.1 -0.1)">
      <use xlink:href="#DejaVuSans-50"/>
      <use xlink:href="#DejaVuSans-69" x="58.052734"/>
      <use xlink:href="#DejaVuSans-78" x="85.835938"/>
      <use xlink:href="#DejaVuSans-65" x="141.890625"/>
      <use xlink:href="#DejaVuSans-6c" x="203.414062"/>
      <use xlink:href="#DejaVuSans-20" x="231.197266"/>
      <use xlink:href="#DejaVuSans-46" x="262.984375"/>
      <use xlink:href="#DejaVuSans-72" x="313.253906"/>
      <use xlink:href="#DejaVuSans-65" x="352.117188"/>
      <use xlink:href="#DejaVuSans-71" x="413.640625"/>
      <use xlink:href="#DejaVuSans-75" x="477.117188"/>
      <use xlink:href="#DejaVuSans-65" x="540.496094"/>
      <use xlink:href="#DejaVuSans-6e" x="602.019531"/>
      <use xlink:href="#DejaVuSans-63" x="665.398438"/>
      <use xlink:href="#DejaVuSans-79" x="720.378906"/>
     </g>
    </g>
   </g>
   <g id="line2d_26">
    <path d="M 57.17 398.333333 
L 146.421722 398.333333 
L 147.263719 398.192604 
L 148.105717 398.192604 
L 148.947714 398.333333 
L 150.631709 398.333333 
L 151.473706 398.051874 
L 152.315703 398.333333 
L 153.999698 398.122239 
L 154.841696 397.840779 
L 155.683693 398.192604 
L 156.52569 397.277861 
L 157.367688 397.981509 
L 158.209685 398.122239 
L 159.051682 397.981509 
L 160.735677 397.981509 
L 161.577675 398.192604 
L 162.419672 397.70005 
L 163.261669 397.55932 
L 164.103667 397.840779 
L 164.945664 397.277861 
L 165.787661 396.996401 
L 166.629659 397.41859 
L 167.471656 396.503848 
L 168.313654 396.222388 
L 169.155651 395.65947 
L 169.997648 395.37801 
L 170.839646 395.237281 
L 173.365638 392.915241 
L 175.049633 394.181808 
L 175.89163 392.915241 
L 176.733627 392.563417 
L 177.575625 392.633782 
L 178.417622 392.070863 
L 179.259619 392.774511 
L 180.943614 390.945025 
L 181.785612 390.804296 
L 183.469606 392.141228 
L 184.311604 390.733931 
L 185.153601 390.311742 
L 185.995598 390.663566 
L 186.837596 388.693351 
L 187.679593 389.819188 
L 188.521591 389.326634 
L 189.363588 388.97481 
L 190.205585 388.482256 
L 191.047583 386.723135 
L 191.88958 388.482256 
L 192.731577 386.582406 
L 193.573575 386.160217 
L 194.415572 384.89365 
L 195.25757 384.47146 
L 196.099567 383.275258 
L 196.941564 382.641975 
L 197.783562 380.812489 
L 198.625559 383.134529 
L 199.467556 381.656867 
L 200.309554 379.686652 
L 201.151551 379.616287 
L 201.993549 379.194098 
L 202.835546 378.912638 
L 204.519541 377.083153 
L 205.361538 374.550019 
L 206.203535 374.198194 
L 207.045533 374.127829 
L 207.88753 370.609588 
L 208.729528 370.468858 
L 209.571525 368.146818 
L 210.413522 369.976304 
L 211.25552 365.050766 
L 212.097517 364.417482 
L 212.939514 362.447267 
L 213.781512 363.995293 
L 214.623509 359.984497 
L 215.465507 360.336321 
L 216.307504 363.432374 
L 217.149501 360.054862 
L 217.991499 359.843768 
L 218.833496 354.847864 
L 219.675493 356.466255 
L 221.359488 359.280849 
L 222.201486 357.873552 
L 223.043483 361.03997 
L 223.88548 360.125227 
L 224.727478 363.995293 
L 225.569475 363.150915 
L 226.411472 360.336321 
L 227.25347 362.025078 
L 228.095467 361.602889 
L 228.937465 361.673253 
L 229.779462 364.628577 
L 230.621459 366.106238 
L 231.463457 366.809886 
L 232.305454 367.020981 
L 233.147451 365.965508 
L 233.989449 365.965508 
L 234.831446 369.343021 
L 235.673444 367.020981 
L 236.515441 369.976304 
L 237.357438 367.372805 
L 238.199436 368.850467 
L 239.041433 368.850467 
L 239.88343 368.569007 
L 240.725428 370.750317 
L 241.567425 369.061561 
L 242.409423 370.891047 
L 243.25142 370.328128 
L 244.093417 368.569007 
L 244.935415 372.720533 
L 245.777412 371.94652 
L 247.461407 368.991196 
L 248.303404 366.950616 
L 249.145402 369.835574 
L 249.987399 367.30244 
L 250.829396 365.824779 
L 252.513391 366.598792 
L 253.355388 367.654265 
L 254.197386 365.895144 
L 255.039383 366.035873 
L 255.881381 364.980401 
L 256.723378 362.587996 
L 257.565375 360.617781 
L 258.407373 356.958809 
L 259.24937 357.732823 
L 260.933365 355.058959 
L 261.775362 351.329622 
L 262.61736 350.344515 
L 263.459357 344.644963 
L 264.301354 342.252558 
L 265.143352 340.915627 
L 266.827346 327.405578 
L 267.669344 318.469244 
L 268.511341 312.910422 
L 269.353339 285.608865 
L 270.195336 279.557489 
L 271.037333 340.423073 
L 271.879331 387.567513 
L 271.879331 387.567513 
" clip-path="url(#p362d47b7ef)" style="fill: none; stroke: #008000; stroke-width: 1.5; stroke-linecap: square"/>
   </g>
   <g id="patch_8">
    <path d="M 57.17 398.333333 
L 57.17 218.973364 
" style="fill: none; stroke: #000000; stroke-width: 0.8; stroke-linejoin: miter; stroke-linecap: square"/>
   </g>
   <g id="patch_9">
    <path d="M 272.721328 398.333333 
L 272.721328 218.973364 
" style="fill: none; stroke: #000000; stroke-width: 0.8; stroke-linejoin: miter; stroke-linecap: square"/>
   </g>
   <g id="patch_10">
    <path d="M 57.17 398.333333 
L 272.721328 398.333333 
" style="fill: none; stroke: #000000; stroke-width: 0.8; stroke-linejoin: miter; stroke-linecap: square"/>
   </g>
   <g id="patch_11">
    <path d="M 57.17 218.973364 
L 272.721328 218.973364 
" style="fill: none; stroke: #000000; stroke-width: 0.8; stroke-linejoin: miter; stroke-linecap: square"/>
   </g>
   <g id="text_28">
    <!-- Green Channel  -->
    <g transform="translate(179.494453 232.973364) scale(0.12 -0.12)">
     <defs>
      <path id="DejaVuSans-47" d="M 3809 666 
L 3809 1919 
L 2778 1919 
L 2778 2438 
L 4434 2438 
L 4434 434 
Q 4069 175 3628 42 
Q 3188 -91 2688 -91 
Q 1594 -91 976 548 
Q 359 1188 359 2328 
Q 359 3472 976 4111 
Q 1594 4750 2688 4750 
Q 3144 4750 3555 4637 
Q 3966 4525 4313 4306 
L 4313 3634 
Q 3963 3931 3569 4081 
Q 3175 4231 2741 4231 
Q 1884 4231 1454 3753 
Q 1025 3275 1025 2328 
Q 1025 1384 1454 906 
Q 1884 428 2741 428 
Q 3075 428 3337 486 
Q 3600 544 3809 666 
z
" transform="scale(0.015625)"/>
     </defs>
     <use xlink:href="#DejaVuSans-47"/>
     <use xlink:href="#DejaVuSans-72" x="77.490234"/>
     <use xlink:href="#DejaVuSans-65" x="116.353516"/>
     <use xlink:href="#DejaVuSans-65" x="177.876953"/>
     <use xlink:href="#DejaVuSans-6e" x="239.400391"/>
     <use xlink:href="#DejaVuSans-20" x="302.779297"/>
     <use xlink:href="#DejaVuSans-43" x="334.566406"/>
     <use xlink:href="#DejaVuSans-68" x="404.390625"/>
     <use xlink:href="#DejaVuSans-61" x="467.769531"/>
     <use xlink:href="#DejaVuSans-6e" x="529.048828"/>
     <use xlink:href="#DejaVuSans-6e" x="592.427734"/>
     <use xlink:href="#DejaVuSans-65" x="655.806641"/>
     <use xlink:href="#DejaVuSans-6c" x="717.330078"/>
     <use xlink:href="#DejaVuSans-20" x="745.113281"/>
    </g>
   </g>
  </g>
  <g id="axes_3">
   <g id="patch_12">
    <path d="M 57.17 606.04 
L 272.721328 606.04 
L 272.721328 426.680031 
L 57.17 426.680031 
z
" style="fill: #ffffff"/>
   </g>
   <g id="PolyCollection_3">
    <defs>
     <path id="m7bc377e7fb" d="M 57.17 -41.96 
L 57.17 -41.96 
L 58.011997 -41.96 
L 58.853995 -41.96 
L 59.695992 -41.96 
L 60.53799 -41.96 
L 61.379987 -41.96 
L 62.221984 -41.96 
L 63.063982 -41.96 
L 63.905979 -41.96 
L 64.747976 -41.96 
L 65.589974 -41.96 
L 66.431971 -41.96 
L 67.273969 -41.96 
L 68.115966 -41.96 
L 68.957963 -41.96 
L 69.799961 -41.96 
L 70.641958 -41.96 
L 71.483955 -41.96 
L 72.325953 -41.96 
L 73.16795 -41.96 
L 74.009948 -41.96 
L 74.851945 -41.96 
L 75.693942 -41.96 
L 76.53594 -41.96 
L 77.377937 -41.96 
L 78.219934 -41.96 
L 79.061932 -41.96 
L 79.903929 -41.96 
L 80.745927 -41.96 
L 81.587924 -41.96 
L 82.429921 -41.96 
L 83.271919 -41.96 
L 84.113916 -41.96 
L 84.955913 -41.96 
L 85.797911 -41.96 
L 86.639908 -41.96 
L 87.481906 -41.96 
L 88.323903 -41.96 
L 89.1659 -41.96 
L 90.007898 -41.96 
L 90.849895 -41.96 
L 91.691892 -41.96 
L 92.53389 -41.96 
L 93.375887 -41.96 
L 94.217885 -41.96 
L 95.059882 -41.96 
L 95.901879 -41.96 
L 96.743877 -41.96 
L 97.585874 -41.96 
L 98.427871 -41.96 
L 99.269869 -41.96 
L 100.111866 -41.96 
L 100.953864 -41.96 
L 101.795861 -41.96 
L 102.637858 -41.96 
L 103.479856 -41.96 
L 104.321853 -41.96 
L 105.16385 -41.96 
L 106.005848 -42.030365 
L 106.847845 -41.96 
L 107.689843 -41.96 
L 108.53184 -41.96 
L 109.373837 -42.10073 
L 110.215835 -41.96 
L 111.057832 -42.241459 
L 111.899829 -42.241459 
L 112.741827 -42.452554 
L 113.583824 -42.663648 
L 114.425822 -43.367297 
L 115.267819 -43.296932 
L 116.109816 -43.226567 
L 116.951814 -43.719121 
L 117.793811 -43.930215 
L 118.635808 -44.985688 
L 119.477806 -45.478242 
L 120.319803 -45.548607 
L 121.161801 -47.096633 
L 122.003798 -47.729917 
L 122.845795 -48.50393 
L 123.687793 -47.870646 
L 124.52979 -50.333416 
L 125.371787 -52.233266 
L 126.213785 -51.670347 
L 127.055782 -53.148009 
L 127.89778 -53.359104 
L 128.739777 -52.303631 
L 129.581774 -55.188589 
L 130.423772 -57.510629 
L 131.265769 -58.706831 
L 132.107766 -56.595886 
L 132.949764 -60.817776 
L 133.791761 -61.099236 
L 134.633759 -60.536317 
L 135.475756 -61.873249 
L 136.317753 -64.687842 
L 137.159751 -66.235869 
L 138.001748 -68.909732 
L 138.843745 -69.050462 
L 139.685743 -69.754111 
L 140.52774 -69.754111 
L 141.369738 -72.357609 
L 142.211735 -76.649865 
L 143.053732 -77.283148 
L 143.89573 -77.846067 
L 144.737727 -80.168106 
L 145.579724 -84.178902 
L 146.421722 -82.9827 
L 147.263719 -84.460361 
L 148.105717 -87.274955 
L 148.947714 -91.778304 
L 149.789711 -89.596994 
L 150.631709 -88.752616 
L 151.473706 -96.000195 
L 152.315703 -89.808089 
L 153.157701 -93.044871 
L 153.999698 -92.130129 
L 154.841696 -92.059764 
L 155.683693 -90.089548 
L 156.52569 -90.582102 
L 157.367688 -89.315535 
L 158.209685 -91.42648 
L 159.051682 -87.908238 
L 159.89368 -87.34532 
L 160.735677 -83.475254 
L 161.577675 -83.264159 
L 162.419672 -85.586199 
L 163.261669 -82.630876 
L 164.103667 -82.9827 
L 164.945664 -79.816282 
L 165.787661 -79.534823 
L 166.629659 -78.127526 
L 167.471656 -80.590295 
L 168.313654 -79.182999 
L 169.155651 -78.408985 
L 169.997648 -76.5795 
L 170.839646 -78.268256 
L 171.681643 -76.157311 
L 172.52364 -77.634972 
L 173.365638 -77.283148 
L 174.207635 -74.961108 
L 175.049633 -74.468555 
L 175.89163 -74.25746 
L 176.733627 -74.468555 
L 177.575625 -70.809583 
L 178.417622 -74.609284 
L 179.259619 -73.764906 
L 180.101617 -72.709434 
L 180.943614 -69.120827 
L 181.785612 -68.628273 
L 182.627609 -68.769003 
L 183.469606 -70.387394 
L 184.311604 -66.095139 
L 185.153601 -70.598489 
L 185.995598 -66.798787 
L 186.837596 -67.572801 
L 187.679593 -69.89484 
L 188.521591 -68.628273 
L 189.363588 -67.643165 
L 190.205585 -65.884044 
L 191.047583 -66.728423 
L 191.88958 -66.728423 
L 192.731577 -65.391491 
L 193.573575 -66.517328 
L 194.415572 -66.939517 
L 195.25757 -64.687842 
L 196.099567 -64.758207 
L 196.941564 -64.406383 
L 197.783562 -64.406383 
L 198.625559 -63.139816 
L 199.467556 -61.802884 
L 200.309554 -61.1696 
L 201.151551 -60.254858 
L 201.993549 -59.480844 
L 202.835546 -61.028871 
L 203.677543 -60.465952 
L 204.519541 -60.325222 
L 205.361538 -58.706831 
L 206.203535 -57.651359 
L 207.045533 -57.158805 
L 207.88753 -59.480844 
L 208.729528 -58.706831 
L 209.571525 -56.525521 
L 210.413522 -55.258954 
L 211.25552 -54.836765 
L 212.097517 -53.148009 
L 212.939514 -57.510629 
L 213.781512 -53.640563 
L 214.623509 -54.273846 
L 215.465507 -55.188589 
L 216.307504 -51.951807 
L 217.149501 -57.510629 
L 217.991499 -55.540413 
L 218.833496 -58.566101 
L 219.675493 -54.273846 
L 220.517491 -53.499833 
L 221.359488 -50.614875 
L 222.201486 -55.751508 
L 223.043483 -53.288739 
L 223.88548 -53.710928 
L 224.727478 -51.881442 
L 225.569475 -52.72582 
L 226.411472 -56.314427 
L 227.25347 -55.610778 
L 228.095467 -56.806981 
L 228.937465 -52.936915 
L 229.779462 -50.263051 
L 230.621459 -48.574295 
L 231.463457 -55.540413 
L 232.305454 -50.966699 
L 233.147451 -51.811077 
L 233.989449 -46.252255 
L 234.831446 -53.077644 
L 235.673444 -50.333416 
L 236.515441 -52.303631 
L 237.357438 -50.825969 
L 238.199436 -49.137213 
L 239.041433 -45.689336 
L 239.88343 -49.489038 
L 240.725428 -48.855754 
L 241.567425 -48.855754 
L 242.409423 -46.533714 
L 243.25142 -45.407877 
L 244.093417 -47.166998 
L 244.935415 -46.252255 
L 245.777412 -47.166998 
L 246.619409 -46.111525 
L 247.461407 -44.915323 
L 248.303404 -43.156202 
L 249.145402 -45.900431 
L 249.987399 -45.196782 
L 250.829396 -44.28204 
L 251.671394 -42.663648 
L 252.513391 -44.14131 
L 253.355388 -44.00058 
L 254.197386 -43.508026 
L 255.039383 -43.085837 
L 255.881381 -42.945108 
L 256.723378 -42.10073 
L 257.565375 -43.367297 
L 258.407373 -42.452554 
L 259.24937 -42.593284 
L 260.091367 -41.96 
L 260.933365 -42.241459 
L 261.775362 -42.030365 
L 262.61736 -41.96 
L 263.459357 -41.96 
L 264.301354 -41.96 
L 265.143352 -41.96 
L 265.985349 -41.96 
L 266.827346 -41.96 
L 267.669344 -41.96 
L 268.511341 -41.96 
L 269.353339 -41.96 
L 270.195336 -41.96 
L 271.037333 -41.96 
L 271.879331 -41.96 
L 271.879331 -41.96 
L 271.879331 -41.96 
L 271.037333 -41.96 
L 270.195336 -41.96 
L 269.353339 -41.96 
L 268.511341 -41.96 
L 267.669344 -41.96 
L 266.827346 -41.96 
L 265.985349 -41.96 
L 265.143352 -41.96 
L 264.301354 -41.96 
L 263.459357 -41.96 
L 262.61736 -41.96 
L 261.775362 -41.96 
L 260.933365 -41.96 
L 260.091367 -41.96 
L 259.24937 -41.96 
L 258.407373 -41.96 
L 257.565375 -41.96 
L 256.723378 -41.96 
L 255.881381 -41.96 
L 255.039383 -41.96 
L 254.197386 -41.96 
L 253.355388 -41.96 
L 252.513391 -41.96 
L 251.671394 -41.96 
L 250.829396 -41.96 
L 249.987399 -41.96 
L 249.145402 -41.96 
L 248.303404 -41.96 
L 247.461407 -41.96 
L 246.619409 -41.96 
L 245.777412 -41.96 
L 244.935415 -41.96 
L 244.093417 -41.96 
L 243.25142 -41.96 
L 242.409423 -41.96 
L 241.567425 -41.96 
L 240.725428 -41.96 
L 239.88343 -41.96 
L 239.041433 -41.96 
L 238.199436 -41.96 
L 237.357438 -41.96 
L 236.515441 -41.96 
L 235.673444 -41.96 
L 234.831446 -41.96 
L 233.989449 -41.96 
L 233.147451 -41.96 
L 232.305454 -41.96 
L 231.463457 -41.96 
L 230.621459 -41.96 
L 229.779462 -41.96 
L 228.937465 -41.96 
L 228.095467 -41.96 
L 227.25347 -41.96 
L 226.411472 -41.96 
L 225.569475 -41.96 
L 224.727478 -41.96 
L 223.88548 -41.96 
L 223.043483 -41.96 
L 222.201486 -41.96 
L 221.359488 -41.96 
L 220.517491 -41.96 
L 219.675493 -41.96 
L 218.833496 -41.96 
L 217.991499 -41.96 
L 217.149501 -41.96 
L 216.307504 -41.96 
L 215.465507 -41.96 
L 214.623509 -41.96 
L 213.781512 -41.96 
L 212.939514 -41.96 
L 212.097517 -41.96 
L 211.25552 -41.96 
L 210.413522 -41.96 
L 209.571525 -41.96 
L 208.729528 -41.96 
L 207.88753 -41.96 
L 207.045533 -41.96 
L 206.203535 -41.96 
L 205.361538 -41.96 
L 204.519541 -41.96 
L 203.677543 -41.96 
L 202.835546 -41.96 
L 201.993549 -41.96 
L 201.151551 -41.96 
L 200.309554 -41.96 
L 199.467556 -41.96 
L 198.625559 -41.96 
L 197.783562 -41.96 
L 196.941564 -41.96 
L 196.099567 -41.96 
L 195.25757 -41.96 
L 194.415572 -41.96 
L 193.573575 -41.96 
L 192.731577 -41.96 
L 191.88958 -41.96 
L 191.047583 -41.96 
L 190.205585 -41.96 
L 189.363588 -41.96 
L 188.521591 -41.96 
L 187.679593 -41.96 
L 186.837596 -41.96 
L 185.995598 -41.96 
L 185.153601 -41.96 
L 184.311604 -41.96 
L 183.469606 -41.96 
L 182.627609 -41.96 
L 181.785612 -41.96 
L 180.943614 -41.96 
L 180.101617 -41.96 
L 179.259619 -41.96 
L 178.417622 -41.96 
L 177.575625 -41.96 
L 176.733627 -41.96 
L 175.89163 -41.96 
L 175.049633 -41.96 
L 174.207635 -41.96 
L 173.365638 -41.96 
L 172.52364 -41.96 
L 171.681643 -41.96 
L 170.839646 -41.96 
L 169.997648 -41.96 
L 169.155651 -41.96 
L 168.313654 -41.96 
L 167.471656 -41.96 
L 166.629659 -41.96 
L 165.787661 -41.96 
L 164.945664 -41.96 
L 164.103667 -41.96 
L 163.261669 -41.96 
L 162.419672 -41.96 
L 161.577675 -41.96 
L 160.735677 -41.96 
L 159.89368 -41.96 
L 159.051682 -41.96 
L 158.209685 -41.96 
L 157.367688 -41.96 
L 156.52569 -41.96 
L 155.683693 -41.96 
L 154.841696 -41.96 
L 153.999698 -41.96 
L 153.157701 -41.96 
L 152.315703 -41.96 
L 151.473706 -41.96 
L 150.631709 -41.96 
L 149.789711 -41.96 
L 148.947714 -41.96 
L 148.105717 -41.96 
L 147.263719 -41.96 
L 146.421722 -41.96 
L 145.579724 -41.96 
L 144.737727 -41.96 
L 143.89573 -41.96 
L 143.053732 -41.96 
L 142.211735 -41.96 
L 141.369738 -41.96 
L 140.52774 -41.96 
L 139.685743 -41.96 
L 138.843745 -41.96 
L 138.001748 -41.96 
L 137.159751 -41.96 
L 136.317753 -41.96 
L 135.475756 -41.96 
L 134.633759 -41.96 
L 133.791761 -41.96 
L 132.949764 -41.96 
L 132.107766 -41.96 
L 131.265769 -41.96 
L 130.423772 -41.96 
L 129.581774 -41.96 
L 128.739777 -41.96 
L 127.89778 -41.96 
L 127.055782 -41.96 
L 126.213785 -41.96 
L 125.371787 -41.96 
L 124.52979 -41.96 
L 123.687793 -41.96 
L 122.845795 -41.96 
L 122.003798 -41.96 
L 121.161801 -41.96 
L 120.319803 -41.96 
L 119.477806 -41.96 
L 118.635808 -41.96 
L 117.793811 -41.96 
L 116.951814 -41.96 
L 116.109816 -41.96 
L 115.267819 -41.96 
L 114.425822 -41.96 
L 113.583824 -41.96 
L 112.741827 -41.96 
L 111.899829 -41.96 
L 111.057832 -41.96 
L 110.215835 -41.96 
L 109.373837 -41.96 
L 108.53184 -41.96 
L 107.689843 -41.96 
L 106.847845 -41.96 
L 106.005848 -41.96 
L 105.16385 -41.96 
L 104.321853 -41.96 
L 103.479856 -41.96 
L 102.637858 -41.96 
L 101.795861 -41.96 
L 100.953864 -41.96 
L 100.111866 -41.96 
L 99.269869 -41.96 
L 98.427871 -41.96 
L 97.585874 -41.96 
L 96.743877 -41.96 
L 95.901879 -41.96 
L 95.059882 -41.96 
L 94.217885 -41.96 
L 93.375887 -41.96 
L 92.53389 -41.96 
L 91.691892 -41.96 
L 90.849895 -41.96 
L 90.007898 -41.96 
L 89.1659 -41.96 
L 88.323903 -41.96 
L 87.481906 -41.96 
L 86.639908 -41.96 
L 85.797911 -41.96 
L 84.955913 -41.96 
L 84.113916 -41.96 
L 83.271919 -41.96 
L 82.429921 -41.96 
L 81.587924 -41.96 
L 80.745927 -41.96 
L 79.903929 -41.96 
L 79.061932 -41.96 
L 78.219934 -41.96 
L 77.377937 -41.96 
L 76.53594 -41.96 
L 75.693942 -41.96 
L 74.851945 -41.96 
L 74.009948 -41.96 
L 73.16795 -41.96 
L 72.325953 -41.96 
L 71.483955 -41.96 
L 70.641958 -41.96 
L 69.799961 -41.96 
L 68.957963 -41.96 
L 68.115966 -41.96 
L 67.273969 -41.96 
L 66.431971 -41.96 
L 65.589974 -41.96 
L 64.747976 -41.96 
L 63.905979 -41.96 
L 63.063982 -41.96 
L 62.221984 -41.96 
L 61.379987 -41.96 
L 60.53799 -41.96 
L 59.695992 -41.96 
L 58.853995 -41.96 
L 58.011997 -41.96 
L 57.17 -41.96 
z
" style="stroke: #0000ff; stroke-opacity: 0.4"/>
    </defs>
    <g clip-path="url(#pf7fd5cd929)">
     <use xlink:href="#m7bc377e7fb" x="0" y="648" style="fill: #0000ff; fill-opacity: 0.4; stroke: #0000ff; stroke-opacity: 0.4"/>
    </g>
   </g>
   <g id="matplotlib.axis_5">
    <g id="xtick_13">
     <g id="line2d_27">
      <g>
       <use xlink:href="#me8790007f4" x="57.17" y="606.04" style="stroke: #000000; stroke-width: 0.8"/>
      </g>
     </g>
     <g id="text_29">
      <!-- 0 -->
      <g transform="translate(53.98875 620.638438) scale(0.1 -0.1)">
       <use xlink:href="#DejaVuSans-30"/>
      </g>
     </g>
    </g>
    <g id="xtick_14">
     <g id="line2d_28">
      <g>
       <use xlink:href="#me8790007f4" x="99.269869" y="606.04" style="stroke: #000000; stroke-width: 0.8"/>
      </g>
     </g>
     <g id="text_30">
      <!-- 50 -->
      <g transform="translate(92.907369 620.638438) scale(0.1 -0.1)">
       <use xlink:href="#DejaVuSans-35"/>
       <use xlink:href="#DejaVuSans-30" x="63.623047"/>
      </g>
     </g>
    </g>
    <g id="xtick_15">
     <g id="line2d_29">
      <g>
       <use xlink:href="#me8790007f4" x="141.369738" y="606.04" style="stroke: #000000; stroke-width: 0.8"/>
      </g>
     </g>
     <g id="text_31">
      <!-- 100 -->
      <g transform="translate(131.825988 620.638438) scale(0.1 -0.1)">
       <use xlink:href="#DejaVuSans-31"/>
       <use xlink:href="#DejaVuSans-30" x="63.623047"/>
       <use xlink:href="#DejaVuSans-30" x="127.246094"/>
      </g>
     </g>
    </g>
    <g id="xtick_16">
     <g id="line2d_30">
      <g>
       <use xlink:href="#me8790007f4" x="183.469606" y="606.04" style="stroke: #000000; stroke-width: 0.8"/>
      </g>
     </g>
     <g id="text_32">
      <!-- 150 -->
      <g transform="translate(173.925856 620.638438) scale(0.1 -0.1)">
       <use xlink:href="#DejaVuSans-31"/>
       <use xlink:href="#DejaVuSans-35" x="63.623047"/>
       <use xlink:href="#DejaVuSans-30" x="127.246094"/>
      </g>
     </g>
    </g>
    <g id="xtick_17">
     <g id="line2d_31">
      <g>
       <use xlink:href="#me8790007f4" x="225.569475" y="606.04" style="stroke: #000000; stroke-width: 0.8"/>
      </g>
     </g>
     <g id="text_33">
      <!-- 200 -->
      <g transform="translate(216.025725 620.638438) scale(0.1 -0.1)">
       <use xlink:href="#DejaVuSans-32"/>
       <use xlink:href="#DejaVuSans-30" x="63.623047"/>
       <use xlink:href="#DejaVuSans-30" x="127.246094"/>
      </g>
     </g>
    </g>
    <g id="xtick_18">
     <g id="line2d_32">
      <g>
       <use xlink:href="#me8790007f4" x="267.669344" y="606.04" style="stroke: #000000; stroke-width: 0.8"/>
      </g>
     </g>
     <g id="text_34">
      <!-- 250 -->
      <g transform="translate(258.125594 620.638438) scale(0.1 -0.1)">
       <use xlink:href="#DejaVuSans-32"/>
       <use xlink:href="#DejaVuSans-35" x="63.623047"/>
       <use xlink:href="#DejaVuSans-30" x="127.246094"/>
      </g>
     </g>
    </g>
    <g id="text_35">
     <!-- Pixel Intensity -->
     <g transform="translate(130.033945 634.316563) scale(0.1 -0.1)">
      <defs>
       <path id="DejaVuSans-49" d="M 628 4666 
L 1259 4666 
L 1259 0 
L 628 0 
L 628 4666 
z
" transform="scale(0.015625)"/>
       <path id="DejaVuSans-74" d="M 1172 4494 
L 1172 3500 
L 2356 3500 
L 2356 3053 
L 1172 3053 
L 1172 1153 
Q 1172 725 1289 603 
Q 1406 481 1766 481 
L 2356 481 
L 2356 0 
L 1766 0 
Q 1100 0 847 248 
Q 594 497 594 1153 
L 594 3053 
L 172 3053 
L 172 3500 
L 594 3500 
L 594 4494 
L 1172 4494 
z
" transform="scale(0.015625)"/>
       <path id="DejaVuSans-73" d="M 2834 3397 
L 2834 2853 
Q 2591 2978 2328 3040 
Q 2066 3103 1784 3103 
Q 1356 3103 1142 2972 
Q 928 2841 928 2578 
Q 928 2378 1081 2264 
Q 1234 2150 1697 2047 
L 1894 2003 
Q 2506 1872 2764 1633 
Q 3022 1394 3022 966 
Q 3022 478 2636 193 
Q 2250 -91 1575 -91 
Q 1294 -91 989 -36 
Q 684 19 347 128 
L 347 722 
Q 666 556 975 473 
Q 1284 391 1588 391 
Q 1994 391 2212 530 
Q 2431 669 2431 922 
Q 2431 1156 2273 1281 
Q 2116 1406 1581 1522 
L 1381 1569 
Q 847 1681 609 1914 
Q 372 2147 372 2553 
Q 372 3047 722 3315 
Q 1072 3584 1716 3584 
Q 2034 3584 2315 3537 
Q 2597 3491 2834 3397 
z
" transform="scale(0.015625)"/>
      </defs>
      <use xlink:href="#DejaVuSans-50"/>
      <use xlink:href="#DejaVuSans-69" x="58.052734"/>
      <use xlink:href="#DejaVuSans-78" x="85.835938"/>
      <use xlink:href="#DejaVuSans-65" x="141.890625"/>
      <use xlink:href="#DejaVuSans-6c" x="203.414062"/>
      <use xlink:href="#DejaVuSans-20" x="231.197266"/>
      <use xlink:href="#DejaVuSans-49" x="262.984375"/>
      <use xlink:href="#DejaVuSans-6e" x="292.476562"/>
      <use xlink:href="#DejaVuSans-74" x="355.855469"/>
      <use xlink:href="#DejaVuSans-65" x="395.064453"/>
      <use xlink:href="#DejaVuSans-6e" x="456.587891"/>
      <use xlink:href="#DejaVuSans-73" x="519.966797"/>
      <use xlink:href="#DejaVuSans-69" x="572.066406"/>
      <use xlink:href="#DejaVuSans-74" x="599.849609"/>
      <use xlink:href="#DejaVuSans-79" x="639.058594"/>
     </g>
    </g>
   </g>
   <g id="matplotlib.axis_6">
    <g id="ytick_13">
     <g id="line2d_33">
      <g>
       <use xlink:href="#me12675b382" x="57.17" y="606.04" style="stroke: #000000; stroke-width: 0.8"/>
      </g>
     </g>
     <g id="text_36">
      <!-- 0 -->
      <g transform="translate(43.8075 609.839219) scale(0.1 -0.1)">
       <use xlink:href="#DejaVuSans-30"/>
      </g>
     </g>
    </g>
    <g id="ytick_14">
     <g id="line2d_34">
      <g>
       <use xlink:href="#me12675b382" x="57.17" y="570.857582" style="stroke: #000000; stroke-width: 0.8"/>
      </g>
     </g>
     <g id="text_37">
      <!-- 500 -->
      <g transform="translate(31.0825 574.6568) scale(0.1 -0.1)">
       <use xlink:href="#DejaVuSans-35"/>
       <use xlink:href="#DejaVuSans-30" x="63.623047"/>
       <use xlink:href="#DejaVuSans-30" x="127.246094"/>
      </g>
     </g>
    </g>
    <g id="ytick_15">
     <g id="line2d_35">
      <g>
       <use xlink:href="#me12675b382" x="57.17" y="535.675163" style="stroke: #000000; stroke-width: 0.8"/>
      </g>
     </g>
     <g id="text_38">
      <!-- 1000 -->
      <g transform="translate(24.72 539.474382) scale(0.1 -0.1)">
       <use xlink:href="#DejaVuSans-31"/>
       <use xlink:href="#DejaVuSans-30" x="63.623047"/>
       <use xlink:href="#DejaVuSans-30" x="127.246094"/>
       <use xlink:href="#DejaVuSans-30" x="190.869141"/>
      </g>
     </g>
    </g>
    <g id="ytick_16">
     <g id="line2d_36">
      <g>
       <use xlink:href="#me12675b382" x="57.17" y="500.492745" style="stroke: #000000; stroke-width: 0.8"/>
      </g>
     </g>
     <g id="text_39">
      <!-- 1500 -->
      <g transform="translate(24.72 504.291964) scale(0.1 -0.1)">
       <use xlink:href="#DejaVuSans-31"/>
       <use xlink:href="#DejaVuSans-35" x="63.623047"/>
       <use xlink:href="#DejaVuSans-30" x="127.246094"/>
       <use xlink:href="#DejaVuSans-30" x="190.869141"/>
      </g>
     </g>
    </g>
    <g id="ytick_17">
     <g id="line2d_37">
      <g>
       <use xlink:href="#me12675b382" x="57.17" y="465.310326" style="stroke: #000000; stroke-width: 0.8"/>
      </g>
     </g>
     <g id="text_40">
      <!-- 2000 -->
      <g transform="translate(24.72 469.109545) scale(0.1 -0.1)">
       <use xlink:href="#DejaVuSans-32"/>
       <use xlink:href="#DejaVuSans-30" x="63.623047"/>
       <use xlink:href="#DejaVuSans-30" x="127.246094"/>
       <use xlink:href="#DejaVuSans-30" x="190.869141"/>
      </g>
     </g>
    </g>
    <g id="ytick_18">
     <g id="line2d_38">
      <g>
       <use xlink:href="#me12675b382" x="57.17" y="430.127908" style="stroke: #000000; stroke-width: 0.8"/>
      </g>
     </g>
     <g id="text_41">
      <!-- 2500 -->
      <g transform="translate(24.72 433.927127) scale(0.1 -0.1)">
       <use xlink:href="#DejaVuSans-32"/>
       <use xlink:href="#DejaVuSans-35" x="63.623047"/>
       <use xlink:href="#DejaVuSans-30" x="127.246094"/>
       <use xlink:href="#DejaVuSans-30" x="190.869141"/>
      </g>
     </g>
    </g>
    <g id="text_42">
     <!-- Pixel Frequency -->
     <g transform="translate(18.640313 555.338922) rotate(-90) scale(0.1 -0.1)">
      <use xlink:href="#DejaVuSans-50"/>
      <use xlink:href="#DejaVuSans-69" x="58.052734"/>
      <use xlink:href="#DejaVuSans-78" x="85.835938"/>
      <use xlink:href="#DejaVuSans-65" x="141.890625"/>
      <use xlink:href="#DejaVuSans-6c" x="203.414062"/>
      <use xlink:href="#DejaVuSans-20" x="231.197266"/>
      <use xlink:href="#DejaVuSans-46" x="262.984375"/>
      <use xlink:href="#DejaVuSans-72" x="313.253906"/>
      <use xlink:href="#DejaVuSans-65" x="352.117188"/>
      <use xlink:href="#DejaVuSans-71" x="413.640625"/>
      <use xlink:href="#DejaVuSans-75" x="477.117188"/>
      <use xlink:href="#DejaVuSans-65" x="540.496094"/>
      <use xlink:href="#DejaVuSans-6e" x="602.019531"/>
      <use xlink:href="#DejaVuSans-63" x="665.398438"/>
      <use xlink:href="#DejaVuSans-79" x="720.378906"/>
     </g>
    </g>
   </g>
   <g id="line2d_39">
    <path d="M 57.17 606.04 
L 108.53184 606.04 
L 109.373837 605.89927 
L 110.215835 606.04 
L 111.057832 605.758541 
L 111.899829 605.758541 
L 113.583824 605.336352 
L 114.425822 604.632703 
L 116.109816 604.773433 
L 116.951814 604.280879 
L 117.793811 604.069785 
L 118.635808 603.014312 
L 119.477806 602.521758 
L 120.319803 602.451393 
L 121.161801 600.903367 
L 122.003798 600.270083 
L 122.845795 599.49607 
L 123.687793 600.129354 
L 124.52979 597.666584 
L 125.371787 595.766734 
L 126.213785 596.329653 
L 127.055782 594.851991 
L 127.89778 594.640896 
L 128.739777 595.696369 
L 129.581774 592.811411 
L 130.423772 590.489371 
L 131.265769 589.293169 
L 132.107766 591.404114 
L 132.949764 587.182224 
L 133.791761 586.900764 
L 134.633759 587.463683 
L 135.475756 586.126751 
L 136.317753 583.312158 
L 137.159751 581.764131 
L 138.001748 579.090268 
L 138.843745 578.949538 
L 139.685743 578.245889 
L 140.52774 578.245889 
L 141.369738 575.642391 
L 142.211735 571.350135 
L 143.89573 570.153933 
L 144.737727 567.831894 
L 145.579724 563.821098 
L 146.421722 565.0173 
L 147.263719 563.539639 
L 148.105717 560.725045 
L 148.947714 556.221696 
L 149.789711 558.403006 
L 150.631709 559.247384 
L 151.473706 551.999805 
L 152.315703 558.191911 
L 153.157701 554.955129 
L 153.999698 555.869871 
L 154.841696 555.940236 
L 155.683693 557.910452 
L 156.52569 557.417898 
L 157.367688 558.684465 
L 158.209685 556.57352 
L 159.051682 560.091762 
L 159.89368 560.65468 
L 160.735677 564.524746 
L 161.577675 564.735841 
L 162.419672 562.413801 
L 163.261669 565.369124 
L 164.103667 565.0173 
L 164.945664 568.183718 
L 165.787661 568.465177 
L 166.629659 569.872474 
L 167.471656 567.409705 
L 168.313654 568.817001 
L 169.155651 569.591015 
L 169.997648 571.4205 
L 170.839646 569.731744 
L 171.681643 571.842689 
L 172.52364 570.365028 
L 173.365638 570.716852 
L 174.207635 573.038892 
L 175.049633 573.531445 
L 175.89163 573.74254 
L 176.733627 573.531445 
L 177.575625 577.190417 
L 178.417622 573.390716 
L 179.259619 574.235094 
L 180.101617 575.290566 
L 180.943614 578.879173 
L 181.785612 579.371727 
L 182.627609 579.230997 
L 183.469606 577.612606 
L 184.311604 581.904861 
L 185.153601 577.401511 
L 185.995598 581.201213 
L 186.837596 580.427199 
L 187.679593 578.10516 
L 188.521591 579.371727 
L 189.363588 580.356835 
L 190.205585 582.115956 
L 191.047583 581.271577 
L 191.88958 581.271577 
L 192.731577 582.608509 
L 193.573575 581.482672 
L 194.415572 581.060483 
L 195.25757 583.312158 
L 196.099567 583.241793 
L 196.941564 583.593617 
L 197.783562 583.593617 
L 199.467556 586.197116 
L 200.309554 586.8304 
L 201.993549 588.519156 
L 202.835546 586.971129 
L 203.677543 587.534048 
L 204.519541 587.674778 
L 205.361538 589.293169 
L 206.203535 590.348641 
L 207.045533 590.841195 
L 207.88753 588.519156 
L 208.729528 589.293169 
L 209.571525 591.474479 
L 210.413522 592.741046 
L 211.25552 593.163235 
L 212.097517 594.851991 
L 212.939514 590.489371 
L 213.781512 594.359437 
L 214.623509 593.726154 
L 215.465507 592.811411 
L 216.307504 596.048193 
L 217.149501 590.489371 
L 217.991499 592.459587 
L 218.833496 589.433899 
L 219.675493 593.726154 
L 220.517491 594.500167 
L 221.359488 597.385125 
L 222.201486 592.248492 
L 223.043483 594.711261 
L 223.88548 594.289072 
L 224.727478 596.118558 
L 225.569475 595.27418 
L 226.411472 591.685573 
L 227.25347 592.389222 
L 228.095467 591.193019 
L 228.937465 595.063085 
L 229.779462 597.736949 
L 230.621459 599.425705 
L 231.463457 592.459587 
L 232.305454 597.033301 
L 233.147451 596.188923 
L 233.989449 601.747745 
L 234.831446 594.922356 
L 235.673444 597.666584 
L 236.515441 595.696369 
L 238.199436 598.862787 
L 239.041433 602.310664 
L 239.88343 598.510962 
L 240.725428 599.144246 
L 241.567425 599.144246 
L 242.409423 601.466286 
L 243.25142 602.592123 
L 244.093417 600.833002 
L 244.935415 601.747745 
L 245.777412 600.833002 
L 247.461407 603.084677 
L 248.303404 604.843798 
L 249.145402 602.099569 
L 249.987399 602.803218 
L 250.829396 603.71796 
L 251.671394 605.336352 
L 252.513391 603.85869 
L 253.355388 603.99942 
L 255.039383 604.914163 
L 255.881381 605.054892 
L 256.723378 605.89927 
L 257.565375 604.632703 
L 258.407373 605.547446 
L 259.24937 605.406716 
L 260.091367 606.04 
L 260.933365 605.758541 
L 261.775362 605.969635 
L 263.459357 606.04 
L 271.879331 606.04 
L 271.879331 606.04 
" clip-path="url(#pf7fd5cd929)" style="fill: none; stroke: #0000ff; stroke-width: 1.5; stroke-linecap: square"/>
   </g>
   <g id="patch_13">
    <path d="M 57.17 606.04 
L 57.17 426.680031 
" style="fill: none; stroke: #000000; stroke-width: 0.8; stroke-linejoin: miter; stroke-linecap: square"/>
   </g>
   <g id="patch_14">
    <path d="M 272.721328 606.04 
L 272.721328 426.680031 
" style="fill: none; stroke: #000000; stroke-width: 0.8; stroke-linejoin: miter; stroke-linecap: square"/>
   </g>
   <g id="patch_15">
    <path d="M 57.17 606.04 
L 272.721328 606.04 
" style="fill: none; stroke: #000000; stroke-width: 0.8; stroke-linejoin: miter; stroke-linecap: square"/>
   </g>
   <g id="patch_16">
    <path d="M 57.17 426.680031 
L 272.721328 426.680031 
" style="fill: none; stroke: #000000; stroke-width: 0.8; stroke-linejoin: miter; stroke-linecap: square"/>
   </g>
   <g id="text_43">
    <!-- Blue Channel  -->
    <g transform="translate(189.272578 440.680031) scale(0.12 -0.12)">
     <defs>
      <path id="DejaVuSans-42" d="M 1259 2228 
L 1259 519 
L 2272 519 
Q 2781 519 3026 730 
Q 3272 941 3272 1375 
Q 3272 1813 3026 2020 
Q 2781 2228 2272 2228 
L 1259 2228 
z
M 1259 4147 
L 1259 2741 
L 2194 2741 
Q 2656 2741 2882 2914 
Q 3109 3088 3109 3444 
Q 3109 3797 2882 3972 
Q 2656 4147 2194 4147 
L 1259 4147 
z
M 628 4666 
L 2241 4666 
Q 2963 4666 3353 4366 
Q 3744 4066 3744 3513 
Q 3744 3084 3544 2831 
Q 3344 2578 2956 2516 
Q 3422 2416 3680 2098 
Q 3938 1781 3938 1306 
Q 3938 681 3513 340 
Q 3088 0 2303 0 
L 628 0 
L 628 4666 
z
" transform="scale(0.015625)"/>
     </defs>
     <use xlink:href="#DejaVuSans-42"/>
     <use xlink:href="#DejaVuSans-6c" x="68.603516"/>
     <use xlink:href="#DejaVuSans-75" x="96.386719"/>
     <use xlink:href="#DejaVuSans-65" x="159.765625"/>
     <use xlink:href="#DejaVuSans-20" x="221.289062"/>
     <use xlink:href="#DejaVuSans-43" x="253.076172"/>
     <use xlink:href="#DejaVuSans-68" x="322.900391"/>
     <use xlink:href="#DejaVuSans-61" x="386.279297"/>
     <use xlink:href="#DejaVuSans-6e" x="447.558594"/>
     <use xlink:href="#DejaVuSans-6e" x="510.9375"/>
     <use xlink:href="#DejaVuSans-65" x="574.316406"/>
     <use xlink:href="#DejaVuSans-6c" x="635.839844"/>
     <use xlink:href="#DejaVuSans-20" x="663.623047"/>
    </g>
   </g>
  </g>
 </g>
 <defs>
  <clipPath id="pde54cc1df4">
   <rect x="57.17" y="11.266698" width="215.551328" height="179.359969"/>
  </clipPath>
  <clipPath id="p362d47b7ef">
   <rect x="57.17" y="218.973364" width="215.551328" height="179.359969"/>
  </clipPath>
  <clipPath id="pf7fd5cd929">
   <rect x="57.17" y="426.680031" width="215.551328" height="179.359969"/>
  </clipPath>
 </defs>
</svg>
