<?xml version="1.0" encoding="utf-8" standalone="no"?>
<!DOCTYPE svg PUBLIC "-//W3C//DTD SVG 1.1//EN"
  "http://www.w3.org/Graphics/SVG/1.1/DTD/svg11.dtd">
<svg xmlns:xlink="http://www.w3.org/1999/xlink" width="288pt" height="648pt" viewBox="0 0 288 648" xmlns="http://www.w3.org/2000/svg" version="1.1">
 <metadata>
  <rdf:RDF xmlns:dc="http://purl.org/dc/elements/1.1/" xmlns:cc="http://creativecommons.org/ns#" xmlns:rdf="http://www.w3.org/1999/02/22-rdf-syntax-ns#">
   <cc:Work>
    <dc:type rdf:resource="http://purl.org/dc/dcmitype/StillImage"/>
    <dc:date>2023-11-18T15:20:04.600065</dc:date>
    <dc:format>image/svg+xml</dc:format>
    <dc:creator>
     <cc:Agent>
      <dc:title>Matplotlib v3.8.0, https://matplotlib.org/</dc:title>
     </cc:Agent>
    </dc:creator>
   </cc:Work>
  </rdf:RDF>
 </metadata>
 <defs>
  <style type="text/css">*{stroke-linejoin: round; stroke-linecap: butt}</style>
 </defs>
 <g id="figure_1">
  <g id="patch_1">
   <path d="M 0 648 
L 288 648 
L 288 0 
L 0 0 
z
" style="fill: #ffffff"/>
  </g>
  <g id="axes_1">
   <g id="patch_2">
    <path d="M 57.17 190.626667 
L 272.721328 190.626667 
L 272.721328 10.8 
L 57.17 10.8 
z
" style="fill: #ffffff"/>
   </g>
   <g id="PolyCollection_1">
    <defs>
     <path id="m5153d1119e" d="M 57.17 -457.373333 
L 57.17 -457.373333 
L 58.011997 -457.373333 
L 58.853995 -457.373333 
L 59.695992 -457.373333 
L 60.53799 -457.373333 
L 61.379987 -457.373333 
L 62.221984 -457.373333 
L 63.063982 -457.373333 
L 63.905979 -457.373333 
L 64.747976 -457.373333 
L 65.589974 -457.373333 
L 66.431971 -457.373333 
L 67.273969 -457.373333 
L 68.115966 -457.373333 
L 68.957963 -457.373333 
L 69.799961 -457.373333 
L 70.641958 -457.373333 
L 71.483955 -457.373333 
L 72.325953 -457.373333 
L 73.16795 -457.373333 
L 74.009948 -457.373333 
L 74.851945 -457.373333 
L 75.693942 -457.373333 
L 76.53594 -457.373333 
L 77.377937 -457.373333 
L 78.219934 -457.373333 
L 79.061932 -457.373333 
L 79.903929 -457.373333 
L 80.745927 -457.373333 
L 81.587924 -457.373333 
L 82.429921 -457.373333 
L 83.271919 -457.373333 
L 84.113916 -457.373333 
L 84.955913 -457.373333 
L 85.797911 -457.373333 
L 86.639908 -457.373333 
L 87.481906 -457.373333 
L 88.323903 -457.373333 
L 89.1659 -457.88317 
L 90.007898 -458.46584 
L 90.849895 -458.684342 
L 91.691892 -459.922517 
L 92.53389 -462.107531 
L 93.375887 -462.107531 
L 94.217885 -461.379193 
L 95.059882 -461.233525 
L 95.901879 -466.11339 
L 96.743877 -472.085762 
L 97.585874 -482.719498 
L 98.427871 -498.160265 
L 99.269869 -517.752558 
L 100.111866 -536.980683 
L 100.953864 -564.803197 
L 101.795861 -580.608133 
L 102.637858 -584.541158 
L 103.479856 -578.787288 
L 104.321853 -574.708595 
L 105.16385 -573.179085 
L 106.005848 -571.431073 
L 106.847845 -566.114205 
L 107.689843 -566.76971 
L 108.53184 -573.761755 
L 109.373837 -578.05895 
L 110.215835 -591.824539 
L 111.057832 -583.594319 
L 111.899829 -574.271592 
L 112.741827 -568.153552 
L 113.583824 -568.153552 
L 114.425822 -564.147693 
L 115.267819 -561.671343 
L 116.109816 -554.387963 
L 116.951814 -550.017934 
L 117.793811 -542.880221 
L 118.635808 -533.630328 
L 119.477806 -532.246486 
L 120.319803 -523.287928 
L 121.161801 -520.374575 
L 122.003798 -514.839206 
L 122.845795 -515.49471 
L 123.687793 -509.376671 
L 124.52979 -504.933809 
L 125.371787 -502.311792 
L 126.213785 -498.888603 
L 127.055782 -497.286259 
L 127.89778 -492.697729 
L 128.739777 -491.095385 
L 129.581774 -487.526529 
L 130.423772 -486.361188 
L 131.265769 -484.467509 
L 132.107766 -481.554157 
L 132.949764 -479.150641 
L 133.791761 -477.256962 
L 134.633759 -475.144782 
L 135.475756 -472.886934 
L 136.317753 -470.70192 
L 137.159751 -470.192083 
L 138.001748 -469.536579 
L 138.843745 -468.735407 
L 139.685743 -467.6429 
L 140.52774 -465.457886 
L 141.369738 -465.53072 
L 142.211735 -464.365379 
L 143.053732 -462.835869 
L 143.89573 -462.908703 
L 144.737727 -462.034697 
L 145.579724 -462.326032 
L 146.421722 -461.379193 
L 147.263719 -460.94219 
L 148.105717 -460.286686 
L 148.947714 -460.286686 
L 149.789711 -460.068184 
L 150.631709 -459.194178 
L 151.473706 -459.776849 
L 152.315703 -459.485514 
L 153.157701 -458.975677 
L 153.999698 -459.267012 
L 154.841696 -458.757176 
L 155.683693 -459.121345 
L 156.52569 -458.757176 
L 157.367688 -458.393007 
L 158.209685 -458.538674 
L 159.051682 -458.757176 
L 159.89368 -458.174505 
L 160.735677 -458.684342 
L 161.577675 -457.519001 
L 162.419672 -458.028838 
L 163.261669 -458.611508 
L 164.103667 -458.320173 
L 164.945664 -457.956004 
L 165.787661 -457.956004 
L 166.629659 -458.101671 
L 167.471656 -457.737502 
L 168.313654 -458.028838 
L 169.155651 -457.810336 
L 169.997648 -458.247339 
L 170.839646 -457.737502 
L 171.681643 -458.101671 
L 172.52364 -457.664669 
L 173.365638 -457.737502 
L 174.207635 -458.101671 
L 175.049633 -457.88317 
L 175.89163 -457.88317 
L 176.733627 -457.664669 
L 177.575625 -457.591835 
L 178.417622 -457.810336 
L 179.259619 -457.737502 
L 180.101617 -457.88317 
L 180.943614 -457.519001 
L 181.785612 -457.956004 
L 182.627609 -457.664669 
L 183.469606 -457.446167 
L 184.311604 -457.810336 
L 185.153601 -457.591835 
L 185.995598 -457.591835 
L 186.837596 -457.810336 
L 187.679593 -457.446167 
L 188.521591 -457.519001 
L 189.363588 -457.737502 
L 190.205585 -457.373333 
L 191.047583 -457.446167 
L 191.88958 -457.664669 
L 192.731577 -457.519001 
L 193.573575 -457.519001 
L 194.415572 -457.446167 
L 195.25757 -457.664669 
L 196.099567 -457.591835 
L 196.941564 -457.591835 
L 197.783562 -457.591835 
L 198.625559 -457.591835 
L 199.467556 -457.373333 
L 200.309554 -457.446167 
L 201.151551 -457.373333 
L 201.993549 -457.373333 
L 202.835546 -457.373333 
L 203.677543 -457.591835 
L 204.519541 -457.373333 
L 205.361538 -457.591835 
L 206.203535 -457.373333 
L 207.045533 -457.373333 
L 207.88753 -457.446167 
L 208.729528 -457.373333 
L 209.571525 -457.519001 
L 210.413522 -457.446167 
L 211.25552 -457.373333 
L 212.097517 -457.519001 
L 212.939514 -457.373333 
L 213.781512 -457.373333 
L 214.623509 -457.519001 
L 215.465507 -457.446167 
L 216.307504 -457.519001 
L 217.149501 -457.373333 
L 217.991499 -457.446167 
L 218.833496 -457.519001 
L 219.675493 -457.446167 
L 220.517491 -457.373333 
L 221.359488 -457.373333 
L 222.201486 -457.446167 
L 223.043483 -457.373333 
L 223.88548 -457.373333 
L 224.727478 -457.373333 
L 225.569475 -457.373333 
L 226.411472 -457.373333 
L 227.25347 -457.373333 
L 228.095467 -457.373333 
L 228.937465 -457.373333 
L 229.779462 -457.373333 
L 230.621459 -457.373333 
L 231.463457 -457.446167 
L 232.305454 -457.373333 
L 233.147451 -457.373333 
L 233.989449 -457.373333 
L 234.831446 -457.373333 
L 235.673444 -457.446167 
L 236.515441 -457.373333 
L 237.357438 -457.373333 
L 238.199436 -457.373333 
L 239.041433 -457.373333 
L 239.88343 -457.373333 
L 240.725428 -457.373333 
L 241.567425 -457.373333 
L 242.409423 -457.373333 
L 243.25142 -457.373333 
L 244.093417 -457.373333 
L 244.935415 -457.373333 
L 245.777412 -457.373333 
L 246.619409 -457.373333 
L 247.461407 -457.373333 
L 248.303404 -457.373333 
L 249.145402 -457.373333 
L 249.987399 -457.373333 
L 250.829396 -457.373333 
L 251.671394 -457.373333 
L 252.513391 -457.373333 
L 253.355388 -457.373333 
L 254.197386 -457.373333 
L 255.039383 -457.373333 
L 255.881381 -457.373333 
L 256.723378 -457.373333 
L 257.565375 -457.373333 
L 258.407373 -457.373333 
L 259.24937 -457.373333 
L 260.091367 -457.373333 
L 260.933365 -457.373333 
L 261.775362 -457.373333 
L 262.61736 -457.373333 
L 263.459357 -457.373333 
L 264.301354 -457.373333 
L 265.143352 -457.373333 
L 265.985349 -457.373333 
L 266.827346 -457.373333 
L 267.669344 -457.373333 
L 268.511341 -457.373333 
L 269.353339 -457.373333 
L 270.195336 -457.373333 
L 271.037333 -457.373333 
L 271.879331 -457.373333 
L 271.879331 -457.373333 
L 271.879331 -457.373333 
L 271.037333 -457.373333 
L 270.195336 -457.373333 
L 269.353339 -457.373333 
L 268.511341 -457.373333 
L 267.669344 -457.373333 
L 266.827346 -457.373333 
L 265.985349 -457.373333 
L 265.143352 -457.373333 
L 264.301354 -457.373333 
L 263.459357 -457.373333 
L 262.61736 -457.373333 
L 261.775362 -457.373333 
L 260.933365 -457.373333 
L 260.091367 -457.373333 
L 259.24937 -457.373333 
L 258.407373 -457.373333 
L 257.565375 -457.373333 
L 256.723378 -457.373333 
L 255.881381 -457.373333 
L 255.039383 -457.373333 
L 254.197386 -457.373333 
L 253.355388 -457.373333 
L 252.513391 -457.373333 
L 251.671394 -457.373333 
L 250.829396 -457.373333 
L 249.987399 -457.373333 
L 249.145402 -457.373333 
L 248.303404 -457.373333 
L 247.461407 -457.373333 
L 246.619409 -457.373333 
L 245.777412 -457.373333 
L 244.935415 -457.373333 
L 244.093417 -457.373333 
L 243.25142 -457.373333 
L 242.409423 -457.373333 
L 241.567425 -457.373333 
L 240.725428 -457.373333 
L 239.88343 -457.373333 
L 239.041433 -457.373333 
L 238.199436 -457.373333 
L 237.357438 -457.373333 
L 236.515441 -457.373333 
L 235.673444 -457.373333 
L 234.831446 -457.373333 
L 233.989449 -457.373333 
L 233.147451 -457.373333 
L 232.305454 -457.373333 
L 231.463457 -457.373333 
L 230.621459 -457.373333 
L 229.779462 -457.373333 
L 228.937465 -457.373333 
L 228.095467 -457.373333 
L 227.25347 -457.373333 
L 226.411472 -457.373333 
L 225.569475 -457.373333 
L 224.727478 -457.373333 
L 223.88548 -457.373333 
L 223.043483 -457.373333 
L 222.201486 -457.373333 
L 221.359488 -457.373333 
L 220.517491 -457.373333 
L 219.675493 -457.373333 
L 218.833496 -457.373333 
L 217.991499 -457.373333 
L 217.149501 -457.373333 
L 216.307504 -457.373333 
L 215.465507 -457.373333 
L 214.623509 -457.373333 
L 213.781512 -457.373333 
L 212.939514 -457.373333 
L 212.097517 -457.373333 
L 211.25552 -457.373333 
L 210.413522 -457.373333 
L 209.571525 -457.373333 
L 208.729528 -457.373333 
L 207.88753 -457.373333 
L 207.045533 -457.373333 
L 206.203535 -457.373333 
L 205.361538 -457.373333 
L 204.519541 -457.373333 
L 203.677543 -457.373333 
L 202.835546 -457.373333 
L 201.993549 -457.373333 
L 201.151551 -457.373333 
L 200.309554 -457.373333 
L 199.467556 -457.373333 
L 198.625559 -457.373333 
L 197.783562 -457.373333 
L 196.941564 -457.373333 
L 196.099567 -457.373333 
L 195.25757 -457.373333 
L 194.415572 -457.373333 
L 193.573575 -457.373333 
L 192.731577 -457.373333 
L 191.88958 -457.373333 
L 191.047583 -457.373333 
L 190.205585 -457.373333 
L 189.363588 -457.373333 
L 188.521591 -457.373333 
L 187.679593 -457.373333 
L 186.837596 -457.373333 
L 185.995598 -457.373333 
L 185.153601 -457.373333 
L 184.311604 -457.373333 
L 183.469606 -457.373333 
L 182.627609 -457.373333 
L 181.785612 -457.373333 
L 180.943614 -457.373333 
L 180.101617 -457.373333 
L 179.259619 -457.373333 
L 178.417622 -457.373333 
L 177.575625 -457.373333 
L 176.733627 -457.373333 
L 175.89163 -457.373333 
L 175.049633 -457.373333 
L 174.207635 -457.373333 
L 173.365638 -457.373333 
L 172.52364 -457.373333 
L 171.681643 -457.373333 
L 170.839646 -457.373333 
L 169.997648 -457.373333 
L 169.155651 -457.373333 
L 168.313654 -457.373333 
L 167.471656 -457.373333 
L 166.629659 -457.373333 
L 165.787661 -457.373333 
L 164.945664 -457.373333 
L 164.103667 -457.373333 
L 163.261669 -457.373333 
L 162.419672 -457.373333 
L 161.577675 -457.373333 
L 160.735677 -457.373333 
L 159.89368 -457.373333 
L 159.051682 -457.373333 
L 158.209685 -457.373333 
L 157.367688 -457.373333 
L 156.52569 -457.373333 
L 155.683693 -457.373333 
L 154.841696 -457.373333 
L 153.999698 -457.373333 
L 153.157701 -457.373333 
L 152.315703 -457.373333 
L 151.473706 -457.373333 
L 150.631709 -457.373333 
L 149.789711 -457.373333 
L 148.947714 -457.373333 
L 148.105717 -457.373333 
L 147.263719 -457.373333 
L 146.421722 -457.373333 
L 145.579724 -457.373333 
L 144.737727 -457.373333 
L 143.89573 -457.373333 
L 143.053732 -457.373333 
L 142.211735 -457.373333 
L 141.369738 -457.373333 
L 140.52774 -457.373333 
L 139.685743 -457.373333 
L 138.843745 -457.373333 
L 138.001748 -457.373333 
L 137.159751 -457.373333 
L 136.317753 -457.373333 
L 135.475756 -457.373333 
L 134.633759 -457.373333 
L 133.791761 -457.373333 
L 132.949764 -457.373333 
L 132.107766 -457.373333 
L 131.265769 -457.373333 
L 130.423772 -457.373333 
L 129.581774 -457.373333 
L 128.739777 -457.373333 
L 127.89778 -457.373333 
L 127.055782 -457.373333 
L 126.213785 -457.373333 
L 125.371787 -457.373333 
L 124.52979 -457.373333 
L 123.687793 -457.373333 
L 122.845795 -457.373333 
L 122.003798 -457.373333 
L 121.161801 -457.373333 
L 120.319803 -457.373333 
L 119.477806 -457.373333 
L 118.635808 -457.373333 
L 117.793811 -457.373333 
L 116.951814 -457.373333 
L 116.109816 -457.373333 
L 115.267819 -457.373333 
L 114.425822 -457.373333 
L 113.583824 -457.373333 
L 112.741827 -457.373333 
L 111.899829 -457.373333 
L 111.057832 -457.373333 
L 110.215835 -457.373333 
L 109.373837 -457.373333 
L 108.53184 -457.373333 
L 107.689843 -457.373333 
L 106.847845 -457.373333 
L 106.005848 -457.373333 
L 105.16385 -457.373333 
L 104.321853 -457.373333 
L 103.479856 -457.373333 
L 102.637858 -457.373333 
L 101.795861 -457.373333 
L 100.953864 -457.373333 
L 100.111866 -457.373333 
L 99.269869 -457.373333 
L 98.427871 -457.373333 
L 97.585874 -457.373333 
L 96.743877 -457.373333 
L 95.901879 -457.373333 
L 95.059882 -457.373333 
L 94.217885 -457.373333 
L 93.375887 -457.373333 
L 92.53389 -457.373333 
L 91.691892 -457.373333 
L 90.849895 -457.373333 
L 90.007898 -457.373333 
L 89.1659 -457.373333 
L 88.323903 -457.373333 
L 87.481906 -457.373333 
L 86.639908 -457.373333 
L 85.797911 -457.373333 
L 84.955913 -457.373333 
L 84.113916 -457.373333 
L 83.271919 -457.373333 
L 82.429921 -457.373333 
L 81.587924 -457.373333 
L 80.745927 -457.373333 
L 79.903929 -457.373333 
L 79.061932 -457.373333 
L 78.219934 -457.373333 
L 77.377937 -457.373333 
L 76.53594 -457.373333 
L 75.693942 -457.373333 
L 74.851945 -457.373333 
L 74.009948 -457.373333 
L 73.16795 -457.373333 
L 72.325953 -457.373333 
L 71.483955 -457.373333 
L 70.641958 -457.373333 
L 69.799961 -457.373333 
L 68.957963 -457.373333 
L 68.115966 -457.373333 
L 67.273969 -457.373333 
L 66.431971 -457.373333 
L 65.589974 -457.373333 
L 64.747976 -457.373333 
L 63.905979 -457.373333 
L 63.063982 -457.373333 
L 62.221984 -457.373333 
L 61.379987 -457.373333 
L 60.53799 -457.373333 
L 59.695992 -457.373333 
L 58.853995 -457.373333 
L 58.011997 -457.373333 
L 57.17 -457.373333 
z
" style="stroke: #ff0000; stroke-opacity: 0.4"/>
    </defs>
    <g clip-path="url(#p21e524ca78)">
     <use xlink:href="#m5153d1119e" x="0" y="648" style="fill: #ff0000; fill-opacity: 0.4; stroke: #ff0000; stroke-opacity: 0.4"/>
    </g>
   </g>
   <g id="matplotlib.axis_1">
    <g id="xtick_1">
     <g id="line2d_1">
      <defs>
       <path id="m44250ccae0" d="M 0 0 
L 0 3.5 
" style="stroke: #000000; stroke-width: 0.8"/>
      </defs>
      <g>
       <use xlink:href="#m44250ccae0" x="57.17" y="190.626667" style="stroke: #000000; stroke-width: 0.8"/>
      </g>
     </g>
     <g id="text_1">
      <!-- 0 -->
      <g transform="translate(53.98875 205.225104) scale(0.1 -0.1)">
       <defs>
        <path id="DejaVuSans-30" d="M 2034 4250 
Q 1547 4250 1301 3770 
Q 1056 3291 1056 2328 
Q 1056 1369 1301 889 
Q 1547 409 2034 409 
Q 2525 409 2770 889 
Q 3016 1369 3016 2328 
Q 3016 3291 2770 3770 
Q 2525 4250 2034 4250 
z
M 2034 4750 
Q 2819 4750 3233 4129 
Q 3647 3509 3647 2328 
Q 3647 1150 3233 529 
Q 2819 -91 2034 -91 
Q 1250 -91 836 529 
Q 422 1150 422 2328 
Q 422 3509 836 4129 
Q 1250 4750 2034 4750 
z
" transform="scale(0.015625)"/>
       </defs>
       <use xlink:href="#DejaVuSans-30"/>
      </g>
     </g>
    </g>
    <g id="xtick_2">
     <g id="line2d_2">
      <g>
       <use xlink:href="#m44250ccae0" x="99.269869" y="190.626667" style="stroke: #000000; stroke-width: 0.8"/>
      </g>
     </g>
     <g id="text_2">
      <!-- 50 -->
      <g transform="translate(92.907369 205.225104) scale(0.1 -0.1)">
       <defs>
        <path id="DejaVuSans-35" d="M 691 4666 
L 3169 4666 
L 3169 4134 
L 1269 4134 
L 1269 2991 
Q 1406 3038 1543 3061 
Q 1681 3084 1819 3084 
Q 2600 3084 3056 2656 
Q 3513 2228 3513 1497 
Q 3513 744 3044 326 
Q 2575 -91 1722 -91 
Q 1428 -91 1123 -41 
Q 819 9 494 109 
L 494 744 
Q 775 591 1075 516 
Q 1375 441 1709 441 
Q 2250 441 2565 725 
Q 2881 1009 2881 1497 
Q 2881 1984 2565 2268 
Q 2250 2553 1709 2553 
Q 1456 2553 1204 2497 
Q 953 2441 691 2322 
L 691 4666 
z
" transform="scale(0.015625)"/>
       </defs>
       <use xlink:href="#DejaVuSans-35"/>
       <use xlink:href="#DejaVuSans-30" x="63.623047"/>
      </g>
     </g>
    </g>
    <g id="xtick_3">
     <g id="line2d_3">
      <g>
       <use xlink:href="#m44250ccae0" x="141.369738" y="190.626667" style="stroke: #000000; stroke-width: 0.8"/>
      </g>
     </g>
     <g id="text_3">
      <!-- 100 -->
      <g transform="translate(131.825988 205.225104) scale(0.1 -0.1)">
       <defs>
        <path id="DejaVuSans-31" d="M 794 531 
L 1825 531 
L 1825 4091 
L 703 3866 
L 703 4441 
L 1819 4666 
L 2450 4666 
L 2450 531 
L 3481 531 
L 3481 0 
L 794 0 
L 794 531 
z
" transform="scale(0.015625)"/>
       </defs>
       <use xlink:href="#DejaVuSans-31"/>
       <use xlink:href="#DejaVuSans-30" x="63.623047"/>
       <use xlink:href="#DejaVuSans-30" x="127.246094"/>
      </g>
     </g>
    </g>
    <g id="xtick_4">
     <g id="line2d_4">
      <g>
       <use xlink:href="#m44250ccae0" x="183.469606" y="190.626667" style="stroke: #000000; stroke-width: 0.8"/>
      </g>
     </g>
     <g id="text_4">
      <!-- 150 -->
      <g transform="translate(173.925856 205.225104) scale(0.1 -0.1)">
       <use xlink:href="#DejaVuSans-31"/>
       <use xlink:href="#DejaVuSans-35" x="63.623047"/>
       <use xlink:href="#DejaVuSans-30" x="127.246094"/>
      </g>
     </g>
    </g>
    <g id="xtick_5">
     <g id="line2d_5">
      <g>
       <use xlink:href="#m44250ccae0" x="225.569475" y="190.626667" style="stroke: #000000; stroke-width: 0.8"/>
      </g>
     </g>
     <g id="text_5">
      <!-- 200 -->
      <g transform="translate(216.025725 205.225104) scale(0.1 -0.1)">
       <defs>
        <path id="DejaVuSans-32" d="M 1228 531 
L 3431 531 
L 3431 0 
L 469 0 
L 469 531 
Q 828 903 1448 1529 
Q 2069 2156 2228 2338 
Q 2531 2678 2651 2914 
Q 2772 3150 2772 3378 
Q 2772 3750 2511 3984 
Q 2250 4219 1831 4219 
Q 1534 4219 1204 4116 
Q 875 4013 500 3803 
L 500 4441 
Q 881 4594 1212 4672 
Q 1544 4750 1819 4750 
Q 2544 4750 2975 4387 
Q 3406 4025 3406 3419 
Q 3406 3131 3298 2873 
Q 3191 2616 2906 2266 
Q 2828 2175 2409 1742 
Q 1991 1309 1228 531 
z
" transform="scale(0.015625)"/>
       </defs>
       <use xlink:href="#DejaVuSans-32"/>
       <use xlink:href="#DejaVuSans-30" x="63.623047"/>
       <use xlink:href="#DejaVuSans-30" x="127.246094"/>
      </g>
     </g>
    </g>
    <g id="xtick_6">
     <g id="line2d_6">
      <g>
       <use xlink:href="#m44250ccae0" x="267.669344" y="190.626667" style="stroke: #000000; stroke-width: 0.8"/>
      </g>
     </g>
     <g id="text_6">
      <!-- 250 -->
      <g transform="translate(258.125594 205.225104) scale(0.1 -0.1)">
       <use xlink:href="#DejaVuSans-32"/>
       <use xlink:href="#DejaVuSans-35" x="63.623047"/>
       <use xlink:href="#DejaVuSans-30" x="127.246094"/>
      </g>
     </g>
    </g>
   </g>
   <g id="matplotlib.axis_2">
    <g id="ytick_1">
     <g id="line2d_7">
      <defs>
       <path id="m39df4f8d48" d="M 0 0 
L -3.5 0 
" style="stroke: #000000; stroke-width: 0.8"/>
      </defs>
      <g>
       <use xlink:href="#m39df4f8d48" x="57.17" y="190.626667" style="stroke: #000000; stroke-width: 0.8"/>
      </g>
     </g>
     <g id="text_7">
      <!-- 0 -->
      <g transform="translate(43.8075 194.425885) scale(0.1 -0.1)">
       <use xlink:href="#DejaVuSans-30"/>
      </g>
     </g>
    </g>
    <g id="ytick_2">
     <g id="line2d_8">
      <g>
       <use xlink:href="#m39df4f8d48" x="57.17" y="154.209764" style="stroke: #000000; stroke-width: 0.8"/>
      </g>
     </g>
     <g id="text_8">
      <!-- 500 -->
      <g transform="translate(31.0825 158.008982) scale(0.1 -0.1)">
       <use xlink:href="#DejaVuSans-35"/>
       <use xlink:href="#DejaVuSans-30" x="63.623047"/>
       <use xlink:href="#DejaVuSans-30" x="127.246094"/>
      </g>
     </g>
    </g>
    <g id="ytick_3">
     <g id="line2d_9">
      <g>
       <use xlink:href="#m39df4f8d48" x="57.17" y="117.792861" style="stroke: #000000; stroke-width: 0.8"/>
      </g>
     </g>
     <g id="text_9">
      <!-- 1000 -->
      <g transform="translate(24.72 121.59208) scale(0.1 -0.1)">
       <use xlink:href="#DejaVuSans-31"/>
       <use xlink:href="#DejaVuSans-30" x="63.623047"/>
       <use xlink:href="#DejaVuSans-30" x="127.246094"/>
       <use xlink:href="#DejaVuSans-30" x="190.869141"/>
      </g>
     </g>
    </g>
    <g id="ytick_4">
     <g id="line2d_10">
      <g>
       <use xlink:href="#m39df4f8d48" x="57.17" y="81.375958" style="stroke: #000000; stroke-width: 0.8"/>
      </g>
     </g>
     <g id="text_10">
      <!-- 1500 -->
      <g transform="translate(24.72 85.175177) scale(0.1 -0.1)">
       <use xlink:href="#DejaVuSans-31"/>
       <use xlink:href="#DejaVuSans-35" x="63.623047"/>
       <use xlink:href="#DejaVuSans-30" x="127.246094"/>
       <use xlink:href="#DejaVuSans-30" x="190.869141"/>
      </g>
     </g>
    </g>
    <g id="ytick_5">
     <g id="line2d_11">
      <g>
       <use xlink:href="#m39df4f8d48" x="57.17" y="44.959055" style="stroke: #000000; stroke-width: 0.8"/>
      </g>
     </g>
     <g id="text_11">
      <!-- 2000 -->
      <g transform="translate(24.72 48.758274) scale(0.1 -0.1)">
       <use xlink:href="#DejaVuSans-32"/>
       <use xlink:href="#DejaVuSans-30" x="63.623047"/>
       <use xlink:href="#DejaVuSans-30" x="127.246094"/>
       <use xlink:href="#DejaVuSans-30" x="190.869141"/>
      </g>
     </g>
    </g>
    <g id="text_12">
     <!-- Pixel Frequency -->
     <g transform="translate(18.640313 139.69224) rotate(-90) scale(0.1 -0.1)">
      <defs>
       <path id="DejaVuSans-50" d="M 1259 4147 
L 1259 2394 
L 2053 2394 
Q 2494 2394 2734 2622 
Q 2975 2850 2975 3272 
Q 2975 3691 2734 3919 
Q 2494 4147 2053 4147 
L 1259 4147 
z
M 628 4666 
L 2053 4666 
Q 2838 4666 3239 4311 
Q 3641 3956 3641 3272 
Q 3641 2581 3239 2228 
Q 2838 1875 2053 1875 
L 1259 1875 
L 1259 0 
L 628 0 
L 628 4666 
z
" transform="scale(0.015625)"/>
       <path id="DejaVuSans-69" d="M 603 3500 
L 1178 3500 
L 1178 0 
L 603 0 
L 603 3500 
z
M 603 4863 
L 1178 4863 
L 1178 4134 
L 603 4134 
L 603 4863 
z
" transform="scale(0.015625)"/>
       <path id="DejaVuSans-78" d="M 3513 3500 
L 2247 1797 
L 3578 0 
L 2900 0 
L 1881 1375 
L 863 0 
L 184 0 
L 1544 1831 
L 300 3500 
L 978 3500 
L 1906 2253 
L 2834 3500 
L 3513 3500 
z
" transform="scale(0.015625)"/>
       <path id="DejaVuSans-65" d="M 3597 1894 
L 3597 1613 
L 953 1613 
Q 991 1019 1311 708 
Q 1631 397 2203 397 
Q 2534 397 2845 478 
Q 3156 559 3463 722 
L 3463 178 
Q 3153 47 2828 -22 
Q 2503 -91 2169 -91 
Q 1331 -91 842 396 
Q 353 884 353 1716 
Q 353 2575 817 3079 
Q 1281 3584 2069 3584 
Q 2775 3584 3186 3129 
Q 3597 2675 3597 1894 
z
M 3022 2063 
Q 3016 2534 2758 2815 
Q 2500 3097 2075 3097 
Q 1594 3097 1305 2825 
Q 1016 2553 972 2059 
L 3022 2063 
z
" transform="scale(0.015625)"/>
       <path id="DejaVuSans-6c" d="M 603 4863 
L 1178 4863 
L 1178 0 
L 603 0 
L 603 4863 
z
" transform="scale(0.015625)"/>
       <path id="DejaVuSans-20" transform="scale(0.015625)"/>
       <path id="DejaVuSans-46" d="M 628 4666 
L 3309 4666 
L 3309 4134 
L 1259 4134 
L 1259 2759 
L 3109 2759 
L 3109 2228 
L 1259 2228 
L 1259 0 
L 628 0 
L 628 4666 
z
" transform="scale(0.015625)"/>
       <path id="DejaVuSans-72" d="M 2631 2963 
Q 2534 3019 2420 3045 
Q 2306 3072 2169 3072 
Q 1681 3072 1420 2755 
Q 1159 2438 1159 1844 
L 1159 0 
L 581 0 
L 581 3500 
L 1159 3500 
L 1159 2956 
Q 1341 3275 1631 3429 
Q 1922 3584 2338 3584 
Q 2397 3584 2469 3576 
Q 2541 3569 2628 3553 
L 2631 2963 
z
" transform="scale(0.015625)"/>
       <path id="DejaVuSans-71" d="M 947 1747 
Q 947 1113 1208 752 
Q 1469 391 1925 391 
Q 2381 391 2643 752 
Q 2906 1113 2906 1747 
Q 2906 2381 2643 2742 
Q 2381 3103 1925 3103 
Q 1469 3103 1208 2742 
Q 947 2381 947 1747 
z
M 2906 525 
Q 2725 213 2448 61 
Q 2172 -91 1784 -91 
Q 1150 -91 751 415 
Q 353 922 353 1747 
Q 353 2572 751 3078 
Q 1150 3584 1784 3584 
Q 2172 3584 2448 3432 
Q 2725 3281 2906 2969 
L 2906 3500 
L 3481 3500 
L 3481 -1331 
L 2906 -1331 
L 2906 525 
z
" transform="scale(0.015625)"/>
       <path id="DejaVuSans-75" d="M 544 1381 
L 544 3500 
L 1119 3500 
L 1119 1403 
Q 1119 906 1312 657 
Q 1506 409 1894 409 
Q 2359 409 2629 706 
Q 2900 1003 2900 1516 
L 2900 3500 
L 3475 3500 
L 3475 0 
L 2900 0 
L 2900 538 
Q 2691 219 2414 64 
Q 2138 -91 1772 -91 
Q 1169 -91 856 284 
Q 544 659 544 1381 
z
M 1991 3584 
L 1991 3584 
z
" transform="scale(0.015625)"/>
       <path id="DejaVuSans-6e" d="M 3513 2113 
L 3513 0 
L 2938 0 
L 2938 2094 
Q 2938 2591 2744 2837 
Q 2550 3084 2163 3084 
Q 1697 3084 1428 2787 
Q 1159 2491 1159 1978 
L 1159 0 
L 581 0 
L 581 3500 
L 1159 3500 
L 1159 2956 
Q 1366 3272 1645 3428 
Q 1925 3584 2291 3584 
Q 2894 3584 3203 3211 
Q 3513 2838 3513 2113 
z
" transform="scale(0.015625)"/>
       <path id="DejaVuSans-63" d="M 3122 3366 
L 3122 2828 
Q 2878 2963 2633 3030 
Q 2388 3097 2138 3097 
Q 1578 3097 1268 2742 
Q 959 2388 959 1747 
Q 959 1106 1268 751 
Q 1578 397 2138 397 
Q 2388 397 2633 464 
Q 2878 531 3122 666 
L 3122 134 
Q 2881 22 2623 -34 
Q 2366 -91 2075 -91 
Q 1284 -91 818 406 
Q 353 903 353 1747 
Q 353 2603 823 3093 
Q 1294 3584 2113 3584 
Q 2378 3584 2631 3529 
Q 2884 3475 3122 3366 
z
" transform="scale(0.015625)"/>
       <path id="DejaVuSans-79" d="M 2059 -325 
Q 1816 -950 1584 -1140 
Q 1353 -1331 966 -1331 
L 506 -1331 
L 506 -850 
L 844 -850 
Q 1081 -850 1212 -737 
Q 1344 -625 1503 -206 
L 1606 56 
L 191 3500 
L 800 3500 
L 1894 763 
L 2988 3500 
L 3597 3500 
L 2059 -325 
z
" transform="scale(0.015625)"/>
      </defs>
      <use xlink:href="#DejaVuSans-50"/>
      <use xlink:href="#DejaVuSans-69" x="58.052734"/>
      <use xlink:href="#DejaVuSans-78" x="85.835938"/>
      <use xlink:href="#DejaVuSans-65" x="141.890625"/>
      <use xlink:href="#DejaVuSans-6c" x="203.414062"/>
      <use xlink:href="#DejaVuSans-20" x="231.197266"/>
      <use xlink:href="#DejaVuSans-46" x="262.984375"/>
      <use xlink:href="#DejaVuSans-72" x="313.253906"/>
      <use xlink:href="#DejaVuSans-65" x="352.117188"/>
      <use xlink:href="#DejaVuSans-71" x="413.640625"/>
      <use xlink:href="#DejaVuSans-75" x="477.117188"/>
      <use xlink:href="#DejaVuSans-65" x="540.496094"/>
      <use xlink:href="#DejaVuSans-6e" x="602.019531"/>
      <use xlink:href="#DejaVuSans-63" x="665.398438"/>
      <use xlink:href="#DejaVuSans-79" x="720.378906"/>
     </g>
    </g>
   </g>
   <g id="line2d_12">
    <path d="M 57.17 190.626667 
L 88.323903 190.626667 
L 90.007898 189.53416 
L 90.849895 189.315658 
L 91.691892 188.077483 
L 92.53389 185.892469 
L 93.375887 185.892469 
L 94.217885 186.620807 
L 95.059882 186.766475 
L 95.901879 181.88661 
L 96.743877 175.914238 
L 97.585874 165.280502 
L 98.427871 149.839735 
L 100.111866 111.019317 
L 100.953864 83.196803 
L 101.795861 67.391867 
L 102.637858 63.458842 
L 103.479856 69.212712 
L 104.321853 73.291405 
L 106.005848 76.568927 
L 106.847845 81.885795 
L 107.689843 81.23029 
L 108.53184 74.238245 
L 109.373837 69.94105 
L 110.215835 56.175461 
L 111.057832 64.405681 
L 111.899829 73.728408 
L 112.741827 79.846448 
L 113.583824 79.846448 
L 114.425822 83.852307 
L 115.267819 86.328657 
L 116.109816 93.612037 
L 116.951814 97.982066 
L 117.793811 105.119779 
L 118.635808 114.369672 
L 119.477806 115.753514 
L 120.319803 124.712072 
L 121.161801 127.625425 
L 122.003798 133.160794 
L 122.845795 132.50529 
L 123.687793 138.623329 
L 124.52979 143.066191 
L 125.371787 145.688208 
L 126.213785 149.111397 
L 127.055782 150.713741 
L 127.89778 155.302271 
L 128.739777 156.904615 
L 129.581774 160.473471 
L 130.423772 161.638812 
L 131.265769 163.532491 
L 132.107766 166.445843 
L 132.949764 168.849359 
L 134.633759 172.855218 
L 136.317753 177.29808 
L 137.159751 177.807917 
L 138.001748 178.463421 
L 138.843745 179.264593 
L 139.685743 180.3571 
L 140.52774 182.542114 
L 141.369738 182.46928 
L 142.211735 183.634621 
L 143.053732 185.164131 
L 143.89573 185.091297 
L 144.737727 185.965303 
L 145.579724 185.673968 
L 146.421722 186.620807 
L 147.263719 187.05781 
L 148.105717 187.713314 
L 148.947714 187.713314 
L 149.789711 187.931816 
L 150.631709 188.805822 
L 151.473706 188.223151 
L 152.315703 188.514486 
L 153.157701 189.024323 
L 153.999698 188.732988 
L 154.841696 189.242824 
L 155.683693 188.878655 
L 157.367688 189.606993 
L 159.051682 189.242824 
L 159.89368 189.825495 
L 160.735677 189.315658 
L 161.577675 190.480999 
L 163.261669 189.388492 
L 164.945664 190.043996 
L 165.787661 190.043996 
L 166.629659 189.898329 
L 167.471656 190.262498 
L 168.313654 189.971162 
L 169.155651 190.189664 
L 169.997648 189.752661 
L 170.839646 190.262498 
L 171.681643 189.898329 
L 172.52364 190.335331 
L 173.365638 190.262498 
L 174.207635 189.898329 
L 175.049633 190.11683 
L 175.89163 190.11683 
L 176.733627 190.335331 
L 177.575625 190.408165 
L 178.417622 190.189664 
L 179.259619 190.262498 
L 180.101617 190.11683 
L 180.943614 190.480999 
L 181.785612 190.043996 
L 183.469606 190.553833 
L 184.311604 190.189664 
L 185.153601 190.408165 
L 185.995598 190.408165 
L 186.837596 190.189664 
L 187.679593 190.553833 
L 188.521591 190.480999 
L 189.363588 190.262498 
L 190.205585 190.626667 
L 191.047583 190.553833 
L 191.88958 190.335331 
L 192.731577 190.480999 
L 194.415572 190.553833 
L 195.25757 190.335331 
L 196.941564 190.408165 
L 198.625559 190.408165 
L 199.467556 190.626667 
L 200.309554 190.553833 
L 201.993549 190.626667 
L 202.835546 190.626667 
L 203.677543 190.408165 
L 204.519541 190.626667 
L 205.361538 190.408165 
L 206.203535 190.626667 
L 208.729528 190.626667 
L 209.571525 190.480999 
L 211.25552 190.626667 
L 212.097517 190.480999 
L 212.939514 190.626667 
L 213.781512 190.626667 
L 214.623509 190.480999 
L 215.465507 190.553833 
L 216.307504 190.480999 
L 217.149501 190.626667 
L 218.833496 190.480999 
L 221.359488 190.626667 
L 222.201486 190.553833 
L 223.88548 190.626667 
L 271.879331 190.626667 
L 271.879331 190.626667 
" clip-path="url(#p21e524ca78)" style="fill: none; stroke: #ff0000; stroke-width: 1.5; stroke-linecap: square"/>
   </g>
   <g id="patch_3">
    <path d="M 57.17 190.626667 
L 57.17 10.8 
" style="fill: none; stroke: #000000; stroke-width: 0.8; stroke-linejoin: miter; stroke-linecap: square"/>
   </g>
   <g id="patch_4">
    <path d="M 272.721328 190.626667 
L 272.721328 10.8 
" style="fill: none; stroke: #000000; stroke-width: 0.8; stroke-linejoin: miter; stroke-linecap: square"/>
   </g>
   <g id="patch_5">
    <path d="M 57.17 190.626667 
L 272.721328 190.626667 
" style="fill: none; stroke: #000000; stroke-width: 0.8; stroke-linejoin: miter; stroke-linecap: square"/>
   </g>
   <g id="patch_6">
    <path d="M 57.17 10.8 
L 272.721328 10.8 
" style="fill: none; stroke: #000000; stroke-width: 0.8; stroke-linejoin: miter; stroke-linecap: square"/>
   </g>
   <g id="text_13">
    <!-- Red Channel  -->
    <g transform="translate(193.028203 24.8) scale(0.12 -0.12)">
     <defs>
      <path id="DejaVuSans-52" d="M 2841 2188 
Q 3044 2119 3236 1894 
Q 3428 1669 3622 1275 
L 4263 0 
L 3584 0 
L 2988 1197 
Q 2756 1666 2539 1819 
Q 2322 1972 1947 1972 
L 1259 1972 
L 1259 0 
L 628 0 
L 628 4666 
L 2053 4666 
Q 2853 4666 3247 4331 
Q 3641 3997 3641 3322 
Q 3641 2881 3436 2590 
Q 3231 2300 2841 2188 
z
M 1259 4147 
L 1259 2491 
L 2053 2491 
Q 2509 2491 2742 2702 
Q 2975 2913 2975 3322 
Q 2975 3731 2742 3939 
Q 2509 4147 2053 4147 
L 1259 4147 
z
" transform="scale(0.015625)"/>
      <path id="DejaVuSans-64" d="M 2906 2969 
L 2906 4863 
L 3481 4863 
L 3481 0 
L 2906 0 
L 2906 525 
Q 2725 213 2448 61 
Q 2172 -91 1784 -91 
Q 1150 -91 751 415 
Q 353 922 353 1747 
Q 353 2572 751 3078 
Q 1150 3584 1784 3584 
Q 2172 3584 2448 3432 
Q 2725 3281 2906 2969 
z
M 947 1747 
Q 947 1113 1208 752 
Q 1469 391 1925 391 
Q 2381 391 2643 752 
Q 2906 1113 2906 1747 
Q 2906 2381 2643 2742 
Q 2381 3103 1925 3103 
Q 1469 3103 1208 2742 
Q 947 2381 947 1747 
z
" transform="scale(0.015625)"/>
      <path id="DejaVuSans-43" d="M 4122 4306 
L 4122 3641 
Q 3803 3938 3442 4084 
Q 3081 4231 2675 4231 
Q 1875 4231 1450 3742 
Q 1025 3253 1025 2328 
Q 1025 1406 1450 917 
Q 1875 428 2675 428 
Q 3081 428 3442 575 
Q 3803 722 4122 1019 
L 4122 359 
Q 3791 134 3420 21 
Q 3050 -91 2638 -91 
Q 1578 -91 968 557 
Q 359 1206 359 2328 
Q 359 3453 968 4101 
Q 1578 4750 2638 4750 
Q 3056 4750 3426 4639 
Q 3797 4528 4122 4306 
z
" transform="scale(0.015625)"/>
      <path id="DejaVuSans-68" d="M 3513 2113 
L 3513 0 
L 2938 0 
L 2938 2094 
Q 2938 2591 2744 2837 
Q 2550 3084 2163 3084 
Q 1697 3084 1428 2787 
Q 1159 2491 1159 1978 
L 1159 0 
L 581 0 
L 581 4863 
L 1159 4863 
L 1159 2956 
Q 1366 3272 1645 3428 
Q 1925 3584 2291 3584 
Q 2894 3584 3203 3211 
Q 3513 2838 3513 2113 
z
" transform="scale(0.015625)"/>
      <path id="DejaVuSans-61" d="M 2194 1759 
Q 1497 1759 1228 1600 
Q 959 1441 959 1056 
Q 959 750 1161 570 
Q 1363 391 1709 391 
Q 2188 391 2477 730 
Q 2766 1069 2766 1631 
L 2766 1759 
L 2194 1759 
z
M 3341 1997 
L 3341 0 
L 2766 0 
L 2766 531 
Q 2569 213 2275 61 
Q 1981 -91 1556 -91 
Q 1019 -91 701 211 
Q 384 513 384 1019 
Q 384 1609 779 1909 
Q 1175 2209 1959 2209 
L 2766 2209 
L 2766 2266 
Q 2766 2663 2505 2880 
Q 2244 3097 1772 3097 
Q 1472 3097 1187 3025 
Q 903 2953 641 2809 
L 641 3341 
Q 956 3463 1253 3523 
Q 1550 3584 1831 3584 
Q 2591 3584 2966 3190 
Q 3341 2797 3341 1997 
z
" transform="scale(0.015625)"/>
     </defs>
     <use xlink:href="#DejaVuSans-52"/>
     <use xlink:href="#DejaVuSans-65" x="64.982422"/>
     <use xlink:href="#DejaVuSans-64" x="126.505859"/>
     <use xlink:href="#DejaVuSans-20" x="189.982422"/>
     <use xlink:href="#DejaVuSans-43" x="221.769531"/>
     <use xlink:href="#DejaVuSans-68" x="291.59375"/>
     <use xlink:href="#DejaVuSans-61" x="354.972656"/>
     <use xlink:href="#DejaVuSans-6e" x="416.251953"/>
     <use xlink:href="#DejaVuSans-6e" x="479.630859"/>
     <use xlink:href="#DejaVuSans-65" x="543.009766"/>
     <use xlink:href="#DejaVuSans-6c" x="604.533203"/>
     <use xlink:href="#DejaVuSans-20" x="632.316406"/>
    </g>
   </g>
  </g>
  <g id="axes_2">
   <g id="patch_7">
    <path d="M 57.17 398.333333 
L 272.721328 398.333333 
L 272.721328 218.506667 
L 57.17 218.506667 
z
" style="fill: #ffffff"/>
   </g>
   <g id="PolyCollection_2">
    <defs>
     <path id="m78073acc66" d="M 57.17 -249.666667 
L 57.17 -249.666667 
L 58.011997 -249.666667 
L 58.853995 -249.666667 
L 59.695992 -249.666667 
L 60.53799 -249.666667 
L 61.379987 -249.666667 
L 62.221984 -249.666667 
L 63.063982 -249.666667 
L 63.905979 -249.666667 
L 64.747976 -249.666667 
L 65.589974 -249.666667 
L 66.431971 -249.666667 
L 67.273969 -249.666667 
L 68.115966 -249.666667 
L 68.957963 -249.666667 
L 69.799961 -249.666667 
L 70.641958 -249.666667 
L 71.483955 -249.666667 
L 72.325953 -249.666667 
L 73.16795 -249.666667 
L 74.009948 -249.666667 
L 74.851945 -249.666667 
L 75.693942 -249.666667 
L 76.53594 -249.666667 
L 77.377937 -249.666667 
L 78.219934 -249.666667 
L 79.061932 -249.666667 
L 79.903929 -249.666667 
L 80.745927 -249.666667 
L 81.587924 -249.666667 
L 82.429921 -249.666667 
L 83.271919 -249.666667 
L 84.113916 -249.885168 
L 84.955913 -250.467839 
L 85.797911 -250.395005 
L 86.639908 -251.26901 
L 87.481906 -251.414678 
L 88.323903 -252.434351 
L 89.1659 -252.288684 
L 90.007898 -253.526858 
L 90.849895 -254.036695 
L 91.691892 -254.32803 
L 92.53389 -258.625225 
L 93.375887 -266.491276 
L 94.217885 -284.845395 
L 95.059882 -317.256439 
L 95.901879 -348.939144 
L 96.743877 -361.612226 
L 97.585874 -358.844542 
L 98.427871 -349.084812 
L 99.269869 -336.120394 
L 100.111866 -333.716879 
L 100.953864 -337.212901 
L 101.795861 -334.445217 
L 102.637858 -325.340991 
L 103.479856 -324.321318 
L 104.321853 -337.57707 
L 105.16385 -340.417589 
L 106.005848 -347.846637 
L 106.847845 -352.799336 
L 107.689843 -351.34266 
L 108.53184 -351.488327 
L 109.373837 -355.785522 
L 110.215835 -350.177319 
L 111.057832 -343.840778 
L 111.899829 -344.350614 
L 112.741827 -339.616417 
L 113.583824 -330.29369 
L 114.425822 -327.380338 
L 115.267819 -324.029982 
L 116.109816 -320.606794 
L 116.951814 -319.951289 
L 117.793811 -312.667909 
L 118.635808 -310.847064 
L 119.477806 -308.807717 
L 120.319803 -306.258534 
L 121.161801 -304.364855 
L 122.003798 -295.624798 
L 122.845795 -295.406297 
L 123.687793 -295.042128 
L 124.52979 -293.148449 
L 125.371787 -291.327604 
L 126.213785 -285.865068 
L 127.055782 -286.08357 
L 127.89778 -283.461553 
L 128.739777 -282.514713 
L 129.581774 -282.07771 
L 130.423772 -278.800189 
L 131.265769 -276.396673 
L 132.107766 -275.085665 
L 132.949764 -274.430161 
L 133.791761 -274.502994 
L 134.633759 -271.953811 
L 135.475756 -269.914465 
L 136.317753 -268.020786 
L 137.159751 -269.841631 
L 138.001748 -268.749124 
L 138.843745 -267.001112 
L 139.685743 -266.491276 
L 140.52774 -264.014926 
L 141.369738 -262.55825 
L 142.211735 -261.97558 
L 143.053732 -260.591738 
L 143.89573 -258.625225 
L 144.737727 -258.625225 
L 145.579724 -258.989394 
L 146.421722 -257.459884 
L 147.263719 -257.605552 
L 148.105717 -257.022881 
L 148.947714 -255.639039 
L 149.789711 -255.056368 
L 150.631709 -255.420537 
L 151.473706 -254.036695 
L 152.315703 -253.308357 
L 153.157701 -254.619365 
L 153.999698 -254.837867 
L 154.841696 -252.725687 
L 155.683693 -253.308357 
L 156.52569 -252.143016 
L 157.367688 -251.26901 
L 158.209685 -252.507185 
L 159.051682 -251.706013 
L 159.89368 -251.560346 
L 160.735677 -251.123343 
L 161.577675 -251.123343 
L 162.419672 -251.924515 
L 163.261669 -251.123343 
L 164.103667 -251.414678 
L 164.945664 -251.123343 
L 165.787661 -250.832008 
L 166.629659 -250.613506 
L 167.471656 -250.68634 
L 168.313654 -250.613506 
L 169.155651 -251.196177 
L 169.997648 -250.249337 
L 170.839646 -250.68634 
L 171.681643 -250.395005 
L 172.52364 -250.176503 
L 173.365638 -250.540672 
L 174.207635 -250.10367 
L 175.049633 -250.395005 
L 175.89163 -250.467839 
L 176.733627 -250.467839 
L 177.575625 -250.176503 
L 178.417622 -250.540672 
L 179.259619 -250.395005 
L 180.101617 -249.958002 
L 180.943614 -250.395005 
L 181.785612 -249.958002 
L 182.627609 -249.812334 
L 183.469606 -249.958002 
L 184.311604 -250.030836 
L 185.153601 -250.10367 
L 185.995598 -250.613506 
L 186.837596 -250.322171 
L 187.679593 -249.958002 
L 188.521591 -249.7395 
L 189.363588 -249.958002 
L 190.205585 -249.958002 
L 191.047583 -249.958002 
L 191.88958 -250.176503 
L 192.731577 -250.10367 
L 193.573575 -249.7395 
L 194.415572 -249.958002 
L 195.25757 -250.030836 
L 196.099567 -249.958002 
L 196.941564 -249.812334 
L 197.783562 -250.030836 
L 198.625559 -249.885168 
L 199.467556 -250.176503 
L 200.309554 -249.7395 
L 201.151551 -250.176503 
L 201.993549 -250.10367 
L 202.835546 -249.812334 
L 203.677543 -250.030836 
L 204.519541 -249.885168 
L 205.361538 -249.812334 
L 206.203535 -249.7395 
L 207.045533 -249.812334 
L 207.88753 -249.958002 
L 208.729528 -249.885168 
L 209.571525 -249.666667 
L 210.413522 -249.885168 
L 211.25552 -249.7395 
L 212.097517 -249.812334 
L 212.939514 -249.7395 
L 213.781512 -249.958002 
L 214.623509 -249.7395 
L 215.465507 -249.885168 
L 216.307504 -249.958002 
L 217.149501 -249.812334 
L 217.991499 -249.666667 
L 218.833496 -249.7395 
L 219.675493 -249.7395 
L 220.517491 -250.030836 
L 221.359488 -249.7395 
L 222.201486 -249.7395 
L 223.043483 -249.7395 
L 223.88548 -249.666667 
L 224.727478 -249.7395 
L 225.569475 -249.885168 
L 226.411472 -249.666667 
L 227.25347 -249.7395 
L 228.095467 -249.666667 
L 228.937465 -249.666667 
L 229.779462 -249.812334 
L 230.621459 -249.7395 
L 231.463457 -249.7395 
L 232.305454 -249.666667 
L 233.147451 -249.666667 
L 233.989449 -249.7395 
L 234.831446 -249.7395 
L 235.673444 -249.666667 
L 236.515441 -249.666667 
L 237.357438 -249.885168 
L 238.199436 -249.666667 
L 239.041433 -249.7395 
L 239.88343 -249.666667 
L 240.725428 -249.666667 
L 241.567425 -249.666667 
L 242.409423 -249.812334 
L 243.25142 -249.666667 
L 244.093417 -249.666667 
L 244.935415 -249.7395 
L 245.777412 -249.666667 
L 246.619409 -249.7395 
L 247.461407 -249.812334 
L 248.303404 -249.7395 
L 249.145402 -249.7395 
L 249.987399 -249.666667 
L 250.829396 -249.7395 
L 251.671394 -249.666667 
L 252.513391 -249.666667 
L 253.355388 -249.7395 
L 254.197386 -249.666667 
L 255.039383 -249.666667 
L 255.881381 -249.666667 
L 256.723378 -249.666667 
L 257.565375 -249.666667 
L 258.407373 -249.666667 
L 259.24937 -249.666667 
L 260.091367 -249.666667 
L 260.933365 -249.666667 
L 261.775362 -249.666667 
L 262.61736 -249.666667 
L 263.459357 -249.666667 
L 264.301354 -249.666667 
L 265.143352 -249.666667 
L 265.985349 -249.7395 
L 266.827346 -249.666667 
L 267.669344 -249.666667 
L 268.511341 -249.666667 
L 269.353339 -249.666667 
L 270.195336 -249.7395 
L 271.037333 -249.666667 
L 271.879331 -249.666667 
L 271.879331 -249.666667 
L 271.879331 -249.666667 
L 271.037333 -249.666667 
L 270.195336 -249.666667 
L 269.353339 -249.666667 
L 268.511341 -249.666667 
L 267.669344 -249.666667 
L 266.827346 -249.666667 
L 265.985349 -249.666667 
L 265.143352 -249.666667 
L 264.301354 -249.666667 
L 263.459357 -249.666667 
L 262.61736 -249.666667 
L 261.775362 -249.666667 
L 260.933365 -249.666667 
L 260.091367 -249.666667 
L 259.24937 -249.666667 
L 258.407373 -249.666667 
L 257.565375 -249.666667 
L 256.723378 -249.666667 
L 255.881381 -249.666667 
L 255.039383 -249.666667 
L 254.197386 -249.666667 
L 253.355388 -249.666667 
L 252.513391 -249.666667 
L 251.671394 -249.666667 
L 250.829396 -249.666667 
L 249.987399 -249.666667 
L 249.145402 -249.666667 
L 248.303404 -249.666667 
L 247.461407 -249.666667 
L 246.619409 -249.666667 
L 245.777412 -249.666667 
L 244.935415 -249.666667 
L 244.093417 -249.666667 
L 243.25142 -249.666667 
L 242.409423 -249.666667 
L 241.567425 -249.666667 
L 240.725428 -249.666667 
L 239.88343 -249.666667 
L 239.041433 -249.666667 
L 238.199436 -249.666667 
L 237.357438 -249.666667 
L 236.515441 -249.666667 
L 235.673444 -249.666667 
L 234.831446 -249.666667 
L 233.989449 -249.666667 
L 233.147451 -249.666667 
L 232.305454 -249.666667 
L 231.463457 -249.666667 
L 230.621459 -249.666667 
L 229.779462 -249.666667 
L 228.937465 -249.666667 
L 228.095467 -249.666667 
L 227.25347 -249.666667 
L 226.411472 -249.666667 
L 225.569475 -249.666667 
L 224.727478 -249.666667 
L 223.88548 -249.666667 
L 223.043483 -249.666667 
L 222.201486 -249.666667 
L 221.359488 -249.666667 
L 220.517491 -249.666667 
L 219.675493 -249.666667 
L 218.833496 -249.666667 
L 217.991499 -249.666667 
L 217.149501 -249.666667 
L 216.307504 -249.666667 
L 215.465507 -249.666667 
L 214.623509 -249.666667 
L 213.781512 -249.666667 
L 212.939514 -249.666667 
L 212.097517 -249.666667 
L 211.25552 -249.666667 
L 210.413522 -249.666667 
L 209.571525 -249.666667 
L 208.729528 -249.666667 
L 207.88753 -249.666667 
L 207.045533 -249.666667 
L 206.203535 -249.666667 
L 205.361538 -249.666667 
L 204.519541 -249.666667 
L 203.677543 -249.666667 
L 202.835546 -249.666667 
L 201.993549 -249.666667 
L 201.151551 -249.666667 
L 200.309554 -249.666667 
L 199.467556 -249.666667 
L 198.625559 -249.666667 
L 197.783562 -249.666667 
L 196.941564 -249.666667 
L 196.099567 -249.666667 
L 195.25757 -249.666667 
L 194.415572 -249.666667 
L 193.573575 -249.666667 
L 192.731577 -249.666667 
L 191.88958 -249.666667 
L 191.047583 -249.666667 
L 190.205585 -249.666667 
L 189.363588 -249.666667 
L 188.521591 -249.666667 
L 187.679593 -249.666667 
L 186.837596 -249.666667 
L 185.995598 -249.666667 
L 185.153601 -249.666667 
L 184.311604 -249.666667 
L 183.469606 -249.666667 
L 182.627609 -249.666667 
L 181.785612 -249.666667 
L 180.943614 -249.666667 
L 180.101617 -249.666667 
L 179.259619 -249.666667 
L 178.417622 -249.666667 
L 177.575625 -249.666667 
L 176.733627 -249.666667 
L 175.89163 -249.666667 
L 175.049633 -249.666667 
L 174.207635 -249.666667 
L 173.365638 -249.666667 
L 172.52364 -249.666667 
L 171.681643 -249.666667 
L 170.839646 -249.666667 
L 169.997648 -249.666667 
L 169.155651 -249.666667 
L 168.313654 -249.666667 
L 167.471656 -249.666667 
L 166.629659 -249.666667 
L 165.787661 -249.666667 
L 164.945664 -249.666667 
L 164.103667 -249.666667 
L 163.261669 -249.666667 
L 162.419672 -249.666667 
L 161.577675 -249.666667 
L 160.735677 -249.666667 
L 159.89368 -249.666667 
L 159.051682 -249.666667 
L 158.209685 -249.666667 
L 157.367688 -249.666667 
L 156.52569 -249.666667 
L 155.683693 -249.666667 
L 154.841696 -249.666667 
L 153.999698 -249.666667 
L 153.157701 -249.666667 
L 152.315703 -249.666667 
L 151.473706 -249.666667 
L 150.631709 -249.666667 
L 149.789711 -249.666667 
L 148.947714 -249.666667 
L 148.105717 -249.666667 
L 147.263719 -249.666667 
L 146.421722 -249.666667 
L 145.579724 -249.666667 
L 144.737727 -249.666667 
L 143.89573 -249.666667 
L 143.053732 -249.666667 
L 142.211735 -249.666667 
L 141.369738 -249.666667 
L 140.52774 -249.666667 
L 139.685743 -249.666667 
L 138.843745 -249.666667 
L 138.001748 -249.666667 
L 137.159751 -249.666667 
L 136.317753 -249.666667 
L 135.475756 -249.666667 
L 134.633759 -249.666667 
L 133.791761 -249.666667 
L 132.949764 -249.666667 
L 132.107766 -249.666667 
L 131.265769 -249.666667 
L 130.423772 -249.666667 
L 129.581774 -249.666667 
L 128.739777 -249.666667 
L 127.89778 -249.666667 
L 127.055782 -249.666667 
L 126.213785 -249.666667 
L 125.371787 -249.666667 
L 124.52979 -249.666667 
L 123.687793 -249.666667 
L 122.845795 -249.666667 
L 122.003798 -249.666667 
L 121.161801 -249.666667 
L 120.319803 -249.666667 
L 119.477806 -249.666667 
L 118.635808 -249.666667 
L 117.793811 -249.666667 
L 116.951814 -249.666667 
L 116.109816 -249.666667 
L 115.267819 -249.666667 
L 114.425822 -249.666667 
L 113.583824 -249.666667 
L 112.741827 -249.666667 
L 111.899829 -249.666667 
L 111.057832 -249.666667 
L 110.215835 -249.666667 
L 109.373837 -249.666667 
L 108.53184 -249.666667 
L 107.689843 -249.666667 
L 106.847845 -249.666667 
L 106.005848 -249.666667 
L 105.16385 -249.666667 
L 104.321853 -249.666667 
L 103.479856 -249.666667 
L 102.637858 -249.666667 
L 101.795861 -249.666667 
L 100.953864 -249.666667 
L 100.111866 -249.666667 
L 99.269869 -249.666667 
L 98.427871 -249.666667 
L 97.585874 -249.666667 
L 96.743877 -249.666667 
L 95.901879 -249.666667 
L 95.059882 -249.666667 
L 94.217885 -249.666667 
L 93.375887 -249.666667 
L 92.53389 -249.666667 
L 91.691892 -249.666667 
L 90.849895 -249.666667 
L 90.007898 -249.666667 
L 89.1659 -249.666667 
L 88.323903 -249.666667 
L 87.481906 -249.666667 
L 86.639908 -249.666667 
L 85.797911 -249.666667 
L 84.955913 -249.666667 
L 84.113916 -249.666667 
L 83.271919 -249.666667 
L 82.429921 -249.666667 
L 81.587924 -249.666667 
L 80.745927 -249.666667 
L 79.903929 -249.666667 
L 79.061932 -249.666667 
L 78.219934 -249.666667 
L 77.377937 -249.666667 
L 76.53594 -249.666667 
L 75.693942 -249.666667 
L 74.851945 -249.666667 
L 74.009948 -249.666667 
L 73.16795 -249.666667 
L 72.325953 -249.666667 
L 71.483955 -249.666667 
L 70.641958 -249.666667 
L 69.799961 -249.666667 
L 68.957963 -249.666667 
L 68.115966 -249.666667 
L 67.273969 -249.666667 
L 66.431971 -249.666667 
L 65.589974 -249.666667 
L 64.747976 -249.666667 
L 63.905979 -249.666667 
L 63.063982 -249.666667 
L 62.221984 -249.666667 
L 61.379987 -249.666667 
L 60.53799 -249.666667 
L 59.695992 -249.666667 
L 58.853995 -249.666667 
L 58.011997 -249.666667 
L 57.17 -249.666667 
z
" style="stroke: #008000; stroke-opacity: 0.4"/>
    </defs>
    <g clip-path="url(#p1e4fa1e12e)">
     <use xlink:href="#m78073acc66" x="0" y="648" style="fill: #008000; fill-opacity: 0.4; stroke: #008000; stroke-opacity: 0.4"/>
    </g>
   </g>
   <g id="matplotlib.axis_3">
    <g id="xtick_7">
     <g id="line2d_13">
      <g>
       <use xlink:href="#m44250ccae0" x="57.17" y="398.333333" style="stroke: #000000; stroke-width: 0.8"/>
      </g>
     </g>
     <g id="text_14">
      <!-- 0 -->
      <g transform="translate(53.98875 412.931771) scale(0.1 -0.1)">
       <use xlink:href="#DejaVuSans-30"/>
      </g>
     </g>
    </g>
    <g id="xtick_8">
     <g id="line2d_14">
      <g>
       <use xlink:href="#m44250ccae0" x="99.269869" y="398.333333" style="stroke: #000000; stroke-width: 0.8"/>
      </g>
     </g>
     <g id="text_15">
      <!-- 50 -->
      <g transform="translate(92.907369 412.931771) scale(0.1 -0.1)">
       <use xlink:href="#DejaVuSans-35"/>
       <use xlink:href="#DejaVuSans-30" x="63.623047"/>
      </g>
     </g>
    </g>
    <g id="xtick_9">
     <g id="line2d_15">
      <g>
       <use xlink:href="#m44250ccae0" x="141.369738" y="398.333333" style="stroke: #000000; stroke-width: 0.8"/>
      </g>
     </g>
     <g id="text_16">
      <!-- 100 -->
      <g transform="translate(131.825988 412.931771) scale(0.1 -0.1)">
       <use xlink:href="#DejaVuSans-31"/>
       <use xlink:href="#DejaVuSans-30" x="63.623047"/>
       <use xlink:href="#DejaVuSans-30" x="127.246094"/>
      </g>
     </g>
    </g>
    <g id="xtick_10">
     <g id="line2d_16">
      <g>
       <use xlink:href="#m44250ccae0" x="183.469606" y="398.333333" style="stroke: #000000; stroke-width: 0.8"/>
      </g>
     </g>
     <g id="text_17">
      <!-- 150 -->
      <g transform="translate(173.925856 412.931771) scale(0.1 -0.1)">
       <use xlink:href="#DejaVuSans-31"/>
       <use xlink:href="#DejaVuSans-35" x="63.623047"/>
       <use xlink:href="#DejaVuSans-30" x="127.246094"/>
      </g>
     </g>
    </g>
    <g id="xtick_11">
     <g id="line2d_17">
      <g>
       <use xlink:href="#m44250ccae0" x="225.569475" y="398.333333" style="stroke: #000000; stroke-width: 0.8"/>
      </g>
     </g>
     <g id="text_18">
      <!-- 200 -->
      <g transform="translate(216.025725 412.931771) scale(0.1 -0.1)">
       <use xlink:href="#DejaVuSans-32"/>
       <use xlink:href="#DejaVuSans-30" x="63.623047"/>
       <use xlink:href="#DejaVuSans-30" x="127.246094"/>
      </g>
     </g>
    </g>
    <g id="xtick_12">
     <g id="line2d_18">
      <g>
       <use xlink:href="#m44250ccae0" x="267.669344" y="398.333333" style="stroke: #000000; stroke-width: 0.8"/>
      </g>
     </g>
     <g id="text_19">
      <!-- 250 -->
      <g transform="translate(258.125594 412.931771) scale(0.1 -0.1)">
       <use xlink:href="#DejaVuSans-32"/>
       <use xlink:href="#DejaVuSans-35" x="63.623047"/>
       <use xlink:href="#DejaVuSans-30" x="127.246094"/>
      </g>
     </g>
    </g>
   </g>
   <g id="matplotlib.axis_4">
    <g id="ytick_6">
     <g id="line2d_19">
      <g>
       <use xlink:href="#m39df4f8d48" x="57.17" y="398.333333" style="stroke: #000000; stroke-width: 0.8"/>
      </g>
     </g>
     <g id="text_20">
      <!-- 0 -->
      <g transform="translate(43.8075 402.132552) scale(0.1 -0.1)">
       <use xlink:href="#DejaVuSans-30"/>
      </g>
     </g>
    </g>
    <g id="ytick_7">
     <g id="line2d_20">
      <g>
       <use xlink:href="#m39df4f8d48" x="57.17" y="361.91643" style="stroke: #000000; stroke-width: 0.8"/>
      </g>
     </g>
     <g id="text_21">
      <!-- 500 -->
      <g transform="translate(31.0825 365.715649) scale(0.1 -0.1)">
       <use xlink:href="#DejaVuSans-35"/>
       <use xlink:href="#DejaVuSans-30" x="63.623047"/>
       <use xlink:href="#DejaVuSans-30" x="127.246094"/>
      </g>
     </g>
    </g>
    <g id="ytick_8">
     <g id="line2d_21">
      <g>
       <use xlink:href="#m39df4f8d48" x="57.17" y="325.499527" style="stroke: #000000; stroke-width: 0.8"/>
      </g>
     </g>
     <g id="text_22">
      <!-- 1000 -->
      <g transform="translate(24.72 329.298746) scale(0.1 -0.1)">
       <use xlink:href="#DejaVuSans-31"/>
       <use xlink:href="#DejaVuSans-30" x="63.623047"/>
       <use xlink:href="#DejaVuSans-30" x="127.246094"/>
       <use xlink:href="#DejaVuSans-30" x="190.869141"/>
      </g>
     </g>
    </g>
    <g id="ytick_9">
     <g id="line2d_22">
      <g>
       <use xlink:href="#m39df4f8d48" x="57.17" y="289.082625" style="stroke: #000000; stroke-width: 0.8"/>
      </g>
     </g>
     <g id="text_23">
      <!-- 1500 -->
      <g transform="translate(24.72 292.881843) scale(0.1 -0.1)">
       <use xlink:href="#DejaVuSans-31"/>
       <use xlink:href="#DejaVuSans-35" x="63.623047"/>
       <use xlink:href="#DejaVuSans-30" x="127.246094"/>
       <use xlink:href="#DejaVuSans-30" x="190.869141"/>
      </g>
     </g>
    </g>
    <g id="ytick_10">
     <g id="line2d_23">
      <g>
       <use xlink:href="#m39df4f8d48" x="57.17" y="252.665722" style="stroke: #000000; stroke-width: 0.8"/>
      </g>
     </g>
     <g id="text_24">
      <!-- 2000 -->
      <g transform="translate(24.72 256.46494) scale(0.1 -0.1)">
       <use xlink:href="#DejaVuSans-32"/>
       <use xlink:href="#DejaVuSans-30" x="63.623047"/>
       <use xlink:href="#DejaVuSans-30" x="127.246094"/>
       <use xlink:href="#DejaVuSans-30" x="190.869141"/>
      </g>
     </g>
    </g>
    <g id="text_25">
     <!-- Pixel Frequency -->
     <g transform="translate(18.640313 347.398906) rotate(-90) scale(0.1 -0.1)">
      <use xlink:href="#DejaVuSans-50"/>
      <use xlink:href="#DejaVuSans-69" x="58.052734"/>
      <use xlink:href="#DejaVuSans-78" x="85.835938"/>
      <use xlink:href="#DejaVuSans-65" x="141.890625"/>
      <use xlink:href="#DejaVuSans-6c" x="203.414062"/>
      <use xlink:href="#DejaVuSans-20" x="231.197266"/>
      <use xlink:href="#DejaVuSans-46" x="262.984375"/>
      <use xlink:href="#DejaVuSans-72" x="313.253906"/>
      <use xlink:href="#DejaVuSans-65" x="352.117188"/>
      <use xlink:href="#DejaVuSans-71" x="413.640625"/>
      <use xlink:href="#DejaVuSans-75" x="477.117188"/>
      <use xlink:href="#DejaVuSans-65" x="540.496094"/>
      <use xlink:href="#DejaVuSans-6e" x="602.019531"/>
      <use xlink:href="#DejaVuSans-63" x="665.398438"/>
      <use xlink:href="#DejaVuSans-79" x="720.378906"/>
     </g>
    </g>
   </g>
   <g id="line2d_24">
    <path d="M 57.17 398.333333 
L 83.271919 398.333333 
L 84.113916 398.114832 
L 84.955913 397.532161 
L 85.797911 397.604995 
L 86.639908 396.73099 
L 87.481906 396.585322 
L 88.323903 395.565649 
L 89.1659 395.711316 
L 90.007898 394.473142 
L 90.849895 393.963305 
L 91.691892 393.67197 
L 92.53389 389.374775 
L 93.375887 381.508724 
L 94.217885 363.154605 
L 95.901879 299.060856 
L 96.743877 286.387774 
L 97.585874 289.155458 
L 98.427871 298.915188 
L 99.269869 311.879606 
L 100.111866 314.283121 
L 100.953864 310.787099 
L 101.795861 313.554783 
L 102.637858 322.659009 
L 103.479856 323.678682 
L 104.321853 310.42293 
L 105.16385 307.582411 
L 106.005848 300.153363 
L 106.847845 295.200664 
L 107.689843 296.65734 
L 108.53184 296.511673 
L 109.373837 292.214478 
L 111.057832 304.159222 
L 111.899829 303.649386 
L 112.741827 308.383583 
L 113.583824 317.70631 
L 114.425822 320.619662 
L 116.109816 327.393206 
L 116.951814 328.048711 
L 117.793811 335.332091 
L 119.477806 339.192283 
L 120.319803 341.741466 
L 121.161801 343.635145 
L 122.003798 352.375202 
L 122.845795 352.593703 
L 123.687793 352.957872 
L 125.371787 356.672396 
L 126.213785 362.134932 
L 127.055782 361.91643 
L 127.89778 364.538447 
L 128.739777 365.485287 
L 129.581774 365.92229 
L 130.423772 369.199811 
L 131.265769 371.603327 
L 132.107766 372.914335 
L 132.949764 373.569839 
L 133.791761 373.497006 
L 134.633759 376.046189 
L 136.317753 379.979214 
L 137.159751 378.158369 
L 138.001748 379.250876 
L 138.843745 380.998888 
L 139.685743 381.508724 
L 140.52774 383.985074 
L 141.369738 385.44175 
L 142.211735 386.02442 
L 143.053732 387.408262 
L 143.89573 389.374775 
L 144.737727 389.374775 
L 145.579724 389.010606 
L 146.421722 390.540116 
L 147.263719 390.394448 
L 148.105717 390.977119 
L 148.947714 392.360961 
L 149.789711 392.943632 
L 150.631709 392.579463 
L 151.473706 393.963305 
L 152.315703 394.691643 
L 153.157701 393.380635 
L 153.999698 393.162133 
L 154.841696 395.274313 
L 155.683693 394.691643 
L 156.52569 395.856984 
L 157.367688 396.73099 
L 158.209685 395.492815 
L 159.051682 396.293987 
L 159.89368 396.439654 
L 160.735677 396.876657 
L 161.577675 396.876657 
L 162.419672 396.075485 
L 163.261669 396.876657 
L 164.103667 396.585322 
L 166.629659 397.386494 
L 167.471656 397.31366 
L 168.313654 397.386494 
L 169.155651 396.803823 
L 169.997648 397.750663 
L 170.839646 397.31366 
L 172.52364 397.823497 
L 173.365638 397.459328 
L 174.207635 397.89633 
L 175.049633 397.604995 
L 176.733627 397.532161 
L 177.575625 397.823497 
L 178.417622 397.459328 
L 179.259619 397.604995 
L 180.101617 398.041998 
L 180.943614 397.604995 
L 181.785612 398.041998 
L 182.627609 398.187666 
L 184.311604 397.969164 
L 185.153601 397.89633 
L 185.995598 397.386494 
L 188.521591 398.2605 
L 189.363588 398.041998 
L 191.047583 398.041998 
L 191.88958 397.823497 
L 192.731577 397.89633 
L 193.573575 398.2605 
L 194.415572 398.041998 
L 195.25757 397.969164 
L 196.941564 398.187666 
L 197.783562 397.969164 
L 198.625559 398.114832 
L 199.467556 397.823497 
L 200.309554 398.2605 
L 201.151551 397.823497 
L 201.993549 397.89633 
L 202.835546 398.187666 
L 203.677543 397.969164 
L 205.361538 398.187666 
L 206.203535 398.2605 
L 208.729528 398.114832 
L 209.571525 398.333333 
L 210.413522 398.114832 
L 211.25552 398.2605 
L 212.097517 398.187666 
L 212.939514 398.2605 
L 213.781512 398.041998 
L 214.623509 398.2605 
L 216.307504 398.041998 
L 217.991499 398.333333 
L 219.675493 398.2605 
L 220.517491 397.969164 
L 221.359488 398.2605 
L 224.727478 398.2605 
L 225.569475 398.114832 
L 226.411472 398.333333 
L 227.25347 398.2605 
L 228.937465 398.333333 
L 229.779462 398.187666 
L 232.305454 398.333333 
L 236.515441 398.333333 
L 237.357438 398.114832 
L 238.199436 398.333333 
L 239.041433 398.2605 
L 240.725428 398.333333 
L 241.567425 398.333333 
L 242.409423 398.187666 
L 243.25142 398.333333 
L 246.619409 398.2605 
L 247.461407 398.187666 
L 249.987399 398.333333 
L 250.829396 398.2605 
L 252.513391 398.333333 
L 253.355388 398.2605 
L 255.039383 398.333333 
L 271.879331 398.333333 
L 271.879331 398.333333 
" clip-path="url(#p1e4fa1e12e)" style="fill: none; stroke: #008000; stroke-width: 1.5; stroke-linecap: square"/>
   </g>
   <g id="patch_8">
    <path d="M 57.17 398.333333 
L 57.17 218.506667 
" style="fill: none; stroke: #000000; stroke-width: 0.8; stroke-linejoin: miter; stroke-linecap: square"/>
   </g>
   <g id="patch_9">
    <path d="M 272.721328 398.333333 
L 272.721328 218.506667 
" style="fill: none; stroke: #000000; stroke-width: 0.8; stroke-linejoin: miter; stroke-linecap: square"/>
   </g>
   <g id="patch_10">
    <path d="M 57.17 398.333333 
L 272.721328 398.333333 
" style="fill: none; stroke: #000000; stroke-width: 0.8; stroke-linejoin: miter; stroke-linecap: square"/>
   </g>
   <g id="patch_11">
    <path d="M 57.17 218.506667 
L 272.721328 218.506667 
" style="fill: none; stroke: #000000; stroke-width: 0.8; stroke-linejoin: miter; stroke-linecap: square"/>
   </g>
   <g id="text_26">
    <!-- Green Channel  -->
    <g transform="translate(179.494453 232.506667) scale(0.12 -0.12)">
     <defs>
      <path id="DejaVuSans-47" d="M 3809 666 
L 3809 1919 
L 2778 1919 
L 2778 2438 
L 4434 2438 
L 4434 434 
Q 4069 175 3628 42 
Q 3188 -91 2688 -91 
Q 1594 -91 976 548 
Q 359 1188 359 2328 
Q 359 3472 976 4111 
Q 1594 4750 2688 4750 
Q 3144 4750 3555 4637 
Q 3966 4525 4313 4306 
L 4313 3634 
Q 3963 3931 3569 4081 
Q 3175 4231 2741 4231 
Q 1884 4231 1454 3753 
Q 1025 3275 1025 2328 
Q 1025 1384 1454 906 
Q 1884 428 2741 428 
Q 3075 428 3337 486 
Q 3600 544 3809 666 
z
" transform="scale(0.015625)"/>
     </defs>
     <use xlink:href="#DejaVuSans-47"/>
     <use xlink:href="#DejaVuSans-72" x="77.490234"/>
     <use xlink:href="#DejaVuSans-65" x="116.353516"/>
     <use xlink:href="#DejaVuSans-65" x="177.876953"/>
     <use xlink:href="#DejaVuSans-6e" x="239.400391"/>
     <use xlink:href="#DejaVuSans-20" x="302.779297"/>
     <use xlink:href="#DejaVuSans-43" x="334.566406"/>
     <use xlink:href="#DejaVuSans-68" x="404.390625"/>
     <use xlink:href="#DejaVuSans-61" x="467.769531"/>
     <use xlink:href="#DejaVuSans-6e" x="529.048828"/>
     <use xlink:href="#DejaVuSans-6e" x="592.427734"/>
     <use xlink:href="#DejaVuSans-65" x="655.806641"/>
     <use xlink:href="#DejaVuSans-6c" x="717.330078"/>
     <use xlink:href="#DejaVuSans-20" x="745.113281"/>
    </g>
   </g>
  </g>
  <g id="axes_3">
   <g id="patch_12">
    <path d="M 57.17 606.04 
L 272.721328 606.04 
L 272.721328 426.213333 
L 57.17 426.213333 
z
" style="fill: #ffffff"/>
   </g>
   <g id="PolyCollection_3">
    <defs>
     <path id="m054f311be9" d="M 57.17 -41.96 
L 57.17 -41.96 
L 58.011997 -41.96 
L 58.853995 -41.96 
L 59.695992 -41.96 
L 60.53799 -41.96 
L 61.379987 -41.96 
L 62.221984 -41.96 
L 63.063982 -41.96 
L 63.905979 -41.96 
L 64.747976 -41.96 
L 65.589974 -41.96 
L 66.431971 -41.96 
L 67.273969 -41.96 
L 68.115966 -41.96 
L 68.957963 -41.96 
L 69.799961 -41.96 
L 70.641958 -41.96 
L 71.483955 -41.96 
L 72.325953 -41.96 
L 73.16795 -42.178501 
L 74.009948 -42.761172 
L 74.851945 -42.834006 
L 75.693942 -44.436349 
L 76.53594 -46.694197 
L 77.377937 -55.215753 
L 78.219934 -69.345511 
L 79.061932 -109.185603 
L 79.903929 -168.108152 
L 80.745927 -194.910992 
L 81.587924 -207.87541 
L 82.429921 -209.477753 
L 83.271919 -198.771184 
L 84.113916 -202.995545 
L 84.955913 -194.473989 
L 85.797911 -202.048705 
L 86.639908 -221.203996 
L 87.481906 -221.786667 
L 88.323903 -205.39906 
L 89.1659 -199.64519 
L 90.007898 -190.176795 
L 90.849895 -171.89551 
L 91.691892 -162.281447 
L 92.53389 -150.263869 
L 93.375887 -142.179317 
L 94.217885 -132.492421 
L 95.059882 -126.374381 
L 95.901879 -118.726831 
L 96.743877 -112.317456 
L 97.585874 -113.045795 
L 98.427871 -108.384431 
L 99.269869 -94.618842 
L 100.111866 -91.268487 
L 100.953864 -90.540149 
L 101.795861 -84.713444 
L 102.637858 -81.872926 
L 103.479856 -79.615078 
L 104.321853 -73.278537 
L 105.16385 -69.054176 
L 106.005848 -65.849488 
L 106.847845 -63.518807 
L 107.689843 -61.042457 
L 108.53184 -59.075944 
L 109.373837 -57.255099 
L 110.215835 -55.142919 
L 111.057832 -53.904744 
L 111.899829 -51.574062 
L 112.741827 -51.646896 
L 113.583824 -49.461882 
L 114.425822 -48.296541 
L 115.267819 -47.495369 
L 116.109816 -47.641037 
L 116.951814 -46.475696 
L 117.793811 -45.674524 
L 118.635808 -44.800518 
L 119.477806 -44.873352 
L 120.319803 -45.237521 
L 121.161801 -43.999347 
L 122.003798 -43.926513 
L 122.845795 -44.290682 
L 123.687793 -44.07218 
L 124.52979 -43.198175 
L 125.371787 -43.48951 
L 126.213785 -43.343842 
L 127.055782 -43.48951 
L 127.89778 -43.198175 
L 128.739777 -43.052507 
L 129.581774 -42.688338 
L 130.423772 -43.271009 
L 131.265769 -42.688338 
L 132.107766 -42.761172 
L 132.949764 -42.834006 
L 133.791761 -42.324169 
L 134.633759 -42.979673 
L 135.475756 -42.615504 
L 136.317753 -42.906839 
L 137.159751 -42.615504 
L 138.001748 -42.469837 
L 138.843745 -42.834006 
L 139.685743 -42.105668 
L 140.52774 -42.615504 
L 141.369738 -42.397003 
L 142.211735 -42.54267 
L 143.053732 -42.251335 
L 143.89573 -42.324169 
L 144.737727 -42.324169 
L 145.579724 -42.251335 
L 146.421722 -42.397003 
L 147.263719 -42.469837 
L 148.105717 -42.251335 
L 148.947714 -42.105668 
L 149.789711 -42.178501 
L 150.631709 -42.105668 
L 151.473706 -42.105668 
L 152.315703 -42.324169 
L 153.157701 -42.178501 
L 153.999698 -42.105668 
L 154.841696 -42.105668 
L 155.683693 -42.105668 
L 156.52569 -42.178501 
L 157.367688 -42.397003 
L 158.209685 -42.251335 
L 159.051682 -42.032834 
L 159.89368 -41.96 
L 160.735677 -42.105668 
L 161.577675 -42.105668 
L 162.419672 -42.032834 
L 163.261669 -42.032834 
L 164.103667 -41.96 
L 164.945664 -42.105668 
L 165.787661 -42.032834 
L 166.629659 -41.96 
L 167.471656 -41.96 
L 168.313654 -42.178501 
L 169.155651 -42.105668 
L 169.997648 -41.96 
L 170.839646 -42.032834 
L 171.681643 -42.105668 
L 172.52364 -42.032834 
L 173.365638 -42.032834 
L 174.207635 -42.032834 
L 175.049633 -41.96 
L 175.89163 -42.032834 
L 176.733627 -42.105668 
L 177.575625 -41.96 
L 178.417622 -41.96 
L 179.259619 -41.96 
L 180.101617 -41.96 
L 180.943614 -41.96 
L 181.785612 -41.96 
L 182.627609 -41.96 
L 183.469606 -41.96 
L 184.311604 -42.032834 
L 185.153601 -41.96 
L 185.995598 -41.96 
L 186.837596 -41.96 
L 187.679593 -41.96 
L 188.521591 -41.96 
L 189.363588 -42.032834 
L 190.205585 -41.96 
L 191.047583 -41.96 
L 191.88958 -41.96 
L 192.731577 -41.96 
L 193.573575 -41.96 
L 194.415572 -41.96 
L 195.25757 -41.96 
L 196.099567 -41.96 
L 196.941564 -41.96 
L 197.783562 -41.96 
L 198.625559 -41.96 
L 199.467556 -41.96 
L 200.309554 -41.96 
L 201.151551 -41.96 
L 201.993549 -41.96 
L 202.835546 -41.96 
L 203.677543 -41.96 
L 204.519541 -41.96 
L 205.361538 -41.96 
L 206.203535 -41.96 
L 207.045533 -41.96 
L 207.88753 -41.96 
L 208.729528 -41.96 
L 209.571525 -41.96 
L 210.413522 -41.96 
L 211.25552 -41.96 
L 212.097517 -41.96 
L 212.939514 -41.96 
L 213.781512 -41.96 
L 214.623509 -41.96 
L 215.465507 -41.96 
L 216.307504 -41.96 
L 217.149501 -41.96 
L 217.991499 -41.96 
L 218.833496 -41.96 
L 219.675493 -41.96 
L 220.517491 -41.96 
L 221.359488 -41.96 
L 222.201486 -41.96 
L 223.043483 -41.96 
L 223.88548 -41.96 
L 224.727478 -41.96 
L 225.569475 -41.96 
L 226.411472 -41.96 
L 227.25347 -41.96 
L 228.095467 -41.96 
L 228.937465 -41.96 
L 229.779462 -41.96 
L 230.621459 -41.96 
L 231.463457 -41.96 
L 232.305454 -41.96 
L 233.147451 -41.96 
L 233.989449 -41.96 
L 234.831446 -41.96 
L 235.673444 -41.96 
L 236.515441 -41.96 
L 237.357438 -41.96 
L 238.199436 -41.96 
L 239.041433 -41.96 
L 239.88343 -41.96 
L 240.725428 -41.96 
L 241.567425 -41.96 
L 242.409423 -41.96 
L 243.25142 -41.96 
L 244.093417 -41.96 
L 244.935415 -41.96 
L 245.777412 -41.96 
L 246.619409 -41.96 
L 247.461407 -41.96 
L 248.303404 -41.96 
L 249.145402 -41.96 
L 249.987399 -41.96 
L 250.829396 -41.96 
L 251.671394 -41.96 
L 252.513391 -41.96 
L 253.355388 -41.96 
L 254.197386 -41.96 
L 255.039383 -41.96 
L 255.881381 -41.96 
L 256.723378 -41.96 
L 257.565375 -41.96 
L 258.407373 -41.96 
L 259.24937 -41.96 
L 260.091367 -41.96 
L 260.933365 -41.96 
L 261.775362 -41.96 
L 262.61736 -41.96 
L 263.459357 -41.96 
L 264.301354 -41.96 
L 265.143352 -41.96 
L 265.985349 -41.96 
L 266.827346 -41.96 
L 267.669344 -41.96 
L 268.511341 -41.96 
L 269.353339 -41.96 
L 270.195336 -41.96 
L 271.037333 -41.96 
L 271.879331 -41.96 
L 271.879331 -41.96 
L 271.879331 -41.96 
L 271.037333 -41.96 
L 270.195336 -41.96 
L 269.353339 -41.96 
L 268.511341 -41.96 
L 267.669344 -41.96 
L 266.827346 -41.96 
L 265.985349 -41.96 
L 265.143352 -41.96 
L 264.301354 -41.96 
L 263.459357 -41.96 
L 262.61736 -41.96 
L 261.775362 -41.96 
L 260.933365 -41.96 
L 260.091367 -41.96 
L 259.24937 -41.96 
L 258.407373 -41.96 
L 257.565375 -41.96 
L 256.723378 -41.96 
L 255.881381 -41.96 
L 255.039383 -41.96 
L 254.197386 -41.96 
L 253.355388 -41.96 
L 252.513391 -41.96 
L 251.671394 -41.96 
L 250.829396 -41.96 
L 249.987399 -41.96 
L 249.145402 -41.96 
L 248.303404 -41.96 
L 247.461407 -41.96 
L 246.619409 -41.96 
L 245.777412 -41.96 
L 244.935415 -41.96 
L 244.093417 -41.96 
L 243.25142 -41.96 
L 242.409423 -41.96 
L 241.567425 -41.96 
L 240.725428 -41.96 
L 239.88343 -41.96 
L 239.041433 -41.96 
L 238.199436 -41.96 
L 237.357438 -41.96 
L 236.515441 -41.96 
L 235.673444 -41.96 
L 234.831446 -41.96 
L 233.989449 -41.96 
L 233.147451 -41.96 
L 232.305454 -41.96 
L 231.463457 -41.96 
L 230.621459 -41.96 
L 229.779462 -41.96 
L 228.937465 -41.96 
L 228.095467 -41.96 
L 227.25347 -41.96 
L 226.411472 -41.96 
L 225.569475 -41.96 
L 224.727478 -41.96 
L 223.88548 -41.96 
L 223.043483 -41.96 
L 222.201486 -41.96 
L 221.359488 -41.96 
L 220.517491 -41.96 
L 219.675493 -41.96 
L 218.833496 -41.96 
L 217.991499 -41.96 
L 217.149501 -41.96 
L 216.307504 -41.96 
L 215.465507 -41.96 
L 214.623509 -41.96 
L 213.781512 -41.96 
L 212.939514 -41.96 
L 212.097517 -41.96 
L 211.25552 -41.96 
L 210.413522 -41.96 
L 209.571525 -41.96 
L 208.729528 -41.96 
L 207.88753 -41.96 
L 207.045533 -41.96 
L 206.203535 -41.96 
L 205.361538 -41.96 
L 204.519541 -41.96 
L 203.677543 -41.96 
L 202.835546 -41.96 
L 201.993549 -41.96 
L 201.151551 -41.96 
L 200.309554 -41.96 
L 199.467556 -41.96 
L 198.625559 -41.96 
L 197.783562 -41.96 
L 196.941564 -41.96 
L 196.099567 -41.96 
L 195.25757 -41.96 
L 194.415572 -41.96 
L 193.573575 -41.96 
L 192.731577 -41.96 
L 191.88958 -41.96 
L 191.047583 -41.96 
L 190.205585 -41.96 
L 189.363588 -41.96 
L 188.521591 -41.96 
L 187.679593 -41.96 
L 186.837596 -41.96 
L 185.995598 -41.96 
L 185.153601 -41.96 
L 184.311604 -41.96 
L 183.469606 -41.96 
L 182.627609 -41.96 
L 181.785612 -41.96 
L 180.943614 -41.96 
L 180.101617 -41.96 
L 179.259619 -41.96 
L 178.417622 -41.96 
L 177.575625 -41.96 
L 176.733627 -41.96 
L 175.89163 -41.96 
L 175.049633 -41.96 
L 174.207635 -41.96 
L 173.365638 -41.96 
L 172.52364 -41.96 
L 171.681643 -41.96 
L 170.839646 -41.96 
L 169.997648 -41.96 
L 169.155651 -41.96 
L 168.313654 -41.96 
L 167.471656 -41.96 
L 166.629659 -41.96 
L 165.787661 -41.96 
L 164.945664 -41.96 
L 164.103667 -41.96 
L 163.261669 -41.96 
L 162.419672 -41.96 
L 161.577675 -41.96 
L 160.735677 -41.96 
L 159.89368 -41.96 
L 159.051682 -41.96 
L 158.209685 -41.96 
L 157.367688 -41.96 
L 156.52569 -41.96 
L 155.683693 -41.96 
L 154.841696 -41.96 
L 153.999698 -41.96 
L 153.157701 -41.96 
L 152.315703 -41.96 
L 151.473706 -41.96 
L 150.631709 -41.96 
L 149.789711 -41.96 
L 148.947714 -41.96 
L 148.105717 -41.96 
L 147.263719 -41.96 
L 146.421722 -41.96 
L 145.579724 -41.96 
L 144.737727 -41.96 
L 143.89573 -41.96 
L 143.053732 -41.96 
L 142.211735 -41.96 
L 141.369738 -41.96 
L 140.52774 -41.96 
L 139.685743 -41.96 
L 138.843745 -41.96 
L 138.001748 -41.96 
L 137.159751 -41.96 
L 136.317753 -41.96 
L 135.475756 -41.96 
L 134.633759 -41.96 
L 133.791761 -41.96 
L 132.949764 -41.96 
L 132.107766 -41.96 
L 131.265769 -41.96 
L 130.423772 -41.96 
L 129.581774 -41.96 
L 128.739777 -41.96 
L 127.89778 -41.96 
L 127.055782 -41.96 
L 126.213785 -41.96 
L 125.371787 -41.96 
L 124.52979 -41.96 
L 123.687793 -41.96 
L 122.845795 -41.96 
L 122.003798 -41.96 
L 121.161801 -41.96 
L 120.319803 -41.96 
L 119.477806 -41.96 
L 118.635808 -41.96 
L 117.793811 -41.96 
L 116.951814 -41.96 
L 116.109816 -41.96 
L 115.267819 -41.96 
L 114.425822 -41.96 
L 113.583824 -41.96 
L 112.741827 -41.96 
L 111.899829 -41.96 
L 111.057832 -41.96 
L 110.215835 -41.96 
L 109.373837 -41.96 
L 108.53184 -41.96 
L 107.689843 -41.96 
L 106.847845 -41.96 
L 106.005848 -41.96 
L 105.16385 -41.96 
L 104.321853 -41.96 
L 103.479856 -41.96 
L 102.637858 -41.96 
L 101.795861 -41.96 
L 100.953864 -41.96 
L 100.111866 -41.96 
L 99.269869 -41.96 
L 98.427871 -41.96 
L 97.585874 -41.96 
L 96.743877 -41.96 
L 95.901879 -41.96 
L 95.059882 -41.96 
L 94.217885 -41.96 
L 93.375887 -41.96 
L 92.53389 -41.96 
L 91.691892 -41.96 
L 90.849895 -41.96 
L 90.007898 -41.96 
L 89.1659 -41.96 
L 88.323903 -41.96 
L 87.481906 -41.96 
L 86.639908 -41.96 
L 85.797911 -41.96 
L 84.955913 -41.96 
L 84.113916 -41.96 
L 83.271919 -41.96 
L 82.429921 -41.96 
L 81.587924 -41.96 
L 80.745927 -41.96 
L 79.903929 -41.96 
L 79.061932 -41.96 
L 78.219934 -41.96 
L 77.377937 -41.96 
L 76.53594 -41.96 
L 75.693942 -41.96 
L 74.851945 -41.96 
L 74.009948 -41.96 
L 73.16795 -41.96 
L 72.325953 -41.96 
L 71.483955 -41.96 
L 70.641958 -41.96 
L 69.799961 -41.96 
L 68.957963 -41.96 
L 68.115966 -41.96 
L 67.273969 -41.96 
L 66.431971 -41.96 
L 65.589974 -41.96 
L 64.747976 -41.96 
L 63.905979 -41.96 
L 63.063982 -41.96 
L 62.221984 -41.96 
L 61.379987 -41.96 
L 60.53799 -41.96 
L 59.695992 -41.96 
L 58.853995 -41.96 
L 58.011997 -41.96 
L 57.17 -41.96 
z
" style="stroke: #0000ff; stroke-opacity: 0.4"/>
    </defs>
    <g clip-path="url(#pa7877226bc)">
     <use xlink:href="#m054f311be9" x="0" y="648" style="fill: #0000ff; fill-opacity: 0.4; stroke: #0000ff; stroke-opacity: 0.4"/>
    </g>
   </g>
   <g id="matplotlib.axis_5">
    <g id="xtick_13">
     <g id="line2d_25">
      <g>
       <use xlink:href="#m44250ccae0" x="57.17" y="606.04" style="stroke: #000000; stroke-width: 0.8"/>
      </g>
     </g>
     <g id="text_27">
      <!-- 0 -->
      <g transform="translate(53.98875 620.638438) scale(0.1 -0.1)">
       <use xlink:href="#DejaVuSans-30"/>
      </g>
     </g>
    </g>
    <g id="xtick_14">
     <g id="line2d_26">
      <g>
       <use xlink:href="#m44250ccae0" x="99.269869" y="606.04" style="stroke: #000000; stroke-width: 0.8"/>
      </g>
     </g>
     <g id="text_28">
      <!-- 50 -->
      <g transform="translate(92.907369 620.638438) scale(0.1 -0.1)">
       <use xlink:href="#DejaVuSans-35"/>
       <use xlink:href="#DejaVuSans-30" x="63.623047"/>
      </g>
     </g>
    </g>
    <g id="xtick_15">
     <g id="line2d_27">
      <g>
       <use xlink:href="#m44250ccae0" x="141.369738" y="606.04" style="stroke: #000000; stroke-width: 0.8"/>
      </g>
     </g>
     <g id="text_29">
      <!-- 100 -->
      <g transform="translate(131.825988 620.638438) scale(0.1 -0.1)">
       <use xlink:href="#DejaVuSans-31"/>
       <use xlink:href="#DejaVuSans-30" x="63.623047"/>
       <use xlink:href="#DejaVuSans-30" x="127.246094"/>
      </g>
     </g>
    </g>
    <g id="xtick_16">
     <g id="line2d_28">
      <g>
       <use xlink:href="#m44250ccae0" x="183.469606" y="606.04" style="stroke: #000000; stroke-width: 0.8"/>
      </g>
     </g>
     <g id="text_30">
      <!-- 150 -->
      <g transform="translate(173.925856 620.638438) scale(0.1 -0.1)">
       <use xlink:href="#DejaVuSans-31"/>
       <use xlink:href="#DejaVuSans-35" x="63.623047"/>
       <use xlink:href="#DejaVuSans-30" x="127.246094"/>
      </g>
     </g>
    </g>
    <g id="xtick_17">
     <g id="line2d_29">
      <g>
       <use xlink:href="#m44250ccae0" x="225.569475" y="606.04" style="stroke: #000000; stroke-width: 0.8"/>
      </g>
     </g>
     <g id="text_31">
      <!-- 200 -->
      <g transform="translate(216.025725 620.638438) scale(0.1 -0.1)">
       <use xlink:href="#DejaVuSans-32"/>
       <use xlink:href="#DejaVuSans-30" x="63.623047"/>
       <use xlink:href="#DejaVuSans-30" x="127.246094"/>
      </g>
     </g>
    </g>
    <g id="xtick_18">
     <g id="line2d_30">
      <g>
       <use xlink:href="#m44250ccae0" x="267.669344" y="606.04" style="stroke: #000000; stroke-width: 0.8"/>
      </g>
     </g>
     <g id="text_32">
      <!-- 250 -->
      <g transform="translate(258.125594 620.638438) scale(0.1 -0.1)">
       <use xlink:href="#DejaVuSans-32"/>
       <use xlink:href="#DejaVuSans-35" x="63.623047"/>
       <use xlink:href="#DejaVuSans-30" x="127.246094"/>
      </g>
     </g>
    </g>
    <g id="text_33">
     <!-- Pixel Intensity -->
     <g transform="translate(130.033945 634.316563) scale(0.1 -0.1)">
      <defs>
       <path id="DejaVuSans-49" d="M 628 4666 
L 1259 4666 
L 1259 0 
L 628 0 
L 628 4666 
z
" transform="scale(0.015625)"/>
       <path id="DejaVuSans-74" d="M 1172 4494 
L 1172 3500 
L 2356 3500 
L 2356 3053 
L 1172 3053 
L 1172 1153 
Q 1172 725 1289 603 
Q 1406 481 1766 481 
L 2356 481 
L 2356 0 
L 1766 0 
Q 1100 0 847 248 
Q 594 497 594 1153 
L 594 3053 
L 172 3053 
L 172 3500 
L 594 3500 
L 594 4494 
L 1172 4494 
z
" transform="scale(0.015625)"/>
       <path id="DejaVuSans-73" d="M 2834 3397 
L 2834 2853 
Q 2591 2978 2328 3040 
Q 2066 3103 1784 3103 
Q 1356 3103 1142 2972 
Q 928 2841 928 2578 
Q 928 2378 1081 2264 
Q 1234 2150 1697 2047 
L 1894 2003 
Q 2506 1872 2764 1633 
Q 3022 1394 3022 966 
Q 3022 478 2636 193 
Q 2250 -91 1575 -91 
Q 1294 -91 989 -36 
Q 684 19 347 128 
L 347 722 
Q 666 556 975 473 
Q 1284 391 1588 391 
Q 1994 391 2212 530 
Q 2431 669 2431 922 
Q 2431 1156 2273 1281 
Q 2116 1406 1581 1522 
L 1381 1569 
Q 847 1681 609 1914 
Q 372 2147 372 2553 
Q 372 3047 722 3315 
Q 1072 3584 1716 3584 
Q 2034 3584 2315 3537 
Q 2597 3491 2834 3397 
z
" transform="scale(0.015625)"/>
      </defs>
      <use xlink:href="#DejaVuSans-50"/>
      <use xlink:href="#DejaVuSans-69" x="58.052734"/>
      <use xlink:href="#DejaVuSans-78" x="85.835938"/>
      <use xlink:href="#DejaVuSans-65" x="141.890625"/>
      <use xlink:href="#DejaVuSans-6c" x="203.414062"/>
      <use xlink:href="#DejaVuSans-20" x="231.197266"/>
      <use xlink:href="#DejaVuSans-49" x="262.984375"/>
      <use xlink:href="#DejaVuSans-6e" x="292.476562"/>
      <use xlink:href="#DejaVuSans-74" x="355.855469"/>
      <use xlink:href="#DejaVuSans-65" x="395.064453"/>
      <use xlink:href="#DejaVuSans-6e" x="456.587891"/>
      <use xlink:href="#DejaVuSans-73" x="519.966797"/>
      <use xlink:href="#DejaVuSans-69" x="572.066406"/>
      <use xlink:href="#DejaVuSans-74" x="599.849609"/>
      <use xlink:href="#DejaVuSans-79" x="639.058594"/>
     </g>
    </g>
   </g>
   <g id="matplotlib.axis_6">
    <g id="ytick_11">
     <g id="line2d_31">
      <g>
       <use xlink:href="#m39df4f8d48" x="57.17" y="606.04" style="stroke: #000000; stroke-width: 0.8"/>
      </g>
     </g>
     <g id="text_34">
      <!-- 0 -->
      <g transform="translate(43.8075 609.839219) scale(0.1 -0.1)">
       <use xlink:href="#DejaVuSans-30"/>
      </g>
     </g>
    </g>
    <g id="ytick_12">
     <g id="line2d_32">
      <g>
       <use xlink:href="#m39df4f8d48" x="57.17" y="569.623097" style="stroke: #000000; stroke-width: 0.8"/>
      </g>
     </g>
     <g id="text_35">
      <!-- 500 -->
      <g transform="translate(31.0825 573.422316) scale(0.1 -0.1)">
       <use xlink:href="#DejaVuSans-35"/>
       <use xlink:href="#DejaVuSans-30" x="63.623047"/>
       <use xlink:href="#DejaVuSans-30" x="127.246094"/>
      </g>
     </g>
    </g>
    <g id="ytick_13">
     <g id="line2d_33">
      <g>
       <use xlink:href="#m39df4f8d48" x="57.17" y="533.206194" style="stroke: #000000; stroke-width: 0.8"/>
      </g>
     </g>
     <g id="text_36">
      <!-- 1000 -->
      <g transform="translate(24.72 537.005413) scale(0.1 -0.1)">
       <use xlink:href="#DejaVuSans-31"/>
       <use xlink:href="#DejaVuSans-30" x="63.623047"/>
       <use xlink:href="#DejaVuSans-30" x="127.246094"/>
       <use xlink:href="#DejaVuSans-30" x="190.869141"/>
      </g>
     </g>
    </g>
    <g id="ytick_14">
     <g id="line2d_34">
      <g>
       <use xlink:href="#m39df4f8d48" x="57.17" y="496.789291" style="stroke: #000000; stroke-width: 0.8"/>
      </g>
     </g>
     <g id="text_37">
      <!-- 1500 -->
      <g transform="translate(24.72 500.58851) scale(0.1 -0.1)">
       <use xlink:href="#DejaVuSans-31"/>
       <use xlink:href="#DejaVuSans-35" x="63.623047"/>
       <use xlink:href="#DejaVuSans-30" x="127.246094"/>
       <use xlink:href="#DejaVuSans-30" x="190.869141"/>
      </g>
     </g>
    </g>
    <g id="ytick_15">
     <g id="line2d_35">
      <g>
       <use xlink:href="#m39df4f8d48" x="57.17" y="460.372388" style="stroke: #000000; stroke-width: 0.8"/>
      </g>
     </g>
     <g id="text_38">
      <!-- 2000 -->
      <g transform="translate(24.72 464.171607) scale(0.1 -0.1)">
       <use xlink:href="#DejaVuSans-32"/>
       <use xlink:href="#DejaVuSans-30" x="63.623047"/>
       <use xlink:href="#DejaVuSans-30" x="127.246094"/>
       <use xlink:href="#DejaVuSans-30" x="190.869141"/>
      </g>
     </g>
    </g>
    <g id="text_39">
     <!-- Pixel Frequency -->
     <g transform="translate(18.640313 555.105573) rotate(-90) scale(0.1 -0.1)">
      <use xlink:href="#DejaVuSans-50"/>
      <use xlink:href="#DejaVuSans-69" x="58.052734"/>
      <use xlink:href="#DejaVuSans-78" x="85.835938"/>
      <use xlink:href="#DejaVuSans-65" x="141.890625"/>
      <use xlink:href="#DejaVuSans-6c" x="203.414062"/>
      <use xlink:href="#DejaVuSans-20" x="231.197266"/>
      <use xlink:href="#DejaVuSans-46" x="262.984375"/>
      <use xlink:href="#DejaVuSans-72" x="313.253906"/>
      <use xlink:href="#DejaVuSans-65" x="352.117188"/>
      <use xlink:href="#DejaVuSans-71" x="413.640625"/>
      <use xlink:href="#DejaVuSans-75" x="477.117188"/>
      <use xlink:href="#DejaVuSans-65" x="540.496094"/>
      <use xlink:href="#DejaVuSans-6e" x="602.019531"/>
      <use xlink:href="#DejaVuSans-63" x="665.398438"/>
      <use xlink:href="#DejaVuSans-79" x="720.378906"/>
     </g>
    </g>
   </g>
   <g id="line2d_36">
    <path d="M 57.17 606.04 
L 72.325953 606.04 
L 73.16795 605.821499 
L 74.009948 605.238828 
L 74.851945 605.165994 
L 75.693942 603.563651 
L 76.53594 601.305803 
L 77.377937 592.784247 
L 78.219934 578.654489 
L 79.061932 538.814397 
L 79.903929 479.891848 
L 80.745927 453.089008 
L 81.587924 440.12459 
L 82.429921 438.522247 
L 83.271919 449.228816 
L 84.113916 445.004455 
L 84.955913 453.526011 
L 85.797911 445.951295 
L 86.639908 426.796004 
L 87.481906 426.213333 
L 88.323903 442.60094 
L 89.1659 448.35481 
L 90.007898 457.823205 
L 90.849895 476.10449 
L 91.691892 485.718553 
L 92.53389 497.736131 
L 93.375887 505.820683 
L 94.217885 515.507579 
L 95.059882 521.625619 
L 95.901879 529.273169 
L 96.743877 535.682544 
L 97.585874 534.954205 
L 98.427871 539.615569 
L 99.269869 553.381158 
L 100.111866 556.731513 
L 100.953864 557.459851 
L 101.795861 563.286556 
L 102.637858 566.127074 
L 103.479856 568.384922 
L 104.321853 574.721463 
L 105.16385 578.945824 
L 106.005848 582.150512 
L 108.53184 588.924056 
L 109.373837 590.744901 
L 110.215835 592.857081 
L 111.057832 594.095256 
L 111.899829 596.425938 
L 112.741827 596.353104 
L 113.583824 598.538118 
L 114.425822 599.703459 
L 115.267819 600.504631 
L 116.109816 600.358963 
L 116.951814 601.524304 
L 118.635808 603.199482 
L 119.477806 603.126648 
L 120.319803 602.762479 
L 121.161801 604.000653 
L 122.003798 604.073487 
L 122.845795 603.709318 
L 123.687793 603.92782 
L 124.52979 604.801825 
L 125.371787 604.51049 
L 126.213785 604.656158 
L 127.055782 604.51049 
L 127.89778 604.801825 
L 128.739777 604.947493 
L 129.581774 605.311662 
L 130.423772 604.728991 
L 131.265769 605.311662 
L 132.949764 605.165994 
L 133.791761 605.675831 
L 134.633759 605.020327 
L 135.475756 605.384496 
L 136.317753 605.093161 
L 137.159751 605.384496 
L 138.001748 605.530163 
L 138.843745 605.165994 
L 139.685743 605.894332 
L 140.52774 605.384496 
L 141.369738 605.602997 
L 142.211735 605.45733 
L 143.053732 605.748665 
L 144.737727 605.675831 
L 145.579724 605.748665 
L 147.263719 605.530163 
L 148.947714 605.894332 
L 149.789711 605.821499 
L 151.473706 605.894332 
L 152.315703 605.675831 
L 153.999698 605.894332 
L 156.52569 605.821499 
L 157.367688 605.602997 
L 159.89368 606.04 
L 160.735677 605.894332 
L 163.261669 605.967166 
L 164.103667 606.04 
L 164.945664 605.894332 
L 167.471656 606.04 
L 168.313654 605.821499 
L 170.839646 605.967166 
L 171.681643 605.894332 
L 173.365638 605.967166 
L 271.879331 606.04 
L 271.879331 606.04 
" clip-path="url(#pa7877226bc)" style="fill: none; stroke: #0000ff; stroke-width: 1.5; stroke-linecap: square"/>
   </g>
   <g id="patch_13">
    <path d="M 57.17 606.04 
L 57.17 426.213333 
" style="fill: none; stroke: #000000; stroke-width: 0.8; stroke-linejoin: miter; stroke-linecap: square"/>
   </g>
   <g id="patch_14">
    <path d="M 272.721328 606.04 
L 272.721328 426.213333 
" style="fill: none; stroke: #000000; stroke-width: 0.8; stroke-linejoin: miter; stroke-linecap: square"/>
   </g>
   <g id="patch_15">
    <path d="M 57.17 606.04 
L 272.721328 606.04 
" style="fill: none; stroke: #000000; stroke-width: 0.8; stroke-linejoin: miter; stroke-linecap: square"/>
   </g>
   <g id="patch_16">
    <path d="M 57.17 426.213333 
L 272.721328 426.213333 
" style="fill: none; stroke: #000000; stroke-width: 0.8; stroke-linejoin: miter; stroke-linecap: square"/>
   </g>
   <g id="text_40">
    <!-- Blue Channel  -->
    <g transform="translate(189.272578 440.213333) scale(0.12 -0.12)">
     <defs>
      <path id="DejaVuSans-42" d="M 1259 2228 
L 1259 519 
L 2272 519 
Q 2781 519 3026 730 
Q 3272 941 3272 1375 
Q 3272 1813 3026 2020 
Q 2781 2228 2272 2228 
L 1259 2228 
z
M 1259 4147 
L 1259 2741 
L 2194 2741 
Q 2656 2741 2882 2914 
Q 3109 3088 3109 3444 
Q 3109 3797 2882 3972 
Q 2656 4147 2194 4147 
L 1259 4147 
z
M 628 4666 
L 2241 4666 
Q 2963 4666 3353 4366 
Q 3744 4066 3744 3513 
Q 3744 3084 3544 2831 
Q 3344 2578 2956 2516 
Q 3422 2416 3680 2098 
Q 3938 1781 3938 1306 
Q 3938 681 3513 340 
Q 3088 0 2303 0 
L 628 0 
L 628 4666 
z
" transform="scale(0.015625)"/>
     </defs>
     <use xlink:href="#DejaVuSans-42"/>
     <use xlink:href="#DejaVuSans-6c" x="68.603516"/>
     <use xlink:href="#DejaVuSans-75" x="96.386719"/>
     <use xlink:href="#DejaVuSans-65" x="159.765625"/>
     <use xlink:href="#DejaVuSans-20" x="221.289062"/>
     <use xlink:href="#DejaVuSans-43" x="253.076172"/>
     <use xlink:href="#DejaVuSans-68" x="322.900391"/>
     <use xlink:href="#DejaVuSans-61" x="386.279297"/>
     <use xlink:href="#DejaVuSans-6e" x="447.558594"/>
     <use xlink:href="#DejaVuSans-6e" x="510.9375"/>
     <use xlink:href="#DejaVuSans-65" x="574.316406"/>
     <use xlink:href="#DejaVuSans-6c" x="635.839844"/>
     <use xlink:href="#DejaVuSans-20" x="663.623047"/>
    </g>
   </g>
  </g>
 </g>
 <defs>
  <clipPath id="p21e524ca78">
   <rect x="57.17" y="10.8" width="215.551328" height="179.826667"/>
  </clipPath>
  <clipPath id="p1e4fa1e12e">
   <rect x="57.17" y="218.506667" width="215.551328" height="179.826667"/>
  </clipPath>
  <clipPath id="pa7877226bc">
   <rect x="57.17" y="426.213333" width="215.551328" height="179.826667"/>
  </clipPath>
 </defs>
</svg>
