<?xml version="1.0" encoding="utf-8" standalone="no"?>
<!DOCTYPE svg PUBLIC "-//W3C//DTD SVG 1.1//EN"
  "http://www.w3.org/Graphics/SVG/1.1/DTD/svg11.dtd">
<svg xmlns:xlink="http://www.w3.org/1999/xlink" width="288pt" height="648pt" viewBox="0 0 288 648" xmlns="http://www.w3.org/2000/svg" version="1.1">
 <metadata>
  <rdf:RDF xmlns:dc="http://purl.org/dc/elements/1.1/" xmlns:cc="http://creativecommons.org/ns#" xmlns:rdf="http://www.w3.org/1999/02/22-rdf-syntax-ns#">
   <cc:Work>
    <dc:type rdf:resource="http://purl.org/dc/dcmitype/StillImage"/>
    <dc:date>2023-11-18T15:20:08.821965</dc:date>
    <dc:format>image/svg+xml</dc:format>
    <dc:creator>
     <cc:Agent>
      <dc:title>Matplotlib v3.8.0, https://matplotlib.org/</dc:title>
     </cc:Agent>
    </dc:creator>
   </cc:Work>
  </rdf:RDF>
 </metadata>
 <defs>
  <style type="text/css">*{stroke-linejoin: round; stroke-linecap: butt}</style>
 </defs>
 <g id="figure_1">
  <g id="patch_1">
   <path d="M 0 648 
L 288 648 
L 288 0 
L 0 0 
z
" style="fill: #ffffff"/>
  </g>
  <g id="axes_1">
   <g id="patch_2">
    <path d="M 57.17 190.626667 
L 272.721328 190.626667 
L 272.721328 10.8 
L 57.17 10.8 
z
" style="fill: #ffffff"/>
   </g>
   <g id="PolyCollection_1">
    <defs>
     <path id="m376ec8335d" d="M 57.17 -457.373333 
L 57.17 -457.373333 
L 58.011997 -457.373333 
L 58.853995 -457.373333 
L 59.695992 -457.373333 
L 60.53799 -457.373333 
L 61.379987 -457.373333 
L 62.221984 -457.373333 
L 63.063982 -457.373333 
L 63.905979 -457.373333 
L 64.747976 -457.373333 
L 65.589974 -457.373333 
L 66.431971 -457.373333 
L 67.273969 -457.373333 
L 68.115966 -457.373333 
L 68.957963 -457.373333 
L 69.799961 -457.373333 
L 70.641958 -457.373333 
L 71.483955 -457.373333 
L 72.325953 -457.373333 
L 73.16795 -457.373333 
L 74.009948 -457.373333 
L 74.851945 -457.373333 
L 75.693942 -457.373333 
L 76.53594 -457.373333 
L 77.377937 -457.373333 
L 78.219934 -457.373333 
L 79.061932 -457.373333 
L 79.903929 -457.969971 
L 80.745927 -457.850644 
L 81.587924 -458.208626 
L 82.429921 -459.043919 
L 83.271919 -458.089299 
L 84.113916 -461.788454 
L 84.955913 -467.993488 
L 85.797911 -475.869109 
L 86.639908 -487.443884 
L 87.481906 -503.314453 
L 88.323903 -516.917797 
L 89.1659 -531.833745 
L 90.007898 -537.442141 
L 90.849895 -528.373245 
L 91.691892 -519.304349 
L 92.53389 -506.536297 
L 93.375887 -499.257315 
L 94.217885 -491.978332 
L 95.059882 -487.563212 
L 95.901879 -488.279177 
L 96.743877 -487.324557 
L 97.585874 -486.250608 
L 98.427871 -484.222039 
L 99.269869 -484.460695 
L 100.111866 -483.267419 
L 100.953864 -482.909436 
L 101.795861 -480.045574 
L 102.637858 -477.77835 
L 103.479856 -477.420367 
L 104.321853 -475.749781 
L 105.16385 -473.243902 
L 106.005848 -477.30104 
L 106.847845 -481.477505 
L 107.689843 -482.551453 
L 108.53184 -482.551453 
L 109.373837 -489.11447 
L 110.215835 -488.63716 
L 111.057832 -495.796815 
L 111.899829 -499.615298 
L 112.741827 -496.03547 
L 113.583824 -493.529591 
L 114.425822 -498.064039 
L 115.267819 -502.479159 
L 116.109816 -497.586729 
L 116.951814 -499.376642 
L 117.793811 -510.951418 
L 118.635808 -509.87747 
L 119.477806 -522.168211 
L 120.319803 -525.390055 
L 121.161801 -532.311055 
L 122.003798 -535.652227 
L 122.845795 -541.737934 
L 123.687793 -543.40852 
L 124.52979 -553.193382 
L 125.371787 -553.432037 
L 126.213785 -563.694209 
L 127.055782 -569.302606 
L 127.89778 -575.626967 
L 128.739777 -574.672347 
L 129.581774 -591.378208 
L 130.423772 -581.474019 
L 131.265769 -588.275691 
L 132.107766 -578.96814 
L 132.949764 -582.547967 
L 133.791761 -577.178226 
L 134.633759 -571.211847 
L 135.475756 -569.421933 
L 136.317753 -553.79002 
L 137.159751 -554.028675 
L 138.001748 -554.505985 
L 138.843745 -542.4539 
L 139.685743 -548.062296 
L 140.52774 -539.709365 
L 141.369738 -543.766503 
L 142.211735 -534.339624 
L 143.053732 -521.094262 
L 143.89573 -528.253917 
L 144.737727 -520.497624 
L 145.579724 -515.485866 
L 146.421722 -516.440487 
L 147.263719 -512.264021 
L 148.105717 -510.83209 
L 148.947714 -514.889228 
L 149.789711 -508.803521 
L 150.631709 -506.178315 
L 151.473706 -503.672435 
L 152.315703 -499.853953 
L 153.157701 -491.143039 
L 153.999698 -493.529591 
L 154.841696 -490.427074 
L 155.683693 -487.205229 
L 156.52569 -487.682539 
L 157.367688 -486.131281 
L 158.209685 -483.744729 
L 159.051682 -483.744729 
L 159.89368 -476.823729 
L 160.735677 -479.806919 
L 161.577675 -477.062384 
L 162.419672 -475.749781 
L 163.261669 -475.272471 
L 164.103667 -475.272471 
L 164.945664 -474.914488 
L 165.787661 -473.721212 
L 166.629659 -471.692643 
L 167.471656 -471.811971 
L 168.313654 -468.470798 
L 169.155651 -471.811971 
L 169.997648 -469.306092 
L 170.839646 -467.277523 
L 171.681643 -470.260712 
L 172.52364 -468.828781 
L 173.365638 -466.800212 
L 174.207635 -468.470798 
L 175.049633 -467.39685 
L 175.89163 -468.351471 
L 176.733627 -467.39685 
L 177.575625 -467.277523 
L 178.417622 -470.260712 
L 179.259619 -467.993488 
L 180.101617 -466.322902 
L 180.943614 -466.203574 
L 181.785612 -468.351471 
L 182.627609 -468.470798 
L 183.469606 -469.664074 
L 184.311604 -466.800212 
L 185.153601 -467.277523 
L 185.995598 -466.44223 
L 186.837596 -466.203574 
L 187.679593 -467.754833 
L 188.521591 -467.516178 
L 189.363588 -466.800212 
L 190.205585 -466.800212 
L 191.047583 -465.726264 
L 191.88958 -467.158195 
L 192.731577 -465.845592 
L 193.573575 -466.680885 
L 194.415572 -467.39685 
L 195.25757 -466.322902 
L 196.099567 -465.726264 
L 196.941564 -466.203574 
L 197.783562 -465.964919 
L 198.625559 -464.890971 
L 199.467556 -465.129626 
L 200.309554 -466.084247 
L 201.151551 -466.084247 
L 201.993549 -465.487609 
L 202.835546 -464.413661 
L 203.677543 -467.516178 
L 204.519541 -465.248954 
L 205.361538 -462.98173 
L 206.203535 -463.817023 
L 207.045533 -461.430471 
L 207.88753 -461.907781 
L 208.729528 -461.549799 
L 209.571525 -462.027109 
L 210.413522 -460.47585 
L 211.25552 -460.833833 
L 212.097517 -461.311144 
L 212.939514 -460.237195 
L 213.781512 -460.953161 
L 214.623509 -460.356523 
L 215.465507 -459.759885 
L 216.307504 -460.953161 
L 217.149501 -459.99854 
L 217.991499 -460.47585 
L 218.833496 -459.640557 
L 219.675493 -459.52123 
L 220.517491 -460.117868 
L 221.359488 -459.879213 
L 222.201486 -459.043919 
L 223.043483 -460.237195 
L 223.88548 -458.685937 
L 224.727478 -458.805264 
L 225.569475 -458.447282 
L 226.411472 -460.47585 
L 227.25347 -459.879213 
L 228.095467 -459.879213 
L 228.937465 -458.566609 
L 229.779462 -459.282575 
L 230.621459 -459.043919 
L 231.463457 -458.685937 
L 232.305454 -458.805264 
L 233.147451 -458.685937 
L 233.989449 -458.924592 
L 234.831446 -458.566609 
L 235.673444 -458.327954 
L 236.515441 -458.208626 
L 237.357438 -458.566609 
L 238.199436 -458.685937 
L 239.041433 -459.879213 
L 239.88343 -458.924592 
L 240.725428 -458.447282 
L 241.567425 -458.089299 
L 242.409423 -458.685937 
L 243.25142 -458.924592 
L 244.093417 -458.447282 
L 244.935415 -458.924592 
L 245.777412 -459.163247 
L 246.619409 -457.969971 
L 247.461407 -459.401902 
L 248.303404 -459.043919 
L 249.145402 -458.924592 
L 249.987399 -458.447282 
L 250.829396 -459.52123 
L 251.671394 -458.208626 
L 252.513391 -458.685937 
L 253.355388 -459.282575 
L 254.197386 -459.99854 
L 255.039383 -458.924592 
L 255.881381 -459.759885 
L 256.723378 -458.685937 
L 257.565375 -458.685937 
L 258.407373 -459.759885 
L 259.24937 -459.043919 
L 260.091367 -458.924592 
L 260.933365 -458.805264 
L 261.775362 -459.52123 
L 262.61736 -459.043919 
L 263.459357 -460.117868 
L 264.301354 -459.99854 
L 265.143352 -459.640557 
L 265.985349 -459.52123 
L 266.827346 -459.759885 
L 267.669344 -459.163247 
L 268.511341 -459.52123 
L 269.353339 -459.163247 
L 270.195336 -460.356523 
L 271.037333 -458.089299 
L 271.879331 -457.611988 
L 271.879331 -457.373333 
L 271.879331 -457.373333 
L 271.037333 -457.373333 
L 270.195336 -457.373333 
L 269.353339 -457.373333 
L 268.511341 -457.373333 
L 267.669344 -457.373333 
L 266.827346 -457.373333 
L 265.985349 -457.373333 
L 265.143352 -457.373333 
L 264.301354 -457.373333 
L 263.459357 -457.373333 
L 262.61736 -457.373333 
L 261.775362 -457.373333 
L 260.933365 -457.373333 
L 260.091367 -457.373333 
L 259.24937 -457.373333 
L 258.407373 -457.373333 
L 257.565375 -457.373333 
L 256.723378 -457.373333 
L 255.881381 -457.373333 
L 255.039383 -457.373333 
L 254.197386 -457.373333 
L 253.355388 -457.373333 
L 252.513391 -457.373333 
L 251.671394 -457.373333 
L 250.829396 -457.373333 
L 249.987399 -457.373333 
L 249.145402 -457.373333 
L 248.303404 -457.373333 
L 247.461407 -457.373333 
L 246.619409 -457.373333 
L 245.777412 -457.373333 
L 244.935415 -457.373333 
L 244.093417 -457.373333 
L 243.25142 -457.373333 
L 242.409423 -457.373333 
L 241.567425 -457.373333 
L 240.725428 -457.373333 
L 239.88343 -457.373333 
L 239.041433 -457.373333 
L 238.199436 -457.373333 
L 237.357438 -457.373333 
L 236.515441 -457.373333 
L 235.673444 -457.373333 
L 234.831446 -457.373333 
L 233.989449 -457.373333 
L 233.147451 -457.373333 
L 232.305454 -457.373333 
L 231.463457 -457.373333 
L 230.621459 -457.373333 
L 229.779462 -457.373333 
L 228.937465 -457.373333 
L 228.095467 -457.373333 
L 227.25347 -457.373333 
L 226.411472 -457.373333 
L 225.569475 -457.373333 
L 224.727478 -457.373333 
L 223.88548 -457.373333 
L 223.043483 -457.373333 
L 222.201486 -457.373333 
L 221.359488 -457.373333 
L 220.517491 -457.373333 
L 219.675493 -457.373333 
L 218.833496 -457.373333 
L 217.991499 -457.373333 
L 217.149501 -457.373333 
L 216.307504 -457.373333 
L 215.465507 -457.373333 
L 214.623509 -457.373333 
L 213.781512 -457.373333 
L 212.939514 -457.373333 
L 212.097517 -457.373333 
L 211.25552 -457.373333 
L 210.413522 -457.373333 
L 209.571525 -457.373333 
L 208.729528 -457.373333 
L 207.88753 -457.373333 
L 207.045533 -457.373333 
L 206.203535 -457.373333 
L 205.361538 -457.373333 
L 204.519541 -457.373333 
L 203.677543 -457.373333 
L 202.835546 -457.373333 
L 201.993549 -457.373333 
L 201.151551 -457.373333 
L 200.309554 -457.373333 
L 199.467556 -457.373333 
L 198.625559 -457.373333 
L 197.783562 -457.373333 
L 196.941564 -457.373333 
L 196.099567 -457.373333 
L 195.25757 -457.373333 
L 194.415572 -457.373333 
L 193.573575 -457.373333 
L 192.731577 -457.373333 
L 191.88958 -457.373333 
L 191.047583 -457.373333 
L 190.205585 -457.373333 
L 189.363588 -457.373333 
L 188.521591 -457.373333 
L 187.679593 -457.373333 
L 186.837596 -457.373333 
L 185.995598 -457.373333 
L 185.153601 -457.373333 
L 184.311604 -457.373333 
L 183.469606 -457.373333 
L 182.627609 -457.373333 
L 181.785612 -457.373333 
L 180.943614 -457.373333 
L 180.101617 -457.373333 
L 179.259619 -457.373333 
L 178.417622 -457.373333 
L 177.575625 -457.373333 
L 176.733627 -457.373333 
L 175.89163 -457.373333 
L 175.049633 -457.373333 
L 174.207635 -457.373333 
L 173.365638 -457.373333 
L 172.52364 -457.373333 
L 171.681643 -457.373333 
L 170.839646 -457.373333 
L 169.997648 -457.373333 
L 169.155651 -457.373333 
L 168.313654 -457.373333 
L 167.471656 -457.373333 
L 166.629659 -457.373333 
L 165.787661 -457.373333 
L 164.945664 -457.373333 
L 164.103667 -457.373333 
L 163.261669 -457.373333 
L 162.419672 -457.373333 
L 161.577675 -457.373333 
L 160.735677 -457.373333 
L 159.89368 -457.373333 
L 159.051682 -457.373333 
L 158.209685 -457.373333 
L 157.367688 -457.373333 
L 156.52569 -457.373333 
L 155.683693 -457.373333 
L 154.841696 -457.373333 
L 153.999698 -457.373333 
L 153.157701 -457.373333 
L 152.315703 -457.373333 
L 151.473706 -457.373333 
L 150.631709 -457.373333 
L 149.789711 -457.373333 
L 148.947714 -457.373333 
L 148.105717 -457.373333 
L 147.263719 -457.373333 
L 146.421722 -457.373333 
L 145.579724 -457.373333 
L 144.737727 -457.373333 
L 143.89573 -457.373333 
L 143.053732 -457.373333 
L 142.211735 -457.373333 
L 141.369738 -457.373333 
L 140.52774 -457.373333 
L 139.685743 -457.373333 
L 138.843745 -457.373333 
L 138.001748 -457.373333 
L 137.159751 -457.373333 
L 136.317753 -457.373333 
L 135.475756 -457.373333 
L 134.633759 -457.373333 
L 133.791761 -457.373333 
L 132.949764 -457.373333 
L 132.107766 -457.373333 
L 131.265769 -457.373333 
L 130.423772 -457.373333 
L 129.581774 -457.373333 
L 128.739777 -457.373333 
L 127.89778 -457.373333 
L 127.055782 -457.373333 
L 126.213785 -457.373333 
L 125.371787 -457.373333 
L 124.52979 -457.373333 
L 123.687793 -457.373333 
L 122.845795 -457.373333 
L 122.003798 -457.373333 
L 121.161801 -457.373333 
L 120.319803 -457.373333 
L 119.477806 -457.373333 
L 118.635808 -457.373333 
L 117.793811 -457.373333 
L 116.951814 -457.373333 
L 116.109816 -457.373333 
L 115.267819 -457.373333 
L 114.425822 -457.373333 
L 113.583824 -457.373333 
L 112.741827 -457.373333 
L 111.899829 -457.373333 
L 111.057832 -457.373333 
L 110.215835 -457.373333 
L 109.373837 -457.373333 
L 108.53184 -457.373333 
L 107.689843 -457.373333 
L 106.847845 -457.373333 
L 106.005848 -457.373333 
L 105.16385 -457.373333 
L 104.321853 -457.373333 
L 103.479856 -457.373333 
L 102.637858 -457.373333 
L 101.795861 -457.373333 
L 100.953864 -457.373333 
L 100.111866 -457.373333 
L 99.269869 -457.373333 
L 98.427871 -457.373333 
L 97.585874 -457.373333 
L 96.743877 -457.373333 
L 95.901879 -457.373333 
L 95.059882 -457.373333 
L 94.217885 -457.373333 
L 93.375887 -457.373333 
L 92.53389 -457.373333 
L 91.691892 -457.373333 
L 90.849895 -457.373333 
L 90.007898 -457.373333 
L 89.1659 -457.373333 
L 88.323903 -457.373333 
L 87.481906 -457.373333 
L 86.639908 -457.373333 
L 85.797911 -457.373333 
L 84.955913 -457.373333 
L 84.113916 -457.373333 
L 83.271919 -457.373333 
L 82.429921 -457.373333 
L 81.587924 -457.373333 
L 80.745927 -457.373333 
L 79.903929 -457.373333 
L 79.061932 -457.373333 
L 78.219934 -457.373333 
L 77.377937 -457.373333 
L 76.53594 -457.373333 
L 75.693942 -457.373333 
L 74.851945 -457.373333 
L 74.009948 -457.373333 
L 73.16795 -457.373333 
L 72.325953 -457.373333 
L 71.483955 -457.373333 
L 70.641958 -457.373333 
L 69.799961 -457.373333 
L 68.957963 -457.373333 
L 68.115966 -457.373333 
L 67.273969 -457.373333 
L 66.431971 -457.373333 
L 65.589974 -457.373333 
L 64.747976 -457.373333 
L 63.905979 -457.373333 
L 63.063982 -457.373333 
L 62.221984 -457.373333 
L 61.379987 -457.373333 
L 60.53799 -457.373333 
L 59.695992 -457.373333 
L 58.853995 -457.373333 
L 58.011997 -457.373333 
L 57.17 -457.373333 
z
" style="stroke: #ff0000; stroke-opacity: 0.4"/>
    </defs>
    <g clip-path="url(#pb37daa2df8)">
     <use xlink:href="#m376ec8335d" x="0" y="648" style="fill: #ff0000; fill-opacity: 0.4; stroke: #ff0000; stroke-opacity: 0.4"/>
    </g>
   </g>
   <g id="matplotlib.axis_1">
    <g id="xtick_1">
     <g id="line2d_1">
      <defs>
       <path id="m23b951c0f1" d="M 0 0 
L 0 3.5 
" style="stroke: #000000; stroke-width: 0.8"/>
      </defs>
      <g>
       <use xlink:href="#m23b951c0f1" x="57.17" y="190.626667" style="stroke: #000000; stroke-width: 0.8"/>
      </g>
     </g>
     <g id="text_1">
      <!-- 0 -->
      <g transform="translate(53.98875 205.225104) scale(0.1 -0.1)">
       <defs>
        <path id="DejaVuSans-30" d="M 2034 4250 
Q 1547 4250 1301 3770 
Q 1056 3291 1056 2328 
Q 1056 1369 1301 889 
Q 1547 409 2034 409 
Q 2525 409 2770 889 
Q 3016 1369 3016 2328 
Q 3016 3291 2770 3770 
Q 2525 4250 2034 4250 
z
M 2034 4750 
Q 2819 4750 3233 4129 
Q 3647 3509 3647 2328 
Q 3647 1150 3233 529 
Q 2819 -91 2034 -91 
Q 1250 -91 836 529 
Q 422 1150 422 2328 
Q 422 3509 836 4129 
Q 1250 4750 2034 4750 
z
" transform="scale(0.015625)"/>
       </defs>
       <use xlink:href="#DejaVuSans-30"/>
      </g>
     </g>
    </g>
    <g id="xtick_2">
     <g id="line2d_2">
      <g>
       <use xlink:href="#m23b951c0f1" x="99.269869" y="190.626667" style="stroke: #000000; stroke-width: 0.8"/>
      </g>
     </g>
     <g id="text_2">
      <!-- 50 -->
      <g transform="translate(92.907369 205.225104) scale(0.1 -0.1)">
       <defs>
        <path id="DejaVuSans-35" d="M 691 4666 
L 3169 4666 
L 3169 4134 
L 1269 4134 
L 1269 2991 
Q 1406 3038 1543 3061 
Q 1681 3084 1819 3084 
Q 2600 3084 3056 2656 
Q 3513 2228 3513 1497 
Q 3513 744 3044 326 
Q 2575 -91 1722 -91 
Q 1428 -91 1123 -41 
Q 819 9 494 109 
L 494 744 
Q 775 591 1075 516 
Q 1375 441 1709 441 
Q 2250 441 2565 725 
Q 2881 1009 2881 1497 
Q 2881 1984 2565 2268 
Q 2250 2553 1709 2553 
Q 1456 2553 1204 2497 
Q 953 2441 691 2322 
L 691 4666 
z
" transform="scale(0.015625)"/>
       </defs>
       <use xlink:href="#DejaVuSans-35"/>
       <use xlink:href="#DejaVuSans-30" x="63.623047"/>
      </g>
     </g>
    </g>
    <g id="xtick_3">
     <g id="line2d_3">
      <g>
       <use xlink:href="#m23b951c0f1" x="141.369738" y="190.626667" style="stroke: #000000; stroke-width: 0.8"/>
      </g>
     </g>
     <g id="text_3">
      <!-- 100 -->
      <g transform="translate(131.825988 205.225104) scale(0.1 -0.1)">
       <defs>
        <path id="DejaVuSans-31" d="M 794 531 
L 1825 531 
L 1825 4091 
L 703 3866 
L 703 4441 
L 1819 4666 
L 2450 4666 
L 2450 531 
L 3481 531 
L 3481 0 
L 794 0 
L 794 531 
z
" transform="scale(0.015625)"/>
       </defs>
       <use xlink:href="#DejaVuSans-31"/>
       <use xlink:href="#DejaVuSans-30" x="63.623047"/>
       <use xlink:href="#DejaVuSans-30" x="127.246094"/>
      </g>
     </g>
    </g>
    <g id="xtick_4">
     <g id="line2d_4">
      <g>
       <use xlink:href="#m23b951c0f1" x="183.469606" y="190.626667" style="stroke: #000000; stroke-width: 0.8"/>
      </g>
     </g>
     <g id="text_4">
      <!-- 150 -->
      <g transform="translate(173.925856 205.225104) scale(0.1 -0.1)">
       <use xlink:href="#DejaVuSans-31"/>
       <use xlink:href="#DejaVuSans-35" x="63.623047"/>
       <use xlink:href="#DejaVuSans-30" x="127.246094"/>
      </g>
     </g>
    </g>
    <g id="xtick_5">
     <g id="line2d_5">
      <g>
       <use xlink:href="#m23b951c0f1" x="225.569475" y="190.626667" style="stroke: #000000; stroke-width: 0.8"/>
      </g>
     </g>
     <g id="text_5">
      <!-- 200 -->
      <g transform="translate(216.025725 205.225104) scale(0.1 -0.1)">
       <defs>
        <path id="DejaVuSans-32" d="M 1228 531 
L 3431 531 
L 3431 0 
L 469 0 
L 469 531 
Q 828 903 1448 1529 
Q 2069 2156 2228 2338 
Q 2531 2678 2651 2914 
Q 2772 3150 2772 3378 
Q 2772 3750 2511 3984 
Q 2250 4219 1831 4219 
Q 1534 4219 1204 4116 
Q 875 4013 500 3803 
L 500 4441 
Q 881 4594 1212 4672 
Q 1544 4750 1819 4750 
Q 2544 4750 2975 4387 
Q 3406 4025 3406 3419 
Q 3406 3131 3298 2873 
Q 3191 2616 2906 2266 
Q 2828 2175 2409 1742 
Q 1991 1309 1228 531 
z
" transform="scale(0.015625)"/>
       </defs>
       <use xlink:href="#DejaVuSans-32"/>
       <use xlink:href="#DejaVuSans-30" x="63.623047"/>
       <use xlink:href="#DejaVuSans-30" x="127.246094"/>
      </g>
     </g>
    </g>
    <g id="xtick_6">
     <g id="line2d_6">
      <g>
       <use xlink:href="#m23b951c0f1" x="267.669344" y="190.626667" style="stroke: #000000; stroke-width: 0.8"/>
      </g>
     </g>
     <g id="text_6">
      <!-- 250 -->
      <g transform="translate(258.125594 205.225104) scale(0.1 -0.1)">
       <use xlink:href="#DejaVuSans-32"/>
       <use xlink:href="#DejaVuSans-35" x="63.623047"/>
       <use xlink:href="#DejaVuSans-30" x="127.246094"/>
      </g>
     </g>
    </g>
   </g>
   <g id="matplotlib.axis_2">
    <g id="ytick_1">
     <g id="line2d_7">
      <defs>
       <path id="m50012ece43" d="M 0 0 
L -3.5 0 
" style="stroke: #000000; stroke-width: 0.8"/>
      </defs>
      <g>
       <use xlink:href="#m50012ece43" x="57.17" y="190.626667" style="stroke: #000000; stroke-width: 0.8"/>
      </g>
     </g>
     <g id="text_7">
      <!-- 0 -->
      <g transform="translate(43.8075 194.425885) scale(0.1 -0.1)">
       <use xlink:href="#DejaVuSans-30"/>
      </g>
     </g>
    </g>
    <g id="ytick_2">
     <g id="line2d_8">
      <g>
       <use xlink:href="#m50012ece43" x="57.17" y="166.76115" style="stroke: #000000; stroke-width: 0.8"/>
      </g>
     </g>
     <g id="text_8">
      <!-- 200 -->
      <g transform="translate(31.0825 170.560369) scale(0.1 -0.1)">
       <use xlink:href="#DejaVuSans-32"/>
       <use xlink:href="#DejaVuSans-30" x="63.623047"/>
       <use xlink:href="#DejaVuSans-30" x="127.246094"/>
      </g>
     </g>
    </g>
    <g id="ytick_3">
     <g id="line2d_9">
      <g>
       <use xlink:href="#m50012ece43" x="57.17" y="142.895634" style="stroke: #000000; stroke-width: 0.8"/>
      </g>
     </g>
     <g id="text_9">
      <!-- 400 -->
      <g transform="translate(31.0825 146.694852) scale(0.1 -0.1)">
       <defs>
        <path id="DejaVuSans-34" d="M 2419 4116 
L 825 1625 
L 2419 1625 
L 2419 4116 
z
M 2253 4666 
L 3047 4666 
L 3047 1625 
L 3713 1625 
L 3713 1100 
L 3047 1100 
L 3047 0 
L 2419 0 
L 2419 1100 
L 313 1100 
L 313 1709 
L 2253 4666 
z
" transform="scale(0.015625)"/>
       </defs>
       <use xlink:href="#DejaVuSans-34"/>
       <use xlink:href="#DejaVuSans-30" x="63.623047"/>
       <use xlink:href="#DejaVuSans-30" x="127.246094"/>
      </g>
     </g>
    </g>
    <g id="ytick_4">
     <g id="line2d_10">
      <g>
       <use xlink:href="#m50012ece43" x="57.17" y="119.030117" style="stroke: #000000; stroke-width: 0.8"/>
      </g>
     </g>
     <g id="text_10">
      <!-- 600 -->
      <g transform="translate(31.0825 122.829336) scale(0.1 -0.1)">
       <defs>
        <path id="DejaVuSans-36" d="M 2113 2584 
Q 1688 2584 1439 2293 
Q 1191 2003 1191 1497 
Q 1191 994 1439 701 
Q 1688 409 2113 409 
Q 2538 409 2786 701 
Q 3034 994 3034 1497 
Q 3034 2003 2786 2293 
Q 2538 2584 2113 2584 
z
M 3366 4563 
L 3366 3988 
Q 3128 4100 2886 4159 
Q 2644 4219 2406 4219 
Q 1781 4219 1451 3797 
Q 1122 3375 1075 2522 
Q 1259 2794 1537 2939 
Q 1816 3084 2150 3084 
Q 2853 3084 3261 2657 
Q 3669 2231 3669 1497 
Q 3669 778 3244 343 
Q 2819 -91 2113 -91 
Q 1303 -91 875 529 
Q 447 1150 447 2328 
Q 447 3434 972 4092 
Q 1497 4750 2381 4750 
Q 2619 4750 2861 4703 
Q 3103 4656 3366 4563 
z
" transform="scale(0.015625)"/>
       </defs>
       <use xlink:href="#DejaVuSans-36"/>
       <use xlink:href="#DejaVuSans-30" x="63.623047"/>
       <use xlink:href="#DejaVuSans-30" x="127.246094"/>
      </g>
     </g>
    </g>
    <g id="ytick_5">
     <g id="line2d_11">
      <g>
       <use xlink:href="#m50012ece43" x="57.17" y="95.164601" style="stroke: #000000; stroke-width: 0.8"/>
      </g>
     </g>
     <g id="text_11">
      <!-- 800 -->
      <g transform="translate(31.0825 98.96382) scale(0.1 -0.1)">
       <defs>
        <path id="DejaVuSans-38" d="M 2034 2216 
Q 1584 2216 1326 1975 
Q 1069 1734 1069 1313 
Q 1069 891 1326 650 
Q 1584 409 2034 409 
Q 2484 409 2743 651 
Q 3003 894 3003 1313 
Q 3003 1734 2745 1975 
Q 2488 2216 2034 2216 
z
M 1403 2484 
Q 997 2584 770 2862 
Q 544 3141 544 3541 
Q 544 4100 942 4425 
Q 1341 4750 2034 4750 
Q 2731 4750 3128 4425 
Q 3525 4100 3525 3541 
Q 3525 3141 3298 2862 
Q 3072 2584 2669 2484 
Q 3125 2378 3379 2068 
Q 3634 1759 3634 1313 
Q 3634 634 3220 271 
Q 2806 -91 2034 -91 
Q 1263 -91 848 271 
Q 434 634 434 1313 
Q 434 1759 690 2068 
Q 947 2378 1403 2484 
z
M 1172 3481 
Q 1172 3119 1398 2916 
Q 1625 2713 2034 2713 
Q 2441 2713 2670 2916 
Q 2900 3119 2900 3481 
Q 2900 3844 2670 4047 
Q 2441 4250 2034 4250 
Q 1625 4250 1398 4047 
Q 1172 3844 1172 3481 
z
" transform="scale(0.015625)"/>
       </defs>
       <use xlink:href="#DejaVuSans-38"/>
       <use xlink:href="#DejaVuSans-30" x="63.623047"/>
       <use xlink:href="#DejaVuSans-30" x="127.246094"/>
      </g>
     </g>
    </g>
    <g id="ytick_6">
     <g id="line2d_12">
      <g>
       <use xlink:href="#m50012ece43" x="57.17" y="71.299084" style="stroke: #000000; stroke-width: 0.8"/>
      </g>
     </g>
     <g id="text_12">
      <!-- 1000 -->
      <g transform="translate(24.72 75.098303) scale(0.1 -0.1)">
       <use xlink:href="#DejaVuSans-31"/>
       <use xlink:href="#DejaVuSans-30" x="63.623047"/>
       <use xlink:href="#DejaVuSans-30" x="127.246094"/>
       <use xlink:href="#DejaVuSans-30" x="190.869141"/>
      </g>
     </g>
    </g>
    <g id="ytick_7">
     <g id="line2d_13">
      <g>
       <use xlink:href="#m50012ece43" x="57.17" y="47.433568" style="stroke: #000000; stroke-width: 0.8"/>
      </g>
     </g>
     <g id="text_13">
      <!-- 1200 -->
      <g transform="translate(24.72 51.232787) scale(0.1 -0.1)">
       <use xlink:href="#DejaVuSans-31"/>
       <use xlink:href="#DejaVuSans-32" x="63.623047"/>
       <use xlink:href="#DejaVuSans-30" x="127.246094"/>
       <use xlink:href="#DejaVuSans-30" x="190.869141"/>
      </g>
     </g>
    </g>
    <g id="ytick_8">
     <g id="line2d_14">
      <g>
       <use xlink:href="#m50012ece43" x="57.17" y="23.568051" style="stroke: #000000; stroke-width: 0.8"/>
      </g>
     </g>
     <g id="text_14">
      <!-- 1400 -->
      <g transform="translate(24.72 27.36727) scale(0.1 -0.1)">
       <use xlink:href="#DejaVuSans-31"/>
       <use xlink:href="#DejaVuSans-34" x="63.623047"/>
       <use xlink:href="#DejaVuSans-30" x="127.246094"/>
       <use xlink:href="#DejaVuSans-30" x="190.869141"/>
      </g>
     </g>
    </g>
    <g id="text_15">
     <!-- Pixel Frequency -->
     <g transform="translate(18.640313 139.69224) rotate(-90) scale(0.1 -0.1)">
      <defs>
       <path id="DejaVuSans-50" d="M 1259 4147 
L 1259 2394 
L 2053 2394 
Q 2494 2394 2734 2622 
Q 2975 2850 2975 3272 
Q 2975 3691 2734 3919 
Q 2494 4147 2053 4147 
L 1259 4147 
z
M 628 4666 
L 2053 4666 
Q 2838 4666 3239 4311 
Q 3641 3956 3641 3272 
Q 3641 2581 3239 2228 
Q 2838 1875 2053 1875 
L 1259 1875 
L 1259 0 
L 628 0 
L 628 4666 
z
" transform="scale(0.015625)"/>
       <path id="DejaVuSans-69" d="M 603 3500 
L 1178 3500 
L 1178 0 
L 603 0 
L 603 3500 
z
M 603 4863 
L 1178 4863 
L 1178 4134 
L 603 4134 
L 603 4863 
z
" transform="scale(0.015625)"/>
       <path id="DejaVuSans-78" d="M 3513 3500 
L 2247 1797 
L 3578 0 
L 2900 0 
L 1881 1375 
L 863 0 
L 184 0 
L 1544 1831 
L 300 3500 
L 978 3500 
L 1906 2253 
L 2834 3500 
L 3513 3500 
z
" transform="scale(0.015625)"/>
       <path id="DejaVuSans-65" d="M 3597 1894 
L 3597 1613 
L 953 1613 
Q 991 1019 1311 708 
Q 1631 397 2203 397 
Q 2534 397 2845 478 
Q 3156 559 3463 722 
L 3463 178 
Q 3153 47 2828 -22 
Q 2503 -91 2169 -91 
Q 1331 -91 842 396 
Q 353 884 353 1716 
Q 353 2575 817 3079 
Q 1281 3584 2069 3584 
Q 2775 3584 3186 3129 
Q 3597 2675 3597 1894 
z
M 3022 2063 
Q 3016 2534 2758 2815 
Q 2500 3097 2075 3097 
Q 1594 3097 1305 2825 
Q 1016 2553 972 2059 
L 3022 2063 
z
" transform="scale(0.015625)"/>
       <path id="DejaVuSans-6c" d="M 603 4863 
L 1178 4863 
L 1178 0 
L 603 0 
L 603 4863 
z
" transform="scale(0.015625)"/>
       <path id="DejaVuSans-20" transform="scale(0.015625)"/>
       <path id="DejaVuSans-46" d="M 628 4666 
L 3309 4666 
L 3309 4134 
L 1259 4134 
L 1259 2759 
L 3109 2759 
L 3109 2228 
L 1259 2228 
L 1259 0 
L 628 0 
L 628 4666 
z
" transform="scale(0.015625)"/>
       <path id="DejaVuSans-72" d="M 2631 2963 
Q 2534 3019 2420 3045 
Q 2306 3072 2169 3072 
Q 1681 3072 1420 2755 
Q 1159 2438 1159 1844 
L 1159 0 
L 581 0 
L 581 3500 
L 1159 3500 
L 1159 2956 
Q 1341 3275 1631 3429 
Q 1922 3584 2338 3584 
Q 2397 3584 2469 3576 
Q 2541 3569 2628 3553 
L 2631 2963 
z
" transform="scale(0.015625)"/>
       <path id="DejaVuSans-71" d="M 947 1747 
Q 947 1113 1208 752 
Q 1469 391 1925 391 
Q 2381 391 2643 752 
Q 2906 1113 2906 1747 
Q 2906 2381 2643 2742 
Q 2381 3103 1925 3103 
Q 1469 3103 1208 2742 
Q 947 2381 947 1747 
z
M 2906 525 
Q 2725 213 2448 61 
Q 2172 -91 1784 -91 
Q 1150 -91 751 415 
Q 353 922 353 1747 
Q 353 2572 751 3078 
Q 1150 3584 1784 3584 
Q 2172 3584 2448 3432 
Q 2725 3281 2906 2969 
L 2906 3500 
L 3481 3500 
L 3481 -1331 
L 2906 -1331 
L 2906 525 
z
" transform="scale(0.015625)"/>
       <path id="DejaVuSans-75" d="M 544 1381 
L 544 3500 
L 1119 3500 
L 1119 1403 
Q 1119 906 1312 657 
Q 1506 409 1894 409 
Q 2359 409 2629 706 
Q 2900 1003 2900 1516 
L 2900 3500 
L 3475 3500 
L 3475 0 
L 2900 0 
L 2900 538 
Q 2691 219 2414 64 
Q 2138 -91 1772 -91 
Q 1169 -91 856 284 
Q 544 659 544 1381 
z
M 1991 3584 
L 1991 3584 
z
" transform="scale(0.015625)"/>
       <path id="DejaVuSans-6e" d="M 3513 2113 
L 3513 0 
L 2938 0 
L 2938 2094 
Q 2938 2591 2744 2837 
Q 2550 3084 2163 3084 
Q 1697 3084 1428 2787 
Q 1159 2491 1159 1978 
L 1159 0 
L 581 0 
L 581 3500 
L 1159 3500 
L 1159 2956 
Q 1366 3272 1645 3428 
Q 1925 3584 2291 3584 
Q 2894 3584 3203 3211 
Q 3513 2838 3513 2113 
z
" transform="scale(0.015625)"/>
       <path id="DejaVuSans-63" d="M 3122 3366 
L 3122 2828 
Q 2878 2963 2633 3030 
Q 2388 3097 2138 3097 
Q 1578 3097 1268 2742 
Q 959 2388 959 1747 
Q 959 1106 1268 751 
Q 1578 397 2138 397 
Q 2388 397 2633 464 
Q 2878 531 3122 666 
L 3122 134 
Q 2881 22 2623 -34 
Q 2366 -91 2075 -91 
Q 1284 -91 818 406 
Q 353 903 353 1747 
Q 353 2603 823 3093 
Q 1294 3584 2113 3584 
Q 2378 3584 2631 3529 
Q 2884 3475 3122 3366 
z
" transform="scale(0.015625)"/>
       <path id="DejaVuSans-79" d="M 2059 -325 
Q 1816 -950 1584 -1140 
Q 1353 -1331 966 -1331 
L 506 -1331 
L 506 -850 
L 844 -850 
Q 1081 -850 1212 -737 
Q 1344 -625 1503 -206 
L 1606 56 
L 191 3500 
L 800 3500 
L 1894 763 
L 2988 3500 
L 3597 3500 
L 2059 -325 
z
" transform="scale(0.015625)"/>
      </defs>
      <use xlink:href="#DejaVuSans-50"/>
      <use xlink:href="#DejaVuSans-69" x="58.052734"/>
      <use xlink:href="#DejaVuSans-78" x="85.835938"/>
      <use xlink:href="#DejaVuSans-65" x="141.890625"/>
      <use xlink:href="#DejaVuSans-6c" x="203.414062"/>
      <use xlink:href="#DejaVuSans-20" x="231.197266"/>
      <use xlink:href="#DejaVuSans-46" x="262.984375"/>
      <use xlink:href="#DejaVuSans-72" x="313.253906"/>
      <use xlink:href="#DejaVuSans-65" x="352.117188"/>
      <use xlink:href="#DejaVuSans-71" x="413.640625"/>
      <use xlink:href="#DejaVuSans-75" x="477.117188"/>
      <use xlink:href="#DejaVuSans-65" x="540.496094"/>
      <use xlink:href="#DejaVuSans-6e" x="602.019531"/>
      <use xlink:href="#DejaVuSans-63" x="665.398438"/>
      <use xlink:href="#DejaVuSans-79" x="720.378906"/>
     </g>
    </g>
   </g>
   <g id="line2d_15">
    <path d="M 57.17 190.626667 
L 79.061932 190.626667 
L 79.903929 190.030029 
L 80.745927 190.149356 
L 81.587924 189.791374 
L 82.429921 188.956081 
L 83.271919 189.910701 
L 84.113916 186.211546 
L 84.955913 180.006512 
L 85.797911 172.130891 
L 86.639908 160.556116 
L 87.481906 144.685547 
L 89.1659 116.166255 
L 90.007898 110.557859 
L 91.691892 128.695651 
L 92.53389 141.463703 
L 94.217885 156.021668 
L 95.059882 160.436788 
L 95.901879 159.720823 
L 97.585874 161.749392 
L 98.427871 163.777961 
L 99.269869 163.539305 
L 100.111866 164.732581 
L 100.953864 165.090564 
L 101.795861 167.954426 
L 102.637858 170.22165 
L 103.479856 170.579633 
L 104.321853 172.250219 
L 105.16385 174.756098 
L 106.847845 166.522495 
L 107.689843 165.448547 
L 108.53184 165.448547 
L 109.373837 158.88553 
L 110.215835 159.36284 
L 111.057832 152.203185 
L 111.899829 148.384702 
L 112.741827 151.96453 
L 113.583824 154.470409 
L 115.267819 145.520841 
L 116.109816 150.413271 
L 116.951814 148.623358 
L 117.793811 137.048582 
L 118.635808 138.12253 
L 119.477806 125.831789 
L 120.319803 122.609945 
L 121.161801 115.688945 
L 122.003798 112.347773 
L 122.845795 106.262066 
L 123.687793 104.59148 
L 124.52979 94.806618 
L 125.371787 94.567963 
L 126.213785 84.305791 
L 127.89778 72.373033 
L 128.739777 73.327653 
L 129.581774 56.621792 
L 130.423772 66.525981 
L 131.265769 59.724309 
L 132.107766 69.03186 
L 132.949764 65.452033 
L 134.633759 76.788153 
L 135.475756 78.578067 
L 136.317753 94.20998 
L 137.159751 93.971325 
L 138.001748 93.494015 
L 138.843745 105.5461 
L 139.685743 99.937704 
L 140.52774 108.290635 
L 141.369738 104.233497 
L 142.211735 113.660376 
L 143.053732 126.905738 
L 143.89573 119.746083 
L 144.737727 127.502376 
L 145.579724 132.514134 
L 146.421722 131.559513 
L 147.263719 135.735979 
L 148.105717 137.16791 
L 148.947714 133.110772 
L 149.789711 139.196479 
L 151.473706 144.327565 
L 152.315703 148.146047 
L 153.157701 156.856961 
L 153.999698 154.470409 
L 155.683693 160.794771 
L 156.52569 160.317461 
L 157.367688 161.868719 
L 158.209685 164.255271 
L 159.051682 164.255271 
L 159.89368 171.176271 
L 160.735677 168.193081 
L 161.577675 170.937616 
L 162.419672 172.250219 
L 163.261669 172.727529 
L 164.103667 172.727529 
L 164.945664 173.085512 
L 165.787661 174.278788 
L 166.629659 176.307357 
L 167.471656 176.188029 
L 168.313654 179.529202 
L 169.155651 176.188029 
L 169.997648 178.693908 
L 170.839646 180.722477 
L 171.681643 177.739288 
L 172.52364 179.171219 
L 173.365638 181.199788 
L 174.207635 179.529202 
L 175.049633 180.60315 
L 175.89163 179.648529 
L 176.733627 180.60315 
L 177.575625 180.722477 
L 178.417622 177.739288 
L 179.259619 180.006512 
L 180.101617 181.677098 
L 180.943614 181.796426 
L 181.785612 179.648529 
L 182.627609 179.529202 
L 183.469606 178.335926 
L 184.311604 181.199788 
L 185.153601 180.722477 
L 185.995598 181.55777 
L 186.837596 181.796426 
L 187.679593 180.245167 
L 188.521591 180.483822 
L 189.363588 181.199788 
L 190.205585 181.199788 
L 191.047583 182.273736 
L 191.88958 180.841805 
L 192.731577 182.154408 
L 194.415572 180.60315 
L 195.25757 181.677098 
L 196.099567 182.273736 
L 196.941564 181.796426 
L 197.783562 182.035081 
L 198.625559 183.109029 
L 199.467556 182.870374 
L 200.309554 181.915753 
L 201.151551 181.915753 
L 201.993549 182.512391 
L 202.835546 183.586339 
L 203.677543 180.483822 
L 205.361538 185.01827 
L 206.203535 184.182977 
L 207.045533 186.569529 
L 207.88753 186.092219 
L 208.729528 186.450201 
L 209.571525 185.972891 
L 210.413522 187.52415 
L 212.097517 186.688856 
L 212.939514 187.762805 
L 213.781512 187.046839 
L 215.465507 188.240115 
L 216.307504 187.046839 
L 217.149501 188.00146 
L 217.991499 187.52415 
L 218.833496 188.359443 
L 219.675493 188.47877 
L 220.517491 187.882132 
L 221.359488 188.120787 
L 222.201486 188.956081 
L 223.043483 187.762805 
L 223.88548 189.314063 
L 224.727478 189.194736 
L 225.569475 189.552718 
L 226.411472 187.52415 
L 227.25347 188.120787 
L 228.095467 188.120787 
L 228.937465 189.433391 
L 229.779462 188.717425 
L 230.621459 188.956081 
L 231.463457 189.314063 
L 232.305454 189.194736 
L 233.147451 189.314063 
L 233.989449 189.075408 
L 235.673444 189.672046 
L 236.515441 189.791374 
L 237.357438 189.433391 
L 238.199436 189.314063 
L 239.041433 188.120787 
L 239.88343 189.075408 
L 241.567425 189.910701 
L 242.409423 189.314063 
L 243.25142 189.075408 
L 244.093417 189.552718 
L 244.935415 189.075408 
L 245.777412 188.836753 
L 246.619409 190.030029 
L 247.461407 188.598098 
L 248.303404 188.956081 
L 249.145402 189.075408 
L 249.987399 189.552718 
L 250.829396 188.47877 
L 251.671394 189.791374 
L 253.355388 188.717425 
L 254.197386 188.00146 
L 255.039383 189.075408 
L 255.881381 188.240115 
L 256.723378 189.314063 
L 257.565375 189.314063 
L 258.407373 188.240115 
L 259.24937 188.956081 
L 260.933365 189.194736 
L 261.775362 188.47877 
L 262.61736 188.956081 
L 263.459357 187.882132 
L 264.301354 188.00146 
L 265.143352 188.359443 
L 265.985349 188.47877 
L 266.827346 188.240115 
L 267.669344 188.836753 
L 268.511341 188.47877 
L 269.353339 188.836753 
L 270.195336 187.643477 
L 271.037333 189.910701 
L 271.879331 190.388012 
L 271.879331 190.388012 
" clip-path="url(#pb37daa2df8)" style="fill: none; stroke: #ff0000; stroke-width: 1.5; stroke-linecap: square"/>
   </g>
   <g id="patch_3">
    <path d="M 57.17 190.626667 
L 57.17 10.8 
" style="fill: none; stroke: #000000; stroke-width: 0.8; stroke-linejoin: miter; stroke-linecap: square"/>
   </g>
   <g id="patch_4">
    <path d="M 272.721328 190.626667 
L 272.721328 10.8 
" style="fill: none; stroke: #000000; stroke-width: 0.8; stroke-linejoin: miter; stroke-linecap: square"/>
   </g>
   <g id="patch_5">
    <path d="M 57.17 190.626667 
L 272.721328 190.626667 
" style="fill: none; stroke: #000000; stroke-width: 0.8; stroke-linejoin: miter; stroke-linecap: square"/>
   </g>
   <g id="patch_6">
    <path d="M 57.17 10.8 
L 272.721328 10.8 
" style="fill: none; stroke: #000000; stroke-width: 0.8; stroke-linejoin: miter; stroke-linecap: square"/>
   </g>
   <g id="text_16">
    <!-- Red Channel  -->
    <g transform="translate(193.028203 24.8) scale(0.12 -0.12)">
     <defs>
      <path id="DejaVuSans-52" d="M 2841 2188 
Q 3044 2119 3236 1894 
Q 3428 1669 3622 1275 
L 4263 0 
L 3584 0 
L 2988 1197 
Q 2756 1666 2539 1819 
Q 2322 1972 1947 1972 
L 1259 1972 
L 1259 0 
L 628 0 
L 628 4666 
L 2053 4666 
Q 2853 4666 3247 4331 
Q 3641 3997 3641 3322 
Q 3641 2881 3436 2590 
Q 3231 2300 2841 2188 
z
M 1259 4147 
L 1259 2491 
L 2053 2491 
Q 2509 2491 2742 2702 
Q 2975 2913 2975 3322 
Q 2975 3731 2742 3939 
Q 2509 4147 2053 4147 
L 1259 4147 
z
" transform="scale(0.015625)"/>
      <path id="DejaVuSans-64" d="M 2906 2969 
L 2906 4863 
L 3481 4863 
L 3481 0 
L 2906 0 
L 2906 525 
Q 2725 213 2448 61 
Q 2172 -91 1784 -91 
Q 1150 -91 751 415 
Q 353 922 353 1747 
Q 353 2572 751 3078 
Q 1150 3584 1784 3584 
Q 2172 3584 2448 3432 
Q 2725 3281 2906 2969 
z
M 947 1747 
Q 947 1113 1208 752 
Q 1469 391 1925 391 
Q 2381 391 2643 752 
Q 2906 1113 2906 1747 
Q 2906 2381 2643 2742 
Q 2381 3103 1925 3103 
Q 1469 3103 1208 2742 
Q 947 2381 947 1747 
z
" transform="scale(0.015625)"/>
      <path id="DejaVuSans-43" d="M 4122 4306 
L 4122 3641 
Q 3803 3938 3442 4084 
Q 3081 4231 2675 4231 
Q 1875 4231 1450 3742 
Q 1025 3253 1025 2328 
Q 1025 1406 1450 917 
Q 1875 428 2675 428 
Q 3081 428 3442 575 
Q 3803 722 4122 1019 
L 4122 359 
Q 3791 134 3420 21 
Q 3050 -91 2638 -91 
Q 1578 -91 968 557 
Q 359 1206 359 2328 
Q 359 3453 968 4101 
Q 1578 4750 2638 4750 
Q 3056 4750 3426 4639 
Q 3797 4528 4122 4306 
z
" transform="scale(0.015625)"/>
      <path id="DejaVuSans-68" d="M 3513 2113 
L 3513 0 
L 2938 0 
L 2938 2094 
Q 2938 2591 2744 2837 
Q 2550 3084 2163 3084 
Q 1697 3084 1428 2787 
Q 1159 2491 1159 1978 
L 1159 0 
L 581 0 
L 581 4863 
L 1159 4863 
L 1159 2956 
Q 1366 3272 1645 3428 
Q 1925 3584 2291 3584 
Q 2894 3584 3203 3211 
Q 3513 2838 3513 2113 
z
" transform="scale(0.015625)"/>
      <path id="DejaVuSans-61" d="M 2194 1759 
Q 1497 1759 1228 1600 
Q 959 1441 959 1056 
Q 959 750 1161 570 
Q 1363 391 1709 391 
Q 2188 391 2477 730 
Q 2766 1069 2766 1631 
L 2766 1759 
L 2194 1759 
z
M 3341 1997 
L 3341 0 
L 2766 0 
L 2766 531 
Q 2569 213 2275 61 
Q 1981 -91 1556 -91 
Q 1019 -91 701 211 
Q 384 513 384 1019 
Q 384 1609 779 1909 
Q 1175 2209 1959 2209 
L 2766 2209 
L 2766 2266 
Q 2766 2663 2505 2880 
Q 2244 3097 1772 3097 
Q 1472 3097 1187 3025 
Q 903 2953 641 2809 
L 641 3341 
Q 956 3463 1253 3523 
Q 1550 3584 1831 3584 
Q 2591 3584 2966 3190 
Q 3341 2797 3341 1997 
z
" transform="scale(0.015625)"/>
     </defs>
     <use xlink:href="#DejaVuSans-52"/>
     <use xlink:href="#DejaVuSans-65" x="64.982422"/>
     <use xlink:href="#DejaVuSans-64" x="126.505859"/>
     <use xlink:href="#DejaVuSans-20" x="189.982422"/>
     <use xlink:href="#DejaVuSans-43" x="221.769531"/>
     <use xlink:href="#DejaVuSans-68" x="291.59375"/>
     <use xlink:href="#DejaVuSans-61" x="354.972656"/>
     <use xlink:href="#DejaVuSans-6e" x="416.251953"/>
     <use xlink:href="#DejaVuSans-6e" x="479.630859"/>
     <use xlink:href="#DejaVuSans-65" x="543.009766"/>
     <use xlink:href="#DejaVuSans-6c" x="604.533203"/>
     <use xlink:href="#DejaVuSans-20" x="632.316406"/>
    </g>
   </g>
  </g>
  <g id="axes_2">
   <g id="patch_7">
    <path d="M 57.17 398.333333 
L 272.721328 398.333333 
L 272.721328 218.506667 
L 57.17 218.506667 
z
" style="fill: #ffffff"/>
   </g>
   <g id="PolyCollection_2">
    <defs>
     <path id="m42f048b4d1" d="M 57.17 -249.666667 
L 57.17 -249.666667 
L 58.011997 -249.666667 
L 58.853995 -249.666667 
L 59.695992 -249.666667 
L 60.53799 -249.666667 
L 61.379987 -249.666667 
L 62.221984 -249.666667 
L 63.063982 -249.666667 
L 63.905979 -249.666667 
L 64.747976 -249.666667 
L 65.589974 -249.666667 
L 66.431971 -249.666667 
L 67.273969 -249.666667 
L 68.115966 -249.666667 
L 68.957963 -249.666667 
L 69.799961 -249.666667 
L 70.641958 -249.666667 
L 71.483955 -249.666667 
L 72.325953 -249.666667 
L 73.16795 -249.666667 
L 74.009948 -249.666667 
L 74.851945 -249.666667 
L 75.693942 -249.666667 
L 76.53594 -249.666667 
L 77.377937 -249.785994 
L 78.219934 -250.263305 
L 79.061932 -249.905322 
L 79.903929 -250.024649 
L 80.745927 -250.740615 
L 81.587924 -251.217925 
L 82.429921 -253.365822 
L 83.271919 -259.809511 
L 84.113916 -271.384287 
L 84.955913 -281.169148 
L 85.797911 -296.681734 
L 86.639908 -318.160699 
L 87.481906 -326.871612 
L 88.323903 -321.024561 
L 89.1659 -320.189268 
L 90.007898 -310.285079 
L 90.849895 -296.562407 
L 91.691892 -290.357372 
L 92.53389 -286.658217 
L 93.375887 -278.066631 
L 94.217885 -277.231338 
L 95.059882 -276.15739 
L 95.901879 -277.589321 
L 96.743877 -273.054873 
L 97.585874 -273.770838 
L 98.427871 -271.503614 
L 99.269869 -269.23639 
L 100.111866 -273.1742 
L 100.953864 -270.787649 
L 101.795861 -268.28177 
L 102.637858 -267.207821 
L 103.479856 -266.253201 
L 104.321853 -268.520425 
L 105.16385 -266.730511 
L 106.005848 -270.071683 
L 106.847845 -266.372528 
L 107.689843 -270.191011 
L 108.53184 -271.622942 
L 109.373837 -278.543942 
L 110.215835 -282.481752 
L 111.057832 -279.14058 
L 111.899829 -284.510321 
L 112.741827 -288.567459 
L 113.583824 -289.402752 
L 114.425822 -288.567459 
L 115.267819 -284.987631 
L 116.109816 -287.135528 
L 116.951814 -287.49351 
L 117.793811 -289.760734 
L 118.635808 -299.784251 
L 119.477806 -293.579217 
L 120.319803 -303.722061 
L 121.161801 -302.409458 
L 122.003798 -302.409458 
L 122.845795 -312.432975 
L 123.687793 -324.246406 
L 124.52979 -330.570768 
L 125.371787 -333.553957 
L 126.213785 -332.718664 
L 127.055782 -342.861509 
L 127.89778 -347.873267 
L 128.739777 -349.543853 
L 129.581774 -355.510232 
L 130.423772 -353.839646 
L 131.265769 -362.669887 
L 132.107766 -354.794267 
L 132.949764 -362.192577 
L 133.791761 -354.078301 
L 134.633759 -352.765698 
L 135.475756 -356.822836 
L 136.317753 -347.753939 
L 137.159751 -345.009405 
L 138.001748 -341.071595 
L 138.843745 -339.639664 
L 139.685743 -337.611095 
L 140.52774 -335.582526 
L 141.369738 -334.031267 
L 142.211735 -329.97413 
L 143.053732 -329.258164 
L 143.89573 -323.769095 
L 144.737727 -325.201026 
L 145.579724 -316.848096 
L 146.421722 -310.881716 
L 147.263719 -312.790958 
L 148.105717 -308.73382 
L 148.947714 -302.528786 
L 149.789711 -303.006096 
L 150.631709 -301.454837 
L 151.473706 -302.528786 
L 152.315703 -295.965769 
L 153.157701 -298.829631 
L 153.999698 -290.596027 
L 154.841696 -294.533838 
L 155.683693 -290.95401 
L 156.52569 -287.0162 
L 157.367688 -283.197717 
L 158.209685 -285.226286 
L 159.051682 -281.646459 
L 159.89368 -280.333855 
L 160.735677 -277.947304 
L 161.577675 -275.560752 
L 162.419672 -271.503614 
L 163.261669 -271.861597 
L 164.103667 -275.799407 
L 164.945664 -273.1742 
L 165.787661 -268.28177 
L 166.629659 -270.071683 
L 167.471656 -270.310338 
L 168.313654 -269.23639 
L 169.155651 -267.923787 
L 169.997648 -266.611183 
L 170.839646 -264.82127 
L 171.681643 -266.491856 
L 172.52364 -264.582614 
L 173.365638 -264.582614 
L 174.207635 -263.627994 
L 175.049633 -263.389339 
L 175.89163 -261.480097 
L 176.733627 -259.451528 
L 177.575625 -261.957408 
L 178.417622 -261.241442 
L 179.259619 -261.36077 
L 180.101617 -259.093546 
L 180.943614 -260.048166 
L 181.785612 -261.36077 
L 182.627609 -258.974218 
L 183.469606 -259.093546 
L 184.311604 -260.525477 
L 185.153601 -261.480097 
L 185.995598 -261.002787 
L 186.837596 -258.974218 
L 187.679593 -259.212873 
L 188.521591 -259.570856 
L 189.363588 -259.690184 
L 190.205585 -258.496908 
L 191.047583 -258.258253 
L 191.88958 -259.451528 
L 192.731577 -257.303632 
L 193.573575 -257.542287 
L 194.415572 -259.093546 
L 195.25757 -259.809511 
L 196.099567 -257.780942 
L 196.941564 -257.661615 
L 197.783562 -258.019597 
L 198.625559 -260.525477 
L 199.467556 -258.854891 
L 200.309554 -260.048166 
L 201.151551 -255.752373 
L 201.993549 -257.780942 
L 202.835546 -258.496908 
L 203.677543 -258.616235 
L 204.519541 -258.37758 
L 205.361538 -256.945649 
L 206.203535 -256.468339 
L 207.045533 -258.37758 
L 207.88753 -257.542287 
L 208.729528 -256.468339 
L 209.571525 -259.809511 
L 210.413522 -257.064977 
L 211.25552 -256.587666 
L 212.097517 -257.184304 
L 212.939514 -258.974218 
L 213.781512 -258.258253 
L 214.623509 -257.780942 
L 215.465507 -257.661615 
L 216.307504 -258.258253 
L 217.149501 -257.780942 
L 217.991499 -257.064977 
L 218.833496 -257.064977 
L 219.675493 -256.349011 
L 220.517491 -257.184304 
L 221.359488 -255.991029 
L 222.201486 -254.678425 
L 223.043483 -254.43977 
L 223.88548 -254.91708 
L 224.727478 -253.604477 
L 225.569475 -254.43977 
L 226.411472 -253.485149 
L 227.25347 -253.485149 
L 228.095467 -253.246494 
L 228.937465 -252.530529 
L 229.779462 -252.888511 
L 230.621459 -253.604477 
L 231.463457 -252.172546 
L 232.305454 -252.649856 
L 233.147451 -251.933891 
L 233.989449 -253.007839 
L 234.831446 -252.172546 
L 235.673444 -252.053218 
L 236.515441 -251.814563 
L 237.357438 -251.814563 
L 238.199436 -250.97927 
L 239.041433 -251.695236 
L 239.88343 -252.291873 
L 240.725428 -251.098598 
L 241.567425 -252.769184 
L 242.409423 -251.814563 
L 243.25142 -251.814563 
L 244.093417 -251.575908 
L 244.935415 -251.933891 
L 245.777412 -250.97927 
L 246.619409 -251.695236 
L 247.461407 -251.933891 
L 248.303404 -251.933891 
L 249.145402 -251.695236 
L 249.987399 -250.740615 
L 250.829396 -251.098598 
L 251.671394 -251.575908 
L 252.513391 -252.172546 
L 253.355388 -252.649856 
L 254.197386 -252.172546 
L 255.039383 -252.053218 
L 255.881381 -250.97927 
L 256.723378 -252.411201 
L 257.565375 -251.575908 
L 258.407373 -251.933891 
L 259.24937 -251.45658 
L 260.091367 -253.127167 
L 260.933365 -253.246494 
L 261.775362 -252.649856 
L 262.61736 -253.127167 
L 263.459357 -251.098598 
L 264.301354 -252.411201 
L 265.143352 -253.96246 
L 265.985349 -253.604477 
L 266.827346 -253.843132 
L 267.669344 -253.723804 
L 268.511341 -252.053218 
L 269.353339 -252.053218 
L 270.195336 -252.530529 
L 271.037333 -252.411201 
L 271.879331 -250.024649 
L 271.879331 -249.666667 
L 271.879331 -249.666667 
L 271.037333 -249.666667 
L 270.195336 -249.666667 
L 269.353339 -249.666667 
L 268.511341 -249.666667 
L 267.669344 -249.666667 
L 266.827346 -249.666667 
L 265.985349 -249.666667 
L 265.143352 -249.666667 
L 264.301354 -249.666667 
L 263.459357 -249.666667 
L 262.61736 -249.666667 
L 261.775362 -249.666667 
L 260.933365 -249.666667 
L 260.091367 -249.666667 
L 259.24937 -249.666667 
L 258.407373 -249.666667 
L 257.565375 -249.666667 
L 256.723378 -249.666667 
L 255.881381 -249.666667 
L 255.039383 -249.666667 
L 254.197386 -249.666667 
L 253.355388 -249.666667 
L 252.513391 -249.666667 
L 251.671394 -249.666667 
L 250.829396 -249.666667 
L 249.987399 -249.666667 
L 249.145402 -249.666667 
L 248.303404 -249.666667 
L 247.461407 -249.666667 
L 246.619409 -249.666667 
L 245.777412 -249.666667 
L 244.935415 -249.666667 
L 244.093417 -249.666667 
L 243.25142 -249.666667 
L 242.409423 -249.666667 
L 241.567425 -249.666667 
L 240.725428 -249.666667 
L 239.88343 -249.666667 
L 239.041433 -249.666667 
L 238.199436 -249.666667 
L 237.357438 -249.666667 
L 236.515441 -249.666667 
L 235.673444 -249.666667 
L 234.831446 -249.666667 
L 233.989449 -249.666667 
L 233.147451 -249.666667 
L 232.305454 -249.666667 
L 231.463457 -249.666667 
L 230.621459 -249.666667 
L 229.779462 -249.666667 
L 228.937465 -249.666667 
L 228.095467 -249.666667 
L 227.25347 -249.666667 
L 226.411472 -249.666667 
L 225.569475 -249.666667 
L 224.727478 -249.666667 
L 223.88548 -249.666667 
L 223.043483 -249.666667 
L 222.201486 -249.666667 
L 221.359488 -249.666667 
L 220.517491 -249.666667 
L 219.675493 -249.666667 
L 218.833496 -249.666667 
L 217.991499 -249.666667 
L 217.149501 -249.666667 
L 216.307504 -249.666667 
L 215.465507 -249.666667 
L 214.623509 -249.666667 
L 213.781512 -249.666667 
L 212.939514 -249.666667 
L 212.097517 -249.666667 
L 211.25552 -249.666667 
L 210.413522 -249.666667 
L 209.571525 -249.666667 
L 208.729528 -249.666667 
L 207.88753 -249.666667 
L 207.045533 -249.666667 
L 206.203535 -249.666667 
L 205.361538 -249.666667 
L 204.519541 -249.666667 
L 203.677543 -249.666667 
L 202.835546 -249.666667 
L 201.993549 -249.666667 
L 201.151551 -249.666667 
L 200.309554 -249.666667 
L 199.467556 -249.666667 
L 198.625559 -249.666667 
L 197.783562 -249.666667 
L 196.941564 -249.666667 
L 196.099567 -249.666667 
L 195.25757 -249.666667 
L 194.415572 -249.666667 
L 193.573575 -249.666667 
L 192.731577 -249.666667 
L 191.88958 -249.666667 
L 191.047583 -249.666667 
L 190.205585 -249.666667 
L 189.363588 -249.666667 
L 188.521591 -249.666667 
L 187.679593 -249.666667 
L 186.837596 -249.666667 
L 185.995598 -249.666667 
L 185.153601 -249.666667 
L 184.311604 -249.666667 
L 183.469606 -249.666667 
L 182.627609 -249.666667 
L 181.785612 -249.666667 
L 180.943614 -249.666667 
L 180.101617 -249.666667 
L 179.259619 -249.666667 
L 178.417622 -249.666667 
L 177.575625 -249.666667 
L 176.733627 -249.666667 
L 175.89163 -249.666667 
L 175.049633 -249.666667 
L 174.207635 -249.666667 
L 173.365638 -249.666667 
L 172.52364 -249.666667 
L 171.681643 -249.666667 
L 170.839646 -249.666667 
L 169.997648 -249.666667 
L 169.155651 -249.666667 
L 168.313654 -249.666667 
L 167.471656 -249.666667 
L 166.629659 -249.666667 
L 165.787661 -249.666667 
L 164.945664 -249.666667 
L 164.103667 -249.666667 
L 163.261669 -249.666667 
L 162.419672 -249.666667 
L 161.577675 -249.666667 
L 160.735677 -249.666667 
L 159.89368 -249.666667 
L 159.051682 -249.666667 
L 158.209685 -249.666667 
L 157.367688 -249.666667 
L 156.52569 -249.666667 
L 155.683693 -249.666667 
L 154.841696 -249.666667 
L 153.999698 -249.666667 
L 153.157701 -249.666667 
L 152.315703 -249.666667 
L 151.473706 -249.666667 
L 150.631709 -249.666667 
L 149.789711 -249.666667 
L 148.947714 -249.666667 
L 148.105717 -249.666667 
L 147.263719 -249.666667 
L 146.421722 -249.666667 
L 145.579724 -249.666667 
L 144.737727 -249.666667 
L 143.89573 -249.666667 
L 143.053732 -249.666667 
L 142.211735 -249.666667 
L 141.369738 -249.666667 
L 140.52774 -249.666667 
L 139.685743 -249.666667 
L 138.843745 -249.666667 
L 138.001748 -249.666667 
L 137.159751 -249.666667 
L 136.317753 -249.666667 
L 135.475756 -249.666667 
L 134.633759 -249.666667 
L 133.791761 -249.666667 
L 132.949764 -249.666667 
L 132.107766 -249.666667 
L 131.265769 -249.666667 
L 130.423772 -249.666667 
L 129.581774 -249.666667 
L 128.739777 -249.666667 
L 127.89778 -249.666667 
L 127.055782 -249.666667 
L 126.213785 -249.666667 
L 125.371787 -249.666667 
L 124.52979 -249.666667 
L 123.687793 -249.666667 
L 122.845795 -249.666667 
L 122.003798 -249.666667 
L 121.161801 -249.666667 
L 120.319803 -249.666667 
L 119.477806 -249.666667 
L 118.635808 -249.666667 
L 117.793811 -249.666667 
L 116.951814 -249.666667 
L 116.109816 -249.666667 
L 115.267819 -249.666667 
L 114.425822 -249.666667 
L 113.583824 -249.666667 
L 112.741827 -249.666667 
L 111.899829 -249.666667 
L 111.057832 -249.666667 
L 110.215835 -249.666667 
L 109.373837 -249.666667 
L 108.53184 -249.666667 
L 107.689843 -249.666667 
L 106.847845 -249.666667 
L 106.005848 -249.666667 
L 105.16385 -249.666667 
L 104.321853 -249.666667 
L 103.479856 -249.666667 
L 102.637858 -249.666667 
L 101.795861 -249.666667 
L 100.953864 -249.666667 
L 100.111866 -249.666667 
L 99.269869 -249.666667 
L 98.427871 -249.666667 
L 97.585874 -249.666667 
L 96.743877 -249.666667 
L 95.901879 -249.666667 
L 95.059882 -249.666667 
L 94.217885 -249.666667 
L 93.375887 -249.666667 
L 92.53389 -249.666667 
L 91.691892 -249.666667 
L 90.849895 -249.666667 
L 90.007898 -249.666667 
L 89.1659 -249.666667 
L 88.323903 -249.666667 
L 87.481906 -249.666667 
L 86.639908 -249.666667 
L 85.797911 -249.666667 
L 84.955913 -249.666667 
L 84.113916 -249.666667 
L 83.271919 -249.666667 
L 82.429921 -249.666667 
L 81.587924 -249.666667 
L 80.745927 -249.666667 
L 79.903929 -249.666667 
L 79.061932 -249.666667 
L 78.219934 -249.666667 
L 77.377937 -249.666667 
L 76.53594 -249.666667 
L 75.693942 -249.666667 
L 74.851945 -249.666667 
L 74.009948 -249.666667 
L 73.16795 -249.666667 
L 72.325953 -249.666667 
L 71.483955 -249.666667 
L 70.641958 -249.666667 
L 69.799961 -249.666667 
L 68.957963 -249.666667 
L 68.115966 -249.666667 
L 67.273969 -249.666667 
L 66.431971 -249.666667 
L 65.589974 -249.666667 
L 64.747976 -249.666667 
L 63.905979 -249.666667 
L 63.063982 -249.666667 
L 62.221984 -249.666667 
L 61.379987 -249.666667 
L 60.53799 -249.666667 
L 59.695992 -249.666667 
L 58.853995 -249.666667 
L 58.011997 -249.666667 
L 57.17 -249.666667 
z
" style="stroke: #008000; stroke-opacity: 0.4"/>
    </defs>
    <g clip-path="url(#p84c9beee80)">
     <use xlink:href="#m42f048b4d1" x="0" y="648" style="fill: #008000; fill-opacity: 0.4; stroke: #008000; stroke-opacity: 0.4"/>
    </g>
   </g>
   <g id="matplotlib.axis_3">
    <g id="xtick_7">
     <g id="line2d_16">
      <g>
       <use xlink:href="#m23b951c0f1" x="57.17" y="398.333333" style="stroke: #000000; stroke-width: 0.8"/>
      </g>
     </g>
     <g id="text_17">
      <!-- 0 -->
      <g transform="translate(53.98875 412.931771) scale(0.1 -0.1)">
       <use xlink:href="#DejaVuSans-30"/>
      </g>
     </g>
    </g>
    <g id="xtick_8">
     <g id="line2d_17">
      <g>
       <use xlink:href="#m23b951c0f1" x="99.269869" y="398.333333" style="stroke: #000000; stroke-width: 0.8"/>
      </g>
     </g>
     <g id="text_18">
      <!-- 50 -->
      <g transform="translate(92.907369 412.931771) scale(0.1 -0.1)">
       <use xlink:href="#DejaVuSans-35"/>
       <use xlink:href="#DejaVuSans-30" x="63.623047"/>
      </g>
     </g>
    </g>
    <g id="xtick_9">
     <g id="line2d_18">
      <g>
       <use xlink:href="#m23b951c0f1" x="141.369738" y="398.333333" style="stroke: #000000; stroke-width: 0.8"/>
      </g>
     </g>
     <g id="text_19">
      <!-- 100 -->
      <g transform="translate(131.825988 412.931771) scale(0.1 -0.1)">
       <use xlink:href="#DejaVuSans-31"/>
       <use xlink:href="#DejaVuSans-30" x="63.623047"/>
       <use xlink:href="#DejaVuSans-30" x="127.246094"/>
      </g>
     </g>
    </g>
    <g id="xtick_10">
     <g id="line2d_19">
      <g>
       <use xlink:href="#m23b951c0f1" x="183.469606" y="398.333333" style="stroke: #000000; stroke-width: 0.8"/>
      </g>
     </g>
     <g id="text_20">
      <!-- 150 -->
      <g transform="translate(173.925856 412.931771) scale(0.1 -0.1)">
       <use xlink:href="#DejaVuSans-31"/>
       <use xlink:href="#DejaVuSans-35" x="63.623047"/>
       <use xlink:href="#DejaVuSans-30" x="127.246094"/>
      </g>
     </g>
    </g>
    <g id="xtick_11">
     <g id="line2d_20">
      <g>
       <use xlink:href="#m23b951c0f1" x="225.569475" y="398.333333" style="stroke: #000000; stroke-width: 0.8"/>
      </g>
     </g>
     <g id="text_21">
      <!-- 200 -->
      <g transform="translate(216.025725 412.931771) scale(0.1 -0.1)">
       <use xlink:href="#DejaVuSans-32"/>
       <use xlink:href="#DejaVuSans-30" x="63.623047"/>
       <use xlink:href="#DejaVuSans-30" x="127.246094"/>
      </g>
     </g>
    </g>
    <g id="xtick_12">
     <g id="line2d_21">
      <g>
       <use xlink:href="#m23b951c0f1" x="267.669344" y="398.333333" style="stroke: #000000; stroke-width: 0.8"/>
      </g>
     </g>
     <g id="text_22">
      <!-- 250 -->
      <g transform="translate(258.125594 412.931771) scale(0.1 -0.1)">
       <use xlink:href="#DejaVuSans-32"/>
       <use xlink:href="#DejaVuSans-35" x="63.623047"/>
       <use xlink:href="#DejaVuSans-30" x="127.246094"/>
      </g>
     </g>
    </g>
   </g>
   <g id="matplotlib.axis_4">
    <g id="ytick_9">
     <g id="line2d_22">
      <g>
       <use xlink:href="#m50012ece43" x="57.17" y="398.333333" style="stroke: #000000; stroke-width: 0.8"/>
      </g>
     </g>
     <g id="text_23">
      <!-- 0 -->
      <g transform="translate(43.8075 402.132552) scale(0.1 -0.1)">
       <use xlink:href="#DejaVuSans-30"/>
      </g>
     </g>
    </g>
    <g id="ytick_10">
     <g id="line2d_23">
      <g>
       <use xlink:href="#m50012ece43" x="57.17" y="374.467817" style="stroke: #000000; stroke-width: 0.8"/>
      </g>
     </g>
     <g id="text_24">
      <!-- 200 -->
      <g transform="translate(31.0825 378.267036) scale(0.1 -0.1)">
       <use xlink:href="#DejaVuSans-32"/>
       <use xlink:href="#DejaVuSans-30" x="63.623047"/>
       <use xlink:href="#DejaVuSans-30" x="127.246094"/>
      </g>
     </g>
    </g>
    <g id="ytick_11">
     <g id="line2d_24">
      <g>
       <use xlink:href="#m50012ece43" x="57.17" y="350.6023" style="stroke: #000000; stroke-width: 0.8"/>
      </g>
     </g>
     <g id="text_25">
      <!-- 400 -->
      <g transform="translate(31.0825 354.401519) scale(0.1 -0.1)">
       <use xlink:href="#DejaVuSans-34"/>
       <use xlink:href="#DejaVuSans-30" x="63.623047"/>
       <use xlink:href="#DejaVuSans-30" x="127.246094"/>
      </g>
     </g>
    </g>
    <g id="ytick_12">
     <g id="line2d_25">
      <g>
       <use xlink:href="#m50012ece43" x="57.17" y="326.736784" style="stroke: #000000; stroke-width: 0.8"/>
      </g>
     </g>
     <g id="text_26">
      <!-- 600 -->
      <g transform="translate(31.0825 330.536003) scale(0.1 -0.1)">
       <use xlink:href="#DejaVuSans-36"/>
       <use xlink:href="#DejaVuSans-30" x="63.623047"/>
       <use xlink:href="#DejaVuSans-30" x="127.246094"/>
      </g>
     </g>
    </g>
    <g id="ytick_13">
     <g id="line2d_26">
      <g>
       <use xlink:href="#m50012ece43" x="57.17" y="302.871267" style="stroke: #000000; stroke-width: 0.8"/>
      </g>
     </g>
     <g id="text_27">
      <!-- 800 -->
      <g transform="translate(31.0825 306.670486) scale(0.1 -0.1)">
       <use xlink:href="#DejaVuSans-38"/>
       <use xlink:href="#DejaVuSans-30" x="63.623047"/>
       <use xlink:href="#DejaVuSans-30" x="127.246094"/>
      </g>
     </g>
    </g>
    <g id="ytick_14">
     <g id="line2d_27">
      <g>
       <use xlink:href="#m50012ece43" x="57.17" y="279.005751" style="stroke: #000000; stroke-width: 0.8"/>
      </g>
     </g>
     <g id="text_28">
      <!-- 1000 -->
      <g transform="translate(24.72 282.80497) scale(0.1 -0.1)">
       <use xlink:href="#DejaVuSans-31"/>
       <use xlink:href="#DejaVuSans-30" x="63.623047"/>
       <use xlink:href="#DejaVuSans-30" x="127.246094"/>
       <use xlink:href="#DejaVuSans-30" x="190.869141"/>
      </g>
     </g>
    </g>
    <g id="ytick_15">
     <g id="line2d_28">
      <g>
       <use xlink:href="#m50012ece43" x="57.17" y="255.140234" style="stroke: #000000; stroke-width: 0.8"/>
      </g>
     </g>
     <g id="text_29">
      <!-- 1200 -->
      <g transform="translate(24.72 258.939453) scale(0.1 -0.1)">
       <use xlink:href="#DejaVuSans-31"/>
       <use xlink:href="#DejaVuSans-32" x="63.623047"/>
       <use xlink:href="#DejaVuSans-30" x="127.246094"/>
       <use xlink:href="#DejaVuSans-30" x="190.869141"/>
      </g>
     </g>
    </g>
    <g id="ytick_16">
     <g id="line2d_29">
      <g>
       <use xlink:href="#m50012ece43" x="57.17" y="231.274718" style="stroke: #000000; stroke-width: 0.8"/>
      </g>
     </g>
     <g id="text_30">
      <!-- 1400 -->
      <g transform="translate(24.72 235.073937) scale(0.1 -0.1)">
       <use xlink:href="#DejaVuSans-31"/>
       <use xlink:href="#DejaVuSans-34" x="63.623047"/>
       <use xlink:href="#DejaVuSans-30" x="127.246094"/>
       <use xlink:href="#DejaVuSans-30" x="190.869141"/>
      </g>
     </g>
    </g>
    <g id="text_31">
     <!-- Pixel Frequency -->
     <g transform="translate(18.640313 347.398906) rotate(-90) scale(0.1 -0.1)">
      <use xlink:href="#DejaVuSans-50"/>
      <use xlink:href="#DejaVuSans-69" x="58.052734"/>
      <use xlink:href="#DejaVuSans-78" x="85.835938"/>
      <use xlink:href="#DejaVuSans-65" x="141.890625"/>
      <use xlink:href="#DejaVuSans-6c" x="203.414062"/>
      <use xlink:href="#DejaVuSans-20" x="231.197266"/>
      <use xlink:href="#DejaVuSans-46" x="262.984375"/>
      <use xlink:href="#DejaVuSans-72" x="313.253906"/>
      <use xlink:href="#DejaVuSans-65" x="352.117188"/>
      <use xlink:href="#DejaVuSans-71" x="413.640625"/>
      <use xlink:href="#DejaVuSans-75" x="477.117188"/>
      <use xlink:href="#DejaVuSans-65" x="540.496094"/>
      <use xlink:href="#DejaVuSans-6e" x="602.019531"/>
      <use xlink:href="#DejaVuSans-63" x="665.398438"/>
      <use xlink:href="#DejaVuSans-79" x="720.378906"/>
     </g>
    </g>
   </g>
   <g id="line2d_30">
    <path d="M 57.17 398.333333 
L 76.53594 398.333333 
L 77.377937 398.214006 
L 78.219934 397.736695 
L 79.061932 398.094678 
L 79.903929 397.975351 
L 80.745927 397.259385 
L 81.587924 396.782075 
L 82.429921 394.634178 
L 83.271919 388.190489 
L 84.113916 376.615713 
L 84.955913 366.830852 
L 85.797911 351.318266 
L 86.639908 329.839301 
L 87.481906 321.128388 
L 88.323903 326.975439 
L 89.1659 327.810732 
L 90.007898 337.714921 
L 90.849895 351.437593 
L 91.691892 357.642628 
L 92.53389 361.341783 
L 93.375887 369.933369 
L 94.217885 370.768662 
L 95.059882 371.84261 
L 95.901879 370.410679 
L 96.743877 374.945127 
L 97.585874 374.229162 
L 99.269869 378.76361 
L 100.111866 374.8258 
L 101.795861 379.71823 
L 103.479856 381.746799 
L 104.321853 379.479575 
L 105.16385 381.269489 
L 106.005848 377.928317 
L 106.847845 381.627472 
L 107.689843 377.808989 
L 108.53184 376.377058 
L 109.373837 369.456058 
L 110.215835 365.518248 
L 111.057832 368.85942 
L 111.899829 363.489679 
L 112.741827 359.432541 
L 113.583824 358.597248 
L 114.425822 359.432541 
L 115.267819 363.012369 
L 116.109816 360.864472 
L 116.951814 360.50649 
L 117.793811 358.239266 
L 118.635808 348.215749 
L 119.477806 354.420783 
L 120.319803 344.277939 
L 121.161801 345.590542 
L 122.003798 345.590542 
L 122.845795 335.567025 
L 123.687793 323.753594 
L 124.52979 317.429232 
L 125.371787 314.446043 
L 126.213785 315.281336 
L 127.055782 305.138491 
L 127.89778 300.126733 
L 128.739777 298.456147 
L 129.581774 292.489768 
L 130.423772 294.160354 
L 131.265769 285.330113 
L 132.107766 293.205733 
L 132.949764 285.807423 
L 133.791761 293.921699 
L 134.633759 295.234302 
L 135.475756 291.177164 
L 136.317753 300.246061 
L 137.159751 302.990595 
L 138.001748 306.928405 
L 138.843745 308.360336 
L 140.52774 312.417474 
L 141.369738 313.968733 
L 142.211735 318.02587 
L 143.053732 318.741836 
L 143.89573 324.230905 
L 144.737727 322.798974 
L 145.579724 331.151904 
L 146.421722 337.118284 
L 147.263719 335.209042 
L 148.105717 339.26618 
L 148.947714 345.471214 
L 149.789711 344.993904 
L 150.631709 346.545163 
L 151.473706 345.471214 
L 152.315703 352.034231 
L 153.157701 349.170369 
L 153.999698 357.403973 
L 154.841696 353.466162 
L 156.52569 360.9838 
L 157.367688 364.802283 
L 158.209685 362.773714 
L 159.051682 366.353541 
L 159.89368 367.666145 
L 161.577675 372.439248 
L 162.419672 376.496386 
L 163.261669 376.138403 
L 164.103667 372.200593 
L 164.945664 374.8258 
L 165.787661 379.71823 
L 166.629659 377.928317 
L 167.471656 377.689662 
L 168.313654 378.76361 
L 169.997648 381.388817 
L 170.839646 383.17873 
L 171.681643 381.508144 
L 172.52364 383.417386 
L 173.365638 383.417386 
L 174.207635 384.372006 
L 175.049633 384.610661 
L 176.733627 388.548472 
L 177.575625 386.042592 
L 178.417622 386.758558 
L 179.259619 386.63923 
L 180.101617 388.906454 
L 180.943614 387.951834 
L 181.785612 386.63923 
L 182.627609 389.025782 
L 183.469606 388.906454 
L 184.311604 387.474523 
L 185.153601 386.519903 
L 185.995598 386.997213 
L 186.837596 389.025782 
L 187.679593 388.787127 
L 188.521591 388.429144 
L 189.363588 388.309816 
L 190.205585 389.503092 
L 191.047583 389.741747 
L 191.88958 388.548472 
L 192.731577 390.696368 
L 193.573575 390.457713 
L 194.415572 388.906454 
L 195.25757 388.190489 
L 196.099567 390.219058 
L 196.941564 390.338385 
L 197.783562 389.980403 
L 198.625559 387.474523 
L 199.467556 389.145109 
L 200.309554 387.951834 
L 201.151551 392.247627 
L 201.993549 390.219058 
L 202.835546 389.503092 
L 203.677543 389.383765 
L 204.519541 389.62242 
L 205.361538 391.054351 
L 206.203535 391.531661 
L 207.045533 389.62242 
L 207.88753 390.457713 
L 208.729528 391.531661 
L 209.571525 388.190489 
L 210.413522 390.935023 
L 211.25552 391.412334 
L 212.097517 390.815696 
L 212.939514 389.025782 
L 213.781512 389.741747 
L 214.623509 390.219058 
L 215.465507 390.338385 
L 216.307504 389.741747 
L 217.149501 390.219058 
L 217.991499 390.935023 
L 218.833496 390.935023 
L 219.675493 391.650989 
L 220.517491 390.815696 
L 222.201486 393.321575 
L 223.043483 393.56023 
L 223.88548 393.08292 
L 224.727478 394.395523 
L 225.569475 393.56023 
L 226.411472 394.514851 
L 227.25347 394.514851 
L 228.095467 394.753506 
L 228.937465 395.469471 
L 229.779462 395.111489 
L 230.621459 394.395523 
L 231.463457 395.827454 
L 232.305454 395.350144 
L 233.147451 396.066109 
L 233.989449 394.992161 
L 234.831446 395.827454 
L 235.673444 395.946782 
L 236.515441 396.185437 
L 237.357438 396.185437 
L 238.199436 397.02073 
L 239.88343 395.708127 
L 240.725428 396.901402 
L 241.567425 395.230816 
L 242.409423 396.185437 
L 243.25142 396.185437 
L 244.093417 396.424092 
L 244.935415 396.066109 
L 245.777412 397.02073 
L 246.619409 396.304764 
L 247.461407 396.066109 
L 248.303404 396.066109 
L 249.145402 396.304764 
L 249.987399 397.259385 
L 251.671394 396.424092 
L 253.355388 395.350144 
L 254.197386 395.827454 
L 255.039383 395.946782 
L 255.881381 397.02073 
L 256.723378 395.588799 
L 257.565375 396.424092 
L 258.407373 396.066109 
L 259.24937 396.54342 
L 260.091367 394.872833 
L 260.933365 394.753506 
L 261.775362 395.350144 
L 262.61736 394.872833 
L 263.459357 396.901402 
L 264.301354 395.588799 
L 265.143352 394.03754 
L 265.985349 394.395523 
L 266.827346 394.156868 
L 267.669344 394.276196 
L 268.511341 395.946782 
L 269.353339 395.946782 
L 270.195336 395.469471 
L 271.037333 395.588799 
L 271.879331 397.975351 
L 271.879331 397.975351 
" clip-path="url(#p84c9beee80)" style="fill: none; stroke: #008000; stroke-width: 1.5; stroke-linecap: square"/>
   </g>
   <g id="patch_8">
    <path d="M 57.17 398.333333 
L 57.17 218.506667 
" style="fill: none; stroke: #000000; stroke-width: 0.8; stroke-linejoin: miter; stroke-linecap: square"/>
   </g>
   <g id="patch_9">
    <path d="M 272.721328 398.333333 
L 272.721328 218.506667 
" style="fill: none; stroke: #000000; stroke-width: 0.8; stroke-linejoin: miter; stroke-linecap: square"/>
   </g>
   <g id="patch_10">
    <path d="M 57.17 398.333333 
L 272.721328 398.333333 
" style="fill: none; stroke: #000000; stroke-width: 0.8; stroke-linejoin: miter; stroke-linecap: square"/>
   </g>
   <g id="patch_11">
    <path d="M 57.17 218.506667 
L 272.721328 218.506667 
" style="fill: none; stroke: #000000; stroke-width: 0.8; stroke-linejoin: miter; stroke-linecap: square"/>
   </g>
   <g id="text_32">
    <!-- Green Channel  -->
    <g transform="translate(179.494453 232.506667) scale(0.12 -0.12)">
     <defs>
      <path id="DejaVuSans-47" d="M 3809 666 
L 3809 1919 
L 2778 1919 
L 2778 2438 
L 4434 2438 
L 4434 434 
Q 4069 175 3628 42 
Q 3188 -91 2688 -91 
Q 1594 -91 976 548 
Q 359 1188 359 2328 
Q 359 3472 976 4111 
Q 1594 4750 2688 4750 
Q 3144 4750 3555 4637 
Q 3966 4525 4313 4306 
L 4313 3634 
Q 3963 3931 3569 4081 
Q 3175 4231 2741 4231 
Q 1884 4231 1454 3753 
Q 1025 3275 1025 2328 
Q 1025 1384 1454 906 
Q 1884 428 2741 428 
Q 3075 428 3337 486 
Q 3600 544 3809 666 
z
" transform="scale(0.015625)"/>
     </defs>
     <use xlink:href="#DejaVuSans-47"/>
     <use xlink:href="#DejaVuSans-72" x="77.490234"/>
     <use xlink:href="#DejaVuSans-65" x="116.353516"/>
     <use xlink:href="#DejaVuSans-65" x="177.876953"/>
     <use xlink:href="#DejaVuSans-6e" x="239.400391"/>
     <use xlink:href="#DejaVuSans-20" x="302.779297"/>
     <use xlink:href="#DejaVuSans-43" x="334.566406"/>
     <use xlink:href="#DejaVuSans-68" x="404.390625"/>
     <use xlink:href="#DejaVuSans-61" x="467.769531"/>
     <use xlink:href="#DejaVuSans-6e" x="529.048828"/>
     <use xlink:href="#DejaVuSans-6e" x="592.427734"/>
     <use xlink:href="#DejaVuSans-65" x="655.806641"/>
     <use xlink:href="#DejaVuSans-6c" x="717.330078"/>
     <use xlink:href="#DejaVuSans-20" x="745.113281"/>
    </g>
   </g>
  </g>
  <g id="axes_3">
   <g id="patch_12">
    <path d="M 57.17 606.04 
L 272.721328 606.04 
L 272.721328 426.213333 
L 57.17 426.213333 
z
" style="fill: #ffffff"/>
   </g>
   <g id="PolyCollection_3">
    <defs>
     <path id="m5b66a6352c" d="M 57.17 -41.96 
L 57.17 -41.96 
L 58.011997 -41.96 
L 58.853995 -41.96 
L 59.695992 -41.96 
L 60.53799 -41.96 
L 61.379987 -41.96 
L 62.221984 -41.96 
L 63.063982 -41.96 
L 63.905979 -41.96 
L 64.747976 -41.96 
L 65.589974 -41.96 
L 66.431971 -41.96 
L 67.273969 -41.96 
L 68.115966 -41.96 
L 68.957963 -42.198655 
L 69.799961 -43.033948 
L 70.641958 -42.43731 
L 71.483955 -45.062517 
L 72.325953 -51.864189 
L 73.16795 -67.257447 
L 74.009948 -106.158239 
L 74.851945 -151.980031 
L 75.693942 -159.736324 
L 76.53594 -148.758186 
L 77.377937 -131.217032 
L 78.219934 -109.976722 
L 79.061932 -98.401946 
L 79.903929 -93.509516 
L 80.745927 -87.662464 
L 81.587924 -74.297775 
L 82.429921 -77.161637 
L 83.271919 -69.882654 
L 84.113916 -76.207016 
L 84.955913 -74.775085 
L 85.797911 -74.775085 
L 86.639908 -77.638947 
L 87.481906 -82.770033 
L 88.323903 -92.674223 
L 89.1659 -100.788498 
L 90.007898 -105.442274 
L 90.849895 -103.294377 
L 91.691892 -113.437222 
L 92.53389 -118.329653 
L 93.375887 -124.415359 
L 94.217885 -140.524583 
L 95.059882 -160.452289 
L 95.901879 -174.652272 
L 96.743877 -193.386702 
L 97.585874 -204.245512 
L 98.427871 -211.76315 
L 99.269869 -212.598443 
L 100.111866 -221.428684 
L 100.953864 -216.536253 
L 101.795861 -216.416925 
L 102.637858 -213.553063 
L 103.479856 -198.995098 
L 104.321853 -187.539651 
L 105.16385 -176.919496 
L 106.005848 -167.731272 
L 106.847845 -162.242203 
L 107.689843 -163.435479 
L 108.53184 -157.230445 
L 109.373837 -139.68929 
L 110.215835 -140.643911 
L 111.057832 -135.274169 
L 111.899829 -131.455687 
L 112.741827 -124.89267 
L 113.583824 -124.296032 
L 114.425822 -110.692687 
L 115.267819 -107.709498 
L 116.109816 -101.862446 
L 116.951814 -101.504464 
L 117.793811 -89.929688 
L 118.635808 -86.588516 
L 119.477806 -82.650706 
L 120.319803 -84.559947 
L 121.161801 -77.161637 
L 122.003798 -77.161637 
L 122.845795 -73.701137 
L 123.687793 -72.985171 
L 124.52979 -69.643999 
L 125.371787 -64.990223 
L 126.213785 -65.467534 
L 127.055782 -65.467534 
L 127.89778 -60.21712 
L 128.739777 -61.529724 
L 129.581774 -60.336448 
L 130.423772 -60.813758 
L 131.265769 -59.381827 
L 132.107766 -56.875948 
L 132.949764 -59.143172 
L 133.791761 -58.904517 
L 134.633759 -58.188551 
L 135.475756 -58.785189 
L 136.317753 -58.188551 
L 137.159751 -59.620482 
L 138.001748 -57.830568 
L 138.843745 -56.517965 
L 139.685743 -54.012086 
L 140.52774 -53.534775 
L 141.369738 -55.682672 
L 142.211735 -56.637293 
L 143.053732 -54.847379 
L 143.89573 -55.086034 
L 144.737727 -55.444017 
L 145.579724 -52.699482 
L 146.421722 -54.847379 
L 147.263719 -54.250741 
L 148.105717 -55.086034 
L 148.947714 -52.699482 
L 149.789711 -52.938138 
L 150.631709 -54.131413 
L 151.473706 -53.654103 
L 152.315703 -52.699482 
L 153.157701 -55.205362 
L 153.999698 -52.3415 
L 154.841696 -53.654103 
L 155.683693 -53.057465 
L 156.52569 -50.670914 
L 157.367688 -50.312931 
L 158.209685 -50.074276 
L 159.051682 -50.074276 
L 159.89368 -50.074276 
L 160.735677 -47.329741 
L 161.577675 -47.807052 
L 162.419672 -47.449069 
L 163.261669 -47.687724 
L 164.103667 -47.329741 
L 164.945664 -46.494448 
L 165.787661 -46.017138 
L 166.629659 -45.181845 
L 167.471656 -46.733103 
L 168.313654 -46.017138 
L 169.155651 -44.94319 
L 169.997648 -44.346552 
L 170.839646 -44.346552 
L 171.681643 -45.301172 
L 172.52364 -44.465879 
L 173.365638 -43.988569 
L 174.207635 -46.375121 
L 175.049633 -43.749914 
L 175.89163 -44.107896 
L 176.733627 -44.465879 
L 177.575625 -44.465879 
L 178.417622 -43.749914 
L 179.259619 -44.346552 
L 180.101617 -44.107896 
L 180.943614 -44.465879 
L 181.785612 -43.391931 
L 182.627609 -44.465879 
L 183.469606 -44.346552 
L 184.311604 -44.227224 
L 185.153601 -43.988569 
L 185.995598 -43.869241 
L 186.837596 -43.391931 
L 187.679593 -43.272603 
L 188.521591 -43.511259 
L 189.363588 -43.869241 
L 190.205585 -42.556638 
L 191.047583 -42.914621 
L 191.88958 -42.795293 
L 192.731577 -43.630586 
L 193.573575 -43.033948 
L 194.415572 -43.153276 
L 195.25757 -42.556638 
L 196.099567 -43.630586 
L 196.941564 -42.317983 
L 197.783562 -43.033948 
L 198.625559 -42.675965 
L 199.467556 -43.153276 
L 200.309554 -43.153276 
L 201.151551 -43.511259 
L 201.993549 -43.511259 
L 202.835546 -42.556638 
L 203.677543 -42.675965 
L 204.519541 -43.153276 
L 205.361538 -42.675965 
L 206.203535 -43.272603 
L 207.045533 -43.391931 
L 207.88753 -43.153276 
L 208.729528 -42.43731 
L 209.571525 -43.511259 
L 210.413522 -42.317983 
L 211.25552 -42.675965 
L 212.097517 -43.033948 
L 212.939514 -42.43731 
L 213.781512 -42.43731 
L 214.623509 -42.079328 
L 215.465507 -42.675965 
L 216.307504 -42.43731 
L 217.149501 -42.43731 
L 217.991499 -42.795293 
L 218.833496 -42.198655 
L 219.675493 -42.079328 
L 220.517491 -42.079328 
L 221.359488 -42.675965 
L 222.201486 -42.198655 
L 223.043483 -42.198655 
L 223.88548 -42.198655 
L 224.727478 -42.317983 
L 225.569475 -42.079328 
L 226.411472 -42.079328 
L 227.25347 -42.43731 
L 228.095467 -42.079328 
L 228.937465 -41.96 
L 229.779462 -42.079328 
L 230.621459 -42.43731 
L 231.463457 -42.198655 
L 232.305454 -41.96 
L 233.147451 -41.96 
L 233.989449 -42.317983 
L 234.831446 -42.198655 
L 235.673444 -42.198655 
L 236.515441 -41.96 
L 237.357438 -41.96 
L 238.199436 -42.079328 
L 239.041433 -42.198655 
L 239.88343 -42.317983 
L 240.725428 -42.317983 
L 241.567425 -42.317983 
L 242.409423 -42.079328 
L 243.25142 -42.079328 
L 244.093417 -42.198655 
L 244.935415 -42.556638 
L 245.777412 -42.079328 
L 246.619409 -42.317983 
L 247.461407 -41.96 
L 248.303404 -42.079328 
L 249.145402 -42.317983 
L 249.987399 -42.675965 
L 250.829396 -41.96 
L 251.671394 -42.079328 
L 252.513391 -42.198655 
L 253.355388 -42.198655 
L 254.197386 -42.556638 
L 255.039383 -42.198655 
L 255.881381 -42.079328 
L 256.723378 -41.96 
L 257.565375 -42.556638 
L 258.407373 -42.079328 
L 259.24937 -42.198655 
L 260.091367 -42.079328 
L 260.933365 -42.079328 
L 261.775362 -41.96 
L 262.61736 -41.96 
L 263.459357 -41.96 
L 264.301354 -41.96 
L 265.143352 -41.96 
L 265.985349 -41.96 
L 266.827346 -41.96 
L 267.669344 -41.96 
L 268.511341 -41.96 
L 269.353339 -41.96 
L 270.195336 -41.96 
L 271.037333 -41.96 
L 271.879331 -41.96 
L 271.879331 -41.96 
L 271.879331 -41.96 
L 271.037333 -41.96 
L 270.195336 -41.96 
L 269.353339 -41.96 
L 268.511341 -41.96 
L 267.669344 -41.96 
L 266.827346 -41.96 
L 265.985349 -41.96 
L 265.143352 -41.96 
L 264.301354 -41.96 
L 263.459357 -41.96 
L 262.61736 -41.96 
L 261.775362 -41.96 
L 260.933365 -41.96 
L 260.091367 -41.96 
L 259.24937 -41.96 
L 258.407373 -41.96 
L 257.565375 -41.96 
L 256.723378 -41.96 
L 255.881381 -41.96 
L 255.039383 -41.96 
L 254.197386 -41.96 
L 253.355388 -41.96 
L 252.513391 -41.96 
L 251.671394 -41.96 
L 250.829396 -41.96 
L 249.987399 -41.96 
L 249.145402 -41.96 
L 248.303404 -41.96 
L 247.461407 -41.96 
L 246.619409 -41.96 
L 245.777412 -41.96 
L 244.935415 -41.96 
L 244.093417 -41.96 
L 243.25142 -41.96 
L 242.409423 -41.96 
L 241.567425 -41.96 
L 240.725428 -41.96 
L 239.88343 -41.96 
L 239.041433 -41.96 
L 238.199436 -41.96 
L 237.357438 -41.96 
L 236.515441 -41.96 
L 235.673444 -41.96 
L 234.831446 -41.96 
L 233.989449 -41.96 
L 233.147451 -41.96 
L 232.305454 -41.96 
L 231.463457 -41.96 
L 230.621459 -41.96 
L 229.779462 -41.96 
L 228.937465 -41.96 
L 228.095467 -41.96 
L 227.25347 -41.96 
L 226.411472 -41.96 
L 225.569475 -41.96 
L 224.727478 -41.96 
L 223.88548 -41.96 
L 223.043483 -41.96 
L 222.201486 -41.96 
L 221.359488 -41.96 
L 220.517491 -41.96 
L 219.675493 -41.96 
L 218.833496 -41.96 
L 217.991499 -41.96 
L 217.149501 -41.96 
L 216.307504 -41.96 
L 215.465507 -41.96 
L 214.623509 -41.96 
L 213.781512 -41.96 
L 212.939514 -41.96 
L 212.097517 -41.96 
L 211.25552 -41.96 
L 210.413522 -41.96 
L 209.571525 -41.96 
L 208.729528 -41.96 
L 207.88753 -41.96 
L 207.045533 -41.96 
L 206.203535 -41.96 
L 205.361538 -41.96 
L 204.519541 -41.96 
L 203.677543 -41.96 
L 202.835546 -41.96 
L 201.993549 -41.96 
L 201.151551 -41.96 
L 200.309554 -41.96 
L 199.467556 -41.96 
L 198.625559 -41.96 
L 197.783562 -41.96 
L 196.941564 -41.96 
L 196.099567 -41.96 
L 195.25757 -41.96 
L 194.415572 -41.96 
L 193.573575 -41.96 
L 192.731577 -41.96 
L 191.88958 -41.96 
L 191.047583 -41.96 
L 190.205585 -41.96 
L 189.363588 -41.96 
L 188.521591 -41.96 
L 187.679593 -41.96 
L 186.837596 -41.96 
L 185.995598 -41.96 
L 185.153601 -41.96 
L 184.311604 -41.96 
L 183.469606 -41.96 
L 182.627609 -41.96 
L 181.785612 -41.96 
L 180.943614 -41.96 
L 180.101617 -41.96 
L 179.259619 -41.96 
L 178.417622 -41.96 
L 177.575625 -41.96 
L 176.733627 -41.96 
L 175.89163 -41.96 
L 175.049633 -41.96 
L 174.207635 -41.96 
L 173.365638 -41.96 
L 172.52364 -41.96 
L 171.681643 -41.96 
L 170.839646 -41.96 
L 169.997648 -41.96 
L 169.155651 -41.96 
L 168.313654 -41.96 
L 167.471656 -41.96 
L 166.629659 -41.96 
L 165.787661 -41.96 
L 164.945664 -41.96 
L 164.103667 -41.96 
L 163.261669 -41.96 
L 162.419672 -41.96 
L 161.577675 -41.96 
L 160.735677 -41.96 
L 159.89368 -41.96 
L 159.051682 -41.96 
L 158.209685 -41.96 
L 157.367688 -41.96 
L 156.52569 -41.96 
L 155.683693 -41.96 
L 154.841696 -41.96 
L 153.999698 -41.96 
L 153.157701 -41.96 
L 152.315703 -41.96 
L 151.473706 -41.96 
L 150.631709 -41.96 
L 149.789711 -41.96 
L 148.947714 -41.96 
L 148.105717 -41.96 
L 147.263719 -41.96 
L 146.421722 -41.96 
L 145.579724 -41.96 
L 144.737727 -41.96 
L 143.89573 -41.96 
L 143.053732 -41.96 
L 142.211735 -41.96 
L 141.369738 -41.96 
L 140.52774 -41.96 
L 139.685743 -41.96 
L 138.843745 -41.96 
L 138.001748 -41.96 
L 137.159751 -41.96 
L 136.317753 -41.96 
L 135.475756 -41.96 
L 134.633759 -41.96 
L 133.791761 -41.96 
L 132.949764 -41.96 
L 132.107766 -41.96 
L 131.265769 -41.96 
L 130.423772 -41.96 
L 129.581774 -41.96 
L 128.739777 -41.96 
L 127.89778 -41.96 
L 127.055782 -41.96 
L 126.213785 -41.96 
L 125.371787 -41.96 
L 124.52979 -41.96 
L 123.687793 -41.96 
L 122.845795 -41.96 
L 122.003798 -41.96 
L 121.161801 -41.96 
L 120.319803 -41.96 
L 119.477806 -41.96 
L 118.635808 -41.96 
L 117.793811 -41.96 
L 116.951814 -41.96 
L 116.109816 -41.96 
L 115.267819 -41.96 
L 114.425822 -41.96 
L 113.583824 -41.96 
L 112.741827 -41.96 
L 111.899829 -41.96 
L 111.057832 -41.96 
L 110.215835 -41.96 
L 109.373837 -41.96 
L 108.53184 -41.96 
L 107.689843 -41.96 
L 106.847845 -41.96 
L 106.005848 -41.96 
L 105.16385 -41.96 
L 104.321853 -41.96 
L 103.479856 -41.96 
L 102.637858 -41.96 
L 101.795861 -41.96 
L 100.953864 -41.96 
L 100.111866 -41.96 
L 99.269869 -41.96 
L 98.427871 -41.96 
L 97.585874 -41.96 
L 96.743877 -41.96 
L 95.901879 -41.96 
L 95.059882 -41.96 
L 94.217885 -41.96 
L 93.375887 -41.96 
L 92.53389 -41.96 
L 91.691892 -41.96 
L 90.849895 -41.96 
L 90.007898 -41.96 
L 89.1659 -41.96 
L 88.323903 -41.96 
L 87.481906 -41.96 
L 86.639908 -41.96 
L 85.797911 -41.96 
L 84.955913 -41.96 
L 84.113916 -41.96 
L 83.271919 -41.96 
L 82.429921 -41.96 
L 81.587924 -41.96 
L 80.745927 -41.96 
L 79.903929 -41.96 
L 79.061932 -41.96 
L 78.219934 -41.96 
L 77.377937 -41.96 
L 76.53594 -41.96 
L 75.693942 -41.96 
L 74.851945 -41.96 
L 74.009948 -41.96 
L 73.16795 -41.96 
L 72.325953 -41.96 
L 71.483955 -41.96 
L 70.641958 -41.96 
L 69.799961 -41.96 
L 68.957963 -41.96 
L 68.115966 -41.96 
L 67.273969 -41.96 
L 66.431971 -41.96 
L 65.589974 -41.96 
L 64.747976 -41.96 
L 63.905979 -41.96 
L 63.063982 -41.96 
L 62.221984 -41.96 
L 61.379987 -41.96 
L 60.53799 -41.96 
L 59.695992 -41.96 
L 58.853995 -41.96 
L 58.011997 -41.96 
L 57.17 -41.96 
z
" style="stroke: #0000ff; stroke-opacity: 0.4"/>
    </defs>
    <g clip-path="url(#p6a704579e8)">
     <use xlink:href="#m5b66a6352c" x="0" y="648" style="fill: #0000ff; fill-opacity: 0.4; stroke: #0000ff; stroke-opacity: 0.4"/>
    </g>
   </g>
   <g id="matplotlib.axis_5">
    <g id="xtick_13">
     <g id="line2d_31">
      <g>
       <use xlink:href="#m23b951c0f1" x="57.17" y="606.04" style="stroke: #000000; stroke-width: 0.8"/>
      </g>
     </g>
     <g id="text_33">
      <!-- 0 -->
      <g transform="translate(53.98875 620.638438) scale(0.1 -0.1)">
       <use xlink:href="#DejaVuSans-30"/>
      </g>
     </g>
    </g>
    <g id="xtick_14">
     <g id="line2d_32">
      <g>
       <use xlink:href="#m23b951c0f1" x="99.269869" y="606.04" style="stroke: #000000; stroke-width: 0.8"/>
      </g>
     </g>
     <g id="text_34">
      <!-- 50 -->
      <g transform="translate(92.907369 620.638438) scale(0.1 -0.1)">
       <use xlink:href="#DejaVuSans-35"/>
       <use xlink:href="#DejaVuSans-30" x="63.623047"/>
      </g>
     </g>
    </g>
    <g id="xtick_15">
     <g id="line2d_33">
      <g>
       <use xlink:href="#m23b951c0f1" x="141.369738" y="606.04" style="stroke: #000000; stroke-width: 0.8"/>
      </g>
     </g>
     <g id="text_35">
      <!-- 100 -->
      <g transform="translate(131.825988 620.638438) scale(0.1 -0.1)">
       <use xlink:href="#DejaVuSans-31"/>
       <use xlink:href="#DejaVuSans-30" x="63.623047"/>
       <use xlink:href="#DejaVuSans-30" x="127.246094"/>
      </g>
     </g>
    </g>
    <g id="xtick_16">
     <g id="line2d_34">
      <g>
       <use xlink:href="#m23b951c0f1" x="183.469606" y="606.04" style="stroke: #000000; stroke-width: 0.8"/>
      </g>
     </g>
     <g id="text_36">
      <!-- 150 -->
      <g transform="translate(173.925856 620.638438) scale(0.1 -0.1)">
       <use xlink:href="#DejaVuSans-31"/>
       <use xlink:href="#DejaVuSans-35" x="63.623047"/>
       <use xlink:href="#DejaVuSans-30" x="127.246094"/>
      </g>
     </g>
    </g>
    <g id="xtick_17">
     <g id="line2d_35">
      <g>
       <use xlink:href="#m23b951c0f1" x="225.569475" y="606.04" style="stroke: #000000; stroke-width: 0.8"/>
      </g>
     </g>
     <g id="text_37">
      <!-- 200 -->
      <g transform="translate(216.025725 620.638438) scale(0.1 -0.1)">
       <use xlink:href="#DejaVuSans-32"/>
       <use xlink:href="#DejaVuSans-30" x="63.623047"/>
       <use xlink:href="#DejaVuSans-30" x="127.246094"/>
      </g>
     </g>
    </g>
    <g id="xtick_18">
     <g id="line2d_36">
      <g>
       <use xlink:href="#m23b951c0f1" x="267.669344" y="606.04" style="stroke: #000000; stroke-width: 0.8"/>
      </g>
     </g>
     <g id="text_38">
      <!-- 250 -->
      <g transform="translate(258.125594 620.638438) scale(0.1 -0.1)">
       <use xlink:href="#DejaVuSans-32"/>
       <use xlink:href="#DejaVuSans-35" x="63.623047"/>
       <use xlink:href="#DejaVuSans-30" x="127.246094"/>
      </g>
     </g>
    </g>
    <g id="text_39">
     <!-- Pixel Intensity -->
     <g transform="translate(130.033945 634.316563) scale(0.1 -0.1)">
      <defs>
       <path id="DejaVuSans-49" d="M 628 4666 
L 1259 4666 
L 1259 0 
L 628 0 
L 628 4666 
z
" transform="scale(0.015625)"/>
       <path id="DejaVuSans-74" d="M 1172 4494 
L 1172 3500 
L 2356 3500 
L 2356 3053 
L 1172 3053 
L 1172 1153 
Q 1172 725 1289 603 
Q 1406 481 1766 481 
L 2356 481 
L 2356 0 
L 1766 0 
Q 1100 0 847 248 
Q 594 497 594 1153 
L 594 3053 
L 172 3053 
L 172 3500 
L 594 3500 
L 594 4494 
L 1172 4494 
z
" transform="scale(0.015625)"/>
       <path id="DejaVuSans-73" d="M 2834 3397 
L 2834 2853 
Q 2591 2978 2328 3040 
Q 2066 3103 1784 3103 
Q 1356 3103 1142 2972 
Q 928 2841 928 2578 
Q 928 2378 1081 2264 
Q 1234 2150 1697 2047 
L 1894 2003 
Q 2506 1872 2764 1633 
Q 3022 1394 3022 966 
Q 3022 478 2636 193 
Q 2250 -91 1575 -91 
Q 1294 -91 989 -36 
Q 684 19 347 128 
L 347 722 
Q 666 556 975 473 
Q 1284 391 1588 391 
Q 1994 391 2212 530 
Q 2431 669 2431 922 
Q 2431 1156 2273 1281 
Q 2116 1406 1581 1522 
L 1381 1569 
Q 847 1681 609 1914 
Q 372 2147 372 2553 
Q 372 3047 722 3315 
Q 1072 3584 1716 3584 
Q 2034 3584 2315 3537 
Q 2597 3491 2834 3397 
z
" transform="scale(0.015625)"/>
      </defs>
      <use xlink:href="#DejaVuSans-50"/>
      <use xlink:href="#DejaVuSans-69" x="58.052734"/>
      <use xlink:href="#DejaVuSans-78" x="85.835938"/>
      <use xlink:href="#DejaVuSans-65" x="141.890625"/>
      <use xlink:href="#DejaVuSans-6c" x="203.414062"/>
      <use xlink:href="#DejaVuSans-20" x="231.197266"/>
      <use xlink:href="#DejaVuSans-49" x="262.984375"/>
      <use xlink:href="#DejaVuSans-6e" x="292.476562"/>
      <use xlink:href="#DejaVuSans-74" x="355.855469"/>
      <use xlink:href="#DejaVuSans-65" x="395.064453"/>
      <use xlink:href="#DejaVuSans-6e" x="456.587891"/>
      <use xlink:href="#DejaVuSans-73" x="519.966797"/>
      <use xlink:href="#DejaVuSans-69" x="572.066406"/>
      <use xlink:href="#DejaVuSans-74" x="599.849609"/>
      <use xlink:href="#DejaVuSans-79" x="639.058594"/>
     </g>
    </g>
   </g>
   <g id="matplotlib.axis_6">
    <g id="ytick_17">
     <g id="line2d_37">
      <g>
       <use xlink:href="#m50012ece43" x="57.17" y="606.04" style="stroke: #000000; stroke-width: 0.8"/>
      </g>
     </g>
     <g id="text_40">
      <!-- 0 -->
      <g transform="translate(43.8075 609.839219) scale(0.1 -0.1)">
       <use xlink:href="#DejaVuSans-30"/>
      </g>
     </g>
    </g>
    <g id="ytick_18">
     <g id="line2d_38">
      <g>
       <use xlink:href="#m50012ece43" x="57.17" y="582.174484" style="stroke: #000000; stroke-width: 0.8"/>
      </g>
     </g>
     <g id="text_41">
      <!-- 200 -->
      <g transform="translate(31.0825 585.973702) scale(0.1 -0.1)">
       <use xlink:href="#DejaVuSans-32"/>
       <use xlink:href="#DejaVuSans-30" x="63.623047"/>
       <use xlink:href="#DejaVuSans-30" x="127.246094"/>
      </g>
     </g>
    </g>
    <g id="ytick_19">
     <g id="line2d_39">
      <g>
       <use xlink:href="#m50012ece43" x="57.17" y="558.308967" style="stroke: #000000; stroke-width: 0.8"/>
      </g>
     </g>
     <g id="text_42">
      <!-- 400 -->
      <g transform="translate(31.0825 562.108186) scale(0.1 -0.1)">
       <use xlink:href="#DejaVuSans-34"/>
       <use xlink:href="#DejaVuSans-30" x="63.623047"/>
       <use xlink:href="#DejaVuSans-30" x="127.246094"/>
      </g>
     </g>
    </g>
    <g id="ytick_20">
     <g id="line2d_40">
      <g>
       <use xlink:href="#m50012ece43" x="57.17" y="534.443451" style="stroke: #000000; stroke-width: 0.8"/>
      </g>
     </g>
     <g id="text_43">
      <!-- 600 -->
      <g transform="translate(31.0825 538.242669) scale(0.1 -0.1)">
       <use xlink:href="#DejaVuSans-36"/>
       <use xlink:href="#DejaVuSans-30" x="63.623047"/>
       <use xlink:href="#DejaVuSans-30" x="127.246094"/>
      </g>
     </g>
    </g>
    <g id="ytick_21">
     <g id="line2d_41">
      <g>
       <use xlink:href="#m50012ece43" x="57.17" y="510.577934" style="stroke: #000000; stroke-width: 0.8"/>
      </g>
     </g>
     <g id="text_44">
      <!-- 800 -->
      <g transform="translate(31.0825 514.377153) scale(0.1 -0.1)">
       <use xlink:href="#DejaVuSans-38"/>
       <use xlink:href="#DejaVuSans-30" x="63.623047"/>
       <use xlink:href="#DejaVuSans-30" x="127.246094"/>
      </g>
     </g>
    </g>
    <g id="ytick_22">
     <g id="line2d_42">
      <g>
       <use xlink:href="#m50012ece43" x="57.17" y="486.712418" style="stroke: #000000; stroke-width: 0.8"/>
      </g>
     </g>
     <g id="text_45">
      <!-- 1000 -->
      <g transform="translate(24.72 490.511636) scale(0.1 -0.1)">
       <use xlink:href="#DejaVuSans-31"/>
       <use xlink:href="#DejaVuSans-30" x="63.623047"/>
       <use xlink:href="#DejaVuSans-30" x="127.246094"/>
       <use xlink:href="#DejaVuSans-30" x="190.869141"/>
      </g>
     </g>
    </g>
    <g id="ytick_23">
     <g id="line2d_43">
      <g>
       <use xlink:href="#m50012ece43" x="57.17" y="462.846901" style="stroke: #000000; stroke-width: 0.8"/>
      </g>
     </g>
     <g id="text_46">
      <!-- 1200 -->
      <g transform="translate(24.72 466.64612) scale(0.1 -0.1)">
       <use xlink:href="#DejaVuSans-31"/>
       <use xlink:href="#DejaVuSans-32" x="63.623047"/>
       <use xlink:href="#DejaVuSans-30" x="127.246094"/>
       <use xlink:href="#DejaVuSans-30" x="190.869141"/>
      </g>
     </g>
    </g>
    <g id="ytick_24">
     <g id="line2d_44">
      <g>
       <use xlink:href="#m50012ece43" x="57.17" y="438.981385" style="stroke: #000000; stroke-width: 0.8"/>
      </g>
     </g>
     <g id="text_47">
      <!-- 1400 -->
      <g transform="translate(24.72 442.780603) scale(0.1 -0.1)">
       <use xlink:href="#DejaVuSans-31"/>
       <use xlink:href="#DejaVuSans-34" x="63.623047"/>
       <use xlink:href="#DejaVuSans-30" x="127.246094"/>
       <use xlink:href="#DejaVuSans-30" x="190.869141"/>
      </g>
     </g>
    </g>
    <g id="text_48">
     <!-- Pixel Frequency -->
     <g transform="translate(18.640313 555.105573) rotate(-90) scale(0.1 -0.1)">
      <use xlink:href="#DejaVuSans-50"/>
      <use xlink:href="#DejaVuSans-69" x="58.052734"/>
      <use xlink:href="#DejaVuSans-78" x="85.835938"/>
      <use xlink:href="#DejaVuSans-65" x="141.890625"/>
      <use xlink:href="#DejaVuSans-6c" x="203.414062"/>
      <use xlink:href="#DejaVuSans-20" x="231.197266"/>
      <use xlink:href="#DejaVuSans-46" x="262.984375"/>
      <use xlink:href="#DejaVuSans-72" x="313.253906"/>
      <use xlink:href="#DejaVuSans-65" x="352.117188"/>
      <use xlink:href="#DejaVuSans-71" x="413.640625"/>
      <use xlink:href="#DejaVuSans-75" x="477.117188"/>
      <use xlink:href="#DejaVuSans-65" x="540.496094"/>
      <use xlink:href="#DejaVuSans-6e" x="602.019531"/>
      <use xlink:href="#DejaVuSans-63" x="665.398438"/>
      <use xlink:href="#DejaVuSans-79" x="720.378906"/>
     </g>
    </g>
   </g>
   <g id="line2d_45">
    <path d="M 57.17 606.04 
L 68.115966 606.04 
L 68.957963 605.801345 
L 69.799961 604.966052 
L 70.641958 605.56269 
L 71.483955 602.937483 
L 72.325953 596.135811 
L 73.16795 580.742553 
L 74.009948 541.841761 
L 74.851945 496.019969 
L 75.693942 488.263676 
L 76.53594 499.241814 
L 77.377937 516.782968 
L 78.219934 538.023278 
L 79.061932 549.598054 
L 79.903929 554.490484 
L 80.745927 560.337536 
L 81.587924 573.702225 
L 82.429921 570.838363 
L 83.271919 578.117346 
L 84.113916 571.792984 
L 84.955913 573.224915 
L 85.797911 573.224915 
L 86.639908 570.361053 
L 87.481906 565.229967 
L 88.323903 555.325777 
L 89.1659 547.211502 
L 90.007898 542.557726 
L 90.849895 544.705623 
L 91.691892 534.562778 
L 92.53389 529.670347 
L 93.375887 523.584641 
L 94.217885 507.475417 
L 95.059882 487.547711 
L 95.901879 473.347728 
L 96.743877 454.613298 
L 97.585874 443.754488 
L 98.427871 436.23685 
L 99.269869 435.401557 
L 100.111866 426.571316 
L 100.953864 431.463747 
L 101.795861 431.583075 
L 102.637858 434.446937 
L 103.479856 449.004902 
L 105.16385 471.080504 
L 106.005848 480.268728 
L 106.847845 485.757797 
L 107.689843 484.564521 
L 108.53184 490.769555 
L 109.373837 508.31071 
L 110.215835 507.356089 
L 111.057832 512.725831 
L 111.899829 516.544313 
L 112.741827 523.10733 
L 113.583824 523.703968 
L 114.425822 537.307313 
L 115.267819 540.290502 
L 116.109816 546.137554 
L 116.951814 546.495536 
L 117.793811 558.070312 
L 118.635808 561.411484 
L 119.477806 565.349294 
L 120.319803 563.440053 
L 121.161801 570.838363 
L 122.003798 570.838363 
L 122.845795 574.298863 
L 123.687793 575.014829 
L 124.52979 578.356001 
L 125.371787 583.009777 
L 126.213785 582.532466 
L 127.055782 582.532466 
L 127.89778 587.78288 
L 128.739777 586.470276 
L 129.581774 587.663552 
L 130.423772 587.186242 
L 131.265769 588.618173 
L 132.107766 591.124052 
L 132.949764 588.856828 
L 133.791761 589.095483 
L 134.633759 589.811449 
L 135.475756 589.214811 
L 136.317753 589.811449 
L 137.159751 588.379518 
L 138.001748 590.169432 
L 138.843745 591.482035 
L 139.685743 593.987914 
L 140.52774 594.465225 
L 141.369738 592.317328 
L 142.211735 591.362707 
L 143.053732 593.152621 
L 143.89573 592.913966 
L 144.737727 592.555983 
L 145.579724 595.300518 
L 146.421722 593.152621 
L 147.263719 593.749259 
L 148.105717 592.913966 
L 148.947714 595.300518 
L 149.789711 595.061862 
L 150.631709 593.868587 
L 151.473706 594.345897 
L 152.315703 595.300518 
L 153.157701 592.794638 
L 153.999698 595.6585 
L 154.841696 594.345897 
L 155.683693 594.942535 
L 156.52569 597.329086 
L 158.209685 597.925724 
L 159.89368 597.925724 
L 160.735677 600.670259 
L 161.577675 600.192948 
L 162.419672 600.550931 
L 163.261669 600.312276 
L 164.103667 600.670259 
L 164.945664 601.505552 
L 165.787661 601.982862 
L 166.629659 602.818155 
L 167.471656 601.266897 
L 168.313654 601.982862 
L 169.155651 603.05681 
L 169.997648 603.653448 
L 170.839646 603.653448 
L 171.681643 602.698828 
L 172.52364 603.534121 
L 173.365638 604.011431 
L 174.207635 601.624879 
L 175.049633 604.250086 
L 176.733627 603.534121 
L 177.575625 603.534121 
L 178.417622 604.250086 
L 179.259619 603.653448 
L 180.101617 603.892104 
L 180.943614 603.534121 
L 181.785612 604.608069 
L 182.627609 603.534121 
L 184.311604 603.772776 
L 185.153601 604.011431 
L 185.995598 604.130759 
L 186.837596 604.608069 
L 187.679593 604.727397 
L 188.521591 604.488741 
L 189.363588 604.130759 
L 190.205585 605.443362 
L 191.047583 605.085379 
L 191.88958 605.204707 
L 192.731577 604.369414 
L 193.573575 604.966052 
L 194.415572 604.846724 
L 195.25757 605.443362 
L 196.099567 604.369414 
L 196.941564 605.682017 
L 197.783562 604.966052 
L 198.625559 605.324035 
L 199.467556 604.846724 
L 200.309554 604.846724 
L 201.151551 604.488741 
L 201.993549 604.488741 
L 202.835546 605.443362 
L 203.677543 605.324035 
L 204.519541 604.846724 
L 205.361538 605.324035 
L 206.203535 604.727397 
L 207.045533 604.608069 
L 207.88753 604.846724 
L 208.729528 605.56269 
L 209.571525 604.488741 
L 210.413522 605.682017 
L 212.097517 604.966052 
L 212.939514 605.56269 
L 213.781512 605.56269 
L 214.623509 605.920672 
L 215.465507 605.324035 
L 216.307504 605.56269 
L 217.149501 605.56269 
L 217.991499 605.204707 
L 218.833496 605.801345 
L 219.675493 605.920672 
L 220.517491 605.920672 
L 221.359488 605.324035 
L 222.201486 605.801345 
L 223.88548 605.801345 
L 224.727478 605.682017 
L 225.569475 605.920672 
L 226.411472 605.920672 
L 227.25347 605.56269 
L 228.095467 605.920672 
L 228.937465 606.04 
L 229.779462 605.920672 
L 230.621459 605.56269 
L 232.305454 606.04 
L 233.147451 606.04 
L 233.989449 605.682017 
L 234.831446 605.801345 
L 235.673444 605.801345 
L 236.515441 606.04 
L 237.357438 606.04 
L 239.88343 605.682017 
L 241.567425 605.682017 
L 242.409423 605.920672 
L 243.25142 605.920672 
L 244.093417 605.801345 
L 244.935415 605.443362 
L 245.777412 605.920672 
L 246.619409 605.682017 
L 247.461407 606.04 
L 248.303404 605.920672 
L 249.145402 605.682017 
L 249.987399 605.324035 
L 250.829396 606.04 
L 252.513391 605.801345 
L 253.355388 605.801345 
L 254.197386 605.443362 
L 255.039383 605.801345 
L 256.723378 606.04 
L 257.565375 605.443362 
L 258.407373 605.920672 
L 259.24937 605.801345 
L 260.091367 605.920672 
L 260.933365 605.920672 
L 261.775362 606.04 
L 271.879331 606.04 
L 271.879331 606.04 
" clip-path="url(#p6a704579e8)" style="fill: none; stroke: #0000ff; stroke-width: 1.5; stroke-linecap: square"/>
   </g>
   <g id="patch_13">
    <path d="M 57.17 606.04 
L 57.17 426.213333 
" style="fill: none; stroke: #000000; stroke-width: 0.8; stroke-linejoin: miter; stroke-linecap: square"/>
   </g>
   <g id="patch_14">
    <path d="M 272.721328 606.04 
L 272.721328 426.213333 
" style="fill: none; stroke: #000000; stroke-width: 0.8; stroke-linejoin: miter; stroke-linecap: square"/>
   </g>
   <g id="patch_15">
    <path d="M 57.17 606.04 
L 272.721328 606.04 
" style="fill: none; stroke: #000000; stroke-width: 0.8; stroke-linejoin: miter; stroke-linecap: square"/>
   </g>
   <g id="patch_16">
    <path d="M 57.17 426.213333 
L 272.721328 426.213333 
" style="fill: none; stroke: #000000; stroke-width: 0.8; stroke-linejoin: miter; stroke-linecap: square"/>
   </g>
   <g id="text_49">
    <!-- Blue Channel  -->
    <g transform="translate(189.272578 440.213333) scale(0.12 -0.12)">
     <defs>
      <path id="DejaVuSans-42" d="M 1259 2228 
L 1259 519 
L 2272 519 
Q 2781 519 3026 730 
Q 3272 941 3272 1375 
Q 3272 1813 3026 2020 
Q 2781 2228 2272 2228 
L 1259 2228 
z
M 1259 4147 
L 1259 2741 
L 2194 2741 
Q 2656 2741 2882 2914 
Q 3109 3088 3109 3444 
Q 3109 3797 2882 3972 
Q 2656 4147 2194 4147 
L 1259 4147 
z
M 628 4666 
L 2241 4666 
Q 2963 4666 3353 4366 
Q 3744 4066 3744 3513 
Q 3744 3084 3544 2831 
Q 3344 2578 2956 2516 
Q 3422 2416 3680 2098 
Q 3938 1781 3938 1306 
Q 3938 681 3513 340 
Q 3088 0 2303 0 
L 628 0 
L 628 4666 
z
" transform="scale(0.015625)"/>
     </defs>
     <use xlink:href="#DejaVuSans-42"/>
     <use xlink:href="#DejaVuSans-6c" x="68.603516"/>
     <use xlink:href="#DejaVuSans-75" x="96.386719"/>
     <use xlink:href="#DejaVuSans-65" x="159.765625"/>
     <use xlink:href="#DejaVuSans-20" x="221.289062"/>
     <use xlink:href="#DejaVuSans-43" x="253.076172"/>
     <use xlink:href="#DejaVuSans-68" x="322.900391"/>
     <use xlink:href="#DejaVuSans-61" x="386.279297"/>
     <use xlink:href="#DejaVuSans-6e" x="447.558594"/>
     <use xlink:href="#DejaVuSans-6e" x="510.9375"/>
     <use xlink:href="#DejaVuSans-65" x="574.316406"/>
     <use xlink:href="#DejaVuSans-6c" x="635.839844"/>
     <use xlink:href="#DejaVuSans-20" x="663.623047"/>
    </g>
   </g>
  </g>
 </g>
 <defs>
  <clipPath id="pb37daa2df8">
   <rect x="57.17" y="10.8" width="215.551328" height="179.826667"/>
  </clipPath>
  <clipPath id="p84c9beee80">
   <rect x="57.17" y="218.506667" width="215.551328" height="179.826667"/>
  </clipPath>
  <clipPath id="p6a704579e8">
   <rect x="57.17" y="426.213333" width="215.551328" height="179.826667"/>
  </clipPath>
 </defs>
</svg>
