<?xml version="1.0" encoding="utf-8" standalone="no"?>
<!DOCTYPE svg PUBLIC "-//W3C//DTD SVG 1.1//EN"
  "http://www.w3.org/Graphics/SVG/1.1/DTD/svg11.dtd">
<svg xmlns:xlink="http://www.w3.org/1999/xlink" width="288pt" height="648pt" viewBox="0 0 288 648" xmlns="http://www.w3.org/2000/svg" version="1.1">
 <metadata>
  <rdf:RDF xmlns:dc="http://purl.org/dc/elements/1.1/" xmlns:cc="http://creativecommons.org/ns#" xmlns:rdf="http://www.w3.org/1999/02/22-rdf-syntax-ns#">
   <cc:Work>
    <dc:type rdf:resource="http://purl.org/dc/dcmitype/StillImage"/>
    <dc:date>2023-11-18T15:20:12.341853</dc:date>
    <dc:format>image/svg+xml</dc:format>
    <dc:creator>
     <cc:Agent>
      <dc:title>Matplotlib v3.8.0, https://matplotlib.org/</dc:title>
     </cc:Agent>
    </dc:creator>
   </cc:Work>
  </rdf:RDF>
 </metadata>
 <defs>
  <style type="text/css">*{stroke-linejoin: round; stroke-linecap: butt}</style>
 </defs>
 <g id="figure_1">
  <g id="patch_1">
   <path d="M 0 648 
L 288 648 
L 288 0 
L 0 0 
z
" style="fill: #ffffff"/>
  </g>
  <g id="axes_1">
   <g id="patch_2">
    <path d="M 57.17 190.626667 
L 272.721328 190.626667 
L 272.721328 10.8 
L 57.17 10.8 
z
" style="fill: #ffffff"/>
   </g>
   <g id="PolyCollection_1">
    <defs>
     <path id="m31108d2342" d="M 57.17 -457.373333 
L 57.17 -457.373333 
L 58.011997 -457.373333 
L 58.853995 -457.373333 
L 59.695992 -457.373333 
L 60.53799 -457.373333 
L 61.379987 -457.373333 
L 62.221984 -457.373333 
L 63.063982 -457.373333 
L 63.905979 -457.373333 
L 64.747976 -457.373333 
L 65.589974 -457.373333 
L 66.431971 -457.373333 
L 67.273969 -457.373333 
L 68.115966 -457.373333 
L 68.957963 -457.373333 
L 69.799961 -457.373333 
L 70.641958 -457.373333 
L 71.483955 -457.373333 
L 72.325953 -457.373333 
L 73.16795 -457.373333 
L 74.009948 -457.373333 
L 74.851945 -457.373333 
L 75.693942 -457.373333 
L 76.53594 -457.373333 
L 77.377937 -457.373333 
L 78.219934 -457.373333 
L 79.061932 -457.373333 
L 79.903929 -457.373333 
L 80.745927 -457.373333 
L 81.587924 -457.373333 
L 82.429921 -457.373333 
L 83.271919 -457.373333 
L 84.113916 -457.373333 
L 84.955913 -457.373333 
L 85.797911 -457.373333 
L 86.639908 -457.373333 
L 87.481906 -457.373333 
L 88.323903 -457.373333 
L 89.1659 -457.373333 
L 90.007898 -457.373333 
L 90.849895 -457.373333 
L 91.691892 -457.373333 
L 92.53389 -457.410985 
L 93.375887 -457.373333 
L 94.217885 -457.373333 
L 95.059882 -457.373333 
L 95.901879 -457.373333 
L 96.743877 -457.561594 
L 97.585874 -457.674551 
L 98.427871 -458.615854 
L 99.269869 -459.858375 
L 100.111866 -460.385505 
L 100.953864 -508.128431 
L 101.795861 -543.67206 
L 102.637858 -495.552613 
L 103.479856 -507.337736 
L 104.321853 -516.750773 
L 105.16385 -563.326482 
L 106.005848 -583.282122 
L 106.847845 -576.7683 
L 107.689843 -579.253342 
L 108.53184 -568.597783 
L 109.373837 -558.770572 
L 110.215835 -547.851449 
L 111.057832 -524.168247 
L 111.899829 -516.185991 
L 112.741827 -504.212607 
L 113.583824 -497.359916 
L 114.425822 -494.686614 
L 115.267819 -491.523833 
L 116.109816 -489.942443 
L 116.951814 -483.278012 
L 117.793811 -479.173928 
L 118.635808 -480.039927 
L 119.477806 -475.898191 
L 120.319803 -476.990103 
L 121.161801 -471.304629 
L 122.003798 -471.342281 
L 122.845795 -471.417585 
L 123.687793 -470.589238 
L 124.52979 -470.325673 
L 125.371787 -468.631326 
L 126.213785 -469.685586 
L 127.055782 -469.158456 
L 127.89778 -469.083152 
L 128.739777 -468.781935 
L 129.581774 -468.1795 
L 130.423772 -467.162892 
L 131.265769 -465.995676 
L 132.107766 -466.560458 
L 132.949764 -467.12524 
L 133.791761 -468.028892 
L 134.633759 -466.108632 
L 135.475756 -466.522806 
L 136.317753 -465.167328 
L 137.159751 -464.451937 
L 138.001748 -465.468546 
L 138.843745 -465.167328 
L 139.685743 -464.301329 
L 140.52774 -463.247069 
L 141.369738 -463.887155 
L 142.211735 -463.247069 
L 143.053732 -462.531678 
L 143.89573 -462.343417 
L 144.737727 -462.757591 
L 145.579724 -463.209417 
L 146.421722 -462.795243 
L 147.263719 -461.891591 
L 148.105717 -461.703331 
L 148.947714 -462.117504 
L 149.789711 -461.853939 
L 150.631709 -461.100896 
L 151.473706 -461.740983 
L 152.315703 -461.1762 
L 153.157701 -461.364461 
L 153.999698 -460.762027 
L 154.841696 -461.025592 
L 155.683693 -461.1762 
L 156.52569 -460.272549 
L 157.367688 -460.008984 
L 158.209685 -460.008984 
L 159.051682 -459.331245 
L 159.89368 -459.632462 
L 160.735677 -459.331245 
L 161.577675 -459.707767 
L 162.419672 -459.481854 
L 163.261669 -459.105332 
L 164.103667 -459.218289 
L 164.945664 -459.406549 
L 165.787661 -459.142984 
L 166.629659 -459.06768 
L 167.471656 -459.331245 
L 168.313654 -458.841767 
L 169.155651 -458.502898 
L 169.997648 -458.766463 
L 170.839646 -458.653506 
L 171.681643 -458.427594 
L 172.52364 -458.465246 
L 173.365638 -458.465246 
L 174.207635 -458.314637 
L 175.049633 -458.314637 
L 175.89163 -458.01342 
L 176.733627 -457.787507 
L 177.575625 -458.01342 
L 178.417622 -458.088724 
L 179.259619 -458.01342 
L 180.101617 -457.900463 
L 180.943614 -457.900463 
L 181.785612 -458.051072 
L 182.627609 -458.201681 
L 183.469606 -458.051072 
L 184.311604 -457.938116 
L 185.153601 -457.712203 
L 185.995598 -457.938116 
L 186.837596 -458.088724 
L 187.679593 -458.051072 
L 188.521591 -457.825159 
L 189.363588 -457.787507 
L 190.205585 -458.051072 
L 191.047583 -457.787507 
L 191.88958 -457.825159 
L 192.731577 -457.825159 
L 193.573575 -457.787507 
L 194.415572 -457.900463 
L 195.25757 -457.787507 
L 196.099567 -457.975768 
L 196.941564 -457.825159 
L 197.783562 -457.674551 
L 198.625559 -457.712203 
L 199.467556 -457.787507 
L 200.309554 -457.599246 
L 201.151551 -457.862811 
L 201.993549 -457.599246 
L 202.835546 -457.674551 
L 203.677543 -457.599246 
L 204.519541 -457.561594 
L 205.361538 -457.523942 
L 206.203535 -457.599246 
L 207.045533 -457.787507 
L 207.88753 -457.862811 
L 208.729528 -457.523942 
L 209.571525 -457.636898 
L 210.413522 -457.561594 
L 211.25552 -457.523942 
L 212.097517 -457.561594 
L 212.939514 -457.599246 
L 213.781512 -457.448638 
L 214.623509 -457.523942 
L 215.465507 -457.636898 
L 216.307504 -457.448638 
L 217.149501 -457.448638 
L 217.991499 -457.636898 
L 218.833496 -457.523942 
L 219.675493 -457.410985 
L 220.517491 -457.48629 
L 221.359488 -457.561594 
L 222.201486 -457.523942 
L 223.043483 -457.48629 
L 223.88548 -457.373333 
L 224.727478 -457.48629 
L 225.569475 -457.712203 
L 226.411472 -457.523942 
L 227.25347 -457.410985 
L 228.095467 -457.48629 
L 228.937465 -457.48629 
L 229.779462 -457.373333 
L 230.621459 -457.523942 
L 231.463457 -457.448638 
L 232.305454 -457.523942 
L 233.147451 -457.48629 
L 233.989449 -457.48629 
L 234.831446 -457.599246 
L 235.673444 -457.523942 
L 236.515441 -457.373333 
L 237.357438 -457.448638 
L 238.199436 -457.48629 
L 239.041433 -457.523942 
L 239.88343 -457.48629 
L 240.725428 -457.373333 
L 241.567425 -457.561594 
L 242.409423 -457.48629 
L 243.25142 -457.373333 
L 244.093417 -457.448638 
L 244.935415 -457.48629 
L 245.777412 -457.410985 
L 246.619409 -457.410985 
L 247.461407 -457.373333 
L 248.303404 -457.448638 
L 249.145402 -457.373333 
L 249.987399 -457.410985 
L 250.829396 -457.448638 
L 251.671394 -457.523942 
L 252.513391 -457.448638 
L 253.355388 -457.448638 
L 254.197386 -457.373333 
L 255.039383 -457.410985 
L 255.881381 -457.410985 
L 256.723378 -457.448638 
L 257.565375 -457.373333 
L 258.407373 -457.410985 
L 259.24937 -457.410985 
L 260.091367 -457.373333 
L 260.933365 -457.410985 
L 261.775362 -457.448638 
L 262.61736 -457.410985 
L 263.459357 -457.373333 
L 264.301354 -457.410985 
L 265.143352 -457.373333 
L 265.985349 -457.373333 
L 266.827346 -457.410985 
L 267.669344 -457.373333 
L 268.511341 -457.373333 
L 269.353339 -457.373333 
L 270.195336 -457.373333 
L 271.037333 -457.448638 
L 271.879331 -457.410985 
L 271.879331 -457.373333 
L 271.879331 -457.373333 
L 271.037333 -457.373333 
L 270.195336 -457.373333 
L 269.353339 -457.373333 
L 268.511341 -457.373333 
L 267.669344 -457.373333 
L 266.827346 -457.373333 
L 265.985349 -457.373333 
L 265.143352 -457.373333 
L 264.301354 -457.373333 
L 263.459357 -457.373333 
L 262.61736 -457.373333 
L 261.775362 -457.373333 
L 260.933365 -457.373333 
L 260.091367 -457.373333 
L 259.24937 -457.373333 
L 258.407373 -457.373333 
L 257.565375 -457.373333 
L 256.723378 -457.373333 
L 255.881381 -457.373333 
L 255.039383 -457.373333 
L 254.197386 -457.373333 
L 253.355388 -457.373333 
L 252.513391 -457.373333 
L 251.671394 -457.373333 
L 250.829396 -457.373333 
L 249.987399 -457.373333 
L 249.145402 -457.373333 
L 248.303404 -457.373333 
L 247.461407 -457.373333 
L 246.619409 -457.373333 
L 245.777412 -457.373333 
L 244.935415 -457.373333 
L 244.093417 -457.373333 
L 243.25142 -457.373333 
L 242.409423 -457.373333 
L 241.567425 -457.373333 
L 240.725428 -457.373333 
L 239.88343 -457.373333 
L 239.041433 -457.373333 
L 238.199436 -457.373333 
L 237.357438 -457.373333 
L 236.515441 -457.373333 
L 235.673444 -457.373333 
L 234.831446 -457.373333 
L 233.989449 -457.373333 
L 233.147451 -457.373333 
L 232.305454 -457.373333 
L 231.463457 -457.373333 
L 230.621459 -457.373333 
L 229.779462 -457.373333 
L 228.937465 -457.373333 
L 228.095467 -457.373333 
L 227.25347 -457.373333 
L 226.411472 -457.373333 
L 225.569475 -457.373333 
L 224.727478 -457.373333 
L 223.88548 -457.373333 
L 223.043483 -457.373333 
L 222.201486 -457.373333 
L 221.359488 -457.373333 
L 220.517491 -457.373333 
L 219.675493 -457.373333 
L 218.833496 -457.373333 
L 217.991499 -457.373333 
L 217.149501 -457.373333 
L 216.307504 -457.373333 
L 215.465507 -457.373333 
L 214.623509 -457.373333 
L 213.781512 -457.373333 
L 212.939514 -457.373333 
L 212.097517 -457.373333 
L 211.25552 -457.373333 
L 210.413522 -457.373333 
L 209.571525 -457.373333 
L 208.729528 -457.373333 
L 207.88753 -457.373333 
L 207.045533 -457.373333 
L 206.203535 -457.373333 
L 205.361538 -457.373333 
L 204.519541 -457.373333 
L 203.677543 -457.373333 
L 202.835546 -457.373333 
L 201.993549 -457.373333 
L 201.151551 -457.373333 
L 200.309554 -457.373333 
L 199.467556 -457.373333 
L 198.625559 -457.373333 
L 197.783562 -457.373333 
L 196.941564 -457.373333 
L 196.099567 -457.373333 
L 195.25757 -457.373333 
L 194.415572 -457.373333 
L 193.573575 -457.373333 
L 192.731577 -457.373333 
L 191.88958 -457.373333 
L 191.047583 -457.373333 
L 190.205585 -457.373333 
L 189.363588 -457.373333 
L 188.521591 -457.373333 
L 187.679593 -457.373333 
L 186.837596 -457.373333 
L 185.995598 -457.373333 
L 185.153601 -457.373333 
L 184.311604 -457.373333 
L 183.469606 -457.373333 
L 182.627609 -457.373333 
L 181.785612 -457.373333 
L 180.943614 -457.373333 
L 180.101617 -457.373333 
L 179.259619 -457.373333 
L 178.417622 -457.373333 
L 177.575625 -457.373333 
L 176.733627 -457.373333 
L 175.89163 -457.373333 
L 175.049633 -457.373333 
L 174.207635 -457.373333 
L 173.365638 -457.373333 
L 172.52364 -457.373333 
L 171.681643 -457.373333 
L 170.839646 -457.373333 
L 169.997648 -457.373333 
L 169.155651 -457.373333 
L 168.313654 -457.373333 
L 167.471656 -457.373333 
L 166.629659 -457.373333 
L 165.787661 -457.373333 
L 164.945664 -457.373333 
L 164.103667 -457.373333 
L 163.261669 -457.373333 
L 162.419672 -457.373333 
L 161.577675 -457.373333 
L 160.735677 -457.373333 
L 159.89368 -457.373333 
L 159.051682 -457.373333 
L 158.209685 -457.373333 
L 157.367688 -457.373333 
L 156.52569 -457.373333 
L 155.683693 -457.373333 
L 154.841696 -457.373333 
L 153.999698 -457.373333 
L 153.157701 -457.373333 
L 152.315703 -457.373333 
L 151.473706 -457.373333 
L 150.631709 -457.373333 
L 149.789711 -457.373333 
L 148.947714 -457.373333 
L 148.105717 -457.373333 
L 147.263719 -457.373333 
L 146.421722 -457.373333 
L 145.579724 -457.373333 
L 144.737727 -457.373333 
L 143.89573 -457.373333 
L 143.053732 -457.373333 
L 142.211735 -457.373333 
L 141.369738 -457.373333 
L 140.52774 -457.373333 
L 139.685743 -457.373333 
L 138.843745 -457.373333 
L 138.001748 -457.373333 
L 137.159751 -457.373333 
L 136.317753 -457.373333 
L 135.475756 -457.373333 
L 134.633759 -457.373333 
L 133.791761 -457.373333 
L 132.949764 -457.373333 
L 132.107766 -457.373333 
L 131.265769 -457.373333 
L 130.423772 -457.373333 
L 129.581774 -457.373333 
L 128.739777 -457.373333 
L 127.89778 -457.373333 
L 127.055782 -457.373333 
L 126.213785 -457.373333 
L 125.371787 -457.373333 
L 124.52979 -457.373333 
L 123.687793 -457.373333 
L 122.845795 -457.373333 
L 122.003798 -457.373333 
L 121.161801 -457.373333 
L 120.319803 -457.373333 
L 119.477806 -457.373333 
L 118.635808 -457.373333 
L 117.793811 -457.373333 
L 116.951814 -457.373333 
L 116.109816 -457.373333 
L 115.267819 -457.373333 
L 114.425822 -457.373333 
L 113.583824 -457.373333 
L 112.741827 -457.373333 
L 111.899829 -457.373333 
L 111.057832 -457.373333 
L 110.215835 -457.373333 
L 109.373837 -457.373333 
L 108.53184 -457.373333 
L 107.689843 -457.373333 
L 106.847845 -457.373333 
L 106.005848 -457.373333 
L 105.16385 -457.373333 
L 104.321853 -457.373333 
L 103.479856 -457.373333 
L 102.637858 -457.373333 
L 101.795861 -457.373333 
L 100.953864 -457.373333 
L 100.111866 -457.373333 
L 99.269869 -457.373333 
L 98.427871 -457.373333 
L 97.585874 -457.373333 
L 96.743877 -457.373333 
L 95.901879 -457.373333 
L 95.059882 -457.373333 
L 94.217885 -457.373333 
L 93.375887 -457.373333 
L 92.53389 -457.373333 
L 91.691892 -457.373333 
L 90.849895 -457.373333 
L 90.007898 -457.373333 
L 89.1659 -457.373333 
L 88.323903 -457.373333 
L 87.481906 -457.373333 
L 86.639908 -457.373333 
L 85.797911 -457.373333 
L 84.955913 -457.373333 
L 84.113916 -457.373333 
L 83.271919 -457.373333 
L 82.429921 -457.373333 
L 81.587924 -457.373333 
L 80.745927 -457.373333 
L 79.903929 -457.373333 
L 79.061932 -457.373333 
L 78.219934 -457.373333 
L 77.377937 -457.373333 
L 76.53594 -457.373333 
L 75.693942 -457.373333 
L 74.851945 -457.373333 
L 74.009948 -457.373333 
L 73.16795 -457.373333 
L 72.325953 -457.373333 
L 71.483955 -457.373333 
L 70.641958 -457.373333 
L 69.799961 -457.373333 
L 68.957963 -457.373333 
L 68.115966 -457.373333 
L 67.273969 -457.373333 
L 66.431971 -457.373333 
L 65.589974 -457.373333 
L 64.747976 -457.373333 
L 63.905979 -457.373333 
L 63.063982 -457.373333 
L 62.221984 -457.373333 
L 61.379987 -457.373333 
L 60.53799 -457.373333 
L 59.695992 -457.373333 
L 58.853995 -457.373333 
L 58.011997 -457.373333 
L 57.17 -457.373333 
z
" style="stroke: #ff0000; stroke-opacity: 0.4"/>
    </defs>
    <g clip-path="url(#p34d57afc13)">
     <use xlink:href="#m31108d2342" x="0" y="648" style="fill: #ff0000; fill-opacity: 0.4; stroke: #ff0000; stroke-opacity: 0.4"/>
    </g>
   </g>
   <g id="matplotlib.axis_1">
    <g id="xtick_1">
     <g id="line2d_1">
      <defs>
       <path id="m729e10ec9f" d="M 0 0 
L 0 3.5 
" style="stroke: #000000; stroke-width: 0.8"/>
      </defs>
      <g>
       <use xlink:href="#m729e10ec9f" x="57.17" y="190.626667" style="stroke: #000000; stroke-width: 0.8"/>
      </g>
     </g>
     <g id="text_1">
      <!-- 0 -->
      <g transform="translate(53.98875 205.225104) scale(0.1 -0.1)">
       <defs>
        <path id="DejaVuSans-30" d="M 2034 4250 
Q 1547 4250 1301 3770 
Q 1056 3291 1056 2328 
Q 1056 1369 1301 889 
Q 1547 409 2034 409 
Q 2525 409 2770 889 
Q 3016 1369 3016 2328 
Q 3016 3291 2770 3770 
Q 2525 4250 2034 4250 
z
M 2034 4750 
Q 2819 4750 3233 4129 
Q 3647 3509 3647 2328 
Q 3647 1150 3233 529 
Q 2819 -91 2034 -91 
Q 1250 -91 836 529 
Q 422 1150 422 2328 
Q 422 3509 836 4129 
Q 1250 4750 2034 4750 
z
" transform="scale(0.015625)"/>
       </defs>
       <use xlink:href="#DejaVuSans-30"/>
      </g>
     </g>
    </g>
    <g id="xtick_2">
     <g id="line2d_2">
      <g>
       <use xlink:href="#m729e10ec9f" x="99.269869" y="190.626667" style="stroke: #000000; stroke-width: 0.8"/>
      </g>
     </g>
     <g id="text_2">
      <!-- 50 -->
      <g transform="translate(92.907369 205.225104) scale(0.1 -0.1)">
       <defs>
        <path id="DejaVuSans-35" d="M 691 4666 
L 3169 4666 
L 3169 4134 
L 1269 4134 
L 1269 2991 
Q 1406 3038 1543 3061 
Q 1681 3084 1819 3084 
Q 2600 3084 3056 2656 
Q 3513 2228 3513 1497 
Q 3513 744 3044 326 
Q 2575 -91 1722 -91 
Q 1428 -91 1123 -41 
Q 819 9 494 109 
L 494 744 
Q 775 591 1075 516 
Q 1375 441 1709 441 
Q 2250 441 2565 725 
Q 2881 1009 2881 1497 
Q 2881 1984 2565 2268 
Q 2250 2553 1709 2553 
Q 1456 2553 1204 2497 
Q 953 2441 691 2322 
L 691 4666 
z
" transform="scale(0.015625)"/>
       </defs>
       <use xlink:href="#DejaVuSans-35"/>
       <use xlink:href="#DejaVuSans-30" x="63.623047"/>
      </g>
     </g>
    </g>
    <g id="xtick_3">
     <g id="line2d_3">
      <g>
       <use xlink:href="#m729e10ec9f" x="141.369738" y="190.626667" style="stroke: #000000; stroke-width: 0.8"/>
      </g>
     </g>
     <g id="text_3">
      <!-- 100 -->
      <g transform="translate(131.825988 205.225104) scale(0.1 -0.1)">
       <defs>
        <path id="DejaVuSans-31" d="M 794 531 
L 1825 531 
L 1825 4091 
L 703 3866 
L 703 4441 
L 1819 4666 
L 2450 4666 
L 2450 531 
L 3481 531 
L 3481 0 
L 794 0 
L 794 531 
z
" transform="scale(0.015625)"/>
       </defs>
       <use xlink:href="#DejaVuSans-31"/>
       <use xlink:href="#DejaVuSans-30" x="63.623047"/>
       <use xlink:href="#DejaVuSans-30" x="127.246094"/>
      </g>
     </g>
    </g>
    <g id="xtick_4">
     <g id="line2d_4">
      <g>
       <use xlink:href="#m729e10ec9f" x="183.469606" y="190.626667" style="stroke: #000000; stroke-width: 0.8"/>
      </g>
     </g>
     <g id="text_4">
      <!-- 150 -->
      <g transform="translate(173.925856 205.225104) scale(0.1 -0.1)">
       <use xlink:href="#DejaVuSans-31"/>
       <use xlink:href="#DejaVuSans-35" x="63.623047"/>
       <use xlink:href="#DejaVuSans-30" x="127.246094"/>
      </g>
     </g>
    </g>
    <g id="xtick_5">
     <g id="line2d_5">
      <g>
       <use xlink:href="#m729e10ec9f" x="225.569475" y="190.626667" style="stroke: #000000; stroke-width: 0.8"/>
      </g>
     </g>
     <g id="text_5">
      <!-- 200 -->
      <g transform="translate(216.025725 205.225104) scale(0.1 -0.1)">
       <defs>
        <path id="DejaVuSans-32" d="M 1228 531 
L 3431 531 
L 3431 0 
L 469 0 
L 469 531 
Q 828 903 1448 1529 
Q 2069 2156 2228 2338 
Q 2531 2678 2651 2914 
Q 2772 3150 2772 3378 
Q 2772 3750 2511 3984 
Q 2250 4219 1831 4219 
Q 1534 4219 1204 4116 
Q 875 4013 500 3803 
L 500 4441 
Q 881 4594 1212 4672 
Q 1544 4750 1819 4750 
Q 2544 4750 2975 4387 
Q 3406 4025 3406 3419 
Q 3406 3131 3298 2873 
Q 3191 2616 2906 2266 
Q 2828 2175 2409 1742 
Q 1991 1309 1228 531 
z
" transform="scale(0.015625)"/>
       </defs>
       <use xlink:href="#DejaVuSans-32"/>
       <use xlink:href="#DejaVuSans-30" x="63.623047"/>
       <use xlink:href="#DejaVuSans-30" x="127.246094"/>
      </g>
     </g>
    </g>
    <g id="xtick_6">
     <g id="line2d_6">
      <g>
       <use xlink:href="#m729e10ec9f" x="267.669344" y="190.626667" style="stroke: #000000; stroke-width: 0.8"/>
      </g>
     </g>
     <g id="text_6">
      <!-- 250 -->
      <g transform="translate(258.125594 205.225104) scale(0.1 -0.1)">
       <use xlink:href="#DejaVuSans-32"/>
       <use xlink:href="#DejaVuSans-35" x="63.623047"/>
       <use xlink:href="#DejaVuSans-30" x="127.246094"/>
      </g>
     </g>
    </g>
   </g>
   <g id="matplotlib.axis_2">
    <g id="ytick_1">
     <g id="line2d_7">
      <defs>
       <path id="ma892fd594f" d="M 0 0 
L -3.5 0 
" style="stroke: #000000; stroke-width: 0.8"/>
      </defs>
      <g>
       <use xlink:href="#ma892fd594f" x="57.17" y="190.626667" style="stroke: #000000; stroke-width: 0.8"/>
      </g>
     </g>
     <g id="text_7">
      <!-- 0 -->
      <g transform="translate(43.8075 194.425885) scale(0.1 -0.1)">
       <use xlink:href="#DejaVuSans-30"/>
      </g>
     </g>
    </g>
    <g id="ytick_2">
     <g id="line2d_8">
      <g>
       <use xlink:href="#ma892fd594f" x="57.17" y="152.974517" style="stroke: #000000; stroke-width: 0.8"/>
      </g>
     </g>
     <g id="text_8">
      <!-- 1000 -->
      <g transform="translate(24.72 156.773736) scale(0.1 -0.1)">
       <use xlink:href="#DejaVuSans-31"/>
       <use xlink:href="#DejaVuSans-30" x="63.623047"/>
       <use xlink:href="#DejaVuSans-30" x="127.246094"/>
       <use xlink:href="#DejaVuSans-30" x="190.869141"/>
      </g>
     </g>
    </g>
    <g id="ytick_3">
     <g id="line2d_9">
      <g>
       <use xlink:href="#ma892fd594f" x="57.17" y="115.322367" style="stroke: #000000; stroke-width: 0.8"/>
      </g>
     </g>
     <g id="text_9">
      <!-- 2000 -->
      <g transform="translate(24.72 119.121586) scale(0.1 -0.1)">
       <use xlink:href="#DejaVuSans-32"/>
       <use xlink:href="#DejaVuSans-30" x="63.623047"/>
       <use xlink:href="#DejaVuSans-30" x="127.246094"/>
       <use xlink:href="#DejaVuSans-30" x="190.869141"/>
      </g>
     </g>
    </g>
    <g id="ytick_4">
     <g id="line2d_10">
      <g>
       <use xlink:href="#ma892fd594f" x="57.17" y="77.670218" style="stroke: #000000; stroke-width: 0.8"/>
      </g>
     </g>
     <g id="text_10">
      <!-- 3000 -->
      <g transform="translate(24.72 81.469437) scale(0.1 -0.1)">
       <defs>
        <path id="DejaVuSans-33" d="M 2597 2516 
Q 3050 2419 3304 2112 
Q 3559 1806 3559 1356 
Q 3559 666 3084 287 
Q 2609 -91 1734 -91 
Q 1441 -91 1130 -33 
Q 819 25 488 141 
L 488 750 
Q 750 597 1062 519 
Q 1375 441 1716 441 
Q 2309 441 2620 675 
Q 2931 909 2931 1356 
Q 2931 1769 2642 2001 
Q 2353 2234 1838 2234 
L 1294 2234 
L 1294 2753 
L 1863 2753 
Q 2328 2753 2575 2939 
Q 2822 3125 2822 3475 
Q 2822 3834 2567 4026 
Q 2313 4219 1838 4219 
Q 1578 4219 1281 4162 
Q 984 4106 628 3988 
L 628 4550 
Q 988 4650 1302 4700 
Q 1616 4750 1894 4750 
Q 2613 4750 3031 4423 
Q 3450 4097 3450 3541 
Q 3450 3153 3228 2886 
Q 3006 2619 2597 2516 
z
" transform="scale(0.015625)"/>
       </defs>
       <use xlink:href="#DejaVuSans-33"/>
       <use xlink:href="#DejaVuSans-30" x="63.623047"/>
       <use xlink:href="#DejaVuSans-30" x="127.246094"/>
       <use xlink:href="#DejaVuSans-30" x="190.869141"/>
      </g>
     </g>
    </g>
    <g id="ytick_5">
     <g id="line2d_11">
      <g>
       <use xlink:href="#ma892fd594f" x="57.17" y="40.018068" style="stroke: #000000; stroke-width: 0.8"/>
      </g>
     </g>
     <g id="text_11">
      <!-- 4000 -->
      <g transform="translate(24.72 43.817287) scale(0.1 -0.1)">
       <defs>
        <path id="DejaVuSans-34" d="M 2419 4116 
L 825 1625 
L 2419 1625 
L 2419 4116 
z
M 2253 4666 
L 3047 4666 
L 3047 1625 
L 3713 1625 
L 3713 1100 
L 3047 1100 
L 3047 0 
L 2419 0 
L 2419 1100 
L 313 1100 
L 313 1709 
L 2253 4666 
z
" transform="scale(0.015625)"/>
       </defs>
       <use xlink:href="#DejaVuSans-34"/>
       <use xlink:href="#DejaVuSans-30" x="63.623047"/>
       <use xlink:href="#DejaVuSans-30" x="127.246094"/>
       <use xlink:href="#DejaVuSans-30" x="190.869141"/>
      </g>
     </g>
    </g>
    <g id="text_12">
     <!-- Pixel Frequency -->
     <g transform="translate(18.640313 139.69224) rotate(-90) scale(0.1 -0.1)">
      <defs>
       <path id="DejaVuSans-50" d="M 1259 4147 
L 1259 2394 
L 2053 2394 
Q 2494 2394 2734 2622 
Q 2975 2850 2975 3272 
Q 2975 3691 2734 3919 
Q 2494 4147 2053 4147 
L 1259 4147 
z
M 628 4666 
L 2053 4666 
Q 2838 4666 3239 4311 
Q 3641 3956 3641 3272 
Q 3641 2581 3239 2228 
Q 2838 1875 2053 1875 
L 1259 1875 
L 1259 0 
L 628 0 
L 628 4666 
z
" transform="scale(0.015625)"/>
       <path id="DejaVuSans-69" d="M 603 3500 
L 1178 3500 
L 1178 0 
L 603 0 
L 603 3500 
z
M 603 4863 
L 1178 4863 
L 1178 4134 
L 603 4134 
L 603 4863 
z
" transform="scale(0.015625)"/>
       <path id="DejaVuSans-78" d="M 3513 3500 
L 2247 1797 
L 3578 0 
L 2900 0 
L 1881 1375 
L 863 0 
L 184 0 
L 1544 1831 
L 300 3500 
L 978 3500 
L 1906 2253 
L 2834 3500 
L 3513 3500 
z
" transform="scale(0.015625)"/>
       <path id="DejaVuSans-65" d="M 3597 1894 
L 3597 1613 
L 953 1613 
Q 991 1019 1311 708 
Q 1631 397 2203 397 
Q 2534 397 2845 478 
Q 3156 559 3463 722 
L 3463 178 
Q 3153 47 2828 -22 
Q 2503 -91 2169 -91 
Q 1331 -91 842 396 
Q 353 884 353 1716 
Q 353 2575 817 3079 
Q 1281 3584 2069 3584 
Q 2775 3584 3186 3129 
Q 3597 2675 3597 1894 
z
M 3022 2063 
Q 3016 2534 2758 2815 
Q 2500 3097 2075 3097 
Q 1594 3097 1305 2825 
Q 1016 2553 972 2059 
L 3022 2063 
z
" transform="scale(0.015625)"/>
       <path id="DejaVuSans-6c" d="M 603 4863 
L 1178 4863 
L 1178 0 
L 603 0 
L 603 4863 
z
" transform="scale(0.015625)"/>
       <path id="DejaVuSans-20" transform="scale(0.015625)"/>
       <path id="DejaVuSans-46" d="M 628 4666 
L 3309 4666 
L 3309 4134 
L 1259 4134 
L 1259 2759 
L 3109 2759 
L 3109 2228 
L 1259 2228 
L 1259 0 
L 628 0 
L 628 4666 
z
" transform="scale(0.015625)"/>
       <path id="DejaVuSans-72" d="M 2631 2963 
Q 2534 3019 2420 3045 
Q 2306 3072 2169 3072 
Q 1681 3072 1420 2755 
Q 1159 2438 1159 1844 
L 1159 0 
L 581 0 
L 581 3500 
L 1159 3500 
L 1159 2956 
Q 1341 3275 1631 3429 
Q 1922 3584 2338 3584 
Q 2397 3584 2469 3576 
Q 2541 3569 2628 3553 
L 2631 2963 
z
" transform="scale(0.015625)"/>
       <path id="DejaVuSans-71" d="M 947 1747 
Q 947 1113 1208 752 
Q 1469 391 1925 391 
Q 2381 391 2643 752 
Q 2906 1113 2906 1747 
Q 2906 2381 2643 2742 
Q 2381 3103 1925 3103 
Q 1469 3103 1208 2742 
Q 947 2381 947 1747 
z
M 2906 525 
Q 2725 213 2448 61 
Q 2172 -91 1784 -91 
Q 1150 -91 751 415 
Q 353 922 353 1747 
Q 353 2572 751 3078 
Q 1150 3584 1784 3584 
Q 2172 3584 2448 3432 
Q 2725 3281 2906 2969 
L 2906 3500 
L 3481 3500 
L 3481 -1331 
L 2906 -1331 
L 2906 525 
z
" transform="scale(0.015625)"/>
       <path id="DejaVuSans-75" d="M 544 1381 
L 544 3500 
L 1119 3500 
L 1119 1403 
Q 1119 906 1312 657 
Q 1506 409 1894 409 
Q 2359 409 2629 706 
Q 2900 1003 2900 1516 
L 2900 3500 
L 3475 3500 
L 3475 0 
L 2900 0 
L 2900 538 
Q 2691 219 2414 64 
Q 2138 -91 1772 -91 
Q 1169 -91 856 284 
Q 544 659 544 1381 
z
M 1991 3584 
L 1991 3584 
z
" transform="scale(0.015625)"/>
       <path id="DejaVuSans-6e" d="M 3513 2113 
L 3513 0 
L 2938 0 
L 2938 2094 
Q 2938 2591 2744 2837 
Q 2550 3084 2163 3084 
Q 1697 3084 1428 2787 
Q 1159 2491 1159 1978 
L 1159 0 
L 581 0 
L 581 3500 
L 1159 3500 
L 1159 2956 
Q 1366 3272 1645 3428 
Q 1925 3584 2291 3584 
Q 2894 3584 3203 3211 
Q 3513 2838 3513 2113 
z
" transform="scale(0.015625)"/>
       <path id="DejaVuSans-63" d="M 3122 3366 
L 3122 2828 
Q 2878 2963 2633 3030 
Q 2388 3097 2138 3097 
Q 1578 3097 1268 2742 
Q 959 2388 959 1747 
Q 959 1106 1268 751 
Q 1578 397 2138 397 
Q 2388 397 2633 464 
Q 2878 531 3122 666 
L 3122 134 
Q 2881 22 2623 -34 
Q 2366 -91 2075 -91 
Q 1284 -91 818 406 
Q 353 903 353 1747 
Q 353 2603 823 3093 
Q 1294 3584 2113 3584 
Q 2378 3584 2631 3529 
Q 2884 3475 3122 3366 
z
" transform="scale(0.015625)"/>
       <path id="DejaVuSans-79" d="M 2059 -325 
Q 1816 -950 1584 -1140 
Q 1353 -1331 966 -1331 
L 506 -1331 
L 506 -850 
L 844 -850 
Q 1081 -850 1212 -737 
Q 1344 -625 1503 -206 
L 1606 56 
L 191 3500 
L 800 3500 
L 1894 763 
L 2988 3500 
L 3597 3500 
L 2059 -325 
z
" transform="scale(0.015625)"/>
      </defs>
      <use xlink:href="#DejaVuSans-50"/>
      <use xlink:href="#DejaVuSans-69" x="58.052734"/>
      <use xlink:href="#DejaVuSans-78" x="85.835938"/>
      <use xlink:href="#DejaVuSans-65" x="141.890625"/>
      <use xlink:href="#DejaVuSans-6c" x="203.414062"/>
      <use xlink:href="#DejaVuSans-20" x="231.197266"/>
      <use xlink:href="#DejaVuSans-46" x="262.984375"/>
      <use xlink:href="#DejaVuSans-72" x="313.253906"/>
      <use xlink:href="#DejaVuSans-65" x="352.117188"/>
      <use xlink:href="#DejaVuSans-71" x="413.640625"/>
      <use xlink:href="#DejaVuSans-75" x="477.117188"/>
      <use xlink:href="#DejaVuSans-65" x="540.496094"/>
      <use xlink:href="#DejaVuSans-6e" x="602.019531"/>
      <use xlink:href="#DejaVuSans-63" x="665.398438"/>
      <use xlink:href="#DejaVuSans-79" x="720.378906"/>
     </g>
    </g>
   </g>
   <g id="line2d_12">
    <path d="M 57.17 190.626667 
L 95.901879 190.626667 
L 97.585874 190.325449 
L 98.427871 189.384146 
L 99.269869 188.141625 
L 100.111866 187.614495 
L 100.953864 139.871569 
L 101.795861 104.32794 
L 102.637858 152.447387 
L 103.479856 140.662264 
L 104.321853 131.249227 
L 105.16385 84.673518 
L 106.005848 64.717878 
L 106.847845 71.2317 
L 107.689843 68.746658 
L 110.215835 100.148551 
L 111.057832 123.831753 
L 111.899829 131.814009 
L 112.741827 143.787393 
L 113.583824 150.640084 
L 114.425822 153.313386 
L 115.267819 156.476167 
L 116.109816 158.057557 
L 116.951814 164.721988 
L 117.793811 168.826072 
L 118.635808 167.960073 
L 119.477806 172.101809 
L 120.319803 171.009897 
L 121.161801 176.695371 
L 122.845795 176.582415 
L 123.687793 177.410762 
L 124.52979 177.674327 
L 125.371787 179.368674 
L 126.213785 178.314414 
L 127.055782 178.841544 
L 127.89778 178.916848 
L 128.739777 179.218065 
L 129.581774 179.8205 
L 131.265769 182.004324 
L 132.949764 180.87476 
L 133.791761 179.971108 
L 134.633759 181.891368 
L 135.475756 181.477194 
L 136.317753 182.832672 
L 137.159751 183.548063 
L 138.001748 182.531454 
L 138.843745 182.832672 
L 139.685743 183.698671 
L 140.52774 184.752931 
L 141.369738 184.112845 
L 143.053732 185.468322 
L 143.89573 185.656583 
L 145.579724 184.790583 
L 146.421722 185.204757 
L 147.263719 186.108409 
L 148.105717 186.296669 
L 148.947714 185.882496 
L 149.789711 186.146061 
L 150.631709 186.899104 
L 151.473706 186.259017 
L 152.315703 186.8238 
L 153.157701 186.635539 
L 153.999698 187.237973 
L 155.683693 186.8238 
L 156.52569 187.727451 
L 157.367688 187.991016 
L 158.209685 187.991016 
L 159.051682 188.668755 
L 159.89368 188.367538 
L 160.735677 188.668755 
L 161.577675 188.292233 
L 162.419672 188.518146 
L 163.261669 188.894668 
L 164.945664 188.593451 
L 165.787661 188.857016 
L 166.629659 188.93232 
L 167.471656 188.668755 
L 168.313654 189.158233 
L 169.155651 189.497102 
L 169.997648 189.233537 
L 170.839646 189.346494 
L 171.681643 189.572406 
L 173.365638 189.534754 
L 174.207635 189.685363 
L 175.049633 189.685363 
L 176.733627 190.212493 
L 177.575625 189.98658 
L 178.417622 189.911276 
L 180.943614 190.099537 
L 182.627609 189.798319 
L 185.153601 190.287797 
L 186.837596 189.911276 
L 187.679593 189.948928 
L 188.521591 190.174841 
L 189.363588 190.212493 
L 190.205585 189.948928 
L 191.047583 190.212493 
L 192.731577 190.174841 
L 193.573575 190.212493 
L 194.415572 190.099537 
L 195.25757 190.212493 
L 196.099567 190.024232 
L 197.783562 190.325449 
L 199.467556 190.212493 
L 200.309554 190.400754 
L 201.151551 190.137189 
L 201.993549 190.400754 
L 202.835546 190.325449 
L 205.361538 190.476058 
L 206.203535 190.400754 
L 207.88753 190.137189 
L 208.729528 190.476058 
L 209.571525 190.363102 
L 211.25552 190.476058 
L 212.939514 190.400754 
L 213.781512 190.551362 
L 215.465507 190.363102 
L 216.307504 190.551362 
L 217.149501 190.551362 
L 217.991499 190.363102 
L 219.675493 190.589015 
L 221.359488 190.438406 
L 224.727478 190.51371 
L 225.569475 190.287797 
L 227.25347 190.589015 
L 228.937465 190.51371 
L 229.779462 190.626667 
L 230.621459 190.476058 
L 231.463457 190.551362 
L 232.305454 190.476058 
L 233.989449 190.51371 
L 234.831446 190.400754 
L 237.357438 190.551362 
L 239.88343 190.51371 
L 240.725428 190.626667 
L 241.567425 190.438406 
L 243.25142 190.626667 
L 244.935415 190.51371 
L 246.619409 190.589015 
L 247.461407 190.626667 
L 248.303404 190.551362 
L 249.145402 190.626667 
L 252.513391 190.551362 
L 271.879331 190.589015 
L 271.879331 190.589015 
" clip-path="url(#p34d57afc13)" style="fill: none; stroke: #ff0000; stroke-width: 1.5; stroke-linecap: square"/>
   </g>
   <g id="patch_3">
    <path d="M 57.17 190.626667 
L 57.17 10.8 
" style="fill: none; stroke: #000000; stroke-width: 0.8; stroke-linejoin: miter; stroke-linecap: square"/>
   </g>
   <g id="patch_4">
    <path d="M 272.721328 190.626667 
L 272.721328 10.8 
" style="fill: none; stroke: #000000; stroke-width: 0.8; stroke-linejoin: miter; stroke-linecap: square"/>
   </g>
   <g id="patch_5">
    <path d="M 57.17 190.626667 
L 272.721328 190.626667 
" style="fill: none; stroke: #000000; stroke-width: 0.8; stroke-linejoin: miter; stroke-linecap: square"/>
   </g>
   <g id="patch_6">
    <path d="M 57.17 10.8 
L 272.721328 10.8 
" style="fill: none; stroke: #000000; stroke-width: 0.8; stroke-linejoin: miter; stroke-linecap: square"/>
   </g>
   <g id="text_13">
    <!-- Red Channel  -->
    <g transform="translate(193.028203 24.8) scale(0.12 -0.12)">
     <defs>
      <path id="DejaVuSans-52" d="M 2841 2188 
Q 3044 2119 3236 1894 
Q 3428 1669 3622 1275 
L 4263 0 
L 3584 0 
L 2988 1197 
Q 2756 1666 2539 1819 
Q 2322 1972 1947 1972 
L 1259 1972 
L 1259 0 
L 628 0 
L 628 4666 
L 2053 4666 
Q 2853 4666 3247 4331 
Q 3641 3997 3641 3322 
Q 3641 2881 3436 2590 
Q 3231 2300 2841 2188 
z
M 1259 4147 
L 1259 2491 
L 2053 2491 
Q 2509 2491 2742 2702 
Q 2975 2913 2975 3322 
Q 2975 3731 2742 3939 
Q 2509 4147 2053 4147 
L 1259 4147 
z
" transform="scale(0.015625)"/>
      <path id="DejaVuSans-64" d="M 2906 2969 
L 2906 4863 
L 3481 4863 
L 3481 0 
L 2906 0 
L 2906 525 
Q 2725 213 2448 61 
Q 2172 -91 1784 -91 
Q 1150 -91 751 415 
Q 353 922 353 1747 
Q 353 2572 751 3078 
Q 1150 3584 1784 3584 
Q 2172 3584 2448 3432 
Q 2725 3281 2906 2969 
z
M 947 1747 
Q 947 1113 1208 752 
Q 1469 391 1925 391 
Q 2381 391 2643 752 
Q 2906 1113 2906 1747 
Q 2906 2381 2643 2742 
Q 2381 3103 1925 3103 
Q 1469 3103 1208 2742 
Q 947 2381 947 1747 
z
" transform="scale(0.015625)"/>
      <path id="DejaVuSans-43" d="M 4122 4306 
L 4122 3641 
Q 3803 3938 3442 4084 
Q 3081 4231 2675 4231 
Q 1875 4231 1450 3742 
Q 1025 3253 1025 2328 
Q 1025 1406 1450 917 
Q 1875 428 2675 428 
Q 3081 428 3442 575 
Q 3803 722 4122 1019 
L 4122 359 
Q 3791 134 3420 21 
Q 3050 -91 2638 -91 
Q 1578 -91 968 557 
Q 359 1206 359 2328 
Q 359 3453 968 4101 
Q 1578 4750 2638 4750 
Q 3056 4750 3426 4639 
Q 3797 4528 4122 4306 
z
" transform="scale(0.015625)"/>
      <path id="DejaVuSans-68" d="M 3513 2113 
L 3513 0 
L 2938 0 
L 2938 2094 
Q 2938 2591 2744 2837 
Q 2550 3084 2163 3084 
Q 1697 3084 1428 2787 
Q 1159 2491 1159 1978 
L 1159 0 
L 581 0 
L 581 4863 
L 1159 4863 
L 1159 2956 
Q 1366 3272 1645 3428 
Q 1925 3584 2291 3584 
Q 2894 3584 3203 3211 
Q 3513 2838 3513 2113 
z
" transform="scale(0.015625)"/>
      <path id="DejaVuSans-61" d="M 2194 1759 
Q 1497 1759 1228 1600 
Q 959 1441 959 1056 
Q 959 750 1161 570 
Q 1363 391 1709 391 
Q 2188 391 2477 730 
Q 2766 1069 2766 1631 
L 2766 1759 
L 2194 1759 
z
M 3341 1997 
L 3341 0 
L 2766 0 
L 2766 531 
Q 2569 213 2275 61 
Q 1981 -91 1556 -91 
Q 1019 -91 701 211 
Q 384 513 384 1019 
Q 384 1609 779 1909 
Q 1175 2209 1959 2209 
L 2766 2209 
L 2766 2266 
Q 2766 2663 2505 2880 
Q 2244 3097 1772 3097 
Q 1472 3097 1187 3025 
Q 903 2953 641 2809 
L 641 3341 
Q 956 3463 1253 3523 
Q 1550 3584 1831 3584 
Q 2591 3584 2966 3190 
Q 3341 2797 3341 1997 
z
" transform="scale(0.015625)"/>
     </defs>
     <use xlink:href="#DejaVuSans-52"/>
     <use xlink:href="#DejaVuSans-65" x="64.982422"/>
     <use xlink:href="#DejaVuSans-64" x="126.505859"/>
     <use xlink:href="#DejaVuSans-20" x="189.982422"/>
     <use xlink:href="#DejaVuSans-43" x="221.769531"/>
     <use xlink:href="#DejaVuSans-68" x="291.59375"/>
     <use xlink:href="#DejaVuSans-61" x="354.972656"/>
     <use xlink:href="#DejaVuSans-6e" x="416.251953"/>
     <use xlink:href="#DejaVuSans-6e" x="479.630859"/>
     <use xlink:href="#DejaVuSans-65" x="543.009766"/>
     <use xlink:href="#DejaVuSans-6c" x="604.533203"/>
     <use xlink:href="#DejaVuSans-20" x="632.316406"/>
    </g>
   </g>
  </g>
  <g id="axes_2">
   <g id="patch_7">
    <path d="M 57.17 398.333333 
L 272.721328 398.333333 
L 272.721328 218.506667 
L 57.17 218.506667 
z
" style="fill: #ffffff"/>
   </g>
   <g id="PolyCollection_2">
    <defs>
     <path id="mb4634abef7" d="M 57.17 -249.666667 
L 57.17 -249.666667 
L 58.011997 -249.666667 
L 58.853995 -249.666667 
L 59.695992 -249.666667 
L 60.53799 -249.666667 
L 61.379987 -249.666667 
L 62.221984 -249.666667 
L 63.063982 -249.666667 
L 63.905979 -249.666667 
L 64.747976 -249.666667 
L 65.589974 -249.666667 
L 66.431971 -249.666667 
L 67.273969 -249.666667 
L 68.115966 -249.666667 
L 68.957963 -249.666667 
L 69.799961 -249.666667 
L 70.641958 -249.666667 
L 71.483955 -249.666667 
L 72.325953 -249.666667 
L 73.16795 -249.666667 
L 74.009948 -249.666667 
L 74.851945 -249.666667 
L 75.693942 -249.666667 
L 76.53594 -249.666667 
L 77.377937 -249.666667 
L 78.219934 -249.666667 
L 79.061932 -249.666667 
L 79.903929 -249.666667 
L 80.745927 -249.666667 
L 81.587924 -249.666667 
L 82.429921 -249.666667 
L 83.271919 -249.666667 
L 84.113916 -249.666667 
L 84.955913 -249.666667 
L 85.797911 -249.666667 
L 86.639908 -249.666667 
L 87.481906 -249.666667 
L 88.323903 -249.666667 
L 89.1659 -249.666667 
L 90.007898 -249.666667 
L 90.849895 -249.666667 
L 91.691892 -249.666667 
L 92.53389 -249.666667 
L 93.375887 -249.666667 
L 94.217885 -249.854927 
L 95.059882 -250.306753 
L 95.901879 -251.022144 
L 96.743877 -252.490578 
L 97.585874 -303.622197 
L 98.427871 -341.650868 
L 99.269869 -282.687602 
L 100.111866 -285.662122 
L 100.953864 -298.087331 
L 101.795861 -316.875754 
L 102.637858 -323.126011 
L 103.479856 -352.19347 
L 104.321853 -361.30529 
L 105.16385 -345.491387 
L 106.005848 -343.684084 
L 106.847845 -328.54792 
L 107.689843 -313.863582 
L 108.53184 -321.469316 
L 109.373837 -319.398448 
L 110.215835 -303.772806 
L 111.057832 -298.162635 
L 111.899829 -288.222468 
L 112.741827 -284.984383 
L 113.583824 -279.67543 
L 114.425822 -277.22804 
L 115.267819 -276.098476 
L 116.109816 -272.295609 
L 116.951814 -271.241348 
L 117.793811 -270.676566 
L 118.635808 -266.873699 
L 119.477806 -266.873699 
L 120.319803 -265.1417 
L 121.161801 -263.823875 
L 122.003798 -262.656658 
L 122.845795 -261.790659 
L 123.687793 -261.037616 
L 124.52979 -261.11292 
L 125.371787 -259.418573 
L 126.213785 -261.489442 
L 127.055782 -259.870399 
L 127.89778 -259.719791 
L 128.739777 -259.0044 
L 129.581774 -258.364313 
L 130.423772 -258.853791 
L 131.265769 -257.837183 
L 132.107766 -258.929095 
L 132.949764 -258.514922 
L 133.791761 -257.573618 
L 134.633759 -258.025444 
L 135.475756 -257.121792 
L 136.317753 -257.535966 
L 137.159751 -257.197097 
L 138.001748 -257.197097 
L 138.843745 -257.761879 
L 139.685743 -257.08414 
L 140.52774 -257.573618 
L 141.369738 -256.669966 
L 142.211735 -255.803967 
L 143.053732 -256.218141 
L 143.89573 -255.050924 
L 144.737727 -254.561446 
L 145.579724 -255.276837 
L 146.421722 -254.63675 
L 147.263719 -255.201533 
L 148.105717 -253.883707 
L 148.947714 -254.937968 
L 149.789711 -254.44849 
L 150.631709 -253.356577 
L 151.473706 -254.97562 
L 152.315703 -252.904752 
L 153.157701 -253.92136 
L 153.999698 -254.10962 
L 154.841696 -253.657795 
L 155.683693 -253.58249 
L 156.52569 -252.490578 
L 157.367688 -252.791795 
L 158.209685 -253.657795 
L 159.051682 -252.942404 
L 159.89368 -252.829447 
L 160.735677 -252.603534 
L 161.577675 -252.565882 
L 162.419672 -252.302317 
L 163.261669 -252.151709 
L 164.103667 -252.038752 
L 164.945664 -252.151709 
L 165.787661 -251.850491 
L 166.629659 -251.963448 
L 167.471656 -252.339969 
L 168.313654 -251.624578 
L 169.155651 -252.038752 
L 169.997648 -251.511622 
L 170.839646 -251.586926 
L 171.681643 -251.398666 
L 172.52364 -251.963448 
L 173.365638 -251.248057 
L 174.207635 -251.172753 
L 175.049633 -251.172753 
L 175.89163 -250.720927 
L 176.733627 -251.323361 
L 177.575625 -251.210405 
L 178.417622 -251.210405 
L 179.259619 -250.720927 
L 180.101617 -250.871535 
L 180.943614 -250.683275 
L 181.785612 -250.495014 
L 182.627609 -250.457362 
L 183.469606 -250.269101 
L 184.311604 -250.60797 
L 185.153601 -250.532666 
L 185.995598 -250.306753 
L 186.837596 -250.495014 
L 187.679593 -250.306753 
L 188.521591 -250.570318 
L 189.363588 -250.382058 
L 190.205585 -250.382058 
L 191.047583 -250.532666 
L 191.88958 -250.156145 
L 192.731577 -250.193797 
L 193.573575 -250.269101 
L 194.415572 -250.382058 
L 195.25757 -250.269101 
L 196.099567 -250.043188 
L 196.941564 -249.967884 
L 197.783562 -250.193797 
L 198.625559 -250.231449 
L 199.467556 -250.156145 
L 200.309554 -250.08084 
L 201.151551 -250.08084 
L 201.993549 -250.231449 
L 202.835546 -250.118492 
L 203.677543 -249.967884 
L 204.519541 -250.156145 
L 205.361538 -249.967884 
L 206.203535 -250.043188 
L 207.045533 -250.043188 
L 207.88753 -249.967884 
L 208.729528 -250.193797 
L 209.571525 -250.156145 
L 210.413522 -250.193797 
L 211.25552 -249.930232 
L 212.097517 -250.08084 
L 212.939514 -250.043188 
L 213.781512 -249.930232 
L 214.623509 -249.967884 
L 215.465507 -250.043188 
L 216.307504 -250.118492 
L 217.149501 -250.269101 
L 217.991499 -250.043188 
L 218.833496 -249.967884 
L 219.675493 -250.005536 
L 220.517491 -249.854927 
L 221.359488 -249.817275 
L 222.201486 -249.817275 
L 223.043483 -249.930232 
L 223.88548 -249.967884 
L 224.727478 -249.930232 
L 225.569475 -249.930232 
L 226.411472 -250.043188 
L 227.25347 -249.817275 
L 228.095467 -249.930232 
L 228.937465 -249.817275 
L 229.779462 -249.967884 
L 230.621459 -249.89258 
L 231.463457 -249.779623 
L 232.305454 -249.854927 
L 233.147451 -249.854927 
L 233.989449 -249.854927 
L 234.831446 -249.817275 
L 235.673444 -249.817275 
L 236.515441 -249.779623 
L 237.357438 -249.817275 
L 238.199436 -249.89258 
L 239.041433 -249.967884 
L 239.88343 -249.704319 
L 240.725428 -249.817275 
L 241.567425 -249.741971 
L 242.409423 -249.779623 
L 243.25142 -249.854927 
L 244.093417 -249.779623 
L 244.935415 -249.817275 
L 245.777412 -249.817275 
L 246.619409 -249.817275 
L 247.461407 -249.779623 
L 248.303404 -249.817275 
L 249.145402 -249.779623 
L 249.987399 -249.741971 
L 250.829396 -249.779623 
L 251.671394 -249.704319 
L 252.513391 -249.704319 
L 253.355388 -249.741971 
L 254.197386 -249.817275 
L 255.039383 -249.779623 
L 255.881381 -249.779623 
L 256.723378 -249.704319 
L 257.565375 -249.666667 
L 258.407373 -249.817275 
L 259.24937 -249.741971 
L 260.091367 -249.967884 
L 260.933365 -249.779623 
L 261.775362 -249.817275 
L 262.61736 -249.779623 
L 263.459357 -249.854927 
L 264.301354 -249.704319 
L 265.143352 -249.779623 
L 265.985349 -249.779623 
L 266.827346 -249.967884 
L 267.669344 -250.005536 
L 268.511341 -249.817275 
L 269.353339 -249.779623 
L 270.195336 -249.779623 
L 271.037333 -249.930232 
L 271.879331 -249.967884 
L 271.879331 -249.666667 
L 271.879331 -249.666667 
L 271.037333 -249.666667 
L 270.195336 -249.666667 
L 269.353339 -249.666667 
L 268.511341 -249.666667 
L 267.669344 -249.666667 
L 266.827346 -249.666667 
L 265.985349 -249.666667 
L 265.143352 -249.666667 
L 264.301354 -249.666667 
L 263.459357 -249.666667 
L 262.61736 -249.666667 
L 261.775362 -249.666667 
L 260.933365 -249.666667 
L 260.091367 -249.666667 
L 259.24937 -249.666667 
L 258.407373 -249.666667 
L 257.565375 -249.666667 
L 256.723378 -249.666667 
L 255.881381 -249.666667 
L 255.039383 -249.666667 
L 254.197386 -249.666667 
L 253.355388 -249.666667 
L 252.513391 -249.666667 
L 251.671394 -249.666667 
L 250.829396 -249.666667 
L 249.987399 -249.666667 
L 249.145402 -249.666667 
L 248.303404 -249.666667 
L 247.461407 -249.666667 
L 246.619409 -249.666667 
L 245.777412 -249.666667 
L 244.935415 -249.666667 
L 244.093417 -249.666667 
L 243.25142 -249.666667 
L 242.409423 -249.666667 
L 241.567425 -249.666667 
L 240.725428 -249.666667 
L 239.88343 -249.666667 
L 239.041433 -249.666667 
L 238.199436 -249.666667 
L 237.357438 -249.666667 
L 236.515441 -249.666667 
L 235.673444 -249.666667 
L 234.831446 -249.666667 
L 233.989449 -249.666667 
L 233.147451 -249.666667 
L 232.305454 -249.666667 
L 231.463457 -249.666667 
L 230.621459 -249.666667 
L 229.779462 -249.666667 
L 228.937465 -249.666667 
L 228.095467 -249.666667 
L 227.25347 -249.666667 
L 226.411472 -249.666667 
L 225.569475 -249.666667 
L 224.727478 -249.666667 
L 223.88548 -249.666667 
L 223.043483 -249.666667 
L 222.201486 -249.666667 
L 221.359488 -249.666667 
L 220.517491 -249.666667 
L 219.675493 -249.666667 
L 218.833496 -249.666667 
L 217.991499 -249.666667 
L 217.149501 -249.666667 
L 216.307504 -249.666667 
L 215.465507 -249.666667 
L 214.623509 -249.666667 
L 213.781512 -249.666667 
L 212.939514 -249.666667 
L 212.097517 -249.666667 
L 211.25552 -249.666667 
L 210.413522 -249.666667 
L 209.571525 -249.666667 
L 208.729528 -249.666667 
L 207.88753 -249.666667 
L 207.045533 -249.666667 
L 206.203535 -249.666667 
L 205.361538 -249.666667 
L 204.519541 -249.666667 
L 203.677543 -249.666667 
L 202.835546 -249.666667 
L 201.993549 -249.666667 
L 201.151551 -249.666667 
L 200.309554 -249.666667 
L 199.467556 -249.666667 
L 198.625559 -249.666667 
L 197.783562 -249.666667 
L 196.941564 -249.666667 
L 196.099567 -249.666667 
L 195.25757 -249.666667 
L 194.415572 -249.666667 
L 193.573575 -249.666667 
L 192.731577 -249.666667 
L 191.88958 -249.666667 
L 191.047583 -249.666667 
L 190.205585 -249.666667 
L 189.363588 -249.666667 
L 188.521591 -249.666667 
L 187.679593 -249.666667 
L 186.837596 -249.666667 
L 185.995598 -249.666667 
L 185.153601 -249.666667 
L 184.311604 -249.666667 
L 183.469606 -249.666667 
L 182.627609 -249.666667 
L 181.785612 -249.666667 
L 180.943614 -249.666667 
L 180.101617 -249.666667 
L 179.259619 -249.666667 
L 178.417622 -249.666667 
L 177.575625 -249.666667 
L 176.733627 -249.666667 
L 175.89163 -249.666667 
L 175.049633 -249.666667 
L 174.207635 -249.666667 
L 173.365638 -249.666667 
L 172.52364 -249.666667 
L 171.681643 -249.666667 
L 170.839646 -249.666667 
L 169.997648 -249.666667 
L 169.155651 -249.666667 
L 168.313654 -249.666667 
L 167.471656 -249.666667 
L 166.629659 -249.666667 
L 165.787661 -249.666667 
L 164.945664 -249.666667 
L 164.103667 -249.666667 
L 163.261669 -249.666667 
L 162.419672 -249.666667 
L 161.577675 -249.666667 
L 160.735677 -249.666667 
L 159.89368 -249.666667 
L 159.051682 -249.666667 
L 158.209685 -249.666667 
L 157.367688 -249.666667 
L 156.52569 -249.666667 
L 155.683693 -249.666667 
L 154.841696 -249.666667 
L 153.999698 -249.666667 
L 153.157701 -249.666667 
L 152.315703 -249.666667 
L 151.473706 -249.666667 
L 150.631709 -249.666667 
L 149.789711 -249.666667 
L 148.947714 -249.666667 
L 148.105717 -249.666667 
L 147.263719 -249.666667 
L 146.421722 -249.666667 
L 145.579724 -249.666667 
L 144.737727 -249.666667 
L 143.89573 -249.666667 
L 143.053732 -249.666667 
L 142.211735 -249.666667 
L 141.369738 -249.666667 
L 140.52774 -249.666667 
L 139.685743 -249.666667 
L 138.843745 -249.666667 
L 138.001748 -249.666667 
L 137.159751 -249.666667 
L 136.317753 -249.666667 
L 135.475756 -249.666667 
L 134.633759 -249.666667 
L 133.791761 -249.666667 
L 132.949764 -249.666667 
L 132.107766 -249.666667 
L 131.265769 -249.666667 
L 130.423772 -249.666667 
L 129.581774 -249.666667 
L 128.739777 -249.666667 
L 127.89778 -249.666667 
L 127.055782 -249.666667 
L 126.213785 -249.666667 
L 125.371787 -249.666667 
L 124.52979 -249.666667 
L 123.687793 -249.666667 
L 122.845795 -249.666667 
L 122.003798 -249.666667 
L 121.161801 -249.666667 
L 120.319803 -249.666667 
L 119.477806 -249.666667 
L 118.635808 -249.666667 
L 117.793811 -249.666667 
L 116.951814 -249.666667 
L 116.109816 -249.666667 
L 115.267819 -249.666667 
L 114.425822 -249.666667 
L 113.583824 -249.666667 
L 112.741827 -249.666667 
L 111.899829 -249.666667 
L 111.057832 -249.666667 
L 110.215835 -249.666667 
L 109.373837 -249.666667 
L 108.53184 -249.666667 
L 107.689843 -249.666667 
L 106.847845 -249.666667 
L 106.005848 -249.666667 
L 105.16385 -249.666667 
L 104.321853 -249.666667 
L 103.479856 -249.666667 
L 102.637858 -249.666667 
L 101.795861 -249.666667 
L 100.953864 -249.666667 
L 100.111866 -249.666667 
L 99.269869 -249.666667 
L 98.427871 -249.666667 
L 97.585874 -249.666667 
L 96.743877 -249.666667 
L 95.901879 -249.666667 
L 95.059882 -249.666667 
L 94.217885 -249.666667 
L 93.375887 -249.666667 
L 92.53389 -249.666667 
L 91.691892 -249.666667 
L 90.849895 -249.666667 
L 90.007898 -249.666667 
L 89.1659 -249.666667 
L 88.323903 -249.666667 
L 87.481906 -249.666667 
L 86.639908 -249.666667 
L 85.797911 -249.666667 
L 84.955913 -249.666667 
L 84.113916 -249.666667 
L 83.271919 -249.666667 
L 82.429921 -249.666667 
L 81.587924 -249.666667 
L 80.745927 -249.666667 
L 79.903929 -249.666667 
L 79.061932 -249.666667 
L 78.219934 -249.666667 
L 77.377937 -249.666667 
L 76.53594 -249.666667 
L 75.693942 -249.666667 
L 74.851945 -249.666667 
L 74.009948 -249.666667 
L 73.16795 -249.666667 
L 72.325953 -249.666667 
L 71.483955 -249.666667 
L 70.641958 -249.666667 
L 69.799961 -249.666667 
L 68.957963 -249.666667 
L 68.115966 -249.666667 
L 67.273969 -249.666667 
L 66.431971 -249.666667 
L 65.589974 -249.666667 
L 64.747976 -249.666667 
L 63.905979 -249.666667 
L 63.063982 -249.666667 
L 62.221984 -249.666667 
L 61.379987 -249.666667 
L 60.53799 -249.666667 
L 59.695992 -249.666667 
L 58.853995 -249.666667 
L 58.011997 -249.666667 
L 57.17 -249.666667 
z
" style="stroke: #008000; stroke-opacity: 0.4"/>
    </defs>
    <g clip-path="url(#pc4533590f7)">
     <use xlink:href="#mb4634abef7" x="0" y="648" style="fill: #008000; fill-opacity: 0.4; stroke: #008000; stroke-opacity: 0.4"/>
    </g>
   </g>
   <g id="matplotlib.axis_3">
    <g id="xtick_7">
     <g id="line2d_13">
      <g>
       <use xlink:href="#m729e10ec9f" x="57.17" y="398.333333" style="stroke: #000000; stroke-width: 0.8"/>
      </g>
     </g>
     <g id="text_14">
      <!-- 0 -->
      <g transform="translate(53.98875 412.931771) scale(0.1 -0.1)">
       <use xlink:href="#DejaVuSans-30"/>
      </g>
     </g>
    </g>
    <g id="xtick_8">
     <g id="line2d_14">
      <g>
       <use xlink:href="#m729e10ec9f" x="99.269869" y="398.333333" style="stroke: #000000; stroke-width: 0.8"/>
      </g>
     </g>
     <g id="text_15">
      <!-- 50 -->
      <g transform="translate(92.907369 412.931771) scale(0.1 -0.1)">
       <use xlink:href="#DejaVuSans-35"/>
       <use xlink:href="#DejaVuSans-30" x="63.623047"/>
      </g>
     </g>
    </g>
    <g id="xtick_9">
     <g id="line2d_15">
      <g>
       <use xlink:href="#m729e10ec9f" x="141.369738" y="398.333333" style="stroke: #000000; stroke-width: 0.8"/>
      </g>
     </g>
     <g id="text_16">
      <!-- 100 -->
      <g transform="translate(131.825988 412.931771) scale(0.1 -0.1)">
       <use xlink:href="#DejaVuSans-31"/>
       <use xlink:href="#DejaVuSans-30" x="63.623047"/>
       <use xlink:href="#DejaVuSans-30" x="127.246094"/>
      </g>
     </g>
    </g>
    <g id="xtick_10">
     <g id="line2d_16">
      <g>
       <use xlink:href="#m729e10ec9f" x="183.469606" y="398.333333" style="stroke: #000000; stroke-width: 0.8"/>
      </g>
     </g>
     <g id="text_17">
      <!-- 150 -->
      <g transform="translate(173.925856 412.931771) scale(0.1 -0.1)">
       <use xlink:href="#DejaVuSans-31"/>
       <use xlink:href="#DejaVuSans-35" x="63.623047"/>
       <use xlink:href="#DejaVuSans-30" x="127.246094"/>
      </g>
     </g>
    </g>
    <g id="xtick_11">
     <g id="line2d_17">
      <g>
       <use xlink:href="#m729e10ec9f" x="225.569475" y="398.333333" style="stroke: #000000; stroke-width: 0.8"/>
      </g>
     </g>
     <g id="text_18">
      <!-- 200 -->
      <g transform="translate(216.025725 412.931771) scale(0.1 -0.1)">
       <use xlink:href="#DejaVuSans-32"/>
       <use xlink:href="#DejaVuSans-30" x="63.623047"/>
       <use xlink:href="#DejaVuSans-30" x="127.246094"/>
      </g>
     </g>
    </g>
    <g id="xtick_12">
     <g id="line2d_18">
      <g>
       <use xlink:href="#m729e10ec9f" x="267.669344" y="398.333333" style="stroke: #000000; stroke-width: 0.8"/>
      </g>
     </g>
     <g id="text_19">
      <!-- 250 -->
      <g transform="translate(258.125594 412.931771) scale(0.1 -0.1)">
       <use xlink:href="#DejaVuSans-32"/>
       <use xlink:href="#DejaVuSans-35" x="63.623047"/>
       <use xlink:href="#DejaVuSans-30" x="127.246094"/>
      </g>
     </g>
    </g>
   </g>
   <g id="matplotlib.axis_4">
    <g id="ytick_6">
     <g id="line2d_19">
      <g>
       <use xlink:href="#ma892fd594f" x="57.17" y="398.333333" style="stroke: #000000; stroke-width: 0.8"/>
      </g>
     </g>
     <g id="text_20">
      <!-- 0 -->
      <g transform="translate(43.8075 402.132552) scale(0.1 -0.1)">
       <use xlink:href="#DejaVuSans-30"/>
      </g>
     </g>
    </g>
    <g id="ytick_7">
     <g id="line2d_20">
      <g>
       <use xlink:href="#ma892fd594f" x="57.17" y="360.681184" style="stroke: #000000; stroke-width: 0.8"/>
      </g>
     </g>
     <g id="text_21">
      <!-- 1000 -->
      <g transform="translate(24.72 364.480402) scale(0.1 -0.1)">
       <use xlink:href="#DejaVuSans-31"/>
       <use xlink:href="#DejaVuSans-30" x="63.623047"/>
       <use xlink:href="#DejaVuSans-30" x="127.246094"/>
       <use xlink:href="#DejaVuSans-30" x="190.869141"/>
      </g>
     </g>
    </g>
    <g id="ytick_8">
     <g id="line2d_21">
      <g>
       <use xlink:href="#ma892fd594f" x="57.17" y="323.029034" style="stroke: #000000; stroke-width: 0.8"/>
      </g>
     </g>
     <g id="text_22">
      <!-- 2000 -->
      <g transform="translate(24.72 326.828253) scale(0.1 -0.1)">
       <use xlink:href="#DejaVuSans-32"/>
       <use xlink:href="#DejaVuSans-30" x="63.623047"/>
       <use xlink:href="#DejaVuSans-30" x="127.246094"/>
       <use xlink:href="#DejaVuSans-30" x="190.869141"/>
      </g>
     </g>
    </g>
    <g id="ytick_9">
     <g id="line2d_22">
      <g>
       <use xlink:href="#ma892fd594f" x="57.17" y="285.376884" style="stroke: #000000; stroke-width: 0.8"/>
      </g>
     </g>
     <g id="text_23">
      <!-- 3000 -->
      <g transform="translate(24.72 289.176103) scale(0.1 -0.1)">
       <use xlink:href="#DejaVuSans-33"/>
       <use xlink:href="#DejaVuSans-30" x="63.623047"/>
       <use xlink:href="#DejaVuSans-30" x="127.246094"/>
       <use xlink:href="#DejaVuSans-30" x="190.869141"/>
      </g>
     </g>
    </g>
    <g id="ytick_10">
     <g id="line2d_23">
      <g>
       <use xlink:href="#ma892fd594f" x="57.17" y="247.724735" style="stroke: #000000; stroke-width: 0.8"/>
      </g>
     </g>
     <g id="text_24">
      <!-- 4000 -->
      <g transform="translate(24.72 251.523954) scale(0.1 -0.1)">
       <use xlink:href="#DejaVuSans-34"/>
       <use xlink:href="#DejaVuSans-30" x="63.623047"/>
       <use xlink:href="#DejaVuSans-30" x="127.246094"/>
       <use xlink:href="#DejaVuSans-30" x="190.869141"/>
      </g>
     </g>
    </g>
    <g id="text_25">
     <!-- Pixel Frequency -->
     <g transform="translate(18.640313 347.398906) rotate(-90) scale(0.1 -0.1)">
      <use xlink:href="#DejaVuSans-50"/>
      <use xlink:href="#DejaVuSans-69" x="58.052734"/>
      <use xlink:href="#DejaVuSans-78" x="85.835938"/>
      <use xlink:href="#DejaVuSans-65" x="141.890625"/>
      <use xlink:href="#DejaVuSans-6c" x="203.414062"/>
      <use xlink:href="#DejaVuSans-20" x="231.197266"/>
      <use xlink:href="#DejaVuSans-46" x="262.984375"/>
      <use xlink:href="#DejaVuSans-72" x="313.253906"/>
      <use xlink:href="#DejaVuSans-65" x="352.117188"/>
      <use xlink:href="#DejaVuSans-71" x="413.640625"/>
      <use xlink:href="#DejaVuSans-75" x="477.117188"/>
      <use xlink:href="#DejaVuSans-65" x="540.496094"/>
      <use xlink:href="#DejaVuSans-6e" x="602.019531"/>
      <use xlink:href="#DejaVuSans-63" x="665.398438"/>
      <use xlink:href="#DejaVuSans-79" x="720.378906"/>
     </g>
    </g>
   </g>
   <g id="line2d_24">
    <path d="M 57.17 398.333333 
L 93.375887 398.333333 
L 94.217885 398.145073 
L 95.059882 397.693247 
L 95.901879 396.977856 
L 96.743877 395.509422 
L 97.585874 344.377803 
L 98.427871 306.349132 
L 99.269869 365.312398 
L 100.111866 362.337878 
L 100.953864 349.912669 
L 101.795861 331.124246 
L 102.637858 324.873989 
L 103.479856 295.80653 
L 104.321853 286.69471 
L 105.16385 302.508613 
L 106.005848 304.315916 
L 107.689843 334.136418 
L 108.53184 326.530684 
L 109.373837 328.601552 
L 110.215835 344.227194 
L 111.057832 349.837365 
L 111.899829 359.777532 
L 112.741827 363.015617 
L 113.583824 368.32457 
L 114.425822 370.77196 
L 115.267819 371.901524 
L 116.109816 375.704391 
L 116.951814 376.758652 
L 117.793811 377.323434 
L 118.635808 381.126301 
L 119.477806 381.126301 
L 120.319803 382.8583 
L 122.003798 385.343342 
L 123.687793 386.962384 
L 124.52979 386.88708 
L 125.371787 388.581427 
L 126.213785 386.510558 
L 127.055782 388.129601 
L 127.89778 388.280209 
L 129.581774 389.635687 
L 130.423772 389.146209 
L 131.265769 390.162817 
L 132.107766 389.070905 
L 132.949764 389.485078 
L 133.791761 390.426382 
L 134.633759 389.974556 
L 135.475756 390.878208 
L 136.317753 390.464034 
L 137.159751 390.802903 
L 138.001748 390.802903 
L 138.843745 390.238121 
L 139.685743 390.91586 
L 140.52774 390.426382 
L 142.211735 392.196033 
L 143.053732 391.781859 
L 143.89573 392.949076 
L 144.737727 393.438554 
L 145.579724 392.723163 
L 146.421722 393.36325 
L 147.263719 392.798467 
L 148.105717 394.116293 
L 148.947714 393.062032 
L 149.789711 393.55151 
L 150.631709 394.643423 
L 151.473706 393.02438 
L 152.315703 395.095248 
L 153.157701 394.07864 
L 153.999698 393.89038 
L 154.841696 394.342205 
L 155.683693 394.41751 
L 156.52569 395.509422 
L 157.367688 395.208205 
L 158.209685 394.342205 
L 159.051682 395.057596 
L 159.89368 395.170553 
L 160.735677 395.396466 
L 161.577675 395.434118 
L 163.261669 395.848291 
L 164.103667 395.961248 
L 164.945664 395.848291 
L 165.787661 396.149509 
L 166.629659 396.036552 
L 167.471656 395.660031 
L 168.313654 396.375422 
L 169.155651 395.961248 
L 169.997648 396.488378 
L 170.839646 396.413074 
L 171.681643 396.601334 
L 172.52364 396.036552 
L 173.365638 396.751943 
L 175.049633 396.827247 
L 175.89163 397.279073 
L 176.733627 396.676639 
L 177.575625 396.789595 
L 178.417622 396.789595 
L 179.259619 397.279073 
L 180.101617 397.128465 
L 181.785612 397.504986 
L 182.627609 397.542638 
L 183.469606 397.730899 
L 184.311604 397.39203 
L 185.153601 397.467334 
L 185.995598 397.693247 
L 186.837596 397.504986 
L 187.679593 397.693247 
L 188.521591 397.429682 
L 189.363588 397.617942 
L 190.205585 397.617942 
L 191.047583 397.467334 
L 191.88958 397.843855 
L 193.573575 397.730899 
L 194.415572 397.617942 
L 195.25757 397.730899 
L 196.099567 397.956812 
L 196.941564 398.032116 
L 197.783562 397.806203 
L 198.625559 397.768551 
L 201.151551 397.91916 
L 201.993549 397.768551 
L 203.677543 398.032116 
L 204.519541 397.843855 
L 205.361538 398.032116 
L 207.045533 397.956812 
L 207.88753 398.032116 
L 208.729528 397.806203 
L 210.413522 397.806203 
L 211.25552 398.069768 
L 212.097517 397.91916 
L 214.623509 398.032116 
L 217.149501 397.730899 
L 217.991499 397.956812 
L 218.833496 398.032116 
L 219.675493 397.994464 
L 220.517491 398.145073 
L 222.201486 398.182725 
L 223.88548 398.032116 
L 225.569475 398.069768 
L 226.411472 397.956812 
L 227.25347 398.182725 
L 228.095467 398.069768 
L 228.937465 398.182725 
L 229.779462 398.032116 
L 231.463457 398.220377 
L 233.147451 398.145073 
L 238.199436 398.10742 
L 239.041433 398.032116 
L 239.88343 398.295681 
L 240.725428 398.182725 
L 241.567425 398.258029 
L 244.935415 398.182725 
L 250.829396 398.220377 
L 252.513391 398.295681 
L 255.881381 398.220377 
L 257.565375 398.333333 
L 258.407373 398.182725 
L 259.24937 398.258029 
L 260.091367 398.032116 
L 260.933365 398.220377 
L 263.459357 398.145073 
L 264.301354 398.295681 
L 267.669344 397.994464 
L 268.511341 398.182725 
L 270.195336 398.220377 
L 271.037333 398.069768 
L 271.879331 398.032116 
L 271.879331 398.032116 
" clip-path="url(#pc4533590f7)" style="fill: none; stroke: #008000; stroke-width: 1.5; stroke-linecap: square"/>
   </g>
   <g id="patch_8">
    <path d="M 57.17 398.333333 
L 57.17 218.506667 
" style="fill: none; stroke: #000000; stroke-width: 0.8; stroke-linejoin: miter; stroke-linecap: square"/>
   </g>
   <g id="patch_9">
    <path d="M 272.721328 398.333333 
L 272.721328 218.506667 
" style="fill: none; stroke: #000000; stroke-width: 0.8; stroke-linejoin: miter; stroke-linecap: square"/>
   </g>
   <g id="patch_10">
    <path d="M 57.17 398.333333 
L 272.721328 398.333333 
" style="fill: none; stroke: #000000; stroke-width: 0.8; stroke-linejoin: miter; stroke-linecap: square"/>
   </g>
   <g id="patch_11">
    <path d="M 57.17 218.506667 
L 272.721328 218.506667 
" style="fill: none; stroke: #000000; stroke-width: 0.8; stroke-linejoin: miter; stroke-linecap: square"/>
   </g>
   <g id="text_26">
    <!-- Green Channel  -->
    <g transform="translate(179.494453 232.506667) scale(0.12 -0.12)">
     <defs>
      <path id="DejaVuSans-47" d="M 3809 666 
L 3809 1919 
L 2778 1919 
L 2778 2438 
L 4434 2438 
L 4434 434 
Q 4069 175 3628 42 
Q 3188 -91 2688 -91 
Q 1594 -91 976 548 
Q 359 1188 359 2328 
Q 359 3472 976 4111 
Q 1594 4750 2688 4750 
Q 3144 4750 3555 4637 
Q 3966 4525 4313 4306 
L 4313 3634 
Q 3963 3931 3569 4081 
Q 3175 4231 2741 4231 
Q 1884 4231 1454 3753 
Q 1025 3275 1025 2328 
Q 1025 1384 1454 906 
Q 1884 428 2741 428 
Q 3075 428 3337 486 
Q 3600 544 3809 666 
z
" transform="scale(0.015625)"/>
     </defs>
     <use xlink:href="#DejaVuSans-47"/>
     <use xlink:href="#DejaVuSans-72" x="77.490234"/>
     <use xlink:href="#DejaVuSans-65" x="116.353516"/>
     <use xlink:href="#DejaVuSans-65" x="177.876953"/>
     <use xlink:href="#DejaVuSans-6e" x="239.400391"/>
     <use xlink:href="#DejaVuSans-20" x="302.779297"/>
     <use xlink:href="#DejaVuSans-43" x="334.566406"/>
     <use xlink:href="#DejaVuSans-68" x="404.390625"/>
     <use xlink:href="#DejaVuSans-61" x="467.769531"/>
     <use xlink:href="#DejaVuSans-6e" x="529.048828"/>
     <use xlink:href="#DejaVuSans-6e" x="592.427734"/>
     <use xlink:href="#DejaVuSans-65" x="655.806641"/>
     <use xlink:href="#DejaVuSans-6c" x="717.330078"/>
     <use xlink:href="#DejaVuSans-20" x="745.113281"/>
    </g>
   </g>
  </g>
  <g id="axes_3">
   <g id="patch_12">
    <path d="M 57.17 606.04 
L 272.721328 606.04 
L 272.721328 426.213333 
L 57.17 426.213333 
z
" style="fill: #ffffff"/>
   </g>
   <g id="PolyCollection_3">
    <defs>
     <path id="me9f27ff09d" d="M 57.17 -41.96 
L 57.17 -41.96 
L 58.011997 -41.96 
L 58.853995 -41.96 
L 59.695992 -41.96 
L 60.53799 -41.96 
L 61.379987 -41.96 
L 62.221984 -41.96 
L 63.063982 -41.96 
L 63.905979 -41.96 
L 64.747976 -41.96 
L 65.589974 -41.96 
L 66.431971 -41.96 
L 67.273969 -41.96 
L 68.115966 -41.96 
L 68.957963 -41.96 
L 69.799961 -41.96 
L 70.641958 -41.997652 
L 71.483955 -41.96 
L 72.325953 -41.96 
L 73.16795 -41.96 
L 74.009948 -41.96 
L 74.851945 -41.997652 
L 75.693942 -41.997652 
L 76.53594 -42.261217 
L 77.377937 -42.449478 
L 78.219934 -43.240173 
L 79.061932 -44.670955 
L 79.903929 -48.323213 
L 80.745927 -63.572334 
L 81.587924 -146.595324 
L 82.429921 -221.786667 
L 83.271919 -198.89416 
L 84.113916 -210.378065 
L 84.955913 -180.030433 
L 85.797911 -174.307306 
L 86.639908 -167.642875 
L 87.481906 -147.084802 
L 88.323903 -118.582125 
L 89.1659 -105.818046 
L 90.007898 -94.597705 
L 90.849895 -84.281016 
L 91.691892 -78.21902 
L 92.53389 -72.119372 
L 93.375887 -69.747286 
L 94.217885 -65.304333 
L 95.059882 -62.969899 
L 95.901879 -60.597814 
L 96.743877 -59.920075 
L 97.585874 -57.698599 
L 98.427871 -56.267817 
L 99.269869 -57.246773 
L 100.111866 -55.665382 
L 100.953864 -55.778339 
L 101.795861 -54.535818 
L 102.637858 -53.895731 
L 103.479856 -53.895731 
L 104.321853 -53.255645 
L 105.16385 -52.12608 
L 106.005848 -52.12608 
L 106.847845 -53.142688 
L 107.689843 -50.092864 
L 108.53184 -50.507038 
L 109.373837 -49.452778 
L 110.215835 -49.641039 
L 111.057832 -49.641039 
L 111.899829 -49.189213 
L 112.741827 -47.494866 
L 113.583824 -48.285561 
L 114.425822 -48.323213 
L 115.267819 -47.796083 
L 116.109816 -47.871387 
L 116.951814 -46.817127 
L 117.793811 -46.402954 
L 118.635808 -46.064084 
L 119.477806 -46.704171 
L 120.319803 -45.762867 
L 121.161801 -46.704171 
L 122.003798 -45.273389 
L 122.845795 -45.235737 
L 123.687793 -45.725215 
L 124.52979 -44.972172 
L 125.371787 -45.009824 
L 126.213785 -45.235737 
L 127.055782 -44.181477 
L 127.89778 -44.181477 
L 128.739777 -44.332085 
L 129.581774 -44.670955 
L 130.423772 -43.804955 
L 131.265769 -44.40739 
L 132.107766 -43.729651 
L 132.949764 -43.767303 
L 133.791761 -44.332085 
L 134.633759 -43.503738 
L 135.475756 -43.767303 
L 136.317753 -43.277825 
L 137.159751 -43.202521 
L 138.001748 -43.164869 
L 138.843745 -43.54139 
L 139.685743 -42.750695 
L 140.52774 -43.089564 
L 141.369738 -42.863652 
L 142.211735 -42.901304 
L 143.053732 -42.901304 
L 143.89573 -43.051912 
L 144.737727 -42.788347 
L 145.579724 -42.637739 
L 146.421722 -42.562434 
L 147.263719 -42.524782 
L 148.105717 -42.524782 
L 148.947714 -42.524782 
L 149.789711 -42.48713 
L 150.631709 -42.524782 
L 151.473706 -42.600087 
L 152.315703 -42.48713 
L 153.157701 -42.48713 
L 153.999698 -42.411826 
L 154.841696 -42.336521 
L 155.683693 -42.374174 
L 156.52569 -42.449478 
L 157.367688 -42.336521 
L 158.209685 -42.336521 
L 159.051682 -42.449478 
L 159.89368 -42.637739 
L 160.735677 -42.600087 
L 161.577675 -42.637739 
L 162.419672 -42.298869 
L 163.261669 -42.449478 
L 164.103667 -42.48713 
L 164.945664 -42.637739 
L 165.787661 -42.374174 
L 166.629659 -42.336521 
L 167.471656 -42.449478 
L 168.313654 -42.223565 
L 169.155651 -42.562434 
L 169.997648 -42.185913 
L 170.839646 -42.072956 
L 171.681643 -42.148261 
L 172.52364 -42.336521 
L 173.365638 -42.261217 
L 174.207635 -42.411826 
L 175.049633 -42.110609 
L 175.89163 -42.185913 
L 176.733627 -42.261217 
L 177.575625 -42.072956 
L 178.417622 -42.185913 
L 179.259619 -42.261217 
L 180.101617 -42.110609 
L 180.943614 -42.110609 
L 181.785612 -42.072956 
L 182.627609 -42.185913 
L 183.469606 -42.223565 
L 184.311604 -42.072956 
L 185.153601 -42.072956 
L 185.995598 -42.035304 
L 186.837596 -42.148261 
L 187.679593 -42.185913 
L 188.521591 -42.185913 
L 189.363588 -42.035304 
L 190.205585 -42.110609 
L 191.047583 -42.035304 
L 191.88958 -42.072956 
L 192.731577 -41.997652 
L 193.573575 -41.997652 
L 194.415572 -42.072956 
L 195.25757 -42.223565 
L 196.099567 -42.035304 
L 196.941564 -42.148261 
L 197.783562 -42.035304 
L 198.625559 -42.110609 
L 199.467556 -42.035304 
L 200.309554 -42.035304 
L 201.151551 -42.072956 
L 201.993549 -42.072956 
L 202.835546 -41.997652 
L 203.677543 -42.148261 
L 204.519541 -41.96 
L 205.361538 -42.035304 
L 206.203535 -42.035304 
L 207.045533 -42.148261 
L 207.88753 -42.072956 
L 208.729528 -42.110609 
L 209.571525 -41.997652 
L 210.413522 -42.072956 
L 211.25552 -42.148261 
L 212.097517 -42.072956 
L 212.939514 -42.035304 
L 213.781512 -41.997652 
L 214.623509 -42.072956 
L 215.465507 -42.035304 
L 216.307504 -42.035304 
L 217.149501 -41.96 
L 217.991499 -42.035304 
L 218.833496 -41.997652 
L 219.675493 -42.035304 
L 220.517491 -41.997652 
L 221.359488 -41.96 
L 222.201486 -42.035304 
L 223.043483 -41.997652 
L 223.88548 -42.035304 
L 224.727478 -41.997652 
L 225.569475 -41.997652 
L 226.411472 -41.997652 
L 227.25347 -42.072956 
L 228.095467 -42.035304 
L 228.937465 -41.96 
L 229.779462 -41.96 
L 230.621459 -41.997652 
L 231.463457 -41.997652 
L 232.305454 -41.96 
L 233.147451 -42.035304 
L 233.989449 -42.035304 
L 234.831446 -41.96 
L 235.673444 -41.96 
L 236.515441 -41.96 
L 237.357438 -41.96 
L 238.199436 -41.997652 
L 239.041433 -42.035304 
L 239.88343 -41.96 
L 240.725428 -41.96 
L 241.567425 -41.96 
L 242.409423 -41.96 
L 243.25142 -41.96 
L 244.093417 -42.072956 
L 244.935415 -41.96 
L 245.777412 -41.96 
L 246.619409 -41.96 
L 247.461407 -41.997652 
L 248.303404 -41.96 
L 249.145402 -41.96 
L 249.987399 -41.96 
L 250.829396 -41.96 
L 251.671394 -41.96 
L 252.513391 -41.96 
L 253.355388 -41.997652 
L 254.197386 -41.96 
L 255.039383 -41.96 
L 255.881381 -41.96 
L 256.723378 -41.96 
L 257.565375 -41.96 
L 258.407373 -41.96 
L 259.24937 -41.96 
L 260.091367 -41.96 
L 260.933365 -41.96 
L 261.775362 -41.96 
L 262.61736 -41.96 
L 263.459357 -41.997652 
L 264.301354 -41.96 
L 265.143352 -41.96 
L 265.985349 -41.96 
L 266.827346 -41.96 
L 267.669344 -41.96 
L 268.511341 -41.96 
L 269.353339 -41.96 
L 270.195336 -41.96 
L 271.037333 -41.96 
L 271.879331 -41.96 
L 271.879331 -41.96 
L 271.879331 -41.96 
L 271.037333 -41.96 
L 270.195336 -41.96 
L 269.353339 -41.96 
L 268.511341 -41.96 
L 267.669344 -41.96 
L 266.827346 -41.96 
L 265.985349 -41.96 
L 265.143352 -41.96 
L 264.301354 -41.96 
L 263.459357 -41.96 
L 262.61736 -41.96 
L 261.775362 -41.96 
L 260.933365 -41.96 
L 260.091367 -41.96 
L 259.24937 -41.96 
L 258.407373 -41.96 
L 257.565375 -41.96 
L 256.723378 -41.96 
L 255.881381 -41.96 
L 255.039383 -41.96 
L 254.197386 -41.96 
L 253.355388 -41.96 
L 252.513391 -41.96 
L 251.671394 -41.96 
L 250.829396 -41.96 
L 249.987399 -41.96 
L 249.145402 -41.96 
L 248.303404 -41.96 
L 247.461407 -41.96 
L 246.619409 -41.96 
L 245.777412 -41.96 
L 244.935415 -41.96 
L 244.093417 -41.96 
L 243.25142 -41.96 
L 242.409423 -41.96 
L 241.567425 -41.96 
L 240.725428 -41.96 
L 239.88343 -41.96 
L 239.041433 -41.96 
L 238.199436 -41.96 
L 237.357438 -41.96 
L 236.515441 -41.96 
L 235.673444 -41.96 
L 234.831446 -41.96 
L 233.989449 -41.96 
L 233.147451 -41.96 
L 232.305454 -41.96 
L 231.463457 -41.96 
L 230.621459 -41.96 
L 229.779462 -41.96 
L 228.937465 -41.96 
L 228.095467 -41.96 
L 227.25347 -41.96 
L 226.411472 -41.96 
L 225.569475 -41.96 
L 224.727478 -41.96 
L 223.88548 -41.96 
L 223.043483 -41.96 
L 222.201486 -41.96 
L 221.359488 -41.96 
L 220.517491 -41.96 
L 219.675493 -41.96 
L 218.833496 -41.96 
L 217.991499 -41.96 
L 217.149501 -41.96 
L 216.307504 -41.96 
L 215.465507 -41.96 
L 214.623509 -41.96 
L 213.781512 -41.96 
L 212.939514 -41.96 
L 212.097517 -41.96 
L 211.25552 -41.96 
L 210.413522 -41.96 
L 209.571525 -41.96 
L 208.729528 -41.96 
L 207.88753 -41.96 
L 207.045533 -41.96 
L 206.203535 -41.96 
L 205.361538 -41.96 
L 204.519541 -41.96 
L 203.677543 -41.96 
L 202.835546 -41.96 
L 201.993549 -41.96 
L 201.151551 -41.96 
L 200.309554 -41.96 
L 199.467556 -41.96 
L 198.625559 -41.96 
L 197.783562 -41.96 
L 196.941564 -41.96 
L 196.099567 -41.96 
L 195.25757 -41.96 
L 194.415572 -41.96 
L 193.573575 -41.96 
L 192.731577 -41.96 
L 191.88958 -41.96 
L 191.047583 -41.96 
L 190.205585 -41.96 
L 189.363588 -41.96 
L 188.521591 -41.96 
L 187.679593 -41.96 
L 186.837596 -41.96 
L 185.995598 -41.96 
L 185.153601 -41.96 
L 184.311604 -41.96 
L 183.469606 -41.96 
L 182.627609 -41.96 
L 181.785612 -41.96 
L 180.943614 -41.96 
L 180.101617 -41.96 
L 179.259619 -41.96 
L 178.417622 -41.96 
L 177.575625 -41.96 
L 176.733627 -41.96 
L 175.89163 -41.96 
L 175.049633 -41.96 
L 174.207635 -41.96 
L 173.365638 -41.96 
L 172.52364 -41.96 
L 171.681643 -41.96 
L 170.839646 -41.96 
L 169.997648 -41.96 
L 169.155651 -41.96 
L 168.313654 -41.96 
L 167.471656 -41.96 
L 166.629659 -41.96 
L 165.787661 -41.96 
L 164.945664 -41.96 
L 164.103667 -41.96 
L 163.261669 -41.96 
L 162.419672 -41.96 
L 161.577675 -41.96 
L 160.735677 -41.96 
L 159.89368 -41.96 
L 159.051682 -41.96 
L 158.209685 -41.96 
L 157.367688 -41.96 
L 156.52569 -41.96 
L 155.683693 -41.96 
L 154.841696 -41.96 
L 153.999698 -41.96 
L 153.157701 -41.96 
L 152.315703 -41.96 
L 151.473706 -41.96 
L 150.631709 -41.96 
L 149.789711 -41.96 
L 148.947714 -41.96 
L 148.105717 -41.96 
L 147.263719 -41.96 
L 146.421722 -41.96 
L 145.579724 -41.96 
L 144.737727 -41.96 
L 143.89573 -41.96 
L 143.053732 -41.96 
L 142.211735 -41.96 
L 141.369738 -41.96 
L 140.52774 -41.96 
L 139.685743 -41.96 
L 138.843745 -41.96 
L 138.001748 -41.96 
L 137.159751 -41.96 
L 136.317753 -41.96 
L 135.475756 -41.96 
L 134.633759 -41.96 
L 133.791761 -41.96 
L 132.949764 -41.96 
L 132.107766 -41.96 
L 131.265769 -41.96 
L 130.423772 -41.96 
L 129.581774 -41.96 
L 128.739777 -41.96 
L 127.89778 -41.96 
L 127.055782 -41.96 
L 126.213785 -41.96 
L 125.371787 -41.96 
L 124.52979 -41.96 
L 123.687793 -41.96 
L 122.845795 -41.96 
L 122.003798 -41.96 
L 121.161801 -41.96 
L 120.319803 -41.96 
L 119.477806 -41.96 
L 118.635808 -41.96 
L 117.793811 -41.96 
L 116.951814 -41.96 
L 116.109816 -41.96 
L 115.267819 -41.96 
L 114.425822 -41.96 
L 113.583824 -41.96 
L 112.741827 -41.96 
L 111.899829 -41.96 
L 111.057832 -41.96 
L 110.215835 -41.96 
L 109.373837 -41.96 
L 108.53184 -41.96 
L 107.689843 -41.96 
L 106.847845 -41.96 
L 106.005848 -41.96 
L 105.16385 -41.96 
L 104.321853 -41.96 
L 103.479856 -41.96 
L 102.637858 -41.96 
L 101.795861 -41.96 
L 100.953864 -41.96 
L 100.111866 -41.96 
L 99.269869 -41.96 
L 98.427871 -41.96 
L 97.585874 -41.96 
L 96.743877 -41.96 
L 95.901879 -41.96 
L 95.059882 -41.96 
L 94.217885 -41.96 
L 93.375887 -41.96 
L 92.53389 -41.96 
L 91.691892 -41.96 
L 90.849895 -41.96 
L 90.007898 -41.96 
L 89.1659 -41.96 
L 88.323903 -41.96 
L 87.481906 -41.96 
L 86.639908 -41.96 
L 85.797911 -41.96 
L 84.955913 -41.96 
L 84.113916 -41.96 
L 83.271919 -41.96 
L 82.429921 -41.96 
L 81.587924 -41.96 
L 80.745927 -41.96 
L 79.903929 -41.96 
L 79.061932 -41.96 
L 78.219934 -41.96 
L 77.377937 -41.96 
L 76.53594 -41.96 
L 75.693942 -41.96 
L 74.851945 -41.96 
L 74.009948 -41.96 
L 73.16795 -41.96 
L 72.325953 -41.96 
L 71.483955 -41.96 
L 70.641958 -41.96 
L 69.799961 -41.96 
L 68.957963 -41.96 
L 68.115966 -41.96 
L 67.273969 -41.96 
L 66.431971 -41.96 
L 65.589974 -41.96 
L 64.747976 -41.96 
L 63.905979 -41.96 
L 63.063982 -41.96 
L 62.221984 -41.96 
L 61.379987 -41.96 
L 60.53799 -41.96 
L 59.695992 -41.96 
L 58.853995 -41.96 
L 58.011997 -41.96 
L 57.17 -41.96 
z
" style="stroke: #0000ff; stroke-opacity: 0.4"/>
    </defs>
    <g clip-path="url(#pf65a1f61ab)">
     <use xlink:href="#me9f27ff09d" x="0" y="648" style="fill: #0000ff; fill-opacity: 0.4; stroke: #0000ff; stroke-opacity: 0.4"/>
    </g>
   </g>
   <g id="matplotlib.axis_5">
    <g id="xtick_13">
     <g id="line2d_25">
      <g>
       <use xlink:href="#m729e10ec9f" x="57.17" y="606.04" style="stroke: #000000; stroke-width: 0.8"/>
      </g>
     </g>
     <g id="text_27">
      <!-- 0 -->
      <g transform="translate(53.98875 620.638438) scale(0.1 -0.1)">
       <use xlink:href="#DejaVuSans-30"/>
      </g>
     </g>
    </g>
    <g id="xtick_14">
     <g id="line2d_26">
      <g>
       <use xlink:href="#m729e10ec9f" x="99.269869" y="606.04" style="stroke: #000000; stroke-width: 0.8"/>
      </g>
     </g>
     <g id="text_28">
      <!-- 50 -->
      <g transform="translate(92.907369 620.638438) scale(0.1 -0.1)">
       <use xlink:href="#DejaVuSans-35"/>
       <use xlink:href="#DejaVuSans-30" x="63.623047"/>
      </g>
     </g>
    </g>
    <g id="xtick_15">
     <g id="line2d_27">
      <g>
       <use xlink:href="#m729e10ec9f" x="141.369738" y="606.04" style="stroke: #000000; stroke-width: 0.8"/>
      </g>
     </g>
     <g id="text_29">
      <!-- 100 -->
      <g transform="translate(131.825988 620.638438) scale(0.1 -0.1)">
       <use xlink:href="#DejaVuSans-31"/>
       <use xlink:href="#DejaVuSans-30" x="63.623047"/>
       <use xlink:href="#DejaVuSans-30" x="127.246094"/>
      </g>
     </g>
    </g>
    <g id="xtick_16">
     <g id="line2d_28">
      <g>
       <use xlink:href="#m729e10ec9f" x="183.469606" y="606.04" style="stroke: #000000; stroke-width: 0.8"/>
      </g>
     </g>
     <g id="text_30">
      <!-- 150 -->
      <g transform="translate(173.925856 620.638438) scale(0.1 -0.1)">
       <use xlink:href="#DejaVuSans-31"/>
       <use xlink:href="#DejaVuSans-35" x="63.623047"/>
       <use xlink:href="#DejaVuSans-30" x="127.246094"/>
      </g>
     </g>
    </g>
    <g id="xtick_17">
     <g id="line2d_29">
      <g>
       <use xlink:href="#m729e10ec9f" x="225.569475" y="606.04" style="stroke: #000000; stroke-width: 0.8"/>
      </g>
     </g>
     <g id="text_31">
      <!-- 200 -->
      <g transform="translate(216.025725 620.638438) scale(0.1 -0.1)">
       <use xlink:href="#DejaVuSans-32"/>
       <use xlink:href="#DejaVuSans-30" x="63.623047"/>
       <use xlink:href="#DejaVuSans-30" x="127.246094"/>
      </g>
     </g>
    </g>
    <g id="xtick_18">
     <g id="line2d_30">
      <g>
       <use xlink:href="#m729e10ec9f" x="267.669344" y="606.04" style="stroke: #000000; stroke-width: 0.8"/>
      </g>
     </g>
     <g id="text_32">
      <!-- 250 -->
      <g transform="translate(258.125594 620.638438) scale(0.1 -0.1)">
       <use xlink:href="#DejaVuSans-32"/>
       <use xlink:href="#DejaVuSans-35" x="63.623047"/>
       <use xlink:href="#DejaVuSans-30" x="127.246094"/>
      </g>
     </g>
    </g>
    <g id="text_33">
     <!-- Pixel Intensity -->
     <g transform="translate(130.033945 634.316563) scale(0.1 -0.1)">
      <defs>
       <path id="DejaVuSans-49" d="M 628 4666 
L 1259 4666 
L 1259 0 
L 628 0 
L 628 4666 
z
" transform="scale(0.015625)"/>
       <path id="DejaVuSans-74" d="M 1172 4494 
L 1172 3500 
L 2356 3500 
L 2356 3053 
L 1172 3053 
L 1172 1153 
Q 1172 725 1289 603 
Q 1406 481 1766 481 
L 2356 481 
L 2356 0 
L 1766 0 
Q 1100 0 847 248 
Q 594 497 594 1153 
L 594 3053 
L 172 3053 
L 172 3500 
L 594 3500 
L 594 4494 
L 1172 4494 
z
" transform="scale(0.015625)"/>
       <path id="DejaVuSans-73" d="M 2834 3397 
L 2834 2853 
Q 2591 2978 2328 3040 
Q 2066 3103 1784 3103 
Q 1356 3103 1142 2972 
Q 928 2841 928 2578 
Q 928 2378 1081 2264 
Q 1234 2150 1697 2047 
L 1894 2003 
Q 2506 1872 2764 1633 
Q 3022 1394 3022 966 
Q 3022 478 2636 193 
Q 2250 -91 1575 -91 
Q 1294 -91 989 -36 
Q 684 19 347 128 
L 347 722 
Q 666 556 975 473 
Q 1284 391 1588 391 
Q 1994 391 2212 530 
Q 2431 669 2431 922 
Q 2431 1156 2273 1281 
Q 2116 1406 1581 1522 
L 1381 1569 
Q 847 1681 609 1914 
Q 372 2147 372 2553 
Q 372 3047 722 3315 
Q 1072 3584 1716 3584 
Q 2034 3584 2315 3537 
Q 2597 3491 2834 3397 
z
" transform="scale(0.015625)"/>
      </defs>
      <use xlink:href="#DejaVuSans-50"/>
      <use xlink:href="#DejaVuSans-69" x="58.052734"/>
      <use xlink:href="#DejaVuSans-78" x="85.835938"/>
      <use xlink:href="#DejaVuSans-65" x="141.890625"/>
      <use xlink:href="#DejaVuSans-6c" x="203.414062"/>
      <use xlink:href="#DejaVuSans-20" x="231.197266"/>
      <use xlink:href="#DejaVuSans-49" x="262.984375"/>
      <use xlink:href="#DejaVuSans-6e" x="292.476562"/>
      <use xlink:href="#DejaVuSans-74" x="355.855469"/>
      <use xlink:href="#DejaVuSans-65" x="395.064453"/>
      <use xlink:href="#DejaVuSans-6e" x="456.587891"/>
      <use xlink:href="#DejaVuSans-73" x="519.966797"/>
      <use xlink:href="#DejaVuSans-69" x="572.066406"/>
      <use xlink:href="#DejaVuSans-74" x="599.849609"/>
      <use xlink:href="#DejaVuSans-79" x="639.058594"/>
     </g>
    </g>
   </g>
   <g id="matplotlib.axis_6">
    <g id="ytick_11">
     <g id="line2d_31">
      <g>
       <use xlink:href="#ma892fd594f" x="57.17" y="606.04" style="stroke: #000000; stroke-width: 0.8"/>
      </g>
     </g>
     <g id="text_34">
      <!-- 0 -->
      <g transform="translate(43.8075 609.839219) scale(0.1 -0.1)">
       <use xlink:href="#DejaVuSans-30"/>
      </g>
     </g>
    </g>
    <g id="ytick_12">
     <g id="line2d_32">
      <g>
       <use xlink:href="#ma892fd594f" x="57.17" y="568.38785" style="stroke: #000000; stroke-width: 0.8"/>
      </g>
     </g>
     <g id="text_35">
      <!-- 1000 -->
      <g transform="translate(24.72 572.187069) scale(0.1 -0.1)">
       <use xlink:href="#DejaVuSans-31"/>
       <use xlink:href="#DejaVuSans-30" x="63.623047"/>
       <use xlink:href="#DejaVuSans-30" x="127.246094"/>
       <use xlink:href="#DejaVuSans-30" x="190.869141"/>
      </g>
     </g>
    </g>
    <g id="ytick_13">
     <g id="line2d_33">
      <g>
       <use xlink:href="#ma892fd594f" x="57.17" y="530.735701" style="stroke: #000000; stroke-width: 0.8"/>
      </g>
     </g>
     <g id="text_36">
      <!-- 2000 -->
      <g transform="translate(24.72 534.534919) scale(0.1 -0.1)">
       <use xlink:href="#DejaVuSans-32"/>
       <use xlink:href="#DejaVuSans-30" x="63.623047"/>
       <use xlink:href="#DejaVuSans-30" x="127.246094"/>
       <use xlink:href="#DejaVuSans-30" x="190.869141"/>
      </g>
     </g>
    </g>
    <g id="ytick_14">
     <g id="line2d_34">
      <g>
       <use xlink:href="#ma892fd594f" x="57.17" y="493.083551" style="stroke: #000000; stroke-width: 0.8"/>
      </g>
     </g>
     <g id="text_37">
      <!-- 3000 -->
      <g transform="translate(24.72 496.88277) scale(0.1 -0.1)">
       <use xlink:href="#DejaVuSans-33"/>
       <use xlink:href="#DejaVuSans-30" x="63.623047"/>
       <use xlink:href="#DejaVuSans-30" x="127.246094"/>
       <use xlink:href="#DejaVuSans-30" x="190.869141"/>
      </g>
     </g>
    </g>
    <g id="ytick_15">
     <g id="line2d_35">
      <g>
       <use xlink:href="#ma892fd594f" x="57.17" y="455.431401" style="stroke: #000000; stroke-width: 0.8"/>
      </g>
     </g>
     <g id="text_38">
      <!-- 4000 -->
      <g transform="translate(24.72 459.23062) scale(0.1 -0.1)">
       <use xlink:href="#DejaVuSans-34"/>
       <use xlink:href="#DejaVuSans-30" x="63.623047"/>
       <use xlink:href="#DejaVuSans-30" x="127.246094"/>
       <use xlink:href="#DejaVuSans-30" x="190.869141"/>
      </g>
     </g>
    </g>
    <g id="text_39">
     <!-- Pixel Frequency -->
     <g transform="translate(18.640313 555.105573) rotate(-90) scale(0.1 -0.1)">
      <use xlink:href="#DejaVuSans-50"/>
      <use xlink:href="#DejaVuSans-69" x="58.052734"/>
      <use xlink:href="#DejaVuSans-78" x="85.835938"/>
      <use xlink:href="#DejaVuSans-65" x="141.890625"/>
      <use xlink:href="#DejaVuSans-6c" x="203.414062"/>
      <use xlink:href="#DejaVuSans-20" x="231.197266"/>
      <use xlink:href="#DejaVuSans-46" x="262.984375"/>
      <use xlink:href="#DejaVuSans-72" x="313.253906"/>
      <use xlink:href="#DejaVuSans-65" x="352.117188"/>
      <use xlink:href="#DejaVuSans-71" x="413.640625"/>
      <use xlink:href="#DejaVuSans-75" x="477.117188"/>
      <use xlink:href="#DejaVuSans-65" x="540.496094"/>
      <use xlink:href="#DejaVuSans-6e" x="602.019531"/>
      <use xlink:href="#DejaVuSans-63" x="665.398438"/>
      <use xlink:href="#DejaVuSans-79" x="720.378906"/>
     </g>
    </g>
   </g>
   <g id="line2d_36">
    <path d="M 57.17 606.04 
L 75.693942 606.002348 
L 77.377937 605.550522 
L 78.219934 604.759827 
L 79.061932 603.329045 
L 79.903929 599.676787 
L 80.745927 584.427666 
L 82.429921 426.213333 
L 83.271919 449.10584 
L 84.113916 437.621935 
L 84.955913 467.969567 
L 85.797911 473.692694 
L 86.639908 480.357125 
L 87.481906 500.915198 
L 88.323903 529.417875 
L 90.007898 553.402295 
L 90.849895 563.718984 
L 92.53389 575.880628 
L 93.375887 578.252714 
L 94.217885 582.695667 
L 95.901879 587.402186 
L 96.743877 588.079925 
L 97.585874 590.301401 
L 98.427871 591.732183 
L 99.269869 590.753227 
L 100.111866 592.334618 
L 100.953864 592.221661 
L 101.795861 593.464182 
L 102.637858 594.104269 
L 103.479856 594.104269 
L 104.321853 594.744355 
L 105.16385 595.87392 
L 106.005848 595.87392 
L 106.847845 594.857312 
L 107.689843 597.907136 
L 108.53184 597.492962 
L 109.373837 598.547222 
L 110.215835 598.358961 
L 111.057832 598.358961 
L 111.899829 598.810787 
L 112.741827 600.505134 
L 113.583824 599.714439 
L 114.425822 599.676787 
L 115.267819 600.203917 
L 116.109816 600.128613 
L 116.951814 601.182873 
L 118.635808 601.935916 
L 119.477806 601.295829 
L 120.319803 602.237133 
L 121.161801 601.295829 
L 122.003798 602.726611 
L 122.845795 602.764263 
L 123.687793 602.274785 
L 124.52979 603.027828 
L 125.371787 602.990176 
L 126.213785 602.764263 
L 127.055782 603.818523 
L 127.89778 603.818523 
L 128.739777 603.667915 
L 129.581774 603.329045 
L 130.423772 604.195045 
L 131.265769 603.59261 
L 132.107766 604.270349 
L 132.949764 604.232697 
L 133.791761 603.667915 
L 134.633759 604.496262 
L 135.475756 604.232697 
L 136.317753 604.722175 
L 138.001748 604.835131 
L 138.843745 604.45861 
L 139.685743 605.249305 
L 140.52774 604.910436 
L 141.369738 605.136348 
L 143.89573 604.948088 
L 145.579724 605.362261 
L 147.263719 605.475218 
L 153.157701 605.51287 
L 154.841696 605.663479 
L 156.52569 605.550522 
L 157.367688 605.663479 
L 158.209685 605.663479 
L 160.735677 605.399913 
L 161.577675 605.362261 
L 162.419672 605.701131 
L 163.261669 605.550522 
L 164.103667 605.51287 
L 164.945664 605.362261 
L 165.787661 605.625826 
L 166.629659 605.663479 
L 167.471656 605.550522 
L 168.313654 605.776435 
L 169.155651 605.437566 
L 169.997648 605.814087 
L 170.839646 605.927044 
L 171.681643 605.851739 
L 172.52364 605.663479 
L 173.365638 605.738783 
L 174.207635 605.588174 
L 175.049633 605.889391 
L 176.733627 605.738783 
L 177.575625 605.927044 
L 179.259619 605.738783 
L 180.101617 605.889391 
L 182.627609 605.814087 
L 183.469606 605.776435 
L 184.311604 605.927044 
L 186.837596 605.851739 
L 188.521591 605.814087 
L 189.363588 605.964696 
L 190.205585 605.889391 
L 191.047583 605.964696 
L 191.88958 605.927044 
L 193.573575 606.002348 
L 195.25757 605.776435 
L 196.099567 605.964696 
L 196.941564 605.851739 
L 197.783562 605.964696 
L 198.625559 605.889391 
L 200.309554 605.964696 
L 201.993549 605.927044 
L 202.835546 606.002348 
L 203.677543 605.851739 
L 204.519541 606.04 
L 207.045533 605.851739 
L 207.88753 605.927044 
L 208.729528 605.889391 
L 209.571525 606.002348 
L 211.25552 605.851739 
L 213.781512 606.002348 
L 214.623509 605.927044 
L 217.149501 606.04 
L 217.991499 605.964696 
L 221.359488 606.04 
L 222.201486 605.964696 
L 224.727478 606.002348 
L 271.879331 606.04 
L 271.879331 606.04 
" clip-path="url(#pf65a1f61ab)" style="fill: none; stroke: #0000ff; stroke-width: 1.5; stroke-linecap: square"/>
   </g>
   <g id="patch_13">
    <path d="M 57.17 606.04 
L 57.17 426.213333 
" style="fill: none; stroke: #000000; stroke-width: 0.8; stroke-linejoin: miter; stroke-linecap: square"/>
   </g>
   <g id="patch_14">
    <path d="M 272.721328 606.04 
L 272.721328 426.213333 
" style="fill: none; stroke: #000000; stroke-width: 0.8; stroke-linejoin: miter; stroke-linecap: square"/>
   </g>
   <g id="patch_15">
    <path d="M 57.17 606.04 
L 272.721328 606.04 
" style="fill: none; stroke: #000000; stroke-width: 0.8; stroke-linejoin: miter; stroke-linecap: square"/>
   </g>
   <g id="patch_16">
    <path d="M 57.17 426.213333 
L 272.721328 426.213333 
" style="fill: none; stroke: #000000; stroke-width: 0.8; stroke-linejoin: miter; stroke-linecap: square"/>
   </g>
   <g id="text_40">
    <!-- Blue Channel  -->
    <g transform="translate(189.272578 440.213333) scale(0.12 -0.12)">
     <defs>
      <path id="DejaVuSans-42" d="M 1259 2228 
L 1259 519 
L 2272 519 
Q 2781 519 3026 730 
Q 3272 941 3272 1375 
Q 3272 1813 3026 2020 
Q 2781 2228 2272 2228 
L 1259 2228 
z
M 1259 4147 
L 1259 2741 
L 2194 2741 
Q 2656 2741 2882 2914 
Q 3109 3088 3109 3444 
Q 3109 3797 2882 3972 
Q 2656 4147 2194 4147 
L 1259 4147 
z
M 628 4666 
L 2241 4666 
Q 2963 4666 3353 4366 
Q 3744 4066 3744 3513 
Q 3744 3084 3544 2831 
Q 3344 2578 2956 2516 
Q 3422 2416 3680 2098 
Q 3938 1781 3938 1306 
Q 3938 681 3513 340 
Q 3088 0 2303 0 
L 628 0 
L 628 4666 
z
" transform="scale(0.015625)"/>
     </defs>
     <use xlink:href="#DejaVuSans-42"/>
     <use xlink:href="#DejaVuSans-6c" x="68.603516"/>
     <use xlink:href="#DejaVuSans-75" x="96.386719"/>
     <use xlink:href="#DejaVuSans-65" x="159.765625"/>
     <use xlink:href="#DejaVuSans-20" x="221.289062"/>
     <use xlink:href="#DejaVuSans-43" x="253.076172"/>
     <use xlink:href="#DejaVuSans-68" x="322.900391"/>
     <use xlink:href="#DejaVuSans-61" x="386.279297"/>
     <use xlink:href="#DejaVuSans-6e" x="447.558594"/>
     <use xlink:href="#DejaVuSans-6e" x="510.9375"/>
     <use xlink:href="#DejaVuSans-65" x="574.316406"/>
     <use xlink:href="#DejaVuSans-6c" x="635.839844"/>
     <use xlink:href="#DejaVuSans-20" x="663.623047"/>
    </g>
   </g>
  </g>
 </g>
 <defs>
  <clipPath id="p34d57afc13">
   <rect x="57.17" y="10.8" width="215.551328" height="179.826667"/>
  </clipPath>
  <clipPath id="pc4533590f7">
   <rect x="57.17" y="218.506667" width="215.551328" height="179.826667"/>
  </clipPath>
  <clipPath id="pf65a1f61ab">
   <rect x="57.17" y="426.213333" width="215.551328" height="179.826667"/>
  </clipPath>
 </defs>
</svg>
