<?xml version="1.0" encoding="utf-8" standalone="no"?>
<!DOCTYPE svg PUBLIC "-//W3C//DTD SVG 1.1//EN"
  "http://www.w3.org/Graphics/SVG/1.1/DTD/svg11.dtd">
<svg xmlns:xlink="http://www.w3.org/1999/xlink" width="288pt" height="648pt" viewBox="0 0 288 648" xmlns="http://www.w3.org/2000/svg" version="1.1">
 <metadata>
  <rdf:RDF xmlns:dc="http://purl.org/dc/elements/1.1/" xmlns:cc="http://creativecommons.org/ns#" xmlns:rdf="http://www.w3.org/1999/02/22-rdf-syntax-ns#">
   <cc:Work>
    <dc:type rdf:resource="http://purl.org/dc/dcmitype/StillImage"/>
    <dc:date>2023-11-18T15:20:18.275519</dc:date>
    <dc:format>image/svg+xml</dc:format>
    <dc:creator>
     <cc:Agent>
      <dc:title>Matplotlib v3.8.0, https://matplotlib.org/</dc:title>
     </cc:Agent>
    </dc:creator>
   </cc:Work>
  </rdf:RDF>
 </metadata>
 <defs>
  <style type="text/css">*{stroke-linejoin: round; stroke-linecap: butt}</style>
 </defs>
 <g id="figure_1">
  <g id="patch_1">
   <path d="M 0 648 
L 288 648 
L 288 0 
L 0 0 
z
" style="fill: #ffffff"/>
  </g>
  <g id="axes_1">
   <g id="patch_2">
    <path d="M 57.17 190.626667 
L 272.721328 190.626667 
L 272.721328 10.8 
L 57.17 10.8 
z
" style="fill: #ffffff"/>
   </g>
   <g id="PolyCollection_1">
    <defs>
     <path id="me49b57d73e" d="M 57.17 -457.373333 
L 57.17 -457.373333 
L 58.011997 -457.373333 
L 58.853995 -457.373333 
L 59.695992 -457.373333 
L 60.53799 -457.373333 
L 61.379987 -457.373333 
L 62.221984 -457.373333 
L 63.063982 -457.373333 
L 63.905979 -457.373333 
L 64.747976 -457.373333 
L 65.589974 -457.373333 
L 66.431971 -457.373333 
L 67.273969 -457.373333 
L 68.115966 -457.373333 
L 68.957963 -457.373333 
L 69.799961 -457.373333 
L 70.641958 -457.373333 
L 71.483955 -457.373333 
L 72.325953 -457.373333 
L 73.16795 -457.373333 
L 74.009948 -457.373333 
L 74.851945 -457.373333 
L 75.693942 -457.373333 
L 76.53594 -457.373333 
L 77.377937 -457.373333 
L 78.219934 -457.373333 
L 79.061932 -457.373333 
L 79.903929 -457.373333 
L 80.745927 -457.373333 
L 81.587924 -457.373333 
L 82.429921 -457.373333 
L 83.271919 -457.373333 
L 84.113916 -457.373333 
L 84.955913 -457.373333 
L 85.797911 -457.373333 
L 86.639908 -457.373333 
L 87.481906 -457.373333 
L 88.323903 -457.373333 
L 89.1659 -457.403501 
L 90.007898 -457.433668 
L 90.849895 -457.433668 
L 91.691892 -457.494002 
L 92.53389 -457.73534 
L 93.375887 -457.976677 
L 94.217885 -458.640356 
L 95.059882 -459.2437 
L 95.901879 -460.088381 
L 96.743877 -461.777744 
L 97.585874 -463.044767 
L 98.427871 -466.815666 
L 99.269869 -473.241279 
L 100.111866 -481.869098 
L 100.953864 -495.384003 
L 101.795861 -510.678772 
L 102.637858 -520.151272 
L 103.479856 -534.903032 
L 104.321853 -538.945436 
L 105.16385 -542.957674 
L 106.005848 -539.578948 
L 106.847845 -539.005771 
L 107.689843 -534.360022 
L 108.53184 -535.808048 
L 109.373837 -531.735476 
L 110.215835 -533.485174 
L 111.057832 -528.990261 
L 111.899829 -518.763581 
L 112.741827 -515.445189 
L 113.583824 -507.14921 
L 114.425822 -496.590691 
L 115.267819 -486.333843 
L 116.109816 -477.464687 
L 116.951814 -472.487099 
L 117.793811 -466.996669 
L 118.635808 -465.69948 
L 119.477806 -463.557609 
L 120.319803 -462.109583 
L 121.161801 -461.687243 
L 122.003798 -460.872728 
L 122.845795 -462.019082 
L 123.687793 -461.415738 
L 124.52979 -461.898413 
L 125.371787 -460.752059 
L 126.213785 -461.355403 
L 127.055782 -460.902895 
L 127.89778 -462.079416 
L 128.739777 -461.415738 
L 129.581774 -461.144233 
L 130.423772 -460.42022 
L 131.265769 -461.234735 
L 132.107766 -460.752059 
L 132.949764 -459.937545 
L 133.791761 -460.631391 
L 134.633759 -460.661558 
L 135.475756 -460.20905 
L 136.317753 -460.390053 
L 137.159751 -459.816876 
L 138.001748 -460.058214 
L 138.843745 -459.937545 
L 139.685743 -460.269384 
L 140.52774 -460.028047 
L 141.369738 -460.269384 
L 142.211735 -460.118548 
L 143.053732 -459.786709 
L 143.89573 -459.847044 
L 144.737727 -459.816876 
L 145.579724 -459.485037 
L 146.421722 -459.635873 
L 147.263719 -459.696208 
L 148.105717 -459.99788 
L 148.947714 -459.545372 
L 149.789711 -459.45487 
L 150.631709 -459.394536 
L 151.473706 -459.907378 
L 152.315703 -459.877211 
L 153.157701 -459.756542 
L 153.999698 -459.66604 
L 154.841696 -459.334201 
L 155.683693 -459.967712 
L 156.52569 -459.273867 
L 157.367688 -459.032529 
L 158.209685 -459.364368 
L 159.051682 -459.092864 
L 159.89368 -458.640356 
L 160.735677 -459.092864 
L 161.577675 -459.092864 
L 162.419672 -458.942028 
L 163.261669 -459.2437 
L 164.103667 -459.062696 
L 164.945664 -458.821359 
L 165.787661 -458.972195 
L 166.629659 -458.942028 
L 167.471656 -458.70069 
L 168.313654 -458.821359 
L 169.155651 -458.580021 
L 169.997648 -458.942028 
L 170.839646 -458.821359 
L 171.681643 -458.881693 
L 172.52364 -458.368851 
L 173.365638 -458.308516 
L 174.207635 -458.127513 
L 175.049633 -458.308516 
L 175.89163 -458.338684 
L 176.733627 -458.48952 
L 177.575625 -458.187848 
L 178.417622 -458.48952 
L 179.259619 -458.338684 
L 180.101617 -458.338684 
L 180.943614 -458.459352 
L 181.785612 -458.15768 
L 182.627609 -458.037012 
L 183.469606 -458.338684 
L 184.311604 -458.097346 
L 185.153601 -458.248182 
L 185.995598 -458.15768 
L 186.837596 -457.94651 
L 187.679593 -458.187848 
L 188.521591 -458.278349 
L 189.363588 -458.067179 
L 190.205585 -458.218015 
L 191.047583 -458.248182 
L 191.88958 -458.037012 
L 192.731577 -458.037012 
L 193.573575 -458.037012 
L 194.415572 -457.705173 
L 195.25757 -457.94651 
L 196.099567 -457.886176 
L 196.941564 -457.94651 
L 197.783562 -457.856008 
L 198.625559 -458.037012 
L 199.467556 -458.15768 
L 200.309554 -458.278349 
L 201.151551 -457.856008 
L 201.993549 -457.916343 
L 202.835546 -457.856008 
L 203.677543 -457.886176 
L 204.519541 -457.916343 
L 205.361538 -457.795674 
L 206.203535 -457.675005 
L 207.045533 -457.976677 
L 207.88753 -458.15768 
L 208.729528 -457.73534 
L 209.571525 -457.94651 
L 210.413522 -458.187848 
L 211.25552 -457.825841 
L 212.097517 -457.886176 
L 212.939514 -457.705173 
L 213.781512 -457.825841 
L 214.623509 -457.94651 
L 215.465507 -457.916343 
L 216.307504 -457.73534 
L 217.149501 -457.73534 
L 217.991499 -457.795674 
L 218.833496 -457.73534 
L 219.675493 -457.886176 
L 220.517491 -457.614671 
L 221.359488 -457.554337 
L 222.201486 -457.886176 
L 223.043483 -457.554337 
L 223.88548 -457.584504 
L 224.727478 -457.644838 
L 225.569475 -457.675005 
L 226.411472 -457.73534 
L 227.25347 -457.886176 
L 228.095467 -457.614671 
L 228.937465 -457.524169 
L 229.779462 -457.73534 
L 230.621459 -457.614671 
L 231.463457 -457.644838 
L 232.305454 -457.886176 
L 233.147451 -457.644838 
L 233.989449 -457.644838 
L 234.831446 -457.705173 
L 235.673444 -457.644838 
L 236.515441 -457.675005 
L 237.357438 -457.524169 
L 238.199436 -457.705173 
L 239.041433 -457.765507 
L 239.88343 -457.463835 
L 240.725428 -457.584504 
L 241.567425 -457.554337 
L 242.409423 -457.614671 
L 243.25142 -457.524169 
L 244.093417 -457.614671 
L 244.935415 -457.644838 
L 245.777412 -457.644838 
L 246.619409 -457.524169 
L 247.461407 -457.524169 
L 248.303404 -457.463835 
L 249.145402 -457.463835 
L 249.987399 -457.554337 
L 250.829396 -457.614671 
L 251.671394 -457.584504 
L 252.513391 -457.494002 
L 253.355388 -457.463835 
L 254.197386 -457.494002 
L 255.039383 -457.463835 
L 255.881381 -457.494002 
L 256.723378 -457.554337 
L 257.565375 -457.403501 
L 258.407373 -457.403501 
L 259.24937 -457.463835 
L 260.091367 -457.463835 
L 260.933365 -457.403501 
L 261.775362 -457.403501 
L 262.61736 -457.433668 
L 263.459357 -457.373333 
L 264.301354 -457.433668 
L 265.143352 -457.373333 
L 265.985349 -457.373333 
L 266.827346 -457.373333 
L 267.669344 -457.373333 
L 268.511341 -457.373333 
L 269.353339 -457.373333 
L 270.195336 -457.373333 
L 271.037333 -457.373333 
L 271.879331 -457.373333 
L 271.879331 -457.373333 
L 271.879331 -457.373333 
L 271.037333 -457.373333 
L 270.195336 -457.373333 
L 269.353339 -457.373333 
L 268.511341 -457.373333 
L 267.669344 -457.373333 
L 266.827346 -457.373333 
L 265.985349 -457.373333 
L 265.143352 -457.373333 
L 264.301354 -457.373333 
L 263.459357 -457.373333 
L 262.61736 -457.373333 
L 261.775362 -457.373333 
L 260.933365 -457.373333 
L 260.091367 -457.373333 
L 259.24937 -457.373333 
L 258.407373 -457.373333 
L 257.565375 -457.373333 
L 256.723378 -457.373333 
L 255.881381 -457.373333 
L 255.039383 -457.373333 
L 254.197386 -457.373333 
L 253.355388 -457.373333 
L 252.513391 -457.373333 
L 251.671394 -457.373333 
L 250.829396 -457.373333 
L 249.987399 -457.373333 
L 249.145402 -457.373333 
L 248.303404 -457.373333 
L 247.461407 -457.373333 
L 246.619409 -457.373333 
L 245.777412 -457.373333 
L 244.935415 -457.373333 
L 244.093417 -457.373333 
L 243.25142 -457.373333 
L 242.409423 -457.373333 
L 241.567425 -457.373333 
L 240.725428 -457.373333 
L 239.88343 -457.373333 
L 239.041433 -457.373333 
L 238.199436 -457.373333 
L 237.357438 -457.373333 
L 236.515441 -457.373333 
L 235.673444 -457.373333 
L 234.831446 -457.373333 
L 233.989449 -457.373333 
L 233.147451 -457.373333 
L 232.305454 -457.373333 
L 231.463457 -457.373333 
L 230.621459 -457.373333 
L 229.779462 -457.373333 
L 228.937465 -457.373333 
L 228.095467 -457.373333 
L 227.25347 -457.373333 
L 226.411472 -457.373333 
L 225.569475 -457.373333 
L 224.727478 -457.373333 
L 223.88548 -457.373333 
L 223.043483 -457.373333 
L 222.201486 -457.373333 
L 221.359488 -457.373333 
L 220.517491 -457.373333 
L 219.675493 -457.373333 
L 218.833496 -457.373333 
L 217.991499 -457.373333 
L 217.149501 -457.373333 
L 216.307504 -457.373333 
L 215.465507 -457.373333 
L 214.623509 -457.373333 
L 213.781512 -457.373333 
L 212.939514 -457.373333 
L 212.097517 -457.373333 
L 211.25552 -457.373333 
L 210.413522 -457.373333 
L 209.571525 -457.373333 
L 208.729528 -457.373333 
L 207.88753 -457.373333 
L 207.045533 -457.373333 
L 206.203535 -457.373333 
L 205.361538 -457.373333 
L 204.519541 -457.373333 
L 203.677543 -457.373333 
L 202.835546 -457.373333 
L 201.993549 -457.373333 
L 201.151551 -457.373333 
L 200.309554 -457.373333 
L 199.467556 -457.373333 
L 198.625559 -457.373333 
L 197.783562 -457.373333 
L 196.941564 -457.373333 
L 196.099567 -457.373333 
L 195.25757 -457.373333 
L 194.415572 -457.373333 
L 193.573575 -457.373333 
L 192.731577 -457.373333 
L 191.88958 -457.373333 
L 191.047583 -457.373333 
L 190.205585 -457.373333 
L 189.363588 -457.373333 
L 188.521591 -457.373333 
L 187.679593 -457.373333 
L 186.837596 -457.373333 
L 185.995598 -457.373333 
L 185.153601 -457.373333 
L 184.311604 -457.373333 
L 183.469606 -457.373333 
L 182.627609 -457.373333 
L 181.785612 -457.373333 
L 180.943614 -457.373333 
L 180.101617 -457.373333 
L 179.259619 -457.373333 
L 178.417622 -457.373333 
L 177.575625 -457.373333 
L 176.733627 -457.373333 
L 175.89163 -457.373333 
L 175.049633 -457.373333 
L 174.207635 -457.373333 
L 173.365638 -457.373333 
L 172.52364 -457.373333 
L 171.681643 -457.373333 
L 170.839646 -457.373333 
L 169.997648 -457.373333 
L 169.155651 -457.373333 
L 168.313654 -457.373333 
L 167.471656 -457.373333 
L 166.629659 -457.373333 
L 165.787661 -457.373333 
L 164.945664 -457.373333 
L 164.103667 -457.373333 
L 163.261669 -457.373333 
L 162.419672 -457.373333 
L 161.577675 -457.373333 
L 160.735677 -457.373333 
L 159.89368 -457.373333 
L 159.051682 -457.373333 
L 158.209685 -457.373333 
L 157.367688 -457.373333 
L 156.52569 -457.373333 
L 155.683693 -457.373333 
L 154.841696 -457.373333 
L 153.999698 -457.373333 
L 153.157701 -457.373333 
L 152.315703 -457.373333 
L 151.473706 -457.373333 
L 150.631709 -457.373333 
L 149.789711 -457.373333 
L 148.947714 -457.373333 
L 148.105717 -457.373333 
L 147.263719 -457.373333 
L 146.421722 -457.373333 
L 145.579724 -457.373333 
L 144.737727 -457.373333 
L 143.89573 -457.373333 
L 143.053732 -457.373333 
L 142.211735 -457.373333 
L 141.369738 -457.373333 
L 140.52774 -457.373333 
L 139.685743 -457.373333 
L 138.843745 -457.373333 
L 138.001748 -457.373333 
L 137.159751 -457.373333 
L 136.317753 -457.373333 
L 135.475756 -457.373333 
L 134.633759 -457.373333 
L 133.791761 -457.373333 
L 132.949764 -457.373333 
L 132.107766 -457.373333 
L 131.265769 -457.373333 
L 130.423772 -457.373333 
L 129.581774 -457.373333 
L 128.739777 -457.373333 
L 127.89778 -457.373333 
L 127.055782 -457.373333 
L 126.213785 -457.373333 
L 125.371787 -457.373333 
L 124.52979 -457.373333 
L 123.687793 -457.373333 
L 122.845795 -457.373333 
L 122.003798 -457.373333 
L 121.161801 -457.373333 
L 120.319803 -457.373333 
L 119.477806 -457.373333 
L 118.635808 -457.373333 
L 117.793811 -457.373333 
L 116.951814 -457.373333 
L 116.109816 -457.373333 
L 115.267819 -457.373333 
L 114.425822 -457.373333 
L 113.583824 -457.373333 
L 112.741827 -457.373333 
L 111.899829 -457.373333 
L 111.057832 -457.373333 
L 110.215835 -457.373333 
L 109.373837 -457.373333 
L 108.53184 -457.373333 
L 107.689843 -457.373333 
L 106.847845 -457.373333 
L 106.005848 -457.373333 
L 105.16385 -457.373333 
L 104.321853 -457.373333 
L 103.479856 -457.373333 
L 102.637858 -457.373333 
L 101.795861 -457.373333 
L 100.953864 -457.373333 
L 100.111866 -457.373333 
L 99.269869 -457.373333 
L 98.427871 -457.373333 
L 97.585874 -457.373333 
L 96.743877 -457.373333 
L 95.901879 -457.373333 
L 95.059882 -457.373333 
L 94.217885 -457.373333 
L 93.375887 -457.373333 
L 92.53389 -457.373333 
L 91.691892 -457.373333 
L 90.849895 -457.373333 
L 90.007898 -457.373333 
L 89.1659 -457.373333 
L 88.323903 -457.373333 
L 87.481906 -457.373333 
L 86.639908 -457.373333 
L 85.797911 -457.373333 
L 84.955913 -457.373333 
L 84.113916 -457.373333 
L 83.271919 -457.373333 
L 82.429921 -457.373333 
L 81.587924 -457.373333 
L 80.745927 -457.373333 
L 79.903929 -457.373333 
L 79.061932 -457.373333 
L 78.219934 -457.373333 
L 77.377937 -457.373333 
L 76.53594 -457.373333 
L 75.693942 -457.373333 
L 74.851945 -457.373333 
L 74.009948 -457.373333 
L 73.16795 -457.373333 
L 72.325953 -457.373333 
L 71.483955 -457.373333 
L 70.641958 -457.373333 
L 69.799961 -457.373333 
L 68.957963 -457.373333 
L 68.115966 -457.373333 
L 67.273969 -457.373333 
L 66.431971 -457.373333 
L 65.589974 -457.373333 
L 64.747976 -457.373333 
L 63.905979 -457.373333 
L 63.063982 -457.373333 
L 62.221984 -457.373333 
L 61.379987 -457.373333 
L 60.53799 -457.373333 
L 59.695992 -457.373333 
L 58.853995 -457.373333 
L 58.011997 -457.373333 
L 57.17 -457.373333 
z
" style="stroke: #ff0000; stroke-opacity: 0.4"/>
    </defs>
    <g clip-path="url(#pa5f3beaa70)">
     <use xlink:href="#me49b57d73e" x="0" y="648" style="fill: #ff0000; fill-opacity: 0.4; stroke: #ff0000; stroke-opacity: 0.4"/>
    </g>
   </g>
   <g id="matplotlib.axis_1">
    <g id="xtick_1">
     <g id="line2d_1">
      <defs>
       <path id="ma61fb04b2b" d="M 0 0 
L 0 3.5 
" style="stroke: #000000; stroke-width: 0.8"/>
      </defs>
      <g>
       <use xlink:href="#ma61fb04b2b" x="57.17" y="190.626667" style="stroke: #000000; stroke-width: 0.8"/>
      </g>
     </g>
     <g id="text_1">
      <!-- 0 -->
      <g transform="translate(53.98875 205.225104) scale(0.1 -0.1)">
       <defs>
        <path id="DejaVuSans-30" d="M 2034 4250 
Q 1547 4250 1301 3770 
Q 1056 3291 1056 2328 
Q 1056 1369 1301 889 
Q 1547 409 2034 409 
Q 2525 409 2770 889 
Q 3016 1369 3016 2328 
Q 3016 3291 2770 3770 
Q 2525 4250 2034 4250 
z
M 2034 4750 
Q 2819 4750 3233 4129 
Q 3647 3509 3647 2328 
Q 3647 1150 3233 529 
Q 2819 -91 2034 -91 
Q 1250 -91 836 529 
Q 422 1150 422 2328 
Q 422 3509 836 4129 
Q 1250 4750 2034 4750 
z
" transform="scale(0.015625)"/>
       </defs>
       <use xlink:href="#DejaVuSans-30"/>
      </g>
     </g>
    </g>
    <g id="xtick_2">
     <g id="line2d_2">
      <g>
       <use xlink:href="#ma61fb04b2b" x="99.269869" y="190.626667" style="stroke: #000000; stroke-width: 0.8"/>
      </g>
     </g>
     <g id="text_2">
      <!-- 50 -->
      <g transform="translate(92.907369 205.225104) scale(0.1 -0.1)">
       <defs>
        <path id="DejaVuSans-35" d="M 691 4666 
L 3169 4666 
L 3169 4134 
L 1269 4134 
L 1269 2991 
Q 1406 3038 1543 3061 
Q 1681 3084 1819 3084 
Q 2600 3084 3056 2656 
Q 3513 2228 3513 1497 
Q 3513 744 3044 326 
Q 2575 -91 1722 -91 
Q 1428 -91 1123 -41 
Q 819 9 494 109 
L 494 744 
Q 775 591 1075 516 
Q 1375 441 1709 441 
Q 2250 441 2565 725 
Q 2881 1009 2881 1497 
Q 2881 1984 2565 2268 
Q 2250 2553 1709 2553 
Q 1456 2553 1204 2497 
Q 953 2441 691 2322 
L 691 4666 
z
" transform="scale(0.015625)"/>
       </defs>
       <use xlink:href="#DejaVuSans-35"/>
       <use xlink:href="#DejaVuSans-30" x="63.623047"/>
      </g>
     </g>
    </g>
    <g id="xtick_3">
     <g id="line2d_3">
      <g>
       <use xlink:href="#ma61fb04b2b" x="141.369738" y="190.626667" style="stroke: #000000; stroke-width: 0.8"/>
      </g>
     </g>
     <g id="text_3">
      <!-- 100 -->
      <g transform="translate(131.825988 205.225104) scale(0.1 -0.1)">
       <defs>
        <path id="DejaVuSans-31" d="M 794 531 
L 1825 531 
L 1825 4091 
L 703 3866 
L 703 4441 
L 1819 4666 
L 2450 4666 
L 2450 531 
L 3481 531 
L 3481 0 
L 794 0 
L 794 531 
z
" transform="scale(0.015625)"/>
       </defs>
       <use xlink:href="#DejaVuSans-31"/>
       <use xlink:href="#DejaVuSans-30" x="63.623047"/>
       <use xlink:href="#DejaVuSans-30" x="127.246094"/>
      </g>
     </g>
    </g>
    <g id="xtick_4">
     <g id="line2d_4">
      <g>
       <use xlink:href="#ma61fb04b2b" x="183.469606" y="190.626667" style="stroke: #000000; stroke-width: 0.8"/>
      </g>
     </g>
     <g id="text_4">
      <!-- 150 -->
      <g transform="translate(173.925856 205.225104) scale(0.1 -0.1)">
       <use xlink:href="#DejaVuSans-31"/>
       <use xlink:href="#DejaVuSans-35" x="63.623047"/>
       <use xlink:href="#DejaVuSans-30" x="127.246094"/>
      </g>
     </g>
    </g>
    <g id="xtick_5">
     <g id="line2d_5">
      <g>
       <use xlink:href="#ma61fb04b2b" x="225.569475" y="190.626667" style="stroke: #000000; stroke-width: 0.8"/>
      </g>
     </g>
     <g id="text_5">
      <!-- 200 -->
      <g transform="translate(216.025725 205.225104) scale(0.1 -0.1)">
       <defs>
        <path id="DejaVuSans-32" d="M 1228 531 
L 3431 531 
L 3431 0 
L 469 0 
L 469 531 
Q 828 903 1448 1529 
Q 2069 2156 2228 2338 
Q 2531 2678 2651 2914 
Q 2772 3150 2772 3378 
Q 2772 3750 2511 3984 
Q 2250 4219 1831 4219 
Q 1534 4219 1204 4116 
Q 875 4013 500 3803 
L 500 4441 
Q 881 4594 1212 4672 
Q 1544 4750 1819 4750 
Q 2544 4750 2975 4387 
Q 3406 4025 3406 3419 
Q 3406 3131 3298 2873 
Q 3191 2616 2906 2266 
Q 2828 2175 2409 1742 
Q 1991 1309 1228 531 
z
" transform="scale(0.015625)"/>
       </defs>
       <use xlink:href="#DejaVuSans-32"/>
       <use xlink:href="#DejaVuSans-30" x="63.623047"/>
       <use xlink:href="#DejaVuSans-30" x="127.246094"/>
      </g>
     </g>
    </g>
    <g id="xtick_6">
     <g id="line2d_6">
      <g>
       <use xlink:href="#ma61fb04b2b" x="267.669344" y="190.626667" style="stroke: #000000; stroke-width: 0.8"/>
      </g>
     </g>
     <g id="text_6">
      <!-- 250 -->
      <g transform="translate(258.125594 205.225104) scale(0.1 -0.1)">
       <use xlink:href="#DejaVuSans-32"/>
       <use xlink:href="#DejaVuSans-35" x="63.623047"/>
       <use xlink:href="#DejaVuSans-30" x="127.246094"/>
      </g>
     </g>
    </g>
   </g>
   <g id="matplotlib.axis_2">
    <g id="ytick_1">
     <g id="line2d_7">
      <defs>
       <path id="m2ed28c9338" d="M 0 0 
L -3.5 0 
" style="stroke: #000000; stroke-width: 0.8"/>
      </defs>
      <g>
       <use xlink:href="#m2ed28c9338" x="57.17" y="190.626667" style="stroke: #000000; stroke-width: 0.8"/>
      </g>
     </g>
     <g id="text_7">
      <!-- 0 -->
      <g transform="translate(43.8075 194.425885) scale(0.1 -0.1)">
       <use xlink:href="#DejaVuSans-30"/>
      </g>
     </g>
    </g>
    <g id="ytick_2">
     <g id="line2d_8">
      <g>
       <use xlink:href="#m2ed28c9338" x="57.17" y="160.459469" style="stroke: #000000; stroke-width: 0.8"/>
      </g>
     </g>
     <g id="text_8">
      <!-- 1000 -->
      <g transform="translate(24.72 164.258688) scale(0.1 -0.1)">
       <use xlink:href="#DejaVuSans-31"/>
       <use xlink:href="#DejaVuSans-30" x="63.623047"/>
       <use xlink:href="#DejaVuSans-30" x="127.246094"/>
       <use xlink:href="#DejaVuSans-30" x="190.869141"/>
      </g>
     </g>
    </g>
    <g id="ytick_3">
     <g id="line2d_9">
      <g>
       <use xlink:href="#m2ed28c9338" x="57.17" y="130.292271" style="stroke: #000000; stroke-width: 0.8"/>
      </g>
     </g>
     <g id="text_9">
      <!-- 2000 -->
      <g transform="translate(24.72 134.09149) scale(0.1 -0.1)">
       <use xlink:href="#DejaVuSans-32"/>
       <use xlink:href="#DejaVuSans-30" x="63.623047"/>
       <use xlink:href="#DejaVuSans-30" x="127.246094"/>
       <use xlink:href="#DejaVuSans-30" x="190.869141"/>
      </g>
     </g>
    </g>
    <g id="ytick_4">
     <g id="line2d_10">
      <g>
       <use xlink:href="#m2ed28c9338" x="57.17" y="100.125073" style="stroke: #000000; stroke-width: 0.8"/>
      </g>
     </g>
     <g id="text_10">
      <!-- 3000 -->
      <g transform="translate(24.72 103.924292) scale(0.1 -0.1)">
       <defs>
        <path id="DejaVuSans-33" d="M 2597 2516 
Q 3050 2419 3304 2112 
Q 3559 1806 3559 1356 
Q 3559 666 3084 287 
Q 2609 -91 1734 -91 
Q 1441 -91 1130 -33 
Q 819 25 488 141 
L 488 750 
Q 750 597 1062 519 
Q 1375 441 1716 441 
Q 2309 441 2620 675 
Q 2931 909 2931 1356 
Q 2931 1769 2642 2001 
Q 2353 2234 1838 2234 
L 1294 2234 
L 1294 2753 
L 1863 2753 
Q 2328 2753 2575 2939 
Q 2822 3125 2822 3475 
Q 2822 3834 2567 4026 
Q 2313 4219 1838 4219 
Q 1578 4219 1281 4162 
Q 984 4106 628 3988 
L 628 4550 
Q 988 4650 1302 4700 
Q 1616 4750 1894 4750 
Q 2613 4750 3031 4423 
Q 3450 4097 3450 3541 
Q 3450 3153 3228 2886 
Q 3006 2619 2597 2516 
z
" transform="scale(0.015625)"/>
       </defs>
       <use xlink:href="#DejaVuSans-33"/>
       <use xlink:href="#DejaVuSans-30" x="63.623047"/>
       <use xlink:href="#DejaVuSans-30" x="127.246094"/>
       <use xlink:href="#DejaVuSans-30" x="190.869141"/>
      </g>
     </g>
    </g>
    <g id="ytick_5">
     <g id="line2d_11">
      <g>
       <use xlink:href="#m2ed28c9338" x="57.17" y="69.957875" style="stroke: #000000; stroke-width: 0.8"/>
      </g>
     </g>
     <g id="text_11">
      <!-- 4000 -->
      <g transform="translate(24.72 73.757094) scale(0.1 -0.1)">
       <defs>
        <path id="DejaVuSans-34" d="M 2419 4116 
L 825 1625 
L 2419 1625 
L 2419 4116 
z
M 2253 4666 
L 3047 4666 
L 3047 1625 
L 3713 1625 
L 3713 1100 
L 3047 1100 
L 3047 0 
L 2419 0 
L 2419 1100 
L 313 1100 
L 313 1709 
L 2253 4666 
z
" transform="scale(0.015625)"/>
       </defs>
       <use xlink:href="#DejaVuSans-34"/>
       <use xlink:href="#DejaVuSans-30" x="63.623047"/>
       <use xlink:href="#DejaVuSans-30" x="127.246094"/>
       <use xlink:href="#DejaVuSans-30" x="190.869141"/>
      </g>
     </g>
    </g>
    <g id="ytick_6">
     <g id="line2d_12">
      <g>
       <use xlink:href="#m2ed28c9338" x="57.17" y="39.790677" style="stroke: #000000; stroke-width: 0.8"/>
      </g>
     </g>
     <g id="text_12">
      <!-- 5000 -->
      <g transform="translate(24.72 43.589896) scale(0.1 -0.1)">
       <use xlink:href="#DejaVuSans-35"/>
       <use xlink:href="#DejaVuSans-30" x="63.623047"/>
       <use xlink:href="#DejaVuSans-30" x="127.246094"/>
       <use xlink:href="#DejaVuSans-30" x="190.869141"/>
      </g>
     </g>
    </g>
    <g id="text_13">
     <!-- Pixel Frequency -->
     <g transform="translate(18.640313 139.69224) rotate(-90) scale(0.1 -0.1)">
      <defs>
       <path id="DejaVuSans-50" d="M 1259 4147 
L 1259 2394 
L 2053 2394 
Q 2494 2394 2734 2622 
Q 2975 2850 2975 3272 
Q 2975 3691 2734 3919 
Q 2494 4147 2053 4147 
L 1259 4147 
z
M 628 4666 
L 2053 4666 
Q 2838 4666 3239 4311 
Q 3641 3956 3641 3272 
Q 3641 2581 3239 2228 
Q 2838 1875 2053 1875 
L 1259 1875 
L 1259 0 
L 628 0 
L 628 4666 
z
" transform="scale(0.015625)"/>
       <path id="DejaVuSans-69" d="M 603 3500 
L 1178 3500 
L 1178 0 
L 603 0 
L 603 3500 
z
M 603 4863 
L 1178 4863 
L 1178 4134 
L 603 4134 
L 603 4863 
z
" transform="scale(0.015625)"/>
       <path id="DejaVuSans-78" d="M 3513 3500 
L 2247 1797 
L 3578 0 
L 2900 0 
L 1881 1375 
L 863 0 
L 184 0 
L 1544 1831 
L 300 3500 
L 978 3500 
L 1906 2253 
L 2834 3500 
L 3513 3500 
z
" transform="scale(0.015625)"/>
       <path id="DejaVuSans-65" d="M 3597 1894 
L 3597 1613 
L 953 1613 
Q 991 1019 1311 708 
Q 1631 397 2203 397 
Q 2534 397 2845 478 
Q 3156 559 3463 722 
L 3463 178 
Q 3153 47 2828 -22 
Q 2503 -91 2169 -91 
Q 1331 -91 842 396 
Q 353 884 353 1716 
Q 353 2575 817 3079 
Q 1281 3584 2069 3584 
Q 2775 3584 3186 3129 
Q 3597 2675 3597 1894 
z
M 3022 2063 
Q 3016 2534 2758 2815 
Q 2500 3097 2075 3097 
Q 1594 3097 1305 2825 
Q 1016 2553 972 2059 
L 3022 2063 
z
" transform="scale(0.015625)"/>
       <path id="DejaVuSans-6c" d="M 603 4863 
L 1178 4863 
L 1178 0 
L 603 0 
L 603 4863 
z
" transform="scale(0.015625)"/>
       <path id="DejaVuSans-20" transform="scale(0.015625)"/>
       <path id="DejaVuSans-46" d="M 628 4666 
L 3309 4666 
L 3309 4134 
L 1259 4134 
L 1259 2759 
L 3109 2759 
L 3109 2228 
L 1259 2228 
L 1259 0 
L 628 0 
L 628 4666 
z
" transform="scale(0.015625)"/>
       <path id="DejaVuSans-72" d="M 2631 2963 
Q 2534 3019 2420 3045 
Q 2306 3072 2169 3072 
Q 1681 3072 1420 2755 
Q 1159 2438 1159 1844 
L 1159 0 
L 581 0 
L 581 3500 
L 1159 3500 
L 1159 2956 
Q 1341 3275 1631 3429 
Q 1922 3584 2338 3584 
Q 2397 3584 2469 3576 
Q 2541 3569 2628 3553 
L 2631 2963 
z
" transform="scale(0.015625)"/>
       <path id="DejaVuSans-71" d="M 947 1747 
Q 947 1113 1208 752 
Q 1469 391 1925 391 
Q 2381 391 2643 752 
Q 2906 1113 2906 1747 
Q 2906 2381 2643 2742 
Q 2381 3103 1925 3103 
Q 1469 3103 1208 2742 
Q 947 2381 947 1747 
z
M 2906 525 
Q 2725 213 2448 61 
Q 2172 -91 1784 -91 
Q 1150 -91 751 415 
Q 353 922 353 1747 
Q 353 2572 751 3078 
Q 1150 3584 1784 3584 
Q 2172 3584 2448 3432 
Q 2725 3281 2906 2969 
L 2906 3500 
L 3481 3500 
L 3481 -1331 
L 2906 -1331 
L 2906 525 
z
" transform="scale(0.015625)"/>
       <path id="DejaVuSans-75" d="M 544 1381 
L 544 3500 
L 1119 3500 
L 1119 1403 
Q 1119 906 1312 657 
Q 1506 409 1894 409 
Q 2359 409 2629 706 
Q 2900 1003 2900 1516 
L 2900 3500 
L 3475 3500 
L 3475 0 
L 2900 0 
L 2900 538 
Q 2691 219 2414 64 
Q 2138 -91 1772 -91 
Q 1169 -91 856 284 
Q 544 659 544 1381 
z
M 1991 3584 
L 1991 3584 
z
" transform="scale(0.015625)"/>
       <path id="DejaVuSans-6e" d="M 3513 2113 
L 3513 0 
L 2938 0 
L 2938 2094 
Q 2938 2591 2744 2837 
Q 2550 3084 2163 3084 
Q 1697 3084 1428 2787 
Q 1159 2491 1159 1978 
L 1159 0 
L 581 0 
L 581 3500 
L 1159 3500 
L 1159 2956 
Q 1366 3272 1645 3428 
Q 1925 3584 2291 3584 
Q 2894 3584 3203 3211 
Q 3513 2838 3513 2113 
z
" transform="scale(0.015625)"/>
       <path id="DejaVuSans-63" d="M 3122 3366 
L 3122 2828 
Q 2878 2963 2633 3030 
Q 2388 3097 2138 3097 
Q 1578 3097 1268 2742 
Q 959 2388 959 1747 
Q 959 1106 1268 751 
Q 1578 397 2138 397 
Q 2388 397 2633 464 
Q 2878 531 3122 666 
L 3122 134 
Q 2881 22 2623 -34 
Q 2366 -91 2075 -91 
Q 1284 -91 818 406 
Q 353 903 353 1747 
Q 353 2603 823 3093 
Q 1294 3584 2113 3584 
Q 2378 3584 2631 3529 
Q 2884 3475 3122 3366 
z
" transform="scale(0.015625)"/>
       <path id="DejaVuSans-79" d="M 2059 -325 
Q 1816 -950 1584 -1140 
Q 1353 -1331 966 -1331 
L 506 -1331 
L 506 -850 
L 844 -850 
Q 1081 -850 1212 -737 
Q 1344 -625 1503 -206 
L 1606 56 
L 191 3500 
L 800 3500 
L 1894 763 
L 2988 3500 
L 3597 3500 
L 2059 -325 
z
" transform="scale(0.015625)"/>
      </defs>
      <use xlink:href="#DejaVuSans-50"/>
      <use xlink:href="#DejaVuSans-69" x="58.052734"/>
      <use xlink:href="#DejaVuSans-78" x="85.835938"/>
      <use xlink:href="#DejaVuSans-65" x="141.890625"/>
      <use xlink:href="#DejaVuSans-6c" x="203.414062"/>
      <use xlink:href="#DejaVuSans-20" x="231.197266"/>
      <use xlink:href="#DejaVuSans-46" x="262.984375"/>
      <use xlink:href="#DejaVuSans-72" x="313.253906"/>
      <use xlink:href="#DejaVuSans-65" x="352.117188"/>
      <use xlink:href="#DejaVuSans-71" x="413.640625"/>
      <use xlink:href="#DejaVuSans-75" x="477.117188"/>
      <use xlink:href="#DejaVuSans-65" x="540.496094"/>
      <use xlink:href="#DejaVuSans-6e" x="602.019531"/>
      <use xlink:href="#DejaVuSans-63" x="665.398438"/>
      <use xlink:href="#DejaVuSans-79" x="720.378906"/>
     </g>
    </g>
   </g>
   <g id="line2d_13">
    <path d="M 57.17 190.626667 
L 90.849895 190.566332 
L 91.691892 190.505998 
L 93.375887 190.023323 
L 95.901879 187.911619 
L 96.743877 186.222256 
L 97.585874 184.955233 
L 98.427871 181.184334 
L 99.269869 174.758721 
L 100.111866 166.130902 
L 101.795861 137.321228 
L 102.637858 127.848728 
L 103.479856 113.096968 
L 105.16385 105.042326 
L 106.005848 108.421052 
L 106.847845 108.994229 
L 107.689843 113.639978 
L 108.53184 112.191952 
L 109.373837 116.264524 
L 110.215835 114.514826 
L 111.057832 119.009739 
L 111.899829 129.236419 
L 112.741827 132.554811 
L 113.583824 140.85079 
L 115.267819 161.666157 
L 116.109816 170.535313 
L 117.793811 181.003331 
L 118.635808 182.30052 
L 119.477806 184.442391 
L 120.319803 185.890417 
L 121.161801 186.312757 
L 122.003798 187.127272 
L 122.845795 185.980918 
L 123.687793 186.584262 
L 124.52979 186.101587 
L 125.371787 187.247941 
L 126.213785 186.644597 
L 127.055782 187.097105 
L 127.89778 185.920584 
L 128.739777 186.584262 
L 129.581774 186.855767 
L 130.423772 187.57978 
L 131.265769 186.765265 
L 132.107766 187.247941 
L 132.949764 188.062455 
L 133.791761 187.368609 
L 134.633759 187.338442 
L 135.475756 187.79095 
L 136.317753 187.609947 
L 137.159751 188.183124 
L 138.001748 187.941786 
L 138.843745 188.062455 
L 139.685743 187.730616 
L 140.52774 187.971953 
L 141.369738 187.730616 
L 142.211735 187.881452 
L 143.053732 188.213291 
L 144.737727 188.183124 
L 145.579724 188.514963 
L 148.105717 188.00212 
L 148.947714 188.454628 
L 150.631709 188.605464 
L 151.473706 188.092622 
L 153.157701 188.243458 
L 153.999698 188.33396 
L 154.841696 188.665799 
L 155.683693 188.032288 
L 156.52569 188.726133 
L 157.367688 188.967471 
L 158.209685 188.635632 
L 159.051682 188.907136 
L 159.89368 189.359644 
L 160.735677 188.907136 
L 161.577675 188.907136 
L 162.419672 189.057972 
L 163.261669 188.7563 
L 164.945664 189.178641 
L 165.787661 189.027805 
L 166.629659 189.057972 
L 167.471656 189.29931 
L 168.313654 189.178641 
L 169.155651 189.419979 
L 169.997648 189.057972 
L 170.839646 189.178641 
L 171.681643 189.118307 
L 172.52364 189.631149 
L 173.365638 189.691484 
L 174.207635 189.872487 
L 175.049633 189.691484 
L 175.89163 189.661316 
L 176.733627 189.51048 
L 177.575625 189.812152 
L 178.417622 189.51048 
L 179.259619 189.661316 
L 180.101617 189.661316 
L 180.943614 189.540648 
L 181.785612 189.84232 
L 182.627609 189.962988 
L 183.469606 189.661316 
L 184.311604 189.902654 
L 185.153601 189.751818 
L 185.995598 189.84232 
L 186.837596 190.05349 
L 187.679593 189.812152 
L 188.521591 189.721651 
L 189.363588 189.932821 
L 190.205585 189.781985 
L 191.047583 189.751818 
L 191.88958 189.962988 
L 193.573575 189.962988 
L 194.415572 190.294827 
L 195.25757 190.05349 
L 196.099567 190.113824 
L 196.941564 190.05349 
L 197.783562 190.143992 
L 199.467556 189.84232 
L 200.309554 189.721651 
L 201.151551 190.143992 
L 201.993549 190.083657 
L 203.677543 190.113824 
L 204.519541 190.083657 
L 206.203535 190.324995 
L 207.045533 190.023323 
L 207.88753 189.84232 
L 208.729528 190.26466 
L 210.413522 189.812152 
L 211.25552 190.174159 
L 212.097517 190.113824 
L 212.939514 190.294827 
L 214.623509 190.05349 
L 215.465507 190.083657 
L 216.307504 190.26466 
L 218.833496 190.26466 
L 219.675493 190.113824 
L 220.517491 190.385329 
L 221.359488 190.445663 
L 222.201486 190.113824 
L 223.043483 190.445663 
L 226.411472 190.26466 
L 227.25347 190.113824 
L 228.095467 190.385329 
L 228.937465 190.475831 
L 229.779462 190.26466 
L 230.621459 190.385329 
L 231.463457 190.355162 
L 232.305454 190.113824 
L 233.147451 190.355162 
L 236.515441 190.324995 
L 237.357438 190.475831 
L 238.199436 190.294827 
L 239.041433 190.234493 
L 239.88343 190.536165 
L 240.725428 190.415496 
L 243.25142 190.475831 
L 244.935415 190.355162 
L 245.777412 190.355162 
L 246.619409 190.475831 
L 256.723378 190.445663 
L 257.565375 190.596499 
L 271.879331 190.626667 
L 271.879331 190.626667 
" clip-path="url(#pa5f3beaa70)" style="fill: none; stroke: #ff0000; stroke-width: 1.5; stroke-linecap: square"/>
   </g>
   <g id="patch_3">
    <path d="M 57.17 190.626667 
L 57.17 10.8 
" style="fill: none; stroke: #000000; stroke-width: 0.8; stroke-linejoin: miter; stroke-linecap: square"/>
   </g>
   <g id="patch_4">
    <path d="M 272.721328 190.626667 
L 272.721328 10.8 
" style="fill: none; stroke: #000000; stroke-width: 0.8; stroke-linejoin: miter; stroke-linecap: square"/>
   </g>
   <g id="patch_5">
    <path d="M 57.17 190.626667 
L 272.721328 190.626667 
" style="fill: none; stroke: #000000; stroke-width: 0.8; stroke-linejoin: miter; stroke-linecap: square"/>
   </g>
   <g id="patch_6">
    <path d="M 57.17 10.8 
L 272.721328 10.8 
" style="fill: none; stroke: #000000; stroke-width: 0.8; stroke-linejoin: miter; stroke-linecap: square"/>
   </g>
   <g id="text_14">
    <!-- Red Channel  -->
    <g transform="translate(193.028203 24.8) scale(0.12 -0.12)">
     <defs>
      <path id="DejaVuSans-52" d="M 2841 2188 
Q 3044 2119 3236 1894 
Q 3428 1669 3622 1275 
L 4263 0 
L 3584 0 
L 2988 1197 
Q 2756 1666 2539 1819 
Q 2322 1972 1947 1972 
L 1259 1972 
L 1259 0 
L 628 0 
L 628 4666 
L 2053 4666 
Q 2853 4666 3247 4331 
Q 3641 3997 3641 3322 
Q 3641 2881 3436 2590 
Q 3231 2300 2841 2188 
z
M 1259 4147 
L 1259 2491 
L 2053 2491 
Q 2509 2491 2742 2702 
Q 2975 2913 2975 3322 
Q 2975 3731 2742 3939 
Q 2509 4147 2053 4147 
L 1259 4147 
z
" transform="scale(0.015625)"/>
      <path id="DejaVuSans-64" d="M 2906 2969 
L 2906 4863 
L 3481 4863 
L 3481 0 
L 2906 0 
L 2906 525 
Q 2725 213 2448 61 
Q 2172 -91 1784 -91 
Q 1150 -91 751 415 
Q 353 922 353 1747 
Q 353 2572 751 3078 
Q 1150 3584 1784 3584 
Q 2172 3584 2448 3432 
Q 2725 3281 2906 2969 
z
M 947 1747 
Q 947 1113 1208 752 
Q 1469 391 1925 391 
Q 2381 391 2643 752 
Q 2906 1113 2906 1747 
Q 2906 2381 2643 2742 
Q 2381 3103 1925 3103 
Q 1469 3103 1208 2742 
Q 947 2381 947 1747 
z
" transform="scale(0.015625)"/>
      <path id="DejaVuSans-43" d="M 4122 4306 
L 4122 3641 
Q 3803 3938 3442 4084 
Q 3081 4231 2675 4231 
Q 1875 4231 1450 3742 
Q 1025 3253 1025 2328 
Q 1025 1406 1450 917 
Q 1875 428 2675 428 
Q 3081 428 3442 575 
Q 3803 722 4122 1019 
L 4122 359 
Q 3791 134 3420 21 
Q 3050 -91 2638 -91 
Q 1578 -91 968 557 
Q 359 1206 359 2328 
Q 359 3453 968 4101 
Q 1578 4750 2638 4750 
Q 3056 4750 3426 4639 
Q 3797 4528 4122 4306 
z
" transform="scale(0.015625)"/>
      <path id="DejaVuSans-68" d="M 3513 2113 
L 3513 0 
L 2938 0 
L 2938 2094 
Q 2938 2591 2744 2837 
Q 2550 3084 2163 3084 
Q 1697 3084 1428 2787 
Q 1159 2491 1159 1978 
L 1159 0 
L 581 0 
L 581 4863 
L 1159 4863 
L 1159 2956 
Q 1366 3272 1645 3428 
Q 1925 3584 2291 3584 
Q 2894 3584 3203 3211 
Q 3513 2838 3513 2113 
z
" transform="scale(0.015625)"/>
      <path id="DejaVuSans-61" d="M 2194 1759 
Q 1497 1759 1228 1600 
Q 959 1441 959 1056 
Q 959 750 1161 570 
Q 1363 391 1709 391 
Q 2188 391 2477 730 
Q 2766 1069 2766 1631 
L 2766 1759 
L 2194 1759 
z
M 3341 1997 
L 3341 0 
L 2766 0 
L 2766 531 
Q 2569 213 2275 61 
Q 1981 -91 1556 -91 
Q 1019 -91 701 211 
Q 384 513 384 1019 
Q 384 1609 779 1909 
Q 1175 2209 1959 2209 
L 2766 2209 
L 2766 2266 
Q 2766 2663 2505 2880 
Q 2244 3097 1772 3097 
Q 1472 3097 1187 3025 
Q 903 2953 641 2809 
L 641 3341 
Q 956 3463 1253 3523 
Q 1550 3584 1831 3584 
Q 2591 3584 2966 3190 
Q 3341 2797 3341 1997 
z
" transform="scale(0.015625)"/>
     </defs>
     <use xlink:href="#DejaVuSans-52"/>
     <use xlink:href="#DejaVuSans-65" x="64.982422"/>
     <use xlink:href="#DejaVuSans-64" x="126.505859"/>
     <use xlink:href="#DejaVuSans-20" x="189.982422"/>
     <use xlink:href="#DejaVuSans-43" x="221.769531"/>
     <use xlink:href="#DejaVuSans-68" x="291.59375"/>
     <use xlink:href="#DejaVuSans-61" x="354.972656"/>
     <use xlink:href="#DejaVuSans-6e" x="416.251953"/>
     <use xlink:href="#DejaVuSans-6e" x="479.630859"/>
     <use xlink:href="#DejaVuSans-65" x="543.009766"/>
     <use xlink:href="#DejaVuSans-6c" x="604.533203"/>
     <use xlink:href="#DejaVuSans-20" x="632.316406"/>
    </g>
   </g>
  </g>
  <g id="axes_2">
   <g id="patch_7">
    <path d="M 57.17 398.333333 
L 272.721328 398.333333 
L 272.721328 218.506667 
L 57.17 218.506667 
z
" style="fill: #ffffff"/>
   </g>
   <g id="PolyCollection_2">
    <defs>
     <path id="mbf2a230ce4" d="M 57.17 -249.666667 
L 57.17 -249.666667 
L 58.011997 -249.666667 
L 58.853995 -249.666667 
L 59.695992 -249.666667 
L 60.53799 -249.666667 
L 61.379987 -249.666667 
L 62.221984 -249.666667 
L 63.063982 -249.666667 
L 63.905979 -249.666667 
L 64.747976 -249.666667 
L 65.589974 -249.666667 
L 66.431971 -249.666667 
L 67.273969 -249.666667 
L 68.115966 -249.666667 
L 68.957963 -249.666667 
L 69.799961 -249.666667 
L 70.641958 -249.666667 
L 71.483955 -249.666667 
L 72.325953 -249.666667 
L 73.16795 -249.666667 
L 74.009948 -249.666667 
L 74.851945 -249.666667 
L 75.693942 -249.666667 
L 76.53594 -249.666667 
L 77.377937 -249.666667 
L 78.219934 -249.666667 
L 79.061932 -249.666667 
L 79.903929 -249.666667 
L 80.745927 -249.666667 
L 81.587924 -249.666667 
L 82.429921 -249.666667 
L 83.271919 -249.666667 
L 84.113916 -249.666667 
L 84.955913 -249.666667 
L 85.797911 -249.666667 
L 86.639908 -249.696834 
L 87.481906 -249.757168 
L 88.323903 -249.696834 
L 89.1659 -249.938171 
L 90.007898 -249.968339 
L 90.849895 -250.330345 
L 91.691892 -250.632017 
L 92.53389 -252.32138 
L 93.375887 -254.433084 
L 94.217885 -257.389469 
L 95.059882 -261.401707 
L 95.901879 -270.602702 
L 96.743877 -279.894199 
L 97.585874 -293.348769 
L 98.427871 -308.010027 
L 99.269869 -319.322727 
L 100.111866 -327.286867 
L 100.953864 -329.338236 
L 101.795861 -330.273419 
L 102.637858 -330.48459 
L 103.479856 -333.229805 
L 104.321853 -330.001915 
L 105.16385 -327.920378 
L 106.005848 -328.915896 
L 106.847845 -324.873491 
L 107.689843 -320.378579 
L 108.53184 -310.151898 
L 109.373837 -303.183276 
L 110.215835 -295.400139 
L 111.057832 -284.539947 
L 111.899829 -272.503235 
L 112.741827 -264.508928 
L 113.583824 -261.612877 
L 114.425822 -255.820775 
L 115.267819 -254.764923 
L 116.109816 -254.463251 
L 116.951814 -253.739238 
L 117.793811 -254.312415 
L 118.635808 -253.558235 
L 119.477806 -253.799573 
L 120.319803 -253.166062 
L 121.161801 -253.226396 
L 122.003798 -253.799573 
L 122.845795 -253.437566 
L 123.687793 -253.739238 
L 124.52979 -253.347065 
L 125.371787 -253.256563 
L 126.213785 -253.648737 
L 127.055782 -253.588402 
L 127.89778 -252.834222 
L 128.739777 -252.804055 
L 129.581774 -252.623052 
L 130.423772 -252.32138 
L 131.265769 -252.291213 
L 132.107766 -252.381714 
L 132.949764 -252.411882 
L 133.791761 -252.261046 
L 134.633759 -252.381714 
L 135.475756 -251.929207 
L 136.317753 -252.049875 
L 137.159751 -252.411882 
L 138.001748 -252.351547 
L 138.843745 -251.627535 
L 139.685743 -251.687869 
L 140.52774 -251.808538 
L 141.369738 -252.170544 
L 142.211735 -252.11021 
L 143.053732 -251.748203 
L 143.89573 -252.11021 
L 144.737727 -251.657702 
L 145.579724 -251.748203 
L 146.421722 -252.049875 
L 147.263719 -251.718036 
L 148.105717 -251.476699 
L 148.947714 -251.687869 
L 149.789711 -251.748203 
L 150.631709 -251.416364 
L 151.473706 -251.265528 
L 152.315703 -251.5672 
L 153.157701 -251.718036 
L 153.999698 -251.325863 
L 154.841696 -251.537033 
L 155.683693 -251.024191 
L 156.52569 -251.265528 
L 157.367688 -251.597367 
L 158.209685 -251.416364 
L 159.051682 -251.325863 
L 159.89368 -251.597367 
L 160.735677 -251.054358 
L 161.577675 -251.144859 
L 162.419672 -250.994023 
L 163.261669 -250.963856 
L 164.103667 -250.843187 
L 164.945664 -251.325863 
L 165.787661 -251.235361 
L 166.629659 -250.782853 
L 167.471656 -250.782853 
L 168.313654 -250.782853 
L 169.155651 -251.054358 
L 169.997648 -250.632017 
L 170.839646 -251.114692 
L 171.681643 -251.024191 
L 172.52364 -251.175027 
L 173.365638 -250.60185 
L 174.207635 -250.662184 
L 175.049633 -250.752686 
L 175.89163 -250.511348 
L 176.733627 -250.420847 
L 177.575625 -250.692351 
L 178.417622 -250.420847 
L 179.259619 -250.873355 
L 180.101617 -250.843187 
L 180.943614 -250.360512 
L 181.785612 -250.60185 
L 182.627609 -250.541515 
L 183.469606 -250.60185 
L 184.311604 -250.722519 
L 185.153601 -250.481181 
L 185.995598 -250.420847 
L 186.837596 -250.360512 
L 187.679593 -250.662184 
L 188.521591 -250.481181 
L 189.363588 -250.239843 
L 190.205585 -250.209676 
L 191.047583 -250.541515 
L 191.88958 -250.511348 
L 192.731577 -250.360512 
L 193.573575 -250.571683 
L 194.415572 -250.420847 
L 195.25757 -250.481181 
L 196.099567 -250.360512 
L 196.941564 -250.119175 
L 197.783562 -250.149342 
L 198.625559 -250.270011 
L 199.467556 -250.239843 
L 200.309554 -250.330345 
L 201.151551 -250.179509 
L 201.993549 -250.420847 
L 202.835546 -250.330345 
L 203.677543 -250.179509 
L 204.519541 -250.119175 
L 205.361538 -250.270011 
L 206.203535 -250.330345 
L 207.045533 -250.390679 
L 207.88753 -250.360512 
L 208.729528 -250.300178 
L 209.571525 -250.330345 
L 210.413522 -250.149342 
L 211.25552 -250.149342 
L 212.097517 -250.119175 
L 212.939514 -250.239843 
L 213.781512 -249.938171 
L 214.623509 -250.330345 
L 215.465507 -250.05884 
L 216.307504 -250.179509 
L 217.149501 -250.330345 
L 217.991499 -250.05884 
L 218.833496 -250.179509 
L 219.675493 -249.968339 
L 220.517491 -250.028673 
L 221.359488 -250.300178 
L 222.201486 -250.270011 
L 223.043483 -250.028673 
L 223.88548 -250.179509 
L 224.727478 -249.998506 
L 225.569475 -250.149342 
L 226.411472 -250.481181 
L 227.25347 -250.209676 
L 228.095467 -250.089007 
L 228.937465 -250.330345 
L 229.779462 -250.028673 
L 230.621459 -250.028673 
L 231.463457 -250.149342 
L 232.305454 -250.089007 
L 233.147451 -250.089007 
L 233.989449 -249.877837 
L 234.831446 -250.028673 
L 235.673444 -250.089007 
L 236.515441 -250.028673 
L 237.357438 -249.877837 
L 238.199436 -250.149342 
L 239.041433 -249.908004 
L 239.88343 -250.05884 
L 240.725428 -249.998506 
L 241.567425 -249.84767 
L 242.409423 -249.908004 
L 243.25142 -249.908004 
L 244.093417 -250.089007 
L 244.935415 -250.028673 
L 245.777412 -249.908004 
L 246.619409 -250.179509 
L 247.461407 -250.179509 
L 248.303404 -249.998506 
L 249.145402 -250.028673 
L 249.987399 -249.968339 
L 250.829396 -249.787335 
L 251.671394 -250.028673 
L 252.513391 -250.05884 
L 253.355388 -249.938171 
L 254.197386 -249.787335 
L 255.039383 -249.938171 
L 255.881381 -249.877837 
L 256.723378 -249.938171 
L 257.565375 -249.968339 
L 258.407373 -249.938171 
L 259.24937 -249.908004 
L 260.091367 -249.877837 
L 260.933365 -249.84767 
L 261.775362 -249.817503 
L 262.61736 -249.817503 
L 263.459357 -249.757168 
L 264.301354 -249.817503 
L 265.143352 -249.787335 
L 265.985349 -249.757168 
L 266.827346 -249.696834 
L 267.669344 -249.666667 
L 268.511341 -249.666667 
L 269.353339 -249.696834 
L 270.195336 -249.666667 
L 271.037333 -249.666667 
L 271.879331 -249.666667 
L 271.879331 -249.666667 
L 271.879331 -249.666667 
L 271.037333 -249.666667 
L 270.195336 -249.666667 
L 269.353339 -249.666667 
L 268.511341 -249.666667 
L 267.669344 -249.666667 
L 266.827346 -249.666667 
L 265.985349 -249.666667 
L 265.143352 -249.666667 
L 264.301354 -249.666667 
L 263.459357 -249.666667 
L 262.61736 -249.666667 
L 261.775362 -249.666667 
L 260.933365 -249.666667 
L 260.091367 -249.666667 
L 259.24937 -249.666667 
L 258.407373 -249.666667 
L 257.565375 -249.666667 
L 256.723378 -249.666667 
L 255.881381 -249.666667 
L 255.039383 -249.666667 
L 254.197386 -249.666667 
L 253.355388 -249.666667 
L 252.513391 -249.666667 
L 251.671394 -249.666667 
L 250.829396 -249.666667 
L 249.987399 -249.666667 
L 249.145402 -249.666667 
L 248.303404 -249.666667 
L 247.461407 -249.666667 
L 246.619409 -249.666667 
L 245.777412 -249.666667 
L 244.935415 -249.666667 
L 244.093417 -249.666667 
L 243.25142 -249.666667 
L 242.409423 -249.666667 
L 241.567425 -249.666667 
L 240.725428 -249.666667 
L 239.88343 -249.666667 
L 239.041433 -249.666667 
L 238.199436 -249.666667 
L 237.357438 -249.666667 
L 236.515441 -249.666667 
L 235.673444 -249.666667 
L 234.831446 -249.666667 
L 233.989449 -249.666667 
L 233.147451 -249.666667 
L 232.305454 -249.666667 
L 231.463457 -249.666667 
L 230.621459 -249.666667 
L 229.779462 -249.666667 
L 228.937465 -249.666667 
L 228.095467 -249.666667 
L 227.25347 -249.666667 
L 226.411472 -249.666667 
L 225.569475 -249.666667 
L 224.727478 -249.666667 
L 223.88548 -249.666667 
L 223.043483 -249.666667 
L 222.201486 -249.666667 
L 221.359488 -249.666667 
L 220.517491 -249.666667 
L 219.675493 -249.666667 
L 218.833496 -249.666667 
L 217.991499 -249.666667 
L 217.149501 -249.666667 
L 216.307504 -249.666667 
L 215.465507 -249.666667 
L 214.623509 -249.666667 
L 213.781512 -249.666667 
L 212.939514 -249.666667 
L 212.097517 -249.666667 
L 211.25552 -249.666667 
L 210.413522 -249.666667 
L 209.571525 -249.666667 
L 208.729528 -249.666667 
L 207.88753 -249.666667 
L 207.045533 -249.666667 
L 206.203535 -249.666667 
L 205.361538 -249.666667 
L 204.519541 -249.666667 
L 203.677543 -249.666667 
L 202.835546 -249.666667 
L 201.993549 -249.666667 
L 201.151551 -249.666667 
L 200.309554 -249.666667 
L 199.467556 -249.666667 
L 198.625559 -249.666667 
L 197.783562 -249.666667 
L 196.941564 -249.666667 
L 196.099567 -249.666667 
L 195.25757 -249.666667 
L 194.415572 -249.666667 
L 193.573575 -249.666667 
L 192.731577 -249.666667 
L 191.88958 -249.666667 
L 191.047583 -249.666667 
L 190.205585 -249.666667 
L 189.363588 -249.666667 
L 188.521591 -249.666667 
L 187.679593 -249.666667 
L 186.837596 -249.666667 
L 185.995598 -249.666667 
L 185.153601 -249.666667 
L 184.311604 -249.666667 
L 183.469606 -249.666667 
L 182.627609 -249.666667 
L 181.785612 -249.666667 
L 180.943614 -249.666667 
L 180.101617 -249.666667 
L 179.259619 -249.666667 
L 178.417622 -249.666667 
L 177.575625 -249.666667 
L 176.733627 -249.666667 
L 175.89163 -249.666667 
L 175.049633 -249.666667 
L 174.207635 -249.666667 
L 173.365638 -249.666667 
L 172.52364 -249.666667 
L 171.681643 -249.666667 
L 170.839646 -249.666667 
L 169.997648 -249.666667 
L 169.155651 -249.666667 
L 168.313654 -249.666667 
L 167.471656 -249.666667 
L 166.629659 -249.666667 
L 165.787661 -249.666667 
L 164.945664 -249.666667 
L 164.103667 -249.666667 
L 163.261669 -249.666667 
L 162.419672 -249.666667 
L 161.577675 -249.666667 
L 160.735677 -249.666667 
L 159.89368 -249.666667 
L 159.051682 -249.666667 
L 158.209685 -249.666667 
L 157.367688 -249.666667 
L 156.52569 -249.666667 
L 155.683693 -249.666667 
L 154.841696 -249.666667 
L 153.999698 -249.666667 
L 153.157701 -249.666667 
L 152.315703 -249.666667 
L 151.473706 -249.666667 
L 150.631709 -249.666667 
L 149.789711 -249.666667 
L 148.947714 -249.666667 
L 148.105717 -249.666667 
L 147.263719 -249.666667 
L 146.421722 -249.666667 
L 145.579724 -249.666667 
L 144.737727 -249.666667 
L 143.89573 -249.666667 
L 143.053732 -249.666667 
L 142.211735 -249.666667 
L 141.369738 -249.666667 
L 140.52774 -249.666667 
L 139.685743 -249.666667 
L 138.843745 -249.666667 
L 138.001748 -249.666667 
L 137.159751 -249.666667 
L 136.317753 -249.666667 
L 135.475756 -249.666667 
L 134.633759 -249.666667 
L 133.791761 -249.666667 
L 132.949764 -249.666667 
L 132.107766 -249.666667 
L 131.265769 -249.666667 
L 130.423772 -249.666667 
L 129.581774 -249.666667 
L 128.739777 -249.666667 
L 127.89778 -249.666667 
L 127.055782 -249.666667 
L 126.213785 -249.666667 
L 125.371787 -249.666667 
L 124.52979 -249.666667 
L 123.687793 -249.666667 
L 122.845795 -249.666667 
L 122.003798 -249.666667 
L 121.161801 -249.666667 
L 120.319803 -249.666667 
L 119.477806 -249.666667 
L 118.635808 -249.666667 
L 117.793811 -249.666667 
L 116.951814 -249.666667 
L 116.109816 -249.666667 
L 115.267819 -249.666667 
L 114.425822 -249.666667 
L 113.583824 -249.666667 
L 112.741827 -249.666667 
L 111.899829 -249.666667 
L 111.057832 -249.666667 
L 110.215835 -249.666667 
L 109.373837 -249.666667 
L 108.53184 -249.666667 
L 107.689843 -249.666667 
L 106.847845 -249.666667 
L 106.005848 -249.666667 
L 105.16385 -249.666667 
L 104.321853 -249.666667 
L 103.479856 -249.666667 
L 102.637858 -249.666667 
L 101.795861 -249.666667 
L 100.953864 -249.666667 
L 100.111866 -249.666667 
L 99.269869 -249.666667 
L 98.427871 -249.666667 
L 97.585874 -249.666667 
L 96.743877 -249.666667 
L 95.901879 -249.666667 
L 95.059882 -249.666667 
L 94.217885 -249.666667 
L 93.375887 -249.666667 
L 92.53389 -249.666667 
L 91.691892 -249.666667 
L 90.849895 -249.666667 
L 90.007898 -249.666667 
L 89.1659 -249.666667 
L 88.323903 -249.666667 
L 87.481906 -249.666667 
L 86.639908 -249.666667 
L 85.797911 -249.666667 
L 84.955913 -249.666667 
L 84.113916 -249.666667 
L 83.271919 -249.666667 
L 82.429921 -249.666667 
L 81.587924 -249.666667 
L 80.745927 -249.666667 
L 79.903929 -249.666667 
L 79.061932 -249.666667 
L 78.219934 -249.666667 
L 77.377937 -249.666667 
L 76.53594 -249.666667 
L 75.693942 -249.666667 
L 74.851945 -249.666667 
L 74.009948 -249.666667 
L 73.16795 -249.666667 
L 72.325953 -249.666667 
L 71.483955 -249.666667 
L 70.641958 -249.666667 
L 69.799961 -249.666667 
L 68.957963 -249.666667 
L 68.115966 -249.666667 
L 67.273969 -249.666667 
L 66.431971 -249.666667 
L 65.589974 -249.666667 
L 64.747976 -249.666667 
L 63.905979 -249.666667 
L 63.063982 -249.666667 
L 62.221984 -249.666667 
L 61.379987 -249.666667 
L 60.53799 -249.666667 
L 59.695992 -249.666667 
L 58.853995 -249.666667 
L 58.011997 -249.666667 
L 57.17 -249.666667 
z
" style="stroke: #008000; stroke-opacity: 0.4"/>
    </defs>
    <g clip-path="url(#p8a6942ea46)">
     <use xlink:href="#mbf2a230ce4" x="0" y="648" style="fill: #008000; fill-opacity: 0.4; stroke: #008000; stroke-opacity: 0.4"/>
    </g>
   </g>
   <g id="matplotlib.axis_3">
    <g id="xtick_7">
     <g id="line2d_14">
      <g>
       <use xlink:href="#ma61fb04b2b" x="57.17" y="398.333333" style="stroke: #000000; stroke-width: 0.8"/>
      </g>
     </g>
     <g id="text_15">
      <!-- 0 -->
      <g transform="translate(53.98875 412.931771) scale(0.1 -0.1)">
       <use xlink:href="#DejaVuSans-30"/>
      </g>
     </g>
    </g>
    <g id="xtick_8">
     <g id="line2d_15">
      <g>
       <use xlink:href="#ma61fb04b2b" x="99.269869" y="398.333333" style="stroke: #000000; stroke-width: 0.8"/>
      </g>
     </g>
     <g id="text_16">
      <!-- 50 -->
      <g transform="translate(92.907369 412.931771) scale(0.1 -0.1)">
       <use xlink:href="#DejaVuSans-35"/>
       <use xlink:href="#DejaVuSans-30" x="63.623047"/>
      </g>
     </g>
    </g>
    <g id="xtick_9">
     <g id="line2d_16">
      <g>
       <use xlink:href="#ma61fb04b2b" x="141.369738" y="398.333333" style="stroke: #000000; stroke-width: 0.8"/>
      </g>
     </g>
     <g id="text_17">
      <!-- 100 -->
      <g transform="translate(131.825988 412.931771) scale(0.1 -0.1)">
       <use xlink:href="#DejaVuSans-31"/>
       <use xlink:href="#DejaVuSans-30" x="63.623047"/>
       <use xlink:href="#DejaVuSans-30" x="127.246094"/>
      </g>
     </g>
    </g>
    <g id="xtick_10">
     <g id="line2d_17">
      <g>
       <use xlink:href="#ma61fb04b2b" x="183.469606" y="398.333333" style="stroke: #000000; stroke-width: 0.8"/>
      </g>
     </g>
     <g id="text_18">
      <!-- 150 -->
      <g transform="translate(173.925856 412.931771) scale(0.1 -0.1)">
       <use xlink:href="#DejaVuSans-31"/>
       <use xlink:href="#DejaVuSans-35" x="63.623047"/>
       <use xlink:href="#DejaVuSans-30" x="127.246094"/>
      </g>
     </g>
    </g>
    <g id="xtick_11">
     <g id="line2d_18">
      <g>
       <use xlink:href="#ma61fb04b2b" x="225.569475" y="398.333333" style="stroke: #000000; stroke-width: 0.8"/>
      </g>
     </g>
     <g id="text_19">
      <!-- 200 -->
      <g transform="translate(216.025725 412.931771) scale(0.1 -0.1)">
       <use xlink:href="#DejaVuSans-32"/>
       <use xlink:href="#DejaVuSans-30" x="63.623047"/>
       <use xlink:href="#DejaVuSans-30" x="127.246094"/>
      </g>
     </g>
    </g>
    <g id="xtick_12">
     <g id="line2d_19">
      <g>
       <use xlink:href="#ma61fb04b2b" x="267.669344" y="398.333333" style="stroke: #000000; stroke-width: 0.8"/>
      </g>
     </g>
     <g id="text_20">
      <!-- 250 -->
      <g transform="translate(258.125594 412.931771) scale(0.1 -0.1)">
       <use xlink:href="#DejaVuSans-32"/>
       <use xlink:href="#DejaVuSans-35" x="63.623047"/>
       <use xlink:href="#DejaVuSans-30" x="127.246094"/>
      </g>
     </g>
    </g>
   </g>
   <g id="matplotlib.axis_4">
    <g id="ytick_7">
     <g id="line2d_20">
      <g>
       <use xlink:href="#m2ed28c9338" x="57.17" y="398.333333" style="stroke: #000000; stroke-width: 0.8"/>
      </g>
     </g>
     <g id="text_21">
      <!-- 0 -->
      <g transform="translate(43.8075 402.132552) scale(0.1 -0.1)">
       <use xlink:href="#DejaVuSans-30"/>
      </g>
     </g>
    </g>
    <g id="ytick_8">
     <g id="line2d_21">
      <g>
       <use xlink:href="#m2ed28c9338" x="57.17" y="368.166135" style="stroke: #000000; stroke-width: 0.8"/>
      </g>
     </g>
     <g id="text_22">
      <!-- 1000 -->
      <g transform="translate(24.72 371.965354) scale(0.1 -0.1)">
       <use xlink:href="#DejaVuSans-31"/>
       <use xlink:href="#DejaVuSans-30" x="63.623047"/>
       <use xlink:href="#DejaVuSans-30" x="127.246094"/>
       <use xlink:href="#DejaVuSans-30" x="190.869141"/>
      </g>
     </g>
    </g>
    <g id="ytick_9">
     <g id="line2d_22">
      <g>
       <use xlink:href="#m2ed28c9338" x="57.17" y="337.998938" style="stroke: #000000; stroke-width: 0.8"/>
      </g>
     </g>
     <g id="text_23">
      <!-- 2000 -->
      <g transform="translate(24.72 341.798156) scale(0.1 -0.1)">
       <use xlink:href="#DejaVuSans-32"/>
       <use xlink:href="#DejaVuSans-30" x="63.623047"/>
       <use xlink:href="#DejaVuSans-30" x="127.246094"/>
       <use xlink:href="#DejaVuSans-30" x="190.869141"/>
      </g>
     </g>
    </g>
    <g id="ytick_10">
     <g id="line2d_23">
      <g>
       <use xlink:href="#m2ed28c9338" x="57.17" y="307.83174" style="stroke: #000000; stroke-width: 0.8"/>
      </g>
     </g>
     <g id="text_24">
      <!-- 3000 -->
      <g transform="translate(24.72 311.630958) scale(0.1 -0.1)">
       <use xlink:href="#DejaVuSans-33"/>
       <use xlink:href="#DejaVuSans-30" x="63.623047"/>
       <use xlink:href="#DejaVuSans-30" x="127.246094"/>
       <use xlink:href="#DejaVuSans-30" x="190.869141"/>
      </g>
     </g>
    </g>
    <g id="ytick_11">
     <g id="line2d_24">
      <g>
       <use xlink:href="#m2ed28c9338" x="57.17" y="277.664542" style="stroke: #000000; stroke-width: 0.8"/>
      </g>
     </g>
     <g id="text_25">
      <!-- 4000 -->
      <g transform="translate(24.72 281.46376) scale(0.1 -0.1)">
       <use xlink:href="#DejaVuSans-34"/>
       <use xlink:href="#DejaVuSans-30" x="63.623047"/>
       <use xlink:href="#DejaVuSans-30" x="127.246094"/>
       <use xlink:href="#DejaVuSans-30" x="190.869141"/>
      </g>
     </g>
    </g>
    <g id="ytick_12">
     <g id="line2d_25">
      <g>
       <use xlink:href="#m2ed28c9338" x="57.17" y="247.497344" style="stroke: #000000; stroke-width: 0.8"/>
      </g>
     </g>
     <g id="text_26">
      <!-- 5000 -->
      <g transform="translate(24.72 251.296563) scale(0.1 -0.1)">
       <use xlink:href="#DejaVuSans-35"/>
       <use xlink:href="#DejaVuSans-30" x="63.623047"/>
       <use xlink:href="#DejaVuSans-30" x="127.246094"/>
       <use xlink:href="#DejaVuSans-30" x="190.869141"/>
      </g>
     </g>
    </g>
    <g id="text_27">
     <!-- Pixel Frequency -->
     <g transform="translate(18.640313 347.398906) rotate(-90) scale(0.1 -0.1)">
      <use xlink:href="#DejaVuSans-50"/>
      <use xlink:href="#DejaVuSans-69" x="58.052734"/>
      <use xlink:href="#DejaVuSans-78" x="85.835938"/>
      <use xlink:href="#DejaVuSans-65" x="141.890625"/>
      <use xlink:href="#DejaVuSans-6c" x="203.414062"/>
      <use xlink:href="#DejaVuSans-20" x="231.197266"/>
      <use xlink:href="#DejaVuSans-46" x="262.984375"/>
      <use xlink:href="#DejaVuSans-72" x="313.253906"/>
      <use xlink:href="#DejaVuSans-65" x="352.117188"/>
      <use xlink:href="#DejaVuSans-71" x="413.640625"/>
      <use xlink:href="#DejaVuSans-75" x="477.117188"/>
      <use xlink:href="#DejaVuSans-65" x="540.496094"/>
      <use xlink:href="#DejaVuSans-6e" x="602.019531"/>
      <use xlink:href="#DejaVuSans-63" x="665.398438"/>
      <use xlink:href="#DejaVuSans-79" x="720.378906"/>
     </g>
    </g>
   </g>
   <g id="line2d_26">
    <path d="M 57.17 398.333333 
L 88.323903 398.303166 
L 89.1659 398.061829 
L 90.007898 398.031661 
L 91.691892 397.367983 
L 92.53389 395.67862 
L 93.375887 393.566916 
L 94.217885 390.610531 
L 95.059882 386.598293 
L 96.743877 368.105801 
L 99.269869 328.677273 
L 100.111866 320.713133 
L 100.953864 318.661764 
L 101.795861 317.726581 
L 102.637858 317.51541 
L 103.479856 314.770195 
L 104.321853 317.998085 
L 105.16385 320.079622 
L 106.005848 319.084104 
L 107.689843 327.621421 
L 108.53184 337.848102 
L 110.215835 352.599861 
L 111.899829 375.496765 
L 112.741827 383.491072 
L 113.583824 386.387123 
L 114.425822 392.179225 
L 115.267819 393.235077 
L 116.109816 393.536749 
L 116.951814 394.260762 
L 117.793811 393.687585 
L 118.635808 394.441765 
L 119.477806 394.200427 
L 120.319803 394.833938 
L 121.161801 394.773604 
L 122.003798 394.200427 
L 122.845795 394.562434 
L 123.687793 394.260762 
L 124.52979 394.652935 
L 125.371787 394.743437 
L 126.213785 394.351263 
L 127.055782 394.411598 
L 127.89778 395.165778 
L 128.739777 395.195945 
L 129.581774 395.376948 
L 130.423772 395.67862 
L 131.265769 395.708787 
L 132.949764 395.588118 
L 133.791761 395.738954 
L 134.633759 395.618286 
L 135.475756 396.070793 
L 136.317753 395.950125 
L 137.159751 395.588118 
L 138.001748 395.648453 
L 138.843745 396.372465 
L 140.52774 396.191462 
L 141.369738 395.829456 
L 142.211735 395.88979 
L 143.053732 396.251797 
L 143.89573 395.88979 
L 144.737727 396.342298 
L 145.579724 396.251797 
L 146.421722 395.950125 
L 148.105717 396.523301 
L 148.947714 396.312131 
L 149.789711 396.251797 
L 150.631709 396.583636 
L 151.473706 396.734472 
L 152.315703 396.4328 
L 153.157701 396.281964 
L 153.999698 396.674137 
L 154.841696 396.462967 
L 155.683693 396.975809 
L 157.367688 396.402633 
L 159.051682 396.674137 
L 159.89368 396.402633 
L 160.735677 396.945642 
L 161.577675 396.855141 
L 162.419672 397.005977 
L 164.103667 397.156813 
L 164.945664 396.674137 
L 165.787661 396.764639 
L 166.629659 397.217147 
L 168.313654 397.217147 
L 169.155651 396.945642 
L 169.997648 397.367983 
L 170.839646 396.885308 
L 171.681643 396.975809 
L 172.52364 396.824973 
L 173.365638 397.39815 
L 175.049633 397.247314 
L 175.89163 397.488652 
L 176.733627 397.579153 
L 177.575625 397.307649 
L 178.417622 397.579153 
L 179.259619 397.126645 
L 180.101617 397.156813 
L 180.943614 397.639488 
L 181.785612 397.39815 
L 182.627609 397.458485 
L 184.311604 397.277481 
L 185.153601 397.518819 
L 186.837596 397.639488 
L 187.679593 397.337816 
L 190.205585 397.790324 
L 191.047583 397.458485 
L 191.88958 397.488652 
L 192.731577 397.639488 
L 193.573575 397.428317 
L 194.415572 397.579153 
L 195.25757 397.518819 
L 196.099567 397.639488 
L 196.941564 397.880825 
L 201.151551 397.820491 
L 201.993549 397.579153 
L 204.519541 397.880825 
L 206.203535 397.669655 
L 207.88753 397.639488 
L 212.097517 397.880825 
L 212.939514 397.760157 
L 213.781512 398.061829 
L 214.623509 397.669655 
L 215.465507 397.94116 
L 217.149501 397.669655 
L 217.991499 397.94116 
L 218.833496 397.820491 
L 219.675493 398.031661 
L 220.517491 397.971327 
L 221.359488 397.699822 
L 222.201486 397.729989 
L 223.043483 397.971327 
L 223.88548 397.820491 
L 224.727478 398.001494 
L 225.569475 397.850658 
L 226.411472 397.518819 
L 227.25347 397.790324 
L 228.095467 397.910993 
L 228.937465 397.669655 
L 229.779462 397.971327 
L 230.621459 397.971327 
L 231.463457 397.850658 
L 233.989449 398.122163 
L 235.673444 397.910993 
L 237.357438 398.122163 
L 238.199436 397.850658 
L 239.041433 398.091996 
L 239.88343 397.94116 
L 243.25142 398.091996 
L 244.093417 397.910993 
L 245.777412 398.091996 
L 246.619409 397.820491 
L 247.461407 397.820491 
L 248.303404 398.001494 
L 249.987399 398.031661 
L 250.829396 398.212665 
L 251.671394 397.971327 
L 252.513391 397.94116 
L 254.197386 398.212665 
L 255.039383 398.061829 
L 255.881381 398.122163 
L 257.565375 398.031661 
L 268.511341 398.333333 
L 271.037333 398.333333 
L 271.879331 398.333333 
L 271.879331 398.333333 
" clip-path="url(#p8a6942ea46)" style="fill: none; stroke: #008000; stroke-width: 1.5; stroke-linecap: square"/>
   </g>
   <g id="patch_8">
    <path d="M 57.17 398.333333 
L 57.17 218.506667 
" style="fill: none; stroke: #000000; stroke-width: 0.8; stroke-linejoin: miter; stroke-linecap: square"/>
   </g>
   <g id="patch_9">
    <path d="M 272.721328 398.333333 
L 272.721328 218.506667 
" style="fill: none; stroke: #000000; stroke-width: 0.8; stroke-linejoin: miter; stroke-linecap: square"/>
   </g>
   <g id="patch_10">
    <path d="M 57.17 398.333333 
L 272.721328 398.333333 
" style="fill: none; stroke: #000000; stroke-width: 0.8; stroke-linejoin: miter; stroke-linecap: square"/>
   </g>
   <g id="patch_11">
    <path d="M 57.17 218.506667 
L 272.721328 218.506667 
" style="fill: none; stroke: #000000; stroke-width: 0.8; stroke-linejoin: miter; stroke-linecap: square"/>
   </g>
   <g id="text_28">
    <!-- Green Channel  -->
    <g transform="translate(179.494453 232.506667) scale(0.12 -0.12)">
     <defs>
      <path id="DejaVuSans-47" d="M 3809 666 
L 3809 1919 
L 2778 1919 
L 2778 2438 
L 4434 2438 
L 4434 434 
Q 4069 175 3628 42 
Q 3188 -91 2688 -91 
Q 1594 -91 976 548 
Q 359 1188 359 2328 
Q 359 3472 976 4111 
Q 1594 4750 2688 4750 
Q 3144 4750 3555 4637 
Q 3966 4525 4313 4306 
L 4313 3634 
Q 3963 3931 3569 4081 
Q 3175 4231 2741 4231 
Q 1884 4231 1454 3753 
Q 1025 3275 1025 2328 
Q 1025 1384 1454 906 
Q 1884 428 2741 428 
Q 3075 428 3337 486 
Q 3600 544 3809 666 
z
" transform="scale(0.015625)"/>
     </defs>
     <use xlink:href="#DejaVuSans-47"/>
     <use xlink:href="#DejaVuSans-72" x="77.490234"/>
     <use xlink:href="#DejaVuSans-65" x="116.353516"/>
     <use xlink:href="#DejaVuSans-65" x="177.876953"/>
     <use xlink:href="#DejaVuSans-6e" x="239.400391"/>
     <use xlink:href="#DejaVuSans-20" x="302.779297"/>
     <use xlink:href="#DejaVuSans-43" x="334.566406"/>
     <use xlink:href="#DejaVuSans-68" x="404.390625"/>
     <use xlink:href="#DejaVuSans-61" x="467.769531"/>
     <use xlink:href="#DejaVuSans-6e" x="529.048828"/>
     <use xlink:href="#DejaVuSans-6e" x="592.427734"/>
     <use xlink:href="#DejaVuSans-65" x="655.806641"/>
     <use xlink:href="#DejaVuSans-6c" x="717.330078"/>
     <use xlink:href="#DejaVuSans-20" x="745.113281"/>
    </g>
   </g>
  </g>
  <g id="axes_3">
   <g id="patch_12">
    <path d="M 57.17 606.04 
L 272.721328 606.04 
L 272.721328 426.213333 
L 57.17 426.213333 
z
" style="fill: #ffffff"/>
   </g>
   <g id="PolyCollection_3">
    <defs>
     <path id="m28acb0230d" d="M 57.17 -41.96 
L 57.17 -41.96 
L 58.011997 -41.96 
L 58.853995 -41.96 
L 59.695992 -41.96 
L 60.53799 -41.96 
L 61.379987 -41.96 
L 62.221984 -41.96 
L 63.063982 -41.96 
L 63.905979 -41.96 
L 64.747976 -41.96 
L 65.589974 -41.96 
L 66.431971 -41.96 
L 67.273969 -41.96 
L 68.115966 -41.96 
L 68.957963 -41.96 
L 69.799961 -41.96 
L 70.641958 -41.990167 
L 71.483955 -41.96 
L 72.325953 -42.110836 
L 73.16795 -42.231505 
L 74.009948 -42.684013 
L 74.851945 -43.046019 
L 75.693942 -43.770032 
L 76.53594 -47.571099 
L 77.377937 -55.143065 
L 78.219934 -69.834491 
L 79.061932 -94.903432 
L 79.903929 -129.38454 
L 80.745927 -160.637757 
L 81.587924 -180.819612 
L 82.429921 -180.276602 
L 83.271919 -177.833059 
L 84.113916 -171.890121 
L 84.955913 -161.391936 
L 85.797911 -148.661379 
L 86.639908 -124.044945 
L 87.481906 -100.605033 
L 88.323903 -81.750534 
L 89.1659 -65.098241 
L 90.007898 -56.319586 
L 90.849895 -50.497317 
L 91.691892 -49.954307 
L 92.53389 -48.596784 
L 93.375887 -50.135311 
L 94.217885 -48.144276 
L 95.059882 -48.264944 
L 95.901879 -48.114108 
L 96.743877 -47.631433 
L 97.585874 -46.726417 
L 98.427871 -47.782269 
L 99.269869 -47.058256 
L 100.111866 -46.877253 
L 100.953864 -46.092906 
L 101.795861 -46.304076 
L 102.637858 -45.972237 
L 103.479856 -46.213575 
L 104.321853 -46.002405 
L 105.16385 -44.825884 
L 106.005848 -46.243742 
L 106.847845 -45.368893 
L 107.689843 -45.610231 
L 108.53184 -45.157723 
L 109.373837 -45.157723 
L 110.215835 -44.735382 
L 111.057832 -44.825884 
L 111.899829 -44.795717 
L 112.741827 -45.18789 
L 113.583824 -44.825884 
L 114.425822 -44.97672 
L 115.267819 -44.765549 
L 116.109816 -44.041537 
L 116.951814 -44.644881 
L 117.793811 -44.252707 
L 118.635808 -44.101871 
L 119.477806 -44.192373 
L 120.319803 -43.739865 
L 121.161801 -43.739865 
L 122.003798 -44.252707 
L 122.845795 -43.438193 
L 123.687793 -44.011369 
L 124.52979 -43.589029 
L 125.371787 -43.649363 
L 126.213785 -43.589029 
L 127.055782 -43.136521 
L 127.89778 -43.408025 
L 128.739777 -43.408025 
L 129.581774 -43.287357 
L 130.423772 -43.25719 
L 131.265769 -43.498527 
L 132.107766 -43.136521 
L 132.949764 -43.166688 
L 133.791761 -43.046019 
L 134.633759 -42.834849 
L 135.475756 -43.166688 
L 136.317753 -43.076186 
L 137.159751 -42.985685 
L 138.001748 -42.804682 
L 138.843745 -42.804682 
L 139.685743 -42.684013 
L 140.52774 -42.865016 
L 141.369738 -43.076186 
L 142.211735 -42.774514 
L 143.053732 -42.653846 
L 143.89573 -42.684013 
L 144.737727 -42.71418 
L 145.579724 -42.804682 
L 146.421722 -42.623678 
L 147.263719 -42.834849 
L 148.105717 -42.895183 
L 148.947714 -42.774514 
L 149.789711 -42.744347 
L 150.631709 -42.684013 
L 151.473706 -42.533177 
L 152.315703 -42.50301 
L 153.157701 -42.623678 
L 153.999698 -42.442675 
L 154.841696 -42.533177 
L 155.683693 -42.50301 
L 156.52569 -42.563344 
L 157.367688 -42.472842 
L 158.209685 -42.533177 
L 159.051682 -42.442675 
L 159.89368 -42.412508 
L 160.735677 -42.623678 
L 161.577675 -42.50301 
L 162.419672 -42.50301 
L 163.261669 -42.442675 
L 164.103667 -42.352174 
L 164.945664 -42.533177 
L 165.787661 -42.382341 
L 166.629659 -42.382341 
L 167.471656 -42.352174 
L 168.313654 -42.533177 
L 169.155651 -42.352174 
L 169.997648 -42.533177 
L 170.839646 -42.17117 
L 171.681643 -42.322006 
L 172.52364 -42.352174 
L 173.365638 -42.141003 
L 174.207635 -42.382341 
L 175.049633 -42.261672 
L 175.89163 -42.382341 
L 176.733627 -42.261672 
L 177.575625 -42.352174 
L 178.417622 -42.322006 
L 179.259619 -42.352174 
L 180.101617 -42.472842 
L 180.943614 -42.17117 
L 181.785612 -42.291839 
L 182.627609 -42.141003 
L 183.469606 -42.261672 
L 184.311604 -42.382341 
L 185.153601 -42.231505 
L 185.995598 -42.141003 
L 186.837596 -42.17117 
L 187.679593 -42.17117 
L 188.521591 -42.201338 
L 189.363588 -42.050502 
L 190.205585 -42.322006 
L 191.047583 -42.261672 
L 191.88958 -42.141003 
L 192.731577 -42.110836 
L 193.573575 -42.141003 
L 194.415572 -42.020334 
L 195.25757 -42.231505 
L 196.099567 -42.261672 
L 196.941564 -42.080669 
L 197.783562 -42.050502 
L 198.625559 -42.17117 
L 199.467556 -42.020334 
L 200.309554 -42.17117 
L 201.151551 -42.201338 
L 201.993549 -42.050502 
L 202.835546 -42.110836 
L 203.677543 -42.080669 
L 204.519541 -42.050502 
L 205.361538 -42.020334 
L 206.203535 -42.050502 
L 207.045533 -42.080669 
L 207.88753 -42.020334 
L 208.729528 -42.020334 
L 209.571525 -41.990167 
L 210.413522 -42.050502 
L 211.25552 -41.990167 
L 212.097517 -42.050502 
L 212.939514 -42.050502 
L 213.781512 -42.080669 
L 214.623509 -42.080669 
L 215.465507 -42.080669 
L 216.307504 -41.990167 
L 217.149501 -42.020334 
L 217.991499 -42.020334 
L 218.833496 -41.990167 
L 219.675493 -42.020334 
L 220.517491 -41.990167 
L 221.359488 -42.080669 
L 222.201486 -41.96 
L 223.043483 -41.990167 
L 223.88548 -41.990167 
L 224.727478 -42.020334 
L 225.569475 -41.990167 
L 226.411472 -41.96 
L 227.25347 -41.96 
L 228.095467 -41.990167 
L 228.937465 -42.020334 
L 229.779462 -41.990167 
L 230.621459 -41.96 
L 231.463457 -42.020334 
L 232.305454 -41.990167 
L 233.147451 -41.96 
L 233.989449 -41.96 
L 234.831446 -41.96 
L 235.673444 -41.96 
L 236.515441 -41.990167 
L 237.357438 -41.96 
L 238.199436 -41.96 
L 239.041433 -41.96 
L 239.88343 -41.96 
L 240.725428 -41.96 
L 241.567425 -41.96 
L 242.409423 -41.96 
L 243.25142 -41.96 
L 244.093417 -41.96 
L 244.935415 -41.96 
L 245.777412 -41.96 
L 246.619409 -41.96 
L 247.461407 -41.96 
L 248.303404 -41.96 
L 249.145402 -41.96 
L 249.987399 -41.96 
L 250.829396 -41.96 
L 251.671394 -41.96 
L 252.513391 -41.96 
L 253.355388 -41.96 
L 254.197386 -41.96 
L 255.039383 -41.96 
L 255.881381 -41.96 
L 256.723378 -41.96 
L 257.565375 -41.96 
L 258.407373 -41.96 
L 259.24937 -41.96 
L 260.091367 -41.96 
L 260.933365 -41.96 
L 261.775362 -41.96 
L 262.61736 -41.96 
L 263.459357 -41.96 
L 264.301354 -41.96 
L 265.143352 -41.96 
L 265.985349 -41.96 
L 266.827346 -41.96 
L 267.669344 -41.96 
L 268.511341 -41.96 
L 269.353339 -41.96 
L 270.195336 -41.96 
L 271.037333 -41.96 
L 271.879331 -41.96 
L 271.879331 -41.96 
L 271.879331 -41.96 
L 271.037333 -41.96 
L 270.195336 -41.96 
L 269.353339 -41.96 
L 268.511341 -41.96 
L 267.669344 -41.96 
L 266.827346 -41.96 
L 265.985349 -41.96 
L 265.143352 -41.96 
L 264.301354 -41.96 
L 263.459357 -41.96 
L 262.61736 -41.96 
L 261.775362 -41.96 
L 260.933365 -41.96 
L 260.091367 -41.96 
L 259.24937 -41.96 
L 258.407373 -41.96 
L 257.565375 -41.96 
L 256.723378 -41.96 
L 255.881381 -41.96 
L 255.039383 -41.96 
L 254.197386 -41.96 
L 253.355388 -41.96 
L 252.513391 -41.96 
L 251.671394 -41.96 
L 250.829396 -41.96 
L 249.987399 -41.96 
L 249.145402 -41.96 
L 248.303404 -41.96 
L 247.461407 -41.96 
L 246.619409 -41.96 
L 245.777412 -41.96 
L 244.935415 -41.96 
L 244.093417 -41.96 
L 243.25142 -41.96 
L 242.409423 -41.96 
L 241.567425 -41.96 
L 240.725428 -41.96 
L 239.88343 -41.96 
L 239.041433 -41.96 
L 238.199436 -41.96 
L 237.357438 -41.96 
L 236.515441 -41.96 
L 235.673444 -41.96 
L 234.831446 -41.96 
L 233.989449 -41.96 
L 233.147451 -41.96 
L 232.305454 -41.96 
L 231.463457 -41.96 
L 230.621459 -41.96 
L 229.779462 -41.96 
L 228.937465 -41.96 
L 228.095467 -41.96 
L 227.25347 -41.96 
L 226.411472 -41.96 
L 225.569475 -41.96 
L 224.727478 -41.96 
L 223.88548 -41.96 
L 223.043483 -41.96 
L 222.201486 -41.96 
L 221.359488 -41.96 
L 220.517491 -41.96 
L 219.675493 -41.96 
L 218.833496 -41.96 
L 217.991499 -41.96 
L 217.149501 -41.96 
L 216.307504 -41.96 
L 215.465507 -41.96 
L 214.623509 -41.96 
L 213.781512 -41.96 
L 212.939514 -41.96 
L 212.097517 -41.96 
L 211.25552 -41.96 
L 210.413522 -41.96 
L 209.571525 -41.96 
L 208.729528 -41.96 
L 207.88753 -41.96 
L 207.045533 -41.96 
L 206.203535 -41.96 
L 205.361538 -41.96 
L 204.519541 -41.96 
L 203.677543 -41.96 
L 202.835546 -41.96 
L 201.993549 -41.96 
L 201.151551 -41.96 
L 200.309554 -41.96 
L 199.467556 -41.96 
L 198.625559 -41.96 
L 197.783562 -41.96 
L 196.941564 -41.96 
L 196.099567 -41.96 
L 195.25757 -41.96 
L 194.415572 -41.96 
L 193.573575 -41.96 
L 192.731577 -41.96 
L 191.88958 -41.96 
L 191.047583 -41.96 
L 190.205585 -41.96 
L 189.363588 -41.96 
L 188.521591 -41.96 
L 187.679593 -41.96 
L 186.837596 -41.96 
L 185.995598 -41.96 
L 185.153601 -41.96 
L 184.311604 -41.96 
L 183.469606 -41.96 
L 182.627609 -41.96 
L 181.785612 -41.96 
L 180.943614 -41.96 
L 180.101617 -41.96 
L 179.259619 -41.96 
L 178.417622 -41.96 
L 177.575625 -41.96 
L 176.733627 -41.96 
L 175.89163 -41.96 
L 175.049633 -41.96 
L 174.207635 -41.96 
L 173.365638 -41.96 
L 172.52364 -41.96 
L 171.681643 -41.96 
L 170.839646 -41.96 
L 169.997648 -41.96 
L 169.155651 -41.96 
L 168.313654 -41.96 
L 167.471656 -41.96 
L 166.629659 -41.96 
L 165.787661 -41.96 
L 164.945664 -41.96 
L 164.103667 -41.96 
L 163.261669 -41.96 
L 162.419672 -41.96 
L 161.577675 -41.96 
L 160.735677 -41.96 
L 159.89368 -41.96 
L 159.051682 -41.96 
L 158.209685 -41.96 
L 157.367688 -41.96 
L 156.52569 -41.96 
L 155.683693 -41.96 
L 154.841696 -41.96 
L 153.999698 -41.96 
L 153.157701 -41.96 
L 152.315703 -41.96 
L 151.473706 -41.96 
L 150.631709 -41.96 
L 149.789711 -41.96 
L 148.947714 -41.96 
L 148.105717 -41.96 
L 147.263719 -41.96 
L 146.421722 -41.96 
L 145.579724 -41.96 
L 144.737727 -41.96 
L 143.89573 -41.96 
L 143.053732 -41.96 
L 142.211735 -41.96 
L 141.369738 -41.96 
L 140.52774 -41.96 
L 139.685743 -41.96 
L 138.843745 -41.96 
L 138.001748 -41.96 
L 137.159751 -41.96 
L 136.317753 -41.96 
L 135.475756 -41.96 
L 134.633759 -41.96 
L 133.791761 -41.96 
L 132.949764 -41.96 
L 132.107766 -41.96 
L 131.265769 -41.96 
L 130.423772 -41.96 
L 129.581774 -41.96 
L 128.739777 -41.96 
L 127.89778 -41.96 
L 127.055782 -41.96 
L 126.213785 -41.96 
L 125.371787 -41.96 
L 124.52979 -41.96 
L 123.687793 -41.96 
L 122.845795 -41.96 
L 122.003798 -41.96 
L 121.161801 -41.96 
L 120.319803 -41.96 
L 119.477806 -41.96 
L 118.635808 -41.96 
L 117.793811 -41.96 
L 116.951814 -41.96 
L 116.109816 -41.96 
L 115.267819 -41.96 
L 114.425822 -41.96 
L 113.583824 -41.96 
L 112.741827 -41.96 
L 111.899829 -41.96 
L 111.057832 -41.96 
L 110.215835 -41.96 
L 109.373837 -41.96 
L 108.53184 -41.96 
L 107.689843 -41.96 
L 106.847845 -41.96 
L 106.005848 -41.96 
L 105.16385 -41.96 
L 104.321853 -41.96 
L 103.479856 -41.96 
L 102.637858 -41.96 
L 101.795861 -41.96 
L 100.953864 -41.96 
L 100.111866 -41.96 
L 99.269869 -41.96 
L 98.427871 -41.96 
L 97.585874 -41.96 
L 96.743877 -41.96 
L 95.901879 -41.96 
L 95.059882 -41.96 
L 94.217885 -41.96 
L 93.375887 -41.96 
L 92.53389 -41.96 
L 91.691892 -41.96 
L 90.849895 -41.96 
L 90.007898 -41.96 
L 89.1659 -41.96 
L 88.323903 -41.96 
L 87.481906 -41.96 
L 86.639908 -41.96 
L 85.797911 -41.96 
L 84.955913 -41.96 
L 84.113916 -41.96 
L 83.271919 -41.96 
L 82.429921 -41.96 
L 81.587924 -41.96 
L 80.745927 -41.96 
L 79.903929 -41.96 
L 79.061932 -41.96 
L 78.219934 -41.96 
L 77.377937 -41.96 
L 76.53594 -41.96 
L 75.693942 -41.96 
L 74.851945 -41.96 
L 74.009948 -41.96 
L 73.16795 -41.96 
L 72.325953 -41.96 
L 71.483955 -41.96 
L 70.641958 -41.96 
L 69.799961 -41.96 
L 68.957963 -41.96 
L 68.115966 -41.96 
L 67.273969 -41.96 
L 66.431971 -41.96 
L 65.589974 -41.96 
L 64.747976 -41.96 
L 63.905979 -41.96 
L 63.063982 -41.96 
L 62.221984 -41.96 
L 61.379987 -41.96 
L 60.53799 -41.96 
L 59.695992 -41.96 
L 58.853995 -41.96 
L 58.011997 -41.96 
L 57.17 -41.96 
z
" style="stroke: #0000ff; stroke-opacity: 0.4"/>
    </defs>
    <g clip-path="url(#p3efe20324e)">
     <use xlink:href="#m28acb0230d" x="0" y="648" style="fill: #0000ff; fill-opacity: 0.4; stroke: #0000ff; stroke-opacity: 0.4"/>
    </g>
   </g>
   <g id="matplotlib.axis_5">
    <g id="xtick_13">
     <g id="line2d_27">
      <g>
       <use xlink:href="#ma61fb04b2b" x="57.17" y="606.04" style="stroke: #000000; stroke-width: 0.8"/>
      </g>
     </g>
     <g id="text_29">
      <!-- 0 -->
      <g transform="translate(53.98875 620.638438) scale(0.1 -0.1)">
       <use xlink:href="#DejaVuSans-30"/>
      </g>
     </g>
    </g>
    <g id="xtick_14">
     <g id="line2d_28">
      <g>
       <use xlink:href="#ma61fb04b2b" x="99.269869" y="606.04" style="stroke: #000000; stroke-width: 0.8"/>
      </g>
     </g>
     <g id="text_30">
      <!-- 50 -->
      <g transform="translate(92.907369 620.638438) scale(0.1 -0.1)">
       <use xlink:href="#DejaVuSans-35"/>
       <use xlink:href="#DejaVuSans-30" x="63.623047"/>
      </g>
     </g>
    </g>
    <g id="xtick_15">
     <g id="line2d_29">
      <g>
       <use xlink:href="#ma61fb04b2b" x="141.369738" y="606.04" style="stroke: #000000; stroke-width: 0.8"/>
      </g>
     </g>
     <g id="text_31">
      <!-- 100 -->
      <g transform="translate(131.825988 620.638438) scale(0.1 -0.1)">
       <use xlink:href="#DejaVuSans-31"/>
       <use xlink:href="#DejaVuSans-30" x="63.623047"/>
       <use xlink:href="#DejaVuSans-30" x="127.246094"/>
      </g>
     </g>
    </g>
    <g id="xtick_16">
     <g id="line2d_30">
      <g>
       <use xlink:href="#ma61fb04b2b" x="183.469606" y="606.04" style="stroke: #000000; stroke-width: 0.8"/>
      </g>
     </g>
     <g id="text_32">
      <!-- 150 -->
      <g transform="translate(173.925856 620.638438) scale(0.1 -0.1)">
       <use xlink:href="#DejaVuSans-31"/>
       <use xlink:href="#DejaVuSans-35" x="63.623047"/>
       <use xlink:href="#DejaVuSans-30" x="127.246094"/>
      </g>
     </g>
    </g>
    <g id="xtick_17">
     <g id="line2d_31">
      <g>
       <use xlink:href="#ma61fb04b2b" x="225.569475" y="606.04" style="stroke: #000000; stroke-width: 0.8"/>
      </g>
     </g>
     <g id="text_33">
      <!-- 200 -->
      <g transform="translate(216.025725 620.638438) scale(0.1 -0.1)">
       <use xlink:href="#DejaVuSans-32"/>
       <use xlink:href="#DejaVuSans-30" x="63.623047"/>
       <use xlink:href="#DejaVuSans-30" x="127.246094"/>
      </g>
     </g>
    </g>
    <g id="xtick_18">
     <g id="line2d_32">
      <g>
       <use xlink:href="#ma61fb04b2b" x="267.669344" y="606.04" style="stroke: #000000; stroke-width: 0.8"/>
      </g>
     </g>
     <g id="text_34">
      <!-- 250 -->
      <g transform="translate(258.125594 620.638438) scale(0.1 -0.1)">
       <use xlink:href="#DejaVuSans-32"/>
       <use xlink:href="#DejaVuSans-35" x="63.623047"/>
       <use xlink:href="#DejaVuSans-30" x="127.246094"/>
      </g>
     </g>
    </g>
    <g id="text_35">
     <!-- Pixel Intensity -->
     <g transform="translate(130.033945 634.316563) scale(0.1 -0.1)">
      <defs>
       <path id="DejaVuSans-49" d="M 628 4666 
L 1259 4666 
L 1259 0 
L 628 0 
L 628 4666 
z
" transform="scale(0.015625)"/>
       <path id="DejaVuSans-74" d="M 1172 4494 
L 1172 3500 
L 2356 3500 
L 2356 3053 
L 1172 3053 
L 1172 1153 
Q 1172 725 1289 603 
Q 1406 481 1766 481 
L 2356 481 
L 2356 0 
L 1766 0 
Q 1100 0 847 248 
Q 594 497 594 1153 
L 594 3053 
L 172 3053 
L 172 3500 
L 594 3500 
L 594 4494 
L 1172 4494 
z
" transform="scale(0.015625)"/>
       <path id="DejaVuSans-73" d="M 2834 3397 
L 2834 2853 
Q 2591 2978 2328 3040 
Q 2066 3103 1784 3103 
Q 1356 3103 1142 2972 
Q 928 2841 928 2578 
Q 928 2378 1081 2264 
Q 1234 2150 1697 2047 
L 1894 2003 
Q 2506 1872 2764 1633 
Q 3022 1394 3022 966 
Q 3022 478 2636 193 
Q 2250 -91 1575 -91 
Q 1294 -91 989 -36 
Q 684 19 347 128 
L 347 722 
Q 666 556 975 473 
Q 1284 391 1588 391 
Q 1994 391 2212 530 
Q 2431 669 2431 922 
Q 2431 1156 2273 1281 
Q 2116 1406 1581 1522 
L 1381 1569 
Q 847 1681 609 1914 
Q 372 2147 372 2553 
Q 372 3047 722 3315 
Q 1072 3584 1716 3584 
Q 2034 3584 2315 3537 
Q 2597 3491 2834 3397 
z
" transform="scale(0.015625)"/>
      </defs>
      <use xlink:href="#DejaVuSans-50"/>
      <use xlink:href="#DejaVuSans-69" x="58.052734"/>
      <use xlink:href="#DejaVuSans-78" x="85.835938"/>
      <use xlink:href="#DejaVuSans-65" x="141.890625"/>
      <use xlink:href="#DejaVuSans-6c" x="203.414062"/>
      <use xlink:href="#DejaVuSans-20" x="231.197266"/>
      <use xlink:href="#DejaVuSans-49" x="262.984375"/>
      <use xlink:href="#DejaVuSans-6e" x="292.476562"/>
      <use xlink:href="#DejaVuSans-74" x="355.855469"/>
      <use xlink:href="#DejaVuSans-65" x="395.064453"/>
      <use xlink:href="#DejaVuSans-6e" x="456.587891"/>
      <use xlink:href="#DejaVuSans-73" x="519.966797"/>
      <use xlink:href="#DejaVuSans-69" x="572.066406"/>
      <use xlink:href="#DejaVuSans-74" x="599.849609"/>
      <use xlink:href="#DejaVuSans-79" x="639.058594"/>
     </g>
    </g>
   </g>
   <g id="matplotlib.axis_6">
    <g id="ytick_13">
     <g id="line2d_33">
      <g>
       <use xlink:href="#m2ed28c9338" x="57.17" y="606.04" style="stroke: #000000; stroke-width: 0.8"/>
      </g>
     </g>
     <g id="text_36">
      <!-- 0 -->
      <g transform="translate(43.8075 609.839219) scale(0.1 -0.1)">
       <use xlink:href="#DejaVuSans-30"/>
      </g>
     </g>
    </g>
    <g id="ytick_14">
     <g id="line2d_34">
      <g>
       <use xlink:href="#m2ed28c9338" x="57.17" y="575.872802" style="stroke: #000000; stroke-width: 0.8"/>
      </g>
     </g>
     <g id="text_37">
      <!-- 1000 -->
      <g transform="translate(24.72 579.672021) scale(0.1 -0.1)">
       <use xlink:href="#DejaVuSans-31"/>
       <use xlink:href="#DejaVuSans-30" x="63.623047"/>
       <use xlink:href="#DejaVuSans-30" x="127.246094"/>
       <use xlink:href="#DejaVuSans-30" x="190.869141"/>
      </g>
     </g>
    </g>
    <g id="ytick_15">
     <g id="line2d_35">
      <g>
       <use xlink:href="#m2ed28c9338" x="57.17" y="545.705604" style="stroke: #000000; stroke-width: 0.8"/>
      </g>
     </g>
     <g id="text_38">
      <!-- 2000 -->
      <g transform="translate(24.72 549.504823) scale(0.1 -0.1)">
       <use xlink:href="#DejaVuSans-32"/>
       <use xlink:href="#DejaVuSans-30" x="63.623047"/>
       <use xlink:href="#DejaVuSans-30" x="127.246094"/>
       <use xlink:href="#DejaVuSans-30" x="190.869141"/>
      </g>
     </g>
    </g>
    <g id="ytick_16">
     <g id="line2d_36">
      <g>
       <use xlink:href="#m2ed28c9338" x="57.17" y="515.538406" style="stroke: #000000; stroke-width: 0.8"/>
      </g>
     </g>
     <g id="text_39">
      <!-- 3000 -->
      <g transform="translate(24.72 519.337625) scale(0.1 -0.1)">
       <use xlink:href="#DejaVuSans-33"/>
       <use xlink:href="#DejaVuSans-30" x="63.623047"/>
       <use xlink:href="#DejaVuSans-30" x="127.246094"/>
       <use xlink:href="#DejaVuSans-30" x="190.869141"/>
      </g>
     </g>
    </g>
    <g id="ytick_17">
     <g id="line2d_37">
      <g>
       <use xlink:href="#m2ed28c9338" x="57.17" y="485.371208" style="stroke: #000000; stroke-width: 0.8"/>
      </g>
     </g>
     <g id="text_40">
      <!-- 4000 -->
      <g transform="translate(24.72 489.170427) scale(0.1 -0.1)">
       <use xlink:href="#DejaVuSans-34"/>
       <use xlink:href="#DejaVuSans-30" x="63.623047"/>
       <use xlink:href="#DejaVuSans-30" x="127.246094"/>
       <use xlink:href="#DejaVuSans-30" x="190.869141"/>
      </g>
     </g>
    </g>
    <g id="ytick_18">
     <g id="line2d_38">
      <g>
       <use xlink:href="#m2ed28c9338" x="57.17" y="455.204011" style="stroke: #000000; stroke-width: 0.8"/>
      </g>
     </g>
     <g id="text_41">
      <!-- 5000 -->
      <g transform="translate(24.72 459.003229) scale(0.1 -0.1)">
       <use xlink:href="#DejaVuSans-35"/>
       <use xlink:href="#DejaVuSans-30" x="63.623047"/>
       <use xlink:href="#DejaVuSans-30" x="127.246094"/>
       <use xlink:href="#DejaVuSans-30" x="190.869141"/>
      </g>
     </g>
    </g>
    <g id="text_42">
     <!-- Pixel Frequency -->
     <g transform="translate(18.640313 555.105573) rotate(-90) scale(0.1 -0.1)">
      <use xlink:href="#DejaVuSans-50"/>
      <use xlink:href="#DejaVuSans-69" x="58.052734"/>
      <use xlink:href="#DejaVuSans-78" x="85.835938"/>
      <use xlink:href="#DejaVuSans-65" x="141.890625"/>
      <use xlink:href="#DejaVuSans-6c" x="203.414062"/>
      <use xlink:href="#DejaVuSans-20" x="231.197266"/>
      <use xlink:href="#DejaVuSans-46" x="262.984375"/>
      <use xlink:href="#DejaVuSans-72" x="313.253906"/>
      <use xlink:href="#DejaVuSans-65" x="352.117188"/>
      <use xlink:href="#DejaVuSans-71" x="413.640625"/>
      <use xlink:href="#DejaVuSans-75" x="477.117188"/>
      <use xlink:href="#DejaVuSans-65" x="540.496094"/>
      <use xlink:href="#DejaVuSans-6e" x="602.019531"/>
      <use xlink:href="#DejaVuSans-63" x="665.398438"/>
      <use xlink:href="#DejaVuSans-79" x="720.378906"/>
     </g>
    </g>
   </g>
   <g id="line2d_39">
    <path d="M 57.17 606.04 
L 71.483955 606.04 
L 73.16795 605.768495 
L 74.851945 604.953981 
L 75.693942 604.229968 
L 76.53594 600.428901 
L 77.377937 592.856935 
L 78.219934 578.165509 
L 79.061932 553.096568 
L 80.745927 487.362243 
L 81.587924 467.180388 
L 82.429921 467.723398 
L 83.271919 470.166941 
L 84.113916 476.109879 
L 84.955913 486.608064 
L 85.797911 499.338621 
L 87.481906 547.394967 
L 89.1659 582.901759 
L 90.007898 591.680414 
L 90.849895 597.502683 
L 91.691892 598.045693 
L 92.53389 599.403216 
L 93.375887 597.864689 
L 94.217885 599.855724 
L 95.059882 599.735056 
L 95.901879 599.885892 
L 96.743877 600.368567 
L 97.585874 601.273583 
L 98.427871 600.217731 
L 99.269869 600.941744 
L 100.111866 601.122747 
L 100.953864 601.907094 
L 101.795861 601.695924 
L 102.637858 602.027763 
L 103.479856 601.786425 
L 104.321853 601.997595 
L 105.16385 603.174116 
L 106.005848 601.756258 
L 106.847845 602.631107 
L 107.689843 602.389769 
L 108.53184 602.842277 
L 109.373837 602.842277 
L 110.215835 603.264618 
L 111.057832 603.174116 
L 111.899829 603.204283 
L 112.741827 602.81211 
L 113.583824 603.174116 
L 114.425822 603.02328 
L 115.267819 603.234451 
L 116.109816 603.958463 
L 116.951814 603.355119 
L 117.793811 603.747293 
L 118.635808 603.898129 
L 119.477806 603.807627 
L 120.319803 604.260135 
L 121.161801 604.260135 
L 122.003798 603.747293 
L 122.845795 604.561807 
L 123.687793 603.988631 
L 124.52979 604.410971 
L 125.371787 604.350637 
L 126.213785 604.410971 
L 127.055782 604.863479 
L 127.89778 604.591975 
L 128.739777 604.591975 
L 130.423772 604.74281 
L 131.265769 604.501473 
L 132.107766 604.863479 
L 132.949764 604.833312 
L 134.633759 605.165151 
L 135.475756 604.833312 
L 139.685743 605.315987 
L 141.369738 604.923814 
L 142.211735 605.225486 
L 143.053732 605.346154 
L 145.579724 605.195318 
L 146.421722 605.376322 
L 147.263719 605.165151 
L 148.105717 605.104817 
L 149.789711 605.255653 
L 152.315703 605.49699 
L 153.157701 605.376322 
L 153.999698 605.557325 
L 154.841696 605.466823 
L 157.367688 605.527158 
L 158.209685 605.466823 
L 159.89368 605.587492 
L 160.735677 605.376322 
L 161.577675 605.49699 
L 163.261669 605.557325 
L 164.103667 605.647826 
L 164.945664 605.466823 
L 165.787661 605.617659 
L 167.471656 605.647826 
L 168.313654 605.466823 
L 169.155651 605.647826 
L 169.997648 605.466823 
L 170.839646 605.82883 
L 171.681643 605.677994 
L 172.52364 605.647826 
L 173.365638 605.858997 
L 174.207635 605.617659 
L 175.049633 605.738328 
L 175.89163 605.617659 
L 176.733627 605.738328 
L 177.575625 605.647826 
L 179.259619 605.647826 
L 180.101617 605.527158 
L 180.943614 605.82883 
L 181.785612 605.708161 
L 182.627609 605.858997 
L 184.311604 605.617659 
L 185.995598 605.858997 
L 188.521591 605.798662 
L 189.363588 605.949498 
L 190.205585 605.677994 
L 194.415572 605.979666 
L 195.25757 605.768495 
L 196.099567 605.738328 
L 196.941564 605.919331 
L 197.783562 605.949498 
L 198.625559 605.82883 
L 199.467556 605.979666 
L 200.309554 605.82883 
L 201.151551 605.798662 
L 201.993549 605.949498 
L 203.677543 605.919331 
L 206.203535 605.949498 
L 207.88753 605.979666 
L 271.879331 606.04 
L 271.879331 606.04 
" clip-path="url(#p3efe20324e)" style="fill: none; stroke: #0000ff; stroke-width: 1.5; stroke-linecap: square"/>
   </g>
   <g id="patch_13">
    <path d="M 57.17 606.04 
L 57.17 426.213333 
" style="fill: none; stroke: #000000; stroke-width: 0.8; stroke-linejoin: miter; stroke-linecap: square"/>
   </g>
   <g id="patch_14">
    <path d="M 272.721328 606.04 
L 272.721328 426.213333 
" style="fill: none; stroke: #000000; stroke-width: 0.8; stroke-linejoin: miter; stroke-linecap: square"/>
   </g>
   <g id="patch_15">
    <path d="M 57.17 606.04 
L 272.721328 606.04 
" style="fill: none; stroke: #000000; stroke-width: 0.8; stroke-linejoin: miter; stroke-linecap: square"/>
   </g>
   <g id="patch_16">
    <path d="M 57.17 426.213333 
L 272.721328 426.213333 
" style="fill: none; stroke: #000000; stroke-width: 0.8; stroke-linejoin: miter; stroke-linecap: square"/>
   </g>
   <g id="text_43">
    <!-- Blue Channel  -->
    <g transform="translate(189.272578 440.213333) scale(0.12 -0.12)">
     <defs>
      <path id="DejaVuSans-42" d="M 1259 2228 
L 1259 519 
L 2272 519 
Q 2781 519 3026 730 
Q 3272 941 3272 1375 
Q 3272 1813 3026 2020 
Q 2781 2228 2272 2228 
L 1259 2228 
z
M 1259 4147 
L 1259 2741 
L 2194 2741 
Q 2656 2741 2882 2914 
Q 3109 3088 3109 3444 
Q 3109 3797 2882 3972 
Q 2656 4147 2194 4147 
L 1259 4147 
z
M 628 4666 
L 2241 4666 
Q 2963 4666 3353 4366 
Q 3744 4066 3744 3513 
Q 3744 3084 3544 2831 
Q 3344 2578 2956 2516 
Q 3422 2416 3680 2098 
Q 3938 1781 3938 1306 
Q 3938 681 3513 340 
Q 3088 0 2303 0 
L 628 0 
L 628 4666 
z
" transform="scale(0.015625)"/>
     </defs>
     <use xlink:href="#DejaVuSans-42"/>
     <use xlink:href="#DejaVuSans-6c" x="68.603516"/>
     <use xlink:href="#DejaVuSans-75" x="96.386719"/>
     <use xlink:href="#DejaVuSans-65" x="159.765625"/>
     <use xlink:href="#DejaVuSans-20" x="221.289062"/>
     <use xlink:href="#DejaVuSans-43" x="253.076172"/>
     <use xlink:href="#DejaVuSans-68" x="322.900391"/>
     <use xlink:href="#DejaVuSans-61" x="386.279297"/>
     <use xlink:href="#DejaVuSans-6e" x="447.558594"/>
     <use xlink:href="#DejaVuSans-6e" x="510.9375"/>
     <use xlink:href="#DejaVuSans-65" x="574.316406"/>
     <use xlink:href="#DejaVuSans-6c" x="635.839844"/>
     <use xlink:href="#DejaVuSans-20" x="663.623047"/>
    </g>
   </g>
  </g>
 </g>
 <defs>
  <clipPath id="pa5f3beaa70">
   <rect x="57.17" y="10.8" width="215.551328" height="179.826667"/>
  </clipPath>
  <clipPath id="p8a6942ea46">
   <rect x="57.17" y="218.506667" width="215.551328" height="179.826667"/>
  </clipPath>
  <clipPath id="p3efe20324e">
   <rect x="57.17" y="426.213333" width="215.551328" height="179.826667"/>
  </clipPath>
 </defs>
</svg>
