<?xml version="1.0" encoding="utf-8" standalone="no"?>
<!DOCTYPE svg PUBLIC "-//W3C//DTD SVG 1.1//EN"
  "http://www.w3.org/Graphics/SVG/1.1/DTD/svg11.dtd">
<svg xmlns:xlink="http://www.w3.org/1999/xlink" width="288pt" height="648pt" viewBox="0 0 288 648" xmlns="http://www.w3.org/2000/svg" version="1.1">
 <metadata>
  <rdf:RDF xmlns:dc="http://purl.org/dc/elements/1.1/" xmlns:cc="http://creativecommons.org/ns#" xmlns:rdf="http://www.w3.org/1999/02/22-rdf-syntax-ns#">
   <cc:Work>
    <dc:type rdf:resource="http://purl.org/dc/dcmitype/StillImage"/>
    <dc:date>2023-11-18T15:20:08.165534</dc:date>
    <dc:format>image/svg+xml</dc:format>
    <dc:creator>
     <cc:Agent>
      <dc:title>Matplotlib v3.8.0, https://matplotlib.org/</dc:title>
     </cc:Agent>
    </dc:creator>
   </cc:Work>
  </rdf:RDF>
 </metadata>
 <defs>
  <style type="text/css">*{stroke-linejoin: round; stroke-linecap: butt}</style>
 </defs>
 <g id="figure_1">
  <g id="patch_1">
   <path d="M 0 648 
L 288 648 
L 288 0 
L 0 0 
z
" style="fill: #ffffff"/>
  </g>
  <g id="axes_1">
   <g id="patch_2">
    <path d="M 57.17 190.626667 
L 272.721328 190.626667 
L 272.721328 10.8 
L 57.17 10.8 
z
" style="fill: #ffffff"/>
   </g>
   <g id="PolyCollection_1">
    <defs>
     <path id="mcb570f2075" d="M 57.17 -457.373333 
L 57.17 -457.373333 
L 58.011997 -457.373333 
L 58.853995 -457.373333 
L 59.695992 -457.373333 
L 60.53799 -457.373333 
L 61.379987 -457.373333 
L 62.221984 -457.373333 
L 63.063982 -457.373333 
L 63.905979 -457.373333 
L 64.747976 -457.373333 
L 65.589974 -457.373333 
L 66.431971 -457.373333 
L 67.273969 -457.373333 
L 68.115966 -457.373333 
L 68.957963 -457.373333 
L 69.799961 -457.373333 
L 70.641958 -457.373333 
L 71.483955 -457.373333 
L 72.325953 -457.373333 
L 73.16795 -457.373333 
L 74.009948 -457.373333 
L 74.851945 -457.373333 
L 75.693942 -457.373333 
L 76.53594 -457.373333 
L 77.377937 -457.373333 
L 78.219934 -457.373333 
L 79.061932 -457.373333 
L 79.903929 -457.373333 
L 80.745927 -457.373333 
L 81.587924 -457.373333 
L 82.429921 -457.373333 
L 83.271919 -457.373333 
L 84.113916 -457.373333 
L 84.955913 -457.969971 
L 85.797911 -458.327954 
L 86.639908 -473.363229 
L 87.481906 -539.590038 
L 88.323903 -552.954727 
L 89.1659 -542.095917 
L 90.007898 -526.702659 
L 90.849895 -516.917797 
L 91.691892 -518.707711 
L 92.53389 -504.627056 
L 93.375887 -491.023712 
L 94.217885 -491.978332 
L 95.059882 -493.887574 
L 95.901879 -493.410263 
L 96.743877 -494.603539 
L 97.585874 -489.11447 
L 98.427871 -481.23885 
L 99.269869 -481.71616 
L 100.111866 -480.284229 
L 100.953864 -479.568264 
L 101.795861 -478.971626 
L 102.637858 -475.630453 
L 103.479856 -480.164902 
L 104.321853 -482.432126 
L 105.16385 -481.477505 
L 106.005848 -478.852298 
L 106.847845 -483.267419 
L 107.689843 -481.119522 
L 108.53184 -484.938005 
L 109.373837 -489.949763 
L 110.215835 -488.63716 
L 111.057832 -499.137987 
L 111.899829 -506.297642 
L 112.741827 -507.610246 
L 113.583824 -505.939659 
L 114.425822 -504.030418 
L 115.267819 -507.848901 
L 116.109816 -508.445539 
L 116.951814 -508.206883 
L 117.793811 -513.337969 
L 118.635808 -519.185021 
L 119.477806 -527.895935 
L 120.319803 -531.714417 
L 121.161801 -543.050537 
L 122.003798 -535.771555 
L 122.845795 -542.573227 
L 123.687793 -548.062296 
L 124.52979 -557.72783 
L 125.371787 -561.784968 
L 126.213785 -564.17152 
L 127.055782 -572.643778 
L 127.89778 -579.92276 
L 128.739777 -572.52445 
L 129.581774 -577.178226 
L 130.423772 -588.872329 
L 131.265769 -576.700916 
L 132.107766 -580.877381 
L 132.949764 -572.405123 
L 133.791761 -568.347985 
L 134.633759 -561.546313 
L 135.475756 -561.546313 
L 136.317753 -559.517744 
L 137.159751 -556.534554 
L 138.001748 -554.863968 
L 138.843745 -545.914399 
L 139.685743 -540.306003 
L 140.52774 -535.5329 
L 141.369738 -526.225348 
L 142.211735 -525.1514 
L 143.053732 -519.781659 
L 143.89573 -523.958124 
L 144.737727 -511.906038 
L 145.579724 -510.35478 
L 146.421722 -514.411918 
L 147.263719 -512.025366 
L 148.105717 -508.087556 
L 148.947714 -503.672435 
L 149.789711 -502.837142 
L 150.631709 -498.899332 
L 151.473706 -496.870763 
L 152.315703 -498.899332 
L 153.157701 -490.665729 
L 153.999698 -490.904384 
L 154.841696 -488.040522 
L 155.683693 -484.222039 
L 156.52569 -487.443884 
L 157.367688 -482.432126 
L 158.209685 -481.000195 
L 159.051682 -477.181712 
L 159.89368 -479.210281 
L 160.735677 -478.971626 
L 161.577675 -479.687591 
L 162.419672 -478.374988 
L 163.261669 -474.437178 
L 164.103667 -475.749781 
L 164.945664 -473.721212 
L 165.787661 -471.453988 
L 166.629659 -472.408609 
L 167.471656 -471.573316 
L 168.313654 -471.33466 
L 169.155651 -470.85735 
L 169.997648 -470.618695 
L 170.839646 -470.499367 
L 171.681643 -468.828781 
L 172.52364 -467.874161 
L 173.365638 -469.902729 
L 174.207635 -470.499367 
L 175.049633 -469.544747 
L 175.89163 -468.709454 
L 176.733627 -466.203574 
L 177.575625 -467.993488 
L 178.417622 -468.232143 
L 179.259619 -469.425419 
L 180.101617 -468.709454 
L 180.943614 -467.993488 
L 181.785612 -469.425419 
L 182.627609 -468.828781 
L 183.469606 -467.39685 
L 184.311604 -467.635505 
L 185.153601 -469.306092 
L 185.995598 -466.203574 
L 186.837596 -466.800212 
L 187.679593 -467.754833 
L 188.521591 -467.158195 
L 189.363588 -467.038868 
L 190.205585 -466.800212 
L 191.047583 -467.158195 
L 191.88958 -466.203574 
L 192.731577 -465.845592 
L 193.573575 -466.322902 
L 194.415572 -467.39685 
L 195.25757 -468.351471 
L 196.099567 -467.038868 
L 196.941564 -467.754833 
L 197.783562 -465.726264 
L 198.625559 -465.248954 
L 199.467556 -466.44223 
L 200.309554 -463.93635 
L 201.151551 -463.578368 
L 201.993549 -465.606937 
L 202.835546 -461.788454 
L 203.677543 -463.578368 
L 204.519541 -462.146437 
L 205.361538 -464.413661 
L 206.203535 -462.623747 
L 207.045533 -462.146437 
L 207.88753 -461.669126 
L 208.729528 -460.953161 
L 209.571525 -461.669126 
L 210.413522 -461.191816 
L 211.25552 -461.549799 
L 212.097517 -461.191816 
L 212.939514 -461.191816 
L 213.781512 -460.833833 
L 214.623509 -460.595178 
L 215.465507 -459.879213 
L 216.307504 -459.99854 
L 217.149501 -458.924592 
L 217.991499 -459.759885 
L 218.833496 -460.714506 
L 219.675493 -460.356523 
L 220.517491 -459.99854 
L 221.359488 -459.759885 
L 222.201486 -459.163247 
L 223.043483 -460.117868 
L 223.88548 -459.043919 
L 224.727478 -458.924592 
L 225.569475 -458.566609 
L 226.411472 -459.282575 
L 227.25347 -459.401902 
L 228.095467 -457.850644 
L 228.937465 -458.566609 
L 229.779462 -459.163247 
L 230.621459 -459.759885 
L 231.463457 -459.640557 
L 232.305454 -458.805264 
L 233.147451 -458.089299 
L 233.989449 -459.163247 
L 234.831446 -458.685937 
L 235.673444 -459.163247 
L 236.515441 -458.327954 
L 237.357438 -458.566609 
L 238.199436 -459.043919 
L 239.041433 -458.327954 
L 239.88343 -460.117868 
L 240.725428 -458.327954 
L 241.567425 -458.208626 
L 242.409423 -458.447282 
L 243.25142 -458.805264 
L 244.093417 -458.566609 
L 244.935415 -459.043919 
L 245.777412 -458.685937 
L 246.619409 -458.327954 
L 247.461407 -458.805264 
L 248.303404 -458.566609 
L 249.145402 -458.327954 
L 249.987399 -458.447282 
L 250.829396 -458.566609 
L 251.671394 -458.089299 
L 252.513391 -458.566609 
L 253.355388 -457.850644 
L 254.197386 -457.731316 
L 255.039383 -459.163247 
L 255.881381 -458.208626 
L 256.723378 -458.447282 
L 257.565375 -458.327954 
L 258.407373 -457.969971 
L 259.24937 -458.327954 
L 260.091367 -458.089299 
L 260.933365 -458.805264 
L 261.775362 -458.089299 
L 262.61736 -459.163247 
L 263.459357 -458.447282 
L 264.301354 -458.924592 
L 265.143352 -458.447282 
L 265.985349 -459.043919 
L 266.827346 -459.163247 
L 267.669344 -459.043919 
L 268.511341 -459.759885 
L 269.353339 -459.52123 
L 270.195336 -460.47585 
L 271.037333 -460.47585 
L 271.879331 -465.368281 
L 271.879331 -457.373333 
L 271.879331 -457.373333 
L 271.037333 -457.373333 
L 270.195336 -457.373333 
L 269.353339 -457.373333 
L 268.511341 -457.373333 
L 267.669344 -457.373333 
L 266.827346 -457.373333 
L 265.985349 -457.373333 
L 265.143352 -457.373333 
L 264.301354 -457.373333 
L 263.459357 -457.373333 
L 262.61736 -457.373333 
L 261.775362 -457.373333 
L 260.933365 -457.373333 
L 260.091367 -457.373333 
L 259.24937 -457.373333 
L 258.407373 -457.373333 
L 257.565375 -457.373333 
L 256.723378 -457.373333 
L 255.881381 -457.373333 
L 255.039383 -457.373333 
L 254.197386 -457.373333 
L 253.355388 -457.373333 
L 252.513391 -457.373333 
L 251.671394 -457.373333 
L 250.829396 -457.373333 
L 249.987399 -457.373333 
L 249.145402 -457.373333 
L 248.303404 -457.373333 
L 247.461407 -457.373333 
L 246.619409 -457.373333 
L 245.777412 -457.373333 
L 244.935415 -457.373333 
L 244.093417 -457.373333 
L 243.25142 -457.373333 
L 242.409423 -457.373333 
L 241.567425 -457.373333 
L 240.725428 -457.373333 
L 239.88343 -457.373333 
L 239.041433 -457.373333 
L 238.199436 -457.373333 
L 237.357438 -457.373333 
L 236.515441 -457.373333 
L 235.673444 -457.373333 
L 234.831446 -457.373333 
L 233.989449 -457.373333 
L 233.147451 -457.373333 
L 232.305454 -457.373333 
L 231.463457 -457.373333 
L 230.621459 -457.373333 
L 229.779462 -457.373333 
L 228.937465 -457.373333 
L 228.095467 -457.373333 
L 227.25347 -457.373333 
L 226.411472 -457.373333 
L 225.569475 -457.373333 
L 224.727478 -457.373333 
L 223.88548 -457.373333 
L 223.043483 -457.373333 
L 222.201486 -457.373333 
L 221.359488 -457.373333 
L 220.517491 -457.373333 
L 219.675493 -457.373333 
L 218.833496 -457.373333 
L 217.991499 -457.373333 
L 217.149501 -457.373333 
L 216.307504 -457.373333 
L 215.465507 -457.373333 
L 214.623509 -457.373333 
L 213.781512 -457.373333 
L 212.939514 -457.373333 
L 212.097517 -457.373333 
L 211.25552 -457.373333 
L 210.413522 -457.373333 
L 209.571525 -457.373333 
L 208.729528 -457.373333 
L 207.88753 -457.373333 
L 207.045533 -457.373333 
L 206.203535 -457.373333 
L 205.361538 -457.373333 
L 204.519541 -457.373333 
L 203.677543 -457.373333 
L 202.835546 -457.373333 
L 201.993549 -457.373333 
L 201.151551 -457.373333 
L 200.309554 -457.373333 
L 199.467556 -457.373333 
L 198.625559 -457.373333 
L 197.783562 -457.373333 
L 196.941564 -457.373333 
L 196.099567 -457.373333 
L 195.25757 -457.373333 
L 194.415572 -457.373333 
L 193.573575 -457.373333 
L 192.731577 -457.373333 
L 191.88958 -457.373333 
L 191.047583 -457.373333 
L 190.205585 -457.373333 
L 189.363588 -457.373333 
L 188.521591 -457.373333 
L 187.679593 -457.373333 
L 186.837596 -457.373333 
L 185.995598 -457.373333 
L 185.153601 -457.373333 
L 184.311604 -457.373333 
L 183.469606 -457.373333 
L 182.627609 -457.373333 
L 181.785612 -457.373333 
L 180.943614 -457.373333 
L 180.101617 -457.373333 
L 179.259619 -457.373333 
L 178.417622 -457.373333 
L 177.575625 -457.373333 
L 176.733627 -457.373333 
L 175.89163 -457.373333 
L 175.049633 -457.373333 
L 174.207635 -457.373333 
L 173.365638 -457.373333 
L 172.52364 -457.373333 
L 171.681643 -457.373333 
L 170.839646 -457.373333 
L 169.997648 -457.373333 
L 169.155651 -457.373333 
L 168.313654 -457.373333 
L 167.471656 -457.373333 
L 166.629659 -457.373333 
L 165.787661 -457.373333 
L 164.945664 -457.373333 
L 164.103667 -457.373333 
L 163.261669 -457.373333 
L 162.419672 -457.373333 
L 161.577675 -457.373333 
L 160.735677 -457.373333 
L 159.89368 -457.373333 
L 159.051682 -457.373333 
L 158.209685 -457.373333 
L 157.367688 -457.373333 
L 156.52569 -457.373333 
L 155.683693 -457.373333 
L 154.841696 -457.373333 
L 153.999698 -457.373333 
L 153.157701 -457.373333 
L 152.315703 -457.373333 
L 151.473706 -457.373333 
L 150.631709 -457.373333 
L 149.789711 -457.373333 
L 148.947714 -457.373333 
L 148.105717 -457.373333 
L 147.263719 -457.373333 
L 146.421722 -457.373333 
L 145.579724 -457.373333 
L 144.737727 -457.373333 
L 143.89573 -457.373333 
L 143.053732 -457.373333 
L 142.211735 -457.373333 
L 141.369738 -457.373333 
L 140.52774 -457.373333 
L 139.685743 -457.373333 
L 138.843745 -457.373333 
L 138.001748 -457.373333 
L 137.159751 -457.373333 
L 136.317753 -457.373333 
L 135.475756 -457.373333 
L 134.633759 -457.373333 
L 133.791761 -457.373333 
L 132.949764 -457.373333 
L 132.107766 -457.373333 
L 131.265769 -457.373333 
L 130.423772 -457.373333 
L 129.581774 -457.373333 
L 128.739777 -457.373333 
L 127.89778 -457.373333 
L 127.055782 -457.373333 
L 126.213785 -457.373333 
L 125.371787 -457.373333 
L 124.52979 -457.373333 
L 123.687793 -457.373333 
L 122.845795 -457.373333 
L 122.003798 -457.373333 
L 121.161801 -457.373333 
L 120.319803 -457.373333 
L 119.477806 -457.373333 
L 118.635808 -457.373333 
L 117.793811 -457.373333 
L 116.951814 -457.373333 
L 116.109816 -457.373333 
L 115.267819 -457.373333 
L 114.425822 -457.373333 
L 113.583824 -457.373333 
L 112.741827 -457.373333 
L 111.899829 -457.373333 
L 111.057832 -457.373333 
L 110.215835 -457.373333 
L 109.373837 -457.373333 
L 108.53184 -457.373333 
L 107.689843 -457.373333 
L 106.847845 -457.373333 
L 106.005848 -457.373333 
L 105.16385 -457.373333 
L 104.321853 -457.373333 
L 103.479856 -457.373333 
L 102.637858 -457.373333 
L 101.795861 -457.373333 
L 100.953864 -457.373333 
L 100.111866 -457.373333 
L 99.269869 -457.373333 
L 98.427871 -457.373333 
L 97.585874 -457.373333 
L 96.743877 -457.373333 
L 95.901879 -457.373333 
L 95.059882 -457.373333 
L 94.217885 -457.373333 
L 93.375887 -457.373333 
L 92.53389 -457.373333 
L 91.691892 -457.373333 
L 90.849895 -457.373333 
L 90.007898 -457.373333 
L 89.1659 -457.373333 
L 88.323903 -457.373333 
L 87.481906 -457.373333 
L 86.639908 -457.373333 
L 85.797911 -457.373333 
L 84.955913 -457.373333 
L 84.113916 -457.373333 
L 83.271919 -457.373333 
L 82.429921 -457.373333 
L 81.587924 -457.373333 
L 80.745927 -457.373333 
L 79.903929 -457.373333 
L 79.061932 -457.373333 
L 78.219934 -457.373333 
L 77.377937 -457.373333 
L 76.53594 -457.373333 
L 75.693942 -457.373333 
L 74.851945 -457.373333 
L 74.009948 -457.373333 
L 73.16795 -457.373333 
L 72.325953 -457.373333 
L 71.483955 -457.373333 
L 70.641958 -457.373333 
L 69.799961 -457.373333 
L 68.957963 -457.373333 
L 68.115966 -457.373333 
L 67.273969 -457.373333 
L 66.431971 -457.373333 
L 65.589974 -457.373333 
L 64.747976 -457.373333 
L 63.905979 -457.373333 
L 63.063982 -457.373333 
L 62.221984 -457.373333 
L 61.379987 -457.373333 
L 60.53799 -457.373333 
L 59.695992 -457.373333 
L 58.853995 -457.373333 
L 58.011997 -457.373333 
L 57.17 -457.373333 
z
" style="stroke: #ff0000; stroke-opacity: 0.4"/>
    </defs>
    <g clip-path="url(#p914a9a37c5)">
     <use xlink:href="#mcb570f2075" x="0" y="648" style="fill: #ff0000; fill-opacity: 0.4; stroke: #ff0000; stroke-opacity: 0.4"/>
    </g>
   </g>
   <g id="matplotlib.axis_1">
    <g id="xtick_1">
     <g id="line2d_1">
      <defs>
       <path id="mc63adf865b" d="M 0 0 
L 0 3.5 
" style="stroke: #000000; stroke-width: 0.8"/>
      </defs>
      <g>
       <use xlink:href="#mc63adf865b" x="57.17" y="190.626667" style="stroke: #000000; stroke-width: 0.8"/>
      </g>
     </g>
     <g id="text_1">
      <!-- 0 -->
      <g transform="translate(53.98875 205.225104) scale(0.1 -0.1)">
       <defs>
        <path id="DejaVuSans-30" d="M 2034 4250 
Q 1547 4250 1301 3770 
Q 1056 3291 1056 2328 
Q 1056 1369 1301 889 
Q 1547 409 2034 409 
Q 2525 409 2770 889 
Q 3016 1369 3016 2328 
Q 3016 3291 2770 3770 
Q 2525 4250 2034 4250 
z
M 2034 4750 
Q 2819 4750 3233 4129 
Q 3647 3509 3647 2328 
Q 3647 1150 3233 529 
Q 2819 -91 2034 -91 
Q 1250 -91 836 529 
Q 422 1150 422 2328 
Q 422 3509 836 4129 
Q 1250 4750 2034 4750 
z
" transform="scale(0.015625)"/>
       </defs>
       <use xlink:href="#DejaVuSans-30"/>
      </g>
     </g>
    </g>
    <g id="xtick_2">
     <g id="line2d_2">
      <g>
       <use xlink:href="#mc63adf865b" x="99.269869" y="190.626667" style="stroke: #000000; stroke-width: 0.8"/>
      </g>
     </g>
     <g id="text_2">
      <!-- 50 -->
      <g transform="translate(92.907369 205.225104) scale(0.1 -0.1)">
       <defs>
        <path id="DejaVuSans-35" d="M 691 4666 
L 3169 4666 
L 3169 4134 
L 1269 4134 
L 1269 2991 
Q 1406 3038 1543 3061 
Q 1681 3084 1819 3084 
Q 2600 3084 3056 2656 
Q 3513 2228 3513 1497 
Q 3513 744 3044 326 
Q 2575 -91 1722 -91 
Q 1428 -91 1123 -41 
Q 819 9 494 109 
L 494 744 
Q 775 591 1075 516 
Q 1375 441 1709 441 
Q 2250 441 2565 725 
Q 2881 1009 2881 1497 
Q 2881 1984 2565 2268 
Q 2250 2553 1709 2553 
Q 1456 2553 1204 2497 
Q 953 2441 691 2322 
L 691 4666 
z
" transform="scale(0.015625)"/>
       </defs>
       <use xlink:href="#DejaVuSans-35"/>
       <use xlink:href="#DejaVuSans-30" x="63.623047"/>
      </g>
     </g>
    </g>
    <g id="xtick_3">
     <g id="line2d_3">
      <g>
       <use xlink:href="#mc63adf865b" x="141.369738" y="190.626667" style="stroke: #000000; stroke-width: 0.8"/>
      </g>
     </g>
     <g id="text_3">
      <!-- 100 -->
      <g transform="translate(131.825988 205.225104) scale(0.1 -0.1)">
       <defs>
        <path id="DejaVuSans-31" d="M 794 531 
L 1825 531 
L 1825 4091 
L 703 3866 
L 703 4441 
L 1819 4666 
L 2450 4666 
L 2450 531 
L 3481 531 
L 3481 0 
L 794 0 
L 794 531 
z
" transform="scale(0.015625)"/>
       </defs>
       <use xlink:href="#DejaVuSans-31"/>
       <use xlink:href="#DejaVuSans-30" x="63.623047"/>
       <use xlink:href="#DejaVuSans-30" x="127.246094"/>
      </g>
     </g>
    </g>
    <g id="xtick_4">
     <g id="line2d_4">
      <g>
       <use xlink:href="#mc63adf865b" x="183.469606" y="190.626667" style="stroke: #000000; stroke-width: 0.8"/>
      </g>
     </g>
     <g id="text_4">
      <!-- 150 -->
      <g transform="translate(173.925856 205.225104) scale(0.1 -0.1)">
       <use xlink:href="#DejaVuSans-31"/>
       <use xlink:href="#DejaVuSans-35" x="63.623047"/>
       <use xlink:href="#DejaVuSans-30" x="127.246094"/>
      </g>
     </g>
    </g>
    <g id="xtick_5">
     <g id="line2d_5">
      <g>
       <use xlink:href="#mc63adf865b" x="225.569475" y="190.626667" style="stroke: #000000; stroke-width: 0.8"/>
      </g>
     </g>
     <g id="text_5">
      <!-- 200 -->
      <g transform="translate(216.025725 205.225104) scale(0.1 -0.1)">
       <defs>
        <path id="DejaVuSans-32" d="M 1228 531 
L 3431 531 
L 3431 0 
L 469 0 
L 469 531 
Q 828 903 1448 1529 
Q 2069 2156 2228 2338 
Q 2531 2678 2651 2914 
Q 2772 3150 2772 3378 
Q 2772 3750 2511 3984 
Q 2250 4219 1831 4219 
Q 1534 4219 1204 4116 
Q 875 4013 500 3803 
L 500 4441 
Q 881 4594 1212 4672 
Q 1544 4750 1819 4750 
Q 2544 4750 2975 4387 
Q 3406 4025 3406 3419 
Q 3406 3131 3298 2873 
Q 3191 2616 2906 2266 
Q 2828 2175 2409 1742 
Q 1991 1309 1228 531 
z
" transform="scale(0.015625)"/>
       </defs>
       <use xlink:href="#DejaVuSans-32"/>
       <use xlink:href="#DejaVuSans-30" x="63.623047"/>
       <use xlink:href="#DejaVuSans-30" x="127.246094"/>
      </g>
     </g>
    </g>
    <g id="xtick_6">
     <g id="line2d_6">
      <g>
       <use xlink:href="#mc63adf865b" x="267.669344" y="190.626667" style="stroke: #000000; stroke-width: 0.8"/>
      </g>
     </g>
     <g id="text_6">
      <!-- 250 -->
      <g transform="translate(258.125594 205.225104) scale(0.1 -0.1)">
       <use xlink:href="#DejaVuSans-32"/>
       <use xlink:href="#DejaVuSans-35" x="63.623047"/>
       <use xlink:href="#DejaVuSans-30" x="127.246094"/>
      </g>
     </g>
    </g>
   </g>
   <g id="matplotlib.axis_2">
    <g id="ytick_1">
     <g id="line2d_7">
      <defs>
       <path id="mc4f737ae66" d="M 0 0 
L -3.5 0 
" style="stroke: #000000; stroke-width: 0.8"/>
      </defs>
      <g>
       <use xlink:href="#mc4f737ae66" x="57.17" y="190.626667" style="stroke: #000000; stroke-width: 0.8"/>
      </g>
     </g>
     <g id="text_7">
      <!-- 0 -->
      <g transform="translate(43.8075 194.425885) scale(0.1 -0.1)">
       <use xlink:href="#DejaVuSans-30"/>
      </g>
     </g>
    </g>
    <g id="ytick_2">
     <g id="line2d_8">
      <g>
       <use xlink:href="#mc4f737ae66" x="57.17" y="166.76115" style="stroke: #000000; stroke-width: 0.8"/>
      </g>
     </g>
     <g id="text_8">
      <!-- 200 -->
      <g transform="translate(31.0825 170.560369) scale(0.1 -0.1)">
       <use xlink:href="#DejaVuSans-32"/>
       <use xlink:href="#DejaVuSans-30" x="63.623047"/>
       <use xlink:href="#DejaVuSans-30" x="127.246094"/>
      </g>
     </g>
    </g>
    <g id="ytick_3">
     <g id="line2d_9">
      <g>
       <use xlink:href="#mc4f737ae66" x="57.17" y="142.895634" style="stroke: #000000; stroke-width: 0.8"/>
      </g>
     </g>
     <g id="text_9">
      <!-- 400 -->
      <g transform="translate(31.0825 146.694852) scale(0.1 -0.1)">
       <defs>
        <path id="DejaVuSans-34" d="M 2419 4116 
L 825 1625 
L 2419 1625 
L 2419 4116 
z
M 2253 4666 
L 3047 4666 
L 3047 1625 
L 3713 1625 
L 3713 1100 
L 3047 1100 
L 3047 0 
L 2419 0 
L 2419 1100 
L 313 1100 
L 313 1709 
L 2253 4666 
z
" transform="scale(0.015625)"/>
       </defs>
       <use xlink:href="#DejaVuSans-34"/>
       <use xlink:href="#DejaVuSans-30" x="63.623047"/>
       <use xlink:href="#DejaVuSans-30" x="127.246094"/>
      </g>
     </g>
    </g>
    <g id="ytick_4">
     <g id="line2d_10">
      <g>
       <use xlink:href="#mc4f737ae66" x="57.17" y="119.030117" style="stroke: #000000; stroke-width: 0.8"/>
      </g>
     </g>
     <g id="text_10">
      <!-- 600 -->
      <g transform="translate(31.0825 122.829336) scale(0.1 -0.1)">
       <defs>
        <path id="DejaVuSans-36" d="M 2113 2584 
Q 1688 2584 1439 2293 
Q 1191 2003 1191 1497 
Q 1191 994 1439 701 
Q 1688 409 2113 409 
Q 2538 409 2786 701 
Q 3034 994 3034 1497 
Q 3034 2003 2786 2293 
Q 2538 2584 2113 2584 
z
M 3366 4563 
L 3366 3988 
Q 3128 4100 2886 4159 
Q 2644 4219 2406 4219 
Q 1781 4219 1451 3797 
Q 1122 3375 1075 2522 
Q 1259 2794 1537 2939 
Q 1816 3084 2150 3084 
Q 2853 3084 3261 2657 
Q 3669 2231 3669 1497 
Q 3669 778 3244 343 
Q 2819 -91 2113 -91 
Q 1303 -91 875 529 
Q 447 1150 447 2328 
Q 447 3434 972 4092 
Q 1497 4750 2381 4750 
Q 2619 4750 2861 4703 
Q 3103 4656 3366 4563 
z
" transform="scale(0.015625)"/>
       </defs>
       <use xlink:href="#DejaVuSans-36"/>
       <use xlink:href="#DejaVuSans-30" x="63.623047"/>
       <use xlink:href="#DejaVuSans-30" x="127.246094"/>
      </g>
     </g>
    </g>
    <g id="ytick_5">
     <g id="line2d_11">
      <g>
       <use xlink:href="#mc4f737ae66" x="57.17" y="95.164601" style="stroke: #000000; stroke-width: 0.8"/>
      </g>
     </g>
     <g id="text_11">
      <!-- 800 -->
      <g transform="translate(31.0825 98.96382) scale(0.1 -0.1)">
       <defs>
        <path id="DejaVuSans-38" d="M 2034 2216 
Q 1584 2216 1326 1975 
Q 1069 1734 1069 1313 
Q 1069 891 1326 650 
Q 1584 409 2034 409 
Q 2484 409 2743 651 
Q 3003 894 3003 1313 
Q 3003 1734 2745 1975 
Q 2488 2216 2034 2216 
z
M 1403 2484 
Q 997 2584 770 2862 
Q 544 3141 544 3541 
Q 544 4100 942 4425 
Q 1341 4750 2034 4750 
Q 2731 4750 3128 4425 
Q 3525 4100 3525 3541 
Q 3525 3141 3298 2862 
Q 3072 2584 2669 2484 
Q 3125 2378 3379 2068 
Q 3634 1759 3634 1313 
Q 3634 634 3220 271 
Q 2806 -91 2034 -91 
Q 1263 -91 848 271 
Q 434 634 434 1313 
Q 434 1759 690 2068 
Q 947 2378 1403 2484 
z
M 1172 3481 
Q 1172 3119 1398 2916 
Q 1625 2713 2034 2713 
Q 2441 2713 2670 2916 
Q 2900 3119 2900 3481 
Q 2900 3844 2670 4047 
Q 2441 4250 2034 4250 
Q 1625 4250 1398 4047 
Q 1172 3844 1172 3481 
z
" transform="scale(0.015625)"/>
       </defs>
       <use xlink:href="#DejaVuSans-38"/>
       <use xlink:href="#DejaVuSans-30" x="63.623047"/>
       <use xlink:href="#DejaVuSans-30" x="127.246094"/>
      </g>
     </g>
    </g>
    <g id="ytick_6">
     <g id="line2d_12">
      <g>
       <use xlink:href="#mc4f737ae66" x="57.17" y="71.299084" style="stroke: #000000; stroke-width: 0.8"/>
      </g>
     </g>
     <g id="text_12">
      <!-- 1000 -->
      <g transform="translate(24.72 75.098303) scale(0.1 -0.1)">
       <use xlink:href="#DejaVuSans-31"/>
       <use xlink:href="#DejaVuSans-30" x="63.623047"/>
       <use xlink:href="#DejaVuSans-30" x="127.246094"/>
       <use xlink:href="#DejaVuSans-30" x="190.869141"/>
      </g>
     </g>
    </g>
    <g id="ytick_7">
     <g id="line2d_13">
      <g>
       <use xlink:href="#mc4f737ae66" x="57.17" y="47.433568" style="stroke: #000000; stroke-width: 0.8"/>
      </g>
     </g>
     <g id="text_13">
      <!-- 1200 -->
      <g transform="translate(24.72 51.232787) scale(0.1 -0.1)">
       <use xlink:href="#DejaVuSans-31"/>
       <use xlink:href="#DejaVuSans-32" x="63.623047"/>
       <use xlink:href="#DejaVuSans-30" x="127.246094"/>
       <use xlink:href="#DejaVuSans-30" x="190.869141"/>
      </g>
     </g>
    </g>
    <g id="ytick_8">
     <g id="line2d_14">
      <g>
       <use xlink:href="#mc4f737ae66" x="57.17" y="23.568051" style="stroke: #000000; stroke-width: 0.8"/>
      </g>
     </g>
     <g id="text_14">
      <!-- 1400 -->
      <g transform="translate(24.72 27.36727) scale(0.1 -0.1)">
       <use xlink:href="#DejaVuSans-31"/>
       <use xlink:href="#DejaVuSans-34" x="63.623047"/>
       <use xlink:href="#DejaVuSans-30" x="127.246094"/>
       <use xlink:href="#DejaVuSans-30" x="190.869141"/>
      </g>
     </g>
    </g>
    <g id="text_15">
     <!-- Pixel Frequency -->
     <g transform="translate(18.640313 139.69224) rotate(-90) scale(0.1 -0.1)">
      <defs>
       <path id="DejaVuSans-50" d="M 1259 4147 
L 1259 2394 
L 2053 2394 
Q 2494 2394 2734 2622 
Q 2975 2850 2975 3272 
Q 2975 3691 2734 3919 
Q 2494 4147 2053 4147 
L 1259 4147 
z
M 628 4666 
L 2053 4666 
Q 2838 4666 3239 4311 
Q 3641 3956 3641 3272 
Q 3641 2581 3239 2228 
Q 2838 1875 2053 1875 
L 1259 1875 
L 1259 0 
L 628 0 
L 628 4666 
z
" transform="scale(0.015625)"/>
       <path id="DejaVuSans-69" d="M 603 3500 
L 1178 3500 
L 1178 0 
L 603 0 
L 603 3500 
z
M 603 4863 
L 1178 4863 
L 1178 4134 
L 603 4134 
L 603 4863 
z
" transform="scale(0.015625)"/>
       <path id="DejaVuSans-78" d="M 3513 3500 
L 2247 1797 
L 3578 0 
L 2900 0 
L 1881 1375 
L 863 0 
L 184 0 
L 1544 1831 
L 300 3500 
L 978 3500 
L 1906 2253 
L 2834 3500 
L 3513 3500 
z
" transform="scale(0.015625)"/>
       <path id="DejaVuSans-65" d="M 3597 1894 
L 3597 1613 
L 953 1613 
Q 991 1019 1311 708 
Q 1631 397 2203 397 
Q 2534 397 2845 478 
Q 3156 559 3463 722 
L 3463 178 
Q 3153 47 2828 -22 
Q 2503 -91 2169 -91 
Q 1331 -91 842 396 
Q 353 884 353 1716 
Q 353 2575 817 3079 
Q 1281 3584 2069 3584 
Q 2775 3584 3186 3129 
Q 3597 2675 3597 1894 
z
M 3022 2063 
Q 3016 2534 2758 2815 
Q 2500 3097 2075 3097 
Q 1594 3097 1305 2825 
Q 1016 2553 972 2059 
L 3022 2063 
z
" transform="scale(0.015625)"/>
       <path id="DejaVuSans-6c" d="M 603 4863 
L 1178 4863 
L 1178 0 
L 603 0 
L 603 4863 
z
" transform="scale(0.015625)"/>
       <path id="DejaVuSans-20" transform="scale(0.015625)"/>
       <path id="DejaVuSans-46" d="M 628 4666 
L 3309 4666 
L 3309 4134 
L 1259 4134 
L 1259 2759 
L 3109 2759 
L 3109 2228 
L 1259 2228 
L 1259 0 
L 628 0 
L 628 4666 
z
" transform="scale(0.015625)"/>
       <path id="DejaVuSans-72" d="M 2631 2963 
Q 2534 3019 2420 3045 
Q 2306 3072 2169 3072 
Q 1681 3072 1420 2755 
Q 1159 2438 1159 1844 
L 1159 0 
L 581 0 
L 581 3500 
L 1159 3500 
L 1159 2956 
Q 1341 3275 1631 3429 
Q 1922 3584 2338 3584 
Q 2397 3584 2469 3576 
Q 2541 3569 2628 3553 
L 2631 2963 
z
" transform="scale(0.015625)"/>
       <path id="DejaVuSans-71" d="M 947 1747 
Q 947 1113 1208 752 
Q 1469 391 1925 391 
Q 2381 391 2643 752 
Q 2906 1113 2906 1747 
Q 2906 2381 2643 2742 
Q 2381 3103 1925 3103 
Q 1469 3103 1208 2742 
Q 947 2381 947 1747 
z
M 2906 525 
Q 2725 213 2448 61 
Q 2172 -91 1784 -91 
Q 1150 -91 751 415 
Q 353 922 353 1747 
Q 353 2572 751 3078 
Q 1150 3584 1784 3584 
Q 2172 3584 2448 3432 
Q 2725 3281 2906 2969 
L 2906 3500 
L 3481 3500 
L 3481 -1331 
L 2906 -1331 
L 2906 525 
z
" transform="scale(0.015625)"/>
       <path id="DejaVuSans-75" d="M 544 1381 
L 544 3500 
L 1119 3500 
L 1119 1403 
Q 1119 906 1312 657 
Q 1506 409 1894 409 
Q 2359 409 2629 706 
Q 2900 1003 2900 1516 
L 2900 3500 
L 3475 3500 
L 3475 0 
L 2900 0 
L 2900 538 
Q 2691 219 2414 64 
Q 2138 -91 1772 -91 
Q 1169 -91 856 284 
Q 544 659 544 1381 
z
M 1991 3584 
L 1991 3584 
z
" transform="scale(0.015625)"/>
       <path id="DejaVuSans-6e" d="M 3513 2113 
L 3513 0 
L 2938 0 
L 2938 2094 
Q 2938 2591 2744 2837 
Q 2550 3084 2163 3084 
Q 1697 3084 1428 2787 
Q 1159 2491 1159 1978 
L 1159 0 
L 581 0 
L 581 3500 
L 1159 3500 
L 1159 2956 
Q 1366 3272 1645 3428 
Q 1925 3584 2291 3584 
Q 2894 3584 3203 3211 
Q 3513 2838 3513 2113 
z
" transform="scale(0.015625)"/>
       <path id="DejaVuSans-63" d="M 3122 3366 
L 3122 2828 
Q 2878 2963 2633 3030 
Q 2388 3097 2138 3097 
Q 1578 3097 1268 2742 
Q 959 2388 959 1747 
Q 959 1106 1268 751 
Q 1578 397 2138 397 
Q 2388 397 2633 464 
Q 2878 531 3122 666 
L 3122 134 
Q 2881 22 2623 -34 
Q 2366 -91 2075 -91 
Q 1284 -91 818 406 
Q 353 903 353 1747 
Q 353 2603 823 3093 
Q 1294 3584 2113 3584 
Q 2378 3584 2631 3529 
Q 2884 3475 3122 3366 
z
" transform="scale(0.015625)"/>
       <path id="DejaVuSans-79" d="M 2059 -325 
Q 1816 -950 1584 -1140 
Q 1353 -1331 966 -1331 
L 506 -1331 
L 506 -850 
L 844 -850 
Q 1081 -850 1212 -737 
Q 1344 -625 1503 -206 
L 1606 56 
L 191 3500 
L 800 3500 
L 1894 763 
L 2988 3500 
L 3597 3500 
L 2059 -325 
z
" transform="scale(0.015625)"/>
      </defs>
      <use xlink:href="#DejaVuSans-50"/>
      <use xlink:href="#DejaVuSans-69" x="58.052734"/>
      <use xlink:href="#DejaVuSans-78" x="85.835938"/>
      <use xlink:href="#DejaVuSans-65" x="141.890625"/>
      <use xlink:href="#DejaVuSans-6c" x="203.414062"/>
      <use xlink:href="#DejaVuSans-20" x="231.197266"/>
      <use xlink:href="#DejaVuSans-46" x="262.984375"/>
      <use xlink:href="#DejaVuSans-72" x="313.253906"/>
      <use xlink:href="#DejaVuSans-65" x="352.117188"/>
      <use xlink:href="#DejaVuSans-71" x="413.640625"/>
      <use xlink:href="#DejaVuSans-75" x="477.117188"/>
      <use xlink:href="#DejaVuSans-65" x="540.496094"/>
      <use xlink:href="#DejaVuSans-6e" x="602.019531"/>
      <use xlink:href="#DejaVuSans-63" x="665.398438"/>
      <use xlink:href="#DejaVuSans-79" x="720.378906"/>
     </g>
    </g>
   </g>
   <g id="line2d_15">
    <path d="M 57.17 190.626667 
L 84.113916 190.626667 
L 84.955913 190.030029 
L 85.797911 189.672046 
L 86.639908 174.636771 
L 87.481906 108.409962 
L 88.323903 95.045273 
L 89.1659 105.904083 
L 90.007898 121.297341 
L 90.849895 131.082203 
L 91.691892 129.292289 
L 93.375887 156.976288 
L 94.217885 156.021668 
L 95.059882 154.112426 
L 95.901879 154.589737 
L 96.743877 153.396461 
L 97.585874 158.88553 
L 98.427871 166.76115 
L 99.269869 166.28384 
L 100.111866 167.715771 
L 101.795861 169.028374 
L 102.637858 172.369547 
L 103.479856 167.835098 
L 104.321853 165.567874 
L 105.16385 166.522495 
L 106.005848 169.147702 
L 106.847845 164.732581 
L 107.689843 166.880478 
L 108.53184 163.061995 
L 109.373837 158.050237 
L 110.215835 159.36284 
L 111.057832 148.862013 
L 111.899829 141.702358 
L 112.741827 140.389754 
L 114.425822 143.969582 
L 115.267819 140.151099 
L 116.109816 139.554461 
L 116.951814 139.793117 
L 117.793811 134.662031 
L 118.635808 128.814979 
L 119.477806 120.104065 
L 120.319803 116.285583 
L 121.161801 104.949463 
L 122.003798 112.228445 
L 122.845795 105.426773 
L 123.687793 99.937704 
L 124.52979 90.27217 
L 125.371787 86.215032 
L 126.213785 83.82848 
L 127.055782 75.356222 
L 127.89778 68.07724 
L 128.739777 75.47555 
L 129.581774 70.821774 
L 130.423772 59.127671 
L 131.265769 71.299084 
L 132.107766 67.122619 
L 132.949764 75.594877 
L 133.791761 79.652015 
L 134.633759 86.453687 
L 135.475756 86.453687 
L 136.317753 88.482256 
L 137.159751 91.465446 
L 138.001748 93.136032 
L 138.843745 102.085601 
L 139.685743 107.693997 
L 140.52774 112.4671 
L 141.369738 121.774652 
L 142.211735 122.8486 
L 143.053732 128.218341 
L 143.89573 124.041876 
L 144.737727 136.093962 
L 145.579724 137.64522 
L 146.421722 133.588082 
L 147.263719 135.974634 
L 148.947714 144.327565 
L 149.789711 145.162858 
L 150.631709 149.100668 
L 151.473706 151.129237 
L 152.315703 149.100668 
L 153.157701 157.334271 
L 153.999698 157.095616 
L 154.841696 159.959478 
L 155.683693 163.777961 
L 156.52569 160.556116 
L 157.367688 165.567874 
L 158.209685 166.999805 
L 159.051682 170.818288 
L 159.89368 168.789719 
L 160.735677 169.028374 
L 161.577675 168.312409 
L 162.419672 169.625012 
L 163.261669 173.562822 
L 164.103667 172.250219 
L 165.787661 176.546012 
L 166.629659 175.591391 
L 167.471656 176.426684 
L 168.313654 176.66534 
L 169.155651 177.14265 
L 169.997648 177.381305 
L 170.839646 177.500633 
L 171.681643 179.171219 
L 172.52364 180.125839 
L 173.365638 178.097271 
L 174.207635 177.500633 
L 175.89163 179.290546 
L 176.733627 181.796426 
L 177.575625 180.006512 
L 178.417622 179.767857 
L 179.259619 178.574581 
L 180.943614 180.006512 
L 181.785612 178.574581 
L 182.627609 179.171219 
L 183.469606 180.60315 
L 184.311604 180.364495 
L 185.153601 178.693908 
L 185.995598 181.796426 
L 186.837596 181.199788 
L 187.679593 180.245167 
L 188.521591 180.841805 
L 189.363588 180.961132 
L 190.205585 181.199788 
L 191.047583 180.841805 
L 191.88958 181.796426 
L 192.731577 182.154408 
L 193.573575 181.677098 
L 195.25757 179.648529 
L 196.099567 180.961132 
L 196.941564 180.245167 
L 197.783562 182.273736 
L 198.625559 182.751046 
L 199.467556 181.55777 
L 200.309554 184.06365 
L 201.151551 184.421632 
L 201.993549 182.393063 
L 202.835546 186.211546 
L 203.677543 184.421632 
L 204.519541 185.853563 
L 205.361538 183.586339 
L 206.203535 185.376253 
L 207.88753 186.330874 
L 208.729528 187.046839 
L 209.571525 186.330874 
L 210.413522 186.808184 
L 211.25552 186.450201 
L 212.097517 186.808184 
L 212.939514 186.808184 
L 214.623509 187.404822 
L 215.465507 188.120787 
L 216.307504 188.00146 
L 217.149501 189.075408 
L 218.833496 187.285494 
L 222.201486 188.836753 
L 223.043483 187.882132 
L 223.88548 188.956081 
L 224.727478 189.075408 
L 225.569475 189.433391 
L 226.411472 188.717425 
L 227.25347 188.598098 
L 228.095467 190.149356 
L 229.779462 188.836753 
L 230.621459 188.240115 
L 231.463457 188.359443 
L 233.147451 189.910701 
L 233.989449 188.836753 
L 234.831446 189.314063 
L 235.673444 188.836753 
L 236.515441 189.672046 
L 237.357438 189.433391 
L 238.199436 188.956081 
L 239.041433 189.672046 
L 239.88343 187.882132 
L 240.725428 189.672046 
L 241.567425 189.791374 
L 242.409423 189.552718 
L 243.25142 189.194736 
L 244.093417 189.433391 
L 244.935415 188.956081 
L 246.619409 189.672046 
L 247.461407 189.194736 
L 249.145402 189.672046 
L 250.829396 189.433391 
L 251.671394 189.910701 
L 252.513391 189.433391 
L 253.355388 190.149356 
L 254.197386 190.268684 
L 255.039383 188.836753 
L 255.881381 189.791374 
L 256.723378 189.552718 
L 257.565375 189.672046 
L 258.407373 190.030029 
L 259.24937 189.672046 
L 260.091367 189.910701 
L 260.933365 189.194736 
L 261.775362 189.910701 
L 262.61736 188.836753 
L 263.459357 189.552718 
L 264.301354 189.075408 
L 265.143352 189.552718 
L 265.985349 188.956081 
L 266.827346 188.836753 
L 267.669344 188.956081 
L 268.511341 188.240115 
L 269.353339 188.47877 
L 270.195336 187.52415 
L 271.037333 187.52415 
L 271.879331 182.631719 
L 271.879331 182.631719 
" clip-path="url(#p914a9a37c5)" style="fill: none; stroke: #ff0000; stroke-width: 1.5; stroke-linecap: square"/>
   </g>
   <g id="patch_3">
    <path d="M 57.17 190.626667 
L 57.17 10.8 
" style="fill: none; stroke: #000000; stroke-width: 0.8; stroke-linejoin: miter; stroke-linecap: square"/>
   </g>
   <g id="patch_4">
    <path d="M 272.721328 190.626667 
L 272.721328 10.8 
" style="fill: none; stroke: #000000; stroke-width: 0.8; stroke-linejoin: miter; stroke-linecap: square"/>
   </g>
   <g id="patch_5">
    <path d="M 57.17 190.626667 
L 272.721328 190.626667 
" style="fill: none; stroke: #000000; stroke-width: 0.8; stroke-linejoin: miter; stroke-linecap: square"/>
   </g>
   <g id="patch_6">
    <path d="M 57.17 10.8 
L 272.721328 10.8 
" style="fill: none; stroke: #000000; stroke-width: 0.8; stroke-linejoin: miter; stroke-linecap: square"/>
   </g>
   <g id="text_16">
    <!-- Red Channel  -->
    <g transform="translate(193.028203 24.8) scale(0.12 -0.12)">
     <defs>
      <path id="DejaVuSans-52" d="M 2841 2188 
Q 3044 2119 3236 1894 
Q 3428 1669 3622 1275 
L 4263 0 
L 3584 0 
L 2988 1197 
Q 2756 1666 2539 1819 
Q 2322 1972 1947 1972 
L 1259 1972 
L 1259 0 
L 628 0 
L 628 4666 
L 2053 4666 
Q 2853 4666 3247 4331 
Q 3641 3997 3641 3322 
Q 3641 2881 3436 2590 
Q 3231 2300 2841 2188 
z
M 1259 4147 
L 1259 2491 
L 2053 2491 
Q 2509 2491 2742 2702 
Q 2975 2913 2975 3322 
Q 2975 3731 2742 3939 
Q 2509 4147 2053 4147 
L 1259 4147 
z
" transform="scale(0.015625)"/>
      <path id="DejaVuSans-64" d="M 2906 2969 
L 2906 4863 
L 3481 4863 
L 3481 0 
L 2906 0 
L 2906 525 
Q 2725 213 2448 61 
Q 2172 -91 1784 -91 
Q 1150 -91 751 415 
Q 353 922 353 1747 
Q 353 2572 751 3078 
Q 1150 3584 1784 3584 
Q 2172 3584 2448 3432 
Q 2725 3281 2906 2969 
z
M 947 1747 
Q 947 1113 1208 752 
Q 1469 391 1925 391 
Q 2381 391 2643 752 
Q 2906 1113 2906 1747 
Q 2906 2381 2643 2742 
Q 2381 3103 1925 3103 
Q 1469 3103 1208 2742 
Q 947 2381 947 1747 
z
" transform="scale(0.015625)"/>
      <path id="DejaVuSans-43" d="M 4122 4306 
L 4122 3641 
Q 3803 3938 3442 4084 
Q 3081 4231 2675 4231 
Q 1875 4231 1450 3742 
Q 1025 3253 1025 2328 
Q 1025 1406 1450 917 
Q 1875 428 2675 428 
Q 3081 428 3442 575 
Q 3803 722 4122 1019 
L 4122 359 
Q 3791 134 3420 21 
Q 3050 -91 2638 -91 
Q 1578 -91 968 557 
Q 359 1206 359 2328 
Q 359 3453 968 4101 
Q 1578 4750 2638 4750 
Q 3056 4750 3426 4639 
Q 3797 4528 4122 4306 
z
" transform="scale(0.015625)"/>
      <path id="DejaVuSans-68" d="M 3513 2113 
L 3513 0 
L 2938 0 
L 2938 2094 
Q 2938 2591 2744 2837 
Q 2550 3084 2163 3084 
Q 1697 3084 1428 2787 
Q 1159 2491 1159 1978 
L 1159 0 
L 581 0 
L 581 4863 
L 1159 4863 
L 1159 2956 
Q 1366 3272 1645 3428 
Q 1925 3584 2291 3584 
Q 2894 3584 3203 3211 
Q 3513 2838 3513 2113 
z
" transform="scale(0.015625)"/>
      <path id="DejaVuSans-61" d="M 2194 1759 
Q 1497 1759 1228 1600 
Q 959 1441 959 1056 
Q 959 750 1161 570 
Q 1363 391 1709 391 
Q 2188 391 2477 730 
Q 2766 1069 2766 1631 
L 2766 1759 
L 2194 1759 
z
M 3341 1997 
L 3341 0 
L 2766 0 
L 2766 531 
Q 2569 213 2275 61 
Q 1981 -91 1556 -91 
Q 1019 -91 701 211 
Q 384 513 384 1019 
Q 384 1609 779 1909 
Q 1175 2209 1959 2209 
L 2766 2209 
L 2766 2266 
Q 2766 2663 2505 2880 
Q 2244 3097 1772 3097 
Q 1472 3097 1187 3025 
Q 903 2953 641 2809 
L 641 3341 
Q 956 3463 1253 3523 
Q 1550 3584 1831 3584 
Q 2591 3584 2966 3190 
Q 3341 2797 3341 1997 
z
" transform="scale(0.015625)"/>
     </defs>
     <use xlink:href="#DejaVuSans-52"/>
     <use xlink:href="#DejaVuSans-65" x="64.982422"/>
     <use xlink:href="#DejaVuSans-64" x="126.505859"/>
     <use xlink:href="#DejaVuSans-20" x="189.982422"/>
     <use xlink:href="#DejaVuSans-43" x="221.769531"/>
     <use xlink:href="#DejaVuSans-68" x="291.59375"/>
     <use xlink:href="#DejaVuSans-61" x="354.972656"/>
     <use xlink:href="#DejaVuSans-6e" x="416.251953"/>
     <use xlink:href="#DejaVuSans-6e" x="479.630859"/>
     <use xlink:href="#DejaVuSans-65" x="543.009766"/>
     <use xlink:href="#DejaVuSans-6c" x="604.533203"/>
     <use xlink:href="#DejaVuSans-20" x="632.316406"/>
    </g>
   </g>
  </g>
  <g id="axes_2">
   <g id="patch_7">
    <path d="M 57.17 398.333333 
L 272.721328 398.333333 
L 272.721328 218.506667 
L 57.17 218.506667 
z
" style="fill: #ffffff"/>
   </g>
   <g id="PolyCollection_2">
    <defs>
     <path id="m62e08cf676" d="M 57.17 -249.666667 
L 57.17 -249.666667 
L 58.011997 -249.666667 
L 58.853995 -249.666667 
L 59.695992 -249.666667 
L 60.53799 -249.666667 
L 61.379987 -249.666667 
L 62.221984 -249.666667 
L 63.063982 -249.666667 
L 63.905979 -249.666667 
L 64.747976 -249.666667 
L 65.589974 -249.666667 
L 66.431971 -249.666667 
L 67.273969 -249.666667 
L 68.115966 -249.666667 
L 68.957963 -249.666667 
L 69.799961 -249.666667 
L 70.641958 -249.666667 
L 71.483955 -249.666667 
L 72.325953 -249.666667 
L 73.16795 -249.666667 
L 74.009948 -249.666667 
L 74.851945 -249.666667 
L 75.693942 -249.666667 
L 76.53594 -249.666667 
L 77.377937 -249.666667 
L 78.219934 -249.666667 
L 79.061932 -249.666667 
L 79.903929 -249.666667 
L 80.745927 -249.666667 
L 81.587924 -249.666667 
L 82.429921 -250.859942 
L 83.271919 -266.014545 
L 84.113916 -329.496819 
L 84.955913 -338.565716 
L 85.797911 -311.359027 
L 86.639908 -314.222889 
L 87.481906 -316.370785 
L 88.323903 -304.557355 
L 89.1659 -306.585923 
L 90.007898 -295.249803 
L 90.849895 -282.004441 
L 91.691892 -282.004441 
L 92.53389 -276.754028 
L 93.375887 -273.890166 
L 94.217885 -275.799407 
L 95.059882 -277.112011 
L 95.901879 -272.935545 
L 96.743877 -269.713701 
L 97.585874 -269.594373 
L 98.427871 -263.985977 
L 99.269869 -267.088494 
L 100.111866 -271.026304 
L 100.953864 -271.384287 
L 101.795861 -266.969166 
L 102.637858 -271.980925 
L 103.479856 -271.742269 
L 104.321853 -269.355718 
L 105.16385 -266.969166 
L 106.005848 -269.117063 
L 106.847845 -270.906976 
L 107.689843 -271.264959 
L 108.53184 -271.742269 
L 109.373837 -276.396045 
L 110.215835 -276.276718 
L 111.057832 -281.646459 
L 111.899829 -291.192665 
L 112.741827 -297.159044 
L 113.583824 -292.385941 
L 114.425822 -289.880062 
L 115.267819 -287.0162 
L 116.109816 -287.612838 
L 116.951814 -288.328803 
L 117.793811 -291.311993 
L 118.635808 -296.681734 
L 119.477806 -303.006096 
L 120.319803 -302.767441 
L 121.161801 -309.330458 
L 122.003798 -307.779199 
L 122.845795 -312.074992 
L 123.687793 -318.757337 
L 124.52979 -327.110268 
L 125.371787 -322.456492 
L 126.213785 -329.496819 
L 127.055782 -334.38925 
L 127.89778 -345.24806 
L 128.739777 -351.333767 
L 129.581774 -346.799319 
L 130.423772 -355.748887 
L 131.265769 -342.145543 
L 132.107766 -348.827888 
L 132.949764 -351.69175 
L 133.791761 -357.658129 
L 134.633759 -353.720319 
L 135.475756 -343.458146 
L 136.317753 -353.958974 
L 137.159751 -352.407715 
L 138.001748 -344.651422 
L 138.843745 -339.758991 
L 139.685743 -327.110268 
L 140.52774 -331.764043 
L 141.369738 -332.122026 
L 142.211735 -334.747233 
L 143.053732 -325.439681 
L 143.89573 -322.098509 
L 144.737727 -316.490113 
L 145.579724 -314.461544 
L 146.421722 -314.819527 
L 147.263719 -305.153992 
L 148.105717 -305.153992 
L 148.947714 -299.545596 
L 149.789711 -301.216182 
L 150.631709 -299.068286 
L 151.473706 -298.590975 
L 152.315703 -293.221234 
L 153.157701 -292.863251 
L 153.999698 -294.653165 
L 154.841696 -295.011148 
L 155.683693 -295.369131 
L 156.52569 -285.464941 
L 157.367688 -285.226286 
L 158.209685 -284.03301 
L 159.051682 -283.07839 
L 159.89368 -281.169148 
L 160.735677 -282.243097 
L 161.577675 -276.873355 
L 162.419672 -276.515373 
L 163.261669 -275.441424 
L 164.103667 -272.816218 
L 164.945664 -270.906976 
L 165.787661 -271.503614 
L 166.629659 -271.742269 
L 167.471656 -271.503614 
L 168.313654 -271.384287 
L 169.155651 -267.088494 
L 169.997648 -265.77589 
L 170.839646 -266.611183 
L 171.681643 -269.475045 
L 172.52364 -268.28177 
L 173.365638 -267.088494 
L 174.207635 -264.582614 
L 175.049633 -262.434718 
L 175.89163 -263.866649 
L 176.733627 -264.105304 
L 177.575625 -262.31539 
L 178.417622 -264.82127 
L 179.259619 -259.332201 
L 180.101617 -262.673373 
L 180.943614 -261.83808 
L 181.785612 -261.480097 
L 182.627609 -260.883459 
L 183.469606 -258.258253 
L 184.311604 -261.241442 
L 185.153601 -259.212873 
L 185.995598 -258.974218 
L 186.837596 -259.212873 
L 187.679593 -260.644804 
L 188.521591 -258.854891 
L 189.363588 -259.212873 
L 190.205585 -260.167494 
L 191.047583 -258.616235 
L 191.88958 -258.735563 
L 192.731577 -260.525477 
L 193.573575 -258.616235 
L 194.415572 -258.37758 
L 195.25757 -260.048166 
L 196.099567 -259.809511 
L 196.941564 -256.826322 
L 197.783562 -258.974218 
L 198.625559 -260.286821 
L 199.467556 -257.780942 
L 200.309554 -258.616235 
L 201.151551 -258.616235 
L 201.993549 -258.616235 
L 202.835546 -258.37758 
L 203.677543 -256.587666 
L 204.519541 -257.064977 
L 205.361538 -257.303632 
L 206.203535 -259.212873 
L 207.045533 -257.542287 
L 207.88753 -257.780942 
L 208.729528 -257.90027 
L 209.571525 -257.184304 
L 210.413522 -256.826322 
L 211.25552 -257.780942 
L 212.097517 -259.093546 
L 212.939514 -258.019597 
L 213.781512 -256.587666 
L 214.623509 -258.258253 
L 215.465507 -256.826322 
L 216.307504 -256.945649 
L 217.149501 -256.826322 
L 217.991499 -256.826322 
L 218.833496 -255.871701 
L 219.675493 -255.633046 
L 220.517491 -256.110356 
L 221.359488 -255.513718 
L 222.201486 -255.036408 
L 223.043483 -253.246494 
L 223.88548 -254.201115 
L 224.727478 -254.559098 
L 225.569475 -253.843132 
L 226.411472 -254.201115 
L 227.25347 -253.365822 
L 228.095467 -253.604477 
L 228.937465 -253.96246 
L 229.779462 -253.127167 
L 230.621459 -253.007839 
L 231.463457 -254.559098 
L 232.305454 -253.365822 
L 233.147451 -253.127167 
L 233.989449 -252.411201 
L 234.831446 -252.172546 
L 235.673444 -252.769184 
L 236.515441 -252.888511 
L 237.357438 -252.530529 
L 238.199436 -251.45658 
L 239.041433 -252.291873 
L 239.88343 -251.933891 
L 240.725428 -252.530529 
L 241.567425 -252.530529 
L 242.409423 -251.45658 
L 243.25142 -250.740615 
L 244.093417 -251.45658 
L 244.935415 -250.97927 
L 245.777412 -251.337253 
L 246.619409 -251.337253 
L 247.461407 -252.053218 
L 248.303404 -251.45658 
L 249.145402 -251.217925 
L 249.987399 -251.217925 
L 250.829396 -251.933891 
L 251.671394 -251.337253 
L 252.513391 -250.97927 
L 253.355388 -250.740615 
L 254.197386 -251.217925 
L 255.039383 -250.97927 
L 255.881381 -251.337253 
L 256.723378 -250.740615 
L 257.565375 -250.740615 
L 258.407373 -251.575908 
L 259.24937 -251.45658 
L 260.091367 -251.45658 
L 260.933365 -250.97927 
L 261.775362 -251.575908 
L 262.61736 -250.621287 
L 263.459357 -251.337253 
L 264.301354 -251.217925 
L 265.143352 -252.291873 
L 265.985349 -252.053218 
L 266.827346 -251.098598 
L 267.669344 -251.45658 
L 268.511341 -252.530529 
L 269.353339 -253.485149 
L 270.195336 -255.991029 
L 271.037333 -259.212873 
L 271.879331 -268.878407 
L 271.879331 -249.666667 
L 271.879331 -249.666667 
L 271.037333 -249.666667 
L 270.195336 -249.666667 
L 269.353339 -249.666667 
L 268.511341 -249.666667 
L 267.669344 -249.666667 
L 266.827346 -249.666667 
L 265.985349 -249.666667 
L 265.143352 -249.666667 
L 264.301354 -249.666667 
L 263.459357 -249.666667 
L 262.61736 -249.666667 
L 261.775362 -249.666667 
L 260.933365 -249.666667 
L 260.091367 -249.666667 
L 259.24937 -249.666667 
L 258.407373 -249.666667 
L 257.565375 -249.666667 
L 256.723378 -249.666667 
L 255.881381 -249.666667 
L 255.039383 -249.666667 
L 254.197386 -249.666667 
L 253.355388 -249.666667 
L 252.513391 -249.666667 
L 251.671394 -249.666667 
L 250.829396 -249.666667 
L 249.987399 -249.666667 
L 249.145402 -249.666667 
L 248.303404 -249.666667 
L 247.461407 -249.666667 
L 246.619409 -249.666667 
L 245.777412 -249.666667 
L 244.935415 -249.666667 
L 244.093417 -249.666667 
L 243.25142 -249.666667 
L 242.409423 -249.666667 
L 241.567425 -249.666667 
L 240.725428 -249.666667 
L 239.88343 -249.666667 
L 239.041433 -249.666667 
L 238.199436 -249.666667 
L 237.357438 -249.666667 
L 236.515441 -249.666667 
L 235.673444 -249.666667 
L 234.831446 -249.666667 
L 233.989449 -249.666667 
L 233.147451 -249.666667 
L 232.305454 -249.666667 
L 231.463457 -249.666667 
L 230.621459 -249.666667 
L 229.779462 -249.666667 
L 228.937465 -249.666667 
L 228.095467 -249.666667 
L 227.25347 -249.666667 
L 226.411472 -249.666667 
L 225.569475 -249.666667 
L 224.727478 -249.666667 
L 223.88548 -249.666667 
L 223.043483 -249.666667 
L 222.201486 -249.666667 
L 221.359488 -249.666667 
L 220.517491 -249.666667 
L 219.675493 -249.666667 
L 218.833496 -249.666667 
L 217.991499 -249.666667 
L 217.149501 -249.666667 
L 216.307504 -249.666667 
L 215.465507 -249.666667 
L 214.623509 -249.666667 
L 213.781512 -249.666667 
L 212.939514 -249.666667 
L 212.097517 -249.666667 
L 211.25552 -249.666667 
L 210.413522 -249.666667 
L 209.571525 -249.666667 
L 208.729528 -249.666667 
L 207.88753 -249.666667 
L 207.045533 -249.666667 
L 206.203535 -249.666667 
L 205.361538 -249.666667 
L 204.519541 -249.666667 
L 203.677543 -249.666667 
L 202.835546 -249.666667 
L 201.993549 -249.666667 
L 201.151551 -249.666667 
L 200.309554 -249.666667 
L 199.467556 -249.666667 
L 198.625559 -249.666667 
L 197.783562 -249.666667 
L 196.941564 -249.666667 
L 196.099567 -249.666667 
L 195.25757 -249.666667 
L 194.415572 -249.666667 
L 193.573575 -249.666667 
L 192.731577 -249.666667 
L 191.88958 -249.666667 
L 191.047583 -249.666667 
L 190.205585 -249.666667 
L 189.363588 -249.666667 
L 188.521591 -249.666667 
L 187.679593 -249.666667 
L 186.837596 -249.666667 
L 185.995598 -249.666667 
L 185.153601 -249.666667 
L 184.311604 -249.666667 
L 183.469606 -249.666667 
L 182.627609 -249.666667 
L 181.785612 -249.666667 
L 180.943614 -249.666667 
L 180.101617 -249.666667 
L 179.259619 -249.666667 
L 178.417622 -249.666667 
L 177.575625 -249.666667 
L 176.733627 -249.666667 
L 175.89163 -249.666667 
L 175.049633 -249.666667 
L 174.207635 -249.666667 
L 173.365638 -249.666667 
L 172.52364 -249.666667 
L 171.681643 -249.666667 
L 170.839646 -249.666667 
L 169.997648 -249.666667 
L 169.155651 -249.666667 
L 168.313654 -249.666667 
L 167.471656 -249.666667 
L 166.629659 -249.666667 
L 165.787661 -249.666667 
L 164.945664 -249.666667 
L 164.103667 -249.666667 
L 163.261669 -249.666667 
L 162.419672 -249.666667 
L 161.577675 -249.666667 
L 160.735677 -249.666667 
L 159.89368 -249.666667 
L 159.051682 -249.666667 
L 158.209685 -249.666667 
L 157.367688 -249.666667 
L 156.52569 -249.666667 
L 155.683693 -249.666667 
L 154.841696 -249.666667 
L 153.999698 -249.666667 
L 153.157701 -249.666667 
L 152.315703 -249.666667 
L 151.473706 -249.666667 
L 150.631709 -249.666667 
L 149.789711 -249.666667 
L 148.947714 -249.666667 
L 148.105717 -249.666667 
L 147.263719 -249.666667 
L 146.421722 -249.666667 
L 145.579724 -249.666667 
L 144.737727 -249.666667 
L 143.89573 -249.666667 
L 143.053732 -249.666667 
L 142.211735 -249.666667 
L 141.369738 -249.666667 
L 140.52774 -249.666667 
L 139.685743 -249.666667 
L 138.843745 -249.666667 
L 138.001748 -249.666667 
L 137.159751 -249.666667 
L 136.317753 -249.666667 
L 135.475756 -249.666667 
L 134.633759 -249.666667 
L 133.791761 -249.666667 
L 132.949764 -249.666667 
L 132.107766 -249.666667 
L 131.265769 -249.666667 
L 130.423772 -249.666667 
L 129.581774 -249.666667 
L 128.739777 -249.666667 
L 127.89778 -249.666667 
L 127.055782 -249.666667 
L 126.213785 -249.666667 
L 125.371787 -249.666667 
L 124.52979 -249.666667 
L 123.687793 -249.666667 
L 122.845795 -249.666667 
L 122.003798 -249.666667 
L 121.161801 -249.666667 
L 120.319803 -249.666667 
L 119.477806 -249.666667 
L 118.635808 -249.666667 
L 117.793811 -249.666667 
L 116.951814 -249.666667 
L 116.109816 -249.666667 
L 115.267819 -249.666667 
L 114.425822 -249.666667 
L 113.583824 -249.666667 
L 112.741827 -249.666667 
L 111.899829 -249.666667 
L 111.057832 -249.666667 
L 110.215835 -249.666667 
L 109.373837 -249.666667 
L 108.53184 -249.666667 
L 107.689843 -249.666667 
L 106.847845 -249.666667 
L 106.005848 -249.666667 
L 105.16385 -249.666667 
L 104.321853 -249.666667 
L 103.479856 -249.666667 
L 102.637858 -249.666667 
L 101.795861 -249.666667 
L 100.953864 -249.666667 
L 100.111866 -249.666667 
L 99.269869 -249.666667 
L 98.427871 -249.666667 
L 97.585874 -249.666667 
L 96.743877 -249.666667 
L 95.901879 -249.666667 
L 95.059882 -249.666667 
L 94.217885 -249.666667 
L 93.375887 -249.666667 
L 92.53389 -249.666667 
L 91.691892 -249.666667 
L 90.849895 -249.666667 
L 90.007898 -249.666667 
L 89.1659 -249.666667 
L 88.323903 -249.666667 
L 87.481906 -249.666667 
L 86.639908 -249.666667 
L 85.797911 -249.666667 
L 84.955913 -249.666667 
L 84.113916 -249.666667 
L 83.271919 -249.666667 
L 82.429921 -249.666667 
L 81.587924 -249.666667 
L 80.745927 -249.666667 
L 79.903929 -249.666667 
L 79.061932 -249.666667 
L 78.219934 -249.666667 
L 77.377937 -249.666667 
L 76.53594 -249.666667 
L 75.693942 -249.666667 
L 74.851945 -249.666667 
L 74.009948 -249.666667 
L 73.16795 -249.666667 
L 72.325953 -249.666667 
L 71.483955 -249.666667 
L 70.641958 -249.666667 
L 69.799961 -249.666667 
L 68.957963 -249.666667 
L 68.115966 -249.666667 
L 67.273969 -249.666667 
L 66.431971 -249.666667 
L 65.589974 -249.666667 
L 64.747976 -249.666667 
L 63.905979 -249.666667 
L 63.063982 -249.666667 
L 62.221984 -249.666667 
L 61.379987 -249.666667 
L 60.53799 -249.666667 
L 59.695992 -249.666667 
L 58.853995 -249.666667 
L 58.011997 -249.666667 
L 57.17 -249.666667 
z
" style="stroke: #008000; stroke-opacity: 0.4"/>
    </defs>
    <g clip-path="url(#p77268e66cc)">
     <use xlink:href="#m62e08cf676" x="0" y="648" style="fill: #008000; fill-opacity: 0.4; stroke: #008000; stroke-opacity: 0.4"/>
    </g>
   </g>
   <g id="matplotlib.axis_3">
    <g id="xtick_7">
     <g id="line2d_16">
      <g>
       <use xlink:href="#mc63adf865b" x="57.17" y="398.333333" style="stroke: #000000; stroke-width: 0.8"/>
      </g>
     </g>
     <g id="text_17">
      <!-- 0 -->
      <g transform="translate(53.98875 412.931771) scale(0.1 -0.1)">
       <use xlink:href="#DejaVuSans-30"/>
      </g>
     </g>
    </g>
    <g id="xtick_8">
     <g id="line2d_17">
      <g>
       <use xlink:href="#mc63adf865b" x="99.269869" y="398.333333" style="stroke: #000000; stroke-width: 0.8"/>
      </g>
     </g>
     <g id="text_18">
      <!-- 50 -->
      <g transform="translate(92.907369 412.931771) scale(0.1 -0.1)">
       <use xlink:href="#DejaVuSans-35"/>
       <use xlink:href="#DejaVuSans-30" x="63.623047"/>
      </g>
     </g>
    </g>
    <g id="xtick_9">
     <g id="line2d_18">
      <g>
       <use xlink:href="#mc63adf865b" x="141.369738" y="398.333333" style="stroke: #000000; stroke-width: 0.8"/>
      </g>
     </g>
     <g id="text_19">
      <!-- 100 -->
      <g transform="translate(131.825988 412.931771) scale(0.1 -0.1)">
       <use xlink:href="#DejaVuSans-31"/>
       <use xlink:href="#DejaVuSans-30" x="63.623047"/>
       <use xlink:href="#DejaVuSans-30" x="127.246094"/>
      </g>
     </g>
    </g>
    <g id="xtick_10">
     <g id="line2d_19">
      <g>
       <use xlink:href="#mc63adf865b" x="183.469606" y="398.333333" style="stroke: #000000; stroke-width: 0.8"/>
      </g>
     </g>
     <g id="text_20">
      <!-- 150 -->
      <g transform="translate(173.925856 412.931771) scale(0.1 -0.1)">
       <use xlink:href="#DejaVuSans-31"/>
       <use xlink:href="#DejaVuSans-35" x="63.623047"/>
       <use xlink:href="#DejaVuSans-30" x="127.246094"/>
      </g>
     </g>
    </g>
    <g id="xtick_11">
     <g id="line2d_20">
      <g>
       <use xlink:href="#mc63adf865b" x="225.569475" y="398.333333" style="stroke: #000000; stroke-width: 0.8"/>
      </g>
     </g>
     <g id="text_21">
      <!-- 200 -->
      <g transform="translate(216.025725 412.931771) scale(0.1 -0.1)">
       <use xlink:href="#DejaVuSans-32"/>
       <use xlink:href="#DejaVuSans-30" x="63.623047"/>
       <use xlink:href="#DejaVuSans-30" x="127.246094"/>
      </g>
     </g>
    </g>
    <g id="xtick_12">
     <g id="line2d_21">
      <g>
       <use xlink:href="#mc63adf865b" x="267.669344" y="398.333333" style="stroke: #000000; stroke-width: 0.8"/>
      </g>
     </g>
     <g id="text_22">
      <!-- 250 -->
      <g transform="translate(258.125594 412.931771) scale(0.1 -0.1)">
       <use xlink:href="#DejaVuSans-32"/>
       <use xlink:href="#DejaVuSans-35" x="63.623047"/>
       <use xlink:href="#DejaVuSans-30" x="127.246094"/>
      </g>
     </g>
    </g>
   </g>
   <g id="matplotlib.axis_4">
    <g id="ytick_9">
     <g id="line2d_22">
      <g>
       <use xlink:href="#mc4f737ae66" x="57.17" y="398.333333" style="stroke: #000000; stroke-width: 0.8"/>
      </g>
     </g>
     <g id="text_23">
      <!-- 0 -->
      <g transform="translate(43.8075 402.132552) scale(0.1 -0.1)">
       <use xlink:href="#DejaVuSans-30"/>
      </g>
     </g>
    </g>
    <g id="ytick_10">
     <g id="line2d_23">
      <g>
       <use xlink:href="#mc4f737ae66" x="57.17" y="374.467817" style="stroke: #000000; stroke-width: 0.8"/>
      </g>
     </g>
     <g id="text_24">
      <!-- 200 -->
      <g transform="translate(31.0825 378.267036) scale(0.1 -0.1)">
       <use xlink:href="#DejaVuSans-32"/>
       <use xlink:href="#DejaVuSans-30" x="63.623047"/>
       <use xlink:href="#DejaVuSans-30" x="127.246094"/>
      </g>
     </g>
    </g>
    <g id="ytick_11">
     <g id="line2d_24">
      <g>
       <use xlink:href="#mc4f737ae66" x="57.17" y="350.6023" style="stroke: #000000; stroke-width: 0.8"/>
      </g>
     </g>
     <g id="text_25">
      <!-- 400 -->
      <g transform="translate(31.0825 354.401519) scale(0.1 -0.1)">
       <use xlink:href="#DejaVuSans-34"/>
       <use xlink:href="#DejaVuSans-30" x="63.623047"/>
       <use xlink:href="#DejaVuSans-30" x="127.246094"/>
      </g>
     </g>
    </g>
    <g id="ytick_12">
     <g id="line2d_25">
      <g>
       <use xlink:href="#mc4f737ae66" x="57.17" y="326.736784" style="stroke: #000000; stroke-width: 0.8"/>
      </g>
     </g>
     <g id="text_26">
      <!-- 600 -->
      <g transform="translate(31.0825 330.536003) scale(0.1 -0.1)">
       <use xlink:href="#DejaVuSans-36"/>
       <use xlink:href="#DejaVuSans-30" x="63.623047"/>
       <use xlink:href="#DejaVuSans-30" x="127.246094"/>
      </g>
     </g>
    </g>
    <g id="ytick_13">
     <g id="line2d_26">
      <g>
       <use xlink:href="#mc4f737ae66" x="57.17" y="302.871267" style="stroke: #000000; stroke-width: 0.8"/>
      </g>
     </g>
     <g id="text_27">
      <!-- 800 -->
      <g transform="translate(31.0825 306.670486) scale(0.1 -0.1)">
       <use xlink:href="#DejaVuSans-38"/>
       <use xlink:href="#DejaVuSans-30" x="63.623047"/>
       <use xlink:href="#DejaVuSans-30" x="127.246094"/>
      </g>
     </g>
    </g>
    <g id="ytick_14">
     <g id="line2d_27">
      <g>
       <use xlink:href="#mc4f737ae66" x="57.17" y="279.005751" style="stroke: #000000; stroke-width: 0.8"/>
      </g>
     </g>
     <g id="text_28">
      <!-- 1000 -->
      <g transform="translate(24.72 282.80497) scale(0.1 -0.1)">
       <use xlink:href="#DejaVuSans-31"/>
       <use xlink:href="#DejaVuSans-30" x="63.623047"/>
       <use xlink:href="#DejaVuSans-30" x="127.246094"/>
       <use xlink:href="#DejaVuSans-30" x="190.869141"/>
      </g>
     </g>
    </g>
    <g id="ytick_15">
     <g id="line2d_28">
      <g>
       <use xlink:href="#mc4f737ae66" x="57.17" y="255.140234" style="stroke: #000000; stroke-width: 0.8"/>
      </g>
     </g>
     <g id="text_29">
      <!-- 1200 -->
      <g transform="translate(24.72 258.939453) scale(0.1 -0.1)">
       <use xlink:href="#DejaVuSans-31"/>
       <use xlink:href="#DejaVuSans-32" x="63.623047"/>
       <use xlink:href="#DejaVuSans-30" x="127.246094"/>
       <use xlink:href="#DejaVuSans-30" x="190.869141"/>
      </g>
     </g>
    </g>
    <g id="ytick_16">
     <g id="line2d_29">
      <g>
       <use xlink:href="#mc4f737ae66" x="57.17" y="231.274718" style="stroke: #000000; stroke-width: 0.8"/>
      </g>
     </g>
     <g id="text_30">
      <!-- 1400 -->
      <g transform="translate(24.72 235.073937) scale(0.1 -0.1)">
       <use xlink:href="#DejaVuSans-31"/>
       <use xlink:href="#DejaVuSans-34" x="63.623047"/>
       <use xlink:href="#DejaVuSans-30" x="127.246094"/>
       <use xlink:href="#DejaVuSans-30" x="190.869141"/>
      </g>
     </g>
    </g>
    <g id="text_31">
     <!-- Pixel Frequency -->
     <g transform="translate(18.640313 347.398906) rotate(-90) scale(0.1 -0.1)">
      <use xlink:href="#DejaVuSans-50"/>
      <use xlink:href="#DejaVuSans-69" x="58.052734"/>
      <use xlink:href="#DejaVuSans-78" x="85.835938"/>
      <use xlink:href="#DejaVuSans-65" x="141.890625"/>
      <use xlink:href="#DejaVuSans-6c" x="203.414062"/>
      <use xlink:href="#DejaVuSans-20" x="231.197266"/>
      <use xlink:href="#DejaVuSans-46" x="262.984375"/>
      <use xlink:href="#DejaVuSans-72" x="313.253906"/>
      <use xlink:href="#DejaVuSans-65" x="352.117188"/>
      <use xlink:href="#DejaVuSans-71" x="413.640625"/>
      <use xlink:href="#DejaVuSans-75" x="477.117188"/>
      <use xlink:href="#DejaVuSans-65" x="540.496094"/>
      <use xlink:href="#DejaVuSans-6e" x="602.019531"/>
      <use xlink:href="#DejaVuSans-63" x="665.398438"/>
      <use xlink:href="#DejaVuSans-79" x="720.378906"/>
     </g>
    </g>
   </g>
   <g id="line2d_30">
    <path d="M 57.17 398.333333 
L 81.587924 398.333333 
L 82.429921 397.140058 
L 83.271919 381.985455 
L 84.113916 318.503181 
L 84.955913 309.434284 
L 85.797911 336.640973 
L 86.639908 333.777111 
L 87.481906 331.629215 
L 88.323903 343.442645 
L 89.1659 341.414077 
L 90.007898 352.750197 
L 90.849895 365.995559 
L 91.691892 365.995559 
L 92.53389 371.245972 
L 93.375887 374.109834 
L 94.217885 372.200593 
L 95.059882 370.887989 
L 95.901879 375.064455 
L 96.743877 378.286299 
L 97.585874 378.405627 
L 98.427871 384.014023 
L 99.269869 380.911506 
L 100.111866 376.973696 
L 100.953864 376.615713 
L 101.795861 381.030834 
L 102.637858 376.019075 
L 103.479856 376.257731 
L 105.16385 381.030834 
L 106.005848 378.882937 
L 106.847845 377.093024 
L 108.53184 376.257731 
L 109.373837 371.603955 
L 110.215835 371.723282 
L 111.057832 366.353541 
L 111.899829 356.807335 
L 112.741827 350.840956 
L 113.583824 355.614059 
L 114.425822 358.119938 
L 115.267819 360.9838 
L 116.951814 359.671197 
L 117.793811 356.688007 
L 118.635808 351.318266 
L 119.477806 344.993904 
L 120.319803 345.232559 
L 121.161801 338.669542 
L 122.003798 340.220801 
L 122.845795 335.925008 
L 123.687793 329.242663 
L 124.52979 320.889732 
L 125.371787 325.543508 
L 126.213785 318.503181 
L 127.055782 313.61075 
L 127.89778 302.75194 
L 128.739777 296.666233 
L 129.581774 301.200681 
L 130.423772 292.251113 
L 131.265769 305.854457 
L 132.107766 299.172112 
L 132.949764 296.30825 
L 133.791761 290.341871 
L 134.633759 294.279681 
L 135.475756 304.541854 
L 136.317753 294.041026 
L 137.159751 295.592285 
L 138.001748 303.348578 
L 138.843745 308.241009 
L 139.685743 320.889732 
L 140.52774 316.235957 
L 141.369738 315.877974 
L 142.211735 313.252767 
L 143.053732 322.560319 
L 143.89573 325.901491 
L 144.737727 331.509887 
L 145.579724 333.538456 
L 146.421722 333.180473 
L 147.263719 342.846008 
L 148.105717 342.846008 
L 148.947714 348.454404 
L 149.789711 346.783818 
L 150.631709 348.931714 
L 151.473706 349.409025 
L 152.315703 354.778766 
L 153.157701 355.136749 
L 153.999698 353.346835 
L 155.683693 352.630869 
L 156.52569 362.535059 
L 157.367688 362.773714 
L 158.209685 363.96699 
L 159.051682 364.92161 
L 159.89368 366.830852 
L 160.735677 365.756903 
L 161.577675 371.126645 
L 162.419672 371.484627 
L 163.261669 372.558576 
L 164.103667 375.183782 
L 164.945664 377.093024 
L 165.787661 376.496386 
L 166.629659 376.257731 
L 167.471656 376.496386 
L 168.313654 376.615713 
L 169.155651 380.911506 
L 169.997648 382.22411 
L 170.839646 381.388817 
L 171.681643 378.524955 
L 173.365638 380.911506 
L 174.207635 383.417386 
L 175.049633 385.565282 
L 175.89163 384.133351 
L 176.733627 383.894696 
L 177.575625 385.68461 
L 178.417622 383.17873 
L 179.259619 388.667799 
L 180.101617 385.326627 
L 180.943614 386.16192 
L 181.785612 386.519903 
L 182.627609 387.116541 
L 183.469606 389.741747 
L 184.311604 386.758558 
L 185.153601 388.787127 
L 185.995598 389.025782 
L 186.837596 388.787127 
L 187.679593 387.355196 
L 188.521591 389.145109 
L 189.363588 388.787127 
L 190.205585 387.832506 
L 191.047583 389.383765 
L 191.88958 389.264437 
L 192.731577 387.474523 
L 193.573575 389.383765 
L 194.415572 389.62242 
L 195.25757 387.951834 
L 196.099567 388.190489 
L 196.941564 391.173678 
L 197.783562 389.025782 
L 198.625559 387.713179 
L 199.467556 390.219058 
L 200.309554 389.383765 
L 201.993549 389.383765 
L 202.835546 389.62242 
L 203.677543 391.412334 
L 204.519541 390.935023 
L 205.361538 390.696368 
L 206.203535 388.787127 
L 207.045533 390.457713 
L 207.88753 390.219058 
L 208.729528 390.09973 
L 209.571525 390.815696 
L 210.413522 391.173678 
L 211.25552 390.219058 
L 212.097517 388.906454 
L 212.939514 389.980403 
L 213.781512 391.412334 
L 214.623509 389.741747 
L 215.465507 391.173678 
L 216.307504 391.054351 
L 217.149501 391.173678 
L 217.991499 391.173678 
L 218.833496 392.128299 
L 219.675493 392.366954 
L 220.517491 391.889644 
L 222.201486 392.963592 
L 223.043483 394.753506 
L 223.88548 393.798885 
L 224.727478 393.440902 
L 225.569475 394.156868 
L 226.411472 393.798885 
L 227.25347 394.634178 
L 228.095467 394.395523 
L 228.937465 394.03754 
L 229.779462 394.872833 
L 230.621459 394.992161 
L 231.463457 393.440902 
L 232.305454 394.634178 
L 233.147451 394.872833 
L 233.989449 395.588799 
L 234.831446 395.827454 
L 235.673444 395.230816 
L 236.515441 395.111489 
L 237.357438 395.469471 
L 238.199436 396.54342 
L 239.041433 395.708127 
L 239.88343 396.066109 
L 240.725428 395.469471 
L 241.567425 395.469471 
L 242.409423 396.54342 
L 243.25142 397.259385 
L 244.093417 396.54342 
L 244.935415 397.02073 
L 245.777412 396.662747 
L 246.619409 396.662747 
L 247.461407 395.946782 
L 248.303404 396.54342 
L 249.145402 396.782075 
L 249.987399 396.782075 
L 250.829396 396.066109 
L 251.671394 396.662747 
L 253.355388 397.259385 
L 254.197386 396.782075 
L 255.039383 397.02073 
L 255.881381 396.662747 
L 256.723378 397.259385 
L 257.565375 397.259385 
L 258.407373 396.424092 
L 259.24937 396.54342 
L 260.091367 396.54342 
L 260.933365 397.02073 
L 261.775362 396.424092 
L 262.61736 397.378713 
L 263.459357 396.662747 
L 264.301354 396.782075 
L 265.143352 395.708127 
L 265.985349 395.946782 
L 266.827346 396.901402 
L 267.669344 396.54342 
L 269.353339 394.514851 
L 270.195336 392.008971 
L 271.037333 388.787127 
L 271.879331 379.121593 
L 271.879331 379.121593 
" clip-path="url(#p77268e66cc)" style="fill: none; stroke: #008000; stroke-width: 1.5; stroke-linecap: square"/>
   </g>
   <g id="patch_8">
    <path d="M 57.17 398.333333 
L 57.17 218.506667 
" style="fill: none; stroke: #000000; stroke-width: 0.8; stroke-linejoin: miter; stroke-linecap: square"/>
   </g>
   <g id="patch_9">
    <path d="M 272.721328 398.333333 
L 272.721328 218.506667 
" style="fill: none; stroke: #000000; stroke-width: 0.8; stroke-linejoin: miter; stroke-linecap: square"/>
   </g>
   <g id="patch_10">
    <path d="M 57.17 398.333333 
L 272.721328 398.333333 
" style="fill: none; stroke: #000000; stroke-width: 0.8; stroke-linejoin: miter; stroke-linecap: square"/>
   </g>
   <g id="patch_11">
    <path d="M 57.17 218.506667 
L 272.721328 218.506667 
" style="fill: none; stroke: #000000; stroke-width: 0.8; stroke-linejoin: miter; stroke-linecap: square"/>
   </g>
   <g id="text_32">
    <!-- Green Channel  -->
    <g transform="translate(179.494453 232.506667) scale(0.12 -0.12)">
     <defs>
      <path id="DejaVuSans-47" d="M 3809 666 
L 3809 1919 
L 2778 1919 
L 2778 2438 
L 4434 2438 
L 4434 434 
Q 4069 175 3628 42 
Q 3188 -91 2688 -91 
Q 1594 -91 976 548 
Q 359 1188 359 2328 
Q 359 3472 976 4111 
Q 1594 4750 2688 4750 
Q 3144 4750 3555 4637 
Q 3966 4525 4313 4306 
L 4313 3634 
Q 3963 3931 3569 4081 
Q 3175 4231 2741 4231 
Q 1884 4231 1454 3753 
Q 1025 3275 1025 2328 
Q 1025 1384 1454 906 
Q 1884 428 2741 428 
Q 3075 428 3337 486 
Q 3600 544 3809 666 
z
" transform="scale(0.015625)"/>
     </defs>
     <use xlink:href="#DejaVuSans-47"/>
     <use xlink:href="#DejaVuSans-72" x="77.490234"/>
     <use xlink:href="#DejaVuSans-65" x="116.353516"/>
     <use xlink:href="#DejaVuSans-65" x="177.876953"/>
     <use xlink:href="#DejaVuSans-6e" x="239.400391"/>
     <use xlink:href="#DejaVuSans-20" x="302.779297"/>
     <use xlink:href="#DejaVuSans-43" x="334.566406"/>
     <use xlink:href="#DejaVuSans-68" x="404.390625"/>
     <use xlink:href="#DejaVuSans-61" x="467.769531"/>
     <use xlink:href="#DejaVuSans-6e" x="529.048828"/>
     <use xlink:href="#DejaVuSans-6e" x="592.427734"/>
     <use xlink:href="#DejaVuSans-65" x="655.806641"/>
     <use xlink:href="#DejaVuSans-6c" x="717.330078"/>
     <use xlink:href="#DejaVuSans-20" x="745.113281"/>
    </g>
   </g>
  </g>
  <g id="axes_3">
   <g id="patch_12">
    <path d="M 57.17 606.04 
L 272.721328 606.04 
L 272.721328 426.213333 
L 57.17 426.213333 
z
" style="fill: #ffffff"/>
   </g>
   <g id="PolyCollection_3">
    <defs>
     <path id="mcf01f04378" d="M 57.17 -41.96 
L 57.17 -41.96 
L 58.011997 -41.96 
L 58.853995 -41.96 
L 59.695992 -41.96 
L 60.53799 -41.96 
L 61.379987 -41.96 
L 62.221984 -41.96 
L 63.063982 -41.96 
L 63.905979 -41.96 
L 64.747976 -41.96 
L 65.589974 -41.96 
L 66.431971 -41.96 
L 67.273969 -41.96 
L 68.115966 -41.96 
L 68.957963 -41.96 
L 69.799961 -41.96 
L 70.641958 -41.96 
L 71.483955 -41.96 
L 72.325953 -41.96 
L 73.16795 -42.43731 
L 74.009948 -71.791896 
L 74.851945 -175.606892 
L 75.693942 -201.023667 
L 76.53594 -147.445583 
L 77.377937 -123.102756 
L 78.219934 -103.413705 
L 79.061932 -103.17505 
L 79.903929 -99.595222 
L 80.745927 -77.99693 
L 81.587924 -71.433913 
L 82.429921 -78.116257 
L 83.271919 -73.223827 
L 84.113916 -73.820464 
L 84.955913 -78.354913 
L 85.797911 -80.502809 
L 86.639908 -84.559947 
L 87.481906 -85.753223 
L 88.323903 -90.287671 
L 89.1659 -96.850688 
L 90.007898 -111.885963 
L 90.849895 -130.023756 
L 91.691892 -119.880911 
L 92.53389 -108.783446 
L 93.375887 -115.227136 
L 94.217885 -128.949808 
L 95.059882 -140.643911 
L 95.901879 -149.474152 
L 96.743877 -172.74303 
L 97.585874 -190.880823 
L 98.427871 -202.336271 
L 99.269869 -219.042132 
L 100.111866 -221.786667 
L 100.953864 -219.519443 
L 101.795861 -220.116081 
L 102.637858 -209.376598 
L 103.479856 -217.610201 
L 104.321853 -198.875771 
L 105.16385 -182.408564 
L 106.005848 -179.18672 
L 106.847845 -174.294289 
L 107.689843 -169.163203 
L 108.53184 -154.48591 
L 109.373837 -144.701048 
L 110.215835 -138.138031 
L 111.057832 -125.011997 
L 111.899829 -128.711152 
L 112.741827 -125.250653 
L 113.583824 -115.704446 
L 114.425822 -115.107808 
L 115.267819 -107.59017 
L 116.109816 -103.17505 
L 116.951814 -101.623791 
L 117.793811 -91.958257 
L 118.635808 -86.946499 
L 119.477806 -82.531378 
L 120.319803 -81.93474 
L 121.161801 -82.292723 
L 122.003798 -75.252395 
L 122.845795 -75.133068 
L 123.687793 -75.968361 
L 124.52979 -71.911223 
L 125.371787 -68.570051 
L 126.213785 -64.870896 
L 127.055782 -63.20031 
L 127.89778 -65.944844 
L 128.739777 -65.586861 
L 129.581774 -61.649051 
L 130.423772 -62.842327 
L 131.265769 -62.126361 
L 132.107766 -58.069224 
L 132.949764 -59.859137 
L 133.791761 -61.410396 
L 134.633759 -58.904517 
L 135.475756 -58.904517 
L 136.317753 -56.995275 
L 137.159751 -58.307879 
L 138.001748 -59.620482 
L 138.843745 -59.978465 
L 139.685743 -57.830568 
L 140.52774 -59.381827 
L 141.369738 -56.75662 
L 142.211735 -55.205362 
L 143.053732 -54.250741 
L 143.89573 -57.711241 
L 144.737727 -56.27931 
L 145.579724 -58.188551 
L 146.421722 -53.654103 
L 147.263719 -53.534775 
L 148.105717 -54.370069 
L 148.947714 -55.086034 
L 149.789711 -56.398637 
L 150.631709 -55.086034 
L 151.473706 -55.682672 
L 152.315703 -51.148224 
L 153.157701 -50.312931 
L 153.999698 -52.102845 
L 154.841696 -50.193603 
L 155.683693 -49.119655 
L 156.52569 -50.670914 
L 157.367688 -48.284362 
L 158.209685 -48.284362 
L 159.051682 -47.926379 
L 159.89368 -47.449069 
L 160.735677 -48.642345 
L 161.577675 -47.449069 
L 162.419672 -47.329741 
L 163.261669 -45.89781 
L 164.103667 -48.761672 
L 164.945664 -46.017138 
L 165.787661 -46.375121 
L 166.629659 -46.494448 
L 167.471656 -45.301172 
L 168.313654 -43.630586 
L 169.155651 -45.659155 
L 169.997648 -45.062517 
L 170.839646 -44.465879 
L 171.681643 -45.062517 
L 172.52364 -44.107896 
L 173.365638 -44.346552 
L 174.207635 -44.107896 
L 175.049633 -43.988569 
L 175.89163 -44.346552 
L 176.733627 -43.511259 
L 177.575625 -44.107896 
L 178.417622 -43.749914 
L 179.259619 -43.869241 
L 180.101617 -45.062517 
L 180.943614 -43.630586 
L 181.785612 -43.153276 
L 182.627609 -44.227224 
L 183.469606 -44.823862 
L 184.311604 -44.107896 
L 185.153601 -44.346552 
L 185.995598 -43.272603 
L 186.837596 -43.153276 
L 187.679593 -43.749914 
L 188.521591 -43.749914 
L 189.363588 -43.153276 
L 190.205585 -43.511259 
L 191.047583 -43.272603 
L 191.88958 -43.033948 
L 192.731577 -43.630586 
L 193.573575 -43.511259 
L 194.415572 -43.511259 
L 195.25757 -43.033948 
L 196.099567 -43.033948 
L 196.941564 -43.511259 
L 197.783562 -42.43731 
L 198.625559 -43.391931 
L 199.467556 -42.556638 
L 200.309554 -42.675965 
L 201.151551 -43.153276 
L 201.993549 -43.272603 
L 202.835546 -42.914621 
L 203.677543 -42.317983 
L 204.519541 -43.153276 
L 205.361538 -42.914621 
L 206.203535 -42.675965 
L 207.045533 -43.272603 
L 207.88753 -43.511259 
L 208.729528 -43.272603 
L 209.571525 -42.914621 
L 210.413522 -42.556638 
L 211.25552 -43.033948 
L 212.097517 -42.43731 
L 212.939514 -42.556638 
L 213.781512 -42.556638 
L 214.623509 -42.675965 
L 215.465507 -42.317983 
L 216.307504 -42.43731 
L 217.149501 -42.079328 
L 217.991499 -42.43731 
L 218.833496 -42.556638 
L 219.675493 -42.198655 
L 220.517491 -42.43731 
L 221.359488 -42.43731 
L 222.201486 -42.079328 
L 223.043483 -42.43731 
L 223.88548 -42.079328 
L 224.727478 -42.198655 
L 225.569475 -42.43731 
L 226.411472 -42.317983 
L 227.25347 -42.198655 
L 228.095467 -42.317983 
L 228.937465 -42.079328 
L 229.779462 -42.198655 
L 230.621459 -42.198655 
L 231.463457 -42.317983 
L 232.305454 -42.079328 
L 233.147451 -42.079328 
L 233.989449 -42.079328 
L 234.831446 -42.079328 
L 235.673444 -42.079328 
L 236.515441 -42.079328 
L 237.357438 -42.317983 
L 238.199436 -42.198655 
L 239.041433 -42.198655 
L 239.88343 -42.198655 
L 240.725428 -42.079328 
L 241.567425 -42.317983 
L 242.409423 -41.96 
L 243.25142 -41.96 
L 244.093417 -42.317983 
L 244.935415 -42.198655 
L 245.777412 -41.96 
L 246.619409 -41.96 
L 247.461407 -42.079328 
L 248.303404 -42.198655 
L 249.145402 -41.96 
L 249.987399 -42.198655 
L 250.829396 -41.96 
L 251.671394 -42.198655 
L 252.513391 -41.96 
L 253.355388 -41.96 
L 254.197386 -42.079328 
L 255.039383 -41.96 
L 255.881381 -42.079328 
L 256.723378 -42.198655 
L 257.565375 -42.079328 
L 258.407373 -42.317983 
L 259.24937 -41.96 
L 260.091367 -41.96 
L 260.933365 -42.079328 
L 261.775362 -42.317983 
L 262.61736 -42.198655 
L 263.459357 -42.43731 
L 264.301354 -41.96 
L 265.143352 -42.079328 
L 265.985349 -42.079328 
L 266.827346 -42.079328 
L 267.669344 -42.079328 
L 268.511341 -42.198655 
L 269.353339 -42.079328 
L 270.195336 -42.079328 
L 271.037333 -42.317983 
L 271.879331 -41.96 
L 271.879331 -41.96 
L 271.879331 -41.96 
L 271.037333 -41.96 
L 270.195336 -41.96 
L 269.353339 -41.96 
L 268.511341 -41.96 
L 267.669344 -41.96 
L 266.827346 -41.96 
L 265.985349 -41.96 
L 265.143352 -41.96 
L 264.301354 -41.96 
L 263.459357 -41.96 
L 262.61736 -41.96 
L 261.775362 -41.96 
L 260.933365 -41.96 
L 260.091367 -41.96 
L 259.24937 -41.96 
L 258.407373 -41.96 
L 257.565375 -41.96 
L 256.723378 -41.96 
L 255.881381 -41.96 
L 255.039383 -41.96 
L 254.197386 -41.96 
L 253.355388 -41.96 
L 252.513391 -41.96 
L 251.671394 -41.96 
L 250.829396 -41.96 
L 249.987399 -41.96 
L 249.145402 -41.96 
L 248.303404 -41.96 
L 247.461407 -41.96 
L 246.619409 -41.96 
L 245.777412 -41.96 
L 244.935415 -41.96 
L 244.093417 -41.96 
L 243.25142 -41.96 
L 242.409423 -41.96 
L 241.567425 -41.96 
L 240.725428 -41.96 
L 239.88343 -41.96 
L 239.041433 -41.96 
L 238.199436 -41.96 
L 237.357438 -41.96 
L 236.515441 -41.96 
L 235.673444 -41.96 
L 234.831446 -41.96 
L 233.989449 -41.96 
L 233.147451 -41.96 
L 232.305454 -41.96 
L 231.463457 -41.96 
L 230.621459 -41.96 
L 229.779462 -41.96 
L 228.937465 -41.96 
L 228.095467 -41.96 
L 227.25347 -41.96 
L 226.411472 -41.96 
L 225.569475 -41.96 
L 224.727478 -41.96 
L 223.88548 -41.96 
L 223.043483 -41.96 
L 222.201486 -41.96 
L 221.359488 -41.96 
L 220.517491 -41.96 
L 219.675493 -41.96 
L 218.833496 -41.96 
L 217.991499 -41.96 
L 217.149501 -41.96 
L 216.307504 -41.96 
L 215.465507 -41.96 
L 214.623509 -41.96 
L 213.781512 -41.96 
L 212.939514 -41.96 
L 212.097517 -41.96 
L 211.25552 -41.96 
L 210.413522 -41.96 
L 209.571525 -41.96 
L 208.729528 -41.96 
L 207.88753 -41.96 
L 207.045533 -41.96 
L 206.203535 -41.96 
L 205.361538 -41.96 
L 204.519541 -41.96 
L 203.677543 -41.96 
L 202.835546 -41.96 
L 201.993549 -41.96 
L 201.151551 -41.96 
L 200.309554 -41.96 
L 199.467556 -41.96 
L 198.625559 -41.96 
L 197.783562 -41.96 
L 196.941564 -41.96 
L 196.099567 -41.96 
L 195.25757 -41.96 
L 194.415572 -41.96 
L 193.573575 -41.96 
L 192.731577 -41.96 
L 191.88958 -41.96 
L 191.047583 -41.96 
L 190.205585 -41.96 
L 189.363588 -41.96 
L 188.521591 -41.96 
L 187.679593 -41.96 
L 186.837596 -41.96 
L 185.995598 -41.96 
L 185.153601 -41.96 
L 184.311604 -41.96 
L 183.469606 -41.96 
L 182.627609 -41.96 
L 181.785612 -41.96 
L 180.943614 -41.96 
L 180.101617 -41.96 
L 179.259619 -41.96 
L 178.417622 -41.96 
L 177.575625 -41.96 
L 176.733627 -41.96 
L 175.89163 -41.96 
L 175.049633 -41.96 
L 174.207635 -41.96 
L 173.365638 -41.96 
L 172.52364 -41.96 
L 171.681643 -41.96 
L 170.839646 -41.96 
L 169.997648 -41.96 
L 169.155651 -41.96 
L 168.313654 -41.96 
L 167.471656 -41.96 
L 166.629659 -41.96 
L 165.787661 -41.96 
L 164.945664 -41.96 
L 164.103667 -41.96 
L 163.261669 -41.96 
L 162.419672 -41.96 
L 161.577675 -41.96 
L 160.735677 -41.96 
L 159.89368 -41.96 
L 159.051682 -41.96 
L 158.209685 -41.96 
L 157.367688 -41.96 
L 156.52569 -41.96 
L 155.683693 -41.96 
L 154.841696 -41.96 
L 153.999698 -41.96 
L 153.157701 -41.96 
L 152.315703 -41.96 
L 151.473706 -41.96 
L 150.631709 -41.96 
L 149.789711 -41.96 
L 148.947714 -41.96 
L 148.105717 -41.96 
L 147.263719 -41.96 
L 146.421722 -41.96 
L 145.579724 -41.96 
L 144.737727 -41.96 
L 143.89573 -41.96 
L 143.053732 -41.96 
L 142.211735 -41.96 
L 141.369738 -41.96 
L 140.52774 -41.96 
L 139.685743 -41.96 
L 138.843745 -41.96 
L 138.001748 -41.96 
L 137.159751 -41.96 
L 136.317753 -41.96 
L 135.475756 -41.96 
L 134.633759 -41.96 
L 133.791761 -41.96 
L 132.949764 -41.96 
L 132.107766 -41.96 
L 131.265769 -41.96 
L 130.423772 -41.96 
L 129.581774 -41.96 
L 128.739777 -41.96 
L 127.89778 -41.96 
L 127.055782 -41.96 
L 126.213785 -41.96 
L 125.371787 -41.96 
L 124.52979 -41.96 
L 123.687793 -41.96 
L 122.845795 -41.96 
L 122.003798 -41.96 
L 121.161801 -41.96 
L 120.319803 -41.96 
L 119.477806 -41.96 
L 118.635808 -41.96 
L 117.793811 -41.96 
L 116.951814 -41.96 
L 116.109816 -41.96 
L 115.267819 -41.96 
L 114.425822 -41.96 
L 113.583824 -41.96 
L 112.741827 -41.96 
L 111.899829 -41.96 
L 111.057832 -41.96 
L 110.215835 -41.96 
L 109.373837 -41.96 
L 108.53184 -41.96 
L 107.689843 -41.96 
L 106.847845 -41.96 
L 106.005848 -41.96 
L 105.16385 -41.96 
L 104.321853 -41.96 
L 103.479856 -41.96 
L 102.637858 -41.96 
L 101.795861 -41.96 
L 100.953864 -41.96 
L 100.111866 -41.96 
L 99.269869 -41.96 
L 98.427871 -41.96 
L 97.585874 -41.96 
L 96.743877 -41.96 
L 95.901879 -41.96 
L 95.059882 -41.96 
L 94.217885 -41.96 
L 93.375887 -41.96 
L 92.53389 -41.96 
L 91.691892 -41.96 
L 90.849895 -41.96 
L 90.007898 -41.96 
L 89.1659 -41.96 
L 88.323903 -41.96 
L 87.481906 -41.96 
L 86.639908 -41.96 
L 85.797911 -41.96 
L 84.955913 -41.96 
L 84.113916 -41.96 
L 83.271919 -41.96 
L 82.429921 -41.96 
L 81.587924 -41.96 
L 80.745927 -41.96 
L 79.903929 -41.96 
L 79.061932 -41.96 
L 78.219934 -41.96 
L 77.377937 -41.96 
L 76.53594 -41.96 
L 75.693942 -41.96 
L 74.851945 -41.96 
L 74.009948 -41.96 
L 73.16795 -41.96 
L 72.325953 -41.96 
L 71.483955 -41.96 
L 70.641958 -41.96 
L 69.799961 -41.96 
L 68.957963 -41.96 
L 68.115966 -41.96 
L 67.273969 -41.96 
L 66.431971 -41.96 
L 65.589974 -41.96 
L 64.747976 -41.96 
L 63.905979 -41.96 
L 63.063982 -41.96 
L 62.221984 -41.96 
L 61.379987 -41.96 
L 60.53799 -41.96 
L 59.695992 -41.96 
L 58.853995 -41.96 
L 58.011997 -41.96 
L 57.17 -41.96 
z
" style="stroke: #0000ff; stroke-opacity: 0.4"/>
    </defs>
    <g clip-path="url(#p8bde9beb8a)">
     <use xlink:href="#mcf01f04378" x="0" y="648" style="fill: #0000ff; fill-opacity: 0.4; stroke: #0000ff; stroke-opacity: 0.4"/>
    </g>
   </g>
   <g id="matplotlib.axis_5">
    <g id="xtick_13">
     <g id="line2d_31">
      <g>
       <use xlink:href="#mc63adf865b" x="57.17" y="606.04" style="stroke: #000000; stroke-width: 0.8"/>
      </g>
     </g>
     <g id="text_33">
      <!-- 0 -->
      <g transform="translate(53.98875 620.638438) scale(0.1 -0.1)">
       <use xlink:href="#DejaVuSans-30"/>
      </g>
     </g>
    </g>
    <g id="xtick_14">
     <g id="line2d_32">
      <g>
       <use xlink:href="#mc63adf865b" x="99.269869" y="606.04" style="stroke: #000000; stroke-width: 0.8"/>
      </g>
     </g>
     <g id="text_34">
      <!-- 50 -->
      <g transform="translate(92.907369 620.638438) scale(0.1 -0.1)">
       <use xlink:href="#DejaVuSans-35"/>
       <use xlink:href="#DejaVuSans-30" x="63.623047"/>
      </g>
     </g>
    </g>
    <g id="xtick_15">
     <g id="line2d_33">
      <g>
       <use xlink:href="#mc63adf865b" x="141.369738" y="606.04" style="stroke: #000000; stroke-width: 0.8"/>
      </g>
     </g>
     <g id="text_35">
      <!-- 100 -->
      <g transform="translate(131.825988 620.638438) scale(0.1 -0.1)">
       <use xlink:href="#DejaVuSans-31"/>
       <use xlink:href="#DejaVuSans-30" x="63.623047"/>
       <use xlink:href="#DejaVuSans-30" x="127.246094"/>
      </g>
     </g>
    </g>
    <g id="xtick_16">
     <g id="line2d_34">
      <g>
       <use xlink:href="#mc63adf865b" x="183.469606" y="606.04" style="stroke: #000000; stroke-width: 0.8"/>
      </g>
     </g>
     <g id="text_36">
      <!-- 150 -->
      <g transform="translate(173.925856 620.638438) scale(0.1 -0.1)">
       <use xlink:href="#DejaVuSans-31"/>
       <use xlink:href="#DejaVuSans-35" x="63.623047"/>
       <use xlink:href="#DejaVuSans-30" x="127.246094"/>
      </g>
     </g>
    </g>
    <g id="xtick_17">
     <g id="line2d_35">
      <g>
       <use xlink:href="#mc63adf865b" x="225.569475" y="606.04" style="stroke: #000000; stroke-width: 0.8"/>
      </g>
     </g>
     <g id="text_37">
      <!-- 200 -->
      <g transform="translate(216.025725 620.638438) scale(0.1 -0.1)">
       <use xlink:href="#DejaVuSans-32"/>
       <use xlink:href="#DejaVuSans-30" x="63.623047"/>
       <use xlink:href="#DejaVuSans-30" x="127.246094"/>
      </g>
     </g>
    </g>
    <g id="xtick_18">
     <g id="line2d_36">
      <g>
       <use xlink:href="#mc63adf865b" x="267.669344" y="606.04" style="stroke: #000000; stroke-width: 0.8"/>
      </g>
     </g>
     <g id="text_38">
      <!-- 250 -->
      <g transform="translate(258.125594 620.638438) scale(0.1 -0.1)">
       <use xlink:href="#DejaVuSans-32"/>
       <use xlink:href="#DejaVuSans-35" x="63.623047"/>
       <use xlink:href="#DejaVuSans-30" x="127.246094"/>
      </g>
     </g>
    </g>
    <g id="text_39">
     <!-- Pixel Intensity -->
     <g transform="translate(130.033945 634.316563) scale(0.1 -0.1)">
      <defs>
       <path id="DejaVuSans-49" d="M 628 4666 
L 1259 4666 
L 1259 0 
L 628 0 
L 628 4666 
z
" transform="scale(0.015625)"/>
       <path id="DejaVuSans-74" d="M 1172 4494 
L 1172 3500 
L 2356 3500 
L 2356 3053 
L 1172 3053 
L 1172 1153 
Q 1172 725 1289 603 
Q 1406 481 1766 481 
L 2356 481 
L 2356 0 
L 1766 0 
Q 1100 0 847 248 
Q 594 497 594 1153 
L 594 3053 
L 172 3053 
L 172 3500 
L 594 3500 
L 594 4494 
L 1172 4494 
z
" transform="scale(0.015625)"/>
       <path id="DejaVuSans-73" d="M 2834 3397 
L 2834 2853 
Q 2591 2978 2328 3040 
Q 2066 3103 1784 3103 
Q 1356 3103 1142 2972 
Q 928 2841 928 2578 
Q 928 2378 1081 2264 
Q 1234 2150 1697 2047 
L 1894 2003 
Q 2506 1872 2764 1633 
Q 3022 1394 3022 966 
Q 3022 478 2636 193 
Q 2250 -91 1575 -91 
Q 1294 -91 989 -36 
Q 684 19 347 128 
L 347 722 
Q 666 556 975 473 
Q 1284 391 1588 391 
Q 1994 391 2212 530 
Q 2431 669 2431 922 
Q 2431 1156 2273 1281 
Q 2116 1406 1581 1522 
L 1381 1569 
Q 847 1681 609 1914 
Q 372 2147 372 2553 
Q 372 3047 722 3315 
Q 1072 3584 1716 3584 
Q 2034 3584 2315 3537 
Q 2597 3491 2834 3397 
z
" transform="scale(0.015625)"/>
      </defs>
      <use xlink:href="#DejaVuSans-50"/>
      <use xlink:href="#DejaVuSans-69" x="58.052734"/>
      <use xlink:href="#DejaVuSans-78" x="85.835938"/>
      <use xlink:href="#DejaVuSans-65" x="141.890625"/>
      <use xlink:href="#DejaVuSans-6c" x="203.414062"/>
      <use xlink:href="#DejaVuSans-20" x="231.197266"/>
      <use xlink:href="#DejaVuSans-49" x="262.984375"/>
      <use xlink:href="#DejaVuSans-6e" x="292.476562"/>
      <use xlink:href="#DejaVuSans-74" x="355.855469"/>
      <use xlink:href="#DejaVuSans-65" x="395.064453"/>
      <use xlink:href="#DejaVuSans-6e" x="456.587891"/>
      <use xlink:href="#DejaVuSans-73" x="519.966797"/>
      <use xlink:href="#DejaVuSans-69" x="572.066406"/>
      <use xlink:href="#DejaVuSans-74" x="599.849609"/>
      <use xlink:href="#DejaVuSans-79" x="639.058594"/>
     </g>
    </g>
   </g>
   <g id="matplotlib.axis_6">
    <g id="ytick_17">
     <g id="line2d_37">
      <g>
       <use xlink:href="#mc4f737ae66" x="57.17" y="606.04" style="stroke: #000000; stroke-width: 0.8"/>
      </g>
     </g>
     <g id="text_40">
      <!-- 0 -->
      <g transform="translate(43.8075 609.839219) scale(0.1 -0.1)">
       <use xlink:href="#DejaVuSans-30"/>
      </g>
     </g>
    </g>
    <g id="ytick_18">
     <g id="line2d_38">
      <g>
       <use xlink:href="#mc4f737ae66" x="57.17" y="582.174484" style="stroke: #000000; stroke-width: 0.8"/>
      </g>
     </g>
     <g id="text_41">
      <!-- 200 -->
      <g transform="translate(31.0825 585.973702) scale(0.1 -0.1)">
       <use xlink:href="#DejaVuSans-32"/>
       <use xlink:href="#DejaVuSans-30" x="63.623047"/>
       <use xlink:href="#DejaVuSans-30" x="127.246094"/>
      </g>
     </g>
    </g>
    <g id="ytick_19">
     <g id="line2d_39">
      <g>
       <use xlink:href="#mc4f737ae66" x="57.17" y="558.308967" style="stroke: #000000; stroke-width: 0.8"/>
      </g>
     </g>
     <g id="text_42">
      <!-- 400 -->
      <g transform="translate(31.0825 562.108186) scale(0.1 -0.1)">
       <use xlink:href="#DejaVuSans-34"/>
       <use xlink:href="#DejaVuSans-30" x="63.623047"/>
       <use xlink:href="#DejaVuSans-30" x="127.246094"/>
      </g>
     </g>
    </g>
    <g id="ytick_20">
     <g id="line2d_40">
      <g>
       <use xlink:href="#mc4f737ae66" x="57.17" y="534.443451" style="stroke: #000000; stroke-width: 0.8"/>
      </g>
     </g>
     <g id="text_43">
      <!-- 600 -->
      <g transform="translate(31.0825 538.242669) scale(0.1 -0.1)">
       <use xlink:href="#DejaVuSans-36"/>
       <use xlink:href="#DejaVuSans-30" x="63.623047"/>
       <use xlink:href="#DejaVuSans-30" x="127.246094"/>
      </g>
     </g>
    </g>
    <g id="ytick_21">
     <g id="line2d_41">
      <g>
       <use xlink:href="#mc4f737ae66" x="57.17" y="510.577934" style="stroke: #000000; stroke-width: 0.8"/>
      </g>
     </g>
     <g id="text_44">
      <!-- 800 -->
      <g transform="translate(31.0825 514.377153) scale(0.1 -0.1)">
       <use xlink:href="#DejaVuSans-38"/>
       <use xlink:href="#DejaVuSans-30" x="63.623047"/>
       <use xlink:href="#DejaVuSans-30" x="127.246094"/>
      </g>
     </g>
    </g>
    <g id="ytick_22">
     <g id="line2d_42">
      <g>
       <use xlink:href="#mc4f737ae66" x="57.17" y="486.712418" style="stroke: #000000; stroke-width: 0.8"/>
      </g>
     </g>
     <g id="text_45">
      <!-- 1000 -->
      <g transform="translate(24.72 490.511636) scale(0.1 -0.1)">
       <use xlink:href="#DejaVuSans-31"/>
       <use xlink:href="#DejaVuSans-30" x="63.623047"/>
       <use xlink:href="#DejaVuSans-30" x="127.246094"/>
       <use xlink:href="#DejaVuSans-30" x="190.869141"/>
      </g>
     </g>
    </g>
    <g id="ytick_23">
     <g id="line2d_43">
      <g>
       <use xlink:href="#mc4f737ae66" x="57.17" y="462.846901" style="stroke: #000000; stroke-width: 0.8"/>
      </g>
     </g>
     <g id="text_46">
      <!-- 1200 -->
      <g transform="translate(24.72 466.64612) scale(0.1 -0.1)">
       <use xlink:href="#DejaVuSans-31"/>
       <use xlink:href="#DejaVuSans-32" x="63.623047"/>
       <use xlink:href="#DejaVuSans-30" x="127.246094"/>
       <use xlink:href="#DejaVuSans-30" x="190.869141"/>
      </g>
     </g>
    </g>
    <g id="ytick_24">
     <g id="line2d_44">
      <g>
       <use xlink:href="#mc4f737ae66" x="57.17" y="438.981385" style="stroke: #000000; stroke-width: 0.8"/>
      </g>
     </g>
     <g id="text_47">
      <!-- 1400 -->
      <g transform="translate(24.72 442.780603) scale(0.1 -0.1)">
       <use xlink:href="#DejaVuSans-31"/>
       <use xlink:href="#DejaVuSans-34" x="63.623047"/>
       <use xlink:href="#DejaVuSans-30" x="127.246094"/>
       <use xlink:href="#DejaVuSans-30" x="190.869141"/>
      </g>
     </g>
    </g>
    <g id="text_48">
     <!-- Pixel Frequency -->
     <g transform="translate(18.640313 555.105573) rotate(-90) scale(0.1 -0.1)">
      <use xlink:href="#DejaVuSans-50"/>
      <use xlink:href="#DejaVuSans-69" x="58.052734"/>
      <use xlink:href="#DejaVuSans-78" x="85.835938"/>
      <use xlink:href="#DejaVuSans-65" x="141.890625"/>
      <use xlink:href="#DejaVuSans-6c" x="203.414062"/>
      <use xlink:href="#DejaVuSans-20" x="231.197266"/>
      <use xlink:href="#DejaVuSans-46" x="262.984375"/>
      <use xlink:href="#DejaVuSans-72" x="313.253906"/>
      <use xlink:href="#DejaVuSans-65" x="352.117188"/>
      <use xlink:href="#DejaVuSans-71" x="413.640625"/>
      <use xlink:href="#DejaVuSans-75" x="477.117188"/>
      <use xlink:href="#DejaVuSans-65" x="540.496094"/>
      <use xlink:href="#DejaVuSans-6e" x="602.019531"/>
      <use xlink:href="#DejaVuSans-63" x="665.398438"/>
      <use xlink:href="#DejaVuSans-79" x="720.378906"/>
     </g>
    </g>
   </g>
   <g id="line2d_45">
    <path d="M 57.17 606.04 
L 72.325953 606.04 
L 73.16795 605.56269 
L 74.009948 576.208104 
L 74.851945 472.393108 
L 75.693942 446.976333 
L 76.53594 500.554417 
L 77.377937 524.897244 
L 78.219934 544.586295 
L 79.061932 544.82495 
L 79.903929 548.404778 
L 80.745927 570.00307 
L 81.587924 576.566087 
L 82.429921 569.883743 
L 83.271919 574.776173 
L 84.113916 574.179536 
L 84.955913 569.645087 
L 85.797911 567.497191 
L 86.639908 563.440053 
L 87.481906 562.246777 
L 88.323903 557.712329 
L 89.1659 551.149312 
L 90.007898 536.114037 
L 90.849895 517.976244 
L 92.53389 539.216554 
L 93.375887 532.772864 
L 94.217885 519.050192 
L 95.059882 507.356089 
L 95.901879 498.525848 
L 96.743877 475.25697 
L 97.585874 457.119177 
L 98.427871 445.663729 
L 99.269869 428.957868 
L 100.111866 426.213333 
L 100.953864 428.480557 
L 101.795861 427.883919 
L 102.637858 438.623402 
L 103.479856 430.389799 
L 105.16385 465.591436 
L 106.005848 468.81328 
L 107.689843 478.836797 
L 108.53184 493.51409 
L 109.373837 503.298952 
L 110.215835 509.861969 
L 111.057832 522.988003 
L 111.899829 519.288848 
L 112.741827 522.749347 
L 113.583824 532.295554 
L 114.425822 532.892192 
L 115.267819 540.40983 
L 116.109816 544.82495 
L 116.951814 546.376209 
L 117.793811 556.041743 
L 119.477806 565.468622 
L 120.319803 566.06526 
L 121.161801 565.707277 
L 122.003798 572.747605 
L 122.845795 572.866932 
L 123.687793 572.031639 
L 124.52979 576.088777 
L 126.213785 583.129104 
L 127.055782 584.79969 
L 127.89778 582.055156 
L 128.739777 582.413139 
L 129.581774 586.350949 
L 130.423772 585.157673 
L 131.265769 585.873639 
L 132.107766 589.930776 
L 133.791761 586.589604 
L 134.633759 589.095483 
L 135.475756 589.095483 
L 136.317753 591.004725 
L 138.001748 588.379518 
L 138.843745 588.021535 
L 139.685743 590.169432 
L 140.52774 588.618173 
L 141.369738 591.24338 
L 142.211735 592.794638 
L 143.053732 593.749259 
L 143.89573 590.288759 
L 144.737727 591.72069 
L 145.579724 589.811449 
L 146.421722 594.345897 
L 147.263719 594.465225 
L 148.947714 592.913966 
L 149.789711 591.601363 
L 150.631709 592.913966 
L 151.473706 592.317328 
L 152.315703 596.851776 
L 153.157701 597.687069 
L 153.999698 595.897155 
L 154.841696 597.806397 
L 155.683693 598.880345 
L 156.52569 597.329086 
L 157.367688 599.715638 
L 158.209685 599.715638 
L 159.89368 600.550931 
L 160.735677 599.357655 
L 161.577675 600.550931 
L 162.419672 600.670259 
L 163.261669 602.10219 
L 164.103667 599.238328 
L 164.945664 601.982862 
L 165.787661 601.624879 
L 166.629659 601.505552 
L 167.471656 602.698828 
L 168.313654 604.369414 
L 169.155651 602.340845 
L 170.839646 603.534121 
L 171.681643 602.937483 
L 172.52364 603.892104 
L 173.365638 603.653448 
L 174.207635 603.892104 
L 175.049633 604.011431 
L 175.89163 603.653448 
L 176.733627 604.488741 
L 177.575625 603.892104 
L 178.417622 604.250086 
L 179.259619 604.130759 
L 180.101617 602.937483 
L 180.943614 604.369414 
L 181.785612 604.846724 
L 182.627609 603.772776 
L 183.469606 603.176138 
L 184.311604 603.892104 
L 185.153601 603.653448 
L 185.995598 604.727397 
L 186.837596 604.846724 
L 187.679593 604.250086 
L 188.521591 604.250086 
L 189.363588 604.846724 
L 190.205585 604.488741 
L 191.88958 604.966052 
L 192.731577 604.369414 
L 193.573575 604.488741 
L 194.415572 604.488741 
L 195.25757 604.966052 
L 196.099567 604.966052 
L 196.941564 604.488741 
L 197.783562 605.56269 
L 198.625559 604.608069 
L 199.467556 605.443362 
L 200.309554 605.324035 
L 201.151551 604.846724 
L 201.993549 604.727397 
L 202.835546 605.085379 
L 203.677543 605.682017 
L 204.519541 604.846724 
L 206.203535 605.324035 
L 207.045533 604.727397 
L 207.88753 604.488741 
L 208.729528 604.727397 
L 210.413522 605.443362 
L 211.25552 604.966052 
L 212.097517 605.56269 
L 212.939514 605.443362 
L 213.781512 605.443362 
L 214.623509 605.324035 
L 215.465507 605.682017 
L 216.307504 605.56269 
L 217.149501 605.920672 
L 217.991499 605.56269 
L 218.833496 605.443362 
L 219.675493 605.801345 
L 220.517491 605.56269 
L 221.359488 605.56269 
L 222.201486 605.920672 
L 223.043483 605.56269 
L 223.88548 605.920672 
L 224.727478 605.801345 
L 225.569475 605.56269 
L 227.25347 605.801345 
L 228.095467 605.682017 
L 228.937465 605.920672 
L 229.779462 605.801345 
L 230.621459 605.801345 
L 231.463457 605.682017 
L 232.305454 605.920672 
L 236.515441 605.920672 
L 237.357438 605.682017 
L 238.199436 605.801345 
L 239.88343 605.801345 
L 240.725428 605.920672 
L 241.567425 605.682017 
L 242.409423 606.04 
L 243.25142 606.04 
L 244.093417 605.682017 
L 244.935415 605.801345 
L 245.777412 606.04 
L 246.619409 606.04 
L 248.303404 605.801345 
L 249.145402 606.04 
L 249.987399 605.801345 
L 250.829396 606.04 
L 251.671394 605.801345 
L 252.513391 606.04 
L 253.355388 606.04 
L 254.197386 605.920672 
L 255.039383 606.04 
L 256.723378 605.801345 
L 257.565375 605.920672 
L 258.407373 605.682017 
L 259.24937 606.04 
L 260.091367 606.04 
L 260.933365 605.920672 
L 261.775362 605.682017 
L 262.61736 605.801345 
L 263.459357 605.56269 
L 264.301354 606.04 
L 265.143352 605.920672 
L 267.669344 605.920672 
L 268.511341 605.801345 
L 269.353339 605.920672 
L 270.195336 605.920672 
L 271.037333 605.682017 
L 271.879331 606.04 
L 271.879331 606.04 
" clip-path="url(#p8bde9beb8a)" style="fill: none; stroke: #0000ff; stroke-width: 1.5; stroke-linecap: square"/>
   </g>
   <g id="patch_13">
    <path d="M 57.17 606.04 
L 57.17 426.213333 
" style="fill: none; stroke: #000000; stroke-width: 0.8; stroke-linejoin: miter; stroke-linecap: square"/>
   </g>
   <g id="patch_14">
    <path d="M 272.721328 606.04 
L 272.721328 426.213333 
" style="fill: none; stroke: #000000; stroke-width: 0.8; stroke-linejoin: miter; stroke-linecap: square"/>
   </g>
   <g id="patch_15">
    <path d="M 57.17 606.04 
L 272.721328 606.04 
" style="fill: none; stroke: #000000; stroke-width: 0.8; stroke-linejoin: miter; stroke-linecap: square"/>
   </g>
   <g id="patch_16">
    <path d="M 57.17 426.213333 
L 272.721328 426.213333 
" style="fill: none; stroke: #000000; stroke-width: 0.8; stroke-linejoin: miter; stroke-linecap: square"/>
   </g>
   <g id="text_49">
    <!-- Blue Channel  -->
    <g transform="translate(189.272578 440.213333) scale(0.12 -0.12)">
     <defs>
      <path id="DejaVuSans-42" d="M 1259 2228 
L 1259 519 
L 2272 519 
Q 2781 519 3026 730 
Q 3272 941 3272 1375 
Q 3272 1813 3026 2020 
Q 2781 2228 2272 2228 
L 1259 2228 
z
M 1259 4147 
L 1259 2741 
L 2194 2741 
Q 2656 2741 2882 2914 
Q 3109 3088 3109 3444 
Q 3109 3797 2882 3972 
Q 2656 4147 2194 4147 
L 1259 4147 
z
M 628 4666 
L 2241 4666 
Q 2963 4666 3353 4366 
Q 3744 4066 3744 3513 
Q 3744 3084 3544 2831 
Q 3344 2578 2956 2516 
Q 3422 2416 3680 2098 
Q 3938 1781 3938 1306 
Q 3938 681 3513 340 
Q 3088 0 2303 0 
L 628 0 
L 628 4666 
z
" transform="scale(0.015625)"/>
     </defs>
     <use xlink:href="#DejaVuSans-42"/>
     <use xlink:href="#DejaVuSans-6c" x="68.603516"/>
     <use xlink:href="#DejaVuSans-75" x="96.386719"/>
     <use xlink:href="#DejaVuSans-65" x="159.765625"/>
     <use xlink:href="#DejaVuSans-20" x="221.289062"/>
     <use xlink:href="#DejaVuSans-43" x="253.076172"/>
     <use xlink:href="#DejaVuSans-68" x="322.900391"/>
     <use xlink:href="#DejaVuSans-61" x="386.279297"/>
     <use xlink:href="#DejaVuSans-6e" x="447.558594"/>
     <use xlink:href="#DejaVuSans-6e" x="510.9375"/>
     <use xlink:href="#DejaVuSans-65" x="574.316406"/>
     <use xlink:href="#DejaVuSans-6c" x="635.839844"/>
     <use xlink:href="#DejaVuSans-20" x="663.623047"/>
    </g>
   </g>
  </g>
 </g>
 <defs>
  <clipPath id="p914a9a37c5">
   <rect x="57.17" y="10.8" width="215.551328" height="179.826667"/>
  </clipPath>
  <clipPath id="p77268e66cc">
   <rect x="57.17" y="218.506667" width="215.551328" height="179.826667"/>
  </clipPath>
  <clipPath id="p8bde9beb8a">
   <rect x="57.17" y="426.213333" width="215.551328" height="179.826667"/>
  </clipPath>
 </defs>
</svg>
