<?xml version="1.0" encoding="utf-8" standalone="no"?>
<!DOCTYPE svg PUBLIC "-//W3C//DTD SVG 1.1//EN"
  "http://www.w3.org/Graphics/SVG/1.1/DTD/svg11.dtd">
<svg xmlns:xlink="http://www.w3.org/1999/xlink" width="288pt" height="648pt" viewBox="0 0 288 648" xmlns="http://www.w3.org/2000/svg" version="1.1">
 <metadata>
  <rdf:RDF xmlns:dc="http://purl.org/dc/elements/1.1/" xmlns:cc="http://creativecommons.org/ns#" xmlns:rdf="http://www.w3.org/1999/02/22-rdf-syntax-ns#">
   <cc:Work>
    <dc:type rdf:resource="http://purl.org/dc/dcmitype/StillImage"/>
    <dc:date>2023-11-18T15:20:17.437577</dc:date>
    <dc:format>image/svg+xml</dc:format>
    <dc:creator>
     <cc:Agent>
      <dc:title>Matplotlib v3.8.0, https://matplotlib.org/</dc:title>
     </cc:Agent>
    </dc:creator>
   </cc:Work>
  </rdf:RDF>
 </metadata>
 <defs>
  <style type="text/css">*{stroke-linejoin: round; stroke-linecap: butt}</style>
 </defs>
 <g id="figure_1">
  <g id="patch_1">
   <path d="M 0 648 
L 288 648 
L 288 0 
L 0 0 
z
" style="fill: #ffffff"/>
  </g>
  <g id="axes_1">
   <g id="patch_2">
    <path d="M 57.17 190.626667 
L 272.721328 190.626667 
L 272.721328 10.8 
L 57.17 10.8 
z
" style="fill: #ffffff"/>
   </g>
   <g id="PolyCollection_1">
    <defs>
     <path id="m35474fde5e" d="M 57.17 -457.373333 
L 57.17 -457.373333 
L 58.011997 -457.373333 
L 58.853995 -457.373333 
L 59.695992 -457.373333 
L 60.53799 -457.373333 
L 61.379987 -457.373333 
L 62.221984 -457.373333 
L 63.063982 -457.373333 
L 63.905979 -457.373333 
L 64.747976 -457.373333 
L 65.589974 -457.373333 
L 66.431971 -457.373333 
L 67.273969 -457.373333 
L 68.115966 -457.373333 
L 68.957963 -457.373333 
L 69.799961 -457.373333 
L 70.641958 -457.373333 
L 71.483955 -457.373333 
L 72.325953 -457.373333 
L 73.16795 -457.373333 
L 74.009948 -457.373333 
L 74.851945 -457.373333 
L 75.693942 -457.373333 
L 76.53594 -457.373333 
L 77.377937 -457.373333 
L 78.219934 -457.373333 
L 79.061932 -457.373333 
L 79.903929 -457.373333 
L 80.745927 -457.373333 
L 81.587924 -457.373333 
L 82.429921 -457.373333 
L 83.271919 -457.373333 
L 84.113916 -457.373333 
L 84.955913 -457.373333 
L 85.797911 -457.373333 
L 86.639908 -457.373333 
L 87.481906 -457.373333 
L 88.323903 -457.373333 
L 89.1659 -457.373333 
L 90.007898 -457.373333 
L 90.849895 -457.373333 
L 91.691892 -457.373333 
L 92.53389 -457.373333 
L 93.375887 -457.373333 
L 94.217885 -457.373333 
L 95.059882 -457.373333 
L 95.901879 -457.433668 
L 96.743877 -457.373333 
L 97.585874 -458.067179 
L 98.427871 -458.91186 
L 99.269869 -465.91065 
L 100.111866 -467.358676 
L 100.953864 -472.637935 
L 101.795861 -487.057856 
L 102.637858 -511.67429 
L 103.479856 -540.604632 
L 104.321853 -557.558598 
L 105.16385 -548.81011 
L 106.005848 -533.907514 
L 106.847845 -519.366925 
L 107.689843 -520.513279 
L 108.53184 -533.937682 
L 109.373837 -553.908367 
L 110.215835 -546.819075 
L 111.057832 -526.486384 
L 111.899829 -528.56792 
L 112.741827 -535.717546 
L 113.583824 -511.372618 
L 114.425822 -496.560523 
L 115.267819 -514.298836 
L 116.109816 -512.518971 
L 116.951814 -467.660348 
L 117.793811 -462.954265 
L 118.635808 -461.898413 
L 119.477806 -462.079416 
L 120.319803 -461.355403 
L 121.161801 -460.872728 
L 122.003798 -461.777744 
L 122.845795 -461.1744 
L 123.687793 -461.566574 
L 124.52979 -461.144233 
L 125.371787 -461.476072 
L 126.213785 -460.752059 
L 127.055782 -460.902895 
L 127.89778 -460.752059 
L 128.739777 -460.329719 
L 129.581774 -461.355403 
L 130.423772 -460.450388 
L 131.265769 -460.812394 
L 132.107766 -460.571056 
L 132.949764 -460.933063 
L 133.791761 -460.299552 
L 134.633759 -460.058214 
L 135.475756 -460.450388 
L 136.317753 -460.359886 
L 137.159751 -460.028047 
L 138.001748 -460.390053 
L 138.843745 -460.028047 
L 139.685743 -459.605706 
L 140.52774 -460.480555 
L 141.369738 -460.42022 
L 142.211735 -460.028047 
L 143.053732 -460.058214 
L 143.89573 -459.967712 
L 144.737727 -459.605706 
L 145.579724 -459.786709 
L 146.421722 -459.545372 
L 147.263719 -459.726375 
L 148.105717 -459.364368 
L 148.947714 -459.515204 
L 149.789711 -459.605706 
L 150.631709 -459.45487 
L 151.473706 -459.45487 
L 152.315703 -459.304034 
L 153.157701 -459.575539 
L 153.999698 -459.334201 
L 154.841696 -459.515204 
L 155.683693 -459.364368 
L 156.52569 -459.273867 
L 157.367688 -459.183365 
L 158.209685 -459.485037 
L 159.051682 -459.334201 
L 159.89368 -459.2437 
L 160.735677 -459.304034 
L 161.577675 -458.821359 
L 162.419672 -459.032529 
L 163.261669 -459.092864 
L 164.103667 -458.640356 
L 164.945664 -458.519687 
L 165.787661 -458.368851 
L 166.629659 -458.338684 
L 167.471656 -458.91186 
L 168.313654 -458.429185 
L 169.155651 -458.91186 
L 169.997648 -458.640356 
L 170.839646 -458.821359 
L 171.681643 -458.91186 
L 172.52364 -458.519687 
L 173.365638 -458.248182 
L 174.207635 -458.549854 
L 175.049633 -458.459352 
L 175.89163 -458.640356 
L 176.733627 -458.248182 
L 177.575625 -458.580021 
L 178.417622 -458.097346 
L 179.259619 -458.338684 
L 180.101617 -458.429185 
L 180.943614 -458.338684 
L 181.785612 -458.15768 
L 182.627609 -458.368851 
L 183.469606 -458.338684 
L 184.311604 -458.429185 
L 185.153601 -458.338684 
L 185.995598 -458.187848 
L 186.837596 -458.097346 
L 187.679593 -458.187848 
L 188.521591 -458.218015 
L 189.363588 -458.097346 
L 190.205585 -458.097346 
L 191.047583 -457.886176 
L 191.88958 -458.248182 
L 192.731577 -458.15768 
L 193.573575 -458.097346 
L 194.415572 -457.976677 
L 195.25757 -457.976677 
L 196.099567 -458.15768 
L 196.941564 -457.825841 
L 197.783562 -457.825841 
L 198.625559 -457.976677 
L 199.467556 -458.067179 
L 200.309554 -457.886176 
L 201.151551 -458.006844 
L 201.993549 -457.94651 
L 202.835546 -457.73534 
L 203.677543 -458.006844 
L 204.519541 -457.825841 
L 205.361538 -457.94651 
L 206.203535 -457.765507 
L 207.045533 -458.037012 
L 207.88753 -457.795674 
L 208.729528 -457.795674 
L 209.571525 -457.886176 
L 210.413522 -457.886176 
L 211.25552 -457.825841 
L 212.097517 -457.765507 
L 212.939514 -457.705173 
L 213.781512 -457.976677 
L 214.623509 -458.037012 
L 215.465507 -457.856008 
L 216.307504 -457.73534 
L 217.149501 -457.886176 
L 217.991499 -457.705173 
L 218.833496 -457.916343 
L 219.675493 -457.916343 
L 220.517491 -457.886176 
L 221.359488 -457.614671 
L 222.201486 -457.584504 
L 223.043483 -457.765507 
L 223.88548 -457.765507 
L 224.727478 -457.494002 
L 225.569475 -457.644838 
L 226.411472 -457.675005 
L 227.25347 -457.554337 
L 228.095467 -457.765507 
L 228.937465 -457.584504 
L 229.779462 -457.675005 
L 230.621459 -457.554337 
L 231.463457 -457.644838 
L 232.305454 -457.675005 
L 233.147451 -457.614671 
L 233.989449 -457.675005 
L 234.831446 -457.584504 
L 235.673444 -457.73534 
L 236.515441 -457.73534 
L 237.357438 -457.644838 
L 238.199436 -457.584504 
L 239.041433 -457.675005 
L 239.88343 -457.584504 
L 240.725428 -457.614671 
L 241.567425 -457.524169 
L 242.409423 -457.463835 
L 243.25142 -457.524169 
L 244.093417 -457.856008 
L 244.935415 -457.554337 
L 245.777412 -457.614671 
L 246.619409 -457.584504 
L 247.461407 -457.524169 
L 248.303404 -457.614671 
L 249.145402 -457.614671 
L 249.987399 -457.524169 
L 250.829396 -457.463835 
L 251.671394 -457.554337 
L 252.513391 -457.403501 
L 253.355388 -457.494002 
L 254.197386 -457.494002 
L 255.039383 -457.433668 
L 255.881381 -457.463835 
L 256.723378 -457.433668 
L 257.565375 -457.524169 
L 258.407373 -457.494002 
L 259.24937 -457.494002 
L 260.091367 -457.494002 
L 260.933365 -457.584504 
L 261.775362 -457.614671 
L 262.61736 -457.524169 
L 263.459357 -457.403501 
L 264.301354 -457.433668 
L 265.143352 -457.494002 
L 265.985349 -457.494002 
L 266.827346 -457.433668 
L 267.669344 -457.524169 
L 268.511341 -457.403501 
L 269.353339 -457.463835 
L 270.195336 -457.403501 
L 271.037333 -457.524169 
L 271.879331 -457.494002 
L 271.879331 -457.373333 
L 271.879331 -457.373333 
L 271.037333 -457.373333 
L 270.195336 -457.373333 
L 269.353339 -457.373333 
L 268.511341 -457.373333 
L 267.669344 -457.373333 
L 266.827346 -457.373333 
L 265.985349 -457.373333 
L 265.143352 -457.373333 
L 264.301354 -457.373333 
L 263.459357 -457.373333 
L 262.61736 -457.373333 
L 261.775362 -457.373333 
L 260.933365 -457.373333 
L 260.091367 -457.373333 
L 259.24937 -457.373333 
L 258.407373 -457.373333 
L 257.565375 -457.373333 
L 256.723378 -457.373333 
L 255.881381 -457.373333 
L 255.039383 -457.373333 
L 254.197386 -457.373333 
L 253.355388 -457.373333 
L 252.513391 -457.373333 
L 251.671394 -457.373333 
L 250.829396 -457.373333 
L 249.987399 -457.373333 
L 249.145402 -457.373333 
L 248.303404 -457.373333 
L 247.461407 -457.373333 
L 246.619409 -457.373333 
L 245.777412 -457.373333 
L 244.935415 -457.373333 
L 244.093417 -457.373333 
L 243.25142 -457.373333 
L 242.409423 -457.373333 
L 241.567425 -457.373333 
L 240.725428 -457.373333 
L 239.88343 -457.373333 
L 239.041433 -457.373333 
L 238.199436 -457.373333 
L 237.357438 -457.373333 
L 236.515441 -457.373333 
L 235.673444 -457.373333 
L 234.831446 -457.373333 
L 233.989449 -457.373333 
L 233.147451 -457.373333 
L 232.305454 -457.373333 
L 231.463457 -457.373333 
L 230.621459 -457.373333 
L 229.779462 -457.373333 
L 228.937465 -457.373333 
L 228.095467 -457.373333 
L 227.25347 -457.373333 
L 226.411472 -457.373333 
L 225.569475 -457.373333 
L 224.727478 -457.373333 
L 223.88548 -457.373333 
L 223.043483 -457.373333 
L 222.201486 -457.373333 
L 221.359488 -457.373333 
L 220.517491 -457.373333 
L 219.675493 -457.373333 
L 218.833496 -457.373333 
L 217.991499 -457.373333 
L 217.149501 -457.373333 
L 216.307504 -457.373333 
L 215.465507 -457.373333 
L 214.623509 -457.373333 
L 213.781512 -457.373333 
L 212.939514 -457.373333 
L 212.097517 -457.373333 
L 211.25552 -457.373333 
L 210.413522 -457.373333 
L 209.571525 -457.373333 
L 208.729528 -457.373333 
L 207.88753 -457.373333 
L 207.045533 -457.373333 
L 206.203535 -457.373333 
L 205.361538 -457.373333 
L 204.519541 -457.373333 
L 203.677543 -457.373333 
L 202.835546 -457.373333 
L 201.993549 -457.373333 
L 201.151551 -457.373333 
L 200.309554 -457.373333 
L 199.467556 -457.373333 
L 198.625559 -457.373333 
L 197.783562 -457.373333 
L 196.941564 -457.373333 
L 196.099567 -457.373333 
L 195.25757 -457.373333 
L 194.415572 -457.373333 
L 193.573575 -457.373333 
L 192.731577 -457.373333 
L 191.88958 -457.373333 
L 191.047583 -457.373333 
L 190.205585 -457.373333 
L 189.363588 -457.373333 
L 188.521591 -457.373333 
L 187.679593 -457.373333 
L 186.837596 -457.373333 
L 185.995598 -457.373333 
L 185.153601 -457.373333 
L 184.311604 -457.373333 
L 183.469606 -457.373333 
L 182.627609 -457.373333 
L 181.785612 -457.373333 
L 180.943614 -457.373333 
L 180.101617 -457.373333 
L 179.259619 -457.373333 
L 178.417622 -457.373333 
L 177.575625 -457.373333 
L 176.733627 -457.373333 
L 175.89163 -457.373333 
L 175.049633 -457.373333 
L 174.207635 -457.373333 
L 173.365638 -457.373333 
L 172.52364 -457.373333 
L 171.681643 -457.373333 
L 170.839646 -457.373333 
L 169.997648 -457.373333 
L 169.155651 -457.373333 
L 168.313654 -457.373333 
L 167.471656 -457.373333 
L 166.629659 -457.373333 
L 165.787661 -457.373333 
L 164.945664 -457.373333 
L 164.103667 -457.373333 
L 163.261669 -457.373333 
L 162.419672 -457.373333 
L 161.577675 -457.373333 
L 160.735677 -457.373333 
L 159.89368 -457.373333 
L 159.051682 -457.373333 
L 158.209685 -457.373333 
L 157.367688 -457.373333 
L 156.52569 -457.373333 
L 155.683693 -457.373333 
L 154.841696 -457.373333 
L 153.999698 -457.373333 
L 153.157701 -457.373333 
L 152.315703 -457.373333 
L 151.473706 -457.373333 
L 150.631709 -457.373333 
L 149.789711 -457.373333 
L 148.947714 -457.373333 
L 148.105717 -457.373333 
L 147.263719 -457.373333 
L 146.421722 -457.373333 
L 145.579724 -457.373333 
L 144.737727 -457.373333 
L 143.89573 -457.373333 
L 143.053732 -457.373333 
L 142.211735 -457.373333 
L 141.369738 -457.373333 
L 140.52774 -457.373333 
L 139.685743 -457.373333 
L 138.843745 -457.373333 
L 138.001748 -457.373333 
L 137.159751 -457.373333 
L 136.317753 -457.373333 
L 135.475756 -457.373333 
L 134.633759 -457.373333 
L 133.791761 -457.373333 
L 132.949764 -457.373333 
L 132.107766 -457.373333 
L 131.265769 -457.373333 
L 130.423772 -457.373333 
L 129.581774 -457.373333 
L 128.739777 -457.373333 
L 127.89778 -457.373333 
L 127.055782 -457.373333 
L 126.213785 -457.373333 
L 125.371787 -457.373333 
L 124.52979 -457.373333 
L 123.687793 -457.373333 
L 122.845795 -457.373333 
L 122.003798 -457.373333 
L 121.161801 -457.373333 
L 120.319803 -457.373333 
L 119.477806 -457.373333 
L 118.635808 -457.373333 
L 117.793811 -457.373333 
L 116.951814 -457.373333 
L 116.109816 -457.373333 
L 115.267819 -457.373333 
L 114.425822 -457.373333 
L 113.583824 -457.373333 
L 112.741827 -457.373333 
L 111.899829 -457.373333 
L 111.057832 -457.373333 
L 110.215835 -457.373333 
L 109.373837 -457.373333 
L 108.53184 -457.373333 
L 107.689843 -457.373333 
L 106.847845 -457.373333 
L 106.005848 -457.373333 
L 105.16385 -457.373333 
L 104.321853 -457.373333 
L 103.479856 -457.373333 
L 102.637858 -457.373333 
L 101.795861 -457.373333 
L 100.953864 -457.373333 
L 100.111866 -457.373333 
L 99.269869 -457.373333 
L 98.427871 -457.373333 
L 97.585874 -457.373333 
L 96.743877 -457.373333 
L 95.901879 -457.373333 
L 95.059882 -457.373333 
L 94.217885 -457.373333 
L 93.375887 -457.373333 
L 92.53389 -457.373333 
L 91.691892 -457.373333 
L 90.849895 -457.373333 
L 90.007898 -457.373333 
L 89.1659 -457.373333 
L 88.323903 -457.373333 
L 87.481906 -457.373333 
L 86.639908 -457.373333 
L 85.797911 -457.373333 
L 84.955913 -457.373333 
L 84.113916 -457.373333 
L 83.271919 -457.373333 
L 82.429921 -457.373333 
L 81.587924 -457.373333 
L 80.745927 -457.373333 
L 79.903929 -457.373333 
L 79.061932 -457.373333 
L 78.219934 -457.373333 
L 77.377937 -457.373333 
L 76.53594 -457.373333 
L 75.693942 -457.373333 
L 74.851945 -457.373333 
L 74.009948 -457.373333 
L 73.16795 -457.373333 
L 72.325953 -457.373333 
L 71.483955 -457.373333 
L 70.641958 -457.373333 
L 69.799961 -457.373333 
L 68.957963 -457.373333 
L 68.115966 -457.373333 
L 67.273969 -457.373333 
L 66.431971 -457.373333 
L 65.589974 -457.373333 
L 64.747976 -457.373333 
L 63.905979 -457.373333 
L 63.063982 -457.373333 
L 62.221984 -457.373333 
L 61.379987 -457.373333 
L 60.53799 -457.373333 
L 59.695992 -457.373333 
L 58.853995 -457.373333 
L 58.011997 -457.373333 
L 57.17 -457.373333 
z
" style="stroke: #ff0000; stroke-opacity: 0.4"/>
    </defs>
    <g clip-path="url(#p8922328f24)">
     <use xlink:href="#m35474fde5e" x="0" y="648" style="fill: #ff0000; fill-opacity: 0.4; stroke: #ff0000; stroke-opacity: 0.4"/>
    </g>
   </g>
   <g id="matplotlib.axis_1">
    <g id="xtick_1">
     <g id="line2d_1">
      <defs>
       <path id="m52dfd1083b" d="M 0 0 
L 0 3.5 
" style="stroke: #000000; stroke-width: 0.8"/>
      </defs>
      <g>
       <use xlink:href="#m52dfd1083b" x="57.17" y="190.626667" style="stroke: #000000; stroke-width: 0.8"/>
      </g>
     </g>
     <g id="text_1">
      <!-- 0 -->
      <g transform="translate(53.98875 205.225104) scale(0.1 -0.1)">
       <defs>
        <path id="DejaVuSans-30" d="M 2034 4250 
Q 1547 4250 1301 3770 
Q 1056 3291 1056 2328 
Q 1056 1369 1301 889 
Q 1547 409 2034 409 
Q 2525 409 2770 889 
Q 3016 1369 3016 2328 
Q 3016 3291 2770 3770 
Q 2525 4250 2034 4250 
z
M 2034 4750 
Q 2819 4750 3233 4129 
Q 3647 3509 3647 2328 
Q 3647 1150 3233 529 
Q 2819 -91 2034 -91 
Q 1250 -91 836 529 
Q 422 1150 422 2328 
Q 422 3509 836 4129 
Q 1250 4750 2034 4750 
z
" transform="scale(0.015625)"/>
       </defs>
       <use xlink:href="#DejaVuSans-30"/>
      </g>
     </g>
    </g>
    <g id="xtick_2">
     <g id="line2d_2">
      <g>
       <use xlink:href="#m52dfd1083b" x="99.269869" y="190.626667" style="stroke: #000000; stroke-width: 0.8"/>
      </g>
     </g>
     <g id="text_2">
      <!-- 50 -->
      <g transform="translate(92.907369 205.225104) scale(0.1 -0.1)">
       <defs>
        <path id="DejaVuSans-35" d="M 691 4666 
L 3169 4666 
L 3169 4134 
L 1269 4134 
L 1269 2991 
Q 1406 3038 1543 3061 
Q 1681 3084 1819 3084 
Q 2600 3084 3056 2656 
Q 3513 2228 3513 1497 
Q 3513 744 3044 326 
Q 2575 -91 1722 -91 
Q 1428 -91 1123 -41 
Q 819 9 494 109 
L 494 744 
Q 775 591 1075 516 
Q 1375 441 1709 441 
Q 2250 441 2565 725 
Q 2881 1009 2881 1497 
Q 2881 1984 2565 2268 
Q 2250 2553 1709 2553 
Q 1456 2553 1204 2497 
Q 953 2441 691 2322 
L 691 4666 
z
" transform="scale(0.015625)"/>
       </defs>
       <use xlink:href="#DejaVuSans-35"/>
       <use xlink:href="#DejaVuSans-30" x="63.623047"/>
      </g>
     </g>
    </g>
    <g id="xtick_3">
     <g id="line2d_3">
      <g>
       <use xlink:href="#m52dfd1083b" x="141.369738" y="190.626667" style="stroke: #000000; stroke-width: 0.8"/>
      </g>
     </g>
     <g id="text_3">
      <!-- 100 -->
      <g transform="translate(131.825988 205.225104) scale(0.1 -0.1)">
       <defs>
        <path id="DejaVuSans-31" d="M 794 531 
L 1825 531 
L 1825 4091 
L 703 3866 
L 703 4441 
L 1819 4666 
L 2450 4666 
L 2450 531 
L 3481 531 
L 3481 0 
L 794 0 
L 794 531 
z
" transform="scale(0.015625)"/>
       </defs>
       <use xlink:href="#DejaVuSans-31"/>
       <use xlink:href="#DejaVuSans-30" x="63.623047"/>
       <use xlink:href="#DejaVuSans-30" x="127.246094"/>
      </g>
     </g>
    </g>
    <g id="xtick_4">
     <g id="line2d_4">
      <g>
       <use xlink:href="#m52dfd1083b" x="183.469606" y="190.626667" style="stroke: #000000; stroke-width: 0.8"/>
      </g>
     </g>
     <g id="text_4">
      <!-- 150 -->
      <g transform="translate(173.925856 205.225104) scale(0.1 -0.1)">
       <use xlink:href="#DejaVuSans-31"/>
       <use xlink:href="#DejaVuSans-35" x="63.623047"/>
       <use xlink:href="#DejaVuSans-30" x="127.246094"/>
      </g>
     </g>
    </g>
    <g id="xtick_5">
     <g id="line2d_5">
      <g>
       <use xlink:href="#m52dfd1083b" x="225.569475" y="190.626667" style="stroke: #000000; stroke-width: 0.8"/>
      </g>
     </g>
     <g id="text_5">
      <!-- 200 -->
      <g transform="translate(216.025725 205.225104) scale(0.1 -0.1)">
       <defs>
        <path id="DejaVuSans-32" d="M 1228 531 
L 3431 531 
L 3431 0 
L 469 0 
L 469 531 
Q 828 903 1448 1529 
Q 2069 2156 2228 2338 
Q 2531 2678 2651 2914 
Q 2772 3150 2772 3378 
Q 2772 3750 2511 3984 
Q 2250 4219 1831 4219 
Q 1534 4219 1204 4116 
Q 875 4013 500 3803 
L 500 4441 
Q 881 4594 1212 4672 
Q 1544 4750 1819 4750 
Q 2544 4750 2975 4387 
Q 3406 4025 3406 3419 
Q 3406 3131 3298 2873 
Q 3191 2616 2906 2266 
Q 2828 2175 2409 1742 
Q 1991 1309 1228 531 
z
" transform="scale(0.015625)"/>
       </defs>
       <use xlink:href="#DejaVuSans-32"/>
       <use xlink:href="#DejaVuSans-30" x="63.623047"/>
       <use xlink:href="#DejaVuSans-30" x="127.246094"/>
      </g>
     </g>
    </g>
    <g id="xtick_6">
     <g id="line2d_6">
      <g>
       <use xlink:href="#m52dfd1083b" x="267.669344" y="190.626667" style="stroke: #000000; stroke-width: 0.8"/>
      </g>
     </g>
     <g id="text_6">
      <!-- 250 -->
      <g transform="translate(258.125594 205.225104) scale(0.1 -0.1)">
       <use xlink:href="#DejaVuSans-32"/>
       <use xlink:href="#DejaVuSans-35" x="63.623047"/>
       <use xlink:href="#DejaVuSans-30" x="127.246094"/>
      </g>
     </g>
    </g>
   </g>
   <g id="matplotlib.axis_2">
    <g id="ytick_1">
     <g id="line2d_7">
      <defs>
       <path id="m8b4859707a" d="M 0 0 
L -3.5 0 
" style="stroke: #000000; stroke-width: 0.8"/>
      </defs>
      <g>
       <use xlink:href="#m8b4859707a" x="57.17" y="190.626667" style="stroke: #000000; stroke-width: 0.8"/>
      </g>
     </g>
     <g id="text_7">
      <!-- 0 -->
      <g transform="translate(43.8075 194.425885) scale(0.1 -0.1)">
       <use xlink:href="#DejaVuSans-30"/>
      </g>
     </g>
    </g>
    <g id="ytick_2">
     <g id="line2d_8">
      <g>
       <use xlink:href="#m8b4859707a" x="57.17" y="160.459469" style="stroke: #000000; stroke-width: 0.8"/>
      </g>
     </g>
     <g id="text_8">
      <!-- 1000 -->
      <g transform="translate(24.72 164.258688) scale(0.1 -0.1)">
       <use xlink:href="#DejaVuSans-31"/>
       <use xlink:href="#DejaVuSans-30" x="63.623047"/>
       <use xlink:href="#DejaVuSans-30" x="127.246094"/>
       <use xlink:href="#DejaVuSans-30" x="190.869141"/>
      </g>
     </g>
    </g>
    <g id="ytick_3">
     <g id="line2d_9">
      <g>
       <use xlink:href="#m8b4859707a" x="57.17" y="130.292271" style="stroke: #000000; stroke-width: 0.8"/>
      </g>
     </g>
     <g id="text_9">
      <!-- 2000 -->
      <g transform="translate(24.72 134.09149) scale(0.1 -0.1)">
       <use xlink:href="#DejaVuSans-32"/>
       <use xlink:href="#DejaVuSans-30" x="63.623047"/>
       <use xlink:href="#DejaVuSans-30" x="127.246094"/>
       <use xlink:href="#DejaVuSans-30" x="190.869141"/>
      </g>
     </g>
    </g>
    <g id="ytick_4">
     <g id="line2d_10">
      <g>
       <use xlink:href="#m8b4859707a" x="57.17" y="100.125073" style="stroke: #000000; stroke-width: 0.8"/>
      </g>
     </g>
     <g id="text_10">
      <!-- 3000 -->
      <g transform="translate(24.72 103.924292) scale(0.1 -0.1)">
       <defs>
        <path id="DejaVuSans-33" d="M 2597 2516 
Q 3050 2419 3304 2112 
Q 3559 1806 3559 1356 
Q 3559 666 3084 287 
Q 2609 -91 1734 -91 
Q 1441 -91 1130 -33 
Q 819 25 488 141 
L 488 750 
Q 750 597 1062 519 
Q 1375 441 1716 441 
Q 2309 441 2620 675 
Q 2931 909 2931 1356 
Q 2931 1769 2642 2001 
Q 2353 2234 1838 2234 
L 1294 2234 
L 1294 2753 
L 1863 2753 
Q 2328 2753 2575 2939 
Q 2822 3125 2822 3475 
Q 2822 3834 2567 4026 
Q 2313 4219 1838 4219 
Q 1578 4219 1281 4162 
Q 984 4106 628 3988 
L 628 4550 
Q 988 4650 1302 4700 
Q 1616 4750 1894 4750 
Q 2613 4750 3031 4423 
Q 3450 4097 3450 3541 
Q 3450 3153 3228 2886 
Q 3006 2619 2597 2516 
z
" transform="scale(0.015625)"/>
       </defs>
       <use xlink:href="#DejaVuSans-33"/>
       <use xlink:href="#DejaVuSans-30" x="63.623047"/>
       <use xlink:href="#DejaVuSans-30" x="127.246094"/>
       <use xlink:href="#DejaVuSans-30" x="190.869141"/>
      </g>
     </g>
    </g>
    <g id="ytick_5">
     <g id="line2d_11">
      <g>
       <use xlink:href="#m8b4859707a" x="57.17" y="69.957875" style="stroke: #000000; stroke-width: 0.8"/>
      </g>
     </g>
     <g id="text_11">
      <!-- 4000 -->
      <g transform="translate(24.72 73.757094) scale(0.1 -0.1)">
       <defs>
        <path id="DejaVuSans-34" d="M 2419 4116 
L 825 1625 
L 2419 1625 
L 2419 4116 
z
M 2253 4666 
L 3047 4666 
L 3047 1625 
L 3713 1625 
L 3713 1100 
L 3047 1100 
L 3047 0 
L 2419 0 
L 2419 1100 
L 313 1100 
L 313 1709 
L 2253 4666 
z
" transform="scale(0.015625)"/>
       </defs>
       <use xlink:href="#DejaVuSans-34"/>
       <use xlink:href="#DejaVuSans-30" x="63.623047"/>
       <use xlink:href="#DejaVuSans-30" x="127.246094"/>
       <use xlink:href="#DejaVuSans-30" x="190.869141"/>
      </g>
     </g>
    </g>
    <g id="ytick_6">
     <g id="line2d_12">
      <g>
       <use xlink:href="#m8b4859707a" x="57.17" y="39.790677" style="stroke: #000000; stroke-width: 0.8"/>
      </g>
     </g>
     <g id="text_12">
      <!-- 5000 -->
      <g transform="translate(24.72 43.589896) scale(0.1 -0.1)">
       <use xlink:href="#DejaVuSans-35"/>
       <use xlink:href="#DejaVuSans-30" x="63.623047"/>
       <use xlink:href="#DejaVuSans-30" x="127.246094"/>
       <use xlink:href="#DejaVuSans-30" x="190.869141"/>
      </g>
     </g>
    </g>
    <g id="text_13">
     <!-- Pixel Frequency -->
     <g transform="translate(18.640313 139.69224) rotate(-90) scale(0.1 -0.1)">
      <defs>
       <path id="DejaVuSans-50" d="M 1259 4147 
L 1259 2394 
L 2053 2394 
Q 2494 2394 2734 2622 
Q 2975 2850 2975 3272 
Q 2975 3691 2734 3919 
Q 2494 4147 2053 4147 
L 1259 4147 
z
M 628 4666 
L 2053 4666 
Q 2838 4666 3239 4311 
Q 3641 3956 3641 3272 
Q 3641 2581 3239 2228 
Q 2838 1875 2053 1875 
L 1259 1875 
L 1259 0 
L 628 0 
L 628 4666 
z
" transform="scale(0.015625)"/>
       <path id="DejaVuSans-69" d="M 603 3500 
L 1178 3500 
L 1178 0 
L 603 0 
L 603 3500 
z
M 603 4863 
L 1178 4863 
L 1178 4134 
L 603 4134 
L 603 4863 
z
" transform="scale(0.015625)"/>
       <path id="DejaVuSans-78" d="M 3513 3500 
L 2247 1797 
L 3578 0 
L 2900 0 
L 1881 1375 
L 863 0 
L 184 0 
L 1544 1831 
L 300 3500 
L 978 3500 
L 1906 2253 
L 2834 3500 
L 3513 3500 
z
" transform="scale(0.015625)"/>
       <path id="DejaVuSans-65" d="M 3597 1894 
L 3597 1613 
L 953 1613 
Q 991 1019 1311 708 
Q 1631 397 2203 397 
Q 2534 397 2845 478 
Q 3156 559 3463 722 
L 3463 178 
Q 3153 47 2828 -22 
Q 2503 -91 2169 -91 
Q 1331 -91 842 396 
Q 353 884 353 1716 
Q 353 2575 817 3079 
Q 1281 3584 2069 3584 
Q 2775 3584 3186 3129 
Q 3597 2675 3597 1894 
z
M 3022 2063 
Q 3016 2534 2758 2815 
Q 2500 3097 2075 3097 
Q 1594 3097 1305 2825 
Q 1016 2553 972 2059 
L 3022 2063 
z
" transform="scale(0.015625)"/>
       <path id="DejaVuSans-6c" d="M 603 4863 
L 1178 4863 
L 1178 0 
L 603 0 
L 603 4863 
z
" transform="scale(0.015625)"/>
       <path id="DejaVuSans-20" transform="scale(0.015625)"/>
       <path id="DejaVuSans-46" d="M 628 4666 
L 3309 4666 
L 3309 4134 
L 1259 4134 
L 1259 2759 
L 3109 2759 
L 3109 2228 
L 1259 2228 
L 1259 0 
L 628 0 
L 628 4666 
z
" transform="scale(0.015625)"/>
       <path id="DejaVuSans-72" d="M 2631 2963 
Q 2534 3019 2420 3045 
Q 2306 3072 2169 3072 
Q 1681 3072 1420 2755 
Q 1159 2438 1159 1844 
L 1159 0 
L 581 0 
L 581 3500 
L 1159 3500 
L 1159 2956 
Q 1341 3275 1631 3429 
Q 1922 3584 2338 3584 
Q 2397 3584 2469 3576 
Q 2541 3569 2628 3553 
L 2631 2963 
z
" transform="scale(0.015625)"/>
       <path id="DejaVuSans-71" d="M 947 1747 
Q 947 1113 1208 752 
Q 1469 391 1925 391 
Q 2381 391 2643 752 
Q 2906 1113 2906 1747 
Q 2906 2381 2643 2742 
Q 2381 3103 1925 3103 
Q 1469 3103 1208 2742 
Q 947 2381 947 1747 
z
M 2906 525 
Q 2725 213 2448 61 
Q 2172 -91 1784 -91 
Q 1150 -91 751 415 
Q 353 922 353 1747 
Q 353 2572 751 3078 
Q 1150 3584 1784 3584 
Q 2172 3584 2448 3432 
Q 2725 3281 2906 2969 
L 2906 3500 
L 3481 3500 
L 3481 -1331 
L 2906 -1331 
L 2906 525 
z
" transform="scale(0.015625)"/>
       <path id="DejaVuSans-75" d="M 544 1381 
L 544 3500 
L 1119 3500 
L 1119 1403 
Q 1119 906 1312 657 
Q 1506 409 1894 409 
Q 2359 409 2629 706 
Q 2900 1003 2900 1516 
L 2900 3500 
L 3475 3500 
L 3475 0 
L 2900 0 
L 2900 538 
Q 2691 219 2414 64 
Q 2138 -91 1772 -91 
Q 1169 -91 856 284 
Q 544 659 544 1381 
z
M 1991 3584 
L 1991 3584 
z
" transform="scale(0.015625)"/>
       <path id="DejaVuSans-6e" d="M 3513 2113 
L 3513 0 
L 2938 0 
L 2938 2094 
Q 2938 2591 2744 2837 
Q 2550 3084 2163 3084 
Q 1697 3084 1428 2787 
Q 1159 2491 1159 1978 
L 1159 0 
L 581 0 
L 581 3500 
L 1159 3500 
L 1159 2956 
Q 1366 3272 1645 3428 
Q 1925 3584 2291 3584 
Q 2894 3584 3203 3211 
Q 3513 2838 3513 2113 
z
" transform="scale(0.015625)"/>
       <path id="DejaVuSans-63" d="M 3122 3366 
L 3122 2828 
Q 2878 2963 2633 3030 
Q 2388 3097 2138 3097 
Q 1578 3097 1268 2742 
Q 959 2388 959 1747 
Q 959 1106 1268 751 
Q 1578 397 2138 397 
Q 2388 397 2633 464 
Q 2878 531 3122 666 
L 3122 134 
Q 2881 22 2623 -34 
Q 2366 -91 2075 -91 
Q 1284 -91 818 406 
Q 353 903 353 1747 
Q 353 2603 823 3093 
Q 1294 3584 2113 3584 
Q 2378 3584 2631 3529 
Q 2884 3475 3122 3366 
z
" transform="scale(0.015625)"/>
       <path id="DejaVuSans-79" d="M 2059 -325 
Q 1816 -950 1584 -1140 
Q 1353 -1331 966 -1331 
L 506 -1331 
L 506 -850 
L 844 -850 
Q 1081 -850 1212 -737 
Q 1344 -625 1503 -206 
L 1606 56 
L 191 3500 
L 800 3500 
L 1894 763 
L 2988 3500 
L 3597 3500 
L 2059 -325 
z
" transform="scale(0.015625)"/>
      </defs>
      <use xlink:href="#DejaVuSans-50"/>
      <use xlink:href="#DejaVuSans-69" x="58.052734"/>
      <use xlink:href="#DejaVuSans-78" x="85.835938"/>
      <use xlink:href="#DejaVuSans-65" x="141.890625"/>
      <use xlink:href="#DejaVuSans-6c" x="203.414062"/>
      <use xlink:href="#DejaVuSans-20" x="231.197266"/>
      <use xlink:href="#DejaVuSans-46" x="262.984375"/>
      <use xlink:href="#DejaVuSans-72" x="313.253906"/>
      <use xlink:href="#DejaVuSans-65" x="352.117188"/>
      <use xlink:href="#DejaVuSans-71" x="413.640625"/>
      <use xlink:href="#DejaVuSans-75" x="477.117188"/>
      <use xlink:href="#DejaVuSans-65" x="540.496094"/>
      <use xlink:href="#DejaVuSans-6e" x="602.019531"/>
      <use xlink:href="#DejaVuSans-63" x="665.398438"/>
      <use xlink:href="#DejaVuSans-79" x="720.378906"/>
     </g>
    </g>
   </g>
   <g id="line2d_13">
    <path d="M 57.17 190.626667 
L 96.743877 190.626667 
L 97.585874 189.932821 
L 98.427871 189.08814 
L 99.269869 182.08935 
L 100.111866 180.641324 
L 100.953864 175.362065 
L 101.795861 160.942144 
L 102.637858 136.32571 
L 103.479856 107.395368 
L 104.321853 90.441402 
L 105.16385 99.18989 
L 106.847845 128.633075 
L 107.689843 127.486721 
L 108.53184 114.062318 
L 109.373837 94.091633 
L 110.215835 101.180925 
L 111.057832 121.513616 
L 111.899829 119.43208 
L 112.741827 112.282454 
L 113.583824 136.627382 
L 114.425822 151.439477 
L 115.267819 133.701164 
L 116.109816 135.481029 
L 116.951814 180.339652 
L 117.793811 185.045735 
L 118.635808 186.101587 
L 119.477806 185.920584 
L 120.319803 186.644597 
L 121.161801 187.127272 
L 122.003798 186.222256 
L 122.845795 186.8256 
L 123.687793 186.433426 
L 124.52979 186.855767 
L 125.371787 186.523928 
L 126.213785 187.247941 
L 127.055782 187.097105 
L 127.89778 187.247941 
L 128.739777 187.670281 
L 129.581774 186.644597 
L 130.423772 187.549612 
L 131.265769 187.187606 
L 132.107766 187.428944 
L 132.949764 187.066937 
L 133.791761 187.700448 
L 134.633759 187.941786 
L 135.475756 187.549612 
L 136.317753 187.640114 
L 137.159751 187.971953 
L 138.001748 187.609947 
L 139.685743 188.394294 
L 140.52774 187.519445 
L 141.369738 187.57978 
L 142.211735 187.971953 
L 143.053732 187.941786 
L 143.89573 188.032288 
L 144.737727 188.394294 
L 145.579724 188.213291 
L 146.421722 188.454628 
L 147.263719 188.273625 
L 148.105717 188.635632 
L 149.789711 188.394294 
L 150.631709 188.54513 
L 151.473706 188.54513 
L 152.315703 188.695966 
L 153.157701 188.424461 
L 153.999698 188.665799 
L 154.841696 188.484796 
L 156.52569 188.726133 
L 157.367688 188.816635 
L 158.209685 188.514963 
L 159.89368 188.7563 
L 160.735677 188.695966 
L 161.577675 189.178641 
L 162.419672 188.967471 
L 163.261669 188.907136 
L 164.103667 189.359644 
L 166.629659 189.661316 
L 167.471656 189.08814 
L 168.313654 189.570815 
L 169.155651 189.08814 
L 169.997648 189.359644 
L 171.681643 189.08814 
L 173.365638 189.751818 
L 174.207635 189.450146 
L 175.049633 189.540648 
L 175.89163 189.359644 
L 176.733627 189.751818 
L 177.575625 189.419979 
L 178.417622 189.902654 
L 179.259619 189.661316 
L 180.101617 189.570815 
L 181.785612 189.84232 
L 182.627609 189.631149 
L 183.469606 189.661316 
L 184.311604 189.570815 
L 186.837596 189.902654 
L 188.521591 189.781985 
L 189.363588 189.902654 
L 190.205585 189.902654 
L 191.047583 190.113824 
L 191.88958 189.751818 
L 195.25757 190.023323 
L 196.099567 189.84232 
L 196.941564 190.174159 
L 197.783562 190.174159 
L 199.467556 189.932821 
L 200.309554 190.113824 
L 201.151551 189.993156 
L 201.993549 190.05349 
L 202.835546 190.26466 
L 203.677543 189.993156 
L 204.519541 190.174159 
L 205.361538 190.05349 
L 206.203535 190.234493 
L 207.045533 189.962988 
L 207.88753 190.204326 
L 212.939514 190.294827 
L 213.781512 190.023323 
L 214.623509 189.962988 
L 216.307504 190.26466 
L 217.149501 190.113824 
L 217.991499 190.294827 
L 218.833496 190.083657 
L 220.517491 190.113824 
L 221.359488 190.385329 
L 222.201486 190.415496 
L 223.043483 190.234493 
L 223.88548 190.234493 
L 224.727478 190.505998 
L 225.569475 190.355162 
L 226.411472 190.324995 
L 227.25347 190.445663 
L 228.095467 190.234493 
L 228.937465 190.415496 
L 229.779462 190.324995 
L 230.621459 190.445663 
L 232.305454 190.324995 
L 233.147451 190.385329 
L 233.989449 190.324995 
L 234.831446 190.415496 
L 235.673444 190.26466 
L 237.357438 190.355162 
L 238.199436 190.415496 
L 239.041433 190.324995 
L 239.88343 190.415496 
L 240.725428 190.385329 
L 242.409423 190.536165 
L 243.25142 190.475831 
L 244.093417 190.143992 
L 244.935415 190.445663 
L 246.619409 190.415496 
L 247.461407 190.475831 
L 249.145402 190.385329 
L 250.829396 190.536165 
L 251.671394 190.445663 
L 252.513391 190.596499 
L 254.197386 190.505998 
L 255.881381 190.536165 
L 256.723378 190.566332 
L 257.565375 190.475831 
L 260.091367 190.505998 
L 261.775362 190.385329 
L 264.301354 190.566332 
L 265.985349 190.505998 
L 266.827346 190.566332 
L 267.669344 190.475831 
L 268.511341 190.596499 
L 269.353339 190.536165 
L 270.195336 190.596499 
L 271.037333 190.475831 
L 271.879331 190.505998 
L 271.879331 190.505998 
" clip-path="url(#p8922328f24)" style="fill: none; stroke: #ff0000; stroke-width: 1.5; stroke-linecap: square"/>
   </g>
   <g id="patch_3">
    <path d="M 57.17 190.626667 
L 57.17 10.8 
" style="fill: none; stroke: #000000; stroke-width: 0.8; stroke-linejoin: miter; stroke-linecap: square"/>
   </g>
   <g id="patch_4">
    <path d="M 272.721328 190.626667 
L 272.721328 10.8 
" style="fill: none; stroke: #000000; stroke-width: 0.8; stroke-linejoin: miter; stroke-linecap: square"/>
   </g>
   <g id="patch_5">
    <path d="M 57.17 190.626667 
L 272.721328 190.626667 
" style="fill: none; stroke: #000000; stroke-width: 0.8; stroke-linejoin: miter; stroke-linecap: square"/>
   </g>
   <g id="patch_6">
    <path d="M 57.17 10.8 
L 272.721328 10.8 
" style="fill: none; stroke: #000000; stroke-width: 0.8; stroke-linejoin: miter; stroke-linecap: square"/>
   </g>
   <g id="text_14">
    <!-- Red Channel  -->
    <g transform="translate(193.028203 24.8) scale(0.12 -0.12)">
     <defs>
      <path id="DejaVuSans-52" d="M 2841 2188 
Q 3044 2119 3236 1894 
Q 3428 1669 3622 1275 
L 4263 0 
L 3584 0 
L 2988 1197 
Q 2756 1666 2539 1819 
Q 2322 1972 1947 1972 
L 1259 1972 
L 1259 0 
L 628 0 
L 628 4666 
L 2053 4666 
Q 2853 4666 3247 4331 
Q 3641 3997 3641 3322 
Q 3641 2881 3436 2590 
Q 3231 2300 2841 2188 
z
M 1259 4147 
L 1259 2491 
L 2053 2491 
Q 2509 2491 2742 2702 
Q 2975 2913 2975 3322 
Q 2975 3731 2742 3939 
Q 2509 4147 2053 4147 
L 1259 4147 
z
" transform="scale(0.015625)"/>
      <path id="DejaVuSans-64" d="M 2906 2969 
L 2906 4863 
L 3481 4863 
L 3481 0 
L 2906 0 
L 2906 525 
Q 2725 213 2448 61 
Q 2172 -91 1784 -91 
Q 1150 -91 751 415 
Q 353 922 353 1747 
Q 353 2572 751 3078 
Q 1150 3584 1784 3584 
Q 2172 3584 2448 3432 
Q 2725 3281 2906 2969 
z
M 947 1747 
Q 947 1113 1208 752 
Q 1469 391 1925 391 
Q 2381 391 2643 752 
Q 2906 1113 2906 1747 
Q 2906 2381 2643 2742 
Q 2381 3103 1925 3103 
Q 1469 3103 1208 2742 
Q 947 2381 947 1747 
z
" transform="scale(0.015625)"/>
      <path id="DejaVuSans-43" d="M 4122 4306 
L 4122 3641 
Q 3803 3938 3442 4084 
Q 3081 4231 2675 4231 
Q 1875 4231 1450 3742 
Q 1025 3253 1025 2328 
Q 1025 1406 1450 917 
Q 1875 428 2675 428 
Q 3081 428 3442 575 
Q 3803 722 4122 1019 
L 4122 359 
Q 3791 134 3420 21 
Q 3050 -91 2638 -91 
Q 1578 -91 968 557 
Q 359 1206 359 2328 
Q 359 3453 968 4101 
Q 1578 4750 2638 4750 
Q 3056 4750 3426 4639 
Q 3797 4528 4122 4306 
z
" transform="scale(0.015625)"/>
      <path id="DejaVuSans-68" d="M 3513 2113 
L 3513 0 
L 2938 0 
L 2938 2094 
Q 2938 2591 2744 2837 
Q 2550 3084 2163 3084 
Q 1697 3084 1428 2787 
Q 1159 2491 1159 1978 
L 1159 0 
L 581 0 
L 581 4863 
L 1159 4863 
L 1159 2956 
Q 1366 3272 1645 3428 
Q 1925 3584 2291 3584 
Q 2894 3584 3203 3211 
Q 3513 2838 3513 2113 
z
" transform="scale(0.015625)"/>
      <path id="DejaVuSans-61" d="M 2194 1759 
Q 1497 1759 1228 1600 
Q 959 1441 959 1056 
Q 959 750 1161 570 
Q 1363 391 1709 391 
Q 2188 391 2477 730 
Q 2766 1069 2766 1631 
L 2766 1759 
L 2194 1759 
z
M 3341 1997 
L 3341 0 
L 2766 0 
L 2766 531 
Q 2569 213 2275 61 
Q 1981 -91 1556 -91 
Q 1019 -91 701 211 
Q 384 513 384 1019 
Q 384 1609 779 1909 
Q 1175 2209 1959 2209 
L 2766 2209 
L 2766 2266 
Q 2766 2663 2505 2880 
Q 2244 3097 1772 3097 
Q 1472 3097 1187 3025 
Q 903 2953 641 2809 
L 641 3341 
Q 956 3463 1253 3523 
Q 1550 3584 1831 3584 
Q 2591 3584 2966 3190 
Q 3341 2797 3341 1997 
z
" transform="scale(0.015625)"/>
     </defs>
     <use xlink:href="#DejaVuSans-52"/>
     <use xlink:href="#DejaVuSans-65" x="64.982422"/>
     <use xlink:href="#DejaVuSans-64" x="126.505859"/>
     <use xlink:href="#DejaVuSans-20" x="189.982422"/>
     <use xlink:href="#DejaVuSans-43" x="221.769531"/>
     <use xlink:href="#DejaVuSans-68" x="291.59375"/>
     <use xlink:href="#DejaVuSans-61" x="354.972656"/>
     <use xlink:href="#DejaVuSans-6e" x="416.251953"/>
     <use xlink:href="#DejaVuSans-6e" x="479.630859"/>
     <use xlink:href="#DejaVuSans-65" x="543.009766"/>
     <use xlink:href="#DejaVuSans-6c" x="604.533203"/>
     <use xlink:href="#DejaVuSans-20" x="632.316406"/>
    </g>
   </g>
  </g>
  <g id="axes_2">
   <g id="patch_7">
    <path d="M 57.17 398.333333 
L 272.721328 398.333333 
L 272.721328 218.506667 
L 57.17 218.506667 
z
" style="fill: #ffffff"/>
   </g>
   <g id="PolyCollection_2">
    <defs>
     <path id="m3e55877be4" d="M 57.17 -249.666667 
L 57.17 -249.666667 
L 58.011997 -249.666667 
L 58.853995 -249.666667 
L 59.695992 -249.666667 
L 60.53799 -249.666667 
L 61.379987 -249.666667 
L 62.221984 -249.666667 
L 63.063982 -249.666667 
L 63.905979 -249.666667 
L 64.747976 -249.666667 
L 65.589974 -249.666667 
L 66.431971 -249.666667 
L 67.273969 -249.666667 
L 68.115966 -249.666667 
L 68.957963 -249.666667 
L 69.799961 -249.666667 
L 70.641958 -249.666667 
L 71.483955 -249.666667 
L 72.325953 -249.666667 
L 73.16795 -249.666667 
L 74.009948 -249.666667 
L 74.851945 -249.666667 
L 75.693942 -249.666667 
L 76.53594 -249.666667 
L 77.377937 -249.666667 
L 78.219934 -249.666667 
L 79.061932 -249.666667 
L 79.903929 -249.666667 
L 80.745927 -249.666667 
L 81.587924 -249.666667 
L 82.429921 -249.666667 
L 83.271919 -249.666667 
L 84.113916 -249.666667 
L 84.955913 -249.666667 
L 85.797911 -249.666667 
L 86.639908 -249.666667 
L 87.481906 -249.666667 
L 88.323903 -249.666667 
L 89.1659 -249.666667 
L 90.007898 -249.696834 
L 90.849895 -250.390679 
L 91.691892 -250.511348 
L 92.53389 -255.760441 
L 93.375887 -255.790608 
L 94.217885 -267.465313 
L 95.059882 -283.604764 
L 95.901879 -297.54201 
L 96.743877 -317.211023 
L 97.585874 -346.925713 
L 98.427871 -337.604049 
L 99.269869 -335.673348 
L 100.111866 -332.897966 
L 100.953864 -323.908141 
L 101.795861 -322.671286 
L 102.637858 -319.594231 
L 103.479856 -328.01088 
L 104.321853 -323.576302 
L 105.16385 -302.941938 
L 106.005848 -315.762997 
L 106.847845 -331.811947 
L 107.689843 -337.935888 
L 108.53184 -313.922798 
L 109.373837 -262.276555 
L 110.215835 -255.760441 
L 111.057832 -255.096762 
L 111.899829 -254.614087 
L 112.741827 -254.312415 
L 113.583824 -253.648737 
L 114.425822 -253.377232 
L 115.267819 -253.82974 
L 116.109816 -253.437566 
L 116.951814 -253.226396 
L 117.793811 -253.347065 
L 118.635808 -252.86439 
L 119.477806 -253.61857 
L 120.319803 -253.135894 
L 121.161801 -252.834222 
L 122.003798 -252.261046 
L 122.845795 -253.437566 
L 123.687793 -252.653219 
L 124.52979 -252.86439 
L 125.371787 -252.924724 
L 126.213785 -252.954891 
L 127.055782 -253.045393 
L 127.89778 -252.472216 
L 128.739777 -252.924724 
L 129.581774 -252.562718 
L 130.423772 -252.86439 
L 131.265769 -252.230878 
L 132.107766 -253.045393 
L 132.949764 -252.019708 
L 133.791761 -251.687869 
L 134.633759 -252.200711 
L 135.475756 -251.929207 
L 136.317753 -251.657702 
L 137.159751 -251.748203 
L 138.001748 -251.959374 
L 138.843745 -251.929207 
L 139.685743 -251.989541 
L 140.52774 -252.049875 
L 141.369738 -251.416364 
L 142.211735 -251.718036 
L 143.053732 -251.627535 
L 143.89573 -251.235361 
L 144.737727 -252.200711 
L 145.579724 -251.657702 
L 146.421722 -251.295695 
L 147.263719 -251.687869 
L 148.105717 -251.657702 
L 148.947714 -251.386197 
L 149.789711 -251.416364 
L 150.631709 -251.386197 
L 151.473706 -251.265528 
L 152.315703 -250.994023 
L 153.157701 -251.054358 
L 153.999698 -251.084525 
L 154.841696 -251.144859 
L 155.683693 -251.537033 
L 156.52569 -251.386197 
L 157.367688 -251.325863 
L 158.209685 -250.81302 
L 159.051682 -251.235361 
L 159.89368 -251.084525 
L 160.735677 -251.416364 
L 161.577675 -251.144859 
L 162.419672 -251.295695 
L 163.261669 -251.627535 
L 164.103667 -250.933689 
L 164.945664 -251.054358 
L 165.787661 -251.446531 
L 166.629659 -251.024191 
L 167.471656 -250.782853 
L 168.313654 -250.903522 
L 169.155651 -250.722519 
L 169.997648 -250.752686 
L 170.839646 -250.81302 
L 171.681643 -250.933689 
L 172.52364 -250.933689 
L 173.365638 -250.451014 
L 174.207635 -250.692351 
L 175.049633 -250.662184 
L 175.89163 -250.541515 
L 176.733627 -250.632017 
L 177.575625 -250.994023 
L 178.417622 -250.752686 
L 179.259619 -250.571683 
L 180.101617 -250.752686 
L 180.943614 -250.541515 
L 181.785612 -250.541515 
L 182.627609 -250.511348 
L 183.469606 -250.632017 
L 184.311604 -250.511348 
L 185.153601 -250.81302 
L 185.995598 -250.481181 
L 186.837596 -250.60185 
L 187.679593 -250.481181 
L 188.521591 -250.541515 
L 189.363588 -250.420847 
L 190.205585 -250.390679 
L 191.047583 -250.451014 
L 191.88958 -250.149342 
L 192.731577 -250.571683 
L 193.573575 -250.330345 
L 194.415572 -250.209676 
L 195.25757 -250.511348 
L 196.099567 -250.390679 
L 196.941564 -250.360512 
L 197.783562 -250.481181 
L 198.625559 -250.270011 
L 199.467556 -250.632017 
L 200.309554 -250.270011 
L 201.151551 -250.330345 
L 201.993549 -250.209676 
L 202.835546 -250.300178 
L 203.677543 -250.089007 
L 204.519541 -250.451014 
L 205.361538 -250.209676 
L 206.203535 -250.390679 
L 207.045533 -249.938171 
L 207.88753 -250.541515 
L 208.729528 -250.239843 
L 209.571525 -250.330345 
L 210.413522 -250.149342 
L 211.25552 -250.028673 
L 212.097517 -250.239843 
L 212.939514 -250.390679 
L 213.781512 -250.05884 
L 214.623509 -250.119175 
L 215.465507 -249.998506 
L 216.307504 -250.089007 
L 217.149501 -249.938171 
L 217.991499 -250.209676 
L 218.833496 -250.179509 
L 219.675493 -250.209676 
L 220.517491 -250.270011 
L 221.359488 -250.209676 
L 222.201486 -250.149342 
L 223.043483 -250.119175 
L 223.88548 -250.179509 
L 224.727478 -249.998506 
L 225.569475 -250.119175 
L 226.411472 -250.360512 
L 227.25347 -249.968339 
L 228.095467 -250.05884 
L 228.937465 -249.998506 
L 229.779462 -250.179509 
L 230.621459 -250.05884 
L 231.463457 -249.938171 
L 232.305454 -250.089007 
L 233.147451 -250.209676 
L 233.989449 -249.998506 
L 234.831446 -250.028673 
L 235.673444 -250.05884 
L 236.515441 -249.908004 
L 237.357438 -250.05884 
L 238.199436 -250.119175 
L 239.041433 -249.938171 
L 239.88343 -249.938171 
L 240.725428 -250.05884 
L 241.567425 -249.877837 
L 242.409423 -249.908004 
L 243.25142 -249.84767 
L 244.093417 -249.908004 
L 244.935415 -250.179509 
L 245.777412 -249.84767 
L 246.619409 -249.938171 
L 247.461407 -249.938171 
L 248.303404 -249.908004 
L 249.145402 -249.998506 
L 249.987399 -249.908004 
L 250.829396 -249.998506 
L 251.671394 -250.028673 
L 252.513391 -249.908004 
L 253.355388 -249.757168 
L 254.197386 -249.877837 
L 255.039383 -249.908004 
L 255.881381 -249.908004 
L 256.723378 -250.149342 
L 257.565375 -249.817503 
L 258.407373 -249.817503 
L 259.24937 -249.908004 
L 260.091367 -249.817503 
L 260.933365 -249.968339 
L 261.775362 -249.998506 
L 262.61736 -249.877837 
L 263.459357 -249.877837 
L 264.301354 -249.938171 
L 265.143352 -249.787335 
L 265.985349 -249.998506 
L 266.827346 -249.877837 
L 267.669344 -250.028673 
L 268.511341 -249.877837 
L 269.353339 -249.998506 
L 270.195336 -249.968339 
L 271.037333 -250.149342 
L 271.879331 -250.632017 
L 271.879331 -249.666667 
L 271.879331 -249.666667 
L 271.037333 -249.666667 
L 270.195336 -249.666667 
L 269.353339 -249.666667 
L 268.511341 -249.666667 
L 267.669344 -249.666667 
L 266.827346 -249.666667 
L 265.985349 -249.666667 
L 265.143352 -249.666667 
L 264.301354 -249.666667 
L 263.459357 -249.666667 
L 262.61736 -249.666667 
L 261.775362 -249.666667 
L 260.933365 -249.666667 
L 260.091367 -249.666667 
L 259.24937 -249.666667 
L 258.407373 -249.666667 
L 257.565375 -249.666667 
L 256.723378 -249.666667 
L 255.881381 -249.666667 
L 255.039383 -249.666667 
L 254.197386 -249.666667 
L 253.355388 -249.666667 
L 252.513391 -249.666667 
L 251.671394 -249.666667 
L 250.829396 -249.666667 
L 249.987399 -249.666667 
L 249.145402 -249.666667 
L 248.303404 -249.666667 
L 247.461407 -249.666667 
L 246.619409 -249.666667 
L 245.777412 -249.666667 
L 244.935415 -249.666667 
L 244.093417 -249.666667 
L 243.25142 -249.666667 
L 242.409423 -249.666667 
L 241.567425 -249.666667 
L 240.725428 -249.666667 
L 239.88343 -249.666667 
L 239.041433 -249.666667 
L 238.199436 -249.666667 
L 237.357438 -249.666667 
L 236.515441 -249.666667 
L 235.673444 -249.666667 
L 234.831446 -249.666667 
L 233.989449 -249.666667 
L 233.147451 -249.666667 
L 232.305454 -249.666667 
L 231.463457 -249.666667 
L 230.621459 -249.666667 
L 229.779462 -249.666667 
L 228.937465 -249.666667 
L 228.095467 -249.666667 
L 227.25347 -249.666667 
L 226.411472 -249.666667 
L 225.569475 -249.666667 
L 224.727478 -249.666667 
L 223.88548 -249.666667 
L 223.043483 -249.666667 
L 222.201486 -249.666667 
L 221.359488 -249.666667 
L 220.517491 -249.666667 
L 219.675493 -249.666667 
L 218.833496 -249.666667 
L 217.991499 -249.666667 
L 217.149501 -249.666667 
L 216.307504 -249.666667 
L 215.465507 -249.666667 
L 214.623509 -249.666667 
L 213.781512 -249.666667 
L 212.939514 -249.666667 
L 212.097517 -249.666667 
L 211.25552 -249.666667 
L 210.413522 -249.666667 
L 209.571525 -249.666667 
L 208.729528 -249.666667 
L 207.88753 -249.666667 
L 207.045533 -249.666667 
L 206.203535 -249.666667 
L 205.361538 -249.666667 
L 204.519541 -249.666667 
L 203.677543 -249.666667 
L 202.835546 -249.666667 
L 201.993549 -249.666667 
L 201.151551 -249.666667 
L 200.309554 -249.666667 
L 199.467556 -249.666667 
L 198.625559 -249.666667 
L 197.783562 -249.666667 
L 196.941564 -249.666667 
L 196.099567 -249.666667 
L 195.25757 -249.666667 
L 194.415572 -249.666667 
L 193.573575 -249.666667 
L 192.731577 -249.666667 
L 191.88958 -249.666667 
L 191.047583 -249.666667 
L 190.205585 -249.666667 
L 189.363588 -249.666667 
L 188.521591 -249.666667 
L 187.679593 -249.666667 
L 186.837596 -249.666667 
L 185.995598 -249.666667 
L 185.153601 -249.666667 
L 184.311604 -249.666667 
L 183.469606 -249.666667 
L 182.627609 -249.666667 
L 181.785612 -249.666667 
L 180.943614 -249.666667 
L 180.101617 -249.666667 
L 179.259619 -249.666667 
L 178.417622 -249.666667 
L 177.575625 -249.666667 
L 176.733627 -249.666667 
L 175.89163 -249.666667 
L 175.049633 -249.666667 
L 174.207635 -249.666667 
L 173.365638 -249.666667 
L 172.52364 -249.666667 
L 171.681643 -249.666667 
L 170.839646 -249.666667 
L 169.997648 -249.666667 
L 169.155651 -249.666667 
L 168.313654 -249.666667 
L 167.471656 -249.666667 
L 166.629659 -249.666667 
L 165.787661 -249.666667 
L 164.945664 -249.666667 
L 164.103667 -249.666667 
L 163.261669 -249.666667 
L 162.419672 -249.666667 
L 161.577675 -249.666667 
L 160.735677 -249.666667 
L 159.89368 -249.666667 
L 159.051682 -249.666667 
L 158.209685 -249.666667 
L 157.367688 -249.666667 
L 156.52569 -249.666667 
L 155.683693 -249.666667 
L 154.841696 -249.666667 
L 153.999698 -249.666667 
L 153.157701 -249.666667 
L 152.315703 -249.666667 
L 151.473706 -249.666667 
L 150.631709 -249.666667 
L 149.789711 -249.666667 
L 148.947714 -249.666667 
L 148.105717 -249.666667 
L 147.263719 -249.666667 
L 146.421722 -249.666667 
L 145.579724 -249.666667 
L 144.737727 -249.666667 
L 143.89573 -249.666667 
L 143.053732 -249.666667 
L 142.211735 -249.666667 
L 141.369738 -249.666667 
L 140.52774 -249.666667 
L 139.685743 -249.666667 
L 138.843745 -249.666667 
L 138.001748 -249.666667 
L 137.159751 -249.666667 
L 136.317753 -249.666667 
L 135.475756 -249.666667 
L 134.633759 -249.666667 
L 133.791761 -249.666667 
L 132.949764 -249.666667 
L 132.107766 -249.666667 
L 131.265769 -249.666667 
L 130.423772 -249.666667 
L 129.581774 -249.666667 
L 128.739777 -249.666667 
L 127.89778 -249.666667 
L 127.055782 -249.666667 
L 126.213785 -249.666667 
L 125.371787 -249.666667 
L 124.52979 -249.666667 
L 123.687793 -249.666667 
L 122.845795 -249.666667 
L 122.003798 -249.666667 
L 121.161801 -249.666667 
L 120.319803 -249.666667 
L 119.477806 -249.666667 
L 118.635808 -249.666667 
L 117.793811 -249.666667 
L 116.951814 -249.666667 
L 116.109816 -249.666667 
L 115.267819 -249.666667 
L 114.425822 -249.666667 
L 113.583824 -249.666667 
L 112.741827 -249.666667 
L 111.899829 -249.666667 
L 111.057832 -249.666667 
L 110.215835 -249.666667 
L 109.373837 -249.666667 
L 108.53184 -249.666667 
L 107.689843 -249.666667 
L 106.847845 -249.666667 
L 106.005848 -249.666667 
L 105.16385 -249.666667 
L 104.321853 -249.666667 
L 103.479856 -249.666667 
L 102.637858 -249.666667 
L 101.795861 -249.666667 
L 100.953864 -249.666667 
L 100.111866 -249.666667 
L 99.269869 -249.666667 
L 98.427871 -249.666667 
L 97.585874 -249.666667 
L 96.743877 -249.666667 
L 95.901879 -249.666667 
L 95.059882 -249.666667 
L 94.217885 -249.666667 
L 93.375887 -249.666667 
L 92.53389 -249.666667 
L 91.691892 -249.666667 
L 90.849895 -249.666667 
L 90.007898 -249.666667 
L 89.1659 -249.666667 
L 88.323903 -249.666667 
L 87.481906 -249.666667 
L 86.639908 -249.666667 
L 85.797911 -249.666667 
L 84.955913 -249.666667 
L 84.113916 -249.666667 
L 83.271919 -249.666667 
L 82.429921 -249.666667 
L 81.587924 -249.666667 
L 80.745927 -249.666667 
L 79.903929 -249.666667 
L 79.061932 -249.666667 
L 78.219934 -249.666667 
L 77.377937 -249.666667 
L 76.53594 -249.666667 
L 75.693942 -249.666667 
L 74.851945 -249.666667 
L 74.009948 -249.666667 
L 73.16795 -249.666667 
L 72.325953 -249.666667 
L 71.483955 -249.666667 
L 70.641958 -249.666667 
L 69.799961 -249.666667 
L 68.957963 -249.666667 
L 68.115966 -249.666667 
L 67.273969 -249.666667 
L 66.431971 -249.666667 
L 65.589974 -249.666667 
L 64.747976 -249.666667 
L 63.905979 -249.666667 
L 63.063982 -249.666667 
L 62.221984 -249.666667 
L 61.379987 -249.666667 
L 60.53799 -249.666667 
L 59.695992 -249.666667 
L 58.853995 -249.666667 
L 58.011997 -249.666667 
L 57.17 -249.666667 
z
" style="stroke: #008000; stroke-opacity: 0.4"/>
    </defs>
    <g clip-path="url(#p301d16e82f)">
     <use xlink:href="#m3e55877be4" x="0" y="648" style="fill: #008000; fill-opacity: 0.4; stroke: #008000; stroke-opacity: 0.4"/>
    </g>
   </g>
   <g id="matplotlib.axis_3">
    <g id="xtick_7">
     <g id="line2d_14">
      <g>
       <use xlink:href="#m52dfd1083b" x="57.17" y="398.333333" style="stroke: #000000; stroke-width: 0.8"/>
      </g>
     </g>
     <g id="text_15">
      <!-- 0 -->
      <g transform="translate(53.98875 412.931771) scale(0.1 -0.1)">
       <use xlink:href="#DejaVuSans-30"/>
      </g>
     </g>
    </g>
    <g id="xtick_8">
     <g id="line2d_15">
      <g>
       <use xlink:href="#m52dfd1083b" x="99.269869" y="398.333333" style="stroke: #000000; stroke-width: 0.8"/>
      </g>
     </g>
     <g id="text_16">
      <!-- 50 -->
      <g transform="translate(92.907369 412.931771) scale(0.1 -0.1)">
       <use xlink:href="#DejaVuSans-35"/>
       <use xlink:href="#DejaVuSans-30" x="63.623047"/>
      </g>
     </g>
    </g>
    <g id="xtick_9">
     <g id="line2d_16">
      <g>
       <use xlink:href="#m52dfd1083b" x="141.369738" y="398.333333" style="stroke: #000000; stroke-width: 0.8"/>
      </g>
     </g>
     <g id="text_17">
      <!-- 100 -->
      <g transform="translate(131.825988 412.931771) scale(0.1 -0.1)">
       <use xlink:href="#DejaVuSans-31"/>
       <use xlink:href="#DejaVuSans-30" x="63.623047"/>
       <use xlink:href="#DejaVuSans-30" x="127.246094"/>
      </g>
     </g>
    </g>
    <g id="xtick_10">
     <g id="line2d_17">
      <g>
       <use xlink:href="#m52dfd1083b" x="183.469606" y="398.333333" style="stroke: #000000; stroke-width: 0.8"/>
      </g>
     </g>
     <g id="text_18">
      <!-- 150 -->
      <g transform="translate(173.925856 412.931771) scale(0.1 -0.1)">
       <use xlink:href="#DejaVuSans-31"/>
       <use xlink:href="#DejaVuSans-35" x="63.623047"/>
       <use xlink:href="#DejaVuSans-30" x="127.246094"/>
      </g>
     </g>
    </g>
    <g id="xtick_11">
     <g id="line2d_18">
      <g>
       <use xlink:href="#m52dfd1083b" x="225.569475" y="398.333333" style="stroke: #000000; stroke-width: 0.8"/>
      </g>
     </g>
     <g id="text_19">
      <!-- 200 -->
      <g transform="translate(216.025725 412.931771) scale(0.1 -0.1)">
       <use xlink:href="#DejaVuSans-32"/>
       <use xlink:href="#DejaVuSans-30" x="63.623047"/>
       <use xlink:href="#DejaVuSans-30" x="127.246094"/>
      </g>
     </g>
    </g>
    <g id="xtick_12">
     <g id="line2d_19">
      <g>
       <use xlink:href="#m52dfd1083b" x="267.669344" y="398.333333" style="stroke: #000000; stroke-width: 0.8"/>
      </g>
     </g>
     <g id="text_20">
      <!-- 250 -->
      <g transform="translate(258.125594 412.931771) scale(0.1 -0.1)">
       <use xlink:href="#DejaVuSans-32"/>
       <use xlink:href="#DejaVuSans-35" x="63.623047"/>
       <use xlink:href="#DejaVuSans-30" x="127.246094"/>
      </g>
     </g>
    </g>
   </g>
   <g id="matplotlib.axis_4">
    <g id="ytick_7">
     <g id="line2d_20">
      <g>
       <use xlink:href="#m8b4859707a" x="57.17" y="398.333333" style="stroke: #000000; stroke-width: 0.8"/>
      </g>
     </g>
     <g id="text_21">
      <!-- 0 -->
      <g transform="translate(43.8075 402.132552) scale(0.1 -0.1)">
       <use xlink:href="#DejaVuSans-30"/>
      </g>
     </g>
    </g>
    <g id="ytick_8">
     <g id="line2d_21">
      <g>
       <use xlink:href="#m8b4859707a" x="57.17" y="368.166135" style="stroke: #000000; stroke-width: 0.8"/>
      </g>
     </g>
     <g id="text_22">
      <!-- 1000 -->
      <g transform="translate(24.72 371.965354) scale(0.1 -0.1)">
       <use xlink:href="#DejaVuSans-31"/>
       <use xlink:href="#DejaVuSans-30" x="63.623047"/>
       <use xlink:href="#DejaVuSans-30" x="127.246094"/>
       <use xlink:href="#DejaVuSans-30" x="190.869141"/>
      </g>
     </g>
    </g>
    <g id="ytick_9">
     <g id="line2d_22">
      <g>
       <use xlink:href="#m8b4859707a" x="57.17" y="337.998938" style="stroke: #000000; stroke-width: 0.8"/>
      </g>
     </g>
     <g id="text_23">
      <!-- 2000 -->
      <g transform="translate(24.72 341.798156) scale(0.1 -0.1)">
       <use xlink:href="#DejaVuSans-32"/>
       <use xlink:href="#DejaVuSans-30" x="63.623047"/>
       <use xlink:href="#DejaVuSans-30" x="127.246094"/>
       <use xlink:href="#DejaVuSans-30" x="190.869141"/>
      </g>
     </g>
    </g>
    <g id="ytick_10">
     <g id="line2d_23">
      <g>
       <use xlink:href="#m8b4859707a" x="57.17" y="307.83174" style="stroke: #000000; stroke-width: 0.8"/>
      </g>
     </g>
     <g id="text_24">
      <!-- 3000 -->
      <g transform="translate(24.72 311.630958) scale(0.1 -0.1)">
       <use xlink:href="#DejaVuSans-33"/>
       <use xlink:href="#DejaVuSans-30" x="63.623047"/>
       <use xlink:href="#DejaVuSans-30" x="127.246094"/>
       <use xlink:href="#DejaVuSans-30" x="190.869141"/>
      </g>
     </g>
    </g>
    <g id="ytick_11">
     <g id="line2d_24">
      <g>
       <use xlink:href="#m8b4859707a" x="57.17" y="277.664542" style="stroke: #000000; stroke-width: 0.8"/>
      </g>
     </g>
     <g id="text_25">
      <!-- 4000 -->
      <g transform="translate(24.72 281.46376) scale(0.1 -0.1)">
       <use xlink:href="#DejaVuSans-34"/>
       <use xlink:href="#DejaVuSans-30" x="63.623047"/>
       <use xlink:href="#DejaVuSans-30" x="127.246094"/>
       <use xlink:href="#DejaVuSans-30" x="190.869141"/>
      </g>
     </g>
    </g>
    <g id="ytick_12">
     <g id="line2d_25">
      <g>
       <use xlink:href="#m8b4859707a" x="57.17" y="247.497344" style="stroke: #000000; stroke-width: 0.8"/>
      </g>
     </g>
     <g id="text_26">
      <!-- 5000 -->
      <g transform="translate(24.72 251.296563) scale(0.1 -0.1)">
       <use xlink:href="#DejaVuSans-35"/>
       <use xlink:href="#DejaVuSans-30" x="63.623047"/>
       <use xlink:href="#DejaVuSans-30" x="127.246094"/>
       <use xlink:href="#DejaVuSans-30" x="190.869141"/>
      </g>
     </g>
    </g>
    <g id="text_27">
     <!-- Pixel Frequency -->
     <g transform="translate(18.640313 347.398906) rotate(-90) scale(0.1 -0.1)">
      <use xlink:href="#DejaVuSans-50"/>
      <use xlink:href="#DejaVuSans-69" x="58.052734"/>
      <use xlink:href="#DejaVuSans-78" x="85.835938"/>
      <use xlink:href="#DejaVuSans-65" x="141.890625"/>
      <use xlink:href="#DejaVuSans-6c" x="203.414062"/>
      <use xlink:href="#DejaVuSans-20" x="231.197266"/>
      <use xlink:href="#DejaVuSans-46" x="262.984375"/>
      <use xlink:href="#DejaVuSans-72" x="313.253906"/>
      <use xlink:href="#DejaVuSans-65" x="352.117188"/>
      <use xlink:href="#DejaVuSans-71" x="413.640625"/>
      <use xlink:href="#DejaVuSans-75" x="477.117188"/>
      <use xlink:href="#DejaVuSans-65" x="540.496094"/>
      <use xlink:href="#DejaVuSans-6e" x="602.019531"/>
      <use xlink:href="#DejaVuSans-63" x="665.398438"/>
      <use xlink:href="#DejaVuSans-79" x="720.378906"/>
     </g>
    </g>
   </g>
   <g id="line2d_26">
    <path d="M 57.17 398.333333 
L 90.007898 398.303166 
L 90.849895 397.609321 
L 91.691892 397.488652 
L 92.53389 392.239559 
L 93.375887 392.209392 
L 94.217885 380.534687 
L 95.059882 364.395236 
L 95.901879 350.45799 
L 96.743877 330.788977 
L 97.585874 301.074287 
L 98.427871 310.395951 
L 99.269869 312.326652 
L 100.111866 315.102034 
L 100.953864 324.091859 
L 101.795861 325.328714 
L 102.637858 328.405769 
L 103.479856 319.98912 
L 104.321853 324.423698 
L 105.16385 345.058062 
L 106.005848 332.237003 
L 106.847845 316.188053 
L 107.689843 310.064112 
L 108.53184 334.077202 
L 109.373837 385.723445 
L 110.215835 392.239559 
L 111.057832 392.903238 
L 111.899829 393.385913 
L 112.741827 393.687585 
L 113.583824 394.351263 
L 114.425822 394.622768 
L 115.267819 394.17026 
L 116.109816 394.562434 
L 116.951814 394.773604 
L 117.793811 394.652935 
L 118.635808 395.13561 
L 119.477806 394.38143 
L 120.319803 394.864106 
L 121.161801 395.165778 
L 122.003798 395.738954 
L 122.845795 394.562434 
L 123.687793 395.346781 
L 124.52979 395.13561 
L 127.055782 394.954607 
L 127.89778 395.527784 
L 128.739777 395.075276 
L 129.581774 395.437282 
L 130.423772 395.13561 
L 131.265769 395.769122 
L 132.107766 394.954607 
L 132.949764 395.980292 
L 133.791761 396.312131 
L 134.633759 395.799289 
L 136.317753 396.342298 
L 137.159751 396.251797 
L 138.001748 396.040626 
L 139.685743 396.010459 
L 140.52774 395.950125 
L 141.369738 396.583636 
L 142.211735 396.281964 
L 143.053732 396.372465 
L 143.89573 396.764639 
L 144.737727 395.799289 
L 145.579724 396.342298 
L 146.421722 396.704305 
L 147.263719 396.312131 
L 148.105717 396.342298 
L 148.947714 396.613803 
L 150.631709 396.613803 
L 151.473706 396.734472 
L 152.315703 397.005977 
L 154.841696 396.855141 
L 155.683693 396.462967 
L 157.367688 396.674137 
L 158.209685 397.18698 
L 159.051682 396.764639 
L 159.89368 396.915475 
L 160.735677 396.583636 
L 161.577675 396.855141 
L 162.419672 396.704305 
L 163.261669 396.372465 
L 164.103667 397.066311 
L 164.945664 396.945642 
L 165.787661 396.553469 
L 166.629659 396.975809 
L 167.471656 397.217147 
L 168.313654 397.096478 
L 169.155651 397.277481 
L 170.839646 397.18698 
L 171.681643 397.066311 
L 172.52364 397.066311 
L 173.365638 397.548986 
L 174.207635 397.307649 
L 176.733627 397.367983 
L 177.575625 397.005977 
L 179.259619 397.428317 
L 180.101617 397.247314 
L 180.943614 397.458485 
L 184.311604 397.488652 
L 185.153601 397.18698 
L 185.995598 397.518819 
L 186.837596 397.39815 
L 187.679593 397.518819 
L 188.521591 397.458485 
L 190.205585 397.609321 
L 191.047583 397.548986 
L 191.88958 397.850658 
L 192.731577 397.428317 
L 193.573575 397.669655 
L 194.415572 397.790324 
L 195.25757 397.488652 
L 196.941564 397.639488 
L 197.783562 397.518819 
L 198.625559 397.729989 
L 199.467556 397.367983 
L 200.309554 397.729989 
L 201.151551 397.669655 
L 201.993549 397.790324 
L 202.835546 397.699822 
L 203.677543 397.910993 
L 204.519541 397.548986 
L 205.361538 397.790324 
L 206.203535 397.609321 
L 207.045533 398.061829 
L 207.88753 397.458485 
L 208.729528 397.760157 
L 209.571525 397.669655 
L 211.25552 397.971327 
L 212.939514 397.609321 
L 213.781512 397.94116 
L 214.623509 397.880825 
L 215.465507 398.001494 
L 216.307504 397.910993 
L 217.149501 398.061829 
L 217.991499 397.790324 
L 219.675493 397.790324 
L 220.517491 397.729989 
L 223.043483 397.880825 
L 223.88548 397.820491 
L 224.727478 398.001494 
L 225.569475 397.880825 
L 226.411472 397.639488 
L 227.25347 398.031661 
L 228.095467 397.94116 
L 228.937465 398.001494 
L 229.779462 397.820491 
L 231.463457 398.061829 
L 233.147451 397.790324 
L 233.989449 398.001494 
L 235.673444 397.94116 
L 236.515441 398.091996 
L 238.199436 397.880825 
L 239.041433 398.061829 
L 239.88343 398.061829 
L 240.725428 397.94116 
L 241.567425 398.122163 
L 244.093417 398.091996 
L 244.935415 397.820491 
L 245.777412 398.15233 
L 247.461407 398.061829 
L 248.303404 398.091996 
L 249.145402 398.001494 
L 249.987399 398.091996 
L 251.671394 397.971327 
L 253.355388 398.242832 
L 255.039383 398.091996 
L 255.881381 398.091996 
L 256.723378 397.850658 
L 257.565375 398.182497 
L 260.091367 398.182497 
L 260.933365 398.031661 
L 261.775362 398.001494 
L 262.61736 398.122163 
L 265.143352 398.212665 
L 265.985349 398.001494 
L 266.827346 398.122163 
L 267.669344 397.971327 
L 268.511341 398.122163 
L 269.353339 398.001494 
L 270.195336 398.031661 
L 271.037333 397.850658 
L 271.879331 397.367983 
L 271.879331 397.367983 
" clip-path="url(#p301d16e82f)" style="fill: none; stroke: #008000; stroke-width: 1.5; stroke-linecap: square"/>
   </g>
   <g id="patch_8">
    <path d="M 57.17 398.333333 
L 57.17 218.506667 
" style="fill: none; stroke: #000000; stroke-width: 0.8; stroke-linejoin: miter; stroke-linecap: square"/>
   </g>
   <g id="patch_9">
    <path d="M 272.721328 398.333333 
L 272.721328 218.506667 
" style="fill: none; stroke: #000000; stroke-width: 0.8; stroke-linejoin: miter; stroke-linecap: square"/>
   </g>
   <g id="patch_10">
    <path d="M 57.17 398.333333 
L 272.721328 398.333333 
" style="fill: none; stroke: #000000; stroke-width: 0.8; stroke-linejoin: miter; stroke-linecap: square"/>
   </g>
   <g id="patch_11">
    <path d="M 57.17 218.506667 
L 272.721328 218.506667 
" style="fill: none; stroke: #000000; stroke-width: 0.8; stroke-linejoin: miter; stroke-linecap: square"/>
   </g>
   <g id="text_28">
    <!-- Green Channel  -->
    <g transform="translate(179.494453 232.506667) scale(0.12 -0.12)">
     <defs>
      <path id="DejaVuSans-47" d="M 3809 666 
L 3809 1919 
L 2778 1919 
L 2778 2438 
L 4434 2438 
L 4434 434 
Q 4069 175 3628 42 
Q 3188 -91 2688 -91 
Q 1594 -91 976 548 
Q 359 1188 359 2328 
Q 359 3472 976 4111 
Q 1594 4750 2688 4750 
Q 3144 4750 3555 4637 
Q 3966 4525 4313 4306 
L 4313 3634 
Q 3963 3931 3569 4081 
Q 3175 4231 2741 4231 
Q 1884 4231 1454 3753 
Q 1025 3275 1025 2328 
Q 1025 1384 1454 906 
Q 1884 428 2741 428 
Q 3075 428 3337 486 
Q 3600 544 3809 666 
z
" transform="scale(0.015625)"/>
     </defs>
     <use xlink:href="#DejaVuSans-47"/>
     <use xlink:href="#DejaVuSans-72" x="77.490234"/>
     <use xlink:href="#DejaVuSans-65" x="116.353516"/>
     <use xlink:href="#DejaVuSans-65" x="177.876953"/>
     <use xlink:href="#DejaVuSans-6e" x="239.400391"/>
     <use xlink:href="#DejaVuSans-20" x="302.779297"/>
     <use xlink:href="#DejaVuSans-43" x="334.566406"/>
     <use xlink:href="#DejaVuSans-68" x="404.390625"/>
     <use xlink:href="#DejaVuSans-61" x="467.769531"/>
     <use xlink:href="#DejaVuSans-6e" x="529.048828"/>
     <use xlink:href="#DejaVuSans-6e" x="592.427734"/>
     <use xlink:href="#DejaVuSans-65" x="655.806641"/>
     <use xlink:href="#DejaVuSans-6c" x="717.330078"/>
     <use xlink:href="#DejaVuSans-20" x="745.113281"/>
    </g>
   </g>
  </g>
  <g id="axes_3">
   <g id="patch_12">
    <path d="M 57.17 606.04 
L 272.721328 606.04 
L 272.721328 426.213333 
L 57.17 426.213333 
z
" style="fill: #ffffff"/>
   </g>
   <g id="PolyCollection_3">
    <defs>
     <path id="m0668175401" d="M 57.17 -41.96 
L 57.17 -41.96 
L 58.011997 -41.96 
L 58.853995 -41.96 
L 59.695992 -41.96 
L 60.53799 -41.96 
L 61.379987 -41.96 
L 62.221984 -41.96 
L 63.063982 -41.96 
L 63.905979 -41.96 
L 64.747976 -41.96 
L 65.589974 -41.96 
L 66.431971 -41.96 
L 67.273969 -41.96 
L 68.115966 -41.96 
L 68.957963 -41.96 
L 69.799961 -41.96 
L 70.641958 -41.96 
L 71.483955 -41.96 
L 72.325953 -41.96 
L 73.16795 -41.96 
L 74.009948 -41.96 
L 74.851945 -41.96 
L 75.693942 -42.110836 
L 76.53594 -42.865016 
L 77.377937 -46.666083 
L 78.219934 -57.978782 
L 79.061932 -83.439897 
L 79.903929 -160.336085 
L 80.745927 -220.851484 
L 81.587924 -221.786667 
L 82.429921 -192.705488 
L 83.271919 -170.381761 
L 84.113916 -174.122494 
L 84.955913 -207.668418 
L 85.797911 -164.348322 
L 86.639908 -72.670207 
L 87.481906 -54.087214 
L 88.323903 -50.376648 
L 89.1659 -49.773304 
L 90.007898 -48.777787 
L 90.849895 -49.109626 
L 91.691892 -48.657118 
L 92.53389 -47.872771 
L 93.375887 -48.20461 
L 94.217885 -47.359928 
L 95.059882 -47.359928 
L 95.901879 -47.088424 
L 96.743877 -47.812436 
L 97.585874 -47.058256 
L 98.427871 -46.90742 
L 99.269869 -47.480597 
L 100.111866 -47.299594 
L 100.953864 -46.243742 
L 101.795861 -46.002405 
L 102.637858 -46.002405 
L 103.479856 -45.549897 
L 104.321853 -45.489562 
L 105.16385 -45.489562 
L 106.005848 -45.18789 
L 106.847845 -44.97672 
L 107.689843 -45.157723 
L 108.53184 -44.886218 
L 109.373837 -44.675048 
L 110.215835 -44.856051 
L 111.057832 -44.916385 
L 111.899829 -44.494045 
L 112.741827 -44.735382 
L 113.583824 -44.252707 
L 114.425822 -44.554379 
L 115.267819 -44.494045 
L 116.109816 -44.343209 
L 116.951814 -44.22254 
L 117.793811 -44.343209 
L 118.635808 -44.071704 
L 119.477806 -44.132038 
L 120.319803 -44.313041 
L 121.161801 -43.860533 
L 122.003798 -43.498527 
L 122.845795 -43.981202 
L 123.687793 -43.528694 
L 124.52979 -43.649363 
L 125.371787 -43.67953 
L 126.213785 -43.46836 
L 127.055782 -43.408025 
L 127.89778 -43.438193 
L 128.739777 -43.347691 
L 129.581774 -43.619196 
L 130.423772 -43.709697 
L 131.265769 -43.227022 
L 132.107766 -43.528694 
L 132.949764 -43.227022 
L 133.791761 -43.046019 
L 134.633759 -43.166688 
L 135.475756 -42.865016 
L 136.317753 -43.196855 
L 137.159751 -43.106354 
L 138.001748 -43.076186 
L 138.843745 -42.92535 
L 139.685743 -42.804682 
L 140.52774 -43.227022 
L 141.369738 -42.895183 
L 142.211735 -42.955518 
L 143.053732 -43.046019 
L 143.89573 -42.865016 
L 144.737727 -43.046019 
L 145.579724 -42.774514 
L 146.421722 -42.804682 
L 147.263719 -42.834849 
L 148.105717 -42.774514 
L 148.947714 -42.563344 
L 149.789711 -43.076186 
L 150.631709 -42.593511 
L 151.473706 -42.412508 
L 152.315703 -42.744347 
L 153.157701 -42.472842 
L 153.999698 -42.653846 
L 154.841696 -42.563344 
L 155.683693 -42.774514 
L 156.52569 -42.653846 
L 157.367688 -42.623678 
L 158.209685 -42.533177 
L 159.051682 -42.71418 
L 159.89368 -42.382341 
L 160.735677 -42.50301 
L 161.577675 -42.50301 
L 162.419672 -42.412508 
L 163.261669 -42.593511 
L 164.103667 -42.201338 
L 164.945664 -42.593511 
L 165.787661 -42.653846 
L 166.629659 -42.50301 
L 167.471656 -42.322006 
L 168.313654 -42.352174 
L 169.155651 -42.442675 
L 169.997648 -42.322006 
L 170.839646 -42.412508 
L 171.681643 -42.382341 
L 172.52364 -42.141003 
L 173.365638 -42.261672 
L 174.207635 -42.382341 
L 175.049633 -42.382341 
L 175.89163 -42.261672 
L 176.733627 -42.322006 
L 177.575625 -42.141003 
L 178.417622 -42.472842 
L 179.259619 -42.201338 
L 180.101617 -42.291839 
L 180.943614 -42.110836 
L 181.785612 -42.322006 
L 182.627609 -42.261672 
L 183.469606 -42.201338 
L 184.311604 -42.231505 
L 185.153601 -42.261672 
L 185.995598 -42.382341 
L 186.837596 -42.382341 
L 187.679593 -42.141003 
L 188.521591 -42.080669 
L 189.363588 -42.201338 
L 190.205585 -42.231505 
L 191.047583 -42.141003 
L 191.88958 -42.291839 
L 192.731577 -42.231505 
L 193.573575 -42.080669 
L 194.415572 -42.141003 
L 195.25757 -42.17117 
L 196.099567 -42.141003 
L 196.941564 -42.17117 
L 197.783562 -42.080669 
L 198.625559 -42.080669 
L 199.467556 -42.141003 
L 200.309554 -42.050502 
L 201.151551 -41.96 
L 201.993549 -41.990167 
L 202.835546 -42.080669 
L 203.677543 -42.080669 
L 204.519541 -42.020334 
L 205.361538 -42.080669 
L 206.203535 -42.050502 
L 207.045533 -42.050502 
L 207.88753 -42.17117 
L 208.729528 -42.020334 
L 209.571525 -42.050502 
L 210.413522 -42.020334 
L 211.25552 -41.990167 
L 212.097517 -41.96 
L 212.939514 -41.990167 
L 213.781512 -41.990167 
L 214.623509 -41.96 
L 215.465507 -41.96 
L 216.307504 -41.990167 
L 217.149501 -42.110836 
L 217.991499 -41.990167 
L 218.833496 -42.17117 
L 219.675493 -42.020334 
L 220.517491 -41.990167 
L 221.359488 -41.96 
L 222.201486 -42.050502 
L 223.043483 -41.96 
L 223.88548 -41.96 
L 224.727478 -42.020334 
L 225.569475 -42.020334 
L 226.411472 -41.96 
L 227.25347 -41.990167 
L 228.095467 -41.990167 
L 228.937465 -41.96 
L 229.779462 -42.020334 
L 230.621459 -41.990167 
L 231.463457 -41.96 
L 232.305454 -41.990167 
L 233.147451 -41.96 
L 233.989449 -41.96 
L 234.831446 -41.96 
L 235.673444 -41.96 
L 236.515441 -42.020334 
L 237.357438 -41.96 
L 238.199436 -41.96 
L 239.041433 -41.96 
L 239.88343 -41.96 
L 240.725428 -41.96 
L 241.567425 -41.96 
L 242.409423 -41.96 
L 243.25142 -41.96 
L 244.093417 -41.96 
L 244.935415 -41.990167 
L 245.777412 -41.96 
L 246.619409 -41.990167 
L 247.461407 -41.96 
L 248.303404 -41.96 
L 249.145402 -41.96 
L 249.987399 -41.96 
L 250.829396 -41.990167 
L 251.671394 -41.990167 
L 252.513391 -41.96 
L 253.355388 -41.96 
L 254.197386 -41.96 
L 255.039383 -41.96 
L 255.881381 -41.96 
L 256.723378 -41.96 
L 257.565375 -41.96 
L 258.407373 -41.96 
L 259.24937 -41.96 
L 260.091367 -41.96 
L 260.933365 -41.96 
L 261.775362 -41.96 
L 262.61736 -41.96 
L 263.459357 -41.96 
L 264.301354 -41.96 
L 265.143352 -41.96 
L 265.985349 -41.96 
L 266.827346 -41.96 
L 267.669344 -41.96 
L 268.511341 -41.96 
L 269.353339 -41.96 
L 270.195336 -41.96 
L 271.037333 -41.96 
L 271.879331 -41.96 
L 271.879331 -41.96 
L 271.879331 -41.96 
L 271.037333 -41.96 
L 270.195336 -41.96 
L 269.353339 -41.96 
L 268.511341 -41.96 
L 267.669344 -41.96 
L 266.827346 -41.96 
L 265.985349 -41.96 
L 265.143352 -41.96 
L 264.301354 -41.96 
L 263.459357 -41.96 
L 262.61736 -41.96 
L 261.775362 -41.96 
L 260.933365 -41.96 
L 260.091367 -41.96 
L 259.24937 -41.96 
L 258.407373 -41.96 
L 257.565375 -41.96 
L 256.723378 -41.96 
L 255.881381 -41.96 
L 255.039383 -41.96 
L 254.197386 -41.96 
L 253.355388 -41.96 
L 252.513391 -41.96 
L 251.671394 -41.96 
L 250.829396 -41.96 
L 249.987399 -41.96 
L 249.145402 -41.96 
L 248.303404 -41.96 
L 247.461407 -41.96 
L 246.619409 -41.96 
L 245.777412 -41.96 
L 244.935415 -41.96 
L 244.093417 -41.96 
L 243.25142 -41.96 
L 242.409423 -41.96 
L 241.567425 -41.96 
L 240.725428 -41.96 
L 239.88343 -41.96 
L 239.041433 -41.96 
L 238.199436 -41.96 
L 237.357438 -41.96 
L 236.515441 -41.96 
L 235.673444 -41.96 
L 234.831446 -41.96 
L 233.989449 -41.96 
L 233.147451 -41.96 
L 232.305454 -41.96 
L 231.463457 -41.96 
L 230.621459 -41.96 
L 229.779462 -41.96 
L 228.937465 -41.96 
L 228.095467 -41.96 
L 227.25347 -41.96 
L 226.411472 -41.96 
L 225.569475 -41.96 
L 224.727478 -41.96 
L 223.88548 -41.96 
L 223.043483 -41.96 
L 222.201486 -41.96 
L 221.359488 -41.96 
L 220.517491 -41.96 
L 219.675493 -41.96 
L 218.833496 -41.96 
L 217.991499 -41.96 
L 217.149501 -41.96 
L 216.307504 -41.96 
L 215.465507 -41.96 
L 214.623509 -41.96 
L 213.781512 -41.96 
L 212.939514 -41.96 
L 212.097517 -41.96 
L 211.25552 -41.96 
L 210.413522 -41.96 
L 209.571525 -41.96 
L 208.729528 -41.96 
L 207.88753 -41.96 
L 207.045533 -41.96 
L 206.203535 -41.96 
L 205.361538 -41.96 
L 204.519541 -41.96 
L 203.677543 -41.96 
L 202.835546 -41.96 
L 201.993549 -41.96 
L 201.151551 -41.96 
L 200.309554 -41.96 
L 199.467556 -41.96 
L 198.625559 -41.96 
L 197.783562 -41.96 
L 196.941564 -41.96 
L 196.099567 -41.96 
L 195.25757 -41.96 
L 194.415572 -41.96 
L 193.573575 -41.96 
L 192.731577 -41.96 
L 191.88958 -41.96 
L 191.047583 -41.96 
L 190.205585 -41.96 
L 189.363588 -41.96 
L 188.521591 -41.96 
L 187.679593 -41.96 
L 186.837596 -41.96 
L 185.995598 -41.96 
L 185.153601 -41.96 
L 184.311604 -41.96 
L 183.469606 -41.96 
L 182.627609 -41.96 
L 181.785612 -41.96 
L 180.943614 -41.96 
L 180.101617 -41.96 
L 179.259619 -41.96 
L 178.417622 -41.96 
L 177.575625 -41.96 
L 176.733627 -41.96 
L 175.89163 -41.96 
L 175.049633 -41.96 
L 174.207635 -41.96 
L 173.365638 -41.96 
L 172.52364 -41.96 
L 171.681643 -41.96 
L 170.839646 -41.96 
L 169.997648 -41.96 
L 169.155651 -41.96 
L 168.313654 -41.96 
L 167.471656 -41.96 
L 166.629659 -41.96 
L 165.787661 -41.96 
L 164.945664 -41.96 
L 164.103667 -41.96 
L 163.261669 -41.96 
L 162.419672 -41.96 
L 161.577675 -41.96 
L 160.735677 -41.96 
L 159.89368 -41.96 
L 159.051682 -41.96 
L 158.209685 -41.96 
L 157.367688 -41.96 
L 156.52569 -41.96 
L 155.683693 -41.96 
L 154.841696 -41.96 
L 153.999698 -41.96 
L 153.157701 -41.96 
L 152.315703 -41.96 
L 151.473706 -41.96 
L 150.631709 -41.96 
L 149.789711 -41.96 
L 148.947714 -41.96 
L 148.105717 -41.96 
L 147.263719 -41.96 
L 146.421722 -41.96 
L 145.579724 -41.96 
L 144.737727 -41.96 
L 143.89573 -41.96 
L 143.053732 -41.96 
L 142.211735 -41.96 
L 141.369738 -41.96 
L 140.52774 -41.96 
L 139.685743 -41.96 
L 138.843745 -41.96 
L 138.001748 -41.96 
L 137.159751 -41.96 
L 136.317753 -41.96 
L 135.475756 -41.96 
L 134.633759 -41.96 
L 133.791761 -41.96 
L 132.949764 -41.96 
L 132.107766 -41.96 
L 131.265769 -41.96 
L 130.423772 -41.96 
L 129.581774 -41.96 
L 128.739777 -41.96 
L 127.89778 -41.96 
L 127.055782 -41.96 
L 126.213785 -41.96 
L 125.371787 -41.96 
L 124.52979 -41.96 
L 123.687793 -41.96 
L 122.845795 -41.96 
L 122.003798 -41.96 
L 121.161801 -41.96 
L 120.319803 -41.96 
L 119.477806 -41.96 
L 118.635808 -41.96 
L 117.793811 -41.96 
L 116.951814 -41.96 
L 116.109816 -41.96 
L 115.267819 -41.96 
L 114.425822 -41.96 
L 113.583824 -41.96 
L 112.741827 -41.96 
L 111.899829 -41.96 
L 111.057832 -41.96 
L 110.215835 -41.96 
L 109.373837 -41.96 
L 108.53184 -41.96 
L 107.689843 -41.96 
L 106.847845 -41.96 
L 106.005848 -41.96 
L 105.16385 -41.96 
L 104.321853 -41.96 
L 103.479856 -41.96 
L 102.637858 -41.96 
L 101.795861 -41.96 
L 100.953864 -41.96 
L 100.111866 -41.96 
L 99.269869 -41.96 
L 98.427871 -41.96 
L 97.585874 -41.96 
L 96.743877 -41.96 
L 95.901879 -41.96 
L 95.059882 -41.96 
L 94.217885 -41.96 
L 93.375887 -41.96 
L 92.53389 -41.96 
L 91.691892 -41.96 
L 90.849895 -41.96 
L 90.007898 -41.96 
L 89.1659 -41.96 
L 88.323903 -41.96 
L 87.481906 -41.96 
L 86.639908 -41.96 
L 85.797911 -41.96 
L 84.955913 -41.96 
L 84.113916 -41.96 
L 83.271919 -41.96 
L 82.429921 -41.96 
L 81.587924 -41.96 
L 80.745927 -41.96 
L 79.903929 -41.96 
L 79.061932 -41.96 
L 78.219934 -41.96 
L 77.377937 -41.96 
L 76.53594 -41.96 
L 75.693942 -41.96 
L 74.851945 -41.96 
L 74.009948 -41.96 
L 73.16795 -41.96 
L 72.325953 -41.96 
L 71.483955 -41.96 
L 70.641958 -41.96 
L 69.799961 -41.96 
L 68.957963 -41.96 
L 68.115966 -41.96 
L 67.273969 -41.96 
L 66.431971 -41.96 
L 65.589974 -41.96 
L 64.747976 -41.96 
L 63.905979 -41.96 
L 63.063982 -41.96 
L 62.221984 -41.96 
L 61.379987 -41.96 
L 60.53799 -41.96 
L 59.695992 -41.96 
L 58.853995 -41.96 
L 58.011997 -41.96 
L 57.17 -41.96 
z
" style="stroke: #0000ff; stroke-opacity: 0.4"/>
    </defs>
    <g clip-path="url(#pefb1b09324)">
     <use xlink:href="#m0668175401" x="0" y="648" style="fill: #0000ff; fill-opacity: 0.4; stroke: #0000ff; stroke-opacity: 0.4"/>
    </g>
   </g>
   <g id="matplotlib.axis_5">
    <g id="xtick_13">
     <g id="line2d_27">
      <g>
       <use xlink:href="#m52dfd1083b" x="57.17" y="606.04" style="stroke: #000000; stroke-width: 0.8"/>
      </g>
     </g>
     <g id="text_29">
      <!-- 0 -->
      <g transform="translate(53.98875 620.638438) scale(0.1 -0.1)">
       <use xlink:href="#DejaVuSans-30"/>
      </g>
     </g>
    </g>
    <g id="xtick_14">
     <g id="line2d_28">
      <g>
       <use xlink:href="#m52dfd1083b" x="99.269869" y="606.04" style="stroke: #000000; stroke-width: 0.8"/>
      </g>
     </g>
     <g id="text_30">
      <!-- 50 -->
      <g transform="translate(92.907369 620.638438) scale(0.1 -0.1)">
       <use xlink:href="#DejaVuSans-35"/>
       <use xlink:href="#DejaVuSans-30" x="63.623047"/>
      </g>
     </g>
    </g>
    <g id="xtick_15">
     <g id="line2d_29">
      <g>
       <use xlink:href="#m52dfd1083b" x="141.369738" y="606.04" style="stroke: #000000; stroke-width: 0.8"/>
      </g>
     </g>
     <g id="text_31">
      <!-- 100 -->
      <g transform="translate(131.825988 620.638438) scale(0.1 -0.1)">
       <use xlink:href="#DejaVuSans-31"/>
       <use xlink:href="#DejaVuSans-30" x="63.623047"/>
       <use xlink:href="#DejaVuSans-30" x="127.246094"/>
      </g>
     </g>
    </g>
    <g id="xtick_16">
     <g id="line2d_30">
      <g>
       <use xlink:href="#m52dfd1083b" x="183.469606" y="606.04" style="stroke: #000000; stroke-width: 0.8"/>
      </g>
     </g>
     <g id="text_32">
      <!-- 150 -->
      <g transform="translate(173.925856 620.638438) scale(0.1 -0.1)">
       <use xlink:href="#DejaVuSans-31"/>
       <use xlink:href="#DejaVuSans-35" x="63.623047"/>
       <use xlink:href="#DejaVuSans-30" x="127.246094"/>
      </g>
     </g>
    </g>
    <g id="xtick_17">
     <g id="line2d_31">
      <g>
       <use xlink:href="#m52dfd1083b" x="225.569475" y="606.04" style="stroke: #000000; stroke-width: 0.8"/>
      </g>
     </g>
     <g id="text_33">
      <!-- 200 -->
      <g transform="translate(216.025725 620.638438) scale(0.1 -0.1)">
       <use xlink:href="#DejaVuSans-32"/>
       <use xlink:href="#DejaVuSans-30" x="63.623047"/>
       <use xlink:href="#DejaVuSans-30" x="127.246094"/>
      </g>
     </g>
    </g>
    <g id="xtick_18">
     <g id="line2d_32">
      <g>
       <use xlink:href="#m52dfd1083b" x="267.669344" y="606.04" style="stroke: #000000; stroke-width: 0.8"/>
      </g>
     </g>
     <g id="text_34">
      <!-- 250 -->
      <g transform="translate(258.125594 620.638438) scale(0.1 -0.1)">
       <use xlink:href="#DejaVuSans-32"/>
       <use xlink:href="#DejaVuSans-35" x="63.623047"/>
       <use xlink:href="#DejaVuSans-30" x="127.246094"/>
      </g>
     </g>
    </g>
    <g id="text_35">
     <!-- Pixel Intensity -->
     <g transform="translate(130.033945 634.316563) scale(0.1 -0.1)">
      <defs>
       <path id="DejaVuSans-49" d="M 628 4666 
L 1259 4666 
L 1259 0 
L 628 0 
L 628 4666 
z
" transform="scale(0.015625)"/>
       <path id="DejaVuSans-74" d="M 1172 4494 
L 1172 3500 
L 2356 3500 
L 2356 3053 
L 1172 3053 
L 1172 1153 
Q 1172 725 1289 603 
Q 1406 481 1766 481 
L 2356 481 
L 2356 0 
L 1766 0 
Q 1100 0 847 248 
Q 594 497 594 1153 
L 594 3053 
L 172 3053 
L 172 3500 
L 594 3500 
L 594 4494 
L 1172 4494 
z
" transform="scale(0.015625)"/>
       <path id="DejaVuSans-73" d="M 2834 3397 
L 2834 2853 
Q 2591 2978 2328 3040 
Q 2066 3103 1784 3103 
Q 1356 3103 1142 2972 
Q 928 2841 928 2578 
Q 928 2378 1081 2264 
Q 1234 2150 1697 2047 
L 1894 2003 
Q 2506 1872 2764 1633 
Q 3022 1394 3022 966 
Q 3022 478 2636 193 
Q 2250 -91 1575 -91 
Q 1294 -91 989 -36 
Q 684 19 347 128 
L 347 722 
Q 666 556 975 473 
Q 1284 391 1588 391 
Q 1994 391 2212 530 
Q 2431 669 2431 922 
Q 2431 1156 2273 1281 
Q 2116 1406 1581 1522 
L 1381 1569 
Q 847 1681 609 1914 
Q 372 2147 372 2553 
Q 372 3047 722 3315 
Q 1072 3584 1716 3584 
Q 2034 3584 2315 3537 
Q 2597 3491 2834 3397 
z
" transform="scale(0.015625)"/>
      </defs>
      <use xlink:href="#DejaVuSans-50"/>
      <use xlink:href="#DejaVuSans-69" x="58.052734"/>
      <use xlink:href="#DejaVuSans-78" x="85.835938"/>
      <use xlink:href="#DejaVuSans-65" x="141.890625"/>
      <use xlink:href="#DejaVuSans-6c" x="203.414062"/>
      <use xlink:href="#DejaVuSans-20" x="231.197266"/>
      <use xlink:href="#DejaVuSans-49" x="262.984375"/>
      <use xlink:href="#DejaVuSans-6e" x="292.476562"/>
      <use xlink:href="#DejaVuSans-74" x="355.855469"/>
      <use xlink:href="#DejaVuSans-65" x="395.064453"/>
      <use xlink:href="#DejaVuSans-6e" x="456.587891"/>
      <use xlink:href="#DejaVuSans-73" x="519.966797"/>
      <use xlink:href="#DejaVuSans-69" x="572.066406"/>
      <use xlink:href="#DejaVuSans-74" x="599.849609"/>
      <use xlink:href="#DejaVuSans-79" x="639.058594"/>
     </g>
    </g>
   </g>
   <g id="matplotlib.axis_6">
    <g id="ytick_13">
     <g id="line2d_33">
      <g>
       <use xlink:href="#m8b4859707a" x="57.17" y="606.04" style="stroke: #000000; stroke-width: 0.8"/>
      </g>
     </g>
     <g id="text_36">
      <!-- 0 -->
      <g transform="translate(43.8075 609.839219) scale(0.1 -0.1)">
       <use xlink:href="#DejaVuSans-30"/>
      </g>
     </g>
    </g>
    <g id="ytick_14">
     <g id="line2d_34">
      <g>
       <use xlink:href="#m8b4859707a" x="57.17" y="575.872802" style="stroke: #000000; stroke-width: 0.8"/>
      </g>
     </g>
     <g id="text_37">
      <!-- 1000 -->
      <g transform="translate(24.72 579.672021) scale(0.1 -0.1)">
       <use xlink:href="#DejaVuSans-31"/>
       <use xlink:href="#DejaVuSans-30" x="63.623047"/>
       <use xlink:href="#DejaVuSans-30" x="127.246094"/>
       <use xlink:href="#DejaVuSans-30" x="190.869141"/>
      </g>
     </g>
    </g>
    <g id="ytick_15">
     <g id="line2d_35">
      <g>
       <use xlink:href="#m8b4859707a" x="57.17" y="545.705604" style="stroke: #000000; stroke-width: 0.8"/>
      </g>
     </g>
     <g id="text_38">
      <!-- 2000 -->
      <g transform="translate(24.72 549.504823) scale(0.1 -0.1)">
       <use xlink:href="#DejaVuSans-32"/>
       <use xlink:href="#DejaVuSans-30" x="63.623047"/>
       <use xlink:href="#DejaVuSans-30" x="127.246094"/>
       <use xlink:href="#DejaVuSans-30" x="190.869141"/>
      </g>
     </g>
    </g>
    <g id="ytick_16">
     <g id="line2d_36">
      <g>
       <use xlink:href="#m8b4859707a" x="57.17" y="515.538406" style="stroke: #000000; stroke-width: 0.8"/>
      </g>
     </g>
     <g id="text_39">
      <!-- 3000 -->
      <g transform="translate(24.72 519.337625) scale(0.1 -0.1)">
       <use xlink:href="#DejaVuSans-33"/>
       <use xlink:href="#DejaVuSans-30" x="63.623047"/>
       <use xlink:href="#DejaVuSans-30" x="127.246094"/>
       <use xlink:href="#DejaVuSans-30" x="190.869141"/>
      </g>
     </g>
    </g>
    <g id="ytick_17">
     <g id="line2d_37">
      <g>
       <use xlink:href="#m8b4859707a" x="57.17" y="485.371208" style="stroke: #000000; stroke-width: 0.8"/>
      </g>
     </g>
     <g id="text_40">
      <!-- 4000 -->
      <g transform="translate(24.72 489.170427) scale(0.1 -0.1)">
       <use xlink:href="#DejaVuSans-34"/>
       <use xlink:href="#DejaVuSans-30" x="63.623047"/>
       <use xlink:href="#DejaVuSans-30" x="127.246094"/>
       <use xlink:href="#DejaVuSans-30" x="190.869141"/>
      </g>
     </g>
    </g>
    <g id="ytick_18">
     <g id="line2d_38">
      <g>
       <use xlink:href="#m8b4859707a" x="57.17" y="455.204011" style="stroke: #000000; stroke-width: 0.8"/>
      </g>
     </g>
     <g id="text_41">
      <!-- 5000 -->
      <g transform="translate(24.72 459.003229) scale(0.1 -0.1)">
       <use xlink:href="#DejaVuSans-35"/>
       <use xlink:href="#DejaVuSans-30" x="63.623047"/>
       <use xlink:href="#DejaVuSans-30" x="127.246094"/>
       <use xlink:href="#DejaVuSans-30" x="190.869141"/>
      </g>
     </g>
    </g>
    <g id="text_42">
     <!-- Pixel Frequency -->
     <g transform="translate(18.640313 555.105573) rotate(-90) scale(0.1 -0.1)">
      <use xlink:href="#DejaVuSans-50"/>
      <use xlink:href="#DejaVuSans-69" x="58.052734"/>
      <use xlink:href="#DejaVuSans-78" x="85.835938"/>
      <use xlink:href="#DejaVuSans-65" x="141.890625"/>
      <use xlink:href="#DejaVuSans-6c" x="203.414062"/>
      <use xlink:href="#DejaVuSans-20" x="231.197266"/>
      <use xlink:href="#DejaVuSans-46" x="262.984375"/>
      <use xlink:href="#DejaVuSans-72" x="313.253906"/>
      <use xlink:href="#DejaVuSans-65" x="352.117188"/>
      <use xlink:href="#DejaVuSans-71" x="413.640625"/>
      <use xlink:href="#DejaVuSans-75" x="477.117188"/>
      <use xlink:href="#DejaVuSans-65" x="540.496094"/>
      <use xlink:href="#DejaVuSans-6e" x="602.019531"/>
      <use xlink:href="#DejaVuSans-63" x="665.398438"/>
      <use xlink:href="#DejaVuSans-79" x="720.378906"/>
     </g>
    </g>
   </g>
   <g id="line2d_39">
    <path d="M 57.17 606.04 
L 74.851945 606.04 
L 75.693942 605.889164 
L 76.53594 605.134984 
L 77.377937 601.333917 
L 78.219934 590.021218 
L 79.061932 564.560103 
L 79.903929 487.663915 
L 80.745927 427.148516 
L 81.587924 426.213333 
L 82.429921 455.294512 
L 83.271919 477.618239 
L 84.113916 473.877506 
L 84.955913 440.331582 
L 85.797911 483.651678 
L 86.639908 575.329793 
L 87.481906 593.912786 
L 88.323903 597.623352 
L 89.1659 598.226696 
L 90.007898 599.222213 
L 90.849895 598.890374 
L 91.691892 599.342882 
L 92.53389 600.127229 
L 93.375887 599.79539 
L 94.217885 600.640072 
L 95.059882 600.640072 
L 95.901879 600.911576 
L 96.743877 600.187564 
L 97.585874 600.941744 
L 98.427871 601.09258 
L 99.269869 600.519403 
L 100.111866 600.700406 
L 100.953864 601.756258 
L 101.795861 601.997595 
L 102.637858 601.997595 
L 103.479856 602.450103 
L 105.16385 602.510438 
L 106.847845 603.02328 
L 107.689843 602.842277 
L 109.373837 603.324952 
L 110.215835 603.143949 
L 111.057832 603.083615 
L 111.899829 603.505955 
L 112.741827 603.264618 
L 113.583824 603.747293 
L 114.425822 603.445621 
L 116.109816 603.656791 
L 116.951814 603.77746 
L 117.793811 603.656791 
L 118.635808 603.928296 
L 119.477806 603.867962 
L 120.319803 603.686959 
L 122.003798 604.501473 
L 122.845795 604.018798 
L 123.687793 604.471306 
L 125.371787 604.32047 
L 126.213785 604.53164 
L 128.739777 604.652309 
L 129.581774 604.380804 
L 130.423772 604.290303 
L 131.265769 604.772978 
L 132.107766 604.471306 
L 132.949764 604.772978 
L 133.791761 604.953981 
L 134.633759 604.833312 
L 135.475756 605.134984 
L 136.317753 604.803145 
L 139.685743 605.195318 
L 140.52774 604.772978 
L 141.369738 605.104817 
L 143.053732 604.953981 
L 143.89573 605.134984 
L 144.737727 604.953981 
L 145.579724 605.225486 
L 148.105717 605.225486 
L 148.947714 605.436656 
L 149.789711 604.923814 
L 150.631709 605.406489 
L 151.473706 605.587492 
L 152.315703 605.255653 
L 153.157701 605.527158 
L 153.999698 605.346154 
L 154.841696 605.436656 
L 155.683693 605.225486 
L 157.367688 605.376322 
L 158.209685 605.466823 
L 159.051682 605.28582 
L 159.89368 605.617659 
L 160.735677 605.49699 
L 163.261669 605.406489 
L 164.103667 605.798662 
L 164.945664 605.406489 
L 165.787661 605.346154 
L 167.471656 605.677994 
L 171.681643 605.617659 
L 172.52364 605.858997 
L 174.207635 605.617659 
L 175.049633 605.617659 
L 175.89163 605.738328 
L 176.733627 605.677994 
L 177.575625 605.858997 
L 178.417622 605.527158 
L 179.259619 605.798662 
L 180.101617 605.708161 
L 180.943614 605.889164 
L 181.785612 605.677994 
L 184.311604 605.768495 
L 186.837596 605.617659 
L 187.679593 605.858997 
L 188.521591 605.919331 
L 190.205585 605.768495 
L 191.047583 605.858997 
L 191.88958 605.708161 
L 194.415572 605.858997 
L 196.941564 605.82883 
L 198.625559 605.919331 
L 199.467556 605.858997 
L 201.151551 606.04 
L 206.203535 605.949498 
L 207.045533 605.949498 
L 207.88753 605.82883 
L 208.729528 605.979666 
L 210.413522 605.979666 
L 214.623509 606.04 
L 216.307504 606.009833 
L 217.149501 605.889164 
L 217.991499 606.009833 
L 218.833496 605.82883 
L 219.675493 605.979666 
L 221.359488 606.04 
L 222.201486 605.949498 
L 223.88548 606.04 
L 225.569475 605.979666 
L 227.25347 606.009833 
L 271.879331 606.04 
L 271.879331 606.04 
" clip-path="url(#pefb1b09324)" style="fill: none; stroke: #0000ff; stroke-width: 1.5; stroke-linecap: square"/>
   </g>
   <g id="patch_13">
    <path d="M 57.17 606.04 
L 57.17 426.213333 
" style="fill: none; stroke: #000000; stroke-width: 0.8; stroke-linejoin: miter; stroke-linecap: square"/>
   </g>
   <g id="patch_14">
    <path d="M 272.721328 606.04 
L 272.721328 426.213333 
" style="fill: none; stroke: #000000; stroke-width: 0.8; stroke-linejoin: miter; stroke-linecap: square"/>
   </g>
   <g id="patch_15">
    <path d="M 57.17 606.04 
L 272.721328 606.04 
" style="fill: none; stroke: #000000; stroke-width: 0.8; stroke-linejoin: miter; stroke-linecap: square"/>
   </g>
   <g id="patch_16">
    <path d="M 57.17 426.213333 
L 272.721328 426.213333 
" style="fill: none; stroke: #000000; stroke-width: 0.8; stroke-linejoin: miter; stroke-linecap: square"/>
   </g>
   <g id="text_43">
    <!-- Blue Channel  -->
    <g transform="translate(189.272578 440.213333) scale(0.12 -0.12)">
     <defs>
      <path id="DejaVuSans-42" d="M 1259 2228 
L 1259 519 
L 2272 519 
Q 2781 519 3026 730 
Q 3272 941 3272 1375 
Q 3272 1813 3026 2020 
Q 2781 2228 2272 2228 
L 1259 2228 
z
M 1259 4147 
L 1259 2741 
L 2194 2741 
Q 2656 2741 2882 2914 
Q 3109 3088 3109 3444 
Q 3109 3797 2882 3972 
Q 2656 4147 2194 4147 
L 1259 4147 
z
M 628 4666 
L 2241 4666 
Q 2963 4666 3353 4366 
Q 3744 4066 3744 3513 
Q 3744 3084 3544 2831 
Q 3344 2578 2956 2516 
Q 3422 2416 3680 2098 
Q 3938 1781 3938 1306 
Q 3938 681 3513 340 
Q 3088 0 2303 0 
L 628 0 
L 628 4666 
z
" transform="scale(0.015625)"/>
     </defs>
     <use xlink:href="#DejaVuSans-42"/>
     <use xlink:href="#DejaVuSans-6c" x="68.603516"/>
     <use xlink:href="#DejaVuSans-75" x="96.386719"/>
     <use xlink:href="#DejaVuSans-65" x="159.765625"/>
     <use xlink:href="#DejaVuSans-20" x="221.289062"/>
     <use xlink:href="#DejaVuSans-43" x="253.076172"/>
     <use xlink:href="#DejaVuSans-68" x="322.900391"/>
     <use xlink:href="#DejaVuSans-61" x="386.279297"/>
     <use xlink:href="#DejaVuSans-6e" x="447.558594"/>
     <use xlink:href="#DejaVuSans-6e" x="510.9375"/>
     <use xlink:href="#DejaVuSans-65" x="574.316406"/>
     <use xlink:href="#DejaVuSans-6c" x="635.839844"/>
     <use xlink:href="#DejaVuSans-20" x="663.623047"/>
    </g>
   </g>
  </g>
 </g>
 <defs>
  <clipPath id="p8922328f24">
   <rect x="57.17" y="10.8" width="215.551328" height="179.826667"/>
  </clipPath>
  <clipPath id="p301d16e82f">
   <rect x="57.17" y="218.506667" width="215.551328" height="179.826667"/>
  </clipPath>
  <clipPath id="pefb1b09324">
   <rect x="57.17" y="426.213333" width="215.551328" height="179.826667"/>
  </clipPath>
 </defs>
</svg>
