<?xml version="1.0" encoding="utf-8" standalone="no"?>
<!DOCTYPE svg PUBLIC "-//W3C//DTD SVG 1.1//EN"
  "http://www.w3.org/Graphics/SVG/1.1/DTD/svg11.dtd">
<svg xmlns:xlink="http://www.w3.org/1999/xlink" width="288pt" height="648pt" viewBox="0 0 288 648" xmlns="http://www.w3.org/2000/svg" version="1.1">
 <metadata>
  <rdf:RDF xmlns:dc="http://purl.org/dc/elements/1.1/" xmlns:cc="http://creativecommons.org/ns#" xmlns:rdf="http://www.w3.org/1999/02/22-rdf-syntax-ns#">
   <cc:Work>
    <dc:type rdf:resource="http://purl.org/dc/dcmitype/StillImage"/>
    <dc:date>2023-11-18T15:20:13.716311</dc:date>
    <dc:format>image/svg+xml</dc:format>
    <dc:creator>
     <cc:Agent>
      <dc:title>Matplotlib v3.8.0, https://matplotlib.org/</dc:title>
     </cc:Agent>
    </dc:creator>
   </cc:Work>
  </rdf:RDF>
 </metadata>
 <defs>
  <style type="text/css">*{stroke-linejoin: round; stroke-linecap: butt}</style>
 </defs>
 <g id="figure_1">
  <g id="patch_1">
   <path d="M 0 648 
L 288 648 
L 288 0 
L 0 0 
z
" style="fill: #ffffff"/>
  </g>
  <g id="axes_1">
   <g id="patch_2">
    <path d="M 57.17 190.626667 
L 272.721328 190.626667 
L 272.721328 10.8 
L 57.17 10.8 
z
" style="fill: #ffffff"/>
   </g>
   <g id="PolyCollection_1">
    <defs>
     <path id="md9844973ae" d="M 57.17 -457.373333 
L 57.17 -457.373333 
L 58.011997 -457.373333 
L 58.853995 -457.373333 
L 59.695992 -457.373333 
L 60.53799 -457.373333 
L 61.379987 -457.373333 
L 62.221984 -457.373333 
L 63.063982 -457.373333 
L 63.905979 -457.373333 
L 64.747976 -457.373333 
L 65.589974 -457.373333 
L 66.431971 -457.373333 
L 67.273969 -457.373333 
L 68.115966 -457.373333 
L 68.957963 -457.373333 
L 69.799961 -457.373333 
L 70.641958 -457.373333 
L 71.483955 -457.373333 
L 72.325953 -457.373333 
L 73.16795 -457.373333 
L 74.009948 -457.373333 
L 74.851945 -457.373333 
L 75.693942 -457.373333 
L 76.53594 -457.373333 
L 77.377937 -457.373333 
L 78.219934 -457.373333 
L 79.061932 -457.373333 
L 79.903929 -457.373333 
L 80.745927 -457.373333 
L 81.587924 -457.373333 
L 82.429921 -457.373333 
L 83.271919 -457.373333 
L 84.113916 -457.373333 
L 84.955913 -457.373333 
L 85.797911 -457.373333 
L 86.639908 -457.373333 
L 87.481906 -457.373333 
L 88.323903 -457.373333 
L 89.1659 -457.373333 
L 90.007898 -457.373333 
L 90.849895 -457.373333 
L 91.691892 -457.373333 
L 92.53389 -457.373333 
L 93.375887 -457.373333 
L 94.217885 -458.172056 
L 95.059882 -458.286159 
L 95.901879 -464.961197 
L 96.743877 -474.831125 
L 97.585874 -474.203558 
L 98.427871 -476.542673 
L 99.269869 -477.683706 
L 100.111866 -491.889556 
L 100.953864 -519.274327 
L 101.795861 -541.809712 
L 102.637858 -558.06942 
L 103.479856 -543.121899 
L 104.321853 -516.250592 
L 105.16385 -497.70882 
L 106.005848 -498.678697 
L 106.847845 -531.768629 
L 107.689843 -556.928388 
L 108.53184 -571.476548 
L 109.373837 -577.124657 
L 110.215835 -558.868143 
L 111.057832 -577.92338 
L 111.899829 -581.859941 
L 112.741827 -558.982246 
L 113.583824 -517.96214 
L 114.425822 -502.900516 
L 115.267819 -495.769065 
L 116.109816 -493.544052 
L 116.951814 -488.694666 
L 117.793811 -486.583756 
L 118.635808 -482.875402 
L 119.477806 -482.81835 
L 120.319803 -485.157466 
L 121.161801 -484.92926 
L 122.003798 -483.274763 
L 122.845795 -484.187589 
L 123.687793 -482.932453 
L 124.52979 -482.989505 
L 125.371787 -480.878596 
L 126.213785 -480.821544 
L 127.055782 -481.962576 
L 127.89778 -482.304886 
L 128.739777 -479.96577 
L 129.581774 -480.136925 
L 130.423772 -481.39206 
L 131.265769 -481.791421 
L 132.107766 -480.079873 
L 132.949764 -479.680512 
L 133.791761 -480.136925 
L 134.633759 -480.136925 
L 135.475756 -478.653583 
L 136.317753 -478.254222 
L 137.159751 -478.254222 
L 138.001748 -477.968964 
L 138.843745 -478.824738 
L 139.685743 -478.596531 
L 140.52774 -478.368325 
L 141.369738 -475.801003 
L 142.211735 -476.599725 
L 143.053732 -476.143312 
L 143.89573 -476.314467 
L 144.737727 -476.314467 
L 145.579724 -476.143312 
L 146.421722 -474.602919 
L 147.263719 -474.260609 
L 148.105717 -473.975351 
L 148.947714 -473.690093 
L 149.789711 -473.747145 
L 150.631709 -471.693287 
L 151.473706 -471.80739 
L 152.315703 -470.780461 
L 153.157701 -471.179822 
L 153.999698 -469.297119 
L 154.841696 -469.810584 
L 155.683693 -468.498397 
L 156.52569 -468.327242 
L 157.367688 -468.6125 
L 158.209685 -468.669552 
L 159.051682 -468.384294 
L 159.89368 -466.444539 
L 160.735677 -467.072107 
L 161.577675 -467.300313 
L 162.419672 -464.961197 
L 163.261669 -464.504784 
L 164.103667 -464.732991 
L 164.945664 -464.675939 
L 165.787661 -464.048371 
L 166.629659 -463.135546 
L 167.471656 -463.135546 
L 168.313654 -464.048371 
L 169.155651 -462.622081 
L 169.997648 -462.051565 
L 170.839646 -461.481049 
L 171.681643 -461.538101 
L 172.52364 -461.538101 
L 173.365638 -461.252843 
L 174.207635 -461.538101 
L 175.049633 -460.282965 
L 175.89163 -460.682327 
L 176.733627 -460.568223 
L 177.575625 -460.853481 
L 178.417622 -460.511172 
L 179.259619 -459.940656 
L 180.101617 -460.511172 
L 180.943614 -460.282965 
L 181.785612 -459.598346 
L 182.627609 -459.598346 
L 183.469606 -459.256036 
L 184.311604 -459.02783 
L 185.153601 -459.256036 
L 185.995598 -459.313088 
L 186.837596 -458.913727 
L 187.679593 -458.628469 
L 188.521591 -459.198985 
L 189.363588 -459.198985 
L 190.205585 -458.628469 
L 191.047583 -459.256036 
L 191.88958 -458.742572 
L 192.731577 -458.457314 
L 193.573575 -458.742572 
L 194.415572 -458.571417 
L 195.25757 -458.286159 
L 196.099567 -458.856675 
L 196.941564 -458.343211 
L 197.783562 -458.229107 
L 198.625559 -458.913727 
L 199.467556 -459.02783 
L 200.309554 -458.457314 
L 201.151551 -458.343211 
L 201.993549 -458.457314 
L 202.835546 -458.172056 
L 203.677543 -458.628469 
L 204.519541 -458.343211 
L 205.361538 -458.057953 
L 206.203535 -457.715643 
L 207.045533 -457.943849 
L 207.88753 -457.829746 
L 208.729528 -458.057953 
L 209.571525 -457.943849 
L 210.413522 -458.000901 
L 211.25552 -458.115004 
L 212.097517 -457.943849 
L 212.939514 -457.943849 
L 213.781512 -458.115004 
L 214.623509 -457.943849 
L 215.465507 -458.057953 
L 216.307504 -458.057953 
L 217.149501 -457.60154 
L 217.991499 -457.943849 
L 218.833496 -458.000901 
L 219.675493 -457.715643 
L 220.517491 -457.886798 
L 221.359488 -457.772695 
L 222.201486 -457.829746 
L 223.043483 -457.715643 
L 223.88548 -457.60154 
L 224.727478 -457.772695 
L 225.569475 -457.60154 
L 226.411472 -457.715643 
L 227.25347 -457.829746 
L 228.095467 -457.487437 
L 228.937465 -457.772695 
L 229.779462 -457.715643 
L 230.621459 -457.487437 
L 231.463457 -457.772695 
L 232.305454 -457.658591 
L 233.147451 -457.715643 
L 233.989449 -457.658591 
L 234.831446 -457.658591 
L 235.673444 -457.715643 
L 236.515441 -457.658591 
L 237.357438 -457.544488 
L 238.199436 -457.60154 
L 239.041433 -457.487437 
L 239.88343 -457.544488 
L 240.725428 -457.886798 
L 241.567425 -457.487437 
L 242.409423 -457.772695 
L 243.25142 -457.60154 
L 244.093417 -457.829746 
L 244.935415 -457.772695 
L 245.777412 -457.60154 
L 246.619409 -457.715643 
L 247.461407 -457.487437 
L 248.303404 -457.658591 
L 249.145402 -457.487437 
L 249.987399 -457.829746 
L 250.829396 -457.772695 
L 251.671394 -457.544488 
L 252.513391 -457.60154 
L 253.355388 -457.60154 
L 254.197386 -457.772695 
L 255.039383 -457.715643 
L 255.881381 -457.430385 
L 256.723378 -457.430385 
L 257.565375 -457.430385 
L 258.407373 -457.658591 
L 259.24937 -457.544488 
L 260.091367 -457.373333 
L 260.933365 -457.544488 
L 261.775362 -457.487437 
L 262.61736 -457.430385 
L 263.459357 -457.487437 
L 264.301354 -457.373333 
L 265.143352 -457.715643 
L 265.985349 -457.544488 
L 266.827346 -457.658591 
L 267.669344 -457.430385 
L 268.511341 -457.658591 
L 269.353339 -457.430385 
L 270.195336 -457.487437 
L 271.037333 -457.715643 
L 271.879331 -457.544488 
L 271.879331 -457.373333 
L 271.879331 -457.373333 
L 271.037333 -457.373333 
L 270.195336 -457.373333 
L 269.353339 -457.373333 
L 268.511341 -457.373333 
L 267.669344 -457.373333 
L 266.827346 -457.373333 
L 265.985349 -457.373333 
L 265.143352 -457.373333 
L 264.301354 -457.373333 
L 263.459357 -457.373333 
L 262.61736 -457.373333 
L 261.775362 -457.373333 
L 260.933365 -457.373333 
L 260.091367 -457.373333 
L 259.24937 -457.373333 
L 258.407373 -457.373333 
L 257.565375 -457.373333 
L 256.723378 -457.373333 
L 255.881381 -457.373333 
L 255.039383 -457.373333 
L 254.197386 -457.373333 
L 253.355388 -457.373333 
L 252.513391 -457.373333 
L 251.671394 -457.373333 
L 250.829396 -457.373333 
L 249.987399 -457.373333 
L 249.145402 -457.373333 
L 248.303404 -457.373333 
L 247.461407 -457.373333 
L 246.619409 -457.373333 
L 245.777412 -457.373333 
L 244.935415 -457.373333 
L 244.093417 -457.373333 
L 243.25142 -457.373333 
L 242.409423 -457.373333 
L 241.567425 -457.373333 
L 240.725428 -457.373333 
L 239.88343 -457.373333 
L 239.041433 -457.373333 
L 238.199436 -457.373333 
L 237.357438 -457.373333 
L 236.515441 -457.373333 
L 235.673444 -457.373333 
L 234.831446 -457.373333 
L 233.989449 -457.373333 
L 233.147451 -457.373333 
L 232.305454 -457.373333 
L 231.463457 -457.373333 
L 230.621459 -457.373333 
L 229.779462 -457.373333 
L 228.937465 -457.373333 
L 228.095467 -457.373333 
L 227.25347 -457.373333 
L 226.411472 -457.373333 
L 225.569475 -457.373333 
L 224.727478 -457.373333 
L 223.88548 -457.373333 
L 223.043483 -457.373333 
L 222.201486 -457.373333 
L 221.359488 -457.373333 
L 220.517491 -457.373333 
L 219.675493 -457.373333 
L 218.833496 -457.373333 
L 217.991499 -457.373333 
L 217.149501 -457.373333 
L 216.307504 -457.373333 
L 215.465507 -457.373333 
L 214.623509 -457.373333 
L 213.781512 -457.373333 
L 212.939514 -457.373333 
L 212.097517 -457.373333 
L 211.25552 -457.373333 
L 210.413522 -457.373333 
L 209.571525 -457.373333 
L 208.729528 -457.373333 
L 207.88753 -457.373333 
L 207.045533 -457.373333 
L 206.203535 -457.373333 
L 205.361538 -457.373333 
L 204.519541 -457.373333 
L 203.677543 -457.373333 
L 202.835546 -457.373333 
L 201.993549 -457.373333 
L 201.151551 -457.373333 
L 200.309554 -457.373333 
L 199.467556 -457.373333 
L 198.625559 -457.373333 
L 197.783562 -457.373333 
L 196.941564 -457.373333 
L 196.099567 -457.373333 
L 195.25757 -457.373333 
L 194.415572 -457.373333 
L 193.573575 -457.373333 
L 192.731577 -457.373333 
L 191.88958 -457.373333 
L 191.047583 -457.373333 
L 190.205585 -457.373333 
L 189.363588 -457.373333 
L 188.521591 -457.373333 
L 187.679593 -457.373333 
L 186.837596 -457.373333 
L 185.995598 -457.373333 
L 185.153601 -457.373333 
L 184.311604 -457.373333 
L 183.469606 -457.373333 
L 182.627609 -457.373333 
L 181.785612 -457.373333 
L 180.943614 -457.373333 
L 180.101617 -457.373333 
L 179.259619 -457.373333 
L 178.417622 -457.373333 
L 177.575625 -457.373333 
L 176.733627 -457.373333 
L 175.89163 -457.373333 
L 175.049633 -457.373333 
L 174.207635 -457.373333 
L 173.365638 -457.373333 
L 172.52364 -457.373333 
L 171.681643 -457.373333 
L 170.839646 -457.373333 
L 169.997648 -457.373333 
L 169.155651 -457.373333 
L 168.313654 -457.373333 
L 167.471656 -457.373333 
L 166.629659 -457.373333 
L 165.787661 -457.373333 
L 164.945664 -457.373333 
L 164.103667 -457.373333 
L 163.261669 -457.373333 
L 162.419672 -457.373333 
L 161.577675 -457.373333 
L 160.735677 -457.373333 
L 159.89368 -457.373333 
L 159.051682 -457.373333 
L 158.209685 -457.373333 
L 157.367688 -457.373333 
L 156.52569 -457.373333 
L 155.683693 -457.373333 
L 154.841696 -457.373333 
L 153.999698 -457.373333 
L 153.157701 -457.373333 
L 152.315703 -457.373333 
L 151.473706 -457.373333 
L 150.631709 -457.373333 
L 149.789711 -457.373333 
L 148.947714 -457.373333 
L 148.105717 -457.373333 
L 147.263719 -457.373333 
L 146.421722 -457.373333 
L 145.579724 -457.373333 
L 144.737727 -457.373333 
L 143.89573 -457.373333 
L 143.053732 -457.373333 
L 142.211735 -457.373333 
L 141.369738 -457.373333 
L 140.52774 -457.373333 
L 139.685743 -457.373333 
L 138.843745 -457.373333 
L 138.001748 -457.373333 
L 137.159751 -457.373333 
L 136.317753 -457.373333 
L 135.475756 -457.373333 
L 134.633759 -457.373333 
L 133.791761 -457.373333 
L 132.949764 -457.373333 
L 132.107766 -457.373333 
L 131.265769 -457.373333 
L 130.423772 -457.373333 
L 129.581774 -457.373333 
L 128.739777 -457.373333 
L 127.89778 -457.373333 
L 127.055782 -457.373333 
L 126.213785 -457.373333 
L 125.371787 -457.373333 
L 124.52979 -457.373333 
L 123.687793 -457.373333 
L 122.845795 -457.373333 
L 122.003798 -457.373333 
L 121.161801 -457.373333 
L 120.319803 -457.373333 
L 119.477806 -457.373333 
L 118.635808 -457.373333 
L 117.793811 -457.373333 
L 116.951814 -457.373333 
L 116.109816 -457.373333 
L 115.267819 -457.373333 
L 114.425822 -457.373333 
L 113.583824 -457.373333 
L 112.741827 -457.373333 
L 111.899829 -457.373333 
L 111.057832 -457.373333 
L 110.215835 -457.373333 
L 109.373837 -457.373333 
L 108.53184 -457.373333 
L 107.689843 -457.373333 
L 106.847845 -457.373333 
L 106.005848 -457.373333 
L 105.16385 -457.373333 
L 104.321853 -457.373333 
L 103.479856 -457.373333 
L 102.637858 -457.373333 
L 101.795861 -457.373333 
L 100.953864 -457.373333 
L 100.111866 -457.373333 
L 99.269869 -457.373333 
L 98.427871 -457.373333 
L 97.585874 -457.373333 
L 96.743877 -457.373333 
L 95.901879 -457.373333 
L 95.059882 -457.373333 
L 94.217885 -457.373333 
L 93.375887 -457.373333 
L 92.53389 -457.373333 
L 91.691892 -457.373333 
L 90.849895 -457.373333 
L 90.007898 -457.373333 
L 89.1659 -457.373333 
L 88.323903 -457.373333 
L 87.481906 -457.373333 
L 86.639908 -457.373333 
L 85.797911 -457.373333 
L 84.955913 -457.373333 
L 84.113916 -457.373333 
L 83.271919 -457.373333 
L 82.429921 -457.373333 
L 81.587924 -457.373333 
L 80.745927 -457.373333 
L 79.903929 -457.373333 
L 79.061932 -457.373333 
L 78.219934 -457.373333 
L 77.377937 -457.373333 
L 76.53594 -457.373333 
L 75.693942 -457.373333 
L 74.851945 -457.373333 
L 74.009948 -457.373333 
L 73.16795 -457.373333 
L 72.325953 -457.373333 
L 71.483955 -457.373333 
L 70.641958 -457.373333 
L 69.799961 -457.373333 
L 68.957963 -457.373333 
L 68.115966 -457.373333 
L 67.273969 -457.373333 
L 66.431971 -457.373333 
L 65.589974 -457.373333 
L 64.747976 -457.373333 
L 63.905979 -457.373333 
L 63.063982 -457.373333 
L 62.221984 -457.373333 
L 61.379987 -457.373333 
L 60.53799 -457.373333 
L 59.695992 -457.373333 
L 58.853995 -457.373333 
L 58.011997 -457.373333 
L 57.17 -457.373333 
z
" style="stroke: #ff0000; stroke-opacity: 0.4"/>
    </defs>
    <g clip-path="url(#p0447cdf367)">
     <use xlink:href="#md9844973ae" x="0" y="648" style="fill: #ff0000; fill-opacity: 0.4; stroke: #ff0000; stroke-opacity: 0.4"/>
    </g>
   </g>
   <g id="matplotlib.axis_1">
    <g id="xtick_1">
     <g id="line2d_1">
      <defs>
       <path id="md27e040743" d="M 0 0 
L 0 3.5 
" style="stroke: #000000; stroke-width: 0.8"/>
      </defs>
      <g>
       <use xlink:href="#md27e040743" x="57.17" y="190.626667" style="stroke: #000000; stroke-width: 0.8"/>
      </g>
     </g>
     <g id="text_1">
      <!-- 0 -->
      <g transform="translate(53.98875 205.225104) scale(0.1 -0.1)">
       <defs>
        <path id="DejaVuSans-30" d="M 2034 4250 
Q 1547 4250 1301 3770 
Q 1056 3291 1056 2328 
Q 1056 1369 1301 889 
Q 1547 409 2034 409 
Q 2525 409 2770 889 
Q 3016 1369 3016 2328 
Q 3016 3291 2770 3770 
Q 2525 4250 2034 4250 
z
M 2034 4750 
Q 2819 4750 3233 4129 
Q 3647 3509 3647 2328 
Q 3647 1150 3233 529 
Q 2819 -91 2034 -91 
Q 1250 -91 836 529 
Q 422 1150 422 2328 
Q 422 3509 836 4129 
Q 1250 4750 2034 4750 
z
" transform="scale(0.015625)"/>
       </defs>
       <use xlink:href="#DejaVuSans-30"/>
      </g>
     </g>
    </g>
    <g id="xtick_2">
     <g id="line2d_2">
      <g>
       <use xlink:href="#md27e040743" x="99.269869" y="190.626667" style="stroke: #000000; stroke-width: 0.8"/>
      </g>
     </g>
     <g id="text_2">
      <!-- 50 -->
      <g transform="translate(92.907369 205.225104) scale(0.1 -0.1)">
       <defs>
        <path id="DejaVuSans-35" d="M 691 4666 
L 3169 4666 
L 3169 4134 
L 1269 4134 
L 1269 2991 
Q 1406 3038 1543 3061 
Q 1681 3084 1819 3084 
Q 2600 3084 3056 2656 
Q 3513 2228 3513 1497 
Q 3513 744 3044 326 
Q 2575 -91 1722 -91 
Q 1428 -91 1123 -41 
Q 819 9 494 109 
L 494 744 
Q 775 591 1075 516 
Q 1375 441 1709 441 
Q 2250 441 2565 725 
Q 2881 1009 2881 1497 
Q 2881 1984 2565 2268 
Q 2250 2553 1709 2553 
Q 1456 2553 1204 2497 
Q 953 2441 691 2322 
L 691 4666 
z
" transform="scale(0.015625)"/>
       </defs>
       <use xlink:href="#DejaVuSans-35"/>
       <use xlink:href="#DejaVuSans-30" x="63.623047"/>
      </g>
     </g>
    </g>
    <g id="xtick_3">
     <g id="line2d_3">
      <g>
       <use xlink:href="#md27e040743" x="141.369738" y="190.626667" style="stroke: #000000; stroke-width: 0.8"/>
      </g>
     </g>
     <g id="text_3">
      <!-- 100 -->
      <g transform="translate(131.825988 205.225104) scale(0.1 -0.1)">
       <defs>
        <path id="DejaVuSans-31" d="M 794 531 
L 1825 531 
L 1825 4091 
L 703 3866 
L 703 4441 
L 1819 4666 
L 2450 4666 
L 2450 531 
L 3481 531 
L 3481 0 
L 794 0 
L 794 531 
z
" transform="scale(0.015625)"/>
       </defs>
       <use xlink:href="#DejaVuSans-31"/>
       <use xlink:href="#DejaVuSans-30" x="63.623047"/>
       <use xlink:href="#DejaVuSans-30" x="127.246094"/>
      </g>
     </g>
    </g>
    <g id="xtick_4">
     <g id="line2d_4">
      <g>
       <use xlink:href="#md27e040743" x="183.469606" y="190.626667" style="stroke: #000000; stroke-width: 0.8"/>
      </g>
     </g>
     <g id="text_4">
      <!-- 150 -->
      <g transform="translate(173.925856 205.225104) scale(0.1 -0.1)">
       <use xlink:href="#DejaVuSans-31"/>
       <use xlink:href="#DejaVuSans-35" x="63.623047"/>
       <use xlink:href="#DejaVuSans-30" x="127.246094"/>
      </g>
     </g>
    </g>
    <g id="xtick_5">
     <g id="line2d_5">
      <g>
       <use xlink:href="#md27e040743" x="225.569475" y="190.626667" style="stroke: #000000; stroke-width: 0.8"/>
      </g>
     </g>
     <g id="text_5">
      <!-- 200 -->
      <g transform="translate(216.025725 205.225104) scale(0.1 -0.1)">
       <defs>
        <path id="DejaVuSans-32" d="M 1228 531 
L 3431 531 
L 3431 0 
L 469 0 
L 469 531 
Q 828 903 1448 1529 
Q 2069 2156 2228 2338 
Q 2531 2678 2651 2914 
Q 2772 3150 2772 3378 
Q 2772 3750 2511 3984 
Q 2250 4219 1831 4219 
Q 1534 4219 1204 4116 
Q 875 4013 500 3803 
L 500 4441 
Q 881 4594 1212 4672 
Q 1544 4750 1819 4750 
Q 2544 4750 2975 4387 
Q 3406 4025 3406 3419 
Q 3406 3131 3298 2873 
Q 3191 2616 2906 2266 
Q 2828 2175 2409 1742 
Q 1991 1309 1228 531 
z
" transform="scale(0.015625)"/>
       </defs>
       <use xlink:href="#DejaVuSans-32"/>
       <use xlink:href="#DejaVuSans-30" x="63.623047"/>
       <use xlink:href="#DejaVuSans-30" x="127.246094"/>
      </g>
     </g>
    </g>
    <g id="xtick_6">
     <g id="line2d_6">
      <g>
       <use xlink:href="#md27e040743" x="267.669344" y="190.626667" style="stroke: #000000; stroke-width: 0.8"/>
      </g>
     </g>
     <g id="text_6">
      <!-- 250 -->
      <g transform="translate(258.125594 205.225104) scale(0.1 -0.1)">
       <use xlink:href="#DejaVuSans-32"/>
       <use xlink:href="#DejaVuSans-35" x="63.623047"/>
       <use xlink:href="#DejaVuSans-30" x="127.246094"/>
      </g>
     </g>
    </g>
   </g>
   <g id="matplotlib.axis_2">
    <g id="ytick_1">
     <g id="line2d_7">
      <defs>
       <path id="m1f2f7a503b" d="M 0 0 
L -3.5 0 
" style="stroke: #000000; stroke-width: 0.8"/>
      </defs>
      <g>
       <use xlink:href="#m1f2f7a503b" x="57.17" y="190.626667" style="stroke: #000000; stroke-width: 0.8"/>
      </g>
     </g>
     <g id="text_7">
      <!-- 0 -->
      <g transform="translate(43.8075 194.425885) scale(0.1 -0.1)">
       <use xlink:href="#DejaVuSans-30"/>
      </g>
     </g>
    </g>
    <g id="ytick_2">
     <g id="line2d_8">
      <g>
       <use xlink:href="#m1f2f7a503b" x="57.17" y="162.100863" style="stroke: #000000; stroke-width: 0.8"/>
      </g>
     </g>
     <g id="text_8">
      <!-- 500 -->
      <g transform="translate(31.0825 165.900082) scale(0.1 -0.1)">
       <use xlink:href="#DejaVuSans-35"/>
       <use xlink:href="#DejaVuSans-30" x="63.623047"/>
       <use xlink:href="#DejaVuSans-30" x="127.246094"/>
      </g>
     </g>
    </g>
    <g id="ytick_3">
     <g id="line2d_9">
      <g>
       <use xlink:href="#m1f2f7a503b" x="57.17" y="133.575059" style="stroke: #000000; stroke-width: 0.8"/>
      </g>
     </g>
     <g id="text_9">
      <!-- 1000 -->
      <g transform="translate(24.72 137.374278) scale(0.1 -0.1)">
       <use xlink:href="#DejaVuSans-31"/>
       <use xlink:href="#DejaVuSans-30" x="63.623047"/>
       <use xlink:href="#DejaVuSans-30" x="127.246094"/>
       <use xlink:href="#DejaVuSans-30" x="190.869141"/>
      </g>
     </g>
    </g>
    <g id="ytick_4">
     <g id="line2d_10">
      <g>
       <use xlink:href="#m1f2f7a503b" x="57.17" y="105.049255" style="stroke: #000000; stroke-width: 0.8"/>
      </g>
     </g>
     <g id="text_10">
      <!-- 1500 -->
      <g transform="translate(24.72 108.848474) scale(0.1 -0.1)">
       <use xlink:href="#DejaVuSans-31"/>
       <use xlink:href="#DejaVuSans-35" x="63.623047"/>
       <use xlink:href="#DejaVuSans-30" x="127.246094"/>
       <use xlink:href="#DejaVuSans-30" x="190.869141"/>
      </g>
     </g>
    </g>
    <g id="ytick_5">
     <g id="line2d_11">
      <g>
       <use xlink:href="#m1f2f7a503b" x="57.17" y="76.523452" style="stroke: #000000; stroke-width: 0.8"/>
      </g>
     </g>
     <g id="text_11">
      <!-- 2000 -->
      <g transform="translate(24.72 80.322671) scale(0.1 -0.1)">
       <use xlink:href="#DejaVuSans-32"/>
       <use xlink:href="#DejaVuSans-30" x="63.623047"/>
       <use xlink:href="#DejaVuSans-30" x="127.246094"/>
       <use xlink:href="#DejaVuSans-30" x="190.869141"/>
      </g>
     </g>
    </g>
    <g id="ytick_6">
     <g id="line2d_12">
      <g>
       <use xlink:href="#m1f2f7a503b" x="57.17" y="47.997648" style="stroke: #000000; stroke-width: 0.8"/>
      </g>
     </g>
     <g id="text_12">
      <!-- 2500 -->
      <g transform="translate(24.72 51.796867) scale(0.1 -0.1)">
       <use xlink:href="#DejaVuSans-32"/>
       <use xlink:href="#DejaVuSans-35" x="63.623047"/>
       <use xlink:href="#DejaVuSans-30" x="127.246094"/>
       <use xlink:href="#DejaVuSans-30" x="190.869141"/>
      </g>
     </g>
    </g>
    <g id="ytick_7">
     <g id="line2d_13">
      <g>
       <use xlink:href="#m1f2f7a503b" x="57.17" y="19.471844" style="stroke: #000000; stroke-width: 0.8"/>
      </g>
     </g>
     <g id="text_13">
      <!-- 3000 -->
      <g transform="translate(24.72 23.271063) scale(0.1 -0.1)">
       <defs>
        <path id="DejaVuSans-33" d="M 2597 2516 
Q 3050 2419 3304 2112 
Q 3559 1806 3559 1356 
Q 3559 666 3084 287 
Q 2609 -91 1734 -91 
Q 1441 -91 1130 -33 
Q 819 25 488 141 
L 488 750 
Q 750 597 1062 519 
Q 1375 441 1716 441 
Q 2309 441 2620 675 
Q 2931 909 2931 1356 
Q 2931 1769 2642 2001 
Q 2353 2234 1838 2234 
L 1294 2234 
L 1294 2753 
L 1863 2753 
Q 2328 2753 2575 2939 
Q 2822 3125 2822 3475 
Q 2822 3834 2567 4026 
Q 2313 4219 1838 4219 
Q 1578 4219 1281 4162 
Q 984 4106 628 3988 
L 628 4550 
Q 988 4650 1302 4700 
Q 1616 4750 1894 4750 
Q 2613 4750 3031 4423 
Q 3450 4097 3450 3541 
Q 3450 3153 3228 2886 
Q 3006 2619 2597 2516 
z
" transform="scale(0.015625)"/>
       </defs>
       <use xlink:href="#DejaVuSans-33"/>
       <use xlink:href="#DejaVuSans-30" x="63.623047"/>
       <use xlink:href="#DejaVuSans-30" x="127.246094"/>
       <use xlink:href="#DejaVuSans-30" x="190.869141"/>
      </g>
     </g>
    </g>
    <g id="text_14">
     <!-- Pixel Frequency -->
     <g transform="translate(18.640313 139.69224) rotate(-90) scale(0.1 -0.1)">
      <defs>
       <path id="DejaVuSans-50" d="M 1259 4147 
L 1259 2394 
L 2053 2394 
Q 2494 2394 2734 2622 
Q 2975 2850 2975 3272 
Q 2975 3691 2734 3919 
Q 2494 4147 2053 4147 
L 1259 4147 
z
M 628 4666 
L 2053 4666 
Q 2838 4666 3239 4311 
Q 3641 3956 3641 3272 
Q 3641 2581 3239 2228 
Q 2838 1875 2053 1875 
L 1259 1875 
L 1259 0 
L 628 0 
L 628 4666 
z
" transform="scale(0.015625)"/>
       <path id="DejaVuSans-69" d="M 603 3500 
L 1178 3500 
L 1178 0 
L 603 0 
L 603 3500 
z
M 603 4863 
L 1178 4863 
L 1178 4134 
L 603 4134 
L 603 4863 
z
" transform="scale(0.015625)"/>
       <path id="DejaVuSans-78" d="M 3513 3500 
L 2247 1797 
L 3578 0 
L 2900 0 
L 1881 1375 
L 863 0 
L 184 0 
L 1544 1831 
L 300 3500 
L 978 3500 
L 1906 2253 
L 2834 3500 
L 3513 3500 
z
" transform="scale(0.015625)"/>
       <path id="DejaVuSans-65" d="M 3597 1894 
L 3597 1613 
L 953 1613 
Q 991 1019 1311 708 
Q 1631 397 2203 397 
Q 2534 397 2845 478 
Q 3156 559 3463 722 
L 3463 178 
Q 3153 47 2828 -22 
Q 2503 -91 2169 -91 
Q 1331 -91 842 396 
Q 353 884 353 1716 
Q 353 2575 817 3079 
Q 1281 3584 2069 3584 
Q 2775 3584 3186 3129 
Q 3597 2675 3597 1894 
z
M 3022 2063 
Q 3016 2534 2758 2815 
Q 2500 3097 2075 3097 
Q 1594 3097 1305 2825 
Q 1016 2553 972 2059 
L 3022 2063 
z
" transform="scale(0.015625)"/>
       <path id="DejaVuSans-6c" d="M 603 4863 
L 1178 4863 
L 1178 0 
L 603 0 
L 603 4863 
z
" transform="scale(0.015625)"/>
       <path id="DejaVuSans-20" transform="scale(0.015625)"/>
       <path id="DejaVuSans-46" d="M 628 4666 
L 3309 4666 
L 3309 4134 
L 1259 4134 
L 1259 2759 
L 3109 2759 
L 3109 2228 
L 1259 2228 
L 1259 0 
L 628 0 
L 628 4666 
z
" transform="scale(0.015625)"/>
       <path id="DejaVuSans-72" d="M 2631 2963 
Q 2534 3019 2420 3045 
Q 2306 3072 2169 3072 
Q 1681 3072 1420 2755 
Q 1159 2438 1159 1844 
L 1159 0 
L 581 0 
L 581 3500 
L 1159 3500 
L 1159 2956 
Q 1341 3275 1631 3429 
Q 1922 3584 2338 3584 
Q 2397 3584 2469 3576 
Q 2541 3569 2628 3553 
L 2631 2963 
z
" transform="scale(0.015625)"/>
       <path id="DejaVuSans-71" d="M 947 1747 
Q 947 1113 1208 752 
Q 1469 391 1925 391 
Q 2381 391 2643 752 
Q 2906 1113 2906 1747 
Q 2906 2381 2643 2742 
Q 2381 3103 1925 3103 
Q 1469 3103 1208 2742 
Q 947 2381 947 1747 
z
M 2906 525 
Q 2725 213 2448 61 
Q 2172 -91 1784 -91 
Q 1150 -91 751 415 
Q 353 922 353 1747 
Q 353 2572 751 3078 
Q 1150 3584 1784 3584 
Q 2172 3584 2448 3432 
Q 2725 3281 2906 2969 
L 2906 3500 
L 3481 3500 
L 3481 -1331 
L 2906 -1331 
L 2906 525 
z
" transform="scale(0.015625)"/>
       <path id="DejaVuSans-75" d="M 544 1381 
L 544 3500 
L 1119 3500 
L 1119 1403 
Q 1119 906 1312 657 
Q 1506 409 1894 409 
Q 2359 409 2629 706 
Q 2900 1003 2900 1516 
L 2900 3500 
L 3475 3500 
L 3475 0 
L 2900 0 
L 2900 538 
Q 2691 219 2414 64 
Q 2138 -91 1772 -91 
Q 1169 -91 856 284 
Q 544 659 544 1381 
z
M 1991 3584 
L 1991 3584 
z
" transform="scale(0.015625)"/>
       <path id="DejaVuSans-6e" d="M 3513 2113 
L 3513 0 
L 2938 0 
L 2938 2094 
Q 2938 2591 2744 2837 
Q 2550 3084 2163 3084 
Q 1697 3084 1428 2787 
Q 1159 2491 1159 1978 
L 1159 0 
L 581 0 
L 581 3500 
L 1159 3500 
L 1159 2956 
Q 1366 3272 1645 3428 
Q 1925 3584 2291 3584 
Q 2894 3584 3203 3211 
Q 3513 2838 3513 2113 
z
" transform="scale(0.015625)"/>
       <path id="DejaVuSans-63" d="M 3122 3366 
L 3122 2828 
Q 2878 2963 2633 3030 
Q 2388 3097 2138 3097 
Q 1578 3097 1268 2742 
Q 959 2388 959 1747 
Q 959 1106 1268 751 
Q 1578 397 2138 397 
Q 2388 397 2633 464 
Q 2878 531 3122 666 
L 3122 134 
Q 2881 22 2623 -34 
Q 2366 -91 2075 -91 
Q 1284 -91 818 406 
Q 353 903 353 1747 
Q 353 2603 823 3093 
Q 1294 3584 2113 3584 
Q 2378 3584 2631 3529 
Q 2884 3475 3122 3366 
z
" transform="scale(0.015625)"/>
       <path id="DejaVuSans-79" d="M 2059 -325 
Q 1816 -950 1584 -1140 
Q 1353 -1331 966 -1331 
L 506 -1331 
L 506 -850 
L 844 -850 
Q 1081 -850 1212 -737 
Q 1344 -625 1503 -206 
L 1606 56 
L 191 3500 
L 800 3500 
L 1894 763 
L 2988 3500 
L 3597 3500 
L 2059 -325 
z
" transform="scale(0.015625)"/>
      </defs>
      <use xlink:href="#DejaVuSans-50"/>
      <use xlink:href="#DejaVuSans-69" x="58.052734"/>
      <use xlink:href="#DejaVuSans-78" x="85.835938"/>
      <use xlink:href="#DejaVuSans-65" x="141.890625"/>
      <use xlink:href="#DejaVuSans-6c" x="203.414062"/>
      <use xlink:href="#DejaVuSans-20" x="231.197266"/>
      <use xlink:href="#DejaVuSans-46" x="262.984375"/>
      <use xlink:href="#DejaVuSans-72" x="313.253906"/>
      <use xlink:href="#DejaVuSans-65" x="352.117188"/>
      <use xlink:href="#DejaVuSans-71" x="413.640625"/>
      <use xlink:href="#DejaVuSans-75" x="477.117188"/>
      <use xlink:href="#DejaVuSans-65" x="540.496094"/>
      <use xlink:href="#DejaVuSans-6e" x="602.019531"/>
      <use xlink:href="#DejaVuSans-63" x="665.398438"/>
      <use xlink:href="#DejaVuSans-79" x="720.378906"/>
     </g>
    </g>
   </g>
   <g id="line2d_14">
    <path d="M 57.17 190.626667 
L 93.375887 190.626667 
L 94.217885 189.827944 
L 95.059882 189.713841 
L 95.901879 183.038803 
L 96.743877 173.168875 
L 97.585874 173.796442 
L 98.427871 171.457327 
L 99.269869 170.316294 
L 100.111866 156.110444 
L 100.953864 128.725673 
L 101.795861 106.190288 
L 102.637858 89.93058 
L 103.479856 104.878101 
L 104.321853 131.749408 
L 105.16385 150.29118 
L 106.005848 149.321303 
L 106.847845 116.231371 
L 107.689843 91.071612 
L 108.53184 76.523452 
L 109.373837 70.875343 
L 110.215835 89.131857 
L 111.057832 70.07662 
L 111.899829 66.140059 
L 112.741827 89.017754 
L 113.583824 130.03786 
L 114.425822 145.099484 
L 115.267819 152.230935 
L 116.109816 154.455948 
L 116.951814 159.305334 
L 117.793811 161.416244 
L 118.635808 165.124598 
L 119.477806 165.18165 
L 120.319803 162.842534 
L 121.161801 163.07074 
L 122.003798 164.725237 
L 122.845795 163.812411 
L 123.687793 165.067547 
L 124.52979 165.010495 
L 125.371787 167.121404 
L 126.213785 167.178456 
L 127.055782 166.037424 
L 127.89778 165.695114 
L 128.739777 168.03423 
L 129.581774 167.863075 
L 130.423772 166.60794 
L 131.265769 166.208579 
L 132.107766 167.920127 
L 132.949764 168.319488 
L 133.791761 167.863075 
L 134.633759 167.863075 
L 135.475756 169.346417 
L 136.317753 169.745778 
L 137.159751 169.745778 
L 138.001748 170.031036 
L 138.843745 169.175262 
L 140.52774 169.631675 
L 141.369738 172.198997 
L 142.211735 171.400275 
L 143.053732 171.856688 
L 143.89573 171.685533 
L 144.737727 171.685533 
L 145.579724 171.856688 
L 146.421722 173.397081 
L 148.947714 174.309907 
L 149.789711 174.252855 
L 150.631709 176.306713 
L 151.473706 176.19261 
L 152.315703 177.219539 
L 153.157701 176.820178 
L 153.999698 178.702881 
L 154.841696 178.189416 
L 155.683693 179.501603 
L 156.52569 179.672758 
L 157.367688 179.3875 
L 158.209685 179.330448 
L 159.051682 179.615706 
L 159.89368 181.555461 
L 160.735677 180.927893 
L 161.577675 180.699687 
L 162.419672 183.038803 
L 163.261669 183.495216 
L 164.103667 183.267009 
L 164.945664 183.324061 
L 165.787661 183.951629 
L 166.629659 184.864454 
L 167.471656 184.864454 
L 168.313654 183.951629 
L 169.155651 185.377919 
L 170.839646 186.518951 
L 172.52364 186.461899 
L 173.365638 186.747157 
L 174.207635 186.461899 
L 175.049633 187.717035 
L 175.89163 187.317673 
L 176.733627 187.431777 
L 177.575625 187.146519 
L 178.417622 187.488828 
L 179.259619 188.059344 
L 180.101617 187.488828 
L 180.943614 187.717035 
L 181.785612 188.401654 
L 182.627609 188.401654 
L 184.311604 188.97217 
L 185.153601 188.743964 
L 185.995598 188.686912 
L 187.679593 189.371531 
L 188.521591 188.801015 
L 189.363588 188.801015 
L 190.205585 189.371531 
L 191.047583 188.743964 
L 191.88958 189.257428 
L 192.731577 189.542686 
L 193.573575 189.257428 
L 194.415572 189.428583 
L 195.25757 189.713841 
L 196.099567 189.143325 
L 196.941564 189.656789 
L 197.783562 189.770893 
L 198.625559 189.086273 
L 199.467556 188.97217 
L 200.309554 189.542686 
L 201.151551 189.656789 
L 201.993549 189.542686 
L 202.835546 189.827944 
L 203.677543 189.371531 
L 206.203535 190.284357 
L 207.045533 190.056151 
L 207.88753 190.170254 
L 208.729528 189.942047 
L 209.571525 190.056151 
L 211.25552 189.884996 
L 212.097517 190.056151 
L 212.939514 190.056151 
L 213.781512 189.884996 
L 214.623509 190.056151 
L 215.465507 189.942047 
L 216.307504 189.942047 
L 217.149501 190.39846 
L 217.991499 190.056151 
L 218.833496 189.999099 
L 219.675493 190.284357 
L 220.517491 190.113202 
L 221.359488 190.227305 
L 222.201486 190.170254 
L 223.88548 190.39846 
L 224.727478 190.227305 
L 225.569475 190.39846 
L 227.25347 190.170254 
L 228.095467 190.512563 
L 228.937465 190.227305 
L 229.779462 190.284357 
L 230.621459 190.512563 
L 231.463457 190.227305 
L 232.305454 190.341409 
L 233.147451 190.284357 
L 234.831446 190.341409 
L 235.673444 190.284357 
L 239.041433 190.512563 
L 239.88343 190.455512 
L 240.725428 190.113202 
L 241.567425 190.512563 
L 242.409423 190.227305 
L 243.25142 190.39846 
L 244.093417 190.170254 
L 244.935415 190.227305 
L 245.777412 190.39846 
L 246.619409 190.284357 
L 247.461407 190.512563 
L 248.303404 190.341409 
L 249.145402 190.512563 
L 249.987399 190.170254 
L 250.829396 190.227305 
L 251.671394 190.455512 
L 255.039383 190.284357 
L 255.881381 190.569615 
L 257.565375 190.569615 
L 258.407373 190.341409 
L 260.091367 190.626667 
L 260.933365 190.455512 
L 262.61736 190.569615 
L 263.459357 190.512563 
L 264.301354 190.626667 
L 265.143352 190.284357 
L 265.985349 190.455512 
L 266.827346 190.341409 
L 267.669344 190.569615 
L 268.511341 190.341409 
L 269.353339 190.569615 
L 270.195336 190.512563 
L 271.037333 190.284357 
L 271.879331 190.455512 
L 271.879331 190.455512 
" clip-path="url(#p0447cdf367)" style="fill: none; stroke: #ff0000; stroke-width: 1.5; stroke-linecap: square"/>
   </g>
   <g id="patch_3">
    <path d="M 57.17 190.626667 
L 57.17 10.8 
" style="fill: none; stroke: #000000; stroke-width: 0.8; stroke-linejoin: miter; stroke-linecap: square"/>
   </g>
   <g id="patch_4">
    <path d="M 272.721328 190.626667 
L 272.721328 10.8 
" style="fill: none; stroke: #000000; stroke-width: 0.8; stroke-linejoin: miter; stroke-linecap: square"/>
   </g>
   <g id="patch_5">
    <path d="M 57.17 190.626667 
L 272.721328 190.626667 
" style="fill: none; stroke: #000000; stroke-width: 0.8; stroke-linejoin: miter; stroke-linecap: square"/>
   </g>
   <g id="patch_6">
    <path d="M 57.17 10.8 
L 272.721328 10.8 
" style="fill: none; stroke: #000000; stroke-width: 0.8; stroke-linejoin: miter; stroke-linecap: square"/>
   </g>
   <g id="text_15">
    <!-- Red Channel  -->
    <g transform="translate(193.028203 24.8) scale(0.12 -0.12)">
     <defs>
      <path id="DejaVuSans-52" d="M 2841 2188 
Q 3044 2119 3236 1894 
Q 3428 1669 3622 1275 
L 4263 0 
L 3584 0 
L 2988 1197 
Q 2756 1666 2539 1819 
Q 2322 1972 1947 1972 
L 1259 1972 
L 1259 0 
L 628 0 
L 628 4666 
L 2053 4666 
Q 2853 4666 3247 4331 
Q 3641 3997 3641 3322 
Q 3641 2881 3436 2590 
Q 3231 2300 2841 2188 
z
M 1259 4147 
L 1259 2491 
L 2053 2491 
Q 2509 2491 2742 2702 
Q 2975 2913 2975 3322 
Q 2975 3731 2742 3939 
Q 2509 4147 2053 4147 
L 1259 4147 
z
" transform="scale(0.015625)"/>
      <path id="DejaVuSans-64" d="M 2906 2969 
L 2906 4863 
L 3481 4863 
L 3481 0 
L 2906 0 
L 2906 525 
Q 2725 213 2448 61 
Q 2172 -91 1784 -91 
Q 1150 -91 751 415 
Q 353 922 353 1747 
Q 353 2572 751 3078 
Q 1150 3584 1784 3584 
Q 2172 3584 2448 3432 
Q 2725 3281 2906 2969 
z
M 947 1747 
Q 947 1113 1208 752 
Q 1469 391 1925 391 
Q 2381 391 2643 752 
Q 2906 1113 2906 1747 
Q 2906 2381 2643 2742 
Q 2381 3103 1925 3103 
Q 1469 3103 1208 2742 
Q 947 2381 947 1747 
z
" transform="scale(0.015625)"/>
      <path id="DejaVuSans-43" d="M 4122 4306 
L 4122 3641 
Q 3803 3938 3442 4084 
Q 3081 4231 2675 4231 
Q 1875 4231 1450 3742 
Q 1025 3253 1025 2328 
Q 1025 1406 1450 917 
Q 1875 428 2675 428 
Q 3081 428 3442 575 
Q 3803 722 4122 1019 
L 4122 359 
Q 3791 134 3420 21 
Q 3050 -91 2638 -91 
Q 1578 -91 968 557 
Q 359 1206 359 2328 
Q 359 3453 968 4101 
Q 1578 4750 2638 4750 
Q 3056 4750 3426 4639 
Q 3797 4528 4122 4306 
z
" transform="scale(0.015625)"/>
      <path id="DejaVuSans-68" d="M 3513 2113 
L 3513 0 
L 2938 0 
L 2938 2094 
Q 2938 2591 2744 2837 
Q 2550 3084 2163 3084 
Q 1697 3084 1428 2787 
Q 1159 2491 1159 1978 
L 1159 0 
L 581 0 
L 581 4863 
L 1159 4863 
L 1159 2956 
Q 1366 3272 1645 3428 
Q 1925 3584 2291 3584 
Q 2894 3584 3203 3211 
Q 3513 2838 3513 2113 
z
" transform="scale(0.015625)"/>
      <path id="DejaVuSans-61" d="M 2194 1759 
Q 1497 1759 1228 1600 
Q 959 1441 959 1056 
Q 959 750 1161 570 
Q 1363 391 1709 391 
Q 2188 391 2477 730 
Q 2766 1069 2766 1631 
L 2766 1759 
L 2194 1759 
z
M 3341 1997 
L 3341 0 
L 2766 0 
L 2766 531 
Q 2569 213 2275 61 
Q 1981 -91 1556 -91 
Q 1019 -91 701 211 
Q 384 513 384 1019 
Q 384 1609 779 1909 
Q 1175 2209 1959 2209 
L 2766 2209 
L 2766 2266 
Q 2766 2663 2505 2880 
Q 2244 3097 1772 3097 
Q 1472 3097 1187 3025 
Q 903 2953 641 2809 
L 641 3341 
Q 956 3463 1253 3523 
Q 1550 3584 1831 3584 
Q 2591 3584 2966 3190 
Q 3341 2797 3341 1997 
z
" transform="scale(0.015625)"/>
     </defs>
     <use xlink:href="#DejaVuSans-52"/>
     <use xlink:href="#DejaVuSans-65" x="64.982422"/>
     <use xlink:href="#DejaVuSans-64" x="126.505859"/>
     <use xlink:href="#DejaVuSans-20" x="189.982422"/>
     <use xlink:href="#DejaVuSans-43" x="221.769531"/>
     <use xlink:href="#DejaVuSans-68" x="291.59375"/>
     <use xlink:href="#DejaVuSans-61" x="354.972656"/>
     <use xlink:href="#DejaVuSans-6e" x="416.251953"/>
     <use xlink:href="#DejaVuSans-6e" x="479.630859"/>
     <use xlink:href="#DejaVuSans-65" x="543.009766"/>
     <use xlink:href="#DejaVuSans-6c" x="604.533203"/>
     <use xlink:href="#DejaVuSans-20" x="632.316406"/>
    </g>
   </g>
  </g>
  <g id="axes_2">
   <g id="patch_7">
    <path d="M 57.17 398.333333 
L 272.721328 398.333333 
L 272.721328 218.506667 
L 57.17 218.506667 
z
" style="fill: #ffffff"/>
   </g>
   <g id="PolyCollection_2">
    <defs>
     <path id="m0cdfb51773" d="M 57.17 -249.666667 
L 57.17 -249.666667 
L 58.011997 -249.666667 
L 58.853995 -249.666667 
L 59.695992 -249.666667 
L 60.53799 -249.666667 
L 61.379987 -249.666667 
L 62.221984 -249.666667 
L 63.063982 -249.666667 
L 63.905979 -249.666667 
L 64.747976 -249.666667 
L 65.589974 -249.666667 
L 66.431971 -249.666667 
L 67.273969 -249.666667 
L 68.115966 -249.666667 
L 68.957963 -249.666667 
L 69.799961 -249.666667 
L 70.641958 -249.666667 
L 71.483955 -249.666667 
L 72.325953 -249.666667 
L 73.16795 -249.666667 
L 74.009948 -249.666667 
L 74.851945 -249.666667 
L 75.693942 -249.666667 
L 76.53594 -249.666667 
L 77.377937 -249.666667 
L 78.219934 -249.666667 
L 79.061932 -249.666667 
L 79.903929 -249.666667 
L 80.745927 -249.666667 
L 81.587924 -249.666667 
L 82.429921 -249.666667 
L 83.271919 -249.666667 
L 84.113916 -249.666667 
L 84.955913 -249.666667 
L 85.797911 -249.666667 
L 86.639908 -249.666667 
L 87.481906 -249.666667 
L 88.323903 -249.666667 
L 89.1659 -249.666667 
L 90.007898 -249.723718 
L 90.849895 -250.693596 
L 91.691892 -253.089763 
L 92.53389 -259.650698 
L 93.375887 -266.725097 
L 94.217885 -266.610994 
L 95.059882 -283.441218 
L 95.901879 -302.268249 
L 96.743877 -289.089327 
L 97.585874 -292.056011 
L 98.427871 -320.75297 
L 99.269869 -329.481865 
L 100.111866 -314.477293 
L 100.953864 -290.572669 
L 101.795861 -283.49827 
L 102.637858 -281.558515 
L 103.479856 -277.507851 
L 104.321853 -280.588638 
L 105.16385 -315.846531 
L 106.005848 -339.009484 
L 106.847845 -351.617889 
L 107.689843 -344.372335 
L 108.53184 -333.703684 
L 109.373837 -340.721032 
L 110.215835 -345.741574 
L 111.057832 -360.061527 
L 111.899829 -347.624277 
L 112.741827 -305.291984 
L 113.583824 -289.032276 
L 114.425822 -279.904019 
L 115.267819 -276.994387 
L 116.109816 -275.568096 
L 116.951814 -274.541168 
L 117.793811 -274.198858 
L 118.635808 -269.406523 
L 119.477806 -269.520626 
L 120.319803 -272.715516 
L 121.161801 -270.775761 
L 122.003798 -271.403329 
L 122.845795 -270.547555 
L 123.687793 -269.748832 
L 124.52979 -272.658464 
L 125.371787 -271.460381 
L 126.213785 -268.836007 
L 127.055782 -271.403329 
L 127.89778 -269.064213 
L 128.739777 -271.346277 
L 129.581774 -270.433452 
L 130.423772 -271.003968 
L 131.265769 -270.262297 
L 132.107766 -268.836007 
L 132.949764 -270.319349 
L 133.791761 -269.691781 
L 134.633759 -268.893058 
L 135.475756 -268.550749 
L 136.317753 -269.235368 
L 137.159751 -266.782149 
L 138.001748 -268.893058 
L 138.843745 -267.637923 
L 139.685743 -269.064213 
L 140.52774 -270.205245 
L 141.369738 -265.469962 
L 142.211735 -267.866129 
L 143.053732 -267.409717 
L 143.89573 -267.352665 
L 144.737727 -267.866129 
L 145.579724 -265.812272 
L 146.421722 -266.268684 
L 147.263719 -265.641117 
L 148.105717 -266.896252 
L 148.947714 -266.496891 
L 149.789711 -265.127652 
L 150.631709 -265.241755 
L 151.473706 -266.09753 
L 152.315703 -265.698168 
L 153.157701 -263.929569 
L 153.999698 -264.32893 
L 154.841696 -264.728291 
L 155.683693 -263.359052 
L 156.52569 -262.046865 
L 157.367688 -261.13404 
L 158.209685 -262.275072 
L 159.051682 -262.160969 
L 159.89368 -261.989814 
L 160.735677 -261.704556 
L 161.577675 -262.275072 
L 162.419672 -260.620575 
L 163.261669 -259.137234 
L 164.103667 -259.251337 
L 164.945664 -259.308388 
L 165.787661 -258.452614 
L 166.629659 -258.224408 
L 167.471656 -258.053253 
L 168.313654 -257.710943 
L 169.155651 -257.996201 
L 169.997648 -256.912221 
L 170.839646 -256.341705 
L 171.681643 -257.368634 
L 172.52364 -256.056447 
L 173.365638 -256.855169 
L 174.207635 -255.428879 
L 175.049633 -255.942343 
L 175.89163 -255.200673 
L 176.733627 -255.314776 
L 177.575625 -254.858363 
L 178.417622 -254.344898 
L 179.259619 -254.459002 
L 180.101617 -253.375021 
L 180.943614 -253.260918 
L 181.785612 -254.915415 
L 182.627609 -252.690402 
L 183.469606 -253.603228 
L 184.311604 -253.146815 
L 185.153601 -253.717331 
L 185.995598 -252.462195 
L 186.837596 -252.861557 
L 187.679593 -251.891679 
L 188.521591 -253.260918 
L 189.363588 -251.777576 
L 190.205585 -253.203866 
L 191.047583 -252.861557 
L 191.88958 -251.777576 
L 192.731577 -251.891679 
L 193.573575 -252.405144 
L 194.415572 -251.891679 
L 195.25757 -251.891679 
L 196.099567 -251.20706 
L 196.941564 -251.492318 
L 197.783562 -251.606421 
L 198.625559 -251.492318 
L 199.467556 -251.035905 
L 200.309554 -251.606421 
L 201.151551 -251.663473 
L 201.993549 -250.807699 
L 202.835546 -250.86475 
L 203.677543 -250.693596 
L 204.519541 -250.86475 
L 205.361538 -250.978854 
L 206.203535 -251.264112 
L 207.045533 -251.092957 
L 207.88753 -250.978854 
L 208.729528 -250.693596 
L 209.571525 -250.351286 
L 210.413522 -251.150008 
L 211.25552 -250.807699 
L 212.097517 -250.750647 
L 212.939514 -250.807699 
L 213.781512 -250.750647 
L 214.623509 -250.807699 
L 215.465507 -250.465389 
L 216.307504 -250.750647 
L 217.149501 -250.579492 
L 217.991499 -250.693596 
L 218.833496 -250.522441 
L 219.675493 -250.465389 
L 220.517491 -250.237183 
L 221.359488 -250.522441 
L 222.201486 -250.465389 
L 223.043483 -250.237183 
L 223.88548 -250.408338 
L 224.727478 -250.066028 
L 225.569475 -250.408338 
L 226.411472 -250.237183 
L 227.25347 -250.465389 
L 228.095467 -250.636544 
L 228.937465 -250.237183 
L 229.779462 -250.12308 
L 230.621459 -250.12308 
L 231.463457 -250.180131 
L 232.305454 -250.237183 
L 233.147451 -250.408338 
L 233.989449 -250.294234 
L 234.831446 -250.237183 
L 235.673444 -249.951925 
L 236.515441 -249.894873 
L 237.357438 -250.237183 
L 238.199436 -250.008976 
L 239.041433 -250.294234 
L 239.88343 -250.066028 
L 240.725428 -249.894873 
L 241.567425 -250.008976 
L 242.409423 -250.12308 
L 243.25142 -249.837821 
L 244.093417 -250.237183 
L 244.935415 -250.12308 
L 245.777412 -250.180131 
L 246.619409 -250.12308 
L 247.461407 -250.008976 
L 248.303404 -249.894873 
L 249.145402 -250.066028 
L 249.987399 -250.008976 
L 250.829396 -249.78077 
L 251.671394 -249.951925 
L 252.513391 -249.951925 
L 253.355388 -250.237183 
L 254.197386 -249.951925 
L 255.039383 -250.180131 
L 255.881381 -250.008976 
L 256.723378 -250.12308 
L 257.565375 -249.951925 
L 258.407373 -250.008976 
L 259.24937 -250.008976 
L 260.091367 -250.12308 
L 260.933365 -250.008976 
L 261.775362 -250.180131 
L 262.61736 -250.12308 
L 263.459357 -250.066028 
L 264.301354 -249.951925 
L 265.143352 -250.180131 
L 265.985349 -250.066028 
L 266.827346 -249.894873 
L 267.669344 -249.894873 
L 268.511341 -250.008976 
L 269.353339 -250.12308 
L 270.195336 -250.237183 
L 271.037333 -250.294234 
L 271.879331 -250.636544 
L 271.879331 -249.666667 
L 271.879331 -249.666667 
L 271.037333 -249.666667 
L 270.195336 -249.666667 
L 269.353339 -249.666667 
L 268.511341 -249.666667 
L 267.669344 -249.666667 
L 266.827346 -249.666667 
L 265.985349 -249.666667 
L 265.143352 -249.666667 
L 264.301354 -249.666667 
L 263.459357 -249.666667 
L 262.61736 -249.666667 
L 261.775362 -249.666667 
L 260.933365 -249.666667 
L 260.091367 -249.666667 
L 259.24937 -249.666667 
L 258.407373 -249.666667 
L 257.565375 -249.666667 
L 256.723378 -249.666667 
L 255.881381 -249.666667 
L 255.039383 -249.666667 
L 254.197386 -249.666667 
L 253.355388 -249.666667 
L 252.513391 -249.666667 
L 251.671394 -249.666667 
L 250.829396 -249.666667 
L 249.987399 -249.666667 
L 249.145402 -249.666667 
L 248.303404 -249.666667 
L 247.461407 -249.666667 
L 246.619409 -249.666667 
L 245.777412 -249.666667 
L 244.935415 -249.666667 
L 244.093417 -249.666667 
L 243.25142 -249.666667 
L 242.409423 -249.666667 
L 241.567425 -249.666667 
L 240.725428 -249.666667 
L 239.88343 -249.666667 
L 239.041433 -249.666667 
L 238.199436 -249.666667 
L 237.357438 -249.666667 
L 236.515441 -249.666667 
L 235.673444 -249.666667 
L 234.831446 -249.666667 
L 233.989449 -249.666667 
L 233.147451 -249.666667 
L 232.305454 -249.666667 
L 231.463457 -249.666667 
L 230.621459 -249.666667 
L 229.779462 -249.666667 
L 228.937465 -249.666667 
L 228.095467 -249.666667 
L 227.25347 -249.666667 
L 226.411472 -249.666667 
L 225.569475 -249.666667 
L 224.727478 -249.666667 
L 223.88548 -249.666667 
L 223.043483 -249.666667 
L 222.201486 -249.666667 
L 221.359488 -249.666667 
L 220.517491 -249.666667 
L 219.675493 -249.666667 
L 218.833496 -249.666667 
L 217.991499 -249.666667 
L 217.149501 -249.666667 
L 216.307504 -249.666667 
L 215.465507 -249.666667 
L 214.623509 -249.666667 
L 213.781512 -249.666667 
L 212.939514 -249.666667 
L 212.097517 -249.666667 
L 211.25552 -249.666667 
L 210.413522 -249.666667 
L 209.571525 -249.666667 
L 208.729528 -249.666667 
L 207.88753 -249.666667 
L 207.045533 -249.666667 
L 206.203535 -249.666667 
L 205.361538 -249.666667 
L 204.519541 -249.666667 
L 203.677543 -249.666667 
L 202.835546 -249.666667 
L 201.993549 -249.666667 
L 201.151551 -249.666667 
L 200.309554 -249.666667 
L 199.467556 -249.666667 
L 198.625559 -249.666667 
L 197.783562 -249.666667 
L 196.941564 -249.666667 
L 196.099567 -249.666667 
L 195.25757 -249.666667 
L 194.415572 -249.666667 
L 193.573575 -249.666667 
L 192.731577 -249.666667 
L 191.88958 -249.666667 
L 191.047583 -249.666667 
L 190.205585 -249.666667 
L 189.363588 -249.666667 
L 188.521591 -249.666667 
L 187.679593 -249.666667 
L 186.837596 -249.666667 
L 185.995598 -249.666667 
L 185.153601 -249.666667 
L 184.311604 -249.666667 
L 183.469606 -249.666667 
L 182.627609 -249.666667 
L 181.785612 -249.666667 
L 180.943614 -249.666667 
L 180.101617 -249.666667 
L 179.259619 -249.666667 
L 178.417622 -249.666667 
L 177.575625 -249.666667 
L 176.733627 -249.666667 
L 175.89163 -249.666667 
L 175.049633 -249.666667 
L 174.207635 -249.666667 
L 173.365638 -249.666667 
L 172.52364 -249.666667 
L 171.681643 -249.666667 
L 170.839646 -249.666667 
L 169.997648 -249.666667 
L 169.155651 -249.666667 
L 168.313654 -249.666667 
L 167.471656 -249.666667 
L 166.629659 -249.666667 
L 165.787661 -249.666667 
L 164.945664 -249.666667 
L 164.103667 -249.666667 
L 163.261669 -249.666667 
L 162.419672 -249.666667 
L 161.577675 -249.666667 
L 160.735677 -249.666667 
L 159.89368 -249.666667 
L 159.051682 -249.666667 
L 158.209685 -249.666667 
L 157.367688 -249.666667 
L 156.52569 -249.666667 
L 155.683693 -249.666667 
L 154.841696 -249.666667 
L 153.999698 -249.666667 
L 153.157701 -249.666667 
L 152.315703 -249.666667 
L 151.473706 -249.666667 
L 150.631709 -249.666667 
L 149.789711 -249.666667 
L 148.947714 -249.666667 
L 148.105717 -249.666667 
L 147.263719 -249.666667 
L 146.421722 -249.666667 
L 145.579724 -249.666667 
L 144.737727 -249.666667 
L 143.89573 -249.666667 
L 143.053732 -249.666667 
L 142.211735 -249.666667 
L 141.369738 -249.666667 
L 140.52774 -249.666667 
L 139.685743 -249.666667 
L 138.843745 -249.666667 
L 138.001748 -249.666667 
L 137.159751 -249.666667 
L 136.317753 -249.666667 
L 135.475756 -249.666667 
L 134.633759 -249.666667 
L 133.791761 -249.666667 
L 132.949764 -249.666667 
L 132.107766 -249.666667 
L 131.265769 -249.666667 
L 130.423772 -249.666667 
L 129.581774 -249.666667 
L 128.739777 -249.666667 
L 127.89778 -249.666667 
L 127.055782 -249.666667 
L 126.213785 -249.666667 
L 125.371787 -249.666667 
L 124.52979 -249.666667 
L 123.687793 -249.666667 
L 122.845795 -249.666667 
L 122.003798 -249.666667 
L 121.161801 -249.666667 
L 120.319803 -249.666667 
L 119.477806 -249.666667 
L 118.635808 -249.666667 
L 117.793811 -249.666667 
L 116.951814 -249.666667 
L 116.109816 -249.666667 
L 115.267819 -249.666667 
L 114.425822 -249.666667 
L 113.583824 -249.666667 
L 112.741827 -249.666667 
L 111.899829 -249.666667 
L 111.057832 -249.666667 
L 110.215835 -249.666667 
L 109.373837 -249.666667 
L 108.53184 -249.666667 
L 107.689843 -249.666667 
L 106.847845 -249.666667 
L 106.005848 -249.666667 
L 105.16385 -249.666667 
L 104.321853 -249.666667 
L 103.479856 -249.666667 
L 102.637858 -249.666667 
L 101.795861 -249.666667 
L 100.953864 -249.666667 
L 100.111866 -249.666667 
L 99.269869 -249.666667 
L 98.427871 -249.666667 
L 97.585874 -249.666667 
L 96.743877 -249.666667 
L 95.901879 -249.666667 
L 95.059882 -249.666667 
L 94.217885 -249.666667 
L 93.375887 -249.666667 
L 92.53389 -249.666667 
L 91.691892 -249.666667 
L 90.849895 -249.666667 
L 90.007898 -249.666667 
L 89.1659 -249.666667 
L 88.323903 -249.666667 
L 87.481906 -249.666667 
L 86.639908 -249.666667 
L 85.797911 -249.666667 
L 84.955913 -249.666667 
L 84.113916 -249.666667 
L 83.271919 -249.666667 
L 82.429921 -249.666667 
L 81.587924 -249.666667 
L 80.745927 -249.666667 
L 79.903929 -249.666667 
L 79.061932 -249.666667 
L 78.219934 -249.666667 
L 77.377937 -249.666667 
L 76.53594 -249.666667 
L 75.693942 -249.666667 
L 74.851945 -249.666667 
L 74.009948 -249.666667 
L 73.16795 -249.666667 
L 72.325953 -249.666667 
L 71.483955 -249.666667 
L 70.641958 -249.666667 
L 69.799961 -249.666667 
L 68.957963 -249.666667 
L 68.115966 -249.666667 
L 67.273969 -249.666667 
L 66.431971 -249.666667 
L 65.589974 -249.666667 
L 64.747976 -249.666667 
L 63.905979 -249.666667 
L 63.063982 -249.666667 
L 62.221984 -249.666667 
L 61.379987 -249.666667 
L 60.53799 -249.666667 
L 59.695992 -249.666667 
L 58.853995 -249.666667 
L 58.011997 -249.666667 
L 57.17 -249.666667 
z
" style="stroke: #008000; stroke-opacity: 0.4"/>
    </defs>
    <g clip-path="url(#p7ac62ad9cf)">
     <use xlink:href="#m0cdfb51773" x="0" y="648" style="fill: #008000; fill-opacity: 0.4; stroke: #008000; stroke-opacity: 0.4"/>
    </g>
   </g>
   <g id="matplotlib.axis_3">
    <g id="xtick_7">
     <g id="line2d_15">
      <g>
       <use xlink:href="#md27e040743" x="57.17" y="398.333333" style="stroke: #000000; stroke-width: 0.8"/>
      </g>
     </g>
     <g id="text_16">
      <!-- 0 -->
      <g transform="translate(53.98875 412.931771) scale(0.1 -0.1)">
       <use xlink:href="#DejaVuSans-30"/>
      </g>
     </g>
    </g>
    <g id="xtick_8">
     <g id="line2d_16">
      <g>
       <use xlink:href="#md27e040743" x="99.269869" y="398.333333" style="stroke: #000000; stroke-width: 0.8"/>
      </g>
     </g>
     <g id="text_17">
      <!-- 50 -->
      <g transform="translate(92.907369 412.931771) scale(0.1 -0.1)">
       <use xlink:href="#DejaVuSans-35"/>
       <use xlink:href="#DejaVuSans-30" x="63.623047"/>
      </g>
     </g>
    </g>
    <g id="xtick_9">
     <g id="line2d_17">
      <g>
       <use xlink:href="#md27e040743" x="141.369738" y="398.333333" style="stroke: #000000; stroke-width: 0.8"/>
      </g>
     </g>
     <g id="text_18">
      <!-- 100 -->
      <g transform="translate(131.825988 412.931771) scale(0.1 -0.1)">
       <use xlink:href="#DejaVuSans-31"/>
       <use xlink:href="#DejaVuSans-30" x="63.623047"/>
       <use xlink:href="#DejaVuSans-30" x="127.246094"/>
      </g>
     </g>
    </g>
    <g id="xtick_10">
     <g id="line2d_18">
      <g>
       <use xlink:href="#md27e040743" x="183.469606" y="398.333333" style="stroke: #000000; stroke-width: 0.8"/>
      </g>
     </g>
     <g id="text_19">
      <!-- 150 -->
      <g transform="translate(173.925856 412.931771) scale(0.1 -0.1)">
       <use xlink:href="#DejaVuSans-31"/>
       <use xlink:href="#DejaVuSans-35" x="63.623047"/>
       <use xlink:href="#DejaVuSans-30" x="127.246094"/>
      </g>
     </g>
    </g>
    <g id="xtick_11">
     <g id="line2d_19">
      <g>
       <use xlink:href="#md27e040743" x="225.569475" y="398.333333" style="stroke: #000000; stroke-width: 0.8"/>
      </g>
     </g>
     <g id="text_20">
      <!-- 200 -->
      <g transform="translate(216.025725 412.931771) scale(0.1 -0.1)">
       <use xlink:href="#DejaVuSans-32"/>
       <use xlink:href="#DejaVuSans-30" x="63.623047"/>
       <use xlink:href="#DejaVuSans-30" x="127.246094"/>
      </g>
     </g>
    </g>
    <g id="xtick_12">
     <g id="line2d_20">
      <g>
       <use xlink:href="#md27e040743" x="267.669344" y="398.333333" style="stroke: #000000; stroke-width: 0.8"/>
      </g>
     </g>
     <g id="text_21">
      <!-- 250 -->
      <g transform="translate(258.125594 412.931771) scale(0.1 -0.1)">
       <use xlink:href="#DejaVuSans-32"/>
       <use xlink:href="#DejaVuSans-35" x="63.623047"/>
       <use xlink:href="#DejaVuSans-30" x="127.246094"/>
      </g>
     </g>
    </g>
   </g>
   <g id="matplotlib.axis_4">
    <g id="ytick_8">
     <g id="line2d_21">
      <g>
       <use xlink:href="#m1f2f7a503b" x="57.17" y="398.333333" style="stroke: #000000; stroke-width: 0.8"/>
      </g>
     </g>
     <g id="text_22">
      <!-- 0 -->
      <g transform="translate(43.8075 402.132552) scale(0.1 -0.1)">
       <use xlink:href="#DejaVuSans-30"/>
      </g>
     </g>
    </g>
    <g id="ytick_9">
     <g id="line2d_22">
      <g>
       <use xlink:href="#m1f2f7a503b" x="57.17" y="369.80753" style="stroke: #000000; stroke-width: 0.8"/>
      </g>
     </g>
     <g id="text_23">
      <!-- 500 -->
      <g transform="translate(31.0825 373.606748) scale(0.1 -0.1)">
       <use xlink:href="#DejaVuSans-35"/>
       <use xlink:href="#DejaVuSans-30" x="63.623047"/>
       <use xlink:href="#DejaVuSans-30" x="127.246094"/>
      </g>
     </g>
    </g>
    <g id="ytick_10">
     <g id="line2d_23">
      <g>
       <use xlink:href="#m1f2f7a503b" x="57.17" y="341.281726" style="stroke: #000000; stroke-width: 0.8"/>
      </g>
     </g>
     <g id="text_24">
      <!-- 1000 -->
      <g transform="translate(24.72 345.080945) scale(0.1 -0.1)">
       <use xlink:href="#DejaVuSans-31"/>
       <use xlink:href="#DejaVuSans-30" x="63.623047"/>
       <use xlink:href="#DejaVuSans-30" x="127.246094"/>
       <use xlink:href="#DejaVuSans-30" x="190.869141"/>
      </g>
     </g>
    </g>
    <g id="ytick_11">
     <g id="line2d_24">
      <g>
       <use xlink:href="#m1f2f7a503b" x="57.17" y="312.755922" style="stroke: #000000; stroke-width: 0.8"/>
      </g>
     </g>
     <g id="text_25">
      <!-- 1500 -->
      <g transform="translate(24.72 316.555141) scale(0.1 -0.1)">
       <use xlink:href="#DejaVuSans-31"/>
       <use xlink:href="#DejaVuSans-35" x="63.623047"/>
       <use xlink:href="#DejaVuSans-30" x="127.246094"/>
       <use xlink:href="#DejaVuSans-30" x="190.869141"/>
      </g>
     </g>
    </g>
    <g id="ytick_12">
     <g id="line2d_25">
      <g>
       <use xlink:href="#m1f2f7a503b" x="57.17" y="284.230118" style="stroke: #000000; stroke-width: 0.8"/>
      </g>
     </g>
     <g id="text_26">
      <!-- 2000 -->
      <g transform="translate(24.72 288.029337) scale(0.1 -0.1)">
       <use xlink:href="#DejaVuSans-32"/>
       <use xlink:href="#DejaVuSans-30" x="63.623047"/>
       <use xlink:href="#DejaVuSans-30" x="127.246094"/>
       <use xlink:href="#DejaVuSans-30" x="190.869141"/>
      </g>
     </g>
    </g>
    <g id="ytick_13">
     <g id="line2d_26">
      <g>
       <use xlink:href="#m1f2f7a503b" x="57.17" y="255.704315" style="stroke: #000000; stroke-width: 0.8"/>
      </g>
     </g>
     <g id="text_27">
      <!-- 2500 -->
      <g transform="translate(24.72 259.503533) scale(0.1 -0.1)">
       <use xlink:href="#DejaVuSans-32"/>
       <use xlink:href="#DejaVuSans-35" x="63.623047"/>
       <use xlink:href="#DejaVuSans-30" x="127.246094"/>
       <use xlink:href="#DejaVuSans-30" x="190.869141"/>
      </g>
     </g>
    </g>
    <g id="ytick_14">
     <g id="line2d_27">
      <g>
       <use xlink:href="#m1f2f7a503b" x="57.17" y="227.178511" style="stroke: #000000; stroke-width: 0.8"/>
      </g>
     </g>
     <g id="text_28">
      <!-- 3000 -->
      <g transform="translate(24.72 230.97773) scale(0.1 -0.1)">
       <use xlink:href="#DejaVuSans-33"/>
       <use xlink:href="#DejaVuSans-30" x="63.623047"/>
       <use xlink:href="#DejaVuSans-30" x="127.246094"/>
       <use xlink:href="#DejaVuSans-30" x="190.869141"/>
      </g>
     </g>
    </g>
    <g id="text_29">
     <!-- Pixel Frequency -->
     <g transform="translate(18.640313 347.398906) rotate(-90) scale(0.1 -0.1)">
      <use xlink:href="#DejaVuSans-50"/>
      <use xlink:href="#DejaVuSans-69" x="58.052734"/>
      <use xlink:href="#DejaVuSans-78" x="85.835938"/>
      <use xlink:href="#DejaVuSans-65" x="141.890625"/>
      <use xlink:href="#DejaVuSans-6c" x="203.414062"/>
      <use xlink:href="#DejaVuSans-20" x="231.197266"/>
      <use xlink:href="#DejaVuSans-46" x="262.984375"/>
      <use xlink:href="#DejaVuSans-72" x="313.253906"/>
      <use xlink:href="#DejaVuSans-65" x="352.117188"/>
      <use xlink:href="#DejaVuSans-71" x="413.640625"/>
      <use xlink:href="#DejaVuSans-75" x="477.117188"/>
      <use xlink:href="#DejaVuSans-65" x="540.496094"/>
      <use xlink:href="#DejaVuSans-6e" x="602.019531"/>
      <use xlink:href="#DejaVuSans-63" x="665.398438"/>
      <use xlink:href="#DejaVuSans-79" x="720.378906"/>
     </g>
    </g>
   </g>
   <g id="line2d_28">
    <path d="M 57.17 398.333333 
L 90.007898 398.276282 
L 90.849895 397.306404 
L 91.691892 394.910237 
L 93.375887 381.274903 
L 94.217885 381.389006 
L 95.901879 345.731751 
L 96.743877 358.910673 
L 97.585874 355.943989 
L 98.427871 327.24703 
L 99.269869 318.518135 
L 100.111866 333.522707 
L 100.953864 357.427331 
L 101.795861 364.50173 
L 102.637858 366.441485 
L 103.479856 370.492149 
L 104.321853 367.411362 
L 105.16385 332.153469 
L 106.005848 308.990516 
L 106.847845 296.382111 
L 107.689843 303.627665 
L 108.53184 314.296316 
L 109.373837 307.278968 
L 110.215835 302.258426 
L 111.057832 287.938473 
L 111.899829 300.375723 
L 112.741827 342.708016 
L 113.583824 358.967724 
L 114.425822 368.095981 
L 115.267819 371.005613 
L 116.109816 372.431904 
L 116.951814 373.458832 
L 117.793811 373.801142 
L 118.635808 378.593477 
L 119.477806 378.479374 
L 120.319803 375.284484 
L 121.161801 377.224239 
L 122.003798 376.596671 
L 123.687793 378.251168 
L 124.52979 375.341536 
L 125.371787 376.539619 
L 126.213785 379.163993 
L 127.055782 376.596671 
L 127.89778 378.935787 
L 128.739777 376.653723 
L 129.581774 377.566548 
L 130.423772 376.996032 
L 131.265769 377.737703 
L 132.107766 379.163993 
L 132.949764 377.680651 
L 133.791761 378.308219 
L 134.633759 379.106942 
L 135.475756 379.449251 
L 136.317753 378.764632 
L 137.159751 381.217851 
L 138.001748 379.106942 
L 138.843745 380.362077 
L 139.685743 378.935787 
L 140.52774 377.794755 
L 141.369738 382.530038 
L 142.211735 380.133871 
L 143.053732 380.590283 
L 143.89573 380.647335 
L 144.737727 380.133871 
L 145.579724 382.187728 
L 146.421722 381.731316 
L 147.263719 382.358883 
L 148.105717 381.103748 
L 148.947714 381.503109 
L 149.789711 382.872348 
L 150.631709 382.758245 
L 151.473706 381.90247 
L 152.315703 382.301832 
L 153.157701 384.070431 
L 154.841696 383.271709 
L 156.52569 385.953135 
L 157.367688 386.86596 
L 158.209685 385.724928 
L 159.89368 386.010186 
L 160.735677 386.295444 
L 161.577675 385.724928 
L 163.261669 388.862766 
L 164.945664 388.691612 
L 165.787661 389.547386 
L 168.313654 390.289057 
L 169.155651 390.003799 
L 169.997648 391.087779 
L 170.839646 391.658295 
L 171.681643 390.631366 
L 172.52364 391.943553 
L 173.365638 391.144831 
L 174.207635 392.571121 
L 175.049633 392.057657 
L 175.89163 392.799327 
L 176.733627 392.685224 
L 178.417622 393.655102 
L 179.259619 393.540998 
L 180.101617 394.624979 
L 180.943614 394.739082 
L 181.785612 393.084585 
L 182.627609 395.309598 
L 183.469606 394.396772 
L 184.311604 394.853185 
L 185.153601 394.282669 
L 185.995598 395.537805 
L 186.837596 395.138443 
L 187.679593 396.108321 
L 188.521591 394.739082 
L 189.363588 396.222424 
L 190.205585 394.796134 
L 191.047583 395.138443 
L 191.88958 396.222424 
L 192.731577 396.108321 
L 193.573575 395.594856 
L 194.415572 396.108321 
L 195.25757 396.108321 
L 196.099567 396.79294 
L 196.941564 396.507682 
L 197.783562 396.393579 
L 198.625559 396.507682 
L 199.467556 396.964095 
L 200.309554 396.393579 
L 201.151551 396.336527 
L 201.993549 397.192301 
L 202.835546 397.13525 
L 203.677543 397.306404 
L 206.203535 396.735888 
L 208.729528 397.306404 
L 209.571525 397.648714 
L 210.413522 396.849992 
L 211.25552 397.192301 
L 212.097517 397.249353 
L 212.939514 397.192301 
L 213.781512 397.249353 
L 214.623509 397.192301 
L 215.465507 397.534611 
L 216.307504 397.249353 
L 217.149501 397.420508 
L 217.991499 397.306404 
L 218.833496 397.477559 
L 219.675493 397.534611 
L 220.517491 397.762817 
L 221.359488 397.477559 
L 222.201486 397.534611 
L 223.043483 397.762817 
L 223.88548 397.591662 
L 224.727478 397.933972 
L 225.569475 397.591662 
L 226.411472 397.762817 
L 228.095467 397.363456 
L 228.937465 397.762817 
L 229.779462 397.87692 
L 231.463457 397.819869 
L 232.305454 397.762817 
L 233.147451 397.591662 
L 234.831446 397.762817 
L 235.673444 398.048075 
L 236.515441 398.105127 
L 237.357438 397.762817 
L 238.199436 397.991024 
L 239.041433 397.705766 
L 240.725428 398.105127 
L 242.409423 397.87692 
L 243.25142 398.162179 
L 244.093417 397.762817 
L 244.935415 397.87692 
L 245.777412 397.819869 
L 247.461407 397.991024 
L 248.303404 398.105127 
L 249.145402 397.933972 
L 249.987399 397.991024 
L 250.829396 398.21923 
L 251.671394 398.048075 
L 252.513391 398.048075 
L 253.355388 397.762817 
L 254.197386 398.048075 
L 255.039383 397.819869 
L 255.881381 397.991024 
L 256.723378 397.87692 
L 257.565375 398.048075 
L 260.091367 397.87692 
L 260.933365 397.991024 
L 261.775362 397.819869 
L 264.301354 398.048075 
L 265.143352 397.819869 
L 267.669344 398.105127 
L 271.037333 397.705766 
L 271.879331 397.363456 
L 271.879331 397.363456 
" clip-path="url(#p7ac62ad9cf)" style="fill: none; stroke: #008000; stroke-width: 1.5; stroke-linecap: square"/>
   </g>
   <g id="patch_8">
    <path d="M 57.17 398.333333 
L 57.17 218.506667 
" style="fill: none; stroke: #000000; stroke-width: 0.8; stroke-linejoin: miter; stroke-linecap: square"/>
   </g>
   <g id="patch_9">
    <path d="M 272.721328 398.333333 
L 272.721328 218.506667 
" style="fill: none; stroke: #000000; stroke-width: 0.8; stroke-linejoin: miter; stroke-linecap: square"/>
   </g>
   <g id="patch_10">
    <path d="M 57.17 398.333333 
L 272.721328 398.333333 
" style="fill: none; stroke: #000000; stroke-width: 0.8; stroke-linejoin: miter; stroke-linecap: square"/>
   </g>
   <g id="patch_11">
    <path d="M 57.17 218.506667 
L 272.721328 218.506667 
" style="fill: none; stroke: #000000; stroke-width: 0.8; stroke-linejoin: miter; stroke-linecap: square"/>
   </g>
   <g id="text_30">
    <!-- Green Channel  -->
    <g transform="translate(179.494453 232.506667) scale(0.12 -0.12)">
     <defs>
      <path id="DejaVuSans-47" d="M 3809 666 
L 3809 1919 
L 2778 1919 
L 2778 2438 
L 4434 2438 
L 4434 434 
Q 4069 175 3628 42 
Q 3188 -91 2688 -91 
Q 1594 -91 976 548 
Q 359 1188 359 2328 
Q 359 3472 976 4111 
Q 1594 4750 2688 4750 
Q 3144 4750 3555 4637 
Q 3966 4525 4313 4306 
L 4313 3634 
Q 3963 3931 3569 4081 
Q 3175 4231 2741 4231 
Q 1884 4231 1454 3753 
Q 1025 3275 1025 2328 
Q 1025 1384 1454 906 
Q 1884 428 2741 428 
Q 3075 428 3337 486 
Q 3600 544 3809 666 
z
" transform="scale(0.015625)"/>
     </defs>
     <use xlink:href="#DejaVuSans-47"/>
     <use xlink:href="#DejaVuSans-72" x="77.490234"/>
     <use xlink:href="#DejaVuSans-65" x="116.353516"/>
     <use xlink:href="#DejaVuSans-65" x="177.876953"/>
     <use xlink:href="#DejaVuSans-6e" x="239.400391"/>
     <use xlink:href="#DejaVuSans-20" x="302.779297"/>
     <use xlink:href="#DejaVuSans-43" x="334.566406"/>
     <use xlink:href="#DejaVuSans-68" x="404.390625"/>
     <use xlink:href="#DejaVuSans-61" x="467.769531"/>
     <use xlink:href="#DejaVuSans-6e" x="529.048828"/>
     <use xlink:href="#DejaVuSans-6e" x="592.427734"/>
     <use xlink:href="#DejaVuSans-65" x="655.806641"/>
     <use xlink:href="#DejaVuSans-6c" x="717.330078"/>
     <use xlink:href="#DejaVuSans-20" x="745.113281"/>
    </g>
   </g>
  </g>
  <g id="axes_3">
   <g id="patch_12">
    <path d="M 57.17 606.04 
L 272.721328 606.04 
L 272.721328 426.213333 
L 57.17 426.213333 
z
" style="fill: #ffffff"/>
   </g>
   <g id="PolyCollection_3">
    <defs>
     <path id="m4a562fb0db" d="M 57.17 -41.96 
L 57.17 -41.96 
L 58.011997 -41.96 
L 58.853995 -41.96 
L 59.695992 -41.96 
L 60.53799 -41.96 
L 61.379987 -41.96 
L 62.221984 -41.96 
L 63.063982 -41.96 
L 63.905979 -41.96 
L 64.747976 -41.96 
L 65.589974 -41.96 
L 66.431971 -41.96 
L 67.273969 -41.96 
L 68.115966 -41.96 
L 68.957963 -41.96 
L 69.799961 -41.96 
L 70.641958 -41.96 
L 71.483955 -41.96 
L 72.325953 -41.96 
L 73.16795 -41.96 
L 74.009948 -41.96 
L 74.851945 -41.96 
L 75.693942 -42.473464 
L 76.53594 -42.929877 
L 77.377937 -53.598528 
L 78.219934 -63.525508 
L 79.061932 -80.070474 
L 79.903929 -107.455245 
L 80.745927 -104.032149 
L 81.587924 -104.203304 
L 82.429921 -133.299624 
L 83.271919 -141.629158 
L 84.113916 -126.396379 
L 84.955913 -139.91761 
L 85.797911 -164.107492 
L 86.639908 -221.786667 
L 87.481906 -207.580816 
L 88.323903 -175.118452 
L 89.1659 -179.511426 
L 90.007898 -162.395943 
L 90.849895 -117.439277 
L 91.691892 -93.42055 
L 92.53389 -84.91986 
L 93.375887 -83.664725 
L 94.217885 -80.070474 
L 95.059882 -76.989687 
L 95.901879 -78.473029 
L 96.743877 -80.355732 
L 97.585874 -78.415977 
L 98.427871 -75.506345 
L 99.269869 -75.791603 
L 100.111866 -75.6775 
L 100.953864 -74.650571 
L 101.795861 -74.023003 
L 102.637858 -71.797991 
L 103.479856 -70.885165 
L 104.321853 -72.82492 
L 105.16385 -69.972339 
L 106.005848 -70.999268 
L 106.847845 -71.512733 
L 107.689843 -71.969146 
L 108.53184 -67.690275 
L 109.373837 -67.918481 
L 110.215835 -69.801184 
L 111.057832 -66.834501 
L 111.899829 -64.951798 
L 112.741827 -67.17681 
L 113.583824 -64.32423 
L 114.425822 -65.180004 
L 115.267819 -63.639611 
L 116.109816 -60.615876 
L 116.951814 -60.216514 
L 117.793811 -61.756908 
L 118.635808 -60.672927 
L 119.477806 -58.219708 
L 120.319803 -56.736366 
L 121.161801 -55.880592 
L 122.003798 -55.994695 
L 122.845795 -55.652386 
L 123.687793 -54.73956 
L 124.52979 -54.283147 
L 125.371787 -53.712631 
L 126.213785 -51.829928 
L 127.055782 -51.658773 
L 127.89778 -51.031206 
L 128.739777 -51.715825 
L 129.581774 -50.745948 
L 130.423772 -49.547864 
L 131.265769 -48.977348 
L 132.107766 -48.406832 
L 132.949764 -48.121574 
L 133.791761 -46.467077 
L 134.633759 -46.866438 
L 135.475756 -46.980541 
L 136.317753 -46.067716 
L 137.159751 -47.665161 
L 138.001748 -46.181819 
L 138.843745 -46.295922 
L 139.685743 -46.58118 
L 140.52774 -46.067716 
L 141.369738 -45.040787 
L 142.211735 -45.440148 
L 143.053732 -45.725406 
L 143.89573 -44.698477 
L 144.737727 -45.4972 
L 145.579724 -44.013858 
L 146.421722 -44.470271 
L 147.263719 -43.7286 
L 148.105717 -44.413219 
L 148.947714 -44.013858 
L 149.789711 -43.842703 
L 150.631709 -43.842703 
L 151.473706 -43.443342 
L 152.315703 -44.299116 
L 153.157701 -43.329239 
L 153.999698 -43.329239 
L 154.841696 -42.986929 
L 155.683693 -43.500393 
L 156.52569 -43.101032 
L 157.367688 -43.158084 
L 158.209685 -43.158084 
L 159.051682 -43.329239 
L 159.89368 -42.929877 
L 160.735677 -43.614497 
L 161.577675 -42.644619 
L 162.419672 -42.758723 
L 163.261669 -42.701671 
L 164.103667 -42.872826 
L 164.945664 -43.043981 
L 165.787661 -42.986929 
L 166.629659 -42.986929 
L 167.471656 -42.587568 
L 168.313654 -42.815774 
L 169.155651 -42.473464 
L 169.997648 -42.701671 
L 170.839646 -42.473464 
L 171.681643 -42.359361 
L 172.52364 -42.245258 
L 173.365638 -42.644619 
L 174.207635 -42.872826 
L 175.049633 -42.473464 
L 175.89163 -42.815774 
L 176.733627 -42.587568 
L 177.575625 -42.473464 
L 178.417622 -42.30231 
L 179.259619 -42.245258 
L 180.101617 -42.416413 
L 180.943614 -42.530516 
L 181.785612 -42.416413 
L 182.627609 -42.245258 
L 183.469606 -42.30231 
L 184.311604 -42.416413 
L 185.153601 -42.30231 
L 185.995598 -42.416413 
L 186.837596 -42.644619 
L 187.679593 -42.131155 
L 188.521591 -42.188206 
L 189.363588 -42.359361 
L 190.205585 -42.074103 
L 191.047583 -42.473464 
L 191.88958 -42.30231 
L 192.731577 -42.30231 
L 193.573575 -42.131155 
L 194.415572 -42.131155 
L 195.25757 -42.188206 
L 196.099567 -42.188206 
L 196.941564 -42.245258 
L 197.783562 -42.131155 
L 198.625559 -42.188206 
L 199.467556 -42.188206 
L 200.309554 -42.131155 
L 201.151551 -42.245258 
L 201.993549 -42.30231 
L 202.835546 -42.245258 
L 203.677543 -42.30231 
L 204.519541 -42.188206 
L 205.361538 -42.245258 
L 206.203535 -42.245258 
L 207.045533 -42.188206 
L 207.88753 -42.131155 
L 208.729528 -42.30231 
L 209.571525 -42.188206 
L 210.413522 -42.074103 
L 211.25552 -42.131155 
L 212.097517 -42.188206 
L 212.939514 -42.074103 
L 213.781512 -42.188206 
L 214.623509 -42.017052 
L 215.465507 -42.131155 
L 216.307504 -42.30231 
L 217.149501 -42.131155 
L 217.991499 -42.245258 
L 218.833496 -42.074103 
L 219.675493 -42.017052 
L 220.517491 -42.074103 
L 221.359488 -42.131155 
L 222.201486 -42.131155 
L 223.043483 -42.017052 
L 223.88548 -42.017052 
L 224.727478 -42.074103 
L 225.569475 -41.96 
L 226.411472 -42.017052 
L 227.25347 -42.074103 
L 228.095467 -42.074103 
L 228.937465 -42.074103 
L 229.779462 -41.96 
L 230.621459 -42.074103 
L 231.463457 -41.96 
L 232.305454 -41.96 
L 233.147451 -42.074103 
L 233.989449 -42.017052 
L 234.831446 -41.96 
L 235.673444 -42.017052 
L 236.515441 -42.074103 
L 237.357438 -42.074103 
L 238.199436 -42.017052 
L 239.041433 -42.017052 
L 239.88343 -42.017052 
L 240.725428 -41.96 
L 241.567425 -42.017052 
L 242.409423 -42.017052 
L 243.25142 -42.074103 
L 244.093417 -42.131155 
L 244.935415 -42.017052 
L 245.777412 -42.074103 
L 246.619409 -41.96 
L 247.461407 -41.96 
L 248.303404 -42.017052 
L 249.145402 -42.131155 
L 249.987399 -41.96 
L 250.829396 -41.96 
L 251.671394 -42.017052 
L 252.513391 -41.96 
L 253.355388 -42.017052 
L 254.197386 -41.96 
L 255.039383 -42.017052 
L 255.881381 -42.017052 
L 256.723378 -41.96 
L 257.565375 -41.96 
L 258.407373 -41.96 
L 259.24937 -41.96 
L 260.091367 -41.96 
L 260.933365 -41.96 
L 261.775362 -41.96 
L 262.61736 -41.96 
L 263.459357 -41.96 
L 264.301354 -41.96 
L 265.143352 -41.96 
L 265.985349 -41.96 
L 266.827346 -41.96 
L 267.669344 -41.96 
L 268.511341 -42.017052 
L 269.353339 -41.96 
L 270.195336 -42.017052 
L 271.037333 -41.96 
L 271.879331 -41.96 
L 271.879331 -41.96 
L 271.879331 -41.96 
L 271.037333 -41.96 
L 270.195336 -41.96 
L 269.353339 -41.96 
L 268.511341 -41.96 
L 267.669344 -41.96 
L 266.827346 -41.96 
L 265.985349 -41.96 
L 265.143352 -41.96 
L 264.301354 -41.96 
L 263.459357 -41.96 
L 262.61736 -41.96 
L 261.775362 -41.96 
L 260.933365 -41.96 
L 260.091367 -41.96 
L 259.24937 -41.96 
L 258.407373 -41.96 
L 257.565375 -41.96 
L 256.723378 -41.96 
L 255.881381 -41.96 
L 255.039383 -41.96 
L 254.197386 -41.96 
L 253.355388 -41.96 
L 252.513391 -41.96 
L 251.671394 -41.96 
L 250.829396 -41.96 
L 249.987399 -41.96 
L 249.145402 -41.96 
L 248.303404 -41.96 
L 247.461407 -41.96 
L 246.619409 -41.96 
L 245.777412 -41.96 
L 244.935415 -41.96 
L 244.093417 -41.96 
L 243.25142 -41.96 
L 242.409423 -41.96 
L 241.567425 -41.96 
L 240.725428 -41.96 
L 239.88343 -41.96 
L 239.041433 -41.96 
L 238.199436 -41.96 
L 237.357438 -41.96 
L 236.515441 -41.96 
L 235.673444 -41.96 
L 234.831446 -41.96 
L 233.989449 -41.96 
L 233.147451 -41.96 
L 232.305454 -41.96 
L 231.463457 -41.96 
L 230.621459 -41.96 
L 229.779462 -41.96 
L 228.937465 -41.96 
L 228.095467 -41.96 
L 227.25347 -41.96 
L 226.411472 -41.96 
L 225.569475 -41.96 
L 224.727478 -41.96 
L 223.88548 -41.96 
L 223.043483 -41.96 
L 222.201486 -41.96 
L 221.359488 -41.96 
L 220.517491 -41.96 
L 219.675493 -41.96 
L 218.833496 -41.96 
L 217.991499 -41.96 
L 217.149501 -41.96 
L 216.307504 -41.96 
L 215.465507 -41.96 
L 214.623509 -41.96 
L 213.781512 -41.96 
L 212.939514 -41.96 
L 212.097517 -41.96 
L 211.25552 -41.96 
L 210.413522 -41.96 
L 209.571525 -41.96 
L 208.729528 -41.96 
L 207.88753 -41.96 
L 207.045533 -41.96 
L 206.203535 -41.96 
L 205.361538 -41.96 
L 204.519541 -41.96 
L 203.677543 -41.96 
L 202.835546 -41.96 
L 201.993549 -41.96 
L 201.151551 -41.96 
L 200.309554 -41.96 
L 199.467556 -41.96 
L 198.625559 -41.96 
L 197.783562 -41.96 
L 196.941564 -41.96 
L 196.099567 -41.96 
L 195.25757 -41.96 
L 194.415572 -41.96 
L 193.573575 -41.96 
L 192.731577 -41.96 
L 191.88958 -41.96 
L 191.047583 -41.96 
L 190.205585 -41.96 
L 189.363588 -41.96 
L 188.521591 -41.96 
L 187.679593 -41.96 
L 186.837596 -41.96 
L 185.995598 -41.96 
L 185.153601 -41.96 
L 184.311604 -41.96 
L 183.469606 -41.96 
L 182.627609 -41.96 
L 181.785612 -41.96 
L 180.943614 -41.96 
L 180.101617 -41.96 
L 179.259619 -41.96 
L 178.417622 -41.96 
L 177.575625 -41.96 
L 176.733627 -41.96 
L 175.89163 -41.96 
L 175.049633 -41.96 
L 174.207635 -41.96 
L 173.365638 -41.96 
L 172.52364 -41.96 
L 171.681643 -41.96 
L 170.839646 -41.96 
L 169.997648 -41.96 
L 169.155651 -41.96 
L 168.313654 -41.96 
L 167.471656 -41.96 
L 166.629659 -41.96 
L 165.787661 -41.96 
L 164.945664 -41.96 
L 164.103667 -41.96 
L 163.261669 -41.96 
L 162.419672 -41.96 
L 161.577675 -41.96 
L 160.735677 -41.96 
L 159.89368 -41.96 
L 159.051682 -41.96 
L 158.209685 -41.96 
L 157.367688 -41.96 
L 156.52569 -41.96 
L 155.683693 -41.96 
L 154.841696 -41.96 
L 153.999698 -41.96 
L 153.157701 -41.96 
L 152.315703 -41.96 
L 151.473706 -41.96 
L 150.631709 -41.96 
L 149.789711 -41.96 
L 148.947714 -41.96 
L 148.105717 -41.96 
L 147.263719 -41.96 
L 146.421722 -41.96 
L 145.579724 -41.96 
L 144.737727 -41.96 
L 143.89573 -41.96 
L 143.053732 -41.96 
L 142.211735 -41.96 
L 141.369738 -41.96 
L 140.52774 -41.96 
L 139.685743 -41.96 
L 138.843745 -41.96 
L 138.001748 -41.96 
L 137.159751 -41.96 
L 136.317753 -41.96 
L 135.475756 -41.96 
L 134.633759 -41.96 
L 133.791761 -41.96 
L 132.949764 -41.96 
L 132.107766 -41.96 
L 131.265769 -41.96 
L 130.423772 -41.96 
L 129.581774 -41.96 
L 128.739777 -41.96 
L 127.89778 -41.96 
L 127.055782 -41.96 
L 126.213785 -41.96 
L 125.371787 -41.96 
L 124.52979 -41.96 
L 123.687793 -41.96 
L 122.845795 -41.96 
L 122.003798 -41.96 
L 121.161801 -41.96 
L 120.319803 -41.96 
L 119.477806 -41.96 
L 118.635808 -41.96 
L 117.793811 -41.96 
L 116.951814 -41.96 
L 116.109816 -41.96 
L 115.267819 -41.96 
L 114.425822 -41.96 
L 113.583824 -41.96 
L 112.741827 -41.96 
L 111.899829 -41.96 
L 111.057832 -41.96 
L 110.215835 -41.96 
L 109.373837 -41.96 
L 108.53184 -41.96 
L 107.689843 -41.96 
L 106.847845 -41.96 
L 106.005848 -41.96 
L 105.16385 -41.96 
L 104.321853 -41.96 
L 103.479856 -41.96 
L 102.637858 -41.96 
L 101.795861 -41.96 
L 100.953864 -41.96 
L 100.111866 -41.96 
L 99.269869 -41.96 
L 98.427871 -41.96 
L 97.585874 -41.96 
L 96.743877 -41.96 
L 95.901879 -41.96 
L 95.059882 -41.96 
L 94.217885 -41.96 
L 93.375887 -41.96 
L 92.53389 -41.96 
L 91.691892 -41.96 
L 90.849895 -41.96 
L 90.007898 -41.96 
L 89.1659 -41.96 
L 88.323903 -41.96 
L 87.481906 -41.96 
L 86.639908 -41.96 
L 85.797911 -41.96 
L 84.955913 -41.96 
L 84.113916 -41.96 
L 83.271919 -41.96 
L 82.429921 -41.96 
L 81.587924 -41.96 
L 80.745927 -41.96 
L 79.903929 -41.96 
L 79.061932 -41.96 
L 78.219934 -41.96 
L 77.377937 -41.96 
L 76.53594 -41.96 
L 75.693942 -41.96 
L 74.851945 -41.96 
L 74.009948 -41.96 
L 73.16795 -41.96 
L 72.325953 -41.96 
L 71.483955 -41.96 
L 70.641958 -41.96 
L 69.799961 -41.96 
L 68.957963 -41.96 
L 68.115966 -41.96 
L 67.273969 -41.96 
L 66.431971 -41.96 
L 65.589974 -41.96 
L 64.747976 -41.96 
L 63.905979 -41.96 
L 63.063982 -41.96 
L 62.221984 -41.96 
L 61.379987 -41.96 
L 60.53799 -41.96 
L 59.695992 -41.96 
L 58.853995 -41.96 
L 58.011997 -41.96 
L 57.17 -41.96 
z
" style="stroke: #0000ff; stroke-opacity: 0.4"/>
    </defs>
    <g clip-path="url(#pab94bbb5c9)">
     <use xlink:href="#m4a562fb0db" x="0" y="648" style="fill: #0000ff; fill-opacity: 0.4; stroke: #0000ff; stroke-opacity: 0.4"/>
    </g>
   </g>
   <g id="matplotlib.axis_5">
    <g id="xtick_13">
     <g id="line2d_29">
      <g>
       <use xlink:href="#md27e040743" x="57.17" y="606.04" style="stroke: #000000; stroke-width: 0.8"/>
      </g>
     </g>
     <g id="text_31">
      <!-- 0 -->
      <g transform="translate(53.98875 620.638438) scale(0.1 -0.1)">
       <use xlink:href="#DejaVuSans-30"/>
      </g>
     </g>
    </g>
    <g id="xtick_14">
     <g id="line2d_30">
      <g>
       <use xlink:href="#md27e040743" x="99.269869" y="606.04" style="stroke: #000000; stroke-width: 0.8"/>
      </g>
     </g>
     <g id="text_32">
      <!-- 50 -->
      <g transform="translate(92.907369 620.638438) scale(0.1 -0.1)">
       <use xlink:href="#DejaVuSans-35"/>
       <use xlink:href="#DejaVuSans-30" x="63.623047"/>
      </g>
     </g>
    </g>
    <g id="xtick_15">
     <g id="line2d_31">
      <g>
       <use xlink:href="#md27e040743" x="141.369738" y="606.04" style="stroke: #000000; stroke-width: 0.8"/>
      </g>
     </g>
     <g id="text_33">
      <!-- 100 -->
      <g transform="translate(131.825988 620.638438) scale(0.1 -0.1)">
       <use xlink:href="#DejaVuSans-31"/>
       <use xlink:href="#DejaVuSans-30" x="63.623047"/>
       <use xlink:href="#DejaVuSans-30" x="127.246094"/>
      </g>
     </g>
    </g>
    <g id="xtick_16">
     <g id="line2d_32">
      <g>
       <use xlink:href="#md27e040743" x="183.469606" y="606.04" style="stroke: #000000; stroke-width: 0.8"/>
      </g>
     </g>
     <g id="text_34">
      <!-- 150 -->
      <g transform="translate(173.925856 620.638438) scale(0.1 -0.1)">
       <use xlink:href="#DejaVuSans-31"/>
       <use xlink:href="#DejaVuSans-35" x="63.623047"/>
       <use xlink:href="#DejaVuSans-30" x="127.246094"/>
      </g>
     </g>
    </g>
    <g id="xtick_17">
     <g id="line2d_33">
      <g>
       <use xlink:href="#md27e040743" x="225.569475" y="606.04" style="stroke: #000000; stroke-width: 0.8"/>
      </g>
     </g>
     <g id="text_35">
      <!-- 200 -->
      <g transform="translate(216.025725 620.638438) scale(0.1 -0.1)">
       <use xlink:href="#DejaVuSans-32"/>
       <use xlink:href="#DejaVuSans-30" x="63.623047"/>
       <use xlink:href="#DejaVuSans-30" x="127.246094"/>
      </g>
     </g>
    </g>
    <g id="xtick_18">
     <g id="line2d_34">
      <g>
       <use xlink:href="#md27e040743" x="267.669344" y="606.04" style="stroke: #000000; stroke-width: 0.8"/>
      </g>
     </g>
     <g id="text_36">
      <!-- 250 -->
      <g transform="translate(258.125594 620.638438) scale(0.1 -0.1)">
       <use xlink:href="#DejaVuSans-32"/>
       <use xlink:href="#DejaVuSans-35" x="63.623047"/>
       <use xlink:href="#DejaVuSans-30" x="127.246094"/>
      </g>
     </g>
    </g>
    <g id="text_37">
     <!-- Pixel Intensity -->
     <g transform="translate(130.033945 634.316563) scale(0.1 -0.1)">
      <defs>
       <path id="DejaVuSans-49" d="M 628 4666 
L 1259 4666 
L 1259 0 
L 628 0 
L 628 4666 
z
" transform="scale(0.015625)"/>
       <path id="DejaVuSans-74" d="M 1172 4494 
L 1172 3500 
L 2356 3500 
L 2356 3053 
L 1172 3053 
L 1172 1153 
Q 1172 725 1289 603 
Q 1406 481 1766 481 
L 2356 481 
L 2356 0 
L 1766 0 
Q 1100 0 847 248 
Q 594 497 594 1153 
L 594 3053 
L 172 3053 
L 172 3500 
L 594 3500 
L 594 4494 
L 1172 4494 
z
" transform="scale(0.015625)"/>
       <path id="DejaVuSans-73" d="M 2834 3397 
L 2834 2853 
Q 2591 2978 2328 3040 
Q 2066 3103 1784 3103 
Q 1356 3103 1142 2972 
Q 928 2841 928 2578 
Q 928 2378 1081 2264 
Q 1234 2150 1697 2047 
L 1894 2003 
Q 2506 1872 2764 1633 
Q 3022 1394 3022 966 
Q 3022 478 2636 193 
Q 2250 -91 1575 -91 
Q 1294 -91 989 -36 
Q 684 19 347 128 
L 347 722 
Q 666 556 975 473 
Q 1284 391 1588 391 
Q 1994 391 2212 530 
Q 2431 669 2431 922 
Q 2431 1156 2273 1281 
Q 2116 1406 1581 1522 
L 1381 1569 
Q 847 1681 609 1914 
Q 372 2147 372 2553 
Q 372 3047 722 3315 
Q 1072 3584 1716 3584 
Q 2034 3584 2315 3537 
Q 2597 3491 2834 3397 
z
" transform="scale(0.015625)"/>
      </defs>
      <use xlink:href="#DejaVuSans-50"/>
      <use xlink:href="#DejaVuSans-69" x="58.052734"/>
      <use xlink:href="#DejaVuSans-78" x="85.835938"/>
      <use xlink:href="#DejaVuSans-65" x="141.890625"/>
      <use xlink:href="#DejaVuSans-6c" x="203.414062"/>
      <use xlink:href="#DejaVuSans-20" x="231.197266"/>
      <use xlink:href="#DejaVuSans-49" x="262.984375"/>
      <use xlink:href="#DejaVuSans-6e" x="292.476562"/>
      <use xlink:href="#DejaVuSans-74" x="355.855469"/>
      <use xlink:href="#DejaVuSans-65" x="395.064453"/>
      <use xlink:href="#DejaVuSans-6e" x="456.587891"/>
      <use xlink:href="#DejaVuSans-73" x="519.966797"/>
      <use xlink:href="#DejaVuSans-69" x="572.066406"/>
      <use xlink:href="#DejaVuSans-74" x="599.849609"/>
      <use xlink:href="#DejaVuSans-79" x="639.058594"/>
     </g>
    </g>
   </g>
   <g id="matplotlib.axis_6">
    <g id="ytick_15">
     <g id="line2d_35">
      <g>
       <use xlink:href="#m1f2f7a503b" x="57.17" y="606.04" style="stroke: #000000; stroke-width: 0.8"/>
      </g>
     </g>
     <g id="text_38">
      <!-- 0 -->
      <g transform="translate(43.8075 609.839219) scale(0.1 -0.1)">
       <use xlink:href="#DejaVuSans-30"/>
      </g>
     </g>
    </g>
    <g id="ytick_16">
     <g id="line2d_36">
      <g>
       <use xlink:href="#m1f2f7a503b" x="57.17" y="577.514196" style="stroke: #000000; stroke-width: 0.8"/>
      </g>
     </g>
     <g id="text_39">
      <!-- 500 -->
      <g transform="translate(31.0825 581.313415) scale(0.1 -0.1)">
       <use xlink:href="#DejaVuSans-35"/>
       <use xlink:href="#DejaVuSans-30" x="63.623047"/>
       <use xlink:href="#DejaVuSans-30" x="127.246094"/>
      </g>
     </g>
    </g>
    <g id="ytick_17">
     <g id="line2d_37">
      <g>
       <use xlink:href="#m1f2f7a503b" x="57.17" y="548.988393" style="stroke: #000000; stroke-width: 0.8"/>
      </g>
     </g>
     <g id="text_40">
      <!-- 1000 -->
      <g transform="translate(24.72 552.787611) scale(0.1 -0.1)">
       <use xlink:href="#DejaVuSans-31"/>
       <use xlink:href="#DejaVuSans-30" x="63.623047"/>
       <use xlink:href="#DejaVuSans-30" x="127.246094"/>
       <use xlink:href="#DejaVuSans-30" x="190.869141"/>
      </g>
     </g>
    </g>
    <g id="ytick_18">
     <g id="line2d_38">
      <g>
       <use xlink:href="#m1f2f7a503b" x="57.17" y="520.462589" style="stroke: #000000; stroke-width: 0.8"/>
      </g>
     </g>
     <g id="text_41">
      <!-- 1500 -->
      <g transform="translate(24.72 524.261808) scale(0.1 -0.1)">
       <use xlink:href="#DejaVuSans-31"/>
       <use xlink:href="#DejaVuSans-35" x="63.623047"/>
       <use xlink:href="#DejaVuSans-30" x="127.246094"/>
       <use xlink:href="#DejaVuSans-30" x="190.869141"/>
      </g>
     </g>
    </g>
    <g id="ytick_19">
     <g id="line2d_39">
      <g>
       <use xlink:href="#m1f2f7a503b" x="57.17" y="491.936785" style="stroke: #000000; stroke-width: 0.8"/>
      </g>
     </g>
     <g id="text_42">
      <!-- 2000 -->
      <g transform="translate(24.72 495.736004) scale(0.1 -0.1)">
       <use xlink:href="#DejaVuSans-32"/>
       <use xlink:href="#DejaVuSans-30" x="63.623047"/>
       <use xlink:href="#DejaVuSans-30" x="127.246094"/>
       <use xlink:href="#DejaVuSans-30" x="190.869141"/>
      </g>
     </g>
    </g>
    <g id="ytick_20">
     <g id="line2d_40">
      <g>
       <use xlink:href="#m1f2f7a503b" x="57.17" y="463.410981" style="stroke: #000000; stroke-width: 0.8"/>
      </g>
     </g>
     <g id="text_43">
      <!-- 2500 -->
      <g transform="translate(24.72 467.2102) scale(0.1 -0.1)">
       <use xlink:href="#DejaVuSans-32"/>
       <use xlink:href="#DejaVuSans-35" x="63.623047"/>
       <use xlink:href="#DejaVuSans-30" x="127.246094"/>
       <use xlink:href="#DejaVuSans-30" x="190.869141"/>
      </g>
     </g>
    </g>
    <g id="ytick_21">
     <g id="line2d_41">
      <g>
       <use xlink:href="#m1f2f7a503b" x="57.17" y="434.885178" style="stroke: #000000; stroke-width: 0.8"/>
      </g>
     </g>
     <g id="text_44">
      <!-- 3000 -->
      <g transform="translate(24.72 438.684396) scale(0.1 -0.1)">
       <use xlink:href="#DejaVuSans-33"/>
       <use xlink:href="#DejaVuSans-30" x="63.623047"/>
       <use xlink:href="#DejaVuSans-30" x="127.246094"/>
       <use xlink:href="#DejaVuSans-30" x="190.869141"/>
      </g>
     </g>
    </g>
    <g id="text_45">
     <!-- Pixel Frequency -->
     <g transform="translate(18.640313 555.105573) rotate(-90) scale(0.1 -0.1)">
      <use xlink:href="#DejaVuSans-50"/>
      <use xlink:href="#DejaVuSans-69" x="58.052734"/>
      <use xlink:href="#DejaVuSans-78" x="85.835938"/>
      <use xlink:href="#DejaVuSans-65" x="141.890625"/>
      <use xlink:href="#DejaVuSans-6c" x="203.414062"/>
      <use xlink:href="#DejaVuSans-20" x="231.197266"/>
      <use xlink:href="#DejaVuSans-46" x="262.984375"/>
      <use xlink:href="#DejaVuSans-72" x="313.253906"/>
      <use xlink:href="#DejaVuSans-65" x="352.117188"/>
      <use xlink:href="#DejaVuSans-71" x="413.640625"/>
      <use xlink:href="#DejaVuSans-75" x="477.117188"/>
      <use xlink:href="#DejaVuSans-65" x="540.496094"/>
      <use xlink:href="#DejaVuSans-6e" x="602.019531"/>
      <use xlink:href="#DejaVuSans-63" x="665.398438"/>
      <use xlink:href="#DejaVuSans-79" x="720.378906"/>
     </g>
    </g>
   </g>
   <g id="line2d_42">
    <path d="M 57.17 606.04 
L 74.851945 606.04 
L 76.53594 605.070123 
L 78.219934 584.474492 
L 79.061932 567.929526 
L 79.903929 540.544755 
L 80.745927 543.967851 
L 81.587924 543.796696 
L 82.429921 514.700376 
L 83.271919 506.370842 
L 84.113916 521.603621 
L 84.955913 508.08239 
L 85.797911 483.892508 
L 86.639908 426.213333 
L 87.481906 440.419184 
L 88.323903 472.881548 
L 89.1659 468.488574 
L 90.007898 485.604057 
L 90.849895 530.560723 
L 91.691892 554.57945 
L 92.53389 563.08014 
L 93.375887 564.335275 
L 94.217885 567.929526 
L 95.059882 571.010313 
L 95.901879 569.526971 
L 96.743877 567.644268 
L 97.585874 569.584023 
L 98.427871 572.493655 
L 99.269869 572.208397 
L 100.111866 572.3225 
L 100.953864 573.349429 
L 101.795861 573.976997 
L 102.637858 576.202009 
L 103.479856 577.114835 
L 104.321853 575.17508 
L 105.16385 578.027661 
L 106.005848 577.000732 
L 107.689843 576.030854 
L 108.53184 580.309725 
L 109.373837 580.081519 
L 110.215835 578.198816 
L 111.057832 581.165499 
L 111.899829 583.048202 
L 112.741827 580.82319 
L 113.583824 583.67577 
L 114.425822 582.819996 
L 115.267819 584.360389 
L 116.109816 587.384124 
L 116.951814 587.783486 
L 117.793811 586.243092 
L 118.635808 587.327073 
L 119.477806 589.780292 
L 120.319803 591.263634 
L 121.161801 592.119408 
L 122.003798 592.005305 
L 122.845795 592.347614 
L 123.687793 593.26044 
L 125.371787 594.287369 
L 126.213785 596.170072 
L 127.055782 596.341227 
L 127.89778 596.968794 
L 128.739777 596.284175 
L 129.581774 597.254052 
L 130.423772 598.452136 
L 132.107766 599.593168 
L 132.949764 599.878426 
L 133.791761 601.532923 
L 134.633759 601.133562 
L 135.475756 601.019459 
L 136.317753 601.932284 
L 137.159751 600.334839 
L 138.001748 601.818181 
L 138.843745 601.704078 
L 139.685743 601.41882 
L 140.52774 601.932284 
L 141.369738 602.959213 
L 143.053732 602.274594 
L 143.89573 603.301523 
L 144.737727 602.5028 
L 145.579724 603.986142 
L 146.421722 603.529729 
L 147.263719 604.2714 
L 148.105717 603.586781 
L 148.947714 603.986142 
L 149.789711 604.157297 
L 150.631709 604.157297 
L 151.473706 604.556658 
L 152.315703 603.700884 
L 153.157701 604.670761 
L 153.999698 604.670761 
L 154.841696 605.013071 
L 155.683693 604.499607 
L 156.52569 604.898968 
L 159.051682 604.670761 
L 159.89368 605.070123 
L 160.735677 604.385503 
L 161.577675 605.355381 
L 162.419672 605.241277 
L 163.261669 605.298329 
L 164.945664 604.956019 
L 166.629659 605.013071 
L 167.471656 605.412432 
L 168.313654 605.184226 
L 169.155651 605.526536 
L 169.997648 605.298329 
L 171.681643 605.640639 
L 172.52364 605.754742 
L 173.365638 605.355381 
L 174.207635 605.127174 
L 175.049633 605.526536 
L 175.89163 605.184226 
L 177.575625 605.526536 
L 178.417622 605.69769 
L 179.259619 605.754742 
L 180.943614 605.469484 
L 182.627609 605.754742 
L 184.311604 605.583587 
L 185.153601 605.69769 
L 185.995598 605.583587 
L 186.837596 605.355381 
L 187.679593 605.868845 
L 188.521591 605.811794 
L 189.363588 605.640639 
L 190.205585 605.925897 
L 191.047583 605.526536 
L 191.88958 605.69769 
L 192.731577 605.69769 
L 193.573575 605.868845 
L 196.099567 605.811794 
L 196.941564 605.754742 
L 197.783562 605.868845 
L 199.467556 605.811794 
L 200.309554 605.868845 
L 201.993549 605.69769 
L 202.835546 605.754742 
L 203.677543 605.69769 
L 204.519541 605.811794 
L 206.203535 605.754742 
L 207.88753 605.868845 
L 208.729528 605.69769 
L 210.413522 605.925897 
L 212.097517 605.811794 
L 212.939514 605.925897 
L 213.781512 605.811794 
L 214.623509 605.982948 
L 216.307504 605.69769 
L 217.149501 605.868845 
L 217.991499 605.754742 
L 218.833496 605.925897 
L 219.675493 605.982948 
L 222.201486 605.868845 
L 223.043483 605.982948 
L 243.25142 605.925897 
L 244.093417 605.868845 
L 244.935415 605.982948 
L 245.777412 605.925897 
L 246.619409 606.04 
L 248.303404 605.982948 
L 249.145402 605.868845 
L 249.987399 606.04 
L 271.879331 606.04 
L 271.879331 606.04 
" clip-path="url(#pab94bbb5c9)" style="fill: none; stroke: #0000ff; stroke-width: 1.5; stroke-linecap: square"/>
   </g>
   <g id="patch_13">
    <path d="M 57.17 606.04 
L 57.17 426.213333 
" style="fill: none; stroke: #000000; stroke-width: 0.8; stroke-linejoin: miter; stroke-linecap: square"/>
   </g>
   <g id="patch_14">
    <path d="M 272.721328 606.04 
L 272.721328 426.213333 
" style="fill: none; stroke: #000000; stroke-width: 0.8; stroke-linejoin: miter; stroke-linecap: square"/>
   </g>
   <g id="patch_15">
    <path d="M 57.17 606.04 
L 272.721328 606.04 
" style="fill: none; stroke: #000000; stroke-width: 0.8; stroke-linejoin: miter; stroke-linecap: square"/>
   </g>
   <g id="patch_16">
    <path d="M 57.17 426.213333 
L 272.721328 426.213333 
" style="fill: none; stroke: #000000; stroke-width: 0.8; stroke-linejoin: miter; stroke-linecap: square"/>
   </g>
   <g id="text_46">
    <!-- Blue Channel  -->
    <g transform="translate(189.272578 440.213333) scale(0.12 -0.12)">
     <defs>
      <path id="DejaVuSans-42" d="M 1259 2228 
L 1259 519 
L 2272 519 
Q 2781 519 3026 730 
Q 3272 941 3272 1375 
Q 3272 1813 3026 2020 
Q 2781 2228 2272 2228 
L 1259 2228 
z
M 1259 4147 
L 1259 2741 
L 2194 2741 
Q 2656 2741 2882 2914 
Q 3109 3088 3109 3444 
Q 3109 3797 2882 3972 
Q 2656 4147 2194 4147 
L 1259 4147 
z
M 628 4666 
L 2241 4666 
Q 2963 4666 3353 4366 
Q 3744 4066 3744 3513 
Q 3744 3084 3544 2831 
Q 3344 2578 2956 2516 
Q 3422 2416 3680 2098 
Q 3938 1781 3938 1306 
Q 3938 681 3513 340 
Q 3088 0 2303 0 
L 628 0 
L 628 4666 
z
" transform="scale(0.015625)"/>
     </defs>
     <use xlink:href="#DejaVuSans-42"/>
     <use xlink:href="#DejaVuSans-6c" x="68.603516"/>
     <use xlink:href="#DejaVuSans-75" x="96.386719"/>
     <use xlink:href="#DejaVuSans-65" x="159.765625"/>
     <use xlink:href="#DejaVuSans-20" x="221.289062"/>
     <use xlink:href="#DejaVuSans-43" x="253.076172"/>
     <use xlink:href="#DejaVuSans-68" x="322.900391"/>
     <use xlink:href="#DejaVuSans-61" x="386.279297"/>
     <use xlink:href="#DejaVuSans-6e" x="447.558594"/>
     <use xlink:href="#DejaVuSans-6e" x="510.9375"/>
     <use xlink:href="#DejaVuSans-65" x="574.316406"/>
     <use xlink:href="#DejaVuSans-6c" x="635.839844"/>
     <use xlink:href="#DejaVuSans-20" x="663.623047"/>
    </g>
   </g>
  </g>
 </g>
 <defs>
  <clipPath id="p0447cdf367">
   <rect x="57.17" y="10.8" width="215.551328" height="179.826667"/>
  </clipPath>
  <clipPath id="p7ac62ad9cf">
   <rect x="57.17" y="218.506667" width="215.551328" height="179.826667"/>
  </clipPath>
  <clipPath id="pab94bbb5c9">
   <rect x="57.17" y="426.213333" width="215.551328" height="179.826667"/>
  </clipPath>
 </defs>
</svg>
