<?xml version="1.0" encoding="utf-8" standalone="no"?>
<!DOCTYPE svg PUBLIC "-//W3C//DTD SVG 1.1//EN"
  "http://www.w3.org/Graphics/SVG/1.1/DTD/svg11.dtd">
<svg xmlns:xlink="http://www.w3.org/1999/xlink" width="288pt" height="648pt" viewBox="0 0 288 648" xmlns="http://www.w3.org/2000/svg" version="1.1">
 <metadata>
  <rdf:RDF xmlns:dc="http://purl.org/dc/elements/1.1/" xmlns:cc="http://creativecommons.org/ns#" xmlns:rdf="http://www.w3.org/1999/02/22-rdf-syntax-ns#">
   <cc:Work>
    <dc:type rdf:resource="http://purl.org/dc/dcmitype/StillImage"/>
    <dc:date>2023-11-18T15:19:46.132328</dc:date>
    <dc:format>image/svg+xml</dc:format>
    <dc:creator>
     <cc:Agent>
      <dc:title>Matplotlib v3.8.0, https://matplotlib.org/</dc:title>
     </cc:Agent>
    </dc:creator>
   </cc:Work>
  </rdf:RDF>
 </metadata>
 <defs>
  <style type="text/css">*{stroke-linejoin: round; stroke-linecap: butt}</style>
 </defs>
 <g id="figure_1">
  <g id="patch_1">
   <path d="M 0 648 
L 288 648 
L 288 0 
L 0 0 
z
" style="fill: #ffffff"/>
  </g>
  <g id="axes_1">
   <g id="patch_2">
    <path d="M 57.26 190.626667 
L 272.719219 190.626667 
L 272.719219 13.748134 
L 57.26 13.748134 
z
" style="fill: #ffffff"/>
   </g>
   <g id="PolyCollection_1">
    <defs>
     <path id="mea4ed10b02" d="M 57.26 -457.373333 
L 57.26 -457.373333 
L 58.101638 -457.373333 
L 58.943275 -457.373333 
L 59.784913 -457.373333 
L 60.62655 -457.373333 
L 61.468188 -457.373333 
L 62.309825 -457.373333 
L 63.151463 -457.373333 
L 63.993101 -457.373333 
L 64.834738 -457.373333 
L 65.676376 -457.373333 
L 66.518013 -457.373333 
L 67.359651 -457.373333 
L 68.201288 -457.373333 
L 69.042926 -457.373333 
L 69.884564 -457.373333 
L 70.726201 -457.373333 
L 71.567839 -457.373333 
L 72.409476 -457.373333 
L 73.251114 -457.373333 
L 74.092751 -457.373333 
L 74.934389 -457.373333 
L 75.776027 -457.373333 
L 76.617664 -457.373333 
L 77.459302 -457.373333 
L 78.300939 -457.373333 
L 79.142577 -457.373333 
L 79.984214 -457.373333 
L 80.825852 -457.373333 
L 81.66749 -457.373333 
L 82.509127 -457.373333 
L 83.350765 -457.373333 
L 84.192402 -457.373333 
L 85.03404 -457.373333 
L 85.875677 -457.373333 
L 86.717315 -457.373333 
L 87.558953 -457.373333 
L 88.40059 -457.373333 
L 89.242228 -457.373333 
L 90.083865 -457.373333 
L 90.925503 -457.373333 
L 91.767141 -457.373333 
L 92.608778 -457.373333 
L 93.450416 -457.373333 
L 94.292053 -457.373333 
L 95.133691 -457.373333 
L 95.975328 -457.373333 
L 96.816966 -457.373333 
L 97.658604 -457.373333 
L 98.500241 -457.373333 
L 99.341879 -457.373333 
L 100.183516 -457.373333 
L 101.025154 -457.373333 
L 101.866791 -457.373333 
L 102.708429 -457.373333 
L 103.550067 -457.373333 
L 104.391704 -457.373333 
L 105.233342 -457.373333 
L 106.074979 -457.373333 
L 106.916617 -457.373333 
L 107.758254 -457.373333 
L 108.599892 -457.373333 
L 109.44153 -457.373333 
L 110.283167 -457.373333 
L 111.124805 -457.373333 
L 111.966442 -457.373333 
L 112.80808 -457.373333 
L 113.649717 -457.373333 
L 114.491355 -457.373333 
L 115.332993 -457.373333 
L 116.17463 -457.373333 
L 117.016268 -457.373333 
L 117.857905 -457.373333 
L 118.699543 -457.373333 
L 119.54118 -457.373333 
L 120.382818 -457.373333 
L 121.224456 -457.373333 
L 122.066093 -457.373333 
L 122.907731 -457.373333 
L 123.749368 -457.373333 
L 124.591006 -457.373333 
L 125.432643 -457.373333 
L 126.274281 -457.373333 
L 127.115919 -457.373333 
L 127.957556 -457.373333 
L 128.799194 -457.373333 
L 129.640831 -457.373333 
L 130.482469 -457.373333 
L 131.324106 -457.373333 
L 132.165744 -457.373333 
L 133.007382 -457.373333 
L 133.849019 -457.373333 
L 134.690657 -457.373333 
L 135.532294 -457.373333 
L 136.373932 -457.373333 
L 137.215569 -457.373333 
L 138.057207 -457.373333 
L 138.898845 -457.373333 
L 139.740482 -457.373333 
L 140.58212 -457.373333 
L 141.423757 -457.593195 
L 142.265395 -457.483264 
L 143.107032 -457.483264 
L 143.94867 -457.593195 
L 144.790308 -457.593195 
L 145.631945 -457.703126 
L 146.473583 -458.032918 
L 147.31522 -457.593195 
L 148.156858 -458.252779 
L 148.998495 -458.032918 
L 149.840133 -458.252779 
L 150.681771 -458.142848 
L 151.523408 -459.132225 
L 152.365046 -459.242156 
L 153.206683 -459.462017 
L 154.048321 -460.671255 
L 154.889958 -462.210285 
L 155.731596 -463.089731 
L 156.573234 -463.309592 
L 157.414871 -464.079107 
L 158.256509 -462.100354 
L 159.098146 -462.210285 
L 159.939784 -464.4089 
L 160.781422 -464.738692 
L 161.623059 -466.277722 
L 162.464697 -466.167791 
L 163.306334 -467.157168 
L 164.147972 -469.245851 
L 164.989609 -467.157168 
L 165.831247 -467.267098 
L 166.672885 -470.56502 
L 167.514522 -470.235228 
L 168.35616 -470.345159 
L 169.197797 -471.444466 
L 170.039435 -476.391348 
L 170.881072 -474.742387 
L 171.72271 -477.160863 
L 172.564348 -477.820448 
L 173.405985 -479.029686 
L 174.247623 -478.480032 
L 175.08926 -482.217677 
L 175.930898 -482.437538 
L 176.772535 -482.6574 
L 177.614173 -487.384421 
L 178.455811 -490.022758 
L 179.297448 -492.001511 
L 180.139086 -498.707285 
L 180.980723 -500.466177 
L 181.822361 -498.707285 
L 182.663998 -507.171951 
L 183.505636 -506.292505 
L 184.347274 -512.228764 
L 185.188911 -518.714676 
L 186.030549 -512.338695 
L 186.872186 -511.56918 
L 187.713824 -512.338695 
L 188.555461 -511.129457 
L 189.397099 -514.977032 
L 190.238737 -512.008902 
L 191.080374 -510.030149 
L 191.922012 -506.952089 
L 192.763649 -505.742851 
L 193.605287 -510.469872 
L 194.446924 -500.795969 
L 195.288562 -505.083267 
L 196.1302 -505.63292 
L 196.971837 -504.313752 
L 197.813475 -502.334999 
L 198.655112 -503.874029 
L 199.49675 -499.147008 
L 200.338387 -500.905899 
L 201.180025 -494.529918 
L 202.021663 -498.267562 
L 202.8633 -498.377493 
L 203.704938 -500.905899 
L 204.546575 -495.629225 
L 205.388213 -497.498047 
L 206.22985 -492.880957 
L 207.071488 -495.189502 
L 207.913126 -498.377493 
L 208.754763 -495.629225 
L 209.596401 -492.551165 
L 210.438038 -493.980264 
L 211.279676 -493.760402 
L 212.121313 -492.771026 
L 212.962951 -492.771026 
L 213.804589 -495.849086 
L 214.646226 -497.278186 
L 215.487864 -496.948393 
L 216.329501 -495.519294 
L 217.171139 -501.235692 
L 218.012776 -499.4768 
L 218.854414 -498.597354 
L 219.696052 -502.664791 
L 220.537689 -502.664791 
L 221.379327 -501.675414 
L 222.220964 -505.852782 
L 223.062602 -504.09389 
L 223.90424 -500.686038 
L 224.745877 -503.434306 
L 225.587515 -499.256939 
L 226.429152 -499.806592 
L 227.27079 -501.345622 
L 228.112427 -499.586731 
L 228.954065 -497.827839 
L 229.795703 -501.125761 
L 230.63734 -499.256939 
L 231.478978 -501.565484 
L 232.320615 -495.409363 
L 233.162253 -498.487424 
L 234.00389 -496.618601 
L 234.845528 -496.618601 
L 235.687166 -499.4768 
L 236.528803 -496.728532 
L 237.370441 -498.487424 
L 238.212078 -498.597354 
L 239.053716 -502.55486 
L 239.895353 -507.501743 
L 240.736991 -500.246315 
L 241.578629 -505.303128 
L 242.420266 -504.973336 
L 243.261904 -506.072643 
L 244.103541 -510.469872 
L 244.945179 -511.349318 
L 245.786816 -511.019526 
L 246.628454 -516.735923 
L 247.470092 -516.955785 
L 248.311729 -520.253707 
L 249.153367 -524.211213 
L 249.995004 -520.473568 
L 250.836642 -521.572875 
L 251.678279 -522.782113 
L 252.519917 -514.097586 
L 253.361555 -517.835231 
L 254.203192 -517.7253 
L 255.04483 -523.88142 
L 255.886467 -515.966408 
L 256.728105 -517.285577 
L 257.569742 -514.867101 
L 258.41138 -516.076339 
L 259.253018 -511.019526 
L 260.094655 -514.317448 
L 260.936293 -514.317448 
L 261.77793 -514.317448 
L 262.619568 -509.370565 
L 263.461205 -504.753475 
L 264.302843 -506.952089 
L 265.144481 -499.586731 
L 265.986118 -502.115137 
L 266.827756 -496.39874 
L 267.669393 -489.802896 
L 268.511031 -484.526222 
L 269.352668 -483.426915 
L 270.194306 -474.742387 
L 271.035944 -465.068484 
L 271.877581 -459.352086 
L 271.877581 -457.373333 
L 271.877581 -457.373333 
L 271.035944 -457.373333 
L 270.194306 -457.373333 
L 269.352668 -457.373333 
L 268.511031 -457.373333 
L 267.669393 -457.373333 
L 266.827756 -457.373333 
L 265.986118 -457.373333 
L 265.144481 -457.373333 
L 264.302843 -457.373333 
L 263.461205 -457.373333 
L 262.619568 -457.373333 
L 261.77793 -457.373333 
L 260.936293 -457.373333 
L 260.094655 -457.373333 
L 259.253018 -457.373333 
L 258.41138 -457.373333 
L 257.569742 -457.373333 
L 256.728105 -457.373333 
L 255.886467 -457.373333 
L 255.04483 -457.373333 
L 254.203192 -457.373333 
L 253.361555 -457.373333 
L 252.519917 -457.373333 
L 251.678279 -457.373333 
L 250.836642 -457.373333 
L 249.995004 -457.373333 
L 249.153367 -457.373333 
L 248.311729 -457.373333 
L 247.470092 -457.373333 
L 246.628454 -457.373333 
L 245.786816 -457.373333 
L 244.945179 -457.373333 
L 244.103541 -457.373333 
L 243.261904 -457.373333 
L 242.420266 -457.373333 
L 241.578629 -457.373333 
L 240.736991 -457.373333 
L 239.895353 -457.373333 
L 239.053716 -457.373333 
L 238.212078 -457.373333 
L 237.370441 -457.373333 
L 236.528803 -457.373333 
L 235.687166 -457.373333 
L 234.845528 -457.373333 
L 234.00389 -457.373333 
L 233.162253 -457.373333 
L 232.320615 -457.373333 
L 231.478978 -457.373333 
L 230.63734 -457.373333 
L 229.795703 -457.373333 
L 228.954065 -457.373333 
L 228.112427 -457.373333 
L 227.27079 -457.373333 
L 226.429152 -457.373333 
L 225.587515 -457.373333 
L 224.745877 -457.373333 
L 223.90424 -457.373333 
L 223.062602 -457.373333 
L 222.220964 -457.373333 
L 221.379327 -457.373333 
L 220.537689 -457.373333 
L 219.696052 -457.373333 
L 218.854414 -457.373333 
L 218.012776 -457.373333 
L 217.171139 -457.373333 
L 216.329501 -457.373333 
L 215.487864 -457.373333 
L 214.646226 -457.373333 
L 213.804589 -457.373333 
L 212.962951 -457.373333 
L 212.121313 -457.373333 
L 211.279676 -457.373333 
L 210.438038 -457.373333 
L 209.596401 -457.373333 
L 208.754763 -457.373333 
L 207.913126 -457.373333 
L 207.071488 -457.373333 
L 206.22985 -457.373333 
L 205.388213 -457.373333 
L 204.546575 -457.373333 
L 203.704938 -457.373333 
L 202.8633 -457.373333 
L 202.021663 -457.373333 
L 201.180025 -457.373333 
L 200.338387 -457.373333 
L 199.49675 -457.373333 
L 198.655112 -457.373333 
L 197.813475 -457.373333 
L 196.971837 -457.373333 
L 196.1302 -457.373333 
L 195.288562 -457.373333 
L 194.446924 -457.373333 
L 193.605287 -457.373333 
L 192.763649 -457.373333 
L 191.922012 -457.373333 
L 191.080374 -457.373333 
L 190.238737 -457.373333 
L 189.397099 -457.373333 
L 188.555461 -457.373333 
L 187.713824 -457.373333 
L 186.872186 -457.373333 
L 186.030549 -457.373333 
L 185.188911 -457.373333 
L 184.347274 -457.373333 
L 183.505636 -457.373333 
L 182.663998 -457.373333 
L 181.822361 -457.373333 
L 180.980723 -457.373333 
L 180.139086 -457.373333 
L 179.297448 -457.373333 
L 178.455811 -457.373333 
L 177.614173 -457.373333 
L 176.772535 -457.373333 
L 175.930898 -457.373333 
L 175.08926 -457.373333 
L 174.247623 -457.373333 
L 173.405985 -457.373333 
L 172.564348 -457.373333 
L 171.72271 -457.373333 
L 170.881072 -457.373333 
L 170.039435 -457.373333 
L 169.197797 -457.373333 
L 168.35616 -457.373333 
L 167.514522 -457.373333 
L 166.672885 -457.373333 
L 165.831247 -457.373333 
L 164.989609 -457.373333 
L 164.147972 -457.373333 
L 163.306334 -457.373333 
L 162.464697 -457.373333 
L 161.623059 -457.373333 
L 160.781422 -457.373333 
L 159.939784 -457.373333 
L 159.098146 -457.373333 
L 158.256509 -457.373333 
L 157.414871 -457.373333 
L 156.573234 -457.373333 
L 155.731596 -457.373333 
L 154.889958 -457.373333 
L 154.048321 -457.373333 
L 153.206683 -457.373333 
L 152.365046 -457.373333 
L 151.523408 -457.373333 
L 150.681771 -457.373333 
L 149.840133 -457.373333 
L 148.998495 -457.373333 
L 148.156858 -457.373333 
L 147.31522 -457.373333 
L 146.473583 -457.373333 
L 145.631945 -457.373333 
L 144.790308 -457.373333 
L 143.94867 -457.373333 
L 143.107032 -457.373333 
L 142.265395 -457.373333 
L 141.423757 -457.373333 
L 140.58212 -457.373333 
L 139.740482 -457.373333 
L 138.898845 -457.373333 
L 138.057207 -457.373333 
L 137.215569 -457.373333 
L 136.373932 -457.373333 
L 135.532294 -457.373333 
L 134.690657 -457.373333 
L 133.849019 -457.373333 
L 133.007382 -457.373333 
L 132.165744 -457.373333 
L 131.324106 -457.373333 
L 130.482469 -457.373333 
L 129.640831 -457.373333 
L 128.799194 -457.373333 
L 127.957556 -457.373333 
L 127.115919 -457.373333 
L 126.274281 -457.373333 
L 125.432643 -457.373333 
L 124.591006 -457.373333 
L 123.749368 -457.373333 
L 122.907731 -457.373333 
L 122.066093 -457.373333 
L 121.224456 -457.373333 
L 120.382818 -457.373333 
L 119.54118 -457.373333 
L 118.699543 -457.373333 
L 117.857905 -457.373333 
L 117.016268 -457.373333 
L 116.17463 -457.373333 
L 115.332993 -457.373333 
L 114.491355 -457.373333 
L 113.649717 -457.373333 
L 112.80808 -457.373333 
L 111.966442 -457.373333 
L 111.124805 -457.373333 
L 110.283167 -457.373333 
L 109.44153 -457.373333 
L 108.599892 -457.373333 
L 107.758254 -457.373333 
L 106.916617 -457.373333 
L 106.074979 -457.373333 
L 105.233342 -457.373333 
L 104.391704 -457.373333 
L 103.550067 -457.373333 
L 102.708429 -457.373333 
L 101.866791 -457.373333 
L 101.025154 -457.373333 
L 100.183516 -457.373333 
L 99.341879 -457.373333 
L 98.500241 -457.373333 
L 97.658604 -457.373333 
L 96.816966 -457.373333 
L 95.975328 -457.373333 
L 95.133691 -457.373333 
L 94.292053 -457.373333 
L 93.450416 -457.373333 
L 92.608778 -457.373333 
L 91.767141 -457.373333 
L 90.925503 -457.373333 
L 90.083865 -457.373333 
L 89.242228 -457.373333 
L 88.40059 -457.373333 
L 87.558953 -457.373333 
L 86.717315 -457.373333 
L 85.875677 -457.373333 
L 85.03404 -457.373333 
L 84.192402 -457.373333 
L 83.350765 -457.373333 
L 82.509127 -457.373333 
L 81.66749 -457.373333 
L 80.825852 -457.373333 
L 79.984214 -457.373333 
L 79.142577 -457.373333 
L 78.300939 -457.373333 
L 77.459302 -457.373333 
L 76.617664 -457.373333 
L 75.776027 -457.373333 
L 74.934389 -457.373333 
L 74.092751 -457.373333 
L 73.251114 -457.373333 
L 72.409476 -457.373333 
L 71.567839 -457.373333 
L 70.726201 -457.373333 
L 69.884564 -457.373333 
L 69.042926 -457.373333 
L 68.201288 -457.373333 
L 67.359651 -457.373333 
L 66.518013 -457.373333 
L 65.676376 -457.373333 
L 64.834738 -457.373333 
L 63.993101 -457.373333 
L 63.151463 -457.373333 
L 62.309825 -457.373333 
L 61.468188 -457.373333 
L 60.62655 -457.373333 
L 59.784913 -457.373333 
L 58.943275 -457.373333 
L 58.101638 -457.373333 
L 57.26 -457.373333 
z
" style="stroke: #ff0000; stroke-opacity: 0.4"/>
    </defs>
    <g clip-path="url(#pb34dc2db8f)">
     <use xlink:href="#mea4ed10b02" x="0" y="648" style="fill: #ff0000; fill-opacity: 0.4; stroke: #ff0000; stroke-opacity: 0.4"/>
    </g>
   </g>
   <g id="matplotlib.axis_1">
    <g id="xtick_1">
     <g id="line2d_1">
      <defs>
       <path id="m6c94075c0e" d="M 0 0 
L 0 3.5 
" style="stroke: #000000; stroke-width: 0.8"/>
      </defs>
      <g>
       <use xlink:href="#m6c94075c0e" x="57.26" y="190.626667" style="stroke: #000000; stroke-width: 0.8"/>
      </g>
     </g>
     <g id="text_1">
      <!-- 0 -->
      <g transform="translate(54.07875 205.225104) scale(0.1 -0.1)">
       <defs>
        <path id="DejaVuSans-30" d="M 2034 4250 
Q 1547 4250 1301 3770 
Q 1056 3291 1056 2328 
Q 1056 1369 1301 889 
Q 1547 409 2034 409 
Q 2525 409 2770 889 
Q 3016 1369 3016 2328 
Q 3016 3291 2770 3770 
Q 2525 4250 2034 4250 
z
M 2034 4750 
Q 2819 4750 3233 4129 
Q 3647 3509 3647 2328 
Q 3647 1150 3233 529 
Q 2819 -91 2034 -91 
Q 1250 -91 836 529 
Q 422 1150 422 2328 
Q 422 3509 836 4129 
Q 1250 4750 2034 4750 
z
" transform="scale(0.015625)"/>
       </defs>
       <use xlink:href="#DejaVuSans-30"/>
      </g>
     </g>
    </g>
    <g id="xtick_2">
     <g id="line2d_2">
      <g>
       <use xlink:href="#m6c94075c0e" x="99.341879" y="190.626667" style="stroke: #000000; stroke-width: 0.8"/>
      </g>
     </g>
     <g id="text_2">
      <!-- 50 -->
      <g transform="translate(92.979379 205.225104) scale(0.1 -0.1)">
       <defs>
        <path id="DejaVuSans-35" d="M 691 4666 
L 3169 4666 
L 3169 4134 
L 1269 4134 
L 1269 2991 
Q 1406 3038 1543 3061 
Q 1681 3084 1819 3084 
Q 2600 3084 3056 2656 
Q 3513 2228 3513 1497 
Q 3513 744 3044 326 
Q 2575 -91 1722 -91 
Q 1428 -91 1123 -41 
Q 819 9 494 109 
L 494 744 
Q 775 591 1075 516 
Q 1375 441 1709 441 
Q 2250 441 2565 725 
Q 2881 1009 2881 1497 
Q 2881 1984 2565 2268 
Q 2250 2553 1709 2553 
Q 1456 2553 1204 2497 
Q 953 2441 691 2322 
L 691 4666 
z
" transform="scale(0.015625)"/>
       </defs>
       <use xlink:href="#DejaVuSans-35"/>
       <use xlink:href="#DejaVuSans-30" x="63.623047"/>
      </g>
     </g>
    </g>
    <g id="xtick_3">
     <g id="line2d_3">
      <g>
       <use xlink:href="#m6c94075c0e" x="141.423757" y="190.626667" style="stroke: #000000; stroke-width: 0.8"/>
      </g>
     </g>
     <g id="text_3">
      <!-- 100 -->
      <g transform="translate(131.880007 205.225104) scale(0.1 -0.1)">
       <defs>
        <path id="DejaVuSans-31" d="M 794 531 
L 1825 531 
L 1825 4091 
L 703 3866 
L 703 4441 
L 1819 4666 
L 2450 4666 
L 2450 531 
L 3481 531 
L 3481 0 
L 794 0 
L 794 531 
z
" transform="scale(0.015625)"/>
       </defs>
       <use xlink:href="#DejaVuSans-31"/>
       <use xlink:href="#DejaVuSans-30" x="63.623047"/>
       <use xlink:href="#DejaVuSans-30" x="127.246094"/>
      </g>
     </g>
    </g>
    <g id="xtick_4">
     <g id="line2d_4">
      <g>
       <use xlink:href="#m6c94075c0e" x="183.505636" y="190.626667" style="stroke: #000000; stroke-width: 0.8"/>
      </g>
     </g>
     <g id="text_4">
      <!-- 150 -->
      <g transform="translate(173.961886 205.225104) scale(0.1 -0.1)">
       <use xlink:href="#DejaVuSans-31"/>
       <use xlink:href="#DejaVuSans-35" x="63.623047"/>
       <use xlink:href="#DejaVuSans-30" x="127.246094"/>
      </g>
     </g>
    </g>
    <g id="xtick_5">
     <g id="line2d_5">
      <g>
       <use xlink:href="#m6c94075c0e" x="225.587515" y="190.626667" style="stroke: #000000; stroke-width: 0.8"/>
      </g>
     </g>
     <g id="text_5">
      <!-- 200 -->
      <g transform="translate(216.043765 205.225104) scale(0.1 -0.1)">
       <defs>
        <path id="DejaVuSans-32" d="M 1228 531 
L 3431 531 
L 3431 0 
L 469 0 
L 469 531 
Q 828 903 1448 1529 
Q 2069 2156 2228 2338 
Q 2531 2678 2651 2914 
Q 2772 3150 2772 3378 
Q 2772 3750 2511 3984 
Q 2250 4219 1831 4219 
Q 1534 4219 1204 4116 
Q 875 4013 500 3803 
L 500 4441 
Q 881 4594 1212 4672 
Q 1544 4750 1819 4750 
Q 2544 4750 2975 4387 
Q 3406 4025 3406 3419 
Q 3406 3131 3298 2873 
Q 3191 2616 2906 2266 
Q 2828 2175 2409 1742 
Q 1991 1309 1228 531 
z
" transform="scale(0.015625)"/>
       </defs>
       <use xlink:href="#DejaVuSans-32"/>
       <use xlink:href="#DejaVuSans-30" x="63.623047"/>
       <use xlink:href="#DejaVuSans-30" x="127.246094"/>
      </g>
     </g>
    </g>
    <g id="xtick_6">
     <g id="line2d_6">
      <g>
       <use xlink:href="#m6c94075c0e" x="267.669393" y="190.626667" style="stroke: #000000; stroke-width: 0.8"/>
      </g>
     </g>
     <g id="text_6">
      <!-- 250 -->
      <g transform="translate(258.125643 205.225104) scale(0.1 -0.1)">
       <use xlink:href="#DejaVuSans-32"/>
       <use xlink:href="#DejaVuSans-35" x="63.623047"/>
       <use xlink:href="#DejaVuSans-30" x="127.246094"/>
      </g>
     </g>
    </g>
   </g>
   <g id="matplotlib.axis_2">
    <g id="ytick_1">
     <g id="line2d_7">
      <defs>
       <path id="m9bd127ef4d" d="M 0 0 
L -3.5 0 
" style="stroke: #000000; stroke-width: 0.8"/>
      </defs>
      <g>
       <use xlink:href="#m9bd127ef4d" x="57.26" y="190.626667" style="stroke: #000000; stroke-width: 0.8"/>
      </g>
     </g>
     <g id="text_7">
      <!-- 0 -->
      <g transform="translate(43.8975 194.425885) scale(0.1 -0.1)">
       <use xlink:href="#DejaVuSans-30"/>
      </g>
     </g>
    </g>
    <g id="ytick_2">
     <g id="line2d_8">
      <g>
       <use xlink:href="#m9bd127ef4d" x="57.26" y="163.143986" style="stroke: #000000; stroke-width: 0.8"/>
      </g>
     </g>
     <g id="text_8">
      <!-- 250 -->
      <g transform="translate(31.1725 166.943205) scale(0.1 -0.1)">
       <use xlink:href="#DejaVuSans-32"/>
       <use xlink:href="#DejaVuSans-35" x="63.623047"/>
       <use xlink:href="#DejaVuSans-30" x="127.246094"/>
      </g>
     </g>
    </g>
    <g id="ytick_3">
     <g id="line2d_9">
      <g>
       <use xlink:href="#m9bd127ef4d" x="57.26" y="135.661305" style="stroke: #000000; stroke-width: 0.8"/>
      </g>
     </g>
     <g id="text_9">
      <!-- 500 -->
      <g transform="translate(31.1725 139.460524) scale(0.1 -0.1)">
       <use xlink:href="#DejaVuSans-35"/>
       <use xlink:href="#DejaVuSans-30" x="63.623047"/>
       <use xlink:href="#DejaVuSans-30" x="127.246094"/>
      </g>
     </g>
    </g>
    <g id="ytick_4">
     <g id="line2d_10">
      <g>
       <use xlink:href="#m9bd127ef4d" x="57.26" y="108.178625" style="stroke: #000000; stroke-width: 0.8"/>
      </g>
     </g>
     <g id="text_10">
      <!-- 750 -->
      <g transform="translate(31.1725 111.977844) scale(0.1 -0.1)">
       <defs>
        <path id="DejaVuSans-37" d="M 525 4666 
L 3525 4666 
L 3525 4397 
L 1831 0 
L 1172 0 
L 2766 4134 
L 525 4134 
L 525 4666 
z
" transform="scale(0.015625)"/>
       </defs>
       <use xlink:href="#DejaVuSans-37"/>
       <use xlink:href="#DejaVuSans-35" x="63.623047"/>
       <use xlink:href="#DejaVuSans-30" x="127.246094"/>
      </g>
     </g>
    </g>
    <g id="ytick_5">
     <g id="line2d_11">
      <g>
       <use xlink:href="#m9bd127ef4d" x="57.26" y="80.695944" style="stroke: #000000; stroke-width: 0.8"/>
      </g>
     </g>
     <g id="text_11">
      <!-- 1000 -->
      <g transform="translate(24.81 84.495163) scale(0.1 -0.1)">
       <use xlink:href="#DejaVuSans-31"/>
       <use xlink:href="#DejaVuSans-30" x="63.623047"/>
       <use xlink:href="#DejaVuSans-30" x="127.246094"/>
       <use xlink:href="#DejaVuSans-30" x="190.869141"/>
      </g>
     </g>
    </g>
    <g id="ytick_6">
     <g id="line2d_12">
      <g>
       <use xlink:href="#m9bd127ef4d" x="57.26" y="53.213264" style="stroke: #000000; stroke-width: 0.8"/>
      </g>
     </g>
     <g id="text_12">
      <!-- 1250 -->
      <g transform="translate(24.81 57.012482) scale(0.1 -0.1)">
       <use xlink:href="#DejaVuSans-31"/>
       <use xlink:href="#DejaVuSans-32" x="63.623047"/>
       <use xlink:href="#DejaVuSans-35" x="127.246094"/>
       <use xlink:href="#DejaVuSans-30" x="190.869141"/>
      </g>
     </g>
    </g>
    <g id="ytick_7">
     <g id="line2d_13">
      <g>
       <use xlink:href="#m9bd127ef4d" x="57.26" y="25.730583" style="stroke: #000000; stroke-width: 0.8"/>
      </g>
     </g>
     <g id="text_13">
      <!-- 1500 -->
      <g transform="translate(24.81 29.529802) scale(0.1 -0.1)">
       <use xlink:href="#DejaVuSans-31"/>
       <use xlink:href="#DejaVuSans-35" x="63.623047"/>
       <use xlink:href="#DejaVuSans-30" x="127.246094"/>
       <use xlink:href="#DejaVuSans-30" x="190.869141"/>
      </g>
     </g>
    </g>
    <g id="text_14">
     <!-- Pixel Frequency -->
     <g transform="translate(18.730313 141.166307) rotate(-90) scale(0.1 -0.1)">
      <defs>
       <path id="DejaVuSans-50" d="M 1259 4147 
L 1259 2394 
L 2053 2394 
Q 2494 2394 2734 2622 
Q 2975 2850 2975 3272 
Q 2975 3691 2734 3919 
Q 2494 4147 2053 4147 
L 1259 4147 
z
M 628 4666 
L 2053 4666 
Q 2838 4666 3239 4311 
Q 3641 3956 3641 3272 
Q 3641 2581 3239 2228 
Q 2838 1875 2053 1875 
L 1259 1875 
L 1259 0 
L 628 0 
L 628 4666 
z
" transform="scale(0.015625)"/>
       <path id="DejaVuSans-69" d="M 603 3500 
L 1178 3500 
L 1178 0 
L 603 0 
L 603 3500 
z
M 603 4863 
L 1178 4863 
L 1178 4134 
L 603 4134 
L 603 4863 
z
" transform="scale(0.015625)"/>
       <path id="DejaVuSans-78" d="M 3513 3500 
L 2247 1797 
L 3578 0 
L 2900 0 
L 1881 1375 
L 863 0 
L 184 0 
L 1544 1831 
L 300 3500 
L 978 3500 
L 1906 2253 
L 2834 3500 
L 3513 3500 
z
" transform="scale(0.015625)"/>
       <path id="DejaVuSans-65" d="M 3597 1894 
L 3597 1613 
L 953 1613 
Q 991 1019 1311 708 
Q 1631 397 2203 397 
Q 2534 397 2845 478 
Q 3156 559 3463 722 
L 3463 178 
Q 3153 47 2828 -22 
Q 2503 -91 2169 -91 
Q 1331 -91 842 396 
Q 353 884 353 1716 
Q 353 2575 817 3079 
Q 1281 3584 2069 3584 
Q 2775 3584 3186 3129 
Q 3597 2675 3597 1894 
z
M 3022 2063 
Q 3016 2534 2758 2815 
Q 2500 3097 2075 3097 
Q 1594 3097 1305 2825 
Q 1016 2553 972 2059 
L 3022 2063 
z
" transform="scale(0.015625)"/>
       <path id="DejaVuSans-6c" d="M 603 4863 
L 1178 4863 
L 1178 0 
L 603 0 
L 603 4863 
z
" transform="scale(0.015625)"/>
       <path id="DejaVuSans-20" transform="scale(0.015625)"/>
       <path id="DejaVuSans-46" d="M 628 4666 
L 3309 4666 
L 3309 4134 
L 1259 4134 
L 1259 2759 
L 3109 2759 
L 3109 2228 
L 1259 2228 
L 1259 0 
L 628 0 
L 628 4666 
z
" transform="scale(0.015625)"/>
       <path id="DejaVuSans-72" d="M 2631 2963 
Q 2534 3019 2420 3045 
Q 2306 3072 2169 3072 
Q 1681 3072 1420 2755 
Q 1159 2438 1159 1844 
L 1159 0 
L 581 0 
L 581 3500 
L 1159 3500 
L 1159 2956 
Q 1341 3275 1631 3429 
Q 1922 3584 2338 3584 
Q 2397 3584 2469 3576 
Q 2541 3569 2628 3553 
L 2631 2963 
z
" transform="scale(0.015625)"/>
       <path id="DejaVuSans-71" d="M 947 1747 
Q 947 1113 1208 752 
Q 1469 391 1925 391 
Q 2381 391 2643 752 
Q 2906 1113 2906 1747 
Q 2906 2381 2643 2742 
Q 2381 3103 1925 3103 
Q 1469 3103 1208 2742 
Q 947 2381 947 1747 
z
M 2906 525 
Q 2725 213 2448 61 
Q 2172 -91 1784 -91 
Q 1150 -91 751 415 
Q 353 922 353 1747 
Q 353 2572 751 3078 
Q 1150 3584 1784 3584 
Q 2172 3584 2448 3432 
Q 2725 3281 2906 2969 
L 2906 3500 
L 3481 3500 
L 3481 -1331 
L 2906 -1331 
L 2906 525 
z
" transform="scale(0.015625)"/>
       <path id="DejaVuSans-75" d="M 544 1381 
L 544 3500 
L 1119 3500 
L 1119 1403 
Q 1119 906 1312 657 
Q 1506 409 1894 409 
Q 2359 409 2629 706 
Q 2900 1003 2900 1516 
L 2900 3500 
L 3475 3500 
L 3475 0 
L 2900 0 
L 2900 538 
Q 2691 219 2414 64 
Q 2138 -91 1772 -91 
Q 1169 -91 856 284 
Q 544 659 544 1381 
z
M 1991 3584 
L 1991 3584 
z
" transform="scale(0.015625)"/>
       <path id="DejaVuSans-6e" d="M 3513 2113 
L 3513 0 
L 2938 0 
L 2938 2094 
Q 2938 2591 2744 2837 
Q 2550 3084 2163 3084 
Q 1697 3084 1428 2787 
Q 1159 2491 1159 1978 
L 1159 0 
L 581 0 
L 581 3500 
L 1159 3500 
L 1159 2956 
Q 1366 3272 1645 3428 
Q 1925 3584 2291 3584 
Q 2894 3584 3203 3211 
Q 3513 2838 3513 2113 
z
" transform="scale(0.015625)"/>
       <path id="DejaVuSans-63" d="M 3122 3366 
L 3122 2828 
Q 2878 2963 2633 3030 
Q 2388 3097 2138 3097 
Q 1578 3097 1268 2742 
Q 959 2388 959 1747 
Q 959 1106 1268 751 
Q 1578 397 2138 397 
Q 2388 397 2633 464 
Q 2878 531 3122 666 
L 3122 134 
Q 2881 22 2623 -34 
Q 2366 -91 2075 -91 
Q 1284 -91 818 406 
Q 353 903 353 1747 
Q 353 2603 823 3093 
Q 1294 3584 2113 3584 
Q 2378 3584 2631 3529 
Q 2884 3475 3122 3366 
z
" transform="scale(0.015625)"/>
       <path id="DejaVuSans-79" d="M 2059 -325 
Q 1816 -950 1584 -1140 
Q 1353 -1331 966 -1331 
L 506 -1331 
L 506 -850 
L 844 -850 
Q 1081 -850 1212 -737 
Q 1344 -625 1503 -206 
L 1606 56 
L 191 3500 
L 800 3500 
L 1894 763 
L 2988 3500 
L 3597 3500 
L 2059 -325 
z
" transform="scale(0.015625)"/>
      </defs>
      <use xlink:href="#DejaVuSans-50"/>
      <use xlink:href="#DejaVuSans-69" x="58.052734"/>
      <use xlink:href="#DejaVuSans-78" x="85.835938"/>
      <use xlink:href="#DejaVuSans-65" x="141.890625"/>
      <use xlink:href="#DejaVuSans-6c" x="203.414062"/>
      <use xlink:href="#DejaVuSans-20" x="231.197266"/>
      <use xlink:href="#DejaVuSans-46" x="262.984375"/>
      <use xlink:href="#DejaVuSans-72" x="313.253906"/>
      <use xlink:href="#DejaVuSans-65" x="352.117188"/>
      <use xlink:href="#DejaVuSans-71" x="413.640625"/>
      <use xlink:href="#DejaVuSans-75" x="477.117188"/>
      <use xlink:href="#DejaVuSans-65" x="540.496094"/>
      <use xlink:href="#DejaVuSans-6e" x="602.019531"/>
      <use xlink:href="#DejaVuSans-63" x="665.398438"/>
      <use xlink:href="#DejaVuSans-79" x="720.378906"/>
     </g>
    </g>
   </g>
   <g id="line2d_14">
    <path d="M 57.26 190.626667 
L 140.58212 190.626667 
L 141.423757 190.406805 
L 143.107032 190.516736 
L 146.473583 189.967082 
L 147.31522 190.406805 
L 148.156858 189.747221 
L 148.998495 189.967082 
L 149.840133 189.747221 
L 150.681771 189.857152 
L 151.523408 188.867775 
L 153.206683 188.537983 
L 154.048321 187.328745 
L 154.889958 185.789715 
L 155.731596 184.910269 
L 156.573234 184.690408 
L 157.414871 183.920893 
L 158.256509 185.899646 
L 159.098146 185.789715 
L 159.939784 183.5911 
L 160.781422 183.261308 
L 161.623059 181.722278 
L 162.464697 181.832209 
L 163.306334 180.842832 
L 164.147972 178.754149 
L 164.989609 180.842832 
L 165.831247 180.732902 
L 166.672885 177.43498 
L 167.514522 177.764772 
L 168.35616 177.654841 
L 169.197797 176.555534 
L 170.039435 171.608652 
L 170.881072 173.257613 
L 171.72271 170.839137 
L 172.564348 170.179552 
L 173.405985 168.970314 
L 174.247623 169.519968 
L 175.08926 165.782323 
L 176.772535 165.3426 
L 177.614173 160.615579 
L 178.455811 157.977242 
L 179.297448 155.998489 
L 180.139086 149.292715 
L 180.980723 147.533823 
L 181.822361 149.292715 
L 182.663998 140.828049 
L 183.505636 141.707495 
L 185.188911 129.285324 
L 186.030549 135.661305 
L 186.872186 136.43082 
L 187.713824 135.661305 
L 188.555461 136.870543 
L 189.397099 133.022968 
L 190.238737 135.991098 
L 191.080374 137.969851 
L 191.922012 141.047911 
L 192.763649 142.257149 
L 193.605287 137.530128 
L 194.446924 147.204031 
L 195.288562 142.916733 
L 196.1302 142.36708 
L 196.971837 143.686248 
L 197.813475 145.665001 
L 198.655112 144.125971 
L 199.49675 148.852992 
L 200.338387 147.094101 
L 201.180025 153.470082 
L 202.021663 149.732438 
L 202.8633 149.622507 
L 203.704938 147.094101 
L 204.546575 152.370775 
L 205.388213 150.501953 
L 206.22985 155.119043 
L 207.071488 152.810498 
L 207.913126 149.622507 
L 209.596401 155.448835 
L 210.438038 154.019736 
L 211.279676 154.239598 
L 212.121313 155.228974 
L 212.962951 155.228974 
L 213.804589 152.150914 
L 214.646226 150.721814 
L 215.487864 151.051607 
L 216.329501 152.480706 
L 217.171139 146.764308 
L 218.012776 148.5232 
L 218.854414 149.402646 
L 219.696052 145.335209 
L 220.537689 145.335209 
L 221.379327 146.324586 
L 222.220964 142.147218 
L 223.062602 143.90611 
L 223.90424 147.313962 
L 224.745877 144.565694 
L 225.587515 148.743061 
L 226.429152 148.193408 
L 227.27079 146.654378 
L 228.954065 150.172161 
L 229.795703 146.874239 
L 230.63734 148.743061 
L 231.478978 146.434516 
L 232.320615 152.590637 
L 233.162253 149.512576 
L 234.00389 151.381399 
L 234.845528 151.381399 
L 235.687166 148.5232 
L 236.528803 151.271468 
L 237.370441 149.512576 
L 238.212078 149.402646 
L 239.053716 145.44514 
L 239.895353 140.498257 
L 240.736991 147.753685 
L 241.578629 142.696872 
L 242.420266 143.026664 
L 243.261904 141.927357 
L 244.103541 137.530128 
L 244.945179 136.650682 
L 245.786816 136.980474 
L 246.628454 131.264077 
L 247.470092 131.044215 
L 248.311729 127.746293 
L 249.153367 123.788787 
L 249.995004 127.526432 
L 251.678279 125.217887 
L 252.519917 133.902414 
L 253.361555 130.164769 
L 254.203192 130.2747 
L 255.04483 124.11858 
L 255.886467 132.033592 
L 256.728105 130.714423 
L 257.569742 133.132899 
L 258.41138 131.923661 
L 259.253018 136.980474 
L 260.094655 133.682552 
L 261.77793 133.682552 
L 263.461205 143.246525 
L 264.302843 141.047911 
L 265.144481 148.413269 
L 265.986118 145.884863 
L 266.827756 151.60126 
L 267.669393 158.197104 
L 268.511031 163.473778 
L 269.352668 164.573085 
L 271.035944 182.931516 
L 271.877581 188.647914 
L 271.877581 188.647914 
" clip-path="url(#pb34dc2db8f)" style="fill: none; stroke: #ff0000; stroke-width: 1.5; stroke-linecap: square"/>
   </g>
   <g id="patch_3">
    <path d="M 57.26 190.626667 
L 57.26 13.748134 
" style="fill: none; stroke: #000000; stroke-width: 0.8; stroke-linejoin: miter; stroke-linecap: square"/>
   </g>
   <g id="patch_4">
    <path d="M 272.719219 190.626667 
L 272.719219 13.748134 
" style="fill: none; stroke: #000000; stroke-width: 0.8; stroke-linejoin: miter; stroke-linecap: square"/>
   </g>
   <g id="patch_5">
    <path d="M 57.26 190.626667 
L 272.719219 190.626667 
" style="fill: none; stroke: #000000; stroke-width: 0.8; stroke-linejoin: miter; stroke-linecap: square"/>
   </g>
   <g id="patch_6">
    <path d="M 57.26 13.748134 
L 272.719219 13.748134 
" style="fill: none; stroke: #000000; stroke-width: 0.8; stroke-linejoin: miter; stroke-linecap: square"/>
   </g>
   <g id="text_15">
    <!-- Red Channel  -->
    <g transform="translate(193.026094 27.748134) scale(0.12 -0.12)">
     <defs>
      <path id="DejaVuSans-52" d="M 2841 2188 
Q 3044 2119 3236 1894 
Q 3428 1669 3622 1275 
L 4263 0 
L 3584 0 
L 2988 1197 
Q 2756 1666 2539 1819 
Q 2322 1972 1947 1972 
L 1259 1972 
L 1259 0 
L 628 0 
L 628 4666 
L 2053 4666 
Q 2853 4666 3247 4331 
Q 3641 3997 3641 3322 
Q 3641 2881 3436 2590 
Q 3231 2300 2841 2188 
z
M 1259 4147 
L 1259 2491 
L 2053 2491 
Q 2509 2491 2742 2702 
Q 2975 2913 2975 3322 
Q 2975 3731 2742 3939 
Q 2509 4147 2053 4147 
L 1259 4147 
z
" transform="scale(0.015625)"/>
      <path id="DejaVuSans-64" d="M 2906 2969 
L 2906 4863 
L 3481 4863 
L 3481 0 
L 2906 0 
L 2906 525 
Q 2725 213 2448 61 
Q 2172 -91 1784 -91 
Q 1150 -91 751 415 
Q 353 922 353 1747 
Q 353 2572 751 3078 
Q 1150 3584 1784 3584 
Q 2172 3584 2448 3432 
Q 2725 3281 2906 2969 
z
M 947 1747 
Q 947 1113 1208 752 
Q 1469 391 1925 391 
Q 2381 391 2643 752 
Q 2906 1113 2906 1747 
Q 2906 2381 2643 2742 
Q 2381 3103 1925 3103 
Q 1469 3103 1208 2742 
Q 947 2381 947 1747 
z
" transform="scale(0.015625)"/>
      <path id="DejaVuSans-43" d="M 4122 4306 
L 4122 3641 
Q 3803 3938 3442 4084 
Q 3081 4231 2675 4231 
Q 1875 4231 1450 3742 
Q 1025 3253 1025 2328 
Q 1025 1406 1450 917 
Q 1875 428 2675 428 
Q 3081 428 3442 575 
Q 3803 722 4122 1019 
L 4122 359 
Q 3791 134 3420 21 
Q 3050 -91 2638 -91 
Q 1578 -91 968 557 
Q 359 1206 359 2328 
Q 359 3453 968 4101 
Q 1578 4750 2638 4750 
Q 3056 4750 3426 4639 
Q 3797 4528 4122 4306 
z
" transform="scale(0.015625)"/>
      <path id="DejaVuSans-68" d="M 3513 2113 
L 3513 0 
L 2938 0 
L 2938 2094 
Q 2938 2591 2744 2837 
Q 2550 3084 2163 3084 
Q 1697 3084 1428 2787 
Q 1159 2491 1159 1978 
L 1159 0 
L 581 0 
L 581 4863 
L 1159 4863 
L 1159 2956 
Q 1366 3272 1645 3428 
Q 1925 3584 2291 3584 
Q 2894 3584 3203 3211 
Q 3513 2838 3513 2113 
z
" transform="scale(0.015625)"/>
      <path id="DejaVuSans-61" d="M 2194 1759 
Q 1497 1759 1228 1600 
Q 959 1441 959 1056 
Q 959 750 1161 570 
Q 1363 391 1709 391 
Q 2188 391 2477 730 
Q 2766 1069 2766 1631 
L 2766 1759 
L 2194 1759 
z
M 3341 1997 
L 3341 0 
L 2766 0 
L 2766 531 
Q 2569 213 2275 61 
Q 1981 -91 1556 -91 
Q 1019 -91 701 211 
Q 384 513 384 1019 
Q 384 1609 779 1909 
Q 1175 2209 1959 2209 
L 2766 2209 
L 2766 2266 
Q 2766 2663 2505 2880 
Q 2244 3097 1772 3097 
Q 1472 3097 1187 3025 
Q 903 2953 641 2809 
L 641 3341 
Q 956 3463 1253 3523 
Q 1550 3584 1831 3584 
Q 2591 3584 2966 3190 
Q 3341 2797 3341 1997 
z
" transform="scale(0.015625)"/>
     </defs>
     <use xlink:href="#DejaVuSans-52"/>
     <use xlink:href="#DejaVuSans-65" x="64.982422"/>
     <use xlink:href="#DejaVuSans-64" x="126.505859"/>
     <use xlink:href="#DejaVuSans-20" x="189.982422"/>
     <use xlink:href="#DejaVuSans-43" x="221.769531"/>
     <use xlink:href="#DejaVuSans-68" x="291.59375"/>
     <use xlink:href="#DejaVuSans-61" x="354.972656"/>
     <use xlink:href="#DejaVuSans-6e" x="416.251953"/>
     <use xlink:href="#DejaVuSans-6e" x="479.630859"/>
     <use xlink:href="#DejaVuSans-65" x="543.009766"/>
     <use xlink:href="#DejaVuSans-6c" x="604.533203"/>
     <use xlink:href="#DejaVuSans-20" x="632.316406"/>
    </g>
   </g>
  </g>
  <g id="axes_2">
   <g id="patch_7">
    <path d="M 57.26 398.333333 
L 272.719219 398.333333 
L 272.719219 221.454801 
L 57.26 221.454801 
z
" style="fill: #ffffff"/>
   </g>
   <g id="PolyCollection_2">
    <defs>
     <path id="m34a0c3d62b" d="M 57.26 -249.666667 
L 57.26 -249.666667 
L 58.101638 -249.666667 
L 58.943275 -249.666667 
L 59.784913 -249.666667 
L 60.62655 -249.666667 
L 61.468188 -249.666667 
L 62.309825 -249.666667 
L 63.151463 -249.666667 
L 63.993101 -249.666667 
L 64.834738 -249.666667 
L 65.676376 -249.666667 
L 66.518013 -249.666667 
L 67.359651 -249.666667 
L 68.201288 -249.666667 
L 69.042926 -249.666667 
L 69.884564 -249.666667 
L 70.726201 -249.666667 
L 71.567839 -249.666667 
L 72.409476 -249.666667 
L 73.251114 -249.666667 
L 74.092751 -249.666667 
L 74.934389 -249.666667 
L 75.776027 -249.666667 
L 76.617664 -249.666667 
L 77.459302 -249.666667 
L 78.300939 -249.666667 
L 79.142577 -249.666667 
L 79.984214 -249.666667 
L 80.825852 -249.666667 
L 81.66749 -249.666667 
L 82.509127 -249.666667 
L 83.350765 -249.666667 
L 84.192402 -249.666667 
L 85.03404 -249.666667 
L 85.875677 -249.666667 
L 86.717315 -249.666667 
L 87.558953 -249.666667 
L 88.40059 -249.666667 
L 89.242228 -249.666667 
L 90.083865 -249.666667 
L 90.925503 -249.666667 
L 91.767141 -249.666667 
L 92.608778 -249.666667 
L 93.450416 -249.666667 
L 94.292053 -249.666667 
L 95.133691 -249.666667 
L 95.975328 -249.666667 
L 96.816966 -249.666667 
L 97.658604 -249.666667 
L 98.500241 -249.666667 
L 99.341879 -249.666667 
L 100.183516 -249.666667 
L 101.025154 -249.666667 
L 101.866791 -249.666667 
L 102.708429 -249.666667 
L 103.550067 -249.666667 
L 104.391704 -249.666667 
L 105.233342 -249.666667 
L 106.074979 -249.666667 
L 106.916617 -249.666667 
L 107.758254 -249.666667 
L 108.599892 -249.666667 
L 109.44153 -249.666667 
L 110.283167 -249.666667 
L 111.124805 -249.666667 
L 111.966442 -249.666667 
L 112.80808 -249.666667 
L 113.649717 -249.666667 
L 114.491355 -249.666667 
L 115.332993 -249.666667 
L 116.17463 -249.666667 
L 117.016268 -249.666667 
L 117.857905 -249.666667 
L 118.699543 -249.666667 
L 119.54118 -249.666667 
L 120.382818 -249.666667 
L 121.224456 -249.666667 
L 122.066093 -249.666667 
L 122.907731 -249.666667 
L 123.749368 -249.666667 
L 124.591006 -249.666667 
L 125.432643 -249.666667 
L 126.274281 -249.666667 
L 127.115919 -249.666667 
L 127.957556 -249.666667 
L 128.799194 -249.666667 
L 129.640831 -249.666667 
L 130.482469 -249.666667 
L 131.324106 -249.666667 
L 132.165744 -249.666667 
L 133.007382 -249.666667 
L 133.849019 -249.666667 
L 134.690657 -249.666667 
L 135.532294 -249.776597 
L 136.373932 -249.666667 
L 137.215569 -249.776597 
L 138.057207 -249.776597 
L 138.898845 -250.10639 
L 139.740482 -249.886528 
L 140.58212 -249.776597 
L 141.423757 -249.666667 
L 142.265395 -249.886528 
L 143.107032 -250.656043 
L 143.94867 -250.326251 
L 144.790308 -250.546112 
L 145.631945 -250.985835 
L 146.473583 -252.085143 
L 147.31522 -251.64542 
L 148.156858 -252.634796 
L 148.998495 -254.393688 
L 149.840133 -253.294381 
L 150.681771 -254.72348 
L 151.523408 -254.943341 
L 152.365046 -255.273134 
L 153.206683 -255.273134 
L 154.048321 -256.26251 
L 154.889958 -257.80154 
L 155.731596 -257.471748 
L 156.573234 -256.812164 
L 157.414871 -260.439877 
L 158.256509 -262.638492 
L 159.098146 -262.528561 
L 159.939784 -265.056968 
L 160.781422 -265.606621 
L 161.623059 -265.38676 
L 162.464697 -269.124405 
L 163.306334 -271.103158 
L 164.147972 -268.354889 
L 164.989609 -269.674058 
L 165.831247 -272.312395 
L 166.672885 -273.301772 
L 167.514522 -271.762742 
L 168.35616 -275.830179 
L 169.197797 -274.730871 
L 170.039435 -275.280525 
L 170.881072 -280.007546 
L 171.72271 -282.09623 
L 172.564348 -284.624636 
L 173.405985 -287.702697 
L 174.247623 -297.3766 
L 175.08926 -295.617709 
L 175.930898 -295.397847 
L 176.772535 -296.057432 
L 177.614173 -293.529025 
L 178.455811 -296.387224 
L 179.297448 -296.167362 
L 180.139086 -297.926254 
L 180.980723 -293.419094 
L 181.822361 -299.575215 
L 182.663998 -297.156739 
L 183.505636 -293.968748 
L 184.347274 -291.550272 
L 185.188911 -293.419094 
L 186.030549 -295.83757 
L 186.872186 -297.266669 
L 187.713824 -290.450965 
L 188.555461 -293.638956 
L 189.397099 -291.22048 
L 190.238737 -286.603389 
L 191.080374 -294.078679 
L 191.922012 -288.472212 
L 192.763649 -291.770133 
L 193.605287 -287.812627 
L 194.446924 -287.262974 
L 195.288562 -288.911935 
L 196.1302 -287.043112 
L 196.971837 -282.426022 
L 197.813475 -285.504082 
L 198.655112 -284.844498 
L 199.49675 -287.482835 
L 200.338387 -285.723944 
L 201.180025 -285.833874 
L 202.021663 -287.043112 
L 202.8633 -285.17429 
L 203.704938 -286.273597 
L 204.546575 -287.592766 
L 205.388213 -290.450965 
L 206.22985 -291.660203 
L 207.071488 -291.110549 
L 207.913126 -292.319787 
L 208.754763 -293.529025 
L 209.596401 -293.089302 
L 210.438038 -295.507778 
L 211.279676 -293.968748 
L 212.121313 -292.649579 
L 212.962951 -295.177986 
L 213.804589 -291.440341 
L 214.646226 -291.989995 
L 215.487864 -290.450965 
L 216.329501 -292.319787 
L 217.171139 -287.153043 
L 218.012776 -287.262974 
L 218.854414 -293.529025 
L 219.696052 -289.241727 
L 220.537689 -288.911935 
L 221.379327 -290.780757 
L 222.220964 -289.461588 
L 223.062602 -293.309163 
L 223.90424 -287.482835 
L 224.745877 -288.25235 
L 225.587515 -287.922558 
L 226.429152 -292.319787 
L 227.27079 -288.472212 
L 228.112427 -286.273597 
L 228.954065 -290.341034 
L 229.795703 -295.068055 
L 230.63734 -291.989995 
L 231.478978 -287.812627 
L 232.320615 -290.780757 
L 233.162253 -289.241727 
L 234.00389 -289.351657 
L 234.845528 -288.692073 
L 235.687166 -288.032489 
L 236.528803 -289.351657 
L 237.370441 -287.262974 
L 238.212078 -289.68145 
L 239.053716 -288.582142 
L 239.895353 -290.121173 
L 240.736991 -290.780757 
L 241.578629 -289.131796 
L 242.420266 -293.858817 
L 243.261904 -293.199233 
L 244.103541 -291.880064 
L 244.945179 -289.241727 
L 245.786816 -293.529025 
L 246.628454 -293.419094 
L 247.470092 -293.748886 
L 248.311729 -292.099926 
L 249.153367 -296.717016 
L 249.995004 -298.585838 
L 250.836642 -293.858817 
L 251.678279 -301.004314 
L 252.519917 -298.475907 
L 253.361555 -297.266669 
L 254.203192 -300.784453 
L 255.04483 -304.192305 
L 255.886467 -299.685145 
L 256.728105 -302.543344 
L 257.569742 -303.202929 
L 258.41138 -302.213552 
L 259.253018 -306.720712 
L 260.094655 -302.983067 
L 260.936293 -303.202929 
L 261.77793 -309.688841 
L 262.619568 -306.061127 
L 263.461205 -300.894383 
L 264.302843 -305.621404 
L 265.144481 -296.826947 
L 265.986118 -295.727639 
L 266.827756 -302.983067 
L 267.669393 -296.277293 
L 268.511031 -294.188609 
L 269.352668 -288.362281 
L 270.194306 -283.965052 
L 271.035944 -267.255582 
L 271.877581 -252.195073 
L 271.877581 -249.666667 
L 271.877581 -249.666667 
L 271.035944 -249.666667 
L 270.194306 -249.666667 
L 269.352668 -249.666667 
L 268.511031 -249.666667 
L 267.669393 -249.666667 
L 266.827756 -249.666667 
L 265.986118 -249.666667 
L 265.144481 -249.666667 
L 264.302843 -249.666667 
L 263.461205 -249.666667 
L 262.619568 -249.666667 
L 261.77793 -249.666667 
L 260.936293 -249.666667 
L 260.094655 -249.666667 
L 259.253018 -249.666667 
L 258.41138 -249.666667 
L 257.569742 -249.666667 
L 256.728105 -249.666667 
L 255.886467 -249.666667 
L 255.04483 -249.666667 
L 254.203192 -249.666667 
L 253.361555 -249.666667 
L 252.519917 -249.666667 
L 251.678279 -249.666667 
L 250.836642 -249.666667 
L 249.995004 -249.666667 
L 249.153367 -249.666667 
L 248.311729 -249.666667 
L 247.470092 -249.666667 
L 246.628454 -249.666667 
L 245.786816 -249.666667 
L 244.945179 -249.666667 
L 244.103541 -249.666667 
L 243.261904 -249.666667 
L 242.420266 -249.666667 
L 241.578629 -249.666667 
L 240.736991 -249.666667 
L 239.895353 -249.666667 
L 239.053716 -249.666667 
L 238.212078 -249.666667 
L 237.370441 -249.666667 
L 236.528803 -249.666667 
L 235.687166 -249.666667 
L 234.845528 -249.666667 
L 234.00389 -249.666667 
L 233.162253 -249.666667 
L 232.320615 -249.666667 
L 231.478978 -249.666667 
L 230.63734 -249.666667 
L 229.795703 -249.666667 
L 228.954065 -249.666667 
L 228.112427 -249.666667 
L 227.27079 -249.666667 
L 226.429152 -249.666667 
L 225.587515 -249.666667 
L 224.745877 -249.666667 
L 223.90424 -249.666667 
L 223.062602 -249.666667 
L 222.220964 -249.666667 
L 221.379327 -249.666667 
L 220.537689 -249.666667 
L 219.696052 -249.666667 
L 218.854414 -249.666667 
L 218.012776 -249.666667 
L 217.171139 -249.666667 
L 216.329501 -249.666667 
L 215.487864 -249.666667 
L 214.646226 -249.666667 
L 213.804589 -249.666667 
L 212.962951 -249.666667 
L 212.121313 -249.666667 
L 211.279676 -249.666667 
L 210.438038 -249.666667 
L 209.596401 -249.666667 
L 208.754763 -249.666667 
L 207.913126 -249.666667 
L 207.071488 -249.666667 
L 206.22985 -249.666667 
L 205.388213 -249.666667 
L 204.546575 -249.666667 
L 203.704938 -249.666667 
L 202.8633 -249.666667 
L 202.021663 -249.666667 
L 201.180025 -249.666667 
L 200.338387 -249.666667 
L 199.49675 -249.666667 
L 198.655112 -249.666667 
L 197.813475 -249.666667 
L 196.971837 -249.666667 
L 196.1302 -249.666667 
L 195.288562 -249.666667 
L 194.446924 -249.666667 
L 193.605287 -249.666667 
L 192.763649 -249.666667 
L 191.922012 -249.666667 
L 191.080374 -249.666667 
L 190.238737 -249.666667 
L 189.397099 -249.666667 
L 188.555461 -249.666667 
L 187.713824 -249.666667 
L 186.872186 -249.666667 
L 186.030549 -249.666667 
L 185.188911 -249.666667 
L 184.347274 -249.666667 
L 183.505636 -249.666667 
L 182.663998 -249.666667 
L 181.822361 -249.666667 
L 180.980723 -249.666667 
L 180.139086 -249.666667 
L 179.297448 -249.666667 
L 178.455811 -249.666667 
L 177.614173 -249.666667 
L 176.772535 -249.666667 
L 175.930898 -249.666667 
L 175.08926 -249.666667 
L 174.247623 -249.666667 
L 173.405985 -249.666667 
L 172.564348 -249.666667 
L 171.72271 -249.666667 
L 170.881072 -249.666667 
L 170.039435 -249.666667 
L 169.197797 -249.666667 
L 168.35616 -249.666667 
L 167.514522 -249.666667 
L 166.672885 -249.666667 
L 165.831247 -249.666667 
L 164.989609 -249.666667 
L 164.147972 -249.666667 
L 163.306334 -249.666667 
L 162.464697 -249.666667 
L 161.623059 -249.666667 
L 160.781422 -249.666667 
L 159.939784 -249.666667 
L 159.098146 -249.666667 
L 158.256509 -249.666667 
L 157.414871 -249.666667 
L 156.573234 -249.666667 
L 155.731596 -249.666667 
L 154.889958 -249.666667 
L 154.048321 -249.666667 
L 153.206683 -249.666667 
L 152.365046 -249.666667 
L 151.523408 -249.666667 
L 150.681771 -249.666667 
L 149.840133 -249.666667 
L 148.998495 -249.666667 
L 148.156858 -249.666667 
L 147.31522 -249.666667 
L 146.473583 -249.666667 
L 145.631945 -249.666667 
L 144.790308 -249.666667 
L 143.94867 -249.666667 
L 143.107032 -249.666667 
L 142.265395 -249.666667 
L 141.423757 -249.666667 
L 140.58212 -249.666667 
L 139.740482 -249.666667 
L 138.898845 -249.666667 
L 138.057207 -249.666667 
L 137.215569 -249.666667 
L 136.373932 -249.666667 
L 135.532294 -249.666667 
L 134.690657 -249.666667 
L 133.849019 -249.666667 
L 133.007382 -249.666667 
L 132.165744 -249.666667 
L 131.324106 -249.666667 
L 130.482469 -249.666667 
L 129.640831 -249.666667 
L 128.799194 -249.666667 
L 127.957556 -249.666667 
L 127.115919 -249.666667 
L 126.274281 -249.666667 
L 125.432643 -249.666667 
L 124.591006 -249.666667 
L 123.749368 -249.666667 
L 122.907731 -249.666667 
L 122.066093 -249.666667 
L 121.224456 -249.666667 
L 120.382818 -249.666667 
L 119.54118 -249.666667 
L 118.699543 -249.666667 
L 117.857905 -249.666667 
L 117.016268 -249.666667 
L 116.17463 -249.666667 
L 115.332993 -249.666667 
L 114.491355 -249.666667 
L 113.649717 -249.666667 
L 112.80808 -249.666667 
L 111.966442 -249.666667 
L 111.124805 -249.666667 
L 110.283167 -249.666667 
L 109.44153 -249.666667 
L 108.599892 -249.666667 
L 107.758254 -249.666667 
L 106.916617 -249.666667 
L 106.074979 -249.666667 
L 105.233342 -249.666667 
L 104.391704 -249.666667 
L 103.550067 -249.666667 
L 102.708429 -249.666667 
L 101.866791 -249.666667 
L 101.025154 -249.666667 
L 100.183516 -249.666667 
L 99.341879 -249.666667 
L 98.500241 -249.666667 
L 97.658604 -249.666667 
L 96.816966 -249.666667 
L 95.975328 -249.666667 
L 95.133691 -249.666667 
L 94.292053 -249.666667 
L 93.450416 -249.666667 
L 92.608778 -249.666667 
L 91.767141 -249.666667 
L 90.925503 -249.666667 
L 90.083865 -249.666667 
L 89.242228 -249.666667 
L 88.40059 -249.666667 
L 87.558953 -249.666667 
L 86.717315 -249.666667 
L 85.875677 -249.666667 
L 85.03404 -249.666667 
L 84.192402 -249.666667 
L 83.350765 -249.666667 
L 82.509127 -249.666667 
L 81.66749 -249.666667 
L 80.825852 -249.666667 
L 79.984214 -249.666667 
L 79.142577 -249.666667 
L 78.300939 -249.666667 
L 77.459302 -249.666667 
L 76.617664 -249.666667 
L 75.776027 -249.666667 
L 74.934389 -249.666667 
L 74.092751 -249.666667 
L 73.251114 -249.666667 
L 72.409476 -249.666667 
L 71.567839 -249.666667 
L 70.726201 -249.666667 
L 69.884564 -249.666667 
L 69.042926 -249.666667 
L 68.201288 -249.666667 
L 67.359651 -249.666667 
L 66.518013 -249.666667 
L 65.676376 -249.666667 
L 64.834738 -249.666667 
L 63.993101 -249.666667 
L 63.151463 -249.666667 
L 62.309825 -249.666667 
L 61.468188 -249.666667 
L 60.62655 -249.666667 
L 59.784913 -249.666667 
L 58.943275 -249.666667 
L 58.101638 -249.666667 
L 57.26 -249.666667 
z
" style="stroke: #008000; stroke-opacity: 0.4"/>
    </defs>
    <g clip-path="url(#p662703cf4e)">
     <use xlink:href="#m34a0c3d62b" x="0" y="648" style="fill: #008000; fill-opacity: 0.4; stroke: #008000; stroke-opacity: 0.4"/>
    </g>
   </g>
   <g id="matplotlib.axis_3">
    <g id="xtick_7">
     <g id="line2d_15">
      <g>
       <use xlink:href="#m6c94075c0e" x="57.26" y="398.333333" style="stroke: #000000; stroke-width: 0.8"/>
      </g>
     </g>
     <g id="text_16">
      <!-- 0 -->
      <g transform="translate(54.07875 412.931771) scale(0.1 -0.1)">
       <use xlink:href="#DejaVuSans-30"/>
      </g>
     </g>
    </g>
    <g id="xtick_8">
     <g id="line2d_16">
      <g>
       <use xlink:href="#m6c94075c0e" x="99.341879" y="398.333333" style="stroke: #000000; stroke-width: 0.8"/>
      </g>
     </g>
     <g id="text_17">
      <!-- 50 -->
      <g transform="translate(92.979379 412.931771) scale(0.1 -0.1)">
       <use xlink:href="#DejaVuSans-35"/>
       <use xlink:href="#DejaVuSans-30" x="63.623047"/>
      </g>
     </g>
    </g>
    <g id="xtick_9">
     <g id="line2d_17">
      <g>
       <use xlink:href="#m6c94075c0e" x="141.423757" y="398.333333" style="stroke: #000000; stroke-width: 0.8"/>
      </g>
     </g>
     <g id="text_18">
      <!-- 100 -->
      <g transform="translate(131.880007 412.931771) scale(0.1 -0.1)">
       <use xlink:href="#DejaVuSans-31"/>
       <use xlink:href="#DejaVuSans-30" x="63.623047"/>
       <use xlink:href="#DejaVuSans-30" x="127.246094"/>
      </g>
     </g>
    </g>
    <g id="xtick_10">
     <g id="line2d_18">
      <g>
       <use xlink:href="#m6c94075c0e" x="183.505636" y="398.333333" style="stroke: #000000; stroke-width: 0.8"/>
      </g>
     </g>
     <g id="text_19">
      <!-- 150 -->
      <g transform="translate(173.961886 412.931771) scale(0.1 -0.1)">
       <use xlink:href="#DejaVuSans-31"/>
       <use xlink:href="#DejaVuSans-35" x="63.623047"/>
       <use xlink:href="#DejaVuSans-30" x="127.246094"/>
      </g>
     </g>
    </g>
    <g id="xtick_11">
     <g id="line2d_19">
      <g>
       <use xlink:href="#m6c94075c0e" x="225.587515" y="398.333333" style="stroke: #000000; stroke-width: 0.8"/>
      </g>
     </g>
     <g id="text_20">
      <!-- 200 -->
      <g transform="translate(216.043765 412.931771) scale(0.1 -0.1)">
       <use xlink:href="#DejaVuSans-32"/>
       <use xlink:href="#DejaVuSans-30" x="63.623047"/>
       <use xlink:href="#DejaVuSans-30" x="127.246094"/>
      </g>
     </g>
    </g>
    <g id="xtick_12">
     <g id="line2d_20">
      <g>
       <use xlink:href="#m6c94075c0e" x="267.669393" y="398.333333" style="stroke: #000000; stroke-width: 0.8"/>
      </g>
     </g>
     <g id="text_21">
      <!-- 250 -->
      <g transform="translate(258.125643 412.931771) scale(0.1 -0.1)">
       <use xlink:href="#DejaVuSans-32"/>
       <use xlink:href="#DejaVuSans-35" x="63.623047"/>
       <use xlink:href="#DejaVuSans-30" x="127.246094"/>
      </g>
     </g>
    </g>
   </g>
   <g id="matplotlib.axis_4">
    <g id="ytick_8">
     <g id="line2d_21">
      <g>
       <use xlink:href="#m9bd127ef4d" x="57.26" y="398.333333" style="stroke: #000000; stroke-width: 0.8"/>
      </g>
     </g>
     <g id="text_22">
      <!-- 0 -->
      <g transform="translate(43.8975 402.132552) scale(0.1 -0.1)">
       <use xlink:href="#DejaVuSans-30"/>
      </g>
     </g>
    </g>
    <g id="ytick_9">
     <g id="line2d_22">
      <g>
       <use xlink:href="#m9bd127ef4d" x="57.26" y="370.850653" style="stroke: #000000; stroke-width: 0.8"/>
      </g>
     </g>
     <g id="text_23">
      <!-- 250 -->
      <g transform="translate(31.1725 374.649871) scale(0.1 -0.1)">
       <use xlink:href="#DejaVuSans-32"/>
       <use xlink:href="#DejaVuSans-35" x="63.623047"/>
       <use xlink:href="#DejaVuSans-30" x="127.246094"/>
      </g>
     </g>
    </g>
    <g id="ytick_10">
     <g id="line2d_23">
      <g>
       <use xlink:href="#m9bd127ef4d" x="57.26" y="343.367972" style="stroke: #000000; stroke-width: 0.8"/>
      </g>
     </g>
     <g id="text_24">
      <!-- 500 -->
      <g transform="translate(31.1725 347.167191) scale(0.1 -0.1)">
       <use xlink:href="#DejaVuSans-35"/>
       <use xlink:href="#DejaVuSans-30" x="63.623047"/>
       <use xlink:href="#DejaVuSans-30" x="127.246094"/>
      </g>
     </g>
    </g>
    <g id="ytick_11">
     <g id="line2d_24">
      <g>
       <use xlink:href="#m9bd127ef4d" x="57.26" y="315.885291" style="stroke: #000000; stroke-width: 0.8"/>
      </g>
     </g>
     <g id="text_25">
      <!-- 750 -->
      <g transform="translate(31.1725 319.68451) scale(0.1 -0.1)">
       <use xlink:href="#DejaVuSans-37"/>
       <use xlink:href="#DejaVuSans-35" x="63.623047"/>
       <use xlink:href="#DejaVuSans-30" x="127.246094"/>
      </g>
     </g>
    </g>
    <g id="ytick_12">
     <g id="line2d_25">
      <g>
       <use xlink:href="#m9bd127ef4d" x="57.26" y="288.402611" style="stroke: #000000; stroke-width: 0.8"/>
      </g>
     </g>
     <g id="text_26">
      <!-- 1000 -->
      <g transform="translate(24.81 292.20183) scale(0.1 -0.1)">
       <use xlink:href="#DejaVuSans-31"/>
       <use xlink:href="#DejaVuSans-30" x="63.623047"/>
       <use xlink:href="#DejaVuSans-30" x="127.246094"/>
       <use xlink:href="#DejaVuSans-30" x="190.869141"/>
      </g>
     </g>
    </g>
    <g id="ytick_13">
     <g id="line2d_26">
      <g>
       <use xlink:href="#m9bd127ef4d" x="57.26" y="260.91993" style="stroke: #000000; stroke-width: 0.8"/>
      </g>
     </g>
     <g id="text_27">
      <!-- 1250 -->
      <g transform="translate(24.81 264.719149) scale(0.1 -0.1)">
       <use xlink:href="#DejaVuSans-31"/>
       <use xlink:href="#DejaVuSans-32" x="63.623047"/>
       <use xlink:href="#DejaVuSans-35" x="127.246094"/>
       <use xlink:href="#DejaVuSans-30" x="190.869141"/>
      </g>
     </g>
    </g>
    <g id="ytick_14">
     <g id="line2d_27">
      <g>
       <use xlink:href="#m9bd127ef4d" x="57.26" y="233.43725" style="stroke: #000000; stroke-width: 0.8"/>
      </g>
     </g>
     <g id="text_28">
      <!-- 1500 -->
      <g transform="translate(24.81 237.236468) scale(0.1 -0.1)">
       <use xlink:href="#DejaVuSans-31"/>
       <use xlink:href="#DejaVuSans-35" x="63.623047"/>
       <use xlink:href="#DejaVuSans-30" x="127.246094"/>
       <use xlink:href="#DejaVuSans-30" x="190.869141"/>
      </g>
     </g>
    </g>
    <g id="text_29">
     <!-- Pixel Frequency -->
     <g transform="translate(18.730313 348.872973) rotate(-90) scale(0.1 -0.1)">
      <use xlink:href="#DejaVuSans-50"/>
      <use xlink:href="#DejaVuSans-69" x="58.052734"/>
      <use xlink:href="#DejaVuSans-78" x="85.835938"/>
      <use xlink:href="#DejaVuSans-65" x="141.890625"/>
      <use xlink:href="#DejaVuSans-6c" x="203.414062"/>
      <use xlink:href="#DejaVuSans-20" x="231.197266"/>
      <use xlink:href="#DejaVuSans-46" x="262.984375"/>
      <use xlink:href="#DejaVuSans-72" x="313.253906"/>
      <use xlink:href="#DejaVuSans-65" x="352.117188"/>
      <use xlink:href="#DejaVuSans-71" x="413.640625"/>
      <use xlink:href="#DejaVuSans-75" x="477.117188"/>
      <use xlink:href="#DejaVuSans-65" x="540.496094"/>
      <use xlink:href="#DejaVuSans-6e" x="602.019531"/>
      <use xlink:href="#DejaVuSans-63" x="665.398438"/>
      <use xlink:href="#DejaVuSans-79" x="720.378906"/>
     </g>
    </g>
   </g>
   <g id="line2d_28">
    <path d="M 57.26 398.333333 
L 138.057207 398.223403 
L 138.898845 397.89361 
L 140.58212 398.223403 
L 141.423757 398.333333 
L 142.265395 398.113472 
L 143.107032 397.343957 
L 143.94867 397.673749 
L 144.790308 397.453888 
L 145.631945 397.014165 
L 146.473583 395.914857 
L 147.31522 396.35458 
L 148.156858 395.365204 
L 148.998495 393.606312 
L 149.840133 394.705619 
L 150.681771 393.27652 
L 153.206683 392.726866 
L 154.048321 391.73749 
L 154.889958 390.19846 
L 155.731596 390.528252 
L 156.573234 391.187836 
L 157.414871 387.560123 
L 158.256509 385.361508 
L 159.098146 385.471439 
L 159.939784 382.943032 
L 160.781422 382.393379 
L 161.623059 382.61324 
L 162.464697 378.875595 
L 163.306334 376.896842 
L 164.147972 379.645111 
L 164.989609 378.325942 
L 165.831247 375.687605 
L 166.672885 374.698228 
L 167.514522 376.237258 
L 168.35616 372.169821 
L 169.197797 373.269129 
L 170.039435 372.719475 
L 170.881072 367.992454 
L 171.72271 365.90377 
L 172.564348 363.375364 
L 173.405985 360.297303 
L 174.247623 350.6234 
L 175.08926 352.382291 
L 175.930898 352.602153 
L 176.772535 351.942568 
L 177.614173 354.470975 
L 178.455811 351.612776 
L 179.297448 351.832638 
L 180.139086 350.073746 
L 180.980723 354.580906 
L 181.822361 348.424785 
L 182.663998 350.843261 
L 183.505636 354.031252 
L 184.347274 356.449728 
L 185.188911 354.580906 
L 186.030549 352.16243 
L 186.872186 350.733331 
L 187.713824 357.549035 
L 188.555461 354.361044 
L 189.397099 356.77952 
L 190.238737 361.396611 
L 191.080374 353.921321 
L 191.922012 359.527788 
L 192.763649 356.229867 
L 193.605287 360.187373 
L 194.446924 360.737026 
L 195.288562 359.088065 
L 196.1302 360.956888 
L 196.971837 365.573978 
L 197.813475 362.495918 
L 198.655112 363.155502 
L 199.49675 360.517165 
L 200.338387 362.276056 
L 201.180025 362.166126 
L 202.021663 360.956888 
L 202.8633 362.82571 
L 203.704938 361.726403 
L 204.546575 360.407234 
L 205.388213 357.549035 
L 206.22985 356.339797 
L 207.071488 356.889451 
L 208.754763 354.470975 
L 209.596401 354.910698 
L 210.438038 352.492222 
L 212.121313 355.350421 
L 212.962951 352.822014 
L 213.804589 356.559659 
L 214.646226 356.010005 
L 215.487864 357.549035 
L 216.329501 355.680213 
L 217.171139 360.846957 
L 218.012776 360.737026 
L 218.854414 354.470975 
L 219.696052 358.758273 
L 220.537689 359.088065 
L 221.379327 357.219243 
L 222.220964 358.538412 
L 223.062602 354.690837 
L 223.90424 360.517165 
L 224.745877 359.74765 
L 225.587515 360.077442 
L 226.429152 355.680213 
L 227.27079 359.527788 
L 228.112427 361.726403 
L 228.954065 357.658966 
L 229.795703 352.931945 
L 230.63734 356.010005 
L 231.478978 360.187373 
L 232.320615 357.219243 
L 233.162253 358.758273 
L 234.00389 358.648343 
L 235.687166 359.967511 
L 236.528803 358.648343 
L 237.370441 360.737026 
L 238.212078 358.31855 
L 239.053716 359.417858 
L 239.895353 357.878827 
L 240.736991 357.219243 
L 241.578629 358.868204 
L 242.420266 354.141183 
L 243.261904 354.800767 
L 244.103541 356.119936 
L 244.945179 358.758273 
L 245.786816 354.470975 
L 246.628454 354.580906 
L 247.470092 354.251114 
L 248.311729 355.900074 
L 249.153367 351.282984 
L 249.995004 349.414162 
L 250.836642 354.141183 
L 251.678279 346.995686 
L 252.519917 349.524093 
L 253.361555 350.733331 
L 255.04483 343.807695 
L 255.886467 348.314855 
L 256.728105 345.456656 
L 257.569742 344.797071 
L 258.41138 345.786448 
L 259.253018 341.279288 
L 260.094655 345.016933 
L 260.936293 344.797071 
L 261.77793 338.311159 
L 262.619568 341.938873 
L 263.461205 347.105617 
L 264.302843 342.378596 
L 265.144481 351.173053 
L 265.986118 352.272361 
L 266.827756 345.016933 
L 267.669393 351.722707 
L 268.511031 353.811391 
L 269.352668 359.637719 
L 270.194306 364.034948 
L 271.877581 395.804927 
L 271.877581 395.804927 
" clip-path="url(#p662703cf4e)" style="fill: none; stroke: #008000; stroke-width: 1.5; stroke-linecap: square"/>
   </g>
   <g id="patch_8">
    <path d="M 57.26 398.333333 
L 57.26 221.454801 
" style="fill: none; stroke: #000000; stroke-width: 0.8; stroke-linejoin: miter; stroke-linecap: square"/>
   </g>
   <g id="patch_9">
    <path d="M 272.719219 398.333333 
L 272.719219 221.454801 
" style="fill: none; stroke: #000000; stroke-width: 0.8; stroke-linejoin: miter; stroke-linecap: square"/>
   </g>
   <g id="patch_10">
    <path d="M 57.26 398.333333 
L 272.719219 398.333333 
" style="fill: none; stroke: #000000; stroke-width: 0.8; stroke-linejoin: miter; stroke-linecap: square"/>
   </g>
   <g id="patch_11">
    <path d="M 57.26 221.454801 
L 272.719219 221.454801 
" style="fill: none; stroke: #000000; stroke-width: 0.8; stroke-linejoin: miter; stroke-linecap: square"/>
   </g>
   <g id="text_30">
    <!-- Green Channel  -->
    <g transform="translate(179.492344 235.454801) scale(0.12 -0.12)">
     <defs>
      <path id="DejaVuSans-47" d="M 3809 666 
L 3809 1919 
L 2778 1919 
L 2778 2438 
L 4434 2438 
L 4434 434 
Q 4069 175 3628 42 
Q 3188 -91 2688 -91 
Q 1594 -91 976 548 
Q 359 1188 359 2328 
Q 359 3472 976 4111 
Q 1594 4750 2688 4750 
Q 3144 4750 3555 4637 
Q 3966 4525 4313 4306 
L 4313 3634 
Q 3963 3931 3569 4081 
Q 3175 4231 2741 4231 
Q 1884 4231 1454 3753 
Q 1025 3275 1025 2328 
Q 1025 1384 1454 906 
Q 1884 428 2741 428 
Q 3075 428 3337 486 
Q 3600 544 3809 666 
z
" transform="scale(0.015625)"/>
     </defs>
     <use xlink:href="#DejaVuSans-47"/>
     <use xlink:href="#DejaVuSans-72" x="77.490234"/>
     <use xlink:href="#DejaVuSans-65" x="116.353516"/>
     <use xlink:href="#DejaVuSans-65" x="177.876953"/>
     <use xlink:href="#DejaVuSans-6e" x="239.400391"/>
     <use xlink:href="#DejaVuSans-20" x="302.779297"/>
     <use xlink:href="#DejaVuSans-43" x="334.566406"/>
     <use xlink:href="#DejaVuSans-68" x="404.390625"/>
     <use xlink:href="#DejaVuSans-61" x="467.769531"/>
     <use xlink:href="#DejaVuSans-6e" x="529.048828"/>
     <use xlink:href="#DejaVuSans-6e" x="592.427734"/>
     <use xlink:href="#DejaVuSans-65" x="655.806641"/>
     <use xlink:href="#DejaVuSans-6c" x="717.330078"/>
     <use xlink:href="#DejaVuSans-20" x="745.113281"/>
    </g>
   </g>
  </g>
  <g id="axes_3">
   <g id="patch_12">
    <path d="M 57.26 606.04 
L 272.719219 606.04 
L 272.719219 429.161468 
L 57.26 429.161468 
z
" style="fill: #ffffff"/>
   </g>
   <g id="PolyCollection_3">
    <defs>
     <path id="ma754958832" d="M 57.26 -41.96 
L 57.26 -41.96 
L 58.101638 -41.96 
L 58.943275 -41.96 
L 59.784913 -41.96 
L 60.62655 -41.96 
L 61.468188 -41.96 
L 62.309825 -41.96 
L 63.151463 -41.96 
L 63.993101 -41.96 
L 64.834738 -41.96 
L 65.676376 -41.96 
L 66.518013 -41.96 
L 67.359651 -41.96 
L 68.201288 -41.96 
L 69.042926 -41.96 
L 69.884564 -41.96 
L 70.726201 -41.96 
L 71.567839 -41.96 
L 72.409476 -41.96 
L 73.251114 -41.96 
L 74.092751 -41.96 
L 74.934389 -41.96 
L 75.776027 -41.96 
L 76.617664 -41.96 
L 77.459302 -41.96 
L 78.300939 -41.96 
L 79.142577 -41.96 
L 79.984214 -41.96 
L 80.825852 -41.96 
L 81.66749 -41.96 
L 82.509127 -41.96 
L 83.350765 -41.96 
L 84.192402 -41.96 
L 85.03404 -41.96 
L 85.875677 -41.96 
L 86.717315 -41.96 
L 87.558953 -41.96 
L 88.40059 -41.96 
L 89.242228 -41.96 
L 90.083865 -41.96 
L 90.925503 -41.96 
L 91.767141 -41.96 
L 92.608778 -41.96 
L 93.450416 -41.96 
L 94.292053 -41.96 
L 95.133691 -41.96 
L 95.975328 -42.069931 
L 96.816966 -42.069931 
L 97.658604 -41.96 
L 98.500241 -42.289792 
L 99.341879 -42.069931 
L 100.183516 -42.179861 
L 101.025154 -42.509654 
L 101.866791 -43.059307 
L 102.708429 -43.059307 
L 103.550067 -44.92813 
L 104.391704 -44.378476 
L 105.233342 -46.906883 
L 106.074979 -48.775705 
L 106.916617 -51.633904 
L 107.758254 -55.261617 
L 108.599892 -56.910578 
L 109.44153 -59.219123 
L 110.283167 -62.736907 
L 111.124805 -65.265313 
L 111.966442 -65.814967 
L 112.80808 -70.87178 
L 113.649717 -73.510117 
L 114.491355 -74.389563 
L 115.332993 -81.315199 
L 116.17463 -86.04222 
L 117.016268 -86.372012 
L 117.857905 -89.450072 
L 118.699543 -95.386331 
L 119.54118 -104.510581 
L 120.382818 -105.060235 
L 121.224456 -106.049611 
L 122.066093 -107.808503 
L 122.907731 -109.567394 
L 123.749368 -114.294415 
L 124.591006 -113.41497 
L 125.432643 -110.996494 
L 126.274281 -112.315662 
L 127.115919 -113.41497 
L 127.957556 -108.687949 
L 128.799194 -114.954 
L 129.640831 -112.315662 
L 130.482469 -110.44684 
L 131.324106 -107.478711 
L 132.165744 -109.017741 
L 133.007382 -102.421897 
L 133.849019 -99.343837 
L 134.690657 -104.840373 
L 135.532294 -110.886563 
L 136.373932 -108.578018 
L 137.215569 -104.510581 
L 138.057207 -105.82975 
L 138.898845 -113.964623 
L 139.740482 -111.656078 
L 140.58212 -110.44684 
L 141.423757 -111.546147 
L 142.265395 -112.865316 
L 143.107032 -110.336909 
L 143.94867 -105.93968 
L 144.790308 -110.556771 
L 145.631945 -112.315662 
L 146.473583 -110.336909 
L 147.31522 -113.744762 
L 148.156858 -112.975247 
L 148.998495 -116.383099 
L 149.840133 -110.886563 
L 150.681771 -113.085177 
L 151.523408 -110.666702 
L 152.365046 -117.152614 
L 153.206683 -104.620512 
L 154.048321 -112.205732 
L 154.889958 -110.44684 
L 155.731596 -105.93968 
L 156.573234 -109.677325 
L 157.414871 -105.82975 
L 158.256509 -108.687949 
L 159.098146 -108.687949 
L 159.939784 -108.90781 
L 160.781422 -109.017741 
L 161.623059 -96.485638 
L 162.464697 -107.588641 
L 163.306334 -106.489334 
L 164.147972 -101.102729 
L 164.989609 -100.663006 
L 165.831247 -102.86162 
L 166.672885 -95.496262 
L 167.514522 -96.815431 
L 168.35616 -97.255153 
L 169.197797 -90.879172 
L 170.039435 -87.801111 
L 170.881072 -84.832982 
L 171.72271 -84.61312 
L 172.564348 -80.435753 
L 173.405985 -81.644991 
L 174.247623 -79.666238 
L 175.08926 -77.687485 
L 175.930898 -75.48887 
L 176.772535 -77.797416 
L 177.614173 -69.772473 
L 178.455811 -73.290256 
L 179.297448 -75.708732 
L 180.139086 -67.903651 
L 180.980723 -68.233443 
L 181.822361 -67.903651 
L 182.663998 -63.946144 
L 183.505636 -66.25469 
L 184.347274 -62.297184 
L 185.188911 -63.506422 
L 186.030549 -63.396491 
L 186.872186 -62.407114 
L 187.713824 -59.548916 
L 188.555461 -59.768777 
L 189.397099 -60.868084 
L 190.238737 -56.250994 
L 191.080374 -55.041756 
L 191.922012 -57.460232 
L 192.763649 -55.921202 
L 193.605287 -54.602033 
L 194.446924 -53.172934 
L 195.288562 -54.272241 
L 196.1302 -52.953072 
L 196.971837 -52.733211 
L 197.813475 -54.711964 
L 198.655112 -53.392795 
L 199.49675 -53.612657 
L 200.338387 -52.073626 
L 201.180025 -51.853765 
L 202.021663 -49.325358 
L 202.8633 -48.226051 
L 203.704938 -51.08425 
L 204.546575 -49.984943 
L 205.388213 -48.555843 
L 206.22985 -49.875012 
L 207.071488 -48.885636 
L 207.913126 -48.995566 
L 208.754763 -49.54522 
L 209.596401 -49.105497 
L 210.438038 -49.215428 
L 211.279676 -46.906883 
L 212.121313 -45.917506 
L 212.962951 -45.917506 
L 213.804589 -46.46716 
L 214.646226 -46.46716 
L 215.487864 -47.016813 
L 216.329501 -45.367852 
L 217.171139 -46.027437 
L 218.012776 -46.027437 
L 218.854414 -47.566467 
L 219.696052 -46.137367 
L 220.537689 -44.488407 
L 221.379327 -45.917506 
L 222.220964 -45.697645 
L 223.062602 -46.027437 
L 223.90424 -45.257922 
L 224.745877 -45.03806 
L 225.587515 -44.378476 
L 226.429152 -45.367852 
L 227.27079 -44.92813 
L 228.112427 -45.587714 
L 228.954065 -44.488407 
L 229.795703 -44.048684 
L 230.63734 -42.949377 
L 231.478978 -45.03806 
L 232.320615 -44.488407 
L 233.162253 -45.697645 
L 234.00389 -43.059307 
L 234.845528 -43.49903 
L 235.687166 -43.608961 
L 236.528803 -43.828822 
L 237.370441 -44.598337 
L 238.212078 -43.608961 
L 239.053716 -42.509654 
L 239.895353 -43.608961 
L 240.736991 -43.938753 
L 241.578629 -44.598337 
L 242.420266 -43.389099 
L 243.261904 -42.509654 
L 244.103541 -43.608961 
L 244.945179 -43.059307 
L 245.786816 -42.839446 
L 246.628454 -42.949377 
L 247.470092 -42.399723 
L 248.311729 -42.289792 
L 249.153367 -42.619584 
L 249.995004 -42.289792 
L 250.836642 -42.289792 
L 251.678279 -41.96 
L 252.519917 -42.509654 
L 253.361555 -42.069931 
L 254.203192 -42.949377 
L 255.04483 -42.509654 
L 255.886467 -42.399723 
L 256.728105 -41.96 
L 257.569742 -42.399723 
L 258.41138 -42.289792 
L 259.253018 -42.289792 
L 260.094655 -41.96 
L 260.936293 -42.729515 
L 261.77793 -42.289792 
L 262.619568 -41.96 
L 263.461205 -41.96 
L 264.302843 -41.96 
L 265.144481 -41.96 
L 265.986118 -41.96 
L 266.827756 -41.96 
L 267.669393 -41.96 
L 268.511031 -41.96 
L 269.352668 -41.96 
L 270.194306 -41.96 
L 271.035944 -41.96 
L 271.877581 -41.96 
L 271.877581 -41.96 
L 271.877581 -41.96 
L 271.035944 -41.96 
L 270.194306 -41.96 
L 269.352668 -41.96 
L 268.511031 -41.96 
L 267.669393 -41.96 
L 266.827756 -41.96 
L 265.986118 -41.96 
L 265.144481 -41.96 
L 264.302843 -41.96 
L 263.461205 -41.96 
L 262.619568 -41.96 
L 261.77793 -41.96 
L 260.936293 -41.96 
L 260.094655 -41.96 
L 259.253018 -41.96 
L 258.41138 -41.96 
L 257.569742 -41.96 
L 256.728105 -41.96 
L 255.886467 -41.96 
L 255.04483 -41.96 
L 254.203192 -41.96 
L 253.361555 -41.96 
L 252.519917 -41.96 
L 251.678279 -41.96 
L 250.836642 -41.96 
L 249.995004 -41.96 
L 249.153367 -41.96 
L 248.311729 -41.96 
L 247.470092 -41.96 
L 246.628454 -41.96 
L 245.786816 -41.96 
L 244.945179 -41.96 
L 244.103541 -41.96 
L 243.261904 -41.96 
L 242.420266 -41.96 
L 241.578629 -41.96 
L 240.736991 -41.96 
L 239.895353 -41.96 
L 239.053716 -41.96 
L 238.212078 -41.96 
L 237.370441 -41.96 
L 236.528803 -41.96 
L 235.687166 -41.96 
L 234.845528 -41.96 
L 234.00389 -41.96 
L 233.162253 -41.96 
L 232.320615 -41.96 
L 231.478978 -41.96 
L 230.63734 -41.96 
L 229.795703 -41.96 
L 228.954065 -41.96 
L 228.112427 -41.96 
L 227.27079 -41.96 
L 226.429152 -41.96 
L 225.587515 -41.96 
L 224.745877 -41.96 
L 223.90424 -41.96 
L 223.062602 -41.96 
L 222.220964 -41.96 
L 221.379327 -41.96 
L 220.537689 -41.96 
L 219.696052 -41.96 
L 218.854414 -41.96 
L 218.012776 -41.96 
L 217.171139 -41.96 
L 216.329501 -41.96 
L 215.487864 -41.96 
L 214.646226 -41.96 
L 213.804589 -41.96 
L 212.962951 -41.96 
L 212.121313 -41.96 
L 211.279676 -41.96 
L 210.438038 -41.96 
L 209.596401 -41.96 
L 208.754763 -41.96 
L 207.913126 -41.96 
L 207.071488 -41.96 
L 206.22985 -41.96 
L 205.388213 -41.96 
L 204.546575 -41.96 
L 203.704938 -41.96 
L 202.8633 -41.96 
L 202.021663 -41.96 
L 201.180025 -41.96 
L 200.338387 -41.96 
L 199.49675 -41.96 
L 198.655112 -41.96 
L 197.813475 -41.96 
L 196.971837 -41.96 
L 196.1302 -41.96 
L 195.288562 -41.96 
L 194.446924 -41.96 
L 193.605287 -41.96 
L 192.763649 -41.96 
L 191.922012 -41.96 
L 191.080374 -41.96 
L 190.238737 -41.96 
L 189.397099 -41.96 
L 188.555461 -41.96 
L 187.713824 -41.96 
L 186.872186 -41.96 
L 186.030549 -41.96 
L 185.188911 -41.96 
L 184.347274 -41.96 
L 183.505636 -41.96 
L 182.663998 -41.96 
L 181.822361 -41.96 
L 180.980723 -41.96 
L 180.139086 -41.96 
L 179.297448 -41.96 
L 178.455811 -41.96 
L 177.614173 -41.96 
L 176.772535 -41.96 
L 175.930898 -41.96 
L 175.08926 -41.96 
L 174.247623 -41.96 
L 173.405985 -41.96 
L 172.564348 -41.96 
L 171.72271 -41.96 
L 170.881072 -41.96 
L 170.039435 -41.96 
L 169.197797 -41.96 
L 168.35616 -41.96 
L 167.514522 -41.96 
L 166.672885 -41.96 
L 165.831247 -41.96 
L 164.989609 -41.96 
L 164.147972 -41.96 
L 163.306334 -41.96 
L 162.464697 -41.96 
L 161.623059 -41.96 
L 160.781422 -41.96 
L 159.939784 -41.96 
L 159.098146 -41.96 
L 158.256509 -41.96 
L 157.414871 -41.96 
L 156.573234 -41.96 
L 155.731596 -41.96 
L 154.889958 -41.96 
L 154.048321 -41.96 
L 153.206683 -41.96 
L 152.365046 -41.96 
L 151.523408 -41.96 
L 150.681771 -41.96 
L 149.840133 -41.96 
L 148.998495 -41.96 
L 148.156858 -41.96 
L 147.31522 -41.96 
L 146.473583 -41.96 
L 145.631945 -41.96 
L 144.790308 -41.96 
L 143.94867 -41.96 
L 143.107032 -41.96 
L 142.265395 -41.96 
L 141.423757 -41.96 
L 140.58212 -41.96 
L 139.740482 -41.96 
L 138.898845 -41.96 
L 138.057207 -41.96 
L 137.215569 -41.96 
L 136.373932 -41.96 
L 135.532294 -41.96 
L 134.690657 -41.96 
L 133.849019 -41.96 
L 133.007382 -41.96 
L 132.165744 -41.96 
L 131.324106 -41.96 
L 130.482469 -41.96 
L 129.640831 -41.96 
L 128.799194 -41.96 
L 127.957556 -41.96 
L 127.115919 -41.96 
L 126.274281 -41.96 
L 125.432643 -41.96 
L 124.591006 -41.96 
L 123.749368 -41.96 
L 122.907731 -41.96 
L 122.066093 -41.96 
L 121.224456 -41.96 
L 120.382818 -41.96 
L 119.54118 -41.96 
L 118.699543 -41.96 
L 117.857905 -41.96 
L 117.016268 -41.96 
L 116.17463 -41.96 
L 115.332993 -41.96 
L 114.491355 -41.96 
L 113.649717 -41.96 
L 112.80808 -41.96 
L 111.966442 -41.96 
L 111.124805 -41.96 
L 110.283167 -41.96 
L 109.44153 -41.96 
L 108.599892 -41.96 
L 107.758254 -41.96 
L 106.916617 -41.96 
L 106.074979 -41.96 
L 105.233342 -41.96 
L 104.391704 -41.96 
L 103.550067 -41.96 
L 102.708429 -41.96 
L 101.866791 -41.96 
L 101.025154 -41.96 
L 100.183516 -41.96 
L 99.341879 -41.96 
L 98.500241 -41.96 
L 97.658604 -41.96 
L 96.816966 -41.96 
L 95.975328 -41.96 
L 95.133691 -41.96 
L 94.292053 -41.96 
L 93.450416 -41.96 
L 92.608778 -41.96 
L 91.767141 -41.96 
L 90.925503 -41.96 
L 90.083865 -41.96 
L 89.242228 -41.96 
L 88.40059 -41.96 
L 87.558953 -41.96 
L 86.717315 -41.96 
L 85.875677 -41.96 
L 85.03404 -41.96 
L 84.192402 -41.96 
L 83.350765 -41.96 
L 82.509127 -41.96 
L 81.66749 -41.96 
L 80.825852 -41.96 
L 79.984214 -41.96 
L 79.142577 -41.96 
L 78.300939 -41.96 
L 77.459302 -41.96 
L 76.617664 -41.96 
L 75.776027 -41.96 
L 74.934389 -41.96 
L 74.092751 -41.96 
L 73.251114 -41.96 
L 72.409476 -41.96 
L 71.567839 -41.96 
L 70.726201 -41.96 
L 69.884564 -41.96 
L 69.042926 -41.96 
L 68.201288 -41.96 
L 67.359651 -41.96 
L 66.518013 -41.96 
L 65.676376 -41.96 
L 64.834738 -41.96 
L 63.993101 -41.96 
L 63.151463 -41.96 
L 62.309825 -41.96 
L 61.468188 -41.96 
L 60.62655 -41.96 
L 59.784913 -41.96 
L 58.943275 -41.96 
L 58.101638 -41.96 
L 57.26 -41.96 
z
" style="stroke: #0000ff; stroke-opacity: 0.4"/>
    </defs>
    <g clip-path="url(#p8df9e8e16c)">
     <use xlink:href="#ma754958832" x="0" y="648" style="fill: #0000ff; fill-opacity: 0.4; stroke: #0000ff; stroke-opacity: 0.4"/>
    </g>
   </g>
   <g id="matplotlib.axis_5">
    <g id="xtick_13">
     <g id="line2d_29">
      <g>
       <use xlink:href="#m6c94075c0e" x="57.26" y="606.04" style="stroke: #000000; stroke-width: 0.8"/>
      </g>
     </g>
     <g id="text_31">
      <!-- 0 -->
      <g transform="translate(54.07875 620.638437) scale(0.1 -0.1)">
       <use xlink:href="#DejaVuSans-30"/>
      </g>
     </g>
    </g>
    <g id="xtick_14">
     <g id="line2d_30">
      <g>
       <use xlink:href="#m6c94075c0e" x="99.341879" y="606.04" style="stroke: #000000; stroke-width: 0.8"/>
      </g>
     </g>
     <g id="text_32">
      <!-- 50 -->
      <g transform="translate(92.979379 620.638437) scale(0.1 -0.1)">
       <use xlink:href="#DejaVuSans-35"/>
       <use xlink:href="#DejaVuSans-30" x="63.623047"/>
      </g>
     </g>
    </g>
    <g id="xtick_15">
     <g id="line2d_31">
      <g>
       <use xlink:href="#m6c94075c0e" x="141.423757" y="606.04" style="stroke: #000000; stroke-width: 0.8"/>
      </g>
     </g>
     <g id="text_33">
      <!-- 100 -->
      <g transform="translate(131.880007 620.638437) scale(0.1 -0.1)">
       <use xlink:href="#DejaVuSans-31"/>
       <use xlink:href="#DejaVuSans-30" x="63.623047"/>
       <use xlink:href="#DejaVuSans-30" x="127.246094"/>
      </g>
     </g>
    </g>
    <g id="xtick_16">
     <g id="line2d_32">
      <g>
       <use xlink:href="#m6c94075c0e" x="183.505636" y="606.04" style="stroke: #000000; stroke-width: 0.8"/>
      </g>
     </g>
     <g id="text_34">
      <!-- 150 -->
      <g transform="translate(173.961886 620.638437) scale(0.1 -0.1)">
       <use xlink:href="#DejaVuSans-31"/>
       <use xlink:href="#DejaVuSans-35" x="63.623047"/>
       <use xlink:href="#DejaVuSans-30" x="127.246094"/>
      </g>
     </g>
    </g>
    <g id="xtick_17">
     <g id="line2d_33">
      <g>
       <use xlink:href="#m6c94075c0e" x="225.587515" y="606.04" style="stroke: #000000; stroke-width: 0.8"/>
      </g>
     </g>
     <g id="text_35">
      <!-- 200 -->
      <g transform="translate(216.043765 620.638437) scale(0.1 -0.1)">
       <use xlink:href="#DejaVuSans-32"/>
       <use xlink:href="#DejaVuSans-30" x="63.623047"/>
       <use xlink:href="#DejaVuSans-30" x="127.246094"/>
      </g>
     </g>
    </g>
    <g id="xtick_18">
     <g id="line2d_34">
      <g>
       <use xlink:href="#m6c94075c0e" x="267.669393" y="606.04" style="stroke: #000000; stroke-width: 0.8"/>
      </g>
     </g>
     <g id="text_36">
      <!-- 250 -->
      <g transform="translate(258.125643 620.638437) scale(0.1 -0.1)">
       <use xlink:href="#DejaVuSans-32"/>
       <use xlink:href="#DejaVuSans-35" x="63.623047"/>
       <use xlink:href="#DejaVuSans-30" x="127.246094"/>
      </g>
     </g>
    </g>
    <g id="text_37">
     <!-- Pixel Intensity -->
     <g transform="translate(130.077891 634.316562) scale(0.1 -0.1)">
      <defs>
       <path id="DejaVuSans-49" d="M 628 4666 
L 1259 4666 
L 1259 0 
L 628 0 
L 628 4666 
z
" transform="scale(0.015625)"/>
       <path id="DejaVuSans-74" d="M 1172 4494 
L 1172 3500 
L 2356 3500 
L 2356 3053 
L 1172 3053 
L 1172 1153 
Q 1172 725 1289 603 
Q 1406 481 1766 481 
L 2356 481 
L 2356 0 
L 1766 0 
Q 1100 0 847 248 
Q 594 497 594 1153 
L 594 3053 
L 172 3053 
L 172 3500 
L 594 3500 
L 594 4494 
L 1172 4494 
z
" transform="scale(0.015625)"/>
       <path id="DejaVuSans-73" d="M 2834 3397 
L 2834 2853 
Q 2591 2978 2328 3040 
Q 2066 3103 1784 3103 
Q 1356 3103 1142 2972 
Q 928 2841 928 2578 
Q 928 2378 1081 2264 
Q 1234 2150 1697 2047 
L 1894 2003 
Q 2506 1872 2764 1633 
Q 3022 1394 3022 966 
Q 3022 478 2636 193 
Q 2250 -91 1575 -91 
Q 1294 -91 989 -36 
Q 684 19 347 128 
L 347 722 
Q 666 556 975 473 
Q 1284 391 1588 391 
Q 1994 391 2212 530 
Q 2431 669 2431 922 
Q 2431 1156 2273 1281 
Q 2116 1406 1581 1522 
L 1381 1569 
Q 847 1681 609 1914 
Q 372 2147 372 2553 
Q 372 3047 722 3315 
Q 1072 3584 1716 3584 
Q 2034 3584 2315 3537 
Q 2597 3491 2834 3397 
z
" transform="scale(0.015625)"/>
      </defs>
      <use xlink:href="#DejaVuSans-50"/>
      <use xlink:href="#DejaVuSans-69" x="58.052734"/>
      <use xlink:href="#DejaVuSans-78" x="85.835938"/>
      <use xlink:href="#DejaVuSans-65" x="141.890625"/>
      <use xlink:href="#DejaVuSans-6c" x="203.414062"/>
      <use xlink:href="#DejaVuSans-20" x="231.197266"/>
      <use xlink:href="#DejaVuSans-49" x="262.984375"/>
      <use xlink:href="#DejaVuSans-6e" x="292.476562"/>
      <use xlink:href="#DejaVuSans-74" x="355.855469"/>
      <use xlink:href="#DejaVuSans-65" x="395.064453"/>
      <use xlink:href="#DejaVuSans-6e" x="456.587891"/>
      <use xlink:href="#DejaVuSans-73" x="519.966797"/>
      <use xlink:href="#DejaVuSans-69" x="572.066406"/>
      <use xlink:href="#DejaVuSans-74" x="599.849609"/>
      <use xlink:href="#DejaVuSans-79" x="639.058594"/>
     </g>
    </g>
   </g>
   <g id="matplotlib.axis_6">
    <g id="ytick_15">
     <g id="line2d_35">
      <g>
       <use xlink:href="#m9bd127ef4d" x="57.26" y="606.04" style="stroke: #000000; stroke-width: 0.8"/>
      </g>
     </g>
     <g id="text_38">
      <!-- 0 -->
      <g transform="translate(43.8975 609.839219) scale(0.1 -0.1)">
       <use xlink:href="#DejaVuSans-30"/>
      </g>
     </g>
    </g>
    <g id="ytick_16">
     <g id="line2d_36">
      <g>
       <use xlink:href="#m9bd127ef4d" x="57.26" y="578.557319" style="stroke: #000000; stroke-width: 0.8"/>
      </g>
     </g>
     <g id="text_39">
      <!-- 250 -->
      <g transform="translate(31.1725 582.356538) scale(0.1 -0.1)">
       <use xlink:href="#DejaVuSans-32"/>
       <use xlink:href="#DejaVuSans-35" x="63.623047"/>
       <use xlink:href="#DejaVuSans-30" x="127.246094"/>
      </g>
     </g>
    </g>
    <g id="ytick_17">
     <g id="line2d_37">
      <g>
       <use xlink:href="#m9bd127ef4d" x="57.26" y="551.074639" style="stroke: #000000; stroke-width: 0.8"/>
      </g>
     </g>
     <g id="text_40">
      <!-- 500 -->
      <g transform="translate(31.1725 554.873858) scale(0.1 -0.1)">
       <use xlink:href="#DejaVuSans-35"/>
       <use xlink:href="#DejaVuSans-30" x="63.623047"/>
       <use xlink:href="#DejaVuSans-30" x="127.246094"/>
      </g>
     </g>
    </g>
    <g id="ytick_18">
     <g id="line2d_38">
      <g>
       <use xlink:href="#m9bd127ef4d" x="57.26" y="523.591958" style="stroke: #000000; stroke-width: 0.8"/>
      </g>
     </g>
     <g id="text_41">
      <!-- 750 -->
      <g transform="translate(31.1725 527.391177) scale(0.1 -0.1)">
       <use xlink:href="#DejaVuSans-37"/>
       <use xlink:href="#DejaVuSans-35" x="63.623047"/>
       <use xlink:href="#DejaVuSans-30" x="127.246094"/>
      </g>
     </g>
    </g>
    <g id="ytick_19">
     <g id="line2d_39">
      <g>
       <use xlink:href="#m9bd127ef4d" x="57.26" y="496.109278" style="stroke: #000000; stroke-width: 0.8"/>
      </g>
     </g>
     <g id="text_42">
      <!-- 1000 -->
      <g transform="translate(24.81 499.908496) scale(0.1 -0.1)">
       <use xlink:href="#DejaVuSans-31"/>
       <use xlink:href="#DejaVuSans-30" x="63.623047"/>
       <use xlink:href="#DejaVuSans-30" x="127.246094"/>
       <use xlink:href="#DejaVuSans-30" x="190.869141"/>
      </g>
     </g>
    </g>
    <g id="ytick_20">
     <g id="line2d_40">
      <g>
       <use xlink:href="#m9bd127ef4d" x="57.26" y="468.626597" style="stroke: #000000; stroke-width: 0.8"/>
      </g>
     </g>
     <g id="text_43">
      <!-- 1250 -->
      <g transform="translate(24.81 472.425816) scale(0.1 -0.1)">
       <use xlink:href="#DejaVuSans-31"/>
       <use xlink:href="#DejaVuSans-32" x="63.623047"/>
       <use xlink:href="#DejaVuSans-35" x="127.246094"/>
       <use xlink:href="#DejaVuSans-30" x="190.869141"/>
      </g>
     </g>
    </g>
    <g id="ytick_21">
     <g id="line2d_41">
      <g>
       <use xlink:href="#m9bd127ef4d" x="57.26" y="441.143916" style="stroke: #000000; stroke-width: 0.8"/>
      </g>
     </g>
     <g id="text_44">
      <!-- 1500 -->
      <g transform="translate(24.81 444.943135) scale(0.1 -0.1)">
       <use xlink:href="#DejaVuSans-31"/>
       <use xlink:href="#DejaVuSans-35" x="63.623047"/>
       <use xlink:href="#DejaVuSans-30" x="127.246094"/>
       <use xlink:href="#DejaVuSans-30" x="190.869141"/>
      </g>
     </g>
    </g>
    <g id="text_45">
     <!-- Pixel Frequency -->
     <g transform="translate(18.730313 556.57964) rotate(-90) scale(0.1 -0.1)">
      <use xlink:href="#DejaVuSans-50"/>
      <use xlink:href="#DejaVuSans-69" x="58.052734"/>
      <use xlink:href="#DejaVuSans-78" x="85.835938"/>
      <use xlink:href="#DejaVuSans-65" x="141.890625"/>
      <use xlink:href="#DejaVuSans-6c" x="203.414062"/>
      <use xlink:href="#DejaVuSans-20" x="231.197266"/>
      <use xlink:href="#DejaVuSans-46" x="262.984375"/>
      <use xlink:href="#DejaVuSans-72" x="313.253906"/>
      <use xlink:href="#DejaVuSans-65" x="352.117188"/>
      <use xlink:href="#DejaVuSans-71" x="413.640625"/>
      <use xlink:href="#DejaVuSans-75" x="477.117188"/>
      <use xlink:href="#DejaVuSans-65" x="540.496094"/>
      <use xlink:href="#DejaVuSans-6e" x="602.019531"/>
      <use xlink:href="#DejaVuSans-63" x="665.398438"/>
      <use xlink:href="#DejaVuSans-79" x="720.378906"/>
     </g>
    </g>
   </g>
   <g id="line2d_42">
    <path d="M 57.26 606.04 
L 97.658604 606.04 
L 98.500241 605.710208 
L 99.341879 605.930069 
L 100.183516 605.820139 
L 101.025154 605.490346 
L 101.866791 604.940693 
L 102.708429 604.940693 
L 103.550067 603.07187 
L 104.391704 603.621524 
L 105.233342 601.093117 
L 106.074979 599.224295 
L 106.916617 596.366096 
L 107.758254 592.738383 
L 108.599892 591.089422 
L 109.44153 588.780877 
L 110.283167 585.263093 
L 111.124805 582.734687 
L 111.966442 582.185033 
L 112.80808 577.12822 
L 113.649717 574.489883 
L 114.491355 573.610437 
L 115.332993 566.684801 
L 116.17463 561.95778 
L 117.016268 561.627988 
L 117.857905 558.549928 
L 118.699543 552.613669 
L 119.54118 543.489419 
L 120.382818 542.939765 
L 121.224456 541.950389 
L 122.907731 538.432606 
L 123.749368 533.705585 
L 124.591006 534.58503 
L 125.432643 537.003506 
L 126.274281 535.684338 
L 127.115919 534.58503 
L 127.957556 539.312051 
L 128.799194 533.046 
L 129.640831 535.684338 
L 130.482469 537.55316 
L 131.324106 540.521289 
L 132.165744 538.982259 
L 133.007382 545.578103 
L 133.849019 548.656163 
L 135.532294 537.113437 
L 136.373932 539.421982 
L 137.215569 543.489419 
L 138.057207 542.17025 
L 138.898845 534.035377 
L 139.740482 536.343922 
L 140.58212 537.55316 
L 141.423757 536.453853 
L 142.265395 535.134684 
L 143.107032 537.663091 
L 143.94867 542.06032 
L 144.790308 537.443229 
L 145.631945 535.684338 
L 146.473583 537.663091 
L 147.31522 534.255238 
L 148.156858 535.024753 
L 148.998495 531.616901 
L 149.840133 537.113437 
L 150.681771 534.914823 
L 151.523408 537.333298 
L 152.365046 530.847386 
L 153.206683 543.379488 
L 154.048321 535.794268 
L 154.889958 537.55316 
L 155.731596 542.06032 
L 156.573234 538.322675 
L 157.414871 542.17025 
L 158.256509 539.312051 
L 159.098146 539.312051 
L 160.781422 538.982259 
L 161.623059 551.514362 
L 162.464697 540.411359 
L 163.306334 541.510666 
L 164.147972 546.897271 
L 164.989609 547.336994 
L 165.831247 545.13838 
L 166.672885 552.503738 
L 167.514522 551.184569 
L 168.35616 550.744847 
L 169.197797 557.120828 
L 170.881072 563.167018 
L 171.72271 563.38688 
L 172.564348 567.564247 
L 173.405985 566.355009 
L 175.930898 572.51113 
L 176.772535 570.202584 
L 177.614173 578.227527 
L 178.455811 574.709744 
L 179.297448 572.291268 
L 180.139086 580.096349 
L 180.980723 579.766557 
L 181.822361 580.096349 
L 182.663998 584.053856 
L 183.505636 581.74531 
L 184.347274 585.702816 
L 185.188911 584.493578 
L 186.030549 584.603509 
L 186.872186 585.592886 
L 187.713824 588.451084 
L 188.555461 588.231223 
L 189.397099 587.131916 
L 190.238737 591.749006 
L 191.080374 592.958244 
L 191.922012 590.539768 
L 193.605287 593.397967 
L 194.446924 594.827066 
L 195.288562 593.727759 
L 196.1302 595.046928 
L 196.971837 595.266789 
L 197.813475 593.288036 
L 198.655112 594.607205 
L 199.49675 594.387343 
L 200.338387 595.926374 
L 201.180025 596.146235 
L 202.021663 598.674642 
L 202.8633 599.773949 
L 203.704938 596.91575 
L 204.546575 598.015057 
L 205.388213 599.444157 
L 206.22985 598.124988 
L 207.071488 599.114364 
L 207.913126 599.004434 
L 208.754763 598.45478 
L 209.596401 598.894503 
L 210.438038 598.784572 
L 211.279676 601.093117 
L 212.121313 602.082494 
L 212.962951 602.082494 
L 213.804589 601.53284 
L 214.646226 601.53284 
L 215.487864 600.983187 
L 216.329501 602.632148 
L 217.171139 601.972563 
L 218.012776 601.972563 
L 218.854414 600.433533 
L 219.696052 601.862633 
L 220.537689 603.511593 
L 221.379327 602.082494 
L 222.220964 602.302355 
L 223.062602 601.972563 
L 223.90424 602.742078 
L 224.745877 602.96194 
L 225.587515 603.621524 
L 226.429152 602.632148 
L 227.27079 603.07187 
L 228.112427 602.412286 
L 228.954065 603.511593 
L 229.795703 603.951316 
L 230.63734 605.050623 
L 231.478978 602.96194 
L 232.320615 603.511593 
L 233.162253 602.302355 
L 234.00389 604.940693 
L 234.845528 604.50097 
L 236.528803 604.171178 
L 237.370441 603.401663 
L 239.053716 605.490346 
L 239.895353 604.391039 
L 240.736991 604.061247 
L 241.578629 603.401663 
L 242.420266 604.610901 
L 243.261904 605.490346 
L 244.103541 604.391039 
L 244.945179 604.940693 
L 245.786816 605.160554 
L 246.628454 605.050623 
L 247.470092 605.600277 
L 248.311729 605.710208 
L 249.153367 605.380416 
L 249.995004 605.710208 
L 250.836642 605.710208 
L 251.678279 606.04 
L 252.519917 605.490346 
L 253.361555 605.930069 
L 254.203192 605.050623 
L 255.04483 605.490346 
L 255.886467 605.600277 
L 256.728105 606.04 
L 257.569742 605.600277 
L 260.094655 606.04 
L 260.936293 605.270485 
L 262.619568 606.04 
L 271.877581 606.04 
L 271.877581 606.04 
" clip-path="url(#p8df9e8e16c)" style="fill: none; stroke: #0000ff; stroke-width: 1.5; stroke-linecap: square"/>
   </g>
   <g id="patch_13">
    <path d="M 57.26 606.04 
L 57.26 429.161468 
" style="fill: none; stroke: #000000; stroke-width: 0.8; stroke-linejoin: miter; stroke-linecap: square"/>
   </g>
   <g id="patch_14">
    <path d="M 272.719219 606.04 
L 272.719219 429.161468 
" style="fill: none; stroke: #000000; stroke-width: 0.8; stroke-linejoin: miter; stroke-linecap: square"/>
   </g>
   <g id="patch_15">
    <path d="M 57.26 606.04 
L 272.719219 606.04 
" style="fill: none; stroke: #000000; stroke-width: 0.8; stroke-linejoin: miter; stroke-linecap: square"/>
   </g>
   <g id="patch_16">
    <path d="M 57.26 429.161468 
L 272.719219 429.161468 
" style="fill: none; stroke: #000000; stroke-width: 0.8; stroke-linejoin: miter; stroke-linecap: square"/>
   </g>
   <g id="text_46">
    <!-- Blue Channel  -->
    <g transform="translate(189.270469 443.161468) scale(0.12 -0.12)">
     <defs>
      <path id="DejaVuSans-42" d="M 1259 2228 
L 1259 519 
L 2272 519 
Q 2781 519 3026 730 
Q 3272 941 3272 1375 
Q 3272 1813 3026 2020 
Q 2781 2228 2272 2228 
L 1259 2228 
z
M 1259 4147 
L 1259 2741 
L 2194 2741 
Q 2656 2741 2882 2914 
Q 3109 3088 3109 3444 
Q 3109 3797 2882 3972 
Q 2656 4147 2194 4147 
L 1259 4147 
z
M 628 4666 
L 2241 4666 
Q 2963 4666 3353 4366 
Q 3744 4066 3744 3513 
Q 3744 3084 3544 2831 
Q 3344 2578 2956 2516 
Q 3422 2416 3680 2098 
Q 3938 1781 3938 1306 
Q 3938 681 3513 340 
Q 3088 0 2303 0 
L 628 0 
L 628 4666 
z
" transform="scale(0.015625)"/>
     </defs>
     <use xlink:href="#DejaVuSans-42"/>
     <use xlink:href="#DejaVuSans-6c" x="68.603516"/>
     <use xlink:href="#DejaVuSans-75" x="96.386719"/>
     <use xlink:href="#DejaVuSans-65" x="159.765625"/>
     <use xlink:href="#DejaVuSans-20" x="221.289062"/>
     <use xlink:href="#DejaVuSans-43" x="253.076172"/>
     <use xlink:href="#DejaVuSans-68" x="322.900391"/>
     <use xlink:href="#DejaVuSans-61" x="386.279297"/>
     <use xlink:href="#DejaVuSans-6e" x="447.558594"/>
     <use xlink:href="#DejaVuSans-6e" x="510.9375"/>
     <use xlink:href="#DejaVuSans-65" x="574.316406"/>
     <use xlink:href="#DejaVuSans-6c" x="635.839844"/>
     <use xlink:href="#DejaVuSans-20" x="663.623047"/>
    </g>
   </g>
  </g>
 </g>
 <defs>
  <clipPath id="pb34dc2db8f">
   <rect x="57.26" y="13.748134" width="215.459219" height="176.878532"/>
  </clipPath>
  <clipPath id="p662703cf4e">
   <rect x="57.26" y="221.454801" width="215.459219" height="176.878532"/>
  </clipPath>
  <clipPath id="p8df9e8e16c">
   <rect x="57.26" y="429.161468" width="215.459219" height="176.878532"/>
  </clipPath>
 </defs>
</svg>
