<?xml version="1.0" encoding="utf-8" standalone="no"?>
<!DOCTYPE svg PUBLIC "-//W3C//DTD SVG 1.1//EN"
  "http://www.w3.org/Graphics/SVG/1.1/DTD/svg11.dtd">
<svg xmlns:xlink="http://www.w3.org/1999/xlink" width="288pt" height="648pt" viewBox="0 0 288 648" xmlns="http://www.w3.org/2000/svg" version="1.1">
 <metadata>
  <rdf:RDF xmlns:dc="http://purl.org/dc/elements/1.1/" xmlns:cc="http://creativecommons.org/ns#" xmlns:rdf="http://www.w3.org/1999/02/22-rdf-syntax-ns#">
   <cc:Work>
    <dc:type rdf:resource="http://purl.org/dc/dcmitype/StillImage"/>
    <dc:date>2023-11-18T15:20:10.414185</dc:date>
    <dc:format>image/svg+xml</dc:format>
    <dc:creator>
     <cc:Agent>
      <dc:title>Matplotlib v3.8.0, https://matplotlib.org/</dc:title>
     </cc:Agent>
    </dc:creator>
   </cc:Work>
  </rdf:RDF>
 </metadata>
 <defs>
  <style type="text/css">*{stroke-linejoin: round; stroke-linecap: butt}</style>
 </defs>
 <g id="figure_1">
  <g id="patch_1">
   <path d="M 0 648 
L 288 648 
L 288 0 
L 0 0 
z
" style="fill: #ffffff"/>
  </g>
  <g id="axes_1">
   <g id="patch_2">
    <path d="M 57.17 190.626667 
L 272.721328 190.626667 
L 272.721328 10.8 
L 57.17 10.8 
z
" style="fill: #ffffff"/>
   </g>
   <g id="PolyCollection_1">
    <defs>
     <path id="ma6a4f15f2e" d="M 57.17 -457.373333 
L 57.17 -457.373333 
L 58.011997 -457.373333 
L 58.853995 -457.373333 
L 59.695992 -457.373333 
L 60.53799 -457.373333 
L 61.379987 -457.373333 
L 62.221984 -457.373333 
L 63.063982 -457.373333 
L 63.905979 -457.373333 
L 64.747976 -457.373333 
L 65.589974 -457.373333 
L 66.431971 -457.373333 
L 67.273969 -457.373333 
L 68.115966 -457.373333 
L 68.957963 -457.373333 
L 69.799961 -457.373333 
L 70.641958 -457.373333 
L 71.483955 -457.373333 
L 72.325953 -457.373333 
L 73.16795 -457.373333 
L 74.009948 -457.373333 
L 74.851945 -457.373333 
L 75.693942 -457.373333 
L 76.53594 -457.373333 
L 77.377937 -457.373333 
L 78.219934 -457.373333 
L 79.061932 -457.373333 
L 79.903929 -457.373333 
L 80.745927 -457.373333 
L 81.587924 -457.373333 
L 82.429921 -457.373333 
L 83.271919 -457.373333 
L 84.113916 -457.373333 
L 84.955913 -457.373333 
L 85.797911 -457.373333 
L 86.639908 -457.373333 
L 87.481906 -457.373333 
L 88.323903 -457.373333 
L 89.1659 -457.373333 
L 90.007898 -457.373333 
L 90.849895 -457.373333 
L 91.691892 -457.373333 
L 92.53389 -457.373333 
L 93.375887 -457.373333 
L 94.217885 -457.373333 
L 95.059882 -457.373333 
L 95.901879 -457.373333 
L 96.743877 -457.373333 
L 97.585874 -457.373333 
L 98.427871 -457.373333 
L 99.269869 -457.373333 
L 100.111866 -457.373333 
L 100.953864 -457.373333 
L 101.795861 -457.373333 
L 102.637858 -457.373333 
L 103.479856 -457.373333 
L 104.321853 -457.373333 
L 105.16385 -457.373333 
L 106.005848 -457.373333 
L 106.847845 -457.373333 
L 107.689843 -457.373333 
L 108.53184 -457.373333 
L 109.373837 -457.373333 
L 110.215835 -457.373333 
L 111.057832 -457.373333 
L 111.899829 -457.373333 
L 112.741827 -457.373333 
L 113.583824 -457.373333 
L 114.425822 -457.373333 
L 115.267819 -457.373333 
L 116.109816 -457.373333 
L 116.951814 -457.373333 
L 117.793811 -457.373333 
L 118.635808 -457.373333 
L 119.477806 -457.373333 
L 120.319803 -457.373333 
L 121.161801 -457.373333 
L 122.003798 -457.373333 
L 122.845795 -457.373333 
L 123.687793 -457.373333 
L 124.52979 -457.373333 
L 125.371787 -457.373333 
L 126.213785 -457.373333 
L 127.055782 -457.373333 
L 127.89778 -457.373333 
L 128.739777 -457.373333 
L 129.581774 -457.373333 
L 130.423772 -457.373333 
L 131.265769 -457.373333 
L 132.107766 -457.373333 
L 132.949764 -457.373333 
L 133.791761 -457.373333 
L 134.633759 -457.373333 
L 135.475756 -457.373333 
L 136.317753 -457.373333 
L 137.159751 -457.647668 
L 138.001748 -457.647668 
L 138.843745 -458.196339 
L 139.685743 -458.196339 
L 140.52774 -458.196339 
L 141.369738 -458.882176 
L 142.211735 -458.607841 
L 143.053732 -458.745009 
L 143.89573 -459.293679 
L 144.737727 -460.528187 
L 145.579724 -460.665355 
L 146.421722 -461.351192 
L 147.263719 -465.740554 
L 148.105717 -466.975062 
L 148.947714 -468.758241 
L 149.789711 -473.83344 
L 150.631709 -474.656445 
L 151.473706 -477.948467 
L 152.315703 -476.028121 
L 153.157701 -480.828986 
L 153.999698 -484.258174 
L 154.841696 -487.687363 
L 155.683693 -487.275861 
L 156.52569 -488.236034 
L 157.367688 -492.35106 
L 158.209685 -496.87759 
L 159.051682 -496.328919 
L 159.89368 -493.036898 
L 160.735677 -499.072271 
L 161.577675 -499.209438 
L 162.419672 -497.837763 
L 163.261669 -502.912962 
L 164.103667 -498.935103 
L 164.945664 -501.952789 
L 165.787661 -503.735967 
L 166.629659 -502.638627 
L 167.471656 -507.027989 
L 168.313654 -504.010303 
L 169.155651 -498.249265 
L 169.997648 -505.519146 
L 170.839646 -503.461632 
L 171.681643 -501.404119 
L 172.52364 -503.324465 
L 173.365638 -502.227124 
L 174.207635 -505.519146 
L 175.049633 -509.497005 
L 175.89163 -505.107643 
L 176.733627 -505.656313 
L 177.575625 -507.302324 
L 178.417622 -504.421805 
L 179.259619 -504.833308 
L 180.101617 -511.691686 
L 180.943614 -513.474864 
L 181.785612 -509.908508 
L 182.627609 -511.143016 
L 183.469606 -505.930648 
L 184.311604 -510.32001 
L 185.153601 -508.536832 
L 185.995598 -504.970475 
L 186.837596 -508.673999 
L 187.679593 -506.890821 
L 188.521591 -510.045675 
L 189.363588 -507.165156 
L 190.205585 -509.497005 
L 191.047583 -508.399664 
L 191.88958 -504.14747 
L 192.731577 -508.536832 
L 193.573575 -500.443946 
L 194.415572 -502.364292 
L 195.25757 -500.169611 
L 196.099567 -500.855449 
L 196.941564 -501.678454 
L 197.783562 -499.483773 
L 198.625559 -495.505914 
L 199.467556 -497.700595 
L 200.309554 -503.05013 
L 201.151551 -499.209438 
L 201.993549 -504.970475 
L 202.835546 -500.855449 
L 203.677543 -503.873135 
L 204.519541 -507.302324 
L 205.361538 -500.169611 
L 206.203535 -501.129784 
L 207.045533 -502.501459 
L 207.88753 -509.085502 
L 208.729528 -508.125329 
L 209.571525 -507.165156 
L 210.413522 -514.160702 
L 211.25552 -516.629718 
L 212.097517 -516.218215 
L 212.939514 -517.315556 
L 213.781512 -520.470409 
L 214.623509 -521.842085 
L 215.465507 -523.076593 
L 216.307504 -521.704917 
L 217.149501 -523.076593 
L 217.991499 -528.426128 
L 218.833496 -526.642949 
L 219.675493 -527.328787 
L 220.517491 -525.408441 
L 221.359488 -525.134106 
L 222.201486 -530.483641 
L 223.043483 -529.797803 
L 223.88548 -537.204851 
L 224.727478 -537.616354 
L 225.569475 -543.788894 
L 226.411472 -539.673867 
L 227.25347 -541.045543 
L 228.095467 -532.403987 
L 228.937465 -537.890689 
L 229.779462 -532.952657 
L 230.621459 -533.226992 
L 231.463457 -537.479186 
L 232.305454 -531.169479 
L 233.147451 -528.700463 
L 233.989449 -529.934971 
L 234.831446 -530.209306 
L 235.673444 -520.744744 
L 236.515441 -520.333242 
L 237.357438 -516.081048 
L 238.199436 -513.200529 
L 239.041433 -517.452723 
L 239.88343 -512.240356 
L 240.725428 -506.067816 
L 241.567425 -514.160702 
L 242.409423 -508.673999 
L 243.25142 -507.988162 
L 244.093417 -505.930648 
L 244.935415 -510.731513 
L 245.777412 -510.731513 
L 246.619409 -499.758108 
L 247.461407 -500.169611 
L 248.303404 -497.700595 
L 249.145402 -497.42626 
L 249.987399 -497.289092 
L 250.829396 -498.5236 
L 251.671394 -497.289092 
L 252.513391 -490.842217 
L 253.355388 -487.961698 
L 254.197386 -492.625395 
L 255.039383 -487.824531 
L 255.881381 -489.059039 
L 256.723378 -485.355515 
L 257.565375 -484.806845 
L 258.407373 -486.17852 
L 259.24937 -487.824531 
L 260.091367 -482.886499 
L 260.933365 -481.377656 
L 261.775362 -483.983839 
L 262.61736 -479.045807 
L 263.459357 -480.280315 
L 264.301354 -476.439624 
L 265.143352 -479.045807 
L 265.985349 -475.890953 
L 266.827346 -476.302456 
L 267.669344 -475.479451 
L 268.511341 -475.753786 
L 269.353339 -473.559105 
L 270.195336 -471.638759 
L 271.037333 -464.643214 
L 271.879331 -459.705182 
L 271.879331 -457.373333 
L 271.879331 -457.373333 
L 271.037333 -457.373333 
L 270.195336 -457.373333 
L 269.353339 -457.373333 
L 268.511341 -457.373333 
L 267.669344 -457.373333 
L 266.827346 -457.373333 
L 265.985349 -457.373333 
L 265.143352 -457.373333 
L 264.301354 -457.373333 
L 263.459357 -457.373333 
L 262.61736 -457.373333 
L 261.775362 -457.373333 
L 260.933365 -457.373333 
L 260.091367 -457.373333 
L 259.24937 -457.373333 
L 258.407373 -457.373333 
L 257.565375 -457.373333 
L 256.723378 -457.373333 
L 255.881381 -457.373333 
L 255.039383 -457.373333 
L 254.197386 -457.373333 
L 253.355388 -457.373333 
L 252.513391 -457.373333 
L 251.671394 -457.373333 
L 250.829396 -457.373333 
L 249.987399 -457.373333 
L 249.145402 -457.373333 
L 248.303404 -457.373333 
L 247.461407 -457.373333 
L 246.619409 -457.373333 
L 245.777412 -457.373333 
L 244.935415 -457.373333 
L 244.093417 -457.373333 
L 243.25142 -457.373333 
L 242.409423 -457.373333 
L 241.567425 -457.373333 
L 240.725428 -457.373333 
L 239.88343 -457.373333 
L 239.041433 -457.373333 
L 238.199436 -457.373333 
L 237.357438 -457.373333 
L 236.515441 -457.373333 
L 235.673444 -457.373333 
L 234.831446 -457.373333 
L 233.989449 -457.373333 
L 233.147451 -457.373333 
L 232.305454 -457.373333 
L 231.463457 -457.373333 
L 230.621459 -457.373333 
L 229.779462 -457.373333 
L 228.937465 -457.373333 
L 228.095467 -457.373333 
L 227.25347 -457.373333 
L 226.411472 -457.373333 
L 225.569475 -457.373333 
L 224.727478 -457.373333 
L 223.88548 -457.373333 
L 223.043483 -457.373333 
L 222.201486 -457.373333 
L 221.359488 -457.373333 
L 220.517491 -457.373333 
L 219.675493 -457.373333 
L 218.833496 -457.373333 
L 217.991499 -457.373333 
L 217.149501 -457.373333 
L 216.307504 -457.373333 
L 215.465507 -457.373333 
L 214.623509 -457.373333 
L 213.781512 -457.373333 
L 212.939514 -457.373333 
L 212.097517 -457.373333 
L 211.25552 -457.373333 
L 210.413522 -457.373333 
L 209.571525 -457.373333 
L 208.729528 -457.373333 
L 207.88753 -457.373333 
L 207.045533 -457.373333 
L 206.203535 -457.373333 
L 205.361538 -457.373333 
L 204.519541 -457.373333 
L 203.677543 -457.373333 
L 202.835546 -457.373333 
L 201.993549 -457.373333 
L 201.151551 -457.373333 
L 200.309554 -457.373333 
L 199.467556 -457.373333 
L 198.625559 -457.373333 
L 197.783562 -457.373333 
L 196.941564 -457.373333 
L 196.099567 -457.373333 
L 195.25757 -457.373333 
L 194.415572 -457.373333 
L 193.573575 -457.373333 
L 192.731577 -457.373333 
L 191.88958 -457.373333 
L 191.047583 -457.373333 
L 190.205585 -457.373333 
L 189.363588 -457.373333 
L 188.521591 -457.373333 
L 187.679593 -457.373333 
L 186.837596 -457.373333 
L 185.995598 -457.373333 
L 185.153601 -457.373333 
L 184.311604 -457.373333 
L 183.469606 -457.373333 
L 182.627609 -457.373333 
L 181.785612 -457.373333 
L 180.943614 -457.373333 
L 180.101617 -457.373333 
L 179.259619 -457.373333 
L 178.417622 -457.373333 
L 177.575625 -457.373333 
L 176.733627 -457.373333 
L 175.89163 -457.373333 
L 175.049633 -457.373333 
L 174.207635 -457.373333 
L 173.365638 -457.373333 
L 172.52364 -457.373333 
L 171.681643 -457.373333 
L 170.839646 -457.373333 
L 169.997648 -457.373333 
L 169.155651 -457.373333 
L 168.313654 -457.373333 
L 167.471656 -457.373333 
L 166.629659 -457.373333 
L 165.787661 -457.373333 
L 164.945664 -457.373333 
L 164.103667 -457.373333 
L 163.261669 -457.373333 
L 162.419672 -457.373333 
L 161.577675 -457.373333 
L 160.735677 -457.373333 
L 159.89368 -457.373333 
L 159.051682 -457.373333 
L 158.209685 -457.373333 
L 157.367688 -457.373333 
L 156.52569 -457.373333 
L 155.683693 -457.373333 
L 154.841696 -457.373333 
L 153.999698 -457.373333 
L 153.157701 -457.373333 
L 152.315703 -457.373333 
L 151.473706 -457.373333 
L 150.631709 -457.373333 
L 149.789711 -457.373333 
L 148.947714 -457.373333 
L 148.105717 -457.373333 
L 147.263719 -457.373333 
L 146.421722 -457.373333 
L 145.579724 -457.373333 
L 144.737727 -457.373333 
L 143.89573 -457.373333 
L 143.053732 -457.373333 
L 142.211735 -457.373333 
L 141.369738 -457.373333 
L 140.52774 -457.373333 
L 139.685743 -457.373333 
L 138.843745 -457.373333 
L 138.001748 -457.373333 
L 137.159751 -457.373333 
L 136.317753 -457.373333 
L 135.475756 -457.373333 
L 134.633759 -457.373333 
L 133.791761 -457.373333 
L 132.949764 -457.373333 
L 132.107766 -457.373333 
L 131.265769 -457.373333 
L 130.423772 -457.373333 
L 129.581774 -457.373333 
L 128.739777 -457.373333 
L 127.89778 -457.373333 
L 127.055782 -457.373333 
L 126.213785 -457.373333 
L 125.371787 -457.373333 
L 124.52979 -457.373333 
L 123.687793 -457.373333 
L 122.845795 -457.373333 
L 122.003798 -457.373333 
L 121.161801 -457.373333 
L 120.319803 -457.373333 
L 119.477806 -457.373333 
L 118.635808 -457.373333 
L 117.793811 -457.373333 
L 116.951814 -457.373333 
L 116.109816 -457.373333 
L 115.267819 -457.373333 
L 114.425822 -457.373333 
L 113.583824 -457.373333 
L 112.741827 -457.373333 
L 111.899829 -457.373333 
L 111.057832 -457.373333 
L 110.215835 -457.373333 
L 109.373837 -457.373333 
L 108.53184 -457.373333 
L 107.689843 -457.373333 
L 106.847845 -457.373333 
L 106.005848 -457.373333 
L 105.16385 -457.373333 
L 104.321853 -457.373333 
L 103.479856 -457.373333 
L 102.637858 -457.373333 
L 101.795861 -457.373333 
L 100.953864 -457.373333 
L 100.111866 -457.373333 
L 99.269869 -457.373333 
L 98.427871 -457.373333 
L 97.585874 -457.373333 
L 96.743877 -457.373333 
L 95.901879 -457.373333 
L 95.059882 -457.373333 
L 94.217885 -457.373333 
L 93.375887 -457.373333 
L 92.53389 -457.373333 
L 91.691892 -457.373333 
L 90.849895 -457.373333 
L 90.007898 -457.373333 
L 89.1659 -457.373333 
L 88.323903 -457.373333 
L 87.481906 -457.373333 
L 86.639908 -457.373333 
L 85.797911 -457.373333 
L 84.955913 -457.373333 
L 84.113916 -457.373333 
L 83.271919 -457.373333 
L 82.429921 -457.373333 
L 81.587924 -457.373333 
L 80.745927 -457.373333 
L 79.903929 -457.373333 
L 79.061932 -457.373333 
L 78.219934 -457.373333 
L 77.377937 -457.373333 
L 76.53594 -457.373333 
L 75.693942 -457.373333 
L 74.851945 -457.373333 
L 74.009948 -457.373333 
L 73.16795 -457.373333 
L 72.325953 -457.373333 
L 71.483955 -457.373333 
L 70.641958 -457.373333 
L 69.799961 -457.373333 
L 68.957963 -457.373333 
L 68.115966 -457.373333 
L 67.273969 -457.373333 
L 66.431971 -457.373333 
L 65.589974 -457.373333 
L 64.747976 -457.373333 
L 63.905979 -457.373333 
L 63.063982 -457.373333 
L 62.221984 -457.373333 
L 61.379987 -457.373333 
L 60.53799 -457.373333 
L 59.695992 -457.373333 
L 58.853995 -457.373333 
L 58.011997 -457.373333 
L 57.17 -457.373333 
z
" style="stroke: #ff0000; stroke-opacity: 0.4"/>
    </defs>
    <g clip-path="url(#p9e5714eb9e)">
     <use xlink:href="#ma6a4f15f2e" x="0" y="648" style="fill: #ff0000; fill-opacity: 0.4; stroke: #ff0000; stroke-opacity: 0.4"/>
    </g>
   </g>
   <g id="matplotlib.axis_1">
    <g id="xtick_1">
     <g id="line2d_1">
      <defs>
       <path id="m82887b04e2" d="M 0 0 
L 0 3.5 
" style="stroke: #000000; stroke-width: 0.8"/>
      </defs>
      <g>
       <use xlink:href="#m82887b04e2" x="57.17" y="190.626667" style="stroke: #000000; stroke-width: 0.8"/>
      </g>
     </g>
     <g id="text_1">
      <!-- 0 -->
      <g transform="translate(53.98875 205.225104) scale(0.1 -0.1)">
       <defs>
        <path id="DejaVuSans-30" d="M 2034 4250 
Q 1547 4250 1301 3770 
Q 1056 3291 1056 2328 
Q 1056 1369 1301 889 
Q 1547 409 2034 409 
Q 2525 409 2770 889 
Q 3016 1369 3016 2328 
Q 3016 3291 2770 3770 
Q 2525 4250 2034 4250 
z
M 2034 4750 
Q 2819 4750 3233 4129 
Q 3647 3509 3647 2328 
Q 3647 1150 3233 529 
Q 2819 -91 2034 -91 
Q 1250 -91 836 529 
Q 422 1150 422 2328 
Q 422 3509 836 4129 
Q 1250 4750 2034 4750 
z
" transform="scale(0.015625)"/>
       </defs>
       <use xlink:href="#DejaVuSans-30"/>
      </g>
     </g>
    </g>
    <g id="xtick_2">
     <g id="line2d_2">
      <g>
       <use xlink:href="#m82887b04e2" x="99.269869" y="190.626667" style="stroke: #000000; stroke-width: 0.8"/>
      </g>
     </g>
     <g id="text_2">
      <!-- 50 -->
      <g transform="translate(92.907369 205.225104) scale(0.1 -0.1)">
       <defs>
        <path id="DejaVuSans-35" d="M 691 4666 
L 3169 4666 
L 3169 4134 
L 1269 4134 
L 1269 2991 
Q 1406 3038 1543 3061 
Q 1681 3084 1819 3084 
Q 2600 3084 3056 2656 
Q 3513 2228 3513 1497 
Q 3513 744 3044 326 
Q 2575 -91 1722 -91 
Q 1428 -91 1123 -41 
Q 819 9 494 109 
L 494 744 
Q 775 591 1075 516 
Q 1375 441 1709 441 
Q 2250 441 2565 725 
Q 2881 1009 2881 1497 
Q 2881 1984 2565 2268 
Q 2250 2553 1709 2553 
Q 1456 2553 1204 2497 
Q 953 2441 691 2322 
L 691 4666 
z
" transform="scale(0.015625)"/>
       </defs>
       <use xlink:href="#DejaVuSans-35"/>
       <use xlink:href="#DejaVuSans-30" x="63.623047"/>
      </g>
     </g>
    </g>
    <g id="xtick_3">
     <g id="line2d_3">
      <g>
       <use xlink:href="#m82887b04e2" x="141.369738" y="190.626667" style="stroke: #000000; stroke-width: 0.8"/>
      </g>
     </g>
     <g id="text_3">
      <!-- 100 -->
      <g transform="translate(131.825988 205.225104) scale(0.1 -0.1)">
       <defs>
        <path id="DejaVuSans-31" d="M 794 531 
L 1825 531 
L 1825 4091 
L 703 3866 
L 703 4441 
L 1819 4666 
L 2450 4666 
L 2450 531 
L 3481 531 
L 3481 0 
L 794 0 
L 794 531 
z
" transform="scale(0.015625)"/>
       </defs>
       <use xlink:href="#DejaVuSans-31"/>
       <use xlink:href="#DejaVuSans-30" x="63.623047"/>
       <use xlink:href="#DejaVuSans-30" x="127.246094"/>
      </g>
     </g>
    </g>
    <g id="xtick_4">
     <g id="line2d_4">
      <g>
       <use xlink:href="#m82887b04e2" x="183.469606" y="190.626667" style="stroke: #000000; stroke-width: 0.8"/>
      </g>
     </g>
     <g id="text_4">
      <!-- 150 -->
      <g transform="translate(173.925856 205.225104) scale(0.1 -0.1)">
       <use xlink:href="#DejaVuSans-31"/>
       <use xlink:href="#DejaVuSans-35" x="63.623047"/>
       <use xlink:href="#DejaVuSans-30" x="127.246094"/>
      </g>
     </g>
    </g>
    <g id="xtick_5">
     <g id="line2d_5">
      <g>
       <use xlink:href="#m82887b04e2" x="225.569475" y="190.626667" style="stroke: #000000; stroke-width: 0.8"/>
      </g>
     </g>
     <g id="text_5">
      <!-- 200 -->
      <g transform="translate(216.025725 205.225104) scale(0.1 -0.1)">
       <defs>
        <path id="DejaVuSans-32" d="M 1228 531 
L 3431 531 
L 3431 0 
L 469 0 
L 469 531 
Q 828 903 1448 1529 
Q 2069 2156 2228 2338 
Q 2531 2678 2651 2914 
Q 2772 3150 2772 3378 
Q 2772 3750 2511 3984 
Q 2250 4219 1831 4219 
Q 1534 4219 1204 4116 
Q 875 4013 500 3803 
L 500 4441 
Q 881 4594 1212 4672 
Q 1544 4750 1819 4750 
Q 2544 4750 2975 4387 
Q 3406 4025 3406 3419 
Q 3406 3131 3298 2873 
Q 3191 2616 2906 2266 
Q 2828 2175 2409 1742 
Q 1991 1309 1228 531 
z
" transform="scale(0.015625)"/>
       </defs>
       <use xlink:href="#DejaVuSans-32"/>
       <use xlink:href="#DejaVuSans-30" x="63.623047"/>
       <use xlink:href="#DejaVuSans-30" x="127.246094"/>
      </g>
     </g>
    </g>
    <g id="xtick_6">
     <g id="line2d_6">
      <g>
       <use xlink:href="#m82887b04e2" x="267.669344" y="190.626667" style="stroke: #000000; stroke-width: 0.8"/>
      </g>
     </g>
     <g id="text_6">
      <!-- 250 -->
      <g transform="translate(258.125594 205.225104) scale(0.1 -0.1)">
       <use xlink:href="#DejaVuSans-32"/>
       <use xlink:href="#DejaVuSans-35" x="63.623047"/>
       <use xlink:href="#DejaVuSans-30" x="127.246094"/>
      </g>
     </g>
    </g>
   </g>
   <g id="matplotlib.axis_2">
    <g id="ytick_1">
     <g id="line2d_7">
      <defs>
       <path id="m3cdbb575e5" d="M 0 0 
L -3.5 0 
" style="stroke: #000000; stroke-width: 0.8"/>
      </defs>
      <g>
       <use xlink:href="#m3cdbb575e5" x="57.17" y="190.626667" style="stroke: #000000; stroke-width: 0.8"/>
      </g>
     </g>
     <g id="text_7">
      <!-- 0 -->
      <g transform="translate(43.8075 194.425885) scale(0.1 -0.1)">
       <use xlink:href="#DejaVuSans-30"/>
      </g>
     </g>
    </g>
    <g id="ytick_2">
     <g id="line2d_8">
      <g>
       <use xlink:href="#m3cdbb575e5" x="57.17" y="163.193155" style="stroke: #000000; stroke-width: 0.8"/>
      </g>
     </g>
     <g id="text_8">
      <!-- 200 -->
      <g transform="translate(31.0825 166.992374) scale(0.1 -0.1)">
       <use xlink:href="#DejaVuSans-32"/>
       <use xlink:href="#DejaVuSans-30" x="63.623047"/>
       <use xlink:href="#DejaVuSans-30" x="127.246094"/>
      </g>
     </g>
    </g>
    <g id="ytick_3">
     <g id="line2d_9">
      <g>
       <use xlink:href="#m3cdbb575e5" x="57.17" y="135.759644" style="stroke: #000000; stroke-width: 0.8"/>
      </g>
     </g>
     <g id="text_9">
      <!-- 400 -->
      <g transform="translate(31.0825 139.558863) scale(0.1 -0.1)">
       <defs>
        <path id="DejaVuSans-34" d="M 2419 4116 
L 825 1625 
L 2419 1625 
L 2419 4116 
z
M 2253 4666 
L 3047 4666 
L 3047 1625 
L 3713 1625 
L 3713 1100 
L 3047 1100 
L 3047 0 
L 2419 0 
L 2419 1100 
L 313 1100 
L 313 1709 
L 2253 4666 
z
" transform="scale(0.015625)"/>
       </defs>
       <use xlink:href="#DejaVuSans-34"/>
       <use xlink:href="#DejaVuSans-30" x="63.623047"/>
       <use xlink:href="#DejaVuSans-30" x="127.246094"/>
      </g>
     </g>
    </g>
    <g id="ytick_4">
     <g id="line2d_10">
      <g>
       <use xlink:href="#m3cdbb575e5" x="57.17" y="108.326133" style="stroke: #000000; stroke-width: 0.8"/>
      </g>
     </g>
     <g id="text_10">
      <!-- 600 -->
      <g transform="translate(31.0825 112.125351) scale(0.1 -0.1)">
       <defs>
        <path id="DejaVuSans-36" d="M 2113 2584 
Q 1688 2584 1439 2293 
Q 1191 2003 1191 1497 
Q 1191 994 1439 701 
Q 1688 409 2113 409 
Q 2538 409 2786 701 
Q 3034 994 3034 1497 
Q 3034 2003 2786 2293 
Q 2538 2584 2113 2584 
z
M 3366 4563 
L 3366 3988 
Q 3128 4100 2886 4159 
Q 2644 4219 2406 4219 
Q 1781 4219 1451 3797 
Q 1122 3375 1075 2522 
Q 1259 2794 1537 2939 
Q 1816 3084 2150 3084 
Q 2853 3084 3261 2657 
Q 3669 2231 3669 1497 
Q 3669 778 3244 343 
Q 2819 -91 2113 -91 
Q 1303 -91 875 529 
Q 447 1150 447 2328 
Q 447 3434 972 4092 
Q 1497 4750 2381 4750 
Q 2619 4750 2861 4703 
Q 3103 4656 3366 4563 
z
" transform="scale(0.015625)"/>
       </defs>
       <use xlink:href="#DejaVuSans-36"/>
       <use xlink:href="#DejaVuSans-30" x="63.623047"/>
       <use xlink:href="#DejaVuSans-30" x="127.246094"/>
      </g>
     </g>
    </g>
    <g id="ytick_5">
     <g id="line2d_11">
      <g>
       <use xlink:href="#m3cdbb575e5" x="57.17" y="80.892621" style="stroke: #000000; stroke-width: 0.8"/>
      </g>
     </g>
     <g id="text_11">
      <!-- 800 -->
      <g transform="translate(31.0825 84.69184) scale(0.1 -0.1)">
       <defs>
        <path id="DejaVuSans-38" d="M 2034 2216 
Q 1584 2216 1326 1975 
Q 1069 1734 1069 1313 
Q 1069 891 1326 650 
Q 1584 409 2034 409 
Q 2484 409 2743 651 
Q 3003 894 3003 1313 
Q 3003 1734 2745 1975 
Q 2488 2216 2034 2216 
z
M 1403 2484 
Q 997 2584 770 2862 
Q 544 3141 544 3541 
Q 544 4100 942 4425 
Q 1341 4750 2034 4750 
Q 2731 4750 3128 4425 
Q 3525 4100 3525 3541 
Q 3525 3141 3298 2862 
Q 3072 2584 2669 2484 
Q 3125 2378 3379 2068 
Q 3634 1759 3634 1313 
Q 3634 634 3220 271 
Q 2806 -91 2034 -91 
Q 1263 -91 848 271 
Q 434 634 434 1313 
Q 434 1759 690 2068 
Q 947 2378 1403 2484 
z
M 1172 3481 
Q 1172 3119 1398 2916 
Q 1625 2713 2034 2713 
Q 2441 2713 2670 2916 
Q 2900 3119 2900 3481 
Q 2900 3844 2670 4047 
Q 2441 4250 2034 4250 
Q 1625 4250 1398 4047 
Q 1172 3844 1172 3481 
z
" transform="scale(0.015625)"/>
       </defs>
       <use xlink:href="#DejaVuSans-38"/>
       <use xlink:href="#DejaVuSans-30" x="63.623047"/>
       <use xlink:href="#DejaVuSans-30" x="127.246094"/>
      </g>
     </g>
    </g>
    <g id="ytick_6">
     <g id="line2d_12">
      <g>
       <use xlink:href="#m3cdbb575e5" x="57.17" y="53.45911" style="stroke: #000000; stroke-width: 0.8"/>
      </g>
     </g>
     <g id="text_12">
      <!-- 1000 -->
      <g transform="translate(24.72 57.258329) scale(0.1 -0.1)">
       <use xlink:href="#DejaVuSans-31"/>
       <use xlink:href="#DejaVuSans-30" x="63.623047"/>
       <use xlink:href="#DejaVuSans-30" x="127.246094"/>
       <use xlink:href="#DejaVuSans-30" x="190.869141"/>
      </g>
     </g>
    </g>
    <g id="ytick_7">
     <g id="line2d_13">
      <g>
       <use xlink:href="#m3cdbb575e5" x="57.17" y="26.025599" style="stroke: #000000; stroke-width: 0.8"/>
      </g>
     </g>
     <g id="text_13">
      <!-- 1200 -->
      <g transform="translate(24.72 29.824818) scale(0.1 -0.1)">
       <use xlink:href="#DejaVuSans-31"/>
       <use xlink:href="#DejaVuSans-32" x="63.623047"/>
       <use xlink:href="#DejaVuSans-30" x="127.246094"/>
       <use xlink:href="#DejaVuSans-30" x="190.869141"/>
      </g>
     </g>
    </g>
    <g id="text_14">
     <!-- Pixel Frequency -->
     <g transform="translate(18.640313 139.69224) rotate(-90) scale(0.1 -0.1)">
      <defs>
       <path id="DejaVuSans-50" d="M 1259 4147 
L 1259 2394 
L 2053 2394 
Q 2494 2394 2734 2622 
Q 2975 2850 2975 3272 
Q 2975 3691 2734 3919 
Q 2494 4147 2053 4147 
L 1259 4147 
z
M 628 4666 
L 2053 4666 
Q 2838 4666 3239 4311 
Q 3641 3956 3641 3272 
Q 3641 2581 3239 2228 
Q 2838 1875 2053 1875 
L 1259 1875 
L 1259 0 
L 628 0 
L 628 4666 
z
" transform="scale(0.015625)"/>
       <path id="DejaVuSans-69" d="M 603 3500 
L 1178 3500 
L 1178 0 
L 603 0 
L 603 3500 
z
M 603 4863 
L 1178 4863 
L 1178 4134 
L 603 4134 
L 603 4863 
z
" transform="scale(0.015625)"/>
       <path id="DejaVuSans-78" d="M 3513 3500 
L 2247 1797 
L 3578 0 
L 2900 0 
L 1881 1375 
L 863 0 
L 184 0 
L 1544 1831 
L 300 3500 
L 978 3500 
L 1906 2253 
L 2834 3500 
L 3513 3500 
z
" transform="scale(0.015625)"/>
       <path id="DejaVuSans-65" d="M 3597 1894 
L 3597 1613 
L 953 1613 
Q 991 1019 1311 708 
Q 1631 397 2203 397 
Q 2534 397 2845 478 
Q 3156 559 3463 722 
L 3463 178 
Q 3153 47 2828 -22 
Q 2503 -91 2169 -91 
Q 1331 -91 842 396 
Q 353 884 353 1716 
Q 353 2575 817 3079 
Q 1281 3584 2069 3584 
Q 2775 3584 3186 3129 
Q 3597 2675 3597 1894 
z
M 3022 2063 
Q 3016 2534 2758 2815 
Q 2500 3097 2075 3097 
Q 1594 3097 1305 2825 
Q 1016 2553 972 2059 
L 3022 2063 
z
" transform="scale(0.015625)"/>
       <path id="DejaVuSans-6c" d="M 603 4863 
L 1178 4863 
L 1178 0 
L 603 0 
L 603 4863 
z
" transform="scale(0.015625)"/>
       <path id="DejaVuSans-20" transform="scale(0.015625)"/>
       <path id="DejaVuSans-46" d="M 628 4666 
L 3309 4666 
L 3309 4134 
L 1259 4134 
L 1259 2759 
L 3109 2759 
L 3109 2228 
L 1259 2228 
L 1259 0 
L 628 0 
L 628 4666 
z
" transform="scale(0.015625)"/>
       <path id="DejaVuSans-72" d="M 2631 2963 
Q 2534 3019 2420 3045 
Q 2306 3072 2169 3072 
Q 1681 3072 1420 2755 
Q 1159 2438 1159 1844 
L 1159 0 
L 581 0 
L 581 3500 
L 1159 3500 
L 1159 2956 
Q 1341 3275 1631 3429 
Q 1922 3584 2338 3584 
Q 2397 3584 2469 3576 
Q 2541 3569 2628 3553 
L 2631 2963 
z
" transform="scale(0.015625)"/>
       <path id="DejaVuSans-71" d="M 947 1747 
Q 947 1113 1208 752 
Q 1469 391 1925 391 
Q 2381 391 2643 752 
Q 2906 1113 2906 1747 
Q 2906 2381 2643 2742 
Q 2381 3103 1925 3103 
Q 1469 3103 1208 2742 
Q 947 2381 947 1747 
z
M 2906 525 
Q 2725 213 2448 61 
Q 2172 -91 1784 -91 
Q 1150 -91 751 415 
Q 353 922 353 1747 
Q 353 2572 751 3078 
Q 1150 3584 1784 3584 
Q 2172 3584 2448 3432 
Q 2725 3281 2906 2969 
L 2906 3500 
L 3481 3500 
L 3481 -1331 
L 2906 -1331 
L 2906 525 
z
" transform="scale(0.015625)"/>
       <path id="DejaVuSans-75" d="M 544 1381 
L 544 3500 
L 1119 3500 
L 1119 1403 
Q 1119 906 1312 657 
Q 1506 409 1894 409 
Q 2359 409 2629 706 
Q 2900 1003 2900 1516 
L 2900 3500 
L 3475 3500 
L 3475 0 
L 2900 0 
L 2900 538 
Q 2691 219 2414 64 
Q 2138 -91 1772 -91 
Q 1169 -91 856 284 
Q 544 659 544 1381 
z
M 1991 3584 
L 1991 3584 
z
" transform="scale(0.015625)"/>
       <path id="DejaVuSans-6e" d="M 3513 2113 
L 3513 0 
L 2938 0 
L 2938 2094 
Q 2938 2591 2744 2837 
Q 2550 3084 2163 3084 
Q 1697 3084 1428 2787 
Q 1159 2491 1159 1978 
L 1159 0 
L 581 0 
L 581 3500 
L 1159 3500 
L 1159 2956 
Q 1366 3272 1645 3428 
Q 1925 3584 2291 3584 
Q 2894 3584 3203 3211 
Q 3513 2838 3513 2113 
z
" transform="scale(0.015625)"/>
       <path id="DejaVuSans-63" d="M 3122 3366 
L 3122 2828 
Q 2878 2963 2633 3030 
Q 2388 3097 2138 3097 
Q 1578 3097 1268 2742 
Q 959 2388 959 1747 
Q 959 1106 1268 751 
Q 1578 397 2138 397 
Q 2388 397 2633 464 
Q 2878 531 3122 666 
L 3122 134 
Q 2881 22 2623 -34 
Q 2366 -91 2075 -91 
Q 1284 -91 818 406 
Q 353 903 353 1747 
Q 353 2603 823 3093 
Q 1294 3584 2113 3584 
Q 2378 3584 2631 3529 
Q 2884 3475 3122 3366 
z
" transform="scale(0.015625)"/>
       <path id="DejaVuSans-79" d="M 2059 -325 
Q 1816 -950 1584 -1140 
Q 1353 -1331 966 -1331 
L 506 -1331 
L 506 -850 
L 844 -850 
Q 1081 -850 1212 -737 
Q 1344 -625 1503 -206 
L 1606 56 
L 191 3500 
L 800 3500 
L 1894 763 
L 2988 3500 
L 3597 3500 
L 2059 -325 
z
" transform="scale(0.015625)"/>
      </defs>
      <use xlink:href="#DejaVuSans-50"/>
      <use xlink:href="#DejaVuSans-69" x="58.052734"/>
      <use xlink:href="#DejaVuSans-78" x="85.835938"/>
      <use xlink:href="#DejaVuSans-65" x="141.890625"/>
      <use xlink:href="#DejaVuSans-6c" x="203.414062"/>
      <use xlink:href="#DejaVuSans-20" x="231.197266"/>
      <use xlink:href="#DejaVuSans-46" x="262.984375"/>
      <use xlink:href="#DejaVuSans-72" x="313.253906"/>
      <use xlink:href="#DejaVuSans-65" x="352.117188"/>
      <use xlink:href="#DejaVuSans-71" x="413.640625"/>
      <use xlink:href="#DejaVuSans-75" x="477.117188"/>
      <use xlink:href="#DejaVuSans-65" x="540.496094"/>
      <use xlink:href="#DejaVuSans-6e" x="602.019531"/>
      <use xlink:href="#DejaVuSans-63" x="665.398438"/>
      <use xlink:href="#DejaVuSans-79" x="720.378906"/>
     </g>
    </g>
   </g>
   <g id="line2d_14">
    <path d="M 57.17 190.626667 
L 136.317753 190.626667 
L 137.159751 190.352332 
L 138.001748 190.352332 
L 138.843745 189.803661 
L 140.52774 189.803661 
L 141.369738 189.117824 
L 142.211735 189.392159 
L 143.053732 189.254991 
L 143.89573 188.706321 
L 144.737727 187.471813 
L 145.579724 187.334645 
L 146.421722 186.648808 
L 147.263719 182.259446 
L 148.105717 181.024938 
L 148.947714 179.241759 
L 149.789711 174.16656 
L 150.631709 173.343555 
L 151.473706 170.051533 
L 152.315703 171.971879 
L 153.157701 167.171014 
L 154.841696 160.312637 
L 155.683693 160.724139 
L 156.52569 159.763966 
L 158.209685 151.12241 
L 159.051682 151.671081 
L 159.89368 154.963102 
L 160.735677 148.927729 
L 161.577675 148.790562 
L 162.419672 150.162237 
L 163.261669 145.087038 
L 164.103667 149.064897 
L 164.945664 146.047211 
L 165.787661 144.264033 
L 166.629659 145.361373 
L 167.471656 140.972011 
L 168.313654 143.989697 
L 169.155651 149.750735 
L 169.997648 142.480854 
L 171.681643 146.595881 
L 172.52364 144.675535 
L 173.365638 145.772876 
L 174.207635 142.480854 
L 175.049633 138.502995 
L 175.89163 142.892357 
L 176.733627 142.343687 
L 177.575625 140.697676 
L 178.417622 143.578195 
L 179.259619 143.166692 
L 180.101617 136.308314 
L 180.943614 134.525136 
L 181.785612 138.091492 
L 182.627609 136.856984 
L 183.469606 142.069352 
L 184.311604 137.67999 
L 185.153601 139.463168 
L 185.995598 143.029525 
L 186.837596 139.326001 
L 187.679593 141.109179 
L 188.521591 137.954325 
L 189.363588 140.834844 
L 190.205585 138.502995 
L 191.047583 139.600336 
L 191.88958 143.85253 
L 192.731577 139.463168 
L 193.573575 147.556054 
L 194.415572 145.635708 
L 195.25757 147.830389 
L 196.941564 146.321546 
L 197.783562 148.516227 
L 198.625559 152.494086 
L 199.467556 150.299405 
L 200.309554 144.94987 
L 201.151551 148.790562 
L 201.993549 143.029525 
L 202.835546 147.144551 
L 204.519541 140.697676 
L 205.361538 147.830389 
L 206.203535 146.870216 
L 207.045533 145.498541 
L 207.88753 138.914498 
L 209.571525 140.834844 
L 210.413522 133.839298 
L 211.25552 131.370282 
L 212.097517 131.781785 
L 212.939514 130.684444 
L 213.781512 127.529591 
L 215.465507 124.923407 
L 216.307504 126.295083 
L 217.149501 124.923407 
L 217.991499 119.573872 
L 218.833496 121.357051 
L 219.675493 120.671213 
L 220.517491 122.591559 
L 221.359488 122.865894 
L 222.201486 117.516359 
L 223.043483 118.202197 
L 223.88548 110.795149 
L 224.727478 110.383646 
L 225.569475 104.211106 
L 226.411472 108.326133 
L 227.25347 106.954457 
L 228.095467 115.596013 
L 228.937465 110.109311 
L 229.779462 115.047343 
L 230.621459 114.773008 
L 231.463457 110.520814 
L 232.305454 116.830521 
L 233.147451 119.299537 
L 233.989449 118.065029 
L 234.831446 117.790694 
L 235.673444 127.255256 
L 236.515441 127.666758 
L 237.357438 131.918952 
L 238.199436 134.799471 
L 239.041433 130.547277 
L 239.88343 135.759644 
L 240.725428 141.932184 
L 241.567425 133.839298 
L 242.409423 139.326001 
L 243.25142 140.011838 
L 244.093417 142.069352 
L 244.935415 137.268487 
L 245.777412 137.268487 
L 246.619409 148.241892 
L 247.461407 147.830389 
L 248.303404 150.299405 
L 249.145402 150.57374 
L 249.987399 150.710908 
L 250.829396 149.4764 
L 251.671394 150.710908 
L 252.513391 157.157783 
L 253.355388 160.038302 
L 254.197386 155.374605 
L 255.039383 160.175469 
L 255.881381 158.940961 
L 256.723378 162.644485 
L 257.565375 163.193155 
L 258.407373 161.82148 
L 259.24937 160.175469 
L 260.091367 165.113501 
L 260.933365 166.622344 
L 261.775362 164.016161 
L 262.61736 168.954193 
L 263.459357 167.719685 
L 264.301354 171.560376 
L 265.143352 168.954193 
L 265.985349 172.109047 
L 266.827346 171.697544 
L 267.669344 172.520549 
L 268.511341 172.246214 
L 270.195336 176.361241 
L 271.037333 183.356786 
L 271.879331 188.294818 
L 271.879331 188.294818 
" clip-path="url(#p9e5714eb9e)" style="fill: none; stroke: #ff0000; stroke-width: 1.5; stroke-linecap: square"/>
   </g>
   <g id="patch_3">
    <path d="M 57.17 190.626667 
L 57.17 10.8 
" style="fill: none; stroke: #000000; stroke-width: 0.8; stroke-linejoin: miter; stroke-linecap: square"/>
   </g>
   <g id="patch_4">
    <path d="M 272.721328 190.626667 
L 272.721328 10.8 
" style="fill: none; stroke: #000000; stroke-width: 0.8; stroke-linejoin: miter; stroke-linecap: square"/>
   </g>
   <g id="patch_5">
    <path d="M 57.17 190.626667 
L 272.721328 190.626667 
" style="fill: none; stroke: #000000; stroke-width: 0.8; stroke-linejoin: miter; stroke-linecap: square"/>
   </g>
   <g id="patch_6">
    <path d="M 57.17 10.8 
L 272.721328 10.8 
" style="fill: none; stroke: #000000; stroke-width: 0.8; stroke-linejoin: miter; stroke-linecap: square"/>
   </g>
   <g id="text_15">
    <!-- Red Channel  -->
    <g transform="translate(193.028203 24.8) scale(0.12 -0.12)">
     <defs>
      <path id="DejaVuSans-52" d="M 2841 2188 
Q 3044 2119 3236 1894 
Q 3428 1669 3622 1275 
L 4263 0 
L 3584 0 
L 2988 1197 
Q 2756 1666 2539 1819 
Q 2322 1972 1947 1972 
L 1259 1972 
L 1259 0 
L 628 0 
L 628 4666 
L 2053 4666 
Q 2853 4666 3247 4331 
Q 3641 3997 3641 3322 
Q 3641 2881 3436 2590 
Q 3231 2300 2841 2188 
z
M 1259 4147 
L 1259 2491 
L 2053 2491 
Q 2509 2491 2742 2702 
Q 2975 2913 2975 3322 
Q 2975 3731 2742 3939 
Q 2509 4147 2053 4147 
L 1259 4147 
z
" transform="scale(0.015625)"/>
      <path id="DejaVuSans-64" d="M 2906 2969 
L 2906 4863 
L 3481 4863 
L 3481 0 
L 2906 0 
L 2906 525 
Q 2725 213 2448 61 
Q 2172 -91 1784 -91 
Q 1150 -91 751 415 
Q 353 922 353 1747 
Q 353 2572 751 3078 
Q 1150 3584 1784 3584 
Q 2172 3584 2448 3432 
Q 2725 3281 2906 2969 
z
M 947 1747 
Q 947 1113 1208 752 
Q 1469 391 1925 391 
Q 2381 391 2643 752 
Q 2906 1113 2906 1747 
Q 2906 2381 2643 2742 
Q 2381 3103 1925 3103 
Q 1469 3103 1208 2742 
Q 947 2381 947 1747 
z
" transform="scale(0.015625)"/>
      <path id="DejaVuSans-43" d="M 4122 4306 
L 4122 3641 
Q 3803 3938 3442 4084 
Q 3081 4231 2675 4231 
Q 1875 4231 1450 3742 
Q 1025 3253 1025 2328 
Q 1025 1406 1450 917 
Q 1875 428 2675 428 
Q 3081 428 3442 575 
Q 3803 722 4122 1019 
L 4122 359 
Q 3791 134 3420 21 
Q 3050 -91 2638 -91 
Q 1578 -91 968 557 
Q 359 1206 359 2328 
Q 359 3453 968 4101 
Q 1578 4750 2638 4750 
Q 3056 4750 3426 4639 
Q 3797 4528 4122 4306 
z
" transform="scale(0.015625)"/>
      <path id="DejaVuSans-68" d="M 3513 2113 
L 3513 0 
L 2938 0 
L 2938 2094 
Q 2938 2591 2744 2837 
Q 2550 3084 2163 3084 
Q 1697 3084 1428 2787 
Q 1159 2491 1159 1978 
L 1159 0 
L 581 0 
L 581 4863 
L 1159 4863 
L 1159 2956 
Q 1366 3272 1645 3428 
Q 1925 3584 2291 3584 
Q 2894 3584 3203 3211 
Q 3513 2838 3513 2113 
z
" transform="scale(0.015625)"/>
      <path id="DejaVuSans-61" d="M 2194 1759 
Q 1497 1759 1228 1600 
Q 959 1441 959 1056 
Q 959 750 1161 570 
Q 1363 391 1709 391 
Q 2188 391 2477 730 
Q 2766 1069 2766 1631 
L 2766 1759 
L 2194 1759 
z
M 3341 1997 
L 3341 0 
L 2766 0 
L 2766 531 
Q 2569 213 2275 61 
Q 1981 -91 1556 -91 
Q 1019 -91 701 211 
Q 384 513 384 1019 
Q 384 1609 779 1909 
Q 1175 2209 1959 2209 
L 2766 2209 
L 2766 2266 
Q 2766 2663 2505 2880 
Q 2244 3097 1772 3097 
Q 1472 3097 1187 3025 
Q 903 2953 641 2809 
L 641 3341 
Q 956 3463 1253 3523 
Q 1550 3584 1831 3584 
Q 2591 3584 2966 3190 
Q 3341 2797 3341 1997 
z
" transform="scale(0.015625)"/>
     </defs>
     <use xlink:href="#DejaVuSans-52"/>
     <use xlink:href="#DejaVuSans-65" x="64.982422"/>
     <use xlink:href="#DejaVuSans-64" x="126.505859"/>
     <use xlink:href="#DejaVuSans-20" x="189.982422"/>
     <use xlink:href="#DejaVuSans-43" x="221.769531"/>
     <use xlink:href="#DejaVuSans-68" x="291.59375"/>
     <use xlink:href="#DejaVuSans-61" x="354.972656"/>
     <use xlink:href="#DejaVuSans-6e" x="416.251953"/>
     <use xlink:href="#DejaVuSans-6e" x="479.630859"/>
     <use xlink:href="#DejaVuSans-65" x="543.009766"/>
     <use xlink:href="#DejaVuSans-6c" x="604.533203"/>
     <use xlink:href="#DejaVuSans-20" x="632.316406"/>
    </g>
   </g>
  </g>
  <g id="axes_2">
   <g id="patch_7">
    <path d="M 57.17 398.333333 
L 272.721328 398.333333 
L 272.721328 218.506667 
L 57.17 218.506667 
z
" style="fill: #ffffff"/>
   </g>
   <g id="PolyCollection_2">
    <defs>
     <path id="m25e324d0b7" d="M 57.17 -249.666667 
L 57.17 -249.666667 
L 58.011997 -249.666667 
L 58.853995 -249.666667 
L 59.695992 -249.666667 
L 60.53799 -249.666667 
L 61.379987 -249.666667 
L 62.221984 -249.666667 
L 63.063982 -249.666667 
L 63.905979 -249.666667 
L 64.747976 -249.666667 
L 65.589974 -249.666667 
L 66.431971 -249.666667 
L 67.273969 -249.666667 
L 68.115966 -249.666667 
L 68.957963 -249.666667 
L 69.799961 -249.666667 
L 70.641958 -249.666667 
L 71.483955 -249.666667 
L 72.325953 -249.666667 
L 73.16795 -249.666667 
L 74.009948 -249.666667 
L 74.851945 -249.666667 
L 75.693942 -249.666667 
L 76.53594 -249.666667 
L 77.377937 -249.666667 
L 78.219934 -249.666667 
L 79.061932 -249.666667 
L 79.903929 -249.666667 
L 80.745927 -249.666667 
L 81.587924 -249.666667 
L 82.429921 -249.666667 
L 83.271919 -249.666667 
L 84.113916 -249.666667 
L 84.955913 -249.666667 
L 85.797911 -249.666667 
L 86.639908 -249.666667 
L 87.481906 -249.666667 
L 88.323903 -249.666667 
L 89.1659 -249.666667 
L 90.007898 -249.666667 
L 90.849895 -249.666667 
L 91.691892 -249.666667 
L 92.53389 -249.666667 
L 93.375887 -249.666667 
L 94.217885 -249.666667 
L 95.059882 -249.666667 
L 95.901879 -249.666667 
L 96.743877 -249.666667 
L 97.585874 -249.666667 
L 98.427871 -249.666667 
L 99.269869 -249.666667 
L 100.111866 -249.666667 
L 100.953864 -249.666667 
L 101.795861 -249.666667 
L 102.637858 -249.666667 
L 103.479856 -249.666667 
L 104.321853 -249.666667 
L 105.16385 -249.666667 
L 106.005848 -249.666667 
L 106.847845 -249.666667 
L 107.689843 -249.666667 
L 108.53184 -249.666667 
L 109.373837 -249.666667 
L 110.215835 -249.666667 
L 111.057832 -249.666667 
L 111.899829 -249.666667 
L 112.741827 -249.666667 
L 113.583824 -249.666667 
L 114.425822 -249.666667 
L 115.267819 -249.666667 
L 116.109816 -249.666667 
L 116.951814 -249.666667 
L 117.793811 -249.666667 
L 118.635808 -249.666667 
L 119.477806 -249.666667 
L 120.319803 -249.666667 
L 121.161801 -249.666667 
L 122.003798 -249.666667 
L 122.845795 -249.666667 
L 123.687793 -249.666667 
L 124.52979 -249.666667 
L 125.371787 -249.666667 
L 126.213785 -249.666667 
L 127.055782 -249.666667 
L 127.89778 -249.666667 
L 128.739777 -249.666667 
L 129.581774 -249.666667 
L 130.423772 -249.666667 
L 131.265769 -249.666667 
L 132.107766 -249.666667 
L 132.949764 -249.803834 
L 133.791761 -249.941002 
L 134.633759 -250.078169 
L 135.475756 -249.941002 
L 136.317753 -250.901175 
L 137.159751 -250.901175 
L 138.001748 -252.135683 
L 138.843745 -253.233023 
L 139.685743 -258.171055 
L 140.52774 -258.719725 
L 141.369738 -259.268396 
L 142.211735 -264.755098 
L 143.053732 -266.949779 
L 143.89573 -270.104633 
L 144.737727 -272.299314 
L 145.579724 -271.750643 
L 146.421722 -277.237346 
L 147.263719 -278.609021 
L 148.105717 -278.197518 
L 148.947714 -280.803702 
L 149.789711 -282.58688 
L 150.631709 -286.976242 
L 151.473706 -283.821388 
L 152.315703 -282.998383 
L 153.157701 -287.250577 
L 153.999698 -290.405431 
L 154.841696 -287.250577 
L 155.683693 -287.936415 
L 156.52569 -289.445258 
L 157.367688 -289.856761 
L 158.209685 -296.029301 
L 159.051682 -286.016069 
L 159.89368 -294.246123 
L 160.735677 -293.011615 
L 161.577675 -291.502771 
L 162.419672 -294.246123 
L 163.261669 -293.011615 
L 164.103667 -291.365604 
L 164.945664 -293.971787 
L 165.787661 -291.228436 
L 166.629659 -297.538144 
L 167.471656 -293.971787 
L 168.313654 -296.577971 
L 169.155651 -300.55583 
L 169.997648 -297.263809 
L 170.839646 -303.299181 
L 171.681643 -305.219527 
L 172.52364 -308.374381 
L 173.365638 -307.414208 
L 174.207635 -308.374381 
L 175.049633 -307.551376 
L 175.89163 -301.241668 
L 176.733627 -307.825711 
L 177.575625 -302.887679 
L 178.417622 -300.692998 
L 179.259619 -306.1797 
L 180.101617 -306.316868 
L 180.943614 -309.334554 
L 181.785612 -299.595657 
L 182.627609 -299.732825 
L 183.469606 -303.436349 
L 184.311604 -296.989474 
L 185.153601 -295.480631 
L 185.995598 -296.989474 
L 186.837596 -296.852306 
L 187.679593 -292.737279 
L 188.521591 -298.909819 
L 189.363588 -290.679766 
L 190.205585 -291.091269 
L 191.047583 -294.246123 
L 191.88958 -293.971787 
L 192.731577 -290.816934 
L 193.573575 -298.498317 
L 194.415572 -297.400976 
L 195.25757 -303.162014 
L 196.099567 -295.480631 
L 196.941564 -303.436349 
L 197.783562 -301.516003 
L 198.625559 -301.653171 
L 199.467556 -312.763743 
L 200.309554 -307.962878 
L 201.151551 -313.44958 
L 201.993549 -315.507094 
L 202.835546 -311.940737 
L 203.677543 -320.719461 
L 204.519541 -320.856629 
L 205.361538 -317.564607 
L 206.203535 -318.113277 
L 207.045533 -323.188477 
L 207.88753 -321.953969 
L 208.729528 -324.14865 
L 209.571525 -332.515871 
L 210.413522 -328.538012 
L 211.25552 -331.555698 
L 212.097517 -334.024714 
L 212.939514 -331.830033 
L 213.781512 -338.002573 
L 214.623509 -337.179568 
L 215.465507 -341.56893 
L 216.307504 -337.453903 
L 217.149501 -341.294594 
L 217.991499 -334.847719 
L 218.833496 -333.613211 
L 219.675493 -339.237081 
L 220.517491 -327.440671 
L 221.359488 -325.794661 
L 222.201486 -324.011482 
L 223.043483 -325.108823 
L 223.88548 -315.095591 
L 224.727478 -312.35224 
L 225.569475 -305.905365 
L 226.411472 -301.241668 
L 227.25347 -298.223982 
L 228.095467 -292.051442 
L 228.937465 -292.051442 
L 229.779462 -291.365604 
L 230.621459 -288.622253 
L 231.463457 -283.684221 
L 232.305454 -283.958556 
L 233.147451 -281.078037 
L 233.989449 -278.883356 
L 234.831446 -281.352372 
L 235.673444 -277.237346 
L 236.515441 -279.843529 
L 237.357438 -278.471854 
L 238.199436 -279.020524 
L 239.041433 -275.454167 
L 239.88343 -272.985151 
L 240.725428 -275.042665 
L 241.567425 -272.847984 
L 242.409423 -271.750643 
L 243.25142 -272.436481 
L 244.093417 -273.122319 
L 244.935415 -270.516135 
L 245.777412 -270.104633 
L 246.619409 -272.299314 
L 247.461407 -274.082492 
L 248.303404 -272.436481 
L 249.145402 -272.299314 
L 249.987399 -272.162146 
L 250.829396 -272.573649 
L 251.671394 -272.299314 
L 252.513391 -275.728502 
L 253.355388 -273.945324 
L 254.197386 -273.670989 
L 255.039383 -277.237346 
L 255.881381 -271.750643 
L 256.723378 -274.905497 
L 257.565375 -271.064805 
L 258.407373 -270.653303 
L 259.24937 -275.591335 
L 260.091367 -273.945324 
L 260.933365 -273.396654 
L 261.775362 -275.454167 
L 262.61736 -274.631162 
L 263.459357 -272.573649 
L 264.301354 -271.476308 
L 265.143352 -273.396654 
L 265.985349 -268.870125 
L 266.827346 -270.653303 
L 267.669344 -271.750643 
L 268.511341 -277.237346 
L 269.353339 -274.905497 
L 270.195336 -273.122319 
L 271.037333 -264.343595 
L 271.879331 -251.587012 
L 271.879331 -249.666667 
L 271.879331 -249.666667 
L 271.037333 -249.666667 
L 270.195336 -249.666667 
L 269.353339 -249.666667 
L 268.511341 -249.666667 
L 267.669344 -249.666667 
L 266.827346 -249.666667 
L 265.985349 -249.666667 
L 265.143352 -249.666667 
L 264.301354 -249.666667 
L 263.459357 -249.666667 
L 262.61736 -249.666667 
L 261.775362 -249.666667 
L 260.933365 -249.666667 
L 260.091367 -249.666667 
L 259.24937 -249.666667 
L 258.407373 -249.666667 
L 257.565375 -249.666667 
L 256.723378 -249.666667 
L 255.881381 -249.666667 
L 255.039383 -249.666667 
L 254.197386 -249.666667 
L 253.355388 -249.666667 
L 252.513391 -249.666667 
L 251.671394 -249.666667 
L 250.829396 -249.666667 
L 249.987399 -249.666667 
L 249.145402 -249.666667 
L 248.303404 -249.666667 
L 247.461407 -249.666667 
L 246.619409 -249.666667 
L 245.777412 -249.666667 
L 244.935415 -249.666667 
L 244.093417 -249.666667 
L 243.25142 -249.666667 
L 242.409423 -249.666667 
L 241.567425 -249.666667 
L 240.725428 -249.666667 
L 239.88343 -249.666667 
L 239.041433 -249.666667 
L 238.199436 -249.666667 
L 237.357438 -249.666667 
L 236.515441 -249.666667 
L 235.673444 -249.666667 
L 234.831446 -249.666667 
L 233.989449 -249.666667 
L 233.147451 -249.666667 
L 232.305454 -249.666667 
L 231.463457 -249.666667 
L 230.621459 -249.666667 
L 229.779462 -249.666667 
L 228.937465 -249.666667 
L 228.095467 -249.666667 
L 227.25347 -249.666667 
L 226.411472 -249.666667 
L 225.569475 -249.666667 
L 224.727478 -249.666667 
L 223.88548 -249.666667 
L 223.043483 -249.666667 
L 222.201486 -249.666667 
L 221.359488 -249.666667 
L 220.517491 -249.666667 
L 219.675493 -249.666667 
L 218.833496 -249.666667 
L 217.991499 -249.666667 
L 217.149501 -249.666667 
L 216.307504 -249.666667 
L 215.465507 -249.666667 
L 214.623509 -249.666667 
L 213.781512 -249.666667 
L 212.939514 -249.666667 
L 212.097517 -249.666667 
L 211.25552 -249.666667 
L 210.413522 -249.666667 
L 209.571525 -249.666667 
L 208.729528 -249.666667 
L 207.88753 -249.666667 
L 207.045533 -249.666667 
L 206.203535 -249.666667 
L 205.361538 -249.666667 
L 204.519541 -249.666667 
L 203.677543 -249.666667 
L 202.835546 -249.666667 
L 201.993549 -249.666667 
L 201.151551 -249.666667 
L 200.309554 -249.666667 
L 199.467556 -249.666667 
L 198.625559 -249.666667 
L 197.783562 -249.666667 
L 196.941564 -249.666667 
L 196.099567 -249.666667 
L 195.25757 -249.666667 
L 194.415572 -249.666667 
L 193.573575 -249.666667 
L 192.731577 -249.666667 
L 191.88958 -249.666667 
L 191.047583 -249.666667 
L 190.205585 -249.666667 
L 189.363588 -249.666667 
L 188.521591 -249.666667 
L 187.679593 -249.666667 
L 186.837596 -249.666667 
L 185.995598 -249.666667 
L 185.153601 -249.666667 
L 184.311604 -249.666667 
L 183.469606 -249.666667 
L 182.627609 -249.666667 
L 181.785612 -249.666667 
L 180.943614 -249.666667 
L 180.101617 -249.666667 
L 179.259619 -249.666667 
L 178.417622 -249.666667 
L 177.575625 -249.666667 
L 176.733627 -249.666667 
L 175.89163 -249.666667 
L 175.049633 -249.666667 
L 174.207635 -249.666667 
L 173.365638 -249.666667 
L 172.52364 -249.666667 
L 171.681643 -249.666667 
L 170.839646 -249.666667 
L 169.997648 -249.666667 
L 169.155651 -249.666667 
L 168.313654 -249.666667 
L 167.471656 -249.666667 
L 166.629659 -249.666667 
L 165.787661 -249.666667 
L 164.945664 -249.666667 
L 164.103667 -249.666667 
L 163.261669 -249.666667 
L 162.419672 -249.666667 
L 161.577675 -249.666667 
L 160.735677 -249.666667 
L 159.89368 -249.666667 
L 159.051682 -249.666667 
L 158.209685 -249.666667 
L 157.367688 -249.666667 
L 156.52569 -249.666667 
L 155.683693 -249.666667 
L 154.841696 -249.666667 
L 153.999698 -249.666667 
L 153.157701 -249.666667 
L 152.315703 -249.666667 
L 151.473706 -249.666667 
L 150.631709 -249.666667 
L 149.789711 -249.666667 
L 148.947714 -249.666667 
L 148.105717 -249.666667 
L 147.263719 -249.666667 
L 146.421722 -249.666667 
L 145.579724 -249.666667 
L 144.737727 -249.666667 
L 143.89573 -249.666667 
L 143.053732 -249.666667 
L 142.211735 -249.666667 
L 141.369738 -249.666667 
L 140.52774 -249.666667 
L 139.685743 -249.666667 
L 138.843745 -249.666667 
L 138.001748 -249.666667 
L 137.159751 -249.666667 
L 136.317753 -249.666667 
L 135.475756 -249.666667 
L 134.633759 -249.666667 
L 133.791761 -249.666667 
L 132.949764 -249.666667 
L 132.107766 -249.666667 
L 131.265769 -249.666667 
L 130.423772 -249.666667 
L 129.581774 -249.666667 
L 128.739777 -249.666667 
L 127.89778 -249.666667 
L 127.055782 -249.666667 
L 126.213785 -249.666667 
L 125.371787 -249.666667 
L 124.52979 -249.666667 
L 123.687793 -249.666667 
L 122.845795 -249.666667 
L 122.003798 -249.666667 
L 121.161801 -249.666667 
L 120.319803 -249.666667 
L 119.477806 -249.666667 
L 118.635808 -249.666667 
L 117.793811 -249.666667 
L 116.951814 -249.666667 
L 116.109816 -249.666667 
L 115.267819 -249.666667 
L 114.425822 -249.666667 
L 113.583824 -249.666667 
L 112.741827 -249.666667 
L 111.899829 -249.666667 
L 111.057832 -249.666667 
L 110.215835 -249.666667 
L 109.373837 -249.666667 
L 108.53184 -249.666667 
L 107.689843 -249.666667 
L 106.847845 -249.666667 
L 106.005848 -249.666667 
L 105.16385 -249.666667 
L 104.321853 -249.666667 
L 103.479856 -249.666667 
L 102.637858 -249.666667 
L 101.795861 -249.666667 
L 100.953864 -249.666667 
L 100.111866 -249.666667 
L 99.269869 -249.666667 
L 98.427871 -249.666667 
L 97.585874 -249.666667 
L 96.743877 -249.666667 
L 95.901879 -249.666667 
L 95.059882 -249.666667 
L 94.217885 -249.666667 
L 93.375887 -249.666667 
L 92.53389 -249.666667 
L 91.691892 -249.666667 
L 90.849895 -249.666667 
L 90.007898 -249.666667 
L 89.1659 -249.666667 
L 88.323903 -249.666667 
L 87.481906 -249.666667 
L 86.639908 -249.666667 
L 85.797911 -249.666667 
L 84.955913 -249.666667 
L 84.113916 -249.666667 
L 83.271919 -249.666667 
L 82.429921 -249.666667 
L 81.587924 -249.666667 
L 80.745927 -249.666667 
L 79.903929 -249.666667 
L 79.061932 -249.666667 
L 78.219934 -249.666667 
L 77.377937 -249.666667 
L 76.53594 -249.666667 
L 75.693942 -249.666667 
L 74.851945 -249.666667 
L 74.009948 -249.666667 
L 73.16795 -249.666667 
L 72.325953 -249.666667 
L 71.483955 -249.666667 
L 70.641958 -249.666667 
L 69.799961 -249.666667 
L 68.957963 -249.666667 
L 68.115966 -249.666667 
L 67.273969 -249.666667 
L 66.431971 -249.666667 
L 65.589974 -249.666667 
L 64.747976 -249.666667 
L 63.905979 -249.666667 
L 63.063982 -249.666667 
L 62.221984 -249.666667 
L 61.379987 -249.666667 
L 60.53799 -249.666667 
L 59.695992 -249.666667 
L 58.853995 -249.666667 
L 58.011997 -249.666667 
L 57.17 -249.666667 
z
" style="stroke: #008000; stroke-opacity: 0.4"/>
    </defs>
    <g clip-path="url(#p0197c45732)">
     <use xlink:href="#m25e324d0b7" x="0" y="648" style="fill: #008000; fill-opacity: 0.4; stroke: #008000; stroke-opacity: 0.4"/>
    </g>
   </g>
   <g id="matplotlib.axis_3">
    <g id="xtick_7">
     <g id="line2d_15">
      <g>
       <use xlink:href="#m82887b04e2" x="57.17" y="398.333333" style="stroke: #000000; stroke-width: 0.8"/>
      </g>
     </g>
     <g id="text_16">
      <!-- 0 -->
      <g transform="translate(53.98875 412.931771) scale(0.1 -0.1)">
       <use xlink:href="#DejaVuSans-30"/>
      </g>
     </g>
    </g>
    <g id="xtick_8">
     <g id="line2d_16">
      <g>
       <use xlink:href="#m82887b04e2" x="99.269869" y="398.333333" style="stroke: #000000; stroke-width: 0.8"/>
      </g>
     </g>
     <g id="text_17">
      <!-- 50 -->
      <g transform="translate(92.907369 412.931771) scale(0.1 -0.1)">
       <use xlink:href="#DejaVuSans-35"/>
       <use xlink:href="#DejaVuSans-30" x="63.623047"/>
      </g>
     </g>
    </g>
    <g id="xtick_9">
     <g id="line2d_17">
      <g>
       <use xlink:href="#m82887b04e2" x="141.369738" y="398.333333" style="stroke: #000000; stroke-width: 0.8"/>
      </g>
     </g>
     <g id="text_18">
      <!-- 100 -->
      <g transform="translate(131.825988 412.931771) scale(0.1 -0.1)">
       <use xlink:href="#DejaVuSans-31"/>
       <use xlink:href="#DejaVuSans-30" x="63.623047"/>
       <use xlink:href="#DejaVuSans-30" x="127.246094"/>
      </g>
     </g>
    </g>
    <g id="xtick_10">
     <g id="line2d_18">
      <g>
       <use xlink:href="#m82887b04e2" x="183.469606" y="398.333333" style="stroke: #000000; stroke-width: 0.8"/>
      </g>
     </g>
     <g id="text_19">
      <!-- 150 -->
      <g transform="translate(173.925856 412.931771) scale(0.1 -0.1)">
       <use xlink:href="#DejaVuSans-31"/>
       <use xlink:href="#DejaVuSans-35" x="63.623047"/>
       <use xlink:href="#DejaVuSans-30" x="127.246094"/>
      </g>
     </g>
    </g>
    <g id="xtick_11">
     <g id="line2d_19">
      <g>
       <use xlink:href="#m82887b04e2" x="225.569475" y="398.333333" style="stroke: #000000; stroke-width: 0.8"/>
      </g>
     </g>
     <g id="text_20">
      <!-- 200 -->
      <g transform="translate(216.025725 412.931771) scale(0.1 -0.1)">
       <use xlink:href="#DejaVuSans-32"/>
       <use xlink:href="#DejaVuSans-30" x="63.623047"/>
       <use xlink:href="#DejaVuSans-30" x="127.246094"/>
      </g>
     </g>
    </g>
    <g id="xtick_12">
     <g id="line2d_20">
      <g>
       <use xlink:href="#m82887b04e2" x="267.669344" y="398.333333" style="stroke: #000000; stroke-width: 0.8"/>
      </g>
     </g>
     <g id="text_21">
      <!-- 250 -->
      <g transform="translate(258.125594 412.931771) scale(0.1 -0.1)">
       <use xlink:href="#DejaVuSans-32"/>
       <use xlink:href="#DejaVuSans-35" x="63.623047"/>
       <use xlink:href="#DejaVuSans-30" x="127.246094"/>
      </g>
     </g>
    </g>
   </g>
   <g id="matplotlib.axis_4">
    <g id="ytick_8">
     <g id="line2d_21">
      <g>
       <use xlink:href="#m3cdbb575e5" x="57.17" y="398.333333" style="stroke: #000000; stroke-width: 0.8"/>
      </g>
     </g>
     <g id="text_22">
      <!-- 0 -->
      <g transform="translate(43.8075 402.132552) scale(0.1 -0.1)">
       <use xlink:href="#DejaVuSans-30"/>
      </g>
     </g>
    </g>
    <g id="ytick_9">
     <g id="line2d_22">
      <g>
       <use xlink:href="#m3cdbb575e5" x="57.17" y="370.899822" style="stroke: #000000; stroke-width: 0.8"/>
      </g>
     </g>
     <g id="text_23">
      <!-- 200 -->
      <g transform="translate(31.0825 374.699041) scale(0.1 -0.1)">
       <use xlink:href="#DejaVuSans-32"/>
       <use xlink:href="#DejaVuSans-30" x="63.623047"/>
       <use xlink:href="#DejaVuSans-30" x="127.246094"/>
      </g>
     </g>
    </g>
    <g id="ytick_10">
     <g id="line2d_23">
      <g>
       <use xlink:href="#m3cdbb575e5" x="57.17" y="343.466311" style="stroke: #000000; stroke-width: 0.8"/>
      </g>
     </g>
     <g id="text_24">
      <!-- 400 -->
      <g transform="translate(31.0825 347.265529) scale(0.1 -0.1)">
       <use xlink:href="#DejaVuSans-34"/>
       <use xlink:href="#DejaVuSans-30" x="63.623047"/>
       <use xlink:href="#DejaVuSans-30" x="127.246094"/>
      </g>
     </g>
    </g>
    <g id="ytick_11">
     <g id="line2d_24">
      <g>
       <use xlink:href="#m3cdbb575e5" x="57.17" y="316.032799" style="stroke: #000000; stroke-width: 0.8"/>
      </g>
     </g>
     <g id="text_25">
      <!-- 600 -->
      <g transform="translate(31.0825 319.832018) scale(0.1 -0.1)">
       <use xlink:href="#DejaVuSans-36"/>
       <use xlink:href="#DejaVuSans-30" x="63.623047"/>
       <use xlink:href="#DejaVuSans-30" x="127.246094"/>
      </g>
     </g>
    </g>
    <g id="ytick_12">
     <g id="line2d_25">
      <g>
       <use xlink:href="#m3cdbb575e5" x="57.17" y="288.599288" style="stroke: #000000; stroke-width: 0.8"/>
      </g>
     </g>
     <g id="text_26">
      <!-- 800 -->
      <g transform="translate(31.0825 292.398507) scale(0.1 -0.1)">
       <use xlink:href="#DejaVuSans-38"/>
       <use xlink:href="#DejaVuSans-30" x="63.623047"/>
       <use xlink:href="#DejaVuSans-30" x="127.246094"/>
      </g>
     </g>
    </g>
    <g id="ytick_13">
     <g id="line2d_26">
      <g>
       <use xlink:href="#m3cdbb575e5" x="57.17" y="261.165777" style="stroke: #000000; stroke-width: 0.8"/>
      </g>
     </g>
     <g id="text_27">
      <!-- 1000 -->
      <g transform="translate(24.72 264.964996) scale(0.1 -0.1)">
       <use xlink:href="#DejaVuSans-31"/>
       <use xlink:href="#DejaVuSans-30" x="63.623047"/>
       <use xlink:href="#DejaVuSans-30" x="127.246094"/>
       <use xlink:href="#DejaVuSans-30" x="190.869141"/>
      </g>
     </g>
    </g>
    <g id="ytick_14">
     <g id="line2d_27">
      <g>
       <use xlink:href="#m3cdbb575e5" x="57.17" y="233.732265" style="stroke: #000000; stroke-width: 0.8"/>
      </g>
     </g>
     <g id="text_28">
      <!-- 1200 -->
      <g transform="translate(24.72 237.531484) scale(0.1 -0.1)">
       <use xlink:href="#DejaVuSans-31"/>
       <use xlink:href="#DejaVuSans-32" x="63.623047"/>
       <use xlink:href="#DejaVuSans-30" x="127.246094"/>
       <use xlink:href="#DejaVuSans-30" x="190.869141"/>
      </g>
     </g>
    </g>
    <g id="text_29">
     <!-- Pixel Frequency -->
     <g transform="translate(18.640313 347.398906) rotate(-90) scale(0.1 -0.1)">
      <use xlink:href="#DejaVuSans-50"/>
      <use xlink:href="#DejaVuSans-69" x="58.052734"/>
      <use xlink:href="#DejaVuSans-78" x="85.835938"/>
      <use xlink:href="#DejaVuSans-65" x="141.890625"/>
      <use xlink:href="#DejaVuSans-6c" x="203.414062"/>
      <use xlink:href="#DejaVuSans-20" x="231.197266"/>
      <use xlink:href="#DejaVuSans-46" x="262.984375"/>
      <use xlink:href="#DejaVuSans-72" x="313.253906"/>
      <use xlink:href="#DejaVuSans-65" x="352.117188"/>
      <use xlink:href="#DejaVuSans-71" x="413.640625"/>
      <use xlink:href="#DejaVuSans-75" x="477.117188"/>
      <use xlink:href="#DejaVuSans-65" x="540.496094"/>
      <use xlink:href="#DejaVuSans-6e" x="602.019531"/>
      <use xlink:href="#DejaVuSans-63" x="665.398438"/>
      <use xlink:href="#DejaVuSans-79" x="720.378906"/>
     </g>
    </g>
   </g>
   <g id="line2d_28">
    <path d="M 57.17 398.333333 
L 132.107766 398.333333 
L 134.633759 397.921831 
L 135.475756 398.058998 
L 136.317753 397.098825 
L 137.159751 397.098825 
L 138.843745 394.766977 
L 139.685743 389.828945 
L 141.369738 388.731604 
L 142.211735 383.244902 
L 143.053732 381.050221 
L 143.89573 377.895367 
L 144.737727 375.700686 
L 145.579724 376.249357 
L 146.421722 370.762654 
L 147.263719 369.390979 
L 148.105717 369.802482 
L 148.947714 367.196298 
L 149.789711 365.41312 
L 150.631709 361.023758 
L 151.473706 364.178612 
L 152.315703 365.001617 
L 153.157701 360.749423 
L 153.999698 357.594569 
L 154.841696 360.749423 
L 155.683693 360.063585 
L 156.52569 358.554742 
L 157.367688 358.143239 
L 158.209685 351.970699 
L 159.051682 361.983931 
L 159.89368 353.753877 
L 160.735677 354.988385 
L 161.577675 356.497229 
L 162.419672 353.753877 
L 163.261669 354.988385 
L 164.103667 356.634396 
L 164.945664 354.028213 
L 165.787661 356.771564 
L 166.629659 350.461856 
L 167.471656 354.028213 
L 168.313654 351.422029 
L 169.155651 347.44417 
L 169.997648 350.736191 
L 170.839646 344.700819 
L 171.681643 342.780473 
L 172.52364 339.625619 
L 173.365638 340.585792 
L 174.207635 339.625619 
L 175.049633 340.448624 
L 175.89163 346.758332 
L 176.733627 340.174289 
L 177.575625 345.112321 
L 178.417622 347.307002 
L 179.259619 341.8203 
L 180.101617 341.683132 
L 180.943614 338.665446 
L 181.785612 348.404343 
L 182.627609 348.267175 
L 183.469606 344.563651 
L 184.311604 351.010526 
L 185.153601 352.519369 
L 185.995598 351.010526 
L 186.837596 351.147694 
L 187.679593 355.262721 
L 188.521591 349.090181 
L 189.363588 357.320234 
L 190.205585 356.908731 
L 191.047583 353.753877 
L 191.88958 354.028213 
L 192.731577 357.183066 
L 193.573575 349.501683 
L 194.415572 350.599024 
L 195.25757 344.837986 
L 196.099567 352.519369 
L 196.941564 344.563651 
L 197.783562 346.483997 
L 198.625559 346.346829 
L 199.467556 335.236257 
L 200.309554 340.037122 
L 201.151551 334.55042 
L 201.993549 332.492906 
L 202.835546 336.059263 
L 203.677543 327.280539 
L 204.519541 327.143371 
L 205.361538 330.435393 
L 206.203535 329.886723 
L 207.045533 324.811523 
L 207.88753 326.046031 
L 208.729528 323.85135 
L 209.571525 315.484129 
L 210.413522 319.461988 
L 211.25552 316.444302 
L 212.097517 313.975286 
L 212.939514 316.169967 
L 213.781512 309.997427 
L 214.623509 310.820432 
L 215.465507 306.43107 
L 216.307504 310.546097 
L 217.149501 306.705406 
L 217.991499 313.152281 
L 218.833496 314.386789 
L 219.675493 308.762919 
L 220.517491 320.559329 
L 222.201486 323.988518 
L 223.043483 322.891177 
L 223.88548 332.904409 
L 224.727478 335.64776 
L 225.569475 342.094635 
L 226.411472 346.758332 
L 227.25347 349.776018 
L 228.095467 355.948558 
L 228.937465 355.948558 
L 229.779462 356.634396 
L 230.621459 359.377747 
L 231.463457 364.315779 
L 232.305454 364.041444 
L 233.147451 366.921963 
L 233.989449 369.116644 
L 234.831446 366.647628 
L 235.673444 370.762654 
L 236.515441 368.156471 
L 237.357438 369.528146 
L 238.199436 368.979476 
L 239.041433 372.545833 
L 239.88343 375.014849 
L 240.725428 372.957335 
L 241.567425 375.152016 
L 242.409423 376.249357 
L 244.093417 374.877681 
L 244.935415 377.483865 
L 245.777412 377.895367 
L 246.619409 375.700686 
L 247.461407 373.917508 
L 248.303404 375.563519 
L 249.987399 375.837854 
L 250.829396 375.426351 
L 251.671394 375.700686 
L 252.513391 372.271498 
L 253.355388 374.054676 
L 254.197386 374.329011 
L 255.039383 370.762654 
L 255.881381 376.249357 
L 256.723378 373.094503 
L 257.565375 376.935195 
L 258.407373 377.346697 
L 259.24937 372.408665 
L 260.091367 374.054676 
L 260.933365 374.603346 
L 261.775362 372.545833 
L 262.61736 373.368838 
L 263.459357 375.426351 
L 264.301354 376.523692 
L 265.143352 374.603346 
L 265.985349 379.129875 
L 266.827346 377.346697 
L 267.669344 376.249357 
L 268.511341 370.762654 
L 269.353339 373.094503 
L 270.195336 374.877681 
L 271.037333 383.656405 
L 271.879331 396.412988 
L 271.879331 396.412988 
" clip-path="url(#p0197c45732)" style="fill: none; stroke: #008000; stroke-width: 1.5; stroke-linecap: square"/>
   </g>
   <g id="patch_8">
    <path d="M 57.17 398.333333 
L 57.17 218.506667 
" style="fill: none; stroke: #000000; stroke-width: 0.8; stroke-linejoin: miter; stroke-linecap: square"/>
   </g>
   <g id="patch_9">
    <path d="M 272.721328 398.333333 
L 272.721328 218.506667 
" style="fill: none; stroke: #000000; stroke-width: 0.8; stroke-linejoin: miter; stroke-linecap: square"/>
   </g>
   <g id="patch_10">
    <path d="M 57.17 398.333333 
L 272.721328 398.333333 
" style="fill: none; stroke: #000000; stroke-width: 0.8; stroke-linejoin: miter; stroke-linecap: square"/>
   </g>
   <g id="patch_11">
    <path d="M 57.17 218.506667 
L 272.721328 218.506667 
" style="fill: none; stroke: #000000; stroke-width: 0.8; stroke-linejoin: miter; stroke-linecap: square"/>
   </g>
   <g id="text_30">
    <!-- Green Channel  -->
    <g transform="translate(179.494453 232.506667) scale(0.12 -0.12)">
     <defs>
      <path id="DejaVuSans-47" d="M 3809 666 
L 3809 1919 
L 2778 1919 
L 2778 2438 
L 4434 2438 
L 4434 434 
Q 4069 175 3628 42 
Q 3188 -91 2688 -91 
Q 1594 -91 976 548 
Q 359 1188 359 2328 
Q 359 3472 976 4111 
Q 1594 4750 2688 4750 
Q 3144 4750 3555 4637 
Q 3966 4525 4313 4306 
L 4313 3634 
Q 3963 3931 3569 4081 
Q 3175 4231 2741 4231 
Q 1884 4231 1454 3753 
Q 1025 3275 1025 2328 
Q 1025 1384 1454 906 
Q 1884 428 2741 428 
Q 3075 428 3337 486 
Q 3600 544 3809 666 
z
" transform="scale(0.015625)"/>
     </defs>
     <use xlink:href="#DejaVuSans-47"/>
     <use xlink:href="#DejaVuSans-72" x="77.490234"/>
     <use xlink:href="#DejaVuSans-65" x="116.353516"/>
     <use xlink:href="#DejaVuSans-65" x="177.876953"/>
     <use xlink:href="#DejaVuSans-6e" x="239.400391"/>
     <use xlink:href="#DejaVuSans-20" x="302.779297"/>
     <use xlink:href="#DejaVuSans-43" x="334.566406"/>
     <use xlink:href="#DejaVuSans-68" x="404.390625"/>
     <use xlink:href="#DejaVuSans-61" x="467.769531"/>
     <use xlink:href="#DejaVuSans-6e" x="529.048828"/>
     <use xlink:href="#DejaVuSans-6e" x="592.427734"/>
     <use xlink:href="#DejaVuSans-65" x="655.806641"/>
     <use xlink:href="#DejaVuSans-6c" x="717.330078"/>
     <use xlink:href="#DejaVuSans-20" x="745.113281"/>
    </g>
   </g>
  </g>
  <g id="axes_3">
   <g id="patch_12">
    <path d="M 57.17 606.04 
L 272.721328 606.04 
L 272.721328 426.213333 
L 57.17 426.213333 
z
" style="fill: #ffffff"/>
   </g>
   <g id="PolyCollection_3">
    <defs>
     <path id="mefba4e2a68" d="M 57.17 -41.96 
L 57.17 -41.96 
L 58.011997 -41.96 
L 58.853995 -41.96 
L 59.695992 -41.96 
L 60.53799 -41.96 
L 61.379987 -41.96 
L 62.221984 -41.96 
L 63.063982 -41.96 
L 63.905979 -41.96 
L 64.747976 -41.96 
L 65.589974 -41.96 
L 66.431971 -41.96 
L 67.273969 -41.96 
L 68.115966 -41.96 
L 68.957963 -41.96 
L 69.799961 -41.96 
L 70.641958 -41.96 
L 71.483955 -41.96 
L 72.325953 -41.96 
L 73.16795 -41.96 
L 74.009948 -41.96 
L 74.851945 -41.96 
L 75.693942 -41.96 
L 76.53594 -41.96 
L 77.377937 -41.96 
L 78.219934 -41.96 
L 79.061932 -41.96 
L 79.903929 -41.96 
L 80.745927 -41.96 
L 81.587924 -41.96 
L 82.429921 -41.96 
L 83.271919 -41.96 
L 84.113916 -41.96 
L 84.955913 -41.96 
L 85.797911 -41.96 
L 86.639908 -41.96 
L 87.481906 -41.96 
L 88.323903 -41.96 
L 89.1659 -41.96 
L 90.007898 -41.96 
L 90.849895 -41.96 
L 91.691892 -41.96 
L 92.53389 -41.96 
L 93.375887 -41.96 
L 94.217885 -41.96 
L 95.059882 -42.234335 
L 95.901879 -42.371503 
L 96.743877 -42.783005 
L 97.585874 -44.977686 
L 98.427871 -46.349362 
L 99.269869 -51.561729 
L 100.111866 -56.774096 
L 100.953864 -62.672301 
L 101.795861 -70.902354 
L 102.637858 -75.840386 
L 103.479856 -80.915586 
L 104.321853 -91.888991 
L 105.16385 -93.123499 
L 106.005848 -100.119044 
L 106.847845 -106.428752 
L 107.689843 -96.41552 
L 108.53184 -110.132276 
L 109.373837 -111.092449 
L 110.215835 -104.234071 
L 111.057832 -106.703087 
L 111.899829 -105.331411 
L 112.741827 -114.658805 
L 113.583824 -116.030481 
L 114.425822 -118.910999 
L 115.267819 -115.756145 
L 116.109816 -132.764922 
L 116.951814 -126.455215 
L 117.793811 -135.508274 
L 118.635808 -140.583473 
L 119.477806 -138.937462 
L 120.319803 -137.97729 
L 121.161801 -146.481678 
L 122.003798 -141.680814 
L 122.845795 -135.919776 
L 123.687793 -136.605614 
L 124.52979 -127.82689 
L 125.371787 -127.552555 
L 126.213785 -127.141053 
L 127.055782 -123.711864 
L 127.89778 -125.220707 
L 128.739777 -124.534869 
L 129.581774 -132.35342 
L 130.423772 -126.72955 
L 131.265769 -134.685268 
L 132.107766 -141.817981 
L 132.949764 -140.446306 
L 133.791761 -146.756013 
L 134.633759 -153.340056 
L 135.475756 -164.31346 
L 136.317753 -164.999298 
L 137.159751 -175.5612 
L 138.001748 -179.539059 
L 138.843745 -191.472637 
L 139.685743 -193.392982 
L 140.52774 -188.866453 
L 141.369738 -188.729286 
L 142.211735 -195.999166 
L 143.053732 -192.98148 
L 143.89573 -187.220442 
L 144.737727 -181.73374 
L 145.579724 -162.393115 
L 146.421722 -152.791386 
L 147.263719 -150.733872 
L 148.105717 -133.725095 
L 148.947714 -125.083539 
L 149.789711 -118.499497 
L 150.631709 -108.623432 
L 151.473706 -97.375693 
L 152.315703 -92.026158 
L 153.157701 -87.636796 
L 153.999698 -81.052754 
L 154.841696 -82.012927 
L 155.683693 -76.251889 
L 156.52569 -78.035067 
L 157.367688 -76.937727 
L 158.209685 -75.977554 
L 159.051682 -70.765187 
L 159.89368 -72.8227 
L 160.735677 -68.296171 
L 161.577675 -68.159003 
L 162.419672 -66.10149 
L 163.261669 -64.455479 
L 164.103667 -68.433338 
L 164.945664 -64.866982 
L 165.787661 -61.163458 
L 166.629659 -64.455479 
L 167.471656 -63.906809 
L 168.313654 -61.574961 
L 169.155651 -58.420107 
L 169.997648 -63.083804 
L 170.839646 -62.809469 
L 171.681643 -57.322766 
L 172.52364 -59.243112 
L 173.365638 -56.362593 
L 174.207635 -57.185599 
L 175.049633 -58.831609 
L 175.89163 -57.322766 
L 176.733627 -55.128085 
L 177.575625 -54.167913 
L 178.417622 -54.85375 
L 179.259619 -56.225426 
L 180.101617 -57.048431 
L 180.943614 -53.75641 
L 181.785612 -54.85375 
L 182.627609 -53.070572 
L 183.469606 -51.836064 
L 184.311604 -54.167913 
L 185.153601 -51.013059 
L 185.995598 -51.973232 
L 186.837596 -54.030745 
L 187.679593 -53.20774 
L 188.521591 -50.052886 
L 189.363588 -51.287394 
L 190.205585 -50.327221 
L 191.047583 -50.601556 
L 191.88958 -50.601556 
L 192.731577 -50.738724 
L 193.573575 -51.013059 
L 194.415572 -48.544043 
L 195.25757 -50.327221 
L 196.099567 -48.406875 
L 196.941564 -50.464389 
L 197.783562 -50.052886 
L 198.625559 -47.309535 
L 199.467556 -48.68121 
L 200.309554 -48.68121 
L 201.151551 -47.309535 
L 201.993549 -47.446702 
L 202.835546 -48.13254 
L 203.677543 -48.818378 
L 204.519541 -47.721037 
L 205.361538 -46.623697 
L 206.203535 -46.623697 
L 207.045533 -47.0352 
L 207.88753 -47.0352 
L 208.729528 -45.800692 
L 209.571525 -46.486529 
L 210.413522 -45.800692 
L 211.25552 -45.114854 
L 212.097517 -46.760864 
L 212.939514 -46.898032 
L 213.781512 -45.937859 
L 214.623509 -48.13254 
L 215.465507 -46.486529 
L 216.307504 -44.840519 
L 217.149501 -45.800692 
L 217.991499 -44.840519 
L 218.833496 -45.663524 
L 219.675493 -46.623697 
L 220.517491 -44.977686 
L 221.359488 -45.114854 
L 222.201486 -45.252021 
L 223.043483 -46.486529 
L 223.88548 -44.977686 
L 224.727478 -45.937859 
L 225.569475 -44.977686 
L 226.411472 -45.526356 
L 227.25347 -45.114854 
L 228.095467 -45.663524 
L 228.937465 -44.703351 
L 229.779462 -46.075027 
L 230.621459 -43.880346 
L 231.463457 -45.252021 
L 232.305454 -44.840519 
L 233.147451 -44.154681 
L 233.989449 -44.840519 
L 234.831446 -45.114854 
L 235.673444 -45.526356 
L 236.515441 -44.017513 
L 237.357438 -44.840519 
L 238.199436 -44.429016 
L 239.041433 -44.566184 
L 239.88343 -44.566184 
L 240.725428 -45.114854 
L 241.567425 -43.743178 
L 242.409423 -44.429016 
L 243.25142 -44.703351 
L 244.093417 -44.566184 
L 244.935415 -45.252021 
L 245.777412 -45.114854 
L 246.619409 -42.645838 
L 247.461407 -42.371503 
L 248.303404 -44.154681 
L 249.145402 -43.468843 
L 249.987399 -44.429016 
L 250.829396 -43.05734 
L 251.671394 -42.920173 
L 252.513391 -43.880346 
L 253.355388 -43.468843 
L 254.197386 -43.468843 
L 255.039383 -43.331676 
L 255.881381 -43.05734 
L 256.723378 -42.371503 
L 257.565375 -43.743178 
L 258.407373 -43.05734 
L 259.24937 -43.331676 
L 260.091367 -42.097168 
L 260.933365 -42.50867 
L 261.775362 -42.234335 
L 262.61736 -43.743178 
L 263.459357 -42.097168 
L 264.301354 -42.097168 
L 265.143352 -41.96 
L 265.985349 -41.96 
L 266.827346 -41.96 
L 267.669344 -41.96 
L 268.511341 -41.96 
L 269.353339 -41.96 
L 270.195336 -41.96 
L 271.037333 -41.96 
L 271.879331 -41.96 
L 271.879331 -41.96 
L 271.879331 -41.96 
L 271.037333 -41.96 
L 270.195336 -41.96 
L 269.353339 -41.96 
L 268.511341 -41.96 
L 267.669344 -41.96 
L 266.827346 -41.96 
L 265.985349 -41.96 
L 265.143352 -41.96 
L 264.301354 -41.96 
L 263.459357 -41.96 
L 262.61736 -41.96 
L 261.775362 -41.96 
L 260.933365 -41.96 
L 260.091367 -41.96 
L 259.24937 -41.96 
L 258.407373 -41.96 
L 257.565375 -41.96 
L 256.723378 -41.96 
L 255.881381 -41.96 
L 255.039383 -41.96 
L 254.197386 -41.96 
L 253.355388 -41.96 
L 252.513391 -41.96 
L 251.671394 -41.96 
L 250.829396 -41.96 
L 249.987399 -41.96 
L 249.145402 -41.96 
L 248.303404 -41.96 
L 247.461407 -41.96 
L 246.619409 -41.96 
L 245.777412 -41.96 
L 244.935415 -41.96 
L 244.093417 -41.96 
L 243.25142 -41.96 
L 242.409423 -41.96 
L 241.567425 -41.96 
L 240.725428 -41.96 
L 239.88343 -41.96 
L 239.041433 -41.96 
L 238.199436 -41.96 
L 237.357438 -41.96 
L 236.515441 -41.96 
L 235.673444 -41.96 
L 234.831446 -41.96 
L 233.989449 -41.96 
L 233.147451 -41.96 
L 232.305454 -41.96 
L 231.463457 -41.96 
L 230.621459 -41.96 
L 229.779462 -41.96 
L 228.937465 -41.96 
L 228.095467 -41.96 
L 227.25347 -41.96 
L 226.411472 -41.96 
L 225.569475 -41.96 
L 224.727478 -41.96 
L 223.88548 -41.96 
L 223.043483 -41.96 
L 222.201486 -41.96 
L 221.359488 -41.96 
L 220.517491 -41.96 
L 219.675493 -41.96 
L 218.833496 -41.96 
L 217.991499 -41.96 
L 217.149501 -41.96 
L 216.307504 -41.96 
L 215.465507 -41.96 
L 214.623509 -41.96 
L 213.781512 -41.96 
L 212.939514 -41.96 
L 212.097517 -41.96 
L 211.25552 -41.96 
L 210.413522 -41.96 
L 209.571525 -41.96 
L 208.729528 -41.96 
L 207.88753 -41.96 
L 207.045533 -41.96 
L 206.203535 -41.96 
L 205.361538 -41.96 
L 204.519541 -41.96 
L 203.677543 -41.96 
L 202.835546 -41.96 
L 201.993549 -41.96 
L 201.151551 -41.96 
L 200.309554 -41.96 
L 199.467556 -41.96 
L 198.625559 -41.96 
L 197.783562 -41.96 
L 196.941564 -41.96 
L 196.099567 -41.96 
L 195.25757 -41.96 
L 194.415572 -41.96 
L 193.573575 -41.96 
L 192.731577 -41.96 
L 191.88958 -41.96 
L 191.047583 -41.96 
L 190.205585 -41.96 
L 189.363588 -41.96 
L 188.521591 -41.96 
L 187.679593 -41.96 
L 186.837596 -41.96 
L 185.995598 -41.96 
L 185.153601 -41.96 
L 184.311604 -41.96 
L 183.469606 -41.96 
L 182.627609 -41.96 
L 181.785612 -41.96 
L 180.943614 -41.96 
L 180.101617 -41.96 
L 179.259619 -41.96 
L 178.417622 -41.96 
L 177.575625 -41.96 
L 176.733627 -41.96 
L 175.89163 -41.96 
L 175.049633 -41.96 
L 174.207635 -41.96 
L 173.365638 -41.96 
L 172.52364 -41.96 
L 171.681643 -41.96 
L 170.839646 -41.96 
L 169.997648 -41.96 
L 169.155651 -41.96 
L 168.313654 -41.96 
L 167.471656 -41.96 
L 166.629659 -41.96 
L 165.787661 -41.96 
L 164.945664 -41.96 
L 164.103667 -41.96 
L 163.261669 -41.96 
L 162.419672 -41.96 
L 161.577675 -41.96 
L 160.735677 -41.96 
L 159.89368 -41.96 
L 159.051682 -41.96 
L 158.209685 -41.96 
L 157.367688 -41.96 
L 156.52569 -41.96 
L 155.683693 -41.96 
L 154.841696 -41.96 
L 153.999698 -41.96 
L 153.157701 -41.96 
L 152.315703 -41.96 
L 151.473706 -41.96 
L 150.631709 -41.96 
L 149.789711 -41.96 
L 148.947714 -41.96 
L 148.105717 -41.96 
L 147.263719 -41.96 
L 146.421722 -41.96 
L 145.579724 -41.96 
L 144.737727 -41.96 
L 143.89573 -41.96 
L 143.053732 -41.96 
L 142.211735 -41.96 
L 141.369738 -41.96 
L 140.52774 -41.96 
L 139.685743 -41.96 
L 138.843745 -41.96 
L 138.001748 -41.96 
L 137.159751 -41.96 
L 136.317753 -41.96 
L 135.475756 -41.96 
L 134.633759 -41.96 
L 133.791761 -41.96 
L 132.949764 -41.96 
L 132.107766 -41.96 
L 131.265769 -41.96 
L 130.423772 -41.96 
L 129.581774 -41.96 
L 128.739777 -41.96 
L 127.89778 -41.96 
L 127.055782 -41.96 
L 126.213785 -41.96 
L 125.371787 -41.96 
L 124.52979 -41.96 
L 123.687793 -41.96 
L 122.845795 -41.96 
L 122.003798 -41.96 
L 121.161801 -41.96 
L 120.319803 -41.96 
L 119.477806 -41.96 
L 118.635808 -41.96 
L 117.793811 -41.96 
L 116.951814 -41.96 
L 116.109816 -41.96 
L 115.267819 -41.96 
L 114.425822 -41.96 
L 113.583824 -41.96 
L 112.741827 -41.96 
L 111.899829 -41.96 
L 111.057832 -41.96 
L 110.215835 -41.96 
L 109.373837 -41.96 
L 108.53184 -41.96 
L 107.689843 -41.96 
L 106.847845 -41.96 
L 106.005848 -41.96 
L 105.16385 -41.96 
L 104.321853 -41.96 
L 103.479856 -41.96 
L 102.637858 -41.96 
L 101.795861 -41.96 
L 100.953864 -41.96 
L 100.111866 -41.96 
L 99.269869 -41.96 
L 98.427871 -41.96 
L 97.585874 -41.96 
L 96.743877 -41.96 
L 95.901879 -41.96 
L 95.059882 -41.96 
L 94.217885 -41.96 
L 93.375887 -41.96 
L 92.53389 -41.96 
L 91.691892 -41.96 
L 90.849895 -41.96 
L 90.007898 -41.96 
L 89.1659 -41.96 
L 88.323903 -41.96 
L 87.481906 -41.96 
L 86.639908 -41.96 
L 85.797911 -41.96 
L 84.955913 -41.96 
L 84.113916 -41.96 
L 83.271919 -41.96 
L 82.429921 -41.96 
L 81.587924 -41.96 
L 80.745927 -41.96 
L 79.903929 -41.96 
L 79.061932 -41.96 
L 78.219934 -41.96 
L 77.377937 -41.96 
L 76.53594 -41.96 
L 75.693942 -41.96 
L 74.851945 -41.96 
L 74.009948 -41.96 
L 73.16795 -41.96 
L 72.325953 -41.96 
L 71.483955 -41.96 
L 70.641958 -41.96 
L 69.799961 -41.96 
L 68.957963 -41.96 
L 68.115966 -41.96 
L 67.273969 -41.96 
L 66.431971 -41.96 
L 65.589974 -41.96 
L 64.747976 -41.96 
L 63.905979 -41.96 
L 63.063982 -41.96 
L 62.221984 -41.96 
L 61.379987 -41.96 
L 60.53799 -41.96 
L 59.695992 -41.96 
L 58.853995 -41.96 
L 58.011997 -41.96 
L 57.17 -41.96 
z
" style="stroke: #0000ff; stroke-opacity: 0.4"/>
    </defs>
    <g clip-path="url(#pfd3b23d215)">
     <use xlink:href="#mefba4e2a68" x="0" y="648" style="fill: #0000ff; fill-opacity: 0.4; stroke: #0000ff; stroke-opacity: 0.4"/>
    </g>
   </g>
   <g id="matplotlib.axis_5">
    <g id="xtick_13">
     <g id="line2d_29">
      <g>
       <use xlink:href="#m82887b04e2" x="57.17" y="606.04" style="stroke: #000000; stroke-width: 0.8"/>
      </g>
     </g>
     <g id="text_31">
      <!-- 0 -->
      <g transform="translate(53.98875 620.638438) scale(0.1 -0.1)">
       <use xlink:href="#DejaVuSans-30"/>
      </g>
     </g>
    </g>
    <g id="xtick_14">
     <g id="line2d_30">
      <g>
       <use xlink:href="#m82887b04e2" x="99.269869" y="606.04" style="stroke: #000000; stroke-width: 0.8"/>
      </g>
     </g>
     <g id="text_32">
      <!-- 50 -->
      <g transform="translate(92.907369 620.638438) scale(0.1 -0.1)">
       <use xlink:href="#DejaVuSans-35"/>
       <use xlink:href="#DejaVuSans-30" x="63.623047"/>
      </g>
     </g>
    </g>
    <g id="xtick_15">
     <g id="line2d_31">
      <g>
       <use xlink:href="#m82887b04e2" x="141.369738" y="606.04" style="stroke: #000000; stroke-width: 0.8"/>
      </g>
     </g>
     <g id="text_33">
      <!-- 100 -->
      <g transform="translate(131.825988 620.638438) scale(0.1 -0.1)">
       <use xlink:href="#DejaVuSans-31"/>
       <use xlink:href="#DejaVuSans-30" x="63.623047"/>
       <use xlink:href="#DejaVuSans-30" x="127.246094"/>
      </g>
     </g>
    </g>
    <g id="xtick_16">
     <g id="line2d_32">
      <g>
       <use xlink:href="#m82887b04e2" x="183.469606" y="606.04" style="stroke: #000000; stroke-width: 0.8"/>
      </g>
     </g>
     <g id="text_34">
      <!-- 150 -->
      <g transform="translate(173.925856 620.638438) scale(0.1 -0.1)">
       <use xlink:href="#DejaVuSans-31"/>
       <use xlink:href="#DejaVuSans-35" x="63.623047"/>
       <use xlink:href="#DejaVuSans-30" x="127.246094"/>
      </g>
     </g>
    </g>
    <g id="xtick_17">
     <g id="line2d_33">
      <g>
       <use xlink:href="#m82887b04e2" x="225.569475" y="606.04" style="stroke: #000000; stroke-width: 0.8"/>
      </g>
     </g>
     <g id="text_35">
      <!-- 200 -->
      <g transform="translate(216.025725 620.638438) scale(0.1 -0.1)">
       <use xlink:href="#DejaVuSans-32"/>
       <use xlink:href="#DejaVuSans-30" x="63.623047"/>
       <use xlink:href="#DejaVuSans-30" x="127.246094"/>
      </g>
     </g>
    </g>
    <g id="xtick_18">
     <g id="line2d_34">
      <g>
       <use xlink:href="#m82887b04e2" x="267.669344" y="606.04" style="stroke: #000000; stroke-width: 0.8"/>
      </g>
     </g>
     <g id="text_36">
      <!-- 250 -->
      <g transform="translate(258.125594 620.638438) scale(0.1 -0.1)">
       <use xlink:href="#DejaVuSans-32"/>
       <use xlink:href="#DejaVuSans-35" x="63.623047"/>
       <use xlink:href="#DejaVuSans-30" x="127.246094"/>
      </g>
     </g>
    </g>
    <g id="text_37">
     <!-- Pixel Intensity -->
     <g transform="translate(130.033945 634.316563) scale(0.1 -0.1)">
      <defs>
       <path id="DejaVuSans-49" d="M 628 4666 
L 1259 4666 
L 1259 0 
L 628 0 
L 628 4666 
z
" transform="scale(0.015625)"/>
       <path id="DejaVuSans-74" d="M 1172 4494 
L 1172 3500 
L 2356 3500 
L 2356 3053 
L 1172 3053 
L 1172 1153 
Q 1172 725 1289 603 
Q 1406 481 1766 481 
L 2356 481 
L 2356 0 
L 1766 0 
Q 1100 0 847 248 
Q 594 497 594 1153 
L 594 3053 
L 172 3053 
L 172 3500 
L 594 3500 
L 594 4494 
L 1172 4494 
z
" transform="scale(0.015625)"/>
       <path id="DejaVuSans-73" d="M 2834 3397 
L 2834 2853 
Q 2591 2978 2328 3040 
Q 2066 3103 1784 3103 
Q 1356 3103 1142 2972 
Q 928 2841 928 2578 
Q 928 2378 1081 2264 
Q 1234 2150 1697 2047 
L 1894 2003 
Q 2506 1872 2764 1633 
Q 3022 1394 3022 966 
Q 3022 478 2636 193 
Q 2250 -91 1575 -91 
Q 1294 -91 989 -36 
Q 684 19 347 128 
L 347 722 
Q 666 556 975 473 
Q 1284 391 1588 391 
Q 1994 391 2212 530 
Q 2431 669 2431 922 
Q 2431 1156 2273 1281 
Q 2116 1406 1581 1522 
L 1381 1569 
Q 847 1681 609 1914 
Q 372 2147 372 2553 
Q 372 3047 722 3315 
Q 1072 3584 1716 3584 
Q 2034 3584 2315 3537 
Q 2597 3491 2834 3397 
z
" transform="scale(0.015625)"/>
      </defs>
      <use xlink:href="#DejaVuSans-50"/>
      <use xlink:href="#DejaVuSans-69" x="58.052734"/>
      <use xlink:href="#DejaVuSans-78" x="85.835938"/>
      <use xlink:href="#DejaVuSans-65" x="141.890625"/>
      <use xlink:href="#DejaVuSans-6c" x="203.414062"/>
      <use xlink:href="#DejaVuSans-20" x="231.197266"/>
      <use xlink:href="#DejaVuSans-49" x="262.984375"/>
      <use xlink:href="#DejaVuSans-6e" x="292.476562"/>
      <use xlink:href="#DejaVuSans-74" x="355.855469"/>
      <use xlink:href="#DejaVuSans-65" x="395.064453"/>
      <use xlink:href="#DejaVuSans-6e" x="456.587891"/>
      <use xlink:href="#DejaVuSans-73" x="519.966797"/>
      <use xlink:href="#DejaVuSans-69" x="572.066406"/>
      <use xlink:href="#DejaVuSans-74" x="599.849609"/>
      <use xlink:href="#DejaVuSans-79" x="639.058594"/>
     </g>
    </g>
   </g>
   <g id="matplotlib.axis_6">
    <g id="ytick_15">
     <g id="line2d_35">
      <g>
       <use xlink:href="#m3cdbb575e5" x="57.17" y="606.04" style="stroke: #000000; stroke-width: 0.8"/>
      </g>
     </g>
     <g id="text_38">
      <!-- 0 -->
      <g transform="translate(43.8075 609.839219) scale(0.1 -0.1)">
       <use xlink:href="#DejaVuSans-30"/>
      </g>
     </g>
    </g>
    <g id="ytick_16">
     <g id="line2d_36">
      <g>
       <use xlink:href="#m3cdbb575e5" x="57.17" y="578.606489" style="stroke: #000000; stroke-width: 0.8"/>
      </g>
     </g>
     <g id="text_39">
      <!-- 200 -->
      <g transform="translate(31.0825 582.405707) scale(0.1 -0.1)">
       <use xlink:href="#DejaVuSans-32"/>
       <use xlink:href="#DejaVuSans-30" x="63.623047"/>
       <use xlink:href="#DejaVuSans-30" x="127.246094"/>
      </g>
     </g>
    </g>
    <g id="ytick_17">
     <g id="line2d_37">
      <g>
       <use xlink:href="#m3cdbb575e5" x="57.17" y="551.172977" style="stroke: #000000; stroke-width: 0.8"/>
      </g>
     </g>
     <g id="text_40">
      <!-- 400 -->
      <g transform="translate(31.0825 554.972196) scale(0.1 -0.1)">
       <use xlink:href="#DejaVuSans-34"/>
       <use xlink:href="#DejaVuSans-30" x="63.623047"/>
       <use xlink:href="#DejaVuSans-30" x="127.246094"/>
      </g>
     </g>
    </g>
    <g id="ytick_18">
     <g id="line2d_38">
      <g>
       <use xlink:href="#m3cdbb575e5" x="57.17" y="523.739466" style="stroke: #000000; stroke-width: 0.8"/>
      </g>
     </g>
     <g id="text_41">
      <!-- 600 -->
      <g transform="translate(31.0825 527.538685) scale(0.1 -0.1)">
       <use xlink:href="#DejaVuSans-36"/>
       <use xlink:href="#DejaVuSans-30" x="63.623047"/>
       <use xlink:href="#DejaVuSans-30" x="127.246094"/>
      </g>
     </g>
    </g>
    <g id="ytick_19">
     <g id="line2d_39">
      <g>
       <use xlink:href="#m3cdbb575e5" x="57.17" y="496.305955" style="stroke: #000000; stroke-width: 0.8"/>
      </g>
     </g>
     <g id="text_42">
      <!-- 800 -->
      <g transform="translate(31.0825 500.105173) scale(0.1 -0.1)">
       <use xlink:href="#DejaVuSans-38"/>
       <use xlink:href="#DejaVuSans-30" x="63.623047"/>
       <use xlink:href="#DejaVuSans-30" x="127.246094"/>
      </g>
     </g>
    </g>
    <g id="ytick_20">
     <g id="line2d_40">
      <g>
       <use xlink:href="#m3cdbb575e5" x="57.17" y="468.872443" style="stroke: #000000; stroke-width: 0.8"/>
      </g>
     </g>
     <g id="text_43">
      <!-- 1000 -->
      <g transform="translate(24.72 472.671662) scale(0.1 -0.1)">
       <use xlink:href="#DejaVuSans-31"/>
       <use xlink:href="#DejaVuSans-30" x="63.623047"/>
       <use xlink:href="#DejaVuSans-30" x="127.246094"/>
       <use xlink:href="#DejaVuSans-30" x="190.869141"/>
      </g>
     </g>
    </g>
    <g id="ytick_21">
     <g id="line2d_41">
      <g>
       <use xlink:href="#m3cdbb575e5" x="57.17" y="441.438932" style="stroke: #000000; stroke-width: 0.8"/>
      </g>
     </g>
     <g id="text_44">
      <!-- 1200 -->
      <g transform="translate(24.72 445.238151) scale(0.1 -0.1)">
       <use xlink:href="#DejaVuSans-31"/>
       <use xlink:href="#DejaVuSans-32" x="63.623047"/>
       <use xlink:href="#DejaVuSans-30" x="127.246094"/>
       <use xlink:href="#DejaVuSans-30" x="190.869141"/>
      </g>
     </g>
    </g>
    <g id="text_45">
     <!-- Pixel Frequency -->
     <g transform="translate(18.640313 555.105573) rotate(-90) scale(0.1 -0.1)">
      <use xlink:href="#DejaVuSans-50"/>
      <use xlink:href="#DejaVuSans-69" x="58.052734"/>
      <use xlink:href="#DejaVuSans-78" x="85.835938"/>
      <use xlink:href="#DejaVuSans-65" x="141.890625"/>
      <use xlink:href="#DejaVuSans-6c" x="203.414062"/>
      <use xlink:href="#DejaVuSans-20" x="231.197266"/>
      <use xlink:href="#DejaVuSans-46" x="262.984375"/>
      <use xlink:href="#DejaVuSans-72" x="313.253906"/>
      <use xlink:href="#DejaVuSans-65" x="352.117188"/>
      <use xlink:href="#DejaVuSans-71" x="413.640625"/>
      <use xlink:href="#DejaVuSans-75" x="477.117188"/>
      <use xlink:href="#DejaVuSans-65" x="540.496094"/>
      <use xlink:href="#DejaVuSans-6e" x="602.019531"/>
      <use xlink:href="#DejaVuSans-63" x="665.398438"/>
      <use xlink:href="#DejaVuSans-79" x="720.378906"/>
     </g>
    </g>
   </g>
   <g id="line2d_42">
    <path d="M 57.17 606.04 
L 94.217885 606.04 
L 95.059882 605.765665 
L 95.901879 605.628497 
L 96.743877 605.216995 
L 97.585874 603.022314 
L 98.427871 601.650638 
L 100.953864 585.327699 
L 101.795861 577.097646 
L 103.479856 567.084414 
L 104.321853 556.111009 
L 105.16385 554.876501 
L 106.847845 541.571248 
L 107.689843 551.58448 
L 108.53184 537.867724 
L 109.373837 536.907551 
L 110.215835 543.765929 
L 111.057832 541.296913 
L 111.899829 542.668589 
L 112.741827 533.341195 
L 113.583824 531.969519 
L 114.425822 529.089001 
L 115.267819 532.243855 
L 116.109816 515.235078 
L 116.951814 521.544785 
L 117.793811 512.491726 
L 118.635808 507.416527 
L 119.477806 509.062538 
L 120.319803 510.02271 
L 121.161801 501.518322 
L 122.003798 506.319186 
L 122.845795 512.080224 
L 123.687793 511.394386 
L 124.52979 520.17311 
L 125.371787 520.447445 
L 126.213785 520.858947 
L 127.055782 524.288136 
L 127.89778 522.779293 
L 128.739777 523.465131 
L 129.581774 515.64658 
L 130.423772 521.27045 
L 132.107766 506.182019 
L 132.949764 507.553694 
L 134.633759 494.659944 
L 135.475756 483.68654 
L 136.317753 483.000702 
L 137.159751 472.4388 
L 138.001748 468.460941 
L 138.843745 456.527363 
L 139.685743 454.607018 
L 140.52774 459.133547 
L 141.369738 459.270714 
L 142.211735 452.000834 
L 143.053732 455.01852 
L 144.737727 466.26626 
L 145.579724 485.606885 
L 146.421722 495.208614 
L 147.263719 497.266128 
L 148.105717 514.274905 
L 148.947714 522.916461 
L 149.789711 529.500503 
L 150.631709 539.376568 
L 151.473706 550.624307 
L 152.315703 555.973842 
L 153.157701 560.363204 
L 153.999698 566.947246 
L 154.841696 565.987073 
L 155.683693 571.748111 
L 156.52569 569.964933 
L 158.209685 572.022446 
L 159.051682 577.234813 
L 159.89368 575.1773 
L 160.735677 579.703829 
L 161.577675 579.840997 
L 162.419672 581.89851 
L 163.261669 583.544521 
L 164.103667 579.566662 
L 165.787661 586.836542 
L 166.629659 583.544521 
L 167.471656 584.093191 
L 168.313654 586.425039 
L 169.155651 589.579893 
L 169.997648 584.916196 
L 170.839646 585.190531 
L 171.681643 590.677234 
L 172.52364 588.756888 
L 173.365638 591.637407 
L 174.207635 590.814401 
L 175.049633 589.168391 
L 175.89163 590.677234 
L 176.733627 592.871915 
L 177.575625 593.832087 
L 178.417622 593.14625 
L 179.259619 591.774574 
L 180.101617 590.951569 
L 180.943614 594.24359 
L 181.785612 593.14625 
L 182.627609 594.929428 
L 183.469606 596.163936 
L 184.311604 593.832087 
L 185.153601 596.986941 
L 185.995598 596.026768 
L 186.837596 593.969255 
L 187.679593 594.79226 
L 188.521591 597.947114 
L 189.363588 596.712606 
L 190.205585 597.672779 
L 191.047583 597.398444 
L 191.88958 597.398444 
L 192.731577 597.261276 
L 193.573575 596.986941 
L 194.415572 599.455957 
L 195.25757 597.672779 
L 196.099567 599.593125 
L 196.941564 597.535611 
L 197.783562 597.947114 
L 198.625559 600.690465 
L 199.467556 599.31879 
L 200.309554 599.31879 
L 201.151551 600.690465 
L 201.993549 600.553298 
L 203.677543 599.181622 
L 205.361538 601.376303 
L 206.203535 601.376303 
L 207.045533 600.9648 
L 207.88753 600.9648 
L 208.729528 602.199308 
L 209.571525 601.513471 
L 211.25552 602.885146 
L 212.097517 601.239136 
L 212.939514 601.101968 
L 213.781512 602.062141 
L 214.623509 599.86746 
L 216.307504 603.159481 
L 217.149501 602.199308 
L 217.991499 603.159481 
L 219.675493 601.376303 
L 220.517491 603.022314 
L 222.201486 602.747979 
L 223.043483 601.513471 
L 223.88548 603.022314 
L 224.727478 602.062141 
L 225.569475 603.022314 
L 226.411472 602.473644 
L 227.25347 602.885146 
L 228.095467 602.336476 
L 228.937465 603.296649 
L 229.779462 601.924973 
L 230.621459 604.119654 
L 231.463457 602.747979 
L 232.305454 603.159481 
L 233.147451 603.845319 
L 233.989449 603.159481 
L 234.831446 602.885146 
L 235.673444 602.473644 
L 236.515441 603.982487 
L 237.357438 603.159481 
L 238.199436 603.570984 
L 239.041433 603.433816 
L 239.88343 603.433816 
L 240.725428 602.885146 
L 241.567425 604.256822 
L 242.409423 603.570984 
L 243.25142 603.296649 
L 244.093417 603.433816 
L 244.935415 602.747979 
L 245.777412 602.885146 
L 246.619409 605.354162 
L 247.461407 605.628497 
L 248.303404 603.845319 
L 249.145402 604.531157 
L 249.987399 603.570984 
L 250.829396 604.94266 
L 251.671394 605.079827 
L 252.513391 604.119654 
L 253.355388 604.531157 
L 254.197386 604.531157 
L 255.039383 604.668324 
L 255.881381 604.94266 
L 256.723378 605.628497 
L 257.565375 604.256822 
L 258.407373 604.94266 
L 259.24937 604.668324 
L 260.091367 605.902832 
L 260.933365 605.49133 
L 261.775362 605.765665 
L 262.61736 604.256822 
L 263.459357 605.902832 
L 264.301354 605.902832 
L 265.143352 606.04 
L 271.879331 606.04 
L 271.879331 606.04 
" clip-path="url(#pfd3b23d215)" style="fill: none; stroke: #0000ff; stroke-width: 1.5; stroke-linecap: square"/>
   </g>
   <g id="patch_13">
    <path d="M 57.17 606.04 
L 57.17 426.213333 
" style="fill: none; stroke: #000000; stroke-width: 0.8; stroke-linejoin: miter; stroke-linecap: square"/>
   </g>
   <g id="patch_14">
    <path d="M 272.721328 606.04 
L 272.721328 426.213333 
" style="fill: none; stroke: #000000; stroke-width: 0.8; stroke-linejoin: miter; stroke-linecap: square"/>
   </g>
   <g id="patch_15">
    <path d="M 57.17 606.04 
L 272.721328 606.04 
" style="fill: none; stroke: #000000; stroke-width: 0.8; stroke-linejoin: miter; stroke-linecap: square"/>
   </g>
   <g id="patch_16">
    <path d="M 57.17 426.213333 
L 272.721328 426.213333 
" style="fill: none; stroke: #000000; stroke-width: 0.8; stroke-linejoin: miter; stroke-linecap: square"/>
   </g>
   <g id="text_46">
    <!-- Blue Channel  -->
    <g transform="translate(189.272578 440.213333) scale(0.12 -0.12)">
     <defs>
      <path id="DejaVuSans-42" d="M 1259 2228 
L 1259 519 
L 2272 519 
Q 2781 519 3026 730 
Q 3272 941 3272 1375 
Q 3272 1813 3026 2020 
Q 2781 2228 2272 2228 
L 1259 2228 
z
M 1259 4147 
L 1259 2741 
L 2194 2741 
Q 2656 2741 2882 2914 
Q 3109 3088 3109 3444 
Q 3109 3797 2882 3972 
Q 2656 4147 2194 4147 
L 1259 4147 
z
M 628 4666 
L 2241 4666 
Q 2963 4666 3353 4366 
Q 3744 4066 3744 3513 
Q 3744 3084 3544 2831 
Q 3344 2578 2956 2516 
Q 3422 2416 3680 2098 
Q 3938 1781 3938 1306 
Q 3938 681 3513 340 
Q 3088 0 2303 0 
L 628 0 
L 628 4666 
z
" transform="scale(0.015625)"/>
     </defs>
     <use xlink:href="#DejaVuSans-42"/>
     <use xlink:href="#DejaVuSans-6c" x="68.603516"/>
     <use xlink:href="#DejaVuSans-75" x="96.386719"/>
     <use xlink:href="#DejaVuSans-65" x="159.765625"/>
     <use xlink:href="#DejaVuSans-20" x="221.289062"/>
     <use xlink:href="#DejaVuSans-43" x="253.076172"/>
     <use xlink:href="#DejaVuSans-68" x="322.900391"/>
     <use xlink:href="#DejaVuSans-61" x="386.279297"/>
     <use xlink:href="#DejaVuSans-6e" x="447.558594"/>
     <use xlink:href="#DejaVuSans-6e" x="510.9375"/>
     <use xlink:href="#DejaVuSans-65" x="574.316406"/>
     <use xlink:href="#DejaVuSans-6c" x="635.839844"/>
     <use xlink:href="#DejaVuSans-20" x="663.623047"/>
    </g>
   </g>
  </g>
 </g>
 <defs>
  <clipPath id="p9e5714eb9e">
   <rect x="57.17" y="10.8" width="215.551328" height="179.826667"/>
  </clipPath>
  <clipPath id="p0197c45732">
   <rect x="57.17" y="218.506667" width="215.551328" height="179.826667"/>
  </clipPath>
  <clipPath id="pfd3b23d215">
   <rect x="57.17" y="426.213333" width="215.551328" height="179.826667"/>
  </clipPath>
 </defs>
</svg>
