<?xml version="1.0" encoding="utf-8" standalone="no"?>
<!DOCTYPE svg PUBLIC "-//W3C//DTD SVG 1.1//EN"
  "http://www.w3.org/Graphics/SVG/1.1/DTD/svg11.dtd">
<svg xmlns:xlink="http://www.w3.org/1999/xlink" width="288pt" height="648pt" viewBox="0 0 288 648" xmlns="http://www.w3.org/2000/svg" version="1.1">
 <metadata>
  <rdf:RDF xmlns:dc="http://purl.org/dc/elements/1.1/" xmlns:cc="http://creativecommons.org/ns#" xmlns:rdf="http://www.w3.org/1999/02/22-rdf-syntax-ns#">
   <cc:Work>
    <dc:type rdf:resource="http://purl.org/dc/dcmitype/StillImage"/>
    <dc:date>2023-11-18T15:19:47.575612</dc:date>
    <dc:format>image/svg+xml</dc:format>
    <dc:creator>
     <cc:Agent>
      <dc:title>Matplotlib v3.8.0, https://matplotlib.org/</dc:title>
     </cc:Agent>
    </dc:creator>
   </cc:Work>
  </rdf:RDF>
 </metadata>
 <defs>
  <style type="text/css">*{stroke-linejoin: round; stroke-linecap: butt}</style>
 </defs>
 <g id="figure_1">
  <g id="patch_1">
   <path d="M 0 648 
L 288 648 
L 288 0 
L 0 0 
z
" style="fill: #ffffff"/>
  </g>
  <g id="axes_1">
   <g id="patch_2">
    <path d="M 57.17 190.626667 
L 272.721328 190.626667 
L 272.721328 10.8 
L 57.17 10.8 
z
" style="fill: #ffffff"/>
   </g>
   <g id="PolyCollection_1">
    <defs>
     <path id="mc442e4056a" d="M 57.17 -457.373333 
L 57.17 -457.373333 
L 58.011997 -457.373333 
L 58.853995 -457.373333 
L 59.695992 -457.373333 
L 60.53799 -457.373333 
L 61.379987 -457.373333 
L 62.221984 -457.373333 
L 63.063982 -457.373333 
L 63.905979 -457.373333 
L 64.747976 -457.373333 
L 65.589974 -457.373333 
L 66.431971 -457.373333 
L 67.273969 -457.373333 
L 68.115966 -457.373333 
L 68.957963 -457.373333 
L 69.799961 -457.373333 
L 70.641958 -457.373333 
L 71.483955 -457.373333 
L 72.325953 -457.373333 
L 73.16795 -457.373333 
L 74.009948 -457.373333 
L 74.851945 -457.373333 
L 75.693942 -457.373333 
L 76.53594 -457.373333 
L 77.377937 -457.373333 
L 78.219934 -457.373333 
L 79.061932 -457.373333 
L 79.903929 -457.373333 
L 80.745927 -457.373333 
L 81.587924 -457.373333 
L 82.429921 -457.373333 
L 83.271919 -457.373333 
L 84.113916 -457.373333 
L 84.955913 -457.373333 
L 85.797911 -457.373333 
L 86.639908 -457.373333 
L 87.481906 -457.373333 
L 88.323903 -457.373333 
L 89.1659 -457.373333 
L 90.007898 -457.436386 
L 90.849895 -457.625545 
L 91.691892 -457.75165 
L 92.53389 -458.129967 
L 93.375887 -458.571337 
L 94.217885 -459.832394 
L 95.059882 -462.102295 
L 95.901879 -463.489458 
L 96.743877 -469.920846 
L 97.585874 -479.504876 
L 98.427871 -487.827849 
L 99.269869 -503.969374 
L 100.111866 -518.660683 
L 100.953864 -530.073245 
L 101.795861 -545.773399 
L 102.637858 -545.521187 
L 103.479856 -544.764554 
L 104.321853 -539.089799 
L 105.16385 -537.576531 
L 106.005848 -531.52346 
L 106.847845 -524.209331 
L 107.689843 -517.210468 
L 108.53184 -511.535713 
L 109.373837 -505.6718 
L 110.215835 -505.23043 
L 111.057832 -500.690626 
L 111.899829 -497.159668 
L 112.741827 -493.502604 
L 113.583824 -495.6464 
L 114.425822 -491.86323 
L 115.267819 -492.872076 
L 116.109816 -494.385344 
L 116.951814 -493.62871 
L 117.793811 -493.502604 
L 118.635808 -494.070079 
L 119.477806 -492.430706 
L 120.319803 -493.061234 
L 121.161801 -491.800178 
L 122.003798 -489.593329 
L 122.845795 -490.28691 
L 123.687793 -491.295755 
L 124.52979 -487.890902 
L 125.371787 -487.197321 
L 126.213785 -491.295755 
L 127.055782 -485.179631 
L 127.89778 -485.747106 
L 128.739777 -487.323427 
L 129.581774 -483.981627 
L 130.423772 -484.170785 
L 131.265769 -485.116578 
L 132.107766 -486.566793 
L 132.949764 -482.846676 
L 133.791761 -482.279201 
L 134.633759 -481.900884 
L 135.475756 -480.828986 
L 136.317753 -482.909729 
L 137.159751 -479.000453 
L 138.001748 -477.865503 
L 138.843745 -481.396461 
L 139.685743 -477.80245 
L 140.52774 -480.576774 
L 141.369738 -477.045816 
L 142.211735 -476.541393 
L 143.053732 -478.748242 
L 143.89573 -474.46065 
L 144.737727 -474.965072 
L 145.579724 -476.415288 
L 146.421722 -475.910865 
L 147.263719 -474.90202 
L 148.105717 -474.082333 
L 148.947714 -473.388752 
L 149.789711 -474.271491 
L 150.631709 -473.073488 
L 151.473706 -472.00159 
L 152.315703 -471.308008 
L 153.157701 -473.767069 
L 153.999698 -473.262646 
L 154.841696 -471.11885 
L 155.683693 -471.371061 
L 156.52569 -470.67748 
L 157.367688 -470.488322 
L 158.209685 -469.668635 
L 159.051682 -470.110005 
L 159.89368 -470.866639 
L 160.735677 -470.803586 
L 161.577675 -469.605582 
L 162.419672 -468.470631 
L 163.261669 -469.479476 
L 164.103667 -470.046952 
L 164.945664 -469.542529 
L 165.787661 -469.605582 
L 166.629659 -468.596737 
L 167.471656 -468.912001 
L 168.313654 -468.092314 
L 169.155651 -466.957363 
L 169.997648 -466.137676 
L 170.839646 -466.831258 
L 171.681643 -466.074624 
L 172.52364 -465.444095 
L 173.365638 -465.75936 
L 174.207635 -466.011571 
L 175.049633 -465.696307 
L 175.89163 -465.065778 
L 176.733627 -464.43525 
L 177.575625 -464.813567 
L 178.417622 -464.43525 
L 179.259619 -465.002726 
L 180.101617 -464.119986 
L 180.943614 -464.687461 
L 181.785612 -462.985035 
L 182.627609 -463.99388 
L 183.469606 -462.795877 
L 184.311604 -463.048088 
L 185.153601 -463.048088 
L 185.995598 -463.489458 
L 186.837596 -463.867775 
L 187.679593 -463.867775 
L 188.521591 -463.552511 
L 189.363588 -462.543665 
L 190.205585 -463.489458 
L 191.047583 -462.606718 
L 191.88958 -463.237246 
L 192.731577 -462.795877 
L 193.573575 -463.867775 
L 194.415572 -463.300299 
L 195.25757 -462.165348 
L 196.099567 -462.669771 
L 196.941564 -461.408714 
L 197.783562 -462.291454 
L 198.625559 -461.723978 
L 199.467556 -461.597873 
L 200.309554 -461.282609 
L 201.151551 -462.228401 
L 201.993549 -461.913137 
L 202.835546 -460.841239 
L 203.677543 -462.291454 
L 204.519541 -461.345662 
L 205.361538 -461.219556 
L 206.203535 -461.156503 
L 207.045533 -460.967345 
L 207.88753 -460.904292 
L 208.729528 -461.345662 
L 209.571525 -461.723978 
L 210.413522 -461.97619 
L 211.25552 -461.282609 
L 212.097517 -460.336816 
L 212.939514 -460.399869 
L 213.781512 -460.904292 
L 214.623509 -460.778186 
L 215.465507 -460.462922 
L 216.307504 -460.778186 
L 217.149501 -460.399869 
L 217.991499 -460.399869 
L 218.833496 -459.895446 
L 219.675493 -460.904292 
L 220.517491 -460.778186 
L 221.359488 -459.832394 
L 222.201486 -459.769341 
L 223.043483 -459.580182 
L 223.88548 -460.021552 
L 224.727478 -460.084605 
L 225.569475 -459.832394 
L 226.411472 -460.210711 
L 227.25347 -460.084605 
L 228.095467 -460.147658 
L 228.937465 -459.958499 
L 229.779462 -459.895446 
L 230.621459 -459.580182 
L 231.463457 -459.391024 
L 232.305454 -459.895446 
L 233.147451 -459.454077 
L 233.989449 -459.138813 
L 234.831446 -459.580182 
L 235.673444 -459.706288 
L 236.515441 -459.327971 
L 237.357438 -459.327971 
L 238.199436 -459.832394 
L 239.041433 -458.760496 
L 239.88343 -459.391024 
L 240.725428 -459.706288 
L 241.567425 -460.210711 
L 242.409423 -459.264918 
L 243.25142 -459.264918 
L 244.093417 -459.012707 
L 244.935415 -459.391024 
L 245.777412 -459.706288 
L 246.619409 -459.07576 
L 247.461407 -459.264918 
L 248.303404 -459.327971 
L 249.145402 -459.769341 
L 249.987399 -459.201865 
L 250.829396 -460.021552 
L 251.671394 -459.832394 
L 252.513391 -459.895446 
L 253.355388 -459.580182 
L 254.197386 -459.012707 
L 255.039383 -459.706288 
L 255.881381 -459.769341 
L 256.723378 -460.147658 
L 257.565375 -459.201865 
L 258.407373 -460.841239 
L 259.24937 -460.462922 
L 260.091367 -459.832394 
L 260.933365 -460.65208 
L 261.775362 -460.147658 
L 262.61736 -461.09345 
L 263.459357 -460.778186 
L 264.301354 -462.732824 
L 265.143352 -461.850084 
L 265.985349 -463.552511 
L 266.827346 -464.43525 
L 267.669344 -464.624409 
L 268.511341 -466.263782 
L 269.353339 -467.840103 
L 270.195336 -469.038107 
L 271.037333 -468.912001 
L 271.879331 -462.921982 
L 271.879331 -457.373333 
L 271.879331 -457.373333 
L 271.037333 -457.373333 
L 270.195336 -457.373333 
L 269.353339 -457.373333 
L 268.511341 -457.373333 
L 267.669344 -457.373333 
L 266.827346 -457.373333 
L 265.985349 -457.373333 
L 265.143352 -457.373333 
L 264.301354 -457.373333 
L 263.459357 -457.373333 
L 262.61736 -457.373333 
L 261.775362 -457.373333 
L 260.933365 -457.373333 
L 260.091367 -457.373333 
L 259.24937 -457.373333 
L 258.407373 -457.373333 
L 257.565375 -457.373333 
L 256.723378 -457.373333 
L 255.881381 -457.373333 
L 255.039383 -457.373333 
L 254.197386 -457.373333 
L 253.355388 -457.373333 
L 252.513391 -457.373333 
L 251.671394 -457.373333 
L 250.829396 -457.373333 
L 249.987399 -457.373333 
L 249.145402 -457.373333 
L 248.303404 -457.373333 
L 247.461407 -457.373333 
L 246.619409 -457.373333 
L 245.777412 -457.373333 
L 244.935415 -457.373333 
L 244.093417 -457.373333 
L 243.25142 -457.373333 
L 242.409423 -457.373333 
L 241.567425 -457.373333 
L 240.725428 -457.373333 
L 239.88343 -457.373333 
L 239.041433 -457.373333 
L 238.199436 -457.373333 
L 237.357438 -457.373333 
L 236.515441 -457.373333 
L 235.673444 -457.373333 
L 234.831446 -457.373333 
L 233.989449 -457.373333 
L 233.147451 -457.373333 
L 232.305454 -457.373333 
L 231.463457 -457.373333 
L 230.621459 -457.373333 
L 229.779462 -457.373333 
L 228.937465 -457.373333 
L 228.095467 -457.373333 
L 227.25347 -457.373333 
L 226.411472 -457.373333 
L 225.569475 -457.373333 
L 224.727478 -457.373333 
L 223.88548 -457.373333 
L 223.043483 -457.373333 
L 222.201486 -457.373333 
L 221.359488 -457.373333 
L 220.517491 -457.373333 
L 219.675493 -457.373333 
L 218.833496 -457.373333 
L 217.991499 -457.373333 
L 217.149501 -457.373333 
L 216.307504 -457.373333 
L 215.465507 -457.373333 
L 214.623509 -457.373333 
L 213.781512 -457.373333 
L 212.939514 -457.373333 
L 212.097517 -457.373333 
L 211.25552 -457.373333 
L 210.413522 -457.373333 
L 209.571525 -457.373333 
L 208.729528 -457.373333 
L 207.88753 -457.373333 
L 207.045533 -457.373333 
L 206.203535 -457.373333 
L 205.361538 -457.373333 
L 204.519541 -457.373333 
L 203.677543 -457.373333 
L 202.835546 -457.373333 
L 201.993549 -457.373333 
L 201.151551 -457.373333 
L 200.309554 -457.373333 
L 199.467556 -457.373333 
L 198.625559 -457.373333 
L 197.783562 -457.373333 
L 196.941564 -457.373333 
L 196.099567 -457.373333 
L 195.25757 -457.373333 
L 194.415572 -457.373333 
L 193.573575 -457.373333 
L 192.731577 -457.373333 
L 191.88958 -457.373333 
L 191.047583 -457.373333 
L 190.205585 -457.373333 
L 189.363588 -457.373333 
L 188.521591 -457.373333 
L 187.679593 -457.373333 
L 186.837596 -457.373333 
L 185.995598 -457.373333 
L 185.153601 -457.373333 
L 184.311604 -457.373333 
L 183.469606 -457.373333 
L 182.627609 -457.373333 
L 181.785612 -457.373333 
L 180.943614 -457.373333 
L 180.101617 -457.373333 
L 179.259619 -457.373333 
L 178.417622 -457.373333 
L 177.575625 -457.373333 
L 176.733627 -457.373333 
L 175.89163 -457.373333 
L 175.049633 -457.373333 
L 174.207635 -457.373333 
L 173.365638 -457.373333 
L 172.52364 -457.373333 
L 171.681643 -457.373333 
L 170.839646 -457.373333 
L 169.997648 -457.373333 
L 169.155651 -457.373333 
L 168.313654 -457.373333 
L 167.471656 -457.373333 
L 166.629659 -457.373333 
L 165.787661 -457.373333 
L 164.945664 -457.373333 
L 164.103667 -457.373333 
L 163.261669 -457.373333 
L 162.419672 -457.373333 
L 161.577675 -457.373333 
L 160.735677 -457.373333 
L 159.89368 -457.373333 
L 159.051682 -457.373333 
L 158.209685 -457.373333 
L 157.367688 -457.373333 
L 156.52569 -457.373333 
L 155.683693 -457.373333 
L 154.841696 -457.373333 
L 153.999698 -457.373333 
L 153.157701 -457.373333 
L 152.315703 -457.373333 
L 151.473706 -457.373333 
L 150.631709 -457.373333 
L 149.789711 -457.373333 
L 148.947714 -457.373333 
L 148.105717 -457.373333 
L 147.263719 -457.373333 
L 146.421722 -457.373333 
L 145.579724 -457.373333 
L 144.737727 -457.373333 
L 143.89573 -457.373333 
L 143.053732 -457.373333 
L 142.211735 -457.373333 
L 141.369738 -457.373333 
L 140.52774 -457.373333 
L 139.685743 -457.373333 
L 138.843745 -457.373333 
L 138.001748 -457.373333 
L 137.159751 -457.373333 
L 136.317753 -457.373333 
L 135.475756 -457.373333 
L 134.633759 -457.373333 
L 133.791761 -457.373333 
L 132.949764 -457.373333 
L 132.107766 -457.373333 
L 131.265769 -457.373333 
L 130.423772 -457.373333 
L 129.581774 -457.373333 
L 128.739777 -457.373333 
L 127.89778 -457.373333 
L 127.055782 -457.373333 
L 126.213785 -457.373333 
L 125.371787 -457.373333 
L 124.52979 -457.373333 
L 123.687793 -457.373333 
L 122.845795 -457.373333 
L 122.003798 -457.373333 
L 121.161801 -457.373333 
L 120.319803 -457.373333 
L 119.477806 -457.373333 
L 118.635808 -457.373333 
L 117.793811 -457.373333 
L 116.951814 -457.373333 
L 116.109816 -457.373333 
L 115.267819 -457.373333 
L 114.425822 -457.373333 
L 113.583824 -457.373333 
L 112.741827 -457.373333 
L 111.899829 -457.373333 
L 111.057832 -457.373333 
L 110.215835 -457.373333 
L 109.373837 -457.373333 
L 108.53184 -457.373333 
L 107.689843 -457.373333 
L 106.847845 -457.373333 
L 106.005848 -457.373333 
L 105.16385 -457.373333 
L 104.321853 -457.373333 
L 103.479856 -457.373333 
L 102.637858 -457.373333 
L 101.795861 -457.373333 
L 100.953864 -457.373333 
L 100.111866 -457.373333 
L 99.269869 -457.373333 
L 98.427871 -457.373333 
L 97.585874 -457.373333 
L 96.743877 -457.373333 
L 95.901879 -457.373333 
L 95.059882 -457.373333 
L 94.217885 -457.373333 
L 93.375887 -457.373333 
L 92.53389 -457.373333 
L 91.691892 -457.373333 
L 90.849895 -457.373333 
L 90.007898 -457.373333 
L 89.1659 -457.373333 
L 88.323903 -457.373333 
L 87.481906 -457.373333 
L 86.639908 -457.373333 
L 85.797911 -457.373333 
L 84.955913 -457.373333 
L 84.113916 -457.373333 
L 83.271919 -457.373333 
L 82.429921 -457.373333 
L 81.587924 -457.373333 
L 80.745927 -457.373333 
L 79.903929 -457.373333 
L 79.061932 -457.373333 
L 78.219934 -457.373333 
L 77.377937 -457.373333 
L 76.53594 -457.373333 
L 75.693942 -457.373333 
L 74.851945 -457.373333 
L 74.009948 -457.373333 
L 73.16795 -457.373333 
L 72.325953 -457.373333 
L 71.483955 -457.373333 
L 70.641958 -457.373333 
L 69.799961 -457.373333 
L 68.957963 -457.373333 
L 68.115966 -457.373333 
L 67.273969 -457.373333 
L 66.431971 -457.373333 
L 65.589974 -457.373333 
L 64.747976 -457.373333 
L 63.905979 -457.373333 
L 63.063982 -457.373333 
L 62.221984 -457.373333 
L 61.379987 -457.373333 
L 60.53799 -457.373333 
L 59.695992 -457.373333 
L 58.853995 -457.373333 
L 58.011997 -457.373333 
L 57.17 -457.373333 
z
" style="stroke: #ff0000; stroke-opacity: 0.4"/>
    </defs>
    <g clip-path="url(#p4454c0f327)">
     <use xlink:href="#mc442e4056a" x="0" y="648" style="fill: #ff0000; fill-opacity: 0.4; stroke: #ff0000; stroke-opacity: 0.4"/>
    </g>
   </g>
   <g id="matplotlib.axis_1">
    <g id="xtick_1">
     <g id="line2d_1">
      <defs>
       <path id="mfe2b505892" d="M 0 0 
L 0 3.5 
" style="stroke: #000000; stroke-width: 0.8"/>
      </defs>
      <g>
       <use xlink:href="#mfe2b505892" x="57.17" y="190.626667" style="stroke: #000000; stroke-width: 0.8"/>
      </g>
     </g>
     <g id="text_1">
      <!-- 0 -->
      <g transform="translate(53.98875 205.225104) scale(0.1 -0.1)">
       <defs>
        <path id="DejaVuSans-30" d="M 2034 4250 
Q 1547 4250 1301 3770 
Q 1056 3291 1056 2328 
Q 1056 1369 1301 889 
Q 1547 409 2034 409 
Q 2525 409 2770 889 
Q 3016 1369 3016 2328 
Q 3016 3291 2770 3770 
Q 2525 4250 2034 4250 
z
M 2034 4750 
Q 2819 4750 3233 4129 
Q 3647 3509 3647 2328 
Q 3647 1150 3233 529 
Q 2819 -91 2034 -91 
Q 1250 -91 836 529 
Q 422 1150 422 2328 
Q 422 3509 836 4129 
Q 1250 4750 2034 4750 
z
" transform="scale(0.015625)"/>
       </defs>
       <use xlink:href="#DejaVuSans-30"/>
      </g>
     </g>
    </g>
    <g id="xtick_2">
     <g id="line2d_2">
      <g>
       <use xlink:href="#mfe2b505892" x="99.269869" y="190.626667" style="stroke: #000000; stroke-width: 0.8"/>
      </g>
     </g>
     <g id="text_2">
      <!-- 50 -->
      <g transform="translate(92.907369 205.225104) scale(0.1 -0.1)">
       <defs>
        <path id="DejaVuSans-35" d="M 691 4666 
L 3169 4666 
L 3169 4134 
L 1269 4134 
L 1269 2991 
Q 1406 3038 1543 3061 
Q 1681 3084 1819 3084 
Q 2600 3084 3056 2656 
Q 3513 2228 3513 1497 
Q 3513 744 3044 326 
Q 2575 -91 1722 -91 
Q 1428 -91 1123 -41 
Q 819 9 494 109 
L 494 744 
Q 775 591 1075 516 
Q 1375 441 1709 441 
Q 2250 441 2565 725 
Q 2881 1009 2881 1497 
Q 2881 1984 2565 2268 
Q 2250 2553 1709 2553 
Q 1456 2553 1204 2497 
Q 953 2441 691 2322 
L 691 4666 
z
" transform="scale(0.015625)"/>
       </defs>
       <use xlink:href="#DejaVuSans-35"/>
       <use xlink:href="#DejaVuSans-30" x="63.623047"/>
      </g>
     </g>
    </g>
    <g id="xtick_3">
     <g id="line2d_3">
      <g>
       <use xlink:href="#mfe2b505892" x="141.369738" y="190.626667" style="stroke: #000000; stroke-width: 0.8"/>
      </g>
     </g>
     <g id="text_3">
      <!-- 100 -->
      <g transform="translate(131.825988 205.225104) scale(0.1 -0.1)">
       <defs>
        <path id="DejaVuSans-31" d="M 794 531 
L 1825 531 
L 1825 4091 
L 703 3866 
L 703 4441 
L 1819 4666 
L 2450 4666 
L 2450 531 
L 3481 531 
L 3481 0 
L 794 0 
L 794 531 
z
" transform="scale(0.015625)"/>
       </defs>
       <use xlink:href="#DejaVuSans-31"/>
       <use xlink:href="#DejaVuSans-30" x="63.623047"/>
       <use xlink:href="#DejaVuSans-30" x="127.246094"/>
      </g>
     </g>
    </g>
    <g id="xtick_4">
     <g id="line2d_4">
      <g>
       <use xlink:href="#mfe2b505892" x="183.469606" y="190.626667" style="stroke: #000000; stroke-width: 0.8"/>
      </g>
     </g>
     <g id="text_4">
      <!-- 150 -->
      <g transform="translate(173.925856 205.225104) scale(0.1 -0.1)">
       <use xlink:href="#DejaVuSans-31"/>
       <use xlink:href="#DejaVuSans-35" x="63.623047"/>
       <use xlink:href="#DejaVuSans-30" x="127.246094"/>
      </g>
     </g>
    </g>
    <g id="xtick_5">
     <g id="line2d_5">
      <g>
       <use xlink:href="#mfe2b505892" x="225.569475" y="190.626667" style="stroke: #000000; stroke-width: 0.8"/>
      </g>
     </g>
     <g id="text_5">
      <!-- 200 -->
      <g transform="translate(216.025725 205.225104) scale(0.1 -0.1)">
       <defs>
        <path id="DejaVuSans-32" d="M 1228 531 
L 3431 531 
L 3431 0 
L 469 0 
L 469 531 
Q 828 903 1448 1529 
Q 2069 2156 2228 2338 
Q 2531 2678 2651 2914 
Q 2772 3150 2772 3378 
Q 2772 3750 2511 3984 
Q 2250 4219 1831 4219 
Q 1534 4219 1204 4116 
Q 875 4013 500 3803 
L 500 4441 
Q 881 4594 1212 4672 
Q 1544 4750 1819 4750 
Q 2544 4750 2975 4387 
Q 3406 4025 3406 3419 
Q 3406 3131 3298 2873 
Q 3191 2616 2906 2266 
Q 2828 2175 2409 1742 
Q 1991 1309 1228 531 
z
" transform="scale(0.015625)"/>
       </defs>
       <use xlink:href="#DejaVuSans-32"/>
       <use xlink:href="#DejaVuSans-30" x="63.623047"/>
       <use xlink:href="#DejaVuSans-30" x="127.246094"/>
      </g>
     </g>
    </g>
    <g id="xtick_6">
     <g id="line2d_6">
      <g>
       <use xlink:href="#mfe2b505892" x="267.669344" y="190.626667" style="stroke: #000000; stroke-width: 0.8"/>
      </g>
     </g>
     <g id="text_6">
      <!-- 250 -->
      <g transform="translate(258.125594 205.225104) scale(0.1 -0.1)">
       <use xlink:href="#DejaVuSans-32"/>
       <use xlink:href="#DejaVuSans-35" x="63.623047"/>
       <use xlink:href="#DejaVuSans-30" x="127.246094"/>
      </g>
     </g>
    </g>
   </g>
   <g id="matplotlib.axis_2">
    <g id="ytick_1">
     <g id="line2d_7">
      <defs>
       <path id="m0b77ca8b48" d="M 0 0 
L -3.5 0 
" style="stroke: #000000; stroke-width: 0.8"/>
      </defs>
      <g>
       <use xlink:href="#m0b77ca8b48" x="57.17" y="190.626667" style="stroke: #000000; stroke-width: 0.8"/>
      </g>
     </g>
     <g id="text_7">
      <!-- 0 -->
      <g transform="translate(43.8075 194.425885) scale(0.1 -0.1)">
       <use xlink:href="#DejaVuSans-30"/>
      </g>
     </g>
    </g>
    <g id="ytick_2">
     <g id="line2d_8">
      <g>
       <use xlink:href="#m0b77ca8b48" x="57.17" y="159.100252" style="stroke: #000000; stroke-width: 0.8"/>
      </g>
     </g>
     <g id="text_8">
      <!-- 500 -->
      <g transform="translate(31.0825 162.899471) scale(0.1 -0.1)">
       <use xlink:href="#DejaVuSans-35"/>
       <use xlink:href="#DejaVuSans-30" x="63.623047"/>
       <use xlink:href="#DejaVuSans-30" x="127.246094"/>
      </g>
     </g>
    </g>
    <g id="ytick_3">
     <g id="line2d_9">
      <g>
       <use xlink:href="#m0b77ca8b48" x="57.17" y="127.573838" style="stroke: #000000; stroke-width: 0.8"/>
      </g>
     </g>
     <g id="text_9">
      <!-- 1000 -->
      <g transform="translate(24.72 131.373057) scale(0.1 -0.1)">
       <use xlink:href="#DejaVuSans-31"/>
       <use xlink:href="#DejaVuSans-30" x="63.623047"/>
       <use xlink:href="#DejaVuSans-30" x="127.246094"/>
       <use xlink:href="#DejaVuSans-30" x="190.869141"/>
      </g>
     </g>
    </g>
    <g id="ytick_4">
     <g id="line2d_10">
      <g>
       <use xlink:href="#m0b77ca8b48" x="57.17" y="96.047424" style="stroke: #000000; stroke-width: 0.8"/>
      </g>
     </g>
     <g id="text_10">
      <!-- 1500 -->
      <g transform="translate(24.72 99.846643) scale(0.1 -0.1)">
       <use xlink:href="#DejaVuSans-31"/>
       <use xlink:href="#DejaVuSans-35" x="63.623047"/>
       <use xlink:href="#DejaVuSans-30" x="127.246094"/>
       <use xlink:href="#DejaVuSans-30" x="190.869141"/>
      </g>
     </g>
    </g>
    <g id="ytick_5">
     <g id="line2d_11">
      <g>
       <use xlink:href="#m0b77ca8b48" x="57.17" y="64.52101" style="stroke: #000000; stroke-width: 0.8"/>
      </g>
     </g>
     <g id="text_11">
      <!-- 2000 -->
      <g transform="translate(24.72 68.320229) scale(0.1 -0.1)">
       <use xlink:href="#DejaVuSans-32"/>
       <use xlink:href="#DejaVuSans-30" x="63.623047"/>
       <use xlink:href="#DejaVuSans-30" x="127.246094"/>
       <use xlink:href="#DejaVuSans-30" x="190.869141"/>
      </g>
     </g>
    </g>
    <g id="ytick_6">
     <g id="line2d_12">
      <g>
       <use xlink:href="#m0b77ca8b48" x="57.17" y="32.994596" style="stroke: #000000; stroke-width: 0.8"/>
      </g>
     </g>
     <g id="text_12">
      <!-- 2500 -->
      <g transform="translate(24.72 36.793814) scale(0.1 -0.1)">
       <use xlink:href="#DejaVuSans-32"/>
       <use xlink:href="#DejaVuSans-35" x="63.623047"/>
       <use xlink:href="#DejaVuSans-30" x="127.246094"/>
       <use xlink:href="#DejaVuSans-30" x="190.869141"/>
      </g>
     </g>
    </g>
    <g id="text_13">
     <!-- Pixel Frequency -->
     <g transform="translate(18.640313 139.69224) rotate(-90) scale(0.1 -0.1)">
      <defs>
       <path id="DejaVuSans-50" d="M 1259 4147 
L 1259 2394 
L 2053 2394 
Q 2494 2394 2734 2622 
Q 2975 2850 2975 3272 
Q 2975 3691 2734 3919 
Q 2494 4147 2053 4147 
L 1259 4147 
z
M 628 4666 
L 2053 4666 
Q 2838 4666 3239 4311 
Q 3641 3956 3641 3272 
Q 3641 2581 3239 2228 
Q 2838 1875 2053 1875 
L 1259 1875 
L 1259 0 
L 628 0 
L 628 4666 
z
" transform="scale(0.015625)"/>
       <path id="DejaVuSans-69" d="M 603 3500 
L 1178 3500 
L 1178 0 
L 603 0 
L 603 3500 
z
M 603 4863 
L 1178 4863 
L 1178 4134 
L 603 4134 
L 603 4863 
z
" transform="scale(0.015625)"/>
       <path id="DejaVuSans-78" d="M 3513 3500 
L 2247 1797 
L 3578 0 
L 2900 0 
L 1881 1375 
L 863 0 
L 184 0 
L 1544 1831 
L 300 3500 
L 978 3500 
L 1906 2253 
L 2834 3500 
L 3513 3500 
z
" transform="scale(0.015625)"/>
       <path id="DejaVuSans-65" d="M 3597 1894 
L 3597 1613 
L 953 1613 
Q 991 1019 1311 708 
Q 1631 397 2203 397 
Q 2534 397 2845 478 
Q 3156 559 3463 722 
L 3463 178 
Q 3153 47 2828 -22 
Q 2503 -91 2169 -91 
Q 1331 -91 842 396 
Q 353 884 353 1716 
Q 353 2575 817 3079 
Q 1281 3584 2069 3584 
Q 2775 3584 3186 3129 
Q 3597 2675 3597 1894 
z
M 3022 2063 
Q 3016 2534 2758 2815 
Q 2500 3097 2075 3097 
Q 1594 3097 1305 2825 
Q 1016 2553 972 2059 
L 3022 2063 
z
" transform="scale(0.015625)"/>
       <path id="DejaVuSans-6c" d="M 603 4863 
L 1178 4863 
L 1178 0 
L 603 0 
L 603 4863 
z
" transform="scale(0.015625)"/>
       <path id="DejaVuSans-20" transform="scale(0.015625)"/>
       <path id="DejaVuSans-46" d="M 628 4666 
L 3309 4666 
L 3309 4134 
L 1259 4134 
L 1259 2759 
L 3109 2759 
L 3109 2228 
L 1259 2228 
L 1259 0 
L 628 0 
L 628 4666 
z
" transform="scale(0.015625)"/>
       <path id="DejaVuSans-72" d="M 2631 2963 
Q 2534 3019 2420 3045 
Q 2306 3072 2169 3072 
Q 1681 3072 1420 2755 
Q 1159 2438 1159 1844 
L 1159 0 
L 581 0 
L 581 3500 
L 1159 3500 
L 1159 2956 
Q 1341 3275 1631 3429 
Q 1922 3584 2338 3584 
Q 2397 3584 2469 3576 
Q 2541 3569 2628 3553 
L 2631 2963 
z
" transform="scale(0.015625)"/>
       <path id="DejaVuSans-71" d="M 947 1747 
Q 947 1113 1208 752 
Q 1469 391 1925 391 
Q 2381 391 2643 752 
Q 2906 1113 2906 1747 
Q 2906 2381 2643 2742 
Q 2381 3103 1925 3103 
Q 1469 3103 1208 2742 
Q 947 2381 947 1747 
z
M 2906 525 
Q 2725 213 2448 61 
Q 2172 -91 1784 -91 
Q 1150 -91 751 415 
Q 353 922 353 1747 
Q 353 2572 751 3078 
Q 1150 3584 1784 3584 
Q 2172 3584 2448 3432 
Q 2725 3281 2906 2969 
L 2906 3500 
L 3481 3500 
L 3481 -1331 
L 2906 -1331 
L 2906 525 
z
" transform="scale(0.015625)"/>
       <path id="DejaVuSans-75" d="M 544 1381 
L 544 3500 
L 1119 3500 
L 1119 1403 
Q 1119 906 1312 657 
Q 1506 409 1894 409 
Q 2359 409 2629 706 
Q 2900 1003 2900 1516 
L 2900 3500 
L 3475 3500 
L 3475 0 
L 2900 0 
L 2900 538 
Q 2691 219 2414 64 
Q 2138 -91 1772 -91 
Q 1169 -91 856 284 
Q 544 659 544 1381 
z
M 1991 3584 
L 1991 3584 
z
" transform="scale(0.015625)"/>
       <path id="DejaVuSans-6e" d="M 3513 2113 
L 3513 0 
L 2938 0 
L 2938 2094 
Q 2938 2591 2744 2837 
Q 2550 3084 2163 3084 
Q 1697 3084 1428 2787 
Q 1159 2491 1159 1978 
L 1159 0 
L 581 0 
L 581 3500 
L 1159 3500 
L 1159 2956 
Q 1366 3272 1645 3428 
Q 1925 3584 2291 3584 
Q 2894 3584 3203 3211 
Q 3513 2838 3513 2113 
z
" transform="scale(0.015625)"/>
       <path id="DejaVuSans-63" d="M 3122 3366 
L 3122 2828 
Q 2878 2963 2633 3030 
Q 2388 3097 2138 3097 
Q 1578 3097 1268 2742 
Q 959 2388 959 1747 
Q 959 1106 1268 751 
Q 1578 397 2138 397 
Q 2388 397 2633 464 
Q 2878 531 3122 666 
L 3122 134 
Q 2881 22 2623 -34 
Q 2366 -91 2075 -91 
Q 1284 -91 818 406 
Q 353 903 353 1747 
Q 353 2603 823 3093 
Q 1294 3584 2113 3584 
Q 2378 3584 2631 3529 
Q 2884 3475 3122 3366 
z
" transform="scale(0.015625)"/>
       <path id="DejaVuSans-79" d="M 2059 -325 
Q 1816 -950 1584 -1140 
Q 1353 -1331 966 -1331 
L 506 -1331 
L 506 -850 
L 844 -850 
Q 1081 -850 1212 -737 
Q 1344 -625 1503 -206 
L 1606 56 
L 191 3500 
L 800 3500 
L 1894 763 
L 2988 3500 
L 3597 3500 
L 2059 -325 
z
" transform="scale(0.015625)"/>
      </defs>
      <use xlink:href="#DejaVuSans-50"/>
      <use xlink:href="#DejaVuSans-69" x="58.052734"/>
      <use xlink:href="#DejaVuSans-78" x="85.835938"/>
      <use xlink:href="#DejaVuSans-65" x="141.890625"/>
      <use xlink:href="#DejaVuSans-6c" x="203.414062"/>
      <use xlink:href="#DejaVuSans-20" x="231.197266"/>
      <use xlink:href="#DejaVuSans-46" x="262.984375"/>
      <use xlink:href="#DejaVuSans-72" x="313.253906"/>
      <use xlink:href="#DejaVuSans-65" x="352.117188"/>
      <use xlink:href="#DejaVuSans-71" x="413.640625"/>
      <use xlink:href="#DejaVuSans-75" x="477.117188"/>
      <use xlink:href="#DejaVuSans-65" x="540.496094"/>
      <use xlink:href="#DejaVuSans-6e" x="602.019531"/>
      <use xlink:href="#DejaVuSans-63" x="665.398438"/>
      <use xlink:href="#DejaVuSans-79" x="720.378906"/>
     </g>
    </g>
   </g>
   <g id="line2d_13">
    <path d="M 57.17 190.626667 
L 90.007898 190.563614 
L 91.691892 190.24835 
L 93.375887 189.428663 
L 94.217885 188.167606 
L 95.059882 185.897705 
L 95.901879 184.510542 
L 96.743877 178.079154 
L 98.427871 160.172151 
L 100.111866 129.339317 
L 100.953864 117.926755 
L 101.795861 102.226601 
L 102.637858 102.478813 
L 103.479856 103.235446 
L 104.321853 108.910201 
L 105.16385 110.423469 
L 106.005848 116.47654 
L 107.689843 130.789532 
L 109.373837 142.3282 
L 110.215835 142.76957 
L 111.057832 147.309374 
L 112.741827 154.497396 
L 113.583824 152.3536 
L 114.425822 156.13677 
L 115.267819 155.127924 
L 116.109816 153.614656 
L 116.951814 154.37129 
L 117.793811 154.497396 
L 118.635808 153.929921 
L 119.477806 155.569294 
L 120.319803 154.938766 
L 121.161801 156.199822 
L 122.003798 158.406671 
L 122.845795 157.71309 
L 123.687793 156.704245 
L 124.52979 160.109098 
L 125.371787 160.802679 
L 126.213785 156.704245 
L 127.055782 162.820369 
L 127.89778 162.252894 
L 128.739777 160.676573 
L 129.581774 164.018373 
L 130.423772 163.829215 
L 131.265769 162.883422 
L 132.107766 161.433207 
L 132.949764 165.153324 
L 133.791761 165.720799 
L 134.633759 166.099116 
L 135.475756 167.171014 
L 136.317753 165.090271 
L 137.159751 168.999547 
L 138.001748 170.134497 
L 138.843745 166.603539 
L 139.685743 170.19755 
L 140.52774 167.423226 
L 141.369738 170.954184 
L 142.211735 171.458607 
L 143.053732 169.251758 
L 143.89573 173.53935 
L 144.737727 173.034928 
L 145.579724 171.584712 
L 146.421722 172.089135 
L 147.263719 173.09798 
L 148.947714 174.611248 
L 149.789711 173.728509 
L 151.473706 175.99841 
L 152.315703 176.691992 
L 153.157701 174.232931 
L 153.999698 174.737354 
L 154.841696 176.88115 
L 155.683693 176.628939 
L 156.52569 177.32252 
L 157.367688 177.511678 
L 158.209685 178.331365 
L 159.051682 177.889995 
L 159.89368 177.133361 
L 160.735677 177.196414 
L 162.419672 179.529369 
L 163.261669 178.520524 
L 164.103667 177.953048 
L 164.945664 178.457471 
L 165.787661 178.394418 
L 166.629659 179.403263 
L 167.471656 179.087999 
L 168.313654 179.907686 
L 169.155651 181.042637 
L 169.997648 181.862324 
L 170.839646 181.168742 
L 172.52364 182.555905 
L 174.207635 181.988429 
L 175.049633 182.303693 
L 176.733627 183.56475 
L 177.575625 183.186433 
L 178.417622 183.56475 
L 179.259619 182.997274 
L 180.101617 183.880014 
L 180.943614 183.312539 
L 181.785612 185.014965 
L 182.627609 184.00612 
L 183.469606 185.204123 
L 184.311604 184.951912 
L 185.153601 184.951912 
L 186.837596 184.132225 
L 187.679593 184.132225 
L 188.521591 184.447489 
L 189.363588 185.456335 
L 190.205585 184.510542 
L 191.047583 185.393282 
L 191.88958 184.762754 
L 192.731577 185.204123 
L 193.573575 184.132225 
L 194.415572 184.699701 
L 195.25757 185.834652 
L 196.099567 185.330229 
L 196.941564 186.591286 
L 197.783562 185.708546 
L 198.625559 186.276022 
L 199.467556 186.402127 
L 200.309554 186.717391 
L 201.151551 185.771599 
L 201.993549 186.086863 
L 202.835546 187.158761 
L 203.677543 185.708546 
L 204.519541 186.654338 
L 207.88753 187.095708 
L 209.571525 186.276022 
L 210.413522 186.02381 
L 211.25552 186.717391 
L 212.097517 187.663184 
L 212.939514 187.600131 
L 213.781512 187.095708 
L 214.623509 187.221814 
L 215.465507 187.537078 
L 216.307504 187.221814 
L 217.149501 187.600131 
L 217.991499 187.600131 
L 218.833496 188.104554 
L 219.675493 187.095708 
L 220.517491 187.221814 
L 221.359488 188.167606 
L 222.201486 188.230659 
L 223.043483 188.419818 
L 223.88548 187.978448 
L 224.727478 187.915395 
L 225.569475 188.167606 
L 226.411472 187.789289 
L 227.25347 187.915395 
L 228.095467 187.852342 
L 228.937465 188.041501 
L 229.779462 188.104554 
L 230.621459 188.419818 
L 231.463457 188.608976 
L 232.305454 188.104554 
L 233.147451 188.545923 
L 233.989449 188.861187 
L 234.831446 188.419818 
L 235.673444 188.293712 
L 236.515441 188.672029 
L 237.357438 188.672029 
L 238.199436 188.167606 
L 239.041433 189.239504 
L 239.88343 188.608976 
L 240.725428 188.293712 
L 241.567425 187.789289 
L 242.409423 188.735082 
L 243.25142 188.735082 
L 244.093417 188.987293 
L 245.777412 188.293712 
L 246.619409 188.92424 
L 247.461407 188.735082 
L 248.303404 188.672029 
L 249.145402 188.230659 
L 249.987399 188.798135 
L 250.829396 187.978448 
L 251.671394 188.167606 
L 252.513391 188.104554 
L 253.355388 188.419818 
L 254.197386 188.987293 
L 255.039383 188.293712 
L 255.881381 188.230659 
L 256.723378 187.852342 
L 257.565375 188.798135 
L 258.407373 187.158761 
L 259.24937 187.537078 
L 260.091367 188.167606 
L 260.933365 187.34792 
L 261.775362 187.852342 
L 262.61736 186.90655 
L 263.459357 187.221814 
L 264.301354 185.267176 
L 265.143352 186.149916 
L 265.985349 184.447489 
L 266.827346 183.56475 
L 267.669344 183.375591 
L 269.353339 180.159897 
L 270.195336 178.961893 
L 271.037333 179.087999 
L 271.879331 185.078018 
L 271.879331 185.078018 
" clip-path="url(#p4454c0f327)" style="fill: none; stroke: #ff0000; stroke-width: 1.5; stroke-linecap: square"/>
   </g>
   <g id="patch_3">
    <path d="M 57.17 190.626667 
L 57.17 10.8 
" style="fill: none; stroke: #000000; stroke-width: 0.8; stroke-linejoin: miter; stroke-linecap: square"/>
   </g>
   <g id="patch_4">
    <path d="M 272.721328 190.626667 
L 272.721328 10.8 
" style="fill: none; stroke: #000000; stroke-width: 0.8; stroke-linejoin: miter; stroke-linecap: square"/>
   </g>
   <g id="patch_5">
    <path d="M 57.17 190.626667 
L 272.721328 190.626667 
" style="fill: none; stroke: #000000; stroke-width: 0.8; stroke-linejoin: miter; stroke-linecap: square"/>
   </g>
   <g id="patch_6">
    <path d="M 57.17 10.8 
L 272.721328 10.8 
" style="fill: none; stroke: #000000; stroke-width: 0.8; stroke-linejoin: miter; stroke-linecap: square"/>
   </g>
   <g id="text_14">
    <!-- Red Channel  -->
    <g transform="translate(193.028203 24.8) scale(0.12 -0.12)">
     <defs>
      <path id="DejaVuSans-52" d="M 2841 2188 
Q 3044 2119 3236 1894 
Q 3428 1669 3622 1275 
L 4263 0 
L 3584 0 
L 2988 1197 
Q 2756 1666 2539 1819 
Q 2322 1972 1947 1972 
L 1259 1972 
L 1259 0 
L 628 0 
L 628 4666 
L 2053 4666 
Q 2853 4666 3247 4331 
Q 3641 3997 3641 3322 
Q 3641 2881 3436 2590 
Q 3231 2300 2841 2188 
z
M 1259 4147 
L 1259 2491 
L 2053 2491 
Q 2509 2491 2742 2702 
Q 2975 2913 2975 3322 
Q 2975 3731 2742 3939 
Q 2509 4147 2053 4147 
L 1259 4147 
z
" transform="scale(0.015625)"/>
      <path id="DejaVuSans-64" d="M 2906 2969 
L 2906 4863 
L 3481 4863 
L 3481 0 
L 2906 0 
L 2906 525 
Q 2725 213 2448 61 
Q 2172 -91 1784 -91 
Q 1150 -91 751 415 
Q 353 922 353 1747 
Q 353 2572 751 3078 
Q 1150 3584 1784 3584 
Q 2172 3584 2448 3432 
Q 2725 3281 2906 2969 
z
M 947 1747 
Q 947 1113 1208 752 
Q 1469 391 1925 391 
Q 2381 391 2643 752 
Q 2906 1113 2906 1747 
Q 2906 2381 2643 2742 
Q 2381 3103 1925 3103 
Q 1469 3103 1208 2742 
Q 947 2381 947 1747 
z
" transform="scale(0.015625)"/>
      <path id="DejaVuSans-43" d="M 4122 4306 
L 4122 3641 
Q 3803 3938 3442 4084 
Q 3081 4231 2675 4231 
Q 1875 4231 1450 3742 
Q 1025 3253 1025 2328 
Q 1025 1406 1450 917 
Q 1875 428 2675 428 
Q 3081 428 3442 575 
Q 3803 722 4122 1019 
L 4122 359 
Q 3791 134 3420 21 
Q 3050 -91 2638 -91 
Q 1578 -91 968 557 
Q 359 1206 359 2328 
Q 359 3453 968 4101 
Q 1578 4750 2638 4750 
Q 3056 4750 3426 4639 
Q 3797 4528 4122 4306 
z
" transform="scale(0.015625)"/>
      <path id="DejaVuSans-68" d="M 3513 2113 
L 3513 0 
L 2938 0 
L 2938 2094 
Q 2938 2591 2744 2837 
Q 2550 3084 2163 3084 
Q 1697 3084 1428 2787 
Q 1159 2491 1159 1978 
L 1159 0 
L 581 0 
L 581 4863 
L 1159 4863 
L 1159 2956 
Q 1366 3272 1645 3428 
Q 1925 3584 2291 3584 
Q 2894 3584 3203 3211 
Q 3513 2838 3513 2113 
z
" transform="scale(0.015625)"/>
      <path id="DejaVuSans-61" d="M 2194 1759 
Q 1497 1759 1228 1600 
Q 959 1441 959 1056 
Q 959 750 1161 570 
Q 1363 391 1709 391 
Q 2188 391 2477 730 
Q 2766 1069 2766 1631 
L 2766 1759 
L 2194 1759 
z
M 3341 1997 
L 3341 0 
L 2766 0 
L 2766 531 
Q 2569 213 2275 61 
Q 1981 -91 1556 -91 
Q 1019 -91 701 211 
Q 384 513 384 1019 
Q 384 1609 779 1909 
Q 1175 2209 1959 2209 
L 2766 2209 
L 2766 2266 
Q 2766 2663 2505 2880 
Q 2244 3097 1772 3097 
Q 1472 3097 1187 3025 
Q 903 2953 641 2809 
L 641 3341 
Q 956 3463 1253 3523 
Q 1550 3584 1831 3584 
Q 2591 3584 2966 3190 
Q 3341 2797 3341 1997 
z
" transform="scale(0.015625)"/>
     </defs>
     <use xlink:href="#DejaVuSans-52"/>
     <use xlink:href="#DejaVuSans-65" x="64.982422"/>
     <use xlink:href="#DejaVuSans-64" x="126.505859"/>
     <use xlink:href="#DejaVuSans-20" x="189.982422"/>
     <use xlink:href="#DejaVuSans-43" x="221.769531"/>
     <use xlink:href="#DejaVuSans-68" x="291.59375"/>
     <use xlink:href="#DejaVuSans-61" x="354.972656"/>
     <use xlink:href="#DejaVuSans-6e" x="416.251953"/>
     <use xlink:href="#DejaVuSans-6e" x="479.630859"/>
     <use xlink:href="#DejaVuSans-65" x="543.009766"/>
     <use xlink:href="#DejaVuSans-6c" x="604.533203"/>
     <use xlink:href="#DejaVuSans-20" x="632.316406"/>
    </g>
   </g>
  </g>
  <g id="axes_2">
   <g id="patch_7">
    <path d="M 57.17 398.333333 
L 272.721328 398.333333 
L 272.721328 218.506667 
L 57.17 218.506667 
z
" style="fill: #ffffff"/>
   </g>
   <g id="PolyCollection_2">
    <defs>
     <path id="mf325d4df95" d="M 57.17 -249.666667 
L 57.17 -249.666667 
L 58.011997 -249.666667 
L 58.853995 -249.666667 
L 59.695992 -249.666667 
L 60.53799 -249.666667 
L 61.379987 -249.666667 
L 62.221984 -249.666667 
L 63.063982 -249.666667 
L 63.905979 -249.666667 
L 64.747976 -249.666667 
L 65.589974 -249.666667 
L 66.431971 -249.666667 
L 67.273969 -249.666667 
L 68.115966 -249.666667 
L 68.957963 -249.666667 
L 69.799961 -249.666667 
L 70.641958 -249.666667 
L 71.483955 -249.666667 
L 72.325953 -249.666667 
L 73.16795 -249.666667 
L 74.009948 -249.666667 
L 74.851945 -249.666667 
L 75.693942 -249.666667 
L 76.53594 -249.666667 
L 77.377937 -249.666667 
L 78.219934 -249.666667 
L 79.061932 -249.666667 
L 79.903929 -249.666667 
L 80.745927 -249.666667 
L 81.587924 -249.666667 
L 82.429921 -249.666667 
L 83.271919 -249.666667 
L 84.113916 -249.666667 
L 84.955913 -249.666667 
L 85.797911 -249.666667 
L 86.639908 -249.729719 
L 87.481906 -249.729719 
L 88.323903 -249.918878 
L 89.1659 -250.549406 
L 90.007898 -250.675512 
L 90.849895 -251.495199 
L 91.691892 -252.819308 
L 92.53389 -253.702048 
L 93.375887 -258.115746 
L 94.217885 -263.664395 
L 95.059882 -271.545998 
L 95.901879 -284.850145 
L 96.743877 -293.236171 
L 97.585874 -309.188537 
L 98.427871 -320.348887 
L 99.269869 -333.842193 
L 100.111866 -335.35546 
L 100.953864 -335.544619 
L 101.795861 -329.428495 
L 102.637858 -326.465012 
L 103.479856 -317.259299 
L 104.321853 -313.034759 
L 105.16385 -307.170846 
L 106.005848 -304.711786 
L 106.847845 -295.190809 
L 107.689843 -291.849009 
L 108.53184 -286.174254 
L 109.373837 -283.462983 
L 110.215835 -284.534881 
L 111.057832 -279.932024 
L 111.899829 -282.832454 
L 112.741827 -282.138873 
L 113.583824 -280.751711 
L 114.425822 -279.932024 
L 115.267819 -281.823609 
L 116.109816 -278.860126 
L 116.951814 -279.61676 
L 117.793811 -280.373394 
L 118.635808 -279.112338 
L 119.477806 -279.553707 
L 120.319803 -281.193081 
L 121.161801 -279.995077 
L 122.003798 -278.544862 
L 122.845795 -277.788228 
L 123.687793 -276.590224 
L 124.52979 -276.905489 
L 125.371787 -275.896643 
L 126.213785 -274.320323 
L 127.055782 -276.27496 
L 127.89778 -273.752847 
L 128.739777 -274.950851 
L 129.581774 -274.950851 
L 130.423772 -272.491791 
L 131.265769 -271.798209 
L 132.107766 -270.411047 
L 132.949764 -272.554843 
L 133.791761 -270.284942 
L 134.633759 -272.491791 
L 135.475756 -269.149991 
L 136.317753 -270.91547 
L 137.159751 -271.419892 
L 138.001748 -269.402202 
L 138.843745 -268.897779 
L 139.685743 -269.59136 
L 140.52774 -268.141145 
L 141.369738 -267.825881 
L 142.211735 -269.023885 
L 143.053732 -266.123455 
L 143.89573 -266.943142 
L 144.737727 -268.897779 
L 145.579724 -267.447564 
L 146.421722 -266.249561 
L 147.263719 -265.492927 
L 148.105717 -268.01504 
L 148.947714 -266.060402 
L 149.789711 -263.853553 
L 150.631709 -264.610187 
L 151.473706 -264.042712 
L 152.315703 -265.492927 
L 153.157701 -264.168817 
L 153.999698 -264.862398 
L 154.841696 -262.970813 
L 155.683693 -264.862398 
L 156.52569 -264.105764 
L 157.367688 -262.592496 
L 158.209685 -264.042712 
L 159.051682 -261.583651 
L 159.89368 -261.205334 
L 160.735677 -262.088074 
L 161.577675 -261.205334 
L 162.419672 -259.376802 
L 163.261669 -260.259542 
L 164.103667 -261.142281 
L 164.945664 -259.818172 
L 165.787661 -262.151127 
L 166.629659 -259.250697 
L 167.471656 -259.187644 
L 168.313654 -260.385647 
L 169.155651 -258.115746 
L 169.997648 -259.881225 
L 170.839646 -260.070383 
L 171.681643 -259.439855 
L 172.52364 -258.746274 
L 173.365638 -259.629014 
L 174.207635 -260.511753 
L 175.049633 -258.494063 
L 175.89163 -258.241851 
L 176.733627 -257.98964 
L 177.575625 -257.800482 
L 178.417622 -256.098055 
L 179.259619 -256.665531 
L 180.101617 -257.169953 
L 180.943614 -256.287214 
L 181.785612 -257.737429 
L 182.627609 -256.287214 
L 183.469606 -257.54827 
L 184.311604 -256.161108 
L 185.153601 -256.161108 
L 185.995598 -256.476372 
L 186.837596 -255.97195 
L 187.679593 -255.719738 
L 188.521591 -255.152263 
L 189.363588 -255.656685 
L 190.205585 -254.900051 
L 191.047583 -255.908897 
L 191.88958 -255.341421 
L 192.731577 -254.332576 
L 193.573575 -254.963104 
L 194.415572 -255.53058 
L 195.25757 -254.836999 
L 196.099567 -254.773946 
L 196.941564 -255.026157 
L 197.783562 -254.080365 
L 198.625559 -254.836999 
L 199.467556 -254.395629 
L 200.309554 -255.278368 
L 201.151551 -254.900051 
L 201.993549 -254.332576 
L 202.835546 -254.458682 
L 203.677543 -254.64784 
L 204.519541 -254.458682 
L 205.361538 -254.900051 
L 206.203535 -254.395629 
L 207.045533 -254.395629 
L 207.88753 -255.53058 
L 208.729528 -254.017312 
L 209.571525 -253.638995 
L 210.413522 -253.512889 
L 211.25552 -254.143417 
L 212.097517 -253.828153 
L 212.939514 -253.765101 
L 213.781512 -254.836999 
L 214.623509 -253.134572 
L 215.465507 -254.143417 
L 216.307504 -254.080365 
L 217.149501 -253.954259 
L 217.991499 -254.458682 
L 218.833496 -253.954259 
L 219.675493 -252.567097 
L 220.517491 -253.008467 
L 221.359488 -253.008467 
L 222.201486 -253.260678 
L 223.043483 -253.449836 
L 223.88548 -253.008467 
L 224.727478 -253.638995 
L 225.569475 -254.017312 
L 226.411472 -253.638995 
L 227.25347 -252.882361 
L 228.095467 -252.819308 
L 228.937465 -253.071519 
L 229.779462 -253.323731 
L 230.621459 -253.134572 
L 231.463457 -253.449836 
L 232.305454 -252.945414 
L 233.147451 -252.945414 
L 233.989449 -254.080365 
L 234.831446 -253.323731 
L 235.673444 -253.071519 
L 236.515441 -253.260678 
L 237.357438 -252.945414 
L 238.199436 -252.377938 
L 239.041433 -253.512889 
L 239.88343 -253.323731 
L 240.725428 -252.882361 
L 241.567425 -252.567097 
L 242.409423 -252.819308 
L 243.25142 -253.828153 
L 244.093417 -252.504044 
L 244.935415 -252.819308 
L 245.777412 -252.945414 
L 246.619409 -253.008467 
L 247.461407 -253.512889 
L 248.303404 -252.63015 
L 249.145402 -253.197625 
L 249.987399 -252.945414 
L 250.829396 -252.504044 
L 251.671394 -253.071519 
L 252.513391 -252.314885 
L 253.355388 -253.323731 
L 254.197386 -252.693202 
L 255.039383 -252.504044 
L 255.881381 -253.638995 
L 256.723378 -253.323731 
L 257.565375 -252.756255 
L 258.407373 -253.449836 
L 259.24937 -253.891206 
L 260.091367 -252.819308 
L 260.933365 -253.638995 
L 261.775362 -253.702048 
L 262.61736 -253.891206 
L 263.459357 -253.702048 
L 264.301354 -254.773946 
L 265.143352 -254.963104 
L 265.985349 -255.782791 
L 266.827346 -258.304904 
L 267.669344 -258.052693 
L 268.511341 -260.574806 
L 269.353339 -262.718602 
L 270.195336 -265.871244 
L 271.037333 -270.03273 
L 271.879331 -253.765101 
L 271.879331 -249.666667 
L 271.879331 -249.666667 
L 271.037333 -249.666667 
L 270.195336 -249.666667 
L 269.353339 -249.666667 
L 268.511341 -249.666667 
L 267.669344 -249.666667 
L 266.827346 -249.666667 
L 265.985349 -249.666667 
L 265.143352 -249.666667 
L 264.301354 -249.666667 
L 263.459357 -249.666667 
L 262.61736 -249.666667 
L 261.775362 -249.666667 
L 260.933365 -249.666667 
L 260.091367 -249.666667 
L 259.24937 -249.666667 
L 258.407373 -249.666667 
L 257.565375 -249.666667 
L 256.723378 -249.666667 
L 255.881381 -249.666667 
L 255.039383 -249.666667 
L 254.197386 -249.666667 
L 253.355388 -249.666667 
L 252.513391 -249.666667 
L 251.671394 -249.666667 
L 250.829396 -249.666667 
L 249.987399 -249.666667 
L 249.145402 -249.666667 
L 248.303404 -249.666667 
L 247.461407 -249.666667 
L 246.619409 -249.666667 
L 245.777412 -249.666667 
L 244.935415 -249.666667 
L 244.093417 -249.666667 
L 243.25142 -249.666667 
L 242.409423 -249.666667 
L 241.567425 -249.666667 
L 240.725428 -249.666667 
L 239.88343 -249.666667 
L 239.041433 -249.666667 
L 238.199436 -249.666667 
L 237.357438 -249.666667 
L 236.515441 -249.666667 
L 235.673444 -249.666667 
L 234.831446 -249.666667 
L 233.989449 -249.666667 
L 233.147451 -249.666667 
L 232.305454 -249.666667 
L 231.463457 -249.666667 
L 230.621459 -249.666667 
L 229.779462 -249.666667 
L 228.937465 -249.666667 
L 228.095467 -249.666667 
L 227.25347 -249.666667 
L 226.411472 -249.666667 
L 225.569475 -249.666667 
L 224.727478 -249.666667 
L 223.88548 -249.666667 
L 223.043483 -249.666667 
L 222.201486 -249.666667 
L 221.359488 -249.666667 
L 220.517491 -249.666667 
L 219.675493 -249.666667 
L 218.833496 -249.666667 
L 217.991499 -249.666667 
L 217.149501 -249.666667 
L 216.307504 -249.666667 
L 215.465507 -249.666667 
L 214.623509 -249.666667 
L 213.781512 -249.666667 
L 212.939514 -249.666667 
L 212.097517 -249.666667 
L 211.25552 -249.666667 
L 210.413522 -249.666667 
L 209.571525 -249.666667 
L 208.729528 -249.666667 
L 207.88753 -249.666667 
L 207.045533 -249.666667 
L 206.203535 -249.666667 
L 205.361538 -249.666667 
L 204.519541 -249.666667 
L 203.677543 -249.666667 
L 202.835546 -249.666667 
L 201.993549 -249.666667 
L 201.151551 -249.666667 
L 200.309554 -249.666667 
L 199.467556 -249.666667 
L 198.625559 -249.666667 
L 197.783562 -249.666667 
L 196.941564 -249.666667 
L 196.099567 -249.666667 
L 195.25757 -249.666667 
L 194.415572 -249.666667 
L 193.573575 -249.666667 
L 192.731577 -249.666667 
L 191.88958 -249.666667 
L 191.047583 -249.666667 
L 190.205585 -249.666667 
L 189.363588 -249.666667 
L 188.521591 -249.666667 
L 187.679593 -249.666667 
L 186.837596 -249.666667 
L 185.995598 -249.666667 
L 185.153601 -249.666667 
L 184.311604 -249.666667 
L 183.469606 -249.666667 
L 182.627609 -249.666667 
L 181.785612 -249.666667 
L 180.943614 -249.666667 
L 180.101617 -249.666667 
L 179.259619 -249.666667 
L 178.417622 -249.666667 
L 177.575625 -249.666667 
L 176.733627 -249.666667 
L 175.89163 -249.666667 
L 175.049633 -249.666667 
L 174.207635 -249.666667 
L 173.365638 -249.666667 
L 172.52364 -249.666667 
L 171.681643 -249.666667 
L 170.839646 -249.666667 
L 169.997648 -249.666667 
L 169.155651 -249.666667 
L 168.313654 -249.666667 
L 167.471656 -249.666667 
L 166.629659 -249.666667 
L 165.787661 -249.666667 
L 164.945664 -249.666667 
L 164.103667 -249.666667 
L 163.261669 -249.666667 
L 162.419672 -249.666667 
L 161.577675 -249.666667 
L 160.735677 -249.666667 
L 159.89368 -249.666667 
L 159.051682 -249.666667 
L 158.209685 -249.666667 
L 157.367688 -249.666667 
L 156.52569 -249.666667 
L 155.683693 -249.666667 
L 154.841696 -249.666667 
L 153.999698 -249.666667 
L 153.157701 -249.666667 
L 152.315703 -249.666667 
L 151.473706 -249.666667 
L 150.631709 -249.666667 
L 149.789711 -249.666667 
L 148.947714 -249.666667 
L 148.105717 -249.666667 
L 147.263719 -249.666667 
L 146.421722 -249.666667 
L 145.579724 -249.666667 
L 144.737727 -249.666667 
L 143.89573 -249.666667 
L 143.053732 -249.666667 
L 142.211735 -249.666667 
L 141.369738 -249.666667 
L 140.52774 -249.666667 
L 139.685743 -249.666667 
L 138.843745 -249.666667 
L 138.001748 -249.666667 
L 137.159751 -249.666667 
L 136.317753 -249.666667 
L 135.475756 -249.666667 
L 134.633759 -249.666667 
L 133.791761 -249.666667 
L 132.949764 -249.666667 
L 132.107766 -249.666667 
L 131.265769 -249.666667 
L 130.423772 -249.666667 
L 129.581774 -249.666667 
L 128.739777 -249.666667 
L 127.89778 -249.666667 
L 127.055782 -249.666667 
L 126.213785 -249.666667 
L 125.371787 -249.666667 
L 124.52979 -249.666667 
L 123.687793 -249.666667 
L 122.845795 -249.666667 
L 122.003798 -249.666667 
L 121.161801 -249.666667 
L 120.319803 -249.666667 
L 119.477806 -249.666667 
L 118.635808 -249.666667 
L 117.793811 -249.666667 
L 116.951814 -249.666667 
L 116.109816 -249.666667 
L 115.267819 -249.666667 
L 114.425822 -249.666667 
L 113.583824 -249.666667 
L 112.741827 -249.666667 
L 111.899829 -249.666667 
L 111.057832 -249.666667 
L 110.215835 -249.666667 
L 109.373837 -249.666667 
L 108.53184 -249.666667 
L 107.689843 -249.666667 
L 106.847845 -249.666667 
L 106.005848 -249.666667 
L 105.16385 -249.666667 
L 104.321853 -249.666667 
L 103.479856 -249.666667 
L 102.637858 -249.666667 
L 101.795861 -249.666667 
L 100.953864 -249.666667 
L 100.111866 -249.666667 
L 99.269869 -249.666667 
L 98.427871 -249.666667 
L 97.585874 -249.666667 
L 96.743877 -249.666667 
L 95.901879 -249.666667 
L 95.059882 -249.666667 
L 94.217885 -249.666667 
L 93.375887 -249.666667 
L 92.53389 -249.666667 
L 91.691892 -249.666667 
L 90.849895 -249.666667 
L 90.007898 -249.666667 
L 89.1659 -249.666667 
L 88.323903 -249.666667 
L 87.481906 -249.666667 
L 86.639908 -249.666667 
L 85.797911 -249.666667 
L 84.955913 -249.666667 
L 84.113916 -249.666667 
L 83.271919 -249.666667 
L 82.429921 -249.666667 
L 81.587924 -249.666667 
L 80.745927 -249.666667 
L 79.903929 -249.666667 
L 79.061932 -249.666667 
L 78.219934 -249.666667 
L 77.377937 -249.666667 
L 76.53594 -249.666667 
L 75.693942 -249.666667 
L 74.851945 -249.666667 
L 74.009948 -249.666667 
L 73.16795 -249.666667 
L 72.325953 -249.666667 
L 71.483955 -249.666667 
L 70.641958 -249.666667 
L 69.799961 -249.666667 
L 68.957963 -249.666667 
L 68.115966 -249.666667 
L 67.273969 -249.666667 
L 66.431971 -249.666667 
L 65.589974 -249.666667 
L 64.747976 -249.666667 
L 63.905979 -249.666667 
L 63.063982 -249.666667 
L 62.221984 -249.666667 
L 61.379987 -249.666667 
L 60.53799 -249.666667 
L 59.695992 -249.666667 
L 58.853995 -249.666667 
L 58.011997 -249.666667 
L 57.17 -249.666667 
z
" style="stroke: #008000; stroke-opacity: 0.4"/>
    </defs>
    <g clip-path="url(#p42274a4311)">
     <use xlink:href="#mf325d4df95" x="0" y="648" style="fill: #008000; fill-opacity: 0.4; stroke: #008000; stroke-opacity: 0.4"/>
    </g>
   </g>
   <g id="matplotlib.axis_3">
    <g id="xtick_7">
     <g id="line2d_14">
      <g>
       <use xlink:href="#mfe2b505892" x="57.17" y="398.333333" style="stroke: #000000; stroke-width: 0.8"/>
      </g>
     </g>
     <g id="text_15">
      <!-- 0 -->
      <g transform="translate(53.98875 412.931771) scale(0.1 -0.1)">
       <use xlink:href="#DejaVuSans-30"/>
      </g>
     </g>
    </g>
    <g id="xtick_8">
     <g id="line2d_15">
      <g>
       <use xlink:href="#mfe2b505892" x="99.269869" y="398.333333" style="stroke: #000000; stroke-width: 0.8"/>
      </g>
     </g>
     <g id="text_16">
      <!-- 50 -->
      <g transform="translate(92.907369 412.931771) scale(0.1 -0.1)">
       <use xlink:href="#DejaVuSans-35"/>
       <use xlink:href="#DejaVuSans-30" x="63.623047"/>
      </g>
     </g>
    </g>
    <g id="xtick_9">
     <g id="line2d_16">
      <g>
       <use xlink:href="#mfe2b505892" x="141.369738" y="398.333333" style="stroke: #000000; stroke-width: 0.8"/>
      </g>
     </g>
     <g id="text_17">
      <!-- 100 -->
      <g transform="translate(131.825988 412.931771) scale(0.1 -0.1)">
       <use xlink:href="#DejaVuSans-31"/>
       <use xlink:href="#DejaVuSans-30" x="63.623047"/>
       <use xlink:href="#DejaVuSans-30" x="127.246094"/>
      </g>
     </g>
    </g>
    <g id="xtick_10">
     <g id="line2d_17">
      <g>
       <use xlink:href="#mfe2b505892" x="183.469606" y="398.333333" style="stroke: #000000; stroke-width: 0.8"/>
      </g>
     </g>
     <g id="text_18">
      <!-- 150 -->
      <g transform="translate(173.925856 412.931771) scale(0.1 -0.1)">
       <use xlink:href="#DejaVuSans-31"/>
       <use xlink:href="#DejaVuSans-35" x="63.623047"/>
       <use xlink:href="#DejaVuSans-30" x="127.246094"/>
      </g>
     </g>
    </g>
    <g id="xtick_11">
     <g id="line2d_18">
      <g>
       <use xlink:href="#mfe2b505892" x="225.569475" y="398.333333" style="stroke: #000000; stroke-width: 0.8"/>
      </g>
     </g>
     <g id="text_19">
      <!-- 200 -->
      <g transform="translate(216.025725 412.931771) scale(0.1 -0.1)">
       <use xlink:href="#DejaVuSans-32"/>
       <use xlink:href="#DejaVuSans-30" x="63.623047"/>
       <use xlink:href="#DejaVuSans-30" x="127.246094"/>
      </g>
     </g>
    </g>
    <g id="xtick_12">
     <g id="line2d_19">
      <g>
       <use xlink:href="#mfe2b505892" x="267.669344" y="398.333333" style="stroke: #000000; stroke-width: 0.8"/>
      </g>
     </g>
     <g id="text_20">
      <!-- 250 -->
      <g transform="translate(258.125594 412.931771) scale(0.1 -0.1)">
       <use xlink:href="#DejaVuSans-32"/>
       <use xlink:href="#DejaVuSans-35" x="63.623047"/>
       <use xlink:href="#DejaVuSans-30" x="127.246094"/>
      </g>
     </g>
    </g>
   </g>
   <g id="matplotlib.axis_4">
    <g id="ytick_7">
     <g id="line2d_20">
      <g>
       <use xlink:href="#m0b77ca8b48" x="57.17" y="398.333333" style="stroke: #000000; stroke-width: 0.8"/>
      </g>
     </g>
     <g id="text_21">
      <!-- 0 -->
      <g transform="translate(43.8075 402.132552) scale(0.1 -0.1)">
       <use xlink:href="#DejaVuSans-30"/>
      </g>
     </g>
    </g>
    <g id="ytick_8">
     <g id="line2d_21">
      <g>
       <use xlink:href="#m0b77ca8b48" x="57.17" y="366.806919" style="stroke: #000000; stroke-width: 0.8"/>
      </g>
     </g>
     <g id="text_22">
      <!-- 500 -->
      <g transform="translate(31.0825 370.606138) scale(0.1 -0.1)">
       <use xlink:href="#DejaVuSans-35"/>
       <use xlink:href="#DejaVuSans-30" x="63.623047"/>
       <use xlink:href="#DejaVuSans-30" x="127.246094"/>
      </g>
     </g>
    </g>
    <g id="ytick_9">
     <g id="line2d_22">
      <g>
       <use xlink:href="#m0b77ca8b48" x="57.17" y="335.280505" style="stroke: #000000; stroke-width: 0.8"/>
      </g>
     </g>
     <g id="text_23">
      <!-- 1000 -->
      <g transform="translate(24.72 339.079724) scale(0.1 -0.1)">
       <use xlink:href="#DejaVuSans-31"/>
       <use xlink:href="#DejaVuSans-30" x="63.623047"/>
       <use xlink:href="#DejaVuSans-30" x="127.246094"/>
       <use xlink:href="#DejaVuSans-30" x="190.869141"/>
      </g>
     </g>
    </g>
    <g id="ytick_10">
     <g id="line2d_23">
      <g>
       <use xlink:href="#m0b77ca8b48" x="57.17" y="303.754091" style="stroke: #000000; stroke-width: 0.8"/>
      </g>
     </g>
     <g id="text_24">
      <!-- 1500 -->
      <g transform="translate(24.72 307.553309) scale(0.1 -0.1)">
       <use xlink:href="#DejaVuSans-31"/>
       <use xlink:href="#DejaVuSans-35" x="63.623047"/>
       <use xlink:href="#DejaVuSans-30" x="127.246094"/>
       <use xlink:href="#DejaVuSans-30" x="190.869141"/>
      </g>
     </g>
    </g>
    <g id="ytick_11">
     <g id="line2d_24">
      <g>
       <use xlink:href="#m0b77ca8b48" x="57.17" y="272.227676" style="stroke: #000000; stroke-width: 0.8"/>
      </g>
     </g>
     <g id="text_25">
      <!-- 2000 -->
      <g transform="translate(24.72 276.026895) scale(0.1 -0.1)">
       <use xlink:href="#DejaVuSans-32"/>
       <use xlink:href="#DejaVuSans-30" x="63.623047"/>
       <use xlink:href="#DejaVuSans-30" x="127.246094"/>
       <use xlink:href="#DejaVuSans-30" x="190.869141"/>
      </g>
     </g>
    </g>
    <g id="ytick_12">
     <g id="line2d_25">
      <g>
       <use xlink:href="#m0b77ca8b48" x="57.17" y="240.701262" style="stroke: #000000; stroke-width: 0.8"/>
      </g>
     </g>
     <g id="text_26">
      <!-- 2500 -->
      <g transform="translate(24.72 244.500481) scale(0.1 -0.1)">
       <use xlink:href="#DejaVuSans-32"/>
       <use xlink:href="#DejaVuSans-35" x="63.623047"/>
       <use xlink:href="#DejaVuSans-30" x="127.246094"/>
       <use xlink:href="#DejaVuSans-30" x="190.869141"/>
      </g>
     </g>
    </g>
    <g id="text_27">
     <!-- Pixel Frequency -->
     <g transform="translate(18.640313 347.398906) rotate(-90) scale(0.1 -0.1)">
      <use xlink:href="#DejaVuSans-50"/>
      <use xlink:href="#DejaVuSans-69" x="58.052734"/>
      <use xlink:href="#DejaVuSans-78" x="85.835938"/>
      <use xlink:href="#DejaVuSans-65" x="141.890625"/>
      <use xlink:href="#DejaVuSans-6c" x="203.414062"/>
      <use xlink:href="#DejaVuSans-20" x="231.197266"/>
      <use xlink:href="#DejaVuSans-46" x="262.984375"/>
      <use xlink:href="#DejaVuSans-72" x="313.253906"/>
      <use xlink:href="#DejaVuSans-65" x="352.117188"/>
      <use xlink:href="#DejaVuSans-71" x="413.640625"/>
      <use xlink:href="#DejaVuSans-75" x="477.117188"/>
      <use xlink:href="#DejaVuSans-65" x="540.496094"/>
      <use xlink:href="#DejaVuSans-6e" x="602.019531"/>
      <use xlink:href="#DejaVuSans-63" x="665.398438"/>
      <use xlink:href="#DejaVuSans-79" x="720.378906"/>
     </g>
    </g>
   </g>
   <g id="line2d_26">
    <path d="M 57.17 398.333333 
L 87.481906 398.270281 
L 88.323903 398.081122 
L 89.1659 397.450594 
L 90.007898 397.324488 
L 90.849895 396.504801 
L 91.691892 395.180692 
L 92.53389 394.297952 
L 93.375887 389.884254 
L 94.217885 384.335605 
L 95.059882 376.454002 
L 95.901879 363.149855 
L 96.743877 354.763829 
L 97.585874 338.811463 
L 98.427871 327.651113 
L 99.269869 314.157807 
L 100.111866 312.64454 
L 100.953864 312.455381 
L 101.795861 318.571505 
L 102.637858 321.534988 
L 103.479856 330.740701 
L 104.321853 334.965241 
L 105.16385 340.829154 
L 106.005848 343.288214 
L 106.847845 352.809191 
L 107.689843 356.150991 
L 108.53184 361.825746 
L 109.373837 364.537017 
L 110.215835 363.465119 
L 111.057832 368.067976 
L 111.899829 365.167546 
L 112.741827 365.861127 
L 113.583824 367.248289 
L 114.425822 368.067976 
L 115.267819 366.176391 
L 116.109816 369.139874 
L 117.793811 367.626606 
L 118.635808 368.887662 
L 119.477806 368.446293 
L 120.319803 366.806919 
L 121.161801 368.004923 
L 122.003798 369.455138 
L 122.845795 370.211772 
L 123.687793 371.409776 
L 124.52979 371.094511 
L 125.371787 372.103357 
L 126.213785 373.679677 
L 127.055782 371.72504 
L 127.89778 374.247153 
L 128.739777 373.049149 
L 129.581774 373.049149 
L 130.423772 375.508209 
L 131.265769 376.201791 
L 132.107766 377.588953 
L 132.949764 375.445157 
L 133.791761 377.715058 
L 134.633759 375.508209 
L 135.475756 378.850009 
L 136.317753 377.08453 
L 137.159751 376.580108 
L 138.001748 378.597798 
L 138.843745 379.102221 
L 139.685743 378.40864 
L 140.52774 379.858855 
L 141.369738 380.174119 
L 142.211735 378.976115 
L 143.053732 381.876545 
L 143.89573 381.056858 
L 144.737727 379.102221 
L 145.579724 380.552436 
L 146.421722 381.750439 
L 147.263719 382.507073 
L 148.105717 379.98496 
L 149.789711 384.146447 
L 150.631709 383.389813 
L 151.473706 383.957288 
L 152.315703 382.507073 
L 153.157701 383.831183 
L 153.999698 383.137602 
L 154.841696 385.029187 
L 155.683693 383.137602 
L 156.52569 383.894236 
L 157.367688 385.407504 
L 158.209685 383.957288 
L 159.051682 386.416349 
L 159.89368 386.794666 
L 160.735677 385.911926 
L 161.577675 386.794666 
L 162.419672 388.623198 
L 164.103667 386.857719 
L 164.945664 388.181828 
L 165.787661 385.848873 
L 166.629659 388.749303 
L 167.471656 388.812356 
L 168.313654 387.614353 
L 169.155651 389.884254 
L 169.997648 388.118775 
L 170.839646 387.929617 
L 172.52364 389.253726 
L 174.207635 387.488247 
L 175.049633 389.505937 
L 177.575625 390.199518 
L 178.417622 391.901945 
L 180.101617 390.830047 
L 180.943614 391.712786 
L 181.785612 390.262571 
L 182.627609 391.712786 
L 183.469606 390.45173 
L 184.311604 391.838892 
L 185.153601 391.838892 
L 185.995598 391.523628 
L 186.837596 392.02805 
L 187.679593 392.280262 
L 188.521591 392.847737 
L 189.363588 392.343315 
L 190.205585 393.099949 
L 191.047583 392.091103 
L 191.88958 392.658579 
L 192.731577 393.667424 
L 194.415572 392.46942 
L 195.25757 393.163001 
L 196.099567 393.226054 
L 196.941564 392.973843 
L 197.783562 393.919635 
L 198.625559 393.163001 
L 199.467556 393.604371 
L 200.309554 392.721632 
L 201.151551 393.099949 
L 201.993549 393.667424 
L 203.677543 393.35216 
L 204.519541 393.541318 
L 205.361538 393.099949 
L 206.203535 393.604371 
L 207.045533 393.604371 
L 207.88753 392.46942 
L 208.729528 393.982688 
L 209.571525 394.361005 
L 210.413522 394.487111 
L 211.25552 393.856583 
L 212.097517 394.171847 
L 212.939514 394.234899 
L 213.781512 393.163001 
L 214.623509 394.865428 
L 215.465507 393.856583 
L 217.149501 394.045741 
L 217.991499 393.541318 
L 218.833496 394.045741 
L 219.675493 395.432903 
L 220.517491 394.991533 
L 221.359488 394.991533 
L 223.043483 394.550164 
L 223.88548 394.991533 
L 224.727478 394.361005 
L 225.569475 393.982688 
L 226.411472 394.361005 
L 227.25347 395.117639 
L 228.095467 395.180692 
L 229.779462 394.676269 
L 230.621459 394.865428 
L 231.463457 394.550164 
L 232.305454 395.054586 
L 233.147451 395.054586 
L 233.989449 393.919635 
L 234.831446 394.676269 
L 235.673444 394.928481 
L 236.515441 394.739322 
L 237.357438 395.054586 
L 238.199436 395.622062 
L 239.041433 394.487111 
L 239.88343 394.676269 
L 240.725428 395.117639 
L 241.567425 395.432903 
L 242.409423 395.180692 
L 243.25142 394.171847 
L 244.093417 395.495956 
L 244.935415 395.180692 
L 246.619409 394.991533 
L 247.461407 394.487111 
L 248.303404 395.36985 
L 249.145402 394.802375 
L 249.987399 395.054586 
L 250.829396 395.495956 
L 251.671394 394.928481 
L 252.513391 395.685115 
L 253.355388 394.676269 
L 254.197386 395.306798 
L 255.039383 395.495956 
L 255.881381 394.361005 
L 256.723378 394.676269 
L 257.565375 395.243745 
L 258.407373 394.550164 
L 259.24937 394.108794 
L 260.091367 395.180692 
L 260.933365 394.361005 
L 261.775362 394.297952 
L 262.61736 394.108794 
L 263.459357 394.297952 
L 264.301354 393.226054 
L 265.143352 393.036896 
L 265.985349 392.217209 
L 266.827346 389.695096 
L 267.669344 389.947307 
L 268.511341 387.425194 
L 269.353339 385.281398 
L 270.195336 382.128756 
L 271.037333 377.96727 
L 271.879331 394.234899 
L 271.879331 394.234899 
" clip-path="url(#p42274a4311)" style="fill: none; stroke: #008000; stroke-width: 1.5; stroke-linecap: square"/>
   </g>
   <g id="patch_8">
    <path d="M 57.17 398.333333 
L 57.17 218.506667 
" style="fill: none; stroke: #000000; stroke-width: 0.8; stroke-linejoin: miter; stroke-linecap: square"/>
   </g>
   <g id="patch_9">
    <path d="M 272.721328 398.333333 
L 272.721328 218.506667 
" style="fill: none; stroke: #000000; stroke-width: 0.8; stroke-linejoin: miter; stroke-linecap: square"/>
   </g>
   <g id="patch_10">
    <path d="M 57.17 398.333333 
L 272.721328 398.333333 
" style="fill: none; stroke: #000000; stroke-width: 0.8; stroke-linejoin: miter; stroke-linecap: square"/>
   </g>
   <g id="patch_11">
    <path d="M 57.17 218.506667 
L 272.721328 218.506667 
" style="fill: none; stroke: #000000; stroke-width: 0.8; stroke-linejoin: miter; stroke-linecap: square"/>
   </g>
   <g id="text_28">
    <!-- Green Channel  -->
    <g transform="translate(179.494453 232.506667) scale(0.12 -0.12)">
     <defs>
      <path id="DejaVuSans-47" d="M 3809 666 
L 3809 1919 
L 2778 1919 
L 2778 2438 
L 4434 2438 
L 4434 434 
Q 4069 175 3628 42 
Q 3188 -91 2688 -91 
Q 1594 -91 976 548 
Q 359 1188 359 2328 
Q 359 3472 976 4111 
Q 1594 4750 2688 4750 
Q 3144 4750 3555 4637 
Q 3966 4525 4313 4306 
L 4313 3634 
Q 3963 3931 3569 4081 
Q 3175 4231 2741 4231 
Q 1884 4231 1454 3753 
Q 1025 3275 1025 2328 
Q 1025 1384 1454 906 
Q 1884 428 2741 428 
Q 3075 428 3337 486 
Q 3600 544 3809 666 
z
" transform="scale(0.015625)"/>
     </defs>
     <use xlink:href="#DejaVuSans-47"/>
     <use xlink:href="#DejaVuSans-72" x="77.490234"/>
     <use xlink:href="#DejaVuSans-65" x="116.353516"/>
     <use xlink:href="#DejaVuSans-65" x="177.876953"/>
     <use xlink:href="#DejaVuSans-6e" x="239.400391"/>
     <use xlink:href="#DejaVuSans-20" x="302.779297"/>
     <use xlink:href="#DejaVuSans-43" x="334.566406"/>
     <use xlink:href="#DejaVuSans-68" x="404.390625"/>
     <use xlink:href="#DejaVuSans-61" x="467.769531"/>
     <use xlink:href="#DejaVuSans-6e" x="529.048828"/>
     <use xlink:href="#DejaVuSans-6e" x="592.427734"/>
     <use xlink:href="#DejaVuSans-65" x="655.806641"/>
     <use xlink:href="#DejaVuSans-6c" x="717.330078"/>
     <use xlink:href="#DejaVuSans-20" x="745.113281"/>
    </g>
   </g>
  </g>
  <g id="axes_3">
   <g id="patch_12">
    <path d="M 57.17 606.04 
L 272.721328 606.04 
L 272.721328 426.213333 
L 57.17 426.213333 
z
" style="fill: #ffffff"/>
   </g>
   <g id="PolyCollection_3">
    <defs>
     <path id="m818ec8d364" d="M 57.17 -41.96 
L 57.17 -41.96 
L 58.011997 -41.96 
L 58.853995 -41.96 
L 59.695992 -41.96 
L 60.53799 -41.96 
L 61.379987 -41.96 
L 62.221984 -41.96 
L 63.063982 -41.96 
L 63.905979 -41.96 
L 64.747976 -41.96 
L 65.589974 -41.96 
L 66.431971 -41.96 
L 67.273969 -41.96 
L 68.115966 -41.96 
L 68.957963 -41.96 
L 69.799961 -41.96 
L 70.641958 -41.96 
L 71.483955 -41.96 
L 72.325953 -42.023053 
L 73.16795 -41.96 
L 74.009948 -42.779687 
L 74.851945 -43.788532 
L 75.693942 -45.427906 
L 76.53594 -47.445596 
L 77.377937 -56.336045 
L 78.219934 -71.342618 
L 79.061932 -93.600266 
L 79.903929 -126.261632 
L 80.745927 -147.132118 
L 81.587924 -182.126438 
L 82.429921 -186.224871 
L 83.271919 -181.432856 
L 84.113916 -158.040257 
L 84.955913 -138.052511 
L 85.797911 -120.523824 
L 86.639908 -108.354628 
L 87.481906 -100.536078 
L 88.323903 -94.609112 
L 89.1659 -94.609112 
L 90.007898 -91.771734 
L 90.849895 -93.22195 
L 91.691892 -95.113534 
L 92.53389 -89.43878 
L 93.375887 -89.375727 
L 94.217885 -87.988565 
L 95.059882 -87.799406 
L 95.901879 -87.358036 
L 96.743877 -85.65561 
L 97.585874 -81.368018 
L 98.427871 -83.700972 
L 99.269869 -80.422225 
L 100.111866 -81.052754 
L 100.953864 -76.07158 
L 101.795861 -76.51295 
L 102.637858 -75.441052 
L 103.479856 -72.72978 
L 104.321853 -73.423361 
L 105.16385 -71.910094 
L 106.005848 -71.910094 
L 106.847845 -72.28841 
L 107.689843 -70.964301 
L 108.53184 -66.92892 
L 109.373837 -67.496396 
L 110.215835 -67.81166 
L 111.057832 -65.037335 
L 111.899829 -68.757452 
L 112.741827 -68.883558 
L 113.583824 -65.415652 
L 114.425822 -63.839331 
L 115.267819 -65.478705 
L 116.109816 -60.875849 
L 116.951814 -62.136905 
L 117.793811 -61.632482 
L 118.635808 -60.434479 
L 119.477806 -59.488686 
L 120.319803 -60.056162 
L 121.161801 -57.155732 
L 122.003798 -58.164577 
L 122.845795 -60.875849 
L 123.687793 -58.605947 
L 124.52979 -57.281837 
L 125.371787 -57.092679 
L 126.213785 -57.281837 
L 127.055782 -56.083834 
L 127.89778 -55.894675 
L 128.739777 -55.201094 
L 129.581774 -54.066143 
L 130.423772 -52.678981 
L 131.265769 -52.42677 
L 132.107766 -53.057298 
L 132.949764 -52.363717 
L 133.791761 -51.228766 
L 134.633759 -50.976554 
L 135.475756 -51.922347 
L 136.317753 -50.913502 
L 137.159751 -51.165713 
L 138.001748 -50.598237 
L 138.843745 -50.156868 
L 139.685743 -49.841604 
L 140.52774 -49.526339 
L 141.369738 -50.913502 
L 142.211735 -49.148022 
L 143.053732 -49.967709 
L 143.89573 -49.337181 
L 144.737727 -49.400234 
L 145.579724 -49.337181 
L 146.421722 -48.6436 
L 147.263719 -49.715498 
L 148.105717 -48.265283 
L 148.947714 -49.904656 
L 149.789711 -48.265283 
L 150.631709 -48.706653 
L 151.473706 -49.526339 
L 152.315703 -47.76086 
L 153.157701 -48.6436 
L 153.999698 -48.139177 
L 154.841696 -46.688962 
L 155.683693 -47.76086 
L 156.52569 -47.823913 
L 157.367688 -47.634755 
L 158.209685 -46.815068 
L 159.051682 -47.067279 
L 159.89368 -47.950019 
L 160.735677 -47.256438 
L 161.577675 -47.634755 
L 162.419672 -46.815068 
L 163.261669 -46.310645 
L 164.103667 -46.499804 
L 164.945664 -45.995381 
L 165.787661 -47.004226 
L 166.629659 -47.697807 
L 167.471656 -46.562856 
L 168.313654 -46.878121 
L 169.155651 -46.815068 
L 169.997648 -45.490958 
L 170.839646 -46.625909 
L 171.681643 -46.688962 
L 172.52364 -46.688962 
L 173.365638 -45.554011 
L 174.207635 -45.932328 
L 175.049633 -45.74317 
L 175.89163 -45.364853 
L 176.733627 -45.490958 
L 177.575625 -45.364853 
L 178.417622 -44.86043 
L 179.259619 -44.734324 
L 180.101617 -45.680117 
L 180.943614 -45.049589 
L 181.785612 -44.797377 
L 182.627609 -44.797377 
L 183.469606 -44.229902 
L 184.311604 -44.41906 
L 185.153601 -43.977691 
L 185.995598 -44.103796 
L 186.837596 -44.734324 
L 187.679593 -44.482113 
L 188.521591 -44.797377 
L 189.363588 -44.608219 
L 190.205585 -44.608219 
L 191.047583 -43.851585 
L 191.88958 -44.41906 
L 192.731577 -44.482113 
L 193.573575 -44.103796 
L 194.415572 -44.41906 
L 195.25757 -43.851585 
L 196.099567 -44.103796 
L 196.941564 -43.851585 
L 197.783562 -44.103796 
L 198.625559 -44.482113 
L 199.467556 -44.166849 
L 200.309554 -43.662426 
L 201.151551 -43.851585 
L 201.993549 -43.914638 
L 202.835546 -43.725479 
L 203.677543 -43.851585 
L 204.519541 -44.103796 
L 205.361538 -44.040743 
L 206.203535 -44.040743 
L 207.045533 -44.292955 
L 207.88753 -44.41906 
L 208.729528 -44.482113 
L 209.571525 -44.482113 
L 210.413522 -44.356007 
L 211.25552 -43.851585 
L 212.097517 -44.292955 
L 212.939514 -44.482113 
L 213.781512 -43.410215 
L 214.623509 -43.158004 
L 215.465507 -43.662426 
L 216.307504 -44.292955 
L 217.149501 -44.671272 
L 217.991499 -44.103796 
L 218.833496 -43.536321 
L 219.675493 -43.221057 
L 220.517491 -43.410215 
L 221.359488 -43.662426 
L 222.201486 -44.292955 
L 223.043483 -43.410215 
L 223.88548 -42.968845 
L 224.727478 -43.094951 
L 225.569475 -43.725479 
L 226.411472 -43.347162 
L 227.25347 -43.599374 
L 228.095467 -43.410215 
L 228.937465 -43.410215 
L 229.779462 -43.221057 
L 230.621459 -43.725479 
L 231.463457 -43.662426 
L 232.305454 -43.221057 
L 233.147451 -43.473268 
L 233.989449 -42.653581 
L 234.831446 -43.158004 
L 235.673444 -43.221057 
L 236.515441 -43.410215 
L 237.357438 -42.590528 
L 238.199436 -42.968845 
L 239.041433 -42.779687 
L 239.88343 -43.473268 
L 240.725428 -42.905792 
L 241.567425 -42.968845 
L 242.409423 -42.968845 
L 243.25142 -42.905792 
L 244.093417 -43.094951 
L 244.935415 -43.284109 
L 245.777412 -43.284109 
L 246.619409 -43.094951 
L 247.461407 -42.527475 
L 248.303404 -42.590528 
L 249.145402 -43.725479 
L 249.987399 -42.716634 
L 250.829396 -42.716634 
L 251.671394 -42.40137 
L 252.513391 -43.410215 
L 253.355388 -42.653581 
L 254.197386 -43.284109 
L 255.039383 -43.410215 
L 255.881381 -43.473268 
L 256.723378 -42.212211 
L 257.565375 -44.040743 
L 258.407373 -43.725479 
L 259.24937 -44.734324 
L 260.091367 -42.527475 
L 260.933365 -44.797377 
L 261.775362 -43.410215 
L 262.61736 -45.049589 
L 263.459357 -42.338317 
L 264.301354 -42.023053 
L 265.143352 -41.96 
L 265.985349 -41.96 
L 266.827346 -41.96 
L 267.669344 -41.96 
L 268.511341 -41.96 
L 269.353339 -41.96 
L 270.195336 -41.96 
L 271.037333 -41.96 
L 271.879331 -41.96 
L 271.879331 -41.96 
L 271.879331 -41.96 
L 271.037333 -41.96 
L 270.195336 -41.96 
L 269.353339 -41.96 
L 268.511341 -41.96 
L 267.669344 -41.96 
L 266.827346 -41.96 
L 265.985349 -41.96 
L 265.143352 -41.96 
L 264.301354 -41.96 
L 263.459357 -41.96 
L 262.61736 -41.96 
L 261.775362 -41.96 
L 260.933365 -41.96 
L 260.091367 -41.96 
L 259.24937 -41.96 
L 258.407373 -41.96 
L 257.565375 -41.96 
L 256.723378 -41.96 
L 255.881381 -41.96 
L 255.039383 -41.96 
L 254.197386 -41.96 
L 253.355388 -41.96 
L 252.513391 -41.96 
L 251.671394 -41.96 
L 250.829396 -41.96 
L 249.987399 -41.96 
L 249.145402 -41.96 
L 248.303404 -41.96 
L 247.461407 -41.96 
L 246.619409 -41.96 
L 245.777412 -41.96 
L 244.935415 -41.96 
L 244.093417 -41.96 
L 243.25142 -41.96 
L 242.409423 -41.96 
L 241.567425 -41.96 
L 240.725428 -41.96 
L 239.88343 -41.96 
L 239.041433 -41.96 
L 238.199436 -41.96 
L 237.357438 -41.96 
L 236.515441 -41.96 
L 235.673444 -41.96 
L 234.831446 -41.96 
L 233.989449 -41.96 
L 233.147451 -41.96 
L 232.305454 -41.96 
L 231.463457 -41.96 
L 230.621459 -41.96 
L 229.779462 -41.96 
L 228.937465 -41.96 
L 228.095467 -41.96 
L 227.25347 -41.96 
L 226.411472 -41.96 
L 225.569475 -41.96 
L 224.727478 -41.96 
L 223.88548 -41.96 
L 223.043483 -41.96 
L 222.201486 -41.96 
L 221.359488 -41.96 
L 220.517491 -41.96 
L 219.675493 -41.96 
L 218.833496 -41.96 
L 217.991499 -41.96 
L 217.149501 -41.96 
L 216.307504 -41.96 
L 215.465507 -41.96 
L 214.623509 -41.96 
L 213.781512 -41.96 
L 212.939514 -41.96 
L 212.097517 -41.96 
L 211.25552 -41.96 
L 210.413522 -41.96 
L 209.571525 -41.96 
L 208.729528 -41.96 
L 207.88753 -41.96 
L 207.045533 -41.96 
L 206.203535 -41.96 
L 205.361538 -41.96 
L 204.519541 -41.96 
L 203.677543 -41.96 
L 202.835546 -41.96 
L 201.993549 -41.96 
L 201.151551 -41.96 
L 200.309554 -41.96 
L 199.467556 -41.96 
L 198.625559 -41.96 
L 197.783562 -41.96 
L 196.941564 -41.96 
L 196.099567 -41.96 
L 195.25757 -41.96 
L 194.415572 -41.96 
L 193.573575 -41.96 
L 192.731577 -41.96 
L 191.88958 -41.96 
L 191.047583 -41.96 
L 190.205585 -41.96 
L 189.363588 -41.96 
L 188.521591 -41.96 
L 187.679593 -41.96 
L 186.837596 -41.96 
L 185.995598 -41.96 
L 185.153601 -41.96 
L 184.311604 -41.96 
L 183.469606 -41.96 
L 182.627609 -41.96 
L 181.785612 -41.96 
L 180.943614 -41.96 
L 180.101617 -41.96 
L 179.259619 -41.96 
L 178.417622 -41.96 
L 177.575625 -41.96 
L 176.733627 -41.96 
L 175.89163 -41.96 
L 175.049633 -41.96 
L 174.207635 -41.96 
L 173.365638 -41.96 
L 172.52364 -41.96 
L 171.681643 -41.96 
L 170.839646 -41.96 
L 169.997648 -41.96 
L 169.155651 -41.96 
L 168.313654 -41.96 
L 167.471656 -41.96 
L 166.629659 -41.96 
L 165.787661 -41.96 
L 164.945664 -41.96 
L 164.103667 -41.96 
L 163.261669 -41.96 
L 162.419672 -41.96 
L 161.577675 -41.96 
L 160.735677 -41.96 
L 159.89368 -41.96 
L 159.051682 -41.96 
L 158.209685 -41.96 
L 157.367688 -41.96 
L 156.52569 -41.96 
L 155.683693 -41.96 
L 154.841696 -41.96 
L 153.999698 -41.96 
L 153.157701 -41.96 
L 152.315703 -41.96 
L 151.473706 -41.96 
L 150.631709 -41.96 
L 149.789711 -41.96 
L 148.947714 -41.96 
L 148.105717 -41.96 
L 147.263719 -41.96 
L 146.421722 -41.96 
L 145.579724 -41.96 
L 144.737727 -41.96 
L 143.89573 -41.96 
L 143.053732 -41.96 
L 142.211735 -41.96 
L 141.369738 -41.96 
L 140.52774 -41.96 
L 139.685743 -41.96 
L 138.843745 -41.96 
L 138.001748 -41.96 
L 137.159751 -41.96 
L 136.317753 -41.96 
L 135.475756 -41.96 
L 134.633759 -41.96 
L 133.791761 -41.96 
L 132.949764 -41.96 
L 132.107766 -41.96 
L 131.265769 -41.96 
L 130.423772 -41.96 
L 129.581774 -41.96 
L 128.739777 -41.96 
L 127.89778 -41.96 
L 127.055782 -41.96 
L 126.213785 -41.96 
L 125.371787 -41.96 
L 124.52979 -41.96 
L 123.687793 -41.96 
L 122.845795 -41.96 
L 122.003798 -41.96 
L 121.161801 -41.96 
L 120.319803 -41.96 
L 119.477806 -41.96 
L 118.635808 -41.96 
L 117.793811 -41.96 
L 116.951814 -41.96 
L 116.109816 -41.96 
L 115.267819 -41.96 
L 114.425822 -41.96 
L 113.583824 -41.96 
L 112.741827 -41.96 
L 111.899829 -41.96 
L 111.057832 -41.96 
L 110.215835 -41.96 
L 109.373837 -41.96 
L 108.53184 -41.96 
L 107.689843 -41.96 
L 106.847845 -41.96 
L 106.005848 -41.96 
L 105.16385 -41.96 
L 104.321853 -41.96 
L 103.479856 -41.96 
L 102.637858 -41.96 
L 101.795861 -41.96 
L 100.953864 -41.96 
L 100.111866 -41.96 
L 99.269869 -41.96 
L 98.427871 -41.96 
L 97.585874 -41.96 
L 96.743877 -41.96 
L 95.901879 -41.96 
L 95.059882 -41.96 
L 94.217885 -41.96 
L 93.375887 -41.96 
L 92.53389 -41.96 
L 91.691892 -41.96 
L 90.849895 -41.96 
L 90.007898 -41.96 
L 89.1659 -41.96 
L 88.323903 -41.96 
L 87.481906 -41.96 
L 86.639908 -41.96 
L 85.797911 -41.96 
L 84.955913 -41.96 
L 84.113916 -41.96 
L 83.271919 -41.96 
L 82.429921 -41.96 
L 81.587924 -41.96 
L 80.745927 -41.96 
L 79.903929 -41.96 
L 79.061932 -41.96 
L 78.219934 -41.96 
L 77.377937 -41.96 
L 76.53594 -41.96 
L 75.693942 -41.96 
L 74.851945 -41.96 
L 74.009948 -41.96 
L 73.16795 -41.96 
L 72.325953 -41.96 
L 71.483955 -41.96 
L 70.641958 -41.96 
L 69.799961 -41.96 
L 68.957963 -41.96 
L 68.115966 -41.96 
L 67.273969 -41.96 
L 66.431971 -41.96 
L 65.589974 -41.96 
L 64.747976 -41.96 
L 63.905979 -41.96 
L 63.063982 -41.96 
L 62.221984 -41.96 
L 61.379987 -41.96 
L 60.53799 -41.96 
L 59.695992 -41.96 
L 58.853995 -41.96 
L 58.011997 -41.96 
L 57.17 -41.96 
z
" style="stroke: #0000ff; stroke-opacity: 0.4"/>
    </defs>
    <g clip-path="url(#pccf9f5c06b)">
     <use xlink:href="#m818ec8d364" x="0" y="648" style="fill: #0000ff; fill-opacity: 0.4; stroke: #0000ff; stroke-opacity: 0.4"/>
    </g>
   </g>
   <g id="matplotlib.axis_5">
    <g id="xtick_13">
     <g id="line2d_27">
      <g>
       <use xlink:href="#mfe2b505892" x="57.17" y="606.04" style="stroke: #000000; stroke-width: 0.8"/>
      </g>
     </g>
     <g id="text_29">
      <!-- 0 -->
      <g transform="translate(53.98875 620.638438) scale(0.1 -0.1)">
       <use xlink:href="#DejaVuSans-30"/>
      </g>
     </g>
    </g>
    <g id="xtick_14">
     <g id="line2d_28">
      <g>
       <use xlink:href="#mfe2b505892" x="99.269869" y="606.04" style="stroke: #000000; stroke-width: 0.8"/>
      </g>
     </g>
     <g id="text_30">
      <!-- 50 -->
      <g transform="translate(92.907369 620.638438) scale(0.1 -0.1)">
       <use xlink:href="#DejaVuSans-35"/>
       <use xlink:href="#DejaVuSans-30" x="63.623047"/>
      </g>
     </g>
    </g>
    <g id="xtick_15">
     <g id="line2d_29">
      <g>
       <use xlink:href="#mfe2b505892" x="141.369738" y="606.04" style="stroke: #000000; stroke-width: 0.8"/>
      </g>
     </g>
     <g id="text_31">
      <!-- 100 -->
      <g transform="translate(131.825988 620.638438) scale(0.1 -0.1)">
       <use xlink:href="#DejaVuSans-31"/>
       <use xlink:href="#DejaVuSans-30" x="63.623047"/>
       <use xlink:href="#DejaVuSans-30" x="127.246094"/>
      </g>
     </g>
    </g>
    <g id="xtick_16">
     <g id="line2d_30">
      <g>
       <use xlink:href="#mfe2b505892" x="183.469606" y="606.04" style="stroke: #000000; stroke-width: 0.8"/>
      </g>
     </g>
     <g id="text_32">
      <!-- 150 -->
      <g transform="translate(173.925856 620.638438) scale(0.1 -0.1)">
       <use xlink:href="#DejaVuSans-31"/>
       <use xlink:href="#DejaVuSans-35" x="63.623047"/>
       <use xlink:href="#DejaVuSans-30" x="127.246094"/>
      </g>
     </g>
    </g>
    <g id="xtick_17">
     <g id="line2d_31">
      <g>
       <use xlink:href="#mfe2b505892" x="225.569475" y="606.04" style="stroke: #000000; stroke-width: 0.8"/>
      </g>
     </g>
     <g id="text_33">
      <!-- 200 -->
      <g transform="translate(216.025725 620.638438) scale(0.1 -0.1)">
       <use xlink:href="#DejaVuSans-32"/>
       <use xlink:href="#DejaVuSans-30" x="63.623047"/>
       <use xlink:href="#DejaVuSans-30" x="127.246094"/>
      </g>
     </g>
    </g>
    <g id="xtick_18">
     <g id="line2d_32">
      <g>
       <use xlink:href="#mfe2b505892" x="267.669344" y="606.04" style="stroke: #000000; stroke-width: 0.8"/>
      </g>
     </g>
     <g id="text_34">
      <!-- 250 -->
      <g transform="translate(258.125594 620.638438) scale(0.1 -0.1)">
       <use xlink:href="#DejaVuSans-32"/>
       <use xlink:href="#DejaVuSans-35" x="63.623047"/>
       <use xlink:href="#DejaVuSans-30" x="127.246094"/>
      </g>
     </g>
    </g>
    <g id="text_35">
     <!-- Pixel Intensity -->
     <g transform="translate(130.033945 634.316563) scale(0.1 -0.1)">
      <defs>
       <path id="DejaVuSans-49" d="M 628 4666 
L 1259 4666 
L 1259 0 
L 628 0 
L 628 4666 
z
" transform="scale(0.015625)"/>
       <path id="DejaVuSans-74" d="M 1172 4494 
L 1172 3500 
L 2356 3500 
L 2356 3053 
L 1172 3053 
L 1172 1153 
Q 1172 725 1289 603 
Q 1406 481 1766 481 
L 2356 481 
L 2356 0 
L 1766 0 
Q 1100 0 847 248 
Q 594 497 594 1153 
L 594 3053 
L 172 3053 
L 172 3500 
L 594 3500 
L 594 4494 
L 1172 4494 
z
" transform="scale(0.015625)"/>
       <path id="DejaVuSans-73" d="M 2834 3397 
L 2834 2853 
Q 2591 2978 2328 3040 
Q 2066 3103 1784 3103 
Q 1356 3103 1142 2972 
Q 928 2841 928 2578 
Q 928 2378 1081 2264 
Q 1234 2150 1697 2047 
L 1894 2003 
Q 2506 1872 2764 1633 
Q 3022 1394 3022 966 
Q 3022 478 2636 193 
Q 2250 -91 1575 -91 
Q 1294 -91 989 -36 
Q 684 19 347 128 
L 347 722 
Q 666 556 975 473 
Q 1284 391 1588 391 
Q 1994 391 2212 530 
Q 2431 669 2431 922 
Q 2431 1156 2273 1281 
Q 2116 1406 1581 1522 
L 1381 1569 
Q 847 1681 609 1914 
Q 372 2147 372 2553 
Q 372 3047 722 3315 
Q 1072 3584 1716 3584 
Q 2034 3584 2315 3537 
Q 2597 3491 2834 3397 
z
" transform="scale(0.015625)"/>
      </defs>
      <use xlink:href="#DejaVuSans-50"/>
      <use xlink:href="#DejaVuSans-69" x="58.052734"/>
      <use xlink:href="#DejaVuSans-78" x="85.835938"/>
      <use xlink:href="#DejaVuSans-65" x="141.890625"/>
      <use xlink:href="#DejaVuSans-6c" x="203.414062"/>
      <use xlink:href="#DejaVuSans-20" x="231.197266"/>
      <use xlink:href="#DejaVuSans-49" x="262.984375"/>
      <use xlink:href="#DejaVuSans-6e" x="292.476562"/>
      <use xlink:href="#DejaVuSans-74" x="355.855469"/>
      <use xlink:href="#DejaVuSans-65" x="395.064453"/>
      <use xlink:href="#DejaVuSans-6e" x="456.587891"/>
      <use xlink:href="#DejaVuSans-73" x="519.966797"/>
      <use xlink:href="#DejaVuSans-69" x="572.066406"/>
      <use xlink:href="#DejaVuSans-74" x="599.849609"/>
      <use xlink:href="#DejaVuSans-79" x="639.058594"/>
     </g>
    </g>
   </g>
   <g id="matplotlib.axis_6">
    <g id="ytick_13">
     <g id="line2d_33">
      <g>
       <use xlink:href="#m0b77ca8b48" x="57.17" y="606.04" style="stroke: #000000; stroke-width: 0.8"/>
      </g>
     </g>
     <g id="text_36">
      <!-- 0 -->
      <g transform="translate(43.8075 609.839219) scale(0.1 -0.1)">
       <use xlink:href="#DejaVuSans-30"/>
      </g>
     </g>
    </g>
    <g id="ytick_14">
     <g id="line2d_34">
      <g>
       <use xlink:href="#m0b77ca8b48" x="57.17" y="574.513586" style="stroke: #000000; stroke-width: 0.8"/>
      </g>
     </g>
     <g id="text_37">
      <!-- 500 -->
      <g transform="translate(31.0825 578.312805) scale(0.1 -0.1)">
       <use xlink:href="#DejaVuSans-35"/>
       <use xlink:href="#DejaVuSans-30" x="63.623047"/>
       <use xlink:href="#DejaVuSans-30" x="127.246094"/>
      </g>
     </g>
    </g>
    <g id="ytick_15">
     <g id="line2d_35">
      <g>
       <use xlink:href="#m0b77ca8b48" x="57.17" y="542.987172" style="stroke: #000000; stroke-width: 0.8"/>
      </g>
     </g>
     <g id="text_38">
      <!-- 1000 -->
      <g transform="translate(24.72 546.78639) scale(0.1 -0.1)">
       <use xlink:href="#DejaVuSans-31"/>
       <use xlink:href="#DejaVuSans-30" x="63.623047"/>
       <use xlink:href="#DejaVuSans-30" x="127.246094"/>
       <use xlink:href="#DejaVuSans-30" x="190.869141"/>
      </g>
     </g>
    </g>
    <g id="ytick_16">
     <g id="line2d_36">
      <g>
       <use xlink:href="#m0b77ca8b48" x="57.17" y="511.460757" style="stroke: #000000; stroke-width: 0.8"/>
      </g>
     </g>
     <g id="text_39">
      <!-- 1500 -->
      <g transform="translate(24.72 515.259976) scale(0.1 -0.1)">
       <use xlink:href="#DejaVuSans-31"/>
       <use xlink:href="#DejaVuSans-35" x="63.623047"/>
       <use xlink:href="#DejaVuSans-30" x="127.246094"/>
       <use xlink:href="#DejaVuSans-30" x="190.869141"/>
      </g>
     </g>
    </g>
    <g id="ytick_17">
     <g id="line2d_37">
      <g>
       <use xlink:href="#m0b77ca8b48" x="57.17" y="479.934343" style="stroke: #000000; stroke-width: 0.8"/>
      </g>
     </g>
     <g id="text_40">
      <!-- 2000 -->
      <g transform="translate(24.72 483.733562) scale(0.1 -0.1)">
       <use xlink:href="#DejaVuSans-32"/>
       <use xlink:href="#DejaVuSans-30" x="63.623047"/>
       <use xlink:href="#DejaVuSans-30" x="127.246094"/>
       <use xlink:href="#DejaVuSans-30" x="190.869141"/>
      </g>
     </g>
    </g>
    <g id="ytick_18">
     <g id="line2d_38">
      <g>
       <use xlink:href="#m0b77ca8b48" x="57.17" y="448.407929" style="stroke: #000000; stroke-width: 0.8"/>
      </g>
     </g>
     <g id="text_41">
      <!-- 2500 -->
      <g transform="translate(24.72 452.207148) scale(0.1 -0.1)">
       <use xlink:href="#DejaVuSans-32"/>
       <use xlink:href="#DejaVuSans-35" x="63.623047"/>
       <use xlink:href="#DejaVuSans-30" x="127.246094"/>
       <use xlink:href="#DejaVuSans-30" x="190.869141"/>
      </g>
     </g>
    </g>
    <g id="text_42">
     <!-- Pixel Frequency -->
     <g transform="translate(18.640313 555.105573) rotate(-90) scale(0.1 -0.1)">
      <use xlink:href="#DejaVuSans-50"/>
      <use xlink:href="#DejaVuSans-69" x="58.052734"/>
      <use xlink:href="#DejaVuSans-78" x="85.835938"/>
      <use xlink:href="#DejaVuSans-65" x="141.890625"/>
      <use xlink:href="#DejaVuSans-6c" x="203.414062"/>
      <use xlink:href="#DejaVuSans-20" x="231.197266"/>
      <use xlink:href="#DejaVuSans-46" x="262.984375"/>
      <use xlink:href="#DejaVuSans-72" x="313.253906"/>
      <use xlink:href="#DejaVuSans-65" x="352.117188"/>
      <use xlink:href="#DejaVuSans-71" x="413.640625"/>
      <use xlink:href="#DejaVuSans-75" x="477.117188"/>
      <use xlink:href="#DejaVuSans-65" x="540.496094"/>
      <use xlink:href="#DejaVuSans-6e" x="602.019531"/>
      <use xlink:href="#DejaVuSans-63" x="665.398438"/>
      <use xlink:href="#DejaVuSans-79" x="720.378906"/>
     </g>
    </g>
   </g>
   <g id="line2d_39">
    <path d="M 57.17 606.04 
L 73.16795 606.04 
L 74.009948 605.220313 
L 74.851945 604.211468 
L 75.693942 602.572094 
L 76.53594 600.554404 
L 77.377937 591.663955 
L 78.219934 576.657382 
L 79.061932 554.399734 
L 79.903929 521.738368 
L 80.745927 500.867882 
L 81.587924 465.873562 
L 82.429921 461.775129 
L 83.271919 466.567144 
L 84.113916 489.959743 
L 85.797911 527.476176 
L 86.639908 539.645372 
L 87.481906 547.463922 
L 88.323903 553.390888 
L 89.1659 553.390888 
L 90.007898 556.228266 
L 90.849895 554.77805 
L 91.691892 552.886466 
L 92.53389 558.56122 
L 93.375887 558.624273 
L 94.217885 560.011435 
L 95.059882 560.200594 
L 95.901879 560.641964 
L 96.743877 562.34439 
L 97.585874 566.631982 
L 98.427871 564.299028 
L 99.269869 567.577775 
L 100.111866 566.947246 
L 100.953864 571.92842 
L 101.795861 571.48705 
L 102.637858 572.558948 
L 103.479856 575.27022 
L 104.321853 574.576639 
L 105.16385 576.089906 
L 106.005848 576.089906 
L 106.847845 575.71159 
L 107.689843 577.035699 
L 108.53184 581.07108 
L 109.373837 580.503604 
L 110.215835 580.18834 
L 111.057832 582.962665 
L 111.899829 579.242548 
L 112.741827 579.116442 
L 113.583824 582.584348 
L 114.425822 584.160669 
L 115.267819 582.521295 
L 116.109816 587.124151 
L 116.951814 585.863095 
L 117.793811 586.367518 
L 118.635808 587.565521 
L 119.477806 588.511314 
L 120.319803 587.943838 
L 121.161801 590.844268 
L 122.003798 589.835423 
L 122.845795 587.124151 
L 123.687793 589.394053 
L 124.52979 590.718163 
L 125.371787 590.907321 
L 126.213785 590.718163 
L 127.055782 591.916166 
L 127.89778 592.105325 
L 128.739777 592.798906 
L 129.581774 593.933857 
L 130.423772 595.321019 
L 131.265769 595.57323 
L 132.107766 594.942702 
L 132.949764 595.636283 
L 133.791761 596.771234 
L 134.633759 597.023446 
L 135.475756 596.077653 
L 136.317753 597.086498 
L 137.159751 596.834287 
L 138.843745 597.843132 
L 140.52774 598.473661 
L 141.369738 597.086498 
L 142.211735 598.851978 
L 143.053732 598.032291 
L 143.89573 598.662819 
L 144.737727 598.599766 
L 145.579724 598.662819 
L 146.421722 599.3564 
L 147.263719 598.284502 
L 148.105717 599.734717 
L 148.947714 598.095344 
L 149.789711 599.734717 
L 150.631709 599.293347 
L 151.473706 598.473661 
L 152.315703 600.23914 
L 153.157701 599.3564 
L 153.999698 599.860823 
L 154.841696 601.311038 
L 155.683693 600.23914 
L 156.52569 600.176087 
L 157.367688 600.365245 
L 158.209685 601.184932 
L 159.051682 600.932721 
L 159.89368 600.049981 
L 160.735677 600.743562 
L 161.577675 600.365245 
L 162.419672 601.184932 
L 163.261669 601.689355 
L 164.103667 601.500196 
L 164.945664 602.004619 
L 165.787661 600.995774 
L 166.629659 600.302193 
L 167.471656 601.437144 
L 168.313654 601.121879 
L 169.155651 601.184932 
L 169.997648 602.509042 
L 170.839646 601.374091 
L 172.52364 601.311038 
L 173.365638 602.445989 
L 174.207635 602.067672 
L 175.049633 602.25683 
L 175.89163 602.635147 
L 176.733627 602.509042 
L 177.575625 602.635147 
L 178.417622 603.13957 
L 179.259619 603.265676 
L 180.101617 602.319883 
L 180.943614 602.950411 
L 181.785612 603.202623 
L 182.627609 603.202623 
L 183.469606 603.770098 
L 184.311604 603.58094 
L 185.153601 604.022309 
L 185.995598 603.896204 
L 186.837596 603.265676 
L 187.679593 603.517887 
L 188.521591 603.202623 
L 189.363588 603.391781 
L 190.205585 603.391781 
L 191.047583 604.148415 
L 191.88958 603.58094 
L 192.731577 603.517887 
L 193.573575 603.896204 
L 194.415572 603.58094 
L 195.25757 604.148415 
L 196.099567 603.896204 
L 196.941564 604.148415 
L 197.783562 603.896204 
L 198.625559 603.517887 
L 199.467556 603.833151 
L 200.309554 604.337574 
L 201.151551 604.148415 
L 201.993549 604.085362 
L 202.835546 604.274521 
L 203.677543 604.148415 
L 204.519541 603.896204 
L 206.203535 603.959257 
L 207.045533 603.707045 
L 208.729528 603.517887 
L 209.571525 603.517887 
L 210.413522 603.643993 
L 211.25552 604.148415 
L 212.097517 603.707045 
L 212.939514 603.517887 
L 213.781512 604.589785 
L 214.623509 604.841996 
L 217.149501 603.328728 
L 218.833496 604.463679 
L 219.675493 604.778943 
L 221.359488 604.337574 
L 222.201486 603.707045 
L 223.043483 604.589785 
L 223.88548 605.031155 
L 224.727478 604.905049 
L 225.569475 604.274521 
L 226.411472 604.652838 
L 227.25347 604.400626 
L 228.095467 604.589785 
L 228.937465 604.589785 
L 229.779462 604.778943 
L 230.621459 604.274521 
L 231.463457 604.337574 
L 232.305454 604.778943 
L 233.147451 604.526732 
L 233.989449 605.346419 
L 234.831446 604.841996 
L 235.673444 604.778943 
L 236.515441 604.589785 
L 237.357438 605.409472 
L 238.199436 605.031155 
L 239.041433 605.220313 
L 239.88343 604.526732 
L 240.725428 605.094208 
L 242.409423 605.031155 
L 243.25142 605.094208 
L 244.935415 604.715891 
L 245.777412 604.715891 
L 246.619409 604.905049 
L 247.461407 605.472525 
L 248.303404 605.409472 
L 249.145402 604.274521 
L 249.987399 605.283366 
L 250.829396 605.283366 
L 251.671394 605.59863 
L 252.513391 604.589785 
L 253.355388 605.346419 
L 254.197386 604.715891 
L 255.881381 604.526732 
L 256.723378 605.787789 
L 257.565375 603.959257 
L 258.407373 604.274521 
L 259.24937 603.265676 
L 260.091367 605.472525 
L 260.933365 603.202623 
L 261.775362 604.589785 
L 262.61736 602.950411 
L 263.459357 605.661683 
L 264.301354 605.976947 
L 265.985349 606.04 
L 271.879331 606.04 
L 271.879331 606.04 
" clip-path="url(#pccf9f5c06b)" style="fill: none; stroke: #0000ff; stroke-width: 1.5; stroke-linecap: square"/>
   </g>
   <g id="patch_13">
    <path d="M 57.17 606.04 
L 57.17 426.213333 
" style="fill: none; stroke: #000000; stroke-width: 0.8; stroke-linejoin: miter; stroke-linecap: square"/>
   </g>
   <g id="patch_14">
    <path d="M 272.721328 606.04 
L 272.721328 426.213333 
" style="fill: none; stroke: #000000; stroke-width: 0.8; stroke-linejoin: miter; stroke-linecap: square"/>
   </g>
   <g id="patch_15">
    <path d="M 57.17 606.04 
L 272.721328 606.04 
" style="fill: none; stroke: #000000; stroke-width: 0.8; stroke-linejoin: miter; stroke-linecap: square"/>
   </g>
   <g id="patch_16">
    <path d="M 57.17 426.213333 
L 272.721328 426.213333 
" style="fill: none; stroke: #000000; stroke-width: 0.8; stroke-linejoin: miter; stroke-linecap: square"/>
   </g>
   <g id="text_43">
    <!-- Blue Channel  -->
    <g transform="translate(189.272578 440.213333) scale(0.12 -0.12)">
     <defs>
      <path id="DejaVuSans-42" d="M 1259 2228 
L 1259 519 
L 2272 519 
Q 2781 519 3026 730 
Q 3272 941 3272 1375 
Q 3272 1813 3026 2020 
Q 2781 2228 2272 2228 
L 1259 2228 
z
M 1259 4147 
L 1259 2741 
L 2194 2741 
Q 2656 2741 2882 2914 
Q 3109 3088 3109 3444 
Q 3109 3797 2882 3972 
Q 2656 4147 2194 4147 
L 1259 4147 
z
M 628 4666 
L 2241 4666 
Q 2963 4666 3353 4366 
Q 3744 4066 3744 3513 
Q 3744 3084 3544 2831 
Q 3344 2578 2956 2516 
Q 3422 2416 3680 2098 
Q 3938 1781 3938 1306 
Q 3938 681 3513 340 
Q 3088 0 2303 0 
L 628 0 
L 628 4666 
z
" transform="scale(0.015625)"/>
     </defs>
     <use xlink:href="#DejaVuSans-42"/>
     <use xlink:href="#DejaVuSans-6c" x="68.603516"/>
     <use xlink:href="#DejaVuSans-75" x="96.386719"/>
     <use xlink:href="#DejaVuSans-65" x="159.765625"/>
     <use xlink:href="#DejaVuSans-20" x="221.289062"/>
     <use xlink:href="#DejaVuSans-43" x="253.076172"/>
     <use xlink:href="#DejaVuSans-68" x="322.900391"/>
     <use xlink:href="#DejaVuSans-61" x="386.279297"/>
     <use xlink:href="#DejaVuSans-6e" x="447.558594"/>
     <use xlink:href="#DejaVuSans-6e" x="510.9375"/>
     <use xlink:href="#DejaVuSans-65" x="574.316406"/>
     <use xlink:href="#DejaVuSans-6c" x="635.839844"/>
     <use xlink:href="#DejaVuSans-20" x="663.623047"/>
    </g>
   </g>
  </g>
 </g>
 <defs>
  <clipPath id="p4454c0f327">
   <rect x="57.17" y="10.8" width="215.551328" height="179.826667"/>
  </clipPath>
  <clipPath id="p42274a4311">
   <rect x="57.17" y="218.506667" width="215.551328" height="179.826667"/>
  </clipPath>
  <clipPath id="pccf9f5c06b">
   <rect x="57.17" y="426.213333" width="215.551328" height="179.826667"/>
  </clipPath>
 </defs>
</svg>
