<?xml version="1.0" encoding="utf-8" standalone="no"?>
<!DOCTYPE svg PUBLIC "-//W3C//DTD SVG 1.1//EN"
  "http://www.w3.org/Graphics/SVG/1.1/DTD/svg11.dtd">
<svg xmlns:xlink="http://www.w3.org/1999/xlink" width="288pt" height="648pt" viewBox="0 0 288 648" xmlns="http://www.w3.org/2000/svg" version="1.1">
 <metadata>
  <rdf:RDF xmlns:dc="http://purl.org/dc/elements/1.1/" xmlns:cc="http://creativecommons.org/ns#" xmlns:rdf="http://www.w3.org/1999/02/22-rdf-syntax-ns#">
   <cc:Work>
    <dc:type rdf:resource="http://purl.org/dc/dcmitype/StillImage"/>
    <dc:date>2023-11-18T15:20:09.757348</dc:date>
    <dc:format>image/svg+xml</dc:format>
    <dc:creator>
     <cc:Agent>
      <dc:title>Matplotlib v3.8.0, https://matplotlib.org/</dc:title>
     </cc:Agent>
    </dc:creator>
   </cc:Work>
  </rdf:RDF>
 </metadata>
 <defs>
  <style type="text/css">*{stroke-linejoin: round; stroke-linecap: butt}</style>
 </defs>
 <g id="figure_1">
  <g id="patch_1">
   <path d="M 0 648 
L 288 648 
L 288 0 
L 0 0 
z
" style="fill: #ffffff"/>
  </g>
  <g id="axes_1">
   <g id="patch_2">
    <path d="M 57.17 190.626667 
L 272.721328 190.626667 
L 272.721328 10.8 
L 57.17 10.8 
z
" style="fill: #ffffff"/>
   </g>
   <g id="PolyCollection_1">
    <defs>
     <path id="m0ca395406e" d="M 57.17 -457.373333 
L 57.17 -457.373333 
L 58.011997 -457.373333 
L 58.853995 -457.373333 
L 59.695992 -457.373333 
L 60.53799 -457.373333 
L 61.379987 -457.373333 
L 62.221984 -457.373333 
L 63.063982 -457.373333 
L 63.905979 -457.373333 
L 64.747976 -457.373333 
L 65.589974 -457.373333 
L 66.431971 -457.373333 
L 67.273969 -457.373333 
L 68.115966 -457.373333 
L 68.957963 -457.373333 
L 69.799961 -457.373333 
L 70.641958 -457.373333 
L 71.483955 -457.373333 
L 72.325953 -457.373333 
L 73.16795 -457.373333 
L 74.009948 -457.373333 
L 74.851945 -457.373333 
L 75.693942 -457.373333 
L 76.53594 -457.373333 
L 77.377937 -457.373333 
L 78.219934 -457.373333 
L 79.061932 -457.373333 
L 79.903929 -457.373333 
L 80.745927 -457.373333 
L 81.587924 -457.373333 
L 82.429921 -457.373333 
L 83.271919 -457.373333 
L 84.113916 -457.373333 
L 84.955913 -457.373333 
L 85.797911 -457.373333 
L 86.639908 -457.373333 
L 87.481906 -457.373333 
L 88.323903 -457.373333 
L 89.1659 -457.373333 
L 90.007898 -457.373333 
L 90.849895 -457.373333 
L 91.691892 -457.373333 
L 92.53389 -457.373333 
L 93.375887 -457.373333 
L 94.217885 -457.373333 
L 95.059882 -457.373333 
L 95.901879 -457.373333 
L 96.743877 -457.373333 
L 97.585874 -457.373333 
L 98.427871 -457.373333 
L 99.269869 -457.373333 
L 100.111866 -457.373333 
L 100.953864 -457.373333 
L 101.795861 -457.373333 
L 102.637858 -457.373333 
L 103.479856 -457.373333 
L 104.321853 -457.373333 
L 105.16385 -457.373333 
L 106.005848 -457.373333 
L 106.847845 -457.373333 
L 107.689843 -457.373333 
L 108.53184 -457.373333 
L 109.373837 -457.373333 
L 110.215835 -457.373333 
L 111.057832 -457.373333 
L 111.899829 -457.373333 
L 112.741827 -457.373333 
L 113.583824 -457.373333 
L 114.425822 -457.373333 
L 115.267819 -457.373333 
L 116.109816 -457.373333 
L 116.951814 -457.373333 
L 117.793811 -457.373333 
L 118.635808 -457.373333 
L 119.477806 -457.373333 
L 120.319803 -457.373333 
L 121.161801 -457.373333 
L 122.003798 -457.373333 
L 122.845795 -457.373333 
L 123.687793 -457.373333 
L 124.52979 -457.373333 
L 125.371787 -457.373333 
L 126.213785 -457.373333 
L 127.055782 -457.373333 
L 127.89778 -457.373333 
L 128.739777 -457.373333 
L 129.581774 -457.373333 
L 130.423772 -457.373333 
L 131.265769 -457.373333 
L 132.107766 -457.373333 
L 132.949764 -457.373333 
L 133.791761 -457.373333 
L 134.633759 -457.373333 
L 135.475756 -457.373333 
L 136.317753 -457.373333 
L 137.159751 -457.373333 
L 138.001748 -457.373333 
L 138.843745 -457.373333 
L 139.685743 -457.373333 
L 140.52774 -457.373333 
L 141.369738 -457.373333 
L 142.211735 -457.373333 
L 143.053732 -457.784836 
L 143.89573 -458.333506 
L 144.737727 -457.784836 
L 145.579724 -459.293679 
L 146.421722 -459.979517 
L 147.263719 -460.93969 
L 148.105717 -465.877722 
L 148.947714 -471.913094 
L 149.789711 -472.324597 
L 150.631709 -479.182975 
L 151.473706 -482.749331 
L 152.315703 -481.514823 
L 153.157701 -488.510369 
L 153.999698 -485.62985 
L 154.841696 -490.019212 
L 155.683693 -490.293547 
L 156.52569 -491.665222 
L 157.367688 -496.191752 
L 158.209685 -498.935103 
L 159.051682 -506.067816 
L 159.89368 -504.14747 
L 160.735677 -502.912962 
L 161.577675 -503.324465 
L 162.419672 -502.912962 
L 163.261669 -504.421805 
L 164.103667 -500.032443 
L 164.945664 -501.815622 
L 165.787661 -500.443946 
L 166.629659 -508.399664 
L 167.471656 -507.439491 
L 168.313654 -511.280183 
L 169.155651 -514.435037 
L 169.997648 -510.594345 
L 170.839646 -508.811167 
L 171.681643 -506.479319 
L 172.52364 -501.266951 
L 173.365638 -508.811167 
L 174.207635 -503.187297 
L 175.049633 -504.558973 
L 175.89163 -501.815622 
L 176.733627 -500.855449 
L 177.575625 -510.32001 
L 178.417622 -513.886367 
L 179.259619 -518.138561 
L 180.101617 -537.753521 
L 180.943614 -521.704917 
L 181.785612 -515.669545 
L 182.627609 -507.713827 
L 183.469606 -510.86868 
L 184.311604 -508.811167 
L 185.153601 -507.165156 
L 185.995598 -512.377524 
L 186.837596 -509.085502 
L 187.679593 -517.589891 
L 188.521591 -515.120875 
L 189.363588 -510.731513 
L 190.205585 -505.656313 
L 191.047583 -514.160702 
L 191.88958 -508.399664 
L 192.731577 -507.302324 
L 193.573575 -508.673999 
L 194.415572 -504.558973 
L 195.25757 -498.797935 
L 196.099567 -499.758108 
L 196.941564 -501.952789 
L 197.783562 -501.404119 
L 198.625559 -504.558973 
L 199.467556 -500.032443 
L 200.309554 -501.404119 
L 201.151551 -504.558973 
L 201.993549 -506.342151 
L 202.835546 -507.439491 
L 203.677543 -508.948335 
L 204.519541 -509.77134 
L 205.361538 -512.103188 
L 206.203535 -518.412896 
L 207.045533 -520.744744 
L 207.88753 -524.585436 
L 208.729528 -522.802258 
L 209.571525 -526.917285 
L 210.413522 -534.873003 
L 211.25552 -545.572072 
L 212.097517 -529.797803 
L 212.939514 -531.169479 
L 213.781512 -520.058907 
L 214.623509 -513.886367 
L 215.465507 -518.550064 
L 216.307504 -520.333242 
L 217.149501 -522.802258 
L 217.991499 -531.992484 
L 218.833496 -550.647272 
L 219.675493 -548.452591 
L 220.517491 -536.930516 
L 221.359488 -542.691554 
L 222.201486 -533.638495 
L 223.043483 -547.080915 
L 223.88548 -552.97912 
L 224.727478 -550.647272 
L 225.569475 -542.417218 
L 226.411472 -537.616354 
L 227.25347 -526.368614 
L 228.095467 -526.231447 
L 228.937465 -523.21376 
L 229.779462 -520.881912 
L 230.621459 -520.881912 
L 231.463457 -529.249133 
L 232.305454 -514.709372 
L 233.147451 -504.14747 
L 233.989449 -509.908508 
L 234.831446 -505.793481 
L 235.673444 -499.620941 
L 236.515441 -501.815622 
L 237.357438 -502.227124 
L 238.199436 -500.032443 
L 239.041433 -504.69614 
L 239.88343 -505.519146 
L 240.725428 -505.244811 
L 241.567425 -499.758108 
L 242.409423 -494.682909 
L 243.25142 -489.059039 
L 244.093417 -488.373201 
L 244.935415 -485.904185 
L 245.777412 -483.023666 
L 246.619409 -485.767018 
L 247.461407 -483.983839 
L 248.303404 -480.691818 
L 249.145402 -482.200661 
L 249.987399 -477.262629 
L 250.829396 -476.028121 
L 251.671394 -476.713959 
L 252.513391 -473.83344 
L 253.355388 -474.930781 
L 254.197386 -476.302456 
L 255.039383 -473.559105 
L 255.881381 -471.364424 
L 256.723378 -475.067948 
L 257.565375 -473.970608 
L 258.407373 -472.7361 
L 259.24937 -472.873267 
L 260.091367 -475.753786 
L 260.933365 -472.598932 
L 261.775362 -474.930781 
L 262.61736 -474.38211 
L 263.459357 -471.913094 
L 264.301354 -474.244943 
L 265.143352 -476.439624 
L 265.985349 -474.519278 
L 266.827346 -476.302456 
L 267.669344 -475.616618 
L 268.511341 -481.103321 
L 269.353339 -481.377656 
L 270.195336 -485.218347 
L 271.037333 -499.620941 
L 271.879331 -544.063229 
L 271.879331 -457.373333 
L 271.879331 -457.373333 
L 271.037333 -457.373333 
L 270.195336 -457.373333 
L 269.353339 -457.373333 
L 268.511341 -457.373333 
L 267.669344 -457.373333 
L 266.827346 -457.373333 
L 265.985349 -457.373333 
L 265.143352 -457.373333 
L 264.301354 -457.373333 
L 263.459357 -457.373333 
L 262.61736 -457.373333 
L 261.775362 -457.373333 
L 260.933365 -457.373333 
L 260.091367 -457.373333 
L 259.24937 -457.373333 
L 258.407373 -457.373333 
L 257.565375 -457.373333 
L 256.723378 -457.373333 
L 255.881381 -457.373333 
L 255.039383 -457.373333 
L 254.197386 -457.373333 
L 253.355388 -457.373333 
L 252.513391 -457.373333 
L 251.671394 -457.373333 
L 250.829396 -457.373333 
L 249.987399 -457.373333 
L 249.145402 -457.373333 
L 248.303404 -457.373333 
L 247.461407 -457.373333 
L 246.619409 -457.373333 
L 245.777412 -457.373333 
L 244.935415 -457.373333 
L 244.093417 -457.373333 
L 243.25142 -457.373333 
L 242.409423 -457.373333 
L 241.567425 -457.373333 
L 240.725428 -457.373333 
L 239.88343 -457.373333 
L 239.041433 -457.373333 
L 238.199436 -457.373333 
L 237.357438 -457.373333 
L 236.515441 -457.373333 
L 235.673444 -457.373333 
L 234.831446 -457.373333 
L 233.989449 -457.373333 
L 233.147451 -457.373333 
L 232.305454 -457.373333 
L 231.463457 -457.373333 
L 230.621459 -457.373333 
L 229.779462 -457.373333 
L 228.937465 -457.373333 
L 228.095467 -457.373333 
L 227.25347 -457.373333 
L 226.411472 -457.373333 
L 225.569475 -457.373333 
L 224.727478 -457.373333 
L 223.88548 -457.373333 
L 223.043483 -457.373333 
L 222.201486 -457.373333 
L 221.359488 -457.373333 
L 220.517491 -457.373333 
L 219.675493 -457.373333 
L 218.833496 -457.373333 
L 217.991499 -457.373333 
L 217.149501 -457.373333 
L 216.307504 -457.373333 
L 215.465507 -457.373333 
L 214.623509 -457.373333 
L 213.781512 -457.373333 
L 212.939514 -457.373333 
L 212.097517 -457.373333 
L 211.25552 -457.373333 
L 210.413522 -457.373333 
L 209.571525 -457.373333 
L 208.729528 -457.373333 
L 207.88753 -457.373333 
L 207.045533 -457.373333 
L 206.203535 -457.373333 
L 205.361538 -457.373333 
L 204.519541 -457.373333 
L 203.677543 -457.373333 
L 202.835546 -457.373333 
L 201.993549 -457.373333 
L 201.151551 -457.373333 
L 200.309554 -457.373333 
L 199.467556 -457.373333 
L 198.625559 -457.373333 
L 197.783562 -457.373333 
L 196.941564 -457.373333 
L 196.099567 -457.373333 
L 195.25757 -457.373333 
L 194.415572 -457.373333 
L 193.573575 -457.373333 
L 192.731577 -457.373333 
L 191.88958 -457.373333 
L 191.047583 -457.373333 
L 190.205585 -457.373333 
L 189.363588 -457.373333 
L 188.521591 -457.373333 
L 187.679593 -457.373333 
L 186.837596 -457.373333 
L 185.995598 -457.373333 
L 185.153601 -457.373333 
L 184.311604 -457.373333 
L 183.469606 -457.373333 
L 182.627609 -457.373333 
L 181.785612 -457.373333 
L 180.943614 -457.373333 
L 180.101617 -457.373333 
L 179.259619 -457.373333 
L 178.417622 -457.373333 
L 177.575625 -457.373333 
L 176.733627 -457.373333 
L 175.89163 -457.373333 
L 175.049633 -457.373333 
L 174.207635 -457.373333 
L 173.365638 -457.373333 
L 172.52364 -457.373333 
L 171.681643 -457.373333 
L 170.839646 -457.373333 
L 169.997648 -457.373333 
L 169.155651 -457.373333 
L 168.313654 -457.373333 
L 167.471656 -457.373333 
L 166.629659 -457.373333 
L 165.787661 -457.373333 
L 164.945664 -457.373333 
L 164.103667 -457.373333 
L 163.261669 -457.373333 
L 162.419672 -457.373333 
L 161.577675 -457.373333 
L 160.735677 -457.373333 
L 159.89368 -457.373333 
L 159.051682 -457.373333 
L 158.209685 -457.373333 
L 157.367688 -457.373333 
L 156.52569 -457.373333 
L 155.683693 -457.373333 
L 154.841696 -457.373333 
L 153.999698 -457.373333 
L 153.157701 -457.373333 
L 152.315703 -457.373333 
L 151.473706 -457.373333 
L 150.631709 -457.373333 
L 149.789711 -457.373333 
L 148.947714 -457.373333 
L 148.105717 -457.373333 
L 147.263719 -457.373333 
L 146.421722 -457.373333 
L 145.579724 -457.373333 
L 144.737727 -457.373333 
L 143.89573 -457.373333 
L 143.053732 -457.373333 
L 142.211735 -457.373333 
L 141.369738 -457.373333 
L 140.52774 -457.373333 
L 139.685743 -457.373333 
L 138.843745 -457.373333 
L 138.001748 -457.373333 
L 137.159751 -457.373333 
L 136.317753 -457.373333 
L 135.475756 -457.373333 
L 134.633759 -457.373333 
L 133.791761 -457.373333 
L 132.949764 -457.373333 
L 132.107766 -457.373333 
L 131.265769 -457.373333 
L 130.423772 -457.373333 
L 129.581774 -457.373333 
L 128.739777 -457.373333 
L 127.89778 -457.373333 
L 127.055782 -457.373333 
L 126.213785 -457.373333 
L 125.371787 -457.373333 
L 124.52979 -457.373333 
L 123.687793 -457.373333 
L 122.845795 -457.373333 
L 122.003798 -457.373333 
L 121.161801 -457.373333 
L 120.319803 -457.373333 
L 119.477806 -457.373333 
L 118.635808 -457.373333 
L 117.793811 -457.373333 
L 116.951814 -457.373333 
L 116.109816 -457.373333 
L 115.267819 -457.373333 
L 114.425822 -457.373333 
L 113.583824 -457.373333 
L 112.741827 -457.373333 
L 111.899829 -457.373333 
L 111.057832 -457.373333 
L 110.215835 -457.373333 
L 109.373837 -457.373333 
L 108.53184 -457.373333 
L 107.689843 -457.373333 
L 106.847845 -457.373333 
L 106.005848 -457.373333 
L 105.16385 -457.373333 
L 104.321853 -457.373333 
L 103.479856 -457.373333 
L 102.637858 -457.373333 
L 101.795861 -457.373333 
L 100.953864 -457.373333 
L 100.111866 -457.373333 
L 99.269869 -457.373333 
L 98.427871 -457.373333 
L 97.585874 -457.373333 
L 96.743877 -457.373333 
L 95.901879 -457.373333 
L 95.059882 -457.373333 
L 94.217885 -457.373333 
L 93.375887 -457.373333 
L 92.53389 -457.373333 
L 91.691892 -457.373333 
L 90.849895 -457.373333 
L 90.007898 -457.373333 
L 89.1659 -457.373333 
L 88.323903 -457.373333 
L 87.481906 -457.373333 
L 86.639908 -457.373333 
L 85.797911 -457.373333 
L 84.955913 -457.373333 
L 84.113916 -457.373333 
L 83.271919 -457.373333 
L 82.429921 -457.373333 
L 81.587924 -457.373333 
L 80.745927 -457.373333 
L 79.903929 -457.373333 
L 79.061932 -457.373333 
L 78.219934 -457.373333 
L 77.377937 -457.373333 
L 76.53594 -457.373333 
L 75.693942 -457.373333 
L 74.851945 -457.373333 
L 74.009948 -457.373333 
L 73.16795 -457.373333 
L 72.325953 -457.373333 
L 71.483955 -457.373333 
L 70.641958 -457.373333 
L 69.799961 -457.373333 
L 68.957963 -457.373333 
L 68.115966 -457.373333 
L 67.273969 -457.373333 
L 66.431971 -457.373333 
L 65.589974 -457.373333 
L 64.747976 -457.373333 
L 63.905979 -457.373333 
L 63.063982 -457.373333 
L 62.221984 -457.373333 
L 61.379987 -457.373333 
L 60.53799 -457.373333 
L 59.695992 -457.373333 
L 58.853995 -457.373333 
L 58.011997 -457.373333 
L 57.17 -457.373333 
z
" style="stroke: #ff0000; stroke-opacity: 0.4"/>
    </defs>
    <g clip-path="url(#p3179e45896)">
     <use xlink:href="#m0ca395406e" x="0" y="648" style="fill: #ff0000; fill-opacity: 0.4; stroke: #ff0000; stroke-opacity: 0.4"/>
    </g>
   </g>
   <g id="matplotlib.axis_1">
    <g id="xtick_1">
     <g id="line2d_1">
      <defs>
       <path id="m10336874c0" d="M 0 0 
L 0 3.5 
" style="stroke: #000000; stroke-width: 0.8"/>
      </defs>
      <g>
       <use xlink:href="#m10336874c0" x="57.17" y="190.626667" style="stroke: #000000; stroke-width: 0.8"/>
      </g>
     </g>
     <g id="text_1">
      <!-- 0 -->
      <g transform="translate(53.98875 205.225104) scale(0.1 -0.1)">
       <defs>
        <path id="DejaVuSans-30" d="M 2034 4250 
Q 1547 4250 1301 3770 
Q 1056 3291 1056 2328 
Q 1056 1369 1301 889 
Q 1547 409 2034 409 
Q 2525 409 2770 889 
Q 3016 1369 3016 2328 
Q 3016 3291 2770 3770 
Q 2525 4250 2034 4250 
z
M 2034 4750 
Q 2819 4750 3233 4129 
Q 3647 3509 3647 2328 
Q 3647 1150 3233 529 
Q 2819 -91 2034 -91 
Q 1250 -91 836 529 
Q 422 1150 422 2328 
Q 422 3509 836 4129 
Q 1250 4750 2034 4750 
z
" transform="scale(0.015625)"/>
       </defs>
       <use xlink:href="#DejaVuSans-30"/>
      </g>
     </g>
    </g>
    <g id="xtick_2">
     <g id="line2d_2">
      <g>
       <use xlink:href="#m10336874c0" x="99.269869" y="190.626667" style="stroke: #000000; stroke-width: 0.8"/>
      </g>
     </g>
     <g id="text_2">
      <!-- 50 -->
      <g transform="translate(92.907369 205.225104) scale(0.1 -0.1)">
       <defs>
        <path id="DejaVuSans-35" d="M 691 4666 
L 3169 4666 
L 3169 4134 
L 1269 4134 
L 1269 2991 
Q 1406 3038 1543 3061 
Q 1681 3084 1819 3084 
Q 2600 3084 3056 2656 
Q 3513 2228 3513 1497 
Q 3513 744 3044 326 
Q 2575 -91 1722 -91 
Q 1428 -91 1123 -41 
Q 819 9 494 109 
L 494 744 
Q 775 591 1075 516 
Q 1375 441 1709 441 
Q 2250 441 2565 725 
Q 2881 1009 2881 1497 
Q 2881 1984 2565 2268 
Q 2250 2553 1709 2553 
Q 1456 2553 1204 2497 
Q 953 2441 691 2322 
L 691 4666 
z
" transform="scale(0.015625)"/>
       </defs>
       <use xlink:href="#DejaVuSans-35"/>
       <use xlink:href="#DejaVuSans-30" x="63.623047"/>
      </g>
     </g>
    </g>
    <g id="xtick_3">
     <g id="line2d_3">
      <g>
       <use xlink:href="#m10336874c0" x="141.369738" y="190.626667" style="stroke: #000000; stroke-width: 0.8"/>
      </g>
     </g>
     <g id="text_3">
      <!-- 100 -->
      <g transform="translate(131.825988 205.225104) scale(0.1 -0.1)">
       <defs>
        <path id="DejaVuSans-31" d="M 794 531 
L 1825 531 
L 1825 4091 
L 703 3866 
L 703 4441 
L 1819 4666 
L 2450 4666 
L 2450 531 
L 3481 531 
L 3481 0 
L 794 0 
L 794 531 
z
" transform="scale(0.015625)"/>
       </defs>
       <use xlink:href="#DejaVuSans-31"/>
       <use xlink:href="#DejaVuSans-30" x="63.623047"/>
       <use xlink:href="#DejaVuSans-30" x="127.246094"/>
      </g>
     </g>
    </g>
    <g id="xtick_4">
     <g id="line2d_4">
      <g>
       <use xlink:href="#m10336874c0" x="183.469606" y="190.626667" style="stroke: #000000; stroke-width: 0.8"/>
      </g>
     </g>
     <g id="text_4">
      <!-- 150 -->
      <g transform="translate(173.925856 205.225104) scale(0.1 -0.1)">
       <use xlink:href="#DejaVuSans-31"/>
       <use xlink:href="#DejaVuSans-35" x="63.623047"/>
       <use xlink:href="#DejaVuSans-30" x="127.246094"/>
      </g>
     </g>
    </g>
    <g id="xtick_5">
     <g id="line2d_5">
      <g>
       <use xlink:href="#m10336874c0" x="225.569475" y="190.626667" style="stroke: #000000; stroke-width: 0.8"/>
      </g>
     </g>
     <g id="text_5">
      <!-- 200 -->
      <g transform="translate(216.025725 205.225104) scale(0.1 -0.1)">
       <defs>
        <path id="DejaVuSans-32" d="M 1228 531 
L 3431 531 
L 3431 0 
L 469 0 
L 469 531 
Q 828 903 1448 1529 
Q 2069 2156 2228 2338 
Q 2531 2678 2651 2914 
Q 2772 3150 2772 3378 
Q 2772 3750 2511 3984 
Q 2250 4219 1831 4219 
Q 1534 4219 1204 4116 
Q 875 4013 500 3803 
L 500 4441 
Q 881 4594 1212 4672 
Q 1544 4750 1819 4750 
Q 2544 4750 2975 4387 
Q 3406 4025 3406 3419 
Q 3406 3131 3298 2873 
Q 3191 2616 2906 2266 
Q 2828 2175 2409 1742 
Q 1991 1309 1228 531 
z
" transform="scale(0.015625)"/>
       </defs>
       <use xlink:href="#DejaVuSans-32"/>
       <use xlink:href="#DejaVuSans-30" x="63.623047"/>
       <use xlink:href="#DejaVuSans-30" x="127.246094"/>
      </g>
     </g>
    </g>
    <g id="xtick_6">
     <g id="line2d_6">
      <g>
       <use xlink:href="#m10336874c0" x="267.669344" y="190.626667" style="stroke: #000000; stroke-width: 0.8"/>
      </g>
     </g>
     <g id="text_6">
      <!-- 250 -->
      <g transform="translate(258.125594 205.225104) scale(0.1 -0.1)">
       <use xlink:href="#DejaVuSans-32"/>
       <use xlink:href="#DejaVuSans-35" x="63.623047"/>
       <use xlink:href="#DejaVuSans-30" x="127.246094"/>
      </g>
     </g>
    </g>
   </g>
   <g id="matplotlib.axis_2">
    <g id="ytick_1">
     <g id="line2d_7">
      <defs>
       <path id="me421e1ae94" d="M 0 0 
L -3.5 0 
" style="stroke: #000000; stroke-width: 0.8"/>
      </defs>
      <g>
       <use xlink:href="#me421e1ae94" x="57.17" y="190.626667" style="stroke: #000000; stroke-width: 0.8"/>
      </g>
     </g>
     <g id="text_7">
      <!-- 0 -->
      <g transform="translate(43.8075 194.425885) scale(0.1 -0.1)">
       <use xlink:href="#DejaVuSans-30"/>
      </g>
     </g>
    </g>
    <g id="ytick_2">
     <g id="line2d_8">
      <g>
       <use xlink:href="#me421e1ae94" x="57.17" y="163.193155" style="stroke: #000000; stroke-width: 0.8"/>
      </g>
     </g>
     <g id="text_8">
      <!-- 200 -->
      <g transform="translate(31.0825 166.992374) scale(0.1 -0.1)">
       <use xlink:href="#DejaVuSans-32"/>
       <use xlink:href="#DejaVuSans-30" x="63.623047"/>
       <use xlink:href="#DejaVuSans-30" x="127.246094"/>
      </g>
     </g>
    </g>
    <g id="ytick_3">
     <g id="line2d_9">
      <g>
       <use xlink:href="#me421e1ae94" x="57.17" y="135.759644" style="stroke: #000000; stroke-width: 0.8"/>
      </g>
     </g>
     <g id="text_9">
      <!-- 400 -->
      <g transform="translate(31.0825 139.558863) scale(0.1 -0.1)">
       <defs>
        <path id="DejaVuSans-34" d="M 2419 4116 
L 825 1625 
L 2419 1625 
L 2419 4116 
z
M 2253 4666 
L 3047 4666 
L 3047 1625 
L 3713 1625 
L 3713 1100 
L 3047 1100 
L 3047 0 
L 2419 0 
L 2419 1100 
L 313 1100 
L 313 1709 
L 2253 4666 
z
" transform="scale(0.015625)"/>
       </defs>
       <use xlink:href="#DejaVuSans-34"/>
       <use xlink:href="#DejaVuSans-30" x="63.623047"/>
       <use xlink:href="#DejaVuSans-30" x="127.246094"/>
      </g>
     </g>
    </g>
    <g id="ytick_4">
     <g id="line2d_10">
      <g>
       <use xlink:href="#me421e1ae94" x="57.17" y="108.326133" style="stroke: #000000; stroke-width: 0.8"/>
      </g>
     </g>
     <g id="text_10">
      <!-- 600 -->
      <g transform="translate(31.0825 112.125351) scale(0.1 -0.1)">
       <defs>
        <path id="DejaVuSans-36" d="M 2113 2584 
Q 1688 2584 1439 2293 
Q 1191 2003 1191 1497 
Q 1191 994 1439 701 
Q 1688 409 2113 409 
Q 2538 409 2786 701 
Q 3034 994 3034 1497 
Q 3034 2003 2786 2293 
Q 2538 2584 2113 2584 
z
M 3366 4563 
L 3366 3988 
Q 3128 4100 2886 4159 
Q 2644 4219 2406 4219 
Q 1781 4219 1451 3797 
Q 1122 3375 1075 2522 
Q 1259 2794 1537 2939 
Q 1816 3084 2150 3084 
Q 2853 3084 3261 2657 
Q 3669 2231 3669 1497 
Q 3669 778 3244 343 
Q 2819 -91 2113 -91 
Q 1303 -91 875 529 
Q 447 1150 447 2328 
Q 447 3434 972 4092 
Q 1497 4750 2381 4750 
Q 2619 4750 2861 4703 
Q 3103 4656 3366 4563 
z
" transform="scale(0.015625)"/>
       </defs>
       <use xlink:href="#DejaVuSans-36"/>
       <use xlink:href="#DejaVuSans-30" x="63.623047"/>
       <use xlink:href="#DejaVuSans-30" x="127.246094"/>
      </g>
     </g>
    </g>
    <g id="ytick_5">
     <g id="line2d_11">
      <g>
       <use xlink:href="#me421e1ae94" x="57.17" y="80.892621" style="stroke: #000000; stroke-width: 0.8"/>
      </g>
     </g>
     <g id="text_11">
      <!-- 800 -->
      <g transform="translate(31.0825 84.69184) scale(0.1 -0.1)">
       <defs>
        <path id="DejaVuSans-38" d="M 2034 2216 
Q 1584 2216 1326 1975 
Q 1069 1734 1069 1313 
Q 1069 891 1326 650 
Q 1584 409 2034 409 
Q 2484 409 2743 651 
Q 3003 894 3003 1313 
Q 3003 1734 2745 1975 
Q 2488 2216 2034 2216 
z
M 1403 2484 
Q 997 2584 770 2862 
Q 544 3141 544 3541 
Q 544 4100 942 4425 
Q 1341 4750 2034 4750 
Q 2731 4750 3128 4425 
Q 3525 4100 3525 3541 
Q 3525 3141 3298 2862 
Q 3072 2584 2669 2484 
Q 3125 2378 3379 2068 
Q 3634 1759 3634 1313 
Q 3634 634 3220 271 
Q 2806 -91 2034 -91 
Q 1263 -91 848 271 
Q 434 634 434 1313 
Q 434 1759 690 2068 
Q 947 2378 1403 2484 
z
M 1172 3481 
Q 1172 3119 1398 2916 
Q 1625 2713 2034 2713 
Q 2441 2713 2670 2916 
Q 2900 3119 2900 3481 
Q 2900 3844 2670 4047 
Q 2441 4250 2034 4250 
Q 1625 4250 1398 4047 
Q 1172 3844 1172 3481 
z
" transform="scale(0.015625)"/>
       </defs>
       <use xlink:href="#DejaVuSans-38"/>
       <use xlink:href="#DejaVuSans-30" x="63.623047"/>
       <use xlink:href="#DejaVuSans-30" x="127.246094"/>
      </g>
     </g>
    </g>
    <g id="ytick_6">
     <g id="line2d_12">
      <g>
       <use xlink:href="#me421e1ae94" x="57.17" y="53.45911" style="stroke: #000000; stroke-width: 0.8"/>
      </g>
     </g>
     <g id="text_12">
      <!-- 1000 -->
      <g transform="translate(24.72 57.258329) scale(0.1 -0.1)">
       <use xlink:href="#DejaVuSans-31"/>
       <use xlink:href="#DejaVuSans-30" x="63.623047"/>
       <use xlink:href="#DejaVuSans-30" x="127.246094"/>
       <use xlink:href="#DejaVuSans-30" x="190.869141"/>
      </g>
     </g>
    </g>
    <g id="ytick_7">
     <g id="line2d_13">
      <g>
       <use xlink:href="#me421e1ae94" x="57.17" y="26.025599" style="stroke: #000000; stroke-width: 0.8"/>
      </g>
     </g>
     <g id="text_13">
      <!-- 1200 -->
      <g transform="translate(24.72 29.824818) scale(0.1 -0.1)">
       <use xlink:href="#DejaVuSans-31"/>
       <use xlink:href="#DejaVuSans-32" x="63.623047"/>
       <use xlink:href="#DejaVuSans-30" x="127.246094"/>
       <use xlink:href="#DejaVuSans-30" x="190.869141"/>
      </g>
     </g>
    </g>
    <g id="text_14">
     <!-- Pixel Frequency -->
     <g transform="translate(18.640313 139.69224) rotate(-90) scale(0.1 -0.1)">
      <defs>
       <path id="DejaVuSans-50" d="M 1259 4147 
L 1259 2394 
L 2053 2394 
Q 2494 2394 2734 2622 
Q 2975 2850 2975 3272 
Q 2975 3691 2734 3919 
Q 2494 4147 2053 4147 
L 1259 4147 
z
M 628 4666 
L 2053 4666 
Q 2838 4666 3239 4311 
Q 3641 3956 3641 3272 
Q 3641 2581 3239 2228 
Q 2838 1875 2053 1875 
L 1259 1875 
L 1259 0 
L 628 0 
L 628 4666 
z
" transform="scale(0.015625)"/>
       <path id="DejaVuSans-69" d="M 603 3500 
L 1178 3500 
L 1178 0 
L 603 0 
L 603 3500 
z
M 603 4863 
L 1178 4863 
L 1178 4134 
L 603 4134 
L 603 4863 
z
" transform="scale(0.015625)"/>
       <path id="DejaVuSans-78" d="M 3513 3500 
L 2247 1797 
L 3578 0 
L 2900 0 
L 1881 1375 
L 863 0 
L 184 0 
L 1544 1831 
L 300 3500 
L 978 3500 
L 1906 2253 
L 2834 3500 
L 3513 3500 
z
" transform="scale(0.015625)"/>
       <path id="DejaVuSans-65" d="M 3597 1894 
L 3597 1613 
L 953 1613 
Q 991 1019 1311 708 
Q 1631 397 2203 397 
Q 2534 397 2845 478 
Q 3156 559 3463 722 
L 3463 178 
Q 3153 47 2828 -22 
Q 2503 -91 2169 -91 
Q 1331 -91 842 396 
Q 353 884 353 1716 
Q 353 2575 817 3079 
Q 1281 3584 2069 3584 
Q 2775 3584 3186 3129 
Q 3597 2675 3597 1894 
z
M 3022 2063 
Q 3016 2534 2758 2815 
Q 2500 3097 2075 3097 
Q 1594 3097 1305 2825 
Q 1016 2553 972 2059 
L 3022 2063 
z
" transform="scale(0.015625)"/>
       <path id="DejaVuSans-6c" d="M 603 4863 
L 1178 4863 
L 1178 0 
L 603 0 
L 603 4863 
z
" transform="scale(0.015625)"/>
       <path id="DejaVuSans-20" transform="scale(0.015625)"/>
       <path id="DejaVuSans-46" d="M 628 4666 
L 3309 4666 
L 3309 4134 
L 1259 4134 
L 1259 2759 
L 3109 2759 
L 3109 2228 
L 1259 2228 
L 1259 0 
L 628 0 
L 628 4666 
z
" transform="scale(0.015625)"/>
       <path id="DejaVuSans-72" d="M 2631 2963 
Q 2534 3019 2420 3045 
Q 2306 3072 2169 3072 
Q 1681 3072 1420 2755 
Q 1159 2438 1159 1844 
L 1159 0 
L 581 0 
L 581 3500 
L 1159 3500 
L 1159 2956 
Q 1341 3275 1631 3429 
Q 1922 3584 2338 3584 
Q 2397 3584 2469 3576 
Q 2541 3569 2628 3553 
L 2631 2963 
z
" transform="scale(0.015625)"/>
       <path id="DejaVuSans-71" d="M 947 1747 
Q 947 1113 1208 752 
Q 1469 391 1925 391 
Q 2381 391 2643 752 
Q 2906 1113 2906 1747 
Q 2906 2381 2643 2742 
Q 2381 3103 1925 3103 
Q 1469 3103 1208 2742 
Q 947 2381 947 1747 
z
M 2906 525 
Q 2725 213 2448 61 
Q 2172 -91 1784 -91 
Q 1150 -91 751 415 
Q 353 922 353 1747 
Q 353 2572 751 3078 
Q 1150 3584 1784 3584 
Q 2172 3584 2448 3432 
Q 2725 3281 2906 2969 
L 2906 3500 
L 3481 3500 
L 3481 -1331 
L 2906 -1331 
L 2906 525 
z
" transform="scale(0.015625)"/>
       <path id="DejaVuSans-75" d="M 544 1381 
L 544 3500 
L 1119 3500 
L 1119 1403 
Q 1119 906 1312 657 
Q 1506 409 1894 409 
Q 2359 409 2629 706 
Q 2900 1003 2900 1516 
L 2900 3500 
L 3475 3500 
L 3475 0 
L 2900 0 
L 2900 538 
Q 2691 219 2414 64 
Q 2138 -91 1772 -91 
Q 1169 -91 856 284 
Q 544 659 544 1381 
z
M 1991 3584 
L 1991 3584 
z
" transform="scale(0.015625)"/>
       <path id="DejaVuSans-6e" d="M 3513 2113 
L 3513 0 
L 2938 0 
L 2938 2094 
Q 2938 2591 2744 2837 
Q 2550 3084 2163 3084 
Q 1697 3084 1428 2787 
Q 1159 2491 1159 1978 
L 1159 0 
L 581 0 
L 581 3500 
L 1159 3500 
L 1159 2956 
Q 1366 3272 1645 3428 
Q 1925 3584 2291 3584 
Q 2894 3584 3203 3211 
Q 3513 2838 3513 2113 
z
" transform="scale(0.015625)"/>
       <path id="DejaVuSans-63" d="M 3122 3366 
L 3122 2828 
Q 2878 2963 2633 3030 
Q 2388 3097 2138 3097 
Q 1578 3097 1268 2742 
Q 959 2388 959 1747 
Q 959 1106 1268 751 
Q 1578 397 2138 397 
Q 2388 397 2633 464 
Q 2878 531 3122 666 
L 3122 134 
Q 2881 22 2623 -34 
Q 2366 -91 2075 -91 
Q 1284 -91 818 406 
Q 353 903 353 1747 
Q 353 2603 823 3093 
Q 1294 3584 2113 3584 
Q 2378 3584 2631 3529 
Q 2884 3475 3122 3366 
z
" transform="scale(0.015625)"/>
       <path id="DejaVuSans-79" d="M 2059 -325 
Q 1816 -950 1584 -1140 
Q 1353 -1331 966 -1331 
L 506 -1331 
L 506 -850 
L 844 -850 
Q 1081 -850 1212 -737 
Q 1344 -625 1503 -206 
L 1606 56 
L 191 3500 
L 800 3500 
L 1894 763 
L 2988 3500 
L 3597 3500 
L 2059 -325 
z
" transform="scale(0.015625)"/>
      </defs>
      <use xlink:href="#DejaVuSans-50"/>
      <use xlink:href="#DejaVuSans-69" x="58.052734"/>
      <use xlink:href="#DejaVuSans-78" x="85.835938"/>
      <use xlink:href="#DejaVuSans-65" x="141.890625"/>
      <use xlink:href="#DejaVuSans-6c" x="203.414062"/>
      <use xlink:href="#DejaVuSans-20" x="231.197266"/>
      <use xlink:href="#DejaVuSans-46" x="262.984375"/>
      <use xlink:href="#DejaVuSans-72" x="313.253906"/>
      <use xlink:href="#DejaVuSans-65" x="352.117188"/>
      <use xlink:href="#DejaVuSans-71" x="413.640625"/>
      <use xlink:href="#DejaVuSans-75" x="477.117188"/>
      <use xlink:href="#DejaVuSans-65" x="540.496094"/>
      <use xlink:href="#DejaVuSans-6e" x="602.019531"/>
      <use xlink:href="#DejaVuSans-63" x="665.398438"/>
      <use xlink:href="#DejaVuSans-79" x="720.378906"/>
     </g>
    </g>
   </g>
   <g id="line2d_14">
    <path d="M 57.17 190.626667 
L 142.211735 190.626667 
L 143.053732 190.215164 
L 143.89573 189.666494 
L 144.737727 190.215164 
L 145.579724 188.706321 
L 146.421722 188.020483 
L 147.263719 187.06031 
L 148.105717 182.122278 
L 148.947714 176.086906 
L 149.789711 175.675403 
L 150.631709 168.817025 
L 151.473706 165.250669 
L 152.315703 166.485177 
L 153.157701 159.489631 
L 153.999698 162.37015 
L 154.841696 157.980788 
L 155.683693 157.706453 
L 156.52569 156.334778 
L 157.367688 151.808248 
L 158.209685 149.064897 
L 159.051682 141.932184 
L 159.89368 143.85253 
L 160.735677 145.087038 
L 161.577675 144.675535 
L 162.419672 145.087038 
L 163.261669 143.578195 
L 164.103667 147.967557 
L 164.945664 146.184378 
L 165.787661 147.556054 
L 166.629659 139.600336 
L 167.471656 140.560509 
L 168.313654 136.719817 
L 169.155651 133.564963 
L 169.997648 137.405655 
L 170.839646 139.188833 
L 171.681643 141.520681 
L 172.52364 146.733049 
L 173.365638 139.188833 
L 174.207635 144.812703 
L 175.049633 143.441027 
L 175.89163 146.184378 
L 176.733627 147.144551 
L 177.575625 137.67999 
L 178.417622 134.113633 
L 179.259619 129.861439 
L 180.101617 110.246479 
L 180.943614 126.295083 
L 181.785612 132.330455 
L 182.627609 140.286173 
L 183.469606 137.13132 
L 184.311604 139.188833 
L 185.153601 140.834844 
L 185.995598 135.622476 
L 186.837596 138.914498 
L 187.679593 130.410109 
L 188.521591 132.879125 
L 189.363588 137.268487 
L 190.205585 142.343687 
L 191.047583 133.839298 
L 191.88958 139.600336 
L 192.731577 140.697676 
L 193.573575 139.326001 
L 194.415572 143.441027 
L 195.25757 149.202065 
L 196.099567 148.241892 
L 196.941564 146.047211 
L 197.783562 146.595881 
L 198.625559 143.441027 
L 199.467556 147.967557 
L 200.309554 146.595881 
L 201.151551 143.441027 
L 201.993549 141.657849 
L 202.835546 140.560509 
L 203.677543 139.051665 
L 204.519541 138.22866 
L 205.361538 135.896812 
L 206.203535 129.587104 
L 207.045533 127.255256 
L 207.88753 123.414564 
L 208.729528 125.197742 
L 209.571525 121.082715 
L 210.413522 113.126997 
L 211.25552 102.427928 
L 212.097517 118.202197 
L 212.939514 116.830521 
L 213.781512 127.941093 
L 214.623509 134.113633 
L 215.465507 129.449936 
L 216.307504 127.666758 
L 217.149501 125.197742 
L 217.991499 116.007516 
L 218.833496 97.352728 
L 219.675493 99.547409 
L 220.517491 111.069484 
L 221.359488 105.308446 
L 222.201486 114.361505 
L 223.043483 100.919085 
L 223.88548 95.02088 
L 224.727478 97.352728 
L 225.569475 105.582782 
L 226.411472 110.383646 
L 227.25347 121.631386 
L 228.095467 121.768553 
L 228.937465 124.78624 
L 229.779462 127.118088 
L 230.621459 127.118088 
L 231.463457 118.750867 
L 232.305454 133.290628 
L 233.147451 143.85253 
L 233.989449 138.091492 
L 234.831446 142.206519 
L 235.673444 148.379059 
L 236.515441 146.184378 
L 237.357438 145.772876 
L 238.199436 147.967557 
L 239.041433 143.30386 
L 239.88343 142.480854 
L 240.725428 142.755189 
L 243.25142 158.940961 
L 244.093417 159.626799 
L 244.935415 162.095815 
L 245.777412 164.976334 
L 246.619409 162.232982 
L 247.461407 164.016161 
L 248.303404 167.308182 
L 249.145402 165.799339 
L 249.987399 170.737371 
L 250.829396 171.971879 
L 251.671394 171.286041 
L 252.513391 174.16656 
L 253.355388 173.069219 
L 254.197386 171.697544 
L 255.039383 174.440895 
L 255.881381 176.635576 
L 256.723378 172.932052 
L 258.407373 175.2639 
L 259.24937 175.126733 
L 260.091367 172.246214 
L 260.933365 175.401068 
L 261.775362 173.069219 
L 262.61736 173.61789 
L 263.459357 176.086906 
L 265.143352 171.560376 
L 265.985349 173.480722 
L 266.827346 171.697544 
L 267.669344 172.383382 
L 268.511341 166.896679 
L 269.353339 166.622344 
L 270.195336 162.781653 
L 271.037333 148.379059 
L 271.879331 103.936771 
L 271.879331 103.936771 
" clip-path="url(#p3179e45896)" style="fill: none; stroke: #ff0000; stroke-width: 1.5; stroke-linecap: square"/>
   </g>
   <g id="patch_3">
    <path d="M 57.17 190.626667 
L 57.17 10.8 
" style="fill: none; stroke: #000000; stroke-width: 0.8; stroke-linejoin: miter; stroke-linecap: square"/>
   </g>
   <g id="patch_4">
    <path d="M 272.721328 190.626667 
L 272.721328 10.8 
" style="fill: none; stroke: #000000; stroke-width: 0.8; stroke-linejoin: miter; stroke-linecap: square"/>
   </g>
   <g id="patch_5">
    <path d="M 57.17 190.626667 
L 272.721328 190.626667 
" style="fill: none; stroke: #000000; stroke-width: 0.8; stroke-linejoin: miter; stroke-linecap: square"/>
   </g>
   <g id="patch_6">
    <path d="M 57.17 10.8 
L 272.721328 10.8 
" style="fill: none; stroke: #000000; stroke-width: 0.8; stroke-linejoin: miter; stroke-linecap: square"/>
   </g>
   <g id="text_15">
    <!-- Red Channel  -->
    <g transform="translate(193.028203 24.8) scale(0.12 -0.12)">
     <defs>
      <path id="DejaVuSans-52" d="M 2841 2188 
Q 3044 2119 3236 1894 
Q 3428 1669 3622 1275 
L 4263 0 
L 3584 0 
L 2988 1197 
Q 2756 1666 2539 1819 
Q 2322 1972 1947 1972 
L 1259 1972 
L 1259 0 
L 628 0 
L 628 4666 
L 2053 4666 
Q 2853 4666 3247 4331 
Q 3641 3997 3641 3322 
Q 3641 2881 3436 2590 
Q 3231 2300 2841 2188 
z
M 1259 4147 
L 1259 2491 
L 2053 2491 
Q 2509 2491 2742 2702 
Q 2975 2913 2975 3322 
Q 2975 3731 2742 3939 
Q 2509 4147 2053 4147 
L 1259 4147 
z
" transform="scale(0.015625)"/>
      <path id="DejaVuSans-64" d="M 2906 2969 
L 2906 4863 
L 3481 4863 
L 3481 0 
L 2906 0 
L 2906 525 
Q 2725 213 2448 61 
Q 2172 -91 1784 -91 
Q 1150 -91 751 415 
Q 353 922 353 1747 
Q 353 2572 751 3078 
Q 1150 3584 1784 3584 
Q 2172 3584 2448 3432 
Q 2725 3281 2906 2969 
z
M 947 1747 
Q 947 1113 1208 752 
Q 1469 391 1925 391 
Q 2381 391 2643 752 
Q 2906 1113 2906 1747 
Q 2906 2381 2643 2742 
Q 2381 3103 1925 3103 
Q 1469 3103 1208 2742 
Q 947 2381 947 1747 
z
" transform="scale(0.015625)"/>
      <path id="DejaVuSans-43" d="M 4122 4306 
L 4122 3641 
Q 3803 3938 3442 4084 
Q 3081 4231 2675 4231 
Q 1875 4231 1450 3742 
Q 1025 3253 1025 2328 
Q 1025 1406 1450 917 
Q 1875 428 2675 428 
Q 3081 428 3442 575 
Q 3803 722 4122 1019 
L 4122 359 
Q 3791 134 3420 21 
Q 3050 -91 2638 -91 
Q 1578 -91 968 557 
Q 359 1206 359 2328 
Q 359 3453 968 4101 
Q 1578 4750 2638 4750 
Q 3056 4750 3426 4639 
Q 3797 4528 4122 4306 
z
" transform="scale(0.015625)"/>
      <path id="DejaVuSans-68" d="M 3513 2113 
L 3513 0 
L 2938 0 
L 2938 2094 
Q 2938 2591 2744 2837 
Q 2550 3084 2163 3084 
Q 1697 3084 1428 2787 
Q 1159 2491 1159 1978 
L 1159 0 
L 581 0 
L 581 4863 
L 1159 4863 
L 1159 2956 
Q 1366 3272 1645 3428 
Q 1925 3584 2291 3584 
Q 2894 3584 3203 3211 
Q 3513 2838 3513 2113 
z
" transform="scale(0.015625)"/>
      <path id="DejaVuSans-61" d="M 2194 1759 
Q 1497 1759 1228 1600 
Q 959 1441 959 1056 
Q 959 750 1161 570 
Q 1363 391 1709 391 
Q 2188 391 2477 730 
Q 2766 1069 2766 1631 
L 2766 1759 
L 2194 1759 
z
M 3341 1997 
L 3341 0 
L 2766 0 
L 2766 531 
Q 2569 213 2275 61 
Q 1981 -91 1556 -91 
Q 1019 -91 701 211 
Q 384 513 384 1019 
Q 384 1609 779 1909 
Q 1175 2209 1959 2209 
L 2766 2209 
L 2766 2266 
Q 2766 2663 2505 2880 
Q 2244 3097 1772 3097 
Q 1472 3097 1187 3025 
Q 903 2953 641 2809 
L 641 3341 
Q 956 3463 1253 3523 
Q 1550 3584 1831 3584 
Q 2591 3584 2966 3190 
Q 3341 2797 3341 1997 
z
" transform="scale(0.015625)"/>
     </defs>
     <use xlink:href="#DejaVuSans-52"/>
     <use xlink:href="#DejaVuSans-65" x="64.982422"/>
     <use xlink:href="#DejaVuSans-64" x="126.505859"/>
     <use xlink:href="#DejaVuSans-20" x="189.982422"/>
     <use xlink:href="#DejaVuSans-43" x="221.769531"/>
     <use xlink:href="#DejaVuSans-68" x="291.59375"/>
     <use xlink:href="#DejaVuSans-61" x="354.972656"/>
     <use xlink:href="#DejaVuSans-6e" x="416.251953"/>
     <use xlink:href="#DejaVuSans-6e" x="479.630859"/>
     <use xlink:href="#DejaVuSans-65" x="543.009766"/>
     <use xlink:href="#DejaVuSans-6c" x="604.533203"/>
     <use xlink:href="#DejaVuSans-20" x="632.316406"/>
    </g>
   </g>
  </g>
  <g id="axes_2">
   <g id="patch_7">
    <path d="M 57.17 398.333333 
L 272.721328 398.333333 
L 272.721328 218.506667 
L 57.17 218.506667 
z
" style="fill: #ffffff"/>
   </g>
   <g id="PolyCollection_2">
    <defs>
     <path id="m744625baab" d="M 57.17 -249.666667 
L 57.17 -249.666667 
L 58.011997 -249.666667 
L 58.853995 -249.666667 
L 59.695992 -249.666667 
L 60.53799 -249.666667 
L 61.379987 -249.666667 
L 62.221984 -249.666667 
L 63.063982 -249.666667 
L 63.905979 -249.666667 
L 64.747976 -249.666667 
L 65.589974 -249.666667 
L 66.431971 -249.666667 
L 67.273969 -249.666667 
L 68.115966 -249.666667 
L 68.957963 -249.666667 
L 69.799961 -249.666667 
L 70.641958 -249.666667 
L 71.483955 -249.666667 
L 72.325953 -249.666667 
L 73.16795 -249.666667 
L 74.009948 -249.666667 
L 74.851945 -249.666667 
L 75.693942 -249.666667 
L 76.53594 -249.666667 
L 77.377937 -249.666667 
L 78.219934 -249.666667 
L 79.061932 -249.666667 
L 79.903929 -249.666667 
L 80.745927 -249.666667 
L 81.587924 -249.666667 
L 82.429921 -249.666667 
L 83.271919 -249.666667 
L 84.113916 -249.666667 
L 84.955913 -249.666667 
L 85.797911 -249.666667 
L 86.639908 -249.666667 
L 87.481906 -249.666667 
L 88.323903 -249.666667 
L 89.1659 -249.666667 
L 90.007898 -249.666667 
L 90.849895 -249.666667 
L 91.691892 -249.666667 
L 92.53389 -249.666667 
L 93.375887 -249.666667 
L 94.217885 -249.666667 
L 95.059882 -249.666667 
L 95.901879 -249.666667 
L 96.743877 -249.666667 
L 97.585874 -249.666667 
L 98.427871 -249.666667 
L 99.269869 -249.666667 
L 100.111866 -249.666667 
L 100.953864 -249.666667 
L 101.795861 -249.666667 
L 102.637858 -249.666667 
L 103.479856 -249.666667 
L 104.321853 -249.666667 
L 105.16385 -249.666667 
L 106.005848 -249.666667 
L 106.847845 -249.666667 
L 107.689843 -249.666667 
L 108.53184 -249.666667 
L 109.373837 -249.666667 
L 110.215835 -249.666667 
L 111.057832 -249.666667 
L 111.899829 -249.666667 
L 112.741827 -249.666667 
L 113.583824 -249.666667 
L 114.425822 -249.666667 
L 115.267819 -249.666667 
L 116.109816 -249.666667 
L 116.951814 -249.666667 
L 117.793811 -249.666667 
L 118.635808 -249.666667 
L 119.477806 -249.666667 
L 120.319803 -249.666667 
L 121.161801 -249.666667 
L 122.003798 -249.666667 
L 122.845795 -249.666667 
L 123.687793 -249.666667 
L 124.52979 -249.666667 
L 125.371787 -249.666667 
L 126.213785 -249.666667 
L 127.055782 -249.666667 
L 127.89778 -249.666667 
L 128.739777 -249.666667 
L 129.581774 -249.666667 
L 130.423772 -249.666667 
L 131.265769 -249.666667 
L 132.107766 -249.666667 
L 132.949764 -249.666667 
L 133.791761 -249.803834 
L 134.633759 -250.489672 
L 135.475756 -250.078169 
L 136.317753 -250.764007 
L 137.159751 -251.449845 
L 138.001748 -251.587012 
L 138.843745 -253.507358 
L 139.685743 -258.582558 
L 140.52774 -262.834752 
L 141.369738 -263.932093 
L 142.211735 -268.870125 
L 143.053732 -272.847984 
L 143.89573 -275.042665 
L 144.737727 -279.020524 
L 145.579724 -280.803702 
L 146.421722 -274.356827 
L 147.263719 -278.197518 
L 148.105717 -282.449713 
L 148.947714 -287.66208 
L 149.789711 -284.095723 
L 150.631709 -283.409886 
L 151.473706 -279.569194 
L 152.315703 -279.843529 
L 153.157701 -278.746189 
L 153.999698 -281.901042 
L 154.841696 -288.896588 
L 155.683693 -294.246123 
L 156.52569 -293.423117 
L 157.367688 -290.268263 
L 158.209685 -290.131096 
L 159.051682 -288.347918 
L 159.89368 -292.874447 
L 160.735677 -290.405431 
L 161.577675 -292.462944 
L 162.419672 -295.617798 
L 163.261669 -289.170923 
L 164.103667 -295.206295 
L 164.945664 -300.55583 
L 165.787661 -296.715139 
L 166.629659 -294.520458 
L 167.471656 -293.697452 
L 168.313654 -292.051442 
L 169.155651 -289.170923 
L 169.997648 -288.622253 
L 170.839646 -289.170923 
L 171.681643 -302.064673 
L 172.52364 -323.188477 
L 173.365638 -333.887546 
L 174.207635 -323.59998 
L 175.049633 -308.237213 
L 175.89163 -308.923051 
L 176.733627 -303.985019 
L 177.575625 -299.732825 
L 178.417622 -292.737279 
L 179.259619 -300.55583 
L 180.101617 -303.985019 
L 180.943614 -303.299181 
L 181.785612 -304.259354 
L 182.627609 -308.374381 
L 183.469606 -306.454035 
L 184.311604 -310.706229 
L 185.153601 -308.511548 
L 185.995598 -299.321322 
L 186.837596 -293.697452 
L 187.679593 -289.993928 
L 188.521591 -290.405431 
L 189.363588 -289.993928 
L 190.205585 -295.069128 
L 191.047583 -295.892133 
L 191.88958 -297.675311 
L 192.731577 -297.263809 
L 193.573575 -298.086814 
L 194.415572 -292.600112 
L 195.25757 -290.542599 
L 196.099567 -290.131096 
L 196.941564 -294.93196 
L 197.783562 -308.511548 
L 198.625559 -306.591203 
L 199.467556 -308.648716 
L 200.309554 -312.763743 
L 201.151551 -306.72837 
L 201.993549 -317.838942 
L 202.835546 -320.170791 
L 203.677543 -318.387613 
L 204.519541 -321.679634 
L 205.361538 -317.701775 
L 206.203535 -312.489408 
L 207.045533 -324.834488 
L 207.88753 -320.993796 
L 208.729528 -326.617666 
L 209.571525 -321.405299 
L 210.413522 -327.166336 
L 211.25552 -330.595525 
L 212.097517 -348.83881 
L 212.939514 -339.237081 
L 213.781512 -348.564475 
L 214.623509 -334.573384 
L 215.465507 -338.139741 
L 216.307504 -342.529102 
L 217.149501 -338.139741 
L 217.991499 -341.294594 
L 218.833496 -337.0424 
L 219.675493 -329.77252 
L 220.517491 -325.24599 
L 221.359488 -322.776974 
L 222.201486 -324.69732 
L 223.043483 -322.914142 
L 223.88548 -324.285817 
L 224.727478 -309.746056 
L 225.569475 -298.909819 
L 226.411472 -289.719593 
L 227.25347 -290.816934 
L 228.095467 -286.701907 
L 228.937465 -284.918729 
L 229.779462 -289.033755 
L 230.621459 -296.577971 
L 231.463457 -294.93196 
L 232.305454 -292.874447 
L 233.147451 -299.595657 
L 233.989449 -288.896588 
L 234.831446 -277.786016 
L 235.673444 -279.569194 
L 236.515441 -277.237346 
L 237.357438 -276.551508 
L 238.199436 -273.396654 
L 239.041433 -273.396654 
L 239.88343 -270.653303 
L 240.725428 -269.007292 
L 241.567425 -271.339141 
L 242.409423 -272.985151 
L 243.25142 -272.162146 
L 244.093417 -271.613476 
L 244.935415 -269.69313 
L 245.777412 -265.989606 
L 246.619409 -269.555962 
L 247.461407 -267.635617 
L 248.303404 -266.126773 
L 249.145402 -267.909952 
L 249.987399 -264.206428 
L 250.829396 -263.657757 
L 251.671394 -261.874579 
L 252.513391 -263.932093 
L 253.355388 -264.06926 
L 254.197386 -264.206428 
L 255.039383 -262.560417 
L 255.881381 -262.011747 
L 256.723378 -263.383422 
L 257.565375 -265.578103 
L 258.407373 -267.635617 
L 259.24937 -264.06926 
L 260.091367 -264.61793 
L 260.933365 -266.126773 
L 261.775362 -264.755098 
L 262.61736 -266.538276 
L 263.459357 -265.578103 
L 264.301354 -265.578103 
L 265.143352 -268.047119 
L 265.985349 -269.967465 
L 266.827346 -267.361281 
L 267.669344 -270.378968 
L 268.511341 -276.140005 
L 269.353339 -281.48954 
L 270.195336 -283.13555 
L 271.037333 -302.064673 
L 271.879331 -328.538012 
L 271.879331 -249.666667 
L 271.879331 -249.666667 
L 271.037333 -249.666667 
L 270.195336 -249.666667 
L 269.353339 -249.666667 
L 268.511341 -249.666667 
L 267.669344 -249.666667 
L 266.827346 -249.666667 
L 265.985349 -249.666667 
L 265.143352 -249.666667 
L 264.301354 -249.666667 
L 263.459357 -249.666667 
L 262.61736 -249.666667 
L 261.775362 -249.666667 
L 260.933365 -249.666667 
L 260.091367 -249.666667 
L 259.24937 -249.666667 
L 258.407373 -249.666667 
L 257.565375 -249.666667 
L 256.723378 -249.666667 
L 255.881381 -249.666667 
L 255.039383 -249.666667 
L 254.197386 -249.666667 
L 253.355388 -249.666667 
L 252.513391 -249.666667 
L 251.671394 -249.666667 
L 250.829396 -249.666667 
L 249.987399 -249.666667 
L 249.145402 -249.666667 
L 248.303404 -249.666667 
L 247.461407 -249.666667 
L 246.619409 -249.666667 
L 245.777412 -249.666667 
L 244.935415 -249.666667 
L 244.093417 -249.666667 
L 243.25142 -249.666667 
L 242.409423 -249.666667 
L 241.567425 -249.666667 
L 240.725428 -249.666667 
L 239.88343 -249.666667 
L 239.041433 -249.666667 
L 238.199436 -249.666667 
L 237.357438 -249.666667 
L 236.515441 -249.666667 
L 235.673444 -249.666667 
L 234.831446 -249.666667 
L 233.989449 -249.666667 
L 233.147451 -249.666667 
L 232.305454 -249.666667 
L 231.463457 -249.666667 
L 230.621459 -249.666667 
L 229.779462 -249.666667 
L 228.937465 -249.666667 
L 228.095467 -249.666667 
L 227.25347 -249.666667 
L 226.411472 -249.666667 
L 225.569475 -249.666667 
L 224.727478 -249.666667 
L 223.88548 -249.666667 
L 223.043483 -249.666667 
L 222.201486 -249.666667 
L 221.359488 -249.666667 
L 220.517491 -249.666667 
L 219.675493 -249.666667 
L 218.833496 -249.666667 
L 217.991499 -249.666667 
L 217.149501 -249.666667 
L 216.307504 -249.666667 
L 215.465507 -249.666667 
L 214.623509 -249.666667 
L 213.781512 -249.666667 
L 212.939514 -249.666667 
L 212.097517 -249.666667 
L 211.25552 -249.666667 
L 210.413522 -249.666667 
L 209.571525 -249.666667 
L 208.729528 -249.666667 
L 207.88753 -249.666667 
L 207.045533 -249.666667 
L 206.203535 -249.666667 
L 205.361538 -249.666667 
L 204.519541 -249.666667 
L 203.677543 -249.666667 
L 202.835546 -249.666667 
L 201.993549 -249.666667 
L 201.151551 -249.666667 
L 200.309554 -249.666667 
L 199.467556 -249.666667 
L 198.625559 -249.666667 
L 197.783562 -249.666667 
L 196.941564 -249.666667 
L 196.099567 -249.666667 
L 195.25757 -249.666667 
L 194.415572 -249.666667 
L 193.573575 -249.666667 
L 192.731577 -249.666667 
L 191.88958 -249.666667 
L 191.047583 -249.666667 
L 190.205585 -249.666667 
L 189.363588 -249.666667 
L 188.521591 -249.666667 
L 187.679593 -249.666667 
L 186.837596 -249.666667 
L 185.995598 -249.666667 
L 185.153601 -249.666667 
L 184.311604 -249.666667 
L 183.469606 -249.666667 
L 182.627609 -249.666667 
L 181.785612 -249.666667 
L 180.943614 -249.666667 
L 180.101617 -249.666667 
L 179.259619 -249.666667 
L 178.417622 -249.666667 
L 177.575625 -249.666667 
L 176.733627 -249.666667 
L 175.89163 -249.666667 
L 175.049633 -249.666667 
L 174.207635 -249.666667 
L 173.365638 -249.666667 
L 172.52364 -249.666667 
L 171.681643 -249.666667 
L 170.839646 -249.666667 
L 169.997648 -249.666667 
L 169.155651 -249.666667 
L 168.313654 -249.666667 
L 167.471656 -249.666667 
L 166.629659 -249.666667 
L 165.787661 -249.666667 
L 164.945664 -249.666667 
L 164.103667 -249.666667 
L 163.261669 -249.666667 
L 162.419672 -249.666667 
L 161.577675 -249.666667 
L 160.735677 -249.666667 
L 159.89368 -249.666667 
L 159.051682 -249.666667 
L 158.209685 -249.666667 
L 157.367688 -249.666667 
L 156.52569 -249.666667 
L 155.683693 -249.666667 
L 154.841696 -249.666667 
L 153.999698 -249.666667 
L 153.157701 -249.666667 
L 152.315703 -249.666667 
L 151.473706 -249.666667 
L 150.631709 -249.666667 
L 149.789711 -249.666667 
L 148.947714 -249.666667 
L 148.105717 -249.666667 
L 147.263719 -249.666667 
L 146.421722 -249.666667 
L 145.579724 -249.666667 
L 144.737727 -249.666667 
L 143.89573 -249.666667 
L 143.053732 -249.666667 
L 142.211735 -249.666667 
L 141.369738 -249.666667 
L 140.52774 -249.666667 
L 139.685743 -249.666667 
L 138.843745 -249.666667 
L 138.001748 -249.666667 
L 137.159751 -249.666667 
L 136.317753 -249.666667 
L 135.475756 -249.666667 
L 134.633759 -249.666667 
L 133.791761 -249.666667 
L 132.949764 -249.666667 
L 132.107766 -249.666667 
L 131.265769 -249.666667 
L 130.423772 -249.666667 
L 129.581774 -249.666667 
L 128.739777 -249.666667 
L 127.89778 -249.666667 
L 127.055782 -249.666667 
L 126.213785 -249.666667 
L 125.371787 -249.666667 
L 124.52979 -249.666667 
L 123.687793 -249.666667 
L 122.845795 -249.666667 
L 122.003798 -249.666667 
L 121.161801 -249.666667 
L 120.319803 -249.666667 
L 119.477806 -249.666667 
L 118.635808 -249.666667 
L 117.793811 -249.666667 
L 116.951814 -249.666667 
L 116.109816 -249.666667 
L 115.267819 -249.666667 
L 114.425822 -249.666667 
L 113.583824 -249.666667 
L 112.741827 -249.666667 
L 111.899829 -249.666667 
L 111.057832 -249.666667 
L 110.215835 -249.666667 
L 109.373837 -249.666667 
L 108.53184 -249.666667 
L 107.689843 -249.666667 
L 106.847845 -249.666667 
L 106.005848 -249.666667 
L 105.16385 -249.666667 
L 104.321853 -249.666667 
L 103.479856 -249.666667 
L 102.637858 -249.666667 
L 101.795861 -249.666667 
L 100.953864 -249.666667 
L 100.111866 -249.666667 
L 99.269869 -249.666667 
L 98.427871 -249.666667 
L 97.585874 -249.666667 
L 96.743877 -249.666667 
L 95.901879 -249.666667 
L 95.059882 -249.666667 
L 94.217885 -249.666667 
L 93.375887 -249.666667 
L 92.53389 -249.666667 
L 91.691892 -249.666667 
L 90.849895 -249.666667 
L 90.007898 -249.666667 
L 89.1659 -249.666667 
L 88.323903 -249.666667 
L 87.481906 -249.666667 
L 86.639908 -249.666667 
L 85.797911 -249.666667 
L 84.955913 -249.666667 
L 84.113916 -249.666667 
L 83.271919 -249.666667 
L 82.429921 -249.666667 
L 81.587924 -249.666667 
L 80.745927 -249.666667 
L 79.903929 -249.666667 
L 79.061932 -249.666667 
L 78.219934 -249.666667 
L 77.377937 -249.666667 
L 76.53594 -249.666667 
L 75.693942 -249.666667 
L 74.851945 -249.666667 
L 74.009948 -249.666667 
L 73.16795 -249.666667 
L 72.325953 -249.666667 
L 71.483955 -249.666667 
L 70.641958 -249.666667 
L 69.799961 -249.666667 
L 68.957963 -249.666667 
L 68.115966 -249.666667 
L 67.273969 -249.666667 
L 66.431971 -249.666667 
L 65.589974 -249.666667 
L 64.747976 -249.666667 
L 63.905979 -249.666667 
L 63.063982 -249.666667 
L 62.221984 -249.666667 
L 61.379987 -249.666667 
L 60.53799 -249.666667 
L 59.695992 -249.666667 
L 58.853995 -249.666667 
L 58.011997 -249.666667 
L 57.17 -249.666667 
z
" style="stroke: #008000; stroke-opacity: 0.4"/>
    </defs>
    <g clip-path="url(#p2842153047)">
     <use xlink:href="#m744625baab" x="0" y="648" style="fill: #008000; fill-opacity: 0.4; stroke: #008000; stroke-opacity: 0.4"/>
    </g>
   </g>
   <g id="matplotlib.axis_3">
    <g id="xtick_7">
     <g id="line2d_15">
      <g>
       <use xlink:href="#m10336874c0" x="57.17" y="398.333333" style="stroke: #000000; stroke-width: 0.8"/>
      </g>
     </g>
     <g id="text_16">
      <!-- 0 -->
      <g transform="translate(53.98875 412.931771) scale(0.1 -0.1)">
       <use xlink:href="#DejaVuSans-30"/>
      </g>
     </g>
    </g>
    <g id="xtick_8">
     <g id="line2d_16">
      <g>
       <use xlink:href="#m10336874c0" x="99.269869" y="398.333333" style="stroke: #000000; stroke-width: 0.8"/>
      </g>
     </g>
     <g id="text_17">
      <!-- 50 -->
      <g transform="translate(92.907369 412.931771) scale(0.1 -0.1)">
       <use xlink:href="#DejaVuSans-35"/>
       <use xlink:href="#DejaVuSans-30" x="63.623047"/>
      </g>
     </g>
    </g>
    <g id="xtick_9">
     <g id="line2d_17">
      <g>
       <use xlink:href="#m10336874c0" x="141.369738" y="398.333333" style="stroke: #000000; stroke-width: 0.8"/>
      </g>
     </g>
     <g id="text_18">
      <!-- 100 -->
      <g transform="translate(131.825988 412.931771) scale(0.1 -0.1)">
       <use xlink:href="#DejaVuSans-31"/>
       <use xlink:href="#DejaVuSans-30" x="63.623047"/>
       <use xlink:href="#DejaVuSans-30" x="127.246094"/>
      </g>
     </g>
    </g>
    <g id="xtick_10">
     <g id="line2d_18">
      <g>
       <use xlink:href="#m10336874c0" x="183.469606" y="398.333333" style="stroke: #000000; stroke-width: 0.8"/>
      </g>
     </g>
     <g id="text_19">
      <!-- 150 -->
      <g transform="translate(173.925856 412.931771) scale(0.1 -0.1)">
       <use xlink:href="#DejaVuSans-31"/>
       <use xlink:href="#DejaVuSans-35" x="63.623047"/>
       <use xlink:href="#DejaVuSans-30" x="127.246094"/>
      </g>
     </g>
    </g>
    <g id="xtick_11">
     <g id="line2d_19">
      <g>
       <use xlink:href="#m10336874c0" x="225.569475" y="398.333333" style="stroke: #000000; stroke-width: 0.8"/>
      </g>
     </g>
     <g id="text_20">
      <!-- 200 -->
      <g transform="translate(216.025725 412.931771) scale(0.1 -0.1)">
       <use xlink:href="#DejaVuSans-32"/>
       <use xlink:href="#DejaVuSans-30" x="63.623047"/>
       <use xlink:href="#DejaVuSans-30" x="127.246094"/>
      </g>
     </g>
    </g>
    <g id="xtick_12">
     <g id="line2d_20">
      <g>
       <use xlink:href="#m10336874c0" x="267.669344" y="398.333333" style="stroke: #000000; stroke-width: 0.8"/>
      </g>
     </g>
     <g id="text_21">
      <!-- 250 -->
      <g transform="translate(258.125594 412.931771) scale(0.1 -0.1)">
       <use xlink:href="#DejaVuSans-32"/>
       <use xlink:href="#DejaVuSans-35" x="63.623047"/>
       <use xlink:href="#DejaVuSans-30" x="127.246094"/>
      </g>
     </g>
    </g>
   </g>
   <g id="matplotlib.axis_4">
    <g id="ytick_8">
     <g id="line2d_21">
      <g>
       <use xlink:href="#me421e1ae94" x="57.17" y="398.333333" style="stroke: #000000; stroke-width: 0.8"/>
      </g>
     </g>
     <g id="text_22">
      <!-- 0 -->
      <g transform="translate(43.8075 402.132552) scale(0.1 -0.1)">
       <use xlink:href="#DejaVuSans-30"/>
      </g>
     </g>
    </g>
    <g id="ytick_9">
     <g id="line2d_22">
      <g>
       <use xlink:href="#me421e1ae94" x="57.17" y="370.899822" style="stroke: #000000; stroke-width: 0.8"/>
      </g>
     </g>
     <g id="text_23">
      <!-- 200 -->
      <g transform="translate(31.0825 374.699041) scale(0.1 -0.1)">
       <use xlink:href="#DejaVuSans-32"/>
       <use xlink:href="#DejaVuSans-30" x="63.623047"/>
       <use xlink:href="#DejaVuSans-30" x="127.246094"/>
      </g>
     </g>
    </g>
    <g id="ytick_10">
     <g id="line2d_23">
      <g>
       <use xlink:href="#me421e1ae94" x="57.17" y="343.466311" style="stroke: #000000; stroke-width: 0.8"/>
      </g>
     </g>
     <g id="text_24">
      <!-- 400 -->
      <g transform="translate(31.0825 347.265529) scale(0.1 -0.1)">
       <use xlink:href="#DejaVuSans-34"/>
       <use xlink:href="#DejaVuSans-30" x="63.623047"/>
       <use xlink:href="#DejaVuSans-30" x="127.246094"/>
      </g>
     </g>
    </g>
    <g id="ytick_11">
     <g id="line2d_24">
      <g>
       <use xlink:href="#me421e1ae94" x="57.17" y="316.032799" style="stroke: #000000; stroke-width: 0.8"/>
      </g>
     </g>
     <g id="text_25">
      <!-- 600 -->
      <g transform="translate(31.0825 319.832018) scale(0.1 -0.1)">
       <use xlink:href="#DejaVuSans-36"/>
       <use xlink:href="#DejaVuSans-30" x="63.623047"/>
       <use xlink:href="#DejaVuSans-30" x="127.246094"/>
      </g>
     </g>
    </g>
    <g id="ytick_12">
     <g id="line2d_25">
      <g>
       <use xlink:href="#me421e1ae94" x="57.17" y="288.599288" style="stroke: #000000; stroke-width: 0.8"/>
      </g>
     </g>
     <g id="text_26">
      <!-- 800 -->
      <g transform="translate(31.0825 292.398507) scale(0.1 -0.1)">
       <use xlink:href="#DejaVuSans-38"/>
       <use xlink:href="#DejaVuSans-30" x="63.623047"/>
       <use xlink:href="#DejaVuSans-30" x="127.246094"/>
      </g>
     </g>
    </g>
    <g id="ytick_13">
     <g id="line2d_26">
      <g>
       <use xlink:href="#me421e1ae94" x="57.17" y="261.165777" style="stroke: #000000; stroke-width: 0.8"/>
      </g>
     </g>
     <g id="text_27">
      <!-- 1000 -->
      <g transform="translate(24.72 264.964996) scale(0.1 -0.1)">
       <use xlink:href="#DejaVuSans-31"/>
       <use xlink:href="#DejaVuSans-30" x="63.623047"/>
       <use xlink:href="#DejaVuSans-30" x="127.246094"/>
       <use xlink:href="#DejaVuSans-30" x="190.869141"/>
      </g>
     </g>
    </g>
    <g id="ytick_14">
     <g id="line2d_27">
      <g>
       <use xlink:href="#me421e1ae94" x="57.17" y="233.732265" style="stroke: #000000; stroke-width: 0.8"/>
      </g>
     </g>
     <g id="text_28">
      <!-- 1200 -->
      <g transform="translate(24.72 237.531484) scale(0.1 -0.1)">
       <use xlink:href="#DejaVuSans-31"/>
       <use xlink:href="#DejaVuSans-32" x="63.623047"/>
       <use xlink:href="#DejaVuSans-30" x="127.246094"/>
       <use xlink:href="#DejaVuSans-30" x="190.869141"/>
      </g>
     </g>
    </g>
    <g id="text_29">
     <!-- Pixel Frequency -->
     <g transform="translate(18.640313 347.398906) rotate(-90) scale(0.1 -0.1)">
      <use xlink:href="#DejaVuSans-50"/>
      <use xlink:href="#DejaVuSans-69" x="58.052734"/>
      <use xlink:href="#DejaVuSans-78" x="85.835938"/>
      <use xlink:href="#DejaVuSans-65" x="141.890625"/>
      <use xlink:href="#DejaVuSans-6c" x="203.414062"/>
      <use xlink:href="#DejaVuSans-20" x="231.197266"/>
      <use xlink:href="#DejaVuSans-46" x="262.984375"/>
      <use xlink:href="#DejaVuSans-72" x="313.253906"/>
      <use xlink:href="#DejaVuSans-65" x="352.117188"/>
      <use xlink:href="#DejaVuSans-71" x="413.640625"/>
      <use xlink:href="#DejaVuSans-75" x="477.117188"/>
      <use xlink:href="#DejaVuSans-65" x="540.496094"/>
      <use xlink:href="#DejaVuSans-6e" x="602.019531"/>
      <use xlink:href="#DejaVuSans-63" x="665.398438"/>
      <use xlink:href="#DejaVuSans-79" x="720.378906"/>
     </g>
    </g>
   </g>
   <g id="line2d_28">
    <path d="M 57.17 398.333333 
L 132.949764 398.333333 
L 133.791761 398.196166 
L 134.633759 397.510328 
L 135.475756 397.921831 
L 137.159751 396.550155 
L 138.001748 396.412988 
L 138.843745 394.492642 
L 139.685743 389.417442 
L 140.52774 385.165248 
L 141.369738 384.067907 
L 142.211735 379.129875 
L 143.053732 375.152016 
L 143.89573 372.957335 
L 144.737727 368.979476 
L 145.579724 367.196298 
L 146.421722 373.643173 
L 148.105717 365.550287 
L 148.947714 360.33792 
L 149.789711 363.904277 
L 150.631709 364.590114 
L 151.473706 368.430806 
L 152.315703 368.156471 
L 153.157701 369.253811 
L 153.999698 366.098958 
L 154.841696 359.103412 
L 155.683693 353.753877 
L 156.52569 354.576883 
L 157.367688 357.731737 
L 158.209685 357.868904 
L 159.051682 359.652082 
L 159.89368 355.125553 
L 160.735677 357.594569 
L 161.577675 355.537056 
L 162.419672 352.382202 
L 163.261669 358.829077 
L 164.945664 347.44417 
L 165.787661 351.284861 
L 166.629659 353.479542 
L 167.471656 354.302548 
L 168.313654 355.948558 
L 169.155651 358.829077 
L 169.997648 359.377747 
L 170.839646 358.829077 
L 171.681643 345.935327 
L 172.52364 324.811523 
L 173.365638 314.112454 
L 174.207635 324.40002 
L 175.049633 339.762787 
L 175.89163 339.076949 
L 176.733627 344.014981 
L 177.575625 348.267175 
L 178.417622 355.262721 
L 179.259619 347.44417 
L 180.101617 344.014981 
L 180.943614 344.700819 
L 181.785612 343.740646 
L 182.627609 339.625619 
L 183.469606 341.545965 
L 184.311604 337.293771 
L 185.153601 339.488452 
L 185.995598 348.678678 
L 186.837596 354.302548 
L 187.679593 358.006072 
L 188.521591 357.594569 
L 189.363588 358.006072 
L 190.205585 352.930872 
L 191.047583 352.107867 
L 191.88958 350.324689 
L 192.731577 350.736191 
L 193.573575 349.913186 
L 194.415572 355.399888 
L 195.25757 357.457401 
L 196.099567 357.868904 
L 196.941564 353.06804 
L 197.783562 339.488452 
L 198.625559 341.408797 
L 199.467556 339.351284 
L 200.309554 335.236257 
L 201.151551 341.27163 
L 201.993549 330.161058 
L 202.835546 327.829209 
L 203.677543 329.612387 
L 204.519541 326.320366 
L 205.361538 330.298225 
L 206.203535 335.510592 
L 207.045533 323.165512 
L 207.88753 327.006204 
L 208.729528 321.382334 
L 209.571525 326.594701 
L 210.413522 320.833664 
L 211.25552 317.404475 
L 212.097517 299.16119 
L 212.939514 308.762919 
L 213.781512 299.435525 
L 214.623509 313.426616 
L 215.465507 309.860259 
L 216.307504 305.470898 
L 217.149501 309.860259 
L 217.991499 306.705406 
L 218.833496 310.9576 
L 219.675493 318.22748 
L 220.517491 322.75401 
L 221.359488 325.223026 
L 222.201486 323.30268 
L 223.043483 325.085858 
L 223.88548 323.714183 
L 224.727478 338.253944 
L 225.569475 349.090181 
L 226.411472 358.280407 
L 227.25347 357.183066 
L 228.095467 361.298093 
L 228.937465 363.081271 
L 229.779462 358.966245 
L 230.621459 351.422029 
L 231.463457 353.06804 
L 232.305454 355.125553 
L 233.147451 348.404343 
L 234.831446 370.213984 
L 235.673444 368.430806 
L 236.515441 370.762654 
L 237.357438 371.448492 
L 238.199436 374.603346 
L 239.041433 374.603346 
L 239.88343 377.346697 
L 240.725428 378.992708 
L 241.567425 376.660859 
L 242.409423 375.014849 
L 243.25142 375.837854 
L 244.093417 376.386524 
L 244.935415 378.30687 
L 245.777412 382.010394 
L 246.619409 378.444038 
L 247.461407 380.364383 
L 248.303404 381.873227 
L 249.145402 380.090048 
L 249.987399 383.793572 
L 250.829396 384.342243 
L 251.671394 386.125421 
L 252.513391 384.067907 
L 254.197386 383.793572 
L 255.039383 385.439583 
L 255.881381 385.988253 
L 256.723378 384.616578 
L 258.407373 380.364383 
L 259.24937 383.93074 
L 260.091367 383.38207 
L 260.933365 381.873227 
L 261.775362 383.244902 
L 262.61736 381.461724 
L 263.459357 382.421897 
L 264.301354 382.421897 
L 265.143352 379.952881 
L 265.985349 378.032535 
L 266.827346 380.638719 
L 267.669344 377.621032 
L 269.353339 366.51046 
L 270.195336 364.86445 
L 271.037333 345.935327 
L 271.879331 319.461988 
L 271.879331 319.461988 
" clip-path="url(#p2842153047)" style="fill: none; stroke: #008000; stroke-width: 1.5; stroke-linecap: square"/>
   </g>
   <g id="patch_8">
    <path d="M 57.17 398.333333 
L 57.17 218.506667 
" style="fill: none; stroke: #000000; stroke-width: 0.8; stroke-linejoin: miter; stroke-linecap: square"/>
   </g>
   <g id="patch_9">
    <path d="M 272.721328 398.333333 
L 272.721328 218.506667 
" style="fill: none; stroke: #000000; stroke-width: 0.8; stroke-linejoin: miter; stroke-linecap: square"/>
   </g>
   <g id="patch_10">
    <path d="M 57.17 398.333333 
L 272.721328 398.333333 
" style="fill: none; stroke: #000000; stroke-width: 0.8; stroke-linejoin: miter; stroke-linecap: square"/>
   </g>
   <g id="patch_11">
    <path d="M 57.17 218.506667 
L 272.721328 218.506667 
" style="fill: none; stroke: #000000; stroke-width: 0.8; stroke-linejoin: miter; stroke-linecap: square"/>
   </g>
   <g id="text_30">
    <!-- Green Channel  -->
    <g transform="translate(179.494453 232.506667) scale(0.12 -0.12)">
     <defs>
      <path id="DejaVuSans-47" d="M 3809 666 
L 3809 1919 
L 2778 1919 
L 2778 2438 
L 4434 2438 
L 4434 434 
Q 4069 175 3628 42 
Q 3188 -91 2688 -91 
Q 1594 -91 976 548 
Q 359 1188 359 2328 
Q 359 3472 976 4111 
Q 1594 4750 2688 4750 
Q 3144 4750 3555 4637 
Q 3966 4525 4313 4306 
L 4313 3634 
Q 3963 3931 3569 4081 
Q 3175 4231 2741 4231 
Q 1884 4231 1454 3753 
Q 1025 3275 1025 2328 
Q 1025 1384 1454 906 
Q 1884 428 2741 428 
Q 3075 428 3337 486 
Q 3600 544 3809 666 
z
" transform="scale(0.015625)"/>
     </defs>
     <use xlink:href="#DejaVuSans-47"/>
     <use xlink:href="#DejaVuSans-72" x="77.490234"/>
     <use xlink:href="#DejaVuSans-65" x="116.353516"/>
     <use xlink:href="#DejaVuSans-65" x="177.876953"/>
     <use xlink:href="#DejaVuSans-6e" x="239.400391"/>
     <use xlink:href="#DejaVuSans-20" x="302.779297"/>
     <use xlink:href="#DejaVuSans-43" x="334.566406"/>
     <use xlink:href="#DejaVuSans-68" x="404.390625"/>
     <use xlink:href="#DejaVuSans-61" x="467.769531"/>
     <use xlink:href="#DejaVuSans-6e" x="529.048828"/>
     <use xlink:href="#DejaVuSans-6e" x="592.427734"/>
     <use xlink:href="#DejaVuSans-65" x="655.806641"/>
     <use xlink:href="#DejaVuSans-6c" x="717.330078"/>
     <use xlink:href="#DejaVuSans-20" x="745.113281"/>
    </g>
   </g>
  </g>
  <g id="axes_3">
   <g id="patch_12">
    <path d="M 57.17 606.04 
L 272.721328 606.04 
L 272.721328 426.213333 
L 57.17 426.213333 
z
" style="fill: #ffffff"/>
   </g>
   <g id="PolyCollection_3">
    <defs>
     <path id="ma581662750" d="M 57.17 -41.96 
L 57.17 -41.96 
L 58.011997 -41.96 
L 58.853995 -41.96 
L 59.695992 -41.96 
L 60.53799 -41.96 
L 61.379987 -41.96 
L 62.221984 -41.96 
L 63.063982 -41.96 
L 63.905979 -41.96 
L 64.747976 -41.96 
L 65.589974 -41.96 
L 66.431971 -41.96 
L 67.273969 -41.96 
L 68.115966 -41.96 
L 68.957963 -41.96 
L 69.799961 -41.96 
L 70.641958 -41.96 
L 71.483955 -41.96 
L 72.325953 -41.96 
L 73.16795 -41.96 
L 74.009948 -41.96 
L 74.851945 -41.96 
L 75.693942 -41.96 
L 76.53594 -41.96 
L 77.377937 -41.96 
L 78.219934 -41.96 
L 79.061932 -41.96 
L 79.903929 -41.96 
L 80.745927 -41.96 
L 81.587924 -41.96 
L 82.429921 -41.96 
L 83.271919 -41.96 
L 84.113916 -41.96 
L 84.955913 -41.96 
L 85.797911 -41.96 
L 86.639908 -41.96 
L 87.481906 -41.96 
L 88.323903 -41.96 
L 89.1659 -41.96 
L 90.007898 -41.96 
L 90.849895 -41.96 
L 91.691892 -41.96 
L 92.53389 -41.96 
L 93.375887 -42.097168 
L 94.217885 -41.96 
L 95.059882 -42.097168 
L 95.901879 -43.05734 
L 96.743877 -43.331676 
L 97.585874 -45.800692 
L 98.427871 -50.601556 
L 99.269869 -55.265253 
L 100.111866 -65.141317 
L 100.953864 -76.114722 
L 101.795861 -83.110267 
L 102.637858 -94.906677 
L 103.479856 -101.902222 
L 104.321853 -107.937595 
L 105.16385 -104.919908 
L 106.005848 -97.101358 
L 106.847845 -98.335866 
L 107.689843 -107.114589 
L 108.53184 -112.464124 
L 109.373837 -116.304816 
L 110.215835 -121.10568 
L 111.057832 -116.304816 
L 111.899829 -110.269443 
L 112.741827 -118.087994 
L 113.583824 -131.80475 
L 114.425822 -119.734005 
L 115.267819 -125.906545 
L 116.109816 -129.198566 
L 116.951814 -155.397569 
L 117.793811 -163.353288 
L 118.635808 -158.14092 
L 119.477806 -144.6985 
L 120.319803 -137.702954 
L 121.161801 -144.286997 
L 122.003798 -147.716186 
L 122.845795 -143.463992 
L 123.687793 -131.118912 
L 124.52979 -127.415388 
L 125.371787 -132.627755 
L 126.213785 -122.477356 
L 127.055782 -127.689723 
L 127.89778 -123.574696 
L 128.739777 -127.964058 
L 129.581774 -126.18088 
L 130.423772 -141.680814 
L 131.265769 -162.255947 
L 132.107766 -164.862131 
L 132.949764 -172.955017 
L 133.791761 -166.782476 
L 134.633759 -170.074498 
L 135.475756 -193.118647 
L 136.317753 -206.149565 
L 137.159751 -220.003488 
L 138.001748 -212.04777 
L 138.843745 -209.167251 
L 139.685743 -219.866321 
L 140.52774 -221.786667 
L 141.369738 -212.59644 
L 142.211735 -192.295642 
L 143.053732 -163.21612 
L 143.89573 -146.207343 
L 144.737727 -128.375561 
L 145.579724 -126.043712 
L 146.421722 -121.791518 
L 147.263719 -106.428752 
L 148.105717 -95.043844 
L 148.947714 -93.260666 
L 149.789711 -81.875759 
L 150.631709 -75.017381 
L 151.473706 -72.411198 
L 152.315703 -71.451025 
L 153.157701 -69.256344 
L 153.999698 -68.433338 
L 154.841696 -65.55282 
L 155.683693 -65.55282 
L 156.52569 -64.592647 
L 157.367688 -63.769641 
L 158.209685 -62.397966 
L 159.051682 -62.946636 
L 159.89368 -61.437793 
L 160.735677 -59.92895 
L 161.577675 -58.282939 
L 162.419672 -58.282939 
L 163.261669 -56.774096 
L 164.103667 -57.459934 
L 164.945664 -56.362593 
L 165.787661 -55.813923 
L 166.629659 -57.734269 
L 167.471656 -56.362593 
L 168.313654 -55.539588 
L 169.155651 -55.951091 
L 169.997648 -54.442248 
L 170.839646 -55.676756 
L 171.681643 -55.128085 
L 172.52364 -52.796237 
L 173.365638 -53.482075 
L 174.207635 -53.75641 
L 175.049633 -53.344907 
L 175.89163 -52.521902 
L 176.733627 -51.973232 
L 177.575625 -52.521902 
L 178.417622 -51.150226 
L 179.259619 -52.521902 
L 180.101617 -51.561729 
L 180.943614 -53.070572 
L 181.785612 -51.698897 
L 182.627609 -51.424561 
L 183.469606 -50.875891 
L 184.311604 -55.128085 
L 185.153601 -50.601556 
L 185.995598 -50.875891 
L 186.837596 -51.287394 
L 187.679593 -48.544043 
L 188.521591 -49.367048 
L 189.363588 -48.68121 
L 190.205585 -49.641383 
L 191.047583 -49.092713 
L 191.88958 -47.172367 
L 192.731577 -49.778551 
L 193.573575 -52.247567 
L 194.415572 -49.367048 
L 195.25757 -48.68121 
L 196.099567 -48.544043 
L 196.941564 -46.623697 
L 197.783562 -49.22988 
L 198.625559 -47.721037 
L 199.467556 -48.406875 
L 200.309554 -48.955545 
L 201.151551 -49.504216 
L 201.993549 -49.367048 
L 202.835546 -46.760864 
L 203.677543 -48.406875 
L 204.519541 -48.818378 
L 205.361538 -47.309535 
L 206.203535 -48.406875 
L 207.045533 -45.663524 
L 207.88753 -47.858205 
L 208.729528 -44.840519 
L 209.571525 -45.800692 
L 210.413522 -45.389189 
L 211.25552 -47.58387 
L 212.097517 -46.898032 
L 212.939514 -46.623697 
L 213.781512 -46.760864 
L 214.623509 -47.995372 
L 215.465507 -45.526356 
L 216.307504 -45.663524 
L 217.149501 -45.937859 
L 217.991499 -45.526356 
L 218.833496 -46.075027 
L 219.675493 -47.446702 
L 220.517491 -45.389189 
L 221.359488 -47.172367 
L 222.201486 -45.937859 
L 223.043483 -45.526356 
L 223.88548 -46.075027 
L 224.727478 -45.114854 
L 225.569475 -46.898032 
L 226.411472 -45.389189 
L 227.25347 -45.800692 
L 228.095467 -45.389189 
L 228.937465 -44.429016 
L 229.779462 -45.937859 
L 230.621459 -44.840519 
L 231.463457 -44.840519 
L 232.305454 -44.977686 
L 233.147451 -47.309535 
L 233.989449 -44.429016 
L 234.831446 -45.800692 
L 235.673444 -46.486529 
L 236.515441 -44.017513 
L 237.357438 -44.429016 
L 238.199436 -44.566184 
L 239.041433 -45.663524 
L 239.88343 -44.429016 
L 240.725428 -45.389189 
L 241.567425 -44.017513 
L 242.409423 -44.840519 
L 243.25142 -44.429016 
L 244.093417 -44.291848 
L 244.935415 -44.291848 
L 245.777412 -44.566184 
L 246.619409 -44.703351 
L 247.461407 -43.880346 
L 248.303404 -44.566184 
L 249.145402 -44.154681 
L 249.987399 -44.429016 
L 250.829396 -44.566184 
L 251.671394 -45.114854 
L 252.513391 -44.154681 
L 253.355388 -45.937859 
L 254.197386 -43.468843 
L 255.039383 -43.468843 
L 255.881381 -44.154681 
L 256.723378 -43.880346 
L 257.565375 -43.606011 
L 258.407373 -44.017513 
L 259.24937 -44.291848 
L 260.091367 -43.05734 
L 260.933365 -45.252021 
L 261.775362 -44.703351 
L 262.61736 -43.880346 
L 263.459357 -44.154681 
L 264.301354 -43.880346 
L 265.143352 -43.468843 
L 265.985349 -44.429016 
L 266.827346 -45.526356 
L 267.669344 -43.743178 
L 268.511341 -44.429016 
L 269.353339 -44.977686 
L 270.195336 -43.606011 
L 271.037333 -45.114854 
L 271.879331 -45.663524 
L 271.879331 -41.96 
L 271.879331 -41.96 
L 271.037333 -41.96 
L 270.195336 -41.96 
L 269.353339 -41.96 
L 268.511341 -41.96 
L 267.669344 -41.96 
L 266.827346 -41.96 
L 265.985349 -41.96 
L 265.143352 -41.96 
L 264.301354 -41.96 
L 263.459357 -41.96 
L 262.61736 -41.96 
L 261.775362 -41.96 
L 260.933365 -41.96 
L 260.091367 -41.96 
L 259.24937 -41.96 
L 258.407373 -41.96 
L 257.565375 -41.96 
L 256.723378 -41.96 
L 255.881381 -41.96 
L 255.039383 -41.96 
L 254.197386 -41.96 
L 253.355388 -41.96 
L 252.513391 -41.96 
L 251.671394 -41.96 
L 250.829396 -41.96 
L 249.987399 -41.96 
L 249.145402 -41.96 
L 248.303404 -41.96 
L 247.461407 -41.96 
L 246.619409 -41.96 
L 245.777412 -41.96 
L 244.935415 -41.96 
L 244.093417 -41.96 
L 243.25142 -41.96 
L 242.409423 -41.96 
L 241.567425 -41.96 
L 240.725428 -41.96 
L 239.88343 -41.96 
L 239.041433 -41.96 
L 238.199436 -41.96 
L 237.357438 -41.96 
L 236.515441 -41.96 
L 235.673444 -41.96 
L 234.831446 -41.96 
L 233.989449 -41.96 
L 233.147451 -41.96 
L 232.305454 -41.96 
L 231.463457 -41.96 
L 230.621459 -41.96 
L 229.779462 -41.96 
L 228.937465 -41.96 
L 228.095467 -41.96 
L 227.25347 -41.96 
L 226.411472 -41.96 
L 225.569475 -41.96 
L 224.727478 -41.96 
L 223.88548 -41.96 
L 223.043483 -41.96 
L 222.201486 -41.96 
L 221.359488 -41.96 
L 220.517491 -41.96 
L 219.675493 -41.96 
L 218.833496 -41.96 
L 217.991499 -41.96 
L 217.149501 -41.96 
L 216.307504 -41.96 
L 215.465507 -41.96 
L 214.623509 -41.96 
L 213.781512 -41.96 
L 212.939514 -41.96 
L 212.097517 -41.96 
L 211.25552 -41.96 
L 210.413522 -41.96 
L 209.571525 -41.96 
L 208.729528 -41.96 
L 207.88753 -41.96 
L 207.045533 -41.96 
L 206.203535 -41.96 
L 205.361538 -41.96 
L 204.519541 -41.96 
L 203.677543 -41.96 
L 202.835546 -41.96 
L 201.993549 -41.96 
L 201.151551 -41.96 
L 200.309554 -41.96 
L 199.467556 -41.96 
L 198.625559 -41.96 
L 197.783562 -41.96 
L 196.941564 -41.96 
L 196.099567 -41.96 
L 195.25757 -41.96 
L 194.415572 -41.96 
L 193.573575 -41.96 
L 192.731577 -41.96 
L 191.88958 -41.96 
L 191.047583 -41.96 
L 190.205585 -41.96 
L 189.363588 -41.96 
L 188.521591 -41.96 
L 187.679593 -41.96 
L 186.837596 -41.96 
L 185.995598 -41.96 
L 185.153601 -41.96 
L 184.311604 -41.96 
L 183.469606 -41.96 
L 182.627609 -41.96 
L 181.785612 -41.96 
L 180.943614 -41.96 
L 180.101617 -41.96 
L 179.259619 -41.96 
L 178.417622 -41.96 
L 177.575625 -41.96 
L 176.733627 -41.96 
L 175.89163 -41.96 
L 175.049633 -41.96 
L 174.207635 -41.96 
L 173.365638 -41.96 
L 172.52364 -41.96 
L 171.681643 -41.96 
L 170.839646 -41.96 
L 169.997648 -41.96 
L 169.155651 -41.96 
L 168.313654 -41.96 
L 167.471656 -41.96 
L 166.629659 -41.96 
L 165.787661 -41.96 
L 164.945664 -41.96 
L 164.103667 -41.96 
L 163.261669 -41.96 
L 162.419672 -41.96 
L 161.577675 -41.96 
L 160.735677 -41.96 
L 159.89368 -41.96 
L 159.051682 -41.96 
L 158.209685 -41.96 
L 157.367688 -41.96 
L 156.52569 -41.96 
L 155.683693 -41.96 
L 154.841696 -41.96 
L 153.999698 -41.96 
L 153.157701 -41.96 
L 152.315703 -41.96 
L 151.473706 -41.96 
L 150.631709 -41.96 
L 149.789711 -41.96 
L 148.947714 -41.96 
L 148.105717 -41.96 
L 147.263719 -41.96 
L 146.421722 -41.96 
L 145.579724 -41.96 
L 144.737727 -41.96 
L 143.89573 -41.96 
L 143.053732 -41.96 
L 142.211735 -41.96 
L 141.369738 -41.96 
L 140.52774 -41.96 
L 139.685743 -41.96 
L 138.843745 -41.96 
L 138.001748 -41.96 
L 137.159751 -41.96 
L 136.317753 -41.96 
L 135.475756 -41.96 
L 134.633759 -41.96 
L 133.791761 -41.96 
L 132.949764 -41.96 
L 132.107766 -41.96 
L 131.265769 -41.96 
L 130.423772 -41.96 
L 129.581774 -41.96 
L 128.739777 -41.96 
L 127.89778 -41.96 
L 127.055782 -41.96 
L 126.213785 -41.96 
L 125.371787 -41.96 
L 124.52979 -41.96 
L 123.687793 -41.96 
L 122.845795 -41.96 
L 122.003798 -41.96 
L 121.161801 -41.96 
L 120.319803 -41.96 
L 119.477806 -41.96 
L 118.635808 -41.96 
L 117.793811 -41.96 
L 116.951814 -41.96 
L 116.109816 -41.96 
L 115.267819 -41.96 
L 114.425822 -41.96 
L 113.583824 -41.96 
L 112.741827 -41.96 
L 111.899829 -41.96 
L 111.057832 -41.96 
L 110.215835 -41.96 
L 109.373837 -41.96 
L 108.53184 -41.96 
L 107.689843 -41.96 
L 106.847845 -41.96 
L 106.005848 -41.96 
L 105.16385 -41.96 
L 104.321853 -41.96 
L 103.479856 -41.96 
L 102.637858 -41.96 
L 101.795861 -41.96 
L 100.953864 -41.96 
L 100.111866 -41.96 
L 99.269869 -41.96 
L 98.427871 -41.96 
L 97.585874 -41.96 
L 96.743877 -41.96 
L 95.901879 -41.96 
L 95.059882 -41.96 
L 94.217885 -41.96 
L 93.375887 -41.96 
L 92.53389 -41.96 
L 91.691892 -41.96 
L 90.849895 -41.96 
L 90.007898 -41.96 
L 89.1659 -41.96 
L 88.323903 -41.96 
L 87.481906 -41.96 
L 86.639908 -41.96 
L 85.797911 -41.96 
L 84.955913 -41.96 
L 84.113916 -41.96 
L 83.271919 -41.96 
L 82.429921 -41.96 
L 81.587924 -41.96 
L 80.745927 -41.96 
L 79.903929 -41.96 
L 79.061932 -41.96 
L 78.219934 -41.96 
L 77.377937 -41.96 
L 76.53594 -41.96 
L 75.693942 -41.96 
L 74.851945 -41.96 
L 74.009948 -41.96 
L 73.16795 -41.96 
L 72.325953 -41.96 
L 71.483955 -41.96 
L 70.641958 -41.96 
L 69.799961 -41.96 
L 68.957963 -41.96 
L 68.115966 -41.96 
L 67.273969 -41.96 
L 66.431971 -41.96 
L 65.589974 -41.96 
L 64.747976 -41.96 
L 63.905979 -41.96 
L 63.063982 -41.96 
L 62.221984 -41.96 
L 61.379987 -41.96 
L 60.53799 -41.96 
L 59.695992 -41.96 
L 58.853995 -41.96 
L 58.011997 -41.96 
L 57.17 -41.96 
z
" style="stroke: #0000ff; stroke-opacity: 0.4"/>
    </defs>
    <g clip-path="url(#p9d7ba2736c)">
     <use xlink:href="#ma581662750" x="0" y="648" style="fill: #0000ff; fill-opacity: 0.4; stroke: #0000ff; stroke-opacity: 0.4"/>
    </g>
   </g>
   <g id="matplotlib.axis_5">
    <g id="xtick_13">
     <g id="line2d_29">
      <g>
       <use xlink:href="#m10336874c0" x="57.17" y="606.04" style="stroke: #000000; stroke-width: 0.8"/>
      </g>
     </g>
     <g id="text_31">
      <!-- 0 -->
      <g transform="translate(53.98875 620.638438) scale(0.1 -0.1)">
       <use xlink:href="#DejaVuSans-30"/>
      </g>
     </g>
    </g>
    <g id="xtick_14">
     <g id="line2d_30">
      <g>
       <use xlink:href="#m10336874c0" x="99.269869" y="606.04" style="stroke: #000000; stroke-width: 0.8"/>
      </g>
     </g>
     <g id="text_32">
      <!-- 50 -->
      <g transform="translate(92.907369 620.638438) scale(0.1 -0.1)">
       <use xlink:href="#DejaVuSans-35"/>
       <use xlink:href="#DejaVuSans-30" x="63.623047"/>
      </g>
     </g>
    </g>
    <g id="xtick_15">
     <g id="line2d_31">
      <g>
       <use xlink:href="#m10336874c0" x="141.369738" y="606.04" style="stroke: #000000; stroke-width: 0.8"/>
      </g>
     </g>
     <g id="text_33">
      <!-- 100 -->
      <g transform="translate(131.825988 620.638438) scale(0.1 -0.1)">
       <use xlink:href="#DejaVuSans-31"/>
       <use xlink:href="#DejaVuSans-30" x="63.623047"/>
       <use xlink:href="#DejaVuSans-30" x="127.246094"/>
      </g>
     </g>
    </g>
    <g id="xtick_16">
     <g id="line2d_32">
      <g>
       <use xlink:href="#m10336874c0" x="183.469606" y="606.04" style="stroke: #000000; stroke-width: 0.8"/>
      </g>
     </g>
     <g id="text_34">
      <!-- 150 -->
      <g transform="translate(173.925856 620.638438) scale(0.1 -0.1)">
       <use xlink:href="#DejaVuSans-31"/>
       <use xlink:href="#DejaVuSans-35" x="63.623047"/>
       <use xlink:href="#DejaVuSans-30" x="127.246094"/>
      </g>
     </g>
    </g>
    <g id="xtick_17">
     <g id="line2d_33">
      <g>
       <use xlink:href="#m10336874c0" x="225.569475" y="606.04" style="stroke: #000000; stroke-width: 0.8"/>
      </g>
     </g>
     <g id="text_35">
      <!-- 200 -->
      <g transform="translate(216.025725 620.638438) scale(0.1 -0.1)">
       <use xlink:href="#DejaVuSans-32"/>
       <use xlink:href="#DejaVuSans-30" x="63.623047"/>
       <use xlink:href="#DejaVuSans-30" x="127.246094"/>
      </g>
     </g>
    </g>
    <g id="xtick_18">
     <g id="line2d_34">
      <g>
       <use xlink:href="#m10336874c0" x="267.669344" y="606.04" style="stroke: #000000; stroke-width: 0.8"/>
      </g>
     </g>
     <g id="text_36">
      <!-- 250 -->
      <g transform="translate(258.125594 620.638438) scale(0.1 -0.1)">
       <use xlink:href="#DejaVuSans-32"/>
       <use xlink:href="#DejaVuSans-35" x="63.623047"/>
       <use xlink:href="#DejaVuSans-30" x="127.246094"/>
      </g>
     </g>
    </g>
    <g id="text_37">
     <!-- Pixel Intensity -->
     <g transform="translate(130.033945 634.316563) scale(0.1 -0.1)">
      <defs>
       <path id="DejaVuSans-49" d="M 628 4666 
L 1259 4666 
L 1259 0 
L 628 0 
L 628 4666 
z
" transform="scale(0.015625)"/>
       <path id="DejaVuSans-74" d="M 1172 4494 
L 1172 3500 
L 2356 3500 
L 2356 3053 
L 1172 3053 
L 1172 1153 
Q 1172 725 1289 603 
Q 1406 481 1766 481 
L 2356 481 
L 2356 0 
L 1766 0 
Q 1100 0 847 248 
Q 594 497 594 1153 
L 594 3053 
L 172 3053 
L 172 3500 
L 594 3500 
L 594 4494 
L 1172 4494 
z
" transform="scale(0.015625)"/>
       <path id="DejaVuSans-73" d="M 2834 3397 
L 2834 2853 
Q 2591 2978 2328 3040 
Q 2066 3103 1784 3103 
Q 1356 3103 1142 2972 
Q 928 2841 928 2578 
Q 928 2378 1081 2264 
Q 1234 2150 1697 2047 
L 1894 2003 
Q 2506 1872 2764 1633 
Q 3022 1394 3022 966 
Q 3022 478 2636 193 
Q 2250 -91 1575 -91 
Q 1294 -91 989 -36 
Q 684 19 347 128 
L 347 722 
Q 666 556 975 473 
Q 1284 391 1588 391 
Q 1994 391 2212 530 
Q 2431 669 2431 922 
Q 2431 1156 2273 1281 
Q 2116 1406 1581 1522 
L 1381 1569 
Q 847 1681 609 1914 
Q 372 2147 372 2553 
Q 372 3047 722 3315 
Q 1072 3584 1716 3584 
Q 2034 3584 2315 3537 
Q 2597 3491 2834 3397 
z
" transform="scale(0.015625)"/>
      </defs>
      <use xlink:href="#DejaVuSans-50"/>
      <use xlink:href="#DejaVuSans-69" x="58.052734"/>
      <use xlink:href="#DejaVuSans-78" x="85.835938"/>
      <use xlink:href="#DejaVuSans-65" x="141.890625"/>
      <use xlink:href="#DejaVuSans-6c" x="203.414062"/>
      <use xlink:href="#DejaVuSans-20" x="231.197266"/>
      <use xlink:href="#DejaVuSans-49" x="262.984375"/>
      <use xlink:href="#DejaVuSans-6e" x="292.476562"/>
      <use xlink:href="#DejaVuSans-74" x="355.855469"/>
      <use xlink:href="#DejaVuSans-65" x="395.064453"/>
      <use xlink:href="#DejaVuSans-6e" x="456.587891"/>
      <use xlink:href="#DejaVuSans-73" x="519.966797"/>
      <use xlink:href="#DejaVuSans-69" x="572.066406"/>
      <use xlink:href="#DejaVuSans-74" x="599.849609"/>
      <use xlink:href="#DejaVuSans-79" x="639.058594"/>
     </g>
    </g>
   </g>
   <g id="matplotlib.axis_6">
    <g id="ytick_15">
     <g id="line2d_35">
      <g>
       <use xlink:href="#me421e1ae94" x="57.17" y="606.04" style="stroke: #000000; stroke-width: 0.8"/>
      </g>
     </g>
     <g id="text_38">
      <!-- 0 -->
      <g transform="translate(43.8075 609.839219) scale(0.1 -0.1)">
       <use xlink:href="#DejaVuSans-30"/>
      </g>
     </g>
    </g>
    <g id="ytick_16">
     <g id="line2d_36">
      <g>
       <use xlink:href="#me421e1ae94" x="57.17" y="578.606489" style="stroke: #000000; stroke-width: 0.8"/>
      </g>
     </g>
     <g id="text_39">
      <!-- 200 -->
      <g transform="translate(31.0825 582.405707) scale(0.1 -0.1)">
       <use xlink:href="#DejaVuSans-32"/>
       <use xlink:href="#DejaVuSans-30" x="63.623047"/>
       <use xlink:href="#DejaVuSans-30" x="127.246094"/>
      </g>
     </g>
    </g>
    <g id="ytick_17">
     <g id="line2d_37">
      <g>
       <use xlink:href="#me421e1ae94" x="57.17" y="551.172977" style="stroke: #000000; stroke-width: 0.8"/>
      </g>
     </g>
     <g id="text_40">
      <!-- 400 -->
      <g transform="translate(31.0825 554.972196) scale(0.1 -0.1)">
       <use xlink:href="#DejaVuSans-34"/>
       <use xlink:href="#DejaVuSans-30" x="63.623047"/>
       <use xlink:href="#DejaVuSans-30" x="127.246094"/>
      </g>
     </g>
    </g>
    <g id="ytick_18">
     <g id="line2d_38">
      <g>
       <use xlink:href="#me421e1ae94" x="57.17" y="523.739466" style="stroke: #000000; stroke-width: 0.8"/>
      </g>
     </g>
     <g id="text_41">
      <!-- 600 -->
      <g transform="translate(31.0825 527.538685) scale(0.1 -0.1)">
       <use xlink:href="#DejaVuSans-36"/>
       <use xlink:href="#DejaVuSans-30" x="63.623047"/>
       <use xlink:href="#DejaVuSans-30" x="127.246094"/>
      </g>
     </g>
    </g>
    <g id="ytick_19">
     <g id="line2d_39">
      <g>
       <use xlink:href="#me421e1ae94" x="57.17" y="496.305955" style="stroke: #000000; stroke-width: 0.8"/>
      </g>
     </g>
     <g id="text_42">
      <!-- 800 -->
      <g transform="translate(31.0825 500.105173) scale(0.1 -0.1)">
       <use xlink:href="#DejaVuSans-38"/>
       <use xlink:href="#DejaVuSans-30" x="63.623047"/>
       <use xlink:href="#DejaVuSans-30" x="127.246094"/>
      </g>
     </g>
    </g>
    <g id="ytick_20">
     <g id="line2d_40">
      <g>
       <use xlink:href="#me421e1ae94" x="57.17" y="468.872443" style="stroke: #000000; stroke-width: 0.8"/>
      </g>
     </g>
     <g id="text_43">
      <!-- 1000 -->
      <g transform="translate(24.72 472.671662) scale(0.1 -0.1)">
       <use xlink:href="#DejaVuSans-31"/>
       <use xlink:href="#DejaVuSans-30" x="63.623047"/>
       <use xlink:href="#DejaVuSans-30" x="127.246094"/>
       <use xlink:href="#DejaVuSans-30" x="190.869141"/>
      </g>
     </g>
    </g>
    <g id="ytick_21">
     <g id="line2d_41">
      <g>
       <use xlink:href="#me421e1ae94" x="57.17" y="441.438932" style="stroke: #000000; stroke-width: 0.8"/>
      </g>
     </g>
     <g id="text_44">
      <!-- 1200 -->
      <g transform="translate(24.72 445.238151) scale(0.1 -0.1)">
       <use xlink:href="#DejaVuSans-31"/>
       <use xlink:href="#DejaVuSans-32" x="63.623047"/>
       <use xlink:href="#DejaVuSans-30" x="127.246094"/>
       <use xlink:href="#DejaVuSans-30" x="190.869141"/>
      </g>
     </g>
    </g>
    <g id="text_45">
     <!-- Pixel Frequency -->
     <g transform="translate(18.640313 555.105573) rotate(-90) scale(0.1 -0.1)">
      <use xlink:href="#DejaVuSans-50"/>
      <use xlink:href="#DejaVuSans-69" x="58.052734"/>
      <use xlink:href="#DejaVuSans-78" x="85.835938"/>
      <use xlink:href="#DejaVuSans-65" x="141.890625"/>
      <use xlink:href="#DejaVuSans-6c" x="203.414062"/>
      <use xlink:href="#DejaVuSans-20" x="231.197266"/>
      <use xlink:href="#DejaVuSans-46" x="262.984375"/>
      <use xlink:href="#DejaVuSans-72" x="313.253906"/>
      <use xlink:href="#DejaVuSans-65" x="352.117188"/>
      <use xlink:href="#DejaVuSans-71" x="413.640625"/>
      <use xlink:href="#DejaVuSans-75" x="477.117188"/>
      <use xlink:href="#DejaVuSans-65" x="540.496094"/>
      <use xlink:href="#DejaVuSans-6e" x="602.019531"/>
      <use xlink:href="#DejaVuSans-63" x="665.398438"/>
      <use xlink:href="#DejaVuSans-79" x="720.378906"/>
     </g>
    </g>
   </g>
   <g id="line2d_42">
    <path d="M 57.17 606.04 
L 92.53389 606.04 
L 93.375887 605.902832 
L 94.217885 606.04 
L 95.059882 605.902832 
L 95.901879 604.94266 
L 96.743877 604.668324 
L 97.585874 602.199308 
L 99.269869 592.734747 
L 100.953864 571.885278 
L 101.795861 564.889733 
L 102.637858 553.093323 
L 103.479856 546.097778 
L 104.321853 540.062405 
L 105.16385 543.080092 
L 106.005848 550.898642 
L 106.847845 549.664134 
L 107.689843 540.885411 
L 108.53184 535.535876 
L 109.373837 531.695184 
L 110.215835 526.89432 
L 111.057832 531.695184 
L 111.899829 537.730557 
L 112.741827 529.912006 
L 113.583824 516.19525 
L 114.425822 528.265995 
L 115.267819 522.093455 
L 116.109816 518.801434 
L 116.951814 492.602431 
L 117.793811 484.646712 
L 118.635808 489.85908 
L 119.477806 503.3015 
L 120.319803 510.297046 
L 121.161801 503.713003 
L 122.003798 500.283814 
L 122.845795 504.536008 
L 123.687793 516.881088 
L 124.52979 520.584612 
L 125.371787 515.372245 
L 126.213785 525.522644 
L 127.055782 520.310277 
L 127.89778 524.425304 
L 128.739777 520.035942 
L 129.581774 521.81912 
L 130.423772 506.319186 
L 131.265769 485.744053 
L 132.107766 483.137869 
L 132.949764 475.044983 
L 133.791761 481.217524 
L 134.633759 477.925502 
L 135.475756 454.881353 
L 137.159751 427.996512 
L 138.001748 435.95223 
L 138.843745 438.832749 
L 139.685743 428.133679 
L 140.52774 426.213333 
L 141.369738 435.40356 
L 142.211735 455.704358 
L 143.053732 484.78388 
L 144.737727 519.624439 
L 145.579724 521.956288 
L 146.421722 526.208482 
L 147.263719 541.571248 
L 148.105717 552.956156 
L 148.947714 554.739334 
L 149.789711 566.124241 
L 150.631709 572.982619 
L 151.473706 575.588802 
L 152.315703 576.548975 
L 153.157701 578.743656 
L 153.999698 579.566662 
L 154.841696 582.44718 
L 155.683693 582.44718 
L 157.367688 584.230359 
L 158.209685 585.602034 
L 159.051682 585.053364 
L 161.577675 589.717061 
L 162.419672 589.717061 
L 163.261669 591.225904 
L 164.103667 590.540066 
L 164.945664 591.637407 
L 165.787661 592.186077 
L 166.629659 590.265731 
L 167.471656 591.637407 
L 168.313654 592.460412 
L 169.155651 592.048909 
L 169.997648 593.557752 
L 170.839646 592.323244 
L 171.681643 592.871915 
L 172.52364 595.203763 
L 173.365638 594.517925 
L 174.207635 594.24359 
L 175.049633 594.655093 
L 175.89163 595.478098 
L 176.733627 596.026768 
L 177.575625 595.478098 
L 178.417622 596.849774 
L 179.259619 595.478098 
L 180.101617 596.438271 
L 180.943614 594.929428 
L 181.785612 596.301103 
L 182.627609 596.575439 
L 183.469606 597.124109 
L 184.311604 592.871915 
L 185.153601 597.398444 
L 185.995598 597.124109 
L 186.837596 596.712606 
L 187.679593 599.455957 
L 188.521591 598.632952 
L 189.363588 599.31879 
L 190.205585 598.358617 
L 191.047583 598.907287 
L 191.88958 600.827633 
L 193.573575 595.752433 
L 194.415572 598.632952 
L 195.25757 599.31879 
L 196.099567 599.455957 
L 196.941564 601.376303 
L 197.783562 598.77012 
L 198.625559 600.278963 
L 200.309554 599.044455 
L 201.151551 598.495784 
L 201.993549 598.632952 
L 202.835546 601.239136 
L 203.677543 599.593125 
L 204.519541 599.181622 
L 205.361538 600.690465 
L 206.203535 599.593125 
L 207.045533 602.336476 
L 207.88753 600.141795 
L 208.729528 603.159481 
L 209.571525 602.199308 
L 210.413522 602.610811 
L 211.25552 600.41613 
L 212.097517 601.101968 
L 212.939514 601.376303 
L 213.781512 601.239136 
L 214.623509 600.004628 
L 215.465507 602.473644 
L 216.307504 602.336476 
L 217.149501 602.062141 
L 217.991499 602.473644 
L 218.833496 601.924973 
L 219.675493 600.553298 
L 220.517491 602.610811 
L 221.359488 600.827633 
L 222.201486 602.062141 
L 223.043483 602.473644 
L 223.88548 601.924973 
L 224.727478 602.885146 
L 225.569475 601.101968 
L 226.411472 602.610811 
L 227.25347 602.199308 
L 228.095467 602.610811 
L 228.937465 603.570984 
L 229.779462 602.062141 
L 230.621459 603.159481 
L 231.463457 603.159481 
L 232.305454 603.022314 
L 233.147451 600.690465 
L 233.989449 603.570984 
L 234.831446 602.199308 
L 235.673444 601.513471 
L 236.515441 603.982487 
L 237.357438 603.570984 
L 238.199436 603.433816 
L 239.041433 602.336476 
L 239.88343 603.570984 
L 240.725428 602.610811 
L 241.567425 603.982487 
L 242.409423 603.159481 
L 243.25142 603.570984 
L 244.093417 603.708152 
L 244.935415 603.708152 
L 245.777412 603.433816 
L 246.619409 603.296649 
L 247.461407 604.119654 
L 248.303404 603.433816 
L 249.145402 603.845319 
L 249.987399 603.570984 
L 250.829396 603.433816 
L 251.671394 602.885146 
L 252.513391 603.845319 
L 253.355388 602.062141 
L 254.197386 604.531157 
L 255.039383 604.531157 
L 255.881381 603.845319 
L 257.565375 604.393989 
L 258.407373 603.982487 
L 259.24937 603.708152 
L 260.091367 604.94266 
L 260.933365 602.747979 
L 261.775362 603.296649 
L 262.61736 604.119654 
L 263.459357 603.845319 
L 264.301354 604.119654 
L 265.143352 604.531157 
L 266.827346 602.473644 
L 267.669344 604.256822 
L 269.353339 603.022314 
L 270.195336 604.393989 
L 271.037333 602.885146 
L 271.879331 602.336476 
L 271.879331 602.336476 
" clip-path="url(#p9d7ba2736c)" style="fill: none; stroke: #0000ff; stroke-width: 1.5; stroke-linecap: square"/>
   </g>
   <g id="patch_13">
    <path d="M 57.17 606.04 
L 57.17 426.213333 
" style="fill: none; stroke: #000000; stroke-width: 0.8; stroke-linejoin: miter; stroke-linecap: square"/>
   </g>
   <g id="patch_14">
    <path d="M 272.721328 606.04 
L 272.721328 426.213333 
" style="fill: none; stroke: #000000; stroke-width: 0.8; stroke-linejoin: miter; stroke-linecap: square"/>
   </g>
   <g id="patch_15">
    <path d="M 57.17 606.04 
L 272.721328 606.04 
" style="fill: none; stroke: #000000; stroke-width: 0.8; stroke-linejoin: miter; stroke-linecap: square"/>
   </g>
   <g id="patch_16">
    <path d="M 57.17 426.213333 
L 272.721328 426.213333 
" style="fill: none; stroke: #000000; stroke-width: 0.8; stroke-linejoin: miter; stroke-linecap: square"/>
   </g>
   <g id="text_46">
    <!-- Blue Channel  -->
    <g transform="translate(189.272578 440.213333) scale(0.12 -0.12)">
     <defs>
      <path id="DejaVuSans-42" d="M 1259 2228 
L 1259 519 
L 2272 519 
Q 2781 519 3026 730 
Q 3272 941 3272 1375 
Q 3272 1813 3026 2020 
Q 2781 2228 2272 2228 
L 1259 2228 
z
M 1259 4147 
L 1259 2741 
L 2194 2741 
Q 2656 2741 2882 2914 
Q 3109 3088 3109 3444 
Q 3109 3797 2882 3972 
Q 2656 4147 2194 4147 
L 1259 4147 
z
M 628 4666 
L 2241 4666 
Q 2963 4666 3353 4366 
Q 3744 4066 3744 3513 
Q 3744 3084 3544 2831 
Q 3344 2578 2956 2516 
Q 3422 2416 3680 2098 
Q 3938 1781 3938 1306 
Q 3938 681 3513 340 
Q 3088 0 2303 0 
L 628 0 
L 628 4666 
z
" transform="scale(0.015625)"/>
     </defs>
     <use xlink:href="#DejaVuSans-42"/>
     <use xlink:href="#DejaVuSans-6c" x="68.603516"/>
     <use xlink:href="#DejaVuSans-75" x="96.386719"/>
     <use xlink:href="#DejaVuSans-65" x="159.765625"/>
     <use xlink:href="#DejaVuSans-20" x="221.289062"/>
     <use xlink:href="#DejaVuSans-43" x="253.076172"/>
     <use xlink:href="#DejaVuSans-68" x="322.900391"/>
     <use xlink:href="#DejaVuSans-61" x="386.279297"/>
     <use xlink:href="#DejaVuSans-6e" x="447.558594"/>
     <use xlink:href="#DejaVuSans-6e" x="510.9375"/>
     <use xlink:href="#DejaVuSans-65" x="574.316406"/>
     <use xlink:href="#DejaVuSans-6c" x="635.839844"/>
     <use xlink:href="#DejaVuSans-20" x="663.623047"/>
    </g>
   </g>
  </g>
 </g>
 <defs>
  <clipPath id="p3179e45896">
   <rect x="57.17" y="10.8" width="215.551328" height="179.826667"/>
  </clipPath>
  <clipPath id="p2842153047">
   <rect x="57.17" y="218.506667" width="215.551328" height="179.826667"/>
  </clipPath>
  <clipPath id="p9d7ba2736c">
   <rect x="57.17" y="426.213333" width="215.551328" height="179.826667"/>
  </clipPath>
 </defs>
</svg>
