<?xml version="1.0" encoding="utf-8" standalone="no"?>
<!DOCTYPE svg PUBLIC "-//W3C//DTD SVG 1.1//EN"
  "http://www.w3.org/Graphics/SVG/1.1/DTD/svg11.dtd">
<svg xmlns:xlink="http://www.w3.org/1999/xlink" width="288pt" height="648pt" viewBox="0 0 288 648" xmlns="http://www.w3.org/2000/svg" version="1.1">
 <metadata>
  <rdf:RDF xmlns:dc="http://purl.org/dc/elements/1.1/" xmlns:cc="http://creativecommons.org/ns#" xmlns:rdf="http://www.w3.org/1999/02/22-rdf-syntax-ns#">
   <cc:Work>
    <dc:type rdf:resource="http://purl.org/dc/dcmitype/StillImage"/>
    <dc:date>2023-11-18T15:19:46.953233</dc:date>
    <dc:format>image/svg+xml</dc:format>
    <dc:creator>
     <cc:Agent>
      <dc:title>Matplotlib v3.8.0, https://matplotlib.org/</dc:title>
     </cc:Agent>
    </dc:creator>
   </cc:Work>
  </rdf:RDF>
 </metadata>
 <defs>
  <style type="text/css">*{stroke-linejoin: round; stroke-linecap: butt}</style>
 </defs>
 <g id="figure_1">
  <g id="patch_1">
   <path d="M 0 648 
L 288 648 
L 288 0 
L 0 0 
z
" style="fill: #ffffff"/>
  </g>
  <g id="axes_1">
   <g id="patch_2">
    <path d="M 57.17 190.626667 
L 272.721328 190.626667 
L 272.721328 10.8 
L 57.17 10.8 
z
" style="fill: #ffffff"/>
   </g>
   <g id="PolyCollection_1">
    <defs>
     <path id="m458a135c33" d="M 57.17 -457.373333 
L 57.17 -457.373333 
L 58.011997 -457.373333 
L 58.853995 -457.373333 
L 59.695992 -457.373333 
L 60.53799 -457.373333 
L 61.379987 -457.373333 
L 62.221984 -457.373333 
L 63.063982 -457.373333 
L 63.905979 -457.373333 
L 64.747976 -457.373333 
L 65.589974 -457.373333 
L 66.431971 -457.373333 
L 67.273969 -457.373333 
L 68.115966 -457.373333 
L 68.957963 -457.373333 
L 69.799961 -457.373333 
L 70.641958 -457.373333 
L 71.483955 -457.373333 
L 72.325953 -457.373333 
L 73.16795 -457.373333 
L 74.009948 -457.373333 
L 74.851945 -457.373333 
L 75.693942 -457.373333 
L 76.53594 -457.373333 
L 77.377937 -457.373333 
L 78.219934 -457.373333 
L 79.061932 -457.373333 
L 79.903929 -457.373333 
L 80.745927 -457.373333 
L 81.587924 -457.373333 
L 82.429921 -457.373333 
L 83.271919 -457.373333 
L 84.113916 -457.373333 
L 84.955913 -457.373333 
L 85.797911 -457.373333 
L 86.639908 -457.373333 
L 87.481906 -457.373333 
L 88.323903 -457.373333 
L 89.1659 -457.373333 
L 90.007898 -457.373333 
L 90.849895 -457.373333 
L 91.691892 -457.373333 
L 92.53389 -457.373333 
L 93.375887 -457.688597 
L 94.217885 -458.129967 
L 95.059882 -458.382179 
L 95.901879 -459.706288 
L 96.743877 -464.183039 
L 97.585874 -472.379906 
L 98.427871 -485.621 
L 99.269869 -503.591057 
L 100.111866 -528.433871 
L 100.953864 -551.385101 
L 101.795861 -567.148308 
L 102.637858 -596.40482 
L 103.479856 -579.948032 
L 104.321853 -558.383964 
L 105.16385 -536.567686 
L 106.005848 -522.380799 
L 106.847845 -516.012464 
L 107.689843 -508.824441 
L 108.53184 -503.464951 
L 109.373837 -495.20503 
L 110.215835 -495.6464 
L 111.057832 -492.3046 
L 111.899829 -490.791332 
L 112.741827 -491.232702 
L 113.583824 -494.133132 
L 114.425822 -492.493759 
L 115.267819 -492.430706 
L 116.109816 -491.611019 
L 116.951814 -490.854385 
L 117.793811 -490.349963 
L 118.635808 -490.034698 
L 119.477806 -487.197321 
L 120.319803 -492.052389 
L 121.161801 -490.223857 
L 122.003798 -487.827849 
L 122.845795 -485.684053 
L 123.687793 -487.449532 
L 124.52979 -485.999317 
L 125.371787 -487.764797 
L 126.213785 -486.94511 
L 127.055782 -484.738261 
L 127.89778 -484.422997 
L 128.739777 -485.621 
L 129.581774 -485.242683 
L 130.423772 -480.765933 
L 131.265769 -481.837831 
L 132.107766 -481.459514 
L 132.949764 -481.207302 
L 133.791761 -482.026989 
L 134.633759 -480.009299 
L 135.475756 -480.828986 
L 136.317753 -478.117714 
L 137.159751 -478.24382 
L 138.001748 -477.298027 
L 138.843745 -477.298027 
L 139.685743 -477.36108 
L 140.52774 -477.613291 
L 141.369738 -476.036971 
L 142.211735 -475.658654 
L 143.053732 -475.784759 
L 143.89573 -475.406442 
L 144.737727 -478.622137 
L 145.579724 -473.640963 
L 146.421722 -474.523703 
L 147.263719 -476.226129 
L 148.105717 -474.46065 
L 148.947714 -472.632118 
L 149.789711 -473.199593 
L 150.631709 -472.821276 
L 151.473706 -473.767069 
L 152.315703 -472.632118 
L 153.157701 -474.397597 
L 153.999698 -472.442959 
L 154.841696 -472.884329 
L 155.683693 -470.046952 
L 156.52569 -471.244956 
L 157.367688 -471.938537 
L 158.209685 -469.794741 
L 159.051682 -469.353371 
L 159.89368 -470.299163 
L 160.735677 -471.181903 
L 161.577675 -469.290318 
L 162.419672 -469.668635 
L 163.261669 -469.227265 
L 164.103667 -469.668635 
L 164.945664 -469.038107 
L 165.787661 -469.227265 
L 166.629659 -469.794741 
L 167.471656 -468.155367 
L 168.313654 -469.101159 
L 169.155651 -469.101159 
L 169.997648 -466.515993 
L 170.839646 -467.461786 
L 171.681643 -466.768205 
L 172.52364 -465.885465 
L 173.365638 -464.87662 
L 174.207635 -465.75936 
L 175.049633 -465.633254 
L 175.89163 -465.444095 
L 176.733627 -464.372197 
L 177.575625 -466.326835 
L 178.417622 -463.678616 
L 179.259619 -465.065778 
L 180.101617 -463.99388 
L 180.943614 -465.75936 
L 181.785612 -464.624409 
L 182.627609 -463.99388 
L 183.469606 -463.489458 
L 184.311604 -463.237246 
L 185.153601 -465.002726 
L 185.995598 -463.111141 
L 186.837596 -464.87662 
L 187.679593 -463.741669 
L 188.521591 -463.363352 
L 189.363588 -463.678616 
L 190.205585 -464.246092 
L 191.047583 -463.804722 
L 191.88958 -462.354507 
L 192.731577 -462.606718 
L 193.573575 -462.165348 
L 194.415572 -462.354507 
L 195.25757 -463.174194 
L 196.099567 -461.471767 
L 196.941564 -463.867775 
L 197.783562 -462.228401 
L 198.625559 -461.787031 
L 199.467556 -462.165348 
L 200.309554 -461.787031 
L 201.151551 -461.156503 
L 201.993549 -461.09345 
L 202.835546 -462.228401 
L 203.677543 -461.723978 
L 204.519541 -461.09345 
L 205.361538 -461.723978 
L 206.203535 -461.09345 
L 207.045533 -462.354507 
L 207.88753 -461.53482 
L 208.729528 -461.030397 
L 209.571525 -461.787031 
L 210.413522 -461.408714 
L 211.25552 -461.345662 
L 212.097517 -460.904292 
L 212.939514 -461.219556 
L 213.781512 -461.53482 
L 214.623509 -460.715133 
L 215.465507 -461.53482 
L 216.307504 -461.282609 
L 217.149501 -460.715133 
L 217.991499 -460.65208 
L 218.833496 -460.715133 
L 219.675493 -460.65208 
L 220.517491 -460.084605 
L 221.359488 -460.904292 
L 222.201486 -460.525975 
L 223.043483 -460.525975 
L 223.88548 -460.210711 
L 224.727478 -460.904292 
L 225.569475 -460.462922 
L 226.411472 -459.769341 
L 227.25347 -461.030397 
L 228.095467 -460.210711 
L 228.937465 -459.580182 
L 229.779462 -459.643235 
L 230.621459 -460.462922 
L 231.463457 -459.580182 
L 232.305454 -459.327971 
L 233.147451 -459.517129 
L 233.989449 -459.958499 
L 234.831446 -459.580182 
L 235.673444 -459.454077 
L 236.515441 -459.454077 
L 237.357438 -459.201865 
L 238.199436 -460.273763 
L 239.041433 -459.706288 
L 239.88343 -459.643235 
L 240.725428 -459.580182 
L 241.567425 -459.895446 
L 242.409423 -459.643235 
L 243.25142 -459.706288 
L 244.093417 -458.949654 
L 244.935415 -459.454077 
L 245.777412 -459.832394 
L 246.619409 -459.769341 
L 247.461407 -459.769341 
L 248.303404 -459.580182 
L 249.145402 -459.517129 
L 249.987399 -460.021552 
L 250.829396 -459.769341 
L 251.671394 -459.958499 
L 252.513391 -460.210711 
L 253.355388 -459.517129 
L 254.197386 -460.399869 
L 255.039383 -460.084605 
L 255.881381 -460.021552 
L 256.723378 -459.138813 
L 257.565375 -459.643235 
L 258.407373 -459.832394 
L 259.24937 -459.012707 
L 260.091367 -459.327971 
L 260.933365 -459.832394 
L 261.775362 -460.084605 
L 262.61736 -460.904292 
L 263.459357 -459.958499 
L 264.301354 -460.462922 
L 265.143352 -460.841239 
L 265.985349 -460.525975 
L 266.827346 -461.471767 
L 267.669344 -463.111141 
L 268.511341 -465.002726 
L 269.353339 -467.146522 
L 270.195336 -466.389888 
L 271.037333 -465.75936 
L 271.879331 -467.713997 
L 271.879331 -457.373333 
L 271.879331 -457.373333 
L 271.037333 -457.373333 
L 270.195336 -457.373333 
L 269.353339 -457.373333 
L 268.511341 -457.373333 
L 267.669344 -457.373333 
L 266.827346 -457.373333 
L 265.985349 -457.373333 
L 265.143352 -457.373333 
L 264.301354 -457.373333 
L 263.459357 -457.373333 
L 262.61736 -457.373333 
L 261.775362 -457.373333 
L 260.933365 -457.373333 
L 260.091367 -457.373333 
L 259.24937 -457.373333 
L 258.407373 -457.373333 
L 257.565375 -457.373333 
L 256.723378 -457.373333 
L 255.881381 -457.373333 
L 255.039383 -457.373333 
L 254.197386 -457.373333 
L 253.355388 -457.373333 
L 252.513391 -457.373333 
L 251.671394 -457.373333 
L 250.829396 -457.373333 
L 249.987399 -457.373333 
L 249.145402 -457.373333 
L 248.303404 -457.373333 
L 247.461407 -457.373333 
L 246.619409 -457.373333 
L 245.777412 -457.373333 
L 244.935415 -457.373333 
L 244.093417 -457.373333 
L 243.25142 -457.373333 
L 242.409423 -457.373333 
L 241.567425 -457.373333 
L 240.725428 -457.373333 
L 239.88343 -457.373333 
L 239.041433 -457.373333 
L 238.199436 -457.373333 
L 237.357438 -457.373333 
L 236.515441 -457.373333 
L 235.673444 -457.373333 
L 234.831446 -457.373333 
L 233.989449 -457.373333 
L 233.147451 -457.373333 
L 232.305454 -457.373333 
L 231.463457 -457.373333 
L 230.621459 -457.373333 
L 229.779462 -457.373333 
L 228.937465 -457.373333 
L 228.095467 -457.373333 
L 227.25347 -457.373333 
L 226.411472 -457.373333 
L 225.569475 -457.373333 
L 224.727478 -457.373333 
L 223.88548 -457.373333 
L 223.043483 -457.373333 
L 222.201486 -457.373333 
L 221.359488 -457.373333 
L 220.517491 -457.373333 
L 219.675493 -457.373333 
L 218.833496 -457.373333 
L 217.991499 -457.373333 
L 217.149501 -457.373333 
L 216.307504 -457.373333 
L 215.465507 -457.373333 
L 214.623509 -457.373333 
L 213.781512 -457.373333 
L 212.939514 -457.373333 
L 212.097517 -457.373333 
L 211.25552 -457.373333 
L 210.413522 -457.373333 
L 209.571525 -457.373333 
L 208.729528 -457.373333 
L 207.88753 -457.373333 
L 207.045533 -457.373333 
L 206.203535 -457.373333 
L 205.361538 -457.373333 
L 204.519541 -457.373333 
L 203.677543 -457.373333 
L 202.835546 -457.373333 
L 201.993549 -457.373333 
L 201.151551 -457.373333 
L 200.309554 -457.373333 
L 199.467556 -457.373333 
L 198.625559 -457.373333 
L 197.783562 -457.373333 
L 196.941564 -457.373333 
L 196.099567 -457.373333 
L 195.25757 -457.373333 
L 194.415572 -457.373333 
L 193.573575 -457.373333 
L 192.731577 -457.373333 
L 191.88958 -457.373333 
L 191.047583 -457.373333 
L 190.205585 -457.373333 
L 189.363588 -457.373333 
L 188.521591 -457.373333 
L 187.679593 -457.373333 
L 186.837596 -457.373333 
L 185.995598 -457.373333 
L 185.153601 -457.373333 
L 184.311604 -457.373333 
L 183.469606 -457.373333 
L 182.627609 -457.373333 
L 181.785612 -457.373333 
L 180.943614 -457.373333 
L 180.101617 -457.373333 
L 179.259619 -457.373333 
L 178.417622 -457.373333 
L 177.575625 -457.373333 
L 176.733627 -457.373333 
L 175.89163 -457.373333 
L 175.049633 -457.373333 
L 174.207635 -457.373333 
L 173.365638 -457.373333 
L 172.52364 -457.373333 
L 171.681643 -457.373333 
L 170.839646 -457.373333 
L 169.997648 -457.373333 
L 169.155651 -457.373333 
L 168.313654 -457.373333 
L 167.471656 -457.373333 
L 166.629659 -457.373333 
L 165.787661 -457.373333 
L 164.945664 -457.373333 
L 164.103667 -457.373333 
L 163.261669 -457.373333 
L 162.419672 -457.373333 
L 161.577675 -457.373333 
L 160.735677 -457.373333 
L 159.89368 -457.373333 
L 159.051682 -457.373333 
L 158.209685 -457.373333 
L 157.367688 -457.373333 
L 156.52569 -457.373333 
L 155.683693 -457.373333 
L 154.841696 -457.373333 
L 153.999698 -457.373333 
L 153.157701 -457.373333 
L 152.315703 -457.373333 
L 151.473706 -457.373333 
L 150.631709 -457.373333 
L 149.789711 -457.373333 
L 148.947714 -457.373333 
L 148.105717 -457.373333 
L 147.263719 -457.373333 
L 146.421722 -457.373333 
L 145.579724 -457.373333 
L 144.737727 -457.373333 
L 143.89573 -457.373333 
L 143.053732 -457.373333 
L 142.211735 -457.373333 
L 141.369738 -457.373333 
L 140.52774 -457.373333 
L 139.685743 -457.373333 
L 138.843745 -457.373333 
L 138.001748 -457.373333 
L 137.159751 -457.373333 
L 136.317753 -457.373333 
L 135.475756 -457.373333 
L 134.633759 -457.373333 
L 133.791761 -457.373333 
L 132.949764 -457.373333 
L 132.107766 -457.373333 
L 131.265769 -457.373333 
L 130.423772 -457.373333 
L 129.581774 -457.373333 
L 128.739777 -457.373333 
L 127.89778 -457.373333 
L 127.055782 -457.373333 
L 126.213785 -457.373333 
L 125.371787 -457.373333 
L 124.52979 -457.373333 
L 123.687793 -457.373333 
L 122.845795 -457.373333 
L 122.003798 -457.373333 
L 121.161801 -457.373333 
L 120.319803 -457.373333 
L 119.477806 -457.373333 
L 118.635808 -457.373333 
L 117.793811 -457.373333 
L 116.951814 -457.373333 
L 116.109816 -457.373333 
L 115.267819 -457.373333 
L 114.425822 -457.373333 
L 113.583824 -457.373333 
L 112.741827 -457.373333 
L 111.899829 -457.373333 
L 111.057832 -457.373333 
L 110.215835 -457.373333 
L 109.373837 -457.373333 
L 108.53184 -457.373333 
L 107.689843 -457.373333 
L 106.847845 -457.373333 
L 106.005848 -457.373333 
L 105.16385 -457.373333 
L 104.321853 -457.373333 
L 103.479856 -457.373333 
L 102.637858 -457.373333 
L 101.795861 -457.373333 
L 100.953864 -457.373333 
L 100.111866 -457.373333 
L 99.269869 -457.373333 
L 98.427871 -457.373333 
L 97.585874 -457.373333 
L 96.743877 -457.373333 
L 95.901879 -457.373333 
L 95.059882 -457.373333 
L 94.217885 -457.373333 
L 93.375887 -457.373333 
L 92.53389 -457.373333 
L 91.691892 -457.373333 
L 90.849895 -457.373333 
L 90.007898 -457.373333 
L 89.1659 -457.373333 
L 88.323903 -457.373333 
L 87.481906 -457.373333 
L 86.639908 -457.373333 
L 85.797911 -457.373333 
L 84.955913 -457.373333 
L 84.113916 -457.373333 
L 83.271919 -457.373333 
L 82.429921 -457.373333 
L 81.587924 -457.373333 
L 80.745927 -457.373333 
L 79.903929 -457.373333 
L 79.061932 -457.373333 
L 78.219934 -457.373333 
L 77.377937 -457.373333 
L 76.53594 -457.373333 
L 75.693942 -457.373333 
L 74.851945 -457.373333 
L 74.009948 -457.373333 
L 73.16795 -457.373333 
L 72.325953 -457.373333 
L 71.483955 -457.373333 
L 70.641958 -457.373333 
L 69.799961 -457.373333 
L 68.957963 -457.373333 
L 68.115966 -457.373333 
L 67.273969 -457.373333 
L 66.431971 -457.373333 
L 65.589974 -457.373333 
L 64.747976 -457.373333 
L 63.905979 -457.373333 
L 63.063982 -457.373333 
L 62.221984 -457.373333 
L 61.379987 -457.373333 
L 60.53799 -457.373333 
L 59.695992 -457.373333 
L 58.853995 -457.373333 
L 58.011997 -457.373333 
L 57.17 -457.373333 
z
" style="stroke: #ff0000; stroke-opacity: 0.4"/>
    </defs>
    <g clip-path="url(#pd96289de6c)">
     <use xlink:href="#m458a135c33" x="0" y="648" style="fill: #ff0000; fill-opacity: 0.4; stroke: #ff0000; stroke-opacity: 0.4"/>
    </g>
   </g>
   <g id="matplotlib.axis_1">
    <g id="xtick_1">
     <g id="line2d_1">
      <defs>
       <path id="ma3f3dba4fb" d="M 0 0 
L 0 3.5 
" style="stroke: #000000; stroke-width: 0.8"/>
      </defs>
      <g>
       <use xlink:href="#ma3f3dba4fb" x="57.17" y="190.626667" style="stroke: #000000; stroke-width: 0.8"/>
      </g>
     </g>
     <g id="text_1">
      <!-- 0 -->
      <g transform="translate(53.98875 205.225104) scale(0.1 -0.1)">
       <defs>
        <path id="DejaVuSans-30" d="M 2034 4250 
Q 1547 4250 1301 3770 
Q 1056 3291 1056 2328 
Q 1056 1369 1301 889 
Q 1547 409 2034 409 
Q 2525 409 2770 889 
Q 3016 1369 3016 2328 
Q 3016 3291 2770 3770 
Q 2525 4250 2034 4250 
z
M 2034 4750 
Q 2819 4750 3233 4129 
Q 3647 3509 3647 2328 
Q 3647 1150 3233 529 
Q 2819 -91 2034 -91 
Q 1250 -91 836 529 
Q 422 1150 422 2328 
Q 422 3509 836 4129 
Q 1250 4750 2034 4750 
z
" transform="scale(0.015625)"/>
       </defs>
       <use xlink:href="#DejaVuSans-30"/>
      </g>
     </g>
    </g>
    <g id="xtick_2">
     <g id="line2d_2">
      <g>
       <use xlink:href="#ma3f3dba4fb" x="99.269869" y="190.626667" style="stroke: #000000; stroke-width: 0.8"/>
      </g>
     </g>
     <g id="text_2">
      <!-- 50 -->
      <g transform="translate(92.907369 205.225104) scale(0.1 -0.1)">
       <defs>
        <path id="DejaVuSans-35" d="M 691 4666 
L 3169 4666 
L 3169 4134 
L 1269 4134 
L 1269 2991 
Q 1406 3038 1543 3061 
Q 1681 3084 1819 3084 
Q 2600 3084 3056 2656 
Q 3513 2228 3513 1497 
Q 3513 744 3044 326 
Q 2575 -91 1722 -91 
Q 1428 -91 1123 -41 
Q 819 9 494 109 
L 494 744 
Q 775 591 1075 516 
Q 1375 441 1709 441 
Q 2250 441 2565 725 
Q 2881 1009 2881 1497 
Q 2881 1984 2565 2268 
Q 2250 2553 1709 2553 
Q 1456 2553 1204 2497 
Q 953 2441 691 2322 
L 691 4666 
z
" transform="scale(0.015625)"/>
       </defs>
       <use xlink:href="#DejaVuSans-35"/>
       <use xlink:href="#DejaVuSans-30" x="63.623047"/>
      </g>
     </g>
    </g>
    <g id="xtick_3">
     <g id="line2d_3">
      <g>
       <use xlink:href="#ma3f3dba4fb" x="141.369738" y="190.626667" style="stroke: #000000; stroke-width: 0.8"/>
      </g>
     </g>
     <g id="text_3">
      <!-- 100 -->
      <g transform="translate(131.825988 205.225104) scale(0.1 -0.1)">
       <defs>
        <path id="DejaVuSans-31" d="M 794 531 
L 1825 531 
L 1825 4091 
L 703 3866 
L 703 4441 
L 1819 4666 
L 2450 4666 
L 2450 531 
L 3481 531 
L 3481 0 
L 794 0 
L 794 531 
z
" transform="scale(0.015625)"/>
       </defs>
       <use xlink:href="#DejaVuSans-31"/>
       <use xlink:href="#DejaVuSans-30" x="63.623047"/>
       <use xlink:href="#DejaVuSans-30" x="127.246094"/>
      </g>
     </g>
    </g>
    <g id="xtick_4">
     <g id="line2d_4">
      <g>
       <use xlink:href="#ma3f3dba4fb" x="183.469606" y="190.626667" style="stroke: #000000; stroke-width: 0.8"/>
      </g>
     </g>
     <g id="text_4">
      <!-- 150 -->
      <g transform="translate(173.925856 205.225104) scale(0.1 -0.1)">
       <use xlink:href="#DejaVuSans-31"/>
       <use xlink:href="#DejaVuSans-35" x="63.623047"/>
       <use xlink:href="#DejaVuSans-30" x="127.246094"/>
      </g>
     </g>
    </g>
    <g id="xtick_5">
     <g id="line2d_5">
      <g>
       <use xlink:href="#ma3f3dba4fb" x="225.569475" y="190.626667" style="stroke: #000000; stroke-width: 0.8"/>
      </g>
     </g>
     <g id="text_5">
      <!-- 200 -->
      <g transform="translate(216.025725 205.225104) scale(0.1 -0.1)">
       <defs>
        <path id="DejaVuSans-32" d="M 1228 531 
L 3431 531 
L 3431 0 
L 469 0 
L 469 531 
Q 828 903 1448 1529 
Q 2069 2156 2228 2338 
Q 2531 2678 2651 2914 
Q 2772 3150 2772 3378 
Q 2772 3750 2511 3984 
Q 2250 4219 1831 4219 
Q 1534 4219 1204 4116 
Q 875 4013 500 3803 
L 500 4441 
Q 881 4594 1212 4672 
Q 1544 4750 1819 4750 
Q 2544 4750 2975 4387 
Q 3406 4025 3406 3419 
Q 3406 3131 3298 2873 
Q 3191 2616 2906 2266 
Q 2828 2175 2409 1742 
Q 1991 1309 1228 531 
z
" transform="scale(0.015625)"/>
       </defs>
       <use xlink:href="#DejaVuSans-32"/>
       <use xlink:href="#DejaVuSans-30" x="63.623047"/>
       <use xlink:href="#DejaVuSans-30" x="127.246094"/>
      </g>
     </g>
    </g>
    <g id="xtick_6">
     <g id="line2d_6">
      <g>
       <use xlink:href="#ma3f3dba4fb" x="267.669344" y="190.626667" style="stroke: #000000; stroke-width: 0.8"/>
      </g>
     </g>
     <g id="text_6">
      <!-- 250 -->
      <g transform="translate(258.125594 205.225104) scale(0.1 -0.1)">
       <use xlink:href="#DejaVuSans-32"/>
       <use xlink:href="#DejaVuSans-35" x="63.623047"/>
       <use xlink:href="#DejaVuSans-30" x="127.246094"/>
      </g>
     </g>
    </g>
   </g>
   <g id="matplotlib.axis_2">
    <g id="ytick_1">
     <g id="line2d_7">
      <defs>
       <path id="m32aaa789ec" d="M 0 0 
L -3.5 0 
" style="stroke: #000000; stroke-width: 0.8"/>
      </defs>
      <g>
       <use xlink:href="#m32aaa789ec" x="57.17" y="190.626667" style="stroke: #000000; stroke-width: 0.8"/>
      </g>
     </g>
     <g id="text_7">
      <!-- 0 -->
      <g transform="translate(43.8075 194.425885) scale(0.1 -0.1)">
       <use xlink:href="#DejaVuSans-30"/>
      </g>
     </g>
    </g>
    <g id="ytick_2">
     <g id="line2d_8">
      <g>
       <use xlink:href="#m32aaa789ec" x="57.17" y="159.100252" style="stroke: #000000; stroke-width: 0.8"/>
      </g>
     </g>
     <g id="text_8">
      <!-- 500 -->
      <g transform="translate(31.0825 162.899471) scale(0.1 -0.1)">
       <use xlink:href="#DejaVuSans-35"/>
       <use xlink:href="#DejaVuSans-30" x="63.623047"/>
       <use xlink:href="#DejaVuSans-30" x="127.246094"/>
      </g>
     </g>
    </g>
    <g id="ytick_3">
     <g id="line2d_9">
      <g>
       <use xlink:href="#m32aaa789ec" x="57.17" y="127.573838" style="stroke: #000000; stroke-width: 0.8"/>
      </g>
     </g>
     <g id="text_9">
      <!-- 1000 -->
      <g transform="translate(24.72 131.373057) scale(0.1 -0.1)">
       <use xlink:href="#DejaVuSans-31"/>
       <use xlink:href="#DejaVuSans-30" x="63.623047"/>
       <use xlink:href="#DejaVuSans-30" x="127.246094"/>
       <use xlink:href="#DejaVuSans-30" x="190.869141"/>
      </g>
     </g>
    </g>
    <g id="ytick_4">
     <g id="line2d_10">
      <g>
       <use xlink:href="#m32aaa789ec" x="57.17" y="96.047424" style="stroke: #000000; stroke-width: 0.8"/>
      </g>
     </g>
     <g id="text_10">
      <!-- 1500 -->
      <g transform="translate(24.72 99.846643) scale(0.1 -0.1)">
       <use xlink:href="#DejaVuSans-31"/>
       <use xlink:href="#DejaVuSans-35" x="63.623047"/>
       <use xlink:href="#DejaVuSans-30" x="127.246094"/>
       <use xlink:href="#DejaVuSans-30" x="190.869141"/>
      </g>
     </g>
    </g>
    <g id="ytick_5">
     <g id="line2d_11">
      <g>
       <use xlink:href="#m32aaa789ec" x="57.17" y="64.52101" style="stroke: #000000; stroke-width: 0.8"/>
      </g>
     </g>
     <g id="text_11">
      <!-- 2000 -->
      <g transform="translate(24.72 68.320229) scale(0.1 -0.1)">
       <use xlink:href="#DejaVuSans-32"/>
       <use xlink:href="#DejaVuSans-30" x="63.623047"/>
       <use xlink:href="#DejaVuSans-30" x="127.246094"/>
       <use xlink:href="#DejaVuSans-30" x="190.869141"/>
      </g>
     </g>
    </g>
    <g id="ytick_6">
     <g id="line2d_12">
      <g>
       <use xlink:href="#m32aaa789ec" x="57.17" y="32.994596" style="stroke: #000000; stroke-width: 0.8"/>
      </g>
     </g>
     <g id="text_12">
      <!-- 2500 -->
      <g transform="translate(24.72 36.793814) scale(0.1 -0.1)">
       <use xlink:href="#DejaVuSans-32"/>
       <use xlink:href="#DejaVuSans-35" x="63.623047"/>
       <use xlink:href="#DejaVuSans-30" x="127.246094"/>
       <use xlink:href="#DejaVuSans-30" x="190.869141"/>
      </g>
     </g>
    </g>
    <g id="text_13">
     <!-- Pixel Frequency -->
     <g transform="translate(18.640313 139.69224) rotate(-90) scale(0.1 -0.1)">
      <defs>
       <path id="DejaVuSans-50" d="M 1259 4147 
L 1259 2394 
L 2053 2394 
Q 2494 2394 2734 2622 
Q 2975 2850 2975 3272 
Q 2975 3691 2734 3919 
Q 2494 4147 2053 4147 
L 1259 4147 
z
M 628 4666 
L 2053 4666 
Q 2838 4666 3239 4311 
Q 3641 3956 3641 3272 
Q 3641 2581 3239 2228 
Q 2838 1875 2053 1875 
L 1259 1875 
L 1259 0 
L 628 0 
L 628 4666 
z
" transform="scale(0.015625)"/>
       <path id="DejaVuSans-69" d="M 603 3500 
L 1178 3500 
L 1178 0 
L 603 0 
L 603 3500 
z
M 603 4863 
L 1178 4863 
L 1178 4134 
L 603 4134 
L 603 4863 
z
" transform="scale(0.015625)"/>
       <path id="DejaVuSans-78" d="M 3513 3500 
L 2247 1797 
L 3578 0 
L 2900 0 
L 1881 1375 
L 863 0 
L 184 0 
L 1544 1831 
L 300 3500 
L 978 3500 
L 1906 2253 
L 2834 3500 
L 3513 3500 
z
" transform="scale(0.015625)"/>
       <path id="DejaVuSans-65" d="M 3597 1894 
L 3597 1613 
L 953 1613 
Q 991 1019 1311 708 
Q 1631 397 2203 397 
Q 2534 397 2845 478 
Q 3156 559 3463 722 
L 3463 178 
Q 3153 47 2828 -22 
Q 2503 -91 2169 -91 
Q 1331 -91 842 396 
Q 353 884 353 1716 
Q 353 2575 817 3079 
Q 1281 3584 2069 3584 
Q 2775 3584 3186 3129 
Q 3597 2675 3597 1894 
z
M 3022 2063 
Q 3016 2534 2758 2815 
Q 2500 3097 2075 3097 
Q 1594 3097 1305 2825 
Q 1016 2553 972 2059 
L 3022 2063 
z
" transform="scale(0.015625)"/>
       <path id="DejaVuSans-6c" d="M 603 4863 
L 1178 4863 
L 1178 0 
L 603 0 
L 603 4863 
z
" transform="scale(0.015625)"/>
       <path id="DejaVuSans-20" transform="scale(0.015625)"/>
       <path id="DejaVuSans-46" d="M 628 4666 
L 3309 4666 
L 3309 4134 
L 1259 4134 
L 1259 2759 
L 3109 2759 
L 3109 2228 
L 1259 2228 
L 1259 0 
L 628 0 
L 628 4666 
z
" transform="scale(0.015625)"/>
       <path id="DejaVuSans-72" d="M 2631 2963 
Q 2534 3019 2420 3045 
Q 2306 3072 2169 3072 
Q 1681 3072 1420 2755 
Q 1159 2438 1159 1844 
L 1159 0 
L 581 0 
L 581 3500 
L 1159 3500 
L 1159 2956 
Q 1341 3275 1631 3429 
Q 1922 3584 2338 3584 
Q 2397 3584 2469 3576 
Q 2541 3569 2628 3553 
L 2631 2963 
z
" transform="scale(0.015625)"/>
       <path id="DejaVuSans-71" d="M 947 1747 
Q 947 1113 1208 752 
Q 1469 391 1925 391 
Q 2381 391 2643 752 
Q 2906 1113 2906 1747 
Q 2906 2381 2643 2742 
Q 2381 3103 1925 3103 
Q 1469 3103 1208 2742 
Q 947 2381 947 1747 
z
M 2906 525 
Q 2725 213 2448 61 
Q 2172 -91 1784 -91 
Q 1150 -91 751 415 
Q 353 922 353 1747 
Q 353 2572 751 3078 
Q 1150 3584 1784 3584 
Q 2172 3584 2448 3432 
Q 2725 3281 2906 2969 
L 2906 3500 
L 3481 3500 
L 3481 -1331 
L 2906 -1331 
L 2906 525 
z
" transform="scale(0.015625)"/>
       <path id="DejaVuSans-75" d="M 544 1381 
L 544 3500 
L 1119 3500 
L 1119 1403 
Q 1119 906 1312 657 
Q 1506 409 1894 409 
Q 2359 409 2629 706 
Q 2900 1003 2900 1516 
L 2900 3500 
L 3475 3500 
L 3475 0 
L 2900 0 
L 2900 538 
Q 2691 219 2414 64 
Q 2138 -91 1772 -91 
Q 1169 -91 856 284 
Q 544 659 544 1381 
z
M 1991 3584 
L 1991 3584 
z
" transform="scale(0.015625)"/>
       <path id="DejaVuSans-6e" d="M 3513 2113 
L 3513 0 
L 2938 0 
L 2938 2094 
Q 2938 2591 2744 2837 
Q 2550 3084 2163 3084 
Q 1697 3084 1428 2787 
Q 1159 2491 1159 1978 
L 1159 0 
L 581 0 
L 581 3500 
L 1159 3500 
L 1159 2956 
Q 1366 3272 1645 3428 
Q 1925 3584 2291 3584 
Q 2894 3584 3203 3211 
Q 3513 2838 3513 2113 
z
" transform="scale(0.015625)"/>
       <path id="DejaVuSans-63" d="M 3122 3366 
L 3122 2828 
Q 2878 2963 2633 3030 
Q 2388 3097 2138 3097 
Q 1578 3097 1268 2742 
Q 959 2388 959 1747 
Q 959 1106 1268 751 
Q 1578 397 2138 397 
Q 2388 397 2633 464 
Q 2878 531 3122 666 
L 3122 134 
Q 2881 22 2623 -34 
Q 2366 -91 2075 -91 
Q 1284 -91 818 406 
Q 353 903 353 1747 
Q 353 2603 823 3093 
Q 1294 3584 2113 3584 
Q 2378 3584 2631 3529 
Q 2884 3475 3122 3366 
z
" transform="scale(0.015625)"/>
       <path id="DejaVuSans-79" d="M 2059 -325 
Q 1816 -950 1584 -1140 
Q 1353 -1331 966 -1331 
L 506 -1331 
L 506 -850 
L 844 -850 
Q 1081 -850 1212 -737 
Q 1344 -625 1503 -206 
L 1606 56 
L 191 3500 
L 800 3500 
L 1894 763 
L 2988 3500 
L 3597 3500 
L 2059 -325 
z
" transform="scale(0.015625)"/>
      </defs>
      <use xlink:href="#DejaVuSans-50"/>
      <use xlink:href="#DejaVuSans-69" x="58.052734"/>
      <use xlink:href="#DejaVuSans-78" x="85.835938"/>
      <use xlink:href="#DejaVuSans-65" x="141.890625"/>
      <use xlink:href="#DejaVuSans-6c" x="203.414062"/>
      <use xlink:href="#DejaVuSans-20" x="231.197266"/>
      <use xlink:href="#DejaVuSans-46" x="262.984375"/>
      <use xlink:href="#DejaVuSans-72" x="313.253906"/>
      <use xlink:href="#DejaVuSans-65" x="352.117188"/>
      <use xlink:href="#DejaVuSans-71" x="413.640625"/>
      <use xlink:href="#DejaVuSans-75" x="477.117188"/>
      <use xlink:href="#DejaVuSans-65" x="540.496094"/>
      <use xlink:href="#DejaVuSans-6e" x="602.019531"/>
      <use xlink:href="#DejaVuSans-63" x="665.398438"/>
      <use xlink:href="#DejaVuSans-79" x="720.378906"/>
     </g>
    </g>
   </g>
   <g id="line2d_13">
    <path d="M 57.17 190.626667 
L 92.53389 190.626667 
L 93.375887 190.311403 
L 94.217885 189.870033 
L 95.059882 189.617821 
L 95.901879 188.293712 
L 96.743877 183.816961 
L 97.585874 175.620094 
L 98.427871 162.379 
L 99.269869 144.408943 
L 100.953864 96.614899 
L 101.795861 80.851692 
L 102.637858 51.59518 
L 103.479856 68.051968 
L 105.16385 111.432314 
L 106.005848 125.619201 
L 108.53184 144.535049 
L 109.373837 152.79497 
L 110.215835 152.3536 
L 111.057832 155.6954 
L 111.899829 157.208668 
L 112.741827 156.767298 
L 113.583824 153.866868 
L 114.425822 155.506241 
L 115.267819 155.569294 
L 116.951814 157.145615 
L 117.793811 157.650037 
L 118.635808 157.965302 
L 119.477806 160.802679 
L 120.319803 155.947611 
L 121.161801 157.776143 
L 122.845795 162.315947 
L 123.687793 160.550468 
L 124.52979 162.000683 
L 125.371787 160.235203 
L 126.213785 161.05489 
L 127.055782 163.261739 
L 127.89778 163.577003 
L 128.739777 162.379 
L 129.581774 162.757317 
L 130.423772 167.234067 
L 131.265769 166.162169 
L 132.107766 166.540486 
L 132.949764 166.792698 
L 133.791761 165.973011 
L 134.633759 167.990701 
L 135.475756 167.171014 
L 136.317753 169.882286 
L 137.159751 169.75618 
L 138.001748 170.701973 
L 139.685743 170.63892 
L 140.52774 170.386709 
L 141.369738 171.963029 
L 142.211735 172.341346 
L 143.053732 172.215241 
L 143.89573 172.593558 
L 144.737727 169.377863 
L 145.579724 174.359037 
L 146.421722 173.476297 
L 147.263719 171.773871 
L 148.947714 175.367882 
L 149.789711 174.800407 
L 150.631709 175.178724 
L 151.473706 174.232931 
L 152.315703 175.367882 
L 153.157701 173.602403 
L 153.999698 175.557041 
L 154.841696 175.115671 
L 155.683693 177.953048 
L 156.52569 176.755044 
L 157.367688 176.061463 
L 158.209685 178.205259 
L 159.051682 178.646629 
L 160.735677 176.818097 
L 161.577675 178.709682 
L 162.419672 178.331365 
L 163.261669 178.772735 
L 164.103667 178.331365 
L 164.945664 178.961893 
L 165.787661 178.772735 
L 166.629659 178.205259 
L 167.471656 179.844633 
L 168.313654 178.898841 
L 169.155651 178.898841 
L 169.997648 181.484007 
L 170.839646 180.538214 
L 171.681643 181.231795 
L 173.365638 183.12338 
L 174.207635 182.24064 
L 175.89163 182.555905 
L 176.733627 183.627803 
L 177.575625 181.673165 
L 178.417622 184.321384 
L 179.259619 182.934222 
L 180.101617 184.00612 
L 180.943614 182.24064 
L 181.785612 183.375591 
L 183.469606 184.510542 
L 184.311604 184.762754 
L 185.153601 182.997274 
L 185.995598 184.888859 
L 186.837596 183.12338 
L 187.679593 184.258331 
L 188.521591 184.636648 
L 189.363588 184.321384 
L 190.205585 183.753908 
L 191.047583 184.195278 
L 191.88958 185.645493 
L 192.731577 185.393282 
L 193.573575 185.834652 
L 194.415572 185.645493 
L 195.25757 184.825806 
L 196.099567 186.528233 
L 196.941564 184.132225 
L 197.783562 185.771599 
L 198.625559 186.212969 
L 199.467556 185.834652 
L 200.309554 186.212969 
L 201.151551 186.843497 
L 201.993549 186.90655 
L 202.835546 185.771599 
L 204.519541 186.90655 
L 205.361538 186.276022 
L 206.203535 186.90655 
L 207.045533 185.645493 
L 207.88753 186.46518 
L 208.729528 186.969603 
L 209.571525 186.212969 
L 210.413522 186.591286 
L 211.25552 186.654338 
L 212.097517 187.095708 
L 213.781512 186.46518 
L 214.623509 187.284867 
L 215.465507 186.46518 
L 216.307504 186.717391 
L 217.149501 187.284867 
L 217.991499 187.34792 
L 218.833496 187.284867 
L 219.675493 187.34792 
L 220.517491 187.915395 
L 221.359488 187.095708 
L 222.201486 187.474025 
L 223.043483 187.474025 
L 223.88548 187.789289 
L 224.727478 187.095708 
L 225.569475 187.537078 
L 226.411472 188.230659 
L 227.25347 186.969603 
L 228.095467 187.789289 
L 228.937465 188.419818 
L 229.779462 188.356765 
L 230.621459 187.537078 
L 231.463457 188.419818 
L 232.305454 188.672029 
L 233.147451 188.482871 
L 233.989449 188.041501 
L 234.831446 188.419818 
L 235.673444 188.545923 
L 236.515441 188.545923 
L 237.357438 188.798135 
L 238.199436 187.726237 
L 239.041433 188.293712 
L 240.725428 188.419818 
L 241.567425 188.104554 
L 242.409423 188.356765 
L 243.25142 188.293712 
L 244.093417 189.050346 
L 245.777412 188.167606 
L 249.145402 188.482871 
L 249.987399 187.978448 
L 250.829396 188.230659 
L 252.513391 187.789289 
L 253.355388 188.482871 
L 254.197386 187.600131 
L 255.039383 187.915395 
L 255.881381 187.978448 
L 256.723378 188.861187 
L 257.565375 188.356765 
L 258.407373 188.167606 
L 259.24937 188.987293 
L 260.091367 188.672029 
L 260.933365 188.167606 
L 261.775362 187.915395 
L 262.61736 187.095708 
L 263.459357 188.041501 
L 265.143352 187.158761 
L 265.985349 187.474025 
L 266.827346 186.528233 
L 267.669344 184.888859 
L 269.353339 180.853478 
L 271.037333 182.24064 
L 271.879331 180.286003 
L 271.879331 180.286003 
" clip-path="url(#pd96289de6c)" style="fill: none; stroke: #ff0000; stroke-width: 1.5; stroke-linecap: square"/>
   </g>
   <g id="patch_3">
    <path d="M 57.17 190.626667 
L 57.17 10.8 
" style="fill: none; stroke: #000000; stroke-width: 0.8; stroke-linejoin: miter; stroke-linecap: square"/>
   </g>
   <g id="patch_4">
    <path d="M 272.721328 190.626667 
L 272.721328 10.8 
" style="fill: none; stroke: #000000; stroke-width: 0.8; stroke-linejoin: miter; stroke-linecap: square"/>
   </g>
   <g id="patch_5">
    <path d="M 57.17 190.626667 
L 272.721328 190.626667 
" style="fill: none; stroke: #000000; stroke-width: 0.8; stroke-linejoin: miter; stroke-linecap: square"/>
   </g>
   <g id="patch_6">
    <path d="M 57.17 10.8 
L 272.721328 10.8 
" style="fill: none; stroke: #000000; stroke-width: 0.8; stroke-linejoin: miter; stroke-linecap: square"/>
   </g>
   <g id="text_14">
    <!-- Red Channel  -->
    <g transform="translate(193.028203 24.8) scale(0.12 -0.12)">
     <defs>
      <path id="DejaVuSans-52" d="M 2841 2188 
Q 3044 2119 3236 1894 
Q 3428 1669 3622 1275 
L 4263 0 
L 3584 0 
L 2988 1197 
Q 2756 1666 2539 1819 
Q 2322 1972 1947 1972 
L 1259 1972 
L 1259 0 
L 628 0 
L 628 4666 
L 2053 4666 
Q 2853 4666 3247 4331 
Q 3641 3997 3641 3322 
Q 3641 2881 3436 2590 
Q 3231 2300 2841 2188 
z
M 1259 4147 
L 1259 2491 
L 2053 2491 
Q 2509 2491 2742 2702 
Q 2975 2913 2975 3322 
Q 2975 3731 2742 3939 
Q 2509 4147 2053 4147 
L 1259 4147 
z
" transform="scale(0.015625)"/>
      <path id="DejaVuSans-64" d="M 2906 2969 
L 2906 4863 
L 3481 4863 
L 3481 0 
L 2906 0 
L 2906 525 
Q 2725 213 2448 61 
Q 2172 -91 1784 -91 
Q 1150 -91 751 415 
Q 353 922 353 1747 
Q 353 2572 751 3078 
Q 1150 3584 1784 3584 
Q 2172 3584 2448 3432 
Q 2725 3281 2906 2969 
z
M 947 1747 
Q 947 1113 1208 752 
Q 1469 391 1925 391 
Q 2381 391 2643 752 
Q 2906 1113 2906 1747 
Q 2906 2381 2643 2742 
Q 2381 3103 1925 3103 
Q 1469 3103 1208 2742 
Q 947 2381 947 1747 
z
" transform="scale(0.015625)"/>
      <path id="DejaVuSans-43" d="M 4122 4306 
L 4122 3641 
Q 3803 3938 3442 4084 
Q 3081 4231 2675 4231 
Q 1875 4231 1450 3742 
Q 1025 3253 1025 2328 
Q 1025 1406 1450 917 
Q 1875 428 2675 428 
Q 3081 428 3442 575 
Q 3803 722 4122 1019 
L 4122 359 
Q 3791 134 3420 21 
Q 3050 -91 2638 -91 
Q 1578 -91 968 557 
Q 359 1206 359 2328 
Q 359 3453 968 4101 
Q 1578 4750 2638 4750 
Q 3056 4750 3426 4639 
Q 3797 4528 4122 4306 
z
" transform="scale(0.015625)"/>
      <path id="DejaVuSans-68" d="M 3513 2113 
L 3513 0 
L 2938 0 
L 2938 2094 
Q 2938 2591 2744 2837 
Q 2550 3084 2163 3084 
Q 1697 3084 1428 2787 
Q 1159 2491 1159 1978 
L 1159 0 
L 581 0 
L 581 4863 
L 1159 4863 
L 1159 2956 
Q 1366 3272 1645 3428 
Q 1925 3584 2291 3584 
Q 2894 3584 3203 3211 
Q 3513 2838 3513 2113 
z
" transform="scale(0.015625)"/>
      <path id="DejaVuSans-61" d="M 2194 1759 
Q 1497 1759 1228 1600 
Q 959 1441 959 1056 
Q 959 750 1161 570 
Q 1363 391 1709 391 
Q 2188 391 2477 730 
Q 2766 1069 2766 1631 
L 2766 1759 
L 2194 1759 
z
M 3341 1997 
L 3341 0 
L 2766 0 
L 2766 531 
Q 2569 213 2275 61 
Q 1981 -91 1556 -91 
Q 1019 -91 701 211 
Q 384 513 384 1019 
Q 384 1609 779 1909 
Q 1175 2209 1959 2209 
L 2766 2209 
L 2766 2266 
Q 2766 2663 2505 2880 
Q 2244 3097 1772 3097 
Q 1472 3097 1187 3025 
Q 903 2953 641 2809 
L 641 3341 
Q 956 3463 1253 3523 
Q 1550 3584 1831 3584 
Q 2591 3584 2966 3190 
Q 3341 2797 3341 1997 
z
" transform="scale(0.015625)"/>
     </defs>
     <use xlink:href="#DejaVuSans-52"/>
     <use xlink:href="#DejaVuSans-65" x="64.982422"/>
     <use xlink:href="#DejaVuSans-64" x="126.505859"/>
     <use xlink:href="#DejaVuSans-20" x="189.982422"/>
     <use xlink:href="#DejaVuSans-43" x="221.769531"/>
     <use xlink:href="#DejaVuSans-68" x="291.59375"/>
     <use xlink:href="#DejaVuSans-61" x="354.972656"/>
     <use xlink:href="#DejaVuSans-6e" x="416.251953"/>
     <use xlink:href="#DejaVuSans-6e" x="479.630859"/>
     <use xlink:href="#DejaVuSans-65" x="543.009766"/>
     <use xlink:href="#DejaVuSans-6c" x="604.533203"/>
     <use xlink:href="#DejaVuSans-20" x="632.316406"/>
    </g>
   </g>
  </g>
  <g id="axes_2">
   <g id="patch_7">
    <path d="M 57.17 398.333333 
L 272.721328 398.333333 
L 272.721328 218.506667 
L 57.17 218.506667 
z
" style="fill: #ffffff"/>
   </g>
   <g id="PolyCollection_2">
    <defs>
     <path id="m14c5c555be" d="M 57.17 -249.666667 
L 57.17 -249.666667 
L 58.011997 -249.666667 
L 58.853995 -249.666667 
L 59.695992 -249.666667 
L 60.53799 -249.666667 
L 61.379987 -249.666667 
L 62.221984 -249.666667 
L 63.063982 -249.666667 
L 63.905979 -249.666667 
L 64.747976 -249.666667 
L 65.589974 -249.666667 
L 66.431971 -249.666667 
L 67.273969 -249.666667 
L 68.115966 -249.666667 
L 68.957963 -249.666667 
L 69.799961 -249.666667 
L 70.641958 -249.666667 
L 71.483955 -249.666667 
L 72.325953 -249.666667 
L 73.16795 -249.666667 
L 74.009948 -249.666667 
L 74.851945 -249.666667 
L 75.693942 -249.666667 
L 76.53594 -249.666667 
L 77.377937 -249.666667 
L 78.219934 -249.666667 
L 79.061932 -249.666667 
L 79.903929 -249.666667 
L 80.745927 -249.666667 
L 81.587924 -249.666667 
L 82.429921 -249.666667 
L 83.271919 -249.666667 
L 84.113916 -249.666667 
L 84.955913 -249.666667 
L 85.797911 -249.666667 
L 86.639908 -249.666667 
L 87.481906 -249.666667 
L 88.323903 -249.666667 
L 89.1659 -249.918878 
L 90.007898 -250.234142 
L 90.849895 -252.756255 
L 91.691892 -259.755119 
L 92.53389 -267.762828 
L 93.375887 -274.509481 
L 94.217885 -277.914334 
L 95.059882 -288.31805 
L 95.901879 -305.342314 
L 96.743877 -320.664151 
L 97.585874 -364.738079 
L 98.427871 -359.18943 
L 99.269869 -364.233656 
L 100.111866 -342.165166 
L 100.953864 -320.474993 
L 101.795861 -306.288107 
L 102.637858 -306.288107 
L 103.479856 -297.019341 
L 104.321853 -297.019341 
L 105.16385 -288.633315 
L 106.005848 -283.715194 
L 106.847845 -282.580243 
L 107.689843 -281.760556 
L 108.53184 -279.61676 
L 109.373837 -278.607915 
L 110.215835 -277.59907 
L 111.057832 -278.607915 
L 111.899829 -279.17539 
L 112.741827 -279.238443 
L 113.583824 -280.310341 
L 114.425822 -276.842436 
L 115.267819 -279.049285 
L 116.109816 -276.779383 
L 116.951814 -276.338013 
L 117.793811 -277.1577 
L 118.635808 -272.491791 
L 119.477806 -277.914334 
L 120.319803 -275.455273 
L 121.161801 -274.572534 
L 122.003798 -273.563689 
L 122.845795 -275.392221 
L 123.687793 -274.131164 
L 124.52979 -273.248424 
L 125.371787 -273.563689 
L 126.213785 -273.059266 
L 127.055782 -272.113474 
L 127.89778 -271.987368 
L 128.739777 -269.843572 
L 129.581774 -271.924315 
L 130.423772 -269.465255 
L 131.265769 -271.482945 
L 132.107766 -270.789364 
L 132.949764 -269.59136 
L 133.791761 -271.609051 
L 134.633759 -269.023885 
L 135.475756 -269.843572 
L 136.317753 -267.510617 
L 137.159751 -269.086938 
L 138.001748 -269.465255 
L 138.843745 -268.01504 
L 139.685743 -267.762828 
L 140.52774 -266.753983 
L 141.369738 -267.321459 
L 142.211735 -265.871244 
L 143.053732 -267.447564 
L 143.89573 -264.484081 
L 144.737727 -265.619032 
L 145.579724 -264.421029 
L 146.421722 -265.871244 
L 147.263719 -264.799345 
L 148.105717 -265.303768 
L 148.947714 -264.484081 
L 149.789711 -264.168817 
L 150.631709 -265.808191 
L 151.473706 -265.808191 
L 152.315703 -263.096919 
L 153.157701 -265.366821 
L 153.999698 -263.538289 
L 154.841696 -262.529444 
L 155.683693 -262.151127 
L 156.52569 -262.970813 
L 157.367688 -263.159972 
L 158.209685 -262.718602 
L 159.051682 -262.025021 
L 159.89368 -261.457546 
L 160.735677 -259.755119 
L 161.577675 -262.21418 
L 162.419672 -263.159972 
L 163.261669 -260.196489 
L 164.103667 -260.827017 
L 164.945664 -259.565961 
L 165.787661 -261.77281 
L 166.629659 -260.385647 
L 167.471656 -259.944278 
L 168.313654 -260.070383 
L 169.155651 -260.763964 
L 169.997648 -260.763964 
L 170.839646 -260.574806 
L 171.681643 -259.755119 
L 172.52364 -259.502908 
L 173.365638 -258.998485 
L 174.207635 -259.376802 
L 175.049633 -260.007331 
L 175.89163 -258.683221 
L 176.733627 -258.43101 
L 177.575625 -258.998485 
L 178.417622 -258.620168 
L 179.259619 -257.359112 
L 180.101617 -257.611323 
L 180.943614 -258.43101 
L 181.785612 -257.674376 
L 182.627609 -257.1069 
L 183.469606 -256.917742 
L 184.311604 -256.980795 
L 185.153601 -256.791636 
L 185.995598 -256.035002 
L 186.837596 -257.611323 
L 187.679593 -256.791636 
L 188.521591 -255.593633 
L 189.363588 -256.791636 
L 190.205585 -256.539425 
L 191.047583 -254.269523 
L 191.88958 -254.64784 
L 192.731577 -255.782791 
L 193.573575 -255.404474 
L 194.415572 -255.656685 
L 195.25757 -254.64784 
L 196.099567 -255.656685 
L 196.941564 -254.963104 
L 197.783562 -255.278368 
L 198.625559 -254.64784 
L 199.467556 -255.782791 
L 200.309554 -255.593633 
L 201.151551 -254.521734 
L 201.993549 -254.332576 
L 202.835546 -255.341421 
L 203.677543 -254.584787 
L 204.519541 -254.521734 
L 205.361538 -254.017312 
L 206.203535 -254.836999 
L 207.045533 -254.458682 
L 207.88753 -254.963104 
L 208.729528 -254.900051 
L 209.571525 -253.891206 
L 210.413522 -253.765101 
L 211.25552 -253.071519 
L 212.097517 -254.584787 
L 212.939514 -254.332576 
L 213.781512 -254.20647 
L 214.623509 -253.008467 
L 215.465507 -253.828153 
L 216.307504 -253.765101 
L 217.149501 -252.756255 
L 217.991499 -253.323731 
L 218.833496 -253.386784 
L 219.675493 -253.071519 
L 220.517491 -253.260678 
L 221.359488 -253.512889 
L 222.201486 -253.386784 
L 223.043483 -253.071519 
L 223.88548 -253.638995 
L 224.727478 -254.017312 
L 225.569475 -253.260678 
L 226.411472 -252.504044 
L 227.25347 -253.512889 
L 228.095467 -252.314885 
L 228.937465 -253.197625 
L 229.779462 -253.575942 
L 230.621459 -253.071519 
L 231.463457 -253.891206 
L 232.305454 -252.756255 
L 233.147451 -253.134572 
L 233.989449 -253.954259 
L 234.831446 -252.882361 
L 235.673444 -252.693202 
L 236.515441 -252.882361 
L 237.357438 -253.134572 
L 238.199436 -253.008467 
L 239.041433 -252.882361 
L 239.88343 -253.197625 
L 240.725428 -253.575942 
L 241.567425 -252.819308 
L 242.409423 -252.756255 
L 243.25142 -253.575942 
L 244.093417 -251.999621 
L 244.935415 -253.008467 
L 245.777412 -253.134572 
L 246.619409 -252.756255 
L 247.461407 -251.999621 
L 248.303404 -252.882361 
L 249.145402 -252.693202 
L 249.987399 -253.008467 
L 250.829396 -252.567097 
L 251.671394 -251.873516 
L 252.513391 -252.314885 
L 253.355388 -252.567097 
L 254.197386 -252.819308 
L 255.039383 -252.882361 
L 255.881381 -252.504044 
L 256.723378 -252.567097 
L 257.565375 -252.693202 
L 258.407373 -252.882361 
L 259.24937 -253.134572 
L 260.091367 -252.819308 
L 260.933365 -252.63015 
L 261.775362 -252.882361 
L 262.61736 -252.125727 
L 263.459357 -253.891206 
L 264.301354 -253.134572 
L 265.143352 -254.332576 
L 265.985349 -254.773946 
L 266.827346 -256.224161 
L 267.669344 -258.557115 
L 268.511341 -261.583651 
L 269.353339 -266.312613 
L 270.195336 -272.113474 
L 271.037333 -271.104628 
L 271.879331 -271.735157 
L 271.879331 -249.666667 
L 271.879331 -249.666667 
L 271.037333 -249.666667 
L 270.195336 -249.666667 
L 269.353339 -249.666667 
L 268.511341 -249.666667 
L 267.669344 -249.666667 
L 266.827346 -249.666667 
L 265.985349 -249.666667 
L 265.143352 -249.666667 
L 264.301354 -249.666667 
L 263.459357 -249.666667 
L 262.61736 -249.666667 
L 261.775362 -249.666667 
L 260.933365 -249.666667 
L 260.091367 -249.666667 
L 259.24937 -249.666667 
L 258.407373 -249.666667 
L 257.565375 -249.666667 
L 256.723378 -249.666667 
L 255.881381 -249.666667 
L 255.039383 -249.666667 
L 254.197386 -249.666667 
L 253.355388 -249.666667 
L 252.513391 -249.666667 
L 251.671394 -249.666667 
L 250.829396 -249.666667 
L 249.987399 -249.666667 
L 249.145402 -249.666667 
L 248.303404 -249.666667 
L 247.461407 -249.666667 
L 246.619409 -249.666667 
L 245.777412 -249.666667 
L 244.935415 -249.666667 
L 244.093417 -249.666667 
L 243.25142 -249.666667 
L 242.409423 -249.666667 
L 241.567425 -249.666667 
L 240.725428 -249.666667 
L 239.88343 -249.666667 
L 239.041433 -249.666667 
L 238.199436 -249.666667 
L 237.357438 -249.666667 
L 236.515441 -249.666667 
L 235.673444 -249.666667 
L 234.831446 -249.666667 
L 233.989449 -249.666667 
L 233.147451 -249.666667 
L 232.305454 -249.666667 
L 231.463457 -249.666667 
L 230.621459 -249.666667 
L 229.779462 -249.666667 
L 228.937465 -249.666667 
L 228.095467 -249.666667 
L 227.25347 -249.666667 
L 226.411472 -249.666667 
L 225.569475 -249.666667 
L 224.727478 -249.666667 
L 223.88548 -249.666667 
L 223.043483 -249.666667 
L 222.201486 -249.666667 
L 221.359488 -249.666667 
L 220.517491 -249.666667 
L 219.675493 -249.666667 
L 218.833496 -249.666667 
L 217.991499 -249.666667 
L 217.149501 -249.666667 
L 216.307504 -249.666667 
L 215.465507 -249.666667 
L 214.623509 -249.666667 
L 213.781512 -249.666667 
L 212.939514 -249.666667 
L 212.097517 -249.666667 
L 211.25552 -249.666667 
L 210.413522 -249.666667 
L 209.571525 -249.666667 
L 208.729528 -249.666667 
L 207.88753 -249.666667 
L 207.045533 -249.666667 
L 206.203535 -249.666667 
L 205.361538 -249.666667 
L 204.519541 -249.666667 
L 203.677543 -249.666667 
L 202.835546 -249.666667 
L 201.993549 -249.666667 
L 201.151551 -249.666667 
L 200.309554 -249.666667 
L 199.467556 -249.666667 
L 198.625559 -249.666667 
L 197.783562 -249.666667 
L 196.941564 -249.666667 
L 196.099567 -249.666667 
L 195.25757 -249.666667 
L 194.415572 -249.666667 
L 193.573575 -249.666667 
L 192.731577 -249.666667 
L 191.88958 -249.666667 
L 191.047583 -249.666667 
L 190.205585 -249.666667 
L 189.363588 -249.666667 
L 188.521591 -249.666667 
L 187.679593 -249.666667 
L 186.837596 -249.666667 
L 185.995598 -249.666667 
L 185.153601 -249.666667 
L 184.311604 -249.666667 
L 183.469606 -249.666667 
L 182.627609 -249.666667 
L 181.785612 -249.666667 
L 180.943614 -249.666667 
L 180.101617 -249.666667 
L 179.259619 -249.666667 
L 178.417622 -249.666667 
L 177.575625 -249.666667 
L 176.733627 -249.666667 
L 175.89163 -249.666667 
L 175.049633 -249.666667 
L 174.207635 -249.666667 
L 173.365638 -249.666667 
L 172.52364 -249.666667 
L 171.681643 -249.666667 
L 170.839646 -249.666667 
L 169.997648 -249.666667 
L 169.155651 -249.666667 
L 168.313654 -249.666667 
L 167.471656 -249.666667 
L 166.629659 -249.666667 
L 165.787661 -249.666667 
L 164.945664 -249.666667 
L 164.103667 -249.666667 
L 163.261669 -249.666667 
L 162.419672 -249.666667 
L 161.577675 -249.666667 
L 160.735677 -249.666667 
L 159.89368 -249.666667 
L 159.051682 -249.666667 
L 158.209685 -249.666667 
L 157.367688 -249.666667 
L 156.52569 -249.666667 
L 155.683693 -249.666667 
L 154.841696 -249.666667 
L 153.999698 -249.666667 
L 153.157701 -249.666667 
L 152.315703 -249.666667 
L 151.473706 -249.666667 
L 150.631709 -249.666667 
L 149.789711 -249.666667 
L 148.947714 -249.666667 
L 148.105717 -249.666667 
L 147.263719 -249.666667 
L 146.421722 -249.666667 
L 145.579724 -249.666667 
L 144.737727 -249.666667 
L 143.89573 -249.666667 
L 143.053732 -249.666667 
L 142.211735 -249.666667 
L 141.369738 -249.666667 
L 140.52774 -249.666667 
L 139.685743 -249.666667 
L 138.843745 -249.666667 
L 138.001748 -249.666667 
L 137.159751 -249.666667 
L 136.317753 -249.666667 
L 135.475756 -249.666667 
L 134.633759 -249.666667 
L 133.791761 -249.666667 
L 132.949764 -249.666667 
L 132.107766 -249.666667 
L 131.265769 -249.666667 
L 130.423772 -249.666667 
L 129.581774 -249.666667 
L 128.739777 -249.666667 
L 127.89778 -249.666667 
L 127.055782 -249.666667 
L 126.213785 -249.666667 
L 125.371787 -249.666667 
L 124.52979 -249.666667 
L 123.687793 -249.666667 
L 122.845795 -249.666667 
L 122.003798 -249.666667 
L 121.161801 -249.666667 
L 120.319803 -249.666667 
L 119.477806 -249.666667 
L 118.635808 -249.666667 
L 117.793811 -249.666667 
L 116.951814 -249.666667 
L 116.109816 -249.666667 
L 115.267819 -249.666667 
L 114.425822 -249.666667 
L 113.583824 -249.666667 
L 112.741827 -249.666667 
L 111.899829 -249.666667 
L 111.057832 -249.666667 
L 110.215835 -249.666667 
L 109.373837 -249.666667 
L 108.53184 -249.666667 
L 107.689843 -249.666667 
L 106.847845 -249.666667 
L 106.005848 -249.666667 
L 105.16385 -249.666667 
L 104.321853 -249.666667 
L 103.479856 -249.666667 
L 102.637858 -249.666667 
L 101.795861 -249.666667 
L 100.953864 -249.666667 
L 100.111866 -249.666667 
L 99.269869 -249.666667 
L 98.427871 -249.666667 
L 97.585874 -249.666667 
L 96.743877 -249.666667 
L 95.901879 -249.666667 
L 95.059882 -249.666667 
L 94.217885 -249.666667 
L 93.375887 -249.666667 
L 92.53389 -249.666667 
L 91.691892 -249.666667 
L 90.849895 -249.666667 
L 90.007898 -249.666667 
L 89.1659 -249.666667 
L 88.323903 -249.666667 
L 87.481906 -249.666667 
L 86.639908 -249.666667 
L 85.797911 -249.666667 
L 84.955913 -249.666667 
L 84.113916 -249.666667 
L 83.271919 -249.666667 
L 82.429921 -249.666667 
L 81.587924 -249.666667 
L 80.745927 -249.666667 
L 79.903929 -249.666667 
L 79.061932 -249.666667 
L 78.219934 -249.666667 
L 77.377937 -249.666667 
L 76.53594 -249.666667 
L 75.693942 -249.666667 
L 74.851945 -249.666667 
L 74.009948 -249.666667 
L 73.16795 -249.666667 
L 72.325953 -249.666667 
L 71.483955 -249.666667 
L 70.641958 -249.666667 
L 69.799961 -249.666667 
L 68.957963 -249.666667 
L 68.115966 -249.666667 
L 67.273969 -249.666667 
L 66.431971 -249.666667 
L 65.589974 -249.666667 
L 64.747976 -249.666667 
L 63.905979 -249.666667 
L 63.063982 -249.666667 
L 62.221984 -249.666667 
L 61.379987 -249.666667 
L 60.53799 -249.666667 
L 59.695992 -249.666667 
L 58.853995 -249.666667 
L 58.011997 -249.666667 
L 57.17 -249.666667 
z
" style="stroke: #008000; stroke-opacity: 0.4"/>
    </defs>
    <g clip-path="url(#p1c70caff92)">
     <use xlink:href="#m14c5c555be" x="0" y="648" style="fill: #008000; fill-opacity: 0.4; stroke: #008000; stroke-opacity: 0.4"/>
    </g>
   </g>
   <g id="matplotlib.axis_3">
    <g id="xtick_7">
     <g id="line2d_14">
      <g>
       <use xlink:href="#ma3f3dba4fb" x="57.17" y="398.333333" style="stroke: #000000; stroke-width: 0.8"/>
      </g>
     </g>
     <g id="text_15">
      <!-- 0 -->
      <g transform="translate(53.98875 412.931771) scale(0.1 -0.1)">
       <use xlink:href="#DejaVuSans-30"/>
      </g>
     </g>
    </g>
    <g id="xtick_8">
     <g id="line2d_15">
      <g>
       <use xlink:href="#ma3f3dba4fb" x="99.269869" y="398.333333" style="stroke: #000000; stroke-width: 0.8"/>
      </g>
     </g>
     <g id="text_16">
      <!-- 50 -->
      <g transform="translate(92.907369 412.931771) scale(0.1 -0.1)">
       <use xlink:href="#DejaVuSans-35"/>
       <use xlink:href="#DejaVuSans-30" x="63.623047"/>
      </g>
     </g>
    </g>
    <g id="xtick_9">
     <g id="line2d_16">
      <g>
       <use xlink:href="#ma3f3dba4fb" x="141.369738" y="398.333333" style="stroke: #000000; stroke-width: 0.8"/>
      </g>
     </g>
     <g id="text_17">
      <!-- 100 -->
      <g transform="translate(131.825988 412.931771) scale(0.1 -0.1)">
       <use xlink:href="#DejaVuSans-31"/>
       <use xlink:href="#DejaVuSans-30" x="63.623047"/>
       <use xlink:href="#DejaVuSans-30" x="127.246094"/>
      </g>
     </g>
    </g>
    <g id="xtick_10">
     <g id="line2d_17">
      <g>
       <use xlink:href="#ma3f3dba4fb" x="183.469606" y="398.333333" style="stroke: #000000; stroke-width: 0.8"/>
      </g>
     </g>
     <g id="text_18">
      <!-- 150 -->
      <g transform="translate(173.925856 412.931771) scale(0.1 -0.1)">
       <use xlink:href="#DejaVuSans-31"/>
       <use xlink:href="#DejaVuSans-35" x="63.623047"/>
       <use xlink:href="#DejaVuSans-30" x="127.246094"/>
      </g>
     </g>
    </g>
    <g id="xtick_11">
     <g id="line2d_18">
      <g>
       <use xlink:href="#ma3f3dba4fb" x="225.569475" y="398.333333" style="stroke: #000000; stroke-width: 0.8"/>
      </g>
     </g>
     <g id="text_19">
      <!-- 200 -->
      <g transform="translate(216.025725 412.931771) scale(0.1 -0.1)">
       <use xlink:href="#DejaVuSans-32"/>
       <use xlink:href="#DejaVuSans-30" x="63.623047"/>
       <use xlink:href="#DejaVuSans-30" x="127.246094"/>
      </g>
     </g>
    </g>
    <g id="xtick_12">
     <g id="line2d_19">
      <g>
       <use xlink:href="#ma3f3dba4fb" x="267.669344" y="398.333333" style="stroke: #000000; stroke-width: 0.8"/>
      </g>
     </g>
     <g id="text_20">
      <!-- 250 -->
      <g transform="translate(258.125594 412.931771) scale(0.1 -0.1)">
       <use xlink:href="#DejaVuSans-32"/>
       <use xlink:href="#DejaVuSans-35" x="63.623047"/>
       <use xlink:href="#DejaVuSans-30" x="127.246094"/>
      </g>
     </g>
    </g>
   </g>
   <g id="matplotlib.axis_4">
    <g id="ytick_7">
     <g id="line2d_20">
      <g>
       <use xlink:href="#m32aaa789ec" x="57.17" y="398.333333" style="stroke: #000000; stroke-width: 0.8"/>
      </g>
     </g>
     <g id="text_21">
      <!-- 0 -->
      <g transform="translate(43.8075 402.132552) scale(0.1 -0.1)">
       <use xlink:href="#DejaVuSans-30"/>
      </g>
     </g>
    </g>
    <g id="ytick_8">
     <g id="line2d_21">
      <g>
       <use xlink:href="#m32aaa789ec" x="57.17" y="366.806919" style="stroke: #000000; stroke-width: 0.8"/>
      </g>
     </g>
     <g id="text_22">
      <!-- 500 -->
      <g transform="translate(31.0825 370.606138) scale(0.1 -0.1)">
       <use xlink:href="#DejaVuSans-35"/>
       <use xlink:href="#DejaVuSans-30" x="63.623047"/>
       <use xlink:href="#DejaVuSans-30" x="127.246094"/>
      </g>
     </g>
    </g>
    <g id="ytick_9">
     <g id="line2d_22">
      <g>
       <use xlink:href="#m32aaa789ec" x="57.17" y="335.280505" style="stroke: #000000; stroke-width: 0.8"/>
      </g>
     </g>
     <g id="text_23">
      <!-- 1000 -->
      <g transform="translate(24.72 339.079724) scale(0.1 -0.1)">
       <use xlink:href="#DejaVuSans-31"/>
       <use xlink:href="#DejaVuSans-30" x="63.623047"/>
       <use xlink:href="#DejaVuSans-30" x="127.246094"/>
       <use xlink:href="#DejaVuSans-30" x="190.869141"/>
      </g>
     </g>
    </g>
    <g id="ytick_10">
     <g id="line2d_23">
      <g>
       <use xlink:href="#m32aaa789ec" x="57.17" y="303.754091" style="stroke: #000000; stroke-width: 0.8"/>
      </g>
     </g>
     <g id="text_24">
      <!-- 1500 -->
      <g transform="translate(24.72 307.553309) scale(0.1 -0.1)">
       <use xlink:href="#DejaVuSans-31"/>
       <use xlink:href="#DejaVuSans-35" x="63.623047"/>
       <use xlink:href="#DejaVuSans-30" x="127.246094"/>
       <use xlink:href="#DejaVuSans-30" x="190.869141"/>
      </g>
     </g>
    </g>
    <g id="ytick_11">
     <g id="line2d_24">
      <g>
       <use xlink:href="#m32aaa789ec" x="57.17" y="272.227676" style="stroke: #000000; stroke-width: 0.8"/>
      </g>
     </g>
     <g id="text_25">
      <!-- 2000 -->
      <g transform="translate(24.72 276.026895) scale(0.1 -0.1)">
       <use xlink:href="#DejaVuSans-32"/>
       <use xlink:href="#DejaVuSans-30" x="63.623047"/>
       <use xlink:href="#DejaVuSans-30" x="127.246094"/>
       <use xlink:href="#DejaVuSans-30" x="190.869141"/>
      </g>
     </g>
    </g>
    <g id="ytick_12">
     <g id="line2d_25">
      <g>
       <use xlink:href="#m32aaa789ec" x="57.17" y="240.701262" style="stroke: #000000; stroke-width: 0.8"/>
      </g>
     </g>
     <g id="text_26">
      <!-- 2500 -->
      <g transform="translate(24.72 244.500481) scale(0.1 -0.1)">
       <use xlink:href="#DejaVuSans-32"/>
       <use xlink:href="#DejaVuSans-35" x="63.623047"/>
       <use xlink:href="#DejaVuSans-30" x="127.246094"/>
       <use xlink:href="#DejaVuSans-30" x="190.869141"/>
      </g>
     </g>
    </g>
    <g id="text_27">
     <!-- Pixel Frequency -->
     <g transform="translate(18.640313 347.398906) rotate(-90) scale(0.1 -0.1)">
      <use xlink:href="#DejaVuSans-50"/>
      <use xlink:href="#DejaVuSans-69" x="58.052734"/>
      <use xlink:href="#DejaVuSans-78" x="85.835938"/>
      <use xlink:href="#DejaVuSans-65" x="141.890625"/>
      <use xlink:href="#DejaVuSans-6c" x="203.414062"/>
      <use xlink:href="#DejaVuSans-20" x="231.197266"/>
      <use xlink:href="#DejaVuSans-46" x="262.984375"/>
      <use xlink:href="#DejaVuSans-72" x="313.253906"/>
      <use xlink:href="#DejaVuSans-65" x="352.117188"/>
      <use xlink:href="#DejaVuSans-71" x="413.640625"/>
      <use xlink:href="#DejaVuSans-75" x="477.117188"/>
      <use xlink:href="#DejaVuSans-65" x="540.496094"/>
      <use xlink:href="#DejaVuSans-6e" x="602.019531"/>
      <use xlink:href="#DejaVuSans-63" x="665.398438"/>
      <use xlink:href="#DejaVuSans-79" x="720.378906"/>
     </g>
    </g>
   </g>
   <g id="line2d_26">
    <path d="M 57.17 398.333333 
L 88.323903 398.333333 
L 90.007898 397.765858 
L 90.849895 395.243745 
L 91.691892 388.244881 
L 92.53389 380.237172 
L 93.375887 373.490519 
L 94.217885 370.085666 
L 95.059882 359.68195 
L 96.743877 327.335849 
L 97.585874 283.261921 
L 98.427871 288.81057 
L 99.269869 283.766344 
L 100.953864 327.525007 
L 101.795861 341.711893 
L 102.637858 341.711893 
L 103.479856 350.980659 
L 104.321853 350.980659 
L 105.16385 359.366685 
L 106.005848 364.284806 
L 106.847845 365.419757 
L 107.689843 366.239444 
L 108.53184 368.38324 
L 110.215835 370.40093 
L 111.057832 369.392085 
L 111.899829 368.82461 
L 112.741827 368.761557 
L 113.583824 367.689659 
L 114.425822 371.157564 
L 115.267819 368.950715 
L 116.109816 371.220617 
L 116.951814 371.661987 
L 117.793811 370.8423 
L 118.635808 375.508209 
L 119.477806 370.085666 
L 120.319803 372.544727 
L 122.003798 374.436311 
L 122.845795 372.607779 
L 123.687793 373.868836 
L 124.52979 374.751576 
L 125.371787 374.436311 
L 126.213785 374.940734 
L 127.055782 375.886526 
L 127.89778 376.012632 
L 128.739777 378.156428 
L 129.581774 376.075685 
L 130.423772 378.534745 
L 131.265769 376.517055 
L 132.107766 377.210636 
L 132.949764 378.40864 
L 133.791761 376.390949 
L 134.633759 378.976115 
L 135.475756 378.156428 
L 136.317753 380.489383 
L 137.159751 378.913062 
L 138.001748 378.534745 
L 138.843745 379.98496 
L 139.685743 380.237172 
L 140.52774 381.246017 
L 141.369738 380.678541 
L 142.211735 382.128756 
L 143.053732 380.552436 
L 143.89573 383.515919 
L 144.737727 382.380968 
L 145.579724 383.578971 
L 146.421722 382.128756 
L 147.263719 383.200655 
L 148.105717 382.696232 
L 148.947714 383.515919 
L 149.789711 383.831183 
L 150.631709 382.191809 
L 151.473706 382.191809 
L 152.315703 384.903081 
L 153.157701 382.633179 
L 153.999698 384.461711 
L 154.841696 385.470556 
L 155.683693 385.848873 
L 156.52569 385.029187 
L 157.367688 384.840028 
L 158.209685 385.281398 
L 159.89368 386.542454 
L 160.735677 388.244881 
L 161.577675 385.78582 
L 162.419672 384.840028 
L 163.261669 387.803511 
L 164.103667 387.172983 
L 164.945664 388.434039 
L 165.787661 386.22719 
L 166.629659 387.614353 
L 167.471656 388.055722 
L 168.313654 387.929617 
L 169.155651 387.236036 
L 169.997648 387.236036 
L 170.839646 387.425194 
L 171.681643 388.244881 
L 172.52364 388.497092 
L 173.365638 389.001515 
L 174.207635 388.623198 
L 175.049633 387.992669 
L 175.89163 389.316779 
L 176.733627 389.56899 
L 177.575625 389.001515 
L 178.417622 389.379832 
L 179.259619 390.640888 
L 180.101617 390.388677 
L 180.943614 389.56899 
L 181.785612 390.325624 
L 182.627609 390.8931 
L 183.469606 391.082258 
L 184.311604 391.019205 
L 185.153601 391.208364 
L 185.995598 391.964998 
L 186.837596 390.388677 
L 187.679593 391.208364 
L 188.521591 392.406367 
L 189.363588 391.208364 
L 190.205585 391.460575 
L 191.047583 393.730477 
L 191.88958 393.35216 
L 192.731577 392.217209 
L 193.573575 392.595526 
L 194.415572 392.343315 
L 195.25757 393.35216 
L 196.099567 392.343315 
L 196.941564 393.036896 
L 197.783562 392.721632 
L 198.625559 393.35216 
L 199.467556 392.217209 
L 200.309554 392.406367 
L 201.151551 393.478266 
L 201.993549 393.667424 
L 202.835546 392.658579 
L 203.677543 393.415213 
L 204.519541 393.478266 
L 205.361538 393.982688 
L 206.203535 393.163001 
L 207.045533 393.541318 
L 207.88753 393.036896 
L 208.729528 393.099949 
L 209.571525 394.108794 
L 210.413522 394.234899 
L 211.25552 394.928481 
L 212.097517 393.415213 
L 212.939514 393.667424 
L 213.781512 393.79353 
L 214.623509 394.991533 
L 215.465507 394.171847 
L 216.307504 394.234899 
L 217.149501 395.243745 
L 217.991499 394.676269 
L 218.833496 394.613216 
L 219.675493 394.928481 
L 221.359488 394.487111 
L 222.201486 394.613216 
L 223.043483 394.928481 
L 223.88548 394.361005 
L 224.727478 393.982688 
L 226.411472 395.495956 
L 227.25347 394.487111 
L 228.095467 395.685115 
L 228.937465 394.802375 
L 229.779462 394.424058 
L 230.621459 394.928481 
L 231.463457 394.108794 
L 232.305454 395.243745 
L 233.147451 394.865428 
L 233.989449 394.045741 
L 234.831446 395.117639 
L 235.673444 395.306798 
L 237.357438 394.865428 
L 239.041433 395.117639 
L 240.725428 394.424058 
L 241.567425 395.180692 
L 242.409423 395.243745 
L 243.25142 394.424058 
L 244.093417 396.000379 
L 244.935415 394.991533 
L 245.777412 394.865428 
L 246.619409 395.243745 
L 247.461407 396.000379 
L 248.303404 395.117639 
L 249.145402 395.306798 
L 249.987399 394.991533 
L 250.829396 395.432903 
L 251.671394 396.126484 
L 252.513391 395.685115 
L 254.197386 395.180692 
L 255.039383 395.117639 
L 255.881381 395.495956 
L 257.565375 395.306798 
L 259.24937 394.865428 
L 260.091367 395.180692 
L 260.933365 395.36985 
L 261.775362 395.117639 
L 262.61736 395.874273 
L 263.459357 394.108794 
L 264.301354 394.865428 
L 265.143352 393.667424 
L 265.985349 393.226054 
L 266.827346 391.775839 
L 267.669344 389.442885 
L 268.511341 386.416349 
L 269.353339 381.687387 
L 270.195336 375.886526 
L 271.037333 376.895372 
L 271.879331 376.264843 
L 271.879331 376.264843 
" clip-path="url(#p1c70caff92)" style="fill: none; stroke: #008000; stroke-width: 1.5; stroke-linecap: square"/>
   </g>
   <g id="patch_8">
    <path d="M 57.17 398.333333 
L 57.17 218.506667 
" style="fill: none; stroke: #000000; stroke-width: 0.8; stroke-linejoin: miter; stroke-linecap: square"/>
   </g>
   <g id="patch_9">
    <path d="M 272.721328 398.333333 
L 272.721328 218.506667 
" style="fill: none; stroke: #000000; stroke-width: 0.8; stroke-linejoin: miter; stroke-linecap: square"/>
   </g>
   <g id="patch_10">
    <path d="M 57.17 398.333333 
L 272.721328 398.333333 
" style="fill: none; stroke: #000000; stroke-width: 0.8; stroke-linejoin: miter; stroke-linecap: square"/>
   </g>
   <g id="patch_11">
    <path d="M 57.17 218.506667 
L 272.721328 218.506667 
" style="fill: none; stroke: #000000; stroke-width: 0.8; stroke-linejoin: miter; stroke-linecap: square"/>
   </g>
   <g id="text_28">
    <!-- Green Channel  -->
    <g transform="translate(179.494453 232.506667) scale(0.12 -0.12)">
     <defs>
      <path id="DejaVuSans-47" d="M 3809 666 
L 3809 1919 
L 2778 1919 
L 2778 2438 
L 4434 2438 
L 4434 434 
Q 4069 175 3628 42 
Q 3188 -91 2688 -91 
Q 1594 -91 976 548 
Q 359 1188 359 2328 
Q 359 3472 976 4111 
Q 1594 4750 2688 4750 
Q 3144 4750 3555 4637 
Q 3966 4525 4313 4306 
L 4313 3634 
Q 3963 3931 3569 4081 
Q 3175 4231 2741 4231 
Q 1884 4231 1454 3753 
Q 1025 3275 1025 2328 
Q 1025 1384 1454 906 
Q 1884 428 2741 428 
Q 3075 428 3337 486 
Q 3600 544 3809 666 
z
" transform="scale(0.015625)"/>
     </defs>
     <use xlink:href="#DejaVuSans-47"/>
     <use xlink:href="#DejaVuSans-72" x="77.490234"/>
     <use xlink:href="#DejaVuSans-65" x="116.353516"/>
     <use xlink:href="#DejaVuSans-65" x="177.876953"/>
     <use xlink:href="#DejaVuSans-6e" x="239.400391"/>
     <use xlink:href="#DejaVuSans-20" x="302.779297"/>
     <use xlink:href="#DejaVuSans-43" x="334.566406"/>
     <use xlink:href="#DejaVuSans-68" x="404.390625"/>
     <use xlink:href="#DejaVuSans-61" x="467.769531"/>
     <use xlink:href="#DejaVuSans-6e" x="529.048828"/>
     <use xlink:href="#DejaVuSans-6e" x="592.427734"/>
     <use xlink:href="#DejaVuSans-65" x="655.806641"/>
     <use xlink:href="#DejaVuSans-6c" x="717.330078"/>
     <use xlink:href="#DejaVuSans-20" x="745.113281"/>
    </g>
   </g>
  </g>
  <g id="axes_3">
   <g id="patch_12">
    <path d="M 57.17 606.04 
L 272.721328 606.04 
L 272.721328 426.213333 
L 57.17 426.213333 
z
" style="fill: #ffffff"/>
   </g>
   <g id="PolyCollection_3">
    <defs>
     <path id="m2f03615d40" d="M 57.17 -41.96 
L 57.17 -41.96 
L 58.011997 -41.96 
L 58.853995 -41.96 
L 59.695992 -41.96 
L 60.53799 -41.96 
L 61.379987 -41.96 
L 62.221984 -41.96 
L 63.063982 -41.96 
L 63.905979 -41.96 
L 64.747976 -41.96 
L 65.589974 -41.96 
L 66.431971 -41.96 
L 67.273969 -41.96 
L 68.115966 -41.96 
L 68.957963 -41.96 
L 69.799961 -42.023053 
L 70.641958 -41.96 
L 71.483955 -42.023053 
L 72.325953 -42.086106 
L 73.16795 -42.338317 
L 74.009948 -42.590528 
L 74.851945 -43.031898 
L 75.693942 -44.292955 
L 76.53594 -49.778551 
L 77.377937 -60.938901 
L 78.219934 -78.341482 
L 79.061932 -105.832515 
L 79.903929 -134.836816 
L 80.745927 -159.364367 
L 81.587924 -221.786667 
L 82.429921 -219.705923 
L 83.271919 -189.31446 
L 84.113916 -149.149808 
L 84.955913 -124.370047 
L 85.797911 -102.995138 
L 86.639908 -97.194278 
L 87.481906 -90.952048 
L 88.323903 -95.491851 
L 89.1659 -90.699836 
L 90.007898 -91.708682 
L 90.849895 -88.99741 
L 91.691892 -82.124652 
L 92.53389 -83.511814 
L 93.375887 -83.511814 
L 94.217885 -81.431071 
L 95.059882 -82.124652 
L 95.901879 -79.161169 
L 96.743877 -79.980856 
L 97.585874 -77.710954 
L 98.427871 -76.95432 
L 99.269869 -76.386844 
L 100.111866 -75.63021 
L 100.953864 -74.306101 
L 101.795861 -76.51295 
L 102.637858 -72.036199 
L 103.479856 -72.855886 
L 104.321853 -72.099252 
L 105.16385 -68.126924 
L 106.005848 -72.036199 
L 106.847845 -70.522931 
L 107.689843 -69.703245 
L 108.53184 -67.496396 
L 109.373837 -67.81166 
L 110.215835 -66.550603 
L 111.057832 -63.776279 
L 111.899829 -66.235339 
L 112.741827 -65.478705 
L 113.583824 -65.289547 
L 114.425822 -63.14575 
L 115.267819 -65.667863 
L 116.109816 -60.812796 
L 116.951814 -61.758588 
L 117.793811 -61.758588 
L 118.635808 -59.677845 
L 119.477806 -62.326064 
L 120.319803 -58.858158 
L 121.161801 -58.605947 
L 122.003798 -57.912366 
L 122.845795 -60.497532 
L 123.687793 -58.22763 
L 124.52979 -58.669 
L 125.371787 -56.90352 
L 126.213785 -59.425633 
L 127.055782 -55.957728 
L 127.89778 -56.209939 
L 128.739777 -56.462151 
L 129.581774 -54.88583 
L 130.423772 -55.011935 
L 131.265769 -54.318354 
L 132.107766 -54.44446 
L 132.949764 -51.417924 
L 133.791761 -53.876985 
L 134.633759 -52.363717 
L 135.475756 -51.291819 
L 136.317753 -52.111505 
L 137.159751 -51.291819 
L 138.001748 -51.165713 
L 138.843745 -51.228766 
L 139.685743 -51.354871 
L 140.52774 -51.291819 
L 141.369738 -50.66129 
L 142.211735 -49.904656 
L 143.053732 -50.219921 
L 143.89573 -49.841604 
L 144.737727 -49.211075 
L 145.579724 -49.967709 
L 146.421722 -48.580547 
L 147.263719 -49.463287 
L 148.105717 -49.148022 
L 148.947714 -49.337181 
L 149.789711 -48.706653 
L 150.631709 -48.769705 
L 151.473706 -49.904656 
L 152.315703 -48.013072 
L 153.157701 -48.895811 
L 153.999698 -48.580547 
L 154.841696 -48.6436 
L 155.683693 -48.139177 
L 156.52569 -47.886966 
L 157.367688 -47.130332 
L 158.209685 -47.004226 
L 159.051682 -48.265283 
L 159.89368 -47.193385 
L 160.735677 -47.31949 
L 161.577675 -47.886966 
L 162.419672 -46.247592 
L 163.261669 -47.445596 
L 164.103667 -46.752015 
L 164.945664 -46.562856 
L 165.787661 -46.941173 
L 166.629659 -46.373698 
L 167.471656 -47.193385 
L 168.313654 -46.688962 
L 169.155651 -47.256438 
L 169.997648 -46.436751 
L 170.839646 -45.932328 
L 171.681643 -46.941173 
L 172.52364 -45.112641 
L 173.365638 -46.121487 
L 174.207635 -45.806223 
L 175.049633 -45.490958 
L 175.89163 -44.671272 
L 176.733627 -45.112641 
L 177.575625 -45.427906 
L 178.417622 -45.238747 
L 179.259619 -45.617064 
L 180.101617 -45.112641 
L 180.943614 -45.175694 
L 181.785612 -44.608219 
L 182.627609 -45.490958 
L 183.469606 -44.797377 
L 184.311604 -44.356007 
L 185.153601 -44.797377 
L 185.995598 -44.734324 
L 186.837596 -45.490958 
L 187.679593 -44.482113 
L 188.521591 -44.41906 
L 189.363588 -44.41906 
L 190.205585 -44.41906 
L 191.047583 -44.356007 
L 191.88958 -44.356007 
L 192.731577 -44.671272 
L 193.573575 -43.977691 
L 194.415572 -43.662426 
L 195.25757 -44.040743 
L 196.099567 -43.977691 
L 196.941564 -44.608219 
L 197.783562 -44.292955 
L 198.625559 -44.986536 
L 199.467556 -44.608219 
L 200.309554 -43.788532 
L 201.151551 -44.608219 
L 201.993549 -45.3018 
L 202.835546 -44.671272 
L 203.677543 -43.977691 
L 204.519541 -44.608219 
L 205.361538 -44.356007 
L 206.203535 -43.788532 
L 207.045533 -43.851585 
L 207.88753 -44.103796 
L 208.729528 -43.851585 
L 209.571525 -44.103796 
L 210.413522 -44.166849 
L 211.25552 -44.166849 
L 212.097517 -43.158004 
L 212.939514 -44.356007 
L 213.781512 -43.599374 
L 214.623509 -42.968845 
L 215.465507 -43.851585 
L 216.307504 -43.221057 
L 217.149501 -44.229902 
L 217.991499 -44.040743 
L 218.833496 -43.851585 
L 219.675493 -44.356007 
L 220.517491 -43.599374 
L 221.359488 -43.284109 
L 222.201486 -43.347162 
L 223.043483 -43.914638 
L 223.88548 -44.166849 
L 224.727478 -42.968845 
L 225.569475 -44.292955 
L 226.411472 -43.599374 
L 227.25347 -43.536321 
L 228.095467 -43.410215 
L 228.937465 -43.158004 
L 229.779462 -43.662426 
L 230.621459 -43.031898 
L 231.463457 -43.473268 
L 232.305454 -43.536321 
L 233.147451 -42.779687 
L 233.989449 -42.653581 
L 234.831446 -43.158004 
L 235.673444 -43.536321 
L 236.515441 -43.536321 
L 237.357438 -43.347162 
L 238.199436 -42.716634 
L 239.041433 -42.905792 
L 239.88343 -42.716634 
L 240.725428 -42.590528 
L 241.567425 -43.347162 
L 242.409423 -42.905792 
L 243.25142 -42.527475 
L 244.093417 -42.84274 
L 244.935415 -43.347162 
L 245.777412 -42.716634 
L 246.619409 -42.653581 
L 247.461407 -42.653581 
L 248.303404 -42.779687 
L 249.145402 -42.716634 
L 249.987399 -43.158004 
L 250.829396 -43.410215 
L 251.671394 -43.221057 
L 252.513391 -42.779687 
L 253.355388 -42.968845 
L 254.197386 -42.779687 
L 255.039383 -42.716634 
L 255.881381 -42.779687 
L 256.723378 -43.031898 
L 257.565375 -43.536321 
L 258.407373 -42.968845 
L 259.24937 -42.716634 
L 260.091367 -42.905792 
L 260.933365 -42.779687 
L 261.775362 -43.473268 
L 262.61736 -43.094951 
L 263.459357 -43.347162 
L 264.301354 -42.653581 
L 265.143352 -43.473268 
L 265.985349 -43.094951 
L 266.827346 -43.031898 
L 267.669344 -42.464423 
L 268.511341 -42.779687 
L 269.353339 -43.031898 
L 270.195336 -42.527475 
L 271.037333 -42.40137 
L 271.879331 -42.590528 
L 271.879331 -41.96 
L 271.879331 -41.96 
L 271.037333 -41.96 
L 270.195336 -41.96 
L 269.353339 -41.96 
L 268.511341 -41.96 
L 267.669344 -41.96 
L 266.827346 -41.96 
L 265.985349 -41.96 
L 265.143352 -41.96 
L 264.301354 -41.96 
L 263.459357 -41.96 
L 262.61736 -41.96 
L 261.775362 -41.96 
L 260.933365 -41.96 
L 260.091367 -41.96 
L 259.24937 -41.96 
L 258.407373 -41.96 
L 257.565375 -41.96 
L 256.723378 -41.96 
L 255.881381 -41.96 
L 255.039383 -41.96 
L 254.197386 -41.96 
L 253.355388 -41.96 
L 252.513391 -41.96 
L 251.671394 -41.96 
L 250.829396 -41.96 
L 249.987399 -41.96 
L 249.145402 -41.96 
L 248.303404 -41.96 
L 247.461407 -41.96 
L 246.619409 -41.96 
L 245.777412 -41.96 
L 244.935415 -41.96 
L 244.093417 -41.96 
L 243.25142 -41.96 
L 242.409423 -41.96 
L 241.567425 -41.96 
L 240.725428 -41.96 
L 239.88343 -41.96 
L 239.041433 -41.96 
L 238.199436 -41.96 
L 237.357438 -41.96 
L 236.515441 -41.96 
L 235.673444 -41.96 
L 234.831446 -41.96 
L 233.989449 -41.96 
L 233.147451 -41.96 
L 232.305454 -41.96 
L 231.463457 -41.96 
L 230.621459 -41.96 
L 229.779462 -41.96 
L 228.937465 -41.96 
L 228.095467 -41.96 
L 227.25347 -41.96 
L 226.411472 -41.96 
L 225.569475 -41.96 
L 224.727478 -41.96 
L 223.88548 -41.96 
L 223.043483 -41.96 
L 222.201486 -41.96 
L 221.359488 -41.96 
L 220.517491 -41.96 
L 219.675493 -41.96 
L 218.833496 -41.96 
L 217.991499 -41.96 
L 217.149501 -41.96 
L 216.307504 -41.96 
L 215.465507 -41.96 
L 214.623509 -41.96 
L 213.781512 -41.96 
L 212.939514 -41.96 
L 212.097517 -41.96 
L 211.25552 -41.96 
L 210.413522 -41.96 
L 209.571525 -41.96 
L 208.729528 -41.96 
L 207.88753 -41.96 
L 207.045533 -41.96 
L 206.203535 -41.96 
L 205.361538 -41.96 
L 204.519541 -41.96 
L 203.677543 -41.96 
L 202.835546 -41.96 
L 201.993549 -41.96 
L 201.151551 -41.96 
L 200.309554 -41.96 
L 199.467556 -41.96 
L 198.625559 -41.96 
L 197.783562 -41.96 
L 196.941564 -41.96 
L 196.099567 -41.96 
L 195.25757 -41.96 
L 194.415572 -41.96 
L 193.573575 -41.96 
L 192.731577 -41.96 
L 191.88958 -41.96 
L 191.047583 -41.96 
L 190.205585 -41.96 
L 189.363588 -41.96 
L 188.521591 -41.96 
L 187.679593 -41.96 
L 186.837596 -41.96 
L 185.995598 -41.96 
L 185.153601 -41.96 
L 184.311604 -41.96 
L 183.469606 -41.96 
L 182.627609 -41.96 
L 181.785612 -41.96 
L 180.943614 -41.96 
L 180.101617 -41.96 
L 179.259619 -41.96 
L 178.417622 -41.96 
L 177.575625 -41.96 
L 176.733627 -41.96 
L 175.89163 -41.96 
L 175.049633 -41.96 
L 174.207635 -41.96 
L 173.365638 -41.96 
L 172.52364 -41.96 
L 171.681643 -41.96 
L 170.839646 -41.96 
L 169.997648 -41.96 
L 169.155651 -41.96 
L 168.313654 -41.96 
L 167.471656 -41.96 
L 166.629659 -41.96 
L 165.787661 -41.96 
L 164.945664 -41.96 
L 164.103667 -41.96 
L 163.261669 -41.96 
L 162.419672 -41.96 
L 161.577675 -41.96 
L 160.735677 -41.96 
L 159.89368 -41.96 
L 159.051682 -41.96 
L 158.209685 -41.96 
L 157.367688 -41.96 
L 156.52569 -41.96 
L 155.683693 -41.96 
L 154.841696 -41.96 
L 153.999698 -41.96 
L 153.157701 -41.96 
L 152.315703 -41.96 
L 151.473706 -41.96 
L 150.631709 -41.96 
L 149.789711 -41.96 
L 148.947714 -41.96 
L 148.105717 -41.96 
L 147.263719 -41.96 
L 146.421722 -41.96 
L 145.579724 -41.96 
L 144.737727 -41.96 
L 143.89573 -41.96 
L 143.053732 -41.96 
L 142.211735 -41.96 
L 141.369738 -41.96 
L 140.52774 -41.96 
L 139.685743 -41.96 
L 138.843745 -41.96 
L 138.001748 -41.96 
L 137.159751 -41.96 
L 136.317753 -41.96 
L 135.475756 -41.96 
L 134.633759 -41.96 
L 133.791761 -41.96 
L 132.949764 -41.96 
L 132.107766 -41.96 
L 131.265769 -41.96 
L 130.423772 -41.96 
L 129.581774 -41.96 
L 128.739777 -41.96 
L 127.89778 -41.96 
L 127.055782 -41.96 
L 126.213785 -41.96 
L 125.371787 -41.96 
L 124.52979 -41.96 
L 123.687793 -41.96 
L 122.845795 -41.96 
L 122.003798 -41.96 
L 121.161801 -41.96 
L 120.319803 -41.96 
L 119.477806 -41.96 
L 118.635808 -41.96 
L 117.793811 -41.96 
L 116.951814 -41.96 
L 116.109816 -41.96 
L 115.267819 -41.96 
L 114.425822 -41.96 
L 113.583824 -41.96 
L 112.741827 -41.96 
L 111.899829 -41.96 
L 111.057832 -41.96 
L 110.215835 -41.96 
L 109.373837 -41.96 
L 108.53184 -41.96 
L 107.689843 -41.96 
L 106.847845 -41.96 
L 106.005848 -41.96 
L 105.16385 -41.96 
L 104.321853 -41.96 
L 103.479856 -41.96 
L 102.637858 -41.96 
L 101.795861 -41.96 
L 100.953864 -41.96 
L 100.111866 -41.96 
L 99.269869 -41.96 
L 98.427871 -41.96 
L 97.585874 -41.96 
L 96.743877 -41.96 
L 95.901879 -41.96 
L 95.059882 -41.96 
L 94.217885 -41.96 
L 93.375887 -41.96 
L 92.53389 -41.96 
L 91.691892 -41.96 
L 90.849895 -41.96 
L 90.007898 -41.96 
L 89.1659 -41.96 
L 88.323903 -41.96 
L 87.481906 -41.96 
L 86.639908 -41.96 
L 85.797911 -41.96 
L 84.955913 -41.96 
L 84.113916 -41.96 
L 83.271919 -41.96 
L 82.429921 -41.96 
L 81.587924 -41.96 
L 80.745927 -41.96 
L 79.903929 -41.96 
L 79.061932 -41.96 
L 78.219934 -41.96 
L 77.377937 -41.96 
L 76.53594 -41.96 
L 75.693942 -41.96 
L 74.851945 -41.96 
L 74.009948 -41.96 
L 73.16795 -41.96 
L 72.325953 -41.96 
L 71.483955 -41.96 
L 70.641958 -41.96 
L 69.799961 -41.96 
L 68.957963 -41.96 
L 68.115966 -41.96 
L 67.273969 -41.96 
L 66.431971 -41.96 
L 65.589974 -41.96 
L 64.747976 -41.96 
L 63.905979 -41.96 
L 63.063982 -41.96 
L 62.221984 -41.96 
L 61.379987 -41.96 
L 60.53799 -41.96 
L 59.695992 -41.96 
L 58.853995 -41.96 
L 58.011997 -41.96 
L 57.17 -41.96 
z
" style="stroke: #0000ff; stroke-opacity: 0.4"/>
    </defs>
    <g clip-path="url(#p4eee38786a)">
     <use xlink:href="#m2f03615d40" x="0" y="648" style="fill: #0000ff; fill-opacity: 0.4; stroke: #0000ff; stroke-opacity: 0.4"/>
    </g>
   </g>
   <g id="matplotlib.axis_5">
    <g id="xtick_13">
     <g id="line2d_27">
      <g>
       <use xlink:href="#ma3f3dba4fb" x="57.17" y="606.04" style="stroke: #000000; stroke-width: 0.8"/>
      </g>
     </g>
     <g id="text_29">
      <!-- 0 -->
      <g transform="translate(53.98875 620.638438) scale(0.1 -0.1)">
       <use xlink:href="#DejaVuSans-30"/>
      </g>
     </g>
    </g>
    <g id="xtick_14">
     <g id="line2d_28">
      <g>
       <use xlink:href="#ma3f3dba4fb" x="99.269869" y="606.04" style="stroke: #000000; stroke-width: 0.8"/>
      </g>
     </g>
     <g id="text_30">
      <!-- 50 -->
      <g transform="translate(92.907369 620.638438) scale(0.1 -0.1)">
       <use xlink:href="#DejaVuSans-35"/>
       <use xlink:href="#DejaVuSans-30" x="63.623047"/>
      </g>
     </g>
    </g>
    <g id="xtick_15">
     <g id="line2d_29">
      <g>
       <use xlink:href="#ma3f3dba4fb" x="141.369738" y="606.04" style="stroke: #000000; stroke-width: 0.8"/>
      </g>
     </g>
     <g id="text_31">
      <!-- 100 -->
      <g transform="translate(131.825988 620.638438) scale(0.1 -0.1)">
       <use xlink:href="#DejaVuSans-31"/>
       <use xlink:href="#DejaVuSans-30" x="63.623047"/>
       <use xlink:href="#DejaVuSans-30" x="127.246094"/>
      </g>
     </g>
    </g>
    <g id="xtick_16">
     <g id="line2d_30">
      <g>
       <use xlink:href="#ma3f3dba4fb" x="183.469606" y="606.04" style="stroke: #000000; stroke-width: 0.8"/>
      </g>
     </g>
     <g id="text_32">
      <!-- 150 -->
      <g transform="translate(173.925856 620.638438) scale(0.1 -0.1)">
       <use xlink:href="#DejaVuSans-31"/>
       <use xlink:href="#DejaVuSans-35" x="63.623047"/>
       <use xlink:href="#DejaVuSans-30" x="127.246094"/>
      </g>
     </g>
    </g>
    <g id="xtick_17">
     <g id="line2d_31">
      <g>
       <use xlink:href="#ma3f3dba4fb" x="225.569475" y="606.04" style="stroke: #000000; stroke-width: 0.8"/>
      </g>
     </g>
     <g id="text_33">
      <!-- 200 -->
      <g transform="translate(216.025725 620.638438) scale(0.1 -0.1)">
       <use xlink:href="#DejaVuSans-32"/>
       <use xlink:href="#DejaVuSans-30" x="63.623047"/>
       <use xlink:href="#DejaVuSans-30" x="127.246094"/>
      </g>
     </g>
    </g>
    <g id="xtick_18">
     <g id="line2d_32">
      <g>
       <use xlink:href="#ma3f3dba4fb" x="267.669344" y="606.04" style="stroke: #000000; stroke-width: 0.8"/>
      </g>
     </g>
     <g id="text_34">
      <!-- 250 -->
      <g transform="translate(258.125594 620.638438) scale(0.1 -0.1)">
       <use xlink:href="#DejaVuSans-32"/>
       <use xlink:href="#DejaVuSans-35" x="63.623047"/>
       <use xlink:href="#DejaVuSans-30" x="127.246094"/>
      </g>
     </g>
    </g>
    <g id="text_35">
     <!-- Pixel Intensity -->
     <g transform="translate(130.033945 634.316563) scale(0.1 -0.1)">
      <defs>
       <path id="DejaVuSans-49" d="M 628 4666 
L 1259 4666 
L 1259 0 
L 628 0 
L 628 4666 
z
" transform="scale(0.015625)"/>
       <path id="DejaVuSans-74" d="M 1172 4494 
L 1172 3500 
L 2356 3500 
L 2356 3053 
L 1172 3053 
L 1172 1153 
Q 1172 725 1289 603 
Q 1406 481 1766 481 
L 2356 481 
L 2356 0 
L 1766 0 
Q 1100 0 847 248 
Q 594 497 594 1153 
L 594 3053 
L 172 3053 
L 172 3500 
L 594 3500 
L 594 4494 
L 1172 4494 
z
" transform="scale(0.015625)"/>
       <path id="DejaVuSans-73" d="M 2834 3397 
L 2834 2853 
Q 2591 2978 2328 3040 
Q 2066 3103 1784 3103 
Q 1356 3103 1142 2972 
Q 928 2841 928 2578 
Q 928 2378 1081 2264 
Q 1234 2150 1697 2047 
L 1894 2003 
Q 2506 1872 2764 1633 
Q 3022 1394 3022 966 
Q 3022 478 2636 193 
Q 2250 -91 1575 -91 
Q 1294 -91 989 -36 
Q 684 19 347 128 
L 347 722 
Q 666 556 975 473 
Q 1284 391 1588 391 
Q 1994 391 2212 530 
Q 2431 669 2431 922 
Q 2431 1156 2273 1281 
Q 2116 1406 1581 1522 
L 1381 1569 
Q 847 1681 609 1914 
Q 372 2147 372 2553 
Q 372 3047 722 3315 
Q 1072 3584 1716 3584 
Q 2034 3584 2315 3537 
Q 2597 3491 2834 3397 
z
" transform="scale(0.015625)"/>
      </defs>
      <use xlink:href="#DejaVuSans-50"/>
      <use xlink:href="#DejaVuSans-69" x="58.052734"/>
      <use xlink:href="#DejaVuSans-78" x="85.835938"/>
      <use xlink:href="#DejaVuSans-65" x="141.890625"/>
      <use xlink:href="#DejaVuSans-6c" x="203.414062"/>
      <use xlink:href="#DejaVuSans-20" x="231.197266"/>
      <use xlink:href="#DejaVuSans-49" x="262.984375"/>
      <use xlink:href="#DejaVuSans-6e" x="292.476562"/>
      <use xlink:href="#DejaVuSans-74" x="355.855469"/>
      <use xlink:href="#DejaVuSans-65" x="395.064453"/>
      <use xlink:href="#DejaVuSans-6e" x="456.587891"/>
      <use xlink:href="#DejaVuSans-73" x="519.966797"/>
      <use xlink:href="#DejaVuSans-69" x="572.066406"/>
      <use xlink:href="#DejaVuSans-74" x="599.849609"/>
      <use xlink:href="#DejaVuSans-79" x="639.058594"/>
     </g>
    </g>
   </g>
   <g id="matplotlib.axis_6">
    <g id="ytick_13">
     <g id="line2d_33">
      <g>
       <use xlink:href="#m32aaa789ec" x="57.17" y="606.04" style="stroke: #000000; stroke-width: 0.8"/>
      </g>
     </g>
     <g id="text_36">
      <!-- 0 -->
      <g transform="translate(43.8075 609.839219) scale(0.1 -0.1)">
       <use xlink:href="#DejaVuSans-30"/>
      </g>
     </g>
    </g>
    <g id="ytick_14">
     <g id="line2d_34">
      <g>
       <use xlink:href="#m32aaa789ec" x="57.17" y="574.513586" style="stroke: #000000; stroke-width: 0.8"/>
      </g>
     </g>
     <g id="text_37">
      <!-- 500 -->
      <g transform="translate(31.0825 578.312805) scale(0.1 -0.1)">
       <use xlink:href="#DejaVuSans-35"/>
       <use xlink:href="#DejaVuSans-30" x="63.623047"/>
       <use xlink:href="#DejaVuSans-30" x="127.246094"/>
      </g>
     </g>
    </g>
    <g id="ytick_15">
     <g id="line2d_35">
      <g>
       <use xlink:href="#m32aaa789ec" x="57.17" y="542.987172" style="stroke: #000000; stroke-width: 0.8"/>
      </g>
     </g>
     <g id="text_38">
      <!-- 1000 -->
      <g transform="translate(24.72 546.78639) scale(0.1 -0.1)">
       <use xlink:href="#DejaVuSans-31"/>
       <use xlink:href="#DejaVuSans-30" x="63.623047"/>
       <use xlink:href="#DejaVuSans-30" x="127.246094"/>
       <use xlink:href="#DejaVuSans-30" x="190.869141"/>
      </g>
     </g>
    </g>
    <g id="ytick_16">
     <g id="line2d_36">
      <g>
       <use xlink:href="#m32aaa789ec" x="57.17" y="511.460757" style="stroke: #000000; stroke-width: 0.8"/>
      </g>
     </g>
     <g id="text_39">
      <!-- 1500 -->
      <g transform="translate(24.72 515.259976) scale(0.1 -0.1)">
       <use xlink:href="#DejaVuSans-31"/>
       <use xlink:href="#DejaVuSans-35" x="63.623047"/>
       <use xlink:href="#DejaVuSans-30" x="127.246094"/>
       <use xlink:href="#DejaVuSans-30" x="190.869141"/>
      </g>
     </g>
    </g>
    <g id="ytick_17">
     <g id="line2d_37">
      <g>
       <use xlink:href="#m32aaa789ec" x="57.17" y="479.934343" style="stroke: #000000; stroke-width: 0.8"/>
      </g>
     </g>
     <g id="text_40">
      <!-- 2000 -->
      <g transform="translate(24.72 483.733562) scale(0.1 -0.1)">
       <use xlink:href="#DejaVuSans-32"/>
       <use xlink:href="#DejaVuSans-30" x="63.623047"/>
       <use xlink:href="#DejaVuSans-30" x="127.246094"/>
       <use xlink:href="#DejaVuSans-30" x="190.869141"/>
      </g>
     </g>
    </g>
    <g id="ytick_18">
     <g id="line2d_38">
      <g>
       <use xlink:href="#m32aaa789ec" x="57.17" y="448.407929" style="stroke: #000000; stroke-width: 0.8"/>
      </g>
     </g>
     <g id="text_41">
      <!-- 2500 -->
      <g transform="translate(24.72 452.207148) scale(0.1 -0.1)">
       <use xlink:href="#DejaVuSans-32"/>
       <use xlink:href="#DejaVuSans-35" x="63.623047"/>
       <use xlink:href="#DejaVuSans-30" x="127.246094"/>
       <use xlink:href="#DejaVuSans-30" x="190.869141"/>
      </g>
     </g>
    </g>
    <g id="text_42">
     <!-- Pixel Frequency -->
     <g transform="translate(18.640313 555.105573) rotate(-90) scale(0.1 -0.1)">
      <use xlink:href="#DejaVuSans-50"/>
      <use xlink:href="#DejaVuSans-69" x="58.052734"/>
      <use xlink:href="#DejaVuSans-78" x="85.835938"/>
      <use xlink:href="#DejaVuSans-65" x="141.890625"/>
      <use xlink:href="#DejaVuSans-6c" x="203.414062"/>
      <use xlink:href="#DejaVuSans-20" x="231.197266"/>
      <use xlink:href="#DejaVuSans-46" x="262.984375"/>
      <use xlink:href="#DejaVuSans-72" x="313.253906"/>
      <use xlink:href="#DejaVuSans-65" x="352.117188"/>
      <use xlink:href="#DejaVuSans-71" x="413.640625"/>
      <use xlink:href="#DejaVuSans-75" x="477.117188"/>
      <use xlink:href="#DejaVuSans-65" x="540.496094"/>
      <use xlink:href="#DejaVuSans-6e" x="602.019531"/>
      <use xlink:href="#DejaVuSans-63" x="665.398438"/>
      <use xlink:href="#DejaVuSans-79" x="720.378906"/>
     </g>
    </g>
   </g>
   <g id="line2d_39">
    <path d="M 57.17 606.04 
L 71.483955 605.976947 
L 72.325953 605.913894 
L 74.009948 605.409472 
L 74.851945 604.968102 
L 75.693942 603.707045 
L 76.53594 598.221449 
L 77.377937 587.061099 
L 78.219934 569.658518 
L 80.745927 488.635633 
L 81.587924 426.213333 
L 82.429921 428.294077 
L 83.271919 458.68554 
L 84.113916 498.850192 
L 84.955913 523.629953 
L 85.797911 545.004862 
L 87.481906 557.047952 
L 88.323903 552.508149 
L 89.1659 557.300164 
L 90.007898 556.291318 
L 90.849895 559.00259 
L 91.691892 565.875348 
L 92.53389 564.488186 
L 93.375887 564.488186 
L 94.217885 566.568929 
L 95.059882 565.875348 
L 95.901879 568.838831 
L 96.743877 568.019144 
L 97.585874 570.289046 
L 98.427871 571.04568 
L 99.269869 571.613156 
L 100.111866 572.36979 
L 100.953864 573.693899 
L 101.795861 571.48705 
L 102.637858 575.963801 
L 103.479856 575.144114 
L 104.321853 575.900748 
L 105.16385 579.873076 
L 106.005848 575.963801 
L 106.847845 577.477069 
L 107.689843 578.296755 
L 108.53184 580.503604 
L 109.373837 580.18834 
L 110.215835 581.449397 
L 111.057832 584.223721 
L 111.899829 581.764661 
L 112.741827 582.521295 
L 113.583824 582.710453 
L 114.425822 584.85425 
L 115.267819 582.332137 
L 116.109816 587.187204 
L 116.951814 586.241412 
L 117.793811 586.241412 
L 118.635808 588.322155 
L 119.477806 585.673936 
L 120.319803 589.141842 
L 121.161801 589.394053 
L 122.003798 590.087634 
L 122.845795 587.502468 
L 123.687793 589.77237 
L 124.52979 589.331 
L 125.371787 591.09648 
L 126.213785 588.574367 
L 127.055782 592.042272 
L 128.739777 591.537849 
L 129.581774 593.11417 
L 130.423772 592.988065 
L 131.265769 593.681646 
L 132.107766 593.55554 
L 132.949764 596.582076 
L 133.791761 594.123015 
L 134.633759 595.636283 
L 135.475756 596.708181 
L 136.317753 595.888495 
L 137.159751 596.708181 
L 138.001748 596.834287 
L 140.52774 596.708181 
L 142.211735 598.095344 
L 143.053732 597.780079 
L 143.89573 598.158396 
L 144.737727 598.788925 
L 145.579724 598.032291 
L 146.421722 599.419453 
L 147.263719 598.536713 
L 148.105717 598.851978 
L 148.947714 598.662819 
L 149.789711 599.293347 
L 150.631709 599.230295 
L 151.473706 598.095344 
L 152.315703 599.986928 
L 153.157701 599.104189 
L 153.999698 599.419453 
L 154.841696 599.3564 
L 155.683693 599.860823 
L 156.52569 600.113034 
L 157.367688 600.869668 
L 158.209685 600.995774 
L 159.051682 599.734717 
L 159.89368 600.806615 
L 160.735677 600.68051 
L 161.577675 600.113034 
L 162.419672 601.752408 
L 163.261669 600.554404 
L 164.103667 601.247985 
L 164.945664 601.437144 
L 165.787661 601.058827 
L 166.629659 601.626302 
L 167.471656 600.806615 
L 168.313654 601.311038 
L 169.155651 600.743562 
L 169.997648 601.563249 
L 170.839646 602.067672 
L 171.681643 601.058827 
L 172.52364 602.887359 
L 173.365638 601.878513 
L 175.049633 602.509042 
L 175.89163 603.328728 
L 176.733627 602.887359 
L 177.575625 602.572094 
L 178.417622 602.761253 
L 179.259619 602.382936 
L 180.101617 602.887359 
L 180.943614 602.824306 
L 181.785612 603.391781 
L 182.627609 602.509042 
L 183.469606 603.202623 
L 184.311604 603.643993 
L 185.153601 603.202623 
L 185.995598 603.265676 
L 186.837596 602.509042 
L 187.679593 603.517887 
L 189.363588 603.58094 
L 191.88958 603.643993 
L 192.731577 603.328728 
L 193.573575 604.022309 
L 194.415572 604.337574 
L 195.25757 603.959257 
L 196.099567 604.022309 
L 196.941564 603.391781 
L 197.783562 603.707045 
L 198.625559 603.013464 
L 199.467556 603.391781 
L 200.309554 604.211468 
L 201.993549 602.6982 
L 203.677543 604.022309 
L 204.519541 603.391781 
L 205.361538 603.643993 
L 206.203535 604.211468 
L 207.045533 604.148415 
L 207.88753 603.896204 
L 208.729528 604.148415 
L 209.571525 603.896204 
L 211.25552 603.833151 
L 212.097517 604.841996 
L 212.939514 603.643993 
L 214.623509 605.031155 
L 215.465507 604.148415 
L 216.307504 604.778943 
L 217.149501 603.770098 
L 218.833496 604.148415 
L 219.675493 603.643993 
L 220.517491 604.400626 
L 221.359488 604.715891 
L 222.201486 604.652838 
L 223.043483 604.085362 
L 223.88548 603.833151 
L 224.727478 605.031155 
L 225.569475 603.707045 
L 226.411472 604.400626 
L 228.095467 604.589785 
L 228.937465 604.841996 
L 229.779462 604.337574 
L 230.621459 604.968102 
L 231.463457 604.526732 
L 232.305454 604.463679 
L 233.147451 605.220313 
L 233.989449 605.346419 
L 235.673444 604.463679 
L 236.515441 604.463679 
L 237.357438 604.652838 
L 238.199436 605.283366 
L 239.041433 605.094208 
L 240.725428 605.409472 
L 241.567425 604.652838 
L 243.25142 605.472525 
L 244.093417 605.15726 
L 244.935415 604.652838 
L 245.777412 605.283366 
L 247.461407 605.346419 
L 248.303404 605.220313 
L 249.145402 605.283366 
L 249.987399 604.841996 
L 250.829396 604.589785 
L 251.671394 604.778943 
L 252.513391 605.220313 
L 253.355388 605.031155 
L 254.197386 605.220313 
L 255.039383 605.283366 
L 255.881381 605.220313 
L 256.723378 604.968102 
L 257.565375 604.463679 
L 258.407373 605.031155 
L 259.24937 605.283366 
L 260.091367 605.094208 
L 260.933365 605.220313 
L 261.775362 604.526732 
L 262.61736 604.905049 
L 263.459357 604.652838 
L 264.301354 605.346419 
L 265.143352 604.526732 
L 265.985349 604.905049 
L 266.827346 604.968102 
L 267.669344 605.535577 
L 269.353339 604.968102 
L 270.195336 605.472525 
L 271.037333 605.59863 
L 271.879331 605.409472 
L 271.879331 605.409472 
" clip-path="url(#p4eee38786a)" style="fill: none; stroke: #0000ff; stroke-width: 1.5; stroke-linecap: square"/>
   </g>
   <g id="patch_13">
    <path d="M 57.17 606.04 
L 57.17 426.213333 
" style="fill: none; stroke: #000000; stroke-width: 0.8; stroke-linejoin: miter; stroke-linecap: square"/>
   </g>
   <g id="patch_14">
    <path d="M 272.721328 606.04 
L 272.721328 426.213333 
" style="fill: none; stroke: #000000; stroke-width: 0.8; stroke-linejoin: miter; stroke-linecap: square"/>
   </g>
   <g id="patch_15">
    <path d="M 57.17 606.04 
L 272.721328 606.04 
" style="fill: none; stroke: #000000; stroke-width: 0.8; stroke-linejoin: miter; stroke-linecap: square"/>
   </g>
   <g id="patch_16">
    <path d="M 57.17 426.213333 
L 272.721328 426.213333 
" style="fill: none; stroke: #000000; stroke-width: 0.8; stroke-linejoin: miter; stroke-linecap: square"/>
   </g>
   <g id="text_43">
    <!-- Blue Channel  -->
    <g transform="translate(189.272578 440.213333) scale(0.12 -0.12)">
     <defs>
      <path id="DejaVuSans-42" d="M 1259 2228 
L 1259 519 
L 2272 519 
Q 2781 519 3026 730 
Q 3272 941 3272 1375 
Q 3272 1813 3026 2020 
Q 2781 2228 2272 2228 
L 1259 2228 
z
M 1259 4147 
L 1259 2741 
L 2194 2741 
Q 2656 2741 2882 2914 
Q 3109 3088 3109 3444 
Q 3109 3797 2882 3972 
Q 2656 4147 2194 4147 
L 1259 4147 
z
M 628 4666 
L 2241 4666 
Q 2963 4666 3353 4366 
Q 3744 4066 3744 3513 
Q 3744 3084 3544 2831 
Q 3344 2578 2956 2516 
Q 3422 2416 3680 2098 
Q 3938 1781 3938 1306 
Q 3938 681 3513 340 
Q 3088 0 2303 0 
L 628 0 
L 628 4666 
z
" transform="scale(0.015625)"/>
     </defs>
     <use xlink:href="#DejaVuSans-42"/>
     <use xlink:href="#DejaVuSans-6c" x="68.603516"/>
     <use xlink:href="#DejaVuSans-75" x="96.386719"/>
     <use xlink:href="#DejaVuSans-65" x="159.765625"/>
     <use xlink:href="#DejaVuSans-20" x="221.289062"/>
     <use xlink:href="#DejaVuSans-43" x="253.076172"/>
     <use xlink:href="#DejaVuSans-68" x="322.900391"/>
     <use xlink:href="#DejaVuSans-61" x="386.279297"/>
     <use xlink:href="#DejaVuSans-6e" x="447.558594"/>
     <use xlink:href="#DejaVuSans-6e" x="510.9375"/>
     <use xlink:href="#DejaVuSans-65" x="574.316406"/>
     <use xlink:href="#DejaVuSans-6c" x="635.839844"/>
     <use xlink:href="#DejaVuSans-20" x="663.623047"/>
    </g>
   </g>
  </g>
 </g>
 <defs>
  <clipPath id="pd96289de6c">
   <rect x="57.17" y="10.8" width="215.551328" height="179.826667"/>
  </clipPath>
  <clipPath id="p1c70caff92">
   <rect x="57.17" y="218.506667" width="215.551328" height="179.826667"/>
  </clipPath>
  <clipPath id="p4eee38786a">
   <rect x="57.17" y="426.213333" width="215.551328" height="179.826667"/>
  </clipPath>
 </defs>
</svg>
