<?xml version="1.0" encoding="utf-8" standalone="no"?>
<!DOCTYPE svg PUBLIC "-//W3C//DTD SVG 1.1//EN"
  "http://www.w3.org/Graphics/SVG/1.1/DTD/svg11.dtd">
<svg xmlns:xlink="http://www.w3.org/1999/xlink" width="288pt" height="648pt" viewBox="0 0 288 648" xmlns="http://www.w3.org/2000/svg" version="1.1">
 <metadata>
  <rdf:RDF xmlns:dc="http://purl.org/dc/elements/1.1/" xmlns:cc="http://creativecommons.org/ns#" xmlns:rdf="http://www.w3.org/1999/02/22-rdf-syntax-ns#">
   <cc:Work>
    <dc:type rdf:resource="http://purl.org/dc/dcmitype/StillImage"/>
    <dc:date>2023-11-18T15:20:15.679358</dc:date>
    <dc:format>image/svg+xml</dc:format>
    <dc:creator>
     <cc:Agent>
      <dc:title>Matplotlib v3.8.0, https://matplotlib.org/</dc:title>
     </cc:Agent>
    </dc:creator>
   </cc:Work>
  </rdf:RDF>
 </metadata>
 <defs>
  <style type="text/css">*{stroke-linejoin: round; stroke-linecap: butt}</style>
 </defs>
 <g id="figure_1">
  <g id="patch_1">
   <path d="M 0 648 
L 288 648 
L 288 0 
L 0 0 
z
" style="fill: #ffffff"/>
  </g>
  <g id="axes_1">
   <g id="patch_2">
    <path d="M 57.17 190.626667 
L 272.721328 190.626667 
L 272.721328 11.137746 
L 57.17 11.137746 
z
" style="fill: #ffffff"/>
   </g>
   <g id="PolyCollection_1">
    <defs>
     <path id="m5f1a4d1902" d="M 57.17 -457.373333 
L 57.17 -457.373333 
L 58.011997 -457.373333 
L 58.853995 -457.373333 
L 59.695992 -457.373333 
L 60.53799 -457.373333 
L 61.379987 -457.373333 
L 62.221984 -457.373333 
L 63.063982 -457.373333 
L 63.905979 -457.373333 
L 64.747976 -457.373333 
L 65.589974 -457.373333 
L 66.431971 -457.373333 
L 67.273969 -457.373333 
L 68.115966 -457.373333 
L 68.957963 -457.373333 
L 69.799961 -457.373333 
L 70.641958 -457.373333 
L 71.483955 -457.373333 
L 72.325953 -457.373333 
L 73.16795 -457.373333 
L 74.009948 -457.373333 
L 74.851945 -457.373333 
L 75.693942 -457.373333 
L 76.53594 -457.373333 
L 77.377937 -457.373333 
L 78.219934 -457.373333 
L 79.061932 -457.373333 
L 79.903929 -457.373333 
L 80.745927 -457.373333 
L 81.587924 -457.431971 
L 82.429921 -457.373333 
L 83.271919 -457.725157 
L 84.113916 -457.842432 
L 84.955913 -457.901069 
L 85.797911 -458.194256 
L 86.639908 -458.956542 
L 87.481906 -460.363838 
L 88.323903 -464.468452 
L 89.1659 -467.16577 
L 90.007898 -469.921726 
L 90.849895 -470.977198 
L 91.691892 -478.01368 
L 92.53389 -486.516095 
L 93.375887 -506.100969 
L 94.217885 -519.704834 
L 95.059882 -537.706499 
L 95.901879 -547.674848 
L 96.743877 -547.088475 
L 97.585874 -545.329354 
L 98.427871 -544.449794 
L 99.269869 -550.606716 
L 100.111866 -549.492606 
L 100.953864 -550.137617 
L 101.795861 -551.720825 
L 102.637858 -551.662188 
L 103.479856 -553.128122 
L 104.321853 -563.272383 
L 105.16385 -565.266053 
L 106.005848 -569.194755 
L 106.847845 -564.621042 
L 107.689843 -559.402318 
L 108.53184 -556.939549 
L 109.373837 -553.362671 
L 110.215835 -547.147112 
L 111.057832 -545.857091 
L 111.899829 -544.156608 
L 112.741827 -534.481445 
L 113.583824 -531.021842 
L 114.425822 -520.818943 
L 115.267819 -513.254725 
L 116.109816 -509.150111 
L 116.951814 -503.579563 
L 117.793811 -499.709498 
L 118.635808 -496.484444 
L 119.477806 -490.092973 
L 120.319803 -487.278381 
L 121.161801 -484.522425 
L 122.003798 -483.056492 
L 122.845795 -482.880579 
L 123.687793 -476.840933 
L 124.52979 -475.609548 
L 125.371787 -472.853593 
L 126.213785 -472.091308 
L 127.055782 -468.983528 
L 127.89778 -467.752144 
L 128.739777 -466.227573 
L 129.581774 -464.116628 
L 130.423772 -462.943881 
L 131.265769 -461.712497 
L 132.107766 -461.360673 
L 132.949764 -461.65386 
L 133.791761 -460.53975 
L 134.633759 -459.718827 
L 135.475756 -460.422475 
L 136.317753 -459.836102 
L 137.159751 -459.484278 
L 138.001748 -458.487443 
L 138.843745 -458.370168 
L 139.685743 -458.487443 
L 140.52774 -458.311531 
L 141.369738 -458.370168 
L 142.211735 -457.959707 
L 143.053732 -458.311531 
L 143.89573 -457.66652 
L 144.737727 -458.018344 
L 145.579724 -457.66652 
L 146.421722 -457.959707 
L 147.263719 -457.959707 
L 148.105717 -457.549245 
L 148.947714 -457.607883 
L 149.789711 -457.373333 
L 150.631709 -457.66652 
L 151.473706 -457.373333 
L 152.315703 -457.373333 
L 153.157701 -457.431971 
L 153.999698 -457.490608 
L 154.841696 -457.431971 
L 155.683693 -457.490608 
L 156.52569 -457.431971 
L 157.367688 -457.490608 
L 158.209685 -457.431971 
L 159.051682 -457.373333 
L 159.89368 -457.431971 
L 160.735677 -457.431971 
L 161.577675 -457.549245 
L 162.419672 -457.373333 
L 163.261669 -457.373333 
L 164.103667 -457.431971 
L 164.945664 -457.373333 
L 165.787661 -457.431971 
L 166.629659 -457.373333 
L 167.471656 -457.431971 
L 168.313654 -457.373333 
L 169.155651 -457.373333 
L 169.997648 -457.373333 
L 170.839646 -457.373333 
L 171.681643 -457.373333 
L 172.52364 -457.373333 
L 173.365638 -457.373333 
L 174.207635 -457.373333 
L 175.049633 -457.373333 
L 175.89163 -457.373333 
L 176.733627 -457.373333 
L 177.575625 -457.373333 
L 178.417622 -457.373333 
L 179.259619 -457.373333 
L 180.101617 -457.373333 
L 180.943614 -457.373333 
L 181.785612 -457.373333 
L 182.627609 -457.373333 
L 183.469606 -457.373333 
L 184.311604 -457.373333 
L 185.153601 -457.373333 
L 185.995598 -457.373333 
L 186.837596 -457.373333 
L 187.679593 -457.373333 
L 188.521591 -457.373333 
L 189.363588 -457.373333 
L 190.205585 -457.373333 
L 191.047583 -457.373333 
L 191.88958 -457.373333 
L 192.731577 -457.373333 
L 193.573575 -457.373333 
L 194.415572 -457.373333 
L 195.25757 -457.373333 
L 196.099567 -457.373333 
L 196.941564 -457.373333 
L 197.783562 -457.373333 
L 198.625559 -457.373333 
L 199.467556 -457.373333 
L 200.309554 -457.373333 
L 201.151551 -457.373333 
L 201.993549 -457.373333 
L 202.835546 -457.373333 
L 203.677543 -457.373333 
L 204.519541 -457.373333 
L 205.361538 -457.373333 
L 206.203535 -457.373333 
L 207.045533 -457.373333 
L 207.88753 -457.373333 
L 208.729528 -457.373333 
L 209.571525 -457.373333 
L 210.413522 -457.373333 
L 211.25552 -457.373333 
L 212.097517 -457.373333 
L 212.939514 -457.373333 
L 213.781512 -457.373333 
L 214.623509 -457.373333 
L 215.465507 -457.373333 
L 216.307504 -457.373333 
L 217.149501 -457.373333 
L 217.991499 -457.373333 
L 218.833496 -457.373333 
L 219.675493 -457.373333 
L 220.517491 -457.373333 
L 221.359488 -457.373333 
L 222.201486 -457.373333 
L 223.043483 -457.373333 
L 223.88548 -457.373333 
L 224.727478 -457.373333 
L 225.569475 -457.373333 
L 226.411472 -457.373333 
L 227.25347 -457.373333 
L 228.095467 -457.373333 
L 228.937465 -457.373333 
L 229.779462 -457.373333 
L 230.621459 -457.373333 
L 231.463457 -457.373333 
L 232.305454 -457.373333 
L 233.147451 -457.373333 
L 233.989449 -457.373333 
L 234.831446 -457.373333 
L 235.673444 -457.373333 
L 236.515441 -457.373333 
L 237.357438 -457.373333 
L 238.199436 -457.373333 
L 239.041433 -457.373333 
L 239.88343 -457.373333 
L 240.725428 -457.373333 
L 241.567425 -457.373333 
L 242.409423 -457.373333 
L 243.25142 -457.373333 
L 244.093417 -457.373333 
L 244.935415 -457.373333 
L 245.777412 -457.373333 
L 246.619409 -457.373333 
L 247.461407 -457.373333 
L 248.303404 -457.373333 
L 249.145402 -457.373333 
L 249.987399 -457.373333 
L 250.829396 -457.373333 
L 251.671394 -457.373333 
L 252.513391 -457.373333 
L 253.355388 -457.373333 
L 254.197386 -457.373333 
L 255.039383 -457.373333 
L 255.881381 -457.373333 
L 256.723378 -457.373333 
L 257.565375 -457.373333 
L 258.407373 -457.373333 
L 259.24937 -457.373333 
L 260.091367 -457.373333 
L 260.933365 -457.373333 
L 261.775362 -457.373333 
L 262.61736 -457.373333 
L 263.459357 -457.373333 
L 264.301354 -457.373333 
L 265.143352 -457.373333 
L 265.985349 -457.373333 
L 266.827346 -457.373333 
L 267.669344 -457.373333 
L 268.511341 -457.373333 
L 269.353339 -457.373333 
L 270.195336 -457.373333 
L 271.037333 -457.373333 
L 271.879331 -457.373333 
L 271.879331 -457.373333 
L 271.879331 -457.373333 
L 271.037333 -457.373333 
L 270.195336 -457.373333 
L 269.353339 -457.373333 
L 268.511341 -457.373333 
L 267.669344 -457.373333 
L 266.827346 -457.373333 
L 265.985349 -457.373333 
L 265.143352 -457.373333 
L 264.301354 -457.373333 
L 263.459357 -457.373333 
L 262.61736 -457.373333 
L 261.775362 -457.373333 
L 260.933365 -457.373333 
L 260.091367 -457.373333 
L 259.24937 -457.373333 
L 258.407373 -457.373333 
L 257.565375 -457.373333 
L 256.723378 -457.373333 
L 255.881381 -457.373333 
L 255.039383 -457.373333 
L 254.197386 -457.373333 
L 253.355388 -457.373333 
L 252.513391 -457.373333 
L 251.671394 -457.373333 
L 250.829396 -457.373333 
L 249.987399 -457.373333 
L 249.145402 -457.373333 
L 248.303404 -457.373333 
L 247.461407 -457.373333 
L 246.619409 -457.373333 
L 245.777412 -457.373333 
L 244.935415 -457.373333 
L 244.093417 -457.373333 
L 243.25142 -457.373333 
L 242.409423 -457.373333 
L 241.567425 -457.373333 
L 240.725428 -457.373333 
L 239.88343 -457.373333 
L 239.041433 -457.373333 
L 238.199436 -457.373333 
L 237.357438 -457.373333 
L 236.515441 -457.373333 
L 235.673444 -457.373333 
L 234.831446 -457.373333 
L 233.989449 -457.373333 
L 233.147451 -457.373333 
L 232.305454 -457.373333 
L 231.463457 -457.373333 
L 230.621459 -457.373333 
L 229.779462 -457.373333 
L 228.937465 -457.373333 
L 228.095467 -457.373333 
L 227.25347 -457.373333 
L 226.411472 -457.373333 
L 225.569475 -457.373333 
L 224.727478 -457.373333 
L 223.88548 -457.373333 
L 223.043483 -457.373333 
L 222.201486 -457.373333 
L 221.359488 -457.373333 
L 220.517491 -457.373333 
L 219.675493 -457.373333 
L 218.833496 -457.373333 
L 217.991499 -457.373333 
L 217.149501 -457.373333 
L 216.307504 -457.373333 
L 215.465507 -457.373333 
L 214.623509 -457.373333 
L 213.781512 -457.373333 
L 212.939514 -457.373333 
L 212.097517 -457.373333 
L 211.25552 -457.373333 
L 210.413522 -457.373333 
L 209.571525 -457.373333 
L 208.729528 -457.373333 
L 207.88753 -457.373333 
L 207.045533 -457.373333 
L 206.203535 -457.373333 
L 205.361538 -457.373333 
L 204.519541 -457.373333 
L 203.677543 -457.373333 
L 202.835546 -457.373333 
L 201.993549 -457.373333 
L 201.151551 -457.373333 
L 200.309554 -457.373333 
L 199.467556 -457.373333 
L 198.625559 -457.373333 
L 197.783562 -457.373333 
L 196.941564 -457.373333 
L 196.099567 -457.373333 
L 195.25757 -457.373333 
L 194.415572 -457.373333 
L 193.573575 -457.373333 
L 192.731577 -457.373333 
L 191.88958 -457.373333 
L 191.047583 -457.373333 
L 190.205585 -457.373333 
L 189.363588 -457.373333 
L 188.521591 -457.373333 
L 187.679593 -457.373333 
L 186.837596 -457.373333 
L 185.995598 -457.373333 
L 185.153601 -457.373333 
L 184.311604 -457.373333 
L 183.469606 -457.373333 
L 182.627609 -457.373333 
L 181.785612 -457.373333 
L 180.943614 -457.373333 
L 180.101617 -457.373333 
L 179.259619 -457.373333 
L 178.417622 -457.373333 
L 177.575625 -457.373333 
L 176.733627 -457.373333 
L 175.89163 -457.373333 
L 175.049633 -457.373333 
L 174.207635 -457.373333 
L 173.365638 -457.373333 
L 172.52364 -457.373333 
L 171.681643 -457.373333 
L 170.839646 -457.373333 
L 169.997648 -457.373333 
L 169.155651 -457.373333 
L 168.313654 -457.373333 
L 167.471656 -457.373333 
L 166.629659 -457.373333 
L 165.787661 -457.373333 
L 164.945664 -457.373333 
L 164.103667 -457.373333 
L 163.261669 -457.373333 
L 162.419672 -457.373333 
L 161.577675 -457.373333 
L 160.735677 -457.373333 
L 159.89368 -457.373333 
L 159.051682 -457.373333 
L 158.209685 -457.373333 
L 157.367688 -457.373333 
L 156.52569 -457.373333 
L 155.683693 -457.373333 
L 154.841696 -457.373333 
L 153.999698 -457.373333 
L 153.157701 -457.373333 
L 152.315703 -457.373333 
L 151.473706 -457.373333 
L 150.631709 -457.373333 
L 149.789711 -457.373333 
L 148.947714 -457.373333 
L 148.105717 -457.373333 
L 147.263719 -457.373333 
L 146.421722 -457.373333 
L 145.579724 -457.373333 
L 144.737727 -457.373333 
L 143.89573 -457.373333 
L 143.053732 -457.373333 
L 142.211735 -457.373333 
L 141.369738 -457.373333 
L 140.52774 -457.373333 
L 139.685743 -457.373333 
L 138.843745 -457.373333 
L 138.001748 -457.373333 
L 137.159751 -457.373333 
L 136.317753 -457.373333 
L 135.475756 -457.373333 
L 134.633759 -457.373333 
L 133.791761 -457.373333 
L 132.949764 -457.373333 
L 132.107766 -457.373333 
L 131.265769 -457.373333 
L 130.423772 -457.373333 
L 129.581774 -457.373333 
L 128.739777 -457.373333 
L 127.89778 -457.373333 
L 127.055782 -457.373333 
L 126.213785 -457.373333 
L 125.371787 -457.373333 
L 124.52979 -457.373333 
L 123.687793 -457.373333 
L 122.845795 -457.373333 
L 122.003798 -457.373333 
L 121.161801 -457.373333 
L 120.319803 -457.373333 
L 119.477806 -457.373333 
L 118.635808 -457.373333 
L 117.793811 -457.373333 
L 116.951814 -457.373333 
L 116.109816 -457.373333 
L 115.267819 -457.373333 
L 114.425822 -457.373333 
L 113.583824 -457.373333 
L 112.741827 -457.373333 
L 111.899829 -457.373333 
L 111.057832 -457.373333 
L 110.215835 -457.373333 
L 109.373837 -457.373333 
L 108.53184 -457.373333 
L 107.689843 -457.373333 
L 106.847845 -457.373333 
L 106.005848 -457.373333 
L 105.16385 -457.373333 
L 104.321853 -457.373333 
L 103.479856 -457.373333 
L 102.637858 -457.373333 
L 101.795861 -457.373333 
L 100.953864 -457.373333 
L 100.111866 -457.373333 
L 99.269869 -457.373333 
L 98.427871 -457.373333 
L 97.585874 -457.373333 
L 96.743877 -457.373333 
L 95.901879 -457.373333 
L 95.059882 -457.373333 
L 94.217885 -457.373333 
L 93.375887 -457.373333 
L 92.53389 -457.373333 
L 91.691892 -457.373333 
L 90.849895 -457.373333 
L 90.007898 -457.373333 
L 89.1659 -457.373333 
L 88.323903 -457.373333 
L 87.481906 -457.373333 
L 86.639908 -457.373333 
L 85.797911 -457.373333 
L 84.955913 -457.373333 
L 84.113916 -457.373333 
L 83.271919 -457.373333 
L 82.429921 -457.373333 
L 81.587924 -457.373333 
L 80.745927 -457.373333 
L 79.903929 -457.373333 
L 79.061932 -457.373333 
L 78.219934 -457.373333 
L 77.377937 -457.373333 
L 76.53594 -457.373333 
L 75.693942 -457.373333 
L 74.851945 -457.373333 
L 74.009948 -457.373333 
L 73.16795 -457.373333 
L 72.325953 -457.373333 
L 71.483955 -457.373333 
L 70.641958 -457.373333 
L 69.799961 -457.373333 
L 68.957963 -457.373333 
L 68.115966 -457.373333 
L 67.273969 -457.373333 
L 66.431971 -457.373333 
L 65.589974 -457.373333 
L 64.747976 -457.373333 
L 63.905979 -457.373333 
L 63.063982 -457.373333 
L 62.221984 -457.373333 
L 61.379987 -457.373333 
L 60.53799 -457.373333 
L 59.695992 -457.373333 
L 58.853995 -457.373333 
L 58.011997 -457.373333 
L 57.17 -457.373333 
z
" style="stroke: #ff0000; stroke-opacity: 0.4"/>
    </defs>
    <g clip-path="url(#p15f03abd87)">
     <use xlink:href="#m5f1a4d1902" x="0" y="648" style="fill: #ff0000; fill-opacity: 0.4; stroke: #ff0000; stroke-opacity: 0.4"/>
    </g>
   </g>
   <g id="matplotlib.axis_1">
    <g id="xtick_1">
     <g id="line2d_1">
      <defs>
       <path id="m5e0c445434" d="M 0 0 
L 0 3.5 
" style="stroke: #000000; stroke-width: 0.8"/>
      </defs>
      <g>
       <use xlink:href="#m5e0c445434" x="57.17" y="190.626667" style="stroke: #000000; stroke-width: 0.8"/>
      </g>
     </g>
     <g id="text_1">
      <!-- 0 -->
      <g transform="translate(53.98875 205.225104) scale(0.1 -0.1)">
       <defs>
        <path id="DejaVuSans-30" d="M 2034 4250 
Q 1547 4250 1301 3770 
Q 1056 3291 1056 2328 
Q 1056 1369 1301 889 
Q 1547 409 2034 409 
Q 2525 409 2770 889 
Q 3016 1369 3016 2328 
Q 3016 3291 2770 3770 
Q 2525 4250 2034 4250 
z
M 2034 4750 
Q 2819 4750 3233 4129 
Q 3647 3509 3647 2328 
Q 3647 1150 3233 529 
Q 2819 -91 2034 -91 
Q 1250 -91 836 529 
Q 422 1150 422 2328 
Q 422 3509 836 4129 
Q 1250 4750 2034 4750 
z
" transform="scale(0.015625)"/>
       </defs>
       <use xlink:href="#DejaVuSans-30"/>
      </g>
     </g>
    </g>
    <g id="xtick_2">
     <g id="line2d_2">
      <g>
       <use xlink:href="#m5e0c445434" x="99.269869" y="190.626667" style="stroke: #000000; stroke-width: 0.8"/>
      </g>
     </g>
     <g id="text_2">
      <!-- 50 -->
      <g transform="translate(92.907369 205.225104) scale(0.1 -0.1)">
       <defs>
        <path id="DejaVuSans-35" d="M 691 4666 
L 3169 4666 
L 3169 4134 
L 1269 4134 
L 1269 2991 
Q 1406 3038 1543 3061 
Q 1681 3084 1819 3084 
Q 2600 3084 3056 2656 
Q 3513 2228 3513 1497 
Q 3513 744 3044 326 
Q 2575 -91 1722 -91 
Q 1428 -91 1123 -41 
Q 819 9 494 109 
L 494 744 
Q 775 591 1075 516 
Q 1375 441 1709 441 
Q 2250 441 2565 725 
Q 2881 1009 2881 1497 
Q 2881 1984 2565 2268 
Q 2250 2553 1709 2553 
Q 1456 2553 1204 2497 
Q 953 2441 691 2322 
L 691 4666 
z
" transform="scale(0.015625)"/>
       </defs>
       <use xlink:href="#DejaVuSans-35"/>
       <use xlink:href="#DejaVuSans-30" x="63.623047"/>
      </g>
     </g>
    </g>
    <g id="xtick_3">
     <g id="line2d_3">
      <g>
       <use xlink:href="#m5e0c445434" x="141.369738" y="190.626667" style="stroke: #000000; stroke-width: 0.8"/>
      </g>
     </g>
     <g id="text_3">
      <!-- 100 -->
      <g transform="translate(131.825988 205.225104) scale(0.1 -0.1)">
       <defs>
        <path id="DejaVuSans-31" d="M 794 531 
L 1825 531 
L 1825 4091 
L 703 3866 
L 703 4441 
L 1819 4666 
L 2450 4666 
L 2450 531 
L 3481 531 
L 3481 0 
L 794 0 
L 794 531 
z
" transform="scale(0.015625)"/>
       </defs>
       <use xlink:href="#DejaVuSans-31"/>
       <use xlink:href="#DejaVuSans-30" x="63.623047"/>
       <use xlink:href="#DejaVuSans-30" x="127.246094"/>
      </g>
     </g>
    </g>
    <g id="xtick_4">
     <g id="line2d_4">
      <g>
       <use xlink:href="#m5e0c445434" x="183.469606" y="190.626667" style="stroke: #000000; stroke-width: 0.8"/>
      </g>
     </g>
     <g id="text_4">
      <!-- 150 -->
      <g transform="translate(173.925856 205.225104) scale(0.1 -0.1)">
       <use xlink:href="#DejaVuSans-31"/>
       <use xlink:href="#DejaVuSans-35" x="63.623047"/>
       <use xlink:href="#DejaVuSans-30" x="127.246094"/>
      </g>
     </g>
    </g>
    <g id="xtick_5">
     <g id="line2d_5">
      <g>
       <use xlink:href="#m5e0c445434" x="225.569475" y="190.626667" style="stroke: #000000; stroke-width: 0.8"/>
      </g>
     </g>
     <g id="text_5">
      <!-- 200 -->
      <g transform="translate(216.025725 205.225104) scale(0.1 -0.1)">
       <defs>
        <path id="DejaVuSans-32" d="M 1228 531 
L 3431 531 
L 3431 0 
L 469 0 
L 469 531 
Q 828 903 1448 1529 
Q 2069 2156 2228 2338 
Q 2531 2678 2651 2914 
Q 2772 3150 2772 3378 
Q 2772 3750 2511 3984 
Q 2250 4219 1831 4219 
Q 1534 4219 1204 4116 
Q 875 4013 500 3803 
L 500 4441 
Q 881 4594 1212 4672 
Q 1544 4750 1819 4750 
Q 2544 4750 2975 4387 
Q 3406 4025 3406 3419 
Q 3406 3131 3298 2873 
Q 3191 2616 2906 2266 
Q 2828 2175 2409 1742 
Q 1991 1309 1228 531 
z
" transform="scale(0.015625)"/>
       </defs>
       <use xlink:href="#DejaVuSans-32"/>
       <use xlink:href="#DejaVuSans-30" x="63.623047"/>
       <use xlink:href="#DejaVuSans-30" x="127.246094"/>
      </g>
     </g>
    </g>
    <g id="xtick_6">
     <g id="line2d_6">
      <g>
       <use xlink:href="#m5e0c445434" x="267.669344" y="190.626667" style="stroke: #000000; stroke-width: 0.8"/>
      </g>
     </g>
     <g id="text_6">
      <!-- 250 -->
      <g transform="translate(258.125594 205.225104) scale(0.1 -0.1)">
       <use xlink:href="#DejaVuSans-32"/>
       <use xlink:href="#DejaVuSans-35" x="63.623047"/>
       <use xlink:href="#DejaVuSans-30" x="127.246094"/>
      </g>
     </g>
    </g>
   </g>
   <g id="matplotlib.axis_2">
    <g id="ytick_1">
     <g id="line2d_7">
      <defs>
       <path id="mcdb7018fbf" d="M 0 0 
L -3.5 0 
" style="stroke: #000000; stroke-width: 0.8"/>
      </defs>
      <g>
       <use xlink:href="#mcdb7018fbf" x="57.17" y="190.626667" style="stroke: #000000; stroke-width: 0.8"/>
      </g>
     </g>
     <g id="text_7">
      <!-- 0 -->
      <g transform="translate(43.8075 194.425885) scale(0.1 -0.1)">
       <use xlink:href="#DejaVuSans-30"/>
      </g>
     </g>
    </g>
    <g id="ytick_2">
     <g id="line2d_8">
      <g>
       <use xlink:href="#mcdb7018fbf" x="57.17" y="161.307993" style="stroke: #000000; stroke-width: 0.8"/>
      </g>
     </g>
     <g id="text_8">
      <!-- 500 -->
      <g transform="translate(31.0825 165.107212) scale(0.1 -0.1)">
       <use xlink:href="#DejaVuSans-35"/>
       <use xlink:href="#DejaVuSans-30" x="63.623047"/>
       <use xlink:href="#DejaVuSans-30" x="127.246094"/>
      </g>
     </g>
    </g>
    <g id="ytick_3">
     <g id="line2d_9">
      <g>
       <use xlink:href="#mcdb7018fbf" x="57.17" y="131.989319" style="stroke: #000000; stroke-width: 0.8"/>
      </g>
     </g>
     <g id="text_9">
      <!-- 1000 -->
      <g transform="translate(24.72 135.788538) scale(0.1 -0.1)">
       <use xlink:href="#DejaVuSans-31"/>
       <use xlink:href="#DejaVuSans-30" x="63.623047"/>
       <use xlink:href="#DejaVuSans-30" x="127.246094"/>
       <use xlink:href="#DejaVuSans-30" x="190.869141"/>
      </g>
     </g>
    </g>
    <g id="ytick_4">
     <g id="line2d_10">
      <g>
       <use xlink:href="#mcdb7018fbf" x="57.17" y="102.670646" style="stroke: #000000; stroke-width: 0.8"/>
      </g>
     </g>
     <g id="text_10">
      <!-- 1500 -->
      <g transform="translate(24.72 106.469864) scale(0.1 -0.1)">
       <use xlink:href="#DejaVuSans-31"/>
       <use xlink:href="#DejaVuSans-35" x="63.623047"/>
       <use xlink:href="#DejaVuSans-30" x="127.246094"/>
       <use xlink:href="#DejaVuSans-30" x="190.869141"/>
      </g>
     </g>
    </g>
    <g id="ytick_5">
     <g id="line2d_11">
      <g>
       <use xlink:href="#mcdb7018fbf" x="57.17" y="73.351972" style="stroke: #000000; stroke-width: 0.8"/>
      </g>
     </g>
     <g id="text_11">
      <!-- 2000 -->
      <g transform="translate(24.72 77.151191) scale(0.1 -0.1)">
       <use xlink:href="#DejaVuSans-32"/>
       <use xlink:href="#DejaVuSans-30" x="63.623047"/>
       <use xlink:href="#DejaVuSans-30" x="127.246094"/>
       <use xlink:href="#DejaVuSans-30" x="190.869141"/>
      </g>
     </g>
    </g>
    <g id="ytick_6">
     <g id="line2d_12">
      <g>
       <use xlink:href="#mcdb7018fbf" x="57.17" y="44.033298" style="stroke: #000000; stroke-width: 0.8"/>
      </g>
     </g>
     <g id="text_12">
      <!-- 2500 -->
      <g transform="translate(24.72 47.832517) scale(0.1 -0.1)">
       <use xlink:href="#DejaVuSans-32"/>
       <use xlink:href="#DejaVuSans-35" x="63.623047"/>
       <use xlink:href="#DejaVuSans-30" x="127.246094"/>
       <use xlink:href="#DejaVuSans-30" x="190.869141"/>
      </g>
     </g>
    </g>
    <g id="ytick_7">
     <g id="line2d_13">
      <g>
       <use xlink:href="#mcdb7018fbf" x="57.17" y="14.714624" style="stroke: #000000; stroke-width: 0.8"/>
      </g>
     </g>
     <g id="text_13">
      <!-- 3000 -->
      <g transform="translate(24.72 18.513843) scale(0.1 -0.1)">
       <defs>
        <path id="DejaVuSans-33" d="M 2597 2516 
Q 3050 2419 3304 2112 
Q 3559 1806 3559 1356 
Q 3559 666 3084 287 
Q 2609 -91 1734 -91 
Q 1441 -91 1130 -33 
Q 819 25 488 141 
L 488 750 
Q 750 597 1062 519 
Q 1375 441 1716 441 
Q 2309 441 2620 675 
Q 2931 909 2931 1356 
Q 2931 1769 2642 2001 
Q 2353 2234 1838 2234 
L 1294 2234 
L 1294 2753 
L 1863 2753 
Q 2328 2753 2575 2939 
Q 2822 3125 2822 3475 
Q 2822 3834 2567 4026 
Q 2313 4219 1838 4219 
Q 1578 4219 1281 4162 
Q 984 4106 628 3988 
L 628 4550 
Q 988 4650 1302 4700 
Q 1616 4750 1894 4750 
Q 2613 4750 3031 4423 
Q 3450 4097 3450 3541 
Q 3450 3153 3228 2886 
Q 3006 2619 2597 2516 
z
" transform="scale(0.015625)"/>
       </defs>
       <use xlink:href="#DejaVuSans-33"/>
       <use xlink:href="#DejaVuSans-30" x="63.623047"/>
       <use xlink:href="#DejaVuSans-30" x="127.246094"/>
       <use xlink:href="#DejaVuSans-30" x="190.869141"/>
      </g>
     </g>
    </g>
    <g id="text_14">
     <!-- Pixel Frequency -->
     <g transform="translate(18.640313 139.861113) rotate(-90) scale(0.1 -0.1)">
      <defs>
       <path id="DejaVuSans-50" d="M 1259 4147 
L 1259 2394 
L 2053 2394 
Q 2494 2394 2734 2622 
Q 2975 2850 2975 3272 
Q 2975 3691 2734 3919 
Q 2494 4147 2053 4147 
L 1259 4147 
z
M 628 4666 
L 2053 4666 
Q 2838 4666 3239 4311 
Q 3641 3956 3641 3272 
Q 3641 2581 3239 2228 
Q 2838 1875 2053 1875 
L 1259 1875 
L 1259 0 
L 628 0 
L 628 4666 
z
" transform="scale(0.015625)"/>
       <path id="DejaVuSans-69" d="M 603 3500 
L 1178 3500 
L 1178 0 
L 603 0 
L 603 3500 
z
M 603 4863 
L 1178 4863 
L 1178 4134 
L 603 4134 
L 603 4863 
z
" transform="scale(0.015625)"/>
       <path id="DejaVuSans-78" d="M 3513 3500 
L 2247 1797 
L 3578 0 
L 2900 0 
L 1881 1375 
L 863 0 
L 184 0 
L 1544 1831 
L 300 3500 
L 978 3500 
L 1906 2253 
L 2834 3500 
L 3513 3500 
z
" transform="scale(0.015625)"/>
       <path id="DejaVuSans-65" d="M 3597 1894 
L 3597 1613 
L 953 1613 
Q 991 1019 1311 708 
Q 1631 397 2203 397 
Q 2534 397 2845 478 
Q 3156 559 3463 722 
L 3463 178 
Q 3153 47 2828 -22 
Q 2503 -91 2169 -91 
Q 1331 -91 842 396 
Q 353 884 353 1716 
Q 353 2575 817 3079 
Q 1281 3584 2069 3584 
Q 2775 3584 3186 3129 
Q 3597 2675 3597 1894 
z
M 3022 2063 
Q 3016 2534 2758 2815 
Q 2500 3097 2075 3097 
Q 1594 3097 1305 2825 
Q 1016 2553 972 2059 
L 3022 2063 
z
" transform="scale(0.015625)"/>
       <path id="DejaVuSans-6c" d="M 603 4863 
L 1178 4863 
L 1178 0 
L 603 0 
L 603 4863 
z
" transform="scale(0.015625)"/>
       <path id="DejaVuSans-20" transform="scale(0.015625)"/>
       <path id="DejaVuSans-46" d="M 628 4666 
L 3309 4666 
L 3309 4134 
L 1259 4134 
L 1259 2759 
L 3109 2759 
L 3109 2228 
L 1259 2228 
L 1259 0 
L 628 0 
L 628 4666 
z
" transform="scale(0.015625)"/>
       <path id="DejaVuSans-72" d="M 2631 2963 
Q 2534 3019 2420 3045 
Q 2306 3072 2169 3072 
Q 1681 3072 1420 2755 
Q 1159 2438 1159 1844 
L 1159 0 
L 581 0 
L 581 3500 
L 1159 3500 
L 1159 2956 
Q 1341 3275 1631 3429 
Q 1922 3584 2338 3584 
Q 2397 3584 2469 3576 
Q 2541 3569 2628 3553 
L 2631 2963 
z
" transform="scale(0.015625)"/>
       <path id="DejaVuSans-71" d="M 947 1747 
Q 947 1113 1208 752 
Q 1469 391 1925 391 
Q 2381 391 2643 752 
Q 2906 1113 2906 1747 
Q 2906 2381 2643 2742 
Q 2381 3103 1925 3103 
Q 1469 3103 1208 2742 
Q 947 2381 947 1747 
z
M 2906 525 
Q 2725 213 2448 61 
Q 2172 -91 1784 -91 
Q 1150 -91 751 415 
Q 353 922 353 1747 
Q 353 2572 751 3078 
Q 1150 3584 1784 3584 
Q 2172 3584 2448 3432 
Q 2725 3281 2906 2969 
L 2906 3500 
L 3481 3500 
L 3481 -1331 
L 2906 -1331 
L 2906 525 
z
" transform="scale(0.015625)"/>
       <path id="DejaVuSans-75" d="M 544 1381 
L 544 3500 
L 1119 3500 
L 1119 1403 
Q 1119 906 1312 657 
Q 1506 409 1894 409 
Q 2359 409 2629 706 
Q 2900 1003 2900 1516 
L 2900 3500 
L 3475 3500 
L 3475 0 
L 2900 0 
L 2900 538 
Q 2691 219 2414 64 
Q 2138 -91 1772 -91 
Q 1169 -91 856 284 
Q 544 659 544 1381 
z
M 1991 3584 
L 1991 3584 
z
" transform="scale(0.015625)"/>
       <path id="DejaVuSans-6e" d="M 3513 2113 
L 3513 0 
L 2938 0 
L 2938 2094 
Q 2938 2591 2744 2837 
Q 2550 3084 2163 3084 
Q 1697 3084 1428 2787 
Q 1159 2491 1159 1978 
L 1159 0 
L 581 0 
L 581 3500 
L 1159 3500 
L 1159 2956 
Q 1366 3272 1645 3428 
Q 1925 3584 2291 3584 
Q 2894 3584 3203 3211 
Q 3513 2838 3513 2113 
z
" transform="scale(0.015625)"/>
       <path id="DejaVuSans-63" d="M 3122 3366 
L 3122 2828 
Q 2878 2963 2633 3030 
Q 2388 3097 2138 3097 
Q 1578 3097 1268 2742 
Q 959 2388 959 1747 
Q 959 1106 1268 751 
Q 1578 397 2138 397 
Q 2388 397 2633 464 
Q 2878 531 3122 666 
L 3122 134 
Q 2881 22 2623 -34 
Q 2366 -91 2075 -91 
Q 1284 -91 818 406 
Q 353 903 353 1747 
Q 353 2603 823 3093 
Q 1294 3584 2113 3584 
Q 2378 3584 2631 3529 
Q 2884 3475 3122 3366 
z
" transform="scale(0.015625)"/>
       <path id="DejaVuSans-79" d="M 2059 -325 
Q 1816 -950 1584 -1140 
Q 1353 -1331 966 -1331 
L 506 -1331 
L 506 -850 
L 844 -850 
Q 1081 -850 1212 -737 
Q 1344 -625 1503 -206 
L 1606 56 
L 191 3500 
L 800 3500 
L 1894 763 
L 2988 3500 
L 3597 3500 
L 2059 -325 
z
" transform="scale(0.015625)"/>
      </defs>
      <use xlink:href="#DejaVuSans-50"/>
      <use xlink:href="#DejaVuSans-69" x="58.052734"/>
      <use xlink:href="#DejaVuSans-78" x="85.835938"/>
      <use xlink:href="#DejaVuSans-65" x="141.890625"/>
      <use xlink:href="#DejaVuSans-6c" x="203.414062"/>
      <use xlink:href="#DejaVuSans-20" x="231.197266"/>
      <use xlink:href="#DejaVuSans-46" x="262.984375"/>
      <use xlink:href="#DejaVuSans-72" x="313.253906"/>
      <use xlink:href="#DejaVuSans-65" x="352.117188"/>
      <use xlink:href="#DejaVuSans-71" x="413.640625"/>
      <use xlink:href="#DejaVuSans-75" x="477.117188"/>
      <use xlink:href="#DejaVuSans-65" x="540.496094"/>
      <use xlink:href="#DejaVuSans-6e" x="602.019531"/>
      <use xlink:href="#DejaVuSans-63" x="665.398438"/>
      <use xlink:href="#DejaVuSans-79" x="720.378906"/>
     </g>
    </g>
   </g>
   <g id="line2d_14">
    <path d="M 57.17 190.626667 
L 82.429921 190.626667 
L 83.271919 190.274843 
L 84.955913 190.098931 
L 85.797911 189.805744 
L 86.639908 189.043458 
L 87.481906 187.636162 
L 88.323903 183.531548 
L 90.007898 178.078274 
L 90.849895 177.022802 
L 91.691892 169.98632 
L 92.53389 161.483905 
L 93.375887 141.899031 
L 94.217885 128.295166 
L 95.059882 110.293501 
L 95.901879 100.325152 
L 96.743877 100.911525 
L 97.585874 102.670646 
L 98.427871 103.550206 
L 99.269869 97.393284 
L 100.111866 98.507394 
L 100.953864 97.862383 
L 101.795861 96.279175 
L 102.637858 96.337812 
L 103.479856 94.871878 
L 104.321853 84.727617 
L 105.16385 82.733947 
L 106.005848 78.805245 
L 106.847845 83.378958 
L 107.689843 88.597682 
L 108.53184 91.060451 
L 109.373837 94.637329 
L 110.215835 100.852888 
L 111.057832 102.142909 
L 111.899829 103.843392 
L 112.741827 113.518555 
L 113.583824 116.978158 
L 114.425822 127.181057 
L 115.267819 134.745275 
L 116.109816 138.849889 
L 116.951814 144.420437 
L 117.793811 148.290502 
L 118.635808 151.515556 
L 119.477806 157.907027 
L 121.161801 163.477575 
L 122.003798 164.943508 
L 122.845795 165.119421 
L 123.687793 171.159067 
L 124.52979 172.390452 
L 125.371787 175.146407 
L 126.213785 175.908692 
L 127.055782 179.016472 
L 127.89778 180.247856 
L 128.739777 181.772427 
L 129.581774 183.883372 
L 131.265769 186.287503 
L 132.107766 186.639327 
L 132.949764 186.34614 
L 133.791761 187.46025 
L 134.633759 188.281173 
L 135.475756 187.577525 
L 136.317753 188.163898 
L 137.159751 188.515722 
L 138.001748 189.512557 
L 138.843745 189.629832 
L 139.685743 189.512557 
L 140.52774 189.688469 
L 141.369738 189.629832 
L 142.211735 190.040293 
L 143.053732 189.688469 
L 143.89573 190.33348 
L 144.737727 189.981656 
L 145.579724 190.33348 
L 146.421722 190.040293 
L 147.263719 190.040293 
L 148.105717 190.450755 
L 148.947714 190.392117 
L 149.789711 190.626667 
L 150.631709 190.33348 
L 151.473706 190.626667 
L 153.157701 190.568029 
L 153.999698 190.509392 
L 154.841696 190.568029 
L 155.683693 190.509392 
L 156.52569 190.568029 
L 157.367688 190.509392 
L 159.051682 190.626667 
L 161.577675 190.450755 
L 162.419672 190.626667 
L 271.879331 190.626667 
L 271.879331 190.626667 
" clip-path="url(#p15f03abd87)" style="fill: none; stroke: #ff0000; stroke-width: 1.5; stroke-linecap: square"/>
   </g>
   <g id="patch_3">
    <path d="M 57.17 190.626667 
L 57.17 11.137746 
" style="fill: none; stroke: #000000; stroke-width: 0.8; stroke-linejoin: miter; stroke-linecap: square"/>
   </g>
   <g id="patch_4">
    <path d="M 272.721328 190.626667 
L 272.721328 11.137746 
" style="fill: none; stroke: #000000; stroke-width: 0.8; stroke-linejoin: miter; stroke-linecap: square"/>
   </g>
   <g id="patch_5">
    <path d="M 57.17 190.626667 
L 272.721328 190.626667 
" style="fill: none; stroke: #000000; stroke-width: 0.8; stroke-linejoin: miter; stroke-linecap: square"/>
   </g>
   <g id="patch_6">
    <path d="M 57.17 11.137746 
L 272.721328 11.137746 
" style="fill: none; stroke: #000000; stroke-width: 0.8; stroke-linejoin: miter; stroke-linecap: square"/>
   </g>
   <g id="text_15">
    <!-- Red Channel  -->
    <g transform="translate(193.028203 25.137746) scale(0.12 -0.12)">
     <defs>
      <path id="DejaVuSans-52" d="M 2841 2188 
Q 3044 2119 3236 1894 
Q 3428 1669 3622 1275 
L 4263 0 
L 3584 0 
L 2988 1197 
Q 2756 1666 2539 1819 
Q 2322 1972 1947 1972 
L 1259 1972 
L 1259 0 
L 628 0 
L 628 4666 
L 2053 4666 
Q 2853 4666 3247 4331 
Q 3641 3997 3641 3322 
Q 3641 2881 3436 2590 
Q 3231 2300 2841 2188 
z
M 1259 4147 
L 1259 2491 
L 2053 2491 
Q 2509 2491 2742 2702 
Q 2975 2913 2975 3322 
Q 2975 3731 2742 3939 
Q 2509 4147 2053 4147 
L 1259 4147 
z
" transform="scale(0.015625)"/>
      <path id="DejaVuSans-64" d="M 2906 2969 
L 2906 4863 
L 3481 4863 
L 3481 0 
L 2906 0 
L 2906 525 
Q 2725 213 2448 61 
Q 2172 -91 1784 -91 
Q 1150 -91 751 415 
Q 353 922 353 1747 
Q 353 2572 751 3078 
Q 1150 3584 1784 3584 
Q 2172 3584 2448 3432 
Q 2725 3281 2906 2969 
z
M 947 1747 
Q 947 1113 1208 752 
Q 1469 391 1925 391 
Q 2381 391 2643 752 
Q 2906 1113 2906 1747 
Q 2906 2381 2643 2742 
Q 2381 3103 1925 3103 
Q 1469 3103 1208 2742 
Q 947 2381 947 1747 
z
" transform="scale(0.015625)"/>
      <path id="DejaVuSans-43" d="M 4122 4306 
L 4122 3641 
Q 3803 3938 3442 4084 
Q 3081 4231 2675 4231 
Q 1875 4231 1450 3742 
Q 1025 3253 1025 2328 
Q 1025 1406 1450 917 
Q 1875 428 2675 428 
Q 3081 428 3442 575 
Q 3803 722 4122 1019 
L 4122 359 
Q 3791 134 3420 21 
Q 3050 -91 2638 -91 
Q 1578 -91 968 557 
Q 359 1206 359 2328 
Q 359 3453 968 4101 
Q 1578 4750 2638 4750 
Q 3056 4750 3426 4639 
Q 3797 4528 4122 4306 
z
" transform="scale(0.015625)"/>
      <path id="DejaVuSans-68" d="M 3513 2113 
L 3513 0 
L 2938 0 
L 2938 2094 
Q 2938 2591 2744 2837 
Q 2550 3084 2163 3084 
Q 1697 3084 1428 2787 
Q 1159 2491 1159 1978 
L 1159 0 
L 581 0 
L 581 4863 
L 1159 4863 
L 1159 2956 
Q 1366 3272 1645 3428 
Q 1925 3584 2291 3584 
Q 2894 3584 3203 3211 
Q 3513 2838 3513 2113 
z
" transform="scale(0.015625)"/>
      <path id="DejaVuSans-61" d="M 2194 1759 
Q 1497 1759 1228 1600 
Q 959 1441 959 1056 
Q 959 750 1161 570 
Q 1363 391 1709 391 
Q 2188 391 2477 730 
Q 2766 1069 2766 1631 
L 2766 1759 
L 2194 1759 
z
M 3341 1997 
L 3341 0 
L 2766 0 
L 2766 531 
Q 2569 213 2275 61 
Q 1981 -91 1556 -91 
Q 1019 -91 701 211 
Q 384 513 384 1019 
Q 384 1609 779 1909 
Q 1175 2209 1959 2209 
L 2766 2209 
L 2766 2266 
Q 2766 2663 2505 2880 
Q 2244 3097 1772 3097 
Q 1472 3097 1187 3025 
Q 903 2953 641 2809 
L 641 3341 
Q 956 3463 1253 3523 
Q 1550 3584 1831 3584 
Q 2591 3584 2966 3190 
Q 3341 2797 3341 1997 
z
" transform="scale(0.015625)"/>
     </defs>
     <use xlink:href="#DejaVuSans-52"/>
     <use xlink:href="#DejaVuSans-65" x="64.982422"/>
     <use xlink:href="#DejaVuSans-64" x="126.505859"/>
     <use xlink:href="#DejaVuSans-20" x="189.982422"/>
     <use xlink:href="#DejaVuSans-43" x="221.769531"/>
     <use xlink:href="#DejaVuSans-68" x="291.59375"/>
     <use xlink:href="#DejaVuSans-61" x="354.972656"/>
     <use xlink:href="#DejaVuSans-6e" x="416.251953"/>
     <use xlink:href="#DejaVuSans-6e" x="479.630859"/>
     <use xlink:href="#DejaVuSans-65" x="543.009766"/>
     <use xlink:href="#DejaVuSans-6c" x="604.533203"/>
     <use xlink:href="#DejaVuSans-20" x="632.316406"/>
    </g>
   </g>
  </g>
  <g id="axes_2">
   <g id="patch_7">
    <path d="M 57.17 398.333333 
L 272.721328 398.333333 
L 272.721328 218.844413 
L 57.17 218.844413 
z
" style="fill: #ffffff"/>
   </g>
   <g id="PolyCollection_2">
    <defs>
     <path id="mf2cba1e3fc" d="M 57.17 -249.666667 
L 57.17 -249.666667 
L 58.011997 -249.666667 
L 58.853995 -249.666667 
L 59.695992 -249.666667 
L 60.53799 -249.666667 
L 61.379987 -249.666667 
L 62.221984 -249.666667 
L 63.063982 -249.666667 
L 63.905979 -249.666667 
L 64.747976 -249.666667 
L 65.589974 -249.666667 
L 66.431971 -249.666667 
L 67.273969 -249.666667 
L 68.115966 -249.666667 
L 68.957963 -249.666667 
L 69.799961 -249.666667 
L 70.641958 -249.666667 
L 71.483955 -249.666667 
L 72.325953 -249.666667 
L 73.16795 -249.666667 
L 74.009948 -249.666667 
L 74.851945 -249.666667 
L 75.693942 -249.666667 
L 76.53594 -249.666667 
L 77.377937 -249.666667 
L 78.219934 -249.666667 
L 79.061932 -249.666667 
L 79.903929 -249.666667 
L 80.745927 -249.725304 
L 81.587924 -249.901216 
L 82.429921 -250.077128 
L 83.271919 -249.901216 
L 84.113916 -250.25304 
L 84.955913 -251.36715 
L 85.797911 -253.712644 
L 86.639908 -255.706313 
L 87.481906 -260.104115 
L 88.323903 -261.74596 
L 89.1659 -265.967849 
L 90.007898 -273.590704 
L 90.849895 -284.96635 
L 91.691892 -303.026653 
L 92.53389 -318.096451 
L 93.375887 -336.039479 
L 94.217885 -343.955521 
L 95.059882 -342.958686 
L 95.901879 -338.326336 
L 96.743877 -333.166249 
L 97.585874 -331.113942 
L 98.427871 -334.866732 
L 99.269869 -333.81126 
L 100.111866 -331.055305 
L 100.953864 -335.277194 
L 101.795861 -335.218557 
L 102.637858 -336.274029 
L 103.479856 -340.613193 
L 104.321853 -336.215391 
L 105.16385 -336.801765 
L 106.005848 -337.974512 
L 106.847845 -336.508578 
L 107.689843 -333.459436 
L 108.53184 -334.984007 
L 109.373837 -333.518073 
L 110.215835 -329.589371 
L 111.057832 -331.81759 
L 111.899829 -324.018823 
L 112.741827 -315.868232 
L 113.583824 -311.70498 
L 114.425822 -307.717641 
L 115.267819 -307.013992 
L 116.109816 -297.749292 
L 116.951814 -292.823754 
L 117.793811 -290.360986 
L 118.635808 -285.669998 
L 119.477806 -282.151757 
L 120.319803 -278.868066 
L 121.161801 -277.402132 
L 122.003798 -275.584374 
L 122.845795 -272.945694 
L 123.687793 -270.482925 
L 124.52979 -269.720639 
L 125.371787 -268.078794 
L 126.213785 -268.020156 
L 127.055782 -265.791937 
L 127.89778 -262.566883 
L 128.739777 -260.455939 
L 129.581774 -258.403631 
L 130.423772 -257.289522 
L 131.265769 -256.292687 
L 132.107766 -255.706313 
L 132.949764 -254.768116 
L 133.791761 -254.24038 
L 134.633759 -253.888556 
L 135.475756 -253.536732 
L 136.317753 -252.715809 
L 137.159751 -252.24671 
L 138.001748 -252.012161 
L 138.843745 -252.422622 
L 139.685743 -251.660336 
L 140.52774 -252.24671 
L 141.369738 -251.308512 
L 142.211735 -251.073963 
L 143.053732 -250.48759 
L 143.89573 -251.015326 
L 144.737727 -250.546227 
L 145.579724 -250.722139 
L 146.421722 -250.077128 
L 147.263719 -250.194403 
L 148.105717 -250.48759 
L 148.947714 -250.311677 
L 149.789711 -249.959853 
L 150.631709 -250.077128 
L 151.473706 -250.077128 
L 152.315703 -250.077128 
L 153.157701 -249.959853 
L 153.999698 -249.901216 
L 154.841696 -249.901216 
L 155.683693 -249.901216 
L 156.52569 -249.783941 
L 157.367688 -249.783941 
L 158.209685 -249.901216 
L 159.051682 -249.959853 
L 159.89368 -249.842579 
L 160.735677 -249.666667 
L 161.577675 -249.666667 
L 162.419672 -249.666667 
L 163.261669 -249.666667 
L 164.103667 -249.666667 
L 164.945664 -249.783941 
L 165.787661 -249.783941 
L 166.629659 -249.725304 
L 167.471656 -249.666667 
L 168.313654 -249.725304 
L 169.155651 -249.666667 
L 169.997648 -249.783941 
L 170.839646 -249.725304 
L 171.681643 -249.842579 
L 172.52364 -249.783941 
L 173.365638 -249.666667 
L 174.207635 -249.666667 
L 175.049633 -249.725304 
L 175.89163 -249.666667 
L 176.733627 -249.666667 
L 177.575625 -249.666667 
L 178.417622 -249.666667 
L 179.259619 -249.725304 
L 180.101617 -249.666667 
L 180.943614 -249.725304 
L 181.785612 -249.666667 
L 182.627609 -249.666667 
L 183.469606 -249.725304 
L 184.311604 -249.666667 
L 185.153601 -249.666667 
L 185.995598 -249.666667 
L 186.837596 -249.666667 
L 187.679593 -249.666667 
L 188.521591 -249.666667 
L 189.363588 -249.666667 
L 190.205585 -249.666667 
L 191.047583 -249.666667 
L 191.88958 -249.666667 
L 192.731577 -249.666667 
L 193.573575 -249.666667 
L 194.415572 -249.666667 
L 195.25757 -249.666667 
L 196.099567 -249.666667 
L 196.941564 -249.666667 
L 197.783562 -249.666667 
L 198.625559 -249.666667 
L 199.467556 -249.666667 
L 200.309554 -249.666667 
L 201.151551 -249.666667 
L 201.993549 -249.666667 
L 202.835546 -249.666667 
L 203.677543 -249.666667 
L 204.519541 -249.666667 
L 205.361538 -249.666667 
L 206.203535 -249.666667 
L 207.045533 -249.666667 
L 207.88753 -249.666667 
L 208.729528 -249.666667 
L 209.571525 -249.666667 
L 210.413522 -249.666667 
L 211.25552 -249.666667 
L 212.097517 -249.666667 
L 212.939514 -249.666667 
L 213.781512 -249.666667 
L 214.623509 -249.666667 
L 215.465507 -249.666667 
L 216.307504 -249.666667 
L 217.149501 -249.666667 
L 217.991499 -249.666667 
L 218.833496 -249.666667 
L 219.675493 -249.666667 
L 220.517491 -249.666667 
L 221.359488 -249.666667 
L 222.201486 -249.666667 
L 223.043483 -249.666667 
L 223.88548 -249.666667 
L 224.727478 -249.666667 
L 225.569475 -249.666667 
L 226.411472 -249.666667 
L 227.25347 -249.666667 
L 228.095467 -249.666667 
L 228.937465 -249.666667 
L 229.779462 -249.666667 
L 230.621459 -249.666667 
L 231.463457 -249.666667 
L 232.305454 -249.666667 
L 233.147451 -249.666667 
L 233.989449 -249.666667 
L 234.831446 -249.666667 
L 235.673444 -249.666667 
L 236.515441 -249.666667 
L 237.357438 -249.666667 
L 238.199436 -249.666667 
L 239.041433 -249.666667 
L 239.88343 -249.666667 
L 240.725428 -249.666667 
L 241.567425 -249.666667 
L 242.409423 -249.666667 
L 243.25142 -249.666667 
L 244.093417 -249.666667 
L 244.935415 -249.666667 
L 245.777412 -249.666667 
L 246.619409 -249.666667 
L 247.461407 -249.666667 
L 248.303404 -249.666667 
L 249.145402 -249.666667 
L 249.987399 -249.666667 
L 250.829396 -249.666667 
L 251.671394 -249.666667 
L 252.513391 -249.666667 
L 253.355388 -249.666667 
L 254.197386 -249.666667 
L 255.039383 -249.666667 
L 255.881381 -249.666667 
L 256.723378 -249.666667 
L 257.565375 -249.666667 
L 258.407373 -249.666667 
L 259.24937 -249.666667 
L 260.091367 -249.666667 
L 260.933365 -249.666667 
L 261.775362 -249.666667 
L 262.61736 -249.666667 
L 263.459357 -249.666667 
L 264.301354 -249.666667 
L 265.143352 -249.666667 
L 265.985349 -249.666667 
L 266.827346 -249.666667 
L 267.669344 -249.666667 
L 268.511341 -249.666667 
L 269.353339 -249.666667 
L 270.195336 -249.666667 
L 271.037333 -249.666667 
L 271.879331 -249.666667 
L 271.879331 -249.666667 
L 271.879331 -249.666667 
L 271.037333 -249.666667 
L 270.195336 -249.666667 
L 269.353339 -249.666667 
L 268.511341 -249.666667 
L 267.669344 -249.666667 
L 266.827346 -249.666667 
L 265.985349 -249.666667 
L 265.143352 -249.666667 
L 264.301354 -249.666667 
L 263.459357 -249.666667 
L 262.61736 -249.666667 
L 261.775362 -249.666667 
L 260.933365 -249.666667 
L 260.091367 -249.666667 
L 259.24937 -249.666667 
L 258.407373 -249.666667 
L 257.565375 -249.666667 
L 256.723378 -249.666667 
L 255.881381 -249.666667 
L 255.039383 -249.666667 
L 254.197386 -249.666667 
L 253.355388 -249.666667 
L 252.513391 -249.666667 
L 251.671394 -249.666667 
L 250.829396 -249.666667 
L 249.987399 -249.666667 
L 249.145402 -249.666667 
L 248.303404 -249.666667 
L 247.461407 -249.666667 
L 246.619409 -249.666667 
L 245.777412 -249.666667 
L 244.935415 -249.666667 
L 244.093417 -249.666667 
L 243.25142 -249.666667 
L 242.409423 -249.666667 
L 241.567425 -249.666667 
L 240.725428 -249.666667 
L 239.88343 -249.666667 
L 239.041433 -249.666667 
L 238.199436 -249.666667 
L 237.357438 -249.666667 
L 236.515441 -249.666667 
L 235.673444 -249.666667 
L 234.831446 -249.666667 
L 233.989449 -249.666667 
L 233.147451 -249.666667 
L 232.305454 -249.666667 
L 231.463457 -249.666667 
L 230.621459 -249.666667 
L 229.779462 -249.666667 
L 228.937465 -249.666667 
L 228.095467 -249.666667 
L 227.25347 -249.666667 
L 226.411472 -249.666667 
L 225.569475 -249.666667 
L 224.727478 -249.666667 
L 223.88548 -249.666667 
L 223.043483 -249.666667 
L 222.201486 -249.666667 
L 221.359488 -249.666667 
L 220.517491 -249.666667 
L 219.675493 -249.666667 
L 218.833496 -249.666667 
L 217.991499 -249.666667 
L 217.149501 -249.666667 
L 216.307504 -249.666667 
L 215.465507 -249.666667 
L 214.623509 -249.666667 
L 213.781512 -249.666667 
L 212.939514 -249.666667 
L 212.097517 -249.666667 
L 211.25552 -249.666667 
L 210.413522 -249.666667 
L 209.571525 -249.666667 
L 208.729528 -249.666667 
L 207.88753 -249.666667 
L 207.045533 -249.666667 
L 206.203535 -249.666667 
L 205.361538 -249.666667 
L 204.519541 -249.666667 
L 203.677543 -249.666667 
L 202.835546 -249.666667 
L 201.993549 -249.666667 
L 201.151551 -249.666667 
L 200.309554 -249.666667 
L 199.467556 -249.666667 
L 198.625559 -249.666667 
L 197.783562 -249.666667 
L 196.941564 -249.666667 
L 196.099567 -249.666667 
L 195.25757 -249.666667 
L 194.415572 -249.666667 
L 193.573575 -249.666667 
L 192.731577 -249.666667 
L 191.88958 -249.666667 
L 191.047583 -249.666667 
L 190.205585 -249.666667 
L 189.363588 -249.666667 
L 188.521591 -249.666667 
L 187.679593 -249.666667 
L 186.837596 -249.666667 
L 185.995598 -249.666667 
L 185.153601 -249.666667 
L 184.311604 -249.666667 
L 183.469606 -249.666667 
L 182.627609 -249.666667 
L 181.785612 -249.666667 
L 180.943614 -249.666667 
L 180.101617 -249.666667 
L 179.259619 -249.666667 
L 178.417622 -249.666667 
L 177.575625 -249.666667 
L 176.733627 -249.666667 
L 175.89163 -249.666667 
L 175.049633 -249.666667 
L 174.207635 -249.666667 
L 173.365638 -249.666667 
L 172.52364 -249.666667 
L 171.681643 -249.666667 
L 170.839646 -249.666667 
L 169.997648 -249.666667 
L 169.155651 -249.666667 
L 168.313654 -249.666667 
L 167.471656 -249.666667 
L 166.629659 -249.666667 
L 165.787661 -249.666667 
L 164.945664 -249.666667 
L 164.103667 -249.666667 
L 163.261669 -249.666667 
L 162.419672 -249.666667 
L 161.577675 -249.666667 
L 160.735677 -249.666667 
L 159.89368 -249.666667 
L 159.051682 -249.666667 
L 158.209685 -249.666667 
L 157.367688 -249.666667 
L 156.52569 -249.666667 
L 155.683693 -249.666667 
L 154.841696 -249.666667 
L 153.999698 -249.666667 
L 153.157701 -249.666667 
L 152.315703 -249.666667 
L 151.473706 -249.666667 
L 150.631709 -249.666667 
L 149.789711 -249.666667 
L 148.947714 -249.666667 
L 148.105717 -249.666667 
L 147.263719 -249.666667 
L 146.421722 -249.666667 
L 145.579724 -249.666667 
L 144.737727 -249.666667 
L 143.89573 -249.666667 
L 143.053732 -249.666667 
L 142.211735 -249.666667 
L 141.369738 -249.666667 
L 140.52774 -249.666667 
L 139.685743 -249.666667 
L 138.843745 -249.666667 
L 138.001748 -249.666667 
L 137.159751 -249.666667 
L 136.317753 -249.666667 
L 135.475756 -249.666667 
L 134.633759 -249.666667 
L 133.791761 -249.666667 
L 132.949764 -249.666667 
L 132.107766 -249.666667 
L 131.265769 -249.666667 
L 130.423772 -249.666667 
L 129.581774 -249.666667 
L 128.739777 -249.666667 
L 127.89778 -249.666667 
L 127.055782 -249.666667 
L 126.213785 -249.666667 
L 125.371787 -249.666667 
L 124.52979 -249.666667 
L 123.687793 -249.666667 
L 122.845795 -249.666667 
L 122.003798 -249.666667 
L 121.161801 -249.666667 
L 120.319803 -249.666667 
L 119.477806 -249.666667 
L 118.635808 -249.666667 
L 117.793811 -249.666667 
L 116.951814 -249.666667 
L 116.109816 -249.666667 
L 115.267819 -249.666667 
L 114.425822 -249.666667 
L 113.583824 -249.666667 
L 112.741827 -249.666667 
L 111.899829 -249.666667 
L 111.057832 -249.666667 
L 110.215835 -249.666667 
L 109.373837 -249.666667 
L 108.53184 -249.666667 
L 107.689843 -249.666667 
L 106.847845 -249.666667 
L 106.005848 -249.666667 
L 105.16385 -249.666667 
L 104.321853 -249.666667 
L 103.479856 -249.666667 
L 102.637858 -249.666667 
L 101.795861 -249.666667 
L 100.953864 -249.666667 
L 100.111866 -249.666667 
L 99.269869 -249.666667 
L 98.427871 -249.666667 
L 97.585874 -249.666667 
L 96.743877 -249.666667 
L 95.901879 -249.666667 
L 95.059882 -249.666667 
L 94.217885 -249.666667 
L 93.375887 -249.666667 
L 92.53389 -249.666667 
L 91.691892 -249.666667 
L 90.849895 -249.666667 
L 90.007898 -249.666667 
L 89.1659 -249.666667 
L 88.323903 -249.666667 
L 87.481906 -249.666667 
L 86.639908 -249.666667 
L 85.797911 -249.666667 
L 84.955913 -249.666667 
L 84.113916 -249.666667 
L 83.271919 -249.666667 
L 82.429921 -249.666667 
L 81.587924 -249.666667 
L 80.745927 -249.666667 
L 79.903929 -249.666667 
L 79.061932 -249.666667 
L 78.219934 -249.666667 
L 77.377937 -249.666667 
L 76.53594 -249.666667 
L 75.693942 -249.666667 
L 74.851945 -249.666667 
L 74.009948 -249.666667 
L 73.16795 -249.666667 
L 72.325953 -249.666667 
L 71.483955 -249.666667 
L 70.641958 -249.666667 
L 69.799961 -249.666667 
L 68.957963 -249.666667 
L 68.115966 -249.666667 
L 67.273969 -249.666667 
L 66.431971 -249.666667 
L 65.589974 -249.666667 
L 64.747976 -249.666667 
L 63.905979 -249.666667 
L 63.063982 -249.666667 
L 62.221984 -249.666667 
L 61.379987 -249.666667 
L 60.53799 -249.666667 
L 59.695992 -249.666667 
L 58.853995 -249.666667 
L 58.011997 -249.666667 
L 57.17 -249.666667 
z
" style="stroke: #008000; stroke-opacity: 0.4"/>
    </defs>
    <g clip-path="url(#pde9daf75bc)">
     <use xlink:href="#mf2cba1e3fc" x="0" y="648" style="fill: #008000; fill-opacity: 0.4; stroke: #008000; stroke-opacity: 0.4"/>
    </g>
   </g>
   <g id="matplotlib.axis_3">
    <g id="xtick_7">
     <g id="line2d_15">
      <g>
       <use xlink:href="#m5e0c445434" x="57.17" y="398.333333" style="stroke: #000000; stroke-width: 0.8"/>
      </g>
     </g>
     <g id="text_16">
      <!-- 0 -->
      <g transform="translate(53.98875 412.931771) scale(0.1 -0.1)">
       <use xlink:href="#DejaVuSans-30"/>
      </g>
     </g>
    </g>
    <g id="xtick_8">
     <g id="line2d_16">
      <g>
       <use xlink:href="#m5e0c445434" x="99.269869" y="398.333333" style="stroke: #000000; stroke-width: 0.8"/>
      </g>
     </g>
     <g id="text_17">
      <!-- 50 -->
      <g transform="translate(92.907369 412.931771) scale(0.1 -0.1)">
       <use xlink:href="#DejaVuSans-35"/>
       <use xlink:href="#DejaVuSans-30" x="63.623047"/>
      </g>
     </g>
    </g>
    <g id="xtick_9">
     <g id="line2d_17">
      <g>
       <use xlink:href="#m5e0c445434" x="141.369738" y="398.333333" style="stroke: #000000; stroke-width: 0.8"/>
      </g>
     </g>
     <g id="text_18">
      <!-- 100 -->
      <g transform="translate(131.825988 412.931771) scale(0.1 -0.1)">
       <use xlink:href="#DejaVuSans-31"/>
       <use xlink:href="#DejaVuSans-30" x="63.623047"/>
       <use xlink:href="#DejaVuSans-30" x="127.246094"/>
      </g>
     </g>
    </g>
    <g id="xtick_10">
     <g id="line2d_18">
      <g>
       <use xlink:href="#m5e0c445434" x="183.469606" y="398.333333" style="stroke: #000000; stroke-width: 0.8"/>
      </g>
     </g>
     <g id="text_19">
      <!-- 150 -->
      <g transform="translate(173.925856 412.931771) scale(0.1 -0.1)">
       <use xlink:href="#DejaVuSans-31"/>
       <use xlink:href="#DejaVuSans-35" x="63.623047"/>
       <use xlink:href="#DejaVuSans-30" x="127.246094"/>
      </g>
     </g>
    </g>
    <g id="xtick_11">
     <g id="line2d_19">
      <g>
       <use xlink:href="#m5e0c445434" x="225.569475" y="398.333333" style="stroke: #000000; stroke-width: 0.8"/>
      </g>
     </g>
     <g id="text_20">
      <!-- 200 -->
      <g transform="translate(216.025725 412.931771) scale(0.1 -0.1)">
       <use xlink:href="#DejaVuSans-32"/>
       <use xlink:href="#DejaVuSans-30" x="63.623047"/>
       <use xlink:href="#DejaVuSans-30" x="127.246094"/>
      </g>
     </g>
    </g>
    <g id="xtick_12">
     <g id="line2d_20">
      <g>
       <use xlink:href="#m5e0c445434" x="267.669344" y="398.333333" style="stroke: #000000; stroke-width: 0.8"/>
      </g>
     </g>
     <g id="text_21">
      <!-- 250 -->
      <g transform="translate(258.125594 412.931771) scale(0.1 -0.1)">
       <use xlink:href="#DejaVuSans-32"/>
       <use xlink:href="#DejaVuSans-35" x="63.623047"/>
       <use xlink:href="#DejaVuSans-30" x="127.246094"/>
      </g>
     </g>
    </g>
   </g>
   <g id="matplotlib.axis_4">
    <g id="ytick_8">
     <g id="line2d_21">
      <g>
       <use xlink:href="#mcdb7018fbf" x="57.17" y="398.333333" style="stroke: #000000; stroke-width: 0.8"/>
      </g>
     </g>
     <g id="text_22">
      <!-- 0 -->
      <g transform="translate(43.8075 402.132552) scale(0.1 -0.1)">
       <use xlink:href="#DejaVuSans-30"/>
      </g>
     </g>
    </g>
    <g id="ytick_9">
     <g id="line2d_22">
      <g>
       <use xlink:href="#mcdb7018fbf" x="57.17" y="369.01466" style="stroke: #000000; stroke-width: 0.8"/>
      </g>
     </g>
     <g id="text_23">
      <!-- 500 -->
      <g transform="translate(31.0825 372.813878) scale(0.1 -0.1)">
       <use xlink:href="#DejaVuSans-35"/>
       <use xlink:href="#DejaVuSans-30" x="63.623047"/>
       <use xlink:href="#DejaVuSans-30" x="127.246094"/>
      </g>
     </g>
    </g>
    <g id="ytick_10">
     <g id="line2d_23">
      <g>
       <use xlink:href="#mcdb7018fbf" x="57.17" y="339.695986" style="stroke: #000000; stroke-width: 0.8"/>
      </g>
     </g>
     <g id="text_24">
      <!-- 1000 -->
      <g transform="translate(24.72 343.495205) scale(0.1 -0.1)">
       <use xlink:href="#DejaVuSans-31"/>
       <use xlink:href="#DejaVuSans-30" x="63.623047"/>
       <use xlink:href="#DejaVuSans-30" x="127.246094"/>
       <use xlink:href="#DejaVuSans-30" x="190.869141"/>
      </g>
     </g>
    </g>
    <g id="ytick_11">
     <g id="line2d_24">
      <g>
       <use xlink:href="#mcdb7018fbf" x="57.17" y="310.377312" style="stroke: #000000; stroke-width: 0.8"/>
      </g>
     </g>
     <g id="text_25">
      <!-- 1500 -->
      <g transform="translate(24.72 314.176531) scale(0.1 -0.1)">
       <use xlink:href="#DejaVuSans-31"/>
       <use xlink:href="#DejaVuSans-35" x="63.623047"/>
       <use xlink:href="#DejaVuSans-30" x="127.246094"/>
       <use xlink:href="#DejaVuSans-30" x="190.869141"/>
      </g>
     </g>
    </g>
    <g id="ytick_12">
     <g id="line2d_25">
      <g>
       <use xlink:href="#mcdb7018fbf" x="57.17" y="281.058638" style="stroke: #000000; stroke-width: 0.8"/>
      </g>
     </g>
     <g id="text_26">
      <!-- 2000 -->
      <g transform="translate(24.72 284.857857) scale(0.1 -0.1)">
       <use xlink:href="#DejaVuSans-32"/>
       <use xlink:href="#DejaVuSans-30" x="63.623047"/>
       <use xlink:href="#DejaVuSans-30" x="127.246094"/>
       <use xlink:href="#DejaVuSans-30" x="190.869141"/>
      </g>
     </g>
    </g>
    <g id="ytick_13">
     <g id="line2d_26">
      <g>
       <use xlink:href="#mcdb7018fbf" x="57.17" y="251.739965" style="stroke: #000000; stroke-width: 0.8"/>
      </g>
     </g>
     <g id="text_27">
      <!-- 2500 -->
      <g transform="translate(24.72 255.539184) scale(0.1 -0.1)">
       <use xlink:href="#DejaVuSans-32"/>
       <use xlink:href="#DejaVuSans-35" x="63.623047"/>
       <use xlink:href="#DejaVuSans-30" x="127.246094"/>
       <use xlink:href="#DejaVuSans-30" x="190.869141"/>
      </g>
     </g>
    </g>
    <g id="ytick_14">
     <g id="line2d_27">
      <g>
       <use xlink:href="#mcdb7018fbf" x="57.17" y="222.421291" style="stroke: #000000; stroke-width: 0.8"/>
      </g>
     </g>
     <g id="text_28">
      <!-- 3000 -->
      <g transform="translate(24.72 226.22051) scale(0.1 -0.1)">
       <use xlink:href="#DejaVuSans-33"/>
       <use xlink:href="#DejaVuSans-30" x="63.623047"/>
       <use xlink:href="#DejaVuSans-30" x="127.246094"/>
       <use xlink:href="#DejaVuSans-30" x="190.869141"/>
      </g>
     </g>
    </g>
    <g id="text_29">
     <!-- Pixel Frequency -->
     <g transform="translate(18.640313 347.567779) rotate(-90) scale(0.1 -0.1)">
      <use xlink:href="#DejaVuSans-50"/>
      <use xlink:href="#DejaVuSans-69" x="58.052734"/>
      <use xlink:href="#DejaVuSans-78" x="85.835938"/>
      <use xlink:href="#DejaVuSans-65" x="141.890625"/>
      <use xlink:href="#DejaVuSans-6c" x="203.414062"/>
      <use xlink:href="#DejaVuSans-20" x="231.197266"/>
      <use xlink:href="#DejaVuSans-46" x="262.984375"/>
      <use xlink:href="#DejaVuSans-72" x="313.253906"/>
      <use xlink:href="#DejaVuSans-65" x="352.117188"/>
      <use xlink:href="#DejaVuSans-71" x="413.640625"/>
      <use xlink:href="#DejaVuSans-75" x="477.117188"/>
      <use xlink:href="#DejaVuSans-65" x="540.496094"/>
      <use xlink:href="#DejaVuSans-6e" x="602.019531"/>
      <use xlink:href="#DejaVuSans-63" x="665.398438"/>
      <use xlink:href="#DejaVuSans-79" x="720.378906"/>
     </g>
    </g>
   </g>
   <g id="line2d_28">
    <path d="M 57.17 398.333333 
L 80.745927 398.274696 
L 82.429921 397.922872 
L 83.271919 398.098784 
L 84.113916 397.74696 
L 84.955913 396.63285 
L 85.797911 394.287356 
L 86.639908 392.293687 
L 87.481906 387.895885 
L 88.323903 386.25404 
L 89.1659 382.032151 
L 90.007898 374.409296 
L 90.849895 363.03365 
L 91.691892 344.973347 
L 92.53389 329.903549 
L 93.375887 311.960521 
L 94.217885 304.044479 
L 95.059882 305.041314 
L 96.743877 314.833751 
L 97.585874 316.886058 
L 98.427871 313.133268 
L 99.269869 314.18874 
L 100.111866 316.944695 
L 100.953864 312.722806 
L 101.795861 312.781443 
L 102.637858 311.725971 
L 103.479856 307.386807 
L 104.321853 311.784609 
L 105.16385 311.198235 
L 106.005848 310.025488 
L 106.847845 311.491422 
L 107.689843 314.540564 
L 108.53184 313.015993 
L 109.373837 314.481927 
L 110.215835 318.410629 
L 111.057832 316.18241 
L 112.741827 332.131768 
L 114.425822 340.282359 
L 115.267819 340.986008 
L 116.109816 350.250708 
L 116.951814 355.176246 
L 117.793811 357.639014 
L 118.635808 362.330002 
L 120.319803 369.131934 
L 121.161801 370.597868 
L 122.003798 372.415626 
L 123.687793 377.517075 
L 124.52979 378.279361 
L 125.371787 379.921206 
L 126.213785 379.979844 
L 127.055782 382.208063 
L 127.89778 385.433117 
L 129.581774 389.596369 
L 131.265769 391.707313 
L 132.107766 392.293687 
L 132.949764 393.231884 
L 133.791761 393.75962 
L 135.475756 394.463268 
L 136.317753 395.284191 
L 137.159751 395.75329 
L 138.001748 395.987839 
L 138.843745 395.577378 
L 139.685743 396.339664 
L 140.52774 395.75329 
L 141.369738 396.691488 
L 142.211735 396.926037 
L 143.053732 397.51241 
L 143.89573 396.984674 
L 144.737727 397.453773 
L 145.579724 397.277861 
L 146.421722 397.922872 
L 147.263719 397.805597 
L 148.105717 397.51241 
L 148.947714 397.688323 
L 149.789711 398.040147 
L 150.631709 397.922872 
L 152.315703 397.922872 
L 153.999698 398.098784 
L 155.683693 398.098784 
L 156.52569 398.216059 
L 157.367688 398.216059 
L 159.051682 398.040147 
L 161.577675 398.333333 
L 164.103667 398.333333 
L 164.945664 398.216059 
L 166.629659 398.274696 
L 167.471656 398.333333 
L 168.313654 398.274696 
L 169.155651 398.333333 
L 169.997648 398.216059 
L 170.839646 398.274696 
L 171.681643 398.157421 
L 174.207635 398.333333 
L 175.049633 398.274696 
L 176.733627 398.333333 
L 271.879331 398.333333 
L 271.879331 398.333333 
" clip-path="url(#pde9daf75bc)" style="fill: none; stroke: #008000; stroke-width: 1.5; stroke-linecap: square"/>
   </g>
   <g id="patch_8">
    <path d="M 57.17 398.333333 
L 57.17 218.844413 
" style="fill: none; stroke: #000000; stroke-width: 0.8; stroke-linejoin: miter; stroke-linecap: square"/>
   </g>
   <g id="patch_9">
    <path d="M 272.721328 398.333333 
L 272.721328 218.844413 
" style="fill: none; stroke: #000000; stroke-width: 0.8; stroke-linejoin: miter; stroke-linecap: square"/>
   </g>
   <g id="patch_10">
    <path d="M 57.17 398.333333 
L 272.721328 398.333333 
" style="fill: none; stroke: #000000; stroke-width: 0.8; stroke-linejoin: miter; stroke-linecap: square"/>
   </g>
   <g id="patch_11">
    <path d="M 57.17 218.844413 
L 272.721328 218.844413 
" style="fill: none; stroke: #000000; stroke-width: 0.8; stroke-linejoin: miter; stroke-linecap: square"/>
   </g>
   <g id="text_30">
    <!-- Green Channel  -->
    <g transform="translate(179.494453 232.844413) scale(0.12 -0.12)">
     <defs>
      <path id="DejaVuSans-47" d="M 3809 666 
L 3809 1919 
L 2778 1919 
L 2778 2438 
L 4434 2438 
L 4434 434 
Q 4069 175 3628 42 
Q 3188 -91 2688 -91 
Q 1594 -91 976 548 
Q 359 1188 359 2328 
Q 359 3472 976 4111 
Q 1594 4750 2688 4750 
Q 3144 4750 3555 4637 
Q 3966 4525 4313 4306 
L 4313 3634 
Q 3963 3931 3569 4081 
Q 3175 4231 2741 4231 
Q 1884 4231 1454 3753 
Q 1025 3275 1025 2328 
Q 1025 1384 1454 906 
Q 1884 428 2741 428 
Q 3075 428 3337 486 
Q 3600 544 3809 666 
z
" transform="scale(0.015625)"/>
     </defs>
     <use xlink:href="#DejaVuSans-47"/>
     <use xlink:href="#DejaVuSans-72" x="77.490234"/>
     <use xlink:href="#DejaVuSans-65" x="116.353516"/>
     <use xlink:href="#DejaVuSans-65" x="177.876953"/>
     <use xlink:href="#DejaVuSans-6e" x="239.400391"/>
     <use xlink:href="#DejaVuSans-20" x="302.779297"/>
     <use xlink:href="#DejaVuSans-43" x="334.566406"/>
     <use xlink:href="#DejaVuSans-68" x="404.390625"/>
     <use xlink:href="#DejaVuSans-61" x="467.769531"/>
     <use xlink:href="#DejaVuSans-6e" x="529.048828"/>
     <use xlink:href="#DejaVuSans-6e" x="592.427734"/>
     <use xlink:href="#DejaVuSans-65" x="655.806641"/>
     <use xlink:href="#DejaVuSans-6c" x="717.330078"/>
     <use xlink:href="#DejaVuSans-20" x="745.113281"/>
    </g>
   </g>
  </g>
  <g id="axes_3">
   <g id="patch_12">
    <path d="M 57.17 606.04 
L 272.721328 606.04 
L 272.721328 426.55108 
L 57.17 426.55108 
z
" style="fill: #ffffff"/>
   </g>
   <g id="PolyCollection_3">
    <defs>
     <path id="m8bcae5ec50" d="M 57.17 -41.96 
L 57.17 -41.96 
L 58.011997 -41.96 
L 58.853995 -41.96 
L 59.695992 -41.96 
L 60.53799 -41.96 
L 61.379987 -41.96 
L 62.221984 -41.96 
L 63.063982 -41.96 
L 63.905979 -41.96 
L 64.747976 -41.96 
L 65.589974 -41.96 
L 66.431971 -41.96 
L 67.273969 -41.96 
L 68.115966 -42.018637 
L 68.957963 -42.077275 
L 69.799961 -42.018637 
L 70.641958 -42.311824 
L 71.483955 -42.780923 
L 72.325953 -44.481406 
L 73.16795 -47.941009 
L 74.009948 -52.807909 
L 74.851945 -63.18672 
L 75.693942 -77.55287 
L 76.53594 -103.236028 
L 77.377937 -135.955668 
L 78.219934 -169.789417 
L 79.061932 -188.729281 
L 79.903929 -187.673808 
L 80.745927 -184.507392 
L 81.587924 -183.158733 
L 82.429921 -188.142907 
L 83.271919 -197.055784 
L 84.113916 -200.984486 
L 84.955913 -200.398113 
L 85.797911 -196.528048 
L 86.639908 -177.294998 
L 87.481906 -171.431263 
L 88.323903 -162.928848 
L 89.1659 -156.771926 
L 90.007898 -148.50406 
L 90.849895 -136.190217 
L 91.691892 -122.996814 
L 92.53389 -109.041125 
L 93.375887 -98.603678 
L 94.217885 -94.029965 
L 95.059882 -86.641659 
L 95.901879 -79.781089 
L 96.743877 -76.849222 
L 97.585874 -71.044124 
L 98.427871 -65.708126 
L 99.269869 -61.368962 
L 100.111866 -56.853886 
L 100.953864 -53.687469 
L 101.795861 -51.341976 
L 102.637858 -48.937844 
L 103.479856 -48.82057 
L 104.321853 -47.471911 
L 105.16385 -46.475076 
L 106.005848 -45.94734 
L 106.847845 -45.478241 
L 107.689843 -44.129582 
L 108.53184 -44.246857 
L 109.373837 -43.543208 
L 110.215835 -43.250022 
L 111.057832 -43.132747 
L 111.899829 -42.663648 
L 112.741827 -42.956835 
L 113.583824 -42.898198 
L 114.425822 -42.722286 
L 115.267819 -42.956835 
L 116.109816 -42.311824 
L 116.951814 -42.429099 
L 117.793811 -42.018637 
L 118.635808 -42.429099 
L 119.477806 -42.077275 
L 120.319803 -42.253187 
L 121.161801 -42.253187 
L 122.003798 -42.135912 
L 122.845795 -42.194549 
L 123.687793 -42.077275 
L 124.52979 -42.018637 
L 125.371787 -42.135912 
L 126.213785 -42.018637 
L 127.055782 -41.96 
L 127.89778 -42.077275 
L 128.739777 -42.018637 
L 129.581774 -42.077275 
L 130.423772 -42.018637 
L 131.265769 -42.077275 
L 132.107766 -42.077275 
L 132.949764 -42.077275 
L 133.791761 -42.018637 
L 134.633759 -41.96 
L 135.475756 -41.96 
L 136.317753 -42.018637 
L 137.159751 -41.96 
L 138.001748 -42.018637 
L 138.843745 -41.96 
L 139.685743 -41.96 
L 140.52774 -41.96 
L 141.369738 -42.018637 
L 142.211735 -42.018637 
L 143.053732 -41.96 
L 143.89573 -41.96 
L 144.737727 -41.96 
L 145.579724 -41.96 
L 146.421722 -41.96 
L 147.263719 -41.96 
L 148.105717 -41.96 
L 148.947714 -41.96 
L 149.789711 -41.96 
L 150.631709 -41.96 
L 151.473706 -41.96 
L 152.315703 -41.96 
L 153.157701 -41.96 
L 153.999698 -41.96 
L 154.841696 -41.96 
L 155.683693 -41.96 
L 156.52569 -41.96 
L 157.367688 -41.96 
L 158.209685 -41.96 
L 159.051682 -41.96 
L 159.89368 -41.96 
L 160.735677 -41.96 
L 161.577675 -41.96 
L 162.419672 -41.96 
L 163.261669 -41.96 
L 164.103667 -41.96 
L 164.945664 -41.96 
L 165.787661 -41.96 
L 166.629659 -41.96 
L 167.471656 -41.96 
L 168.313654 -41.96 
L 169.155651 -41.96 
L 169.997648 -41.96 
L 170.839646 -41.96 
L 171.681643 -41.96 
L 172.52364 -41.96 
L 173.365638 -41.96 
L 174.207635 -41.96 
L 175.049633 -41.96 
L 175.89163 -41.96 
L 176.733627 -41.96 
L 177.575625 -41.96 
L 178.417622 -41.96 
L 179.259619 -41.96 
L 180.101617 -41.96 
L 180.943614 -41.96 
L 181.785612 -41.96 
L 182.627609 -41.96 
L 183.469606 -41.96 
L 184.311604 -41.96 
L 185.153601 -41.96 
L 185.995598 -41.96 
L 186.837596 -41.96 
L 187.679593 -41.96 
L 188.521591 -41.96 
L 189.363588 -41.96 
L 190.205585 -41.96 
L 191.047583 -41.96 
L 191.88958 -41.96 
L 192.731577 -41.96 
L 193.573575 -41.96 
L 194.415572 -41.96 
L 195.25757 -41.96 
L 196.099567 -41.96 
L 196.941564 -41.96 
L 197.783562 -41.96 
L 198.625559 -41.96 
L 199.467556 -41.96 
L 200.309554 -41.96 
L 201.151551 -41.96 
L 201.993549 -41.96 
L 202.835546 -41.96 
L 203.677543 -41.96 
L 204.519541 -41.96 
L 205.361538 -41.96 
L 206.203535 -41.96 
L 207.045533 -41.96 
L 207.88753 -41.96 
L 208.729528 -41.96 
L 209.571525 -41.96 
L 210.413522 -41.96 
L 211.25552 -41.96 
L 212.097517 -41.96 
L 212.939514 -41.96 
L 213.781512 -41.96 
L 214.623509 -41.96 
L 215.465507 -41.96 
L 216.307504 -41.96 
L 217.149501 -41.96 
L 217.991499 -41.96 
L 218.833496 -41.96 
L 219.675493 -41.96 
L 220.517491 -41.96 
L 221.359488 -41.96 
L 222.201486 -41.96 
L 223.043483 -41.96 
L 223.88548 -41.96 
L 224.727478 -41.96 
L 225.569475 -41.96 
L 226.411472 -41.96 
L 227.25347 -41.96 
L 228.095467 -41.96 
L 228.937465 -41.96 
L 229.779462 -41.96 
L 230.621459 -41.96 
L 231.463457 -41.96 
L 232.305454 -41.96 
L 233.147451 -41.96 
L 233.989449 -41.96 
L 234.831446 -41.96 
L 235.673444 -41.96 
L 236.515441 -41.96 
L 237.357438 -41.96 
L 238.199436 -41.96 
L 239.041433 -41.96 
L 239.88343 -41.96 
L 240.725428 -41.96 
L 241.567425 -41.96 
L 242.409423 -41.96 
L 243.25142 -41.96 
L 244.093417 -41.96 
L 244.935415 -41.96 
L 245.777412 -41.96 
L 246.619409 -41.96 
L 247.461407 -41.96 
L 248.303404 -41.96 
L 249.145402 -41.96 
L 249.987399 -41.96 
L 250.829396 -41.96 
L 251.671394 -41.96 
L 252.513391 -41.96 
L 253.355388 -41.96 
L 254.197386 -41.96 
L 255.039383 -41.96 
L 255.881381 -41.96 
L 256.723378 -41.96 
L 257.565375 -41.96 
L 258.407373 -41.96 
L 259.24937 -41.96 
L 260.091367 -41.96 
L 260.933365 -41.96 
L 261.775362 -41.96 
L 262.61736 -41.96 
L 263.459357 -41.96 
L 264.301354 -41.96 
L 265.143352 -41.96 
L 265.985349 -41.96 
L 266.827346 -41.96 
L 267.669344 -41.96 
L 268.511341 -41.96 
L 269.353339 -41.96 
L 270.195336 -41.96 
L 271.037333 -41.96 
L 271.879331 -41.96 
L 271.879331 -41.96 
L 271.879331 -41.96 
L 271.037333 -41.96 
L 270.195336 -41.96 
L 269.353339 -41.96 
L 268.511341 -41.96 
L 267.669344 -41.96 
L 266.827346 -41.96 
L 265.985349 -41.96 
L 265.143352 -41.96 
L 264.301354 -41.96 
L 263.459357 -41.96 
L 262.61736 -41.96 
L 261.775362 -41.96 
L 260.933365 -41.96 
L 260.091367 -41.96 
L 259.24937 -41.96 
L 258.407373 -41.96 
L 257.565375 -41.96 
L 256.723378 -41.96 
L 255.881381 -41.96 
L 255.039383 -41.96 
L 254.197386 -41.96 
L 253.355388 -41.96 
L 252.513391 -41.96 
L 251.671394 -41.96 
L 250.829396 -41.96 
L 249.987399 -41.96 
L 249.145402 -41.96 
L 248.303404 -41.96 
L 247.461407 -41.96 
L 246.619409 -41.96 
L 245.777412 -41.96 
L 244.935415 -41.96 
L 244.093417 -41.96 
L 243.25142 -41.96 
L 242.409423 -41.96 
L 241.567425 -41.96 
L 240.725428 -41.96 
L 239.88343 -41.96 
L 239.041433 -41.96 
L 238.199436 -41.96 
L 237.357438 -41.96 
L 236.515441 -41.96 
L 235.673444 -41.96 
L 234.831446 -41.96 
L 233.989449 -41.96 
L 233.147451 -41.96 
L 232.305454 -41.96 
L 231.463457 -41.96 
L 230.621459 -41.96 
L 229.779462 -41.96 
L 228.937465 -41.96 
L 228.095467 -41.96 
L 227.25347 -41.96 
L 226.411472 -41.96 
L 225.569475 -41.96 
L 224.727478 -41.96 
L 223.88548 -41.96 
L 223.043483 -41.96 
L 222.201486 -41.96 
L 221.359488 -41.96 
L 220.517491 -41.96 
L 219.675493 -41.96 
L 218.833496 -41.96 
L 217.991499 -41.96 
L 217.149501 -41.96 
L 216.307504 -41.96 
L 215.465507 -41.96 
L 214.623509 -41.96 
L 213.781512 -41.96 
L 212.939514 -41.96 
L 212.097517 -41.96 
L 211.25552 -41.96 
L 210.413522 -41.96 
L 209.571525 -41.96 
L 208.729528 -41.96 
L 207.88753 -41.96 
L 207.045533 -41.96 
L 206.203535 -41.96 
L 205.361538 -41.96 
L 204.519541 -41.96 
L 203.677543 -41.96 
L 202.835546 -41.96 
L 201.993549 -41.96 
L 201.151551 -41.96 
L 200.309554 -41.96 
L 199.467556 -41.96 
L 198.625559 -41.96 
L 197.783562 -41.96 
L 196.941564 -41.96 
L 196.099567 -41.96 
L 195.25757 -41.96 
L 194.415572 -41.96 
L 193.573575 -41.96 
L 192.731577 -41.96 
L 191.88958 -41.96 
L 191.047583 -41.96 
L 190.205585 -41.96 
L 189.363588 -41.96 
L 188.521591 -41.96 
L 187.679593 -41.96 
L 186.837596 -41.96 
L 185.995598 -41.96 
L 185.153601 -41.96 
L 184.311604 -41.96 
L 183.469606 -41.96 
L 182.627609 -41.96 
L 181.785612 -41.96 
L 180.943614 -41.96 
L 180.101617 -41.96 
L 179.259619 -41.96 
L 178.417622 -41.96 
L 177.575625 -41.96 
L 176.733627 -41.96 
L 175.89163 -41.96 
L 175.049633 -41.96 
L 174.207635 -41.96 
L 173.365638 -41.96 
L 172.52364 -41.96 
L 171.681643 -41.96 
L 170.839646 -41.96 
L 169.997648 -41.96 
L 169.155651 -41.96 
L 168.313654 -41.96 
L 167.471656 -41.96 
L 166.629659 -41.96 
L 165.787661 -41.96 
L 164.945664 -41.96 
L 164.103667 -41.96 
L 163.261669 -41.96 
L 162.419672 -41.96 
L 161.577675 -41.96 
L 160.735677 -41.96 
L 159.89368 -41.96 
L 159.051682 -41.96 
L 158.209685 -41.96 
L 157.367688 -41.96 
L 156.52569 -41.96 
L 155.683693 -41.96 
L 154.841696 -41.96 
L 153.999698 -41.96 
L 153.157701 -41.96 
L 152.315703 -41.96 
L 151.473706 -41.96 
L 150.631709 -41.96 
L 149.789711 -41.96 
L 148.947714 -41.96 
L 148.105717 -41.96 
L 147.263719 -41.96 
L 146.421722 -41.96 
L 145.579724 -41.96 
L 144.737727 -41.96 
L 143.89573 -41.96 
L 143.053732 -41.96 
L 142.211735 -41.96 
L 141.369738 -41.96 
L 140.52774 -41.96 
L 139.685743 -41.96 
L 138.843745 -41.96 
L 138.001748 -41.96 
L 137.159751 -41.96 
L 136.317753 -41.96 
L 135.475756 -41.96 
L 134.633759 -41.96 
L 133.791761 -41.96 
L 132.949764 -41.96 
L 132.107766 -41.96 
L 131.265769 -41.96 
L 130.423772 -41.96 
L 129.581774 -41.96 
L 128.739777 -41.96 
L 127.89778 -41.96 
L 127.055782 -41.96 
L 126.213785 -41.96 
L 125.371787 -41.96 
L 124.52979 -41.96 
L 123.687793 -41.96 
L 122.845795 -41.96 
L 122.003798 -41.96 
L 121.161801 -41.96 
L 120.319803 -41.96 
L 119.477806 -41.96 
L 118.635808 -41.96 
L 117.793811 -41.96 
L 116.951814 -41.96 
L 116.109816 -41.96 
L 115.267819 -41.96 
L 114.425822 -41.96 
L 113.583824 -41.96 
L 112.741827 -41.96 
L 111.899829 -41.96 
L 111.057832 -41.96 
L 110.215835 -41.96 
L 109.373837 -41.96 
L 108.53184 -41.96 
L 107.689843 -41.96 
L 106.847845 -41.96 
L 106.005848 -41.96 
L 105.16385 -41.96 
L 104.321853 -41.96 
L 103.479856 -41.96 
L 102.637858 -41.96 
L 101.795861 -41.96 
L 100.953864 -41.96 
L 100.111866 -41.96 
L 99.269869 -41.96 
L 98.427871 -41.96 
L 97.585874 -41.96 
L 96.743877 -41.96 
L 95.901879 -41.96 
L 95.059882 -41.96 
L 94.217885 -41.96 
L 93.375887 -41.96 
L 92.53389 -41.96 
L 91.691892 -41.96 
L 90.849895 -41.96 
L 90.007898 -41.96 
L 89.1659 -41.96 
L 88.323903 -41.96 
L 87.481906 -41.96 
L 86.639908 -41.96 
L 85.797911 -41.96 
L 84.955913 -41.96 
L 84.113916 -41.96 
L 83.271919 -41.96 
L 82.429921 -41.96 
L 81.587924 -41.96 
L 80.745927 -41.96 
L 79.903929 -41.96 
L 79.061932 -41.96 
L 78.219934 -41.96 
L 77.377937 -41.96 
L 76.53594 -41.96 
L 75.693942 -41.96 
L 74.851945 -41.96 
L 74.009948 -41.96 
L 73.16795 -41.96 
L 72.325953 -41.96 
L 71.483955 -41.96 
L 70.641958 -41.96 
L 69.799961 -41.96 
L 68.957963 -41.96 
L 68.115966 -41.96 
L 67.273969 -41.96 
L 66.431971 -41.96 
L 65.589974 -41.96 
L 64.747976 -41.96 
L 63.905979 -41.96 
L 63.063982 -41.96 
L 62.221984 -41.96 
L 61.379987 -41.96 
L 60.53799 -41.96 
L 59.695992 -41.96 
L 58.853995 -41.96 
L 58.011997 -41.96 
L 57.17 -41.96 
z
" style="stroke: #0000ff; stroke-opacity: 0.4"/>
    </defs>
    <g clip-path="url(#p166d6953a6)">
     <use xlink:href="#m8bcae5ec50" x="0" y="648" style="fill: #0000ff; fill-opacity: 0.4; stroke: #0000ff; stroke-opacity: 0.4"/>
    </g>
   </g>
   <g id="matplotlib.axis_5">
    <g id="xtick_13">
     <g id="line2d_29">
      <g>
       <use xlink:href="#m5e0c445434" x="57.17" y="606.04" style="stroke: #000000; stroke-width: 0.8"/>
      </g>
     </g>
     <g id="text_31">
      <!-- 0 -->
      <g transform="translate(53.98875 620.638438) scale(0.1 -0.1)">
       <use xlink:href="#DejaVuSans-30"/>
      </g>
     </g>
    </g>
    <g id="xtick_14">
     <g id="line2d_30">
      <g>
       <use xlink:href="#m5e0c445434" x="99.269869" y="606.04" style="stroke: #000000; stroke-width: 0.8"/>
      </g>
     </g>
     <g id="text_32">
      <!-- 50 -->
      <g transform="translate(92.907369 620.638438) scale(0.1 -0.1)">
       <use xlink:href="#DejaVuSans-35"/>
       <use xlink:href="#DejaVuSans-30" x="63.623047"/>
      </g>
     </g>
    </g>
    <g id="xtick_15">
     <g id="line2d_31">
      <g>
       <use xlink:href="#m5e0c445434" x="141.369738" y="606.04" style="stroke: #000000; stroke-width: 0.8"/>
      </g>
     </g>
     <g id="text_33">
      <!-- 100 -->
      <g transform="translate(131.825988 620.638438) scale(0.1 -0.1)">
       <use xlink:href="#DejaVuSans-31"/>
       <use xlink:href="#DejaVuSans-30" x="63.623047"/>
       <use xlink:href="#DejaVuSans-30" x="127.246094"/>
      </g>
     </g>
    </g>
    <g id="xtick_16">
     <g id="line2d_32">
      <g>
       <use xlink:href="#m5e0c445434" x="183.469606" y="606.04" style="stroke: #000000; stroke-width: 0.8"/>
      </g>
     </g>
     <g id="text_34">
      <!-- 150 -->
      <g transform="translate(173.925856 620.638438) scale(0.1 -0.1)">
       <use xlink:href="#DejaVuSans-31"/>
       <use xlink:href="#DejaVuSans-35" x="63.623047"/>
       <use xlink:href="#DejaVuSans-30" x="127.246094"/>
      </g>
     </g>
    </g>
    <g id="xtick_17">
     <g id="line2d_33">
      <g>
       <use xlink:href="#m5e0c445434" x="225.569475" y="606.04" style="stroke: #000000; stroke-width: 0.8"/>
      </g>
     </g>
     <g id="text_35">
      <!-- 200 -->
      <g transform="translate(216.025725 620.638438) scale(0.1 -0.1)">
       <use xlink:href="#DejaVuSans-32"/>
       <use xlink:href="#DejaVuSans-30" x="63.623047"/>
       <use xlink:href="#DejaVuSans-30" x="127.246094"/>
      </g>
     </g>
    </g>
    <g id="xtick_18">
     <g id="line2d_34">
      <g>
       <use xlink:href="#m5e0c445434" x="267.669344" y="606.04" style="stroke: #000000; stroke-width: 0.8"/>
      </g>
     </g>
     <g id="text_36">
      <!-- 250 -->
      <g transform="translate(258.125594 620.638438) scale(0.1 -0.1)">
       <use xlink:href="#DejaVuSans-32"/>
       <use xlink:href="#DejaVuSans-35" x="63.623047"/>
       <use xlink:href="#DejaVuSans-30" x="127.246094"/>
      </g>
     </g>
    </g>
    <g id="text_37">
     <!-- Pixel Intensity -->
     <g transform="translate(130.033945 634.316563) scale(0.1 -0.1)">
      <defs>
       <path id="DejaVuSans-49" d="M 628 4666 
L 1259 4666 
L 1259 0 
L 628 0 
L 628 4666 
z
" transform="scale(0.015625)"/>
       <path id="DejaVuSans-74" d="M 1172 4494 
L 1172 3500 
L 2356 3500 
L 2356 3053 
L 1172 3053 
L 1172 1153 
Q 1172 725 1289 603 
Q 1406 481 1766 481 
L 2356 481 
L 2356 0 
L 1766 0 
Q 1100 0 847 248 
Q 594 497 594 1153 
L 594 3053 
L 172 3053 
L 172 3500 
L 594 3500 
L 594 4494 
L 1172 4494 
z
" transform="scale(0.015625)"/>
       <path id="DejaVuSans-73" d="M 2834 3397 
L 2834 2853 
Q 2591 2978 2328 3040 
Q 2066 3103 1784 3103 
Q 1356 3103 1142 2972 
Q 928 2841 928 2578 
Q 928 2378 1081 2264 
Q 1234 2150 1697 2047 
L 1894 2003 
Q 2506 1872 2764 1633 
Q 3022 1394 3022 966 
Q 3022 478 2636 193 
Q 2250 -91 1575 -91 
Q 1294 -91 989 -36 
Q 684 19 347 128 
L 347 722 
Q 666 556 975 473 
Q 1284 391 1588 391 
Q 1994 391 2212 530 
Q 2431 669 2431 922 
Q 2431 1156 2273 1281 
Q 2116 1406 1581 1522 
L 1381 1569 
Q 847 1681 609 1914 
Q 372 2147 372 2553 
Q 372 3047 722 3315 
Q 1072 3584 1716 3584 
Q 2034 3584 2315 3537 
Q 2597 3491 2834 3397 
z
" transform="scale(0.015625)"/>
      </defs>
      <use xlink:href="#DejaVuSans-50"/>
      <use xlink:href="#DejaVuSans-69" x="58.052734"/>
      <use xlink:href="#DejaVuSans-78" x="85.835938"/>
      <use xlink:href="#DejaVuSans-65" x="141.890625"/>
      <use xlink:href="#DejaVuSans-6c" x="203.414062"/>
      <use xlink:href="#DejaVuSans-20" x="231.197266"/>
      <use xlink:href="#DejaVuSans-49" x="262.984375"/>
      <use xlink:href="#DejaVuSans-6e" x="292.476562"/>
      <use xlink:href="#DejaVuSans-74" x="355.855469"/>
      <use xlink:href="#DejaVuSans-65" x="395.064453"/>
      <use xlink:href="#DejaVuSans-6e" x="456.587891"/>
      <use xlink:href="#DejaVuSans-73" x="519.966797"/>
      <use xlink:href="#DejaVuSans-69" x="572.066406"/>
      <use xlink:href="#DejaVuSans-74" x="599.849609"/>
      <use xlink:href="#DejaVuSans-79" x="639.058594"/>
     </g>
    </g>
   </g>
   <g id="matplotlib.axis_6">
    <g id="ytick_15">
     <g id="line2d_35">
      <g>
       <use xlink:href="#mcdb7018fbf" x="57.17" y="606.04" style="stroke: #000000; stroke-width: 0.8"/>
      </g>
     </g>
     <g id="text_38">
      <!-- 0 -->
      <g transform="translate(43.8075 609.839219) scale(0.1 -0.1)">
       <use xlink:href="#DejaVuSans-30"/>
      </g>
     </g>
    </g>
    <g id="ytick_16">
     <g id="line2d_36">
      <g>
       <use xlink:href="#mcdb7018fbf" x="57.17" y="576.721326" style="stroke: #000000; stroke-width: 0.8"/>
      </g>
     </g>
     <g id="text_39">
      <!-- 500 -->
      <g transform="translate(31.0825 580.520545) scale(0.1 -0.1)">
       <use xlink:href="#DejaVuSans-35"/>
       <use xlink:href="#DejaVuSans-30" x="63.623047"/>
       <use xlink:href="#DejaVuSans-30" x="127.246094"/>
      </g>
     </g>
    </g>
    <g id="ytick_17">
     <g id="line2d_37">
      <g>
       <use xlink:href="#mcdb7018fbf" x="57.17" y="547.402653" style="stroke: #000000; stroke-width: 0.8"/>
      </g>
     </g>
     <g id="text_40">
      <!-- 1000 -->
      <g transform="translate(24.72 551.201871) scale(0.1 -0.1)">
       <use xlink:href="#DejaVuSans-31"/>
       <use xlink:href="#DejaVuSans-30" x="63.623047"/>
       <use xlink:href="#DejaVuSans-30" x="127.246094"/>
       <use xlink:href="#DejaVuSans-30" x="190.869141"/>
      </g>
     </g>
    </g>
    <g id="ytick_18">
     <g id="line2d_38">
      <g>
       <use xlink:href="#mcdb7018fbf" x="57.17" y="518.083979" style="stroke: #000000; stroke-width: 0.8"/>
      </g>
     </g>
     <g id="text_41">
      <!-- 1500 -->
      <g transform="translate(24.72 521.883198) scale(0.1 -0.1)">
       <use xlink:href="#DejaVuSans-31"/>
       <use xlink:href="#DejaVuSans-35" x="63.623047"/>
       <use xlink:href="#DejaVuSans-30" x="127.246094"/>
       <use xlink:href="#DejaVuSans-30" x="190.869141"/>
      </g>
     </g>
    </g>
    <g id="ytick_19">
     <g id="line2d_39">
      <g>
       <use xlink:href="#mcdb7018fbf" x="57.17" y="488.765305" style="stroke: #000000; stroke-width: 0.8"/>
      </g>
     </g>
     <g id="text_42">
      <!-- 2000 -->
      <g transform="translate(24.72 492.564524) scale(0.1 -0.1)">
       <use xlink:href="#DejaVuSans-32"/>
       <use xlink:href="#DejaVuSans-30" x="63.623047"/>
       <use xlink:href="#DejaVuSans-30" x="127.246094"/>
       <use xlink:href="#DejaVuSans-30" x="190.869141"/>
      </g>
     </g>
    </g>
    <g id="ytick_20">
     <g id="line2d_40">
      <g>
       <use xlink:href="#mcdb7018fbf" x="57.17" y="459.446631" style="stroke: #000000; stroke-width: 0.8"/>
      </g>
     </g>
     <g id="text_43">
      <!-- 2500 -->
      <g transform="translate(24.72 463.24585) scale(0.1 -0.1)">
       <use xlink:href="#DejaVuSans-32"/>
       <use xlink:href="#DejaVuSans-35" x="63.623047"/>
       <use xlink:href="#DejaVuSans-30" x="127.246094"/>
       <use xlink:href="#DejaVuSans-30" x="190.869141"/>
      </g>
     </g>
    </g>
    <g id="ytick_21">
     <g id="line2d_41">
      <g>
       <use xlink:href="#mcdb7018fbf" x="57.17" y="430.127958" style="stroke: #000000; stroke-width: 0.8"/>
      </g>
     </g>
     <g id="text_44">
      <!-- 3000 -->
      <g transform="translate(24.72 433.927176) scale(0.1 -0.1)">
       <use xlink:href="#DejaVuSans-33"/>
       <use xlink:href="#DejaVuSans-30" x="63.623047"/>
       <use xlink:href="#DejaVuSans-30" x="127.246094"/>
       <use xlink:href="#DejaVuSans-30" x="190.869141"/>
      </g>
     </g>
    </g>
    <g id="text_45">
     <!-- Pixel Frequency -->
     <g transform="translate(18.640313 555.274446) rotate(-90) scale(0.1 -0.1)">
      <use xlink:href="#DejaVuSans-50"/>
      <use xlink:href="#DejaVuSans-69" x="58.052734"/>
      <use xlink:href="#DejaVuSans-78" x="85.835938"/>
      <use xlink:href="#DejaVuSans-65" x="141.890625"/>
      <use xlink:href="#DejaVuSans-6c" x="203.414062"/>
      <use xlink:href="#DejaVuSans-20" x="231.197266"/>
      <use xlink:href="#DejaVuSans-46" x="262.984375"/>
      <use xlink:href="#DejaVuSans-72" x="313.253906"/>
      <use xlink:href="#DejaVuSans-65" x="352.117188"/>
      <use xlink:href="#DejaVuSans-71" x="413.640625"/>
      <use xlink:href="#DejaVuSans-75" x="477.117188"/>
      <use xlink:href="#DejaVuSans-65" x="540.496094"/>
      <use xlink:href="#DejaVuSans-6e" x="602.019531"/>
      <use xlink:href="#DejaVuSans-63" x="665.398438"/>
      <use xlink:href="#DejaVuSans-79" x="720.378906"/>
     </g>
    </g>
   </g>
   <g id="line2d_42">
    <path d="M 57.17 606.04 
L 68.115966 605.981363 
L 68.957963 605.922725 
L 69.799961 605.981363 
L 70.641958 605.688176 
L 71.483955 605.219077 
L 72.325953 603.518594 
L 73.16795 600.058991 
L 74.009948 595.192091 
L 74.851945 584.81328 
L 75.693942 570.44713 
L 76.53594 544.763972 
L 78.219934 478.210583 
L 79.061932 459.270719 
L 79.903929 460.326192 
L 80.745927 463.492608 
L 81.587924 464.841267 
L 82.429921 459.857093 
L 83.271919 450.944216 
L 84.113916 447.015514 
L 84.955913 447.601887 
L 85.797911 451.471952 
L 86.639908 470.705002 
L 87.481906 476.568737 
L 88.323903 485.071152 
L 89.1659 491.228074 
L 90.007898 499.49594 
L 91.691892 525.003186 
L 92.53389 538.958875 
L 93.375887 549.396322 
L 94.217885 553.970035 
L 95.901879 568.218911 
L 96.743877 571.150778 
L 98.427871 582.291874 
L 100.111866 591.146114 
L 100.953864 594.312531 
L 102.637858 599.062156 
L 103.479856 599.17943 
L 104.321853 600.528089 
L 105.16385 601.524924 
L 106.847845 602.521759 
L 107.689843 603.870418 
L 108.53184 603.753143 
L 109.373837 604.456792 
L 110.215835 604.749978 
L 111.057832 604.867253 
L 111.899829 605.336352 
L 112.741827 605.043165 
L 113.583824 605.101802 
L 114.425822 605.277714 
L 115.267819 605.043165 
L 116.109816 605.688176 
L 116.951814 605.570901 
L 117.793811 605.981363 
L 118.635808 605.570901 
L 119.477806 605.922725 
L 120.319803 605.746813 
L 121.161801 605.746813 
L 122.003798 605.864088 
L 122.845795 605.805451 
L 124.52979 605.981363 
L 125.371787 605.864088 
L 127.055782 606.04 
L 127.89778 605.922725 
L 128.739777 605.981363 
L 129.581774 605.922725 
L 130.423772 605.981363 
L 132.107766 605.922725 
L 133.791761 605.981363 
L 135.475756 606.04 
L 136.317753 605.981363 
L 137.159751 606.04 
L 138.001748 605.981363 
L 139.685743 606.04 
L 271.879331 606.04 
L 271.879331 606.04 
" clip-path="url(#p166d6953a6)" style="fill: none; stroke: #0000ff; stroke-width: 1.5; stroke-linecap: square"/>
   </g>
   <g id="patch_13">
    <path d="M 57.17 606.04 
L 57.17 426.55108 
" style="fill: none; stroke: #000000; stroke-width: 0.8; stroke-linejoin: miter; stroke-linecap: square"/>
   </g>
   <g id="patch_14">
    <path d="M 272.721328 606.04 
L 272.721328 426.55108 
" style="fill: none; stroke: #000000; stroke-width: 0.8; stroke-linejoin: miter; stroke-linecap: square"/>
   </g>
   <g id="patch_15">
    <path d="M 57.17 606.04 
L 272.721328 606.04 
" style="fill: none; stroke: #000000; stroke-width: 0.8; stroke-linejoin: miter; stroke-linecap: square"/>
   </g>
   <g id="patch_16">
    <path d="M 57.17 426.55108 
L 272.721328 426.55108 
" style="fill: none; stroke: #000000; stroke-width: 0.8; stroke-linejoin: miter; stroke-linecap: square"/>
   </g>
   <g id="text_46">
    <!-- Blue Channel  -->
    <g transform="translate(189.272578 440.55108) scale(0.12 -0.12)">
     <defs>
      <path id="DejaVuSans-42" d="M 1259 2228 
L 1259 519 
L 2272 519 
Q 2781 519 3026 730 
Q 3272 941 3272 1375 
Q 3272 1813 3026 2020 
Q 2781 2228 2272 2228 
L 1259 2228 
z
M 1259 4147 
L 1259 2741 
L 2194 2741 
Q 2656 2741 2882 2914 
Q 3109 3088 3109 3444 
Q 3109 3797 2882 3972 
Q 2656 4147 2194 4147 
L 1259 4147 
z
M 628 4666 
L 2241 4666 
Q 2963 4666 3353 4366 
Q 3744 4066 3744 3513 
Q 3744 3084 3544 2831 
Q 3344 2578 2956 2516 
Q 3422 2416 3680 2098 
Q 3938 1781 3938 1306 
Q 3938 681 3513 340 
Q 3088 0 2303 0 
L 628 0 
L 628 4666 
z
" transform="scale(0.015625)"/>
     </defs>
     <use xlink:href="#DejaVuSans-42"/>
     <use xlink:href="#DejaVuSans-6c" x="68.603516"/>
     <use xlink:href="#DejaVuSans-75" x="96.386719"/>
     <use xlink:href="#DejaVuSans-65" x="159.765625"/>
     <use xlink:href="#DejaVuSans-20" x="221.289062"/>
     <use xlink:href="#DejaVuSans-43" x="253.076172"/>
     <use xlink:href="#DejaVuSans-68" x="322.900391"/>
     <use xlink:href="#DejaVuSans-61" x="386.279297"/>
     <use xlink:href="#DejaVuSans-6e" x="447.558594"/>
     <use xlink:href="#DejaVuSans-6e" x="510.9375"/>
     <use xlink:href="#DejaVuSans-65" x="574.316406"/>
     <use xlink:href="#DejaVuSans-6c" x="635.839844"/>
     <use xlink:href="#DejaVuSans-20" x="663.623047"/>
    </g>
   </g>
  </g>
 </g>
 <defs>
  <clipPath id="p15f03abd87">
   <rect x="57.17" y="11.137746" width="215.551328" height="179.48892"/>
  </clipPath>
  <clipPath id="pde9daf75bc">
   <rect x="57.17" y="218.844413" width="215.551328" height="179.48892"/>
  </clipPath>
  <clipPath id="p166d6953a6">
   <rect x="57.17" y="426.55108" width="215.551328" height="179.48892"/>
  </clipPath>
 </defs>
</svg>
