<?xml version="1.0" encoding="utf-8" standalone="no"?>
<!DOCTYPE svg PUBLIC "-//W3C//DTD SVG 1.1//EN"
  "http://www.w3.org/Graphics/SVG/1.1/DTD/svg11.dtd">
<svg xmlns:xlink="http://www.w3.org/1999/xlink" width="288pt" height="648pt" viewBox="0 0 288 648" xmlns="http://www.w3.org/2000/svg" version="1.1">
 <metadata>
  <rdf:RDF xmlns:dc="http://purl.org/dc/elements/1.1/" xmlns:cc="http://creativecommons.org/ns#" xmlns:rdf="http://www.w3.org/1999/02/22-rdf-syntax-ns#">
   <cc:Work>
    <dc:type rdf:resource="http://purl.org/dc/dcmitype/StillImage"/>
    <dc:date>2023-11-18T15:19:55.238526</dc:date>
    <dc:format>image/svg+xml</dc:format>
    <dc:creator>
     <cc:Agent>
      <dc:title>Matplotlib v3.8.0, https://matplotlib.org/</dc:title>
     </cc:Agent>
    </dc:creator>
   </cc:Work>
  </rdf:RDF>
 </metadata>
 <defs>
  <style type="text/css">*{stroke-linejoin: round; stroke-linecap: butt}</style>
 </defs>
 <g id="figure_1">
  <g id="patch_1">
   <path d="M 0 648 
L 288 648 
L 288 0 
L 0 0 
z
" style="fill: #ffffff"/>
  </g>
  <g id="axes_1">
   <g id="patch_2">
    <path d="M 57.17 190.626667 
L 272.721328 190.626667 
L 272.721328 10.8 
L 57.17 10.8 
z
" style="fill: #ffffff"/>
   </g>
   <g id="PolyCollection_1">
    <defs>
     <path id="m1a6ac5d49a" d="M 57.17 -457.373333 
L 57.17 -457.373333 
L 58.011997 -457.373333 
L 58.853995 -457.373333 
L 59.695992 -457.373333 
L 60.53799 -457.373333 
L 61.379987 -457.373333 
L 62.221984 -457.373333 
L 63.063982 -457.373333 
L 63.905979 -457.373333 
L 64.747976 -457.373333 
L 65.589974 -457.373333 
L 66.431971 -457.373333 
L 67.273969 -457.373333 
L 68.115966 -457.373333 
L 68.957963 -457.373333 
L 69.799961 -457.373333 
L 70.641958 -457.373333 
L 71.483955 -457.373333 
L 72.325953 -457.373333 
L 73.16795 -457.373333 
L 74.009948 -457.373333 
L 74.851945 -457.373333 
L 75.693942 -457.373333 
L 76.53594 -457.373333 
L 77.377937 -457.373333 
L 78.219934 -457.373333 
L 79.061932 -457.373333 
L 79.903929 -457.373333 
L 80.745927 -457.373333 
L 81.587924 -457.373333 
L 82.429921 -457.373333 
L 83.271919 -457.373333 
L 84.113916 -457.373333 
L 84.955913 -457.373333 
L 85.797911 -457.373333 
L 86.639908 -457.373333 
L 87.481906 -457.373333 
L 88.323903 -457.373333 
L 89.1659 -457.373333 
L 90.007898 -457.373333 
L 90.849895 -457.394176 
L 91.691892 -457.43586 
L 92.53389 -457.498387 
L 93.375887 -457.540071 
L 94.217885 -457.685967 
L 95.059882 -457.873547 
L 95.901879 -458.019442 
L 96.743877 -458.415444 
L 97.585874 -458.853131 
L 98.427871 -459.978611 
L 99.269869 -461.375039 
L 100.111866 -465.335061 
L 100.953864 -471.775307 
L 101.795861 -481.591992 
L 102.637858 -496.202388 
L 103.479856 -511.979947 
L 104.321853 -530.050151 
L 105.16385 -543.555909 
L 106.005848 -555.686081 
L 106.847845 -557.707776 
L 107.689843 -552.163746 
L 108.53184 -541.700952 
L 109.373837 -526.173499 
L 110.215835 -514.16838 
L 111.057832 -498.474189 
L 111.899829 -487.30276 
L 112.741827 -478.903346 
L 113.583824 -472.859102 
L 114.425822 -468.690658 
L 115.267819 -467.023281 
L 116.109816 -464.85569 
L 116.951814 -464.209581 
L 117.793811 -463.521788 
L 118.635808 -462.854837 
L 119.477806 -462.146202 
L 120.319803 -461.916937 
L 121.161801 -460.770615 
L 122.003798 -461.333355 
L 122.845795 -460.332928 
L 123.687793 -460.207875 
L 124.52979 -460.43714 
L 125.371787 -459.665977 
L 126.213785 -460.124506 
L 127.055782 -459.749346 
L 127.89778 -459.290817 
L 128.739777 -459.061553 
L 129.581774 -459.457555 
L 130.423772 -458.728078 
L 131.265769 -459.103238 
L 132.107766 -458.686393 
L 132.949764 -458.873973 
L 133.791761 -458.790604 
L 134.633759 -458.540498 
L 135.475756 -458.811446 
L 136.317753 -458.540498 
L 137.159751 -458.311233 
L 138.001748 -458.436287 
L 138.843745 -458.394602 
L 139.685743 -458.477971 
L 140.52774 -458.56134 
L 141.369738 -458.123653 
L 142.211735 -458.207022 
L 143.053732 -458.248707 
L 143.89573 -458.227864 
L 144.737727 -458.019442 
L 145.579724 -458.123653 
L 146.421722 -458.081969 
L 147.263719 -457.9986 
L 148.105717 -457.831862 
L 148.947714 -458.207022 
L 149.789711 -457.936073 
L 150.631709 -457.852704 
L 151.473706 -457.9986 
L 152.315703 -457.852704 
L 153.157701 -457.790178 
L 153.999698 -457.936073 
L 154.841696 -457.748493 
L 155.683693 -457.748493 
L 156.52569 -457.831862 
L 157.367688 -457.769335 
L 158.209685 -457.915231 
L 159.051682 -457.644282 
L 159.89368 -457.685967 
L 160.735677 -457.769335 
L 161.577675 -457.706809 
L 162.419672 -457.685967 
L 163.261669 -457.790178 
L 164.103667 -457.748493 
L 164.945664 -457.665124 
L 165.787661 -457.706809 
L 166.629659 -457.644282 
L 167.471656 -457.644282 
L 168.313654 -457.560913 
L 169.155651 -457.581756 
L 169.997648 -457.602598 
L 170.839646 -457.62344 
L 171.681643 -457.519229 
L 172.52364 -457.498387 
L 173.365638 -457.62344 
L 174.207635 -457.581756 
L 175.049633 -457.498387 
L 175.89163 -457.519229 
L 176.733627 -457.581756 
L 177.575625 -457.602598 
L 178.417622 -457.456702 
L 179.259619 -457.456702 
L 180.101617 -457.498387 
L 180.943614 -457.540071 
L 181.785612 -457.477544 
L 182.627609 -457.415018 
L 183.469606 -457.456702 
L 184.311604 -457.43586 
L 185.153601 -457.560913 
L 185.995598 -457.456702 
L 186.837596 -457.477544 
L 187.679593 -457.43586 
L 188.521591 -457.477544 
L 189.363588 -457.43586 
L 190.205585 -457.456702 
L 191.047583 -457.415018 
L 191.88958 -457.498387 
L 192.731577 -457.394176 
L 193.573575 -457.498387 
L 194.415572 -457.415018 
L 195.25757 -457.43586 
L 196.099567 -457.43586 
L 196.941564 -457.498387 
L 197.783562 -457.394176 
L 198.625559 -457.498387 
L 199.467556 -457.456702 
L 200.309554 -457.415018 
L 201.151551 -457.415018 
L 201.993549 -457.456702 
L 202.835546 -457.456702 
L 203.677543 -457.415018 
L 204.519541 -457.415018 
L 205.361538 -457.394176 
L 206.203535 -457.373333 
L 207.045533 -457.394176 
L 207.88753 -457.394176 
L 208.729528 -457.456702 
L 209.571525 -457.373333 
L 210.413522 -457.43586 
L 211.25552 -457.43586 
L 212.097517 -457.415018 
L 212.939514 -457.373333 
L 213.781512 -457.394176 
L 214.623509 -457.477544 
L 215.465507 -457.394176 
L 216.307504 -457.373333 
L 217.149501 -457.415018 
L 217.991499 -457.394176 
L 218.833496 -457.394176 
L 219.675493 -457.394176 
L 220.517491 -457.373333 
L 221.359488 -457.394176 
L 222.201486 -457.43586 
L 223.043483 -457.415018 
L 223.88548 -457.43586 
L 224.727478 -457.415018 
L 225.569475 -457.415018 
L 226.411472 -457.373333 
L 227.25347 -457.373333 
L 228.095467 -457.415018 
L 228.937465 -457.373333 
L 229.779462 -457.43586 
L 230.621459 -457.373333 
L 231.463457 -457.415018 
L 232.305454 -457.373333 
L 233.147451 -457.373333 
L 233.989449 -457.456702 
L 234.831446 -457.373333 
L 235.673444 -457.456702 
L 236.515441 -457.415018 
L 237.357438 -457.394176 
L 238.199436 -457.415018 
L 239.041433 -457.373333 
L 239.88343 -457.394176 
L 240.725428 -457.394176 
L 241.567425 -457.373333 
L 242.409423 -457.373333 
L 243.25142 -457.373333 
L 244.093417 -457.373333 
L 244.935415 -457.373333 
L 245.777412 -457.373333 
L 246.619409 -457.394176 
L 247.461407 -457.373333 
L 248.303404 -457.415018 
L 249.145402 -457.373333 
L 249.987399 -457.373333 
L 250.829396 -457.373333 
L 251.671394 -457.373333 
L 252.513391 -457.394176 
L 253.355388 -457.373333 
L 254.197386 -457.394176 
L 255.039383 -457.373333 
L 255.881381 -457.373333 
L 256.723378 -457.373333 
L 257.565375 -457.373333 
L 258.407373 -457.394176 
L 259.24937 -457.394176 
L 260.091367 -457.373333 
L 260.933365 -457.394176 
L 261.775362 -457.373333 
L 262.61736 -457.373333 
L 263.459357 -457.373333 
L 264.301354 -457.373333 
L 265.143352 -457.373333 
L 265.985349 -457.373333 
L 266.827346 -457.373333 
L 267.669344 -457.373333 
L 268.511341 -457.373333 
L 269.353339 -457.373333 
L 270.195336 -457.373333 
L 271.037333 -457.373333 
L 271.879331 -457.373333 
L 271.879331 -457.373333 
L 271.879331 -457.373333 
L 271.037333 -457.373333 
L 270.195336 -457.373333 
L 269.353339 -457.373333 
L 268.511341 -457.373333 
L 267.669344 -457.373333 
L 266.827346 -457.373333 
L 265.985349 -457.373333 
L 265.143352 -457.373333 
L 264.301354 -457.373333 
L 263.459357 -457.373333 
L 262.61736 -457.373333 
L 261.775362 -457.373333 
L 260.933365 -457.373333 
L 260.091367 -457.373333 
L 259.24937 -457.373333 
L 258.407373 -457.373333 
L 257.565375 -457.373333 
L 256.723378 -457.373333 
L 255.881381 -457.373333 
L 255.039383 -457.373333 
L 254.197386 -457.373333 
L 253.355388 -457.373333 
L 252.513391 -457.373333 
L 251.671394 -457.373333 
L 250.829396 -457.373333 
L 249.987399 -457.373333 
L 249.145402 -457.373333 
L 248.303404 -457.373333 
L 247.461407 -457.373333 
L 246.619409 -457.373333 
L 245.777412 -457.373333 
L 244.935415 -457.373333 
L 244.093417 -457.373333 
L 243.25142 -457.373333 
L 242.409423 -457.373333 
L 241.567425 -457.373333 
L 240.725428 -457.373333 
L 239.88343 -457.373333 
L 239.041433 -457.373333 
L 238.199436 -457.373333 
L 237.357438 -457.373333 
L 236.515441 -457.373333 
L 235.673444 -457.373333 
L 234.831446 -457.373333 
L 233.989449 -457.373333 
L 233.147451 -457.373333 
L 232.305454 -457.373333 
L 231.463457 -457.373333 
L 230.621459 -457.373333 
L 229.779462 -457.373333 
L 228.937465 -457.373333 
L 228.095467 -457.373333 
L 227.25347 -457.373333 
L 226.411472 -457.373333 
L 225.569475 -457.373333 
L 224.727478 -457.373333 
L 223.88548 -457.373333 
L 223.043483 -457.373333 
L 222.201486 -457.373333 
L 221.359488 -457.373333 
L 220.517491 -457.373333 
L 219.675493 -457.373333 
L 218.833496 -457.373333 
L 217.991499 -457.373333 
L 217.149501 -457.373333 
L 216.307504 -457.373333 
L 215.465507 -457.373333 
L 214.623509 -457.373333 
L 213.781512 -457.373333 
L 212.939514 -457.373333 
L 212.097517 -457.373333 
L 211.25552 -457.373333 
L 210.413522 -457.373333 
L 209.571525 -457.373333 
L 208.729528 -457.373333 
L 207.88753 -457.373333 
L 207.045533 -457.373333 
L 206.203535 -457.373333 
L 205.361538 -457.373333 
L 204.519541 -457.373333 
L 203.677543 -457.373333 
L 202.835546 -457.373333 
L 201.993549 -457.373333 
L 201.151551 -457.373333 
L 200.309554 -457.373333 
L 199.467556 -457.373333 
L 198.625559 -457.373333 
L 197.783562 -457.373333 
L 196.941564 -457.373333 
L 196.099567 -457.373333 
L 195.25757 -457.373333 
L 194.415572 -457.373333 
L 193.573575 -457.373333 
L 192.731577 -457.373333 
L 191.88958 -457.373333 
L 191.047583 -457.373333 
L 190.205585 -457.373333 
L 189.363588 -457.373333 
L 188.521591 -457.373333 
L 187.679593 -457.373333 
L 186.837596 -457.373333 
L 185.995598 -457.373333 
L 185.153601 -457.373333 
L 184.311604 -457.373333 
L 183.469606 -457.373333 
L 182.627609 -457.373333 
L 181.785612 -457.373333 
L 180.943614 -457.373333 
L 180.101617 -457.373333 
L 179.259619 -457.373333 
L 178.417622 -457.373333 
L 177.575625 -457.373333 
L 176.733627 -457.373333 
L 175.89163 -457.373333 
L 175.049633 -457.373333 
L 174.207635 -457.373333 
L 173.365638 -457.373333 
L 172.52364 -457.373333 
L 171.681643 -457.373333 
L 170.839646 -457.373333 
L 169.997648 -457.373333 
L 169.155651 -457.373333 
L 168.313654 -457.373333 
L 167.471656 -457.373333 
L 166.629659 -457.373333 
L 165.787661 -457.373333 
L 164.945664 -457.373333 
L 164.103667 -457.373333 
L 163.261669 -457.373333 
L 162.419672 -457.373333 
L 161.577675 -457.373333 
L 160.735677 -457.373333 
L 159.89368 -457.373333 
L 159.051682 -457.373333 
L 158.209685 -457.373333 
L 157.367688 -457.373333 
L 156.52569 -457.373333 
L 155.683693 -457.373333 
L 154.841696 -457.373333 
L 153.999698 -457.373333 
L 153.157701 -457.373333 
L 152.315703 -457.373333 
L 151.473706 -457.373333 
L 150.631709 -457.373333 
L 149.789711 -457.373333 
L 148.947714 -457.373333 
L 148.105717 -457.373333 
L 147.263719 -457.373333 
L 146.421722 -457.373333 
L 145.579724 -457.373333 
L 144.737727 -457.373333 
L 143.89573 -457.373333 
L 143.053732 -457.373333 
L 142.211735 -457.373333 
L 141.369738 -457.373333 
L 140.52774 -457.373333 
L 139.685743 -457.373333 
L 138.843745 -457.373333 
L 138.001748 -457.373333 
L 137.159751 -457.373333 
L 136.317753 -457.373333 
L 135.475756 -457.373333 
L 134.633759 -457.373333 
L 133.791761 -457.373333 
L 132.949764 -457.373333 
L 132.107766 -457.373333 
L 131.265769 -457.373333 
L 130.423772 -457.373333 
L 129.581774 -457.373333 
L 128.739777 -457.373333 
L 127.89778 -457.373333 
L 127.055782 -457.373333 
L 126.213785 -457.373333 
L 125.371787 -457.373333 
L 124.52979 -457.373333 
L 123.687793 -457.373333 
L 122.845795 -457.373333 
L 122.003798 -457.373333 
L 121.161801 -457.373333 
L 120.319803 -457.373333 
L 119.477806 -457.373333 
L 118.635808 -457.373333 
L 117.793811 -457.373333 
L 116.951814 -457.373333 
L 116.109816 -457.373333 
L 115.267819 -457.373333 
L 114.425822 -457.373333 
L 113.583824 -457.373333 
L 112.741827 -457.373333 
L 111.899829 -457.373333 
L 111.057832 -457.373333 
L 110.215835 -457.373333 
L 109.373837 -457.373333 
L 108.53184 -457.373333 
L 107.689843 -457.373333 
L 106.847845 -457.373333 
L 106.005848 -457.373333 
L 105.16385 -457.373333 
L 104.321853 -457.373333 
L 103.479856 -457.373333 
L 102.637858 -457.373333 
L 101.795861 -457.373333 
L 100.953864 -457.373333 
L 100.111866 -457.373333 
L 99.269869 -457.373333 
L 98.427871 -457.373333 
L 97.585874 -457.373333 
L 96.743877 -457.373333 
L 95.901879 -457.373333 
L 95.059882 -457.373333 
L 94.217885 -457.373333 
L 93.375887 -457.373333 
L 92.53389 -457.373333 
L 91.691892 -457.373333 
L 90.849895 -457.373333 
L 90.007898 -457.373333 
L 89.1659 -457.373333 
L 88.323903 -457.373333 
L 87.481906 -457.373333 
L 86.639908 -457.373333 
L 85.797911 -457.373333 
L 84.955913 -457.373333 
L 84.113916 -457.373333 
L 83.271919 -457.373333 
L 82.429921 -457.373333 
L 81.587924 -457.373333 
L 80.745927 -457.373333 
L 79.903929 -457.373333 
L 79.061932 -457.373333 
L 78.219934 -457.373333 
L 77.377937 -457.373333 
L 76.53594 -457.373333 
L 75.693942 -457.373333 
L 74.851945 -457.373333 
L 74.009948 -457.373333 
L 73.16795 -457.373333 
L 72.325953 -457.373333 
L 71.483955 -457.373333 
L 70.641958 -457.373333 
L 69.799961 -457.373333 
L 68.957963 -457.373333 
L 68.115966 -457.373333 
L 67.273969 -457.373333 
L 66.431971 -457.373333 
L 65.589974 -457.373333 
L 64.747976 -457.373333 
L 63.905979 -457.373333 
L 63.063982 -457.373333 
L 62.221984 -457.373333 
L 61.379987 -457.373333 
L 60.53799 -457.373333 
L 59.695992 -457.373333 
L 58.853995 -457.373333 
L 58.011997 -457.373333 
L 57.17 -457.373333 
z
" style="stroke: #ff0000; stroke-opacity: 0.4"/>
    </defs>
    <g clip-path="url(#p28f3ef4c3e)">
     <use xlink:href="#m1a6ac5d49a" x="0" y="648" style="fill: #ff0000; fill-opacity: 0.4; stroke: #ff0000; stroke-opacity: 0.4"/>
    </g>
   </g>
   <g id="matplotlib.axis_1">
    <g id="xtick_1">
     <g id="line2d_1">
      <defs>
       <path id="maf1aaff63f" d="M 0 0 
L 0 3.5 
" style="stroke: #000000; stroke-width: 0.8"/>
      </defs>
      <g>
       <use xlink:href="#maf1aaff63f" x="57.17" y="190.626667" style="stroke: #000000; stroke-width: 0.8"/>
      </g>
     </g>
     <g id="text_1">
      <!-- 0 -->
      <g transform="translate(53.98875 205.225104) scale(0.1 -0.1)">
       <defs>
        <path id="DejaVuSans-30" d="M 2034 4250 
Q 1547 4250 1301 3770 
Q 1056 3291 1056 2328 
Q 1056 1369 1301 889 
Q 1547 409 2034 409 
Q 2525 409 2770 889 
Q 3016 1369 3016 2328 
Q 3016 3291 2770 3770 
Q 2525 4250 2034 4250 
z
M 2034 4750 
Q 2819 4750 3233 4129 
Q 3647 3509 3647 2328 
Q 3647 1150 3233 529 
Q 2819 -91 2034 -91 
Q 1250 -91 836 529 
Q 422 1150 422 2328 
Q 422 3509 836 4129 
Q 1250 4750 2034 4750 
z
" transform="scale(0.015625)"/>
       </defs>
       <use xlink:href="#DejaVuSans-30"/>
      </g>
     </g>
    </g>
    <g id="xtick_2">
     <g id="line2d_2">
      <g>
       <use xlink:href="#maf1aaff63f" x="99.269869" y="190.626667" style="stroke: #000000; stroke-width: 0.8"/>
      </g>
     </g>
     <g id="text_2">
      <!-- 50 -->
      <g transform="translate(92.907369 205.225104) scale(0.1 -0.1)">
       <defs>
        <path id="DejaVuSans-35" d="M 691 4666 
L 3169 4666 
L 3169 4134 
L 1269 4134 
L 1269 2991 
Q 1406 3038 1543 3061 
Q 1681 3084 1819 3084 
Q 2600 3084 3056 2656 
Q 3513 2228 3513 1497 
Q 3513 744 3044 326 
Q 2575 -91 1722 -91 
Q 1428 -91 1123 -41 
Q 819 9 494 109 
L 494 744 
Q 775 591 1075 516 
Q 1375 441 1709 441 
Q 2250 441 2565 725 
Q 2881 1009 2881 1497 
Q 2881 1984 2565 2268 
Q 2250 2553 1709 2553 
Q 1456 2553 1204 2497 
Q 953 2441 691 2322 
L 691 4666 
z
" transform="scale(0.015625)"/>
       </defs>
       <use xlink:href="#DejaVuSans-35"/>
       <use xlink:href="#DejaVuSans-30" x="63.623047"/>
      </g>
     </g>
    </g>
    <g id="xtick_3">
     <g id="line2d_3">
      <g>
       <use xlink:href="#maf1aaff63f" x="141.369738" y="190.626667" style="stroke: #000000; stroke-width: 0.8"/>
      </g>
     </g>
     <g id="text_3">
      <!-- 100 -->
      <g transform="translate(131.825988 205.225104) scale(0.1 -0.1)">
       <defs>
        <path id="DejaVuSans-31" d="M 794 531 
L 1825 531 
L 1825 4091 
L 703 3866 
L 703 4441 
L 1819 4666 
L 2450 4666 
L 2450 531 
L 3481 531 
L 3481 0 
L 794 0 
L 794 531 
z
" transform="scale(0.015625)"/>
       </defs>
       <use xlink:href="#DejaVuSans-31"/>
       <use xlink:href="#DejaVuSans-30" x="63.623047"/>
       <use xlink:href="#DejaVuSans-30" x="127.246094"/>
      </g>
     </g>
    </g>
    <g id="xtick_4">
     <g id="line2d_4">
      <g>
       <use xlink:href="#maf1aaff63f" x="183.469606" y="190.626667" style="stroke: #000000; stroke-width: 0.8"/>
      </g>
     </g>
     <g id="text_4">
      <!-- 150 -->
      <g transform="translate(173.925856 205.225104) scale(0.1 -0.1)">
       <use xlink:href="#DejaVuSans-31"/>
       <use xlink:href="#DejaVuSans-35" x="63.623047"/>
       <use xlink:href="#DejaVuSans-30" x="127.246094"/>
      </g>
     </g>
    </g>
    <g id="xtick_5">
     <g id="line2d_5">
      <g>
       <use xlink:href="#maf1aaff63f" x="225.569475" y="190.626667" style="stroke: #000000; stroke-width: 0.8"/>
      </g>
     </g>
     <g id="text_5">
      <!-- 200 -->
      <g transform="translate(216.025725 205.225104) scale(0.1 -0.1)">
       <defs>
        <path id="DejaVuSans-32" d="M 1228 531 
L 3431 531 
L 3431 0 
L 469 0 
L 469 531 
Q 828 903 1448 1529 
Q 2069 2156 2228 2338 
Q 2531 2678 2651 2914 
Q 2772 3150 2772 3378 
Q 2772 3750 2511 3984 
Q 2250 4219 1831 4219 
Q 1534 4219 1204 4116 
Q 875 4013 500 3803 
L 500 4441 
Q 881 4594 1212 4672 
Q 1544 4750 1819 4750 
Q 2544 4750 2975 4387 
Q 3406 4025 3406 3419 
Q 3406 3131 3298 2873 
Q 3191 2616 2906 2266 
Q 2828 2175 2409 1742 
Q 1991 1309 1228 531 
z
" transform="scale(0.015625)"/>
       </defs>
       <use xlink:href="#DejaVuSans-32"/>
       <use xlink:href="#DejaVuSans-30" x="63.623047"/>
       <use xlink:href="#DejaVuSans-30" x="127.246094"/>
      </g>
     </g>
    </g>
    <g id="xtick_6">
     <g id="line2d_6">
      <g>
       <use xlink:href="#maf1aaff63f" x="267.669344" y="190.626667" style="stroke: #000000; stroke-width: 0.8"/>
      </g>
     </g>
     <g id="text_6">
      <!-- 250 -->
      <g transform="translate(258.125594 205.225104) scale(0.1 -0.1)">
       <use xlink:href="#DejaVuSans-32"/>
       <use xlink:href="#DejaVuSans-35" x="63.623047"/>
       <use xlink:href="#DejaVuSans-30" x="127.246094"/>
      </g>
     </g>
    </g>
   </g>
   <g id="matplotlib.axis_2">
    <g id="ytick_1">
     <g id="line2d_7">
      <defs>
       <path id="m1c1259b40a" d="M 0 0 
L -3.5 0 
" style="stroke: #000000; stroke-width: 0.8"/>
      </defs>
      <g>
       <use xlink:href="#m1c1259b40a" x="57.17" y="190.626667" style="stroke: #000000; stroke-width: 0.8"/>
      </g>
     </g>
     <g id="text_7">
      <!-- 0 -->
      <g transform="translate(43.8075 194.425885) scale(0.1 -0.1)">
       <use xlink:href="#DejaVuSans-30"/>
      </g>
     </g>
    </g>
    <g id="ytick_2">
     <g id="line2d_8">
      <g>
       <use xlink:href="#m1c1259b40a" x="57.17" y="148.942228" style="stroke: #000000; stroke-width: 0.8"/>
      </g>
     </g>
     <g id="text_8">
      <!-- 2000 -->
      <g transform="translate(24.72 152.741447) scale(0.1 -0.1)">
       <use xlink:href="#DejaVuSans-32"/>
       <use xlink:href="#DejaVuSans-30" x="63.623047"/>
       <use xlink:href="#DejaVuSans-30" x="127.246094"/>
       <use xlink:href="#DejaVuSans-30" x="190.869141"/>
      </g>
     </g>
    </g>
    <g id="ytick_3">
     <g id="line2d_9">
      <g>
       <use xlink:href="#m1c1259b40a" x="57.17" y="107.25779" style="stroke: #000000; stroke-width: 0.8"/>
      </g>
     </g>
     <g id="text_9">
      <!-- 4000 -->
      <g transform="translate(24.72 111.057009) scale(0.1 -0.1)">
       <defs>
        <path id="DejaVuSans-34" d="M 2419 4116 
L 825 1625 
L 2419 1625 
L 2419 4116 
z
M 2253 4666 
L 3047 4666 
L 3047 1625 
L 3713 1625 
L 3713 1100 
L 3047 1100 
L 3047 0 
L 2419 0 
L 2419 1100 
L 313 1100 
L 313 1709 
L 2253 4666 
z
" transform="scale(0.015625)"/>
       </defs>
       <use xlink:href="#DejaVuSans-34"/>
       <use xlink:href="#DejaVuSans-30" x="63.623047"/>
       <use xlink:href="#DejaVuSans-30" x="127.246094"/>
       <use xlink:href="#DejaVuSans-30" x="190.869141"/>
      </g>
     </g>
    </g>
    <g id="ytick_4">
     <g id="line2d_10">
      <g>
       <use xlink:href="#m1c1259b40a" x="57.17" y="65.573352" style="stroke: #000000; stroke-width: 0.8"/>
      </g>
     </g>
     <g id="text_10">
      <!-- 6000 -->
      <g transform="translate(24.72 69.372571) scale(0.1 -0.1)">
       <defs>
        <path id="DejaVuSans-36" d="M 2113 2584 
Q 1688 2584 1439 2293 
Q 1191 2003 1191 1497 
Q 1191 994 1439 701 
Q 1688 409 2113 409 
Q 2538 409 2786 701 
Q 3034 994 3034 1497 
Q 3034 2003 2786 2293 
Q 2538 2584 2113 2584 
z
M 3366 4563 
L 3366 3988 
Q 3128 4100 2886 4159 
Q 2644 4219 2406 4219 
Q 1781 4219 1451 3797 
Q 1122 3375 1075 2522 
Q 1259 2794 1537 2939 
Q 1816 3084 2150 3084 
Q 2853 3084 3261 2657 
Q 3669 2231 3669 1497 
Q 3669 778 3244 343 
Q 2819 -91 2113 -91 
Q 1303 -91 875 529 
Q 447 1150 447 2328 
Q 447 3434 972 4092 
Q 1497 4750 2381 4750 
Q 2619 4750 2861 4703 
Q 3103 4656 3366 4563 
z
" transform="scale(0.015625)"/>
       </defs>
       <use xlink:href="#DejaVuSans-36"/>
       <use xlink:href="#DejaVuSans-30" x="63.623047"/>
       <use xlink:href="#DejaVuSans-30" x="127.246094"/>
       <use xlink:href="#DejaVuSans-30" x="190.869141"/>
      </g>
     </g>
    </g>
    <g id="ytick_5">
     <g id="line2d_11">
      <g>
       <use xlink:href="#m1c1259b40a" x="57.17" y="23.888914" style="stroke: #000000; stroke-width: 0.8"/>
      </g>
     </g>
     <g id="text_11">
      <!-- 8000 -->
      <g transform="translate(24.72 27.688132) scale(0.1 -0.1)">
       <defs>
        <path id="DejaVuSans-38" d="M 2034 2216 
Q 1584 2216 1326 1975 
Q 1069 1734 1069 1313 
Q 1069 891 1326 650 
Q 1584 409 2034 409 
Q 2484 409 2743 651 
Q 3003 894 3003 1313 
Q 3003 1734 2745 1975 
Q 2488 2216 2034 2216 
z
M 1403 2484 
Q 997 2584 770 2862 
Q 544 3141 544 3541 
Q 544 4100 942 4425 
Q 1341 4750 2034 4750 
Q 2731 4750 3128 4425 
Q 3525 4100 3525 3541 
Q 3525 3141 3298 2862 
Q 3072 2584 2669 2484 
Q 3125 2378 3379 2068 
Q 3634 1759 3634 1313 
Q 3634 634 3220 271 
Q 2806 -91 2034 -91 
Q 1263 -91 848 271 
Q 434 634 434 1313 
Q 434 1759 690 2068 
Q 947 2378 1403 2484 
z
M 1172 3481 
Q 1172 3119 1398 2916 
Q 1625 2713 2034 2713 
Q 2441 2713 2670 2916 
Q 2900 3119 2900 3481 
Q 2900 3844 2670 4047 
Q 2441 4250 2034 4250 
Q 1625 4250 1398 4047 
Q 1172 3844 1172 3481 
z
" transform="scale(0.015625)"/>
       </defs>
       <use xlink:href="#DejaVuSans-38"/>
       <use xlink:href="#DejaVuSans-30" x="63.623047"/>
       <use xlink:href="#DejaVuSans-30" x="127.246094"/>
       <use xlink:href="#DejaVuSans-30" x="190.869141"/>
      </g>
     </g>
    </g>
    <g id="text_12">
     <!-- Pixel Frequency -->
     <g transform="translate(18.640313 139.69224) rotate(-90) scale(0.1 -0.1)">
      <defs>
       <path id="DejaVuSans-50" d="M 1259 4147 
L 1259 2394 
L 2053 2394 
Q 2494 2394 2734 2622 
Q 2975 2850 2975 3272 
Q 2975 3691 2734 3919 
Q 2494 4147 2053 4147 
L 1259 4147 
z
M 628 4666 
L 2053 4666 
Q 2838 4666 3239 4311 
Q 3641 3956 3641 3272 
Q 3641 2581 3239 2228 
Q 2838 1875 2053 1875 
L 1259 1875 
L 1259 0 
L 628 0 
L 628 4666 
z
" transform="scale(0.015625)"/>
       <path id="DejaVuSans-69" d="M 603 3500 
L 1178 3500 
L 1178 0 
L 603 0 
L 603 3500 
z
M 603 4863 
L 1178 4863 
L 1178 4134 
L 603 4134 
L 603 4863 
z
" transform="scale(0.015625)"/>
       <path id="DejaVuSans-78" d="M 3513 3500 
L 2247 1797 
L 3578 0 
L 2900 0 
L 1881 1375 
L 863 0 
L 184 0 
L 1544 1831 
L 300 3500 
L 978 3500 
L 1906 2253 
L 2834 3500 
L 3513 3500 
z
" transform="scale(0.015625)"/>
       <path id="DejaVuSans-65" d="M 3597 1894 
L 3597 1613 
L 953 1613 
Q 991 1019 1311 708 
Q 1631 397 2203 397 
Q 2534 397 2845 478 
Q 3156 559 3463 722 
L 3463 178 
Q 3153 47 2828 -22 
Q 2503 -91 2169 -91 
Q 1331 -91 842 396 
Q 353 884 353 1716 
Q 353 2575 817 3079 
Q 1281 3584 2069 3584 
Q 2775 3584 3186 3129 
Q 3597 2675 3597 1894 
z
M 3022 2063 
Q 3016 2534 2758 2815 
Q 2500 3097 2075 3097 
Q 1594 3097 1305 2825 
Q 1016 2553 972 2059 
L 3022 2063 
z
" transform="scale(0.015625)"/>
       <path id="DejaVuSans-6c" d="M 603 4863 
L 1178 4863 
L 1178 0 
L 603 0 
L 603 4863 
z
" transform="scale(0.015625)"/>
       <path id="DejaVuSans-20" transform="scale(0.015625)"/>
       <path id="DejaVuSans-46" d="M 628 4666 
L 3309 4666 
L 3309 4134 
L 1259 4134 
L 1259 2759 
L 3109 2759 
L 3109 2228 
L 1259 2228 
L 1259 0 
L 628 0 
L 628 4666 
z
" transform="scale(0.015625)"/>
       <path id="DejaVuSans-72" d="M 2631 2963 
Q 2534 3019 2420 3045 
Q 2306 3072 2169 3072 
Q 1681 3072 1420 2755 
Q 1159 2438 1159 1844 
L 1159 0 
L 581 0 
L 581 3500 
L 1159 3500 
L 1159 2956 
Q 1341 3275 1631 3429 
Q 1922 3584 2338 3584 
Q 2397 3584 2469 3576 
Q 2541 3569 2628 3553 
L 2631 2963 
z
" transform="scale(0.015625)"/>
       <path id="DejaVuSans-71" d="M 947 1747 
Q 947 1113 1208 752 
Q 1469 391 1925 391 
Q 2381 391 2643 752 
Q 2906 1113 2906 1747 
Q 2906 2381 2643 2742 
Q 2381 3103 1925 3103 
Q 1469 3103 1208 2742 
Q 947 2381 947 1747 
z
M 2906 525 
Q 2725 213 2448 61 
Q 2172 -91 1784 -91 
Q 1150 -91 751 415 
Q 353 922 353 1747 
Q 353 2572 751 3078 
Q 1150 3584 1784 3584 
Q 2172 3584 2448 3432 
Q 2725 3281 2906 2969 
L 2906 3500 
L 3481 3500 
L 3481 -1331 
L 2906 -1331 
L 2906 525 
z
" transform="scale(0.015625)"/>
       <path id="DejaVuSans-75" d="M 544 1381 
L 544 3500 
L 1119 3500 
L 1119 1403 
Q 1119 906 1312 657 
Q 1506 409 1894 409 
Q 2359 409 2629 706 
Q 2900 1003 2900 1516 
L 2900 3500 
L 3475 3500 
L 3475 0 
L 2900 0 
L 2900 538 
Q 2691 219 2414 64 
Q 2138 -91 1772 -91 
Q 1169 -91 856 284 
Q 544 659 544 1381 
z
M 1991 3584 
L 1991 3584 
z
" transform="scale(0.015625)"/>
       <path id="DejaVuSans-6e" d="M 3513 2113 
L 3513 0 
L 2938 0 
L 2938 2094 
Q 2938 2591 2744 2837 
Q 2550 3084 2163 3084 
Q 1697 3084 1428 2787 
Q 1159 2491 1159 1978 
L 1159 0 
L 581 0 
L 581 3500 
L 1159 3500 
L 1159 2956 
Q 1366 3272 1645 3428 
Q 1925 3584 2291 3584 
Q 2894 3584 3203 3211 
Q 3513 2838 3513 2113 
z
" transform="scale(0.015625)"/>
       <path id="DejaVuSans-63" d="M 3122 3366 
L 3122 2828 
Q 2878 2963 2633 3030 
Q 2388 3097 2138 3097 
Q 1578 3097 1268 2742 
Q 959 2388 959 1747 
Q 959 1106 1268 751 
Q 1578 397 2138 397 
Q 2388 397 2633 464 
Q 2878 531 3122 666 
L 3122 134 
Q 2881 22 2623 -34 
Q 2366 -91 2075 -91 
Q 1284 -91 818 406 
Q 353 903 353 1747 
Q 353 2603 823 3093 
Q 1294 3584 2113 3584 
Q 2378 3584 2631 3529 
Q 2884 3475 3122 3366 
z
" transform="scale(0.015625)"/>
       <path id="DejaVuSans-79" d="M 2059 -325 
Q 1816 -950 1584 -1140 
Q 1353 -1331 966 -1331 
L 506 -1331 
L 506 -850 
L 844 -850 
Q 1081 -850 1212 -737 
Q 1344 -625 1503 -206 
L 1606 56 
L 191 3500 
L 800 3500 
L 1894 763 
L 2988 3500 
L 3597 3500 
L 2059 -325 
z
" transform="scale(0.015625)"/>
      </defs>
      <use xlink:href="#DejaVuSans-50"/>
      <use xlink:href="#DejaVuSans-69" x="58.052734"/>
      <use xlink:href="#DejaVuSans-78" x="85.835938"/>
      <use xlink:href="#DejaVuSans-65" x="141.890625"/>
      <use xlink:href="#DejaVuSans-6c" x="203.414062"/>
      <use xlink:href="#DejaVuSans-20" x="231.197266"/>
      <use xlink:href="#DejaVuSans-46" x="262.984375"/>
      <use xlink:href="#DejaVuSans-72" x="313.253906"/>
      <use xlink:href="#DejaVuSans-65" x="352.117188"/>
      <use xlink:href="#DejaVuSans-71" x="413.640625"/>
      <use xlink:href="#DejaVuSans-75" x="477.117188"/>
      <use xlink:href="#DejaVuSans-65" x="540.496094"/>
      <use xlink:href="#DejaVuSans-6e" x="602.019531"/>
      <use xlink:href="#DejaVuSans-63" x="665.398438"/>
      <use xlink:href="#DejaVuSans-79" x="720.378906"/>
     </g>
    </g>
   </g>
   <g id="line2d_12">
    <path d="M 57.17 190.626667 
L 91.691892 190.56414 
L 94.217885 190.314033 
L 95.901879 189.980558 
L 97.585874 189.146869 
L 98.427871 188.021389 
L 99.269869 186.624961 
L 100.111866 182.664939 
L 100.953864 176.224693 
L 101.795861 166.408008 
L 103.479856 136.020053 
L 104.321853 117.949849 
L 106.005848 92.313919 
L 106.847845 90.292224 
L 107.689843 95.836254 
L 108.53184 106.299048 
L 109.373837 121.826501 
L 110.215835 133.83162 
L 111.057832 149.525811 
L 111.899829 160.69724 
L 112.741827 169.096654 
L 113.583824 175.140898 
L 114.425822 179.309342 
L 115.267819 180.976719 
L 116.109816 183.14431 
L 119.477806 185.853798 
L 120.319803 186.083063 
L 121.161801 187.229385 
L 122.003798 186.666645 
L 122.845795 187.667072 
L 123.687793 187.792125 
L 124.52979 187.56286 
L 125.371787 188.334023 
L 126.213785 187.875494 
L 128.739777 188.938447 
L 129.581774 188.542445 
L 130.423772 189.271922 
L 131.265769 188.896762 
L 132.107766 189.313607 
L 132.949764 189.126027 
L 133.791761 189.209396 
L 134.633759 189.459502 
L 135.475756 189.188554 
L 137.159751 189.688767 
L 138.001748 189.563713 
L 138.843745 189.605398 
L 140.52774 189.43866 
L 141.369738 189.876347 
L 143.053732 189.751293 
L 143.89573 189.772136 
L 144.737727 189.980558 
L 145.579724 189.876347 
L 147.263719 190.0014 
L 148.105717 190.168138 
L 148.947714 189.792978 
L 149.789711 190.063927 
L 150.631709 190.147296 
L 151.473706 190.0014 
L 153.157701 190.209822 
L 153.999698 190.063927 
L 154.841696 190.251507 
L 157.367688 190.230665 
L 158.209685 190.084769 
L 159.051682 190.355718 
L 161.577675 190.293191 
L 162.419672 190.314033 
L 163.261669 190.209822 
L 169.155651 190.418244 
L 170.839646 190.37656 
L 172.52364 190.501613 
L 173.365638 190.37656 
L 175.89163 190.480771 
L 177.575625 190.397402 
L 178.417622 190.543298 
L 271.879331 190.626667 
L 271.879331 190.626667 
" clip-path="url(#p28f3ef4c3e)" style="fill: none; stroke: #ff0000; stroke-width: 1.5; stroke-linecap: square"/>
   </g>
   <g id="patch_3">
    <path d="M 57.17 190.626667 
L 57.17 10.8 
" style="fill: none; stroke: #000000; stroke-width: 0.8; stroke-linejoin: miter; stroke-linecap: square"/>
   </g>
   <g id="patch_4">
    <path d="M 272.721328 190.626667 
L 272.721328 10.8 
" style="fill: none; stroke: #000000; stroke-width: 0.8; stroke-linejoin: miter; stroke-linecap: square"/>
   </g>
   <g id="patch_5">
    <path d="M 57.17 190.626667 
L 272.721328 190.626667 
" style="fill: none; stroke: #000000; stroke-width: 0.8; stroke-linejoin: miter; stroke-linecap: square"/>
   </g>
   <g id="patch_6">
    <path d="M 57.17 10.8 
L 272.721328 10.8 
" style="fill: none; stroke: #000000; stroke-width: 0.8; stroke-linejoin: miter; stroke-linecap: square"/>
   </g>
   <g id="text_13">
    <!-- Red Channel  -->
    <g transform="translate(193.028203 24.8) scale(0.12 -0.12)">
     <defs>
      <path id="DejaVuSans-52" d="M 2841 2188 
Q 3044 2119 3236 1894 
Q 3428 1669 3622 1275 
L 4263 0 
L 3584 0 
L 2988 1197 
Q 2756 1666 2539 1819 
Q 2322 1972 1947 1972 
L 1259 1972 
L 1259 0 
L 628 0 
L 628 4666 
L 2053 4666 
Q 2853 4666 3247 4331 
Q 3641 3997 3641 3322 
Q 3641 2881 3436 2590 
Q 3231 2300 2841 2188 
z
M 1259 4147 
L 1259 2491 
L 2053 2491 
Q 2509 2491 2742 2702 
Q 2975 2913 2975 3322 
Q 2975 3731 2742 3939 
Q 2509 4147 2053 4147 
L 1259 4147 
z
" transform="scale(0.015625)"/>
      <path id="DejaVuSans-64" d="M 2906 2969 
L 2906 4863 
L 3481 4863 
L 3481 0 
L 2906 0 
L 2906 525 
Q 2725 213 2448 61 
Q 2172 -91 1784 -91 
Q 1150 -91 751 415 
Q 353 922 353 1747 
Q 353 2572 751 3078 
Q 1150 3584 1784 3584 
Q 2172 3584 2448 3432 
Q 2725 3281 2906 2969 
z
M 947 1747 
Q 947 1113 1208 752 
Q 1469 391 1925 391 
Q 2381 391 2643 752 
Q 2906 1113 2906 1747 
Q 2906 2381 2643 2742 
Q 2381 3103 1925 3103 
Q 1469 3103 1208 2742 
Q 947 2381 947 1747 
z
" transform="scale(0.015625)"/>
      <path id="DejaVuSans-43" d="M 4122 4306 
L 4122 3641 
Q 3803 3938 3442 4084 
Q 3081 4231 2675 4231 
Q 1875 4231 1450 3742 
Q 1025 3253 1025 2328 
Q 1025 1406 1450 917 
Q 1875 428 2675 428 
Q 3081 428 3442 575 
Q 3803 722 4122 1019 
L 4122 359 
Q 3791 134 3420 21 
Q 3050 -91 2638 -91 
Q 1578 -91 968 557 
Q 359 1206 359 2328 
Q 359 3453 968 4101 
Q 1578 4750 2638 4750 
Q 3056 4750 3426 4639 
Q 3797 4528 4122 4306 
z
" transform="scale(0.015625)"/>
      <path id="DejaVuSans-68" d="M 3513 2113 
L 3513 0 
L 2938 0 
L 2938 2094 
Q 2938 2591 2744 2837 
Q 2550 3084 2163 3084 
Q 1697 3084 1428 2787 
Q 1159 2491 1159 1978 
L 1159 0 
L 581 0 
L 581 4863 
L 1159 4863 
L 1159 2956 
Q 1366 3272 1645 3428 
Q 1925 3584 2291 3584 
Q 2894 3584 3203 3211 
Q 3513 2838 3513 2113 
z
" transform="scale(0.015625)"/>
      <path id="DejaVuSans-61" d="M 2194 1759 
Q 1497 1759 1228 1600 
Q 959 1441 959 1056 
Q 959 750 1161 570 
Q 1363 391 1709 391 
Q 2188 391 2477 730 
Q 2766 1069 2766 1631 
L 2766 1759 
L 2194 1759 
z
M 3341 1997 
L 3341 0 
L 2766 0 
L 2766 531 
Q 2569 213 2275 61 
Q 1981 -91 1556 -91 
Q 1019 -91 701 211 
Q 384 513 384 1019 
Q 384 1609 779 1909 
Q 1175 2209 1959 2209 
L 2766 2209 
L 2766 2266 
Q 2766 2663 2505 2880 
Q 2244 3097 1772 3097 
Q 1472 3097 1187 3025 
Q 903 2953 641 2809 
L 641 3341 
Q 956 3463 1253 3523 
Q 1550 3584 1831 3584 
Q 2591 3584 2966 3190 
Q 3341 2797 3341 1997 
z
" transform="scale(0.015625)"/>
     </defs>
     <use xlink:href="#DejaVuSans-52"/>
     <use xlink:href="#DejaVuSans-65" x="64.982422"/>
     <use xlink:href="#DejaVuSans-64" x="126.505859"/>
     <use xlink:href="#DejaVuSans-20" x="189.982422"/>
     <use xlink:href="#DejaVuSans-43" x="221.769531"/>
     <use xlink:href="#DejaVuSans-68" x="291.59375"/>
     <use xlink:href="#DejaVuSans-61" x="354.972656"/>
     <use xlink:href="#DejaVuSans-6e" x="416.251953"/>
     <use xlink:href="#DejaVuSans-6e" x="479.630859"/>
     <use xlink:href="#DejaVuSans-65" x="543.009766"/>
     <use xlink:href="#DejaVuSans-6c" x="604.533203"/>
     <use xlink:href="#DejaVuSans-20" x="632.316406"/>
    </g>
   </g>
  </g>
  <g id="axes_2">
   <g id="patch_7">
    <path d="M 57.17 398.333333 
L 272.721328 398.333333 
L 272.721328 218.506667 
L 57.17 218.506667 
z
" style="fill: #ffffff"/>
   </g>
   <g id="PolyCollection_2">
    <defs>
     <path id="m5b141acc2c" d="M 57.17 -249.666667 
L 57.17 -249.666667 
L 58.011997 -249.666667 
L 58.853995 -249.666667 
L 59.695992 -249.666667 
L 60.53799 -249.666667 
L 61.379987 -249.666667 
L 62.221984 -249.666667 
L 63.063982 -249.666667 
L 63.905979 -249.666667 
L 64.747976 -249.666667 
L 65.589974 -249.666667 
L 66.431971 -249.666667 
L 67.273969 -249.666667 
L 68.115966 -249.666667 
L 68.957963 -249.666667 
L 69.799961 -249.666667 
L 70.641958 -249.666667 
L 71.483955 -249.666667 
L 72.325953 -249.666667 
L 73.16795 -249.666667 
L 74.009948 -249.666667 
L 74.851945 -249.666667 
L 75.693942 -249.666667 
L 76.53594 -249.666667 
L 77.377937 -249.666667 
L 78.219934 -249.666667 
L 79.061932 -249.666667 
L 79.903929 -249.666667 
L 80.745927 -249.666667 
L 81.587924 -249.666667 
L 82.429921 -249.666667 
L 83.271919 -249.666667 
L 84.113916 -249.666667 
L 84.955913 -249.666667 
L 85.797911 -249.666667 
L 86.639908 -249.666667 
L 87.481906 -249.666667 
L 88.323903 -249.666667 
L 89.1659 -249.687509 
L 90.007898 -249.666667 
L 90.849895 -249.812562 
L 91.691892 -249.833404 
L 92.53389 -250.000142 
L 93.375887 -250.208564 
L 94.217885 -250.479513 
L 95.059882 -250.9172 
L 95.901879 -252.063522 
L 96.743877 -254.335324 
L 97.585874 -257.628394 
L 98.427871 -264.381273 
L 99.269869 -271.134152 
L 100.111866 -284.535699 
L 100.953864 -301.397055 
L 101.795861 -321.301374 
L 102.637858 -335.119765 
L 103.479856 -343.685917 
L 104.321853 -345.165715 
L 105.16385 -342.810544 
L 106.005848 -331.555746 
L 106.847845 -317.862408 
L 107.689843 -304.419176 
L 108.53184 -290.26731 
L 109.373837 -280.909153 
L 110.215835 -274.510592 
L 111.057832 -267.06992 
L 111.899829 -262.880634 
L 112.741827 -260.108618 
L 113.583824 -258.086923 
L 114.425822 -256.64881 
L 115.267819 -255.773437 
L 116.109816 -255.273224 
L 116.951814 -255.398277 
L 117.793811 -254.898064 
L 118.635808 -254.77301 
L 119.477806 -253.418266 
L 120.319803 -253.439108 
L 121.161801 -252.626262 
L 122.003798 -252.376155 
L 122.845795 -252.813842 
L 123.687793 -252.355313 
L 124.52979 -251.980153 
L 125.371787 -252.522051 
L 126.213785 -252.126049 
L 127.055782 -251.771731 
L 127.89778 -251.375729 
L 128.739777 -251.417413 
L 129.581774 -251.188149 
L 130.423772 -251.271518 
L 131.265769 -251.10478 
L 132.107766 -251.063095 
L 132.949764 -250.792146 
L 133.791761 -250.792146 
L 134.633759 -251.10478 
L 135.475756 -250.771304 
L 136.317753 -250.687935 
L 137.159751 -251.125622 
L 138.001748 -250.771304 
L 138.843745 -250.604567 
L 139.685743 -250.812989 
L 140.52774 -250.333618 
L 141.369738 -250.583724 
L 142.211735 -250.396144 
L 143.053732 -250.833831 
L 143.89573 -250.35446 
L 144.737727 -250.500355 
L 145.579724 -250.250249 
L 146.421722 -250.104353 
L 147.263719 -250.396144 
L 148.105717 -250.500355 
L 148.947714 -250.479513 
L 149.789711 -250.375302 
L 150.631709 -250.521198 
L 151.473706 -250.229407 
L 152.315703 -250.208564 
L 153.157701 -250.208564 
L 153.999698 -250.146038 
L 154.841696 -250.146038 
L 155.683693 -250.229407 
L 156.52569 -250.146038 
L 157.367688 -250.16688 
L 158.209685 -250.020984 
L 159.051682 -250.041827 
L 159.89368 -250.229407 
L 160.735677 -250.104353 
L 161.577675 -250.062669 
L 162.419672 -250.062669 
L 163.261669 -250.125195 
L 164.103667 -250.062669 
L 164.945664 -250.041827 
L 165.787661 -250.062669 
L 166.629659 -250.062669 
L 167.471656 -249.895931 
L 168.313654 -250.000142 
L 169.155651 -250.083511 
L 169.997648 -249.9793 
L 170.839646 -249.937616 
L 171.681643 -249.916773 
L 172.52364 -249.9793 
L 173.365638 -249.916773 
L 174.207635 -249.875089 
L 175.049633 -249.875089 
L 175.89163 -249.875089 
L 176.733627 -249.937616 
L 177.575625 -249.833404 
L 178.417622 -249.79172 
L 179.259619 -249.937616 
L 180.101617 -250.041827 
L 180.943614 -249.875089 
L 181.785612 -250.062669 
L 182.627609 -250.020984 
L 183.469606 -249.916773 
L 184.311604 -249.833404 
L 185.153601 -249.895931 
L 185.995598 -249.812562 
L 186.837596 -249.895931 
L 187.679593 -249.79172 
L 188.521591 -249.750036 
L 189.363588 -249.770878 
L 190.205585 -249.770878 
L 191.047583 -249.875089 
L 191.88958 -249.833404 
L 192.731577 -249.750036 
L 193.573575 -249.750036 
L 194.415572 -249.79172 
L 195.25757 -249.750036 
L 196.099567 -249.708351 
L 196.941564 -249.79172 
L 197.783562 -249.812562 
L 198.625559 -249.812562 
L 199.467556 -249.833404 
L 200.309554 -249.854247 
L 201.151551 -249.729193 
L 201.993549 -249.750036 
L 202.835546 -249.750036 
L 203.677543 -249.770878 
L 204.519541 -249.750036 
L 205.361538 -249.750036 
L 206.203535 -249.729193 
L 207.045533 -249.750036 
L 207.88753 -249.687509 
L 208.729528 -249.833404 
L 209.571525 -249.708351 
L 210.413522 -249.833404 
L 211.25552 -249.729193 
L 212.097517 -249.729193 
L 212.939514 -249.708351 
L 213.781512 -249.687509 
L 214.623509 -249.750036 
L 215.465507 -249.708351 
L 216.307504 -249.729193 
L 217.149501 -249.729193 
L 217.991499 -249.750036 
L 218.833496 -249.750036 
L 219.675493 -249.750036 
L 220.517491 -249.770878 
L 221.359488 -249.770878 
L 222.201486 -249.708351 
L 223.043483 -249.708351 
L 223.88548 -249.729193 
L 224.727478 -249.770878 
L 225.569475 -249.729193 
L 226.411472 -249.687509 
L 227.25347 -249.687509 
L 228.095467 -249.687509 
L 228.937465 -249.708351 
L 229.779462 -249.770878 
L 230.621459 -249.729193 
L 231.463457 -249.708351 
L 232.305454 -249.687509 
L 233.147451 -249.750036 
L 233.989449 -249.666667 
L 234.831446 -249.708351 
L 235.673444 -249.708351 
L 236.515441 -249.729193 
L 237.357438 -249.708351 
L 238.199436 -249.687509 
L 239.041433 -249.708351 
L 239.88343 -249.687509 
L 240.725428 -249.666667 
L 241.567425 -249.729193 
L 242.409423 -249.708351 
L 243.25142 -249.708351 
L 244.093417 -249.729193 
L 244.935415 -249.708351 
L 245.777412 -249.687509 
L 246.619409 -249.729193 
L 247.461407 -249.666667 
L 248.303404 -249.708351 
L 249.145402 -249.729193 
L 249.987399 -249.687509 
L 250.829396 -249.708351 
L 251.671394 -249.687509 
L 252.513391 -249.687509 
L 253.355388 -249.729193 
L 254.197386 -249.666667 
L 255.039383 -249.666667 
L 255.881381 -249.666667 
L 256.723378 -249.687509 
L 257.565375 -249.666667 
L 258.407373 -249.687509 
L 259.24937 -249.666667 
L 260.091367 -249.729193 
L 260.933365 -249.666667 
L 261.775362 -249.666667 
L 262.61736 -249.687509 
L 263.459357 -249.666667 
L 264.301354 -249.687509 
L 265.143352 -249.687509 
L 265.985349 -249.666667 
L 266.827346 -249.666667 
L 267.669344 -249.666667 
L 268.511341 -249.666667 
L 269.353339 -249.666667 
L 270.195336 -249.666667 
L 271.037333 -249.666667 
L 271.879331 -249.666667 
L 271.879331 -249.666667 
L 271.879331 -249.666667 
L 271.037333 -249.666667 
L 270.195336 -249.666667 
L 269.353339 -249.666667 
L 268.511341 -249.666667 
L 267.669344 -249.666667 
L 266.827346 -249.666667 
L 265.985349 -249.666667 
L 265.143352 -249.666667 
L 264.301354 -249.666667 
L 263.459357 -249.666667 
L 262.61736 -249.666667 
L 261.775362 -249.666667 
L 260.933365 -249.666667 
L 260.091367 -249.666667 
L 259.24937 -249.666667 
L 258.407373 -249.666667 
L 257.565375 -249.666667 
L 256.723378 -249.666667 
L 255.881381 -249.666667 
L 255.039383 -249.666667 
L 254.197386 -249.666667 
L 253.355388 -249.666667 
L 252.513391 -249.666667 
L 251.671394 -249.666667 
L 250.829396 -249.666667 
L 249.987399 -249.666667 
L 249.145402 -249.666667 
L 248.303404 -249.666667 
L 247.461407 -249.666667 
L 246.619409 -249.666667 
L 245.777412 -249.666667 
L 244.935415 -249.666667 
L 244.093417 -249.666667 
L 243.25142 -249.666667 
L 242.409423 -249.666667 
L 241.567425 -249.666667 
L 240.725428 -249.666667 
L 239.88343 -249.666667 
L 239.041433 -249.666667 
L 238.199436 -249.666667 
L 237.357438 -249.666667 
L 236.515441 -249.666667 
L 235.673444 -249.666667 
L 234.831446 -249.666667 
L 233.989449 -249.666667 
L 233.147451 -249.666667 
L 232.305454 -249.666667 
L 231.463457 -249.666667 
L 230.621459 -249.666667 
L 229.779462 -249.666667 
L 228.937465 -249.666667 
L 228.095467 -249.666667 
L 227.25347 -249.666667 
L 226.411472 -249.666667 
L 225.569475 -249.666667 
L 224.727478 -249.666667 
L 223.88548 -249.666667 
L 223.043483 -249.666667 
L 222.201486 -249.666667 
L 221.359488 -249.666667 
L 220.517491 -249.666667 
L 219.675493 -249.666667 
L 218.833496 -249.666667 
L 217.991499 -249.666667 
L 217.149501 -249.666667 
L 216.307504 -249.666667 
L 215.465507 -249.666667 
L 214.623509 -249.666667 
L 213.781512 -249.666667 
L 212.939514 -249.666667 
L 212.097517 -249.666667 
L 211.25552 -249.666667 
L 210.413522 -249.666667 
L 209.571525 -249.666667 
L 208.729528 -249.666667 
L 207.88753 -249.666667 
L 207.045533 -249.666667 
L 206.203535 -249.666667 
L 205.361538 -249.666667 
L 204.519541 -249.666667 
L 203.677543 -249.666667 
L 202.835546 -249.666667 
L 201.993549 -249.666667 
L 201.151551 -249.666667 
L 200.309554 -249.666667 
L 199.467556 -249.666667 
L 198.625559 -249.666667 
L 197.783562 -249.666667 
L 196.941564 -249.666667 
L 196.099567 -249.666667 
L 195.25757 -249.666667 
L 194.415572 -249.666667 
L 193.573575 -249.666667 
L 192.731577 -249.666667 
L 191.88958 -249.666667 
L 191.047583 -249.666667 
L 190.205585 -249.666667 
L 189.363588 -249.666667 
L 188.521591 -249.666667 
L 187.679593 -249.666667 
L 186.837596 -249.666667 
L 185.995598 -249.666667 
L 185.153601 -249.666667 
L 184.311604 -249.666667 
L 183.469606 -249.666667 
L 182.627609 -249.666667 
L 181.785612 -249.666667 
L 180.943614 -249.666667 
L 180.101617 -249.666667 
L 179.259619 -249.666667 
L 178.417622 -249.666667 
L 177.575625 -249.666667 
L 176.733627 -249.666667 
L 175.89163 -249.666667 
L 175.049633 -249.666667 
L 174.207635 -249.666667 
L 173.365638 -249.666667 
L 172.52364 -249.666667 
L 171.681643 -249.666667 
L 170.839646 -249.666667 
L 169.997648 -249.666667 
L 169.155651 -249.666667 
L 168.313654 -249.666667 
L 167.471656 -249.666667 
L 166.629659 -249.666667 
L 165.787661 -249.666667 
L 164.945664 -249.666667 
L 164.103667 -249.666667 
L 163.261669 -249.666667 
L 162.419672 -249.666667 
L 161.577675 -249.666667 
L 160.735677 -249.666667 
L 159.89368 -249.666667 
L 159.051682 -249.666667 
L 158.209685 -249.666667 
L 157.367688 -249.666667 
L 156.52569 -249.666667 
L 155.683693 -249.666667 
L 154.841696 -249.666667 
L 153.999698 -249.666667 
L 153.157701 -249.666667 
L 152.315703 -249.666667 
L 151.473706 -249.666667 
L 150.631709 -249.666667 
L 149.789711 -249.666667 
L 148.947714 -249.666667 
L 148.105717 -249.666667 
L 147.263719 -249.666667 
L 146.421722 -249.666667 
L 145.579724 -249.666667 
L 144.737727 -249.666667 
L 143.89573 -249.666667 
L 143.053732 -249.666667 
L 142.211735 -249.666667 
L 141.369738 -249.666667 
L 140.52774 -249.666667 
L 139.685743 -249.666667 
L 138.843745 -249.666667 
L 138.001748 -249.666667 
L 137.159751 -249.666667 
L 136.317753 -249.666667 
L 135.475756 -249.666667 
L 134.633759 -249.666667 
L 133.791761 -249.666667 
L 132.949764 -249.666667 
L 132.107766 -249.666667 
L 131.265769 -249.666667 
L 130.423772 -249.666667 
L 129.581774 -249.666667 
L 128.739777 -249.666667 
L 127.89778 -249.666667 
L 127.055782 -249.666667 
L 126.213785 -249.666667 
L 125.371787 -249.666667 
L 124.52979 -249.666667 
L 123.687793 -249.666667 
L 122.845795 -249.666667 
L 122.003798 -249.666667 
L 121.161801 -249.666667 
L 120.319803 -249.666667 
L 119.477806 -249.666667 
L 118.635808 -249.666667 
L 117.793811 -249.666667 
L 116.951814 -249.666667 
L 116.109816 -249.666667 
L 115.267819 -249.666667 
L 114.425822 -249.666667 
L 113.583824 -249.666667 
L 112.741827 -249.666667 
L 111.899829 -249.666667 
L 111.057832 -249.666667 
L 110.215835 -249.666667 
L 109.373837 -249.666667 
L 108.53184 -249.666667 
L 107.689843 -249.666667 
L 106.847845 -249.666667 
L 106.005848 -249.666667 
L 105.16385 -249.666667 
L 104.321853 -249.666667 
L 103.479856 -249.666667 
L 102.637858 -249.666667 
L 101.795861 -249.666667 
L 100.953864 -249.666667 
L 100.111866 -249.666667 
L 99.269869 -249.666667 
L 98.427871 -249.666667 
L 97.585874 -249.666667 
L 96.743877 -249.666667 
L 95.901879 -249.666667 
L 95.059882 -249.666667 
L 94.217885 -249.666667 
L 93.375887 -249.666667 
L 92.53389 -249.666667 
L 91.691892 -249.666667 
L 90.849895 -249.666667 
L 90.007898 -249.666667 
L 89.1659 -249.666667 
L 88.323903 -249.666667 
L 87.481906 -249.666667 
L 86.639908 -249.666667 
L 85.797911 -249.666667 
L 84.955913 -249.666667 
L 84.113916 -249.666667 
L 83.271919 -249.666667 
L 82.429921 -249.666667 
L 81.587924 -249.666667 
L 80.745927 -249.666667 
L 79.903929 -249.666667 
L 79.061932 -249.666667 
L 78.219934 -249.666667 
L 77.377937 -249.666667 
L 76.53594 -249.666667 
L 75.693942 -249.666667 
L 74.851945 -249.666667 
L 74.009948 -249.666667 
L 73.16795 -249.666667 
L 72.325953 -249.666667 
L 71.483955 -249.666667 
L 70.641958 -249.666667 
L 69.799961 -249.666667 
L 68.957963 -249.666667 
L 68.115966 -249.666667 
L 67.273969 -249.666667 
L 66.431971 -249.666667 
L 65.589974 -249.666667 
L 64.747976 -249.666667 
L 63.905979 -249.666667 
L 63.063982 -249.666667 
L 62.221984 -249.666667 
L 61.379987 -249.666667 
L 60.53799 -249.666667 
L 59.695992 -249.666667 
L 58.853995 -249.666667 
L 58.011997 -249.666667 
L 57.17 -249.666667 
z
" style="stroke: #008000; stroke-opacity: 0.4"/>
    </defs>
    <g clip-path="url(#pc27bebb2a8)">
     <use xlink:href="#m5b141acc2c" x="0" y="648" style="fill: #008000; fill-opacity: 0.4; stroke: #008000; stroke-opacity: 0.4"/>
    </g>
   </g>
   <g id="matplotlib.axis_3">
    <g id="xtick_7">
     <g id="line2d_13">
      <g>
       <use xlink:href="#maf1aaff63f" x="57.17" y="398.333333" style="stroke: #000000; stroke-width: 0.8"/>
      </g>
     </g>
     <g id="text_14">
      <!-- 0 -->
      <g transform="translate(53.98875 412.931771) scale(0.1 -0.1)">
       <use xlink:href="#DejaVuSans-30"/>
      </g>
     </g>
    </g>
    <g id="xtick_8">
     <g id="line2d_14">
      <g>
       <use xlink:href="#maf1aaff63f" x="99.269869" y="398.333333" style="stroke: #000000; stroke-width: 0.8"/>
      </g>
     </g>
     <g id="text_15">
      <!-- 50 -->
      <g transform="translate(92.907369 412.931771) scale(0.1 -0.1)">
       <use xlink:href="#DejaVuSans-35"/>
       <use xlink:href="#DejaVuSans-30" x="63.623047"/>
      </g>
     </g>
    </g>
    <g id="xtick_9">
     <g id="line2d_15">
      <g>
       <use xlink:href="#maf1aaff63f" x="141.369738" y="398.333333" style="stroke: #000000; stroke-width: 0.8"/>
      </g>
     </g>
     <g id="text_16">
      <!-- 100 -->
      <g transform="translate(131.825988 412.931771) scale(0.1 -0.1)">
       <use xlink:href="#DejaVuSans-31"/>
       <use xlink:href="#DejaVuSans-30" x="63.623047"/>
       <use xlink:href="#DejaVuSans-30" x="127.246094"/>
      </g>
     </g>
    </g>
    <g id="xtick_10">
     <g id="line2d_16">
      <g>
       <use xlink:href="#maf1aaff63f" x="183.469606" y="398.333333" style="stroke: #000000; stroke-width: 0.8"/>
      </g>
     </g>
     <g id="text_17">
      <!-- 150 -->
      <g transform="translate(173.925856 412.931771) scale(0.1 -0.1)">
       <use xlink:href="#DejaVuSans-31"/>
       <use xlink:href="#DejaVuSans-35" x="63.623047"/>
       <use xlink:href="#DejaVuSans-30" x="127.246094"/>
      </g>
     </g>
    </g>
    <g id="xtick_11">
     <g id="line2d_17">
      <g>
       <use xlink:href="#maf1aaff63f" x="225.569475" y="398.333333" style="stroke: #000000; stroke-width: 0.8"/>
      </g>
     </g>
     <g id="text_18">
      <!-- 200 -->
      <g transform="translate(216.025725 412.931771) scale(0.1 -0.1)">
       <use xlink:href="#DejaVuSans-32"/>
       <use xlink:href="#DejaVuSans-30" x="63.623047"/>
       <use xlink:href="#DejaVuSans-30" x="127.246094"/>
      </g>
     </g>
    </g>
    <g id="xtick_12">
     <g id="line2d_18">
      <g>
       <use xlink:href="#maf1aaff63f" x="267.669344" y="398.333333" style="stroke: #000000; stroke-width: 0.8"/>
      </g>
     </g>
     <g id="text_19">
      <!-- 250 -->
      <g transform="translate(258.125594 412.931771) scale(0.1 -0.1)">
       <use xlink:href="#DejaVuSans-32"/>
       <use xlink:href="#DejaVuSans-35" x="63.623047"/>
       <use xlink:href="#DejaVuSans-30" x="127.246094"/>
      </g>
     </g>
    </g>
   </g>
   <g id="matplotlib.axis_4">
    <g id="ytick_6">
     <g id="line2d_19">
      <g>
       <use xlink:href="#m1c1259b40a" x="57.17" y="398.333333" style="stroke: #000000; stroke-width: 0.8"/>
      </g>
     </g>
     <g id="text_20">
      <!-- 0 -->
      <g transform="translate(43.8075 402.132552) scale(0.1 -0.1)">
       <use xlink:href="#DejaVuSans-30"/>
      </g>
     </g>
    </g>
    <g id="ytick_7">
     <g id="line2d_20">
      <g>
       <use xlink:href="#m1c1259b40a" x="57.17" y="356.648895" style="stroke: #000000; stroke-width: 0.8"/>
      </g>
     </g>
     <g id="text_21">
      <!-- 2000 -->
      <g transform="translate(24.72 360.448114) scale(0.1 -0.1)">
       <use xlink:href="#DejaVuSans-32"/>
       <use xlink:href="#DejaVuSans-30" x="63.623047"/>
       <use xlink:href="#DejaVuSans-30" x="127.246094"/>
       <use xlink:href="#DejaVuSans-30" x="190.869141"/>
      </g>
     </g>
    </g>
    <g id="ytick_8">
     <g id="line2d_21">
      <g>
       <use xlink:href="#m1c1259b40a" x="57.17" y="314.964457" style="stroke: #000000; stroke-width: 0.8"/>
      </g>
     </g>
     <g id="text_22">
      <!-- 4000 -->
      <g transform="translate(24.72 318.763676) scale(0.1 -0.1)">
       <use xlink:href="#DejaVuSans-34"/>
       <use xlink:href="#DejaVuSans-30" x="63.623047"/>
       <use xlink:href="#DejaVuSans-30" x="127.246094"/>
       <use xlink:href="#DejaVuSans-30" x="190.869141"/>
      </g>
     </g>
    </g>
    <g id="ytick_9">
     <g id="line2d_22">
      <g>
       <use xlink:href="#m1c1259b40a" x="57.17" y="273.280019" style="stroke: #000000; stroke-width: 0.8"/>
      </g>
     </g>
     <g id="text_23">
      <!-- 6000 -->
      <g transform="translate(24.72 277.079237) scale(0.1 -0.1)">
       <use xlink:href="#DejaVuSans-36"/>
       <use xlink:href="#DejaVuSans-30" x="63.623047"/>
       <use xlink:href="#DejaVuSans-30" x="127.246094"/>
       <use xlink:href="#DejaVuSans-30" x="190.869141"/>
      </g>
     </g>
    </g>
    <g id="ytick_10">
     <g id="line2d_23">
      <g>
       <use xlink:href="#m1c1259b40a" x="57.17" y="231.59558" style="stroke: #000000; stroke-width: 0.8"/>
      </g>
     </g>
     <g id="text_24">
      <!-- 8000 -->
      <g transform="translate(24.72 235.394799) scale(0.1 -0.1)">
       <use xlink:href="#DejaVuSans-38"/>
       <use xlink:href="#DejaVuSans-30" x="63.623047"/>
       <use xlink:href="#DejaVuSans-30" x="127.246094"/>
       <use xlink:href="#DejaVuSans-30" x="190.869141"/>
      </g>
     </g>
    </g>
    <g id="text_25">
     <!-- Pixel Frequency -->
     <g transform="translate(18.640313 347.398906) rotate(-90) scale(0.1 -0.1)">
      <use xlink:href="#DejaVuSans-50"/>
      <use xlink:href="#DejaVuSans-69" x="58.052734"/>
      <use xlink:href="#DejaVuSans-78" x="85.835938"/>
      <use xlink:href="#DejaVuSans-65" x="141.890625"/>
      <use xlink:href="#DejaVuSans-6c" x="203.414062"/>
      <use xlink:href="#DejaVuSans-20" x="231.197266"/>
      <use xlink:href="#DejaVuSans-46" x="262.984375"/>
      <use xlink:href="#DejaVuSans-72" x="313.253906"/>
      <use xlink:href="#DejaVuSans-65" x="352.117188"/>
      <use xlink:href="#DejaVuSans-71" x="413.640625"/>
      <use xlink:href="#DejaVuSans-75" x="477.117188"/>
      <use xlink:href="#DejaVuSans-65" x="540.496094"/>
      <use xlink:href="#DejaVuSans-6e" x="602.019531"/>
      <use xlink:href="#DejaVuSans-63" x="665.398438"/>
      <use xlink:href="#DejaVuSans-79" x="720.378906"/>
     </g>
    </g>
   </g>
   <g id="line2d_24">
    <path d="M 57.17 398.333333 
L 90.007898 398.333333 
L 90.849895 398.187438 
L 91.691892 398.166596 
L 93.375887 397.791436 
L 94.217885 397.520487 
L 95.059882 397.0828 
L 95.901879 395.936478 
L 96.743877 393.664676 
L 97.585874 390.371606 
L 99.269869 376.865848 
L 100.111866 363.464301 
L 100.953864 346.602945 
L 101.795861 326.698626 
L 102.637858 312.880235 
L 103.479856 304.314083 
L 104.321853 302.834285 
L 105.16385 305.189456 
L 106.005848 316.444254 
L 108.53184 357.73269 
L 109.373837 367.090847 
L 110.215835 373.489408 
L 111.057832 380.93008 
L 111.899829 385.119366 
L 112.741827 387.891382 
L 113.583824 389.913077 
L 114.425822 391.35119 
L 115.267819 392.226563 
L 116.109816 392.726776 
L 116.951814 392.601723 
L 117.793811 393.101936 
L 118.635808 393.22699 
L 119.477806 394.581734 
L 120.319803 394.560892 
L 121.161801 395.373738 
L 122.003798 395.623845 
L 122.845795 395.186158 
L 124.52979 396.019847 
L 125.371787 395.477949 
L 127.89778 396.624271 
L 128.739777 396.582587 
L 129.581774 396.811851 
L 130.423772 396.728482 
L 131.265769 396.89522 
L 132.107766 396.936905 
L 132.949764 397.207854 
L 133.791761 397.207854 
L 134.633759 396.89522 
L 135.475756 397.228696 
L 136.317753 397.312065 
L 137.159751 396.874378 
L 138.001748 397.228696 
L 138.843745 397.395433 
L 139.685743 397.187011 
L 140.52774 397.666382 
L 141.369738 397.416276 
L 142.211735 397.603856 
L 143.053732 397.166169 
L 143.89573 397.64554 
L 144.737727 397.499645 
L 146.421722 397.895647 
L 147.263719 397.603856 
L 148.105717 397.499645 
L 150.631709 397.478802 
L 151.473706 397.770593 
L 159.051682 397.958173 
L 159.89368 397.770593 
L 161.577675 397.937331 
L 166.629659 397.937331 
L 167.471656 398.104069 
L 169.155651 397.916489 
L 170.839646 398.062384 
L 175.89163 398.124911 
L 176.733627 398.062384 
L 178.417622 398.20828 
L 180.101617 397.958173 
L 180.943614 398.124911 
L 181.785612 397.937331 
L 189.363588 398.229122 
L 271.879331 398.333333 
L 271.879331 398.333333 
" clip-path="url(#pc27bebb2a8)" style="fill: none; stroke: #008000; stroke-width: 1.5; stroke-linecap: square"/>
   </g>
   <g id="patch_8">
    <path d="M 57.17 398.333333 
L 57.17 218.506667 
" style="fill: none; stroke: #000000; stroke-width: 0.8; stroke-linejoin: miter; stroke-linecap: square"/>
   </g>
   <g id="patch_9">
    <path d="M 272.721328 398.333333 
L 272.721328 218.506667 
" style="fill: none; stroke: #000000; stroke-width: 0.8; stroke-linejoin: miter; stroke-linecap: square"/>
   </g>
   <g id="patch_10">
    <path d="M 57.17 398.333333 
L 272.721328 398.333333 
" style="fill: none; stroke: #000000; stroke-width: 0.8; stroke-linejoin: miter; stroke-linecap: square"/>
   </g>
   <g id="patch_11">
    <path d="M 57.17 218.506667 
L 272.721328 218.506667 
" style="fill: none; stroke: #000000; stroke-width: 0.8; stroke-linejoin: miter; stroke-linecap: square"/>
   </g>
   <g id="text_26">
    <!-- Green Channel  -->
    <g transform="translate(179.494453 232.506667) scale(0.12 -0.12)">
     <defs>
      <path id="DejaVuSans-47" d="M 3809 666 
L 3809 1919 
L 2778 1919 
L 2778 2438 
L 4434 2438 
L 4434 434 
Q 4069 175 3628 42 
Q 3188 -91 2688 -91 
Q 1594 -91 976 548 
Q 359 1188 359 2328 
Q 359 3472 976 4111 
Q 1594 4750 2688 4750 
Q 3144 4750 3555 4637 
Q 3966 4525 4313 4306 
L 4313 3634 
Q 3963 3931 3569 4081 
Q 3175 4231 2741 4231 
Q 1884 4231 1454 3753 
Q 1025 3275 1025 2328 
Q 1025 1384 1454 906 
Q 1884 428 2741 428 
Q 3075 428 3337 486 
Q 3600 544 3809 666 
z
" transform="scale(0.015625)"/>
     </defs>
     <use xlink:href="#DejaVuSans-47"/>
     <use xlink:href="#DejaVuSans-72" x="77.490234"/>
     <use xlink:href="#DejaVuSans-65" x="116.353516"/>
     <use xlink:href="#DejaVuSans-65" x="177.876953"/>
     <use xlink:href="#DejaVuSans-6e" x="239.400391"/>
     <use xlink:href="#DejaVuSans-20" x="302.779297"/>
     <use xlink:href="#DejaVuSans-43" x="334.566406"/>
     <use xlink:href="#DejaVuSans-68" x="404.390625"/>
     <use xlink:href="#DejaVuSans-61" x="467.769531"/>
     <use xlink:href="#DejaVuSans-6e" x="529.048828"/>
     <use xlink:href="#DejaVuSans-6e" x="592.427734"/>
     <use xlink:href="#DejaVuSans-65" x="655.806641"/>
     <use xlink:href="#DejaVuSans-6c" x="717.330078"/>
     <use xlink:href="#DejaVuSans-20" x="745.113281"/>
    </g>
   </g>
  </g>
  <g id="axes_3">
   <g id="patch_12">
    <path d="M 57.17 606.04 
L 272.721328 606.04 
L 272.721328 426.213333 
L 57.17 426.213333 
z
" style="fill: #ffffff"/>
   </g>
   <g id="PolyCollection_3">
    <defs>
     <path id="m551d8f05eb" d="M 57.17 -41.96 
L 57.17 -41.96 
L 58.011997 -41.96 
L 58.853995 -41.96 
L 59.695992 -41.96 
L 60.53799 -41.96 
L 61.379987 -41.96 
L 62.221984 -41.96 
L 63.063982 -41.96 
L 63.905979 -41.96 
L 64.747976 -41.96 
L 65.589974 -41.96 
L 66.431971 -41.96 
L 67.273969 -41.96 
L 68.115966 -41.96 
L 68.957963 -41.96 
L 69.799961 -41.96 
L 70.641958 -41.96 
L 71.483955 -41.96 
L 72.325953 -41.96 
L 73.16795 -41.96 
L 74.009948 -41.980842 
L 74.851945 -42.064211 
L 75.693942 -42.064211 
L 76.53594 -42.418529 
L 77.377937 -43.168849 
L 78.219934 -45.128017 
L 79.061932 -50.421941 
L 79.903929 -65.094863 
L 80.745927 -91.46027 
L 81.587924 -122.431808 
L 82.429921 -157.38421 
L 83.271919 -173.140927 
L 84.113916 -177.809584 
L 84.955913 -162.803187 
L 85.797911 -134.103451 
L 86.639908 -106.966881 
L 87.481906 -86.458138 
L 88.323903 -71.389213 
L 89.1659 -62.572955 
L 90.007898 -56.382816 
L 90.849895 -53.089745 
L 91.691892 -51.047208 
L 92.53389 -49.400672 
L 93.375887 -48.337719 
L 94.217885 -48.087612 
L 95.059882 -46.211813 
L 95.901879 -46.857921 
L 96.743877 -45.669915 
L 97.585874 -45.086333 
L 98.427871 -45.190544 
L 99.269869 -44.669488 
L 100.111866 -44.565277 
L 100.953864 -44.336013 
L 101.795861 -44.148433 
L 102.637858 -44.065064 
L 103.479856 -44.169275 
L 104.321853 -43.794115 
L 105.16385 -43.710746 
L 106.005848 -43.356429 
L 106.847845 -43.502324 
L 107.689843 -43.210533 
L 108.53184 -43.106322 
L 109.373837 -43.106322 
L 110.215835 -43.127164 
L 111.057832 -42.8979 
L 111.899829 -42.814531 
L 112.741827 -42.981269 
L 113.583824 -42.8979 
L 114.425822 -42.835373 
L 115.267819 -43.043795 
L 116.109816 -42.856215 
L 116.951814 -42.856215 
L 117.793811 -42.52274 
L 118.635808 -42.793689 
L 119.477806 -42.606109 
L 120.319803 -42.752004 
L 121.161801 -42.626951 
L 122.003798 -42.501898 
L 122.845795 -42.460213 
L 123.687793 -42.501898 
L 124.52979 -42.418529 
L 125.371787 -42.481055 
L 126.213785 -42.356002 
L 127.055782 -42.210107 
L 127.89778 -42.418529 
L 128.739777 -42.460213 
L 129.581774 -42.460213 
L 130.423772 -42.397687 
L 131.265769 -42.251791 
L 132.107766 -42.314318 
L 132.949764 -42.33516 
L 133.791761 -42.376844 
L 134.633759 -42.168422 
L 135.475756 -42.126738 
L 136.317753 -42.272633 
L 137.159751 -42.168422 
L 138.001748 -42.210107 
L 138.843745 -42.126738 
L 139.685743 -42.14758 
L 140.52774 -42.126738 
L 141.369738 -42.272633 
L 142.211735 -42.105896 
L 143.053732 -42.189264 
L 143.89573 -42.14758 
L 144.737727 -42.085053 
L 145.579724 -42.105896 
L 146.421722 -42.126738 
L 147.263719 -42.105896 
L 148.105717 -42.064211 
L 148.947714 -42.105896 
L 149.789711 -42.022527 
L 150.631709 -42.064211 
L 151.473706 -42.105896 
L 152.315703 -42.105896 
L 153.157701 -42.168422 
L 153.999698 -42.126738 
L 154.841696 -42.105896 
L 155.683693 -42.105896 
L 156.52569 -42.105896 
L 157.367688 -42.001684 
L 158.209685 -42.001684 
L 159.051682 -41.980842 
L 159.89368 -41.980842 
L 160.735677 -42.022527 
L 161.577675 -42.022527 
L 162.419672 -42.022527 
L 163.261669 -41.980842 
L 164.103667 -42.001684 
L 164.945664 -42.064211 
L 165.787661 -42.043369 
L 166.629659 -42.064211 
L 167.471656 -41.980842 
L 168.313654 -42.105896 
L 169.155651 -42.064211 
L 169.997648 -42.022527 
L 170.839646 -42.085053 
L 171.681643 -41.980842 
L 172.52364 -42.064211 
L 173.365638 -41.980842 
L 174.207635 -41.980842 
L 175.049633 -41.980842 
L 175.89163 -42.022527 
L 176.733627 -41.96 
L 177.575625 -41.980842 
L 178.417622 -41.980842 
L 179.259619 -41.96 
L 180.101617 -42.001684 
L 180.943614 -42.064211 
L 181.785612 -42.022527 
L 182.627609 -41.980842 
L 183.469606 -42.043369 
L 184.311604 -41.96 
L 185.153601 -41.96 
L 185.995598 -42.022527 
L 186.837596 -41.980842 
L 187.679593 -42.001684 
L 188.521591 -41.96 
L 189.363588 -41.980842 
L 190.205585 -41.980842 
L 191.047583 -42.022527 
L 191.88958 -41.980842 
L 192.731577 -42.001684 
L 193.573575 -42.001684 
L 194.415572 -42.022527 
L 195.25757 -42.001684 
L 196.099567 -42.001684 
L 196.941564 -42.022527 
L 197.783562 -41.980842 
L 198.625559 -41.96 
L 199.467556 -42.001684 
L 200.309554 -41.96 
L 201.151551 -41.96 
L 201.993549 -41.96 
L 202.835546 -41.96 
L 203.677543 -41.980842 
L 204.519541 -41.96 
L 205.361538 -41.96 
L 206.203535 -41.980842 
L 207.045533 -41.980842 
L 207.88753 -42.022527 
L 208.729528 -41.96 
L 209.571525 -42.022527 
L 210.413522 -41.96 
L 211.25552 -41.96 
L 212.097517 -41.980842 
L 212.939514 -41.96 
L 213.781512 -41.96 
L 214.623509 -41.96 
L 215.465507 -41.96 
L 216.307504 -41.980842 
L 217.149501 -41.96 
L 217.991499 -41.96 
L 218.833496 -41.96 
L 219.675493 -41.96 
L 220.517491 -41.980842 
L 221.359488 -41.96 
L 222.201486 -41.96 
L 223.043483 -41.980842 
L 223.88548 -41.96 
L 224.727478 -41.96 
L 225.569475 -41.96 
L 226.411472 -41.980842 
L 227.25347 -41.96 
L 228.095467 -41.96 
L 228.937465 -41.96 
L 229.779462 -41.980842 
L 230.621459 -41.980842 
L 231.463457 -41.96 
L 232.305454 -41.96 
L 233.147451 -41.96 
L 233.989449 -41.96 
L 234.831446 -41.96 
L 235.673444 -41.96 
L 236.515441 -41.96 
L 237.357438 -41.96 
L 238.199436 -41.980842 
L 239.041433 -41.96 
L 239.88343 -41.96 
L 240.725428 -41.96 
L 241.567425 -41.96 
L 242.409423 -41.980842 
L 243.25142 -41.980842 
L 244.093417 -41.96 
L 244.935415 -41.96 
L 245.777412 -41.96 
L 246.619409 -41.96 
L 247.461407 -41.96 
L 248.303404 -41.96 
L 249.145402 -41.96 
L 249.987399 -41.96 
L 250.829396 -41.96 
L 251.671394 -41.96 
L 252.513391 -41.96 
L 253.355388 -41.96 
L 254.197386 -41.96 
L 255.039383 -41.96 
L 255.881381 -41.96 
L 256.723378 -41.96 
L 257.565375 -41.96 
L 258.407373 -41.96 
L 259.24937 -41.96 
L 260.091367 -41.96 
L 260.933365 -41.96 
L 261.775362 -41.96 
L 262.61736 -41.96 
L 263.459357 -41.96 
L 264.301354 -41.96 
L 265.143352 -41.96 
L 265.985349 -41.96 
L 266.827346 -41.96 
L 267.669344 -41.96 
L 268.511341 -41.96 
L 269.353339 -41.96 
L 270.195336 -41.96 
L 271.037333 -41.96 
L 271.879331 -41.96 
L 271.879331 -41.96 
L 271.879331 -41.96 
L 271.037333 -41.96 
L 270.195336 -41.96 
L 269.353339 -41.96 
L 268.511341 -41.96 
L 267.669344 -41.96 
L 266.827346 -41.96 
L 265.985349 -41.96 
L 265.143352 -41.96 
L 264.301354 -41.96 
L 263.459357 -41.96 
L 262.61736 -41.96 
L 261.775362 -41.96 
L 260.933365 -41.96 
L 260.091367 -41.96 
L 259.24937 -41.96 
L 258.407373 -41.96 
L 257.565375 -41.96 
L 256.723378 -41.96 
L 255.881381 -41.96 
L 255.039383 -41.96 
L 254.197386 -41.96 
L 253.355388 -41.96 
L 252.513391 -41.96 
L 251.671394 -41.96 
L 250.829396 -41.96 
L 249.987399 -41.96 
L 249.145402 -41.96 
L 248.303404 -41.96 
L 247.461407 -41.96 
L 246.619409 -41.96 
L 245.777412 -41.96 
L 244.935415 -41.96 
L 244.093417 -41.96 
L 243.25142 -41.96 
L 242.409423 -41.96 
L 241.567425 -41.96 
L 240.725428 -41.96 
L 239.88343 -41.96 
L 239.041433 -41.96 
L 238.199436 -41.96 
L 237.357438 -41.96 
L 236.515441 -41.96 
L 235.673444 -41.96 
L 234.831446 -41.96 
L 233.989449 -41.96 
L 233.147451 -41.96 
L 232.305454 -41.96 
L 231.463457 -41.96 
L 230.621459 -41.96 
L 229.779462 -41.96 
L 228.937465 -41.96 
L 228.095467 -41.96 
L 227.25347 -41.96 
L 226.411472 -41.96 
L 225.569475 -41.96 
L 224.727478 -41.96 
L 223.88548 -41.96 
L 223.043483 -41.96 
L 222.201486 -41.96 
L 221.359488 -41.96 
L 220.517491 -41.96 
L 219.675493 -41.96 
L 218.833496 -41.96 
L 217.991499 -41.96 
L 217.149501 -41.96 
L 216.307504 -41.96 
L 215.465507 -41.96 
L 214.623509 -41.96 
L 213.781512 -41.96 
L 212.939514 -41.96 
L 212.097517 -41.96 
L 211.25552 -41.96 
L 210.413522 -41.96 
L 209.571525 -41.96 
L 208.729528 -41.96 
L 207.88753 -41.96 
L 207.045533 -41.96 
L 206.203535 -41.96 
L 205.361538 -41.96 
L 204.519541 -41.96 
L 203.677543 -41.96 
L 202.835546 -41.96 
L 201.993549 -41.96 
L 201.151551 -41.96 
L 200.309554 -41.96 
L 199.467556 -41.96 
L 198.625559 -41.96 
L 197.783562 -41.96 
L 196.941564 -41.96 
L 196.099567 -41.96 
L 195.25757 -41.96 
L 194.415572 -41.96 
L 193.573575 -41.96 
L 192.731577 -41.96 
L 191.88958 -41.96 
L 191.047583 -41.96 
L 190.205585 -41.96 
L 189.363588 -41.96 
L 188.521591 -41.96 
L 187.679593 -41.96 
L 186.837596 -41.96 
L 185.995598 -41.96 
L 185.153601 -41.96 
L 184.311604 -41.96 
L 183.469606 -41.96 
L 182.627609 -41.96 
L 181.785612 -41.96 
L 180.943614 -41.96 
L 180.101617 -41.96 
L 179.259619 -41.96 
L 178.417622 -41.96 
L 177.575625 -41.96 
L 176.733627 -41.96 
L 175.89163 -41.96 
L 175.049633 -41.96 
L 174.207635 -41.96 
L 173.365638 -41.96 
L 172.52364 -41.96 
L 171.681643 -41.96 
L 170.839646 -41.96 
L 169.997648 -41.96 
L 169.155651 -41.96 
L 168.313654 -41.96 
L 167.471656 -41.96 
L 166.629659 -41.96 
L 165.787661 -41.96 
L 164.945664 -41.96 
L 164.103667 -41.96 
L 163.261669 -41.96 
L 162.419672 -41.96 
L 161.577675 -41.96 
L 160.735677 -41.96 
L 159.89368 -41.96 
L 159.051682 -41.96 
L 158.209685 -41.96 
L 157.367688 -41.96 
L 156.52569 -41.96 
L 155.683693 -41.96 
L 154.841696 -41.96 
L 153.999698 -41.96 
L 153.157701 -41.96 
L 152.315703 -41.96 
L 151.473706 -41.96 
L 150.631709 -41.96 
L 149.789711 -41.96 
L 148.947714 -41.96 
L 148.105717 -41.96 
L 147.263719 -41.96 
L 146.421722 -41.96 
L 145.579724 -41.96 
L 144.737727 -41.96 
L 143.89573 -41.96 
L 143.053732 -41.96 
L 142.211735 -41.96 
L 141.369738 -41.96 
L 140.52774 -41.96 
L 139.685743 -41.96 
L 138.843745 -41.96 
L 138.001748 -41.96 
L 137.159751 -41.96 
L 136.317753 -41.96 
L 135.475756 -41.96 
L 134.633759 -41.96 
L 133.791761 -41.96 
L 132.949764 -41.96 
L 132.107766 -41.96 
L 131.265769 -41.96 
L 130.423772 -41.96 
L 129.581774 -41.96 
L 128.739777 -41.96 
L 127.89778 -41.96 
L 127.055782 -41.96 
L 126.213785 -41.96 
L 125.371787 -41.96 
L 124.52979 -41.96 
L 123.687793 -41.96 
L 122.845795 -41.96 
L 122.003798 -41.96 
L 121.161801 -41.96 
L 120.319803 -41.96 
L 119.477806 -41.96 
L 118.635808 -41.96 
L 117.793811 -41.96 
L 116.951814 -41.96 
L 116.109816 -41.96 
L 115.267819 -41.96 
L 114.425822 -41.96 
L 113.583824 -41.96 
L 112.741827 -41.96 
L 111.899829 -41.96 
L 111.057832 -41.96 
L 110.215835 -41.96 
L 109.373837 -41.96 
L 108.53184 -41.96 
L 107.689843 -41.96 
L 106.847845 -41.96 
L 106.005848 -41.96 
L 105.16385 -41.96 
L 104.321853 -41.96 
L 103.479856 -41.96 
L 102.637858 -41.96 
L 101.795861 -41.96 
L 100.953864 -41.96 
L 100.111866 -41.96 
L 99.269869 -41.96 
L 98.427871 -41.96 
L 97.585874 -41.96 
L 96.743877 -41.96 
L 95.901879 -41.96 
L 95.059882 -41.96 
L 94.217885 -41.96 
L 93.375887 -41.96 
L 92.53389 -41.96 
L 91.691892 -41.96 
L 90.849895 -41.96 
L 90.007898 -41.96 
L 89.1659 -41.96 
L 88.323903 -41.96 
L 87.481906 -41.96 
L 86.639908 -41.96 
L 85.797911 -41.96 
L 84.955913 -41.96 
L 84.113916 -41.96 
L 83.271919 -41.96 
L 82.429921 -41.96 
L 81.587924 -41.96 
L 80.745927 -41.96 
L 79.903929 -41.96 
L 79.061932 -41.96 
L 78.219934 -41.96 
L 77.377937 -41.96 
L 76.53594 -41.96 
L 75.693942 -41.96 
L 74.851945 -41.96 
L 74.009948 -41.96 
L 73.16795 -41.96 
L 72.325953 -41.96 
L 71.483955 -41.96 
L 70.641958 -41.96 
L 69.799961 -41.96 
L 68.957963 -41.96 
L 68.115966 -41.96 
L 67.273969 -41.96 
L 66.431971 -41.96 
L 65.589974 -41.96 
L 64.747976 -41.96 
L 63.905979 -41.96 
L 63.063982 -41.96 
L 62.221984 -41.96 
L 61.379987 -41.96 
L 60.53799 -41.96 
L 59.695992 -41.96 
L 58.853995 -41.96 
L 58.011997 -41.96 
L 57.17 -41.96 
z
" style="stroke: #0000ff; stroke-opacity: 0.4"/>
    </defs>
    <g clip-path="url(#p5dbd571d58)">
     <use xlink:href="#m551d8f05eb" x="0" y="648" style="fill: #0000ff; fill-opacity: 0.4; stroke: #0000ff; stroke-opacity: 0.4"/>
    </g>
   </g>
   <g id="matplotlib.axis_5">
    <g id="xtick_13">
     <g id="line2d_25">
      <g>
       <use xlink:href="#maf1aaff63f" x="57.17" y="606.04" style="stroke: #000000; stroke-width: 0.8"/>
      </g>
     </g>
     <g id="text_27">
      <!-- 0 -->
      <g transform="translate(53.98875 620.638438) scale(0.1 -0.1)">
       <use xlink:href="#DejaVuSans-30"/>
      </g>
     </g>
    </g>
    <g id="xtick_14">
     <g id="line2d_26">
      <g>
       <use xlink:href="#maf1aaff63f" x="99.269869" y="606.04" style="stroke: #000000; stroke-width: 0.8"/>
      </g>
     </g>
     <g id="text_28">
      <!-- 50 -->
      <g transform="translate(92.907369 620.638438) scale(0.1 -0.1)">
       <use xlink:href="#DejaVuSans-35"/>
       <use xlink:href="#DejaVuSans-30" x="63.623047"/>
      </g>
     </g>
    </g>
    <g id="xtick_15">
     <g id="line2d_27">
      <g>
       <use xlink:href="#maf1aaff63f" x="141.369738" y="606.04" style="stroke: #000000; stroke-width: 0.8"/>
      </g>
     </g>
     <g id="text_29">
      <!-- 100 -->
      <g transform="translate(131.825988 620.638438) scale(0.1 -0.1)">
       <use xlink:href="#DejaVuSans-31"/>
       <use xlink:href="#DejaVuSans-30" x="63.623047"/>
       <use xlink:href="#DejaVuSans-30" x="127.246094"/>
      </g>
     </g>
    </g>
    <g id="xtick_16">
     <g id="line2d_28">
      <g>
       <use xlink:href="#maf1aaff63f" x="183.469606" y="606.04" style="stroke: #000000; stroke-width: 0.8"/>
      </g>
     </g>
     <g id="text_30">
      <!-- 150 -->
      <g transform="translate(173.925856 620.638438) scale(0.1 -0.1)">
       <use xlink:href="#DejaVuSans-31"/>
       <use xlink:href="#DejaVuSans-35" x="63.623047"/>
       <use xlink:href="#DejaVuSans-30" x="127.246094"/>
      </g>
     </g>
    </g>
    <g id="xtick_17">
     <g id="line2d_29">
      <g>
       <use xlink:href="#maf1aaff63f" x="225.569475" y="606.04" style="stroke: #000000; stroke-width: 0.8"/>
      </g>
     </g>
     <g id="text_31">
      <!-- 200 -->
      <g transform="translate(216.025725 620.638438) scale(0.1 -0.1)">
       <use xlink:href="#DejaVuSans-32"/>
       <use xlink:href="#DejaVuSans-30" x="63.623047"/>
       <use xlink:href="#DejaVuSans-30" x="127.246094"/>
      </g>
     </g>
    </g>
    <g id="xtick_18">
     <g id="line2d_30">
      <g>
       <use xlink:href="#maf1aaff63f" x="267.669344" y="606.04" style="stroke: #000000; stroke-width: 0.8"/>
      </g>
     </g>
     <g id="text_32">
      <!-- 250 -->
      <g transform="translate(258.125594 620.638438) scale(0.1 -0.1)">
       <use xlink:href="#DejaVuSans-32"/>
       <use xlink:href="#DejaVuSans-35" x="63.623047"/>
       <use xlink:href="#DejaVuSans-30" x="127.246094"/>
      </g>
     </g>
    </g>
    <g id="text_33">
     <!-- Pixel Intensity -->
     <g transform="translate(130.033945 634.316563) scale(0.1 -0.1)">
      <defs>
       <path id="DejaVuSans-49" d="M 628 4666 
L 1259 4666 
L 1259 0 
L 628 0 
L 628 4666 
z
" transform="scale(0.015625)"/>
       <path id="DejaVuSans-74" d="M 1172 4494 
L 1172 3500 
L 2356 3500 
L 2356 3053 
L 1172 3053 
L 1172 1153 
Q 1172 725 1289 603 
Q 1406 481 1766 481 
L 2356 481 
L 2356 0 
L 1766 0 
Q 1100 0 847 248 
Q 594 497 594 1153 
L 594 3053 
L 172 3053 
L 172 3500 
L 594 3500 
L 594 4494 
L 1172 4494 
z
" transform="scale(0.015625)"/>
       <path id="DejaVuSans-73" d="M 2834 3397 
L 2834 2853 
Q 2591 2978 2328 3040 
Q 2066 3103 1784 3103 
Q 1356 3103 1142 2972 
Q 928 2841 928 2578 
Q 928 2378 1081 2264 
Q 1234 2150 1697 2047 
L 1894 2003 
Q 2506 1872 2764 1633 
Q 3022 1394 3022 966 
Q 3022 478 2636 193 
Q 2250 -91 1575 -91 
Q 1294 -91 989 -36 
Q 684 19 347 128 
L 347 722 
Q 666 556 975 473 
Q 1284 391 1588 391 
Q 1994 391 2212 530 
Q 2431 669 2431 922 
Q 2431 1156 2273 1281 
Q 2116 1406 1581 1522 
L 1381 1569 
Q 847 1681 609 1914 
Q 372 2147 372 2553 
Q 372 3047 722 3315 
Q 1072 3584 1716 3584 
Q 2034 3584 2315 3537 
Q 2597 3491 2834 3397 
z
" transform="scale(0.015625)"/>
      </defs>
      <use xlink:href="#DejaVuSans-50"/>
      <use xlink:href="#DejaVuSans-69" x="58.052734"/>
      <use xlink:href="#DejaVuSans-78" x="85.835938"/>
      <use xlink:href="#DejaVuSans-65" x="141.890625"/>
      <use xlink:href="#DejaVuSans-6c" x="203.414062"/>
      <use xlink:href="#DejaVuSans-20" x="231.197266"/>
      <use xlink:href="#DejaVuSans-49" x="262.984375"/>
      <use xlink:href="#DejaVuSans-6e" x="292.476562"/>
      <use xlink:href="#DejaVuSans-74" x="355.855469"/>
      <use xlink:href="#DejaVuSans-65" x="395.064453"/>
      <use xlink:href="#DejaVuSans-6e" x="456.587891"/>
      <use xlink:href="#DejaVuSans-73" x="519.966797"/>
      <use xlink:href="#DejaVuSans-69" x="572.066406"/>
      <use xlink:href="#DejaVuSans-74" x="599.849609"/>
      <use xlink:href="#DejaVuSans-79" x="639.058594"/>
     </g>
    </g>
   </g>
   <g id="matplotlib.axis_6">
    <g id="ytick_11">
     <g id="line2d_31">
      <g>
       <use xlink:href="#m1c1259b40a" x="57.17" y="606.04" style="stroke: #000000; stroke-width: 0.8"/>
      </g>
     </g>
     <g id="text_34">
      <!-- 0 -->
      <g transform="translate(43.8075 609.839219) scale(0.1 -0.1)">
       <use xlink:href="#DejaVuSans-30"/>
      </g>
     </g>
    </g>
    <g id="ytick_12">
     <g id="line2d_32">
      <g>
       <use xlink:href="#m1c1259b40a" x="57.17" y="564.355562" style="stroke: #000000; stroke-width: 0.8"/>
      </g>
     </g>
     <g id="text_35">
      <!-- 2000 -->
      <g transform="translate(24.72 568.15478) scale(0.1 -0.1)">
       <use xlink:href="#DejaVuSans-32"/>
       <use xlink:href="#DejaVuSans-30" x="63.623047"/>
       <use xlink:href="#DejaVuSans-30" x="127.246094"/>
       <use xlink:href="#DejaVuSans-30" x="190.869141"/>
      </g>
     </g>
    </g>
    <g id="ytick_13">
     <g id="line2d_33">
      <g>
       <use xlink:href="#m1c1259b40a" x="57.17" y="522.671123" style="stroke: #000000; stroke-width: 0.8"/>
      </g>
     </g>
     <g id="text_36">
      <!-- 4000 -->
      <g transform="translate(24.72 526.470342) scale(0.1 -0.1)">
       <use xlink:href="#DejaVuSans-34"/>
       <use xlink:href="#DejaVuSans-30" x="63.623047"/>
       <use xlink:href="#DejaVuSans-30" x="127.246094"/>
       <use xlink:href="#DejaVuSans-30" x="190.869141"/>
      </g>
     </g>
    </g>
    <g id="ytick_14">
     <g id="line2d_34">
      <g>
       <use xlink:href="#m1c1259b40a" x="57.17" y="480.986685" style="stroke: #000000; stroke-width: 0.8"/>
      </g>
     </g>
     <g id="text_37">
      <!-- 6000 -->
      <g transform="translate(24.72 484.785904) scale(0.1 -0.1)">
       <use xlink:href="#DejaVuSans-36"/>
       <use xlink:href="#DejaVuSans-30" x="63.623047"/>
       <use xlink:href="#DejaVuSans-30" x="127.246094"/>
       <use xlink:href="#DejaVuSans-30" x="190.869141"/>
      </g>
     </g>
    </g>
    <g id="ytick_15">
     <g id="line2d_35">
      <g>
       <use xlink:href="#m1c1259b40a" x="57.17" y="439.302247" style="stroke: #000000; stroke-width: 0.8"/>
      </g>
     </g>
     <g id="text_38">
      <!-- 8000 -->
      <g transform="translate(24.72 443.101466) scale(0.1 -0.1)">
       <use xlink:href="#DejaVuSans-38"/>
       <use xlink:href="#DejaVuSans-30" x="63.623047"/>
       <use xlink:href="#DejaVuSans-30" x="127.246094"/>
       <use xlink:href="#DejaVuSans-30" x="190.869141"/>
      </g>
     </g>
    </g>
    <g id="text_39">
     <!-- Pixel Frequency -->
     <g transform="translate(18.640313 555.105573) rotate(-90) scale(0.1 -0.1)">
      <use xlink:href="#DejaVuSans-50"/>
      <use xlink:href="#DejaVuSans-69" x="58.052734"/>
      <use xlink:href="#DejaVuSans-78" x="85.835938"/>
      <use xlink:href="#DejaVuSans-65" x="141.890625"/>
      <use xlink:href="#DejaVuSans-6c" x="203.414062"/>
      <use xlink:href="#DejaVuSans-20" x="231.197266"/>
      <use xlink:href="#DejaVuSans-46" x="262.984375"/>
      <use xlink:href="#DejaVuSans-72" x="313.253906"/>
      <use xlink:href="#DejaVuSans-65" x="352.117188"/>
      <use xlink:href="#DejaVuSans-71" x="413.640625"/>
      <use xlink:href="#DejaVuSans-75" x="477.117188"/>
      <use xlink:href="#DejaVuSans-65" x="540.496094"/>
      <use xlink:href="#DejaVuSans-6e" x="602.019531"/>
      <use xlink:href="#DejaVuSans-63" x="665.398438"/>
      <use xlink:href="#DejaVuSans-79" x="720.378906"/>
     </g>
    </g>
   </g>
   <g id="line2d_36">
    <path d="M 57.17 606.04 
L 75.693942 605.935789 
L 76.53594 605.581471 
L 77.377937 604.831151 
L 78.219934 602.871983 
L 79.061932 597.578059 
L 79.903929 582.905137 
L 80.745927 556.53973 
L 82.429921 490.61579 
L 83.271919 474.859073 
L 84.113916 470.190416 
L 84.955913 485.196813 
L 86.639908 541.033119 
L 87.481906 561.541862 
L 88.323903 576.610787 
L 89.1659 585.427045 
L 90.007898 591.617184 
L 90.849895 594.910255 
L 91.691892 596.952792 
L 92.53389 598.599328 
L 93.375887 599.662281 
L 94.217885 599.912388 
L 95.059882 601.788187 
L 95.901879 601.142079 
L 96.743877 602.330085 
L 97.585874 602.913667 
L 98.427871 602.809456 
L 99.269869 603.330512 
L 100.111866 603.434723 
L 101.795861 603.851567 
L 102.637858 603.934936 
L 103.479856 603.830725 
L 104.321853 604.205885 
L 105.16385 604.289254 
L 106.005848 604.643571 
L 106.847845 604.497676 
L 107.689843 604.789467 
L 109.373837 604.893678 
L 110.215835 604.872836 
L 111.057832 605.1021 
L 111.899829 605.185469 
L 112.741827 605.018731 
L 114.425822 605.164627 
L 115.267819 604.956205 
L 116.109816 605.143785 
L 116.951814 605.143785 
L 117.793811 605.47726 
L 118.635808 605.206311 
L 119.477806 605.393891 
L 120.319803 605.247996 
L 122.845795 605.539787 
L 123.687793 605.498102 
L 124.52979 605.581471 
L 125.371787 605.518945 
L 127.055782 605.789893 
L 127.89778 605.581471 
L 129.581774 605.539787 
L 132.107766 605.685682 
L 133.791761 605.623156 
L 134.633759 605.831578 
L 135.475756 605.873262 
L 136.317753 605.727367 
L 137.159751 605.831578 
L 138.001748 605.789893 
L 139.685743 605.85242 
L 140.52774 605.873262 
L 141.369738 605.727367 
L 142.211735 605.894104 
L 143.053732 605.810736 
L 146.421722 605.873262 
L 151.473706 605.894104 
L 158.209685 605.998316 
L 161.577675 605.977473 
L 271.879331 606.04 
L 271.879331 606.04 
" clip-path="url(#p5dbd571d58)" style="fill: none; stroke: #0000ff; stroke-width: 1.5; stroke-linecap: square"/>
   </g>
   <g id="patch_13">
    <path d="M 57.17 606.04 
L 57.17 426.213333 
" style="fill: none; stroke: #000000; stroke-width: 0.8; stroke-linejoin: miter; stroke-linecap: square"/>
   </g>
   <g id="patch_14">
    <path d="M 272.721328 606.04 
L 272.721328 426.213333 
" style="fill: none; stroke: #000000; stroke-width: 0.8; stroke-linejoin: miter; stroke-linecap: square"/>
   </g>
   <g id="patch_15">
    <path d="M 57.17 606.04 
L 272.721328 606.04 
" style="fill: none; stroke: #000000; stroke-width: 0.8; stroke-linejoin: miter; stroke-linecap: square"/>
   </g>
   <g id="patch_16">
    <path d="M 57.17 426.213333 
L 272.721328 426.213333 
" style="fill: none; stroke: #000000; stroke-width: 0.8; stroke-linejoin: miter; stroke-linecap: square"/>
   </g>
   <g id="text_40">
    <!-- Blue Channel  -->
    <g transform="translate(189.272578 440.213333) scale(0.12 -0.12)">
     <defs>
      <path id="DejaVuSans-42" d="M 1259 2228 
L 1259 519 
L 2272 519 
Q 2781 519 3026 730 
Q 3272 941 3272 1375 
Q 3272 1813 3026 2020 
Q 2781 2228 2272 2228 
L 1259 2228 
z
M 1259 4147 
L 1259 2741 
L 2194 2741 
Q 2656 2741 2882 2914 
Q 3109 3088 3109 3444 
Q 3109 3797 2882 3972 
Q 2656 4147 2194 4147 
L 1259 4147 
z
M 628 4666 
L 2241 4666 
Q 2963 4666 3353 4366 
Q 3744 4066 3744 3513 
Q 3744 3084 3544 2831 
Q 3344 2578 2956 2516 
Q 3422 2416 3680 2098 
Q 3938 1781 3938 1306 
Q 3938 681 3513 340 
Q 3088 0 2303 0 
L 628 0 
L 628 4666 
z
" transform="scale(0.015625)"/>
     </defs>
     <use xlink:href="#DejaVuSans-42"/>
     <use xlink:href="#DejaVuSans-6c" x="68.603516"/>
     <use xlink:href="#DejaVuSans-75" x="96.386719"/>
     <use xlink:href="#DejaVuSans-65" x="159.765625"/>
     <use xlink:href="#DejaVuSans-20" x="221.289062"/>
     <use xlink:href="#DejaVuSans-43" x="253.076172"/>
     <use xlink:href="#DejaVuSans-68" x="322.900391"/>
     <use xlink:href="#DejaVuSans-61" x="386.279297"/>
     <use xlink:href="#DejaVuSans-6e" x="447.558594"/>
     <use xlink:href="#DejaVuSans-6e" x="510.9375"/>
     <use xlink:href="#DejaVuSans-65" x="574.316406"/>
     <use xlink:href="#DejaVuSans-6c" x="635.839844"/>
     <use xlink:href="#DejaVuSans-20" x="663.623047"/>
    </g>
   </g>
  </g>
 </g>
 <defs>
  <clipPath id="p28f3ef4c3e">
   <rect x="57.17" y="10.8" width="215.551328" height="179.826667"/>
  </clipPath>
  <clipPath id="pc27bebb2a8">
   <rect x="57.17" y="218.506667" width="215.551328" height="179.826667"/>
  </clipPath>
  <clipPath id="p5dbd571d58">
   <rect x="57.17" y="426.213333" width="215.551328" height="179.826667"/>
  </clipPath>
 </defs>
</svg>
