<?xml version="1.0" encoding="utf-8" standalone="no"?>
<!DOCTYPE svg PUBLIC "-//W3C//DTD SVG 1.1//EN"
  "http://www.w3.org/Graphics/SVG/1.1/DTD/svg11.dtd">
<svg xmlns:xlink="http://www.w3.org/1999/xlink" width="720pt" height="288pt" viewBox="0 0 720 288" xmlns="http://www.w3.org/2000/svg" version="1.1">
 <metadata>
  <rdf:RDF xmlns:dc="http://purl.org/dc/elements/1.1/" xmlns:cc="http://creativecommons.org/ns#" xmlns:rdf="http://www.w3.org/1999/02/22-rdf-syntax-ns#">
   <cc:Work>
    <dc:type rdf:resource="http://purl.org/dc/dcmitype/StillImage"/>
    <dc:date>2023-11-18T15:19:47.722464</dc:date>
    <dc:format>image/svg+xml</dc:format>
    <dc:creator>
     <cc:Agent>
      <dc:title>Matplotlib v3.8.0, https://matplotlib.org/</dc:title>
     </cc:Agent>
    </dc:creator>
   </cc:Work>
  </rdf:RDF>
 </metadata>
 <defs>
  <style type="text/css">*{stroke-linejoin: round; stroke-linecap: butt}</style>
 </defs>
 <g id="figure_1">
  <g id="patch_1">
   <path d="M 0 288 
L 720 288 
L 720 0 
L 0 0 
z
" style="fill: #ffffff"/>
  </g>
  <g id="axes_1">
   <g id="patch_2">
    <path d="M 90 256.32 
L 648 256.32 
L 648 34.56 
L 90 34.56 
z
" style="fill: #ffffff"/>
   </g>
   <g id="matplotlib.axis_1">
    <g id="xtick_1">
     <g id="line2d_1">
      <defs>
       <path id="m93659b656a" d="M 0 0 
L 0 3.5 
" style="stroke: #000000; stroke-width: 0.8"/>
      </defs>
      <g>
       <use xlink:href="#m93659b656a" x="90" y="256.32" style="stroke: #000000; stroke-width: 0.8"/>
      </g>
     </g>
     <g id="text_1">
      <!-- 0 -->
      <g transform="translate(86.81875 270.918437) scale(0.1 -0.1)">
       <defs>
        <path id="DejaVuSans-30" d="M 2034 4250 
Q 1547 4250 1301 3770 
Q 1056 3291 1056 2328 
Q 1056 1369 1301 889 
Q 1547 409 2034 409 
Q 2525 409 2770 889 
Q 3016 1369 3016 2328 
Q 3016 3291 2770 3770 
Q 2525 4250 2034 4250 
z
M 2034 4750 
Q 2819 4750 3233 4129 
Q 3647 3509 3647 2328 
Q 3647 1150 3233 529 
Q 2819 -91 2034 -91 
Q 1250 -91 836 529 
Q 422 1150 422 2328 
Q 422 3509 836 4129 
Q 1250 4750 2034 4750 
z
" transform="scale(0.015625)"/>
       </defs>
       <use xlink:href="#DejaVuSans-30"/>
      </g>
     </g>
    </g>
    <g id="xtick_2">
     <g id="line2d_2">
      <g>
       <use xlink:href="#m93659b656a" x="198.984375" y="256.32" style="stroke: #000000; stroke-width: 0.8"/>
      </g>
     </g>
     <g id="text_2">
      <!-- 50 -->
      <g transform="translate(192.621875 270.918437) scale(0.1 -0.1)">
       <defs>
        <path id="DejaVuSans-35" d="M 691 4666 
L 3169 4666 
L 3169 4134 
L 1269 4134 
L 1269 2991 
Q 1406 3038 1543 3061 
Q 1681 3084 1819 3084 
Q 2600 3084 3056 2656 
Q 3513 2228 3513 1497 
Q 3513 744 3044 326 
Q 2575 -91 1722 -91 
Q 1428 -91 1123 -41 
Q 819 9 494 109 
L 494 744 
Q 775 591 1075 516 
Q 1375 441 1709 441 
Q 2250 441 2565 725 
Q 2881 1009 2881 1497 
Q 2881 1984 2565 2268 
Q 2250 2553 1709 2553 
Q 1456 2553 1204 2497 
Q 953 2441 691 2322 
L 691 4666 
z
" transform="scale(0.015625)"/>
       </defs>
       <use xlink:href="#DejaVuSans-35"/>
       <use xlink:href="#DejaVuSans-30" x="63.623047"/>
      </g>
     </g>
    </g>
    <g id="xtick_3">
     <g id="line2d_3">
      <g>
       <use xlink:href="#m93659b656a" x="307.96875" y="256.32" style="stroke: #000000; stroke-width: 0.8"/>
      </g>
     </g>
     <g id="text_3">
      <!-- 100 -->
      <g transform="translate(298.425 270.918437) scale(0.1 -0.1)">
       <defs>
        <path id="DejaVuSans-31" d="M 794 531 
L 1825 531 
L 1825 4091 
L 703 3866 
L 703 4441 
L 1819 4666 
L 2450 4666 
L 2450 531 
L 3481 531 
L 3481 0 
L 794 0 
L 794 531 
z
" transform="scale(0.015625)"/>
       </defs>
       <use xlink:href="#DejaVuSans-31"/>
       <use xlink:href="#DejaVuSans-30" x="63.623047"/>
       <use xlink:href="#DejaVuSans-30" x="127.246094"/>
      </g>
     </g>
    </g>
    <g id="xtick_4">
     <g id="line2d_4">
      <g>
       <use xlink:href="#m93659b656a" x="416.953125" y="256.32" style="stroke: #000000; stroke-width: 0.8"/>
      </g>
     </g>
     <g id="text_4">
      <!-- 150 -->
      <g transform="translate(407.409375 270.918437) scale(0.1 -0.1)">
       <use xlink:href="#DejaVuSans-31"/>
       <use xlink:href="#DejaVuSans-35" x="63.623047"/>
       <use xlink:href="#DejaVuSans-30" x="127.246094"/>
      </g>
     </g>
    </g>
    <g id="xtick_5">
     <g id="line2d_5">
      <g>
       <use xlink:href="#m93659b656a" x="525.9375" y="256.32" style="stroke: #000000; stroke-width: 0.8"/>
      </g>
     </g>
     <g id="text_5">
      <!-- 200 -->
      <g transform="translate(516.39375 270.918437) scale(0.1 -0.1)">
       <defs>
        <path id="DejaVuSans-32" d="M 1228 531 
L 3431 531 
L 3431 0 
L 469 0 
L 469 531 
Q 828 903 1448 1529 
Q 2069 2156 2228 2338 
Q 2531 2678 2651 2914 
Q 2772 3150 2772 3378 
Q 2772 3750 2511 3984 
Q 2250 4219 1831 4219 
Q 1534 4219 1204 4116 
Q 875 4013 500 3803 
L 500 4441 
Q 881 4594 1212 4672 
Q 1544 4750 1819 4750 
Q 2544 4750 2975 4387 
Q 3406 4025 3406 3419 
Q 3406 3131 3298 2873 
Q 3191 2616 2906 2266 
Q 2828 2175 2409 1742 
Q 1991 1309 1228 531 
z
" transform="scale(0.015625)"/>
       </defs>
       <use xlink:href="#DejaVuSans-32"/>
       <use xlink:href="#DejaVuSans-30" x="63.623047"/>
       <use xlink:href="#DejaVuSans-30" x="127.246094"/>
      </g>
     </g>
    </g>
    <g id="xtick_6">
     <g id="line2d_6">
      <g>
       <use xlink:href="#m93659b656a" x="634.921875" y="256.32" style="stroke: #000000; stroke-width: 0.8"/>
      </g>
     </g>
     <g id="text_6">
      <!-- 250 -->
      <g transform="translate(625.378125 270.918437) scale(0.1 -0.1)">
       <use xlink:href="#DejaVuSans-32"/>
       <use xlink:href="#DejaVuSans-35" x="63.623047"/>
       <use xlink:href="#DejaVuSans-30" x="127.246094"/>
      </g>
     </g>
    </g>
    <g id="text_7">
     <!-- Pixel Intensity -->
     <g transform="translate(334.088281 284.596563) scale(0.1 -0.1)">
      <defs>
       <path id="DejaVuSans-50" d="M 1259 4147 
L 1259 2394 
L 2053 2394 
Q 2494 2394 2734 2622 
Q 2975 2850 2975 3272 
Q 2975 3691 2734 3919 
Q 2494 4147 2053 4147 
L 1259 4147 
z
M 628 4666 
L 2053 4666 
Q 2838 4666 3239 4311 
Q 3641 3956 3641 3272 
Q 3641 2581 3239 2228 
Q 2838 1875 2053 1875 
L 1259 1875 
L 1259 0 
L 628 0 
L 628 4666 
z
" transform="scale(0.015625)"/>
       <path id="DejaVuSans-69" d="M 603 3500 
L 1178 3500 
L 1178 0 
L 603 0 
L 603 3500 
z
M 603 4863 
L 1178 4863 
L 1178 4134 
L 603 4134 
L 603 4863 
z
" transform="scale(0.015625)"/>
       <path id="DejaVuSans-78" d="M 3513 3500 
L 2247 1797 
L 3578 0 
L 2900 0 
L 1881 1375 
L 863 0 
L 184 0 
L 1544 1831 
L 300 3500 
L 978 3500 
L 1906 2253 
L 2834 3500 
L 3513 3500 
z
" transform="scale(0.015625)"/>
       <path id="DejaVuSans-65" d="M 3597 1894 
L 3597 1613 
L 953 1613 
Q 991 1019 1311 708 
Q 1631 397 2203 397 
Q 2534 397 2845 478 
Q 3156 559 3463 722 
L 3463 178 
Q 3153 47 2828 -22 
Q 2503 -91 2169 -91 
Q 1331 -91 842 396 
Q 353 884 353 1716 
Q 353 2575 817 3079 
Q 1281 3584 2069 3584 
Q 2775 3584 3186 3129 
Q 3597 2675 3597 1894 
z
M 3022 2063 
Q 3016 2534 2758 2815 
Q 2500 3097 2075 3097 
Q 1594 3097 1305 2825 
Q 1016 2553 972 2059 
L 3022 2063 
z
" transform="scale(0.015625)"/>
       <path id="DejaVuSans-6c" d="M 603 4863 
L 1178 4863 
L 1178 0 
L 603 0 
L 603 4863 
z
" transform="scale(0.015625)"/>
       <path id="DejaVuSans-20" transform="scale(0.015625)"/>
       <path id="DejaVuSans-49" d="M 628 4666 
L 1259 4666 
L 1259 0 
L 628 0 
L 628 4666 
z
" transform="scale(0.015625)"/>
       <path id="DejaVuSans-6e" d="M 3513 2113 
L 3513 0 
L 2938 0 
L 2938 2094 
Q 2938 2591 2744 2837 
Q 2550 3084 2163 3084 
Q 1697 3084 1428 2787 
Q 1159 2491 1159 1978 
L 1159 0 
L 581 0 
L 581 3500 
L 1159 3500 
L 1159 2956 
Q 1366 3272 1645 3428 
Q 1925 3584 2291 3584 
Q 2894 3584 3203 3211 
Q 3513 2838 3513 2113 
z
" transform="scale(0.015625)"/>
       <path id="DejaVuSans-74" d="M 1172 4494 
L 1172 3500 
L 2356 3500 
L 2356 3053 
L 1172 3053 
L 1172 1153 
Q 1172 725 1289 603 
Q 1406 481 1766 481 
L 2356 481 
L 2356 0 
L 1766 0 
Q 1100 0 847 248 
Q 594 497 594 1153 
L 594 3053 
L 172 3053 
L 172 3500 
L 594 3500 
L 594 4494 
L 1172 4494 
z
" transform="scale(0.015625)"/>
       <path id="DejaVuSans-73" d="M 2834 3397 
L 2834 2853 
Q 2591 2978 2328 3040 
Q 2066 3103 1784 3103 
Q 1356 3103 1142 2972 
Q 928 2841 928 2578 
Q 928 2378 1081 2264 
Q 1234 2150 1697 2047 
L 1894 2003 
Q 2506 1872 2764 1633 
Q 3022 1394 3022 966 
Q 3022 478 2636 193 
Q 2250 -91 1575 -91 
Q 1294 -91 989 -36 
Q 684 19 347 128 
L 347 722 
Q 666 556 975 473 
Q 1284 391 1588 391 
Q 1994 391 2212 530 
Q 2431 669 2431 922 
Q 2431 1156 2273 1281 
Q 2116 1406 1581 1522 
L 1381 1569 
Q 847 1681 609 1914 
Q 372 2147 372 2553 
Q 372 3047 722 3315 
Q 1072 3584 1716 3584 
Q 2034 3584 2315 3537 
Q 2597 3491 2834 3397 
z
" transform="scale(0.015625)"/>
       <path id="DejaVuSans-79" d="M 2059 -325 
Q 1816 -950 1584 -1140 
Q 1353 -1331 966 -1331 
L 506 -1331 
L 506 -850 
L 844 -850 
Q 1081 -850 1212 -737 
Q 1344 -625 1503 -206 
L 1606 56 
L 191 3500 
L 800 3500 
L 1894 763 
L 2988 3500 
L 3597 3500 
L 2059 -325 
z
" transform="scale(0.015625)"/>
      </defs>
      <use xlink:href="#DejaVuSans-50"/>
      <use xlink:href="#DejaVuSans-69" x="58.052734"/>
      <use xlink:href="#DejaVuSans-78" x="85.835938"/>
      <use xlink:href="#DejaVuSans-65" x="141.890625"/>
      <use xlink:href="#DejaVuSans-6c" x="203.414062"/>
      <use xlink:href="#DejaVuSans-20" x="231.197266"/>
      <use xlink:href="#DejaVuSans-49" x="262.984375"/>
      <use xlink:href="#DejaVuSans-6e" x="292.476562"/>
      <use xlink:href="#DejaVuSans-74" x="355.855469"/>
      <use xlink:href="#DejaVuSans-65" x="395.064453"/>
      <use xlink:href="#DejaVuSans-6e" x="456.587891"/>
      <use xlink:href="#DejaVuSans-73" x="519.966797"/>
      <use xlink:href="#DejaVuSans-69" x="572.066406"/>
      <use xlink:href="#DejaVuSans-74" x="599.849609"/>
      <use xlink:href="#DejaVuSans-79" x="639.058594"/>
     </g>
    </g>
   </g>
   <g id="matplotlib.axis_2">
    <g id="ytick_1">
     <g id="line2d_7">
      <defs>
       <path id="mfcd1e3ed91" d="M 0 0 
L -3.5 0 
" style="stroke: #000000; stroke-width: 0.8"/>
      </defs>
      <g>
       <use xlink:href="#mfcd1e3ed91" x="90" y="246.24" style="stroke: #000000; stroke-width: 0.8"/>
      </g>
     </g>
     <g id="text_8">
      <!-- 0 -->
      <g transform="translate(76.6375 250.039219) scale(0.1 -0.1)">
       <use xlink:href="#DejaVuSans-30"/>
      </g>
     </g>
    </g>
    <g id="ytick_2">
     <g id="line2d_8">
      <g>
       <use xlink:href="#mfcd1e3ed91" x="90" y="201.400142" style="stroke: #000000; stroke-width: 0.8"/>
      </g>
     </g>
     <g id="text_9">
      <!-- 500 -->
      <g transform="translate(63.9125 205.199361) scale(0.1 -0.1)">
       <use xlink:href="#DejaVuSans-35"/>
       <use xlink:href="#DejaVuSans-30" x="63.623047"/>
       <use xlink:href="#DejaVuSans-30" x="127.246094"/>
      </g>
     </g>
    </g>
    <g id="ytick_3">
     <g id="line2d_9">
      <g>
       <use xlink:href="#mfcd1e3ed91" x="90" y="156.560285" style="stroke: #000000; stroke-width: 0.8"/>
      </g>
     </g>
     <g id="text_10">
      <!-- 1000 -->
      <g transform="translate(57.55 160.359503) scale(0.1 -0.1)">
       <use xlink:href="#DejaVuSans-31"/>
       <use xlink:href="#DejaVuSans-30" x="63.623047"/>
       <use xlink:href="#DejaVuSans-30" x="127.246094"/>
       <use xlink:href="#DejaVuSans-30" x="190.869141"/>
      </g>
     </g>
    </g>
    <g id="ytick_4">
     <g id="line2d_10">
      <g>
       <use xlink:href="#mfcd1e3ed91" x="90" y="111.720427" style="stroke: #000000; stroke-width: 0.8"/>
      </g>
     </g>
     <g id="text_11">
      <!-- 1500 -->
      <g transform="translate(57.55 115.519646) scale(0.1 -0.1)">
       <use xlink:href="#DejaVuSans-31"/>
       <use xlink:href="#DejaVuSans-35" x="63.623047"/>
       <use xlink:href="#DejaVuSans-30" x="127.246094"/>
       <use xlink:href="#DejaVuSans-30" x="190.869141"/>
      </g>
     </g>
    </g>
    <g id="ytick_5">
     <g id="line2d_11">
      <g>
       <use xlink:href="#mfcd1e3ed91" x="90" y="66.880569" style="stroke: #000000; stroke-width: 0.8"/>
      </g>
     </g>
     <g id="text_12">
      <!-- 2000 -->
      <g transform="translate(57.55 70.679788) scale(0.1 -0.1)">
       <use xlink:href="#DejaVuSans-32"/>
       <use xlink:href="#DejaVuSans-30" x="63.623047"/>
       <use xlink:href="#DejaVuSans-30" x="127.246094"/>
       <use xlink:href="#DejaVuSans-30" x="190.869141"/>
      </g>
     </g>
    </g>
    <g id="text_13">
     <!-- Frequency -->
     <g transform="translate(51.470312 171.269688) rotate(-90) scale(0.1 -0.1)">
      <defs>
       <path id="DejaVuSans-46" d="M 628 4666 
L 3309 4666 
L 3309 4134 
L 1259 4134 
L 1259 2759 
L 3109 2759 
L 3109 2228 
L 1259 2228 
L 1259 0 
L 628 0 
L 628 4666 
z
" transform="scale(0.015625)"/>
       <path id="DejaVuSans-72" d="M 2631 2963 
Q 2534 3019 2420 3045 
Q 2306 3072 2169 3072 
Q 1681 3072 1420 2755 
Q 1159 2438 1159 1844 
L 1159 0 
L 581 0 
L 581 3500 
L 1159 3500 
L 1159 2956 
Q 1341 3275 1631 3429 
Q 1922 3584 2338 3584 
Q 2397 3584 2469 3576 
Q 2541 3569 2628 3553 
L 2631 2963 
z
" transform="scale(0.015625)"/>
       <path id="DejaVuSans-71" d="M 947 1747 
Q 947 1113 1208 752 
Q 1469 391 1925 391 
Q 2381 391 2643 752 
Q 2906 1113 2906 1747 
Q 2906 2381 2643 2742 
Q 2381 3103 1925 3103 
Q 1469 3103 1208 2742 
Q 947 2381 947 1747 
z
M 2906 525 
Q 2725 213 2448 61 
Q 2172 -91 1784 -91 
Q 1150 -91 751 415 
Q 353 922 353 1747 
Q 353 2572 751 3078 
Q 1150 3584 1784 3584 
Q 2172 3584 2448 3432 
Q 2725 3281 2906 2969 
L 2906 3500 
L 3481 3500 
L 3481 -1331 
L 2906 -1331 
L 2906 525 
z
" transform="scale(0.015625)"/>
       <path id="DejaVuSans-75" d="M 544 1381 
L 544 3500 
L 1119 3500 
L 1119 1403 
Q 1119 906 1312 657 
Q 1506 409 1894 409 
Q 2359 409 2629 706 
Q 2900 1003 2900 1516 
L 2900 3500 
L 3475 3500 
L 3475 0 
L 2900 0 
L 2900 538 
Q 2691 219 2414 64 
Q 2138 -91 1772 -91 
Q 1169 -91 856 284 
Q 544 659 544 1381 
z
M 1991 3584 
L 1991 3584 
z
" transform="scale(0.015625)"/>
       <path id="DejaVuSans-63" d="M 3122 3366 
L 3122 2828 
Q 2878 2963 2633 3030 
Q 2388 3097 2138 3097 
Q 1578 3097 1268 2742 
Q 959 2388 959 1747 
Q 959 1106 1268 751 
Q 1578 397 2138 397 
Q 2388 397 2633 464 
Q 2878 531 3122 666 
L 3122 134 
Q 2881 22 2623 -34 
Q 2366 -91 2075 -91 
Q 1284 -91 818 406 
Q 353 903 353 1747 
Q 353 2603 823 3093 
Q 1294 3584 2113 3584 
Q 2378 3584 2631 3529 
Q 2884 3475 3122 3366 
z
" transform="scale(0.015625)"/>
      </defs>
      <use xlink:href="#DejaVuSans-46"/>
      <use xlink:href="#DejaVuSans-72" x="50.269531"/>
      <use xlink:href="#DejaVuSans-65" x="89.132812"/>
      <use xlink:href="#DejaVuSans-71" x="150.65625"/>
      <use xlink:href="#DejaVuSans-75" x="214.132812"/>
      <use xlink:href="#DejaVuSans-65" x="277.511719"/>
      <use xlink:href="#DejaVuSans-6e" x="339.035156"/>
      <use xlink:href="#DejaVuSans-63" x="402.414062"/>
      <use xlink:href="#DejaVuSans-79" x="457.394531"/>
     </g>
    </g>
   </g>
   <g id="line2d_12">
    <path d="M 90 246.24 
L 161.929688 246.24 
L 164.109375 245.970961 
L 166.289062 244.894804 
L 168.46875 242.204413 
L 170.648438 229.918292 
L 175.007812 198.530391 
L 177.1875 175.662064 
L 179.367188 155.215089 
L 181.546875 130.373808 
L 183.726562 59.078434 
L 185.90625 44.64 
L 188.085938 65.983772 
L 190.265625 109.209395 
L 192.445312 136.292669 
L 194.625 157.99516 
L 196.804688 169.294804 
L 198.984375 178.531815 
L 201.164062 193.149609 
L 203.34375 189.203701 
L 205.523438 196.916157 
L 207.703125 197.723274 
L 209.882812 197.454235 
L 212.0625 199.158149 
L 214.242188 200.234306 
L 216.421875 197.364555 
L 218.601562 195.122562 
L 220.78125 199.158149 
L 222.960938 200.682705 
L 225.140625 204.628612 
L 227.320312 200.862064 
L 229.5 203.104057 
L 231.679688 201.669181 
L 236.039062 206.332527 
L 238.21875 205.34605 
L 240.398438 206.691246 
L 242.578125 208.753879 
L 244.757812 209.202278 
L 246.9375 207.408683 
L 249.117188 209.291957 
L 251.296875 210.188754 
L 253.476562 214.58306 
L 255.65625 208.753879 
L 257.835938 209.560996 
L 260.015625 211.802989 
L 262.195312 213.596584 
L 264.375 213.506904 
L 266.554688 213.148185 
L 268.734375 214.493381 
L 270.914062 213.327544 
L 273.09375 217.81153 
L 275.273438 216.735374 
L 277.453125 217.542491 
L 279.632812 216.376655 
L 281.8125 220.053523 
L 283.992188 220.770961 
L 286.171875 218.977367 
L 288.351562 218.977367 
L 290.53125 220.322562 
L 292.710938 221.847117 
L 294.890625 221.578078 
L 297.070312 222.923274 
L 299.25 218.528968 
L 301.429688 220.770961 
L 303.609375 220.591601 
L 305.789062 224.716868 
L 307.96875 223.192313 
L 310.148438 224.537509 
L 314.507812 225.165267 
L 316.6875 225.254947 
L 318.867188 224.896228 
L 321.046875 229.559573 
L 323.226562 225.075587 
L 325.40625 227.138221 
L 327.585938 227.048541 
L 329.765625 227.676299 
L 331.945312 227.40726 
L 334.125 230.45637 
L 336.304688 229.021495 
L 338.484375 227.2279 
L 340.664062 229.649253 
L 342.84375 227.048541 
L 345.023438 227.138221 
L 347.203125 230.54605 
L 349.382812 231.173808 
L 351.5625 230.815089 
L 353.742188 229.200854 
L 355.921875 232.788043 
L 358.101562 230.007972 
L 360.28125 231.173808 
L 362.460938 231.173808 
L 364.640625 231.622206 
L 366.820312 234.491957 
L 369 234.133238 
L 371.179688 232.608683 
L 373.359375 234.671317 
L 375.539062 234.312598 
L 377.71875 232.967402 
L 379.898438 235.388754 
L 382.078125 234.402278 
L 384.257812 235.926833 
L 386.4375 235.299075 
L 388.617188 236.64427 
L 390.796875 237.002989 
L 392.976562 236.285552 
L 395.15625 237.810107 
L 397.335938 236.464911 
L 399.515625 238.348185 
L 401.695312 236.64427 
L 403.875 237.092669 
L 406.054688 237.092669 
L 408.234375 236.64427 
L 410.414062 237.451388 
L 412.59375 238.437865 
L 414.773438 237.182349 
L 416.953125 236.64427 
L 419.132812 237.630747 
L 423.492188 238.886263 
L 425.671875 238.706904 
L 427.851562 237.361708 
L 430.03125 237.899786 
L 432.210938 238.706904 
L 434.390625 240.321139 
L 436.570312 238.886263 
L 438.75 239.514021 
L 440.929688 238.527544 
L 443.109375 240.500498 
L 445.289062 238.975943 
L 447.46875 238.796584 
L 449.648438 240.590178 
L 451.828125 241.217936 
L 454.007812 239.693381 
L 456.1875 239.603701 
L 458.367188 240.948897 
L 460.546875 240.410819 
L 462.726562 241.576655 
L 464.90625 239.87274 
L 467.085938 241.128256 
L 469.265625 240.590178 
L 471.445312 240.590178 
L 473.625 241.307616 
L 475.804688 239.155302 
L 477.984375 240.141779 
L 480.164062 240.859217 
L 482.34375 240.859217 
L 484.523438 240.500498 
L 486.703125 240.321139 
L 488.882812 240.321139 
L 491.0625 241.845694 
L 493.242188 240.410819 
L 495.421875 241.038577 
L 497.601562 241.486975 
L 501.960938 240.321139 
L 504.140625 241.128256 
L 508.5 241.666335 
L 510.679688 240.590178 
L 512.859375 242.383772 
L 515.039062 241.576655 
L 517.21875 242.294093 
L 519.398438 242.383772 
L 521.578125 241.128256 
L 523.757812 241.845694 
L 525.9375 242.294093 
L 528.117188 241.576655 
L 530.296875 242.383772 
L 532.476562 242.383772 
L 534.65625 241.935374 
L 536.835938 242.114733 
L 539.015625 241.397295 
L 541.195312 241.038577 
L 545.554688 242.742491 
L 547.734375 242.114733 
L 549.914062 242.921851 
L 554.273438 242.742491 
L 556.453125 242.383772 
L 558.632812 242.563132 
L 560.8125 242.563132 
L 565.171875 241.397295 
L 567.351562 242.473452 
L 569.53125 241.666335 
L 571.710938 241.576655 
L 573.890625 241.038577 
L 578.25 240.769537 
L 580.429688 240.679858 
L 582.609375 241.307616 
L 584.789062 239.96242 
L 586.96875 240.948897 
L 589.148438 241.217936 
L 591.328125 239.514021 
L 593.507812 241.128256 
L 595.6875 240.679858 
L 597.867188 240.948897 
L 600.046875 239.334662 
L 602.226562 240.590178 
L 604.40625 239.87274 
L 606.585938 241.486975 
L 608.765625 239.603701 
L 610.945312 240.0521 
L 613.125 241.128256 
L 615.304688 242.025053 
L 617.484375 242.563132 
L 619.664062 242.921851 
L 621.84375 241.666335 
L 624.023438 242.473452 
L 626.203125 240.948897 
L 628.382812 241.845694 
L 632.742188 242.114733 
L 634.921875 242.652811 
L 637.101562 239.78306 
L 639.28125 242.652811 
L 641.460938 241.307616 
L 643.640625 243.818648 
L 645.820312 245.970961 
L 645.820312 245.970961 
" clip-path="url(#p6b7abf5f90)" style="fill: none; stroke: #1f77b4; stroke-width: 1.5; stroke-linecap: square"/>
   </g>
   <g id="line2d_13">
    <path d="M 90 246.24 
L 159.75 246.15032 
L 161.929688 245.522562 
L 164.109375 244.715445 
L 166.289062 243.728968 
L 168.46875 241.576655 
L 170.648438 239.603701 
L 172.828125 232.339644 
L 175.007812 221.219359 
L 177.1875 206.153167 
L 179.367188 177.724698 
L 181.546875 156.022206 
L 183.726562 131.360285 
L 185.90625 103.469893 
L 188.085938 101.586619 
L 190.265625 99.254947 
L 192.445312 113.78306 
L 194.625 127.414377 
L 198.984375 153.421495 
L 201.164062 165.348897 
L 203.34375 172.254235 
L 205.523438 182.926121 
L 207.703125 187.230747 
L 209.882812 192.342491 
L 212.0625 193.239288 
L 214.242188 193.508327 
L 216.421875 196.557438 
L 218.601562 195.570961 
L 220.78125 197.005836 
L 222.960938 194.763843 
L 225.140625 197.185196 
L 227.320312 196.467758 
L 229.5 196.557438 
L 231.679688 195.391601 
L 233.859375 195.391601 
L 236.039062 199.06847 
L 240.398438 202.924698 
L 242.578125 202.29694 
L 244.757812 201.400142 
L 246.9375 207.588043 
L 249.117188 203.193737 
L 251.296875 202.565979 
L 253.476562 207.049964 
L 255.65625 208.48484 
L 257.835938 209.202278 
L 260.015625 210.099075 
L 262.195312 212.520427 
L 264.375 210.009395 
L 266.554688 212.251388 
L 268.734375 212.879146 
L 270.914062 210.099075 
L 273.09375 214.941779 
L 275.273438 213.865623 
L 277.453125 215.569537 
L 279.632812 215.121139 
L 281.8125 217.183772 
L 283.992188 218.977367 
L 286.171875 214.134662 
L 288.351562 216.914733 
L 290.53125 220.95032 
L 292.710938 218.977367 
L 297.070312 220.322562 
L 299.25 221.488399 
L 301.429688 220.591601 
L 303.609375 222.026477 
L 305.789062 223.012954 
L 307.96875 222.385196 
L 310.148438 222.205836 
L 312.328125 222.654235 
L 314.507812 223.551032 
L 316.6875 224.806548 
L 318.867188 227.2279 
L 321.046875 225.254947 
L 323.226562 226.420783 
L 325.40625 226.241423 
L 327.585938 229.021495 
L 329.765625 228.483416 
L 331.945312 229.559573 
L 334.125 229.200854 
L 336.304688 230.007972 
L 338.484375 228.304057 
L 340.664062 230.007972 
L 342.84375 229.021495 
L 345.023438 229.918292 
L 347.203125 228.931815 
L 349.382812 230.904769 
L 351.5625 231.084128 
L 353.742188 232.249964 
L 355.921875 230.54605 
L 358.101562 230.904769 
L 360.28125 232.339644 
L 362.460938 235.119715 
L 364.640625 234.402278 
L 366.820312 234.312598 
L 369 235.478434 
L 371.179688 233.146762 
L 373.359375 235.478434 
L 375.539062 234.940356 
L 377.71875 235.299075 
L 379.898438 236.64427 
L 382.078125 234.043559 
L 384.257812 236.554591 
L 386.4375 236.73395 
L 388.617188 236.554591 
L 390.796875 236.91331 
L 392.976562 237.541068 
L 395.15625 238.796584 
L 397.335938 237.541068 
L 399.515625 238.168826 
L 401.695312 237.630747 
L 403.875 236.91331 
L 406.054688 237.361708 
L 408.234375 236.82363 
L 410.414062 238.527544 
L 412.59375 239.96242 
L 414.773438 237.451388 
L 416.953125 237.810107 
L 419.132812 238.437865 
L 423.492188 238.796584 
L 425.671875 239.334662 
L 430.03125 237.810107 
L 432.210938 239.065623 
L 434.390625 237.541068 
L 436.570312 241.038577 
L 438.75 239.155302 
L 440.929688 238.617224 
L 443.109375 239.96242 
L 445.289062 239.603701 
L 447.46875 239.693381 
L 449.648438 239.424342 
L 451.828125 240.0521 
L 454.007812 238.258505 
L 456.1875 240.859217 
L 458.367188 240.141779 
L 460.546875 239.693381 
L 462.726562 241.217936 
L 464.90625 241.128256 
L 467.085938 240.410819 
L 469.265625 240.590178 
L 471.445312 241.217936 
L 473.625 240.948897 
L 475.804688 240.948897 
L 477.984375 239.96242 
L 480.164062 239.78306 
L 482.34375 240.948897 
L 486.703125 240.500498 
L 488.882812 242.025053 
L 491.0625 240.948897 
L 493.242188 240.321139 
L 495.421875 241.935374 
L 497.601562 240.859217 
L 499.78125 240.679858 
L 501.960938 241.217936 
L 504.140625 240.948897 
L 506.320312 241.038577 
L 508.5 241.666335 
L 512.859375 241.486975 
L 515.039062 241.935374 
L 517.21875 241.576655 
L 519.398438 241.935374 
L 521.578125 241.397295 
L 523.757812 241.666335 
L 525.9375 241.576655 
L 528.117188 241.217936 
L 530.296875 243.19089 
L 532.476562 242.204413 
L 534.65625 242.114733 
L 536.835938 242.652811 
L 539.015625 242.383772 
L 541.195312 242.921851 
L 543.375 243.01153 
L 545.554688 241.935374 
L 547.734375 241.128256 
L 549.914062 243.01153 
L 552.09375 242.383772 
L 554.273438 240.0521 
L 556.453125 242.921851 
L 558.632812 242.294093 
L 560.8125 242.025053 
L 562.992188 242.294093 
L 565.171875 242.294093 
L 567.351562 241.756014 
L 569.53125 242.204413 
L 571.710938 240.410819 
L 573.890625 241.666335 
L 576.070312 241.666335 
L 578.25 242.294093 
L 580.429688 241.576655 
L 582.609375 241.038577 
L 584.789062 240.948897 
L 586.96875 240.141779 
L 589.148438 240.590178 
L 593.507812 240.410819 
L 595.6875 240.590178 
L 597.867188 241.038577 
L 600.046875 241.935374 
L 602.226562 240.321139 
L 604.40625 242.114733 
L 606.585938 241.666335 
L 608.765625 240.500498 
L 610.945312 242.114733 
L 613.125 241.845694 
L 615.304688 242.563132 
L 617.484375 242.025053 
L 619.664062 242.652811 
L 621.84375 242.473452 
L 624.023438 241.756014 
L 628.382812 242.383772 
L 630.5625 241.666335 
L 632.742188 238.975943 
L 634.921875 236.91331 
L 637.101562 239.78306 
L 639.28125 245.970961 
L 641.460938 246.24 
L 645.820312 246.24 
L 645.820312 246.24 
" clip-path="url(#p6b7abf5f90)" style="fill: none; stroke: #ff7f0e; stroke-width: 1.5; stroke-linecap: square"/>
   </g>
   <g id="patch_3">
    <path d="M 90 256.32 
L 90 34.56 
" style="fill: none; stroke: #000000; stroke-width: 0.8; stroke-linejoin: miter; stroke-linecap: square"/>
   </g>
   <g id="patch_4">
    <path d="M 648 256.32 
L 648 34.56 
" style="fill: none; stroke: #000000; stroke-width: 0.8; stroke-linejoin: miter; stroke-linecap: square"/>
   </g>
   <g id="patch_5">
    <path d="M 90 256.32 
L 648 256.32 
" style="fill: none; stroke: #000000; stroke-width: 0.8; stroke-linejoin: miter; stroke-linecap: square"/>
   </g>
   <g id="patch_6">
    <path d="M 90 34.56 
L 648 34.56 
" style="fill: none; stroke: #000000; stroke-width: 0.8; stroke-linejoin: miter; stroke-linecap: square"/>
   </g>
   <g id="legend_1">
    <g id="patch_7">
     <path d="M 562.201563 71.91625 
L 641 71.91625 
Q 643 71.91625 643 69.91625 
L 643 41.56 
Q 643 39.56 641 39.56 
L 562.201563 39.56 
Q 560.201563 39.56 560.201563 41.56 
L 560.201563 69.91625 
Q 560.201563 71.91625 562.201563 71.91625 
z
" style="fill: #ffffff; opacity: 0.8; stroke: #cccccc; stroke-linejoin: miter"/>
    </g>
    <g id="line2d_14">
     <path d="M 564.201563 47.658437 
L 574.201563 47.658437 
L 584.201563 47.658437 
" style="fill: none; stroke: #1f77b4; stroke-width: 1.5; stroke-linecap: square"/>
    </g>
    <g id="text_14">
     <!-- Original -->
     <g transform="translate(592.201563 51.158437) scale(0.1 -0.1)">
      <defs>
       <path id="DejaVuSans-4f" d="M 2522 4238 
Q 1834 4238 1429 3725 
Q 1025 3213 1025 2328 
Q 1025 1447 1429 934 
Q 1834 422 2522 422 
Q 3209 422 3611 934 
Q 4013 1447 4013 2328 
Q 4013 3213 3611 3725 
Q 3209 4238 2522 4238 
z
M 2522 4750 
Q 3503 4750 4090 4092 
Q 4678 3434 4678 2328 
Q 4678 1225 4090 567 
Q 3503 -91 2522 -91 
Q 1538 -91 948 565 
Q 359 1222 359 2328 
Q 359 3434 948 4092 
Q 1538 4750 2522 4750 
z
" transform="scale(0.015625)"/>
       <path id="DejaVuSans-67" d="M 2906 1791 
Q 2906 2416 2648 2759 
Q 2391 3103 1925 3103 
Q 1463 3103 1205 2759 
Q 947 2416 947 1791 
Q 947 1169 1205 825 
Q 1463 481 1925 481 
Q 2391 481 2648 825 
Q 2906 1169 2906 1791 
z
M 3481 434 
Q 3481 -459 3084 -895 
Q 2688 -1331 1869 -1331 
Q 1566 -1331 1297 -1286 
Q 1028 -1241 775 -1147 
L 775 -588 
Q 1028 -725 1275 -790 
Q 1522 -856 1778 -856 
Q 2344 -856 2625 -561 
Q 2906 -266 2906 331 
L 2906 616 
Q 2728 306 2450 153 
Q 2172 0 1784 0 
Q 1141 0 747 490 
Q 353 981 353 1791 
Q 353 2603 747 3093 
Q 1141 3584 1784 3584 
Q 2172 3584 2450 3431 
Q 2728 3278 2906 2969 
L 2906 3500 
L 3481 3500 
L 3481 434 
z
" transform="scale(0.015625)"/>
       <path id="DejaVuSans-61" d="M 2194 1759 
Q 1497 1759 1228 1600 
Q 959 1441 959 1056 
Q 959 750 1161 570 
Q 1363 391 1709 391 
Q 2188 391 2477 730 
Q 2766 1069 2766 1631 
L 2766 1759 
L 2194 1759 
z
M 3341 1997 
L 3341 0 
L 2766 0 
L 2766 531 
Q 2569 213 2275 61 
Q 1981 -91 1556 -91 
Q 1019 -91 701 211 
Q 384 513 384 1019 
Q 384 1609 779 1909 
Q 1175 2209 1959 2209 
L 2766 2209 
L 2766 2266 
Q 2766 2663 2505 2880 
Q 2244 3097 1772 3097 
Q 1472 3097 1187 3025 
Q 903 2953 641 2809 
L 641 3341 
Q 956 3463 1253 3523 
Q 1550 3584 1831 3584 
Q 2591 3584 2966 3190 
Q 3341 2797 3341 1997 
z
" transform="scale(0.015625)"/>
      </defs>
      <use xlink:href="#DejaVuSans-4f"/>
      <use xlink:href="#DejaVuSans-72" x="78.710938"/>
      <use xlink:href="#DejaVuSans-69" x="119.824219"/>
      <use xlink:href="#DejaVuSans-67" x="147.607422"/>
      <use xlink:href="#DejaVuSans-69" x="211.083984"/>
      <use xlink:href="#DejaVuSans-6e" x="238.867188"/>
      <use xlink:href="#DejaVuSans-61" x="302.246094"/>
      <use xlink:href="#DejaVuSans-6c" x="363.525391"/>
     </g>
    </g>
    <g id="line2d_15">
     <path d="M 564.201563 62.336562 
L 574.201563 62.336562 
L 584.201563 62.336562 
" style="fill: none; stroke: #ff7f0e; stroke-width: 1.5; stroke-linecap: square"/>
    </g>
    <g id="text_15">
     <!-- Denoised -->
     <g transform="translate(592.201563 65.836562) scale(0.1 -0.1)">
      <defs>
       <path id="DejaVuSans-44" d="M 1259 4147 
L 1259 519 
L 2022 519 
Q 2988 519 3436 956 
Q 3884 1394 3884 2338 
Q 3884 3275 3436 3711 
Q 2988 4147 2022 4147 
L 1259 4147 
z
M 628 4666 
L 1925 4666 
Q 3281 4666 3915 4102 
Q 4550 3538 4550 2338 
Q 4550 1131 3912 565 
Q 3275 0 1925 0 
L 628 0 
L 628 4666 
z
" transform="scale(0.015625)"/>
       <path id="DejaVuSans-6f" d="M 1959 3097 
Q 1497 3097 1228 2736 
Q 959 2375 959 1747 
Q 959 1119 1226 758 
Q 1494 397 1959 397 
Q 2419 397 2687 759 
Q 2956 1122 2956 1747 
Q 2956 2369 2687 2733 
Q 2419 3097 1959 3097 
z
M 1959 3584 
Q 2709 3584 3137 3096 
Q 3566 2609 3566 1747 
Q 3566 888 3137 398 
Q 2709 -91 1959 -91 
Q 1206 -91 779 398 
Q 353 888 353 1747 
Q 353 2609 779 3096 
Q 1206 3584 1959 3584 
z
" transform="scale(0.015625)"/>
       <path id="DejaVuSans-64" d="M 2906 2969 
L 2906 4863 
L 3481 4863 
L 3481 0 
L 2906 0 
L 2906 525 
Q 2725 213 2448 61 
Q 2172 -91 1784 -91 
Q 1150 -91 751 415 
Q 353 922 353 1747 
Q 353 2572 751 3078 
Q 1150 3584 1784 3584 
Q 2172 3584 2448 3432 
Q 2725 3281 2906 2969 
z
M 947 1747 
Q 947 1113 1208 752 
Q 1469 391 1925 391 
Q 2381 391 2643 752 
Q 2906 1113 2906 1747 
Q 2906 2381 2643 2742 
Q 2381 3103 1925 3103 
Q 1469 3103 1208 2742 
Q 947 2381 947 1747 
z
" transform="scale(0.015625)"/>
      </defs>
      <use xlink:href="#DejaVuSans-44"/>
      <use xlink:href="#DejaVuSans-65" x="77.001953"/>
      <use xlink:href="#DejaVuSans-6e" x="138.525391"/>
      <use xlink:href="#DejaVuSans-6f" x="201.904297"/>
      <use xlink:href="#DejaVuSans-69" x="263.085938"/>
      <use xlink:href="#DejaVuSans-73" x="290.869141"/>
      <use xlink:href="#DejaVuSans-65" x="342.96875"/>
      <use xlink:href="#DejaVuSans-64" x="404.492188"/>
     </g>
    </g>
   </g>
  </g>
 </g>
 <defs>
  <clipPath id="p6b7abf5f90">
   <rect x="90" y="34.56" width="558" height="221.76"/>
  </clipPath>
 </defs>
</svg>
