<?xml version="1.0" encoding="utf-8" standalone="no"?>
<!DOCTYPE svg PUBLIC "-//W3C//DTD SVG 1.1//EN"
  "http://www.w3.org/Graphics/SVG/1.1/DTD/svg11.dtd">
<svg xmlns:xlink="http://www.w3.org/1999/xlink" width="288pt" height="648pt" viewBox="0 0 288 648" xmlns="http://www.w3.org/2000/svg" version="1.1">
 <metadata>
  <rdf:RDF xmlns:dc="http://purl.org/dc/elements/1.1/" xmlns:cc="http://creativecommons.org/ns#" xmlns:rdf="http://www.w3.org/1999/02/22-rdf-syntax-ns#">
   <cc:Work>
    <dc:type rdf:resource="http://purl.org/dc/dcmitype/StillImage"/>
    <dc:date>2023-11-18T15:19:45.482251</dc:date>
    <dc:format>image/svg+xml</dc:format>
    <dc:creator>
     <cc:Agent>
      <dc:title>Matplotlib v3.8.0, https://matplotlib.org/</dc:title>
     </cc:Agent>
    </dc:creator>
   </cc:Work>
  </rdf:RDF>
 </metadata>
 <defs>
  <style type="text/css">*{stroke-linejoin: round; stroke-linecap: butt}</style>
 </defs>
 <g id="figure_1">
  <g id="patch_1">
   <path d="M 0 648 
L 288 648 
L 288 0 
L 0 0 
z
" style="fill: #ffffff"/>
  </g>
  <g id="axes_1">
   <g id="patch_2">
    <path d="M 57.26 190.626667 
L 272.719219 190.626667 
L 272.719219 13.748134 
L 57.26 13.748134 
z
" style="fill: #ffffff"/>
   </g>
   <g id="PolyCollection_1">
    <defs>
     <path id="m7e226f2512" d="M 57.26 -457.373333 
L 57.26 -457.373333 
L 58.101638 -457.373333 
L 58.943275 -457.373333 
L 59.784913 -457.373333 
L 60.62655 -457.373333 
L 61.468188 -457.373333 
L 62.309825 -457.373333 
L 63.151463 -457.373333 
L 63.993101 -457.373333 
L 64.834738 -457.373333 
L 65.676376 -457.373333 
L 66.518013 -457.373333 
L 67.359651 -457.373333 
L 68.201288 -457.373333 
L 69.042926 -457.373333 
L 69.884564 -457.373333 
L 70.726201 -457.373333 
L 71.567839 -457.373333 
L 72.409476 -457.373333 
L 73.251114 -457.373333 
L 74.092751 -457.373333 
L 74.934389 -457.373333 
L 75.776027 -457.373333 
L 76.617664 -457.373333 
L 77.459302 -457.373333 
L 78.300939 -457.373333 
L 79.142577 -457.373333 
L 79.984214 -457.373333 
L 80.825852 -457.373333 
L 81.66749 -457.373333 
L 82.509127 -457.373333 
L 83.350765 -457.373333 
L 84.192402 -457.373333 
L 85.03404 -457.373333 
L 85.875677 -457.373333 
L 86.717315 -457.373333 
L 87.558953 -457.373333 
L 88.40059 -457.373333 
L 89.242228 -457.373333 
L 90.083865 -457.373333 
L 90.925503 -457.373333 
L 91.767141 -457.373333 
L 92.608778 -457.373333 
L 93.450416 -457.373333 
L 94.292053 -457.373333 
L 95.133691 -457.373333 
L 95.975328 -457.373333 
L 96.816966 -457.373333 
L 97.658604 -457.373333 
L 98.500241 -457.373333 
L 99.341879 -457.373333 
L 100.183516 -457.373333 
L 101.025154 -457.373333 
L 101.866791 -457.373333 
L 102.708429 -457.373333 
L 103.550067 -457.373333 
L 104.391704 -457.373333 
L 105.233342 -457.373333 
L 106.074979 -457.373333 
L 106.916617 -457.373333 
L 107.758254 -457.373333 
L 108.599892 -457.373333 
L 109.44153 -457.373333 
L 110.283167 -457.373333 
L 111.124805 -457.373333 
L 111.966442 -457.373333 
L 112.80808 -457.373333 
L 113.649717 -457.373333 
L 114.491355 -457.373333 
L 115.332993 -457.373333 
L 116.17463 -457.373333 
L 117.016268 -457.373333 
L 117.857905 -457.373333 
L 118.699543 -457.373333 
L 119.54118 -457.373333 
L 120.382818 -457.373333 
L 121.224456 -457.373333 
L 122.066093 -457.373333 
L 122.907731 -457.373333 
L 123.749368 -457.373333 
L 124.591006 -457.373333 
L 125.432643 -457.373333 
L 126.274281 -457.373333 
L 127.115919 -457.373333 
L 127.957556 -457.373333 
L 128.799194 -457.373333 
L 129.640831 -457.373333 
L 130.482469 -457.373333 
L 131.324106 -457.373333 
L 132.165744 -457.373333 
L 133.007382 -457.373333 
L 133.849019 -457.373333 
L 134.690657 -457.373333 
L 135.532294 -457.373333 
L 136.373932 -457.373333 
L 137.215569 -457.373333 
L 138.057207 -457.373333 
L 138.898845 -457.373333 
L 139.740482 -457.373333 
L 140.58212 -457.373333 
L 141.423757 -457.373333 
L 142.265395 -457.373333 
L 143.107032 -457.373333 
L 143.94867 -457.373333 
L 144.790308 -457.373333 
L 145.631945 -457.373333 
L 146.473583 -457.373333 
L 147.31522 -457.373333 
L 148.156858 -457.373333 
L 148.998495 -457.373333 
L 149.840133 -457.373333 
L 150.681771 -457.703126 
L 151.523408 -458.912363 
L 152.365046 -458.912363 
L 153.206683 -458.912363 
L 154.048321 -459.90174 
L 154.889958 -462.430147 
L 155.731596 -468.146544 
L 156.573234 -466.497583 
L 157.414871 -467.926683 
L 158.256509 -467.926683 
L 159.098146 -463.639385 
L 159.939784 -466.277722 
L 160.781422 -464.079107 
L 161.623059 -467.377029 
L 162.464697 -469.02599 
L 163.306334 -468.806128 
L 164.147972 -472.323912 
L 164.989609 -471.224604 
L 165.831247 -473.862942 
L 166.672885 -473.972872 
L 167.514522 -476.171487 
L 168.35616 -479.469409 
L 169.197797 -480.348854 
L 170.039435 -480.458785 
L 170.881072 -483.316984 
L 171.72271 -482.327607 
L 172.564348 -479.909131 
L 173.405985 -482.987192 
L 174.247623 -485.73546 
L 175.08926 -488.263866 
L 175.930898 -495.849086 
L 176.772535 -496.508671 
L 177.614173 -502.334999 
L 178.455811 -504.423683 
L 179.297448 -502.774722 
L 180.139086 -507.281881 
L 180.980723 -509.920219 
L 181.822361 -512.998279 
L 182.663998 -515.636616 
L 183.505636 -520.693429 
L 184.347274 -518.604746 
L 185.188911 -512.008902 
L 186.030549 -514.097586 
L 186.872186 -507.941466 
L 187.713824 -503.654167 
L 188.555461 -504.533613 
L 189.397099 -508.051396 
L 190.238737 -506.292505 
L 191.080374 -504.09389 
L 191.922012 -503.544237 
L 192.763649 -506.732228 
L 193.605287 -507.281881 
L 194.446924 -501.785345 
L 195.288562 -503.874029 
L 196.1302 -498.597354 
L 196.971837 -499.696661 
L 197.813475 -499.696661 
L 198.655112 -502.115137 
L 199.49675 -500.686038 
L 200.338387 -500.136384 
L 201.180025 -499.586731 
L 202.021663 -496.39874 
L 202.8633 -496.948393 
L 203.704938 -497.607978 
L 204.546575 -492.661095 
L 205.388213 -496.728532 
L 206.22985 -496.39874 
L 207.071488 -496.508671 
L 207.913126 -500.136384 
L 208.754763 -496.838463 
L 209.596401 -498.157631 
L 210.438038 -498.267562 
L 211.279676 -497.717908 
L 212.121313 -502.115137 
L 212.962951 -502.44493 
L 213.804589 -501.675414 
L 214.646226 -502.664791 
L 215.487864 -510.250011 
L 216.329501 -502.994583 
L 217.171139 -503.324375 
L 218.012776 -505.193198 
L 218.854414 -501.01583 
L 219.696052 -504.533613 
L 220.537689 -501.345622 
L 221.379327 -498.377493 
L 222.220964 -497.93777 
L 223.062602 -501.895276 
L 223.90424 -498.927146 
L 224.745877 -503.214445 
L 225.587515 -498.927146 
L 226.429152 -498.817216 
L 227.27079 -501.345622 
L 228.112427 -504.09389 
L 228.954065 -501.565484 
L 229.795703 -499.366869 
L 230.63734 -500.905899 
L 231.478978 -501.01583 
L 232.320615 -501.345622 
L 233.162253 -504.753475 
L 234.00389 -509.700357 
L 234.845528 -502.884652 
L 235.687166 -506.842158 
L 236.528803 -504.863405 
L 237.370441 -501.675414 
L 238.212078 -506.292505 
L 239.053716 -505.852782 
L 239.895353 -503.98396 
L 240.736991 -502.884652 
L 241.578629 -508.930842 
L 242.420266 -507.281881 
L 243.261904 -505.303128 
L 244.103541 -505.852782 
L 244.945179 -510.030149 
L 245.786816 -509.480496 
L 246.628454 -505.852782 
L 247.470092 -500.686038 
L 248.311729 -498.597354 
L 249.153367 -501.125761 
L 249.995004 -495.519294 
L 250.836642 -497.717908 
L 251.678279 -491.671719 
L 252.519917 -492.880957 
L 253.361555 -490.902204 
L 254.203192 -492.551165 
L 255.04483 -487.27449 
L 255.886467 -493.650472 
L 256.728105 -491.012134 
L 257.569742 -489.143312 
L 258.41138 -486.504975 
L 259.253018 -486.175183 
L 260.094655 -488.703589 
L 260.936293 -485.405668 
L 261.77793 -488.703589 
L 262.619568 -486.504975 
L 263.461205 -489.802896 
L 264.302843 -485.955321 
L 265.144481 -485.405668 
L 265.986118 -489.473104 
L 266.827756 -490.132689 
L 267.669393 -493.43061 
L 268.511031 -502.44493 
L 269.352668 -504.753475 
L 270.194306 -513.877725 
L 271.035944 -533.225532 
L 271.877581 -581.375188 
L 271.877581 -457.373333 
L 271.877581 -457.373333 
L 271.035944 -457.373333 
L 270.194306 -457.373333 
L 269.352668 -457.373333 
L 268.511031 -457.373333 
L 267.669393 -457.373333 
L 266.827756 -457.373333 
L 265.986118 -457.373333 
L 265.144481 -457.373333 
L 264.302843 -457.373333 
L 263.461205 -457.373333 
L 262.619568 -457.373333 
L 261.77793 -457.373333 
L 260.936293 -457.373333 
L 260.094655 -457.373333 
L 259.253018 -457.373333 
L 258.41138 -457.373333 
L 257.569742 -457.373333 
L 256.728105 -457.373333 
L 255.886467 -457.373333 
L 255.04483 -457.373333 
L 254.203192 -457.373333 
L 253.361555 -457.373333 
L 252.519917 -457.373333 
L 251.678279 -457.373333 
L 250.836642 -457.373333 
L 249.995004 -457.373333 
L 249.153367 -457.373333 
L 248.311729 -457.373333 
L 247.470092 -457.373333 
L 246.628454 -457.373333 
L 245.786816 -457.373333 
L 244.945179 -457.373333 
L 244.103541 -457.373333 
L 243.261904 -457.373333 
L 242.420266 -457.373333 
L 241.578629 -457.373333 
L 240.736991 -457.373333 
L 239.895353 -457.373333 
L 239.053716 -457.373333 
L 238.212078 -457.373333 
L 237.370441 -457.373333 
L 236.528803 -457.373333 
L 235.687166 -457.373333 
L 234.845528 -457.373333 
L 234.00389 -457.373333 
L 233.162253 -457.373333 
L 232.320615 -457.373333 
L 231.478978 -457.373333 
L 230.63734 -457.373333 
L 229.795703 -457.373333 
L 228.954065 -457.373333 
L 228.112427 -457.373333 
L 227.27079 -457.373333 
L 226.429152 -457.373333 
L 225.587515 -457.373333 
L 224.745877 -457.373333 
L 223.90424 -457.373333 
L 223.062602 -457.373333 
L 222.220964 -457.373333 
L 221.379327 -457.373333 
L 220.537689 -457.373333 
L 219.696052 -457.373333 
L 218.854414 -457.373333 
L 218.012776 -457.373333 
L 217.171139 -457.373333 
L 216.329501 -457.373333 
L 215.487864 -457.373333 
L 214.646226 -457.373333 
L 213.804589 -457.373333 
L 212.962951 -457.373333 
L 212.121313 -457.373333 
L 211.279676 -457.373333 
L 210.438038 -457.373333 
L 209.596401 -457.373333 
L 208.754763 -457.373333 
L 207.913126 -457.373333 
L 207.071488 -457.373333 
L 206.22985 -457.373333 
L 205.388213 -457.373333 
L 204.546575 -457.373333 
L 203.704938 -457.373333 
L 202.8633 -457.373333 
L 202.021663 -457.373333 
L 201.180025 -457.373333 
L 200.338387 -457.373333 
L 199.49675 -457.373333 
L 198.655112 -457.373333 
L 197.813475 -457.373333 
L 196.971837 -457.373333 
L 196.1302 -457.373333 
L 195.288562 -457.373333 
L 194.446924 -457.373333 
L 193.605287 -457.373333 
L 192.763649 -457.373333 
L 191.922012 -457.373333 
L 191.080374 -457.373333 
L 190.238737 -457.373333 
L 189.397099 -457.373333 
L 188.555461 -457.373333 
L 187.713824 -457.373333 
L 186.872186 -457.373333 
L 186.030549 -457.373333 
L 185.188911 -457.373333 
L 184.347274 -457.373333 
L 183.505636 -457.373333 
L 182.663998 -457.373333 
L 181.822361 -457.373333 
L 180.980723 -457.373333 
L 180.139086 -457.373333 
L 179.297448 -457.373333 
L 178.455811 -457.373333 
L 177.614173 -457.373333 
L 176.772535 -457.373333 
L 175.930898 -457.373333 
L 175.08926 -457.373333 
L 174.247623 -457.373333 
L 173.405985 -457.373333 
L 172.564348 -457.373333 
L 171.72271 -457.373333 
L 170.881072 -457.373333 
L 170.039435 -457.373333 
L 169.197797 -457.373333 
L 168.35616 -457.373333 
L 167.514522 -457.373333 
L 166.672885 -457.373333 
L 165.831247 -457.373333 
L 164.989609 -457.373333 
L 164.147972 -457.373333 
L 163.306334 -457.373333 
L 162.464697 -457.373333 
L 161.623059 -457.373333 
L 160.781422 -457.373333 
L 159.939784 -457.373333 
L 159.098146 -457.373333 
L 158.256509 -457.373333 
L 157.414871 -457.373333 
L 156.573234 -457.373333 
L 155.731596 -457.373333 
L 154.889958 -457.373333 
L 154.048321 -457.373333 
L 153.206683 -457.373333 
L 152.365046 -457.373333 
L 151.523408 -457.373333 
L 150.681771 -457.373333 
L 149.840133 -457.373333 
L 148.998495 -457.373333 
L 148.156858 -457.373333 
L 147.31522 -457.373333 
L 146.473583 -457.373333 
L 145.631945 -457.373333 
L 144.790308 -457.373333 
L 143.94867 -457.373333 
L 143.107032 -457.373333 
L 142.265395 -457.373333 
L 141.423757 -457.373333 
L 140.58212 -457.373333 
L 139.740482 -457.373333 
L 138.898845 -457.373333 
L 138.057207 -457.373333 
L 137.215569 -457.373333 
L 136.373932 -457.373333 
L 135.532294 -457.373333 
L 134.690657 -457.373333 
L 133.849019 -457.373333 
L 133.007382 -457.373333 
L 132.165744 -457.373333 
L 131.324106 -457.373333 
L 130.482469 -457.373333 
L 129.640831 -457.373333 
L 128.799194 -457.373333 
L 127.957556 -457.373333 
L 127.115919 -457.373333 
L 126.274281 -457.373333 
L 125.432643 -457.373333 
L 124.591006 -457.373333 
L 123.749368 -457.373333 
L 122.907731 -457.373333 
L 122.066093 -457.373333 
L 121.224456 -457.373333 
L 120.382818 -457.373333 
L 119.54118 -457.373333 
L 118.699543 -457.373333 
L 117.857905 -457.373333 
L 117.016268 -457.373333 
L 116.17463 -457.373333 
L 115.332993 -457.373333 
L 114.491355 -457.373333 
L 113.649717 -457.373333 
L 112.80808 -457.373333 
L 111.966442 -457.373333 
L 111.124805 -457.373333 
L 110.283167 -457.373333 
L 109.44153 -457.373333 
L 108.599892 -457.373333 
L 107.758254 -457.373333 
L 106.916617 -457.373333 
L 106.074979 -457.373333 
L 105.233342 -457.373333 
L 104.391704 -457.373333 
L 103.550067 -457.373333 
L 102.708429 -457.373333 
L 101.866791 -457.373333 
L 101.025154 -457.373333 
L 100.183516 -457.373333 
L 99.341879 -457.373333 
L 98.500241 -457.373333 
L 97.658604 -457.373333 
L 96.816966 -457.373333 
L 95.975328 -457.373333 
L 95.133691 -457.373333 
L 94.292053 -457.373333 
L 93.450416 -457.373333 
L 92.608778 -457.373333 
L 91.767141 -457.373333 
L 90.925503 -457.373333 
L 90.083865 -457.373333 
L 89.242228 -457.373333 
L 88.40059 -457.373333 
L 87.558953 -457.373333 
L 86.717315 -457.373333 
L 85.875677 -457.373333 
L 85.03404 -457.373333 
L 84.192402 -457.373333 
L 83.350765 -457.373333 
L 82.509127 -457.373333 
L 81.66749 -457.373333 
L 80.825852 -457.373333 
L 79.984214 -457.373333 
L 79.142577 -457.373333 
L 78.300939 -457.373333 
L 77.459302 -457.373333 
L 76.617664 -457.373333 
L 75.776027 -457.373333 
L 74.934389 -457.373333 
L 74.092751 -457.373333 
L 73.251114 -457.373333 
L 72.409476 -457.373333 
L 71.567839 -457.373333 
L 70.726201 -457.373333 
L 69.884564 -457.373333 
L 69.042926 -457.373333 
L 68.201288 -457.373333 
L 67.359651 -457.373333 
L 66.518013 -457.373333 
L 65.676376 -457.373333 
L 64.834738 -457.373333 
L 63.993101 -457.373333 
L 63.151463 -457.373333 
L 62.309825 -457.373333 
L 61.468188 -457.373333 
L 60.62655 -457.373333 
L 59.784913 -457.373333 
L 58.943275 -457.373333 
L 58.101638 -457.373333 
L 57.26 -457.373333 
z
" style="stroke: #ff0000; stroke-opacity: 0.4"/>
    </defs>
    <g clip-path="url(#p1d637a7565)">
     <use xlink:href="#m7e226f2512" x="0" y="648" style="fill: #ff0000; fill-opacity: 0.4; stroke: #ff0000; stroke-opacity: 0.4"/>
    </g>
   </g>
   <g id="matplotlib.axis_1">
    <g id="xtick_1">
     <g id="line2d_1">
      <defs>
       <path id="mb74f5fdcb7" d="M 0 0 
L 0 3.5 
" style="stroke: #000000; stroke-width: 0.8"/>
      </defs>
      <g>
       <use xlink:href="#mb74f5fdcb7" x="57.26" y="190.626667" style="stroke: #000000; stroke-width: 0.8"/>
      </g>
     </g>
     <g id="text_1">
      <!-- 0 -->
      <g transform="translate(54.07875 205.225104) scale(0.1 -0.1)">
       <defs>
        <path id="DejaVuSans-30" d="M 2034 4250 
Q 1547 4250 1301 3770 
Q 1056 3291 1056 2328 
Q 1056 1369 1301 889 
Q 1547 409 2034 409 
Q 2525 409 2770 889 
Q 3016 1369 3016 2328 
Q 3016 3291 2770 3770 
Q 2525 4250 2034 4250 
z
M 2034 4750 
Q 2819 4750 3233 4129 
Q 3647 3509 3647 2328 
Q 3647 1150 3233 529 
Q 2819 -91 2034 -91 
Q 1250 -91 836 529 
Q 422 1150 422 2328 
Q 422 3509 836 4129 
Q 1250 4750 2034 4750 
z
" transform="scale(0.015625)"/>
       </defs>
       <use xlink:href="#DejaVuSans-30"/>
      </g>
     </g>
    </g>
    <g id="xtick_2">
     <g id="line2d_2">
      <g>
       <use xlink:href="#mb74f5fdcb7" x="99.341879" y="190.626667" style="stroke: #000000; stroke-width: 0.8"/>
      </g>
     </g>
     <g id="text_2">
      <!-- 50 -->
      <g transform="translate(92.979379 205.225104) scale(0.1 -0.1)">
       <defs>
        <path id="DejaVuSans-35" d="M 691 4666 
L 3169 4666 
L 3169 4134 
L 1269 4134 
L 1269 2991 
Q 1406 3038 1543 3061 
Q 1681 3084 1819 3084 
Q 2600 3084 3056 2656 
Q 3513 2228 3513 1497 
Q 3513 744 3044 326 
Q 2575 -91 1722 -91 
Q 1428 -91 1123 -41 
Q 819 9 494 109 
L 494 744 
Q 775 591 1075 516 
Q 1375 441 1709 441 
Q 2250 441 2565 725 
Q 2881 1009 2881 1497 
Q 2881 1984 2565 2268 
Q 2250 2553 1709 2553 
Q 1456 2553 1204 2497 
Q 953 2441 691 2322 
L 691 4666 
z
" transform="scale(0.015625)"/>
       </defs>
       <use xlink:href="#DejaVuSans-35"/>
       <use xlink:href="#DejaVuSans-30" x="63.623047"/>
      </g>
     </g>
    </g>
    <g id="xtick_3">
     <g id="line2d_3">
      <g>
       <use xlink:href="#mb74f5fdcb7" x="141.423757" y="190.626667" style="stroke: #000000; stroke-width: 0.8"/>
      </g>
     </g>
     <g id="text_3">
      <!-- 100 -->
      <g transform="translate(131.880007 205.225104) scale(0.1 -0.1)">
       <defs>
        <path id="DejaVuSans-31" d="M 794 531 
L 1825 531 
L 1825 4091 
L 703 3866 
L 703 4441 
L 1819 4666 
L 2450 4666 
L 2450 531 
L 3481 531 
L 3481 0 
L 794 0 
L 794 531 
z
" transform="scale(0.015625)"/>
       </defs>
       <use xlink:href="#DejaVuSans-31"/>
       <use xlink:href="#DejaVuSans-30" x="63.623047"/>
       <use xlink:href="#DejaVuSans-30" x="127.246094"/>
      </g>
     </g>
    </g>
    <g id="xtick_4">
     <g id="line2d_4">
      <g>
       <use xlink:href="#mb74f5fdcb7" x="183.505636" y="190.626667" style="stroke: #000000; stroke-width: 0.8"/>
      </g>
     </g>
     <g id="text_4">
      <!-- 150 -->
      <g transform="translate(173.961886 205.225104) scale(0.1 -0.1)">
       <use xlink:href="#DejaVuSans-31"/>
       <use xlink:href="#DejaVuSans-35" x="63.623047"/>
       <use xlink:href="#DejaVuSans-30" x="127.246094"/>
      </g>
     </g>
    </g>
    <g id="xtick_5">
     <g id="line2d_5">
      <g>
       <use xlink:href="#mb74f5fdcb7" x="225.587515" y="190.626667" style="stroke: #000000; stroke-width: 0.8"/>
      </g>
     </g>
     <g id="text_5">
      <!-- 200 -->
      <g transform="translate(216.043765 205.225104) scale(0.1 -0.1)">
       <defs>
        <path id="DejaVuSans-32" d="M 1228 531 
L 3431 531 
L 3431 0 
L 469 0 
L 469 531 
Q 828 903 1448 1529 
Q 2069 2156 2228 2338 
Q 2531 2678 2651 2914 
Q 2772 3150 2772 3378 
Q 2772 3750 2511 3984 
Q 2250 4219 1831 4219 
Q 1534 4219 1204 4116 
Q 875 4013 500 3803 
L 500 4441 
Q 881 4594 1212 4672 
Q 1544 4750 1819 4750 
Q 2544 4750 2975 4387 
Q 3406 4025 3406 3419 
Q 3406 3131 3298 2873 
Q 3191 2616 2906 2266 
Q 2828 2175 2409 1742 
Q 1991 1309 1228 531 
z
" transform="scale(0.015625)"/>
       </defs>
       <use xlink:href="#DejaVuSans-32"/>
       <use xlink:href="#DejaVuSans-30" x="63.623047"/>
       <use xlink:href="#DejaVuSans-30" x="127.246094"/>
      </g>
     </g>
    </g>
    <g id="xtick_6">
     <g id="line2d_6">
      <g>
       <use xlink:href="#mb74f5fdcb7" x="267.669393" y="190.626667" style="stroke: #000000; stroke-width: 0.8"/>
      </g>
     </g>
     <g id="text_6">
      <!-- 250 -->
      <g transform="translate(258.125643 205.225104) scale(0.1 -0.1)">
       <use xlink:href="#DejaVuSans-32"/>
       <use xlink:href="#DejaVuSans-35" x="63.623047"/>
       <use xlink:href="#DejaVuSans-30" x="127.246094"/>
      </g>
     </g>
    </g>
   </g>
   <g id="matplotlib.axis_2">
    <g id="ytick_1">
     <g id="line2d_7">
      <defs>
       <path id="m43e5a2d692" d="M 0 0 
L -3.5 0 
" style="stroke: #000000; stroke-width: 0.8"/>
      </defs>
      <g>
       <use xlink:href="#m43e5a2d692" x="57.26" y="190.626667" style="stroke: #000000; stroke-width: 0.8"/>
      </g>
     </g>
     <g id="text_7">
      <!-- 0 -->
      <g transform="translate(43.8975 194.425885) scale(0.1 -0.1)">
       <use xlink:href="#DejaVuSans-30"/>
      </g>
     </g>
    </g>
    <g id="ytick_2">
     <g id="line2d_8">
      <g>
       <use xlink:href="#m43e5a2d692" x="57.26" y="163.143986" style="stroke: #000000; stroke-width: 0.8"/>
      </g>
     </g>
     <g id="text_8">
      <!-- 250 -->
      <g transform="translate(31.1725 166.943205) scale(0.1 -0.1)">
       <use xlink:href="#DejaVuSans-32"/>
       <use xlink:href="#DejaVuSans-35" x="63.623047"/>
       <use xlink:href="#DejaVuSans-30" x="127.246094"/>
      </g>
     </g>
    </g>
    <g id="ytick_3">
     <g id="line2d_9">
      <g>
       <use xlink:href="#m43e5a2d692" x="57.26" y="135.661305" style="stroke: #000000; stroke-width: 0.8"/>
      </g>
     </g>
     <g id="text_9">
      <!-- 500 -->
      <g transform="translate(31.1725 139.460524) scale(0.1 -0.1)">
       <use xlink:href="#DejaVuSans-35"/>
       <use xlink:href="#DejaVuSans-30" x="63.623047"/>
       <use xlink:href="#DejaVuSans-30" x="127.246094"/>
      </g>
     </g>
    </g>
    <g id="ytick_4">
     <g id="line2d_10">
      <g>
       <use xlink:href="#m43e5a2d692" x="57.26" y="108.178625" style="stroke: #000000; stroke-width: 0.8"/>
      </g>
     </g>
     <g id="text_10">
      <!-- 750 -->
      <g transform="translate(31.1725 111.977844) scale(0.1 -0.1)">
       <defs>
        <path id="DejaVuSans-37" d="M 525 4666 
L 3525 4666 
L 3525 4397 
L 1831 0 
L 1172 0 
L 2766 4134 
L 525 4134 
L 525 4666 
z
" transform="scale(0.015625)"/>
       </defs>
       <use xlink:href="#DejaVuSans-37"/>
       <use xlink:href="#DejaVuSans-35" x="63.623047"/>
       <use xlink:href="#DejaVuSans-30" x="127.246094"/>
      </g>
     </g>
    </g>
    <g id="ytick_5">
     <g id="line2d_11">
      <g>
       <use xlink:href="#m43e5a2d692" x="57.26" y="80.695944" style="stroke: #000000; stroke-width: 0.8"/>
      </g>
     </g>
     <g id="text_11">
      <!-- 1000 -->
      <g transform="translate(24.81 84.495163) scale(0.1 -0.1)">
       <use xlink:href="#DejaVuSans-31"/>
       <use xlink:href="#DejaVuSans-30" x="63.623047"/>
       <use xlink:href="#DejaVuSans-30" x="127.246094"/>
       <use xlink:href="#DejaVuSans-30" x="190.869141"/>
      </g>
     </g>
    </g>
    <g id="ytick_6">
     <g id="line2d_12">
      <g>
       <use xlink:href="#m43e5a2d692" x="57.26" y="53.213264" style="stroke: #000000; stroke-width: 0.8"/>
      </g>
     </g>
     <g id="text_12">
      <!-- 1250 -->
      <g transform="translate(24.81 57.012482) scale(0.1 -0.1)">
       <use xlink:href="#DejaVuSans-31"/>
       <use xlink:href="#DejaVuSans-32" x="63.623047"/>
       <use xlink:href="#DejaVuSans-35" x="127.246094"/>
       <use xlink:href="#DejaVuSans-30" x="190.869141"/>
      </g>
     </g>
    </g>
    <g id="ytick_7">
     <g id="line2d_13">
      <g>
       <use xlink:href="#m43e5a2d692" x="57.26" y="25.730583" style="stroke: #000000; stroke-width: 0.8"/>
      </g>
     </g>
     <g id="text_13">
      <!-- 1500 -->
      <g transform="translate(24.81 29.529802) scale(0.1 -0.1)">
       <use xlink:href="#DejaVuSans-31"/>
       <use xlink:href="#DejaVuSans-35" x="63.623047"/>
       <use xlink:href="#DejaVuSans-30" x="127.246094"/>
       <use xlink:href="#DejaVuSans-30" x="190.869141"/>
      </g>
     </g>
    </g>
    <g id="text_14">
     <!-- Pixel Frequency -->
     <g transform="translate(18.730313 141.166307) rotate(-90) scale(0.1 -0.1)">
      <defs>
       <path id="DejaVuSans-50" d="M 1259 4147 
L 1259 2394 
L 2053 2394 
Q 2494 2394 2734 2622 
Q 2975 2850 2975 3272 
Q 2975 3691 2734 3919 
Q 2494 4147 2053 4147 
L 1259 4147 
z
M 628 4666 
L 2053 4666 
Q 2838 4666 3239 4311 
Q 3641 3956 3641 3272 
Q 3641 2581 3239 2228 
Q 2838 1875 2053 1875 
L 1259 1875 
L 1259 0 
L 628 0 
L 628 4666 
z
" transform="scale(0.015625)"/>
       <path id="DejaVuSans-69" d="M 603 3500 
L 1178 3500 
L 1178 0 
L 603 0 
L 603 3500 
z
M 603 4863 
L 1178 4863 
L 1178 4134 
L 603 4134 
L 603 4863 
z
" transform="scale(0.015625)"/>
       <path id="DejaVuSans-78" d="M 3513 3500 
L 2247 1797 
L 3578 0 
L 2900 0 
L 1881 1375 
L 863 0 
L 184 0 
L 1544 1831 
L 300 3500 
L 978 3500 
L 1906 2253 
L 2834 3500 
L 3513 3500 
z
" transform="scale(0.015625)"/>
       <path id="DejaVuSans-65" d="M 3597 1894 
L 3597 1613 
L 953 1613 
Q 991 1019 1311 708 
Q 1631 397 2203 397 
Q 2534 397 2845 478 
Q 3156 559 3463 722 
L 3463 178 
Q 3153 47 2828 -22 
Q 2503 -91 2169 -91 
Q 1331 -91 842 396 
Q 353 884 353 1716 
Q 353 2575 817 3079 
Q 1281 3584 2069 3584 
Q 2775 3584 3186 3129 
Q 3597 2675 3597 1894 
z
M 3022 2063 
Q 3016 2534 2758 2815 
Q 2500 3097 2075 3097 
Q 1594 3097 1305 2825 
Q 1016 2553 972 2059 
L 3022 2063 
z
" transform="scale(0.015625)"/>
       <path id="DejaVuSans-6c" d="M 603 4863 
L 1178 4863 
L 1178 0 
L 603 0 
L 603 4863 
z
" transform="scale(0.015625)"/>
       <path id="DejaVuSans-20" transform="scale(0.015625)"/>
       <path id="DejaVuSans-46" d="M 628 4666 
L 3309 4666 
L 3309 4134 
L 1259 4134 
L 1259 2759 
L 3109 2759 
L 3109 2228 
L 1259 2228 
L 1259 0 
L 628 0 
L 628 4666 
z
" transform="scale(0.015625)"/>
       <path id="DejaVuSans-72" d="M 2631 2963 
Q 2534 3019 2420 3045 
Q 2306 3072 2169 3072 
Q 1681 3072 1420 2755 
Q 1159 2438 1159 1844 
L 1159 0 
L 581 0 
L 581 3500 
L 1159 3500 
L 1159 2956 
Q 1341 3275 1631 3429 
Q 1922 3584 2338 3584 
Q 2397 3584 2469 3576 
Q 2541 3569 2628 3553 
L 2631 2963 
z
" transform="scale(0.015625)"/>
       <path id="DejaVuSans-71" d="M 947 1747 
Q 947 1113 1208 752 
Q 1469 391 1925 391 
Q 2381 391 2643 752 
Q 2906 1113 2906 1747 
Q 2906 2381 2643 2742 
Q 2381 3103 1925 3103 
Q 1469 3103 1208 2742 
Q 947 2381 947 1747 
z
M 2906 525 
Q 2725 213 2448 61 
Q 2172 -91 1784 -91 
Q 1150 -91 751 415 
Q 353 922 353 1747 
Q 353 2572 751 3078 
Q 1150 3584 1784 3584 
Q 2172 3584 2448 3432 
Q 2725 3281 2906 2969 
L 2906 3500 
L 3481 3500 
L 3481 -1331 
L 2906 -1331 
L 2906 525 
z
" transform="scale(0.015625)"/>
       <path id="DejaVuSans-75" d="M 544 1381 
L 544 3500 
L 1119 3500 
L 1119 1403 
Q 1119 906 1312 657 
Q 1506 409 1894 409 
Q 2359 409 2629 706 
Q 2900 1003 2900 1516 
L 2900 3500 
L 3475 3500 
L 3475 0 
L 2900 0 
L 2900 538 
Q 2691 219 2414 64 
Q 2138 -91 1772 -91 
Q 1169 -91 856 284 
Q 544 659 544 1381 
z
M 1991 3584 
L 1991 3584 
z
" transform="scale(0.015625)"/>
       <path id="DejaVuSans-6e" d="M 3513 2113 
L 3513 0 
L 2938 0 
L 2938 2094 
Q 2938 2591 2744 2837 
Q 2550 3084 2163 3084 
Q 1697 3084 1428 2787 
Q 1159 2491 1159 1978 
L 1159 0 
L 581 0 
L 581 3500 
L 1159 3500 
L 1159 2956 
Q 1366 3272 1645 3428 
Q 1925 3584 2291 3584 
Q 2894 3584 3203 3211 
Q 3513 2838 3513 2113 
z
" transform="scale(0.015625)"/>
       <path id="DejaVuSans-63" d="M 3122 3366 
L 3122 2828 
Q 2878 2963 2633 3030 
Q 2388 3097 2138 3097 
Q 1578 3097 1268 2742 
Q 959 2388 959 1747 
Q 959 1106 1268 751 
Q 1578 397 2138 397 
Q 2388 397 2633 464 
Q 2878 531 3122 666 
L 3122 134 
Q 2881 22 2623 -34 
Q 2366 -91 2075 -91 
Q 1284 -91 818 406 
Q 353 903 353 1747 
Q 353 2603 823 3093 
Q 1294 3584 2113 3584 
Q 2378 3584 2631 3529 
Q 2884 3475 3122 3366 
z
" transform="scale(0.015625)"/>
       <path id="DejaVuSans-79" d="M 2059 -325 
Q 1816 -950 1584 -1140 
Q 1353 -1331 966 -1331 
L 506 -1331 
L 506 -850 
L 844 -850 
Q 1081 -850 1212 -737 
Q 1344 -625 1503 -206 
L 1606 56 
L 191 3500 
L 800 3500 
L 1894 763 
L 2988 3500 
L 3597 3500 
L 2059 -325 
z
" transform="scale(0.015625)"/>
      </defs>
      <use xlink:href="#DejaVuSans-50"/>
      <use xlink:href="#DejaVuSans-69" x="58.052734"/>
      <use xlink:href="#DejaVuSans-78" x="85.835938"/>
      <use xlink:href="#DejaVuSans-65" x="141.890625"/>
      <use xlink:href="#DejaVuSans-6c" x="203.414062"/>
      <use xlink:href="#DejaVuSans-20" x="231.197266"/>
      <use xlink:href="#DejaVuSans-46" x="262.984375"/>
      <use xlink:href="#DejaVuSans-72" x="313.253906"/>
      <use xlink:href="#DejaVuSans-65" x="352.117188"/>
      <use xlink:href="#DejaVuSans-71" x="413.640625"/>
      <use xlink:href="#DejaVuSans-75" x="477.117188"/>
      <use xlink:href="#DejaVuSans-65" x="540.496094"/>
      <use xlink:href="#DejaVuSans-6e" x="602.019531"/>
      <use xlink:href="#DejaVuSans-63" x="665.398438"/>
      <use xlink:href="#DejaVuSans-79" x="720.378906"/>
     </g>
    </g>
   </g>
   <g id="line2d_14">
    <path d="M 57.26 190.626667 
L 149.840133 190.626667 
L 150.681771 190.296874 
L 151.523408 189.087637 
L 153.206683 189.087637 
L 154.048321 188.09826 
L 154.889958 185.569853 
L 155.731596 179.853456 
L 156.573234 181.502417 
L 157.414871 180.073317 
L 158.256509 180.073317 
L 159.098146 184.360615 
L 159.939784 181.722278 
L 160.781422 183.920893 
L 161.623059 180.622971 
L 162.464697 178.97401 
L 163.306334 179.193872 
L 164.147972 175.676088 
L 164.989609 176.775396 
L 165.831247 174.137058 
L 166.672885 174.027128 
L 167.514522 171.828513 
L 168.35616 168.530591 
L 169.197797 167.651146 
L 170.039435 167.541215 
L 170.881072 164.683016 
L 171.72271 165.672393 
L 172.564348 168.090869 
L 174.247623 162.26454 
L 175.08926 159.736134 
L 175.930898 152.150914 
L 176.772535 151.491329 
L 177.614173 145.665001 
L 178.455811 143.576317 
L 179.297448 145.225278 
L 180.139086 140.718119 
L 180.980723 138.079781 
L 181.822361 135.001721 
L 182.663998 132.363384 
L 183.505636 127.306571 
L 184.347274 129.395254 
L 185.188911 135.991098 
L 186.030549 133.902414 
L 186.872186 140.058534 
L 187.713824 144.345833 
L 188.555461 143.466387 
L 189.397099 139.948604 
L 190.238737 141.707495 
L 191.080374 143.90611 
L 191.922012 144.455763 
L 192.763649 141.267772 
L 193.605287 140.718119 
L 194.446924 146.214655 
L 195.288562 144.125971 
L 196.1302 149.402646 
L 196.971837 148.303339 
L 197.813475 148.303339 
L 198.655112 145.884863 
L 199.49675 147.313962 
L 201.180025 148.413269 
L 202.021663 151.60126 
L 203.704938 150.392022 
L 204.546575 155.338905 
L 205.388213 151.271468 
L 206.22985 151.60126 
L 207.071488 151.491329 
L 207.913126 147.863616 
L 208.754763 151.161537 
L 209.596401 149.842369 
L 210.438038 149.732438 
L 211.279676 150.282092 
L 212.121313 145.884863 
L 212.962951 145.55507 
L 213.804589 146.324586 
L 214.646226 145.335209 
L 215.487864 137.749989 
L 216.329501 145.005417 
L 217.171139 144.675625 
L 218.012776 142.806802 
L 218.854414 146.98417 
L 219.696052 143.466387 
L 221.379327 149.622507 
L 222.220964 150.06223 
L 223.062602 146.104724 
L 223.90424 149.072854 
L 224.745877 144.785555 
L 225.587515 149.072854 
L 226.429152 149.182784 
L 228.112427 143.90611 
L 229.795703 148.633131 
L 230.63734 147.094101 
L 231.478978 146.98417 
L 232.320615 146.654378 
L 233.162253 143.246525 
L 234.00389 138.299643 
L 234.845528 145.115348 
L 235.687166 141.157842 
L 236.528803 143.136595 
L 237.370441 146.324586 
L 238.212078 141.707495 
L 239.053716 142.147218 
L 239.895353 144.01604 
L 240.736991 145.115348 
L 241.578629 139.069158 
L 242.420266 140.718119 
L 243.261904 142.696872 
L 244.103541 142.147218 
L 244.945179 137.969851 
L 245.786816 138.519504 
L 246.628454 142.147218 
L 247.470092 147.313962 
L 248.311729 149.402646 
L 249.153367 146.874239 
L 249.995004 152.480706 
L 250.836642 150.282092 
L 251.678279 156.328281 
L 252.519917 155.119043 
L 253.361555 157.097796 
L 254.203192 155.448835 
L 255.04483 160.72551 
L 255.886467 154.349528 
L 256.728105 156.987866 
L 257.569742 158.856688 
L 258.41138 161.495025 
L 259.253018 161.824817 
L 260.094655 159.296411 
L 260.936293 162.594332 
L 261.77793 159.296411 
L 262.619568 161.495025 
L 263.461205 158.197104 
L 264.302843 162.044679 
L 265.144481 162.594332 
L 265.986118 158.526896 
L 266.827756 157.867311 
L 267.669393 154.56939 
L 268.511031 145.55507 
L 269.352668 143.246525 
L 270.194306 134.122275 
L 271.035944 114.774468 
L 271.877581 66.624812 
L 271.877581 66.624812 
" clip-path="url(#p1d637a7565)" style="fill: none; stroke: #ff0000; stroke-width: 1.5; stroke-linecap: square"/>
   </g>
   <g id="patch_3">
    <path d="M 57.26 190.626667 
L 57.26 13.748134 
" style="fill: none; stroke: #000000; stroke-width: 0.8; stroke-linejoin: miter; stroke-linecap: square"/>
   </g>
   <g id="patch_4">
    <path d="M 272.719219 190.626667 
L 272.719219 13.748134 
" style="fill: none; stroke: #000000; stroke-width: 0.8; stroke-linejoin: miter; stroke-linecap: square"/>
   </g>
   <g id="patch_5">
    <path d="M 57.26 190.626667 
L 272.719219 190.626667 
" style="fill: none; stroke: #000000; stroke-width: 0.8; stroke-linejoin: miter; stroke-linecap: square"/>
   </g>
   <g id="patch_6">
    <path d="M 57.26 13.748134 
L 272.719219 13.748134 
" style="fill: none; stroke: #000000; stroke-width: 0.8; stroke-linejoin: miter; stroke-linecap: square"/>
   </g>
   <g id="text_15">
    <!-- Red Channel  -->
    <g transform="translate(193.026094 27.748134) scale(0.12 -0.12)">
     <defs>
      <path id="DejaVuSans-52" d="M 2841 2188 
Q 3044 2119 3236 1894 
Q 3428 1669 3622 1275 
L 4263 0 
L 3584 0 
L 2988 1197 
Q 2756 1666 2539 1819 
Q 2322 1972 1947 1972 
L 1259 1972 
L 1259 0 
L 628 0 
L 628 4666 
L 2053 4666 
Q 2853 4666 3247 4331 
Q 3641 3997 3641 3322 
Q 3641 2881 3436 2590 
Q 3231 2300 2841 2188 
z
M 1259 4147 
L 1259 2491 
L 2053 2491 
Q 2509 2491 2742 2702 
Q 2975 2913 2975 3322 
Q 2975 3731 2742 3939 
Q 2509 4147 2053 4147 
L 1259 4147 
z
" transform="scale(0.015625)"/>
      <path id="DejaVuSans-64" d="M 2906 2969 
L 2906 4863 
L 3481 4863 
L 3481 0 
L 2906 0 
L 2906 525 
Q 2725 213 2448 61 
Q 2172 -91 1784 -91 
Q 1150 -91 751 415 
Q 353 922 353 1747 
Q 353 2572 751 3078 
Q 1150 3584 1784 3584 
Q 2172 3584 2448 3432 
Q 2725 3281 2906 2969 
z
M 947 1747 
Q 947 1113 1208 752 
Q 1469 391 1925 391 
Q 2381 391 2643 752 
Q 2906 1113 2906 1747 
Q 2906 2381 2643 2742 
Q 2381 3103 1925 3103 
Q 1469 3103 1208 2742 
Q 947 2381 947 1747 
z
" transform="scale(0.015625)"/>
      <path id="DejaVuSans-43" d="M 4122 4306 
L 4122 3641 
Q 3803 3938 3442 4084 
Q 3081 4231 2675 4231 
Q 1875 4231 1450 3742 
Q 1025 3253 1025 2328 
Q 1025 1406 1450 917 
Q 1875 428 2675 428 
Q 3081 428 3442 575 
Q 3803 722 4122 1019 
L 4122 359 
Q 3791 134 3420 21 
Q 3050 -91 2638 -91 
Q 1578 -91 968 557 
Q 359 1206 359 2328 
Q 359 3453 968 4101 
Q 1578 4750 2638 4750 
Q 3056 4750 3426 4639 
Q 3797 4528 4122 4306 
z
" transform="scale(0.015625)"/>
      <path id="DejaVuSans-68" d="M 3513 2113 
L 3513 0 
L 2938 0 
L 2938 2094 
Q 2938 2591 2744 2837 
Q 2550 3084 2163 3084 
Q 1697 3084 1428 2787 
Q 1159 2491 1159 1978 
L 1159 0 
L 581 0 
L 581 4863 
L 1159 4863 
L 1159 2956 
Q 1366 3272 1645 3428 
Q 1925 3584 2291 3584 
Q 2894 3584 3203 3211 
Q 3513 2838 3513 2113 
z
" transform="scale(0.015625)"/>
      <path id="DejaVuSans-61" d="M 2194 1759 
Q 1497 1759 1228 1600 
Q 959 1441 959 1056 
Q 959 750 1161 570 
Q 1363 391 1709 391 
Q 2188 391 2477 730 
Q 2766 1069 2766 1631 
L 2766 1759 
L 2194 1759 
z
M 3341 1997 
L 3341 0 
L 2766 0 
L 2766 531 
Q 2569 213 2275 61 
Q 1981 -91 1556 -91 
Q 1019 -91 701 211 
Q 384 513 384 1019 
Q 384 1609 779 1909 
Q 1175 2209 1959 2209 
L 2766 2209 
L 2766 2266 
Q 2766 2663 2505 2880 
Q 2244 3097 1772 3097 
Q 1472 3097 1187 3025 
Q 903 2953 641 2809 
L 641 3341 
Q 956 3463 1253 3523 
Q 1550 3584 1831 3584 
Q 2591 3584 2966 3190 
Q 3341 2797 3341 1997 
z
" transform="scale(0.015625)"/>
     </defs>
     <use xlink:href="#DejaVuSans-52"/>
     <use xlink:href="#DejaVuSans-65" x="64.982422"/>
     <use xlink:href="#DejaVuSans-64" x="126.505859"/>
     <use xlink:href="#DejaVuSans-20" x="189.982422"/>
     <use xlink:href="#DejaVuSans-43" x="221.769531"/>
     <use xlink:href="#DejaVuSans-68" x="291.59375"/>
     <use xlink:href="#DejaVuSans-61" x="354.972656"/>
     <use xlink:href="#DejaVuSans-6e" x="416.251953"/>
     <use xlink:href="#DejaVuSans-6e" x="479.630859"/>
     <use xlink:href="#DejaVuSans-65" x="543.009766"/>
     <use xlink:href="#DejaVuSans-6c" x="604.533203"/>
     <use xlink:href="#DejaVuSans-20" x="632.316406"/>
    </g>
   </g>
  </g>
  <g id="axes_2">
   <g id="patch_7">
    <path d="M 57.26 398.333333 
L 272.719219 398.333333 
L 272.719219 221.454801 
L 57.26 221.454801 
z
" style="fill: #ffffff"/>
   </g>
   <g id="PolyCollection_2">
    <defs>
     <path id="m87f09e9380" d="M 57.26 -249.666667 
L 57.26 -249.666667 
L 58.101638 -249.666667 
L 58.943275 -249.666667 
L 59.784913 -249.666667 
L 60.62655 -249.666667 
L 61.468188 -249.666667 
L 62.309825 -249.666667 
L 63.151463 -249.666667 
L 63.993101 -249.666667 
L 64.834738 -249.666667 
L 65.676376 -249.666667 
L 66.518013 -249.666667 
L 67.359651 -249.666667 
L 68.201288 -249.666667 
L 69.042926 -249.666667 
L 69.884564 -249.666667 
L 70.726201 -249.666667 
L 71.567839 -249.666667 
L 72.409476 -249.666667 
L 73.251114 -249.666667 
L 74.092751 -249.666667 
L 74.934389 -249.666667 
L 75.776027 -249.666667 
L 76.617664 -249.666667 
L 77.459302 -249.666667 
L 78.300939 -249.666667 
L 79.142577 -249.666667 
L 79.984214 -249.666667 
L 80.825852 -249.666667 
L 81.66749 -249.666667 
L 82.509127 -249.666667 
L 83.350765 -249.666667 
L 84.192402 -249.666667 
L 85.03404 -249.666667 
L 85.875677 -249.666667 
L 86.717315 -249.666667 
L 87.558953 -249.666667 
L 88.40059 -249.666667 
L 89.242228 -249.666667 
L 90.083865 -249.666667 
L 90.925503 -249.666667 
L 91.767141 -249.666667 
L 92.608778 -249.666667 
L 93.450416 -249.666667 
L 94.292053 -249.666667 
L 95.133691 -249.666667 
L 95.975328 -249.666667 
L 96.816966 -249.666667 
L 97.658604 -249.666667 
L 98.500241 -249.666667 
L 99.341879 -249.666667 
L 100.183516 -249.666667 
L 101.025154 -249.666667 
L 101.866791 -249.666667 
L 102.708429 -249.666667 
L 103.550067 -249.666667 
L 104.391704 -249.666667 
L 105.233342 -249.666667 
L 106.074979 -249.666667 
L 106.916617 -249.666667 
L 107.758254 -249.666667 
L 108.599892 -249.666667 
L 109.44153 -249.666667 
L 110.283167 -249.666667 
L 111.124805 -249.666667 
L 111.966442 -249.666667 
L 112.80808 -249.666667 
L 113.649717 -249.666667 
L 114.491355 -249.666667 
L 115.332993 -249.666667 
L 116.17463 -249.666667 
L 117.016268 -249.666667 
L 117.857905 -249.666667 
L 118.699543 -249.666667 
L 119.54118 -249.666667 
L 120.382818 -249.666667 
L 121.224456 -249.666667 
L 122.066093 -249.666667 
L 122.907731 -249.666667 
L 123.749368 -249.666667 
L 124.591006 -249.666667 
L 125.432643 -249.666667 
L 126.274281 -249.666667 
L 127.115919 -249.666667 
L 127.957556 -249.666667 
L 128.799194 -249.666667 
L 129.640831 -249.666667 
L 130.482469 -249.666667 
L 131.324106 -249.666667 
L 132.165744 -249.666667 
L 133.007382 -249.666667 
L 133.849019 -249.666667 
L 134.690657 -249.666667 
L 135.532294 -249.666667 
L 136.373932 -249.666667 
L 137.215569 -249.666667 
L 138.057207 -249.666667 
L 138.898845 -249.666667 
L 139.740482 -249.666667 
L 140.58212 -249.666667 
L 141.423757 -249.666667 
L 142.265395 -249.666667 
L 143.107032 -250.10639 
L 143.94867 -251.425558 
L 144.790308 -250.21632 
L 145.631945 -250.10639 
L 146.473583 -250.10639 
L 147.31522 -250.436182 
L 148.156858 -250.875905 
L 148.998495 -253.844034 
L 149.840133 -258.900847 
L 150.681771 -260.989531 
L 151.523408 -258.900847 
L 152.365046 -257.141956 
L 153.206683 -253.953965 
L 154.048321 -257.471748 
L 154.889958 -256.922094 
L 155.731596 -261.868977 
L 156.573234 -264.507314 
L 157.414871 -264.397383 
L 158.256509 -265.826483 
L 159.098146 -269.89392 
L 159.939784 -268.574751 
L 160.781422 -267.915167 
L 161.623059 -267.695305 
L 162.464697 -270.00385 
L 163.306334 -271.54288 
L 164.147972 -269.454197 
L 164.989609 -270.773365 
L 165.831247 -272.532257 
L 166.672885 -271.103158 
L 167.514522 -273.631564 
L 168.35616 -276.379832 
L 169.197797 -279.897615 
L 170.039435 -283.965052 
L 170.881072 -287.922558 
L 171.72271 -284.514706 
L 172.564348 -293.638956 
L 173.405985 -294.628332 
L 174.247623 -300.784453 
L 175.08926 -300.784453 
L 175.930898 -298.695769 
L 176.772535 -293.419094 
L 177.614173 -299.905007 
L 178.455811 -296.387224 
L 179.297448 -295.287916 
L 180.139086 -293.858817 
L 180.980723 -294.958124 
L 181.822361 -292.539648 
L 182.663998 -294.29854 
L 183.505636 -296.936877 
L 184.347274 -289.901311 
L 185.188911 -291.110549 
L 186.030549 -294.408471 
L 186.872186 -289.351657 
L 187.713824 -286.933182 
L 188.555461 -289.351657 
L 189.397099 -288.14242 
L 190.238737 -289.571519 
L 191.080374 -285.064359 
L 191.922012 -286.823251 
L 192.763649 -287.592766 
L 193.605287 -286.603389 
L 194.446924 -288.032489 
L 195.288562 -286.163667 
L 196.1302 -280.007546 
L 196.971837 -283.305468 
L 197.813475 -282.09623 
L 198.655112 -287.592766 
L 199.49675 -283.745191 
L 200.338387 -286.71332 
L 201.180025 -285.17429 
L 202.021663 -284.514706 
L 202.8633 -282.535953 
L 203.704938 -283.525329 
L 204.546575 -289.351657 
L 205.388213 -291.33041 
L 206.22985 -294.408471 
L 207.071488 -294.958124 
L 207.913126 -288.911935 
L 208.754763 -295.287916 
L 209.596401 -295.287916 
L 210.438038 -294.518401 
L 211.279676 -289.79138 
L 212.121313 -295.068055 
L 212.962951 -289.461588 
L 213.804589 -286.273597 
L 214.646226 -289.241727 
L 215.487864 -291.110549 
L 216.329501 -289.131796 
L 217.171139 -287.262974 
L 218.012776 -291.550272 
L 218.854414 -292.099926 
L 219.696052 -288.911935 
L 220.537689 -288.911935 
L 221.379327 -294.518401 
L 222.220964 -292.209856 
L 223.062602 -291.33041 
L 223.90424 -294.188609 
L 224.745877 -293.638956 
L 225.587515 -292.869441 
L 226.429152 -295.617709 
L 227.27079 -294.408471 
L 228.112427 -293.199233 
L 228.954065 -293.748886 
L 229.795703 -289.901311 
L 230.63734 -295.397847 
L 231.478978 -293.968748 
L 232.320615 -297.156739 
L 233.162253 -295.397847 
L 234.00389 -300.34473 
L 234.845528 -292.979371 
L 235.687166 -292.979371 
L 236.528803 -293.089302 
L 237.370441 -296.167362 
L 238.212078 -296.826947 
L 239.053716 -296.387224 
L 239.895353 -294.958124 
L 240.736991 -294.628332 
L 241.578629 -295.068055 
L 242.420266 -293.748886 
L 243.261904 -290.670826 
L 244.103541 -290.670826 
L 244.945179 -290.450965 
L 245.786816 -285.17429 
L 246.628454 -286.493459 
L 247.470092 -286.383528 
L 248.311729 -290.121173 
L 249.153367 -281.436645 
L 249.995004 -282.755814 
L 250.836642 -282.865745 
L 251.678279 -282.645883 
L 252.519917 -281.546576 
L 253.361555 -285.943805 
L 254.203192 -279.238031 
L 255.04483 -280.5572 
L 255.886467 -283.085606 
L 256.728105 -281.106853 
L 257.569742 -279.787685 
L 258.41138 -280.996923 
L 259.253018 -280.996923 
L 260.094655 -283.305468 
L 260.936293 -279.567823 
L 261.77793 -280.447269 
L 262.619568 -282.09623 
L 263.461205 -280.5572 
L 264.302843 -278.578447 
L 265.144481 -281.546576 
L 265.986118 -278.908239 
L 266.827756 -285.833874 
L 267.669393 -287.262974 
L 268.511031 -293.858817 
L 269.352668 -299.135492 
L 270.194306 -326.728103 
L 271.035944 -361.466211 
L 271.877581 -426.545199 
L 271.877581 -249.666667 
L 271.877581 -249.666667 
L 271.035944 -249.666667 
L 270.194306 -249.666667 
L 269.352668 -249.666667 
L 268.511031 -249.666667 
L 267.669393 -249.666667 
L 266.827756 -249.666667 
L 265.986118 -249.666667 
L 265.144481 -249.666667 
L 264.302843 -249.666667 
L 263.461205 -249.666667 
L 262.619568 -249.666667 
L 261.77793 -249.666667 
L 260.936293 -249.666667 
L 260.094655 -249.666667 
L 259.253018 -249.666667 
L 258.41138 -249.666667 
L 257.569742 -249.666667 
L 256.728105 -249.666667 
L 255.886467 -249.666667 
L 255.04483 -249.666667 
L 254.203192 -249.666667 
L 253.361555 -249.666667 
L 252.519917 -249.666667 
L 251.678279 -249.666667 
L 250.836642 -249.666667 
L 249.995004 -249.666667 
L 249.153367 -249.666667 
L 248.311729 -249.666667 
L 247.470092 -249.666667 
L 246.628454 -249.666667 
L 245.786816 -249.666667 
L 244.945179 -249.666667 
L 244.103541 -249.666667 
L 243.261904 -249.666667 
L 242.420266 -249.666667 
L 241.578629 -249.666667 
L 240.736991 -249.666667 
L 239.895353 -249.666667 
L 239.053716 -249.666667 
L 238.212078 -249.666667 
L 237.370441 -249.666667 
L 236.528803 -249.666667 
L 235.687166 -249.666667 
L 234.845528 -249.666667 
L 234.00389 -249.666667 
L 233.162253 -249.666667 
L 232.320615 -249.666667 
L 231.478978 -249.666667 
L 230.63734 -249.666667 
L 229.795703 -249.666667 
L 228.954065 -249.666667 
L 228.112427 -249.666667 
L 227.27079 -249.666667 
L 226.429152 -249.666667 
L 225.587515 -249.666667 
L 224.745877 -249.666667 
L 223.90424 -249.666667 
L 223.062602 -249.666667 
L 222.220964 -249.666667 
L 221.379327 -249.666667 
L 220.537689 -249.666667 
L 219.696052 -249.666667 
L 218.854414 -249.666667 
L 218.012776 -249.666667 
L 217.171139 -249.666667 
L 216.329501 -249.666667 
L 215.487864 -249.666667 
L 214.646226 -249.666667 
L 213.804589 -249.666667 
L 212.962951 -249.666667 
L 212.121313 -249.666667 
L 211.279676 -249.666667 
L 210.438038 -249.666667 
L 209.596401 -249.666667 
L 208.754763 -249.666667 
L 207.913126 -249.666667 
L 207.071488 -249.666667 
L 206.22985 -249.666667 
L 205.388213 -249.666667 
L 204.546575 -249.666667 
L 203.704938 -249.666667 
L 202.8633 -249.666667 
L 202.021663 -249.666667 
L 201.180025 -249.666667 
L 200.338387 -249.666667 
L 199.49675 -249.666667 
L 198.655112 -249.666667 
L 197.813475 -249.666667 
L 196.971837 -249.666667 
L 196.1302 -249.666667 
L 195.288562 -249.666667 
L 194.446924 -249.666667 
L 193.605287 -249.666667 
L 192.763649 -249.666667 
L 191.922012 -249.666667 
L 191.080374 -249.666667 
L 190.238737 -249.666667 
L 189.397099 -249.666667 
L 188.555461 -249.666667 
L 187.713824 -249.666667 
L 186.872186 -249.666667 
L 186.030549 -249.666667 
L 185.188911 -249.666667 
L 184.347274 -249.666667 
L 183.505636 -249.666667 
L 182.663998 -249.666667 
L 181.822361 -249.666667 
L 180.980723 -249.666667 
L 180.139086 -249.666667 
L 179.297448 -249.666667 
L 178.455811 -249.666667 
L 177.614173 -249.666667 
L 176.772535 -249.666667 
L 175.930898 -249.666667 
L 175.08926 -249.666667 
L 174.247623 -249.666667 
L 173.405985 -249.666667 
L 172.564348 -249.666667 
L 171.72271 -249.666667 
L 170.881072 -249.666667 
L 170.039435 -249.666667 
L 169.197797 -249.666667 
L 168.35616 -249.666667 
L 167.514522 -249.666667 
L 166.672885 -249.666667 
L 165.831247 -249.666667 
L 164.989609 -249.666667 
L 164.147972 -249.666667 
L 163.306334 -249.666667 
L 162.464697 -249.666667 
L 161.623059 -249.666667 
L 160.781422 -249.666667 
L 159.939784 -249.666667 
L 159.098146 -249.666667 
L 158.256509 -249.666667 
L 157.414871 -249.666667 
L 156.573234 -249.666667 
L 155.731596 -249.666667 
L 154.889958 -249.666667 
L 154.048321 -249.666667 
L 153.206683 -249.666667 
L 152.365046 -249.666667 
L 151.523408 -249.666667 
L 150.681771 -249.666667 
L 149.840133 -249.666667 
L 148.998495 -249.666667 
L 148.156858 -249.666667 
L 147.31522 -249.666667 
L 146.473583 -249.666667 
L 145.631945 -249.666667 
L 144.790308 -249.666667 
L 143.94867 -249.666667 
L 143.107032 -249.666667 
L 142.265395 -249.666667 
L 141.423757 -249.666667 
L 140.58212 -249.666667 
L 139.740482 -249.666667 
L 138.898845 -249.666667 
L 138.057207 -249.666667 
L 137.215569 -249.666667 
L 136.373932 -249.666667 
L 135.532294 -249.666667 
L 134.690657 -249.666667 
L 133.849019 -249.666667 
L 133.007382 -249.666667 
L 132.165744 -249.666667 
L 131.324106 -249.666667 
L 130.482469 -249.666667 
L 129.640831 -249.666667 
L 128.799194 -249.666667 
L 127.957556 -249.666667 
L 127.115919 -249.666667 
L 126.274281 -249.666667 
L 125.432643 -249.666667 
L 124.591006 -249.666667 
L 123.749368 -249.666667 
L 122.907731 -249.666667 
L 122.066093 -249.666667 
L 121.224456 -249.666667 
L 120.382818 -249.666667 
L 119.54118 -249.666667 
L 118.699543 -249.666667 
L 117.857905 -249.666667 
L 117.016268 -249.666667 
L 116.17463 -249.666667 
L 115.332993 -249.666667 
L 114.491355 -249.666667 
L 113.649717 -249.666667 
L 112.80808 -249.666667 
L 111.966442 -249.666667 
L 111.124805 -249.666667 
L 110.283167 -249.666667 
L 109.44153 -249.666667 
L 108.599892 -249.666667 
L 107.758254 -249.666667 
L 106.916617 -249.666667 
L 106.074979 -249.666667 
L 105.233342 -249.666667 
L 104.391704 -249.666667 
L 103.550067 -249.666667 
L 102.708429 -249.666667 
L 101.866791 -249.666667 
L 101.025154 -249.666667 
L 100.183516 -249.666667 
L 99.341879 -249.666667 
L 98.500241 -249.666667 
L 97.658604 -249.666667 
L 96.816966 -249.666667 
L 95.975328 -249.666667 
L 95.133691 -249.666667 
L 94.292053 -249.666667 
L 93.450416 -249.666667 
L 92.608778 -249.666667 
L 91.767141 -249.666667 
L 90.925503 -249.666667 
L 90.083865 -249.666667 
L 89.242228 -249.666667 
L 88.40059 -249.666667 
L 87.558953 -249.666667 
L 86.717315 -249.666667 
L 85.875677 -249.666667 
L 85.03404 -249.666667 
L 84.192402 -249.666667 
L 83.350765 -249.666667 
L 82.509127 -249.666667 
L 81.66749 -249.666667 
L 80.825852 -249.666667 
L 79.984214 -249.666667 
L 79.142577 -249.666667 
L 78.300939 -249.666667 
L 77.459302 -249.666667 
L 76.617664 -249.666667 
L 75.776027 -249.666667 
L 74.934389 -249.666667 
L 74.092751 -249.666667 
L 73.251114 -249.666667 
L 72.409476 -249.666667 
L 71.567839 -249.666667 
L 70.726201 -249.666667 
L 69.884564 -249.666667 
L 69.042926 -249.666667 
L 68.201288 -249.666667 
L 67.359651 -249.666667 
L 66.518013 -249.666667 
L 65.676376 -249.666667 
L 64.834738 -249.666667 
L 63.993101 -249.666667 
L 63.151463 -249.666667 
L 62.309825 -249.666667 
L 61.468188 -249.666667 
L 60.62655 -249.666667 
L 59.784913 -249.666667 
L 58.943275 -249.666667 
L 58.101638 -249.666667 
L 57.26 -249.666667 
z
" style="stroke: #008000; stroke-opacity: 0.4"/>
    </defs>
    <g clip-path="url(#p946945de52)">
     <use xlink:href="#m87f09e9380" x="0" y="648" style="fill: #008000; fill-opacity: 0.4; stroke: #008000; stroke-opacity: 0.4"/>
    </g>
   </g>
   <g id="matplotlib.axis_3">
    <g id="xtick_7">
     <g id="line2d_15">
      <g>
       <use xlink:href="#mb74f5fdcb7" x="57.26" y="398.333333" style="stroke: #000000; stroke-width: 0.8"/>
      </g>
     </g>
     <g id="text_16">
      <!-- 0 -->
      <g transform="translate(54.07875 412.931771) scale(0.1 -0.1)">
       <use xlink:href="#DejaVuSans-30"/>
      </g>
     </g>
    </g>
    <g id="xtick_8">
     <g id="line2d_16">
      <g>
       <use xlink:href="#mb74f5fdcb7" x="99.341879" y="398.333333" style="stroke: #000000; stroke-width: 0.8"/>
      </g>
     </g>
     <g id="text_17">
      <!-- 50 -->
      <g transform="translate(92.979379 412.931771) scale(0.1 -0.1)">
       <use xlink:href="#DejaVuSans-35"/>
       <use xlink:href="#DejaVuSans-30" x="63.623047"/>
      </g>
     </g>
    </g>
    <g id="xtick_9">
     <g id="line2d_17">
      <g>
       <use xlink:href="#mb74f5fdcb7" x="141.423757" y="398.333333" style="stroke: #000000; stroke-width: 0.8"/>
      </g>
     </g>
     <g id="text_18">
      <!-- 100 -->
      <g transform="translate(131.880007 412.931771) scale(0.1 -0.1)">
       <use xlink:href="#DejaVuSans-31"/>
       <use xlink:href="#DejaVuSans-30" x="63.623047"/>
       <use xlink:href="#DejaVuSans-30" x="127.246094"/>
      </g>
     </g>
    </g>
    <g id="xtick_10">
     <g id="line2d_18">
      <g>
       <use xlink:href="#mb74f5fdcb7" x="183.505636" y="398.333333" style="stroke: #000000; stroke-width: 0.8"/>
      </g>
     </g>
     <g id="text_19">
      <!-- 150 -->
      <g transform="translate(173.961886 412.931771) scale(0.1 -0.1)">
       <use xlink:href="#DejaVuSans-31"/>
       <use xlink:href="#DejaVuSans-35" x="63.623047"/>
       <use xlink:href="#DejaVuSans-30" x="127.246094"/>
      </g>
     </g>
    </g>
    <g id="xtick_11">
     <g id="line2d_19">
      <g>
       <use xlink:href="#mb74f5fdcb7" x="225.587515" y="398.333333" style="stroke: #000000; stroke-width: 0.8"/>
      </g>
     </g>
     <g id="text_20">
      <!-- 200 -->
      <g transform="translate(216.043765 412.931771) scale(0.1 -0.1)">
       <use xlink:href="#DejaVuSans-32"/>
       <use xlink:href="#DejaVuSans-30" x="63.623047"/>
       <use xlink:href="#DejaVuSans-30" x="127.246094"/>
      </g>
     </g>
    </g>
    <g id="xtick_12">
     <g id="line2d_20">
      <g>
       <use xlink:href="#mb74f5fdcb7" x="267.669393" y="398.333333" style="stroke: #000000; stroke-width: 0.8"/>
      </g>
     </g>
     <g id="text_21">
      <!-- 250 -->
      <g transform="translate(258.125643 412.931771) scale(0.1 -0.1)">
       <use xlink:href="#DejaVuSans-32"/>
       <use xlink:href="#DejaVuSans-35" x="63.623047"/>
       <use xlink:href="#DejaVuSans-30" x="127.246094"/>
      </g>
     </g>
    </g>
   </g>
   <g id="matplotlib.axis_4">
    <g id="ytick_8">
     <g id="line2d_21">
      <g>
       <use xlink:href="#m43e5a2d692" x="57.26" y="398.333333" style="stroke: #000000; stroke-width: 0.8"/>
      </g>
     </g>
     <g id="text_22">
      <!-- 0 -->
      <g transform="translate(43.8975 402.132552) scale(0.1 -0.1)">
       <use xlink:href="#DejaVuSans-30"/>
      </g>
     </g>
    </g>
    <g id="ytick_9">
     <g id="line2d_22">
      <g>
       <use xlink:href="#m43e5a2d692" x="57.26" y="370.850653" style="stroke: #000000; stroke-width: 0.8"/>
      </g>
     </g>
     <g id="text_23">
      <!-- 250 -->
      <g transform="translate(31.1725 374.649871) scale(0.1 -0.1)">
       <use xlink:href="#DejaVuSans-32"/>
       <use xlink:href="#DejaVuSans-35" x="63.623047"/>
       <use xlink:href="#DejaVuSans-30" x="127.246094"/>
      </g>
     </g>
    </g>
    <g id="ytick_10">
     <g id="line2d_23">
      <g>
       <use xlink:href="#m43e5a2d692" x="57.26" y="343.367972" style="stroke: #000000; stroke-width: 0.8"/>
      </g>
     </g>
     <g id="text_24">
      <!-- 500 -->
      <g transform="translate(31.1725 347.167191) scale(0.1 -0.1)">
       <use xlink:href="#DejaVuSans-35"/>
       <use xlink:href="#DejaVuSans-30" x="63.623047"/>
       <use xlink:href="#DejaVuSans-30" x="127.246094"/>
      </g>
     </g>
    </g>
    <g id="ytick_11">
     <g id="line2d_24">
      <g>
       <use xlink:href="#m43e5a2d692" x="57.26" y="315.885291" style="stroke: #000000; stroke-width: 0.8"/>
      </g>
     </g>
     <g id="text_25">
      <!-- 750 -->
      <g transform="translate(31.1725 319.68451) scale(0.1 -0.1)">
       <use xlink:href="#DejaVuSans-37"/>
       <use xlink:href="#DejaVuSans-35" x="63.623047"/>
       <use xlink:href="#DejaVuSans-30" x="127.246094"/>
      </g>
     </g>
    </g>
    <g id="ytick_12">
     <g id="line2d_25">
      <g>
       <use xlink:href="#m43e5a2d692" x="57.26" y="288.402611" style="stroke: #000000; stroke-width: 0.8"/>
      </g>
     </g>
     <g id="text_26">
      <!-- 1000 -->
      <g transform="translate(24.81 292.20183) scale(0.1 -0.1)">
       <use xlink:href="#DejaVuSans-31"/>
       <use xlink:href="#DejaVuSans-30" x="63.623047"/>
       <use xlink:href="#DejaVuSans-30" x="127.246094"/>
       <use xlink:href="#DejaVuSans-30" x="190.869141"/>
      </g>
     </g>
    </g>
    <g id="ytick_13">
     <g id="line2d_26">
      <g>
       <use xlink:href="#m43e5a2d692" x="57.26" y="260.91993" style="stroke: #000000; stroke-width: 0.8"/>
      </g>
     </g>
     <g id="text_27">
      <!-- 1250 -->
      <g transform="translate(24.81 264.719149) scale(0.1 -0.1)">
       <use xlink:href="#DejaVuSans-31"/>
       <use xlink:href="#DejaVuSans-32" x="63.623047"/>
       <use xlink:href="#DejaVuSans-35" x="127.246094"/>
       <use xlink:href="#DejaVuSans-30" x="190.869141"/>
      </g>
     </g>
    </g>
    <g id="ytick_14">
     <g id="line2d_27">
      <g>
       <use xlink:href="#m43e5a2d692" x="57.26" y="233.43725" style="stroke: #000000; stroke-width: 0.8"/>
      </g>
     </g>
     <g id="text_28">
      <!-- 1500 -->
      <g transform="translate(24.81 237.236468) scale(0.1 -0.1)">
       <use xlink:href="#DejaVuSans-31"/>
       <use xlink:href="#DejaVuSans-35" x="63.623047"/>
       <use xlink:href="#DejaVuSans-30" x="127.246094"/>
       <use xlink:href="#DejaVuSans-30" x="190.869141"/>
      </g>
     </g>
    </g>
    <g id="text_29">
     <!-- Pixel Frequency -->
     <g transform="translate(18.730313 348.872973) rotate(-90) scale(0.1 -0.1)">
      <use xlink:href="#DejaVuSans-50"/>
      <use xlink:href="#DejaVuSans-69" x="58.052734"/>
      <use xlink:href="#DejaVuSans-78" x="85.835938"/>
      <use xlink:href="#DejaVuSans-65" x="141.890625"/>
      <use xlink:href="#DejaVuSans-6c" x="203.414062"/>
      <use xlink:href="#DejaVuSans-20" x="231.197266"/>
      <use xlink:href="#DejaVuSans-46" x="262.984375"/>
      <use xlink:href="#DejaVuSans-72" x="313.253906"/>
      <use xlink:href="#DejaVuSans-65" x="352.117188"/>
      <use xlink:href="#DejaVuSans-71" x="413.640625"/>
      <use xlink:href="#DejaVuSans-75" x="477.117188"/>
      <use xlink:href="#DejaVuSans-65" x="540.496094"/>
      <use xlink:href="#DejaVuSans-6e" x="602.019531"/>
      <use xlink:href="#DejaVuSans-63" x="665.398438"/>
      <use xlink:href="#DejaVuSans-79" x="720.378906"/>
     </g>
    </g>
   </g>
   <g id="line2d_28">
    <path d="M 57.26 398.333333 
L 142.265395 398.333333 
L 143.107032 397.89361 
L 143.94867 396.574442 
L 144.790308 397.78368 
L 146.473583 397.89361 
L 148.156858 397.124095 
L 148.998495 394.155966 
L 149.840133 389.099153 
L 150.681771 387.010469 
L 151.523408 389.099153 
L 152.365046 390.858044 
L 153.206683 394.046035 
L 154.048321 390.528252 
L 154.889958 391.077906 
L 155.731596 386.131023 
L 156.573234 383.492686 
L 157.414871 383.602617 
L 158.256509 382.173517 
L 159.098146 378.10608 
L 159.939784 379.425249 
L 160.781422 380.084833 
L 161.623059 380.304695 
L 162.464697 377.99615 
L 163.306334 376.45712 
L 164.147972 378.545803 
L 164.989609 377.226635 
L 165.831247 375.467743 
L 166.672885 376.896842 
L 168.35616 371.620168 
L 169.197797 368.102385 
L 170.881072 360.077442 
L 171.72271 363.485294 
L 172.564348 354.361044 
L 173.405985 353.371668 
L 174.247623 347.215547 
L 175.08926 347.215547 
L 175.930898 349.304231 
L 176.772535 354.580906 
L 177.614173 348.094993 
L 178.455811 351.612776 
L 179.297448 352.712084 
L 180.139086 354.141183 
L 180.980723 353.041876 
L 181.822361 355.460352 
L 182.663998 353.70146 
L 183.505636 351.063123 
L 184.347274 358.098689 
L 185.188911 356.889451 
L 186.030549 353.591529 
L 186.872186 358.648343 
L 187.713824 361.066818 
L 188.555461 358.648343 
L 189.397099 359.85758 
L 190.238737 358.428481 
L 191.080374 362.935641 
L 191.922012 361.176749 
L 192.763649 360.407234 
L 193.605287 361.396611 
L 194.446924 359.967511 
L 195.288562 361.836333 
L 196.1302 367.992454 
L 196.971837 364.694532 
L 197.813475 365.90377 
L 198.655112 360.407234 
L 199.49675 364.254809 
L 200.338387 361.28668 
L 201.180025 362.82571 
L 202.021663 363.485294 
L 202.8633 365.464047 
L 203.704938 364.474671 
L 204.546575 358.648343 
L 205.388213 356.66959 
L 206.22985 353.591529 
L 207.071488 353.041876 
L 207.913126 359.088065 
L 208.754763 352.712084 
L 209.596401 352.712084 
L 210.438038 353.481599 
L 211.279676 358.20862 
L 212.121313 352.931945 
L 212.962951 358.538412 
L 213.804589 361.726403 
L 214.646226 358.758273 
L 215.487864 356.889451 
L 217.171139 360.737026 
L 218.012776 356.449728 
L 218.854414 355.900074 
L 219.696052 359.088065 
L 220.537689 359.088065 
L 221.379327 353.481599 
L 222.220964 355.790144 
L 223.062602 356.66959 
L 223.90424 353.811391 
L 224.745877 354.361044 
L 225.587515 355.130559 
L 226.429152 352.382291 
L 228.112427 354.800767 
L 228.954065 354.251114 
L 229.795703 358.098689 
L 230.63734 352.602153 
L 231.478978 354.031252 
L 232.320615 350.843261 
L 233.162253 352.602153 
L 234.00389 347.65527 
L 234.845528 355.020629 
L 236.528803 354.910698 
L 237.370441 351.832638 
L 238.212078 351.173053 
L 239.053716 351.612776 
L 239.895353 353.041876 
L 240.736991 353.371668 
L 241.578629 352.931945 
L 242.420266 354.251114 
L 243.261904 357.329174 
L 244.103541 357.329174 
L 244.945179 357.549035 
L 245.786816 362.82571 
L 246.628454 361.506541 
L 247.470092 361.616472 
L 248.311729 357.878827 
L 249.153367 366.563355 
L 249.995004 365.244186 
L 250.836642 365.134255 
L 251.678279 365.354117 
L 252.519917 366.453424 
L 253.361555 362.056195 
L 254.203192 368.761969 
L 255.04483 367.4428 
L 255.886467 364.914394 
L 256.728105 366.893147 
L 257.569742 368.212315 
L 258.41138 367.003077 
L 259.253018 367.003077 
L 260.094655 364.694532 
L 260.936293 368.432177 
L 261.77793 367.552731 
L 262.619568 365.90377 
L 263.461205 367.4428 
L 264.302843 369.421553 
L 265.144481 366.453424 
L 265.986118 369.091761 
L 266.827756 362.166126 
L 267.669393 360.737026 
L 268.511031 354.141183 
L 269.352668 348.864508 
L 270.194306 321.271897 
L 271.035944 286.533789 
L 271.877581 221.454801 
L 271.877581 221.454801 
" clip-path="url(#p946945de52)" style="fill: none; stroke: #008000; stroke-width: 1.5; stroke-linecap: square"/>
   </g>
   <g id="patch_8">
    <path d="M 57.26 398.333333 
L 57.26 221.454801 
" style="fill: none; stroke: #000000; stroke-width: 0.8; stroke-linejoin: miter; stroke-linecap: square"/>
   </g>
   <g id="patch_9">
    <path d="M 272.719219 398.333333 
L 272.719219 221.454801 
" style="fill: none; stroke: #000000; stroke-width: 0.8; stroke-linejoin: miter; stroke-linecap: square"/>
   </g>
   <g id="patch_10">
    <path d="M 57.26 398.333333 
L 272.719219 398.333333 
" style="fill: none; stroke: #000000; stroke-width: 0.8; stroke-linejoin: miter; stroke-linecap: square"/>
   </g>
   <g id="patch_11">
    <path d="M 57.26 221.454801 
L 272.719219 221.454801 
" style="fill: none; stroke: #000000; stroke-width: 0.8; stroke-linejoin: miter; stroke-linecap: square"/>
   </g>
   <g id="text_30">
    <!-- Green Channel  -->
    <g transform="translate(179.492344 235.454801) scale(0.12 -0.12)">
     <defs>
      <path id="DejaVuSans-47" d="M 3809 666 
L 3809 1919 
L 2778 1919 
L 2778 2438 
L 4434 2438 
L 4434 434 
Q 4069 175 3628 42 
Q 3188 -91 2688 -91 
Q 1594 -91 976 548 
Q 359 1188 359 2328 
Q 359 3472 976 4111 
Q 1594 4750 2688 4750 
Q 3144 4750 3555 4637 
Q 3966 4525 4313 4306 
L 4313 3634 
Q 3963 3931 3569 4081 
Q 3175 4231 2741 4231 
Q 1884 4231 1454 3753 
Q 1025 3275 1025 2328 
Q 1025 1384 1454 906 
Q 1884 428 2741 428 
Q 3075 428 3337 486 
Q 3600 544 3809 666 
z
" transform="scale(0.015625)"/>
     </defs>
     <use xlink:href="#DejaVuSans-47"/>
     <use xlink:href="#DejaVuSans-72" x="77.490234"/>
     <use xlink:href="#DejaVuSans-65" x="116.353516"/>
     <use xlink:href="#DejaVuSans-65" x="177.876953"/>
     <use xlink:href="#DejaVuSans-6e" x="239.400391"/>
     <use xlink:href="#DejaVuSans-20" x="302.779297"/>
     <use xlink:href="#DejaVuSans-43" x="334.566406"/>
     <use xlink:href="#DejaVuSans-68" x="404.390625"/>
     <use xlink:href="#DejaVuSans-61" x="467.769531"/>
     <use xlink:href="#DejaVuSans-6e" x="529.048828"/>
     <use xlink:href="#DejaVuSans-6e" x="592.427734"/>
     <use xlink:href="#DejaVuSans-65" x="655.806641"/>
     <use xlink:href="#DejaVuSans-6c" x="717.330078"/>
     <use xlink:href="#DejaVuSans-20" x="745.113281"/>
    </g>
   </g>
  </g>
  <g id="axes_3">
   <g id="patch_12">
    <path d="M 57.26 606.04 
L 272.719219 606.04 
L 272.719219 429.161468 
L 57.26 429.161468 
z
" style="fill: #ffffff"/>
   </g>
   <g id="PolyCollection_3">
    <defs>
     <path id="md6d9da5211" d="M 57.26 -41.96 
L 57.26 -41.96 
L 58.101638 -41.96 
L 58.943275 -41.96 
L 59.784913 -41.96 
L 60.62655 -41.96 
L 61.468188 -41.96 
L 62.309825 -41.96 
L 63.151463 -41.96 
L 63.993101 -41.96 
L 64.834738 -41.96 
L 65.676376 -41.96 
L 66.518013 -41.96 
L 67.359651 -41.96 
L 68.201288 -41.96 
L 69.042926 -41.96 
L 69.884564 -41.96 
L 70.726201 -41.96 
L 71.567839 -41.96 
L 72.409476 -41.96 
L 73.251114 -41.96 
L 74.092751 -41.96 
L 74.934389 -41.96 
L 75.776027 -41.96 
L 76.617664 -41.96 
L 77.459302 -41.96 
L 78.300939 -41.96 
L 79.142577 -41.96 
L 79.984214 -41.96 
L 80.825852 -41.96 
L 81.66749 -41.96 
L 82.509127 -41.96 
L 83.350765 -41.96 
L 84.192402 -41.96 
L 85.03404 -41.96 
L 85.875677 -41.96 
L 86.717315 -41.96 
L 87.558953 -41.96 
L 88.40059 -41.96 
L 89.242228 -41.96 
L 90.083865 -41.96 
L 90.925503 -41.96 
L 91.767141 -41.96 
L 92.608778 -41.96 
L 93.450416 -41.96 
L 94.292053 -41.96 
L 95.133691 -41.96 
L 95.975328 -41.96 
L 96.816966 -41.96 
L 97.658604 -41.96 
L 98.500241 -41.96 
L 99.341879 -42.069931 
L 100.183516 -41.96 
L 101.025154 -42.069931 
L 101.866791 -41.96 
L 102.708429 -42.289792 
L 103.550067 -42.509654 
L 104.391704 -44.048684 
L 105.233342 -48.995566 
L 106.074979 -57.790024 
L 106.916617 -58.229747 
L 107.758254 -65.155382 
L 108.599892 -67.244066 
L 109.44153 -67.024205 
L 110.283167 -77.687485 
L 111.124805 -80.105961 
L 111.966442 -76.808039 
L 112.80808 -82.744298 
L 113.649717 -84.61312 
L 114.491355 -92.638063 
L 115.332993 -92.967855 
L 116.17463 -99.123976 
L 117.016268 -105.499958 
L 117.857905 -111.436217 
L 118.699543 -120.340605 
L 119.54118 -119.351229 
L 120.382818 -121.549843 
L 121.224456 -115.393723 
L 122.066093 -118.691644 
L 122.907731 -117.152614 
L 123.749368 -112.315662 
L 124.591006 -106.379403 
L 125.432643 -104.950304 
L 126.274281 -105.82975 
L 127.115919 -104.950304 
L 127.957556 -104.510581 
L 128.799194 -100.113352 
L 129.640831 -101.212659 
L 130.482469 -97.145223 
L 131.324106 -97.475015 
L 132.165744 -97.255153 
L 133.007382 -108.90781 
L 133.849019 -112.755385 
L 134.690657 -114.404346 
L 135.532294 -113.854692 
L 136.373932 -116.053307 
L 137.215569 -116.383099 
L 138.057207 -113.634831 
L 138.898845 -110.996494 
L 139.740482 -109.347533 
L 140.58212 -109.457464 
L 141.423757 -108.358156 
L 142.265395 -111.98587 
L 143.107032 -113.854692 
L 143.94867 -115.393723 
L 144.790308 -117.702268 
L 145.631945 -119.241298 
L 146.473583 -119.241298 
L 147.31522 -114.074554 
L 148.156858 -119.351229 
L 148.998495 -116.273168 
L 149.840133 -113.305039 
L 150.681771 -113.634831 
L 151.523408 -112.975247 
L 152.365046 -111.436217 
L 153.206683 -108.358156 
L 154.048321 -109.347533 
L 154.889958 -105.390027 
L 155.731596 -106.269473 
L 156.573234 -104.620512 
L 157.414871 -101.652382 
L 158.256509 -100.443144 
L 159.098146 -96.595569 
L 159.939784 -94.396955 
L 160.781422 -91.318894 
L 161.623059 -93.077786 
L 162.464697 -87.801111 
L 163.306334 -88.900418 
L 164.147972 -89.560003 
L 164.989609 -82.524437 
L 165.831247 -83.293952 
L 166.672885 -79.226515 
L 167.514522 -81.644991 
L 168.35616 -77.0279 
L 169.197797 -79.006653 
L 170.039435 -78.896723 
L 170.881072 -75.708732 
L 171.72271 -72.41081 
L 172.564348 -70.541988 
L 173.405985 -75.049147 
L 174.247623 -72.740602 
L 175.08926 -70.432057 
L 175.930898 -69.112888 
L 176.772535 -68.673166 
L 177.614173 -70.761849 
L 178.455811 -68.563235 
L 179.297448 -71.091641 
L 180.139086 -66.694413 
L 180.980723 -63.066699 
L 181.822361 -64.605729 
L 182.663998 -64.82559 
L 183.505636 -66.25469 
L 184.347274 -64.605729 
L 185.188911 -62.187253 
L 186.030549 -62.846837 
L 186.872186 -60.2085 
L 187.713824 -60.318431 
L 188.555461 -59.548916 
L 189.397099 -60.758154 
L 190.238737 -58.66947 
L 191.080374 -58.009885 
L 191.922012 -56.360925 
L 192.763649 -55.59141 
L 193.605287 -55.921202 
L 194.446924 -56.580786 
L 195.288562 -56.910578 
L 196.1302 -53.502726 
L 196.971837 -56.141063 
L 197.813475 -53.392795 
L 198.655112 -52.62328 
L 199.49675 -52.293488 
L 200.338387 -49.325358 
L 201.180025 -51.743834 
L 202.021663 -51.743834 
L 202.8633 -50.754458 
L 203.704938 -49.984943 
L 204.546575 -51.853765 
L 205.388213 -48.995566 
L 206.22985 -50.644527 
L 207.071488 -49.105497 
L 207.913126 -49.105497 
L 208.754763 -50.534596 
L 209.596401 -49.435289 
L 210.438038 -48.885636 
L 211.279676 -49.215428 
L 212.121313 -48.11612 
L 212.962951 -48.11612 
L 213.804589 -47.236675 
L 214.646226 -47.236675 
L 215.487864 -46.46716 
L 216.329501 -46.796952 
L 217.171139 -47.016813 
L 218.012776 -46.796952 
L 218.854414 -45.917506 
L 219.696052 -46.687021 
L 220.537689 -46.027437 
L 221.379327 -45.917506 
L 222.220964 -46.796952 
L 223.062602 -47.016813 
L 223.90424 -45.807575 
L 224.745877 -45.697645 
L 225.587515 -45.697645 
L 226.429152 -45.03806 
L 227.27079 -45.587714 
L 228.112427 -44.488407 
L 228.954065 -44.488407 
L 229.795703 -44.818199 
L 230.63734 -44.378476 
L 231.478978 -43.938753 
L 232.320615 -44.158614 
L 233.162253 -43.938753 
L 234.00389 -44.048684 
L 234.845528 -43.828822 
L 235.687166 -43.938753 
L 236.528803 -44.048684 
L 237.370441 -43.718892 
L 238.212078 -43.718892 
L 239.053716 -43.938753 
L 239.895353 -44.048684 
L 240.736991 -44.048684 
L 241.578629 -43.608961 
L 242.420266 -43.608961 
L 243.261904 -43.49903 
L 244.103541 -42.839446 
L 244.945179 -43.49903 
L 245.786816 -43.059307 
L 246.628454 -42.839446 
L 247.470092 -42.509654 
L 248.311729 -42.619584 
L 249.153367 -42.839446 
L 249.995004 -43.169238 
L 250.836642 -43.169238 
L 251.678279 -42.839446 
L 252.519917 -42.179861 
L 253.361555 -42.619584 
L 254.203192 -42.729515 
L 255.04483 -42.729515 
L 255.886467 -42.509654 
L 256.728105 -43.169238 
L 257.569742 -42.399723 
L 258.41138 -42.399723 
L 259.253018 -42.949377 
L 260.094655 -42.509654 
L 260.936293 -42.399723 
L 261.77793 -42.729515 
L 262.619568 -42.509654 
L 263.461205 -42.509654 
L 264.302843 -42.509654 
L 265.144481 -42.509654 
L 265.986118 -42.179861 
L 266.827756 -42.069931 
L 267.669393 -42.289792 
L 268.511031 -42.619584 
L 269.352668 -42.399723 
L 270.194306 -42.509654 
L 271.035944 -42.509654 
L 271.877581 -42.179861 
L 271.877581 -41.96 
L 271.877581 -41.96 
L 271.035944 -41.96 
L 270.194306 -41.96 
L 269.352668 -41.96 
L 268.511031 -41.96 
L 267.669393 -41.96 
L 266.827756 -41.96 
L 265.986118 -41.96 
L 265.144481 -41.96 
L 264.302843 -41.96 
L 263.461205 -41.96 
L 262.619568 -41.96 
L 261.77793 -41.96 
L 260.936293 -41.96 
L 260.094655 -41.96 
L 259.253018 -41.96 
L 258.41138 -41.96 
L 257.569742 -41.96 
L 256.728105 -41.96 
L 255.886467 -41.96 
L 255.04483 -41.96 
L 254.203192 -41.96 
L 253.361555 -41.96 
L 252.519917 -41.96 
L 251.678279 -41.96 
L 250.836642 -41.96 
L 249.995004 -41.96 
L 249.153367 -41.96 
L 248.311729 -41.96 
L 247.470092 -41.96 
L 246.628454 -41.96 
L 245.786816 -41.96 
L 244.945179 -41.96 
L 244.103541 -41.96 
L 243.261904 -41.96 
L 242.420266 -41.96 
L 241.578629 -41.96 
L 240.736991 -41.96 
L 239.895353 -41.96 
L 239.053716 -41.96 
L 238.212078 -41.96 
L 237.370441 -41.96 
L 236.528803 -41.96 
L 235.687166 -41.96 
L 234.845528 -41.96 
L 234.00389 -41.96 
L 233.162253 -41.96 
L 232.320615 -41.96 
L 231.478978 -41.96 
L 230.63734 -41.96 
L 229.795703 -41.96 
L 228.954065 -41.96 
L 228.112427 -41.96 
L 227.27079 -41.96 
L 226.429152 -41.96 
L 225.587515 -41.96 
L 224.745877 -41.96 
L 223.90424 -41.96 
L 223.062602 -41.96 
L 222.220964 -41.96 
L 221.379327 -41.96 
L 220.537689 -41.96 
L 219.696052 -41.96 
L 218.854414 -41.96 
L 218.012776 -41.96 
L 217.171139 -41.96 
L 216.329501 -41.96 
L 215.487864 -41.96 
L 214.646226 -41.96 
L 213.804589 -41.96 
L 212.962951 -41.96 
L 212.121313 -41.96 
L 211.279676 -41.96 
L 210.438038 -41.96 
L 209.596401 -41.96 
L 208.754763 -41.96 
L 207.913126 -41.96 
L 207.071488 -41.96 
L 206.22985 -41.96 
L 205.388213 -41.96 
L 204.546575 -41.96 
L 203.704938 -41.96 
L 202.8633 -41.96 
L 202.021663 -41.96 
L 201.180025 -41.96 
L 200.338387 -41.96 
L 199.49675 -41.96 
L 198.655112 -41.96 
L 197.813475 -41.96 
L 196.971837 -41.96 
L 196.1302 -41.96 
L 195.288562 -41.96 
L 194.446924 -41.96 
L 193.605287 -41.96 
L 192.763649 -41.96 
L 191.922012 -41.96 
L 191.080374 -41.96 
L 190.238737 -41.96 
L 189.397099 -41.96 
L 188.555461 -41.96 
L 187.713824 -41.96 
L 186.872186 -41.96 
L 186.030549 -41.96 
L 185.188911 -41.96 
L 184.347274 -41.96 
L 183.505636 -41.96 
L 182.663998 -41.96 
L 181.822361 -41.96 
L 180.980723 -41.96 
L 180.139086 -41.96 
L 179.297448 -41.96 
L 178.455811 -41.96 
L 177.614173 -41.96 
L 176.772535 -41.96 
L 175.930898 -41.96 
L 175.08926 -41.96 
L 174.247623 -41.96 
L 173.405985 -41.96 
L 172.564348 -41.96 
L 171.72271 -41.96 
L 170.881072 -41.96 
L 170.039435 -41.96 
L 169.197797 -41.96 
L 168.35616 -41.96 
L 167.514522 -41.96 
L 166.672885 -41.96 
L 165.831247 -41.96 
L 164.989609 -41.96 
L 164.147972 -41.96 
L 163.306334 -41.96 
L 162.464697 -41.96 
L 161.623059 -41.96 
L 160.781422 -41.96 
L 159.939784 -41.96 
L 159.098146 -41.96 
L 158.256509 -41.96 
L 157.414871 -41.96 
L 156.573234 -41.96 
L 155.731596 -41.96 
L 154.889958 -41.96 
L 154.048321 -41.96 
L 153.206683 -41.96 
L 152.365046 -41.96 
L 151.523408 -41.96 
L 150.681771 -41.96 
L 149.840133 -41.96 
L 148.998495 -41.96 
L 148.156858 -41.96 
L 147.31522 -41.96 
L 146.473583 -41.96 
L 145.631945 -41.96 
L 144.790308 -41.96 
L 143.94867 -41.96 
L 143.107032 -41.96 
L 142.265395 -41.96 
L 141.423757 -41.96 
L 140.58212 -41.96 
L 139.740482 -41.96 
L 138.898845 -41.96 
L 138.057207 -41.96 
L 137.215569 -41.96 
L 136.373932 -41.96 
L 135.532294 -41.96 
L 134.690657 -41.96 
L 133.849019 -41.96 
L 133.007382 -41.96 
L 132.165744 -41.96 
L 131.324106 -41.96 
L 130.482469 -41.96 
L 129.640831 -41.96 
L 128.799194 -41.96 
L 127.957556 -41.96 
L 127.115919 -41.96 
L 126.274281 -41.96 
L 125.432643 -41.96 
L 124.591006 -41.96 
L 123.749368 -41.96 
L 122.907731 -41.96 
L 122.066093 -41.96 
L 121.224456 -41.96 
L 120.382818 -41.96 
L 119.54118 -41.96 
L 118.699543 -41.96 
L 117.857905 -41.96 
L 117.016268 -41.96 
L 116.17463 -41.96 
L 115.332993 -41.96 
L 114.491355 -41.96 
L 113.649717 -41.96 
L 112.80808 -41.96 
L 111.966442 -41.96 
L 111.124805 -41.96 
L 110.283167 -41.96 
L 109.44153 -41.96 
L 108.599892 -41.96 
L 107.758254 -41.96 
L 106.916617 -41.96 
L 106.074979 -41.96 
L 105.233342 -41.96 
L 104.391704 -41.96 
L 103.550067 -41.96 
L 102.708429 -41.96 
L 101.866791 -41.96 
L 101.025154 -41.96 
L 100.183516 -41.96 
L 99.341879 -41.96 
L 98.500241 -41.96 
L 97.658604 -41.96 
L 96.816966 -41.96 
L 95.975328 -41.96 
L 95.133691 -41.96 
L 94.292053 -41.96 
L 93.450416 -41.96 
L 92.608778 -41.96 
L 91.767141 -41.96 
L 90.925503 -41.96 
L 90.083865 -41.96 
L 89.242228 -41.96 
L 88.40059 -41.96 
L 87.558953 -41.96 
L 86.717315 -41.96 
L 85.875677 -41.96 
L 85.03404 -41.96 
L 84.192402 -41.96 
L 83.350765 -41.96 
L 82.509127 -41.96 
L 81.66749 -41.96 
L 80.825852 -41.96 
L 79.984214 -41.96 
L 79.142577 -41.96 
L 78.300939 -41.96 
L 77.459302 -41.96 
L 76.617664 -41.96 
L 75.776027 -41.96 
L 74.934389 -41.96 
L 74.092751 -41.96 
L 73.251114 -41.96 
L 72.409476 -41.96 
L 71.567839 -41.96 
L 70.726201 -41.96 
L 69.884564 -41.96 
L 69.042926 -41.96 
L 68.201288 -41.96 
L 67.359651 -41.96 
L 66.518013 -41.96 
L 65.676376 -41.96 
L 64.834738 -41.96 
L 63.993101 -41.96 
L 63.151463 -41.96 
L 62.309825 -41.96 
L 61.468188 -41.96 
L 60.62655 -41.96 
L 59.784913 -41.96 
L 58.943275 -41.96 
L 58.101638 -41.96 
L 57.26 -41.96 
z
" style="stroke: #0000ff; stroke-opacity: 0.4"/>
    </defs>
    <g clip-path="url(#p6caf511f84)">
     <use xlink:href="#md6d9da5211" x="0" y="648" style="fill: #0000ff; fill-opacity: 0.4; stroke: #0000ff; stroke-opacity: 0.4"/>
    </g>
   </g>
   <g id="matplotlib.axis_5">
    <g id="xtick_13">
     <g id="line2d_29">
      <g>
       <use xlink:href="#mb74f5fdcb7" x="57.26" y="606.04" style="stroke: #000000; stroke-width: 0.8"/>
      </g>
     </g>
     <g id="text_31">
      <!-- 0 -->
      <g transform="translate(54.07875 620.638437) scale(0.1 -0.1)">
       <use xlink:href="#DejaVuSans-30"/>
      </g>
     </g>
    </g>
    <g id="xtick_14">
     <g id="line2d_30">
      <g>
       <use xlink:href="#mb74f5fdcb7" x="99.341879" y="606.04" style="stroke: #000000; stroke-width: 0.8"/>
      </g>
     </g>
     <g id="text_32">
      <!-- 50 -->
      <g transform="translate(92.979379 620.638437) scale(0.1 -0.1)">
       <use xlink:href="#DejaVuSans-35"/>
       <use xlink:href="#DejaVuSans-30" x="63.623047"/>
      </g>
     </g>
    </g>
    <g id="xtick_15">
     <g id="line2d_31">
      <g>
       <use xlink:href="#mb74f5fdcb7" x="141.423757" y="606.04" style="stroke: #000000; stroke-width: 0.8"/>
      </g>
     </g>
     <g id="text_33">
      <!-- 100 -->
      <g transform="translate(131.880007 620.638437) scale(0.1 -0.1)">
       <use xlink:href="#DejaVuSans-31"/>
       <use xlink:href="#DejaVuSans-30" x="63.623047"/>
       <use xlink:href="#DejaVuSans-30" x="127.246094"/>
      </g>
     </g>
    </g>
    <g id="xtick_16">
     <g id="line2d_32">
      <g>
       <use xlink:href="#mb74f5fdcb7" x="183.505636" y="606.04" style="stroke: #000000; stroke-width: 0.8"/>
      </g>
     </g>
     <g id="text_34">
      <!-- 150 -->
      <g transform="translate(173.961886 620.638437) scale(0.1 -0.1)">
       <use xlink:href="#DejaVuSans-31"/>
       <use xlink:href="#DejaVuSans-35" x="63.623047"/>
       <use xlink:href="#DejaVuSans-30" x="127.246094"/>
      </g>
     </g>
    </g>
    <g id="xtick_17">
     <g id="line2d_33">
      <g>
       <use xlink:href="#mb74f5fdcb7" x="225.587515" y="606.04" style="stroke: #000000; stroke-width: 0.8"/>
      </g>
     </g>
     <g id="text_35">
      <!-- 200 -->
      <g transform="translate(216.043765 620.638437) scale(0.1 -0.1)">
       <use xlink:href="#DejaVuSans-32"/>
       <use xlink:href="#DejaVuSans-30" x="63.623047"/>
       <use xlink:href="#DejaVuSans-30" x="127.246094"/>
      </g>
     </g>
    </g>
    <g id="xtick_18">
     <g id="line2d_34">
      <g>
       <use xlink:href="#mb74f5fdcb7" x="267.669393" y="606.04" style="stroke: #000000; stroke-width: 0.8"/>
      </g>
     </g>
     <g id="text_36">
      <!-- 250 -->
      <g transform="translate(258.125643 620.638437) scale(0.1 -0.1)">
       <use xlink:href="#DejaVuSans-32"/>
       <use xlink:href="#DejaVuSans-35" x="63.623047"/>
       <use xlink:href="#DejaVuSans-30" x="127.246094"/>
      </g>
     </g>
    </g>
    <g id="text_37">
     <!-- Pixel Intensity -->
     <g transform="translate(130.077891 634.316562) scale(0.1 -0.1)">
      <defs>
       <path id="DejaVuSans-49" d="M 628 4666 
L 1259 4666 
L 1259 0 
L 628 0 
L 628 4666 
z
" transform="scale(0.015625)"/>
       <path id="DejaVuSans-74" d="M 1172 4494 
L 1172 3500 
L 2356 3500 
L 2356 3053 
L 1172 3053 
L 1172 1153 
Q 1172 725 1289 603 
Q 1406 481 1766 481 
L 2356 481 
L 2356 0 
L 1766 0 
Q 1100 0 847 248 
Q 594 497 594 1153 
L 594 3053 
L 172 3053 
L 172 3500 
L 594 3500 
L 594 4494 
L 1172 4494 
z
" transform="scale(0.015625)"/>
       <path id="DejaVuSans-73" d="M 2834 3397 
L 2834 2853 
Q 2591 2978 2328 3040 
Q 2066 3103 1784 3103 
Q 1356 3103 1142 2972 
Q 928 2841 928 2578 
Q 928 2378 1081 2264 
Q 1234 2150 1697 2047 
L 1894 2003 
Q 2506 1872 2764 1633 
Q 3022 1394 3022 966 
Q 3022 478 2636 193 
Q 2250 -91 1575 -91 
Q 1294 -91 989 -36 
Q 684 19 347 128 
L 347 722 
Q 666 556 975 473 
Q 1284 391 1588 391 
Q 1994 391 2212 530 
Q 2431 669 2431 922 
Q 2431 1156 2273 1281 
Q 2116 1406 1581 1522 
L 1381 1569 
Q 847 1681 609 1914 
Q 372 2147 372 2553 
Q 372 3047 722 3315 
Q 1072 3584 1716 3584 
Q 2034 3584 2315 3537 
Q 2597 3491 2834 3397 
z
" transform="scale(0.015625)"/>
      </defs>
      <use xlink:href="#DejaVuSans-50"/>
      <use xlink:href="#DejaVuSans-69" x="58.052734"/>
      <use xlink:href="#DejaVuSans-78" x="85.835938"/>
      <use xlink:href="#DejaVuSans-65" x="141.890625"/>
      <use xlink:href="#DejaVuSans-6c" x="203.414062"/>
      <use xlink:href="#DejaVuSans-20" x="231.197266"/>
      <use xlink:href="#DejaVuSans-49" x="262.984375"/>
      <use xlink:href="#DejaVuSans-6e" x="292.476562"/>
      <use xlink:href="#DejaVuSans-74" x="355.855469"/>
      <use xlink:href="#DejaVuSans-65" x="395.064453"/>
      <use xlink:href="#DejaVuSans-6e" x="456.587891"/>
      <use xlink:href="#DejaVuSans-73" x="519.966797"/>
      <use xlink:href="#DejaVuSans-69" x="572.066406"/>
      <use xlink:href="#DejaVuSans-74" x="599.849609"/>
      <use xlink:href="#DejaVuSans-79" x="639.058594"/>
     </g>
    </g>
   </g>
   <g id="matplotlib.axis_6">
    <g id="ytick_15">
     <g id="line2d_35">
      <g>
       <use xlink:href="#m43e5a2d692" x="57.26" y="606.04" style="stroke: #000000; stroke-width: 0.8"/>
      </g>
     </g>
     <g id="text_38">
      <!-- 0 -->
      <g transform="translate(43.8975 609.839219) scale(0.1 -0.1)">
       <use xlink:href="#DejaVuSans-30"/>
      </g>
     </g>
    </g>
    <g id="ytick_16">
     <g id="line2d_36">
      <g>
       <use xlink:href="#m43e5a2d692" x="57.26" y="578.557319" style="stroke: #000000; stroke-width: 0.8"/>
      </g>
     </g>
     <g id="text_39">
      <!-- 250 -->
      <g transform="translate(31.1725 582.356538) scale(0.1 -0.1)">
       <use xlink:href="#DejaVuSans-32"/>
       <use xlink:href="#DejaVuSans-35" x="63.623047"/>
       <use xlink:href="#DejaVuSans-30" x="127.246094"/>
      </g>
     </g>
    </g>
    <g id="ytick_17">
     <g id="line2d_37">
      <g>
       <use xlink:href="#m43e5a2d692" x="57.26" y="551.074639" style="stroke: #000000; stroke-width: 0.8"/>
      </g>
     </g>
     <g id="text_40">
      <!-- 500 -->
      <g transform="translate(31.1725 554.873858) scale(0.1 -0.1)">
       <use xlink:href="#DejaVuSans-35"/>
       <use xlink:href="#DejaVuSans-30" x="63.623047"/>
       <use xlink:href="#DejaVuSans-30" x="127.246094"/>
      </g>
     </g>
    </g>
    <g id="ytick_18">
     <g id="line2d_38">
      <g>
       <use xlink:href="#m43e5a2d692" x="57.26" y="523.591958" style="stroke: #000000; stroke-width: 0.8"/>
      </g>
     </g>
     <g id="text_41">
      <!-- 750 -->
      <g transform="translate(31.1725 527.391177) scale(0.1 -0.1)">
       <use xlink:href="#DejaVuSans-37"/>
       <use xlink:href="#DejaVuSans-35" x="63.623047"/>
       <use xlink:href="#DejaVuSans-30" x="127.246094"/>
      </g>
     </g>
    </g>
    <g id="ytick_19">
     <g id="line2d_39">
      <g>
       <use xlink:href="#m43e5a2d692" x="57.26" y="496.109278" style="stroke: #000000; stroke-width: 0.8"/>
      </g>
     </g>
     <g id="text_42">
      <!-- 1000 -->
      <g transform="translate(24.81 499.908496) scale(0.1 -0.1)">
       <use xlink:href="#DejaVuSans-31"/>
       <use xlink:href="#DejaVuSans-30" x="63.623047"/>
       <use xlink:href="#DejaVuSans-30" x="127.246094"/>
       <use xlink:href="#DejaVuSans-30" x="190.869141"/>
      </g>
     </g>
    </g>
    <g id="ytick_20">
     <g id="line2d_40">
      <g>
       <use xlink:href="#m43e5a2d692" x="57.26" y="468.626597" style="stroke: #000000; stroke-width: 0.8"/>
      </g>
     </g>
     <g id="text_43">
      <!-- 1250 -->
      <g transform="translate(24.81 472.425816) scale(0.1 -0.1)">
       <use xlink:href="#DejaVuSans-31"/>
       <use xlink:href="#DejaVuSans-32" x="63.623047"/>
       <use xlink:href="#DejaVuSans-35" x="127.246094"/>
       <use xlink:href="#DejaVuSans-30" x="190.869141"/>
      </g>
     </g>
    </g>
    <g id="ytick_21">
     <g id="line2d_41">
      <g>
       <use xlink:href="#m43e5a2d692" x="57.26" y="441.143916" style="stroke: #000000; stroke-width: 0.8"/>
      </g>
     </g>
     <g id="text_44">
      <!-- 1500 -->
      <g transform="translate(24.81 444.943135) scale(0.1 -0.1)">
       <use xlink:href="#DejaVuSans-31"/>
       <use xlink:href="#DejaVuSans-35" x="63.623047"/>
       <use xlink:href="#DejaVuSans-30" x="127.246094"/>
       <use xlink:href="#DejaVuSans-30" x="190.869141"/>
      </g>
     </g>
    </g>
    <g id="text_45">
     <!-- Pixel Frequency -->
     <g transform="translate(18.730313 556.57964) rotate(-90) scale(0.1 -0.1)">
      <use xlink:href="#DejaVuSans-50"/>
      <use xlink:href="#DejaVuSans-69" x="58.052734"/>
      <use xlink:href="#DejaVuSans-78" x="85.835938"/>
      <use xlink:href="#DejaVuSans-65" x="141.890625"/>
      <use xlink:href="#DejaVuSans-6c" x="203.414062"/>
      <use xlink:href="#DejaVuSans-20" x="231.197266"/>
      <use xlink:href="#DejaVuSans-46" x="262.984375"/>
      <use xlink:href="#DejaVuSans-72" x="313.253906"/>
      <use xlink:href="#DejaVuSans-65" x="352.117188"/>
      <use xlink:href="#DejaVuSans-71" x="413.640625"/>
      <use xlink:href="#DejaVuSans-75" x="477.117188"/>
      <use xlink:href="#DejaVuSans-65" x="540.496094"/>
      <use xlink:href="#DejaVuSans-6e" x="602.019531"/>
      <use xlink:href="#DejaVuSans-63" x="665.398438"/>
      <use xlink:href="#DejaVuSans-79" x="720.378906"/>
     </g>
    </g>
   </g>
   <g id="line2d_42">
    <path d="M 57.26 606.04 
L 101.866791 606.04 
L 103.550067 605.490346 
L 104.391704 603.951316 
L 105.233342 599.004434 
L 106.074979 590.209976 
L 106.916617 589.770253 
L 107.758254 582.844618 
L 108.599892 580.755934 
L 109.44153 580.975795 
L 110.283167 570.312515 
L 111.124805 567.894039 
L 111.966442 571.191961 
L 112.80808 565.255702 
L 113.649717 563.38688 
L 114.491355 555.361937 
L 115.332993 555.032145 
L 117.857905 536.563783 
L 118.699543 527.659395 
L 119.54118 528.648771 
L 120.382818 526.450157 
L 121.224456 532.606277 
L 122.066093 529.308356 
L 122.907731 530.847386 
L 123.749368 535.684338 
L 124.591006 541.620597 
L 125.432643 543.049696 
L 126.274281 542.17025 
L 127.115919 543.049696 
L 127.957556 543.489419 
L 128.799194 547.886648 
L 129.640831 546.787341 
L 130.482469 550.854777 
L 131.324106 550.524985 
L 132.165744 550.744847 
L 133.007382 539.09219 
L 133.849019 535.244615 
L 134.690657 533.595654 
L 135.532294 534.145308 
L 136.373932 531.946693 
L 137.215569 531.616901 
L 138.898845 537.003506 
L 139.740482 538.652467 
L 140.58212 538.542536 
L 141.423757 539.641844 
L 142.265395 536.01413 
L 143.107032 534.145308 
L 143.94867 532.606277 
L 144.790308 530.297732 
L 145.631945 528.758702 
L 146.473583 528.758702 
L 147.31522 533.925446 
L 148.156858 528.648771 
L 149.840133 534.694961 
L 150.681771 534.365169 
L 151.523408 535.024753 
L 152.365046 536.563783 
L 153.206683 539.641844 
L 154.048321 538.652467 
L 154.889958 542.609973 
L 155.731596 541.730527 
L 156.573234 543.379488 
L 157.414871 546.347618 
L 158.256509 547.556856 
L 159.098146 551.404431 
L 159.939784 553.603045 
L 160.781422 556.681106 
L 161.623059 554.922214 
L 162.464697 560.198889 
L 163.306334 559.099582 
L 164.147972 558.439997 
L 164.989609 565.475563 
L 165.831247 564.706048 
L 166.672885 568.773485 
L 167.514522 566.355009 
L 168.35616 570.9721 
L 169.197797 568.993347 
L 170.039435 569.103277 
L 171.72271 575.58919 
L 172.564348 577.458012 
L 173.405985 572.950853 
L 175.08926 577.567943 
L 175.930898 578.887112 
L 176.772535 579.326834 
L 177.614173 577.238151 
L 178.455811 579.436765 
L 179.297448 576.908359 
L 180.139086 581.305587 
L 180.980723 584.933301 
L 181.822361 583.394271 
L 182.663998 583.17441 
L 183.505636 581.74531 
L 184.347274 583.394271 
L 185.188911 585.812747 
L 186.030549 585.153163 
L 186.872186 587.7915 
L 187.713824 587.681569 
L 188.555461 588.451084 
L 189.397099 587.241846 
L 190.238737 589.33053 
L 191.080374 589.990115 
L 191.922012 591.639075 
L 192.763649 592.40859 
L 193.605287 592.078798 
L 194.446924 591.419214 
L 195.288562 591.089422 
L 196.1302 594.497274 
L 196.971837 591.858937 
L 197.813475 594.607205 
L 198.655112 595.37672 
L 199.49675 595.706512 
L 200.338387 598.674642 
L 201.180025 596.256166 
L 202.021663 596.256166 
L 202.8633 597.245542 
L 203.704938 598.015057 
L 204.546575 596.146235 
L 205.388213 599.004434 
L 206.22985 597.355473 
L 207.071488 598.894503 
L 207.913126 598.894503 
L 208.754763 597.465404 
L 209.596401 598.564711 
L 210.438038 599.114364 
L 211.279676 598.784572 
L 212.121313 599.88388 
L 212.962951 599.88388 
L 213.804589 600.763325 
L 214.646226 600.763325 
L 215.487864 601.53284 
L 217.171139 600.983187 
L 218.012776 601.203048 
L 218.854414 602.082494 
L 219.696052 601.312979 
L 220.537689 601.972563 
L 221.379327 602.082494 
L 222.220964 601.203048 
L 223.062602 600.983187 
L 223.90424 602.192425 
L 225.587515 602.302355 
L 226.429152 602.96194 
L 227.27079 602.412286 
L 228.112427 603.511593 
L 228.954065 603.511593 
L 229.795703 603.181801 
L 231.478978 604.061247 
L 232.320615 603.841386 
L 233.162253 604.061247 
L 234.00389 603.951316 
L 234.845528 604.171178 
L 236.528803 603.951316 
L 237.370441 604.281108 
L 238.212078 604.281108 
L 239.895353 603.951316 
L 240.736991 603.951316 
L 241.578629 604.391039 
L 243.261904 604.50097 
L 244.103541 605.160554 
L 244.945179 604.50097 
L 245.786816 604.940693 
L 247.470092 605.490346 
L 249.153367 605.160554 
L 249.995004 604.830762 
L 250.836642 604.830762 
L 251.678279 605.160554 
L 252.519917 605.820139 
L 253.361555 605.380416 
L 255.04483 605.270485 
L 255.886467 605.490346 
L 256.728105 604.830762 
L 257.569742 605.600277 
L 258.41138 605.600277 
L 259.253018 605.050623 
L 260.094655 605.490346 
L 260.936293 605.600277 
L 261.77793 605.270485 
L 262.619568 605.490346 
L 265.144481 605.490346 
L 265.986118 605.820139 
L 266.827756 605.930069 
L 268.511031 605.380416 
L 269.352668 605.600277 
L 271.035944 605.490346 
L 271.877581 605.820139 
L 271.877581 605.820139 
" clip-path="url(#p6caf511f84)" style="fill: none; stroke: #0000ff; stroke-width: 1.5; stroke-linecap: square"/>
   </g>
   <g id="patch_13">
    <path d="M 57.26 606.04 
L 57.26 429.161468 
" style="fill: none; stroke: #000000; stroke-width: 0.8; stroke-linejoin: miter; stroke-linecap: square"/>
   </g>
   <g id="patch_14">
    <path d="M 272.719219 606.04 
L 272.719219 429.161468 
" style="fill: none; stroke: #000000; stroke-width: 0.8; stroke-linejoin: miter; stroke-linecap: square"/>
   </g>
   <g id="patch_15">
    <path d="M 57.26 606.04 
L 272.719219 606.04 
" style="fill: none; stroke: #000000; stroke-width: 0.8; stroke-linejoin: miter; stroke-linecap: square"/>
   </g>
   <g id="patch_16">
    <path d="M 57.26 429.161468 
L 272.719219 429.161468 
" style="fill: none; stroke: #000000; stroke-width: 0.8; stroke-linejoin: miter; stroke-linecap: square"/>
   </g>
   <g id="text_46">
    <!-- Blue Channel  -->
    <g transform="translate(189.270469 443.161468) scale(0.12 -0.12)">
     <defs>
      <path id="DejaVuSans-42" d="M 1259 2228 
L 1259 519 
L 2272 519 
Q 2781 519 3026 730 
Q 3272 941 3272 1375 
Q 3272 1813 3026 2020 
Q 2781 2228 2272 2228 
L 1259 2228 
z
M 1259 4147 
L 1259 2741 
L 2194 2741 
Q 2656 2741 2882 2914 
Q 3109 3088 3109 3444 
Q 3109 3797 2882 3972 
Q 2656 4147 2194 4147 
L 1259 4147 
z
M 628 4666 
L 2241 4666 
Q 2963 4666 3353 4366 
Q 3744 4066 3744 3513 
Q 3744 3084 3544 2831 
Q 3344 2578 2956 2516 
Q 3422 2416 3680 2098 
Q 3938 1781 3938 1306 
Q 3938 681 3513 340 
Q 3088 0 2303 0 
L 628 0 
L 628 4666 
z
" transform="scale(0.015625)"/>
     </defs>
     <use xlink:href="#DejaVuSans-42"/>
     <use xlink:href="#DejaVuSans-6c" x="68.603516"/>
     <use xlink:href="#DejaVuSans-75" x="96.386719"/>
     <use xlink:href="#DejaVuSans-65" x="159.765625"/>
     <use xlink:href="#DejaVuSans-20" x="221.289062"/>
     <use xlink:href="#DejaVuSans-43" x="253.076172"/>
     <use xlink:href="#DejaVuSans-68" x="322.900391"/>
     <use xlink:href="#DejaVuSans-61" x="386.279297"/>
     <use xlink:href="#DejaVuSans-6e" x="447.558594"/>
     <use xlink:href="#DejaVuSans-6e" x="510.9375"/>
     <use xlink:href="#DejaVuSans-65" x="574.316406"/>
     <use xlink:href="#DejaVuSans-6c" x="635.839844"/>
     <use xlink:href="#DejaVuSans-20" x="663.623047"/>
    </g>
   </g>
  </g>
 </g>
 <defs>
  <clipPath id="p1d637a7565">
   <rect x="57.26" y="13.748134" width="215.459219" height="176.878532"/>
  </clipPath>
  <clipPath id="p946945de52">
   <rect x="57.26" y="221.454801" width="215.459219" height="176.878532"/>
  </clipPath>
  <clipPath id="p6caf511f84">
   <rect x="57.26" y="429.161468" width="215.459219" height="176.878532"/>
  </clipPath>
 </defs>
</svg>
