<?xml version="1.0" encoding="utf-8" standalone="no"?>
<!DOCTYPE svg PUBLIC "-//W3C//DTD SVG 1.1//EN"
  "http://www.w3.org/Graphics/SVG/1.1/DTD/svg11.dtd">
<svg xmlns:xlink="http://www.w3.org/1999/xlink" width="288pt" height="648pt" viewBox="0 0 288 648" xmlns="http://www.w3.org/2000/svg" version="1.1">
 <metadata>
  <rdf:RDF xmlns:dc="http://purl.org/dc/elements/1.1/" xmlns:cc="http://creativecommons.org/ns#" xmlns:rdf="http://www.w3.org/1999/02/22-rdf-syntax-ns#">
   <cc:Work>
    <dc:type rdf:resource="http://purl.org/dc/dcmitype/StillImage"/>
    <dc:date>2023-10-25T16:44:51.462376</dc:date>
    <dc:format>image/svg+xml</dc:format>
    <dc:creator>
     <cc:Agent>
      <dc:title>Matplotlib v3.8.0, https://matplotlib.org/</dc:title>
     </cc:Agent>
    </dc:creator>
   </cc:Work>
  </rdf:RDF>
 </metadata>
 <defs>
  <style type="text/css">*{stroke-linejoin: round; stroke-linecap: butt}</style>
 </defs>
 <g id="figure_1">
  <g id="patch_1">
   <path d="M 0 648 
L 288 648 
L 288 0 
L 0 0 
z
" style="fill: #ffffff"/>
  </g>
  <g id="axes_1">
   <g id="patch_2">
    <path d="M 57.17 190.626667 
L 267.705 190.626667 
L 267.705 26.88 
L 57.17 26.88 
z
" style="fill: #ffffff"/>
   </g>
   <g id="PolyCollection_1">
    <path d="M 15.063 183.183636 
L 15.063 183.183636 
L 17.16835 183.183636 
L 19.2737 183.183636 
L 21.37905 183.183636 
L 23.4844 183.183636 
L 25.58975 183.183636 
L 27.6951 183.183636 
L 29.80045 183.183636 
L 31.9058 183.183636 
L 34.01115 183.183636 
L 36.1165 183.183636 
L 38.22185 183.183636 
L 40.3272 183.183636 
L 42.43255 183.183636 
L 44.5379 183.183636 
L 46.64325 183.183636 
L 48.7486 183.183636 
L 50.85395 183.183636 
L 52.9593 183.183636 
L 55.06465 183.183636 
L 57.17 183.183636 
L 59.27535 183.183636 
L 61.3807 183.183636 
L 63.48605 183.183636 
L 65.5914 183.183636 
L 67.69675 183.183636 
L 69.8021 183.183636 
L 71.90745 183.183636 
L 74.0128 183.183636 
L 76.11815 183.183636 
L 78.2235 183.183636 
L 80.32885 183.183636 
L 82.4342 183.183636 
L 84.53955 183.183636 
L 86.6449 183.183636 
L 88.75025 183.183636 
L 90.8556 183.183636 
L 92.96095 183.183636 
L 95.0663 183.183636 
L 97.17165 183.183636 
L 99.277 183.152714 
L 101.38235 183.090869 
L 103.4877 182.998102 
L 105.59305 182.936257 
L 107.6984 182.7198 
L 109.80375 182.441498 
L 111.9091 182.225041 
L 114.01445 181.637515 
L 116.1198 180.988143 
L 118.22515 179.318332 
L 120.3305 177.246529 
L 122.43585 171.371266 
L 124.5412 161.816233 
L 126.64655 147.251766 
L 128.7519 125.575138 
L 130.85725 102.166855 
L 132.9626 75.357103 
L 135.06795 55.319364 
L 137.1733 37.322507 
L 139.27865 34.32303 
L 141.384 42.548398 
L 143.48935 58.071461 
L 145.5947 81.108676 
L 147.70005 98.919999 
L 149.8054 122.204593 
L 151.91075 138.779019 
L 154.0161 151.24076 
L 156.12145 160.208267 
L 158.2268 166.392754 
L 160.33215 168.866549 
L 162.4375 172.082482 
L 164.54285 173.041077 
L 166.6482 174.061518 
L 168.75355 175.051036 
L 170.8589 176.102399 
L 172.96425 176.442545 
L 175.0696 178.143279 
L 177.17495 177.308374 
L 179.2803 178.79265 
L 181.38565 178.978185 
L 183.491 178.638038 
L 185.59635 179.782168 
L 187.7017 179.101875 
L 189.80705 179.658479 
L 191.9124 180.338772 
L 194.01775 180.678919 
L 196.1231 180.091393 
L 198.22845 181.173678 
L 200.3338 180.617074 
L 202.43915 181.235523 
L 204.5445 180.957221 
L 206.64985 181.080911 
L 208.7552 181.45198 
L 210.86055 181.049988 
L 212.9659 181.45198 
L 215.07125 181.792127 
L 217.1766 181.606592 
L 219.28195 181.668437 
L 221.3873 181.544747 
L 223.49265 181.421058 
L 225.598 182.070429 
L 227.70335 181.946739 
L 229.8087 181.884894 
L 231.91405 181.915816 
L 234.0194 182.225041 
L 236.12475 182.070429 
L 238.2301 182.132274 
L 240.33545 182.255963 
L 242.4408 182.503343 
L 244.54615 181.946739 
L 246.6515 182.348731 
L 248.75685 182.47242 
L 250.8622 182.255963 
L 252.96755 182.47242 
L 255.0729 182.565188 
L 257.17825 182.348731 
L 259.2836 182.627033 
L 261.38895 182.627033 
L 263.4943 182.503343 
L 265.59965 182.59611 
L 267.705 182.379653 
L 269.81035 182.781645 
L 271.9157 182.7198 
L 274.02105 182.59611 
L 276.1264 182.688877 
L 278.23175 182.7198 
L 280.3371 182.565188 
L 282.44245 182.627033 
L 284.5478 182.750722 
L 286.65315 182.688877 
L 288.7585 182.781645 
L 290.86385 182.781645 
L 292.9692 182.905334 
L 295.07455 182.874412 
L 297.1799 182.84349 
L 299.28525 182.812567 
L 301.3906 182.967179 
L 303.49595 182.998102 
L 305.6013 182.812567 
L 307.70665 182.874412 
L 309.812 182.998102 
L 311.91735 182.967179 
L 314.0227 182.874412 
L 316.12805 182.84349 
L 318.2334 183.059947 
L 320.33875 183.059947 
L 322.4441 182.998102 
L 324.54945 182.936257 
L 326.6548 183.029024 
L 328.76015 183.121791 
L 330.8655 183.059947 
L 332.97085 183.090869 
L 335.0762 182.905334 
L 337.18155 183.059947 
L 339.2869 183.029024 
L 341.39225 183.090869 
L 343.4976 183.029024 
L 345.60295 183.090869 
L 347.7083 183.059947 
L 349.81365 183.121791 
L 351.919 182.998102 
L 354.02435 183.152714 
L 356.1297 182.998102 
L 358.23505 183.121791 
L 360.3404 183.090869 
L 362.44575 183.090869 
L 364.5511 182.998102 
L 366.65645 183.152714 
L 368.7618 182.998102 
L 370.86715 183.059947 
L 372.9725 183.121791 
L 375.07785 183.121791 
L 377.1832 183.059947 
L 379.28855 183.059947 
L 381.3939 183.121791 
L 383.49925 183.121791 
L 385.6046 183.152714 
L 387.70995 183.183636 
L 389.8153 183.152714 
L 391.92065 183.152714 
L 394.026 183.059947 
L 396.13135 183.183636 
L 398.2367 183.090869 
L 400.34205 183.090869 
L 402.4474 183.121791 
L 404.55275 183.183636 
L 406.6581 183.152714 
L 408.76345 183.029024 
L 410.8688 183.152714 
L 412.97415 183.183636 
L 415.0795 183.121791 
L 417.18485 183.152714 
L 419.2902 183.152714 
L 421.39555 183.152714 
L 423.5009 183.183636 
L 425.60625 183.152714 
L 427.7116 183.090869 
L 429.81695 183.121791 
L 431.9223 183.090869 
L 434.02765 183.121791 
L 436.133 183.121791 
L 438.23835 183.183636 
L 440.3437 183.183636 
L 442.44905 183.121791 
L 444.5544 183.183636 
L 446.65975 183.090869 
L 448.7651 183.183636 
L 450.87045 183.121791 
L 452.9758 183.183636 
L 455.08115 183.183636 
L 457.1865 183.059947 
L 459.29185 183.183636 
L 461.3972 183.059947 
L 463.50255 183.121791 
L 465.6079 183.152714 
L 467.71325 183.121791 
L 469.8186 183.183636 
L 471.92395 183.152714 
L 474.0293 183.152714 
L 476.13465 183.183636 
L 478.24 183.183636 
L 480.34535 183.183636 
L 482.4507 183.183636 
L 484.55605 183.183636 
L 486.6614 183.183636 
L 488.76675 183.152714 
L 490.8721 183.183636 
L 492.97745 183.121791 
L 495.0828 183.183636 
L 497.18815 183.183636 
L 499.2935 183.183636 
L 501.39885 183.183636 
L 503.5042 183.152714 
L 505.60955 183.183636 
L 507.7149 183.152714 
L 509.82025 183.183636 
L 511.9256 183.183636 
L 514.03095 183.183636 
L 516.1363 183.183636 
L 518.24165 183.152714 
L 520.347 183.152714 
L 522.45235 183.183636 
L 524.5577 183.152714 
L 526.66305 183.183636 
L 528.7684 183.183636 
L 530.87375 183.183636 
L 532.9791 183.183636 
L 535.08445 183.183636 
L 537.1898 183.183636 
L 539.29515 183.183636 
L 541.4005 183.183636 
L 543.50585 183.183636 
L 545.6112 183.183636 
L 547.71655 183.183636 
L 549.8219 183.183636 
L 551.92725 183.183636 
L 551.92725 183.183636 
L 551.92725 183.183636 
L 549.8219 183.183636 
L 547.71655 183.183636 
L 545.6112 183.183636 
L 543.50585 183.183636 
L 541.4005 183.183636 
L 539.29515 183.183636 
L 537.1898 183.183636 
L 535.08445 183.183636 
L 532.9791 183.183636 
L 530.87375 183.183636 
L 528.7684 183.183636 
L 526.66305 183.183636 
L 524.5577 183.183636 
L 522.45235 183.183636 
L 520.347 183.183636 
L 518.24165 183.183636 
L 516.1363 183.183636 
L 514.03095 183.183636 
L 511.9256 183.183636 
L 509.82025 183.183636 
L 507.7149 183.183636 
L 505.60955 183.183636 
L 503.5042 183.183636 
L 501.39885 183.183636 
L 499.2935 183.183636 
L 497.18815 183.183636 
L 495.0828 183.183636 
L 492.97745 183.183636 
L 490.8721 183.183636 
L 488.76675 183.183636 
L 486.6614 183.183636 
L 484.55605 183.183636 
L 482.4507 183.183636 
L 480.34535 183.183636 
L 478.24 183.183636 
L 476.13465 183.183636 
L 474.0293 183.183636 
L 471.92395 183.183636 
L 469.8186 183.183636 
L 467.71325 183.183636 
L 465.6079 183.183636 
L 463.50255 183.183636 
L 461.3972 183.183636 
L 459.29185 183.183636 
L 457.1865 183.183636 
L 455.08115 183.183636 
L 452.9758 183.183636 
L 450.87045 183.183636 
L 448.7651 183.183636 
L 446.65975 183.183636 
L 444.5544 183.183636 
L 442.44905 183.183636 
L 440.3437 183.183636 
L 438.23835 183.183636 
L 436.133 183.183636 
L 434.02765 183.183636 
L 431.9223 183.183636 
L 429.81695 183.183636 
L 427.7116 183.183636 
L 425.60625 183.183636 
L 423.5009 183.183636 
L 421.39555 183.183636 
L 419.2902 183.183636 
L 417.18485 183.183636 
L 415.0795 183.183636 
L 412.97415 183.183636 
L 410.8688 183.183636 
L 408.76345 183.183636 
L 406.6581 183.183636 
L 404.55275 183.183636 
L 402.4474 183.183636 
L 400.34205 183.183636 
L 398.2367 183.183636 
L 396.13135 183.183636 
L 394.026 183.183636 
L 391.92065 183.183636 
L 389.8153 183.183636 
L 387.70995 183.183636 
L 385.6046 183.183636 
L 383.49925 183.183636 
L 381.3939 183.183636 
L 379.28855 183.183636 
L 377.1832 183.183636 
L 375.07785 183.183636 
L 372.9725 183.183636 
L 370.86715 183.183636 
L 368.7618 183.183636 
L 366.65645 183.183636 
L 364.5511 183.183636 
L 362.44575 183.183636 
L 360.3404 183.183636 
L 358.23505 183.183636 
L 356.1297 183.183636 
L 354.02435 183.183636 
L 351.919 183.183636 
L 349.81365 183.183636 
L 347.7083 183.183636 
L 345.60295 183.183636 
L 343.4976 183.183636 
L 341.39225 183.183636 
L 339.2869 183.183636 
L 337.18155 183.183636 
L 335.0762 183.183636 
L 332.97085 183.183636 
L 330.8655 183.183636 
L 328.76015 183.183636 
L 326.6548 183.183636 
L 324.54945 183.183636 
L 322.4441 183.183636 
L 320.33875 183.183636 
L 318.2334 183.183636 
L 316.12805 183.183636 
L 314.0227 183.183636 
L 311.91735 183.183636 
L 309.812 183.183636 
L 307.70665 183.183636 
L 305.6013 183.183636 
L 303.49595 183.183636 
L 301.3906 183.183636 
L 299.28525 183.183636 
L 297.1799 183.183636 
L 295.07455 183.183636 
L 292.9692 183.183636 
L 290.86385 183.183636 
L 288.7585 183.183636 
L 286.65315 183.183636 
L 284.5478 183.183636 
L 282.44245 183.183636 
L 280.3371 183.183636 
L 278.23175 183.183636 
L 276.1264 183.183636 
L 274.02105 183.183636 
L 271.9157 183.183636 
L 269.81035 183.183636 
L 267.705 183.183636 
L 265.59965 183.183636 
L 263.4943 183.183636 
L 261.38895 183.183636 
L 259.2836 183.183636 
L 257.17825 183.183636 
L 255.0729 183.183636 
L 252.96755 183.183636 
L 250.8622 183.183636 
L 248.75685 183.183636 
L 246.6515 183.183636 
L 244.54615 183.183636 
L 242.4408 183.183636 
L 240.33545 183.183636 
L 238.2301 183.183636 
L 236.12475 183.183636 
L 234.0194 183.183636 
L 231.91405 183.183636 
L 229.8087 183.183636 
L 227.70335 183.183636 
L 225.598 183.183636 
L 223.49265 183.183636 
L 221.3873 183.183636 
L 219.28195 183.183636 
L 217.1766 183.183636 
L 215.07125 183.183636 
L 212.9659 183.183636 
L 210.86055 183.183636 
L 208.7552 183.183636 
L 206.64985 183.183636 
L 204.5445 183.183636 
L 202.43915 183.183636 
L 200.3338 183.183636 
L 198.22845 183.183636 
L 196.1231 183.183636 
L 194.01775 183.183636 
L 191.9124 183.183636 
L 189.80705 183.183636 
L 187.7017 183.183636 
L 185.59635 183.183636 
L 183.491 183.183636 
L 181.38565 183.183636 
L 179.2803 183.183636 
L 177.17495 183.183636 
L 175.0696 183.183636 
L 172.96425 183.183636 
L 170.8589 183.183636 
L 168.75355 183.183636 
L 166.6482 183.183636 
L 164.54285 183.183636 
L 162.4375 183.183636 
L 160.33215 183.183636 
L 158.2268 183.183636 
L 156.12145 183.183636 
L 154.0161 183.183636 
L 151.91075 183.183636 
L 149.8054 183.183636 
L 147.70005 183.183636 
L 145.5947 183.183636 
L 143.48935 183.183636 
L 141.384 183.183636 
L 139.27865 183.183636 
L 137.1733 183.183636 
L 135.06795 183.183636 
L 132.9626 183.183636 
L 130.85725 183.183636 
L 128.7519 183.183636 
L 126.64655 183.183636 
L 124.5412 183.183636 
L 122.43585 183.183636 
L 120.3305 183.183636 
L 118.22515 183.183636 
L 116.1198 183.183636 
L 114.01445 183.183636 
L 111.9091 183.183636 
L 109.80375 183.183636 
L 107.6984 183.183636 
L 105.59305 183.183636 
L 103.4877 183.183636 
L 101.38235 183.183636 
L 99.277 183.183636 
L 97.17165 183.183636 
L 95.0663 183.183636 
L 92.96095 183.183636 
L 90.8556 183.183636 
L 88.75025 183.183636 
L 86.6449 183.183636 
L 84.53955 183.183636 
L 82.4342 183.183636 
L 80.32885 183.183636 
L 78.2235 183.183636 
L 76.11815 183.183636 
L 74.0128 183.183636 
L 71.90745 183.183636 
L 69.8021 183.183636 
L 67.69675 183.183636 
L 65.5914 183.183636 
L 63.48605 183.183636 
L 61.3807 183.183636 
L 59.27535 183.183636 
L 57.17 183.183636 
L 55.06465 183.183636 
L 52.9593 183.183636 
L 50.85395 183.183636 
L 48.7486 183.183636 
L 46.64325 183.183636 
L 44.5379 183.183636 
L 42.43255 183.183636 
L 40.3272 183.183636 
L 38.22185 183.183636 
L 36.1165 183.183636 
L 34.01115 183.183636 
L 31.9058 183.183636 
L 29.80045 183.183636 
L 27.6951 183.183636 
L 25.58975 183.183636 
L 23.4844 183.183636 
L 21.37905 183.183636 
L 19.2737 183.183636 
L 17.16835 183.183636 
L 15.063 183.183636 
z
" clip-path="url(#p30bd8152d1)" style="fill: #ff0000; fill-opacity: 0.4; stroke: #ff0000; stroke-opacity: 0.4"/>
   </g>
   <g id="matplotlib.axis_1">
    <g id="xtick_1">
     <g id="line2d_1">
      <defs>
       <path id="m0f4caa0aae" d="M 0 0 
L 0 3.5 
" style="stroke: #000000; stroke-width: 0.8"/>
      </defs>
      <g>
       <use xlink:href="#m0f4caa0aae" x="57.17" y="190.626667" style="stroke: #000000; stroke-width: 0.8"/>
      </g>
     </g>
     <g id="text_1">
      <!-- 20 -->
      <g transform="translate(50.8075 205.225104) scale(0.1 -0.1)">
       <defs>
        <path id="DejaVuSans-32" d="M 1228 531 
L 3431 531 
L 3431 0 
L 469 0 
L 469 531 
Q 828 903 1448 1529 
Q 2069 2156 2228 2338 
Q 2531 2678 2651 2914 
Q 2772 3150 2772 3378 
Q 2772 3750 2511 3984 
Q 2250 4219 1831 4219 
Q 1534 4219 1204 4116 
Q 875 4013 500 3803 
L 500 4441 
Q 881 4594 1212 4672 
Q 1544 4750 1819 4750 
Q 2544 4750 2975 4387 
Q 3406 4025 3406 3419 
Q 3406 3131 3298 2873 
Q 3191 2616 2906 2266 
Q 2828 2175 2409 1742 
Q 1991 1309 1228 531 
z
" transform="scale(0.015625)"/>
        <path id="DejaVuSans-30" d="M 2034 4250 
Q 1547 4250 1301 3770 
Q 1056 3291 1056 2328 
Q 1056 1369 1301 889 
Q 1547 409 2034 409 
Q 2525 409 2770 889 
Q 3016 1369 3016 2328 
Q 3016 3291 2770 3770 
Q 2525 4250 2034 4250 
z
M 2034 4750 
Q 2819 4750 3233 4129 
Q 3647 3509 3647 2328 
Q 3647 1150 3233 529 
Q 2819 -91 2034 -91 
Q 1250 -91 836 529 
Q 422 1150 422 2328 
Q 422 3509 836 4129 
Q 1250 4750 2034 4750 
z
" transform="scale(0.015625)"/>
       </defs>
       <use xlink:href="#DejaVuSans-32"/>
       <use xlink:href="#DejaVuSans-30" x="63.623047"/>
      </g>
     </g>
    </g>
    <g id="xtick_2">
     <g id="line2d_2">
      <g>
       <use xlink:href="#m0f4caa0aae" x="99.277" y="190.626667" style="stroke: #000000; stroke-width: 0.8"/>
      </g>
     </g>
     <g id="text_2">
      <!-- 40 -->
      <g transform="translate(92.9145 205.225104) scale(0.1 -0.1)">
       <defs>
        <path id="DejaVuSans-34" d="M 2419 4116 
L 825 1625 
L 2419 1625 
L 2419 4116 
z
M 2253 4666 
L 3047 4666 
L 3047 1625 
L 3713 1625 
L 3713 1100 
L 3047 1100 
L 3047 0 
L 2419 0 
L 2419 1100 
L 313 1100 
L 313 1709 
L 2253 4666 
z
" transform="scale(0.015625)"/>
       </defs>
       <use xlink:href="#DejaVuSans-34"/>
       <use xlink:href="#DejaVuSans-30" x="63.623047"/>
      </g>
     </g>
    </g>
    <g id="xtick_3">
     <g id="line2d_3">
      <g>
       <use xlink:href="#m0f4caa0aae" x="141.384" y="190.626667" style="stroke: #000000; stroke-width: 0.8"/>
      </g>
     </g>
     <g id="text_3">
      <!-- 60 -->
      <g transform="translate(135.0215 205.225104) scale(0.1 -0.1)">
       <defs>
        <path id="DejaVuSans-36" d="M 2113 2584 
Q 1688 2584 1439 2293 
Q 1191 2003 1191 1497 
Q 1191 994 1439 701 
Q 1688 409 2113 409 
Q 2538 409 2786 701 
Q 3034 994 3034 1497 
Q 3034 2003 2786 2293 
Q 2538 2584 2113 2584 
z
M 3366 4563 
L 3366 3988 
Q 3128 4100 2886 4159 
Q 2644 4219 2406 4219 
Q 1781 4219 1451 3797 
Q 1122 3375 1075 2522 
Q 1259 2794 1537 2939 
Q 1816 3084 2150 3084 
Q 2853 3084 3261 2657 
Q 3669 2231 3669 1497 
Q 3669 778 3244 343 
Q 2819 -91 2113 -91 
Q 1303 -91 875 529 
Q 447 1150 447 2328 
Q 447 3434 972 4092 
Q 1497 4750 2381 4750 
Q 2619 4750 2861 4703 
Q 3103 4656 3366 4563 
z
" transform="scale(0.015625)"/>
       </defs>
       <use xlink:href="#DejaVuSans-36"/>
       <use xlink:href="#DejaVuSans-30" x="63.623047"/>
      </g>
     </g>
    </g>
    <g id="xtick_4">
     <g id="line2d_4">
      <g>
       <use xlink:href="#m0f4caa0aae" x="183.491" y="190.626667" style="stroke: #000000; stroke-width: 0.8"/>
      </g>
     </g>
     <g id="text_4">
      <!-- 80 -->
      <g transform="translate(177.1285 205.225104) scale(0.1 -0.1)">
       <defs>
        <path id="DejaVuSans-38" d="M 2034 2216 
Q 1584 2216 1326 1975 
Q 1069 1734 1069 1313 
Q 1069 891 1326 650 
Q 1584 409 2034 409 
Q 2484 409 2743 651 
Q 3003 894 3003 1313 
Q 3003 1734 2745 1975 
Q 2488 2216 2034 2216 
z
M 1403 2484 
Q 997 2584 770 2862 
Q 544 3141 544 3541 
Q 544 4100 942 4425 
Q 1341 4750 2034 4750 
Q 2731 4750 3128 4425 
Q 3525 4100 3525 3541 
Q 3525 3141 3298 2862 
Q 3072 2584 2669 2484 
Q 3125 2378 3379 2068 
Q 3634 1759 3634 1313 
Q 3634 634 3220 271 
Q 2806 -91 2034 -91 
Q 1263 -91 848 271 
Q 434 634 434 1313 
Q 434 1759 690 2068 
Q 947 2378 1403 2484 
z
M 1172 3481 
Q 1172 3119 1398 2916 
Q 1625 2713 2034 2713 
Q 2441 2713 2670 2916 
Q 2900 3119 2900 3481 
Q 2900 3844 2670 4047 
Q 2441 4250 2034 4250 
Q 1625 4250 1398 4047 
Q 1172 3844 1172 3481 
z
" transform="scale(0.015625)"/>
       </defs>
       <use xlink:href="#DejaVuSans-38"/>
       <use xlink:href="#DejaVuSans-30" x="63.623047"/>
      </g>
     </g>
    </g>
    <g id="xtick_5">
     <g id="line2d_5">
      <g>
       <use xlink:href="#m0f4caa0aae" x="225.598" y="190.626667" style="stroke: #000000; stroke-width: 0.8"/>
      </g>
     </g>
     <g id="text_5">
      <!-- 100 -->
      <g transform="translate(216.05425 205.225104) scale(0.1 -0.1)">
       <defs>
        <path id="DejaVuSans-31" d="M 794 531 
L 1825 531 
L 1825 4091 
L 703 3866 
L 703 4441 
L 1819 4666 
L 2450 4666 
L 2450 531 
L 3481 531 
L 3481 0 
L 794 0 
L 794 531 
z
" transform="scale(0.015625)"/>
       </defs>
       <use xlink:href="#DejaVuSans-31"/>
       <use xlink:href="#DejaVuSans-30" x="63.623047"/>
       <use xlink:href="#DejaVuSans-30" x="127.246094"/>
      </g>
     </g>
    </g>
    <g id="xtick_6">
     <g id="line2d_6">
      <g>
       <use xlink:href="#m0f4caa0aae" x="267.705" y="190.626667" style="stroke: #000000; stroke-width: 0.8"/>
      </g>
     </g>
     <g id="text_6">
      <!-- 120 -->
      <g transform="translate(258.16125 205.225104) scale(0.1 -0.1)">
       <use xlink:href="#DejaVuSans-31"/>
       <use xlink:href="#DejaVuSans-32" x="63.623047"/>
       <use xlink:href="#DejaVuSans-30" x="127.246094"/>
      </g>
     </g>
    </g>
   </g>
   <g id="matplotlib.axis_2">
    <g id="ytick_1">
     <g id="line2d_7">
      <defs>
       <path id="m0787085b2a" d="M 0 0 
L -3.5 0 
" style="stroke: #000000; stroke-width: 0.8"/>
      </defs>
      <g>
       <use xlink:href="#m0787085b2a" x="57.17" y="183.183636" style="stroke: #000000; stroke-width: 0.8"/>
      </g>
     </g>
     <g id="text_7">
      <!-- 0 -->
      <g transform="translate(43.8075 186.982855) scale(0.1 -0.1)">
       <use xlink:href="#DejaVuSans-30"/>
      </g>
     </g>
    </g>
    <g id="ytick_2">
     <g id="line2d_8">
      <g>
       <use xlink:href="#m0787085b2a" x="57.17" y="152.261201" style="stroke: #000000; stroke-width: 0.8"/>
      </g>
     </g>
     <g id="text_8">
      <!-- 1000 -->
      <g transform="translate(24.72 156.060419) scale(0.1 -0.1)">
       <use xlink:href="#DejaVuSans-31"/>
       <use xlink:href="#DejaVuSans-30" x="63.623047"/>
       <use xlink:href="#DejaVuSans-30" x="127.246094"/>
       <use xlink:href="#DejaVuSans-30" x="190.869141"/>
      </g>
     </g>
    </g>
    <g id="ytick_3">
     <g id="line2d_9">
      <g>
       <use xlink:href="#m0787085b2a" x="57.17" y="121.338765" style="stroke: #000000; stroke-width: 0.8"/>
      </g>
     </g>
     <g id="text_9">
      <!-- 2000 -->
      <g transform="translate(24.72 125.137983) scale(0.1 -0.1)">
       <use xlink:href="#DejaVuSans-32"/>
       <use xlink:href="#DejaVuSans-30" x="63.623047"/>
       <use xlink:href="#DejaVuSans-30" x="127.246094"/>
       <use xlink:href="#DejaVuSans-30" x="190.869141"/>
      </g>
     </g>
    </g>
    <g id="ytick_4">
     <g id="line2d_10">
      <g>
       <use xlink:href="#m0787085b2a" x="57.17" y="90.416329" style="stroke: #000000; stroke-width: 0.8"/>
      </g>
     </g>
     <g id="text_10">
      <!-- 3000 -->
      <g transform="translate(24.72 94.215548) scale(0.1 -0.1)">
       <defs>
        <path id="DejaVuSans-33" d="M 2597 2516 
Q 3050 2419 3304 2112 
Q 3559 1806 3559 1356 
Q 3559 666 3084 287 
Q 2609 -91 1734 -91 
Q 1441 -91 1130 -33 
Q 819 25 488 141 
L 488 750 
Q 750 597 1062 519 
Q 1375 441 1716 441 
Q 2309 441 2620 675 
Q 2931 909 2931 1356 
Q 2931 1769 2642 2001 
Q 2353 2234 1838 2234 
L 1294 2234 
L 1294 2753 
L 1863 2753 
Q 2328 2753 2575 2939 
Q 2822 3125 2822 3475 
Q 2822 3834 2567 4026 
Q 2313 4219 1838 4219 
Q 1578 4219 1281 4162 
Q 984 4106 628 3988 
L 628 4550 
Q 988 4650 1302 4700 
Q 1616 4750 1894 4750 
Q 2613 4750 3031 4423 
Q 3450 4097 3450 3541 
Q 3450 3153 3228 2886 
Q 3006 2619 2597 2516 
z
" transform="scale(0.015625)"/>
       </defs>
       <use xlink:href="#DejaVuSans-33"/>
       <use xlink:href="#DejaVuSans-30" x="63.623047"/>
       <use xlink:href="#DejaVuSans-30" x="127.246094"/>
       <use xlink:href="#DejaVuSans-30" x="190.869141"/>
      </g>
     </g>
    </g>
    <g id="ytick_5">
     <g id="line2d_11">
      <g>
       <use xlink:href="#m0787085b2a" x="57.17" y="59.493893" style="stroke: #000000; stroke-width: 0.8"/>
      </g>
     </g>
     <g id="text_11">
      <!-- 4000 -->
      <g transform="translate(24.72 63.293112) scale(0.1 -0.1)">
       <use xlink:href="#DejaVuSans-34"/>
       <use xlink:href="#DejaVuSans-30" x="63.623047"/>
       <use xlink:href="#DejaVuSans-30" x="127.246094"/>
       <use xlink:href="#DejaVuSans-30" x="190.869141"/>
      </g>
     </g>
    </g>
    <g id="ytick_6">
     <g id="line2d_12">
      <g>
       <use xlink:href="#m0787085b2a" x="57.17" y="28.571457" style="stroke: #000000; stroke-width: 0.8"/>
      </g>
     </g>
     <g id="text_12">
      <!-- 5000 -->
      <g transform="translate(24.72 32.370676) scale(0.1 -0.1)">
       <defs>
        <path id="DejaVuSans-35" d="M 691 4666 
L 3169 4666 
L 3169 4134 
L 1269 4134 
L 1269 2991 
Q 1406 3038 1543 3061 
Q 1681 3084 1819 3084 
Q 2600 3084 3056 2656 
Q 3513 2228 3513 1497 
Q 3513 744 3044 326 
Q 2575 -91 1722 -91 
Q 1428 -91 1123 -41 
Q 819 9 494 109 
L 494 744 
Q 775 591 1075 516 
Q 1375 441 1709 441 
Q 2250 441 2565 725 
Q 2881 1009 2881 1497 
Q 2881 1984 2565 2268 
Q 2250 2553 1709 2553 
Q 1456 2553 1204 2497 
Q 953 2441 691 2322 
L 691 4666 
z
" transform="scale(0.015625)"/>
       </defs>
       <use xlink:href="#DejaVuSans-35"/>
       <use xlink:href="#DejaVuSans-30" x="63.623047"/>
       <use xlink:href="#DejaVuSans-30" x="127.246094"/>
       <use xlink:href="#DejaVuSans-30" x="190.869141"/>
      </g>
     </g>
    </g>
    <g id="text_13">
     <!-- Pixel Frequency -->
     <g transform="translate(18.640313 147.73224) rotate(-90) scale(0.1 -0.1)">
      <defs>
       <path id="DejaVuSans-50" d="M 1259 4147 
L 1259 2394 
L 2053 2394 
Q 2494 2394 2734 2622 
Q 2975 2850 2975 3272 
Q 2975 3691 2734 3919 
Q 2494 4147 2053 4147 
L 1259 4147 
z
M 628 4666 
L 2053 4666 
Q 2838 4666 3239 4311 
Q 3641 3956 3641 3272 
Q 3641 2581 3239 2228 
Q 2838 1875 2053 1875 
L 1259 1875 
L 1259 0 
L 628 0 
L 628 4666 
z
" transform="scale(0.015625)"/>
       <path id="DejaVuSans-69" d="M 603 3500 
L 1178 3500 
L 1178 0 
L 603 0 
L 603 3500 
z
M 603 4863 
L 1178 4863 
L 1178 4134 
L 603 4134 
L 603 4863 
z
" transform="scale(0.015625)"/>
       <path id="DejaVuSans-78" d="M 3513 3500 
L 2247 1797 
L 3578 0 
L 2900 0 
L 1881 1375 
L 863 0 
L 184 0 
L 1544 1831 
L 300 3500 
L 978 3500 
L 1906 2253 
L 2834 3500 
L 3513 3500 
z
" transform="scale(0.015625)"/>
       <path id="DejaVuSans-65" d="M 3597 1894 
L 3597 1613 
L 953 1613 
Q 991 1019 1311 708 
Q 1631 397 2203 397 
Q 2534 397 2845 478 
Q 3156 559 3463 722 
L 3463 178 
Q 3153 47 2828 -22 
Q 2503 -91 2169 -91 
Q 1331 -91 842 396 
Q 353 884 353 1716 
Q 353 2575 817 3079 
Q 1281 3584 2069 3584 
Q 2775 3584 3186 3129 
Q 3597 2675 3597 1894 
z
M 3022 2063 
Q 3016 2534 2758 2815 
Q 2500 3097 2075 3097 
Q 1594 3097 1305 2825 
Q 1016 2553 972 2059 
L 3022 2063 
z
" transform="scale(0.015625)"/>
       <path id="DejaVuSans-6c" d="M 603 4863 
L 1178 4863 
L 1178 0 
L 603 0 
L 603 4863 
z
" transform="scale(0.015625)"/>
       <path id="DejaVuSans-20" transform="scale(0.015625)"/>
       <path id="DejaVuSans-46" d="M 628 4666 
L 3309 4666 
L 3309 4134 
L 1259 4134 
L 1259 2759 
L 3109 2759 
L 3109 2228 
L 1259 2228 
L 1259 0 
L 628 0 
L 628 4666 
z
" transform="scale(0.015625)"/>
       <path id="DejaVuSans-72" d="M 2631 2963 
Q 2534 3019 2420 3045 
Q 2306 3072 2169 3072 
Q 1681 3072 1420 2755 
Q 1159 2438 1159 1844 
L 1159 0 
L 581 0 
L 581 3500 
L 1159 3500 
L 1159 2956 
Q 1341 3275 1631 3429 
Q 1922 3584 2338 3584 
Q 2397 3584 2469 3576 
Q 2541 3569 2628 3553 
L 2631 2963 
z
" transform="scale(0.015625)"/>
       <path id="DejaVuSans-71" d="M 947 1747 
Q 947 1113 1208 752 
Q 1469 391 1925 391 
Q 2381 391 2643 752 
Q 2906 1113 2906 1747 
Q 2906 2381 2643 2742 
Q 2381 3103 1925 3103 
Q 1469 3103 1208 2742 
Q 947 2381 947 1747 
z
M 2906 525 
Q 2725 213 2448 61 
Q 2172 -91 1784 -91 
Q 1150 -91 751 415 
Q 353 922 353 1747 
Q 353 2572 751 3078 
Q 1150 3584 1784 3584 
Q 2172 3584 2448 3432 
Q 2725 3281 2906 2969 
L 2906 3500 
L 3481 3500 
L 3481 -1331 
L 2906 -1331 
L 2906 525 
z
" transform="scale(0.015625)"/>
       <path id="DejaVuSans-75" d="M 544 1381 
L 544 3500 
L 1119 3500 
L 1119 1403 
Q 1119 906 1312 657 
Q 1506 409 1894 409 
Q 2359 409 2629 706 
Q 2900 1003 2900 1516 
L 2900 3500 
L 3475 3500 
L 3475 0 
L 2900 0 
L 2900 538 
Q 2691 219 2414 64 
Q 2138 -91 1772 -91 
Q 1169 -91 856 284 
Q 544 659 544 1381 
z
M 1991 3584 
L 1991 3584 
z
" transform="scale(0.015625)"/>
       <path id="DejaVuSans-6e" d="M 3513 2113 
L 3513 0 
L 2938 0 
L 2938 2094 
Q 2938 2591 2744 2837 
Q 2550 3084 2163 3084 
Q 1697 3084 1428 2787 
Q 1159 2491 1159 1978 
L 1159 0 
L 581 0 
L 581 3500 
L 1159 3500 
L 1159 2956 
Q 1366 3272 1645 3428 
Q 1925 3584 2291 3584 
Q 2894 3584 3203 3211 
Q 3513 2838 3513 2113 
z
" transform="scale(0.015625)"/>
       <path id="DejaVuSans-63" d="M 3122 3366 
L 3122 2828 
Q 2878 2963 2633 3030 
Q 2388 3097 2138 3097 
Q 1578 3097 1268 2742 
Q 959 2388 959 1747 
Q 959 1106 1268 751 
Q 1578 397 2138 397 
Q 2388 397 2633 464 
Q 2878 531 3122 666 
L 3122 134 
Q 2881 22 2623 -34 
Q 2366 -91 2075 -91 
Q 1284 -91 818 406 
Q 353 903 353 1747 
Q 353 2603 823 3093 
Q 1294 3584 2113 3584 
Q 2378 3584 2631 3529 
Q 2884 3475 3122 3366 
z
" transform="scale(0.015625)"/>
       <path id="DejaVuSans-79" d="M 2059 -325 
Q 1816 -950 1584 -1140 
Q 1353 -1331 966 -1331 
L 506 -1331 
L 506 -850 
L 844 -850 
Q 1081 -850 1212 -737 
Q 1344 -625 1503 -206 
L 1606 56 
L 191 3500 
L 800 3500 
L 1894 763 
L 2988 3500 
L 3597 3500 
L 2059 -325 
z
" transform="scale(0.015625)"/>
      </defs>
      <use xlink:href="#DejaVuSans-50"/>
      <use xlink:href="#DejaVuSans-69" x="58.052734"/>
      <use xlink:href="#DejaVuSans-78" x="85.835938"/>
      <use xlink:href="#DejaVuSans-65" x="141.890625"/>
      <use xlink:href="#DejaVuSans-6c" x="203.414062"/>
      <use xlink:href="#DejaVuSans-20" x="231.197266"/>
      <use xlink:href="#DejaVuSans-46" x="262.984375"/>
      <use xlink:href="#DejaVuSans-72" x="313.253906"/>
      <use xlink:href="#DejaVuSans-65" x="352.117188"/>
      <use xlink:href="#DejaVuSans-71" x="413.640625"/>
      <use xlink:href="#DejaVuSans-75" x="477.117188"/>
      <use xlink:href="#DejaVuSans-65" x="540.496094"/>
      <use xlink:href="#DejaVuSans-6e" x="602.019531"/>
      <use xlink:href="#DejaVuSans-63" x="665.398438"/>
      <use xlink:href="#DejaVuSans-79" x="720.378906"/>
     </g>
    </g>
   </g>
   <g id="line2d_13">
    <path d="M 15.063 183.183636 
L 101.38235 183.090869 
L 107.6984 182.7198 
L 111.9091 182.225041 
L 116.1198 180.988143 
L 118.22515 179.318332 
L 120.3305 177.246529 
L 122.43585 171.371266 
L 124.5412 161.816233 
L 126.64655 147.251766 
L 128.7519 125.575138 
L 130.85725 102.166855 
L 132.9626 75.357103 
L 135.06795 55.319364 
L 137.1733 37.322507 
L 139.27865 34.32303 
L 141.384 42.548398 
L 143.48935 58.071461 
L 145.5947 81.108676 
L 147.70005 98.919999 
L 149.8054 122.204593 
L 151.91075 138.779019 
L 154.0161 151.24076 
L 156.12145 160.208267 
L 158.2268 166.392754 
L 160.33215 168.866549 
L 162.4375 172.082482 
L 168.75355 175.051036 
L 170.8589 176.102399 
L 172.96425 176.442545 
L 175.0696 178.143279 
L 177.17495 177.308374 
L 179.2803 178.79265 
L 181.38565 178.978185 
L 183.491 178.638038 
L 185.59635 179.782168 
L 187.7017 179.101875 
L 189.80705 179.658479 
L 191.9124 180.338772 
L 194.01775 180.678919 
L 196.1231 180.091393 
L 198.22845 181.173678 
L 200.3338 180.617074 
L 202.43915 181.235523 
L 204.5445 180.957221 
L 206.64985 181.080911 
L 208.7552 181.45198 
L 210.86055 181.049988 
L 215.07125 181.792127 
L 217.1766 181.606592 
L 219.28195 181.668437 
L 223.49265 181.421058 
L 225.598 182.070429 
L 229.8087 181.884894 
L 231.91405 181.915816 
L 234.0194 182.225041 
L 236.12475 182.070429 
L 240.33545 182.255963 
L 242.4408 182.503343 
L 244.54615 181.946739 
L 246.6515 182.348731 
L 248.75685 182.47242 
L 250.8622 182.255963 
L 252.96755 182.47242 
L 255.0729 182.565188 
L 257.17825 182.348731 
L 259.2836 182.627033 
L 261.38895 182.627033 
L 263.4943 182.503343 
L 265.59965 182.59611 
L 267.705 182.379653 
L 269.81035 182.781645 
L 276.1264 182.688877 
L 278.23175 182.7198 
L 280.3371 182.565188 
L 289 182.781645 
L 289 182.781645 
" clip-path="url(#p30bd8152d1)" style="fill: none; stroke: #ff0000; stroke-width: 1.5; stroke-linecap: square"/>
   </g>
   <g id="patch_3">
    <path d="M 57.17 190.626667 
L 57.17 26.88 
" style="fill: none; stroke: #000000; stroke-width: 0.8; stroke-linejoin: miter; stroke-linecap: square"/>
   </g>
   <g id="patch_4">
    <path d="M 267.705 190.626667 
L 267.705 26.88 
" style="fill: none; stroke: #000000; stroke-width: 0.8; stroke-linejoin: miter; stroke-linecap: square"/>
   </g>
   <g id="patch_5">
    <path d="M 57.17 190.626667 
L 267.705 190.626667 
" style="fill: none; stroke: #000000; stroke-width: 0.8; stroke-linejoin: miter; stroke-linecap: square"/>
   </g>
   <g id="patch_6">
    <path d="M 57.17 26.88 
L 267.705 26.88 
" style="fill: none; stroke: #000000; stroke-width: 0.8; stroke-linejoin: miter; stroke-linecap: square"/>
   </g>
   <g id="text_14">
    <!-- Red Channel -->
    <g transform="translate(124.497813 20.88) scale(0.12 -0.12)">
     <defs>
      <path id="DejaVuSans-52" d="M 2841 2188 
Q 3044 2119 3236 1894 
Q 3428 1669 3622 1275 
L 4263 0 
L 3584 0 
L 2988 1197 
Q 2756 1666 2539 1819 
Q 2322 1972 1947 1972 
L 1259 1972 
L 1259 0 
L 628 0 
L 628 4666 
L 2053 4666 
Q 2853 4666 3247 4331 
Q 3641 3997 3641 3322 
Q 3641 2881 3436 2590 
Q 3231 2300 2841 2188 
z
M 1259 4147 
L 1259 2491 
L 2053 2491 
Q 2509 2491 2742 2702 
Q 2975 2913 2975 3322 
Q 2975 3731 2742 3939 
Q 2509 4147 2053 4147 
L 1259 4147 
z
" transform="scale(0.015625)"/>
      <path id="DejaVuSans-64" d="M 2906 2969 
L 2906 4863 
L 3481 4863 
L 3481 0 
L 2906 0 
L 2906 525 
Q 2725 213 2448 61 
Q 2172 -91 1784 -91 
Q 1150 -91 751 415 
Q 353 922 353 1747 
Q 353 2572 751 3078 
Q 1150 3584 1784 3584 
Q 2172 3584 2448 3432 
Q 2725 3281 2906 2969 
z
M 947 1747 
Q 947 1113 1208 752 
Q 1469 391 1925 391 
Q 2381 391 2643 752 
Q 2906 1113 2906 1747 
Q 2906 2381 2643 2742 
Q 2381 3103 1925 3103 
Q 1469 3103 1208 2742 
Q 947 2381 947 1747 
z
" transform="scale(0.015625)"/>
      <path id="DejaVuSans-43" d="M 4122 4306 
L 4122 3641 
Q 3803 3938 3442 4084 
Q 3081 4231 2675 4231 
Q 1875 4231 1450 3742 
Q 1025 3253 1025 2328 
Q 1025 1406 1450 917 
Q 1875 428 2675 428 
Q 3081 428 3442 575 
Q 3803 722 4122 1019 
L 4122 359 
Q 3791 134 3420 21 
Q 3050 -91 2638 -91 
Q 1578 -91 968 557 
Q 359 1206 359 2328 
Q 359 3453 968 4101 
Q 1578 4750 2638 4750 
Q 3056 4750 3426 4639 
Q 3797 4528 4122 4306 
z
" transform="scale(0.015625)"/>
      <path id="DejaVuSans-68" d="M 3513 2113 
L 3513 0 
L 2938 0 
L 2938 2094 
Q 2938 2591 2744 2837 
Q 2550 3084 2163 3084 
Q 1697 3084 1428 2787 
Q 1159 2491 1159 1978 
L 1159 0 
L 581 0 
L 581 4863 
L 1159 4863 
L 1159 2956 
Q 1366 3272 1645 3428 
Q 1925 3584 2291 3584 
Q 2894 3584 3203 3211 
Q 3513 2838 3513 2113 
z
" transform="scale(0.015625)"/>
      <path id="DejaVuSans-61" d="M 2194 1759 
Q 1497 1759 1228 1600 
Q 959 1441 959 1056 
Q 959 750 1161 570 
Q 1363 391 1709 391 
Q 2188 391 2477 730 
Q 2766 1069 2766 1631 
L 2766 1759 
L 2194 1759 
z
M 3341 1997 
L 3341 0 
L 2766 0 
L 2766 531 
Q 2569 213 2275 61 
Q 1981 -91 1556 -91 
Q 1019 -91 701 211 
Q 384 513 384 1019 
Q 384 1609 779 1909 
Q 1175 2209 1959 2209 
L 2766 2209 
L 2766 2266 
Q 2766 2663 2505 2880 
Q 2244 3097 1772 3097 
Q 1472 3097 1187 3025 
Q 903 2953 641 2809 
L 641 3341 
Q 956 3463 1253 3523 
Q 1550 3584 1831 3584 
Q 2591 3584 2966 3190 
Q 3341 2797 3341 1997 
z
" transform="scale(0.015625)"/>
     </defs>
     <use xlink:href="#DejaVuSans-52"/>
     <use xlink:href="#DejaVuSans-65" x="64.982422"/>
     <use xlink:href="#DejaVuSans-64" x="126.505859"/>
     <use xlink:href="#DejaVuSans-20" x="189.982422"/>
     <use xlink:href="#DejaVuSans-43" x="221.769531"/>
     <use xlink:href="#DejaVuSans-68" x="291.59375"/>
     <use xlink:href="#DejaVuSans-61" x="354.972656"/>
     <use xlink:href="#DejaVuSans-6e" x="416.251953"/>
     <use xlink:href="#DejaVuSans-6e" x="479.630859"/>
     <use xlink:href="#DejaVuSans-65" x="543.009766"/>
     <use xlink:href="#DejaVuSans-6c" x="604.533203"/>
    </g>
   </g>
  </g>
  <g id="axes_2">
   <g id="patch_7">
    <path d="M 57.17 398.333333 
L 267.705 398.333333 
L 267.705 234.586667 
L 57.17 234.586667 
z
" style="fill: #ffffff"/>
   </g>
   <g id="PolyCollection_2">
    <path d="M 15.063 390.890303 
L 15.063 390.890303 
L 17.16835 390.890303 
L 19.2737 390.890303 
L 21.37905 390.890303 
L 23.4844 390.890303 
L 25.58975 390.890303 
L 27.6951 390.890303 
L 29.80045 390.890303 
L 31.9058 390.890303 
L 34.01115 390.890303 
L 36.1165 390.890303 
L 38.22185 390.890303 
L 40.3272 390.890303 
L 42.43255 390.890303 
L 44.5379 390.890303 
L 46.64325 390.890303 
L 48.7486 390.890303 
L 50.85395 390.890303 
L 52.9593 390.890303 
L 55.06465 390.890303 
L 57.17 390.890303 
L 59.27535 390.890303 
L 61.3807 390.890303 
L 63.48605 390.890303 
L 65.5914 390.890303 
L 67.69675 390.890303 
L 69.8021 390.890303 
L 71.90745 390.890303 
L 74.0128 390.890303 
L 76.11815 390.890303 
L 78.2235 390.890303 
L 80.32885 390.890303 
L 82.4342 390.890303 
L 84.53955 390.890303 
L 86.6449 390.890303 
L 88.75025 390.890303 
L 90.8556 390.890303 
L 92.96095 390.890303 
L 95.0663 390.857815 
L 97.17165 390.890303 
L 99.277 390.662886 
L 101.38235 390.630398 
L 103.4877 390.370493 
L 105.59305 390.045612 
L 107.6984 389.623266 
L 109.80375 388.941015 
L 111.9091 387.154168 
L 114.01445 383.612962 
L 116.1198 378.479838 
L 118.22515 367.953684 
L 120.3305 357.42753 
L 122.43585 336.537664 
L 124.5412 310.254767 
L 126.64655 279.228604 
L 128.7519 257.688975 
L 130.85725 244.336354 
L 132.9626 242.029697 
L 135.06795 245.700856 
L 137.1733 263.244445 
L 139.27865 284.589146 
L 141.384 305.543989 
L 143.48935 327.603428 
L 145.5947 342.190598 
L 147.70005 352.164454 
L 149.8054 363.762716 
L 151.91075 370.292829 
L 154.0161 374.613751 
L 156.12145 377.765099 
L 158.2268 380.00678 
L 160.33215 381.371281 
L 162.4375 382.150996 
L 164.54285 381.956068 
L 166.6482 382.735783 
L 168.75355 382.930711 
L 170.8589 385.04244 
L 172.96425 385.009952 
L 175.0696 386.276989 
L 177.17495 386.666846 
L 179.2803 385.984596 
L 181.38565 386.699334 
L 183.491 387.284121 
L 185.59635 386.439429 
L 187.7017 387.056704 
L 189.80705 387.609002 
L 191.9124 388.226276 
L 194.01775 388.1613 
L 196.1231 388.51867 
L 198.22845 388.388717 
L 200.3338 388.648622 
L 202.43915 388.713598 
L 204.5445 389.135944 
L 206.64985 389.135944 
L 208.7552 388.648622 
L 210.86055 389.168432 
L 212.9659 389.298385 
L 215.07125 388.616134 
L 217.1766 389.168432 
L 219.28195 389.428337 
L 221.3873 389.103456 
L 223.49265 389.850683 
L 225.598 389.460825 
L 227.70335 389.753219 
L 229.8087 389.070968 
L 231.91405 389.818195 
L 234.0194 389.590778 
L 236.12475 389.980635 
L 238.2301 390.208052 
L 240.33545 389.753219 
L 242.4408 389.590778 
L 244.54615 389.623266 
L 246.6515 389.785707 
L 248.75685 389.55829 
L 250.8622 390.013124 
L 252.96755 390.045612 
L 255.0729 390.045612 
L 257.17825 390.143076 
L 259.2836 390.143076 
L 261.38895 390.013124 
L 263.4943 390.143076 
L 265.59965 390.110588 
L 267.705 390.338005 
L 269.81035 390.305517 
L 271.9157 390.013124 
L 274.02105 390.208052 
L 276.1264 390.273029 
L 278.23175 390.273029 
L 280.3371 390.175564 
L 282.44245 390.273029 
L 284.5478 390.305517 
L 286.65315 390.273029 
L 288.7585 390.273029 
L 290.86385 390.532934 
L 292.9692 390.370493 
L 295.07455 390.24054 
L 297.1799 390.402981 
L 299.28525 390.467957 
L 301.3906 390.500445 
L 303.49595 390.402981 
L 305.6013 390.500445 
L 307.70665 390.565422 
L 309.812 390.565422 
L 311.91735 390.565422 
L 314.0227 390.467957 
L 316.12805 390.630398 
L 318.2334 390.695374 
L 320.33875 390.467957 
L 322.4441 390.305517 
L 324.54945 390.565422 
L 326.6548 390.273029 
L 328.76015 390.338005 
L 330.8655 390.500445 
L 332.97085 390.630398 
L 335.0762 390.532934 
L 337.18155 390.662886 
L 339.2869 390.532934 
L 341.39225 390.695374 
L 343.4976 390.760351 
L 345.60295 390.727862 
L 347.7083 390.727862 
L 349.81365 390.565422 
L 351.919 390.630398 
L 354.02435 390.760351 
L 356.1297 390.760351 
L 358.23505 390.695374 
L 360.3404 390.760351 
L 362.44575 390.825327 
L 364.5511 390.695374 
L 366.65645 390.662886 
L 368.7618 390.662886 
L 370.86715 390.630398 
L 372.9725 390.59791 
L 375.07785 390.792839 
L 377.1832 390.760351 
L 379.28855 390.760351 
L 381.3939 390.727862 
L 383.49925 390.760351 
L 385.6046 390.760351 
L 387.70995 390.792839 
L 389.8153 390.760351 
L 391.92065 390.857815 
L 394.026 390.630398 
L 396.13135 390.825327 
L 398.2367 390.630398 
L 400.34205 390.792839 
L 402.4474 390.792839 
L 404.55275 390.825327 
L 406.6581 390.857815 
L 408.76345 390.760351 
L 410.8688 390.825327 
L 412.97415 390.792839 
L 415.0795 390.792839 
L 417.18485 390.760351 
L 419.2902 390.760351 
L 421.39555 390.760351 
L 423.5009 390.727862 
L 425.60625 390.727862 
L 427.7116 390.825327 
L 429.81695 390.825327 
L 431.9223 390.792839 
L 434.02765 390.727862 
L 436.133 390.792839 
L 438.23835 390.857815 
L 440.3437 390.857815 
L 442.44905 390.857815 
L 444.5544 390.825327 
L 446.65975 390.727862 
L 448.7651 390.792839 
L 450.87045 390.825327 
L 452.9758 390.857815 
L 455.08115 390.760351 
L 457.1865 390.890303 
L 459.29185 390.825327 
L 461.3972 390.825327 
L 463.50255 390.792839 
L 465.6079 390.825327 
L 467.71325 390.857815 
L 469.8186 390.825327 
L 471.92395 390.857815 
L 474.0293 390.890303 
L 476.13465 390.792839 
L 478.24 390.825327 
L 480.34535 390.825327 
L 482.4507 390.792839 
L 484.55605 390.825327 
L 486.6614 390.857815 
L 488.76675 390.792839 
L 490.8721 390.890303 
L 492.97745 390.825327 
L 495.0828 390.792839 
L 497.18815 390.857815 
L 499.2935 390.825327 
L 501.39885 390.857815 
L 503.5042 390.857815 
L 505.60955 390.792839 
L 507.7149 390.890303 
L 509.82025 390.890303 
L 511.9256 390.890303 
L 514.03095 390.857815 
L 516.1363 390.890303 
L 518.24165 390.857815 
L 520.347 390.890303 
L 522.45235 390.792839 
L 524.5577 390.890303 
L 526.66305 390.890303 
L 528.7684 390.857815 
L 530.87375 390.890303 
L 532.9791 390.857815 
L 535.08445 390.857815 
L 537.1898 390.890303 
L 539.29515 390.890303 
L 541.4005 390.890303 
L 543.50585 390.890303 
L 545.6112 390.890303 
L 547.71655 390.890303 
L 549.8219 390.890303 
L 551.92725 390.890303 
L 551.92725 390.890303 
L 551.92725 390.890303 
L 549.8219 390.890303 
L 547.71655 390.890303 
L 545.6112 390.890303 
L 543.50585 390.890303 
L 541.4005 390.890303 
L 539.29515 390.890303 
L 537.1898 390.890303 
L 535.08445 390.890303 
L 532.9791 390.890303 
L 530.87375 390.890303 
L 528.7684 390.890303 
L 526.66305 390.890303 
L 524.5577 390.890303 
L 522.45235 390.890303 
L 520.347 390.890303 
L 518.24165 390.890303 
L 516.1363 390.890303 
L 514.03095 390.890303 
L 511.9256 390.890303 
L 509.82025 390.890303 
L 507.7149 390.890303 
L 505.60955 390.890303 
L 503.5042 390.890303 
L 501.39885 390.890303 
L 499.2935 390.890303 
L 497.18815 390.890303 
L 495.0828 390.890303 
L 492.97745 390.890303 
L 490.8721 390.890303 
L 488.76675 390.890303 
L 486.6614 390.890303 
L 484.55605 390.890303 
L 482.4507 390.890303 
L 480.34535 390.890303 
L 478.24 390.890303 
L 476.13465 390.890303 
L 474.0293 390.890303 
L 471.92395 390.890303 
L 469.8186 390.890303 
L 467.71325 390.890303 
L 465.6079 390.890303 
L 463.50255 390.890303 
L 461.3972 390.890303 
L 459.29185 390.890303 
L 457.1865 390.890303 
L 455.08115 390.890303 
L 452.9758 390.890303 
L 450.87045 390.890303 
L 448.7651 390.890303 
L 446.65975 390.890303 
L 444.5544 390.890303 
L 442.44905 390.890303 
L 440.3437 390.890303 
L 438.23835 390.890303 
L 436.133 390.890303 
L 434.02765 390.890303 
L 431.9223 390.890303 
L 429.81695 390.890303 
L 427.7116 390.890303 
L 425.60625 390.890303 
L 423.5009 390.890303 
L 421.39555 390.890303 
L 419.2902 390.890303 
L 417.18485 390.890303 
L 415.0795 390.890303 
L 412.97415 390.890303 
L 410.8688 390.890303 
L 408.76345 390.890303 
L 406.6581 390.890303 
L 404.55275 390.890303 
L 402.4474 390.890303 
L 400.34205 390.890303 
L 398.2367 390.890303 
L 396.13135 390.890303 
L 394.026 390.890303 
L 391.92065 390.890303 
L 389.8153 390.890303 
L 387.70995 390.890303 
L 385.6046 390.890303 
L 383.49925 390.890303 
L 381.3939 390.890303 
L 379.28855 390.890303 
L 377.1832 390.890303 
L 375.07785 390.890303 
L 372.9725 390.890303 
L 370.86715 390.890303 
L 368.7618 390.890303 
L 366.65645 390.890303 
L 364.5511 390.890303 
L 362.44575 390.890303 
L 360.3404 390.890303 
L 358.23505 390.890303 
L 356.1297 390.890303 
L 354.02435 390.890303 
L 351.919 390.890303 
L 349.81365 390.890303 
L 347.7083 390.890303 
L 345.60295 390.890303 
L 343.4976 390.890303 
L 341.39225 390.890303 
L 339.2869 390.890303 
L 337.18155 390.890303 
L 335.0762 390.890303 
L 332.97085 390.890303 
L 330.8655 390.890303 
L 328.76015 390.890303 
L 326.6548 390.890303 
L 324.54945 390.890303 
L 322.4441 390.890303 
L 320.33875 390.890303 
L 318.2334 390.890303 
L 316.12805 390.890303 
L 314.0227 390.890303 
L 311.91735 390.890303 
L 309.812 390.890303 
L 307.70665 390.890303 
L 305.6013 390.890303 
L 303.49595 390.890303 
L 301.3906 390.890303 
L 299.28525 390.890303 
L 297.1799 390.890303 
L 295.07455 390.890303 
L 292.9692 390.890303 
L 290.86385 390.890303 
L 288.7585 390.890303 
L 286.65315 390.890303 
L 284.5478 390.890303 
L 282.44245 390.890303 
L 280.3371 390.890303 
L 278.23175 390.890303 
L 276.1264 390.890303 
L 274.02105 390.890303 
L 271.9157 390.890303 
L 269.81035 390.890303 
L 267.705 390.890303 
L 265.59965 390.890303 
L 263.4943 390.890303 
L 261.38895 390.890303 
L 259.2836 390.890303 
L 257.17825 390.890303 
L 255.0729 390.890303 
L 252.96755 390.890303 
L 250.8622 390.890303 
L 248.75685 390.890303 
L 246.6515 390.890303 
L 244.54615 390.890303 
L 242.4408 390.890303 
L 240.33545 390.890303 
L 238.2301 390.890303 
L 236.12475 390.890303 
L 234.0194 390.890303 
L 231.91405 390.890303 
L 229.8087 390.890303 
L 227.70335 390.890303 
L 225.598 390.890303 
L 223.49265 390.890303 
L 221.3873 390.890303 
L 219.28195 390.890303 
L 217.1766 390.890303 
L 215.07125 390.890303 
L 212.9659 390.890303 
L 210.86055 390.890303 
L 208.7552 390.890303 
L 206.64985 390.890303 
L 204.5445 390.890303 
L 202.43915 390.890303 
L 200.3338 390.890303 
L 198.22845 390.890303 
L 196.1231 390.890303 
L 194.01775 390.890303 
L 191.9124 390.890303 
L 189.80705 390.890303 
L 187.7017 390.890303 
L 185.59635 390.890303 
L 183.491 390.890303 
L 181.38565 390.890303 
L 179.2803 390.890303 
L 177.17495 390.890303 
L 175.0696 390.890303 
L 172.96425 390.890303 
L 170.8589 390.890303 
L 168.75355 390.890303 
L 166.6482 390.890303 
L 164.54285 390.890303 
L 162.4375 390.890303 
L 160.33215 390.890303 
L 158.2268 390.890303 
L 156.12145 390.890303 
L 154.0161 390.890303 
L 151.91075 390.890303 
L 149.8054 390.890303 
L 147.70005 390.890303 
L 145.5947 390.890303 
L 143.48935 390.890303 
L 141.384 390.890303 
L 139.27865 390.890303 
L 137.1733 390.890303 
L 135.06795 390.890303 
L 132.9626 390.890303 
L 130.85725 390.890303 
L 128.7519 390.890303 
L 126.64655 390.890303 
L 124.5412 390.890303 
L 122.43585 390.890303 
L 120.3305 390.890303 
L 118.22515 390.890303 
L 116.1198 390.890303 
L 114.01445 390.890303 
L 111.9091 390.890303 
L 109.80375 390.890303 
L 107.6984 390.890303 
L 105.59305 390.890303 
L 103.4877 390.890303 
L 101.38235 390.890303 
L 99.277 390.890303 
L 97.17165 390.890303 
L 95.0663 390.890303 
L 92.96095 390.890303 
L 90.8556 390.890303 
L 88.75025 390.890303 
L 86.6449 390.890303 
L 84.53955 390.890303 
L 82.4342 390.890303 
L 80.32885 390.890303 
L 78.2235 390.890303 
L 76.11815 390.890303 
L 74.0128 390.890303 
L 71.90745 390.890303 
L 69.8021 390.890303 
L 67.69675 390.890303 
L 65.5914 390.890303 
L 63.48605 390.890303 
L 61.3807 390.890303 
L 59.27535 390.890303 
L 57.17 390.890303 
L 55.06465 390.890303 
L 52.9593 390.890303 
L 50.85395 390.890303 
L 48.7486 390.890303 
L 46.64325 390.890303 
L 44.5379 390.890303 
L 42.43255 390.890303 
L 40.3272 390.890303 
L 38.22185 390.890303 
L 36.1165 390.890303 
L 34.01115 390.890303 
L 31.9058 390.890303 
L 29.80045 390.890303 
L 27.6951 390.890303 
L 25.58975 390.890303 
L 23.4844 390.890303 
L 21.37905 390.890303 
L 19.2737 390.890303 
L 17.16835 390.890303 
L 15.063 390.890303 
z
" clip-path="url(#p6c014f6179)" style="fill: #008000; fill-opacity: 0.4; stroke: #008000; stroke-opacity: 0.4"/>
   </g>
   <g id="matplotlib.axis_3">
    <g id="xtick_7">
     <g id="line2d_14">
      <g>
       <use xlink:href="#m0f4caa0aae" x="57.17" y="398.333333" style="stroke: #000000; stroke-width: 0.8"/>
      </g>
     </g>
     <g id="text_15">
      <!-- 20 -->
      <g transform="translate(50.8075 412.931771) scale(0.1 -0.1)">
       <use xlink:href="#DejaVuSans-32"/>
       <use xlink:href="#DejaVuSans-30" x="63.623047"/>
      </g>
     </g>
    </g>
    <g id="xtick_8">
     <g id="line2d_15">
      <g>
       <use xlink:href="#m0f4caa0aae" x="99.277" y="398.333333" style="stroke: #000000; stroke-width: 0.8"/>
      </g>
     </g>
     <g id="text_16">
      <!-- 40 -->
      <g transform="translate(92.9145 412.931771) scale(0.1 -0.1)">
       <use xlink:href="#DejaVuSans-34"/>
       <use xlink:href="#DejaVuSans-30" x="63.623047"/>
      </g>
     </g>
    </g>
    <g id="xtick_9">
     <g id="line2d_16">
      <g>
       <use xlink:href="#m0f4caa0aae" x="141.384" y="398.333333" style="stroke: #000000; stroke-width: 0.8"/>
      </g>
     </g>
     <g id="text_17">
      <!-- 60 -->
      <g transform="translate(135.0215 412.931771) scale(0.1 -0.1)">
       <use xlink:href="#DejaVuSans-36"/>
       <use xlink:href="#DejaVuSans-30" x="63.623047"/>
      </g>
     </g>
    </g>
    <g id="xtick_10">
     <g id="line2d_17">
      <g>
       <use xlink:href="#m0f4caa0aae" x="183.491" y="398.333333" style="stroke: #000000; stroke-width: 0.8"/>
      </g>
     </g>
     <g id="text_18">
      <!-- 80 -->
      <g transform="translate(177.1285 412.931771) scale(0.1 -0.1)">
       <use xlink:href="#DejaVuSans-38"/>
       <use xlink:href="#DejaVuSans-30" x="63.623047"/>
      </g>
     </g>
    </g>
    <g id="xtick_11">
     <g id="line2d_18">
      <g>
       <use xlink:href="#m0f4caa0aae" x="225.598" y="398.333333" style="stroke: #000000; stroke-width: 0.8"/>
      </g>
     </g>
     <g id="text_19">
      <!-- 100 -->
      <g transform="translate(216.05425 412.931771) scale(0.1 -0.1)">
       <use xlink:href="#DejaVuSans-31"/>
       <use xlink:href="#DejaVuSans-30" x="63.623047"/>
       <use xlink:href="#DejaVuSans-30" x="127.246094"/>
      </g>
     </g>
    </g>
    <g id="xtick_12">
     <g id="line2d_19">
      <g>
       <use xlink:href="#m0f4caa0aae" x="267.705" y="398.333333" style="stroke: #000000; stroke-width: 0.8"/>
      </g>
     </g>
     <g id="text_20">
      <!-- 120 -->
      <g transform="translate(258.16125 412.931771) scale(0.1 -0.1)">
       <use xlink:href="#DejaVuSans-31"/>
       <use xlink:href="#DejaVuSans-32" x="63.623047"/>
       <use xlink:href="#DejaVuSans-30" x="127.246094"/>
      </g>
     </g>
    </g>
   </g>
   <g id="matplotlib.axis_4">
    <g id="ytick_7">
     <g id="line2d_20">
      <g>
       <use xlink:href="#m0787085b2a" x="57.17" y="390.890303" style="stroke: #000000; stroke-width: 0.8"/>
      </g>
     </g>
     <g id="text_21">
      <!-- 0 -->
      <g transform="translate(43.8075 394.689522) scale(0.1 -0.1)">
       <use xlink:href="#DejaVuSans-30"/>
      </g>
     </g>
    </g>
    <g id="ytick_8">
     <g id="line2d_21">
      <g>
       <use xlink:href="#m0787085b2a" x="57.17" y="358.402174" style="stroke: #000000; stroke-width: 0.8"/>
      </g>
     </g>
     <g id="text_22">
      <!-- 1000 -->
      <g transform="translate(24.72 362.201393) scale(0.1 -0.1)">
       <use xlink:href="#DejaVuSans-31"/>
       <use xlink:href="#DejaVuSans-30" x="63.623047"/>
       <use xlink:href="#DejaVuSans-30" x="127.246094"/>
       <use xlink:href="#DejaVuSans-30" x="190.869141"/>
      </g>
     </g>
    </g>
    <g id="ytick_9">
     <g id="line2d_22">
      <g>
       <use xlink:href="#m0787085b2a" x="57.17" y="325.914045" style="stroke: #000000; stroke-width: 0.8"/>
      </g>
     </g>
     <g id="text_23">
      <!-- 2000 -->
      <g transform="translate(24.72 329.713264) scale(0.1 -0.1)">
       <use xlink:href="#DejaVuSans-32"/>
       <use xlink:href="#DejaVuSans-30" x="63.623047"/>
       <use xlink:href="#DejaVuSans-30" x="127.246094"/>
       <use xlink:href="#DejaVuSans-30" x="190.869141"/>
      </g>
     </g>
    </g>
    <g id="ytick_10">
     <g id="line2d_23">
      <g>
       <use xlink:href="#m0787085b2a" x="57.17" y="293.425917" style="stroke: #000000; stroke-width: 0.8"/>
      </g>
     </g>
     <g id="text_24">
      <!-- 3000 -->
      <g transform="translate(24.72 297.225135) scale(0.1 -0.1)">
       <use xlink:href="#DejaVuSans-33"/>
       <use xlink:href="#DejaVuSans-30" x="63.623047"/>
       <use xlink:href="#DejaVuSans-30" x="127.246094"/>
       <use xlink:href="#DejaVuSans-30" x="190.869141"/>
      </g>
     </g>
    </g>
    <g id="ytick_11">
     <g id="line2d_24">
      <g>
       <use xlink:href="#m0787085b2a" x="57.17" y="260.937788" style="stroke: #000000; stroke-width: 0.8"/>
      </g>
     </g>
     <g id="text_25">
      <!-- 4000 -->
      <g transform="translate(24.72 264.737007) scale(0.1 -0.1)">
       <use xlink:href="#DejaVuSans-34"/>
       <use xlink:href="#DejaVuSans-30" x="63.623047"/>
       <use xlink:href="#DejaVuSans-30" x="127.246094"/>
       <use xlink:href="#DejaVuSans-30" x="190.869141"/>
      </g>
     </g>
    </g>
    <g id="text_26">
     <!-- Pixel Frequency -->
     <g transform="translate(18.640313 355.438906) rotate(-90) scale(0.1 -0.1)">
      <use xlink:href="#DejaVuSans-50"/>
      <use xlink:href="#DejaVuSans-69" x="58.052734"/>
      <use xlink:href="#DejaVuSans-78" x="85.835938"/>
      <use xlink:href="#DejaVuSans-65" x="141.890625"/>
      <use xlink:href="#DejaVuSans-6c" x="203.414062"/>
      <use xlink:href="#DejaVuSans-20" x="231.197266"/>
      <use xlink:href="#DejaVuSans-46" x="262.984375"/>
      <use xlink:href="#DejaVuSans-72" x="313.253906"/>
      <use xlink:href="#DejaVuSans-65" x="352.117188"/>
      <use xlink:href="#DejaVuSans-71" x="413.640625"/>
      <use xlink:href="#DejaVuSans-75" x="477.117188"/>
      <use xlink:href="#DejaVuSans-65" x="540.496094"/>
      <use xlink:href="#DejaVuSans-6e" x="602.019531"/>
      <use xlink:href="#DejaVuSans-63" x="665.398438"/>
      <use xlink:href="#DejaVuSans-79" x="720.378906"/>
     </g>
    </g>
   </g>
   <g id="line2d_25">
    <path d="M 15.063 390.890303 
L 97.17165 390.890303 
L 99.277 390.662886 
L 101.38235 390.630398 
L 105.59305 390.045612 
L 107.6984 389.623266 
L 109.80375 388.941015 
L 111.9091 387.154168 
L 114.01445 383.612962 
L 116.1198 378.479838 
L 120.3305 357.42753 
L 122.43585 336.537664 
L 124.5412 310.254767 
L 126.64655 279.228604 
L 128.7519 257.688975 
L 130.85725 244.336354 
L 132.9626 242.029697 
L 135.06795 245.700856 
L 137.1733 263.244445 
L 143.48935 327.603428 
L 145.5947 342.190598 
L 147.70005 352.164454 
L 149.8054 363.762716 
L 151.91075 370.292829 
L 154.0161 374.613751 
L 156.12145 377.765099 
L 158.2268 380.00678 
L 160.33215 381.371281 
L 162.4375 382.150996 
L 164.54285 381.956068 
L 166.6482 382.735783 
L 168.75355 382.930711 
L 170.8589 385.04244 
L 172.96425 385.009952 
L 175.0696 386.276989 
L 177.17495 386.666846 
L 179.2803 385.984596 
L 181.38565 386.699334 
L 183.491 387.284121 
L 185.59635 386.439429 
L 191.9124 388.226276 
L 194.01775 388.1613 
L 196.1231 388.51867 
L 198.22845 388.388717 
L 200.3338 388.648622 
L 202.43915 388.713598 
L 204.5445 389.135944 
L 206.64985 389.135944 
L 208.7552 388.648622 
L 210.86055 389.168432 
L 212.9659 389.298385 
L 215.07125 388.616134 
L 217.1766 389.168432 
L 219.28195 389.428337 
L 221.3873 389.103456 
L 223.49265 389.850683 
L 225.598 389.460825 
L 227.70335 389.753219 
L 229.8087 389.070968 
L 231.91405 389.818195 
L 234.0194 389.590778 
L 236.12475 389.980635 
L 238.2301 390.208052 
L 240.33545 389.753219 
L 242.4408 389.590778 
L 244.54615 389.623266 
L 246.6515 389.785707 
L 248.75685 389.55829 
L 250.8622 390.013124 
L 259.2836 390.143076 
L 261.38895 390.013124 
L 263.4943 390.143076 
L 265.59965 390.110588 
L 267.705 390.338005 
L 269.81035 390.305517 
L 271.9157 390.013124 
L 274.02105 390.208052 
L 278.23175 390.273029 
L 280.3371 390.175564 
L 284.5478 390.305517 
L 289 390.302842 
L 289 390.302842 
" clip-path="url(#p6c014f6179)" style="fill: none; stroke: #008000; stroke-width: 1.5; stroke-linecap: square"/>
   </g>
   <g id="patch_8">
    <path d="M 57.17 398.333333 
L 57.17 234.586667 
" style="fill: none; stroke: #000000; stroke-width: 0.8; stroke-linejoin: miter; stroke-linecap: square"/>
   </g>
   <g id="patch_9">
    <path d="M 267.705 398.333333 
L 267.705 234.586667 
" style="fill: none; stroke: #000000; stroke-width: 0.8; stroke-linejoin: miter; stroke-linecap: square"/>
   </g>
   <g id="patch_10">
    <path d="M 57.17 398.333333 
L 267.705 398.333333 
" style="fill: none; stroke: #000000; stroke-width: 0.8; stroke-linejoin: miter; stroke-linecap: square"/>
   </g>
   <g id="patch_11">
    <path d="M 57.17 234.586667 
L 267.705 234.586667 
" style="fill: none; stroke: #000000; stroke-width: 0.8; stroke-linejoin: miter; stroke-linecap: square"/>
   </g>
   <g id="text_27">
    <!-- Green Channel -->
    <g transform="translate(117.730938 228.586667) scale(0.12 -0.12)">
     <defs>
      <path id="DejaVuSans-47" d="M 3809 666 
L 3809 1919 
L 2778 1919 
L 2778 2438 
L 4434 2438 
L 4434 434 
Q 4069 175 3628 42 
Q 3188 -91 2688 -91 
Q 1594 -91 976 548 
Q 359 1188 359 2328 
Q 359 3472 976 4111 
Q 1594 4750 2688 4750 
Q 3144 4750 3555 4637 
Q 3966 4525 4313 4306 
L 4313 3634 
Q 3963 3931 3569 4081 
Q 3175 4231 2741 4231 
Q 1884 4231 1454 3753 
Q 1025 3275 1025 2328 
Q 1025 1384 1454 906 
Q 1884 428 2741 428 
Q 3075 428 3337 486 
Q 3600 544 3809 666 
z
" transform="scale(0.015625)"/>
     </defs>
     <use xlink:href="#DejaVuSans-47"/>
     <use xlink:href="#DejaVuSans-72" x="77.490234"/>
     <use xlink:href="#DejaVuSans-65" x="116.353516"/>
     <use xlink:href="#DejaVuSans-65" x="177.876953"/>
     <use xlink:href="#DejaVuSans-6e" x="239.400391"/>
     <use xlink:href="#DejaVuSans-20" x="302.779297"/>
     <use xlink:href="#DejaVuSans-43" x="334.566406"/>
     <use xlink:href="#DejaVuSans-68" x="404.390625"/>
     <use xlink:href="#DejaVuSans-61" x="467.769531"/>
     <use xlink:href="#DejaVuSans-6e" x="529.048828"/>
     <use xlink:href="#DejaVuSans-6e" x="592.427734"/>
     <use xlink:href="#DejaVuSans-65" x="655.806641"/>
     <use xlink:href="#DejaVuSans-6c" x="717.330078"/>
    </g>
   </g>
  </g>
  <g id="axes_3">
   <g id="patch_12">
    <path d="M 57.17 606.04 
L 267.705 606.04 
L 267.705 442.293333 
L 57.17 442.293333 
z
" style="fill: #ffffff"/>
   </g>
   <g id="PolyCollection_3">
    <path d="M 15.063 598.59697 
L 15.063 598.59697 
L 17.16835 598.59697 
L 19.2737 598.59697 
L 21.37905 598.59697 
L 23.4844 598.59697 
L 25.58975 598.59697 
L 27.6951 598.59697 
L 29.80045 598.59697 
L 31.9058 598.59697 
L 34.01115 598.59697 
L 36.1165 598.59697 
L 38.22185 598.59697 
L 40.3272 598.59697 
L 42.43255 598.59697 
L 44.5379 598.59697 
L 46.64325 598.59697 
L 48.7486 598.59697 
L 50.85395 598.59697 
L 52.9593 598.59697 
L 55.06465 598.59697 
L 57.17 598.574131 
L 59.27535 598.482778 
L 61.3807 598.482778 
L 63.48605 598.094525 
L 65.5914 597.272343 
L 67.69675 595.125535 
L 69.8021 589.324585 
L 71.90745 573.24636 
L 74.0128 544.355801 
L 76.11815 510.417958 
L 78.2235 472.117983 
L 80.32885 454.852162 
L 82.4342 449.736364 
L 84.53955 466.180002 
L 86.6449 497.628461 
L 88.75025 527.364041 
L 90.8556 549.837014 
L 92.96095 566.349167 
L 95.0663 576.009805 
L 97.17165 582.792806 
L 99.277 586.401271 
L 101.38235 588.639433 
L 103.4877 590.443666 
L 105.59305 591.608423 
L 107.6984 591.882484 
L 109.80375 593.937939 
L 111.9091 593.229949 
L 114.01445 594.531737 
L 116.1198 595.171212 
L 118.22515 595.05702 
L 120.3305 595.627979 
L 122.43585 595.742171 
L 124.5412 595.993394 
L 126.64655 596.198939 
L 128.7519 596.290293 
L 130.85725 596.176101 
L 132.9626 596.587192 
L 135.06795 596.678545 
L 137.1733 597.066798 
L 139.27865 596.906929 
L 141.384 597.226666 
L 143.48935 597.340858 
L 145.5947 597.340858 
L 147.70005 597.31802 
L 149.8054 597.569242 
L 151.91075 597.660596 
L 154.0161 597.477889 
L 156.12145 597.569242 
L 158.2268 597.637757 
L 160.33215 597.409374 
L 162.4375 597.614919 
L 164.54285 597.614919 
L 166.6482 597.980333 
L 168.75355 597.683434 
L 170.8589 597.88898 
L 172.96425 597.729111 
L 175.0696 597.866141 
L 177.17495 598.003172 
L 179.2803 598.048848 
L 181.38565 598.003172 
L 183.491 598.094525 
L 185.59635 598.02601 
L 187.7017 598.16304 
L 189.80705 598.322909 
L 191.9124 598.094525 
L 194.01775 598.048848 
L 196.1231 598.048848 
L 198.22845 598.117364 
L 200.3338 598.277232 
L 202.43915 598.208717 
L 204.5445 598.185879 
L 206.64985 598.140202 
L 208.7552 598.368586 
L 210.86055 598.414263 
L 212.9659 598.254394 
L 215.07125 598.368586 
L 217.1766 598.322909 
L 219.28195 598.414263 
L 221.3873 598.391424 
L 223.49265 598.414263 
L 225.598 598.254394 
L 227.70335 598.437101 
L 229.8087 598.345747 
L 231.91405 598.391424 
L 234.0194 598.459939 
L 236.12475 598.437101 
L 238.2301 598.414263 
L 240.33545 598.437101 
L 242.4408 598.482778 
L 244.54615 598.437101 
L 246.6515 598.528455 
L 248.75685 598.482778 
L 250.8622 598.437101 
L 252.96755 598.437101 
L 255.0729 598.368586 
L 257.17825 598.414263 
L 259.2836 598.437101 
L 261.38895 598.437101 
L 263.4943 598.437101 
L 265.59965 598.551293 
L 267.705 598.551293 
L 269.81035 598.574131 
L 271.9157 598.574131 
L 274.02105 598.528455 
L 276.1264 598.528455 
L 278.23175 598.528455 
L 280.3371 598.574131 
L 282.44245 598.551293 
L 284.5478 598.482778 
L 286.65315 598.505616 
L 288.7585 598.482778 
L 290.86385 598.574131 
L 292.9692 598.437101 
L 295.07455 598.482778 
L 297.1799 598.528455 
L 299.28525 598.459939 
L 301.3906 598.574131 
L 303.49595 598.482778 
L 305.6013 598.574131 
L 307.70665 598.574131 
L 309.812 598.574131 
L 311.91735 598.528455 
L 314.0227 598.59697 
L 316.12805 598.574131 
L 318.2334 598.574131 
L 320.33875 598.59697 
L 322.4441 598.551293 
L 324.54945 598.482778 
L 326.6548 598.528455 
L 328.76015 598.574131 
L 330.8655 598.505616 
L 332.97085 598.59697 
L 335.0762 598.59697 
L 337.18155 598.528455 
L 339.2869 598.574131 
L 341.39225 598.551293 
L 343.4976 598.59697 
L 345.60295 598.574131 
L 347.7083 598.574131 
L 349.81365 598.528455 
L 351.919 598.574131 
L 354.02435 598.551293 
L 356.1297 598.551293 
L 358.23505 598.528455 
L 360.3404 598.551293 
L 362.44575 598.551293 
L 364.5511 598.528455 
L 366.65645 598.574131 
L 368.7618 598.59697 
L 370.86715 598.551293 
L 372.9725 598.59697 
L 375.07785 598.59697 
L 377.1832 598.59697 
L 379.28855 598.59697 
L 381.3939 598.574131 
L 383.49925 598.59697 
L 385.6046 598.59697 
L 387.70995 598.574131 
L 389.8153 598.574131 
L 391.92065 598.528455 
L 394.026 598.59697 
L 396.13135 598.528455 
L 398.2367 598.59697 
L 400.34205 598.59697 
L 402.4474 598.574131 
L 404.55275 598.59697 
L 406.6581 598.59697 
L 408.76345 598.59697 
L 410.8688 598.59697 
L 412.97415 598.574131 
L 415.0795 598.59697 
L 417.18485 598.59697 
L 419.2902 598.59697 
L 421.39555 598.59697 
L 423.5009 598.574131 
L 425.60625 598.59697 
L 427.7116 598.59697 
L 429.81695 598.574131 
L 431.9223 598.59697 
L 434.02765 598.59697 
L 436.133 598.59697 
L 438.23835 598.574131 
L 440.3437 598.59697 
L 442.44905 598.59697 
L 444.5544 598.59697 
L 446.65975 598.574131 
L 448.7651 598.574131 
L 450.87045 598.59697 
L 452.9758 598.59697 
L 455.08115 598.59697 
L 457.1865 598.59697 
L 459.29185 598.59697 
L 461.3972 598.59697 
L 463.50255 598.59697 
L 465.6079 598.59697 
L 467.71325 598.574131 
L 469.8186 598.59697 
L 471.92395 598.59697 
L 474.0293 598.59697 
L 476.13465 598.59697 
L 478.24 598.574131 
L 480.34535 598.574131 
L 482.4507 598.59697 
L 484.55605 598.59697 
L 486.6614 598.59697 
L 488.76675 598.59697 
L 490.8721 598.59697 
L 492.97745 598.59697 
L 495.0828 598.59697 
L 497.18815 598.59697 
L 499.2935 598.59697 
L 501.39885 598.59697 
L 503.5042 598.59697 
L 505.60955 598.59697 
L 507.7149 598.59697 
L 509.82025 598.59697 
L 511.9256 598.59697 
L 514.03095 598.59697 
L 516.1363 598.59697 
L 518.24165 598.59697 
L 520.347 598.59697 
L 522.45235 598.59697 
L 524.5577 598.59697 
L 526.66305 598.59697 
L 528.7684 598.59697 
L 530.87375 598.59697 
L 532.9791 598.59697 
L 535.08445 598.59697 
L 537.1898 598.59697 
L 539.29515 598.59697 
L 541.4005 598.59697 
L 543.50585 598.59697 
L 545.6112 598.59697 
L 547.71655 598.59697 
L 549.8219 598.59697 
L 551.92725 598.59697 
L 551.92725 598.59697 
L 551.92725 598.59697 
L 549.8219 598.59697 
L 547.71655 598.59697 
L 545.6112 598.59697 
L 543.50585 598.59697 
L 541.4005 598.59697 
L 539.29515 598.59697 
L 537.1898 598.59697 
L 535.08445 598.59697 
L 532.9791 598.59697 
L 530.87375 598.59697 
L 528.7684 598.59697 
L 526.66305 598.59697 
L 524.5577 598.59697 
L 522.45235 598.59697 
L 520.347 598.59697 
L 518.24165 598.59697 
L 516.1363 598.59697 
L 514.03095 598.59697 
L 511.9256 598.59697 
L 509.82025 598.59697 
L 507.7149 598.59697 
L 505.60955 598.59697 
L 503.5042 598.59697 
L 501.39885 598.59697 
L 499.2935 598.59697 
L 497.18815 598.59697 
L 495.0828 598.59697 
L 492.97745 598.59697 
L 490.8721 598.59697 
L 488.76675 598.59697 
L 486.6614 598.59697 
L 484.55605 598.59697 
L 482.4507 598.59697 
L 480.34535 598.59697 
L 478.24 598.59697 
L 476.13465 598.59697 
L 474.0293 598.59697 
L 471.92395 598.59697 
L 469.8186 598.59697 
L 467.71325 598.59697 
L 465.6079 598.59697 
L 463.50255 598.59697 
L 461.3972 598.59697 
L 459.29185 598.59697 
L 457.1865 598.59697 
L 455.08115 598.59697 
L 452.9758 598.59697 
L 450.87045 598.59697 
L 448.7651 598.59697 
L 446.65975 598.59697 
L 444.5544 598.59697 
L 442.44905 598.59697 
L 440.3437 598.59697 
L 438.23835 598.59697 
L 436.133 598.59697 
L 434.02765 598.59697 
L 431.9223 598.59697 
L 429.81695 598.59697 
L 427.7116 598.59697 
L 425.60625 598.59697 
L 423.5009 598.59697 
L 421.39555 598.59697 
L 419.2902 598.59697 
L 417.18485 598.59697 
L 415.0795 598.59697 
L 412.97415 598.59697 
L 410.8688 598.59697 
L 408.76345 598.59697 
L 406.6581 598.59697 
L 404.55275 598.59697 
L 402.4474 598.59697 
L 400.34205 598.59697 
L 398.2367 598.59697 
L 396.13135 598.59697 
L 394.026 598.59697 
L 391.92065 598.59697 
L 389.8153 598.59697 
L 387.70995 598.59697 
L 385.6046 598.59697 
L 383.49925 598.59697 
L 381.3939 598.59697 
L 379.28855 598.59697 
L 377.1832 598.59697 
L 375.07785 598.59697 
L 372.9725 598.59697 
L 370.86715 598.59697 
L 368.7618 598.59697 
L 366.65645 598.59697 
L 364.5511 598.59697 
L 362.44575 598.59697 
L 360.3404 598.59697 
L 358.23505 598.59697 
L 356.1297 598.59697 
L 354.02435 598.59697 
L 351.919 598.59697 
L 349.81365 598.59697 
L 347.7083 598.59697 
L 345.60295 598.59697 
L 343.4976 598.59697 
L 341.39225 598.59697 
L 339.2869 598.59697 
L 337.18155 598.59697 
L 335.0762 598.59697 
L 332.97085 598.59697 
L 330.8655 598.59697 
L 328.76015 598.59697 
L 326.6548 598.59697 
L 324.54945 598.59697 
L 322.4441 598.59697 
L 320.33875 598.59697 
L 318.2334 598.59697 
L 316.12805 598.59697 
L 314.0227 598.59697 
L 311.91735 598.59697 
L 309.812 598.59697 
L 307.70665 598.59697 
L 305.6013 598.59697 
L 303.49595 598.59697 
L 301.3906 598.59697 
L 299.28525 598.59697 
L 297.1799 598.59697 
L 295.07455 598.59697 
L 292.9692 598.59697 
L 290.86385 598.59697 
L 288.7585 598.59697 
L 286.65315 598.59697 
L 284.5478 598.59697 
L 282.44245 598.59697 
L 280.3371 598.59697 
L 278.23175 598.59697 
L 276.1264 598.59697 
L 274.02105 598.59697 
L 271.9157 598.59697 
L 269.81035 598.59697 
L 267.705 598.59697 
L 265.59965 598.59697 
L 263.4943 598.59697 
L 261.38895 598.59697 
L 259.2836 598.59697 
L 257.17825 598.59697 
L 255.0729 598.59697 
L 252.96755 598.59697 
L 250.8622 598.59697 
L 248.75685 598.59697 
L 246.6515 598.59697 
L 244.54615 598.59697 
L 242.4408 598.59697 
L 240.33545 598.59697 
L 238.2301 598.59697 
L 236.12475 598.59697 
L 234.0194 598.59697 
L 231.91405 598.59697 
L 229.8087 598.59697 
L 227.70335 598.59697 
L 225.598 598.59697 
L 223.49265 598.59697 
L 221.3873 598.59697 
L 219.28195 598.59697 
L 217.1766 598.59697 
L 215.07125 598.59697 
L 212.9659 598.59697 
L 210.86055 598.59697 
L 208.7552 598.59697 
L 206.64985 598.59697 
L 204.5445 598.59697 
L 202.43915 598.59697 
L 200.3338 598.59697 
L 198.22845 598.59697 
L 196.1231 598.59697 
L 194.01775 598.59697 
L 191.9124 598.59697 
L 189.80705 598.59697 
L 187.7017 598.59697 
L 185.59635 598.59697 
L 183.491 598.59697 
L 181.38565 598.59697 
L 179.2803 598.59697 
L 177.17495 598.59697 
L 175.0696 598.59697 
L 172.96425 598.59697 
L 170.8589 598.59697 
L 168.75355 598.59697 
L 166.6482 598.59697 
L 164.54285 598.59697 
L 162.4375 598.59697 
L 160.33215 598.59697 
L 158.2268 598.59697 
L 156.12145 598.59697 
L 154.0161 598.59697 
L 151.91075 598.59697 
L 149.8054 598.59697 
L 147.70005 598.59697 
L 145.5947 598.59697 
L 143.48935 598.59697 
L 141.384 598.59697 
L 139.27865 598.59697 
L 137.1733 598.59697 
L 135.06795 598.59697 
L 132.9626 598.59697 
L 130.85725 598.59697 
L 128.7519 598.59697 
L 126.64655 598.59697 
L 124.5412 598.59697 
L 122.43585 598.59697 
L 120.3305 598.59697 
L 118.22515 598.59697 
L 116.1198 598.59697 
L 114.01445 598.59697 
L 111.9091 598.59697 
L 109.80375 598.59697 
L 107.6984 598.59697 
L 105.59305 598.59697 
L 103.4877 598.59697 
L 101.38235 598.59697 
L 99.277 598.59697 
L 97.17165 598.59697 
L 95.0663 598.59697 
L 92.96095 598.59697 
L 90.8556 598.59697 
L 88.75025 598.59697 
L 86.6449 598.59697 
L 84.53955 598.59697 
L 82.4342 598.59697 
L 80.32885 598.59697 
L 78.2235 598.59697 
L 76.11815 598.59697 
L 74.0128 598.59697 
L 71.90745 598.59697 
L 69.8021 598.59697 
L 67.69675 598.59697 
L 65.5914 598.59697 
L 63.48605 598.59697 
L 61.3807 598.59697 
L 59.27535 598.59697 
L 57.17 598.59697 
L 55.06465 598.59697 
L 52.9593 598.59697 
L 50.85395 598.59697 
L 48.7486 598.59697 
L 46.64325 598.59697 
L 44.5379 598.59697 
L 42.43255 598.59697 
L 40.3272 598.59697 
L 38.22185 598.59697 
L 36.1165 598.59697 
L 34.01115 598.59697 
L 31.9058 598.59697 
L 29.80045 598.59697 
L 27.6951 598.59697 
L 25.58975 598.59697 
L 23.4844 598.59697 
L 21.37905 598.59697 
L 19.2737 598.59697 
L 17.16835 598.59697 
L 15.063 598.59697 
z
" clip-path="url(#p15cb54122b)" style="fill: #0000ff; fill-opacity: 0.4; stroke: #0000ff; stroke-opacity: 0.4"/>
   </g>
   <g id="matplotlib.axis_5">
    <g id="xtick_13">
     <g id="line2d_26">
      <g>
       <use xlink:href="#m0f4caa0aae" x="57.17" y="606.04" style="stroke: #000000; stroke-width: 0.8"/>
      </g>
     </g>
     <g id="text_28">
      <!-- 20 -->
      <g transform="translate(50.8075 620.638438) scale(0.1 -0.1)">
       <use xlink:href="#DejaVuSans-32"/>
       <use xlink:href="#DejaVuSans-30" x="63.623047"/>
      </g>
     </g>
    </g>
    <g id="xtick_14">
     <g id="line2d_27">
      <g>
       <use xlink:href="#m0f4caa0aae" x="99.277" y="606.04" style="stroke: #000000; stroke-width: 0.8"/>
      </g>
     </g>
     <g id="text_29">
      <!-- 40 -->
      <g transform="translate(92.9145 620.638438) scale(0.1 -0.1)">
       <use xlink:href="#DejaVuSans-34"/>
       <use xlink:href="#DejaVuSans-30" x="63.623047"/>
      </g>
     </g>
    </g>
    <g id="xtick_15">
     <g id="line2d_28">
      <g>
       <use xlink:href="#m0f4caa0aae" x="141.384" y="606.04" style="stroke: #000000; stroke-width: 0.8"/>
      </g>
     </g>
     <g id="text_30">
      <!-- 60 -->
      <g transform="translate(135.0215 620.638438) scale(0.1 -0.1)">
       <use xlink:href="#DejaVuSans-36"/>
       <use xlink:href="#DejaVuSans-30" x="63.623047"/>
      </g>
     </g>
    </g>
    <g id="xtick_16">
     <g id="line2d_29">
      <g>
       <use xlink:href="#m0f4caa0aae" x="183.491" y="606.04" style="stroke: #000000; stroke-width: 0.8"/>
      </g>
     </g>
     <g id="text_31">
      <!-- 80 -->
      <g transform="translate(177.1285 620.638438) scale(0.1 -0.1)">
       <use xlink:href="#DejaVuSans-38"/>
       <use xlink:href="#DejaVuSans-30" x="63.623047"/>
      </g>
     </g>
    </g>
    <g id="xtick_17">
     <g id="line2d_30">
      <g>
       <use xlink:href="#m0f4caa0aae" x="225.598" y="606.04" style="stroke: #000000; stroke-width: 0.8"/>
      </g>
     </g>
     <g id="text_32">
      <!-- 100 -->
      <g transform="translate(216.05425 620.638438) scale(0.1 -0.1)">
       <use xlink:href="#DejaVuSans-31"/>
       <use xlink:href="#DejaVuSans-30" x="63.623047"/>
       <use xlink:href="#DejaVuSans-30" x="127.246094"/>
      </g>
     </g>
    </g>
    <g id="xtick_18">
     <g id="line2d_31">
      <g>
       <use xlink:href="#m0f4caa0aae" x="267.705" y="606.04" style="stroke: #000000; stroke-width: 0.8"/>
      </g>
     </g>
     <g id="text_33">
      <!-- 120 -->
      <g transform="translate(258.16125 620.638438) scale(0.1 -0.1)">
       <use xlink:href="#DejaVuSans-31"/>
       <use xlink:href="#DejaVuSans-32" x="63.623047"/>
       <use xlink:href="#DejaVuSans-30" x="127.246094"/>
      </g>
     </g>
    </g>
    <g id="text_34">
     <!-- Pixel Intensity -->
     <g transform="translate(127.525781 634.316563) scale(0.1 -0.1)">
      <defs>
       <path id="DejaVuSans-49" d="M 628 4666 
L 1259 4666 
L 1259 0 
L 628 0 
L 628 4666 
z
" transform="scale(0.015625)"/>
       <path id="DejaVuSans-74" d="M 1172 4494 
L 1172 3500 
L 2356 3500 
L 2356 3053 
L 1172 3053 
L 1172 1153 
Q 1172 725 1289 603 
Q 1406 481 1766 481 
L 2356 481 
L 2356 0 
L 1766 0 
Q 1100 0 847 248 
Q 594 497 594 1153 
L 594 3053 
L 172 3053 
L 172 3500 
L 594 3500 
L 594 4494 
L 1172 4494 
z
" transform="scale(0.015625)"/>
       <path id="DejaVuSans-73" d="M 2834 3397 
L 2834 2853 
Q 2591 2978 2328 3040 
Q 2066 3103 1784 3103 
Q 1356 3103 1142 2972 
Q 928 2841 928 2578 
Q 928 2378 1081 2264 
Q 1234 2150 1697 2047 
L 1894 2003 
Q 2506 1872 2764 1633 
Q 3022 1394 3022 966 
Q 3022 478 2636 193 
Q 2250 -91 1575 -91 
Q 1294 -91 989 -36 
Q 684 19 347 128 
L 347 722 
Q 666 556 975 473 
Q 1284 391 1588 391 
Q 1994 391 2212 530 
Q 2431 669 2431 922 
Q 2431 1156 2273 1281 
Q 2116 1406 1581 1522 
L 1381 1569 
Q 847 1681 609 1914 
Q 372 2147 372 2553 
Q 372 3047 722 3315 
Q 1072 3584 1716 3584 
Q 2034 3584 2315 3537 
Q 2597 3491 2834 3397 
z
" transform="scale(0.015625)"/>
      </defs>
      <use xlink:href="#DejaVuSans-50"/>
      <use xlink:href="#DejaVuSans-69" x="58.052734"/>
      <use xlink:href="#DejaVuSans-78" x="85.835938"/>
      <use xlink:href="#DejaVuSans-65" x="141.890625"/>
      <use xlink:href="#DejaVuSans-6c" x="203.414062"/>
      <use xlink:href="#DejaVuSans-20" x="231.197266"/>
      <use xlink:href="#DejaVuSans-49" x="262.984375"/>
      <use xlink:href="#DejaVuSans-6e" x="292.476562"/>
      <use xlink:href="#DejaVuSans-74" x="355.855469"/>
      <use xlink:href="#DejaVuSans-65" x="395.064453"/>
      <use xlink:href="#DejaVuSans-6e" x="456.587891"/>
      <use xlink:href="#DejaVuSans-73" x="519.966797"/>
      <use xlink:href="#DejaVuSans-69" x="572.066406"/>
      <use xlink:href="#DejaVuSans-74" x="599.849609"/>
      <use xlink:href="#DejaVuSans-79" x="639.058594"/>
     </g>
    </g>
   </g>
   <g id="matplotlib.axis_6">
    <g id="ytick_12">
     <g id="line2d_32">
      <g>
       <use xlink:href="#m0787085b2a" x="57.17" y="598.59697" style="stroke: #000000; stroke-width: 0.8"/>
      </g>
     </g>
     <g id="text_35">
      <!-- 0 -->
      <g transform="translate(43.8075 602.396188) scale(0.1 -0.1)">
       <use xlink:href="#DejaVuSans-30"/>
      </g>
     </g>
    </g>
    <g id="ytick_13">
     <g id="line2d_33">
      <g>
       <use xlink:href="#m0787085b2a" x="57.17" y="575.758583" style="stroke: #000000; stroke-width: 0.8"/>
      </g>
     </g>
     <g id="text_36">
      <!-- 1000 -->
      <g transform="translate(24.72 579.557802) scale(0.1 -0.1)">
       <use xlink:href="#DejaVuSans-31"/>
       <use xlink:href="#DejaVuSans-30" x="63.623047"/>
       <use xlink:href="#DejaVuSans-30" x="127.246094"/>
       <use xlink:href="#DejaVuSans-30" x="190.869141"/>
      </g>
     </g>
    </g>
    <g id="ytick_14">
     <g id="line2d_34">
      <g>
       <use xlink:href="#m0787085b2a" x="57.17" y="552.920196" style="stroke: #000000; stroke-width: 0.8"/>
      </g>
     </g>
     <g id="text_37">
      <!-- 2000 -->
      <g transform="translate(24.72 556.719415) scale(0.1 -0.1)">
       <use xlink:href="#DejaVuSans-32"/>
       <use xlink:href="#DejaVuSans-30" x="63.623047"/>
       <use xlink:href="#DejaVuSans-30" x="127.246094"/>
       <use xlink:href="#DejaVuSans-30" x="190.869141"/>
      </g>
     </g>
    </g>
    <g id="ytick_15">
     <g id="line2d_35">
      <g>
       <use xlink:href="#m0787085b2a" x="57.17" y="530.081809" style="stroke: #000000; stroke-width: 0.8"/>
      </g>
     </g>
     <g id="text_38">
      <!-- 3000 -->
      <g transform="translate(24.72 533.881028) scale(0.1 -0.1)">
       <use xlink:href="#DejaVuSans-33"/>
       <use xlink:href="#DejaVuSans-30" x="63.623047"/>
       <use xlink:href="#DejaVuSans-30" x="127.246094"/>
       <use xlink:href="#DejaVuSans-30" x="190.869141"/>
      </g>
     </g>
    </g>
    <g id="ytick_16">
     <g id="line2d_36">
      <g>
       <use xlink:href="#m0787085b2a" x="57.17" y="507.243422" style="stroke: #000000; stroke-width: 0.8"/>
      </g>
     </g>
     <g id="text_39">
      <!-- 4000 -->
      <g transform="translate(24.72 511.042641) scale(0.1 -0.1)">
       <use xlink:href="#DejaVuSans-34"/>
       <use xlink:href="#DejaVuSans-30" x="63.623047"/>
       <use xlink:href="#DejaVuSans-30" x="127.246094"/>
       <use xlink:href="#DejaVuSans-30" x="190.869141"/>
      </g>
     </g>
    </g>
    <g id="ytick_17">
     <g id="line2d_37">
      <g>
       <use xlink:href="#m0787085b2a" x="57.17" y="484.405035" style="stroke: #000000; stroke-width: 0.8"/>
      </g>
     </g>
     <g id="text_40">
      <!-- 5000 -->
      <g transform="translate(24.72 488.204254) scale(0.1 -0.1)">
       <use xlink:href="#DejaVuSans-35"/>
       <use xlink:href="#DejaVuSans-30" x="63.623047"/>
       <use xlink:href="#DejaVuSans-30" x="127.246094"/>
       <use xlink:href="#DejaVuSans-30" x="190.869141"/>
      </g>
     </g>
    </g>
    <g id="ytick_18">
     <g id="line2d_38">
      <g>
       <use xlink:href="#m0787085b2a" x="57.17" y="461.566648" style="stroke: #000000; stroke-width: 0.8"/>
      </g>
     </g>
     <g id="text_41">
      <!-- 6000 -->
      <g transform="translate(24.72 465.365867) scale(0.1 -0.1)">
       <use xlink:href="#DejaVuSans-36"/>
       <use xlink:href="#DejaVuSans-30" x="63.623047"/>
       <use xlink:href="#DejaVuSans-30" x="127.246094"/>
       <use xlink:href="#DejaVuSans-30" x="190.869141"/>
      </g>
     </g>
    </g>
    <g id="text_42">
     <!-- Pixel Frequency -->
     <g transform="translate(18.640313 563.145573) rotate(-90) scale(0.1 -0.1)">
      <use xlink:href="#DejaVuSans-50"/>
      <use xlink:href="#DejaVuSans-69" x="58.052734"/>
      <use xlink:href="#DejaVuSans-78" x="85.835938"/>
      <use xlink:href="#DejaVuSans-65" x="141.890625"/>
      <use xlink:href="#DejaVuSans-6c" x="203.414062"/>
      <use xlink:href="#DejaVuSans-20" x="231.197266"/>
      <use xlink:href="#DejaVuSans-46" x="262.984375"/>
      <use xlink:href="#DejaVuSans-72" x="313.253906"/>
      <use xlink:href="#DejaVuSans-65" x="352.117188"/>
      <use xlink:href="#DejaVuSans-71" x="413.640625"/>
      <use xlink:href="#DejaVuSans-75" x="477.117188"/>
      <use xlink:href="#DejaVuSans-65" x="540.496094"/>
      <use xlink:href="#DejaVuSans-6e" x="602.019531"/>
      <use xlink:href="#DejaVuSans-63" x="665.398438"/>
      <use xlink:href="#DejaVuSans-79" x="720.378906"/>
     </g>
    </g>
   </g>
   <g id="line2d_39">
    <path d="M 15.063 598.59697 
L 57.17 598.574131 
L 61.3807 598.482778 
L 63.48605 598.094525 
L 65.5914 597.272343 
L 67.69675 595.125535 
L 69.8021 589.324585 
L 71.90745 573.24636 
L 74.0128 544.355801 
L 76.11815 510.417958 
L 78.2235 472.117983 
L 80.32885 454.852162 
L 82.4342 449.736364 
L 84.53955 466.180002 
L 86.6449 497.628461 
L 88.75025 527.364041 
L 90.8556 549.837014 
L 92.96095 566.349167 
L 95.0663 576.009805 
L 97.17165 582.792806 
L 99.277 586.401271 
L 101.38235 588.639433 
L 103.4877 590.443666 
L 105.59305 591.608423 
L 107.6984 591.882484 
L 109.80375 593.937939 
L 111.9091 593.229949 
L 114.01445 594.531737 
L 116.1198 595.171212 
L 118.22515 595.05702 
L 120.3305 595.627979 
L 122.43585 595.742171 
L 126.64655 596.198939 
L 128.7519 596.290293 
L 130.85725 596.176101 
L 132.9626 596.587192 
L 135.06795 596.678545 
L 137.1733 597.066798 
L 139.27865 596.906929 
L 141.384 597.226666 
L 143.48935 597.340858 
L 147.70005 597.31802 
L 149.8054 597.569242 
L 151.91075 597.660596 
L 154.0161 597.477889 
L 158.2268 597.637757 
L 160.33215 597.409374 
L 162.4375 597.614919 
L 164.54285 597.614919 
L 166.6482 597.980333 
L 168.75355 597.683434 
L 170.8589 597.88898 
L 172.96425 597.729111 
L 179.2803 598.048848 
L 181.38565 598.003172 
L 183.491 598.094525 
L 185.59635 598.02601 
L 189.80705 598.322909 
L 191.9124 598.094525 
L 196.1231 598.048848 
L 202.43915 598.208717 
L 206.64985 598.140202 
L 208.7552 598.368586 
L 210.86055 598.414263 
L 212.9659 598.254394 
L 215.07125 598.368586 
L 217.1766 598.322909 
L 219.28195 598.414263 
L 225.598 598.254394 
L 227.70335 598.437101 
L 229.8087 598.345747 
L 236.12475 598.437101 
L 240.33545 598.437101 
L 246.6515 598.528455 
L 255.0729 598.368586 
L 261.38895 598.437101 
L 263.4943 598.437101 
L 265.59965 598.551293 
L 289 598.493257 
L 289 598.493257 
" clip-path="url(#p15cb54122b)" style="fill: none; stroke: #0000ff; stroke-width: 1.5; stroke-linecap: square"/>
   </g>
   <g id="patch_13">
    <path d="M 57.17 606.04 
L 57.17 442.293333 
" style="fill: none; stroke: #000000; stroke-width: 0.8; stroke-linejoin: miter; stroke-linecap: square"/>
   </g>
   <g id="patch_14">
    <path d="M 267.705 606.04 
L 267.705 442.293333 
" style="fill: none; stroke: #000000; stroke-width: 0.8; stroke-linejoin: miter; stroke-linecap: square"/>
   </g>
   <g id="patch_15">
    <path d="M 57.17 606.04 
L 267.705 606.04 
" style="fill: none; stroke: #000000; stroke-width: 0.8; stroke-linejoin: miter; stroke-linecap: square"/>
   </g>
   <g id="patch_16">
    <path d="M 57.17 442.293333 
L 267.705 442.293333 
" style="fill: none; stroke: #000000; stroke-width: 0.8; stroke-linejoin: miter; stroke-linecap: square"/>
   </g>
   <g id="text_43">
    <!-- Blue Channel -->
    <g transform="translate(122.62 436.293333) scale(0.12 -0.12)">
     <defs>
      <path id="DejaVuSans-42" d="M 1259 2228 
L 1259 519 
L 2272 519 
Q 2781 519 3026 730 
Q 3272 941 3272 1375 
Q 3272 1813 3026 2020 
Q 2781 2228 2272 2228 
L 1259 2228 
z
M 1259 4147 
L 1259 2741 
L 2194 2741 
Q 2656 2741 2882 2914 
Q 3109 3088 3109 3444 
Q 3109 3797 2882 3972 
Q 2656 4147 2194 4147 
L 1259 4147 
z
M 628 4666 
L 2241 4666 
Q 2963 4666 3353 4366 
Q 3744 4066 3744 3513 
Q 3744 3084 3544 2831 
Q 3344 2578 2956 2516 
Q 3422 2416 3680 2098 
Q 3938 1781 3938 1306 
Q 3938 681 3513 340 
Q 3088 0 2303 0 
L 628 0 
L 628 4666 
z
" transform="scale(0.015625)"/>
     </defs>
     <use xlink:href="#DejaVuSans-42"/>
     <use xlink:href="#DejaVuSans-6c" x="68.603516"/>
     <use xlink:href="#DejaVuSans-75" x="96.386719"/>
     <use xlink:href="#DejaVuSans-65" x="159.765625"/>
     <use xlink:href="#DejaVuSans-20" x="221.289062"/>
     <use xlink:href="#DejaVuSans-43" x="253.076172"/>
     <use xlink:href="#DejaVuSans-68" x="322.900391"/>
     <use xlink:href="#DejaVuSans-61" x="386.279297"/>
     <use xlink:href="#DejaVuSans-6e" x="447.558594"/>
     <use xlink:href="#DejaVuSans-6e" x="510.9375"/>
     <use xlink:href="#DejaVuSans-65" x="574.316406"/>
     <use xlink:href="#DejaVuSans-6c" x="635.839844"/>
    </g>
   </g>
  </g>
 </g>
 <defs>
  <clipPath id="p30bd8152d1">
   <rect x="57.17" y="26.88" width="210.535" height="163.746667"/>
  </clipPath>
  <clipPath id="p6c014f6179">
   <rect x="57.17" y="234.586667" width="210.535" height="163.746667"/>
  </clipPath>
  <clipPath id="p15cb54122b">
   <rect x="57.17" y="442.293333" width="210.535" height="163.746667"/>
  </clipPath>
 </defs>
</svg>
