<?xml version="1.0" encoding="utf-8" standalone="no"?>
<!DOCTYPE svg PUBLIC "-//W3C//DTD SVG 1.1//EN"
  "http://www.w3.org/Graphics/SVG/1.1/DTD/svg11.dtd">
<svg xmlns:xlink="http://www.w3.org/1999/xlink" width="288pt" height="648pt" viewBox="0 0 288 648" xmlns="http://www.w3.org/2000/svg" version="1.1">
 <metadata>
  <rdf:RDF xmlns:dc="http://purl.org/dc/elements/1.1/" xmlns:cc="http://creativecommons.org/ns#" xmlns:rdf="http://www.w3.org/1999/02/22-rdf-syntax-ns#">
   <cc:Work>
    <dc:type rdf:resource="http://purl.org/dc/dcmitype/StillImage"/>
    <dc:date>2023-11-18T17:51:15.918878</dc:date>
    <dc:format>image/svg+xml</dc:format>
    <dc:creator>
     <cc:Agent>
      <dc:title>Matplotlib v3.8.0, https://matplotlib.org/</dc:title>
     </cc:Agent>
    </dc:creator>
   </cc:Work>
  </rdf:RDF>
 </metadata>
 <defs>
  <style type="text/css">*{stroke-linejoin: round; stroke-linecap: butt}</style>
 </defs>
 <g id="figure_1">
  <g id="patch_1">
   <path d="M 0 648 
L 288 648 
L 288 0 
L 0 0 
z
" style="fill: #ffffff"/>
  </g>
  <g id="axes_1">
   <g id="patch_2">
    <path d="M 57.17 190.626667 
L 277.2 190.626667 
L 277.2 10.8 
L 57.17 10.8 
z
" style="fill: #ffffff"/>
   </g>
   <g id="PolyCollection_1">
    <path d="M 23.319231 190.626667 
L 23.319231 190.626667 
L 25.011769 190.626667 
L 26.704308 190.493831 
L 28.396846 190.593458 
L 30.089385 190.593458 
L 31.781923 190.626667 
L 33.474462 190.626667 
L 35.167 190.626667 
L 36.859538 190.626667 
L 38.552077 190.626667 
L 40.244615 190.626667 
L 41.937154 190.626667 
L 43.629692 190.626667 
L 45.322231 190.626667 
L 47.014769 190.626667 
L 48.707308 190.626667 
L 50.399846 190.626667 
L 52.092385 190.626667 
L 53.784923 190.626667 
L 55.477462 190.626667 
L 57.17 190.626667 
L 58.862538 190.626667 
L 60.555077 190.626667 
L 62.247615 190.626667 
L 63.940154 190.626667 
L 65.632692 190.626667 
L 67.325231 190.626667 
L 69.017769 190.626667 
L 70.710308 190.626667 
L 72.402846 190.593458 
L 74.095385 190.626667 
L 75.787923 190.626667 
L 77.480462 190.626667 
L 79.173 190.626667 
L 80.865538 190.626667 
L 82.558077 190.626667 
L 84.250615 190.626667 
L 85.943154 190.626667 
L 87.635692 190.626667 
L 89.328231 190.626667 
L 91.020769 190.626667 
L 92.713308 190.626667 
L 94.405846 190.626667 
L 96.098385 190.626667 
L 97.790923 190.626667 
L 99.483462 190.626667 
L 101.176 190.626667 
L 102.868538 190.626667 
L 104.561077 190.626667 
L 106.253615 190.626667 
L 107.946154 190.626667 
L 109.638692 190.626667 
L 111.331231 190.626667 
L 113.023769 190.626667 
L 114.716308 190.626667 
L 116.408846 190.626667 
L 118.101385 190.626667 
L 119.793923 190.626667 
L 121.486462 190.626667 
L 123.179 190.626667 
L 124.871538 190.626667 
L 126.564077 190.626667 
L 128.256615 190.593458 
L 129.949154 190.593458 
L 131.641692 190.593458 
L 133.334231 190.626667 
L 135.026769 190.593458 
L 136.719308 190.593458 
L 138.411846 190.593458 
L 140.104385 190.560249 
L 141.796923 190.52704 
L 143.489462 190.427413 
L 145.182 190.394204 
L 146.874538 190.360995 
L 148.567077 190.19495 
L 150.259615 190.128532 
L 151.952154 190.19495 
L 153.644692 190.095323 
L 155.337231 189.763233 
L 157.029769 189.663606 
L 158.722308 189.099053 
L 160.414846 189.364725 
L 162.107385 188.86659 
L 163.799923 189.099053 
L 165.492462 188.23562 
L 167.185 188.202411 
L 168.877538 187.737485 
L 170.570077 187.23935 
L 172.262615 187.372186 
L 173.955154 186.209871 
L 175.647692 184.781885 
L 177.340231 184.217332 
L 179.032769 183.187853 
L 180.725308 181.627031 
L 182.417846 179.103148 
L 184.110385 177.509117 
L 185.802923 174.819189 
L 187.495462 172.428142 
L 189.188 168.907989 
L 190.880538 166.550151 
L 192.573077 163.461715 
L 194.265615 161.934102 
L 195.958154 159.67589 
L 197.650692 156.819918 
L 199.343231 156.321783 
L 201.035769 152.868048 
L 202.728308 152.004614 
L 204.420846 150.908718 
L 206.113385 151.938196 
L 207.805923 149.978866 
L 209.498462 149.580358 
L 211.191 151.705733 
L 212.883538 150.975136 
L 214.576077 150.344165 
L 216.268615 149.547149 
L 217.961154 152.735212 
L 219.653692 149.580358 
L 221.346231 151.938196 
L 223.038769 153.698273 
L 224.731308 153.897527 
L 226.423846 154.296034 
L 228.116385 154.42887 
L 229.808923 155.325513 
L 231.501462 158.38074 
L 233.194 157.450888 
L 234.886538 160.373279 
L 236.579077 162.266191 
L 238.271615 164.225522 
L 239.964154 164.590821 
L 241.656692 165.354627 
L 243.349231 168.044555 
L 245.041769 168.708735 
L 246.734308 169.970677 
L 248.426846 171.631126 
L 250.119385 170.535229 
L 251.811923 173.092321 
L 253.504462 175.549786 
L 255.197 175.715831 
L 256.889538 174.619935 
L 258.582077 176.74531 
L 260.274615 176.645683 
L 261.967154 178.04046 
L 263.659692 176.977773 
L 265.352231 177.940833 
L 267.044769 178.937103 
L 268.737308 180.36509 
L 270.429846 180.531135 
L 272.122385 182.490465 
L 273.814923 180.896433 
L 275.507462 181.162105 
L 277.2 181.892703 
L 278.892538 182.756137 
L 280.585077 183.586361 
L 282.277615 183.918451 
L 283.970154 184.815094 
L 285.662692 184.483004 
L 287.355231 185.246811 
L 289.047769 184.981139 
L 290.740308 185.479274 
L 292.432846 186.342707 
L 294.125385 185.811363 
L 295.817923 185.811363 
L 297.510462 186.741215 
L 299.203 186.874051 
L 300.895538 186.641588 
L 302.588077 187.837112 
L 304.280615 187.505022 
L 305.973154 187.737485 
L 307.665692 187.172932 
L 309.358231 187.57144 
L 311.050769 187.671067 
L 312.743308 188.368456 
L 314.435846 188.335247 
L 316.128385 188.501291 
L 317.820923 188.501291 
L 319.513462 188.434873 
L 321.206 188.5345 
L 322.898538 189.032635 
L 324.591077 188.634127 
L 326.283615 188.800172 
L 327.976154 189.032635 
L 329.668692 188.567709 
L 331.361231 188.966217 
L 333.053769 188.999426 
L 334.746308 189.265098 
L 336.438846 189.397934 
L 338.131385 189.331516 
L 339.823923 189.265098 
L 341.516462 189.497561 
L 343.209 189.630397 
L 344.901538 189.962487 
L 346.594077 189.663606 
L 348.286615 189.597188 
L 349.979154 189.763233 
L 351.671692 189.19868 
L 353.364231 189.763233 
L 355.056769 189.796442 
L 356.749308 189.995696 
L 358.441846 190.028905 
L 360.134385 189.962487 
L 361.826923 189.730024 
L 363.519462 190.161741 
L 365.212 189.929278 
L 366.904538 190.128532 
L 368.597077 189.896069 
L 370.289615 189.995696 
L 371.982154 190.062114 
L 373.674692 190.228159 
L 375.367231 190.294577 
L 377.059769 190.128532 
L 378.752308 190.128532 
L 380.444846 190.228159 
L 382.137385 190.19495 
L 383.829923 190.294577 
L 385.522462 190.294577 
L 387.215 190.228159 
L 388.907538 190.19495 
L 390.600077 190.394204 
L 392.292615 190.228159 
L 393.985154 190.19495 
L 395.677692 190.427413 
L 397.370231 190.19495 
L 399.062769 190.52704 
L 400.755308 190.394204 
L 402.447846 190.493831 
L 404.140385 190.460622 
L 405.832923 190.427413 
L 407.525462 190.394204 
L 409.218 190.52704 
L 410.910538 190.493831 
L 412.603077 190.52704 
L 414.295615 190.52704 
L 415.988154 190.593458 
L 417.680692 190.52704 
L 419.373231 190.493831 
L 421.065769 190.394204 
L 422.758308 190.593458 
L 424.450846 190.560249 
L 426.143385 190.52704 
L 427.835923 190.427413 
L 429.528462 190.493831 
L 431.221 190.626667 
L 432.913538 190.593458 
L 434.606077 190.52704 
L 436.298615 190.52704 
L 437.991154 190.593458 
L 439.683692 190.593458 
L 441.376231 190.560249 
L 443.068769 190.560249 
L 444.761308 190.52704 
L 446.453846 190.560249 
L 448.146385 190.626667 
L 449.838923 190.593458 
L 451.531462 190.593458 
L 453.224 190.593458 
L 454.916538 190.52704 
L 454.916538 190.626667 
L 454.916538 190.626667 
L 453.224 190.626667 
L 451.531462 190.626667 
L 449.838923 190.626667 
L 448.146385 190.626667 
L 446.453846 190.626667 
L 444.761308 190.626667 
L 443.068769 190.626667 
L 441.376231 190.626667 
L 439.683692 190.626667 
L 437.991154 190.626667 
L 436.298615 190.626667 
L 434.606077 190.626667 
L 432.913538 190.626667 
L 431.221 190.626667 
L 429.528462 190.626667 
L 427.835923 190.626667 
L 426.143385 190.626667 
L 424.450846 190.626667 
L 422.758308 190.626667 
L 421.065769 190.626667 
L 419.373231 190.626667 
L 417.680692 190.626667 
L 415.988154 190.626667 
L 414.295615 190.626667 
L 412.603077 190.626667 
L 410.910538 190.626667 
L 409.218 190.626667 
L 407.525462 190.626667 
L 405.832923 190.626667 
L 404.140385 190.626667 
L 402.447846 190.626667 
L 400.755308 190.626667 
L 399.062769 190.626667 
L 397.370231 190.626667 
L 395.677692 190.626667 
L 393.985154 190.626667 
L 392.292615 190.626667 
L 390.600077 190.626667 
L 388.907538 190.626667 
L 387.215 190.626667 
L 385.522462 190.626667 
L 383.829923 190.626667 
L 382.137385 190.626667 
L 380.444846 190.626667 
L 378.752308 190.626667 
L 377.059769 190.626667 
L 375.367231 190.626667 
L 373.674692 190.626667 
L 371.982154 190.626667 
L 370.289615 190.626667 
L 368.597077 190.626667 
L 366.904538 190.626667 
L 365.212 190.626667 
L 363.519462 190.626667 
L 361.826923 190.626667 
L 360.134385 190.626667 
L 358.441846 190.626667 
L 356.749308 190.626667 
L 355.056769 190.626667 
L 353.364231 190.626667 
L 351.671692 190.626667 
L 349.979154 190.626667 
L 348.286615 190.626667 
L 346.594077 190.626667 
L 344.901538 190.626667 
L 343.209 190.626667 
L 341.516462 190.626667 
L 339.823923 190.626667 
L 338.131385 190.626667 
L 336.438846 190.626667 
L 334.746308 190.626667 
L 333.053769 190.626667 
L 331.361231 190.626667 
L 329.668692 190.626667 
L 327.976154 190.626667 
L 326.283615 190.626667 
L 324.591077 190.626667 
L 322.898538 190.626667 
L 321.206 190.626667 
L 319.513462 190.626667 
L 317.820923 190.626667 
L 316.128385 190.626667 
L 314.435846 190.626667 
L 312.743308 190.626667 
L 311.050769 190.626667 
L 309.358231 190.626667 
L 307.665692 190.626667 
L 305.973154 190.626667 
L 304.280615 190.626667 
L 302.588077 190.626667 
L 300.895538 190.626667 
L 299.203 190.626667 
L 297.510462 190.626667 
L 295.817923 190.626667 
L 294.125385 190.626667 
L 292.432846 190.626667 
L 290.740308 190.626667 
L 289.047769 190.626667 
L 287.355231 190.626667 
L 285.662692 190.626667 
L 283.970154 190.626667 
L 282.277615 190.626667 
L 280.585077 190.626667 
L 278.892538 190.626667 
L 277.2 190.626667 
L 275.507462 190.626667 
L 273.814923 190.626667 
L 272.122385 190.626667 
L 270.429846 190.626667 
L 268.737308 190.626667 
L 267.044769 190.626667 
L 265.352231 190.626667 
L 263.659692 190.626667 
L 261.967154 190.626667 
L 260.274615 190.626667 
L 258.582077 190.626667 
L 256.889538 190.626667 
L 255.197 190.626667 
L 253.504462 190.626667 
L 251.811923 190.626667 
L 250.119385 190.626667 
L 248.426846 190.626667 
L 246.734308 190.626667 
L 245.041769 190.626667 
L 243.349231 190.626667 
L 241.656692 190.626667 
L 239.964154 190.626667 
L 238.271615 190.626667 
L 236.579077 190.626667 
L 234.886538 190.626667 
L 233.194 190.626667 
L 231.501462 190.626667 
L 229.808923 190.626667 
L 228.116385 190.626667 
L 226.423846 190.626667 
L 224.731308 190.626667 
L 223.038769 190.626667 
L 221.346231 190.626667 
L 219.653692 190.626667 
L 217.961154 190.626667 
L 216.268615 190.626667 
L 214.576077 190.626667 
L 212.883538 190.626667 
L 211.191 190.626667 
L 209.498462 190.626667 
L 207.805923 190.626667 
L 206.113385 190.626667 
L 204.420846 190.626667 
L 202.728308 190.626667 
L 201.035769 190.626667 
L 199.343231 190.626667 
L 197.650692 190.626667 
L 195.958154 190.626667 
L 194.265615 190.626667 
L 192.573077 190.626667 
L 190.880538 190.626667 
L 189.188 190.626667 
L 187.495462 190.626667 
L 185.802923 190.626667 
L 184.110385 190.626667 
L 182.417846 190.626667 
L 180.725308 190.626667 
L 179.032769 190.626667 
L 177.340231 190.626667 
L 175.647692 190.626667 
L 173.955154 190.626667 
L 172.262615 190.626667 
L 170.570077 190.626667 
L 168.877538 190.626667 
L 167.185 190.626667 
L 165.492462 190.626667 
L 163.799923 190.626667 
L 162.107385 190.626667 
L 160.414846 190.626667 
L 158.722308 190.626667 
L 157.029769 190.626667 
L 155.337231 190.626667 
L 153.644692 190.626667 
L 151.952154 190.626667 
L 150.259615 190.626667 
L 148.567077 190.626667 
L 146.874538 190.626667 
L 145.182 190.626667 
L 143.489462 190.626667 
L 141.796923 190.626667 
L 140.104385 190.626667 
L 138.411846 190.626667 
L 136.719308 190.626667 
L 135.026769 190.626667 
L 133.334231 190.626667 
L 131.641692 190.626667 
L 129.949154 190.626667 
L 128.256615 190.626667 
L 126.564077 190.626667 
L 124.871538 190.626667 
L 123.179 190.626667 
L 121.486462 190.626667 
L 119.793923 190.626667 
L 118.101385 190.626667 
L 116.408846 190.626667 
L 114.716308 190.626667 
L 113.023769 190.626667 
L 111.331231 190.626667 
L 109.638692 190.626667 
L 107.946154 190.626667 
L 106.253615 190.626667 
L 104.561077 190.626667 
L 102.868538 190.626667 
L 101.176 190.626667 
L 99.483462 190.626667 
L 97.790923 190.626667 
L 96.098385 190.626667 
L 94.405846 190.626667 
L 92.713308 190.626667 
L 91.020769 190.626667 
L 89.328231 190.626667 
L 87.635692 190.626667 
L 85.943154 190.626667 
L 84.250615 190.626667 
L 82.558077 190.626667 
L 80.865538 190.626667 
L 79.173 190.626667 
L 77.480462 190.626667 
L 75.787923 190.626667 
L 74.095385 190.626667 
L 72.402846 190.626667 
L 70.710308 190.626667 
L 69.017769 190.626667 
L 67.325231 190.626667 
L 65.632692 190.626667 
L 63.940154 190.626667 
L 62.247615 190.626667 
L 60.555077 190.626667 
L 58.862538 190.626667 
L 57.17 190.626667 
L 55.477462 190.626667 
L 53.784923 190.626667 
L 52.092385 190.626667 
L 50.399846 190.626667 
L 48.707308 190.626667 
L 47.014769 190.626667 
L 45.322231 190.626667 
L 43.629692 190.626667 
L 41.937154 190.626667 
L 40.244615 190.626667 
L 38.552077 190.626667 
L 36.859538 190.626667 
L 35.167 190.626667 
L 33.474462 190.626667 
L 31.781923 190.626667 
L 30.089385 190.626667 
L 28.396846 190.626667 
L 26.704308 190.626667 
L 25.011769 190.626667 
L 23.319231 190.626667 
z
" clip-path="url(#p80159e7c08)" style="fill: #ff0000; fill-opacity: 0.4; stroke: #ff0000; stroke-opacity: 0.4"/>
   </g>
   <g id="matplotlib.axis_1">
    <g id="xtick_1">
     <g id="line2d_1">
      <defs>
       <path id="ma6fe8ee2b6" d="M 0 0 
L 0 3.5 
" style="stroke: #000000; stroke-width: 0.8"/>
      </defs>
      <g>
       <use xlink:href="#ma6fe8ee2b6" x="57.17" y="190.626667" style="stroke: #000000; stroke-width: 0.8"/>
      </g>
     </g>
     <g id="text_1">
      <!-- 20 -->
      <g transform="translate(50.8075 205.225104) scale(0.1 -0.1)">
       <defs>
        <path id="DejaVuSans-32" d="M 1228 531 
L 3431 531 
L 3431 0 
L 469 0 
L 469 531 
Q 828 903 1448 1529 
Q 2069 2156 2228 2338 
Q 2531 2678 2651 2914 
Q 2772 3150 2772 3378 
Q 2772 3750 2511 3984 
Q 2250 4219 1831 4219 
Q 1534 4219 1204 4116 
Q 875 4013 500 3803 
L 500 4441 
Q 881 4594 1212 4672 
Q 1544 4750 1819 4750 
Q 2544 4750 2975 4387 
Q 3406 4025 3406 3419 
Q 3406 3131 3298 2873 
Q 3191 2616 2906 2266 
Q 2828 2175 2409 1742 
Q 1991 1309 1228 531 
z
" transform="scale(0.015625)"/>
        <path id="DejaVuSans-30" d="M 2034 4250 
Q 1547 4250 1301 3770 
Q 1056 3291 1056 2328 
Q 1056 1369 1301 889 
Q 1547 409 2034 409 
Q 2525 409 2770 889 
Q 3016 1369 3016 2328 
Q 3016 3291 2770 3770 
Q 2525 4250 2034 4250 
z
M 2034 4750 
Q 2819 4750 3233 4129 
Q 3647 3509 3647 2328 
Q 3647 1150 3233 529 
Q 2819 -91 2034 -91 
Q 1250 -91 836 529 
Q 422 1150 422 2328 
Q 422 3509 836 4129 
Q 1250 4750 2034 4750 
z
" transform="scale(0.015625)"/>
       </defs>
       <use xlink:href="#DejaVuSans-32"/>
       <use xlink:href="#DejaVuSans-30" x="63.623047"/>
      </g>
     </g>
    </g>
    <g id="xtick_2">
     <g id="line2d_2">
      <g>
       <use xlink:href="#ma6fe8ee2b6" x="91.020769" y="190.626667" style="stroke: #000000; stroke-width: 0.8"/>
      </g>
     </g>
     <g id="text_2">
      <!-- 40 -->
      <g transform="translate(84.658269 205.225104) scale(0.1 -0.1)">
       <defs>
        <path id="DejaVuSans-34" d="M 2419 4116 
L 825 1625 
L 2419 1625 
L 2419 4116 
z
M 2253 4666 
L 3047 4666 
L 3047 1625 
L 3713 1625 
L 3713 1100 
L 3047 1100 
L 3047 0 
L 2419 0 
L 2419 1100 
L 313 1100 
L 313 1709 
L 2253 4666 
z
" transform="scale(0.015625)"/>
       </defs>
       <use xlink:href="#DejaVuSans-34"/>
       <use xlink:href="#DejaVuSans-30" x="63.623047"/>
      </g>
     </g>
    </g>
    <g id="xtick_3">
     <g id="line2d_3">
      <g>
       <use xlink:href="#ma6fe8ee2b6" x="124.871538" y="190.626667" style="stroke: #000000; stroke-width: 0.8"/>
      </g>
     </g>
     <g id="text_3">
      <!-- 60 -->
      <g transform="translate(118.509038 205.225104) scale(0.1 -0.1)">
       <defs>
        <path id="DejaVuSans-36" d="M 2113 2584 
Q 1688 2584 1439 2293 
Q 1191 2003 1191 1497 
Q 1191 994 1439 701 
Q 1688 409 2113 409 
Q 2538 409 2786 701 
Q 3034 994 3034 1497 
Q 3034 2003 2786 2293 
Q 2538 2584 2113 2584 
z
M 3366 4563 
L 3366 3988 
Q 3128 4100 2886 4159 
Q 2644 4219 2406 4219 
Q 1781 4219 1451 3797 
Q 1122 3375 1075 2522 
Q 1259 2794 1537 2939 
Q 1816 3084 2150 3084 
Q 2853 3084 3261 2657 
Q 3669 2231 3669 1497 
Q 3669 778 3244 343 
Q 2819 -91 2113 -91 
Q 1303 -91 875 529 
Q 447 1150 447 2328 
Q 447 3434 972 4092 
Q 1497 4750 2381 4750 
Q 2619 4750 2861 4703 
Q 3103 4656 3366 4563 
z
" transform="scale(0.015625)"/>
       </defs>
       <use xlink:href="#DejaVuSans-36"/>
       <use xlink:href="#DejaVuSans-30" x="63.623047"/>
      </g>
     </g>
    </g>
    <g id="xtick_4">
     <g id="line2d_4">
      <g>
       <use xlink:href="#ma6fe8ee2b6" x="158.722308" y="190.626667" style="stroke: #000000; stroke-width: 0.8"/>
      </g>
     </g>
     <g id="text_4">
      <!-- 80 -->
      <g transform="translate(152.359808 205.225104) scale(0.1 -0.1)">
       <defs>
        <path id="DejaVuSans-38" d="M 2034 2216 
Q 1584 2216 1326 1975 
Q 1069 1734 1069 1313 
Q 1069 891 1326 650 
Q 1584 409 2034 409 
Q 2484 409 2743 651 
Q 3003 894 3003 1313 
Q 3003 1734 2745 1975 
Q 2488 2216 2034 2216 
z
M 1403 2484 
Q 997 2584 770 2862 
Q 544 3141 544 3541 
Q 544 4100 942 4425 
Q 1341 4750 2034 4750 
Q 2731 4750 3128 4425 
Q 3525 4100 3525 3541 
Q 3525 3141 3298 2862 
Q 3072 2584 2669 2484 
Q 3125 2378 3379 2068 
Q 3634 1759 3634 1313 
Q 3634 634 3220 271 
Q 2806 -91 2034 -91 
Q 1263 -91 848 271 
Q 434 634 434 1313 
Q 434 1759 690 2068 
Q 947 2378 1403 2484 
z
M 1172 3481 
Q 1172 3119 1398 2916 
Q 1625 2713 2034 2713 
Q 2441 2713 2670 2916 
Q 2900 3119 2900 3481 
Q 2900 3844 2670 4047 
Q 2441 4250 2034 4250 
Q 1625 4250 1398 4047 
Q 1172 3844 1172 3481 
z
" transform="scale(0.015625)"/>
       </defs>
       <use xlink:href="#DejaVuSans-38"/>
       <use xlink:href="#DejaVuSans-30" x="63.623047"/>
      </g>
     </g>
    </g>
    <g id="xtick_5">
     <g id="line2d_5">
      <g>
       <use xlink:href="#ma6fe8ee2b6" x="192.573077" y="190.626667" style="stroke: #000000; stroke-width: 0.8"/>
      </g>
     </g>
     <g id="text_5">
      <!-- 100 -->
      <g transform="translate(183.029327 205.225104) scale(0.1 -0.1)">
       <defs>
        <path id="DejaVuSans-31" d="M 794 531 
L 1825 531 
L 1825 4091 
L 703 3866 
L 703 4441 
L 1819 4666 
L 2450 4666 
L 2450 531 
L 3481 531 
L 3481 0 
L 794 0 
L 794 531 
z
" transform="scale(0.015625)"/>
       </defs>
       <use xlink:href="#DejaVuSans-31"/>
       <use xlink:href="#DejaVuSans-30" x="63.623047"/>
       <use xlink:href="#DejaVuSans-30" x="127.246094"/>
      </g>
     </g>
    </g>
    <g id="xtick_6">
     <g id="line2d_6">
      <g>
       <use xlink:href="#ma6fe8ee2b6" x="226.423846" y="190.626667" style="stroke: #000000; stroke-width: 0.8"/>
      </g>
     </g>
     <g id="text_6">
      <!-- 120 -->
      <g transform="translate(216.880096 205.225104) scale(0.1 -0.1)">
       <use xlink:href="#DejaVuSans-31"/>
       <use xlink:href="#DejaVuSans-32" x="63.623047"/>
       <use xlink:href="#DejaVuSans-30" x="127.246094"/>
      </g>
     </g>
    </g>
    <g id="xtick_7">
     <g id="line2d_7">
      <g>
       <use xlink:href="#ma6fe8ee2b6" x="260.274615" y="190.626667" style="stroke: #000000; stroke-width: 0.8"/>
      </g>
     </g>
     <g id="text_7">
      <!-- 140 -->
      <g transform="translate(250.730865 205.225104) scale(0.1 -0.1)">
       <use xlink:href="#DejaVuSans-31"/>
       <use xlink:href="#DejaVuSans-34" x="63.623047"/>
       <use xlink:href="#DejaVuSans-30" x="127.246094"/>
      </g>
     </g>
    </g>
   </g>
   <g id="matplotlib.axis_2">
    <g id="ytick_1">
     <g id="line2d_8">
      <defs>
       <path id="m579bd3cb44" d="M 0 0 
L -3.5 0 
" style="stroke: #000000; stroke-width: 0.8"/>
      </defs>
      <g>
       <use xlink:href="#m579bd3cb44" x="57.17" y="190.626667" style="stroke: #000000; stroke-width: 0.8"/>
      </g>
     </g>
     <g id="text_8">
      <!-- 0 -->
      <g transform="translate(43.8075 194.425885) scale(0.1 -0.1)">
       <use xlink:href="#DejaVuSans-30"/>
      </g>
     </g>
    </g>
    <g id="ytick_2">
     <g id="line2d_9">
      <g>
       <use xlink:href="#m579bd3cb44" x="57.17" y="157.417679" style="stroke: #000000; stroke-width: 0.8"/>
      </g>
     </g>
     <g id="text_9">
      <!-- 1000 -->
      <g transform="translate(24.72 161.216898) scale(0.1 -0.1)">
       <use xlink:href="#DejaVuSans-31"/>
       <use xlink:href="#DejaVuSans-30" x="63.623047"/>
       <use xlink:href="#DejaVuSans-30" x="127.246094"/>
       <use xlink:href="#DejaVuSans-30" x="190.869141"/>
      </g>
     </g>
    </g>
    <g id="ytick_3">
     <g id="line2d_10">
      <g>
       <use xlink:href="#m579bd3cb44" x="57.17" y="124.208692" style="stroke: #000000; stroke-width: 0.8"/>
      </g>
     </g>
     <g id="text_10">
      <!-- 2000 -->
      <g transform="translate(24.72 128.007911) scale(0.1 -0.1)">
       <use xlink:href="#DejaVuSans-32"/>
       <use xlink:href="#DejaVuSans-30" x="63.623047"/>
       <use xlink:href="#DejaVuSans-30" x="127.246094"/>
       <use xlink:href="#DejaVuSans-30" x="190.869141"/>
      </g>
     </g>
    </g>
    <g id="ytick_4">
     <g id="line2d_11">
      <g>
       <use xlink:href="#m579bd3cb44" x="57.17" y="90.999705" style="stroke: #000000; stroke-width: 0.8"/>
      </g>
     </g>
     <g id="text_11">
      <!-- 3000 -->
      <g transform="translate(24.72 94.798923) scale(0.1 -0.1)">
       <defs>
        <path id="DejaVuSans-33" d="M 2597 2516 
Q 3050 2419 3304 2112 
Q 3559 1806 3559 1356 
Q 3559 666 3084 287 
Q 2609 -91 1734 -91 
Q 1441 -91 1130 -33 
Q 819 25 488 141 
L 488 750 
Q 750 597 1062 519 
Q 1375 441 1716 441 
Q 2309 441 2620 675 
Q 2931 909 2931 1356 
Q 2931 1769 2642 2001 
Q 2353 2234 1838 2234 
L 1294 2234 
L 1294 2753 
L 1863 2753 
Q 2328 2753 2575 2939 
Q 2822 3125 2822 3475 
Q 2822 3834 2567 4026 
Q 2313 4219 1838 4219 
Q 1578 4219 1281 4162 
Q 984 4106 628 3988 
L 628 4550 
Q 988 4650 1302 4700 
Q 1616 4750 1894 4750 
Q 2613 4750 3031 4423 
Q 3450 4097 3450 3541 
Q 3450 3153 3228 2886 
Q 3006 2619 2597 2516 
z
" transform="scale(0.015625)"/>
       </defs>
       <use xlink:href="#DejaVuSans-33"/>
       <use xlink:href="#DejaVuSans-30" x="63.623047"/>
       <use xlink:href="#DejaVuSans-30" x="127.246094"/>
       <use xlink:href="#DejaVuSans-30" x="190.869141"/>
      </g>
     </g>
    </g>
    <g id="ytick_5">
     <g id="line2d_12">
      <g>
       <use xlink:href="#m579bd3cb44" x="57.17" y="57.790717" style="stroke: #000000; stroke-width: 0.8"/>
      </g>
     </g>
     <g id="text_12">
      <!-- 4000 -->
      <g transform="translate(24.72 61.589936) scale(0.1 -0.1)">
       <use xlink:href="#DejaVuSans-34"/>
       <use xlink:href="#DejaVuSans-30" x="63.623047"/>
       <use xlink:href="#DejaVuSans-30" x="127.246094"/>
       <use xlink:href="#DejaVuSans-30" x="190.869141"/>
      </g>
     </g>
    </g>
    <g id="ytick_6">
     <g id="line2d_13">
      <g>
       <use xlink:href="#m579bd3cb44" x="57.17" y="24.58173" style="stroke: #000000; stroke-width: 0.8"/>
      </g>
     </g>
     <g id="text_13">
      <!-- 5000 -->
      <g transform="translate(24.72 28.380949) scale(0.1 -0.1)">
       <defs>
        <path id="DejaVuSans-35" d="M 691 4666 
L 3169 4666 
L 3169 4134 
L 1269 4134 
L 1269 2991 
Q 1406 3038 1543 3061 
Q 1681 3084 1819 3084 
Q 2600 3084 3056 2656 
Q 3513 2228 3513 1497 
Q 3513 744 3044 326 
Q 2575 -91 1722 -91 
Q 1428 -91 1123 -41 
Q 819 9 494 109 
L 494 744 
Q 775 591 1075 516 
Q 1375 441 1709 441 
Q 2250 441 2565 725 
Q 2881 1009 2881 1497 
Q 2881 1984 2565 2268 
Q 2250 2553 1709 2553 
Q 1456 2553 1204 2497 
Q 953 2441 691 2322 
L 691 4666 
z
" transform="scale(0.015625)"/>
       </defs>
       <use xlink:href="#DejaVuSans-35"/>
       <use xlink:href="#DejaVuSans-30" x="63.623047"/>
       <use xlink:href="#DejaVuSans-30" x="127.246094"/>
       <use xlink:href="#DejaVuSans-30" x="190.869141"/>
      </g>
     </g>
    </g>
    <g id="text_14">
     <!-- Pixel Frequency -->
     <g transform="translate(18.640313 139.69224) rotate(-90) scale(0.1 -0.1)">
      <defs>
       <path id="DejaVuSans-50" d="M 1259 4147 
L 1259 2394 
L 2053 2394 
Q 2494 2394 2734 2622 
Q 2975 2850 2975 3272 
Q 2975 3691 2734 3919 
Q 2494 4147 2053 4147 
L 1259 4147 
z
M 628 4666 
L 2053 4666 
Q 2838 4666 3239 4311 
Q 3641 3956 3641 3272 
Q 3641 2581 3239 2228 
Q 2838 1875 2053 1875 
L 1259 1875 
L 1259 0 
L 628 0 
L 628 4666 
z
" transform="scale(0.015625)"/>
       <path id="DejaVuSans-69" d="M 603 3500 
L 1178 3500 
L 1178 0 
L 603 0 
L 603 3500 
z
M 603 4863 
L 1178 4863 
L 1178 4134 
L 603 4134 
L 603 4863 
z
" transform="scale(0.015625)"/>
       <path id="DejaVuSans-78" d="M 3513 3500 
L 2247 1797 
L 3578 0 
L 2900 0 
L 1881 1375 
L 863 0 
L 184 0 
L 1544 1831 
L 300 3500 
L 978 3500 
L 1906 2253 
L 2834 3500 
L 3513 3500 
z
" transform="scale(0.015625)"/>
       <path id="DejaVuSans-65" d="M 3597 1894 
L 3597 1613 
L 953 1613 
Q 991 1019 1311 708 
Q 1631 397 2203 397 
Q 2534 397 2845 478 
Q 3156 559 3463 722 
L 3463 178 
Q 3153 47 2828 -22 
Q 2503 -91 2169 -91 
Q 1331 -91 842 396 
Q 353 884 353 1716 
Q 353 2575 817 3079 
Q 1281 3584 2069 3584 
Q 2775 3584 3186 3129 
Q 3597 2675 3597 1894 
z
M 3022 2063 
Q 3016 2534 2758 2815 
Q 2500 3097 2075 3097 
Q 1594 3097 1305 2825 
Q 1016 2553 972 2059 
L 3022 2063 
z
" transform="scale(0.015625)"/>
       <path id="DejaVuSans-6c" d="M 603 4863 
L 1178 4863 
L 1178 0 
L 603 0 
L 603 4863 
z
" transform="scale(0.015625)"/>
       <path id="DejaVuSans-20" transform="scale(0.015625)"/>
       <path id="DejaVuSans-46" d="M 628 4666 
L 3309 4666 
L 3309 4134 
L 1259 4134 
L 1259 2759 
L 3109 2759 
L 3109 2228 
L 1259 2228 
L 1259 0 
L 628 0 
L 628 4666 
z
" transform="scale(0.015625)"/>
       <path id="DejaVuSans-72" d="M 2631 2963 
Q 2534 3019 2420 3045 
Q 2306 3072 2169 3072 
Q 1681 3072 1420 2755 
Q 1159 2438 1159 1844 
L 1159 0 
L 581 0 
L 581 3500 
L 1159 3500 
L 1159 2956 
Q 1341 3275 1631 3429 
Q 1922 3584 2338 3584 
Q 2397 3584 2469 3576 
Q 2541 3569 2628 3553 
L 2631 2963 
z
" transform="scale(0.015625)"/>
       <path id="DejaVuSans-71" d="M 947 1747 
Q 947 1113 1208 752 
Q 1469 391 1925 391 
Q 2381 391 2643 752 
Q 2906 1113 2906 1747 
Q 2906 2381 2643 2742 
Q 2381 3103 1925 3103 
Q 1469 3103 1208 2742 
Q 947 2381 947 1747 
z
M 2906 525 
Q 2725 213 2448 61 
Q 2172 -91 1784 -91 
Q 1150 -91 751 415 
Q 353 922 353 1747 
Q 353 2572 751 3078 
Q 1150 3584 1784 3584 
Q 2172 3584 2448 3432 
Q 2725 3281 2906 2969 
L 2906 3500 
L 3481 3500 
L 3481 -1331 
L 2906 -1331 
L 2906 525 
z
" transform="scale(0.015625)"/>
       <path id="DejaVuSans-75" d="M 544 1381 
L 544 3500 
L 1119 3500 
L 1119 1403 
Q 1119 906 1312 657 
Q 1506 409 1894 409 
Q 2359 409 2629 706 
Q 2900 1003 2900 1516 
L 2900 3500 
L 3475 3500 
L 3475 0 
L 2900 0 
L 2900 538 
Q 2691 219 2414 64 
Q 2138 -91 1772 -91 
Q 1169 -91 856 284 
Q 544 659 544 1381 
z
M 1991 3584 
L 1991 3584 
z
" transform="scale(0.015625)"/>
       <path id="DejaVuSans-6e" d="M 3513 2113 
L 3513 0 
L 2938 0 
L 2938 2094 
Q 2938 2591 2744 2837 
Q 2550 3084 2163 3084 
Q 1697 3084 1428 2787 
Q 1159 2491 1159 1978 
L 1159 0 
L 581 0 
L 581 3500 
L 1159 3500 
L 1159 2956 
Q 1366 3272 1645 3428 
Q 1925 3584 2291 3584 
Q 2894 3584 3203 3211 
Q 3513 2838 3513 2113 
z
" transform="scale(0.015625)"/>
       <path id="DejaVuSans-63" d="M 3122 3366 
L 3122 2828 
Q 2878 2963 2633 3030 
Q 2388 3097 2138 3097 
Q 1578 3097 1268 2742 
Q 959 2388 959 1747 
Q 959 1106 1268 751 
Q 1578 397 2138 397 
Q 2388 397 2633 464 
Q 2878 531 3122 666 
L 3122 134 
Q 2881 22 2623 -34 
Q 2366 -91 2075 -91 
Q 1284 -91 818 406 
Q 353 903 353 1747 
Q 353 2603 823 3093 
Q 1294 3584 2113 3584 
Q 2378 3584 2631 3529 
Q 2884 3475 3122 3366 
z
" transform="scale(0.015625)"/>
       <path id="DejaVuSans-79" d="M 2059 -325 
Q 1816 -950 1584 -1140 
Q 1353 -1331 966 -1331 
L 506 -1331 
L 506 -850 
L 844 -850 
Q 1081 -850 1212 -737 
Q 1344 -625 1503 -206 
L 1606 56 
L 191 3500 
L 800 3500 
L 1894 763 
L 2988 3500 
L 3597 3500 
L 2059 -325 
z
" transform="scale(0.015625)"/>
      </defs>
      <use xlink:href="#DejaVuSans-50"/>
      <use xlink:href="#DejaVuSans-69" x="58.052734"/>
      <use xlink:href="#DejaVuSans-78" x="85.835938"/>
      <use xlink:href="#DejaVuSans-65" x="141.890625"/>
      <use xlink:href="#DejaVuSans-6c" x="203.414062"/>
      <use xlink:href="#DejaVuSans-20" x="231.197266"/>
      <use xlink:href="#DejaVuSans-46" x="262.984375"/>
      <use xlink:href="#DejaVuSans-72" x="313.253906"/>
      <use xlink:href="#DejaVuSans-65" x="352.117188"/>
      <use xlink:href="#DejaVuSans-71" x="413.640625"/>
      <use xlink:href="#DejaVuSans-75" x="477.117188"/>
      <use xlink:href="#DejaVuSans-65" x="540.496094"/>
      <use xlink:href="#DejaVuSans-6e" x="602.019531"/>
      <use xlink:href="#DejaVuSans-63" x="665.398438"/>
      <use xlink:href="#DejaVuSans-79" x="720.378906"/>
     </g>
    </g>
   </g>
   <g id="line2d_14">
    <path d="M 23.319231 190.626667 
L 25.011769 190.626667 
L 26.704308 190.493831 
L 30.089385 190.593458 
L 36.859538 190.626667 
L 141.796923 190.52704 
L 145.182 190.394204 
L 146.874538 190.360995 
L 150.259615 190.128532 
L 151.952154 190.19495 
L 153.644692 190.095323 
L 155.337231 189.763233 
L 157.029769 189.663606 
L 158.722308 189.099053 
L 160.414846 189.364725 
L 162.107385 188.86659 
L 163.799923 189.099053 
L 165.492462 188.23562 
L 167.185 188.202411 
L 170.570077 187.23935 
L 172.262615 187.372186 
L 173.955154 186.209871 
L 175.647692 184.781885 
L 177.340231 184.217332 
L 179.032769 183.187853 
L 180.725308 181.627031 
L 182.417846 179.103148 
L 184.110385 177.509117 
L 185.802923 174.819189 
L 187.495462 172.428142 
L 189.188 168.907989 
L 190.880538 166.550151 
L 192.573077 163.461715 
L 194.265615 161.934102 
L 195.958154 159.67589 
L 197.650692 156.819918 
L 199.343231 156.321783 
L 201.035769 152.868048 
L 202.728308 152.004614 
L 204.420846 150.908718 
L 206.113385 151.938196 
L 207.805923 149.978866 
L 209.498462 149.580358 
L 211.191 151.705733 
L 216.268615 149.547149 
L 217.961154 152.735212 
L 219.653692 149.580358 
L 221.346231 151.938196 
L 223.038769 153.698273 
L 224.731308 153.897527 
L 226.423846 154.296034 
L 228.116385 154.42887 
L 229.808923 155.325513 
L 231.501462 158.38074 
L 233.194 157.450888 
L 234.886538 160.373279 
L 238.271615 164.225522 
L 239.964154 164.590821 
L 241.656692 165.354627 
L 243.349231 168.044555 
L 245.041769 168.708735 
L 246.734308 169.970677 
L 248.426846 171.631126 
L 250.119385 170.535229 
L 253.504462 175.549786 
L 255.197 175.715831 
L 256.889538 174.619935 
L 258.582077 176.74531 
L 260.274615 176.645683 
L 261.967154 178.04046 
L 263.659692 176.977773 
L 267.044769 178.937103 
L 268.737308 180.36509 
L 270.429846 180.531135 
L 272.122385 182.490465 
L 273.814923 180.896433 
L 275.507462 181.162105 
L 277.2 181.892703 
L 280.585077 183.586361 
L 282.277615 183.918451 
L 283.970154 184.815094 
L 285.662692 184.483004 
L 287.355231 185.246811 
L 289 184.988637 
L 289 184.988637 
" clip-path="url(#p80159e7c08)" style="fill: none; stroke: #ff0000; stroke-width: 1.5; stroke-linecap: square"/>
   </g>
   <g id="patch_3">
    <path d="M 57.17 190.626667 
L 57.17 10.8 
" style="fill: none; stroke: #000000; stroke-width: 0.8; stroke-linejoin: miter; stroke-linecap: square"/>
   </g>
   <g id="patch_4">
    <path d="M 277.2 190.626667 
L 277.2 10.8 
" style="fill: none; stroke: #000000; stroke-width: 0.8; stroke-linejoin: miter; stroke-linecap: square"/>
   </g>
   <g id="patch_5">
    <path d="M 57.17 190.626667 
L 277.2 190.626667 
" style="fill: none; stroke: #000000; stroke-width: 0.8; stroke-linejoin: miter; stroke-linecap: square"/>
   </g>
   <g id="patch_6">
    <path d="M 57.17 10.8 
L 277.2 10.8 
" style="fill: none; stroke: #000000; stroke-width: 0.8; stroke-linejoin: miter; stroke-linecap: square"/>
   </g>
   <g id="text_15">
    <!-- Red Channel  -->
    <g transform="translate(197.506875 24.8) scale(0.12 -0.12)">
     <defs>
      <path id="DejaVuSans-52" d="M 2841 2188 
Q 3044 2119 3236 1894 
Q 3428 1669 3622 1275 
L 4263 0 
L 3584 0 
L 2988 1197 
Q 2756 1666 2539 1819 
Q 2322 1972 1947 1972 
L 1259 1972 
L 1259 0 
L 628 0 
L 628 4666 
L 2053 4666 
Q 2853 4666 3247 4331 
Q 3641 3997 3641 3322 
Q 3641 2881 3436 2590 
Q 3231 2300 2841 2188 
z
M 1259 4147 
L 1259 2491 
L 2053 2491 
Q 2509 2491 2742 2702 
Q 2975 2913 2975 3322 
Q 2975 3731 2742 3939 
Q 2509 4147 2053 4147 
L 1259 4147 
z
" transform="scale(0.015625)"/>
      <path id="DejaVuSans-64" d="M 2906 2969 
L 2906 4863 
L 3481 4863 
L 3481 0 
L 2906 0 
L 2906 525 
Q 2725 213 2448 61 
Q 2172 -91 1784 -91 
Q 1150 -91 751 415 
Q 353 922 353 1747 
Q 353 2572 751 3078 
Q 1150 3584 1784 3584 
Q 2172 3584 2448 3432 
Q 2725 3281 2906 2969 
z
M 947 1747 
Q 947 1113 1208 752 
Q 1469 391 1925 391 
Q 2381 391 2643 752 
Q 2906 1113 2906 1747 
Q 2906 2381 2643 2742 
Q 2381 3103 1925 3103 
Q 1469 3103 1208 2742 
Q 947 2381 947 1747 
z
" transform="scale(0.015625)"/>
      <path id="DejaVuSans-43" d="M 4122 4306 
L 4122 3641 
Q 3803 3938 3442 4084 
Q 3081 4231 2675 4231 
Q 1875 4231 1450 3742 
Q 1025 3253 1025 2328 
Q 1025 1406 1450 917 
Q 1875 428 2675 428 
Q 3081 428 3442 575 
Q 3803 722 4122 1019 
L 4122 359 
Q 3791 134 3420 21 
Q 3050 -91 2638 -91 
Q 1578 -91 968 557 
Q 359 1206 359 2328 
Q 359 3453 968 4101 
Q 1578 4750 2638 4750 
Q 3056 4750 3426 4639 
Q 3797 4528 4122 4306 
z
" transform="scale(0.015625)"/>
      <path id="DejaVuSans-68" d="M 3513 2113 
L 3513 0 
L 2938 0 
L 2938 2094 
Q 2938 2591 2744 2837 
Q 2550 3084 2163 3084 
Q 1697 3084 1428 2787 
Q 1159 2491 1159 1978 
L 1159 0 
L 581 0 
L 581 4863 
L 1159 4863 
L 1159 2956 
Q 1366 3272 1645 3428 
Q 1925 3584 2291 3584 
Q 2894 3584 3203 3211 
Q 3513 2838 3513 2113 
z
" transform="scale(0.015625)"/>
      <path id="DejaVuSans-61" d="M 2194 1759 
Q 1497 1759 1228 1600 
Q 959 1441 959 1056 
Q 959 750 1161 570 
Q 1363 391 1709 391 
Q 2188 391 2477 730 
Q 2766 1069 2766 1631 
L 2766 1759 
L 2194 1759 
z
M 3341 1997 
L 3341 0 
L 2766 0 
L 2766 531 
Q 2569 213 2275 61 
Q 1981 -91 1556 -91 
Q 1019 -91 701 211 
Q 384 513 384 1019 
Q 384 1609 779 1909 
Q 1175 2209 1959 2209 
L 2766 2209 
L 2766 2266 
Q 2766 2663 2505 2880 
Q 2244 3097 1772 3097 
Q 1472 3097 1187 3025 
Q 903 2953 641 2809 
L 641 3341 
Q 956 3463 1253 3523 
Q 1550 3584 1831 3584 
Q 2591 3584 2966 3190 
Q 3341 2797 3341 1997 
z
" transform="scale(0.015625)"/>
     </defs>
     <use xlink:href="#DejaVuSans-52"/>
     <use xlink:href="#DejaVuSans-65" x="64.982422"/>
     <use xlink:href="#DejaVuSans-64" x="126.505859"/>
     <use xlink:href="#DejaVuSans-20" x="189.982422"/>
     <use xlink:href="#DejaVuSans-43" x="221.769531"/>
     <use xlink:href="#DejaVuSans-68" x="291.59375"/>
     <use xlink:href="#DejaVuSans-61" x="354.972656"/>
     <use xlink:href="#DejaVuSans-6e" x="416.251953"/>
     <use xlink:href="#DejaVuSans-6e" x="479.630859"/>
     <use xlink:href="#DejaVuSans-65" x="543.009766"/>
     <use xlink:href="#DejaVuSans-6c" x="604.533203"/>
     <use xlink:href="#DejaVuSans-20" x="632.316406"/>
    </g>
   </g>
  </g>
  <g id="axes_2">
   <g id="patch_7">
    <path d="M 57.17 398.333333 
L 277.2 398.333333 
L 277.2 218.506667 
L 57.17 218.506667 
z
" style="fill: #ffffff"/>
   </g>
   <g id="PolyCollection_2">
    <path d="M 23.319231 398.333333 
L 23.319231 398.333333 
L 25.011769 398.300124 
L 26.704308 398.333333 
L 28.396846 398.333333 
L 30.089385 398.333333 
L 31.781923 398.300124 
L 33.474462 398.333333 
L 35.167 398.333333 
L 36.859538 398.333333 
L 38.552077 398.333333 
L 40.244615 398.333333 
L 41.937154 398.333333 
L 43.629692 398.333333 
L 45.322231 398.333333 
L 47.014769 398.333333 
L 48.707308 398.333333 
L 50.399846 398.333333 
L 52.092385 398.333333 
L 53.784923 398.333333 
L 55.477462 398.333333 
L 57.17 398.333333 
L 58.862538 398.333333 
L 60.555077 398.333333 
L 62.247615 398.333333 
L 63.940154 398.333333 
L 65.632692 398.333333 
L 67.325231 398.333333 
L 69.017769 398.333333 
L 70.710308 398.333333 
L 72.402846 398.333333 
L 74.095385 398.333333 
L 75.787923 398.333333 
L 77.480462 398.333333 
L 79.173 398.333333 
L 80.865538 398.333333 
L 82.558077 398.333333 
L 84.250615 398.333333 
L 85.943154 398.333333 
L 87.635692 398.333333 
L 89.328231 398.333333 
L 91.020769 398.333333 
L 92.713308 398.333333 
L 94.405846 398.333333 
L 96.098385 398.333333 
L 97.790923 398.333333 
L 99.483462 398.333333 
L 101.176 398.300124 
L 102.868538 398.300124 
L 104.561077 398.266915 
L 106.253615 398.333333 
L 107.946154 398.266915 
L 109.638692 398.200497 
L 111.331231 398.134079 
L 113.023769 398.10087 
L 114.716308 398.034452 
L 116.408846 397.835199 
L 118.101385 397.503109 
L 119.793923 397.104601 
L 121.486462 396.80572 
L 123.179 396.108331 
L 124.871538 394.813181 
L 126.564077 393.916538 
L 128.256615 390.662057 
L 129.949154 387.274741 
L 131.641692 383.754588 
L 133.334231 379.703091 
L 135.026769 374.788161 
L 136.719308 370.57062 
L 138.411846 365.091137 
L 140.104385 361.504566 
L 141.796923 356.423591 
L 143.489462 357.685533 
L 145.182 354.364634 
L 146.874538 352.87023 
L 148.567077 355.028814 
L 150.259615 357.253816 
L 151.952154 355.394113 
L 153.644692 361.106058 
L 155.337231 360.940014 
L 157.029769 362.03591 
L 158.722308 363.397479 
L 160.414846 365.423227 
L 162.107385 367.548602 
L 163.799923 367.747856 
L 165.492462 367.681438 
L 167.185 367.913901 
L 168.877538 368.61129 
L 170.570077 370.470993 
L 172.262615 370.603829 
L 173.955154 372.895249 
L 175.647692 372.762413 
L 177.340231 372.297487 
L 179.032769 371.500472 
L 180.725308 370.935919 
L 182.417846 373.692265 
L 184.110385 373.659056 
L 185.802923 374.854579 
L 187.495462 374.954206 
L 189.188 376.249357 
L 190.880538 376.415402 
L 192.573077 378.740031 
L 194.265615 378.507568 
L 195.958154 379.10533 
L 197.650692 380.898615 
L 199.343231 380.500107 
L 201.035769 380.73257 
L 202.728308 381.662422 
L 204.420846 381.994512 
L 206.113385 385.415037 
L 207.805923 382.658691 
L 209.498462 383.322871 
L 211.191 384.219514 
L 212.883538 385.049738 
L 214.576077 384.618022 
L 216.268615 386.344889 
L 217.961154 385.747127 
L 219.653692 386.510934 
L 221.346231 386.776606 
L 223.038769 387.93892 
L 224.731308 387.075487 
L 226.423846 388.470264 
L 228.116385 389.26728 
L 229.808923 389.134444 
L 231.501462 390.695266 
L 233.194 390.031086 
L 234.886538 390.662057 
L 236.579077 391.824372 
L 238.271615 391.757954 
L 239.964154 391.824372 
L 241.656692 392.388925 
L 243.349231 392.721014 
L 245.041769 392.388925 
L 246.734308 393.219149 
L 248.426846 393.617657 
L 250.119385 393.51803 
L 251.811923 393.883329 
L 253.504462 394.381464 
L 255.197 393.650866 
L 256.889538 394.016165 
L 258.582077 394.215419 
L 260.274615 394.215419 
L 261.967154 395.410942 
L 263.659692 394.813181 
L 265.352231 395.377733 
L 267.044769 395.112062 
L 268.737308 395.776241 
L 270.429846 395.278106 
L 272.122385 395.244898 
L 273.814923 394.912808 
L 275.507462 395.610196 
L 277.2 395.410942 
L 278.892538 396.008704 
L 280.585077 396.075122 
L 282.277615 395.842659 
L 283.970154 396.307585 
L 285.662692 395.975495 
L 287.355231 396.174749 
L 289.047769 396.108331 
L 290.740308 396.340794 
L 292.432846 396.241167 
L 294.125385 396.672884 
L 295.817923 396.971765 
L 297.510462 396.938556 
L 299.203 397.171019 
L 300.895538 396.938556 
L 302.588077 396.706093 
L 304.280615 397.204228 
L 305.973154 397.4699 
L 307.665692 397.403482 
L 309.358231 396.971765 
L 311.050769 397.370273 
L 312.743308 397.403482 
L 314.435846 397.303855 
L 316.128385 397.270646 
L 317.820923 397.303855 
L 319.513462 397.669154 
L 321.206 397.370273 
L 322.898538 397.602736 
L 324.591077 397.303855 
L 326.283615 397.536318 
L 327.976154 397.702363 
L 329.668692 397.536318 
L 331.361231 397.503109 
L 333.053769 397.80199 
L 334.746308 397.669154 
L 336.438846 397.503109 
L 338.131385 397.835199 
L 339.823923 397.901616 
L 341.516462 397.702363 
L 343.209 397.80199 
L 344.901538 397.702363 
L 346.594077 397.735572 
L 348.286615 397.735572 
L 349.979154 397.934825 
L 351.671692 397.80199 
L 353.364231 397.968034 
L 355.056769 397.735572 
L 356.749308 397.901616 
L 358.441846 397.934825 
L 360.134385 397.735572 
L 361.826923 397.835199 
L 363.519462 397.968034 
L 365.212 397.934825 
L 366.904538 398.134079 
L 368.597077 397.901616 
L 370.289615 397.835199 
L 371.982154 398.10087 
L 373.674692 398.067661 
L 375.367231 398.034452 
L 377.059769 397.934825 
L 378.752308 398.034452 
L 380.444846 398.067661 
L 382.137385 398.233706 
L 383.829923 398.001243 
L 385.522462 398.134079 
L 387.215 398.233706 
L 388.907538 398.001243 
L 390.600077 398.167288 
L 392.292615 398.134079 
L 393.985154 398.233706 
L 395.677692 398.167288 
L 397.370231 398.233706 
L 399.062769 398.167288 
L 400.755308 398.167288 
L 402.447846 398.233706 
L 404.140385 398.233706 
L 405.832923 398.10087 
L 407.525462 398.134079 
L 409.218 398.200497 
L 410.910538 398.300124 
L 412.603077 398.266915 
L 414.295615 398.333333 
L 415.988154 398.10087 
L 417.680692 398.300124 
L 419.373231 398.266915 
L 421.065769 398.167288 
L 422.758308 398.300124 
L 424.450846 398.167288 
L 426.143385 398.233706 
L 427.835923 398.266915 
L 429.528462 398.300124 
L 431.221 398.266915 
L 432.913538 398.300124 
L 434.606077 398.266915 
L 436.298615 398.333333 
L 437.991154 398.266915 
L 439.683692 398.300124 
L 441.376231 398.333333 
L 443.068769 398.300124 
L 444.761308 398.300124 
L 446.453846 398.333333 
L 448.146385 398.333333 
L 449.838923 398.333333 
L 451.531462 398.300124 
L 453.224 398.333333 
L 454.916538 398.300124 
L 454.916538 398.333333 
L 454.916538 398.333333 
L 453.224 398.333333 
L 451.531462 398.333333 
L 449.838923 398.333333 
L 448.146385 398.333333 
L 446.453846 398.333333 
L 444.761308 398.333333 
L 443.068769 398.333333 
L 441.376231 398.333333 
L 439.683692 398.333333 
L 437.991154 398.333333 
L 436.298615 398.333333 
L 434.606077 398.333333 
L 432.913538 398.333333 
L 431.221 398.333333 
L 429.528462 398.333333 
L 427.835923 398.333333 
L 426.143385 398.333333 
L 424.450846 398.333333 
L 422.758308 398.333333 
L 421.065769 398.333333 
L 419.373231 398.333333 
L 417.680692 398.333333 
L 415.988154 398.333333 
L 414.295615 398.333333 
L 412.603077 398.333333 
L 410.910538 398.333333 
L 409.218 398.333333 
L 407.525462 398.333333 
L 405.832923 398.333333 
L 404.140385 398.333333 
L 402.447846 398.333333 
L 400.755308 398.333333 
L 399.062769 398.333333 
L 397.370231 398.333333 
L 395.677692 398.333333 
L 393.985154 398.333333 
L 392.292615 398.333333 
L 390.600077 398.333333 
L 388.907538 398.333333 
L 387.215 398.333333 
L 385.522462 398.333333 
L 383.829923 398.333333 
L 382.137385 398.333333 
L 380.444846 398.333333 
L 378.752308 398.333333 
L 377.059769 398.333333 
L 375.367231 398.333333 
L 373.674692 398.333333 
L 371.982154 398.333333 
L 370.289615 398.333333 
L 368.597077 398.333333 
L 366.904538 398.333333 
L 365.212 398.333333 
L 363.519462 398.333333 
L 361.826923 398.333333 
L 360.134385 398.333333 
L 358.441846 398.333333 
L 356.749308 398.333333 
L 355.056769 398.333333 
L 353.364231 398.333333 
L 351.671692 398.333333 
L 349.979154 398.333333 
L 348.286615 398.333333 
L 346.594077 398.333333 
L 344.901538 398.333333 
L 343.209 398.333333 
L 341.516462 398.333333 
L 339.823923 398.333333 
L 338.131385 398.333333 
L 336.438846 398.333333 
L 334.746308 398.333333 
L 333.053769 398.333333 
L 331.361231 398.333333 
L 329.668692 398.333333 
L 327.976154 398.333333 
L 326.283615 398.333333 
L 324.591077 398.333333 
L 322.898538 398.333333 
L 321.206 398.333333 
L 319.513462 398.333333 
L 317.820923 398.333333 
L 316.128385 398.333333 
L 314.435846 398.333333 
L 312.743308 398.333333 
L 311.050769 398.333333 
L 309.358231 398.333333 
L 307.665692 398.333333 
L 305.973154 398.333333 
L 304.280615 398.333333 
L 302.588077 398.333333 
L 300.895538 398.333333 
L 299.203 398.333333 
L 297.510462 398.333333 
L 295.817923 398.333333 
L 294.125385 398.333333 
L 292.432846 398.333333 
L 290.740308 398.333333 
L 289.047769 398.333333 
L 287.355231 398.333333 
L 285.662692 398.333333 
L 283.970154 398.333333 
L 282.277615 398.333333 
L 280.585077 398.333333 
L 278.892538 398.333333 
L 277.2 398.333333 
L 275.507462 398.333333 
L 273.814923 398.333333 
L 272.122385 398.333333 
L 270.429846 398.333333 
L 268.737308 398.333333 
L 267.044769 398.333333 
L 265.352231 398.333333 
L 263.659692 398.333333 
L 261.967154 398.333333 
L 260.274615 398.333333 
L 258.582077 398.333333 
L 256.889538 398.333333 
L 255.197 398.333333 
L 253.504462 398.333333 
L 251.811923 398.333333 
L 250.119385 398.333333 
L 248.426846 398.333333 
L 246.734308 398.333333 
L 245.041769 398.333333 
L 243.349231 398.333333 
L 241.656692 398.333333 
L 239.964154 398.333333 
L 238.271615 398.333333 
L 236.579077 398.333333 
L 234.886538 398.333333 
L 233.194 398.333333 
L 231.501462 398.333333 
L 229.808923 398.333333 
L 228.116385 398.333333 
L 226.423846 398.333333 
L 224.731308 398.333333 
L 223.038769 398.333333 
L 221.346231 398.333333 
L 219.653692 398.333333 
L 217.961154 398.333333 
L 216.268615 398.333333 
L 214.576077 398.333333 
L 212.883538 398.333333 
L 211.191 398.333333 
L 209.498462 398.333333 
L 207.805923 398.333333 
L 206.113385 398.333333 
L 204.420846 398.333333 
L 202.728308 398.333333 
L 201.035769 398.333333 
L 199.343231 398.333333 
L 197.650692 398.333333 
L 195.958154 398.333333 
L 194.265615 398.333333 
L 192.573077 398.333333 
L 190.880538 398.333333 
L 189.188 398.333333 
L 187.495462 398.333333 
L 185.802923 398.333333 
L 184.110385 398.333333 
L 182.417846 398.333333 
L 180.725308 398.333333 
L 179.032769 398.333333 
L 177.340231 398.333333 
L 175.647692 398.333333 
L 173.955154 398.333333 
L 172.262615 398.333333 
L 170.570077 398.333333 
L 168.877538 398.333333 
L 167.185 398.333333 
L 165.492462 398.333333 
L 163.799923 398.333333 
L 162.107385 398.333333 
L 160.414846 398.333333 
L 158.722308 398.333333 
L 157.029769 398.333333 
L 155.337231 398.333333 
L 153.644692 398.333333 
L 151.952154 398.333333 
L 150.259615 398.333333 
L 148.567077 398.333333 
L 146.874538 398.333333 
L 145.182 398.333333 
L 143.489462 398.333333 
L 141.796923 398.333333 
L 140.104385 398.333333 
L 138.411846 398.333333 
L 136.719308 398.333333 
L 135.026769 398.333333 
L 133.334231 398.333333 
L 131.641692 398.333333 
L 129.949154 398.333333 
L 128.256615 398.333333 
L 126.564077 398.333333 
L 124.871538 398.333333 
L 123.179 398.333333 
L 121.486462 398.333333 
L 119.793923 398.333333 
L 118.101385 398.333333 
L 116.408846 398.333333 
L 114.716308 398.333333 
L 113.023769 398.333333 
L 111.331231 398.333333 
L 109.638692 398.333333 
L 107.946154 398.333333 
L 106.253615 398.333333 
L 104.561077 398.333333 
L 102.868538 398.333333 
L 101.176 398.333333 
L 99.483462 398.333333 
L 97.790923 398.333333 
L 96.098385 398.333333 
L 94.405846 398.333333 
L 92.713308 398.333333 
L 91.020769 398.333333 
L 89.328231 398.333333 
L 87.635692 398.333333 
L 85.943154 398.333333 
L 84.250615 398.333333 
L 82.558077 398.333333 
L 80.865538 398.333333 
L 79.173 398.333333 
L 77.480462 398.333333 
L 75.787923 398.333333 
L 74.095385 398.333333 
L 72.402846 398.333333 
L 70.710308 398.333333 
L 69.017769 398.333333 
L 67.325231 398.333333 
L 65.632692 398.333333 
L 63.940154 398.333333 
L 62.247615 398.333333 
L 60.555077 398.333333 
L 58.862538 398.333333 
L 57.17 398.333333 
L 55.477462 398.333333 
L 53.784923 398.333333 
L 52.092385 398.333333 
L 50.399846 398.333333 
L 48.707308 398.333333 
L 47.014769 398.333333 
L 45.322231 398.333333 
L 43.629692 398.333333 
L 41.937154 398.333333 
L 40.244615 398.333333 
L 38.552077 398.333333 
L 36.859538 398.333333 
L 35.167 398.333333 
L 33.474462 398.333333 
L 31.781923 398.333333 
L 30.089385 398.333333 
L 28.396846 398.333333 
L 26.704308 398.333333 
L 25.011769 398.333333 
L 23.319231 398.333333 
z
" clip-path="url(#p8e2b6b1d63)" style="fill: #008000; fill-opacity: 0.4; stroke: #008000; stroke-opacity: 0.4"/>
   </g>
   <g id="matplotlib.axis_3">
    <g id="xtick_8">
     <g id="line2d_15">
      <g>
       <use xlink:href="#ma6fe8ee2b6" x="57.17" y="398.333333" style="stroke: #000000; stroke-width: 0.8"/>
      </g>
     </g>
     <g id="text_16">
      <!-- 20 -->
      <g transform="translate(50.8075 412.931771) scale(0.1 -0.1)">
       <use xlink:href="#DejaVuSans-32"/>
       <use xlink:href="#DejaVuSans-30" x="63.623047"/>
      </g>
     </g>
    </g>
    <g id="xtick_9">
     <g id="line2d_16">
      <g>
       <use xlink:href="#ma6fe8ee2b6" x="91.020769" y="398.333333" style="stroke: #000000; stroke-width: 0.8"/>
      </g>
     </g>
     <g id="text_17">
      <!-- 40 -->
      <g transform="translate(84.658269 412.931771) scale(0.1 -0.1)">
       <use xlink:href="#DejaVuSans-34"/>
       <use xlink:href="#DejaVuSans-30" x="63.623047"/>
      </g>
     </g>
    </g>
    <g id="xtick_10">
     <g id="line2d_17">
      <g>
       <use xlink:href="#ma6fe8ee2b6" x="124.871538" y="398.333333" style="stroke: #000000; stroke-width: 0.8"/>
      </g>
     </g>
     <g id="text_18">
      <!-- 60 -->
      <g transform="translate(118.509038 412.931771) scale(0.1 -0.1)">
       <use xlink:href="#DejaVuSans-36"/>
       <use xlink:href="#DejaVuSans-30" x="63.623047"/>
      </g>
     </g>
    </g>
    <g id="xtick_11">
     <g id="line2d_18">
      <g>
       <use xlink:href="#ma6fe8ee2b6" x="158.722308" y="398.333333" style="stroke: #000000; stroke-width: 0.8"/>
      </g>
     </g>
     <g id="text_19">
      <!-- 80 -->
      <g transform="translate(152.359808 412.931771) scale(0.1 -0.1)">
       <use xlink:href="#DejaVuSans-38"/>
       <use xlink:href="#DejaVuSans-30" x="63.623047"/>
      </g>
     </g>
    </g>
    <g id="xtick_12">
     <g id="line2d_19">
      <g>
       <use xlink:href="#ma6fe8ee2b6" x="192.573077" y="398.333333" style="stroke: #000000; stroke-width: 0.8"/>
      </g>
     </g>
     <g id="text_20">
      <!-- 100 -->
      <g transform="translate(183.029327 412.931771) scale(0.1 -0.1)">
       <use xlink:href="#DejaVuSans-31"/>
       <use xlink:href="#DejaVuSans-30" x="63.623047"/>
       <use xlink:href="#DejaVuSans-30" x="127.246094"/>
      </g>
     </g>
    </g>
    <g id="xtick_13">
     <g id="line2d_20">
      <g>
       <use xlink:href="#ma6fe8ee2b6" x="226.423846" y="398.333333" style="stroke: #000000; stroke-width: 0.8"/>
      </g>
     </g>
     <g id="text_21">
      <!-- 120 -->
      <g transform="translate(216.880096 412.931771) scale(0.1 -0.1)">
       <use xlink:href="#DejaVuSans-31"/>
       <use xlink:href="#DejaVuSans-32" x="63.623047"/>
       <use xlink:href="#DejaVuSans-30" x="127.246094"/>
      </g>
     </g>
    </g>
    <g id="xtick_14">
     <g id="line2d_21">
      <g>
       <use xlink:href="#ma6fe8ee2b6" x="260.274615" y="398.333333" style="stroke: #000000; stroke-width: 0.8"/>
      </g>
     </g>
     <g id="text_22">
      <!-- 140 -->
      <g transform="translate(250.730865 412.931771) scale(0.1 -0.1)">
       <use xlink:href="#DejaVuSans-31"/>
       <use xlink:href="#DejaVuSans-34" x="63.623047"/>
       <use xlink:href="#DejaVuSans-30" x="127.246094"/>
      </g>
     </g>
    </g>
   </g>
   <g id="matplotlib.axis_4">
    <g id="ytick_7">
     <g id="line2d_22">
      <g>
       <use xlink:href="#m579bd3cb44" x="57.17" y="398.333333" style="stroke: #000000; stroke-width: 0.8"/>
      </g>
     </g>
     <g id="text_23">
      <!-- 0 -->
      <g transform="translate(43.8075 402.132552) scale(0.1 -0.1)">
       <use xlink:href="#DejaVuSans-30"/>
      </g>
     </g>
    </g>
    <g id="ytick_8">
     <g id="line2d_23">
      <g>
       <use xlink:href="#m579bd3cb44" x="57.17" y="365.124346" style="stroke: #000000; stroke-width: 0.8"/>
      </g>
     </g>
     <g id="text_24">
      <!-- 1000 -->
      <g transform="translate(24.72 368.923565) scale(0.1 -0.1)">
       <use xlink:href="#DejaVuSans-31"/>
       <use xlink:href="#DejaVuSans-30" x="63.623047"/>
       <use xlink:href="#DejaVuSans-30" x="127.246094"/>
       <use xlink:href="#DejaVuSans-30" x="190.869141"/>
      </g>
     </g>
    </g>
    <g id="ytick_9">
     <g id="line2d_24">
      <g>
       <use xlink:href="#m579bd3cb44" x="57.17" y="331.915359" style="stroke: #000000; stroke-width: 0.8"/>
      </g>
     </g>
     <g id="text_25">
      <!-- 2000 -->
      <g transform="translate(24.72 335.714577) scale(0.1 -0.1)">
       <use xlink:href="#DejaVuSans-32"/>
       <use xlink:href="#DejaVuSans-30" x="63.623047"/>
       <use xlink:href="#DejaVuSans-30" x="127.246094"/>
       <use xlink:href="#DejaVuSans-30" x="190.869141"/>
      </g>
     </g>
    </g>
    <g id="ytick_10">
     <g id="line2d_25">
      <g>
       <use xlink:href="#m579bd3cb44" x="57.17" y="298.706371" style="stroke: #000000; stroke-width: 0.8"/>
      </g>
     </g>
     <g id="text_26">
      <!-- 3000 -->
      <g transform="translate(24.72 302.50559) scale(0.1 -0.1)">
       <use xlink:href="#DejaVuSans-33"/>
       <use xlink:href="#DejaVuSans-30" x="63.623047"/>
       <use xlink:href="#DejaVuSans-30" x="127.246094"/>
       <use xlink:href="#DejaVuSans-30" x="190.869141"/>
      </g>
     </g>
    </g>
    <g id="ytick_11">
     <g id="line2d_26">
      <g>
       <use xlink:href="#m579bd3cb44" x="57.17" y="265.497384" style="stroke: #000000; stroke-width: 0.8"/>
      </g>
     </g>
     <g id="text_27">
      <!-- 4000 -->
      <g transform="translate(24.72 269.296603) scale(0.1 -0.1)">
       <use xlink:href="#DejaVuSans-34"/>
       <use xlink:href="#DejaVuSans-30" x="63.623047"/>
       <use xlink:href="#DejaVuSans-30" x="127.246094"/>
       <use xlink:href="#DejaVuSans-30" x="190.869141"/>
      </g>
     </g>
    </g>
    <g id="ytick_12">
     <g id="line2d_27">
      <g>
       <use xlink:href="#m579bd3cb44" x="57.17" y="232.288396" style="stroke: #000000; stroke-width: 0.8"/>
      </g>
     </g>
     <g id="text_28">
      <!-- 5000 -->
      <g transform="translate(24.72 236.087615) scale(0.1 -0.1)">
       <use xlink:href="#DejaVuSans-35"/>
       <use xlink:href="#DejaVuSans-30" x="63.623047"/>
       <use xlink:href="#DejaVuSans-30" x="127.246094"/>
       <use xlink:href="#DejaVuSans-30" x="190.869141"/>
      </g>
     </g>
    </g>
    <g id="text_29">
     <!-- Pixel Frequency -->
     <g transform="translate(18.640313 347.398906) rotate(-90) scale(0.1 -0.1)">
      <use xlink:href="#DejaVuSans-50"/>
      <use xlink:href="#DejaVuSans-69" x="58.052734"/>
      <use xlink:href="#DejaVuSans-78" x="85.835938"/>
      <use xlink:href="#DejaVuSans-65" x="141.890625"/>
      <use xlink:href="#DejaVuSans-6c" x="203.414062"/>
      <use xlink:href="#DejaVuSans-20" x="231.197266"/>
      <use xlink:href="#DejaVuSans-46" x="262.984375"/>
      <use xlink:href="#DejaVuSans-72" x="313.253906"/>
      <use xlink:href="#DejaVuSans-65" x="352.117188"/>
      <use xlink:href="#DejaVuSans-71" x="413.640625"/>
      <use xlink:href="#DejaVuSans-75" x="477.117188"/>
      <use xlink:href="#DejaVuSans-65" x="540.496094"/>
      <use xlink:href="#DejaVuSans-6e" x="602.019531"/>
      <use xlink:href="#DejaVuSans-63" x="665.398438"/>
      <use xlink:href="#DejaVuSans-79" x="720.378906"/>
     </g>
    </g>
   </g>
   <g id="line2d_28">
    <path d="M 23.319231 398.333333 
L 28.396846 398.333333 
L 107.946154 398.266915 
L 116.408846 397.835199 
L 121.486462 396.80572 
L 123.179 396.108331 
L 124.871538 394.813181 
L 126.564077 393.916538 
L 129.949154 387.274741 
L 131.641692 383.754588 
L 133.334231 379.703091 
L 135.026769 374.788161 
L 136.719308 370.57062 
L 138.411846 365.091137 
L 140.104385 361.504566 
L 141.796923 356.423591 
L 143.489462 357.685533 
L 145.182 354.364634 
L 146.874538 352.87023 
L 150.259615 357.253816 
L 151.952154 355.394113 
L 153.644692 361.106058 
L 155.337231 360.940014 
L 157.029769 362.03591 
L 158.722308 363.397479 
L 162.107385 367.548602 
L 163.799923 367.747856 
L 165.492462 367.681438 
L 167.185 367.913901 
L 168.877538 368.61129 
L 170.570077 370.470993 
L 172.262615 370.603829 
L 173.955154 372.895249 
L 175.647692 372.762413 
L 177.340231 372.297487 
L 179.032769 371.500472 
L 180.725308 370.935919 
L 182.417846 373.692265 
L 184.110385 373.659056 
L 185.802923 374.854579 
L 187.495462 374.954206 
L 189.188 376.249357 
L 190.880538 376.415402 
L 192.573077 378.740031 
L 194.265615 378.507568 
L 195.958154 379.10533 
L 197.650692 380.898615 
L 199.343231 380.500107 
L 201.035769 380.73257 
L 202.728308 381.662422 
L 204.420846 381.994512 
L 206.113385 385.415037 
L 207.805923 382.658691 
L 209.498462 383.322871 
L 212.883538 385.049738 
L 214.576077 384.618022 
L 216.268615 386.344889 
L 217.961154 385.747127 
L 219.653692 386.510934 
L 221.346231 386.776606 
L 223.038769 387.93892 
L 224.731308 387.075487 
L 226.423846 388.470264 
L 228.116385 389.26728 
L 229.808923 389.134444 
L 231.501462 390.695266 
L 233.194 390.031086 
L 234.886538 390.662057 
L 236.579077 391.824372 
L 238.271615 391.757954 
L 239.964154 391.824372 
L 241.656692 392.388925 
L 243.349231 392.721014 
L 245.041769 392.388925 
L 246.734308 393.219149 
L 248.426846 393.617657 
L 250.119385 393.51803 
L 251.811923 393.883329 
L 253.504462 394.381464 
L 255.197 393.650866 
L 256.889538 394.016165 
L 258.582077 394.215419 
L 260.274615 394.215419 
L 261.967154 395.410942 
L 263.659692 394.813181 
L 265.352231 395.377733 
L 267.044769 395.112062 
L 268.737308 395.776241 
L 270.429846 395.278106 
L 272.122385 395.244898 
L 273.814923 394.912808 
L 275.507462 395.610196 
L 277.2 395.410942 
L 278.892538 396.008704 
L 280.585077 396.075122 
L 282.277615 395.842659 
L 283.970154 396.307585 
L 285.662692 395.975495 
L 287.355231 396.174749 
L 289 396.110206 
L 289 396.110206 
" clip-path="url(#p8e2b6b1d63)" style="fill: none; stroke: #008000; stroke-width: 1.5; stroke-linecap: square"/>
   </g>
   <g id="patch_8">
    <path d="M 57.17 398.333333 
L 57.17 218.506667 
" style="fill: none; stroke: #000000; stroke-width: 0.8; stroke-linejoin: miter; stroke-linecap: square"/>
   </g>
   <g id="patch_9">
    <path d="M 277.2 398.333333 
L 277.2 218.506667 
" style="fill: none; stroke: #000000; stroke-width: 0.8; stroke-linejoin: miter; stroke-linecap: square"/>
   </g>
   <g id="patch_10">
    <path d="M 57.17 398.333333 
L 277.2 398.333333 
" style="fill: none; stroke: #000000; stroke-width: 0.8; stroke-linejoin: miter; stroke-linecap: square"/>
   </g>
   <g id="patch_11">
    <path d="M 57.17 218.506667 
L 277.2 218.506667 
" style="fill: none; stroke: #000000; stroke-width: 0.8; stroke-linejoin: miter; stroke-linecap: square"/>
   </g>
   <g id="text_30">
    <!-- Green Channel  -->
    <g transform="translate(183.973125 232.506667) scale(0.12 -0.12)">
     <defs>
      <path id="DejaVuSans-47" d="M 3809 666 
L 3809 1919 
L 2778 1919 
L 2778 2438 
L 4434 2438 
L 4434 434 
Q 4069 175 3628 42 
Q 3188 -91 2688 -91 
Q 1594 -91 976 548 
Q 359 1188 359 2328 
Q 359 3472 976 4111 
Q 1594 4750 2688 4750 
Q 3144 4750 3555 4637 
Q 3966 4525 4313 4306 
L 4313 3634 
Q 3963 3931 3569 4081 
Q 3175 4231 2741 4231 
Q 1884 4231 1454 3753 
Q 1025 3275 1025 2328 
Q 1025 1384 1454 906 
Q 1884 428 2741 428 
Q 3075 428 3337 486 
Q 3600 544 3809 666 
z
" transform="scale(0.015625)"/>
     </defs>
     <use xlink:href="#DejaVuSans-47"/>
     <use xlink:href="#DejaVuSans-72" x="77.490234"/>
     <use xlink:href="#DejaVuSans-65" x="116.353516"/>
     <use xlink:href="#DejaVuSans-65" x="177.876953"/>
     <use xlink:href="#DejaVuSans-6e" x="239.400391"/>
     <use xlink:href="#DejaVuSans-20" x="302.779297"/>
     <use xlink:href="#DejaVuSans-43" x="334.566406"/>
     <use xlink:href="#DejaVuSans-68" x="404.390625"/>
     <use xlink:href="#DejaVuSans-61" x="467.769531"/>
     <use xlink:href="#DejaVuSans-6e" x="529.048828"/>
     <use xlink:href="#DejaVuSans-6e" x="592.427734"/>
     <use xlink:href="#DejaVuSans-65" x="655.806641"/>
     <use xlink:href="#DejaVuSans-6c" x="717.330078"/>
     <use xlink:href="#DejaVuSans-20" x="745.113281"/>
    </g>
   </g>
  </g>
  <g id="axes_3">
   <g id="patch_12">
    <path d="M 57.17 606.04 
L 277.2 606.04 
L 277.2 426.213333 
L 57.17 426.213333 
z
" style="fill: #ffffff"/>
   </g>
   <g id="PolyCollection_3">
    <path d="M 23.319231 606.04 
L 23.319231 606.04 
L 25.011769 606.04 
L 26.704308 606.04 
L 28.396846 606.04 
L 30.089385 606.04 
L 31.781923 606.04 
L 33.474462 606.04 
L 35.167 606.04 
L 36.859538 606.04 
L 38.552077 606.04 
L 40.244615 606.04 
L 41.937154 606.04 
L 43.629692 606.04 
L 45.322231 606.04 
L 47.014769 606.04 
L 48.707308 606.04 
L 50.399846 606.04 
L 52.092385 606.04 
L 53.784923 606.04 
L 55.477462 606.04 
L 57.17 606.04 
L 58.862538 606.04 
L 60.555077 606.04 
L 62.247615 605.940373 
L 63.940154 605.973582 
L 65.632692 605.873955 
L 67.325231 605.774328 
L 69.017769 605.541865 
L 70.710308 605.442238 
L 72.402846 605.242984 
L 74.095385 604.445969 
L 75.787923 603.549326 
L 77.480462 602.885146 
L 79.173 601.656414 
L 80.865538 600.726562 
L 82.558077 596.708275 
L 84.250615 595.114243 
L 85.943154 591.793344 
L 87.635692 587.243713 
L 89.328231 584.786248 
L 91.020769 582.328783 
L 92.713308 576.118702 
L 94.405846 571.27019 
L 96.098385 567.550784 
L 97.790923 562.137719 
L 99.483462 559.846299 
L 101.176 552.839202 
L 102.868538 551.61047 
L 104.561077 548.389198 
L 106.253615 549.983229 
L 107.946154 548.688079 
L 109.638692 549.020169 
L 111.331231 553.536591 
L 113.023769 553.038456 
L 114.716308 558.451521 
L 116.408846 558.385103 
L 118.101385 562.237346 
L 119.793923 565.292572 
L 121.486462 564.960483 
L 123.179 569.410487 
L 124.871538 567.916082 
L 126.564077 570.672428 
L 128.256615 570.705637 
L 129.949154 573.329147 
L 131.641692 574.159372 
L 133.334231 575.255269 
L 135.026769 578.310496 
L 136.719308 577.447062 
L 138.411846 580.13699 
L 140.104385 581.697812 
L 141.796923 582.7605 
L 143.489462 584.254904 
L 145.182 585.450428 
L 146.874538 586.181026 
L 148.567077 588.206774 
L 150.259615 587.01125 
L 151.952154 591.095956 
L 153.644692 590.166104 
L 155.337231 592.125434 
L 157.029769 593.58663 
L 158.722308 593.686257 
L 160.414846 595.313497 
L 162.107385 595.678796 
L 163.799923 596.376185 
L 165.492462 597.206409 
L 167.185 597.339245 
L 168.877538 598.50156 
L 170.570077 599.16574 
L 172.262615 599.497829 
L 173.955154 599.730292 
L 175.647692 600.394472 
L 177.340231 601.257906 
L 179.032769 600.826189 
L 180.725308 601.091861 
L 182.417846 602.121339 
L 184.110385 602.220966 
L 185.802923 602.154548 
L 187.495462 602.951564 
L 189.188 602.951564 
L 190.880538 603.017982 
L 192.573077 602.984773 
L 194.265615 602.851937 
L 195.958154 603.482908 
L 197.650692 603.947834 
L 199.343231 603.881416 
L 201.035769 604.479178 
L 202.728308 604.279924 
L 204.420846 604.645223 
L 206.113385 604.612014 
L 207.805923 604.744849 
L 209.498462 604.811267 
L 211.191 604.711641 
L 212.883538 604.877685 
L 214.576077 605.37582 
L 216.268615 605.176566 
L 217.961154 605.076939 
L 219.653692 605.176566 
L 221.346231 605.242984 
L 223.038769 605.242984 
L 224.731308 605.608283 
L 226.423846 605.608283 
L 228.116385 605.575074 
L 229.808923 605.575074 
L 231.501462 605.409029 
L 233.194 605.608283 
L 234.886538 605.475447 
L 236.579077 605.541865 
L 238.271615 605.741119 
L 239.964154 605.807537 
L 241.656692 605.674701 
L 243.349231 605.774328 
L 245.041769 605.70791 
L 246.734308 605.940373 
L 248.426846 605.940373 
L 250.119385 605.774328 
L 251.811923 605.774328 
L 253.504462 605.907164 
L 255.197 605.907164 
L 256.889538 605.873955 
L 258.582077 605.873955 
L 260.274615 605.907164 
L 261.967154 605.907164 
L 263.659692 605.940373 
L 265.352231 605.973582 
L 267.044769 605.973582 
L 268.737308 606.006791 
L 270.429846 606.04 
L 272.122385 605.973582 
L 273.814923 605.973582 
L 275.507462 606.006791 
L 277.2 605.940373 
L 278.892538 605.907164 
L 280.585077 606.006791 
L 282.277615 606.04 
L 283.970154 606.006791 
L 285.662692 606.04 
L 287.355231 606.04 
L 289.047769 606.04 
L 290.740308 606.04 
L 292.432846 606.04 
L 294.125385 606.04 
L 295.817923 606.04 
L 297.510462 606.04 
L 299.203 606.04 
L 300.895538 606.04 
L 302.588077 606.04 
L 304.280615 606.04 
L 305.973154 606.006791 
L 307.665692 606.006791 
L 309.358231 606.04 
L 311.050769 606.04 
L 312.743308 606.04 
L 314.435846 606.04 
L 316.128385 606.04 
L 317.820923 606.04 
L 319.513462 606.04 
L 321.206 606.04 
L 322.898538 606.04 
L 324.591077 606.04 
L 326.283615 606.04 
L 327.976154 606.04 
L 329.668692 606.04 
L 331.361231 606.04 
L 333.053769 606.04 
L 334.746308 606.04 
L 336.438846 606.04 
L 338.131385 606.04 
L 339.823923 606.04 
L 341.516462 606.04 
L 343.209 606.04 
L 344.901538 606.04 
L 346.594077 606.04 
L 348.286615 606.04 
L 349.979154 606.04 
L 351.671692 606.04 
L 353.364231 606.04 
L 355.056769 606.04 
L 356.749308 606.04 
L 358.441846 606.04 
L 360.134385 606.04 
L 361.826923 606.04 
L 363.519462 606.04 
L 365.212 606.04 
L 366.904538 606.04 
L 368.597077 606.04 
L 370.289615 606.04 
L 371.982154 606.04 
L 373.674692 606.04 
L 375.367231 606.04 
L 377.059769 606.04 
L 378.752308 606.04 
L 380.444846 606.04 
L 382.137385 606.04 
L 383.829923 606.04 
L 385.522462 606.04 
L 387.215 606.04 
L 388.907538 606.04 
L 390.600077 606.04 
L 392.292615 606.04 
L 393.985154 606.04 
L 395.677692 606.04 
L 397.370231 606.04 
L 399.062769 606.04 
L 400.755308 606.04 
L 402.447846 606.04 
L 404.140385 606.04 
L 405.832923 606.04 
L 407.525462 606.04 
L 409.218 606.04 
L 410.910538 606.04 
L 412.603077 606.04 
L 414.295615 606.04 
L 415.988154 606.04 
L 417.680692 606.04 
L 419.373231 606.04 
L 421.065769 606.04 
L 422.758308 606.04 
L 424.450846 606.04 
L 426.143385 606.04 
L 427.835923 606.04 
L 429.528462 606.04 
L 431.221 606.04 
L 432.913538 606.04 
L 434.606077 606.04 
L 436.298615 606.04 
L 437.991154 606.04 
L 439.683692 606.04 
L 441.376231 606.04 
L 443.068769 606.04 
L 444.761308 606.04 
L 446.453846 606.04 
L 448.146385 606.04 
L 449.838923 606.04 
L 451.531462 606.04 
L 453.224 606.04 
L 454.916538 606.04 
L 454.916538 606.04 
L 454.916538 606.04 
L 453.224 606.04 
L 451.531462 606.04 
L 449.838923 606.04 
L 448.146385 606.04 
L 446.453846 606.04 
L 444.761308 606.04 
L 443.068769 606.04 
L 441.376231 606.04 
L 439.683692 606.04 
L 437.991154 606.04 
L 436.298615 606.04 
L 434.606077 606.04 
L 432.913538 606.04 
L 431.221 606.04 
L 429.528462 606.04 
L 427.835923 606.04 
L 426.143385 606.04 
L 424.450846 606.04 
L 422.758308 606.04 
L 421.065769 606.04 
L 419.373231 606.04 
L 417.680692 606.04 
L 415.988154 606.04 
L 414.295615 606.04 
L 412.603077 606.04 
L 410.910538 606.04 
L 409.218 606.04 
L 407.525462 606.04 
L 405.832923 606.04 
L 404.140385 606.04 
L 402.447846 606.04 
L 400.755308 606.04 
L 399.062769 606.04 
L 397.370231 606.04 
L 395.677692 606.04 
L 393.985154 606.04 
L 392.292615 606.04 
L 390.600077 606.04 
L 388.907538 606.04 
L 387.215 606.04 
L 385.522462 606.04 
L 383.829923 606.04 
L 382.137385 606.04 
L 380.444846 606.04 
L 378.752308 606.04 
L 377.059769 606.04 
L 375.367231 606.04 
L 373.674692 606.04 
L 371.982154 606.04 
L 370.289615 606.04 
L 368.597077 606.04 
L 366.904538 606.04 
L 365.212 606.04 
L 363.519462 606.04 
L 361.826923 606.04 
L 360.134385 606.04 
L 358.441846 606.04 
L 356.749308 606.04 
L 355.056769 606.04 
L 353.364231 606.04 
L 351.671692 606.04 
L 349.979154 606.04 
L 348.286615 606.04 
L 346.594077 606.04 
L 344.901538 606.04 
L 343.209 606.04 
L 341.516462 606.04 
L 339.823923 606.04 
L 338.131385 606.04 
L 336.438846 606.04 
L 334.746308 606.04 
L 333.053769 606.04 
L 331.361231 606.04 
L 329.668692 606.04 
L 327.976154 606.04 
L 326.283615 606.04 
L 324.591077 606.04 
L 322.898538 606.04 
L 321.206 606.04 
L 319.513462 606.04 
L 317.820923 606.04 
L 316.128385 606.04 
L 314.435846 606.04 
L 312.743308 606.04 
L 311.050769 606.04 
L 309.358231 606.04 
L 307.665692 606.04 
L 305.973154 606.04 
L 304.280615 606.04 
L 302.588077 606.04 
L 300.895538 606.04 
L 299.203 606.04 
L 297.510462 606.04 
L 295.817923 606.04 
L 294.125385 606.04 
L 292.432846 606.04 
L 290.740308 606.04 
L 289.047769 606.04 
L 287.355231 606.04 
L 285.662692 606.04 
L 283.970154 606.04 
L 282.277615 606.04 
L 280.585077 606.04 
L 278.892538 606.04 
L 277.2 606.04 
L 275.507462 606.04 
L 273.814923 606.04 
L 272.122385 606.04 
L 270.429846 606.04 
L 268.737308 606.04 
L 267.044769 606.04 
L 265.352231 606.04 
L 263.659692 606.04 
L 261.967154 606.04 
L 260.274615 606.04 
L 258.582077 606.04 
L 256.889538 606.04 
L 255.197 606.04 
L 253.504462 606.04 
L 251.811923 606.04 
L 250.119385 606.04 
L 248.426846 606.04 
L 246.734308 606.04 
L 245.041769 606.04 
L 243.349231 606.04 
L 241.656692 606.04 
L 239.964154 606.04 
L 238.271615 606.04 
L 236.579077 606.04 
L 234.886538 606.04 
L 233.194 606.04 
L 231.501462 606.04 
L 229.808923 606.04 
L 228.116385 606.04 
L 226.423846 606.04 
L 224.731308 606.04 
L 223.038769 606.04 
L 221.346231 606.04 
L 219.653692 606.04 
L 217.961154 606.04 
L 216.268615 606.04 
L 214.576077 606.04 
L 212.883538 606.04 
L 211.191 606.04 
L 209.498462 606.04 
L 207.805923 606.04 
L 206.113385 606.04 
L 204.420846 606.04 
L 202.728308 606.04 
L 201.035769 606.04 
L 199.343231 606.04 
L 197.650692 606.04 
L 195.958154 606.04 
L 194.265615 606.04 
L 192.573077 606.04 
L 190.880538 606.04 
L 189.188 606.04 
L 187.495462 606.04 
L 185.802923 606.04 
L 184.110385 606.04 
L 182.417846 606.04 
L 180.725308 606.04 
L 179.032769 606.04 
L 177.340231 606.04 
L 175.647692 606.04 
L 173.955154 606.04 
L 172.262615 606.04 
L 170.570077 606.04 
L 168.877538 606.04 
L 167.185 606.04 
L 165.492462 606.04 
L 163.799923 606.04 
L 162.107385 606.04 
L 160.414846 606.04 
L 158.722308 606.04 
L 157.029769 606.04 
L 155.337231 606.04 
L 153.644692 606.04 
L 151.952154 606.04 
L 150.259615 606.04 
L 148.567077 606.04 
L 146.874538 606.04 
L 145.182 606.04 
L 143.489462 606.04 
L 141.796923 606.04 
L 140.104385 606.04 
L 138.411846 606.04 
L 136.719308 606.04 
L 135.026769 606.04 
L 133.334231 606.04 
L 131.641692 606.04 
L 129.949154 606.04 
L 128.256615 606.04 
L 126.564077 606.04 
L 124.871538 606.04 
L 123.179 606.04 
L 121.486462 606.04 
L 119.793923 606.04 
L 118.101385 606.04 
L 116.408846 606.04 
L 114.716308 606.04 
L 113.023769 606.04 
L 111.331231 606.04 
L 109.638692 606.04 
L 107.946154 606.04 
L 106.253615 606.04 
L 104.561077 606.04 
L 102.868538 606.04 
L 101.176 606.04 
L 99.483462 606.04 
L 97.790923 606.04 
L 96.098385 606.04 
L 94.405846 606.04 
L 92.713308 606.04 
L 91.020769 606.04 
L 89.328231 606.04 
L 87.635692 606.04 
L 85.943154 606.04 
L 84.250615 606.04 
L 82.558077 606.04 
L 80.865538 606.04 
L 79.173 606.04 
L 77.480462 606.04 
L 75.787923 606.04 
L 74.095385 606.04 
L 72.402846 606.04 
L 70.710308 606.04 
L 69.017769 606.04 
L 67.325231 606.04 
L 65.632692 606.04 
L 63.940154 606.04 
L 62.247615 606.04 
L 60.555077 606.04 
L 58.862538 606.04 
L 57.17 606.04 
L 55.477462 606.04 
L 53.784923 606.04 
L 52.092385 606.04 
L 50.399846 606.04 
L 48.707308 606.04 
L 47.014769 606.04 
L 45.322231 606.04 
L 43.629692 606.04 
L 41.937154 606.04 
L 40.244615 606.04 
L 38.552077 606.04 
L 36.859538 606.04 
L 35.167 606.04 
L 33.474462 606.04 
L 31.781923 606.04 
L 30.089385 606.04 
L 28.396846 606.04 
L 26.704308 606.04 
L 25.011769 606.04 
L 23.319231 606.04 
z
" clip-path="url(#p440ebb5a04)" style="fill: #0000ff; fill-opacity: 0.4; stroke: #0000ff; stroke-opacity: 0.4"/>
   </g>
   <g id="matplotlib.axis_5">
    <g id="xtick_15">
     <g id="line2d_29">
      <g>
       <use xlink:href="#ma6fe8ee2b6" x="57.17" y="606.04" style="stroke: #000000; stroke-width: 0.8"/>
      </g>
     </g>
     <g id="text_31">
      <!-- 20 -->
      <g transform="translate(50.8075 620.638438) scale(0.1 -0.1)">
       <use xlink:href="#DejaVuSans-32"/>
       <use xlink:href="#DejaVuSans-30" x="63.623047"/>
      </g>
     </g>
    </g>
    <g id="xtick_16">
     <g id="line2d_30">
      <g>
       <use xlink:href="#ma6fe8ee2b6" x="91.020769" y="606.04" style="stroke: #000000; stroke-width: 0.8"/>
      </g>
     </g>
     <g id="text_32">
      <!-- 40 -->
      <g transform="translate(84.658269 620.638438) scale(0.1 -0.1)">
       <use xlink:href="#DejaVuSans-34"/>
       <use xlink:href="#DejaVuSans-30" x="63.623047"/>
      </g>
     </g>
    </g>
    <g id="xtick_17">
     <g id="line2d_31">
      <g>
       <use xlink:href="#ma6fe8ee2b6" x="124.871538" y="606.04" style="stroke: #000000; stroke-width: 0.8"/>
      </g>
     </g>
     <g id="text_33">
      <!-- 60 -->
      <g transform="translate(118.509038 620.638438) scale(0.1 -0.1)">
       <use xlink:href="#DejaVuSans-36"/>
       <use xlink:href="#DejaVuSans-30" x="63.623047"/>
      </g>
     </g>
    </g>
    <g id="xtick_18">
     <g id="line2d_32">
      <g>
       <use xlink:href="#ma6fe8ee2b6" x="158.722308" y="606.04" style="stroke: #000000; stroke-width: 0.8"/>
      </g>
     </g>
     <g id="text_34">
      <!-- 80 -->
      <g transform="translate(152.359808 620.638438) scale(0.1 -0.1)">
       <use xlink:href="#DejaVuSans-38"/>
       <use xlink:href="#DejaVuSans-30" x="63.623047"/>
      </g>
     </g>
    </g>
    <g id="xtick_19">
     <g id="line2d_33">
      <g>
       <use xlink:href="#ma6fe8ee2b6" x="192.573077" y="606.04" style="stroke: #000000; stroke-width: 0.8"/>
      </g>
     </g>
     <g id="text_35">
      <!-- 100 -->
      <g transform="translate(183.029327 620.638438) scale(0.1 -0.1)">
       <use xlink:href="#DejaVuSans-31"/>
       <use xlink:href="#DejaVuSans-30" x="63.623047"/>
       <use xlink:href="#DejaVuSans-30" x="127.246094"/>
      </g>
     </g>
    </g>
    <g id="xtick_20">
     <g id="line2d_34">
      <g>
       <use xlink:href="#ma6fe8ee2b6" x="226.423846" y="606.04" style="stroke: #000000; stroke-width: 0.8"/>
      </g>
     </g>
     <g id="text_36">
      <!-- 120 -->
      <g transform="translate(216.880096 620.638438) scale(0.1 -0.1)">
       <use xlink:href="#DejaVuSans-31"/>
       <use xlink:href="#DejaVuSans-32" x="63.623047"/>
       <use xlink:href="#DejaVuSans-30" x="127.246094"/>
      </g>
     </g>
    </g>
    <g id="xtick_21">
     <g id="line2d_35">
      <g>
       <use xlink:href="#ma6fe8ee2b6" x="260.274615" y="606.04" style="stroke: #000000; stroke-width: 0.8"/>
      </g>
     </g>
     <g id="text_37">
      <!-- 140 -->
      <g transform="translate(250.730865 620.638438) scale(0.1 -0.1)">
       <use xlink:href="#DejaVuSans-31"/>
       <use xlink:href="#DejaVuSans-34" x="63.623047"/>
       <use xlink:href="#DejaVuSans-30" x="127.246094"/>
      </g>
     </g>
    </g>
    <g id="text_38">
     <!-- Pixel Intensity -->
     <g transform="translate(132.273281 634.316563) scale(0.1 -0.1)">
      <defs>
       <path id="DejaVuSans-49" d="M 628 4666 
L 1259 4666 
L 1259 0 
L 628 0 
L 628 4666 
z
" transform="scale(0.015625)"/>
       <path id="DejaVuSans-74" d="M 1172 4494 
L 1172 3500 
L 2356 3500 
L 2356 3053 
L 1172 3053 
L 1172 1153 
Q 1172 725 1289 603 
Q 1406 481 1766 481 
L 2356 481 
L 2356 0 
L 1766 0 
Q 1100 0 847 248 
Q 594 497 594 1153 
L 594 3053 
L 172 3053 
L 172 3500 
L 594 3500 
L 594 4494 
L 1172 4494 
z
" transform="scale(0.015625)"/>
       <path id="DejaVuSans-73" d="M 2834 3397 
L 2834 2853 
Q 2591 2978 2328 3040 
Q 2066 3103 1784 3103 
Q 1356 3103 1142 2972 
Q 928 2841 928 2578 
Q 928 2378 1081 2264 
Q 1234 2150 1697 2047 
L 1894 2003 
Q 2506 1872 2764 1633 
Q 3022 1394 3022 966 
Q 3022 478 2636 193 
Q 2250 -91 1575 -91 
Q 1294 -91 989 -36 
Q 684 19 347 128 
L 347 722 
Q 666 556 975 473 
Q 1284 391 1588 391 
Q 1994 391 2212 530 
Q 2431 669 2431 922 
Q 2431 1156 2273 1281 
Q 2116 1406 1581 1522 
L 1381 1569 
Q 847 1681 609 1914 
Q 372 2147 372 2553 
Q 372 3047 722 3315 
Q 1072 3584 1716 3584 
Q 2034 3584 2315 3537 
Q 2597 3491 2834 3397 
z
" transform="scale(0.015625)"/>
      </defs>
      <use xlink:href="#DejaVuSans-50"/>
      <use xlink:href="#DejaVuSans-69" x="58.052734"/>
      <use xlink:href="#DejaVuSans-78" x="85.835938"/>
      <use xlink:href="#DejaVuSans-65" x="141.890625"/>
      <use xlink:href="#DejaVuSans-6c" x="203.414062"/>
      <use xlink:href="#DejaVuSans-20" x="231.197266"/>
      <use xlink:href="#DejaVuSans-49" x="262.984375"/>
      <use xlink:href="#DejaVuSans-6e" x="292.476562"/>
      <use xlink:href="#DejaVuSans-74" x="355.855469"/>
      <use xlink:href="#DejaVuSans-65" x="395.064453"/>
      <use xlink:href="#DejaVuSans-6e" x="456.587891"/>
      <use xlink:href="#DejaVuSans-73" x="519.966797"/>
      <use xlink:href="#DejaVuSans-69" x="572.066406"/>
      <use xlink:href="#DejaVuSans-74" x="599.849609"/>
      <use xlink:href="#DejaVuSans-79" x="639.058594"/>
     </g>
    </g>
   </g>
   <g id="matplotlib.axis_6">
    <g id="ytick_13">
     <g id="line2d_36">
      <g>
       <use xlink:href="#m579bd3cb44" x="57.17" y="606.04" style="stroke: #000000; stroke-width: 0.8"/>
      </g>
     </g>
     <g id="text_39">
      <!-- 0 -->
      <g transform="translate(43.8075 609.839219) scale(0.1 -0.1)">
       <use xlink:href="#DejaVuSans-30"/>
      </g>
     </g>
    </g>
    <g id="ytick_14">
     <g id="line2d_37">
      <g>
       <use xlink:href="#m579bd3cb44" x="57.17" y="572.831013" style="stroke: #000000; stroke-width: 0.8"/>
      </g>
     </g>
     <g id="text_40">
      <!-- 1000 -->
      <g transform="translate(24.72 576.630231) scale(0.1 -0.1)">
       <use xlink:href="#DejaVuSans-31"/>
       <use xlink:href="#DejaVuSans-30" x="63.623047"/>
       <use xlink:href="#DejaVuSans-30" x="127.246094"/>
       <use xlink:href="#DejaVuSans-30" x="190.869141"/>
      </g>
     </g>
    </g>
    <g id="ytick_15">
     <g id="line2d_38">
      <g>
       <use xlink:href="#m579bd3cb44" x="57.17" y="539.622025" style="stroke: #000000; stroke-width: 0.8"/>
      </g>
     </g>
     <g id="text_41">
      <!-- 2000 -->
      <g transform="translate(24.72 543.421244) scale(0.1 -0.1)">
       <use xlink:href="#DejaVuSans-32"/>
       <use xlink:href="#DejaVuSans-30" x="63.623047"/>
       <use xlink:href="#DejaVuSans-30" x="127.246094"/>
       <use xlink:href="#DejaVuSans-30" x="190.869141"/>
      </g>
     </g>
    </g>
    <g id="ytick_16">
     <g id="line2d_39">
      <g>
       <use xlink:href="#m579bd3cb44" x="57.17" y="506.413038" style="stroke: #000000; stroke-width: 0.8"/>
      </g>
     </g>
     <g id="text_42">
      <!-- 3000 -->
      <g transform="translate(24.72 510.212257) scale(0.1 -0.1)">
       <use xlink:href="#DejaVuSans-33"/>
       <use xlink:href="#DejaVuSans-30" x="63.623047"/>
       <use xlink:href="#DejaVuSans-30" x="127.246094"/>
       <use xlink:href="#DejaVuSans-30" x="190.869141"/>
      </g>
     </g>
    </g>
    <g id="ytick_17">
     <g id="line2d_40">
      <g>
       <use xlink:href="#m579bd3cb44" x="57.17" y="473.20405" style="stroke: #000000; stroke-width: 0.8"/>
      </g>
     </g>
     <g id="text_43">
      <!-- 4000 -->
      <g transform="translate(24.72 477.003269) scale(0.1 -0.1)">
       <use xlink:href="#DejaVuSans-34"/>
       <use xlink:href="#DejaVuSans-30" x="63.623047"/>
       <use xlink:href="#DejaVuSans-30" x="127.246094"/>
       <use xlink:href="#DejaVuSans-30" x="190.869141"/>
      </g>
     </g>
    </g>
    <g id="ytick_18">
     <g id="line2d_41">
      <g>
       <use xlink:href="#m579bd3cb44" x="57.17" y="439.995063" style="stroke: #000000; stroke-width: 0.8"/>
      </g>
     </g>
     <g id="text_44">
      <!-- 5000 -->
      <g transform="translate(24.72 443.794282) scale(0.1 -0.1)">
       <use xlink:href="#DejaVuSans-35"/>
       <use xlink:href="#DejaVuSans-30" x="63.623047"/>
       <use xlink:href="#DejaVuSans-30" x="127.246094"/>
       <use xlink:href="#DejaVuSans-30" x="190.869141"/>
      </g>
     </g>
    </g>
    <g id="text_45">
     <!-- Pixel Frequency -->
     <g transform="translate(18.640313 555.105573) rotate(-90) scale(0.1 -0.1)">
      <use xlink:href="#DejaVuSans-50"/>
      <use xlink:href="#DejaVuSans-69" x="58.052734"/>
      <use xlink:href="#DejaVuSans-78" x="85.835938"/>
      <use xlink:href="#DejaVuSans-65" x="141.890625"/>
      <use xlink:href="#DejaVuSans-6c" x="203.414062"/>
      <use xlink:href="#DejaVuSans-20" x="231.197266"/>
      <use xlink:href="#DejaVuSans-46" x="262.984375"/>
      <use xlink:href="#DejaVuSans-72" x="313.253906"/>
      <use xlink:href="#DejaVuSans-65" x="352.117188"/>
      <use xlink:href="#DejaVuSans-71" x="413.640625"/>
      <use xlink:href="#DejaVuSans-75" x="477.117188"/>
      <use xlink:href="#DejaVuSans-65" x="540.496094"/>
      <use xlink:href="#DejaVuSans-6e" x="602.019531"/>
      <use xlink:href="#DejaVuSans-63" x="665.398438"/>
      <use xlink:href="#DejaVuSans-79" x="720.378906"/>
     </g>
    </g>
   </g>
   <g id="line2d_42">
    <path d="M 23.319231 606.04 
L 63.940154 605.973582 
L 67.325231 605.774328 
L 69.017769 605.541865 
L 72.402846 605.242984 
L 77.480462 602.885146 
L 79.173 601.656414 
L 80.865538 600.726562 
L 82.558077 596.708275 
L 84.250615 595.114243 
L 85.943154 591.793344 
L 87.635692 587.243713 
L 91.020769 582.328783 
L 92.713308 576.118702 
L 94.405846 571.27019 
L 96.098385 567.550784 
L 97.790923 562.137719 
L 99.483462 559.846299 
L 101.176 552.839202 
L 102.868538 551.61047 
L 104.561077 548.389198 
L 106.253615 549.983229 
L 107.946154 548.688079 
L 109.638692 549.020169 
L 111.331231 553.536591 
L 113.023769 553.038456 
L 114.716308 558.451521 
L 116.408846 558.385103 
L 118.101385 562.237346 
L 119.793923 565.292572 
L 121.486462 564.960483 
L 123.179 569.410487 
L 124.871538 567.916082 
L 126.564077 570.672428 
L 128.256615 570.705637 
L 129.949154 573.329147 
L 131.641692 574.159372 
L 133.334231 575.255269 
L 135.026769 578.310496 
L 136.719308 577.447062 
L 138.411846 580.13699 
L 140.104385 581.697812 
L 141.796923 582.7605 
L 143.489462 584.254904 
L 145.182 585.450428 
L 146.874538 586.181026 
L 148.567077 588.206774 
L 150.259615 587.01125 
L 151.952154 591.095956 
L 153.644692 590.166104 
L 155.337231 592.125434 
L 157.029769 593.58663 
L 158.722308 593.686257 
L 160.414846 595.313497 
L 162.107385 595.678796 
L 163.799923 596.376185 
L 165.492462 597.206409 
L 167.185 597.339245 
L 168.877538 598.50156 
L 170.570077 599.16574 
L 173.955154 599.730292 
L 175.647692 600.394472 
L 177.340231 601.257906 
L 179.032769 600.826189 
L 180.725308 601.091861 
L 182.417846 602.121339 
L 184.110385 602.220966 
L 185.802923 602.154548 
L 187.495462 602.951564 
L 194.265615 602.851937 
L 195.958154 603.482908 
L 197.650692 603.947834 
L 199.343231 603.881416 
L 201.035769 604.479178 
L 202.728308 604.279924 
L 204.420846 604.645223 
L 206.113385 604.612014 
L 209.498462 604.811267 
L 211.191 604.711641 
L 212.883538 604.877685 
L 214.576077 605.37582 
L 217.961154 605.076939 
L 221.346231 605.242984 
L 223.038769 605.242984 
L 224.731308 605.608283 
L 229.808923 605.575074 
L 231.501462 605.409029 
L 233.194 605.608283 
L 234.886538 605.475447 
L 236.579077 605.541865 
L 238.271615 605.741119 
L 239.964154 605.807537 
L 241.656692 605.674701 
L 243.349231 605.774328 
L 245.041769 605.70791 
L 246.734308 605.940373 
L 248.426846 605.940373 
L 250.119385 605.774328 
L 251.811923 605.774328 
L 253.504462 605.907164 
L 268.737308 606.006791 
L 272.122385 605.973582 
L 289 606.04 
L 289 606.04 
" clip-path="url(#p440ebb5a04)" style="fill: none; stroke: #0000ff; stroke-width: 1.5; stroke-linecap: square"/>
   </g>
   <g id="patch_13">
    <path d="M 57.17 606.04 
L 57.17 426.213333 
" style="fill: none; stroke: #000000; stroke-width: 0.8; stroke-linejoin: miter; stroke-linecap: square"/>
   </g>
   <g id="patch_14">
    <path d="M 277.2 606.04 
L 277.2 426.213333 
" style="fill: none; stroke: #000000; stroke-width: 0.8; stroke-linejoin: miter; stroke-linecap: square"/>
   </g>
   <g id="patch_15">
    <path d="M 57.17 606.04 
L 277.2 606.04 
" style="fill: none; stroke: #000000; stroke-width: 0.8; stroke-linejoin: miter; stroke-linecap: square"/>
   </g>
   <g id="patch_16">
    <path d="M 57.17 426.213333 
L 277.2 426.213333 
" style="fill: none; stroke: #000000; stroke-width: 0.8; stroke-linejoin: miter; stroke-linecap: square"/>
   </g>
   <g id="text_46">
    <!-- Blue Channel  -->
    <g transform="translate(193.75125 440.213333) scale(0.12 -0.12)">
     <defs>
      <path id="DejaVuSans-42" d="M 1259 2228 
L 1259 519 
L 2272 519 
Q 2781 519 3026 730 
Q 3272 941 3272 1375 
Q 3272 1813 3026 2020 
Q 2781 2228 2272 2228 
L 1259 2228 
z
M 1259 4147 
L 1259 2741 
L 2194 2741 
Q 2656 2741 2882 2914 
Q 3109 3088 3109 3444 
Q 3109 3797 2882 3972 
Q 2656 4147 2194 4147 
L 1259 4147 
z
M 628 4666 
L 2241 4666 
Q 2963 4666 3353 4366 
Q 3744 4066 3744 3513 
Q 3744 3084 3544 2831 
Q 3344 2578 2956 2516 
Q 3422 2416 3680 2098 
Q 3938 1781 3938 1306 
Q 3938 681 3513 340 
Q 3088 0 2303 0 
L 628 0 
L 628 4666 
z
" transform="scale(0.015625)"/>
     </defs>
     <use xlink:href="#DejaVuSans-42"/>
     <use xlink:href="#DejaVuSans-6c" x="68.603516"/>
     <use xlink:href="#DejaVuSans-75" x="96.386719"/>
     <use xlink:href="#DejaVuSans-65" x="159.765625"/>
     <use xlink:href="#DejaVuSans-20" x="221.289062"/>
     <use xlink:href="#DejaVuSans-43" x="253.076172"/>
     <use xlink:href="#DejaVuSans-68" x="322.900391"/>
     <use xlink:href="#DejaVuSans-61" x="386.279297"/>
     <use xlink:href="#DejaVuSans-6e" x="447.558594"/>
     <use xlink:href="#DejaVuSans-6e" x="510.9375"/>
     <use xlink:href="#DejaVuSans-65" x="574.316406"/>
     <use xlink:href="#DejaVuSans-6c" x="635.839844"/>
     <use xlink:href="#DejaVuSans-20" x="663.623047"/>
    </g>
   </g>
  </g>
 </g>
 <defs>
  <clipPath id="p80159e7c08">
   <rect x="57.17" y="10.8" width="220.03" height="179.826667"/>
  </clipPath>
  <clipPath id="p8e2b6b1d63">
   <rect x="57.17" y="218.506667" width="220.03" height="179.826667"/>
  </clipPath>
  <clipPath id="p440ebb5a04">
   <rect x="57.17" y="426.213333" width="220.03" height="179.826667"/>
  </clipPath>
 </defs>
</svg>
